M48
; DRILL file {KiCad 5.1.0-unknown-03bce55~82~ubuntu18.04.1} date Tue 16 Apr 2019 12:19:08 PM MDT
; FORMAT={-:-/ absolute / inch / decimal}
; #@! TF.CreationDate,2019-04-16T12:19:08-06:00
; #@! TF.GenerationSoftware,Kicad,Pcbnew,5.1.0-unknown-03bce55~82~ubuntu18.04.1
; #@! TF.FileFunction,Plated,1,2,PTH
FMAT,2
INCH
T1C0.0079
T2C0.0157
T3C0.0394
T4C0.0472
%
G90
G05
T1
X4.0778Y-2.4988
X4.0778Y-2.5394
X4.0778Y-2.5799
T2
X3.9961Y-3.5335
X4.0551Y-3.4449
X4.1929Y-3.4449
X4.3406Y-3.0807
X4.4291Y-3.3661
X4.4783Y-3.3661
X4.626Y-2.5984
X4.626Y-2.6378
X4.6457Y-2.5689
X4.6457Y-3.1398
X4.6457Y-3.2776
X4.6654Y-2.5984
X4.6654Y-2.6378
X4.7933Y-3.2579
X5.0394Y-3.1978
X5.0684Y-3.0212
X5.0823Y-3.6354
X5.1083Y-3.6614
X5.1323Y-3.6264
T3
X4.4409Y-2.4039
X4.4409Y-2.5039
X5.5878Y-3.1946
X5.5878Y-3.2946
X5.5878Y-3.3946
X5.5878Y-3.4946
X5.5878Y-3.5946
X3.7598Y-2.4886
X3.7598Y-2.5886
X5.1575Y-3.189
X4.0945Y-2.7067
X5.5906Y-2.9134
X5.5906Y-3.0134
X5.3622Y-2.5614
X5.3622Y-2.6614
T4
X3.6615Y-2.9128
X3.6615Y-3.0113
X3.6615Y-3.1097
X3.6615Y-3.2081
X3.6615Y-3.3065
X3.7599Y-2.9128
X3.7599Y-3.0113
X3.7599Y-3.1097
X3.7599Y-3.2081
X3.7599Y-3.3065
T0
M30
