G04 #@! TF.FileFunction,Copper,L1,Top,Signal*
%FSLAX46Y46*%
G04 Gerber Fmt 4.6, Leading zero omitted, Abs format (unit mm)*
G04 Created by KiCad (PCBNEW 4.0.4-stable) date 05/25/17 08:11:09*
%MOMM*%
%LPD*%
G01*
G04 APERTURE LIST*
%ADD10C,0.100000*%
%ADD11R,0.800000X0.800000*%
%ADD12R,2.600000X8.200000*%
%ADD13R,0.900000X1.200000*%
%ADD14R,1.000000X1.500000*%
%ADD15R,3.300000X1.500000*%
%ADD16R,1.250000X1.500000*%
%ADD17R,1.500000X1.250000*%
%ADD18C,3.000000*%
%ADD19R,3.000000X3.000000*%
%ADD20R,1.300000X1.500000*%
%ADD21R,1.500000X1.300000*%
%ADD22R,1.560000X0.650000*%
%ADD23R,1.200000X1.800000*%
%ADD24R,2.200000X0.600000*%
%ADD25C,0.500000*%
%ADD26C,0.300000*%
%ADD27C,0.400000*%
%ADD28C,0.250000*%
%ADD29C,0.254000*%
G04 APERTURE END LIST*
D10*
D11*
X111328200Y-55867400D03*
X111328200Y-57467400D03*
D12*
X111252000Y-44196000D03*
X105652000Y-44196000D03*
D13*
X100838000Y-45466000D03*
X97538000Y-45466000D03*
D11*
X127978000Y-52832000D03*
X129578000Y-52832000D03*
D14*
X123662000Y-52488000D03*
X122162000Y-52488000D03*
X120662000Y-52488000D03*
X119162000Y-52488000D03*
D15*
X121412000Y-60288000D03*
D16*
X90170000Y-47732000D03*
X90170000Y-45232000D03*
D17*
X98786000Y-48006000D03*
X96286000Y-48006000D03*
D16*
X107950000Y-53583480D03*
X107950000Y-51083480D03*
X114554000Y-59202000D03*
X114554000Y-61702000D03*
X126238000Y-48728000D03*
X126238000Y-46228000D03*
X127254000Y-55412000D03*
X127254000Y-57912000D03*
D18*
X84328000Y-58420000D03*
X84328000Y-51816000D03*
D19*
X84582000Y-45212000D03*
D18*
X118110000Y-38862000D03*
X118110000Y-47498000D03*
X131318000Y-46736000D03*
D19*
X134620000Y-60706000D03*
D18*
X134620000Y-53848000D03*
X126238000Y-39116000D03*
D17*
X95296000Y-59182000D03*
X92796000Y-59182000D03*
D20*
X89662000Y-56482000D03*
X89662000Y-59182000D03*
D21*
X118110000Y-43434000D03*
X120810000Y-43434000D03*
D20*
X111231476Y-53683480D03*
X111231476Y-50983480D03*
X108204000Y-59276000D03*
X108204000Y-61976000D03*
X114808000Y-53500000D03*
X114808000Y-50800000D03*
D21*
X123444000Y-43434000D03*
X126144000Y-43434000D03*
D20*
X111302800Y-61827400D03*
X111302800Y-59127400D03*
X130302000Y-57992000D03*
X130302000Y-55292000D03*
D18*
X134366000Y-37084000D03*
D22*
X130222000Y-41214000D03*
X130222000Y-42164000D03*
X130222000Y-43114000D03*
X132922000Y-43114000D03*
X132922000Y-41214000D03*
D23*
X97974000Y-53340000D03*
X96774000Y-53340000D03*
X97974000Y-51540000D03*
D24*
X94499000Y-50535000D03*
X94499000Y-51805000D03*
X94499000Y-53075000D03*
X94499000Y-54345000D03*
X100249000Y-54345000D03*
X100249000Y-53075000D03*
X100249000Y-51805000D03*
X100249000Y-50535000D03*
D23*
X96774000Y-51540000D03*
D25*
X84328000Y-51816000D02*
X90170000Y-51816000D01*
X90170000Y-51816000D02*
X94488000Y-51816000D01*
X90170000Y-47732000D02*
X90170000Y-51816000D01*
X94488000Y-51816000D02*
X94499000Y-51805000D01*
X81026000Y-46228000D02*
X82042000Y-45212000D01*
X82042000Y-45212000D02*
X84582000Y-45212000D01*
X81026000Y-59944000D02*
X81026000Y-46228000D01*
X82804000Y-61722000D02*
X81026000Y-59944000D01*
X88372000Y-61722000D02*
X82804000Y-61722000D01*
X89662000Y-59182000D02*
X89662000Y-60432000D01*
X89662000Y-60432000D02*
X88372000Y-61722000D01*
X84582000Y-45212000D02*
X90150000Y-45212000D01*
X90150000Y-45212000D02*
X90170000Y-45232000D01*
X89662000Y-59182000D02*
X92796000Y-59182000D01*
X100838000Y-45466000D02*
X104382000Y-45466000D01*
X104382000Y-45466000D02*
X105652000Y-44196000D01*
X100838000Y-47204000D02*
X100249000Y-47793000D01*
X100249000Y-47793000D02*
X100249000Y-50535000D01*
X98786000Y-48006000D02*
X100036000Y-48006000D01*
X100838000Y-46990000D02*
X100838000Y-45466000D01*
X100036000Y-48006000D02*
X100838000Y-47204000D01*
X100838000Y-47204000D02*
X100838000Y-46990000D01*
D26*
X100838000Y-45316000D02*
X100838000Y-45466000D01*
D25*
X94996000Y-48006000D02*
X94499000Y-48503000D01*
X94499000Y-48503000D02*
X94499000Y-50535000D01*
X96286000Y-48006000D02*
X94996000Y-48006000D01*
X114554000Y-59202000D02*
X114554000Y-53754000D01*
X114554000Y-53754000D02*
X114808000Y-53500000D01*
X111231476Y-53683480D02*
X111231476Y-55770676D01*
X111231476Y-55770676D02*
X111328200Y-55867400D01*
X126238000Y-48728000D02*
X129326000Y-48728000D01*
X129326000Y-48728000D02*
X131318000Y-46736000D01*
X118364000Y-50038000D02*
X122174000Y-50038000D01*
X122174000Y-50038000D02*
X123803000Y-50038000D01*
X122162000Y-52488000D02*
X122162000Y-50050000D01*
X122162000Y-50050000D02*
X122174000Y-50038000D01*
X123803000Y-50038000D02*
X125113000Y-48728000D01*
X125113000Y-48728000D02*
X126238000Y-48728000D01*
X116840000Y-51562000D02*
X118364000Y-50038000D01*
X116840000Y-52618000D02*
X116840000Y-51562000D01*
X114808000Y-53500000D02*
X115958000Y-53500000D01*
X115958000Y-53500000D02*
X116840000Y-52618000D01*
X111231476Y-53683480D02*
X113030000Y-53683480D01*
X113030000Y-53683480D02*
X114624520Y-53683480D01*
X113030000Y-51622000D02*
X113030000Y-53683480D01*
X114624520Y-53683480D02*
X114808000Y-53500000D01*
X107950000Y-53583480D02*
X111131476Y-53583480D01*
X111131476Y-53583480D02*
X111231476Y-53683480D01*
X113030000Y-48768000D02*
X113030000Y-51622000D01*
X111252000Y-46990000D02*
X113030000Y-48768000D01*
X111252000Y-44196000D02*
X111252000Y-46990000D01*
X102964000Y-59276000D02*
X100249000Y-56561000D01*
X100249000Y-56561000D02*
X100249000Y-54345000D01*
X108204000Y-59276000D02*
X102964000Y-59276000D01*
X107950000Y-51083480D02*
X111131476Y-51083480D01*
X111131476Y-51083480D02*
X111231476Y-50983480D01*
X102627000Y-54345000D02*
X105888520Y-51083480D01*
X105888520Y-51083480D02*
X107950000Y-51083480D01*
X100249000Y-54345000D02*
X102627000Y-54345000D01*
X111328200Y-57467400D02*
X111328200Y-59502000D01*
X89662000Y-56482000D02*
X93162000Y-56482000D01*
X93162000Y-56482000D02*
X94499000Y-55145000D01*
X94499000Y-55145000D02*
X94499000Y-54345000D01*
X118110000Y-38862000D02*
X118110000Y-36740680D01*
X130222000Y-38274000D02*
X130222000Y-41214000D01*
X118110000Y-36740680D02*
X118782680Y-36068000D01*
X118782680Y-36068000D02*
X128016000Y-36068000D01*
X128016000Y-36068000D02*
X130222000Y-38274000D01*
X100249000Y-53075000D02*
X101849000Y-53075000D01*
X101849000Y-53075000D02*
X105648000Y-49276000D01*
X105648000Y-49276000D02*
X107442000Y-49276000D01*
X107442000Y-49276000D02*
X108458000Y-48260000D01*
X108458000Y-48260000D02*
X108458000Y-38608000D01*
X108458000Y-38608000D02*
X109474000Y-37592000D01*
X109474000Y-37592000D02*
X113538000Y-37592000D01*
X113538000Y-37592000D02*
X114808000Y-38862000D01*
X114808000Y-38862000D02*
X118110000Y-38862000D01*
X118110000Y-38862000D02*
X118110000Y-43434000D01*
X118110000Y-47498000D02*
X115988680Y-47498000D01*
X115988680Y-47498000D02*
X114808000Y-48678680D01*
X114808000Y-48678680D02*
X114808000Y-49550000D01*
X114808000Y-49550000D02*
X114808000Y-50800000D01*
X118110000Y-47498000D02*
X120231320Y-47498000D01*
X120231320Y-47498000D02*
X120810000Y-46919320D01*
X120810000Y-46919320D02*
X120810000Y-44584000D01*
X120810000Y-44584000D02*
X120810000Y-43434000D01*
X120810000Y-43434000D02*
X123444000Y-43434000D01*
X84328000Y-55880000D02*
X87133000Y-53075000D01*
X87133000Y-53075000D02*
X94499000Y-53075000D01*
X84328000Y-58420000D02*
X84328000Y-55880000D01*
X131572000Y-43044000D02*
X131572000Y-42164000D01*
X137668000Y-42164000D02*
X137668000Y-59944000D01*
X131572000Y-42164000D02*
X137668000Y-42164000D01*
X126238000Y-46228000D02*
X127933000Y-46228000D01*
X127933000Y-46228000D02*
X130222000Y-43939000D01*
X130222000Y-43939000D02*
X130222000Y-43434000D01*
X130222000Y-43434000D02*
X130222000Y-43114000D01*
D27*
X97538000Y-45466000D02*
X97538000Y-51104000D01*
X97538000Y-51104000D02*
X97974000Y-51540000D01*
D25*
X130222000Y-43114000D02*
X131502001Y-43113999D01*
X131502001Y-43113999D02*
X131572000Y-43044000D01*
X95296000Y-59182000D02*
X95296000Y-58057000D01*
X95296000Y-58057000D02*
X96774000Y-56579000D01*
X96774000Y-56579000D02*
X96774000Y-54740000D01*
X96774000Y-54740000D02*
X96774000Y-53340000D01*
X137668000Y-59944000D02*
X136906000Y-60706000D01*
X136906000Y-60706000D02*
X134620000Y-60706000D01*
X126238000Y-46228000D02*
X126238000Y-43528000D01*
X126238000Y-43528000D02*
X126144000Y-43434000D01*
X119162000Y-52488000D02*
X119162000Y-56788000D01*
X119162000Y-56788000D02*
X121412000Y-59038000D01*
X133938000Y-57992000D02*
X134620000Y-58674000D01*
X134620000Y-58674000D02*
X134620000Y-60706000D01*
X130302000Y-57992000D02*
X133938000Y-57992000D01*
X127254000Y-57912000D02*
X130222000Y-57912000D01*
X130222000Y-57912000D02*
X130302000Y-57992000D01*
X122538000Y-57912000D02*
X127254000Y-57912000D01*
X121412000Y-60288000D02*
X121412000Y-59038000D01*
X121412000Y-59038000D02*
X122538000Y-57912000D01*
X114554000Y-61702000D02*
X116586000Y-61702000D01*
X118254000Y-60288000D02*
X116840000Y-61702000D01*
X116840000Y-61702000D02*
X116586000Y-61702000D01*
X121412000Y-60288000D02*
X118254000Y-60288000D01*
X114554000Y-61702000D02*
X111428200Y-61702000D01*
X111428200Y-61702000D02*
X111302800Y-61827400D01*
X108204000Y-61976000D02*
X111154200Y-61976000D01*
X111154200Y-61976000D02*
X111302800Y-61827400D01*
X95296000Y-59182000D02*
X95296000Y-60307000D01*
X95296000Y-60307000D02*
X96965000Y-61976000D01*
X96965000Y-61976000D02*
X107054000Y-61976000D01*
X107054000Y-61976000D02*
X108204000Y-61976000D01*
D28*
X96774000Y-51540000D02*
X96774000Y-52140000D01*
X96774000Y-52140000D02*
X97974000Y-53340000D01*
D26*
X97289001Y-53468799D02*
X97582801Y-53174999D01*
X97582801Y-53174999D02*
X97974000Y-53174999D01*
X97458999Y-51411201D02*
X97165199Y-51705001D01*
X97165199Y-51705001D02*
X96774000Y-51705001D01*
X100249000Y-51805000D02*
X96873999Y-51805000D01*
X96873999Y-51805000D02*
X96774000Y-51705001D01*
D25*
X127978000Y-52832000D02*
X127978000Y-51932000D01*
X127978000Y-51932000D02*
X128348000Y-51562000D01*
X128348000Y-51562000D02*
X134366000Y-51562000D01*
X134366000Y-51562000D02*
X134620000Y-51816000D01*
X134620000Y-51816000D02*
X134620000Y-53848000D01*
X120662000Y-52488000D02*
X120662000Y-53738000D01*
X120662000Y-53738000D02*
X122336000Y-55412000D01*
X122336000Y-55412000D02*
X126129000Y-55412000D01*
X126129000Y-55412000D02*
X127254000Y-55412000D01*
X130302000Y-55292000D02*
X130302000Y-53556000D01*
X130302000Y-53556000D02*
X129578000Y-52832000D01*
D26*
X130222000Y-42164000D02*
X129172000Y-42164000D01*
X129172000Y-42164000D02*
X126238000Y-39230000D01*
X126238000Y-39230000D02*
X126238000Y-39116000D01*
D25*
X134366000Y-37084000D02*
X134366000Y-39205320D01*
X134366000Y-39205320D02*
X132922000Y-40649320D01*
X132922000Y-40649320D02*
X132922000Y-41214000D01*
X132922000Y-43114000D02*
X132922000Y-43314000D01*
X132922000Y-43314000D02*
X135382000Y-45774000D01*
X135382000Y-45774000D02*
X135382000Y-48768000D01*
X133846010Y-50303990D02*
X127750010Y-50303990D01*
X135382000Y-48768000D02*
X133846010Y-50303990D01*
X127750010Y-50303990D02*
X125566000Y-52488000D01*
X125566000Y-52488000D02*
X123662000Y-52488000D01*
D29*
G36*
X138290000Y-63298000D02*
X109132405Y-63298000D01*
X109213699Y-63264327D01*
X109392327Y-63085698D01*
X109489000Y-62852309D01*
X109489000Y-62261750D01*
X109340400Y-62113150D01*
X110017800Y-62113150D01*
X110017800Y-62703709D01*
X110114473Y-62937098D01*
X110293101Y-63115727D01*
X110526490Y-63212400D01*
X111017050Y-63212400D01*
X111175800Y-63053650D01*
X111175800Y-61954400D01*
X111429800Y-61954400D01*
X111429800Y-63053650D01*
X111588550Y-63212400D01*
X112079110Y-63212400D01*
X112312499Y-63115727D01*
X112491127Y-62937098D01*
X112587800Y-62703709D01*
X112587800Y-62113150D01*
X112462400Y-61987750D01*
X113294000Y-61987750D01*
X113294000Y-62578309D01*
X113390673Y-62811698D01*
X113569301Y-62990327D01*
X113802690Y-63087000D01*
X114268250Y-63087000D01*
X114427000Y-62928250D01*
X114427000Y-61829000D01*
X114681000Y-61829000D01*
X114681000Y-62928250D01*
X114839750Y-63087000D01*
X115305310Y-63087000D01*
X115538699Y-62990327D01*
X115717327Y-62811698D01*
X115814000Y-62578309D01*
X115814000Y-61987750D01*
X115655250Y-61829000D01*
X114681000Y-61829000D01*
X114427000Y-61829000D01*
X113452750Y-61829000D01*
X113294000Y-61987750D01*
X112462400Y-61987750D01*
X112429050Y-61954400D01*
X111429800Y-61954400D01*
X111175800Y-61954400D01*
X110176550Y-61954400D01*
X110017800Y-62113150D01*
X109340400Y-62113150D01*
X109330250Y-62103000D01*
X108331000Y-62103000D01*
X108331000Y-62123000D01*
X108077000Y-62123000D01*
X108077000Y-62103000D01*
X107077750Y-62103000D01*
X106919000Y-62261750D01*
X106919000Y-62852309D01*
X107015673Y-63085698D01*
X107194301Y-63264327D01*
X107275595Y-63298000D01*
X95123000Y-63298000D01*
X95123000Y-60329250D01*
X95169000Y-60283250D01*
X95169000Y-59309000D01*
X95423000Y-59309000D01*
X95423000Y-60283250D01*
X95581750Y-60442000D01*
X96172309Y-60442000D01*
X96405698Y-60345327D01*
X96584327Y-60166699D01*
X96681000Y-59933310D01*
X96681000Y-59467750D01*
X96522250Y-59309000D01*
X95423000Y-59309000D01*
X95169000Y-59309000D01*
X95149000Y-59309000D01*
X95149000Y-59055000D01*
X95169000Y-59055000D01*
X95169000Y-58080750D01*
X95423000Y-58080750D01*
X95423000Y-59055000D01*
X96522250Y-59055000D01*
X96681000Y-58896250D01*
X96681000Y-58430690D01*
X96584327Y-58197301D01*
X96405698Y-58018673D01*
X96172309Y-57922000D01*
X95581750Y-57922000D01*
X95423000Y-58080750D01*
X95169000Y-58080750D01*
X95123000Y-58034750D01*
X95123000Y-55772579D01*
X95124787Y-55770792D01*
X95124790Y-55770790D01*
X95316633Y-55483675D01*
X95316634Y-55483674D01*
X95329387Y-55419562D01*
X96042802Y-55241208D01*
X96088310Y-55219517D01*
X96121794Y-55181830D01*
X96139000Y-55118000D01*
X96139000Y-54979480D01*
X96195431Y-54896890D01*
X96199864Y-54875000D01*
X96488250Y-54875000D01*
X96647000Y-54716250D01*
X96647000Y-53625750D01*
X96739000Y-53625750D01*
X96739000Y-54366310D01*
X96835673Y-54599699D01*
X96901000Y-54665026D01*
X96901000Y-54716250D01*
X97059750Y-54875000D01*
X97688250Y-54875000D01*
X97847000Y-54716250D01*
X97847000Y-54665026D01*
X97912327Y-54599699D01*
X98009000Y-54366310D01*
X98009000Y-53625750D01*
X97850250Y-53467000D01*
X96897750Y-53467000D01*
X96739000Y-53625750D01*
X96647000Y-53625750D01*
X96647000Y-53467000D01*
X96627000Y-53467000D01*
X96627000Y-53213000D01*
X96647000Y-53213000D01*
X96647000Y-53193000D01*
X96877750Y-53193000D01*
X96897750Y-53213000D01*
X97850250Y-53213000D01*
X97870250Y-53193000D01*
X98101000Y-53193000D01*
X98101000Y-53213000D01*
X98121000Y-53213000D01*
X98121000Y-53467000D01*
X98101000Y-53467000D01*
X98101000Y-54716250D01*
X98259750Y-54875000D01*
X98544838Y-54875000D01*
X98545838Y-54880317D01*
X98679000Y-55087257D01*
X98679000Y-55372000D01*
X98689006Y-55421410D01*
X98717447Y-55463035D01*
X98759841Y-55490315D01*
X98806000Y-55499000D01*
X98933000Y-55499000D01*
X98933000Y-57150000D01*
X98943006Y-57199410D01*
X98970197Y-57239803D01*
X102526197Y-60795803D01*
X102568211Y-60823666D01*
X102616000Y-60833000D01*
X107048975Y-60833000D01*
X107015673Y-60866302D01*
X106919000Y-61099691D01*
X106919000Y-61690250D01*
X107077750Y-61849000D01*
X108077000Y-61849000D01*
X108077000Y-61829000D01*
X108331000Y-61829000D01*
X108331000Y-61849000D01*
X109330250Y-61849000D01*
X109489000Y-61690250D01*
X109489000Y-61099691D01*
X109392327Y-60866302D01*
X109359025Y-60833000D01*
X110066715Y-60833000D01*
X110017800Y-60951091D01*
X110017800Y-61541650D01*
X110176550Y-61700400D01*
X111175800Y-61700400D01*
X111175800Y-61680400D01*
X111429800Y-61680400D01*
X111429800Y-61700400D01*
X112429050Y-61700400D01*
X112587800Y-61541650D01*
X112587800Y-60951091D01*
X112538885Y-60833000D01*
X113294000Y-60833000D01*
X113294000Y-61416250D01*
X113452750Y-61575000D01*
X114427000Y-61575000D01*
X114427000Y-61555000D01*
X114681000Y-61555000D01*
X114681000Y-61575000D01*
X115655250Y-61575000D01*
X115814000Y-61416250D01*
X115814000Y-60833000D01*
X116840000Y-60833000D01*
X116889410Y-60822994D01*
X116929803Y-60795803D01*
X117151856Y-60573750D01*
X119127000Y-60573750D01*
X119127000Y-61164310D01*
X119223673Y-61397699D01*
X119402302Y-61576327D01*
X119635691Y-61673000D01*
X121126250Y-61673000D01*
X121285000Y-61514250D01*
X121285000Y-60415000D01*
X121539000Y-60415000D01*
X121539000Y-61514250D01*
X121697750Y-61673000D01*
X123188309Y-61673000D01*
X123421698Y-61576327D01*
X123600327Y-61397699D01*
X123697000Y-61164310D01*
X123697000Y-60991750D01*
X132485000Y-60991750D01*
X132485000Y-62332310D01*
X132581673Y-62565699D01*
X132760302Y-62744327D01*
X132993691Y-62841000D01*
X134334250Y-62841000D01*
X134493000Y-62682250D01*
X134493000Y-60833000D01*
X134747000Y-60833000D01*
X134747000Y-62682250D01*
X134905750Y-62841000D01*
X136246309Y-62841000D01*
X136479698Y-62744327D01*
X136658327Y-62565699D01*
X136755000Y-62332310D01*
X136755000Y-60991750D01*
X136596250Y-60833000D01*
X134747000Y-60833000D01*
X134493000Y-60833000D01*
X132643750Y-60833000D01*
X132485000Y-60991750D01*
X123697000Y-60991750D01*
X123697000Y-60573750D01*
X123538250Y-60415000D01*
X121539000Y-60415000D01*
X121285000Y-60415000D01*
X119285750Y-60415000D01*
X119127000Y-60573750D01*
X117151856Y-60573750D01*
X118313916Y-59411690D01*
X119127000Y-59411690D01*
X119127000Y-60002250D01*
X119285750Y-60161000D01*
X121285000Y-60161000D01*
X121285000Y-59061750D01*
X121539000Y-59061750D01*
X121539000Y-60161000D01*
X123538250Y-60161000D01*
X123697000Y-60002250D01*
X123697000Y-59411690D01*
X123600327Y-59178301D01*
X123421698Y-58999673D01*
X123188309Y-58903000D01*
X121697750Y-58903000D01*
X121539000Y-59061750D01*
X121285000Y-59061750D01*
X121126250Y-58903000D01*
X119635691Y-58903000D01*
X119402302Y-58999673D01*
X119223673Y-59178301D01*
X119127000Y-59411690D01*
X118313916Y-59411690D01*
X118707803Y-59017803D01*
X118735666Y-58975789D01*
X118745000Y-58928000D01*
X118745000Y-58197750D01*
X125994000Y-58197750D01*
X125994000Y-58788309D01*
X126090673Y-59021698D01*
X126269301Y-59200327D01*
X126502690Y-59297000D01*
X126968250Y-59297000D01*
X127127000Y-59138250D01*
X127127000Y-58039000D01*
X127381000Y-58039000D01*
X127381000Y-59138250D01*
X127539750Y-59297000D01*
X128005310Y-59297000D01*
X128238699Y-59200327D01*
X128417327Y-59021698D01*
X128514000Y-58788309D01*
X128514000Y-58277750D01*
X129017000Y-58277750D01*
X129017000Y-58868309D01*
X129113673Y-59101698D01*
X129292301Y-59280327D01*
X129525690Y-59377000D01*
X130016250Y-59377000D01*
X130175000Y-59218250D01*
X130175000Y-58119000D01*
X130429000Y-58119000D01*
X130429000Y-59218250D01*
X130587750Y-59377000D01*
X131078310Y-59377000D01*
X131311699Y-59280327D01*
X131490327Y-59101698D01*
X131499443Y-59079690D01*
X132485000Y-59079690D01*
X132485000Y-60420250D01*
X132643750Y-60579000D01*
X134493000Y-60579000D01*
X134493000Y-58729750D01*
X134747000Y-58729750D01*
X134747000Y-60579000D01*
X136596250Y-60579000D01*
X136755000Y-60420250D01*
X136755000Y-59079690D01*
X136658327Y-58846301D01*
X136479698Y-58667673D01*
X136246309Y-58571000D01*
X134905750Y-58571000D01*
X134747000Y-58729750D01*
X134493000Y-58729750D01*
X134334250Y-58571000D01*
X132993691Y-58571000D01*
X132760302Y-58667673D01*
X132581673Y-58846301D01*
X132485000Y-59079690D01*
X131499443Y-59079690D01*
X131587000Y-58868309D01*
X131587000Y-58277750D01*
X131428250Y-58119000D01*
X130429000Y-58119000D01*
X130175000Y-58119000D01*
X129175750Y-58119000D01*
X129017000Y-58277750D01*
X128514000Y-58277750D01*
X128514000Y-58197750D01*
X128355250Y-58039000D01*
X127381000Y-58039000D01*
X127127000Y-58039000D01*
X126152750Y-58039000D01*
X125994000Y-58197750D01*
X118745000Y-58197750D01*
X118745000Y-53873000D01*
X118876250Y-53873000D01*
X119035000Y-53714250D01*
X119035000Y-52615000D01*
X119015000Y-52615000D01*
X119015000Y-52451000D01*
X119309000Y-52451000D01*
X119309000Y-52615000D01*
X119289000Y-52615000D01*
X119289000Y-53714250D01*
X119447750Y-53873000D01*
X119761000Y-53873000D01*
X119761000Y-54864000D01*
X119771006Y-54913410D01*
X119798197Y-54953803D01*
X121576197Y-56731803D01*
X121618211Y-56759666D01*
X121666000Y-56769000D01*
X126123975Y-56769000D01*
X126090673Y-56802302D01*
X125994000Y-57035691D01*
X125994000Y-57626250D01*
X126152750Y-57785000D01*
X127127000Y-57785000D01*
X127127000Y-57765000D01*
X127381000Y-57765000D01*
X127381000Y-57785000D01*
X128355250Y-57785000D01*
X128514000Y-57626250D01*
X128514000Y-57035691D01*
X128417327Y-56802302D01*
X128384025Y-56769000D01*
X129226974Y-56769000D01*
X129113673Y-56882302D01*
X129017000Y-57115691D01*
X129017000Y-57706250D01*
X129175750Y-57865000D01*
X130175000Y-57865000D01*
X130175000Y-57845000D01*
X130429000Y-57845000D01*
X130429000Y-57865000D01*
X131428250Y-57865000D01*
X131587000Y-57706250D01*
X131587000Y-57115691D01*
X131490327Y-56882302D01*
X131377026Y-56769000D01*
X135382000Y-56769000D01*
X135431410Y-56758994D01*
X135471803Y-56731803D01*
X136995803Y-55207803D01*
X137023666Y-55165789D01*
X137033000Y-55118000D01*
X137033000Y-42037000D01*
X138290000Y-42037000D01*
X138290000Y-63298000D01*
X138290000Y-63298000D01*
G37*
X138290000Y-63298000D02*
X109132405Y-63298000D01*
X109213699Y-63264327D01*
X109392327Y-63085698D01*
X109489000Y-62852309D01*
X109489000Y-62261750D01*
X109340400Y-62113150D01*
X110017800Y-62113150D01*
X110017800Y-62703709D01*
X110114473Y-62937098D01*
X110293101Y-63115727D01*
X110526490Y-63212400D01*
X111017050Y-63212400D01*
X111175800Y-63053650D01*
X111175800Y-61954400D01*
X111429800Y-61954400D01*
X111429800Y-63053650D01*
X111588550Y-63212400D01*
X112079110Y-63212400D01*
X112312499Y-63115727D01*
X112491127Y-62937098D01*
X112587800Y-62703709D01*
X112587800Y-62113150D01*
X112462400Y-61987750D01*
X113294000Y-61987750D01*
X113294000Y-62578309D01*
X113390673Y-62811698D01*
X113569301Y-62990327D01*
X113802690Y-63087000D01*
X114268250Y-63087000D01*
X114427000Y-62928250D01*
X114427000Y-61829000D01*
X114681000Y-61829000D01*
X114681000Y-62928250D01*
X114839750Y-63087000D01*
X115305310Y-63087000D01*
X115538699Y-62990327D01*
X115717327Y-62811698D01*
X115814000Y-62578309D01*
X115814000Y-61987750D01*
X115655250Y-61829000D01*
X114681000Y-61829000D01*
X114427000Y-61829000D01*
X113452750Y-61829000D01*
X113294000Y-61987750D01*
X112462400Y-61987750D01*
X112429050Y-61954400D01*
X111429800Y-61954400D01*
X111175800Y-61954400D01*
X110176550Y-61954400D01*
X110017800Y-62113150D01*
X109340400Y-62113150D01*
X109330250Y-62103000D01*
X108331000Y-62103000D01*
X108331000Y-62123000D01*
X108077000Y-62123000D01*
X108077000Y-62103000D01*
X107077750Y-62103000D01*
X106919000Y-62261750D01*
X106919000Y-62852309D01*
X107015673Y-63085698D01*
X107194301Y-63264327D01*
X107275595Y-63298000D01*
X95123000Y-63298000D01*
X95123000Y-60329250D01*
X95169000Y-60283250D01*
X95169000Y-59309000D01*
X95423000Y-59309000D01*
X95423000Y-60283250D01*
X95581750Y-60442000D01*
X96172309Y-60442000D01*
X96405698Y-60345327D01*
X96584327Y-60166699D01*
X96681000Y-59933310D01*
X96681000Y-59467750D01*
X96522250Y-59309000D01*
X95423000Y-59309000D01*
X95169000Y-59309000D01*
X95149000Y-59309000D01*
X95149000Y-59055000D01*
X95169000Y-59055000D01*
X95169000Y-58080750D01*
X95423000Y-58080750D01*
X95423000Y-59055000D01*
X96522250Y-59055000D01*
X96681000Y-58896250D01*
X96681000Y-58430690D01*
X96584327Y-58197301D01*
X96405698Y-58018673D01*
X96172309Y-57922000D01*
X95581750Y-57922000D01*
X95423000Y-58080750D01*
X95169000Y-58080750D01*
X95123000Y-58034750D01*
X95123000Y-55772579D01*
X95124787Y-55770792D01*
X95124790Y-55770790D01*
X95316633Y-55483675D01*
X95316634Y-55483674D01*
X95329387Y-55419562D01*
X96042802Y-55241208D01*
X96088310Y-55219517D01*
X96121794Y-55181830D01*
X96139000Y-55118000D01*
X96139000Y-54979480D01*
X96195431Y-54896890D01*
X96199864Y-54875000D01*
X96488250Y-54875000D01*
X96647000Y-54716250D01*
X96647000Y-53625750D01*
X96739000Y-53625750D01*
X96739000Y-54366310D01*
X96835673Y-54599699D01*
X96901000Y-54665026D01*
X96901000Y-54716250D01*
X97059750Y-54875000D01*
X97688250Y-54875000D01*
X97847000Y-54716250D01*
X97847000Y-54665026D01*
X97912327Y-54599699D01*
X98009000Y-54366310D01*
X98009000Y-53625750D01*
X97850250Y-53467000D01*
X96897750Y-53467000D01*
X96739000Y-53625750D01*
X96647000Y-53625750D01*
X96647000Y-53467000D01*
X96627000Y-53467000D01*
X96627000Y-53213000D01*
X96647000Y-53213000D01*
X96647000Y-53193000D01*
X96877750Y-53193000D01*
X96897750Y-53213000D01*
X97850250Y-53213000D01*
X97870250Y-53193000D01*
X98101000Y-53193000D01*
X98101000Y-53213000D01*
X98121000Y-53213000D01*
X98121000Y-53467000D01*
X98101000Y-53467000D01*
X98101000Y-54716250D01*
X98259750Y-54875000D01*
X98544838Y-54875000D01*
X98545838Y-54880317D01*
X98679000Y-55087257D01*
X98679000Y-55372000D01*
X98689006Y-55421410D01*
X98717447Y-55463035D01*
X98759841Y-55490315D01*
X98806000Y-55499000D01*
X98933000Y-55499000D01*
X98933000Y-57150000D01*
X98943006Y-57199410D01*
X98970197Y-57239803D01*
X102526197Y-60795803D01*
X102568211Y-60823666D01*
X102616000Y-60833000D01*
X107048975Y-60833000D01*
X107015673Y-60866302D01*
X106919000Y-61099691D01*
X106919000Y-61690250D01*
X107077750Y-61849000D01*
X108077000Y-61849000D01*
X108077000Y-61829000D01*
X108331000Y-61829000D01*
X108331000Y-61849000D01*
X109330250Y-61849000D01*
X109489000Y-61690250D01*
X109489000Y-61099691D01*
X109392327Y-60866302D01*
X109359025Y-60833000D01*
X110066715Y-60833000D01*
X110017800Y-60951091D01*
X110017800Y-61541650D01*
X110176550Y-61700400D01*
X111175800Y-61700400D01*
X111175800Y-61680400D01*
X111429800Y-61680400D01*
X111429800Y-61700400D01*
X112429050Y-61700400D01*
X112587800Y-61541650D01*
X112587800Y-60951091D01*
X112538885Y-60833000D01*
X113294000Y-60833000D01*
X113294000Y-61416250D01*
X113452750Y-61575000D01*
X114427000Y-61575000D01*
X114427000Y-61555000D01*
X114681000Y-61555000D01*
X114681000Y-61575000D01*
X115655250Y-61575000D01*
X115814000Y-61416250D01*
X115814000Y-60833000D01*
X116840000Y-60833000D01*
X116889410Y-60822994D01*
X116929803Y-60795803D01*
X117151856Y-60573750D01*
X119127000Y-60573750D01*
X119127000Y-61164310D01*
X119223673Y-61397699D01*
X119402302Y-61576327D01*
X119635691Y-61673000D01*
X121126250Y-61673000D01*
X121285000Y-61514250D01*
X121285000Y-60415000D01*
X121539000Y-60415000D01*
X121539000Y-61514250D01*
X121697750Y-61673000D01*
X123188309Y-61673000D01*
X123421698Y-61576327D01*
X123600327Y-61397699D01*
X123697000Y-61164310D01*
X123697000Y-60991750D01*
X132485000Y-60991750D01*
X132485000Y-62332310D01*
X132581673Y-62565699D01*
X132760302Y-62744327D01*
X132993691Y-62841000D01*
X134334250Y-62841000D01*
X134493000Y-62682250D01*
X134493000Y-60833000D01*
X134747000Y-60833000D01*
X134747000Y-62682250D01*
X134905750Y-62841000D01*
X136246309Y-62841000D01*
X136479698Y-62744327D01*
X136658327Y-62565699D01*
X136755000Y-62332310D01*
X136755000Y-60991750D01*
X136596250Y-60833000D01*
X134747000Y-60833000D01*
X134493000Y-60833000D01*
X132643750Y-60833000D01*
X132485000Y-60991750D01*
X123697000Y-60991750D01*
X123697000Y-60573750D01*
X123538250Y-60415000D01*
X121539000Y-60415000D01*
X121285000Y-60415000D01*
X119285750Y-60415000D01*
X119127000Y-60573750D01*
X117151856Y-60573750D01*
X118313916Y-59411690D01*
X119127000Y-59411690D01*
X119127000Y-60002250D01*
X119285750Y-60161000D01*
X121285000Y-60161000D01*
X121285000Y-59061750D01*
X121539000Y-59061750D01*
X121539000Y-60161000D01*
X123538250Y-60161000D01*
X123697000Y-60002250D01*
X123697000Y-59411690D01*
X123600327Y-59178301D01*
X123421698Y-58999673D01*
X123188309Y-58903000D01*
X121697750Y-58903000D01*
X121539000Y-59061750D01*
X121285000Y-59061750D01*
X121126250Y-58903000D01*
X119635691Y-58903000D01*
X119402302Y-58999673D01*
X119223673Y-59178301D01*
X119127000Y-59411690D01*
X118313916Y-59411690D01*
X118707803Y-59017803D01*
X118735666Y-58975789D01*
X118745000Y-58928000D01*
X118745000Y-58197750D01*
X125994000Y-58197750D01*
X125994000Y-58788309D01*
X126090673Y-59021698D01*
X126269301Y-59200327D01*
X126502690Y-59297000D01*
X126968250Y-59297000D01*
X127127000Y-59138250D01*
X127127000Y-58039000D01*
X127381000Y-58039000D01*
X127381000Y-59138250D01*
X127539750Y-59297000D01*
X128005310Y-59297000D01*
X128238699Y-59200327D01*
X128417327Y-59021698D01*
X128514000Y-58788309D01*
X128514000Y-58277750D01*
X129017000Y-58277750D01*
X129017000Y-58868309D01*
X129113673Y-59101698D01*
X129292301Y-59280327D01*
X129525690Y-59377000D01*
X130016250Y-59377000D01*
X130175000Y-59218250D01*
X130175000Y-58119000D01*
X130429000Y-58119000D01*
X130429000Y-59218250D01*
X130587750Y-59377000D01*
X131078310Y-59377000D01*
X131311699Y-59280327D01*
X131490327Y-59101698D01*
X131499443Y-59079690D01*
X132485000Y-59079690D01*
X132485000Y-60420250D01*
X132643750Y-60579000D01*
X134493000Y-60579000D01*
X134493000Y-58729750D01*
X134747000Y-58729750D01*
X134747000Y-60579000D01*
X136596250Y-60579000D01*
X136755000Y-60420250D01*
X136755000Y-59079690D01*
X136658327Y-58846301D01*
X136479698Y-58667673D01*
X136246309Y-58571000D01*
X134905750Y-58571000D01*
X134747000Y-58729750D01*
X134493000Y-58729750D01*
X134334250Y-58571000D01*
X132993691Y-58571000D01*
X132760302Y-58667673D01*
X132581673Y-58846301D01*
X132485000Y-59079690D01*
X131499443Y-59079690D01*
X131587000Y-58868309D01*
X131587000Y-58277750D01*
X131428250Y-58119000D01*
X130429000Y-58119000D01*
X130175000Y-58119000D01*
X129175750Y-58119000D01*
X129017000Y-58277750D01*
X128514000Y-58277750D01*
X128514000Y-58197750D01*
X128355250Y-58039000D01*
X127381000Y-58039000D01*
X127127000Y-58039000D01*
X126152750Y-58039000D01*
X125994000Y-58197750D01*
X118745000Y-58197750D01*
X118745000Y-53873000D01*
X118876250Y-53873000D01*
X119035000Y-53714250D01*
X119035000Y-52615000D01*
X119015000Y-52615000D01*
X119015000Y-52451000D01*
X119309000Y-52451000D01*
X119309000Y-52615000D01*
X119289000Y-52615000D01*
X119289000Y-53714250D01*
X119447750Y-53873000D01*
X119761000Y-53873000D01*
X119761000Y-54864000D01*
X119771006Y-54913410D01*
X119798197Y-54953803D01*
X121576197Y-56731803D01*
X121618211Y-56759666D01*
X121666000Y-56769000D01*
X126123975Y-56769000D01*
X126090673Y-56802302D01*
X125994000Y-57035691D01*
X125994000Y-57626250D01*
X126152750Y-57785000D01*
X127127000Y-57785000D01*
X127127000Y-57765000D01*
X127381000Y-57765000D01*
X127381000Y-57785000D01*
X128355250Y-57785000D01*
X128514000Y-57626250D01*
X128514000Y-57035691D01*
X128417327Y-56802302D01*
X128384025Y-56769000D01*
X129226974Y-56769000D01*
X129113673Y-56882302D01*
X129017000Y-57115691D01*
X129017000Y-57706250D01*
X129175750Y-57865000D01*
X130175000Y-57865000D01*
X130175000Y-57845000D01*
X130429000Y-57845000D01*
X130429000Y-57865000D01*
X131428250Y-57865000D01*
X131587000Y-57706250D01*
X131587000Y-57115691D01*
X131490327Y-56882302D01*
X131377026Y-56769000D01*
X135382000Y-56769000D01*
X135431410Y-56758994D01*
X135471803Y-56731803D01*
X136995803Y-55207803D01*
X137023666Y-55165789D01*
X137033000Y-55118000D01*
X137033000Y-42037000D01*
X138290000Y-42037000D01*
X138290000Y-63298000D01*
G36*
X96897750Y-51413000D02*
X97850250Y-51413000D01*
X97870250Y-51393000D01*
X98101000Y-51393000D01*
X98101000Y-51413000D01*
X98121000Y-51413000D01*
X98121000Y-51667000D01*
X98101000Y-51667000D01*
X98101000Y-51687000D01*
X97870250Y-51687000D01*
X97850250Y-51667000D01*
X96897750Y-51667000D01*
X96877750Y-51687000D01*
X96647000Y-51687000D01*
X96647000Y-51667000D01*
X96627000Y-51667000D01*
X96627000Y-51413000D01*
X96647000Y-51413000D01*
X96647000Y-51393000D01*
X96877750Y-51393000D01*
X96897750Y-51413000D01*
X96897750Y-51413000D01*
G37*
X96897750Y-51413000D02*
X97850250Y-51413000D01*
X97870250Y-51393000D01*
X98101000Y-51393000D01*
X98101000Y-51413000D01*
X98121000Y-51413000D01*
X98121000Y-51667000D01*
X98101000Y-51667000D01*
X98101000Y-51687000D01*
X97870250Y-51687000D01*
X97850250Y-51667000D01*
X96897750Y-51667000D01*
X96877750Y-51687000D01*
X96647000Y-51687000D01*
X96647000Y-51667000D01*
X96627000Y-51667000D01*
X96627000Y-51413000D01*
X96647000Y-51413000D01*
X96647000Y-51393000D01*
X96877750Y-51393000D01*
X96897750Y-51413000D01*
G36*
X129190110Y-43085431D02*
X129442000Y-43136440D01*
X130369000Y-43136440D01*
X130369000Y-43241000D01*
X130349000Y-43241000D01*
X130349000Y-43915250D01*
X130376072Y-43942322D01*
X127709394Y-46609000D01*
X127498000Y-46609000D01*
X127498000Y-46513750D01*
X127339250Y-46355000D01*
X126365000Y-46355000D01*
X126365000Y-46375000D01*
X126111000Y-46375000D01*
X126111000Y-45001750D01*
X126365000Y-45001750D01*
X126365000Y-46101000D01*
X127339250Y-46101000D01*
X127498000Y-45942250D01*
X127498000Y-45351691D01*
X127401327Y-45118302D01*
X127222699Y-44939673D01*
X126989310Y-44843000D01*
X126523750Y-44843000D01*
X126365000Y-45001750D01*
X126111000Y-45001750D01*
X126111000Y-43561000D01*
X126271000Y-43561000D01*
X126271000Y-44560250D01*
X126429750Y-44719000D01*
X127020309Y-44719000D01*
X127253698Y-44622327D01*
X127432327Y-44443699D01*
X127529000Y-44210310D01*
X127529000Y-43719750D01*
X127370250Y-43561000D01*
X126271000Y-43561000D01*
X126111000Y-43561000D01*
X126111000Y-43399750D01*
X128807000Y-43399750D01*
X128807000Y-43565310D01*
X128903673Y-43798699D01*
X129082302Y-43977327D01*
X129315691Y-44074000D01*
X129936250Y-44074000D01*
X130095000Y-43915250D01*
X130095000Y-43241000D01*
X128965750Y-43241000D01*
X128807000Y-43399750D01*
X126111000Y-43399750D01*
X126111000Y-43287000D01*
X126271000Y-43287000D01*
X126271000Y-43307000D01*
X127370250Y-43307000D01*
X127529000Y-43148250D01*
X127529000Y-43053000D01*
X129142646Y-43053000D01*
X129190110Y-43085431D01*
X129190110Y-43085431D01*
G37*
X129190110Y-43085431D02*
X129442000Y-43136440D01*
X130369000Y-43136440D01*
X130369000Y-43241000D01*
X130349000Y-43241000D01*
X130349000Y-43915250D01*
X130376072Y-43942322D01*
X127709394Y-46609000D01*
X127498000Y-46609000D01*
X127498000Y-46513750D01*
X127339250Y-46355000D01*
X126365000Y-46355000D01*
X126365000Y-46375000D01*
X126111000Y-46375000D01*
X126111000Y-45001750D01*
X126365000Y-45001750D01*
X126365000Y-46101000D01*
X127339250Y-46101000D01*
X127498000Y-45942250D01*
X127498000Y-45351691D01*
X127401327Y-45118302D01*
X127222699Y-44939673D01*
X126989310Y-44843000D01*
X126523750Y-44843000D01*
X126365000Y-45001750D01*
X126111000Y-45001750D01*
X126111000Y-43561000D01*
X126271000Y-43561000D01*
X126271000Y-44560250D01*
X126429750Y-44719000D01*
X127020309Y-44719000D01*
X127253698Y-44622327D01*
X127432327Y-44443699D01*
X127529000Y-44210310D01*
X127529000Y-43719750D01*
X127370250Y-43561000D01*
X126271000Y-43561000D01*
X126111000Y-43561000D01*
X126111000Y-43399750D01*
X128807000Y-43399750D01*
X128807000Y-43565310D01*
X128903673Y-43798699D01*
X129082302Y-43977327D01*
X129315691Y-44074000D01*
X129936250Y-44074000D01*
X130095000Y-43915250D01*
X130095000Y-43241000D01*
X128965750Y-43241000D01*
X128807000Y-43399750D01*
X126111000Y-43399750D01*
X126111000Y-43287000D01*
X126271000Y-43287000D01*
X126271000Y-43307000D01*
X127370250Y-43307000D01*
X127529000Y-43148250D01*
X127529000Y-43053000D01*
X129142646Y-43053000D01*
X129190110Y-43085431D01*
G36*
X138290000Y-41275000D02*
X132775000Y-41275000D01*
X132775000Y-41087000D01*
X132795000Y-41087000D01*
X132795000Y-40412750D01*
X133049000Y-40412750D01*
X133049000Y-41087000D01*
X134178250Y-41087000D01*
X134337000Y-40928250D01*
X134337000Y-40762690D01*
X134240327Y-40529301D01*
X134061698Y-40350673D01*
X133828309Y-40254000D01*
X133207750Y-40254000D01*
X133049000Y-40412750D01*
X132795000Y-40412750D01*
X132636250Y-40254000D01*
X132015691Y-40254000D01*
X131953000Y-40279967D01*
X131953000Y-38597970D01*
X133031635Y-38597970D01*
X133191418Y-38916739D01*
X133982187Y-39226723D01*
X134831387Y-39210497D01*
X135540582Y-38916739D01*
X135700365Y-38597970D01*
X134366000Y-37263605D01*
X133031635Y-38597970D01*
X131953000Y-38597970D01*
X131953000Y-36700187D01*
X132223277Y-36700187D01*
X132239503Y-37549387D01*
X132533261Y-38258582D01*
X132852030Y-38418365D01*
X134186395Y-37084000D01*
X134545605Y-37084000D01*
X135879970Y-38418365D01*
X136198739Y-38258582D01*
X136508723Y-37467813D01*
X136492497Y-36618613D01*
X136198739Y-35909418D01*
X135879970Y-35749635D01*
X134545605Y-37084000D01*
X134186395Y-37084000D01*
X132852030Y-35749635D01*
X132533261Y-35909418D01*
X132223277Y-36700187D01*
X131953000Y-36700187D01*
X131953000Y-35570030D01*
X133031635Y-35570030D01*
X134366000Y-36904395D01*
X135700365Y-35570030D01*
X135540582Y-35251261D01*
X134749813Y-34941277D01*
X133900613Y-34957503D01*
X133191418Y-35251261D01*
X133031635Y-35570030D01*
X131953000Y-35570030D01*
X131953000Y-34710000D01*
X138290000Y-34710000D01*
X138290000Y-41275000D01*
X138290000Y-41275000D01*
G37*
X138290000Y-41275000D02*
X132775000Y-41275000D01*
X132775000Y-41087000D01*
X132795000Y-41087000D01*
X132795000Y-40412750D01*
X133049000Y-40412750D01*
X133049000Y-41087000D01*
X134178250Y-41087000D01*
X134337000Y-40928250D01*
X134337000Y-40762690D01*
X134240327Y-40529301D01*
X134061698Y-40350673D01*
X133828309Y-40254000D01*
X133207750Y-40254000D01*
X133049000Y-40412750D01*
X132795000Y-40412750D01*
X132636250Y-40254000D01*
X132015691Y-40254000D01*
X131953000Y-40279967D01*
X131953000Y-38597970D01*
X133031635Y-38597970D01*
X133191418Y-38916739D01*
X133982187Y-39226723D01*
X134831387Y-39210497D01*
X135540582Y-38916739D01*
X135700365Y-38597970D01*
X134366000Y-37263605D01*
X133031635Y-38597970D01*
X131953000Y-38597970D01*
X131953000Y-36700187D01*
X132223277Y-36700187D01*
X132239503Y-37549387D01*
X132533261Y-38258582D01*
X132852030Y-38418365D01*
X134186395Y-37084000D01*
X134545605Y-37084000D01*
X135879970Y-38418365D01*
X136198739Y-38258582D01*
X136508723Y-37467813D01*
X136492497Y-36618613D01*
X136198739Y-35909418D01*
X135879970Y-35749635D01*
X134545605Y-37084000D01*
X134186395Y-37084000D01*
X132852030Y-35749635D01*
X132533261Y-35909418D01*
X132223277Y-36700187D01*
X131953000Y-36700187D01*
X131953000Y-35570030D01*
X133031635Y-35570030D01*
X134366000Y-36904395D01*
X135700365Y-35570030D01*
X135540582Y-35251261D01*
X134749813Y-34941277D01*
X133900613Y-34957503D01*
X133191418Y-35251261D01*
X133031635Y-35570030D01*
X131953000Y-35570030D01*
X131953000Y-34710000D01*
X138290000Y-34710000D01*
X138290000Y-41275000D01*
G36*
X111379000Y-44069000D02*
X111399000Y-44069000D01*
X111399000Y-44323000D01*
X111379000Y-44323000D01*
X111379000Y-48772250D01*
X111537750Y-48931000D01*
X112678309Y-48931000D01*
X112911698Y-48834327D01*
X113090327Y-48655699D01*
X113157000Y-48494736D01*
X113157000Y-52578000D01*
X113167006Y-52627410D01*
X113195447Y-52669035D01*
X113237841Y-52696315D01*
X113284000Y-52705000D01*
X113523000Y-52705000D01*
X113523000Y-53214250D01*
X113681750Y-53373000D01*
X114681000Y-53373000D01*
X114681000Y-53353000D01*
X114935000Y-53353000D01*
X114935000Y-53373000D01*
X115934250Y-53373000D01*
X116093000Y-53214250D01*
X116093000Y-52705000D01*
X116332000Y-52705000D01*
X116381410Y-52694994D01*
X116423035Y-52666553D01*
X116450315Y-52624159D01*
X116459000Y-52578000D01*
X116459000Y-51106606D01*
X117654606Y-49911000D01*
X121666000Y-49911000D01*
X121715410Y-49900994D01*
X121755803Y-49873803D01*
X122615856Y-49013750D01*
X124978000Y-49013750D01*
X124978000Y-49604309D01*
X125074673Y-49837698D01*
X125253301Y-50016327D01*
X125486690Y-50113000D01*
X125952250Y-50113000D01*
X126111000Y-49954250D01*
X126111000Y-48855000D01*
X125136750Y-48855000D01*
X124978000Y-49013750D01*
X122615856Y-49013750D01*
X123750606Y-47879000D01*
X124978000Y-47879000D01*
X124978000Y-48442250D01*
X125136750Y-48601000D01*
X126111000Y-48601000D01*
X126111000Y-48581000D01*
X126365000Y-48581000D01*
X126365000Y-48601000D01*
X127339250Y-48601000D01*
X127498000Y-48442250D01*
X127498000Y-48249970D01*
X129983635Y-48249970D01*
X130143418Y-48568739D01*
X130934187Y-48878723D01*
X131783387Y-48862497D01*
X132492582Y-48568739D01*
X132652365Y-48249970D01*
X131318000Y-46915605D01*
X129983635Y-48249970D01*
X127498000Y-48249970D01*
X127498000Y-47879000D01*
X127762000Y-47879000D01*
X127811410Y-47868994D01*
X127851803Y-47841803D01*
X129178392Y-46515214D01*
X129191503Y-47201387D01*
X129485261Y-47910582D01*
X129804030Y-48070365D01*
X131138395Y-46736000D01*
X131497605Y-46736000D01*
X132831970Y-48070365D01*
X133150739Y-47910582D01*
X133460723Y-47119813D01*
X133444497Y-46270613D01*
X133150739Y-45561418D01*
X132831970Y-45401635D01*
X131497605Y-46736000D01*
X131138395Y-46736000D01*
X131124253Y-46721858D01*
X131303858Y-46542253D01*
X131318000Y-46556395D01*
X132652365Y-45222030D01*
X132492582Y-44903261D01*
X131701813Y-44593277D01*
X131088612Y-44604994D01*
X131370606Y-44323000D01*
X132679420Y-44323000D01*
X134497000Y-46140579D01*
X134497000Y-48401421D01*
X133479430Y-49418990D01*
X127750015Y-49418990D01*
X127750010Y-49418989D01*
X127498000Y-49469117D01*
X127498000Y-49013750D01*
X127339250Y-48855000D01*
X126365000Y-48855000D01*
X126365000Y-49954250D01*
X126523750Y-50113000D01*
X126689421Y-50113000D01*
X125367420Y-51435000D01*
X124721609Y-51435000D01*
X124626090Y-51286559D01*
X124413890Y-51141569D01*
X124162000Y-51090560D01*
X123162000Y-51090560D01*
X122926683Y-51134838D01*
X122902594Y-51150339D01*
X122788309Y-51103000D01*
X122447750Y-51103000D01*
X122289000Y-51261750D01*
X122289000Y-52361000D01*
X122309000Y-52361000D01*
X122309000Y-52615000D01*
X122289000Y-52615000D01*
X122289000Y-52635000D01*
X122035000Y-52635000D01*
X122035000Y-52615000D01*
X122015000Y-52615000D01*
X122015000Y-52361000D01*
X122035000Y-52361000D01*
X122035000Y-51261750D01*
X121876250Y-51103000D01*
X121539000Y-51103000D01*
X121539000Y-51054000D01*
X121528994Y-51004590D01*
X121500553Y-50962965D01*
X121458159Y-50935685D01*
X121412000Y-50927000D01*
X117094000Y-50927000D01*
X117044590Y-50937006D01*
X117002965Y-50965447D01*
X116975685Y-51007841D01*
X116967000Y-51054000D01*
X116967000Y-58621394D01*
X115814000Y-59774394D01*
X115814000Y-59487750D01*
X115655250Y-59329000D01*
X114681000Y-59329000D01*
X114681000Y-59349000D01*
X114427000Y-59349000D01*
X114427000Y-59329000D01*
X114407000Y-59329000D01*
X114407000Y-59075000D01*
X114427000Y-59075000D01*
X114427000Y-57975750D01*
X114681000Y-57975750D01*
X114681000Y-59075000D01*
X115655250Y-59075000D01*
X115814000Y-58916250D01*
X115814000Y-58325691D01*
X115717327Y-58092302D01*
X115538699Y-57913673D01*
X115305310Y-57817000D01*
X114839750Y-57817000D01*
X114681000Y-57975750D01*
X114427000Y-57975750D01*
X114268250Y-57817000D01*
X113802690Y-57817000D01*
X113569301Y-57913673D01*
X113411000Y-58071975D01*
X113411000Y-56642000D01*
X113400994Y-56592590D01*
X113372553Y-56550965D01*
X113330159Y-56523685D01*
X113284000Y-56515000D01*
X112312960Y-56515000D01*
X112363200Y-56393709D01*
X112363200Y-56153150D01*
X112204450Y-55994400D01*
X111455200Y-55994400D01*
X111455200Y-56014400D01*
X111201200Y-56014400D01*
X111201200Y-55994400D01*
X110451950Y-55994400D01*
X110293200Y-56153150D01*
X110293200Y-56393709D01*
X110343440Y-56515000D01*
X107061000Y-56515000D01*
X107061000Y-54911447D01*
X107198690Y-54968480D01*
X107664250Y-54968480D01*
X107823000Y-54809730D01*
X107823000Y-53710480D01*
X108077000Y-53710480D01*
X108077000Y-54809730D01*
X108235750Y-54968480D01*
X108701310Y-54968480D01*
X108934699Y-54871807D01*
X109113327Y-54693178D01*
X109210000Y-54459789D01*
X109210000Y-53969230D01*
X109946476Y-53969230D01*
X109946476Y-54559789D01*
X110043149Y-54793178D01*
X110221777Y-54971807D01*
X110436731Y-55060844D01*
X110389873Y-55107702D01*
X110293200Y-55341091D01*
X110293200Y-55581650D01*
X110451950Y-55740400D01*
X111201200Y-55740400D01*
X111201200Y-54991150D01*
X111104476Y-54894426D01*
X111104476Y-53810480D01*
X111358476Y-53810480D01*
X111358476Y-54909730D01*
X111455200Y-55006454D01*
X111455200Y-55740400D01*
X112204450Y-55740400D01*
X112363200Y-55581650D01*
X112363200Y-55341091D01*
X112266527Y-55107702D01*
X112163010Y-55004184D01*
X112241175Y-54971807D01*
X112419803Y-54793178D01*
X112516476Y-54559789D01*
X112516476Y-53969230D01*
X112357726Y-53810480D01*
X111358476Y-53810480D01*
X111104476Y-53810480D01*
X110105226Y-53810480D01*
X109946476Y-53969230D01*
X109210000Y-53969230D01*
X109210000Y-53869230D01*
X109126520Y-53785750D01*
X113523000Y-53785750D01*
X113523000Y-54376309D01*
X113619673Y-54609698D01*
X113798301Y-54788327D01*
X114031690Y-54885000D01*
X114522250Y-54885000D01*
X114681000Y-54726250D01*
X114681000Y-53627000D01*
X114935000Y-53627000D01*
X114935000Y-54726250D01*
X115093750Y-54885000D01*
X115584310Y-54885000D01*
X115817699Y-54788327D01*
X115996327Y-54609698D01*
X116093000Y-54376309D01*
X116093000Y-53785750D01*
X115934250Y-53627000D01*
X114935000Y-53627000D01*
X114681000Y-53627000D01*
X113681750Y-53627000D01*
X113523000Y-53785750D01*
X109126520Y-53785750D01*
X109051250Y-53710480D01*
X108077000Y-53710480D01*
X107823000Y-53710480D01*
X107803000Y-53710480D01*
X107803000Y-53467000D01*
X110015746Y-53467000D01*
X110105226Y-53556480D01*
X111104476Y-53556480D01*
X111104476Y-53536480D01*
X111358476Y-53536480D01*
X111358476Y-53556480D01*
X112357726Y-53556480D01*
X112447206Y-53467000D01*
X112522000Y-53467000D01*
X112571410Y-53456994D01*
X112613035Y-53428553D01*
X112640315Y-53386159D01*
X112649000Y-53340000D01*
X112649000Y-49530000D01*
X112638994Y-49480590D01*
X112610553Y-49438965D01*
X112568159Y-49411685D01*
X112522000Y-49403000D01*
X109855000Y-49403000D01*
X109855000Y-48931000D01*
X110966250Y-48931000D01*
X111125000Y-48772250D01*
X111125000Y-44323000D01*
X111105000Y-44323000D01*
X111105000Y-44069000D01*
X111125000Y-44069000D01*
X111125000Y-44049000D01*
X111379000Y-44049000D01*
X111379000Y-44069000D01*
X111379000Y-44069000D01*
G37*
X111379000Y-44069000D02*
X111399000Y-44069000D01*
X111399000Y-44323000D01*
X111379000Y-44323000D01*
X111379000Y-48772250D01*
X111537750Y-48931000D01*
X112678309Y-48931000D01*
X112911698Y-48834327D01*
X113090327Y-48655699D01*
X113157000Y-48494736D01*
X113157000Y-52578000D01*
X113167006Y-52627410D01*
X113195447Y-52669035D01*
X113237841Y-52696315D01*
X113284000Y-52705000D01*
X113523000Y-52705000D01*
X113523000Y-53214250D01*
X113681750Y-53373000D01*
X114681000Y-53373000D01*
X114681000Y-53353000D01*
X114935000Y-53353000D01*
X114935000Y-53373000D01*
X115934250Y-53373000D01*
X116093000Y-53214250D01*
X116093000Y-52705000D01*
X116332000Y-52705000D01*
X116381410Y-52694994D01*
X116423035Y-52666553D01*
X116450315Y-52624159D01*
X116459000Y-52578000D01*
X116459000Y-51106606D01*
X117654606Y-49911000D01*
X121666000Y-49911000D01*
X121715410Y-49900994D01*
X121755803Y-49873803D01*
X122615856Y-49013750D01*
X124978000Y-49013750D01*
X124978000Y-49604309D01*
X125074673Y-49837698D01*
X125253301Y-50016327D01*
X125486690Y-50113000D01*
X125952250Y-50113000D01*
X126111000Y-49954250D01*
X126111000Y-48855000D01*
X125136750Y-48855000D01*
X124978000Y-49013750D01*
X122615856Y-49013750D01*
X123750606Y-47879000D01*
X124978000Y-47879000D01*
X124978000Y-48442250D01*
X125136750Y-48601000D01*
X126111000Y-48601000D01*
X126111000Y-48581000D01*
X126365000Y-48581000D01*
X126365000Y-48601000D01*
X127339250Y-48601000D01*
X127498000Y-48442250D01*
X127498000Y-48249970D01*
X129983635Y-48249970D01*
X130143418Y-48568739D01*
X130934187Y-48878723D01*
X131783387Y-48862497D01*
X132492582Y-48568739D01*
X132652365Y-48249970D01*
X131318000Y-46915605D01*
X129983635Y-48249970D01*
X127498000Y-48249970D01*
X127498000Y-47879000D01*
X127762000Y-47879000D01*
X127811410Y-47868994D01*
X127851803Y-47841803D01*
X129178392Y-46515214D01*
X129191503Y-47201387D01*
X129485261Y-47910582D01*
X129804030Y-48070365D01*
X131138395Y-46736000D01*
X131497605Y-46736000D01*
X132831970Y-48070365D01*
X133150739Y-47910582D01*
X133460723Y-47119813D01*
X133444497Y-46270613D01*
X133150739Y-45561418D01*
X132831970Y-45401635D01*
X131497605Y-46736000D01*
X131138395Y-46736000D01*
X131124253Y-46721858D01*
X131303858Y-46542253D01*
X131318000Y-46556395D01*
X132652365Y-45222030D01*
X132492582Y-44903261D01*
X131701813Y-44593277D01*
X131088612Y-44604994D01*
X131370606Y-44323000D01*
X132679420Y-44323000D01*
X134497000Y-46140579D01*
X134497000Y-48401421D01*
X133479430Y-49418990D01*
X127750015Y-49418990D01*
X127750010Y-49418989D01*
X127498000Y-49469117D01*
X127498000Y-49013750D01*
X127339250Y-48855000D01*
X126365000Y-48855000D01*
X126365000Y-49954250D01*
X126523750Y-50113000D01*
X126689421Y-50113000D01*
X125367420Y-51435000D01*
X124721609Y-51435000D01*
X124626090Y-51286559D01*
X124413890Y-51141569D01*
X124162000Y-51090560D01*
X123162000Y-51090560D01*
X122926683Y-51134838D01*
X122902594Y-51150339D01*
X122788309Y-51103000D01*
X122447750Y-51103000D01*
X122289000Y-51261750D01*
X122289000Y-52361000D01*
X122309000Y-52361000D01*
X122309000Y-52615000D01*
X122289000Y-52615000D01*
X122289000Y-52635000D01*
X122035000Y-52635000D01*
X122035000Y-52615000D01*
X122015000Y-52615000D01*
X122015000Y-52361000D01*
X122035000Y-52361000D01*
X122035000Y-51261750D01*
X121876250Y-51103000D01*
X121539000Y-51103000D01*
X121539000Y-51054000D01*
X121528994Y-51004590D01*
X121500553Y-50962965D01*
X121458159Y-50935685D01*
X121412000Y-50927000D01*
X117094000Y-50927000D01*
X117044590Y-50937006D01*
X117002965Y-50965447D01*
X116975685Y-51007841D01*
X116967000Y-51054000D01*
X116967000Y-58621394D01*
X115814000Y-59774394D01*
X115814000Y-59487750D01*
X115655250Y-59329000D01*
X114681000Y-59329000D01*
X114681000Y-59349000D01*
X114427000Y-59349000D01*
X114427000Y-59329000D01*
X114407000Y-59329000D01*
X114407000Y-59075000D01*
X114427000Y-59075000D01*
X114427000Y-57975750D01*
X114681000Y-57975750D01*
X114681000Y-59075000D01*
X115655250Y-59075000D01*
X115814000Y-58916250D01*
X115814000Y-58325691D01*
X115717327Y-58092302D01*
X115538699Y-57913673D01*
X115305310Y-57817000D01*
X114839750Y-57817000D01*
X114681000Y-57975750D01*
X114427000Y-57975750D01*
X114268250Y-57817000D01*
X113802690Y-57817000D01*
X113569301Y-57913673D01*
X113411000Y-58071975D01*
X113411000Y-56642000D01*
X113400994Y-56592590D01*
X113372553Y-56550965D01*
X113330159Y-56523685D01*
X113284000Y-56515000D01*
X112312960Y-56515000D01*
X112363200Y-56393709D01*
X112363200Y-56153150D01*
X112204450Y-55994400D01*
X111455200Y-55994400D01*
X111455200Y-56014400D01*
X111201200Y-56014400D01*
X111201200Y-55994400D01*
X110451950Y-55994400D01*
X110293200Y-56153150D01*
X110293200Y-56393709D01*
X110343440Y-56515000D01*
X107061000Y-56515000D01*
X107061000Y-54911447D01*
X107198690Y-54968480D01*
X107664250Y-54968480D01*
X107823000Y-54809730D01*
X107823000Y-53710480D01*
X108077000Y-53710480D01*
X108077000Y-54809730D01*
X108235750Y-54968480D01*
X108701310Y-54968480D01*
X108934699Y-54871807D01*
X109113327Y-54693178D01*
X109210000Y-54459789D01*
X109210000Y-53969230D01*
X109946476Y-53969230D01*
X109946476Y-54559789D01*
X110043149Y-54793178D01*
X110221777Y-54971807D01*
X110436731Y-55060844D01*
X110389873Y-55107702D01*
X110293200Y-55341091D01*
X110293200Y-55581650D01*
X110451950Y-55740400D01*
X111201200Y-55740400D01*
X111201200Y-54991150D01*
X111104476Y-54894426D01*
X111104476Y-53810480D01*
X111358476Y-53810480D01*
X111358476Y-54909730D01*
X111455200Y-55006454D01*
X111455200Y-55740400D01*
X112204450Y-55740400D01*
X112363200Y-55581650D01*
X112363200Y-55341091D01*
X112266527Y-55107702D01*
X112163010Y-55004184D01*
X112241175Y-54971807D01*
X112419803Y-54793178D01*
X112516476Y-54559789D01*
X112516476Y-53969230D01*
X112357726Y-53810480D01*
X111358476Y-53810480D01*
X111104476Y-53810480D01*
X110105226Y-53810480D01*
X109946476Y-53969230D01*
X109210000Y-53969230D01*
X109210000Y-53869230D01*
X109126520Y-53785750D01*
X113523000Y-53785750D01*
X113523000Y-54376309D01*
X113619673Y-54609698D01*
X113798301Y-54788327D01*
X114031690Y-54885000D01*
X114522250Y-54885000D01*
X114681000Y-54726250D01*
X114681000Y-53627000D01*
X114935000Y-53627000D01*
X114935000Y-54726250D01*
X115093750Y-54885000D01*
X115584310Y-54885000D01*
X115817699Y-54788327D01*
X115996327Y-54609698D01*
X116093000Y-54376309D01*
X116093000Y-53785750D01*
X115934250Y-53627000D01*
X114935000Y-53627000D01*
X114681000Y-53627000D01*
X113681750Y-53627000D01*
X113523000Y-53785750D01*
X109126520Y-53785750D01*
X109051250Y-53710480D01*
X108077000Y-53710480D01*
X107823000Y-53710480D01*
X107803000Y-53710480D01*
X107803000Y-53467000D01*
X110015746Y-53467000D01*
X110105226Y-53556480D01*
X111104476Y-53556480D01*
X111104476Y-53536480D01*
X111358476Y-53536480D01*
X111358476Y-53556480D01*
X112357726Y-53556480D01*
X112447206Y-53467000D01*
X112522000Y-53467000D01*
X112571410Y-53456994D01*
X112613035Y-53428553D01*
X112640315Y-53386159D01*
X112649000Y-53340000D01*
X112649000Y-49530000D01*
X112638994Y-49480590D01*
X112610553Y-49438965D01*
X112568159Y-49411685D01*
X112522000Y-49403000D01*
X109855000Y-49403000D01*
X109855000Y-48931000D01*
X110966250Y-48931000D01*
X111125000Y-48772250D01*
X111125000Y-44323000D01*
X111105000Y-44323000D01*
X111105000Y-44069000D01*
X111125000Y-44069000D01*
X111125000Y-44049000D01*
X111379000Y-44049000D01*
X111379000Y-44069000D01*
G36*
X90805000Y-43847000D02*
X90455750Y-43847000D01*
X90297000Y-44005750D01*
X90297000Y-45105000D01*
X90317000Y-45105000D01*
X90317000Y-45339000D01*
X82296000Y-45339000D01*
X82246590Y-45349006D01*
X82204965Y-45377447D01*
X82177685Y-45419841D01*
X82169000Y-45466000D01*
X82169000Y-59182000D01*
X82179006Y-59231410D01*
X82196830Y-59261336D01*
X83212830Y-60531336D01*
X83251509Y-60563669D01*
X83312000Y-60579000D01*
X85598000Y-60579000D01*
X85647410Y-60568994D01*
X85703670Y-60522447D01*
X86406801Y-59467750D01*
X88377000Y-59467750D01*
X88377000Y-60058309D01*
X88473673Y-60291698D01*
X88652301Y-60470327D01*
X88885690Y-60567000D01*
X89376250Y-60567000D01*
X89535000Y-60408250D01*
X89535000Y-59309000D01*
X89789000Y-59309000D01*
X89789000Y-60408250D01*
X89947750Y-60567000D01*
X90438310Y-60567000D01*
X90671699Y-60470327D01*
X90850327Y-60291698D01*
X90947000Y-60058309D01*
X90947000Y-59467750D01*
X91411000Y-59467750D01*
X91411000Y-59933310D01*
X91507673Y-60166699D01*
X91686302Y-60345327D01*
X91919691Y-60442000D01*
X92510250Y-60442000D01*
X92669000Y-60283250D01*
X92669000Y-59309000D01*
X91569750Y-59309000D01*
X91411000Y-59467750D01*
X90947000Y-59467750D01*
X90788250Y-59309000D01*
X89789000Y-59309000D01*
X89535000Y-59309000D01*
X88535750Y-59309000D01*
X88377000Y-59467750D01*
X86406801Y-59467750D01*
X86681968Y-59055000D01*
X92943000Y-59055000D01*
X92943000Y-59309000D01*
X92923000Y-59309000D01*
X92923000Y-60283250D01*
X93081750Y-60442000D01*
X93345000Y-60442000D01*
X93345000Y-63298000D01*
X80710000Y-63298000D01*
X80710000Y-43585690D01*
X82447000Y-43585690D01*
X82447000Y-44926250D01*
X82605750Y-45085000D01*
X84455000Y-45085000D01*
X84455000Y-43235750D01*
X84709000Y-43235750D01*
X84709000Y-45085000D01*
X86558250Y-45085000D01*
X86717000Y-44926250D01*
X86717000Y-44355691D01*
X88910000Y-44355691D01*
X88910000Y-44946250D01*
X89068750Y-45105000D01*
X90043000Y-45105000D01*
X90043000Y-44005750D01*
X89884250Y-43847000D01*
X89418690Y-43847000D01*
X89185301Y-43943673D01*
X89006673Y-44122302D01*
X88910000Y-44355691D01*
X86717000Y-44355691D01*
X86717000Y-43585690D01*
X86620327Y-43352301D01*
X86441698Y-43173673D01*
X86208309Y-43077000D01*
X84867750Y-43077000D01*
X84709000Y-43235750D01*
X84455000Y-43235750D01*
X84296250Y-43077000D01*
X82955691Y-43077000D01*
X82722302Y-43173673D01*
X82543673Y-43352301D01*
X82447000Y-43585690D01*
X80710000Y-43585690D01*
X80710000Y-34710000D01*
X90805000Y-34710000D01*
X90805000Y-43847000D01*
X90805000Y-43847000D01*
G37*
X90805000Y-43847000D02*
X90455750Y-43847000D01*
X90297000Y-44005750D01*
X90297000Y-45105000D01*
X90317000Y-45105000D01*
X90317000Y-45339000D01*
X82296000Y-45339000D01*
X82246590Y-45349006D01*
X82204965Y-45377447D01*
X82177685Y-45419841D01*
X82169000Y-45466000D01*
X82169000Y-59182000D01*
X82179006Y-59231410D01*
X82196830Y-59261336D01*
X83212830Y-60531336D01*
X83251509Y-60563669D01*
X83312000Y-60579000D01*
X85598000Y-60579000D01*
X85647410Y-60568994D01*
X85703670Y-60522447D01*
X86406801Y-59467750D01*
X88377000Y-59467750D01*
X88377000Y-60058309D01*
X88473673Y-60291698D01*
X88652301Y-60470327D01*
X88885690Y-60567000D01*
X89376250Y-60567000D01*
X89535000Y-60408250D01*
X89535000Y-59309000D01*
X89789000Y-59309000D01*
X89789000Y-60408250D01*
X89947750Y-60567000D01*
X90438310Y-60567000D01*
X90671699Y-60470327D01*
X90850327Y-60291698D01*
X90947000Y-60058309D01*
X90947000Y-59467750D01*
X91411000Y-59467750D01*
X91411000Y-59933310D01*
X91507673Y-60166699D01*
X91686302Y-60345327D01*
X91919691Y-60442000D01*
X92510250Y-60442000D01*
X92669000Y-60283250D01*
X92669000Y-59309000D01*
X91569750Y-59309000D01*
X91411000Y-59467750D01*
X90947000Y-59467750D01*
X90788250Y-59309000D01*
X89789000Y-59309000D01*
X89535000Y-59309000D01*
X88535750Y-59309000D01*
X88377000Y-59467750D01*
X86406801Y-59467750D01*
X86681968Y-59055000D01*
X92943000Y-59055000D01*
X92943000Y-59309000D01*
X92923000Y-59309000D01*
X92923000Y-60283250D01*
X93081750Y-60442000D01*
X93345000Y-60442000D01*
X93345000Y-63298000D01*
X80710000Y-63298000D01*
X80710000Y-43585690D01*
X82447000Y-43585690D01*
X82447000Y-44926250D01*
X82605750Y-45085000D01*
X84455000Y-45085000D01*
X84455000Y-43235750D01*
X84709000Y-43235750D01*
X84709000Y-45085000D01*
X86558250Y-45085000D01*
X86717000Y-44926250D01*
X86717000Y-44355691D01*
X88910000Y-44355691D01*
X88910000Y-44946250D01*
X89068750Y-45105000D01*
X90043000Y-45105000D01*
X90043000Y-44005750D01*
X89884250Y-43847000D01*
X89418690Y-43847000D01*
X89185301Y-43943673D01*
X89006673Y-44122302D01*
X88910000Y-44355691D01*
X86717000Y-44355691D01*
X86717000Y-43585690D01*
X86620327Y-43352301D01*
X86441698Y-43173673D01*
X86208309Y-43077000D01*
X84867750Y-43077000D01*
X84709000Y-43235750D01*
X84455000Y-43235750D01*
X84296250Y-43077000D01*
X82955691Y-43077000D01*
X82722302Y-43173673D01*
X82543673Y-43352301D01*
X82447000Y-43585690D01*
X80710000Y-43585690D01*
X80710000Y-34710000D01*
X90805000Y-34710000D01*
X90805000Y-43847000D01*
G36*
X91821000Y-51054000D02*
X91831006Y-51103410D01*
X91859447Y-51145035D01*
X91901841Y-51172315D01*
X91948000Y-51181000D01*
X92845885Y-51181000D01*
X92764000Y-51378690D01*
X92764000Y-51519250D01*
X92922750Y-51678000D01*
X94372000Y-51678000D01*
X94372000Y-51658000D01*
X94626000Y-51658000D01*
X94626000Y-51678000D01*
X94646000Y-51678000D01*
X94646000Y-51932000D01*
X94626000Y-51932000D01*
X94626000Y-51952000D01*
X94372000Y-51952000D01*
X94372000Y-51932000D01*
X92922750Y-51932000D01*
X92764000Y-52090750D01*
X92764000Y-52190000D01*
X87133005Y-52190000D01*
X87133000Y-52189999D01*
X86850516Y-52246190D01*
X86794325Y-52257367D01*
X86507210Y-52449210D01*
X86507208Y-52449213D01*
X86286400Y-52670021D01*
X86470723Y-52199813D01*
X86454497Y-51350613D01*
X86160739Y-50641418D01*
X85841970Y-50481635D01*
X84507605Y-51816000D01*
X84521748Y-51830143D01*
X84342143Y-52009748D01*
X84328000Y-51995605D01*
X84313858Y-52009748D01*
X84134253Y-51830143D01*
X84148395Y-51816000D01*
X84134253Y-51801858D01*
X84313858Y-51622253D01*
X84328000Y-51636395D01*
X85662365Y-50302030D01*
X85502582Y-49983261D01*
X84711813Y-49673277D01*
X83862613Y-49689503D01*
X83153418Y-49983261D01*
X82993636Y-50302028D01*
X82931000Y-50239392D01*
X82931000Y-48017750D01*
X88910000Y-48017750D01*
X88910000Y-48608309D01*
X89006673Y-48841698D01*
X89185301Y-49020327D01*
X89418690Y-49117000D01*
X89884250Y-49117000D01*
X90043000Y-48958250D01*
X90043000Y-47859000D01*
X90297000Y-47859000D01*
X90297000Y-48958250D01*
X90455750Y-49117000D01*
X90921310Y-49117000D01*
X91154699Y-49020327D01*
X91333327Y-48841698D01*
X91430000Y-48608309D01*
X91430000Y-48017750D01*
X91271250Y-47859000D01*
X90297000Y-47859000D01*
X90043000Y-47859000D01*
X89068750Y-47859000D01*
X88910000Y-48017750D01*
X82931000Y-48017750D01*
X82931000Y-47625000D01*
X91821000Y-47625000D01*
X91821000Y-51054000D01*
X91821000Y-51054000D01*
G37*
X91821000Y-51054000D02*
X91831006Y-51103410D01*
X91859447Y-51145035D01*
X91901841Y-51172315D01*
X91948000Y-51181000D01*
X92845885Y-51181000D01*
X92764000Y-51378690D01*
X92764000Y-51519250D01*
X92922750Y-51678000D01*
X94372000Y-51678000D01*
X94372000Y-51658000D01*
X94626000Y-51658000D01*
X94626000Y-51678000D01*
X94646000Y-51678000D01*
X94646000Y-51932000D01*
X94626000Y-51932000D01*
X94626000Y-51952000D01*
X94372000Y-51952000D01*
X94372000Y-51932000D01*
X92922750Y-51932000D01*
X92764000Y-52090750D01*
X92764000Y-52190000D01*
X87133005Y-52190000D01*
X87133000Y-52189999D01*
X86850516Y-52246190D01*
X86794325Y-52257367D01*
X86507210Y-52449210D01*
X86507208Y-52449213D01*
X86286400Y-52670021D01*
X86470723Y-52199813D01*
X86454497Y-51350613D01*
X86160739Y-50641418D01*
X85841970Y-50481635D01*
X84507605Y-51816000D01*
X84521748Y-51830143D01*
X84342143Y-52009748D01*
X84328000Y-51995605D01*
X84313858Y-52009748D01*
X84134253Y-51830143D01*
X84148395Y-51816000D01*
X84134253Y-51801858D01*
X84313858Y-51622253D01*
X84328000Y-51636395D01*
X85662365Y-50302030D01*
X85502582Y-49983261D01*
X84711813Y-49673277D01*
X83862613Y-49689503D01*
X83153418Y-49983261D01*
X82993636Y-50302028D01*
X82931000Y-50239392D01*
X82931000Y-48017750D01*
X88910000Y-48017750D01*
X88910000Y-48608309D01*
X89006673Y-48841698D01*
X89185301Y-49020327D01*
X89418690Y-49117000D01*
X89884250Y-49117000D01*
X90043000Y-48958250D01*
X90043000Y-47859000D01*
X90297000Y-47859000D01*
X90297000Y-48958250D01*
X90455750Y-49117000D01*
X90921310Y-49117000D01*
X91154699Y-49020327D01*
X91333327Y-48841698D01*
X91430000Y-48608309D01*
X91430000Y-48017750D01*
X91271250Y-47859000D01*
X90297000Y-47859000D01*
X90043000Y-47859000D01*
X89068750Y-47859000D01*
X88910000Y-48017750D01*
X82931000Y-48017750D01*
X82931000Y-47625000D01*
X91821000Y-47625000D01*
X91821000Y-51054000D01*
G36*
X106807000Y-39461000D02*
X105937750Y-39461000D01*
X105779000Y-39619750D01*
X105779000Y-44069000D01*
X105799000Y-44069000D01*
X105799000Y-44323000D01*
X105779000Y-44323000D01*
X105779000Y-44343000D01*
X105525000Y-44343000D01*
X105525000Y-44323000D01*
X103875750Y-44323000D01*
X103717000Y-44481750D01*
X103717000Y-48422310D01*
X103813673Y-48655699D01*
X103992302Y-48834327D01*
X104102444Y-48879950D01*
X102309394Y-50673000D01*
X101836250Y-50673000D01*
X101825250Y-50662000D01*
X100376000Y-50662000D01*
X100376000Y-50673000D01*
X100122000Y-50673000D01*
X100122000Y-50662000D01*
X100102000Y-50662000D01*
X100102000Y-50408000D01*
X100122000Y-50408000D01*
X100122000Y-49758750D01*
X100376000Y-49758750D01*
X100376000Y-50408000D01*
X101825250Y-50408000D01*
X101984000Y-50249250D01*
X101984000Y-50108690D01*
X101887327Y-49875301D01*
X101708698Y-49696673D01*
X101475309Y-49600000D01*
X100534750Y-49600000D01*
X100376000Y-49758750D01*
X100122000Y-49758750D01*
X99963250Y-49600000D01*
X99022691Y-49600000D01*
X98789302Y-49696673D01*
X98610673Y-49875301D01*
X98562103Y-49992560D01*
X98373000Y-49992560D01*
X98373000Y-49266000D01*
X98500250Y-49266000D01*
X98659000Y-49107250D01*
X98659000Y-48133000D01*
X98913000Y-48133000D01*
X98913000Y-49107250D01*
X99071750Y-49266000D01*
X99662309Y-49266000D01*
X99895698Y-49169327D01*
X100074327Y-48990699D01*
X100171000Y-48757310D01*
X100171000Y-48291750D01*
X100012250Y-48133000D01*
X98913000Y-48133000D01*
X98659000Y-48133000D01*
X98639000Y-48133000D01*
X98639000Y-47879000D01*
X98659000Y-47879000D01*
X98659000Y-47859000D01*
X98913000Y-47859000D01*
X98913000Y-47879000D01*
X100012250Y-47879000D01*
X100171000Y-47720250D01*
X100171000Y-47371000D01*
X100584000Y-47371000D01*
X100633410Y-47360994D01*
X100675035Y-47332553D01*
X100702315Y-47290159D01*
X100711000Y-47244000D01*
X100711000Y-45593000D01*
X100965000Y-45593000D01*
X100965000Y-46542250D01*
X101123750Y-46701000D01*
X101414309Y-46701000D01*
X101647698Y-46604327D01*
X101826327Y-46425699D01*
X101923000Y-46192310D01*
X101923000Y-45751750D01*
X101764250Y-45593000D01*
X100965000Y-45593000D01*
X100711000Y-45593000D01*
X100711000Y-44389750D01*
X100965000Y-44389750D01*
X100965000Y-45339000D01*
X101764250Y-45339000D01*
X101923000Y-45180250D01*
X101923000Y-44739690D01*
X101826327Y-44506301D01*
X101647698Y-44327673D01*
X101414309Y-44231000D01*
X101123750Y-44231000D01*
X100965000Y-44389750D01*
X100711000Y-44389750D01*
X100711000Y-39969690D01*
X103717000Y-39969690D01*
X103717000Y-43910250D01*
X103875750Y-44069000D01*
X105525000Y-44069000D01*
X105525000Y-39619750D01*
X105366250Y-39461000D01*
X104225691Y-39461000D01*
X103992302Y-39557673D01*
X103813673Y-39736301D01*
X103717000Y-39969690D01*
X100711000Y-39969690D01*
X100711000Y-38481000D01*
X106807000Y-38481000D01*
X106807000Y-39461000D01*
X106807000Y-39461000D01*
G37*
X106807000Y-39461000D02*
X105937750Y-39461000D01*
X105779000Y-39619750D01*
X105779000Y-44069000D01*
X105799000Y-44069000D01*
X105799000Y-44323000D01*
X105779000Y-44323000D01*
X105779000Y-44343000D01*
X105525000Y-44343000D01*
X105525000Y-44323000D01*
X103875750Y-44323000D01*
X103717000Y-44481750D01*
X103717000Y-48422310D01*
X103813673Y-48655699D01*
X103992302Y-48834327D01*
X104102444Y-48879950D01*
X102309394Y-50673000D01*
X101836250Y-50673000D01*
X101825250Y-50662000D01*
X100376000Y-50662000D01*
X100376000Y-50673000D01*
X100122000Y-50673000D01*
X100122000Y-50662000D01*
X100102000Y-50662000D01*
X100102000Y-50408000D01*
X100122000Y-50408000D01*
X100122000Y-49758750D01*
X100376000Y-49758750D01*
X100376000Y-50408000D01*
X101825250Y-50408000D01*
X101984000Y-50249250D01*
X101984000Y-50108690D01*
X101887327Y-49875301D01*
X101708698Y-49696673D01*
X101475309Y-49600000D01*
X100534750Y-49600000D01*
X100376000Y-49758750D01*
X100122000Y-49758750D01*
X99963250Y-49600000D01*
X99022691Y-49600000D01*
X98789302Y-49696673D01*
X98610673Y-49875301D01*
X98562103Y-49992560D01*
X98373000Y-49992560D01*
X98373000Y-49266000D01*
X98500250Y-49266000D01*
X98659000Y-49107250D01*
X98659000Y-48133000D01*
X98913000Y-48133000D01*
X98913000Y-49107250D01*
X99071750Y-49266000D01*
X99662309Y-49266000D01*
X99895698Y-49169327D01*
X100074327Y-48990699D01*
X100171000Y-48757310D01*
X100171000Y-48291750D01*
X100012250Y-48133000D01*
X98913000Y-48133000D01*
X98659000Y-48133000D01*
X98639000Y-48133000D01*
X98639000Y-47879000D01*
X98659000Y-47879000D01*
X98659000Y-47859000D01*
X98913000Y-47859000D01*
X98913000Y-47879000D01*
X100012250Y-47879000D01*
X100171000Y-47720250D01*
X100171000Y-47371000D01*
X100584000Y-47371000D01*
X100633410Y-47360994D01*
X100675035Y-47332553D01*
X100702315Y-47290159D01*
X100711000Y-47244000D01*
X100711000Y-45593000D01*
X100965000Y-45593000D01*
X100965000Y-46542250D01*
X101123750Y-46701000D01*
X101414309Y-46701000D01*
X101647698Y-46604327D01*
X101826327Y-46425699D01*
X101923000Y-46192310D01*
X101923000Y-45751750D01*
X101764250Y-45593000D01*
X100965000Y-45593000D01*
X100711000Y-45593000D01*
X100711000Y-44389750D01*
X100965000Y-44389750D01*
X100965000Y-45339000D01*
X101764250Y-45339000D01*
X101923000Y-45180250D01*
X101923000Y-44739690D01*
X101826327Y-44506301D01*
X101647698Y-44327673D01*
X101414309Y-44231000D01*
X101123750Y-44231000D01*
X100965000Y-44389750D01*
X100711000Y-44389750D01*
X100711000Y-39969690D01*
X103717000Y-39969690D01*
X103717000Y-43910250D01*
X103875750Y-44069000D01*
X105525000Y-44069000D01*
X105525000Y-39619750D01*
X105366250Y-39461000D01*
X104225691Y-39461000D01*
X103992302Y-39557673D01*
X103813673Y-39736301D01*
X103717000Y-39969690D01*
X100711000Y-39969690D01*
X100711000Y-38481000D01*
X106807000Y-38481000D01*
X106807000Y-39461000D01*
G36*
X136017000Y-52271392D02*
X135954364Y-52334028D01*
X135794582Y-52015261D01*
X135003813Y-51705277D01*
X134154613Y-51721503D01*
X133445418Y-52015261D01*
X133285635Y-52334030D01*
X134620000Y-53668395D01*
X134634143Y-53654253D01*
X134813748Y-53833858D01*
X134799605Y-53848000D01*
X134813748Y-53862143D01*
X134634143Y-54041748D01*
X134620000Y-54027605D01*
X133285635Y-55361970D01*
X133445418Y-55680739D01*
X133629756Y-55753000D01*
X131699000Y-55753000D01*
X131699000Y-53464187D01*
X132477277Y-53464187D01*
X132493503Y-54313387D01*
X132787261Y-55022582D01*
X133106030Y-55182365D01*
X134440395Y-53848000D01*
X133106030Y-52513635D01*
X132787261Y-52673418D01*
X132477277Y-53464187D01*
X131699000Y-53464187D01*
X131699000Y-52324000D01*
X131688994Y-52274590D01*
X131660553Y-52232965D01*
X131618159Y-52205685D01*
X131572000Y-52197000D01*
X130581222Y-52197000D01*
X130581162Y-52196683D01*
X130442090Y-51980559D01*
X130229890Y-51835569D01*
X129978000Y-51784560D01*
X129178000Y-51784560D01*
X128942683Y-51828838D01*
X128778507Y-51934482D01*
X128737698Y-51893673D01*
X128504309Y-51797000D01*
X128263750Y-51797000D01*
X128105000Y-51955750D01*
X128105000Y-52197000D01*
X128016000Y-52197000D01*
X127966590Y-52207006D01*
X127924965Y-52235447D01*
X127897685Y-52277841D01*
X127889000Y-52324000D01*
X127889000Y-52979000D01*
X127851000Y-52979000D01*
X127851000Y-52959000D01*
X127101750Y-52959000D01*
X126943000Y-53117750D01*
X126943000Y-53358310D01*
X127039673Y-53591699D01*
X127218302Y-53770327D01*
X127451691Y-53867000D01*
X127692250Y-53867000D01*
X127850998Y-53708252D01*
X127850998Y-53867000D01*
X127889000Y-53867000D01*
X127889000Y-54027000D01*
X127539750Y-54027000D01*
X127381000Y-54185750D01*
X127381000Y-55285000D01*
X127401000Y-55285000D01*
X127401000Y-55539000D01*
X127381000Y-55539000D01*
X127381000Y-55559000D01*
X127127000Y-55559000D01*
X127127000Y-55539000D01*
X126152750Y-55539000D01*
X125994000Y-55697750D01*
X125994000Y-56007000D01*
X122480606Y-56007000D01*
X121285000Y-54811394D01*
X121285000Y-54535691D01*
X125994000Y-54535691D01*
X125994000Y-55126250D01*
X126152750Y-55285000D01*
X127127000Y-55285000D01*
X127127000Y-54185750D01*
X126968250Y-54027000D01*
X126502690Y-54027000D01*
X126269301Y-54123673D01*
X126090673Y-54302302D01*
X125994000Y-54535691D01*
X121285000Y-54535691D01*
X121285000Y-54229000D01*
X125222000Y-54229000D01*
X125271410Y-54218994D01*
X125311803Y-54191803D01*
X126950178Y-52553428D01*
X127101750Y-52705000D01*
X127851000Y-52705000D01*
X127851000Y-51955750D01*
X127699428Y-51804178D01*
X128314616Y-51188990D01*
X133846005Y-51188990D01*
X133846010Y-51188991D01*
X133886182Y-51181000D01*
X136017000Y-51181000D01*
X136017000Y-52271392D01*
X136017000Y-52271392D01*
G37*
X136017000Y-52271392D02*
X135954364Y-52334028D01*
X135794582Y-52015261D01*
X135003813Y-51705277D01*
X134154613Y-51721503D01*
X133445418Y-52015261D01*
X133285635Y-52334030D01*
X134620000Y-53668395D01*
X134634143Y-53654253D01*
X134813748Y-53833858D01*
X134799605Y-53848000D01*
X134813748Y-53862143D01*
X134634143Y-54041748D01*
X134620000Y-54027605D01*
X133285635Y-55361970D01*
X133445418Y-55680739D01*
X133629756Y-55753000D01*
X131699000Y-55753000D01*
X131699000Y-53464187D01*
X132477277Y-53464187D01*
X132493503Y-54313387D01*
X132787261Y-55022582D01*
X133106030Y-55182365D01*
X134440395Y-53848000D01*
X133106030Y-52513635D01*
X132787261Y-52673418D01*
X132477277Y-53464187D01*
X131699000Y-53464187D01*
X131699000Y-52324000D01*
X131688994Y-52274590D01*
X131660553Y-52232965D01*
X131618159Y-52205685D01*
X131572000Y-52197000D01*
X130581222Y-52197000D01*
X130581162Y-52196683D01*
X130442090Y-51980559D01*
X130229890Y-51835569D01*
X129978000Y-51784560D01*
X129178000Y-51784560D01*
X128942683Y-51828838D01*
X128778507Y-51934482D01*
X128737698Y-51893673D01*
X128504309Y-51797000D01*
X128263750Y-51797000D01*
X128105000Y-51955750D01*
X128105000Y-52197000D01*
X128016000Y-52197000D01*
X127966590Y-52207006D01*
X127924965Y-52235447D01*
X127897685Y-52277841D01*
X127889000Y-52324000D01*
X127889000Y-52979000D01*
X127851000Y-52979000D01*
X127851000Y-52959000D01*
X127101750Y-52959000D01*
X126943000Y-53117750D01*
X126943000Y-53358310D01*
X127039673Y-53591699D01*
X127218302Y-53770327D01*
X127451691Y-53867000D01*
X127692250Y-53867000D01*
X127850998Y-53708252D01*
X127850998Y-53867000D01*
X127889000Y-53867000D01*
X127889000Y-54027000D01*
X127539750Y-54027000D01*
X127381000Y-54185750D01*
X127381000Y-55285000D01*
X127401000Y-55285000D01*
X127401000Y-55539000D01*
X127381000Y-55539000D01*
X127381000Y-55559000D01*
X127127000Y-55559000D01*
X127127000Y-55539000D01*
X126152750Y-55539000D01*
X125994000Y-55697750D01*
X125994000Y-56007000D01*
X122480606Y-56007000D01*
X121285000Y-54811394D01*
X121285000Y-54535691D01*
X125994000Y-54535691D01*
X125994000Y-55126250D01*
X126152750Y-55285000D01*
X127127000Y-55285000D01*
X127127000Y-54185750D01*
X126968250Y-54027000D01*
X126502690Y-54027000D01*
X126269301Y-54123673D01*
X126090673Y-54302302D01*
X125994000Y-54535691D01*
X121285000Y-54535691D01*
X121285000Y-54229000D01*
X125222000Y-54229000D01*
X125271410Y-54218994D01*
X125311803Y-54191803D01*
X126950178Y-52553428D01*
X127101750Y-52705000D01*
X127851000Y-52705000D01*
X127851000Y-51955750D01*
X127699428Y-51804178D01*
X128314616Y-51188990D01*
X133846005Y-51188990D01*
X133846010Y-51188991D01*
X133886182Y-51181000D01*
X136017000Y-51181000D01*
X136017000Y-52271392D01*
G36*
X130429000Y-40332750D02*
X130349000Y-40412750D01*
X130349000Y-41087000D01*
X130369000Y-41087000D01*
X130369000Y-41191560D01*
X130075000Y-41191560D01*
X130075000Y-41087000D01*
X130095000Y-41087000D01*
X130095000Y-40412750D01*
X129936250Y-40254000D01*
X129921000Y-40254000D01*
X129921000Y-38354000D01*
X129910994Y-38304590D01*
X129883803Y-38264197D01*
X127851803Y-36232197D01*
X127809789Y-36204334D01*
X127762000Y-36195000D01*
X123952000Y-36195000D01*
X123902590Y-36205006D01*
X123862197Y-36232197D01*
X122084197Y-38010197D01*
X122056334Y-38052211D01*
X122047000Y-38100000D01*
X122047000Y-41275000D01*
X118364000Y-41275000D01*
X118314590Y-41285006D01*
X118272965Y-41313447D01*
X118245685Y-41355841D01*
X118237000Y-41402000D01*
X118237000Y-43581000D01*
X117983000Y-43581000D01*
X117983000Y-43561000D01*
X116883750Y-43561000D01*
X116725000Y-43719750D01*
X116725000Y-43815000D01*
X113919000Y-43815000D01*
X113919000Y-42657690D01*
X116725000Y-42657690D01*
X116725000Y-43148250D01*
X116883750Y-43307000D01*
X117983000Y-43307000D01*
X117983000Y-42307750D01*
X117824250Y-42149000D01*
X117233691Y-42149000D01*
X117000302Y-42245673D01*
X116821673Y-42424301D01*
X116725000Y-42657690D01*
X113919000Y-42657690D01*
X113919000Y-40375970D01*
X116775635Y-40375970D01*
X116935418Y-40694739D01*
X117726187Y-41004723D01*
X118575387Y-40988497D01*
X119284582Y-40694739D01*
X119444365Y-40375970D01*
X118110000Y-39041605D01*
X116775635Y-40375970D01*
X113919000Y-40375970D01*
X113919000Y-39370000D01*
X113908994Y-39320590D01*
X113880553Y-39278965D01*
X113838159Y-39251685D01*
X113792000Y-39243000D01*
X108331000Y-39243000D01*
X108331000Y-38478187D01*
X115967277Y-38478187D01*
X115983503Y-39327387D01*
X116277261Y-40036582D01*
X116596030Y-40196365D01*
X117930395Y-38862000D01*
X118289605Y-38862000D01*
X119623970Y-40196365D01*
X119942739Y-40036582D01*
X120252723Y-39245813D01*
X120236497Y-38396613D01*
X119942739Y-37687418D01*
X119623970Y-37527635D01*
X118289605Y-38862000D01*
X117930395Y-38862000D01*
X116596030Y-37527635D01*
X116277261Y-37687418D01*
X115967277Y-38478187D01*
X108331000Y-38478187D01*
X108331000Y-37348030D01*
X116775635Y-37348030D01*
X118110000Y-38682395D01*
X119444365Y-37348030D01*
X119284582Y-37029261D01*
X118493813Y-36719277D01*
X117644613Y-36735503D01*
X116935418Y-37029261D01*
X116775635Y-37348030D01*
X108331000Y-37348030D01*
X108331000Y-34710000D01*
X130429000Y-34710000D01*
X130429000Y-40332750D01*
X130429000Y-40332750D01*
G37*
X130429000Y-40332750D02*
X130349000Y-40412750D01*
X130349000Y-41087000D01*
X130369000Y-41087000D01*
X130369000Y-41191560D01*
X130075000Y-41191560D01*
X130075000Y-41087000D01*
X130095000Y-41087000D01*
X130095000Y-40412750D01*
X129936250Y-40254000D01*
X129921000Y-40254000D01*
X129921000Y-38354000D01*
X129910994Y-38304590D01*
X129883803Y-38264197D01*
X127851803Y-36232197D01*
X127809789Y-36204334D01*
X127762000Y-36195000D01*
X123952000Y-36195000D01*
X123902590Y-36205006D01*
X123862197Y-36232197D01*
X122084197Y-38010197D01*
X122056334Y-38052211D01*
X122047000Y-38100000D01*
X122047000Y-41275000D01*
X118364000Y-41275000D01*
X118314590Y-41285006D01*
X118272965Y-41313447D01*
X118245685Y-41355841D01*
X118237000Y-41402000D01*
X118237000Y-43581000D01*
X117983000Y-43581000D01*
X117983000Y-43561000D01*
X116883750Y-43561000D01*
X116725000Y-43719750D01*
X116725000Y-43815000D01*
X113919000Y-43815000D01*
X113919000Y-42657690D01*
X116725000Y-42657690D01*
X116725000Y-43148250D01*
X116883750Y-43307000D01*
X117983000Y-43307000D01*
X117983000Y-42307750D01*
X117824250Y-42149000D01*
X117233691Y-42149000D01*
X117000302Y-42245673D01*
X116821673Y-42424301D01*
X116725000Y-42657690D01*
X113919000Y-42657690D01*
X113919000Y-40375970D01*
X116775635Y-40375970D01*
X116935418Y-40694739D01*
X117726187Y-41004723D01*
X118575387Y-40988497D01*
X119284582Y-40694739D01*
X119444365Y-40375970D01*
X118110000Y-39041605D01*
X116775635Y-40375970D01*
X113919000Y-40375970D01*
X113919000Y-39370000D01*
X113908994Y-39320590D01*
X113880553Y-39278965D01*
X113838159Y-39251685D01*
X113792000Y-39243000D01*
X108331000Y-39243000D01*
X108331000Y-38478187D01*
X115967277Y-38478187D01*
X115983503Y-39327387D01*
X116277261Y-40036582D01*
X116596030Y-40196365D01*
X117930395Y-38862000D01*
X118289605Y-38862000D01*
X119623970Y-40196365D01*
X119942739Y-40036582D01*
X120252723Y-39245813D01*
X120236497Y-38396613D01*
X119942739Y-37687418D01*
X119623970Y-37527635D01*
X118289605Y-38862000D01*
X117930395Y-38862000D01*
X116596030Y-37527635D01*
X116277261Y-37687418D01*
X115967277Y-38478187D01*
X108331000Y-38478187D01*
X108331000Y-37348030D01*
X116775635Y-37348030D01*
X118110000Y-38682395D01*
X119444365Y-37348030D01*
X119284582Y-37029261D01*
X118493813Y-36719277D01*
X117644613Y-36735503D01*
X116935418Y-37029261D01*
X116775635Y-37348030D01*
X108331000Y-37348030D01*
X108331000Y-34710000D01*
X130429000Y-34710000D01*
X130429000Y-40332750D01*
G36*
X123571000Y-46863000D02*
X122936000Y-46863000D01*
X122886590Y-46873006D01*
X122846197Y-46900197D01*
X120597394Y-49149000D01*
X119375679Y-49149000D01*
X119444365Y-49011970D01*
X118110000Y-47677605D01*
X116775635Y-49011970D01*
X116935418Y-49330739D01*
X117063462Y-49380932D01*
X116093000Y-50351394D01*
X116093000Y-49923691D01*
X115996327Y-49690302D01*
X115817699Y-49511673D01*
X115584310Y-49415000D01*
X115093750Y-49415000D01*
X114935000Y-49573750D01*
X114935000Y-50673000D01*
X114955000Y-50673000D01*
X114955000Y-50927000D01*
X114935000Y-50927000D01*
X114935000Y-50947000D01*
X114681000Y-50947000D01*
X114681000Y-50927000D01*
X114661000Y-50927000D01*
X114661000Y-50673000D01*
X114681000Y-50673000D01*
X114681000Y-49573750D01*
X114522250Y-49415000D01*
X114031690Y-49415000D01*
X113915000Y-49463335D01*
X113915000Y-48768005D01*
X113915001Y-48768000D01*
X113847633Y-48429326D01*
X113847633Y-48429325D01*
X113665000Y-48155994D01*
X113665000Y-47114187D01*
X115967277Y-47114187D01*
X115983503Y-47963387D01*
X116277261Y-48672582D01*
X116596030Y-48832365D01*
X117930395Y-47498000D01*
X118289605Y-47498000D01*
X119623970Y-48832365D01*
X119942739Y-48672582D01*
X120252723Y-47881813D01*
X120236497Y-47032613D01*
X119942739Y-46323418D01*
X119623970Y-46163635D01*
X118289605Y-47498000D01*
X117930395Y-47498000D01*
X116596030Y-46163635D01*
X116277261Y-46323418D01*
X115967277Y-47114187D01*
X113665000Y-47114187D01*
X113665000Y-45984030D01*
X116775635Y-45984030D01*
X118110000Y-47318395D01*
X119444365Y-45984030D01*
X119284582Y-45665261D01*
X118493813Y-45355277D01*
X117644613Y-45371503D01*
X116935418Y-45665261D01*
X116775635Y-45984030D01*
X113665000Y-45984030D01*
X113665000Y-44577000D01*
X116956734Y-44577000D01*
X117108110Y-44680431D01*
X117360000Y-44731440D01*
X118860000Y-44731440D01*
X119095317Y-44687162D01*
X119266514Y-44577000D01*
X119654975Y-44577000D01*
X119700302Y-44622327D01*
X119933691Y-44719000D01*
X120524250Y-44719000D01*
X120683000Y-44560250D01*
X120683000Y-43561000D01*
X120937000Y-43561000D01*
X120937000Y-44560250D01*
X121095750Y-44719000D01*
X121686309Y-44719000D01*
X121919698Y-44622327D01*
X122098327Y-44443699D01*
X122127000Y-44374476D01*
X122155673Y-44443699D01*
X122334302Y-44622327D01*
X122567691Y-44719000D01*
X123158250Y-44719000D01*
X123317000Y-44560250D01*
X123317000Y-43561000D01*
X122217750Y-43561000D01*
X122127000Y-43651750D01*
X122036250Y-43561000D01*
X120937000Y-43561000D01*
X120683000Y-43561000D01*
X120663000Y-43561000D01*
X120663000Y-43307000D01*
X123571000Y-43307000D01*
X123571000Y-46863000D01*
X123571000Y-46863000D01*
G37*
X123571000Y-46863000D02*
X122936000Y-46863000D01*
X122886590Y-46873006D01*
X122846197Y-46900197D01*
X120597394Y-49149000D01*
X119375679Y-49149000D01*
X119444365Y-49011970D01*
X118110000Y-47677605D01*
X116775635Y-49011970D01*
X116935418Y-49330739D01*
X117063462Y-49380932D01*
X116093000Y-50351394D01*
X116093000Y-49923691D01*
X115996327Y-49690302D01*
X115817699Y-49511673D01*
X115584310Y-49415000D01*
X115093750Y-49415000D01*
X114935000Y-49573750D01*
X114935000Y-50673000D01*
X114955000Y-50673000D01*
X114955000Y-50927000D01*
X114935000Y-50927000D01*
X114935000Y-50947000D01*
X114681000Y-50947000D01*
X114681000Y-50927000D01*
X114661000Y-50927000D01*
X114661000Y-50673000D01*
X114681000Y-50673000D01*
X114681000Y-49573750D01*
X114522250Y-49415000D01*
X114031690Y-49415000D01*
X113915000Y-49463335D01*
X113915000Y-48768005D01*
X113915001Y-48768000D01*
X113847633Y-48429326D01*
X113847633Y-48429325D01*
X113665000Y-48155994D01*
X113665000Y-47114187D01*
X115967277Y-47114187D01*
X115983503Y-47963387D01*
X116277261Y-48672582D01*
X116596030Y-48832365D01*
X117930395Y-47498000D01*
X118289605Y-47498000D01*
X119623970Y-48832365D01*
X119942739Y-48672582D01*
X120252723Y-47881813D01*
X120236497Y-47032613D01*
X119942739Y-46323418D01*
X119623970Y-46163635D01*
X118289605Y-47498000D01*
X117930395Y-47498000D01*
X116596030Y-46163635D01*
X116277261Y-46323418D01*
X115967277Y-47114187D01*
X113665000Y-47114187D01*
X113665000Y-45984030D01*
X116775635Y-45984030D01*
X118110000Y-47318395D01*
X119444365Y-45984030D01*
X119284582Y-45665261D01*
X118493813Y-45355277D01*
X117644613Y-45371503D01*
X116935418Y-45665261D01*
X116775635Y-45984030D01*
X113665000Y-45984030D01*
X113665000Y-44577000D01*
X116956734Y-44577000D01*
X117108110Y-44680431D01*
X117360000Y-44731440D01*
X118860000Y-44731440D01*
X119095317Y-44687162D01*
X119266514Y-44577000D01*
X119654975Y-44577000D01*
X119700302Y-44622327D01*
X119933691Y-44719000D01*
X120524250Y-44719000D01*
X120683000Y-44560250D01*
X120683000Y-43561000D01*
X120937000Y-43561000D01*
X120937000Y-44560250D01*
X121095750Y-44719000D01*
X121686309Y-44719000D01*
X121919698Y-44622327D01*
X122098327Y-44443699D01*
X122127000Y-44374476D01*
X122155673Y-44443699D01*
X122334302Y-44622327D01*
X122567691Y-44719000D01*
X123158250Y-44719000D01*
X123317000Y-44560250D01*
X123317000Y-43561000D01*
X122217750Y-43561000D01*
X122127000Y-43651750D01*
X122036250Y-43561000D01*
X120937000Y-43561000D01*
X120683000Y-43561000D01*
X120663000Y-43561000D01*
X120663000Y-43307000D01*
X123571000Y-43307000D01*
X123571000Y-46863000D01*
G36*
X106690000Y-50797730D02*
X106848750Y-50956480D01*
X107823000Y-50956480D01*
X107823000Y-50936480D01*
X108077000Y-50936480D01*
X108077000Y-50956480D01*
X109051250Y-50956480D01*
X109210000Y-50797730D01*
X109210000Y-50419000D01*
X109946476Y-50419000D01*
X109946476Y-50697730D01*
X110105226Y-50856480D01*
X110617000Y-50856480D01*
X110617000Y-51110480D01*
X110105226Y-51110480D01*
X109946476Y-51269230D01*
X109946476Y-51689000D01*
X109210000Y-51689000D01*
X109210000Y-51369230D01*
X109051250Y-51210480D01*
X108077000Y-51210480D01*
X108077000Y-51230480D01*
X107823000Y-51230480D01*
X107823000Y-51210480D01*
X106848750Y-51210480D01*
X106690000Y-51369230D01*
X106690000Y-51689000D01*
X106172000Y-51689000D01*
X106122590Y-51699006D01*
X106080965Y-51727447D01*
X106053685Y-51769841D01*
X106045000Y-51816000D01*
X106045000Y-57404000D01*
X106055006Y-57453410D01*
X106083447Y-57495035D01*
X106125841Y-57522315D01*
X106172000Y-57531000D01*
X108331000Y-57531000D01*
X108331000Y-59423000D01*
X108077000Y-59423000D01*
X108077000Y-59403000D01*
X107077750Y-59403000D01*
X106919000Y-59561750D01*
X106919000Y-59563000D01*
X102922606Y-59563000D01*
X101759297Y-58399691D01*
X106919000Y-58399691D01*
X106919000Y-58990250D01*
X107077750Y-59149000D01*
X108077000Y-59149000D01*
X108077000Y-58049750D01*
X107918250Y-57891000D01*
X107427690Y-57891000D01*
X107194301Y-57987673D01*
X107015673Y-58166302D01*
X106919000Y-58399691D01*
X101759297Y-58399691D01*
X99949000Y-56589394D01*
X99949000Y-55280000D01*
X99963250Y-55280000D01*
X100122000Y-55121250D01*
X100122000Y-54472000D01*
X100376000Y-54472000D01*
X100376000Y-55121250D01*
X100534750Y-55280000D01*
X101475309Y-55280000D01*
X101708698Y-55183327D01*
X101887327Y-55004699D01*
X101984000Y-54771310D01*
X101984000Y-54630750D01*
X101825250Y-54472000D01*
X100376000Y-54472000D01*
X100122000Y-54472000D01*
X100102000Y-54472000D01*
X100102000Y-54229000D01*
X102108000Y-54229000D01*
X102157410Y-54218994D01*
X102197803Y-54191803D01*
X105970606Y-50419000D01*
X106690000Y-50419000D01*
X106690000Y-50797730D01*
X106690000Y-50797730D01*
G37*
X106690000Y-50797730D02*
X106848750Y-50956480D01*
X107823000Y-50956480D01*
X107823000Y-50936480D01*
X108077000Y-50936480D01*
X108077000Y-50956480D01*
X109051250Y-50956480D01*
X109210000Y-50797730D01*
X109210000Y-50419000D01*
X109946476Y-50419000D01*
X109946476Y-50697730D01*
X110105226Y-50856480D01*
X110617000Y-50856480D01*
X110617000Y-51110480D01*
X110105226Y-51110480D01*
X109946476Y-51269230D01*
X109946476Y-51689000D01*
X109210000Y-51689000D01*
X109210000Y-51369230D01*
X109051250Y-51210480D01*
X108077000Y-51210480D01*
X108077000Y-51230480D01*
X107823000Y-51230480D01*
X107823000Y-51210480D01*
X106848750Y-51210480D01*
X106690000Y-51369230D01*
X106690000Y-51689000D01*
X106172000Y-51689000D01*
X106122590Y-51699006D01*
X106080965Y-51727447D01*
X106053685Y-51769841D01*
X106045000Y-51816000D01*
X106045000Y-57404000D01*
X106055006Y-57453410D01*
X106083447Y-57495035D01*
X106125841Y-57522315D01*
X106172000Y-57531000D01*
X108331000Y-57531000D01*
X108331000Y-59423000D01*
X108077000Y-59423000D01*
X108077000Y-59403000D01*
X107077750Y-59403000D01*
X106919000Y-59561750D01*
X106919000Y-59563000D01*
X102922606Y-59563000D01*
X101759297Y-58399691D01*
X106919000Y-58399691D01*
X106919000Y-58990250D01*
X107077750Y-59149000D01*
X108077000Y-59149000D01*
X108077000Y-58049750D01*
X107918250Y-57891000D01*
X107427690Y-57891000D01*
X107194301Y-57987673D01*
X107015673Y-58166302D01*
X106919000Y-58399691D01*
X101759297Y-58399691D01*
X99949000Y-56589394D01*
X99949000Y-55280000D01*
X99963250Y-55280000D01*
X100122000Y-55121250D01*
X100122000Y-54472000D01*
X100376000Y-54472000D01*
X100376000Y-55121250D01*
X100534750Y-55280000D01*
X101475309Y-55280000D01*
X101708698Y-55183327D01*
X101887327Y-55004699D01*
X101984000Y-54771310D01*
X101984000Y-54630750D01*
X101825250Y-54472000D01*
X100376000Y-54472000D01*
X100122000Y-54472000D01*
X100102000Y-54472000D01*
X100102000Y-54229000D01*
X102108000Y-54229000D01*
X102157410Y-54218994D01*
X102197803Y-54191803D01*
X105970606Y-50419000D01*
X106690000Y-50419000D01*
X106690000Y-50797730D01*
G36*
X92583000Y-54991000D02*
X89154000Y-54991000D01*
X89104590Y-55001006D01*
X89064197Y-55028197D01*
X89006868Y-55085526D01*
X88776683Y-55128838D01*
X88560559Y-55267910D01*
X88415569Y-55480110D01*
X88365618Y-55726776D01*
X88302197Y-55790197D01*
X88274334Y-55832211D01*
X88265000Y-55880000D01*
X88265000Y-58293000D01*
X86460963Y-58293000D01*
X86454497Y-57954613D01*
X86160739Y-57245418D01*
X85841970Y-57085635D01*
X84634605Y-58293000D01*
X84247110Y-58293000D01*
X84313858Y-58226253D01*
X84328000Y-58240395D01*
X85662365Y-56906030D01*
X85502582Y-56587261D01*
X84711813Y-56277277D01*
X83862613Y-56293503D01*
X83153418Y-56587261D01*
X82993636Y-56906028D01*
X82931000Y-56843392D01*
X82931000Y-55753000D01*
X84582000Y-55753000D01*
X84631410Y-55742994D01*
X84671803Y-55715803D01*
X87174606Y-53213000D01*
X92583000Y-53213000D01*
X92583000Y-54991000D01*
X92583000Y-54991000D01*
G37*
X92583000Y-54991000D02*
X89154000Y-54991000D01*
X89104590Y-55001006D01*
X89064197Y-55028197D01*
X89006868Y-55085526D01*
X88776683Y-55128838D01*
X88560559Y-55267910D01*
X88415569Y-55480110D01*
X88365618Y-55726776D01*
X88302197Y-55790197D01*
X88274334Y-55832211D01*
X88265000Y-55880000D01*
X88265000Y-58293000D01*
X86460963Y-58293000D01*
X86454497Y-57954613D01*
X86160739Y-57245418D01*
X85841970Y-57085635D01*
X84634605Y-58293000D01*
X84247110Y-58293000D01*
X84313858Y-58226253D01*
X84328000Y-58240395D01*
X85662365Y-56906030D01*
X85502582Y-56587261D01*
X84711813Y-56277277D01*
X83862613Y-56293503D01*
X83153418Y-56587261D01*
X82993636Y-56906028D01*
X82931000Y-56843392D01*
X82931000Y-55753000D01*
X84582000Y-55753000D01*
X84631410Y-55742994D01*
X84671803Y-55715803D01*
X87174606Y-53213000D01*
X92583000Y-53213000D01*
X92583000Y-54991000D01*
G36*
X136271000Y-50419000D02*
X133985000Y-50419000D01*
X133985000Y-50090606D01*
X135217803Y-48857803D01*
X135245666Y-48815789D01*
X135255000Y-48768000D01*
X135255000Y-45720000D01*
X135244994Y-45670590D01*
X135217803Y-45630197D01*
X133661606Y-44074000D01*
X133828309Y-44074000D01*
X134061698Y-43977327D01*
X134240327Y-43798699D01*
X134337000Y-43565310D01*
X134337000Y-43399750D01*
X134178250Y-43241000D01*
X133223000Y-43241000D01*
X133223000Y-43053000D01*
X136271000Y-43053000D01*
X136271000Y-50419000D01*
X136271000Y-50419000D01*
G37*
X136271000Y-50419000D02*
X133985000Y-50419000D01*
X133985000Y-50090606D01*
X135217803Y-48857803D01*
X135245666Y-48815789D01*
X135255000Y-48768000D01*
X135255000Y-45720000D01*
X135244994Y-45670590D01*
X135217803Y-45630197D01*
X133661606Y-44074000D01*
X133828309Y-44074000D01*
X134061698Y-43977327D01*
X134240327Y-43798699D01*
X134337000Y-43565310D01*
X134337000Y-43399750D01*
X134178250Y-43241000D01*
X133223000Y-43241000D01*
X133223000Y-43053000D01*
X136271000Y-43053000D01*
X136271000Y-50419000D01*
G36*
X107315000Y-37465000D02*
X99568000Y-37465000D01*
X99518590Y-37475006D01*
X99476965Y-37503447D01*
X99449685Y-37545841D01*
X99441000Y-37592000D01*
X99441000Y-46355000D01*
X98555612Y-46355000D01*
X98623000Y-46192310D01*
X98623000Y-45751750D01*
X98464250Y-45593000D01*
X97665000Y-45593000D01*
X97665000Y-45613000D01*
X97411000Y-45613000D01*
X97411000Y-45593000D01*
X96611750Y-45593000D01*
X96453000Y-45751750D01*
X96453000Y-46192310D01*
X96520388Y-46355000D01*
X92837000Y-46355000D01*
X92837000Y-44739690D01*
X96453000Y-44739690D01*
X96453000Y-45180250D01*
X96611750Y-45339000D01*
X97411000Y-45339000D01*
X97411000Y-44389750D01*
X97665000Y-44389750D01*
X97665000Y-45339000D01*
X98464250Y-45339000D01*
X98623000Y-45180250D01*
X98623000Y-44739690D01*
X98526327Y-44506301D01*
X98347698Y-44327673D01*
X98114309Y-44231000D01*
X97823750Y-44231000D01*
X97665000Y-44389750D01*
X97411000Y-44389750D01*
X97252250Y-44231000D01*
X96961691Y-44231000D01*
X96728302Y-44327673D01*
X96549673Y-44506301D01*
X96453000Y-44739690D01*
X92837000Y-44739690D01*
X92837000Y-34710000D01*
X107315000Y-34710000D01*
X107315000Y-37465000D01*
X107315000Y-37465000D01*
G37*
X107315000Y-37465000D02*
X99568000Y-37465000D01*
X99518590Y-37475006D01*
X99476965Y-37503447D01*
X99449685Y-37545841D01*
X99441000Y-37592000D01*
X99441000Y-46355000D01*
X98555612Y-46355000D01*
X98623000Y-46192310D01*
X98623000Y-45751750D01*
X98464250Y-45593000D01*
X97665000Y-45593000D01*
X97665000Y-45613000D01*
X97411000Y-45613000D01*
X97411000Y-45593000D01*
X96611750Y-45593000D01*
X96453000Y-45751750D01*
X96453000Y-46192310D01*
X96520388Y-46355000D01*
X92837000Y-46355000D01*
X92837000Y-44739690D01*
X96453000Y-44739690D01*
X96453000Y-45180250D01*
X96611750Y-45339000D01*
X97411000Y-45339000D01*
X97411000Y-44389750D01*
X97665000Y-44389750D01*
X97665000Y-45339000D01*
X98464250Y-45339000D01*
X98623000Y-45180250D01*
X98623000Y-44739690D01*
X98526327Y-44506301D01*
X98347698Y-44327673D01*
X98114309Y-44231000D01*
X97823750Y-44231000D01*
X97665000Y-44389750D01*
X97411000Y-44389750D01*
X97252250Y-44231000D01*
X96961691Y-44231000D01*
X96728302Y-44327673D01*
X96549673Y-44506301D01*
X96453000Y-44739690D01*
X92837000Y-44739690D01*
X92837000Y-34710000D01*
X107315000Y-34710000D01*
X107315000Y-37465000D01*
G36*
X94901000Y-47720250D02*
X95059750Y-47879000D01*
X96159000Y-47879000D01*
X96159000Y-47859000D01*
X96413000Y-47859000D01*
X96413000Y-47879000D01*
X96433000Y-47879000D01*
X96433000Y-48133000D01*
X96413000Y-48133000D01*
X96413000Y-48153000D01*
X96159000Y-48153000D01*
X96159000Y-48133000D01*
X95059750Y-48133000D01*
X94901000Y-48291750D01*
X94901000Y-48757310D01*
X94997673Y-48990699D01*
X95176302Y-49169327D01*
X95377000Y-49252459D01*
X95377000Y-49600000D01*
X94784750Y-49600000D01*
X94626000Y-49758750D01*
X94626000Y-50165000D01*
X94372000Y-50165000D01*
X94372000Y-49758750D01*
X94213250Y-49600000D01*
X93272691Y-49600000D01*
X93091000Y-49675259D01*
X93091000Y-47371000D01*
X94901000Y-47371000D01*
X94901000Y-47720250D01*
X94901000Y-47720250D01*
G37*
X94901000Y-47720250D02*
X95059750Y-47879000D01*
X96159000Y-47879000D01*
X96159000Y-47859000D01*
X96413000Y-47859000D01*
X96413000Y-47879000D01*
X96433000Y-47879000D01*
X96433000Y-48133000D01*
X96413000Y-48133000D01*
X96413000Y-48153000D01*
X96159000Y-48153000D01*
X96159000Y-48133000D01*
X95059750Y-48133000D01*
X94901000Y-48291750D01*
X94901000Y-48757310D01*
X94997673Y-48990699D01*
X95176302Y-49169327D01*
X95377000Y-49252459D01*
X95377000Y-49600000D01*
X94784750Y-49600000D01*
X94626000Y-49758750D01*
X94626000Y-50165000D01*
X94372000Y-50165000D01*
X94372000Y-49758750D01*
X94213250Y-49600000D01*
X93272691Y-49600000D01*
X93091000Y-49675259D01*
X93091000Y-47371000D01*
X94901000Y-47371000D01*
X94901000Y-47720250D01*
G36*
X128397000Y-38152606D02*
X128397000Y-41402000D01*
X128407006Y-41451410D01*
X128434197Y-41491803D01*
X128807000Y-41864606D01*
X128807000Y-41878250D01*
X128965748Y-42036998D01*
X128807000Y-42036998D01*
X128807000Y-42037000D01*
X123063000Y-42037000D01*
X123063000Y-40629970D01*
X124903635Y-40629970D01*
X125063418Y-40948739D01*
X125854187Y-41258723D01*
X126703387Y-41242497D01*
X127412582Y-40948739D01*
X127572365Y-40629970D01*
X126238000Y-39295605D01*
X124903635Y-40629970D01*
X123063000Y-40629970D01*
X123063000Y-38732187D01*
X124095277Y-38732187D01*
X124111503Y-39581387D01*
X124405261Y-40290582D01*
X124724030Y-40450365D01*
X126058395Y-39116000D01*
X126417605Y-39116000D01*
X127751970Y-40450365D01*
X128070739Y-40290582D01*
X128380723Y-39499813D01*
X128364497Y-38650613D01*
X128070739Y-37941418D01*
X127751970Y-37781635D01*
X126417605Y-39116000D01*
X126058395Y-39116000D01*
X124724030Y-37781635D01*
X124405261Y-37941418D01*
X124095277Y-38732187D01*
X123063000Y-38732187D01*
X123063000Y-38660606D01*
X124121576Y-37602030D01*
X124903635Y-37602030D01*
X126238000Y-38936395D01*
X127572365Y-37602030D01*
X127412582Y-37283261D01*
X126621813Y-36973277D01*
X125772613Y-36989503D01*
X125063418Y-37283261D01*
X124903635Y-37602030D01*
X124121576Y-37602030D01*
X124766606Y-36957000D01*
X127201394Y-36957000D01*
X128397000Y-38152606D01*
X128397000Y-38152606D01*
G37*
X128397000Y-38152606D02*
X128397000Y-41402000D01*
X128407006Y-41451410D01*
X128434197Y-41491803D01*
X128807000Y-41864606D01*
X128807000Y-41878250D01*
X128965748Y-42036998D01*
X128807000Y-42036998D01*
X128807000Y-42037000D01*
X123063000Y-42037000D01*
X123063000Y-40629970D01*
X124903635Y-40629970D01*
X125063418Y-40948739D01*
X125854187Y-41258723D01*
X126703387Y-41242497D01*
X127412582Y-40948739D01*
X127572365Y-40629970D01*
X126238000Y-39295605D01*
X124903635Y-40629970D01*
X123063000Y-40629970D01*
X123063000Y-38732187D01*
X124095277Y-38732187D01*
X124111503Y-39581387D01*
X124405261Y-40290582D01*
X124724030Y-40450365D01*
X126058395Y-39116000D01*
X126417605Y-39116000D01*
X127751970Y-40450365D01*
X128070739Y-40290582D01*
X128380723Y-39499813D01*
X128364497Y-38650613D01*
X128070739Y-37941418D01*
X127751970Y-37781635D01*
X126417605Y-39116000D01*
X126058395Y-39116000D01*
X124724030Y-37781635D01*
X124405261Y-37941418D01*
X124095277Y-38732187D01*
X123063000Y-38732187D01*
X123063000Y-38660606D01*
X124121576Y-37602030D01*
X124903635Y-37602030D01*
X126238000Y-38936395D01*
X127572365Y-37602030D01*
X127412582Y-37283261D01*
X126621813Y-36973277D01*
X125772613Y-36989503D01*
X125063418Y-37283261D01*
X124903635Y-37602030D01*
X124121576Y-37602030D01*
X124766606Y-36957000D01*
X127201394Y-36957000D01*
X128397000Y-38152606D01*
M02*
