G04 #@! TF.FileFunction,Copper,L1,Top,Signal*
%FSLAX46Y46*%
G04 Gerber Fmt 4.6, Leading zero omitted, Abs format (unit mm)*
G04 Created by KiCad (PCBNEW 4.0.7-e2-6376~58~ubuntu16.04.1) date Thu Jan  4 08:35:36 2018*
%MOMM*%
%LPD*%
G01*
G04 APERTURE LIST*
%ADD10C,0.100000*%
%ADD11R,2.800000X2.800000*%
%ADD12C,2.800000*%
%ADD13R,0.600000X0.900000*%
%ADD14R,0.900000X0.600000*%
%ADD15R,1.150000X0.700000*%
%ADD16R,1.550000X4.700000*%
%ADD17R,3.300000X4.200000*%
%ADD18R,0.700000X1.150000*%
%ADD19R,4.700000X1.550000*%
%ADD20R,4.200000X3.300000*%
%ADD21R,1.000000X0.670000*%
%ADD22C,1.000000*%
%ADD23C,0.254000*%
G04 APERTURE END LIST*
D10*
D11*
X118110000Y-77080000D03*
D12*
X118110000Y-81280000D03*
D11*
X136144000Y-77080000D03*
D12*
X136144000Y-81280000D03*
D11*
X140208000Y-90678000D03*
D12*
X136008000Y-90678000D03*
D13*
X121186000Y-92214000D03*
X122036000Y-92214000D03*
X120336000Y-92214000D03*
X121186000Y-89914000D03*
X122036000Y-89914000D03*
X120336000Y-89914000D03*
X120336000Y-91064000D03*
X122036000Y-91064000D03*
D14*
X118486000Y-92944000D03*
X118486000Y-89184000D03*
X118486000Y-91664000D03*
D15*
X124206000Y-91704000D03*
X124206000Y-92974000D03*
X124206000Y-90424000D03*
D16*
X118736000Y-91064000D03*
D17*
X120936000Y-91064000D03*
D15*
X124206000Y-89154000D03*
D14*
X118486000Y-90464000D03*
D13*
X121186000Y-91064000D03*
D14*
X128792000Y-83312000D03*
X128792000Y-82462000D03*
X128792000Y-84162000D03*
X126492000Y-83312000D03*
X126492000Y-82462000D03*
X126492000Y-84162000D03*
X127642000Y-84162000D03*
X127642000Y-82462000D03*
D13*
X129522000Y-86012000D03*
X125762000Y-86012000D03*
X128242000Y-86012000D03*
D18*
X128282000Y-80292000D03*
X129552000Y-80292000D03*
X127002000Y-80292000D03*
D19*
X127642000Y-85762000D03*
D20*
X127642000Y-83562000D03*
D18*
X125732000Y-80292000D03*
D13*
X127042000Y-86012000D03*
D14*
X127642000Y-83312000D03*
D21*
X127508000Y-90424000D03*
X127508000Y-88674000D03*
X123444000Y-80010000D03*
X123444000Y-81760000D03*
D22*
X136144000Y-77080000D02*
X140090000Y-77080000D01*
X140090000Y-77080000D02*
X140208000Y-77198000D01*
X131572000Y-77216000D02*
X131708000Y-77080000D01*
X131708000Y-77080000D02*
X136144000Y-77080000D01*
X123308000Y-77080000D02*
X123444000Y-77216000D01*
X123444000Y-77216000D02*
X123444000Y-80010000D01*
X118110000Y-77080000D02*
X123308000Y-77080000D01*
X140208000Y-77198000D02*
X140208000Y-90678000D01*
X131572000Y-80264000D02*
X131572000Y-77216000D01*
X131544000Y-80292000D02*
X131572000Y-80264000D01*
X129552000Y-80292000D02*
X131544000Y-80292000D01*
X125732000Y-80292000D02*
X123726000Y-80292000D01*
X123726000Y-80292000D02*
X123444000Y-80010000D01*
X128282000Y-80292000D02*
X129552000Y-80292000D01*
X127002000Y-80292000D02*
X128282000Y-80292000D01*
X125732000Y-80292000D02*
X127002000Y-80292000D01*
X123444000Y-77960000D02*
X123444000Y-80010000D01*
X118736000Y-91064000D02*
X118736000Y-81906000D01*
X118736000Y-81906000D02*
X118110000Y-81280000D01*
X123444000Y-81760000D02*
X118590000Y-81760000D01*
X118590000Y-81760000D02*
X118110000Y-81280000D01*
X120936000Y-91064000D02*
X118736000Y-91064000D01*
X136144000Y-81280000D02*
X136144000Y-90542000D01*
X136144000Y-90542000D02*
X136008000Y-90678000D01*
X127508000Y-90424000D02*
X135754000Y-90424000D01*
X135754000Y-90424000D02*
X136008000Y-90678000D01*
X124206000Y-90424000D02*
X127508000Y-90424000D01*
X124206000Y-91704000D02*
X124206000Y-92974000D01*
X124206000Y-90424000D02*
X124206000Y-91704000D01*
X135500000Y-90170000D02*
X136008000Y-90678000D01*
X127642000Y-83562000D02*
X127642000Y-88540000D01*
X127642000Y-88540000D02*
X127508000Y-88674000D01*
X127642000Y-85762000D02*
X127642000Y-83562000D01*
X124206000Y-89154000D02*
X124206000Y-85756000D01*
X124206000Y-85756000D02*
X124212000Y-85762000D01*
X124212000Y-85762000D02*
X124292000Y-85762000D01*
X124292000Y-85762000D02*
X127642000Y-85762000D01*
D23*
G36*
X132715000Y-89289000D02*
X128579339Y-89289000D01*
X128643000Y-89135309D01*
X128643000Y-88959750D01*
X128484250Y-88801000D01*
X127635000Y-88801000D01*
X127635000Y-88821000D01*
X127381000Y-88821000D01*
X127381000Y-88801000D01*
X126531750Y-88801000D01*
X126373000Y-88959750D01*
X126373000Y-89135309D01*
X126436661Y-89289000D01*
X125265250Y-89289000D01*
X125257250Y-89281000D01*
X124333000Y-89281000D01*
X124333000Y-89289000D01*
X124206000Y-89289000D01*
X124145672Y-89301000D01*
X124079000Y-89301000D01*
X124079000Y-89281000D01*
X124059000Y-89281000D01*
X124059000Y-89027000D01*
X124079000Y-89027000D01*
X124079000Y-88327750D01*
X124333000Y-88327750D01*
X124333000Y-89027000D01*
X125257250Y-89027000D01*
X125416000Y-88868250D01*
X125416000Y-88677691D01*
X125319327Y-88444302D01*
X125140699Y-88265673D01*
X125012790Y-88212691D01*
X126373000Y-88212691D01*
X126373000Y-88388250D01*
X126531750Y-88547000D01*
X127381000Y-88547000D01*
X127381000Y-87862750D01*
X127635000Y-87862750D01*
X127635000Y-88547000D01*
X128484250Y-88547000D01*
X128643000Y-88388250D01*
X128643000Y-88212691D01*
X128546327Y-87979302D01*
X128367699Y-87800673D01*
X128134310Y-87704000D01*
X127793750Y-87704000D01*
X127635000Y-87862750D01*
X127381000Y-87862750D01*
X127222250Y-87704000D01*
X126881690Y-87704000D01*
X126648301Y-87800673D01*
X126469673Y-87979302D01*
X126373000Y-88212691D01*
X125012790Y-88212691D01*
X124907310Y-88169000D01*
X124491750Y-88169000D01*
X124333000Y-88327750D01*
X124079000Y-88327750D01*
X123920250Y-88169000D01*
X123504690Y-88169000D01*
X123317000Y-88246744D01*
X123317000Y-82895000D01*
X123444000Y-82895000D01*
X123878346Y-82808603D01*
X123990445Y-82733701D01*
X124179317Y-82698162D01*
X124215053Y-82675167D01*
X124255410Y-82666994D01*
X124297035Y-82638553D01*
X124314761Y-82611006D01*
X124395441Y-82559090D01*
X124540431Y-82346890D01*
X124591440Y-82095000D01*
X124591440Y-81427000D01*
X125076791Y-81427000D01*
X125107792Y-81448182D01*
X125003673Y-81552301D01*
X124907000Y-81785690D01*
X124907000Y-83276250D01*
X125065750Y-83435000D01*
X125407000Y-83435000D01*
X125407000Y-83439002D01*
X125565748Y-83439002D01*
X125407000Y-83597750D01*
X125407000Y-83689000D01*
X125065750Y-83689000D01*
X124907000Y-83847750D01*
X124907000Y-84473975D01*
X124753673Y-84627301D01*
X124657000Y-84860690D01*
X124657000Y-85476250D01*
X124815750Y-85635000D01*
X124827000Y-85635000D01*
X124827000Y-85726250D01*
X124985748Y-85884998D01*
X124827000Y-85884998D01*
X124827000Y-85889000D01*
X124815750Y-85889000D01*
X124657000Y-86047750D01*
X124657000Y-86663310D01*
X124753673Y-86896699D01*
X124932302Y-87075327D01*
X125165691Y-87172000D01*
X127356250Y-87172000D01*
X127431250Y-87097000D01*
X127468309Y-87097000D01*
X127642000Y-87025055D01*
X127815691Y-87097000D01*
X127852750Y-87097000D01*
X127927750Y-87172000D01*
X130118309Y-87172000D01*
X130351698Y-87075327D01*
X130530327Y-86896699D01*
X130627000Y-86663310D01*
X130627000Y-86047750D01*
X130468250Y-85889000D01*
X130457000Y-85889000D01*
X130457000Y-85884998D01*
X130298252Y-85884998D01*
X130457000Y-85726250D01*
X130457000Y-85635000D01*
X130468250Y-85635000D01*
X130627000Y-85476250D01*
X130627000Y-84860690D01*
X130530327Y-84627301D01*
X130377000Y-84473975D01*
X130377000Y-83847750D01*
X130218250Y-83689000D01*
X129877000Y-83689000D01*
X129877000Y-83597750D01*
X129718252Y-83439002D01*
X129877000Y-83439002D01*
X129877000Y-83435000D01*
X130218250Y-83435000D01*
X130377000Y-83276250D01*
X130377000Y-81785690D01*
X130280327Y-81552301D01*
X130174354Y-81446329D01*
X130204393Y-81427000D01*
X131544000Y-81427000D01*
X131644547Y-81407000D01*
X132715000Y-81407000D01*
X132715000Y-89289000D01*
X132715000Y-89289000D01*
G37*
X132715000Y-89289000D02*
X128579339Y-89289000D01*
X128643000Y-89135309D01*
X128643000Y-88959750D01*
X128484250Y-88801000D01*
X127635000Y-88801000D01*
X127635000Y-88821000D01*
X127381000Y-88821000D01*
X127381000Y-88801000D01*
X126531750Y-88801000D01*
X126373000Y-88959750D01*
X126373000Y-89135309D01*
X126436661Y-89289000D01*
X125265250Y-89289000D01*
X125257250Y-89281000D01*
X124333000Y-89281000D01*
X124333000Y-89289000D01*
X124206000Y-89289000D01*
X124145672Y-89301000D01*
X124079000Y-89301000D01*
X124079000Y-89281000D01*
X124059000Y-89281000D01*
X124059000Y-89027000D01*
X124079000Y-89027000D01*
X124079000Y-88327750D01*
X124333000Y-88327750D01*
X124333000Y-89027000D01*
X125257250Y-89027000D01*
X125416000Y-88868250D01*
X125416000Y-88677691D01*
X125319327Y-88444302D01*
X125140699Y-88265673D01*
X125012790Y-88212691D01*
X126373000Y-88212691D01*
X126373000Y-88388250D01*
X126531750Y-88547000D01*
X127381000Y-88547000D01*
X127381000Y-87862750D01*
X127635000Y-87862750D01*
X127635000Y-88547000D01*
X128484250Y-88547000D01*
X128643000Y-88388250D01*
X128643000Y-88212691D01*
X128546327Y-87979302D01*
X128367699Y-87800673D01*
X128134310Y-87704000D01*
X127793750Y-87704000D01*
X127635000Y-87862750D01*
X127381000Y-87862750D01*
X127222250Y-87704000D01*
X126881690Y-87704000D01*
X126648301Y-87800673D01*
X126469673Y-87979302D01*
X126373000Y-88212691D01*
X125012790Y-88212691D01*
X124907310Y-88169000D01*
X124491750Y-88169000D01*
X124333000Y-88327750D01*
X124079000Y-88327750D01*
X123920250Y-88169000D01*
X123504690Y-88169000D01*
X123317000Y-88246744D01*
X123317000Y-82895000D01*
X123444000Y-82895000D01*
X123878346Y-82808603D01*
X123990445Y-82733701D01*
X124179317Y-82698162D01*
X124215053Y-82675167D01*
X124255410Y-82666994D01*
X124297035Y-82638553D01*
X124314761Y-82611006D01*
X124395441Y-82559090D01*
X124540431Y-82346890D01*
X124591440Y-82095000D01*
X124591440Y-81427000D01*
X125076791Y-81427000D01*
X125107792Y-81448182D01*
X125003673Y-81552301D01*
X124907000Y-81785690D01*
X124907000Y-83276250D01*
X125065750Y-83435000D01*
X125407000Y-83435000D01*
X125407000Y-83439002D01*
X125565748Y-83439002D01*
X125407000Y-83597750D01*
X125407000Y-83689000D01*
X125065750Y-83689000D01*
X124907000Y-83847750D01*
X124907000Y-84473975D01*
X124753673Y-84627301D01*
X124657000Y-84860690D01*
X124657000Y-85476250D01*
X124815750Y-85635000D01*
X124827000Y-85635000D01*
X124827000Y-85726250D01*
X124985748Y-85884998D01*
X124827000Y-85884998D01*
X124827000Y-85889000D01*
X124815750Y-85889000D01*
X124657000Y-86047750D01*
X124657000Y-86663310D01*
X124753673Y-86896699D01*
X124932302Y-87075327D01*
X125165691Y-87172000D01*
X127356250Y-87172000D01*
X127431250Y-87097000D01*
X127468309Y-87097000D01*
X127642000Y-87025055D01*
X127815691Y-87097000D01*
X127852750Y-87097000D01*
X127927750Y-87172000D01*
X130118309Y-87172000D01*
X130351698Y-87075327D01*
X130530327Y-86896699D01*
X130627000Y-86663310D01*
X130627000Y-86047750D01*
X130468250Y-85889000D01*
X130457000Y-85889000D01*
X130457000Y-85884998D01*
X130298252Y-85884998D01*
X130457000Y-85726250D01*
X130457000Y-85635000D01*
X130468250Y-85635000D01*
X130627000Y-85476250D01*
X130627000Y-84860690D01*
X130530327Y-84627301D01*
X130377000Y-84473975D01*
X130377000Y-83847750D01*
X130218250Y-83689000D01*
X129877000Y-83689000D01*
X129877000Y-83597750D01*
X129718252Y-83439002D01*
X129877000Y-83439002D01*
X129877000Y-83435000D01*
X130218250Y-83435000D01*
X130377000Y-83276250D01*
X130377000Y-81785690D01*
X130280327Y-81552301D01*
X130174354Y-81446329D01*
X130204393Y-81427000D01*
X131544000Y-81427000D01*
X131644547Y-81407000D01*
X132715000Y-81407000D01*
X132715000Y-89289000D01*
G36*
X127769000Y-83535750D02*
X127707000Y-83597750D01*
X127707000Y-83709000D01*
X127577000Y-83709000D01*
X127577000Y-83597750D01*
X127515000Y-83535750D01*
X127515000Y-83415000D01*
X127769000Y-83415000D01*
X127769000Y-83535750D01*
X127769000Y-83535750D01*
G37*
X127769000Y-83535750D02*
X127707000Y-83597750D01*
X127707000Y-83709000D01*
X127577000Y-83709000D01*
X127577000Y-83597750D01*
X127515000Y-83535750D01*
X127515000Y-83415000D01*
X127769000Y-83415000D01*
X127769000Y-83535750D01*
G36*
X116710000Y-79127440D02*
X119510000Y-79127440D01*
X119544226Y-79121000D01*
X122301000Y-79121000D01*
X122301000Y-79653074D01*
X122296560Y-79675000D01*
X122296560Y-80345000D01*
X122301000Y-80368597D01*
X122301000Y-81026000D01*
X122311006Y-81075410D01*
X122339447Y-81117035D01*
X122374817Y-81139795D01*
X122309000Y-81298691D01*
X122309000Y-81474250D01*
X122467750Y-81633000D01*
X123317000Y-81633000D01*
X123317000Y-81613000D01*
X123571000Y-81613000D01*
X123571000Y-81633000D01*
X123591000Y-81633000D01*
X123591000Y-81887000D01*
X123571000Y-81887000D01*
X123571000Y-81907000D01*
X123317000Y-81907000D01*
X123317000Y-81887000D01*
X122467750Y-81887000D01*
X122309000Y-82045750D01*
X122309000Y-82221309D01*
X122405673Y-82454698D01*
X122584301Y-82633327D01*
X122809000Y-82726400D01*
X122809000Y-88369050D01*
X122712310Y-88329000D01*
X121221750Y-88329000D01*
X121063000Y-88487750D01*
X121063000Y-88829000D01*
X121058998Y-88829000D01*
X121058998Y-88987748D01*
X120900250Y-88829000D01*
X120809000Y-88829000D01*
X120809000Y-88487750D01*
X120650250Y-88329000D01*
X120024025Y-88329000D01*
X119870699Y-88175673D01*
X119637310Y-88079000D01*
X119021750Y-88079000D01*
X118863000Y-88237750D01*
X118863000Y-88249000D01*
X118771750Y-88249000D01*
X118613002Y-88407748D01*
X118613002Y-88249000D01*
X118609000Y-88249000D01*
X118609000Y-88237750D01*
X118450250Y-88079000D01*
X117834690Y-88079000D01*
X117601301Y-88175673D01*
X117422673Y-88354302D01*
X117326000Y-88587691D01*
X117326000Y-90778250D01*
X117401000Y-90853250D01*
X117401000Y-90890309D01*
X117472945Y-91064000D01*
X117401000Y-91237691D01*
X117401000Y-91274750D01*
X117326000Y-91349750D01*
X117326000Y-93524000D01*
X115264000Y-93524000D01*
X115264000Y-82721724D01*
X116847882Y-82721724D01*
X116995455Y-83030106D01*
X117750031Y-83323405D01*
X118559409Y-83305614D01*
X119224545Y-83030106D01*
X119372118Y-82721724D01*
X118110000Y-81459605D01*
X116847882Y-82721724D01*
X115264000Y-82721724D01*
X115264000Y-80920031D01*
X116066595Y-80920031D01*
X116084386Y-81729409D01*
X116359894Y-82394545D01*
X116668276Y-82542118D01*
X117930395Y-81280000D01*
X118289605Y-81280000D01*
X119551724Y-82542118D01*
X119860106Y-82394545D01*
X120153405Y-81639969D01*
X120135614Y-80830591D01*
X119860106Y-80165455D01*
X119551724Y-80017882D01*
X118289605Y-81280000D01*
X117930395Y-81280000D01*
X116668276Y-80017882D01*
X116359894Y-80165455D01*
X116066595Y-80920031D01*
X115264000Y-80920031D01*
X115264000Y-79838276D01*
X116847882Y-79838276D01*
X118110000Y-81100395D01*
X119372118Y-79838276D01*
X119224545Y-79529894D01*
X118469969Y-79236595D01*
X117660591Y-79254386D01*
X116995455Y-79529894D01*
X116847882Y-79838276D01*
X115264000Y-79838276D01*
X115264000Y-79121000D01*
X116678198Y-79121000D01*
X116710000Y-79127440D01*
X116710000Y-79127440D01*
G37*
X116710000Y-79127440D02*
X119510000Y-79127440D01*
X119544226Y-79121000D01*
X122301000Y-79121000D01*
X122301000Y-79653074D01*
X122296560Y-79675000D01*
X122296560Y-80345000D01*
X122301000Y-80368597D01*
X122301000Y-81026000D01*
X122311006Y-81075410D01*
X122339447Y-81117035D01*
X122374817Y-81139795D01*
X122309000Y-81298691D01*
X122309000Y-81474250D01*
X122467750Y-81633000D01*
X123317000Y-81633000D01*
X123317000Y-81613000D01*
X123571000Y-81613000D01*
X123571000Y-81633000D01*
X123591000Y-81633000D01*
X123591000Y-81887000D01*
X123571000Y-81887000D01*
X123571000Y-81907000D01*
X123317000Y-81907000D01*
X123317000Y-81887000D01*
X122467750Y-81887000D01*
X122309000Y-82045750D01*
X122309000Y-82221309D01*
X122405673Y-82454698D01*
X122584301Y-82633327D01*
X122809000Y-82726400D01*
X122809000Y-88369050D01*
X122712310Y-88329000D01*
X121221750Y-88329000D01*
X121063000Y-88487750D01*
X121063000Y-88829000D01*
X121058998Y-88829000D01*
X121058998Y-88987748D01*
X120900250Y-88829000D01*
X120809000Y-88829000D01*
X120809000Y-88487750D01*
X120650250Y-88329000D01*
X120024025Y-88329000D01*
X119870699Y-88175673D01*
X119637310Y-88079000D01*
X119021750Y-88079000D01*
X118863000Y-88237750D01*
X118863000Y-88249000D01*
X118771750Y-88249000D01*
X118613002Y-88407748D01*
X118613002Y-88249000D01*
X118609000Y-88249000D01*
X118609000Y-88237750D01*
X118450250Y-88079000D01*
X117834690Y-88079000D01*
X117601301Y-88175673D01*
X117422673Y-88354302D01*
X117326000Y-88587691D01*
X117326000Y-90778250D01*
X117401000Y-90853250D01*
X117401000Y-90890309D01*
X117472945Y-91064000D01*
X117401000Y-91237691D01*
X117401000Y-91274750D01*
X117326000Y-91349750D01*
X117326000Y-93524000D01*
X115264000Y-93524000D01*
X115264000Y-82721724D01*
X116847882Y-82721724D01*
X116995455Y-83030106D01*
X117750031Y-83323405D01*
X118559409Y-83305614D01*
X119224545Y-83030106D01*
X119372118Y-82721724D01*
X118110000Y-81459605D01*
X116847882Y-82721724D01*
X115264000Y-82721724D01*
X115264000Y-80920031D01*
X116066595Y-80920031D01*
X116084386Y-81729409D01*
X116359894Y-82394545D01*
X116668276Y-82542118D01*
X117930395Y-81280000D01*
X118289605Y-81280000D01*
X119551724Y-82542118D01*
X119860106Y-82394545D01*
X120153405Y-81639969D01*
X120135614Y-80830591D01*
X119860106Y-80165455D01*
X119551724Y-80017882D01*
X118289605Y-81280000D01*
X117930395Y-81280000D01*
X116668276Y-80017882D01*
X116359894Y-80165455D01*
X116066595Y-80920031D01*
X115264000Y-80920031D01*
X115264000Y-79838276D01*
X116847882Y-79838276D01*
X118110000Y-81100395D01*
X119372118Y-79838276D01*
X119224545Y-79529894D01*
X118469969Y-79236595D01*
X117660591Y-79254386D01*
X116995455Y-79529894D01*
X116847882Y-79838276D01*
X115264000Y-79838276D01*
X115264000Y-79121000D01*
X116678198Y-79121000D01*
X116710000Y-79127440D01*
G36*
X121083000Y-91191000D02*
X120962250Y-91191000D01*
X120900250Y-91129000D01*
X120789000Y-91129000D01*
X120789000Y-90999000D01*
X120900250Y-90999000D01*
X120962250Y-90937000D01*
X121083000Y-90937000D01*
X121083000Y-91191000D01*
X121083000Y-91191000D01*
G37*
X121083000Y-91191000D02*
X120962250Y-91191000D01*
X120900250Y-91129000D01*
X120789000Y-91129000D01*
X120789000Y-90999000D01*
X120900250Y-90999000D01*
X120962250Y-90937000D01*
X121083000Y-90937000D01*
X121083000Y-91191000D01*
G36*
X135029455Y-79529894D02*
X134881882Y-79838276D01*
X136144000Y-81100395D01*
X137406118Y-79838276D01*
X137258545Y-79529894D01*
X136860046Y-79375000D01*
X138557000Y-79375000D01*
X138557000Y-88519000D01*
X138176000Y-88519000D01*
X138126590Y-88529006D01*
X138084965Y-88557447D01*
X138057685Y-88599841D01*
X138049000Y-88646000D01*
X138049000Y-90928557D01*
X138033614Y-90228591D01*
X137758106Y-89563455D01*
X137449724Y-89415882D01*
X136187605Y-90678000D01*
X137449724Y-91940118D01*
X137758106Y-91792545D01*
X138049000Y-91044156D01*
X138049000Y-93524000D01*
X125385476Y-93524000D01*
X125416000Y-93450309D01*
X125416000Y-93259750D01*
X125257250Y-93101000D01*
X124333000Y-93101000D01*
X124333000Y-93121000D01*
X124079000Y-93121000D01*
X124079000Y-93101000D01*
X124059000Y-93101000D01*
X124059000Y-92847000D01*
X124079000Y-92847000D01*
X124079000Y-91831000D01*
X124333000Y-91831000D01*
X124333000Y-92847000D01*
X125257250Y-92847000D01*
X125416000Y-92688250D01*
X125416000Y-92497691D01*
X125350268Y-92339000D01*
X125416000Y-92180309D01*
X125416000Y-92119724D01*
X134745882Y-92119724D01*
X134893455Y-92428106D01*
X135648031Y-92721405D01*
X136457409Y-92703614D01*
X137122545Y-92428106D01*
X137270118Y-92119724D01*
X136008000Y-90857605D01*
X134745882Y-92119724D01*
X125416000Y-92119724D01*
X125416000Y-91989750D01*
X125257250Y-91831000D01*
X124333000Y-91831000D01*
X124079000Y-91831000D01*
X124059000Y-91831000D01*
X124059000Y-91577000D01*
X124079000Y-91577000D01*
X124079000Y-90551000D01*
X124333000Y-90551000D01*
X124333000Y-91577000D01*
X125257250Y-91577000D01*
X125416000Y-91418250D01*
X125416000Y-91227691D01*
X125348197Y-91064000D01*
X125416000Y-90900309D01*
X125416000Y-90709750D01*
X126373000Y-90709750D01*
X126373000Y-90885309D01*
X126469673Y-91118698D01*
X126648301Y-91297327D01*
X126881690Y-91394000D01*
X127222250Y-91394000D01*
X127381000Y-91235250D01*
X127381000Y-90551000D01*
X127635000Y-90551000D01*
X127635000Y-91235250D01*
X127793750Y-91394000D01*
X128134310Y-91394000D01*
X128367699Y-91297327D01*
X128546327Y-91118698D01*
X128643000Y-90885309D01*
X128643000Y-90709750D01*
X128484250Y-90551000D01*
X127635000Y-90551000D01*
X127381000Y-90551000D01*
X126531750Y-90551000D01*
X126373000Y-90709750D01*
X125416000Y-90709750D01*
X125257250Y-90551000D01*
X124333000Y-90551000D01*
X124079000Y-90551000D01*
X124059000Y-90551000D01*
X124059000Y-90318031D01*
X133964595Y-90318031D01*
X133982386Y-91127409D01*
X134257894Y-91792545D01*
X134566276Y-91940118D01*
X135828395Y-90678000D01*
X134566276Y-89415882D01*
X134257894Y-89563455D01*
X133964595Y-90318031D01*
X124059000Y-90318031D01*
X124059000Y-90297000D01*
X124079000Y-90297000D01*
X124079000Y-90277000D01*
X124145672Y-90277000D01*
X124206000Y-90289000D01*
X124266328Y-90277000D01*
X124333000Y-90277000D01*
X124333000Y-90297000D01*
X125257250Y-90297000D01*
X125416000Y-90138250D01*
X125416000Y-89947691D01*
X125351981Y-89793137D01*
X125354808Y-89789000D01*
X126444945Y-89789000D01*
X126373000Y-89962691D01*
X126373000Y-90138250D01*
X126531750Y-90297000D01*
X127381000Y-90297000D01*
X127381000Y-90277000D01*
X127635000Y-90277000D01*
X127635000Y-90297000D01*
X128484250Y-90297000D01*
X128643000Y-90138250D01*
X128643000Y-89962691D01*
X128571055Y-89789000D01*
X133096000Y-89789000D01*
X133145410Y-89778994D01*
X133187035Y-89750553D01*
X133214315Y-89708159D01*
X133223000Y-89662000D01*
X133223000Y-89236276D01*
X134745882Y-89236276D01*
X136008000Y-90498395D01*
X137270118Y-89236276D01*
X137122545Y-88927894D01*
X136367969Y-88634595D01*
X135558591Y-88652386D01*
X134893455Y-88927894D01*
X134745882Y-89236276D01*
X133223000Y-89236276D01*
X133223000Y-82721724D01*
X134881882Y-82721724D01*
X135029455Y-83030106D01*
X135784031Y-83323405D01*
X136593409Y-83305614D01*
X137258545Y-83030106D01*
X137406118Y-82721724D01*
X136144000Y-81459605D01*
X134881882Y-82721724D01*
X133223000Y-82721724D01*
X133223000Y-80920031D01*
X134100595Y-80920031D01*
X134118386Y-81729409D01*
X134393894Y-82394545D01*
X134702276Y-82542118D01*
X135964395Y-81280000D01*
X136323605Y-81280000D01*
X137585724Y-82542118D01*
X137894106Y-82394545D01*
X138187405Y-81639969D01*
X138169614Y-80830591D01*
X137894106Y-80165455D01*
X137585724Y-80017882D01*
X136323605Y-81280000D01*
X135964395Y-81280000D01*
X134702276Y-80017882D01*
X134393894Y-80165455D01*
X134100595Y-80920031D01*
X133223000Y-80920031D01*
X133223000Y-79375000D01*
X135403403Y-79375000D01*
X135029455Y-79529894D01*
X135029455Y-79529894D01*
G37*
X135029455Y-79529894D02*
X134881882Y-79838276D01*
X136144000Y-81100395D01*
X137406118Y-79838276D01*
X137258545Y-79529894D01*
X136860046Y-79375000D01*
X138557000Y-79375000D01*
X138557000Y-88519000D01*
X138176000Y-88519000D01*
X138126590Y-88529006D01*
X138084965Y-88557447D01*
X138057685Y-88599841D01*
X138049000Y-88646000D01*
X138049000Y-90928557D01*
X138033614Y-90228591D01*
X137758106Y-89563455D01*
X137449724Y-89415882D01*
X136187605Y-90678000D01*
X137449724Y-91940118D01*
X137758106Y-91792545D01*
X138049000Y-91044156D01*
X138049000Y-93524000D01*
X125385476Y-93524000D01*
X125416000Y-93450309D01*
X125416000Y-93259750D01*
X125257250Y-93101000D01*
X124333000Y-93101000D01*
X124333000Y-93121000D01*
X124079000Y-93121000D01*
X124079000Y-93101000D01*
X124059000Y-93101000D01*
X124059000Y-92847000D01*
X124079000Y-92847000D01*
X124079000Y-91831000D01*
X124333000Y-91831000D01*
X124333000Y-92847000D01*
X125257250Y-92847000D01*
X125416000Y-92688250D01*
X125416000Y-92497691D01*
X125350268Y-92339000D01*
X125416000Y-92180309D01*
X125416000Y-92119724D01*
X134745882Y-92119724D01*
X134893455Y-92428106D01*
X135648031Y-92721405D01*
X136457409Y-92703614D01*
X137122545Y-92428106D01*
X137270118Y-92119724D01*
X136008000Y-90857605D01*
X134745882Y-92119724D01*
X125416000Y-92119724D01*
X125416000Y-91989750D01*
X125257250Y-91831000D01*
X124333000Y-91831000D01*
X124079000Y-91831000D01*
X124059000Y-91831000D01*
X124059000Y-91577000D01*
X124079000Y-91577000D01*
X124079000Y-90551000D01*
X124333000Y-90551000D01*
X124333000Y-91577000D01*
X125257250Y-91577000D01*
X125416000Y-91418250D01*
X125416000Y-91227691D01*
X125348197Y-91064000D01*
X125416000Y-90900309D01*
X125416000Y-90709750D01*
X126373000Y-90709750D01*
X126373000Y-90885309D01*
X126469673Y-91118698D01*
X126648301Y-91297327D01*
X126881690Y-91394000D01*
X127222250Y-91394000D01*
X127381000Y-91235250D01*
X127381000Y-90551000D01*
X127635000Y-90551000D01*
X127635000Y-91235250D01*
X127793750Y-91394000D01*
X128134310Y-91394000D01*
X128367699Y-91297327D01*
X128546327Y-91118698D01*
X128643000Y-90885309D01*
X128643000Y-90709750D01*
X128484250Y-90551000D01*
X127635000Y-90551000D01*
X127381000Y-90551000D01*
X126531750Y-90551000D01*
X126373000Y-90709750D01*
X125416000Y-90709750D01*
X125257250Y-90551000D01*
X124333000Y-90551000D01*
X124079000Y-90551000D01*
X124059000Y-90551000D01*
X124059000Y-90318031D01*
X133964595Y-90318031D01*
X133982386Y-91127409D01*
X134257894Y-91792545D01*
X134566276Y-91940118D01*
X135828395Y-90678000D01*
X134566276Y-89415882D01*
X134257894Y-89563455D01*
X133964595Y-90318031D01*
X124059000Y-90318031D01*
X124059000Y-90297000D01*
X124079000Y-90297000D01*
X124079000Y-90277000D01*
X124145672Y-90277000D01*
X124206000Y-90289000D01*
X124266328Y-90277000D01*
X124333000Y-90277000D01*
X124333000Y-90297000D01*
X125257250Y-90297000D01*
X125416000Y-90138250D01*
X125416000Y-89947691D01*
X125351981Y-89793137D01*
X125354808Y-89789000D01*
X126444945Y-89789000D01*
X126373000Y-89962691D01*
X126373000Y-90138250D01*
X126531750Y-90297000D01*
X127381000Y-90297000D01*
X127381000Y-90277000D01*
X127635000Y-90277000D01*
X127635000Y-90297000D01*
X128484250Y-90297000D01*
X128643000Y-90138250D01*
X128643000Y-89962691D01*
X128571055Y-89789000D01*
X133096000Y-89789000D01*
X133145410Y-89778994D01*
X133187035Y-89750553D01*
X133214315Y-89708159D01*
X133223000Y-89662000D01*
X133223000Y-89236276D01*
X134745882Y-89236276D01*
X136008000Y-90498395D01*
X137270118Y-89236276D01*
X137122545Y-88927894D01*
X136367969Y-88634595D01*
X135558591Y-88652386D01*
X134893455Y-88927894D01*
X134745882Y-89236276D01*
X133223000Y-89236276D01*
X133223000Y-82721724D01*
X134881882Y-82721724D01*
X135029455Y-83030106D01*
X135784031Y-83323405D01*
X136593409Y-83305614D01*
X137258545Y-83030106D01*
X137406118Y-82721724D01*
X136144000Y-81459605D01*
X134881882Y-82721724D01*
X133223000Y-82721724D01*
X133223000Y-80920031D01*
X134100595Y-80920031D01*
X134118386Y-81729409D01*
X134393894Y-82394545D01*
X134702276Y-82542118D01*
X135964395Y-81280000D01*
X136323605Y-81280000D01*
X137585724Y-82542118D01*
X137894106Y-82394545D01*
X138187405Y-81639969D01*
X138169614Y-80830591D01*
X137894106Y-80165455D01*
X137585724Y-80017882D01*
X136323605Y-81280000D01*
X135964395Y-81280000D01*
X134702276Y-80017882D01*
X134393894Y-80165455D01*
X134100595Y-80920031D01*
X133223000Y-80920031D01*
X133223000Y-79375000D01*
X135403403Y-79375000D01*
X135029455Y-79529894D01*
G36*
X142546000Y-93524000D02*
X138557000Y-93524000D01*
X138557000Y-92661352D01*
X138681690Y-92713000D01*
X139922250Y-92713000D01*
X140081000Y-92554250D01*
X140081000Y-90805000D01*
X140335000Y-90805000D01*
X140335000Y-92554250D01*
X140493750Y-92713000D01*
X141734310Y-92713000D01*
X141967699Y-92616327D01*
X142146327Y-92437698D01*
X142243000Y-92204309D01*
X142243000Y-90963750D01*
X142084250Y-90805000D01*
X140335000Y-90805000D01*
X140081000Y-90805000D01*
X140061000Y-90805000D01*
X140061000Y-90551000D01*
X140081000Y-90551000D01*
X140081000Y-88801750D01*
X140335000Y-88801750D01*
X140335000Y-90551000D01*
X142084250Y-90551000D01*
X142243000Y-90392250D01*
X142243000Y-89151691D01*
X142146327Y-88918302D01*
X141967699Y-88739673D01*
X141734310Y-88643000D01*
X140493750Y-88643000D01*
X140335000Y-88801750D01*
X140081000Y-88801750D01*
X139922250Y-88643000D01*
X139065000Y-88643000D01*
X139065000Y-78994000D01*
X139054994Y-78944590D01*
X139026553Y-78902965D01*
X138984159Y-78875685D01*
X138938000Y-78867000D01*
X138055026Y-78867000D01*
X138082327Y-78839699D01*
X138179000Y-78606310D01*
X138179000Y-77365750D01*
X138020250Y-77207000D01*
X136271000Y-77207000D01*
X136271000Y-77227000D01*
X136017000Y-77227000D01*
X136017000Y-77207000D01*
X134267750Y-77207000D01*
X134109000Y-77365750D01*
X134109000Y-78606310D01*
X134205673Y-78839699D01*
X134232974Y-78867000D01*
X132842000Y-78867000D01*
X132792590Y-78877006D01*
X132750965Y-78905447D01*
X132723685Y-78947841D01*
X132715000Y-78994000D01*
X132715000Y-80899000D01*
X130537000Y-80899000D01*
X130537000Y-80577750D01*
X130378250Y-80419000D01*
X129679000Y-80419000D01*
X129679000Y-80439000D01*
X129425000Y-80439000D01*
X129425000Y-80419000D01*
X128409000Y-80419000D01*
X128409000Y-80439000D01*
X128155000Y-80439000D01*
X128155000Y-80419000D01*
X127129000Y-80419000D01*
X127129000Y-80439000D01*
X126875000Y-80439000D01*
X126875000Y-80419000D01*
X125859000Y-80419000D01*
X125859000Y-80439000D01*
X125605000Y-80439000D01*
X125605000Y-80419000D01*
X124905750Y-80419000D01*
X124747000Y-80577750D01*
X124747000Y-80899000D01*
X124333000Y-80899000D01*
X124333000Y-80854026D01*
X124482327Y-80704698D01*
X124579000Y-80471309D01*
X124579000Y-80295750D01*
X124420250Y-80137000D01*
X123571000Y-80137000D01*
X123571000Y-80157000D01*
X123317000Y-80157000D01*
X123317000Y-80137000D01*
X123297000Y-80137000D01*
X123297000Y-79883000D01*
X123317000Y-79883000D01*
X123317000Y-79198750D01*
X123571000Y-79198750D01*
X123571000Y-79883000D01*
X124420250Y-79883000D01*
X124579000Y-79724250D01*
X124579000Y-79590690D01*
X124747000Y-79590690D01*
X124747000Y-80006250D01*
X124905750Y-80165000D01*
X125605000Y-80165000D01*
X125605000Y-79240750D01*
X125859000Y-79240750D01*
X125859000Y-80165000D01*
X126875000Y-80165000D01*
X126875000Y-79240750D01*
X127129000Y-79240750D01*
X127129000Y-80165000D01*
X128155000Y-80165000D01*
X128155000Y-79240750D01*
X128409000Y-79240750D01*
X128409000Y-80165000D01*
X129425000Y-80165000D01*
X129425000Y-79240750D01*
X129679000Y-79240750D01*
X129679000Y-80165000D01*
X130378250Y-80165000D01*
X130537000Y-80006250D01*
X130537000Y-79590690D01*
X130440327Y-79357301D01*
X130261698Y-79178673D01*
X130028309Y-79082000D01*
X129837750Y-79082000D01*
X129679000Y-79240750D01*
X129425000Y-79240750D01*
X129266250Y-79082000D01*
X129075691Y-79082000D01*
X128917000Y-79147732D01*
X128758309Y-79082000D01*
X128567750Y-79082000D01*
X128409000Y-79240750D01*
X128155000Y-79240750D01*
X127996250Y-79082000D01*
X127805691Y-79082000D01*
X127642000Y-79149803D01*
X127478309Y-79082000D01*
X127287750Y-79082000D01*
X127129000Y-79240750D01*
X126875000Y-79240750D01*
X126716250Y-79082000D01*
X126525691Y-79082000D01*
X126367000Y-79147732D01*
X126208309Y-79082000D01*
X126017750Y-79082000D01*
X125859000Y-79240750D01*
X125605000Y-79240750D01*
X125446250Y-79082000D01*
X125255691Y-79082000D01*
X125022302Y-79178673D01*
X124843673Y-79357301D01*
X124747000Y-79590690D01*
X124579000Y-79590690D01*
X124579000Y-79548691D01*
X124482327Y-79315302D01*
X124303699Y-79136673D01*
X124070310Y-79040000D01*
X123729750Y-79040000D01*
X123571000Y-79198750D01*
X123317000Y-79198750D01*
X123158250Y-79040000D01*
X122817690Y-79040000D01*
X122809000Y-79043600D01*
X122809000Y-78740000D01*
X122798994Y-78690590D01*
X122770553Y-78648965D01*
X122728159Y-78621685D01*
X122682000Y-78613000D01*
X120142229Y-78613000D01*
X120145000Y-78606310D01*
X120145000Y-77365750D01*
X119986250Y-77207000D01*
X118237000Y-77207000D01*
X118237000Y-77227000D01*
X117983000Y-77227000D01*
X117983000Y-77207000D01*
X116233750Y-77207000D01*
X116075000Y-77365750D01*
X116075000Y-78606310D01*
X116077771Y-78613000D01*
X115264000Y-78613000D01*
X115264000Y-75553690D01*
X116075000Y-75553690D01*
X116075000Y-76794250D01*
X116233750Y-76953000D01*
X117983000Y-76953000D01*
X117983000Y-75203750D01*
X118237000Y-75203750D01*
X118237000Y-76953000D01*
X119986250Y-76953000D01*
X120145000Y-76794250D01*
X120145000Y-75553690D01*
X134109000Y-75553690D01*
X134109000Y-76794250D01*
X134267750Y-76953000D01*
X136017000Y-76953000D01*
X136017000Y-75203750D01*
X136271000Y-75203750D01*
X136271000Y-76953000D01*
X138020250Y-76953000D01*
X138179000Y-76794250D01*
X138179000Y-75553690D01*
X138082327Y-75320301D01*
X137903698Y-75141673D01*
X137670309Y-75045000D01*
X136429750Y-75045000D01*
X136271000Y-75203750D01*
X136017000Y-75203750D01*
X135858250Y-75045000D01*
X134617691Y-75045000D01*
X134384302Y-75141673D01*
X134205673Y-75320301D01*
X134109000Y-75553690D01*
X120145000Y-75553690D01*
X120048327Y-75320301D01*
X119869698Y-75141673D01*
X119636309Y-75045000D01*
X118395750Y-75045000D01*
X118237000Y-75203750D01*
X117983000Y-75203750D01*
X117824250Y-75045000D01*
X116583691Y-75045000D01*
X116350302Y-75141673D01*
X116171673Y-75320301D01*
X116075000Y-75553690D01*
X115264000Y-75553690D01*
X115264000Y-74878000D01*
X142546000Y-74878000D01*
X142546000Y-93524000D01*
X142546000Y-93524000D01*
G37*
X142546000Y-93524000D02*
X138557000Y-93524000D01*
X138557000Y-92661352D01*
X138681690Y-92713000D01*
X139922250Y-92713000D01*
X140081000Y-92554250D01*
X140081000Y-90805000D01*
X140335000Y-90805000D01*
X140335000Y-92554250D01*
X140493750Y-92713000D01*
X141734310Y-92713000D01*
X141967699Y-92616327D01*
X142146327Y-92437698D01*
X142243000Y-92204309D01*
X142243000Y-90963750D01*
X142084250Y-90805000D01*
X140335000Y-90805000D01*
X140081000Y-90805000D01*
X140061000Y-90805000D01*
X140061000Y-90551000D01*
X140081000Y-90551000D01*
X140081000Y-88801750D01*
X140335000Y-88801750D01*
X140335000Y-90551000D01*
X142084250Y-90551000D01*
X142243000Y-90392250D01*
X142243000Y-89151691D01*
X142146327Y-88918302D01*
X141967699Y-88739673D01*
X141734310Y-88643000D01*
X140493750Y-88643000D01*
X140335000Y-88801750D01*
X140081000Y-88801750D01*
X139922250Y-88643000D01*
X139065000Y-88643000D01*
X139065000Y-78994000D01*
X139054994Y-78944590D01*
X139026553Y-78902965D01*
X138984159Y-78875685D01*
X138938000Y-78867000D01*
X138055026Y-78867000D01*
X138082327Y-78839699D01*
X138179000Y-78606310D01*
X138179000Y-77365750D01*
X138020250Y-77207000D01*
X136271000Y-77207000D01*
X136271000Y-77227000D01*
X136017000Y-77227000D01*
X136017000Y-77207000D01*
X134267750Y-77207000D01*
X134109000Y-77365750D01*
X134109000Y-78606310D01*
X134205673Y-78839699D01*
X134232974Y-78867000D01*
X132842000Y-78867000D01*
X132792590Y-78877006D01*
X132750965Y-78905447D01*
X132723685Y-78947841D01*
X132715000Y-78994000D01*
X132715000Y-80899000D01*
X130537000Y-80899000D01*
X130537000Y-80577750D01*
X130378250Y-80419000D01*
X129679000Y-80419000D01*
X129679000Y-80439000D01*
X129425000Y-80439000D01*
X129425000Y-80419000D01*
X128409000Y-80419000D01*
X128409000Y-80439000D01*
X128155000Y-80439000D01*
X128155000Y-80419000D01*
X127129000Y-80419000D01*
X127129000Y-80439000D01*
X126875000Y-80439000D01*
X126875000Y-80419000D01*
X125859000Y-80419000D01*
X125859000Y-80439000D01*
X125605000Y-80439000D01*
X125605000Y-80419000D01*
X124905750Y-80419000D01*
X124747000Y-80577750D01*
X124747000Y-80899000D01*
X124333000Y-80899000D01*
X124333000Y-80854026D01*
X124482327Y-80704698D01*
X124579000Y-80471309D01*
X124579000Y-80295750D01*
X124420250Y-80137000D01*
X123571000Y-80137000D01*
X123571000Y-80157000D01*
X123317000Y-80157000D01*
X123317000Y-80137000D01*
X123297000Y-80137000D01*
X123297000Y-79883000D01*
X123317000Y-79883000D01*
X123317000Y-79198750D01*
X123571000Y-79198750D01*
X123571000Y-79883000D01*
X124420250Y-79883000D01*
X124579000Y-79724250D01*
X124579000Y-79590690D01*
X124747000Y-79590690D01*
X124747000Y-80006250D01*
X124905750Y-80165000D01*
X125605000Y-80165000D01*
X125605000Y-79240750D01*
X125859000Y-79240750D01*
X125859000Y-80165000D01*
X126875000Y-80165000D01*
X126875000Y-79240750D01*
X127129000Y-79240750D01*
X127129000Y-80165000D01*
X128155000Y-80165000D01*
X128155000Y-79240750D01*
X128409000Y-79240750D01*
X128409000Y-80165000D01*
X129425000Y-80165000D01*
X129425000Y-79240750D01*
X129679000Y-79240750D01*
X129679000Y-80165000D01*
X130378250Y-80165000D01*
X130537000Y-80006250D01*
X130537000Y-79590690D01*
X130440327Y-79357301D01*
X130261698Y-79178673D01*
X130028309Y-79082000D01*
X129837750Y-79082000D01*
X129679000Y-79240750D01*
X129425000Y-79240750D01*
X129266250Y-79082000D01*
X129075691Y-79082000D01*
X128917000Y-79147732D01*
X128758309Y-79082000D01*
X128567750Y-79082000D01*
X128409000Y-79240750D01*
X128155000Y-79240750D01*
X127996250Y-79082000D01*
X127805691Y-79082000D01*
X127642000Y-79149803D01*
X127478309Y-79082000D01*
X127287750Y-79082000D01*
X127129000Y-79240750D01*
X126875000Y-79240750D01*
X126716250Y-79082000D01*
X126525691Y-79082000D01*
X126367000Y-79147732D01*
X126208309Y-79082000D01*
X126017750Y-79082000D01*
X125859000Y-79240750D01*
X125605000Y-79240750D01*
X125446250Y-79082000D01*
X125255691Y-79082000D01*
X125022302Y-79178673D01*
X124843673Y-79357301D01*
X124747000Y-79590690D01*
X124579000Y-79590690D01*
X124579000Y-79548691D01*
X124482327Y-79315302D01*
X124303699Y-79136673D01*
X124070310Y-79040000D01*
X123729750Y-79040000D01*
X123571000Y-79198750D01*
X123317000Y-79198750D01*
X123158250Y-79040000D01*
X122817690Y-79040000D01*
X122809000Y-79043600D01*
X122809000Y-78740000D01*
X122798994Y-78690590D01*
X122770553Y-78648965D01*
X122728159Y-78621685D01*
X122682000Y-78613000D01*
X120142229Y-78613000D01*
X120145000Y-78606310D01*
X120145000Y-77365750D01*
X119986250Y-77207000D01*
X118237000Y-77207000D01*
X118237000Y-77227000D01*
X117983000Y-77227000D01*
X117983000Y-77207000D01*
X116233750Y-77207000D01*
X116075000Y-77365750D01*
X116075000Y-78606310D01*
X116077771Y-78613000D01*
X115264000Y-78613000D01*
X115264000Y-75553690D01*
X116075000Y-75553690D01*
X116075000Y-76794250D01*
X116233750Y-76953000D01*
X117983000Y-76953000D01*
X117983000Y-75203750D01*
X118237000Y-75203750D01*
X118237000Y-76953000D01*
X119986250Y-76953000D01*
X120145000Y-76794250D01*
X120145000Y-75553690D01*
X134109000Y-75553690D01*
X134109000Y-76794250D01*
X134267750Y-76953000D01*
X136017000Y-76953000D01*
X136017000Y-75203750D01*
X136271000Y-75203750D01*
X136271000Y-76953000D01*
X138020250Y-76953000D01*
X138179000Y-76794250D01*
X138179000Y-75553690D01*
X138082327Y-75320301D01*
X137903698Y-75141673D01*
X137670309Y-75045000D01*
X136429750Y-75045000D01*
X136271000Y-75203750D01*
X136017000Y-75203750D01*
X135858250Y-75045000D01*
X134617691Y-75045000D01*
X134384302Y-75141673D01*
X134205673Y-75320301D01*
X134109000Y-75553690D01*
X120145000Y-75553690D01*
X120048327Y-75320301D01*
X119869698Y-75141673D01*
X119636309Y-75045000D01*
X118395750Y-75045000D01*
X118237000Y-75203750D01*
X117983000Y-75203750D01*
X117824250Y-75045000D01*
X116583691Y-75045000D01*
X116350302Y-75141673D01*
X116171673Y-75320301D01*
X116075000Y-75553690D01*
X115264000Y-75553690D01*
X115264000Y-74878000D01*
X142546000Y-74878000D01*
X142546000Y-93524000D01*
M02*
