  0
SECTION
  2
HEADER
  9
$ANGBASE
  50
0.0
  9
$ANGDIR
  70
  1
  9
$MEASUREMENT
  70
0
  0
ENDSEC
  0
SECTION
  2
TABLES
  0
TABLE
  2
LTYPE
  70
1
  0
LTYPE
  2
CONTINUOUS
  70
0
  3
Solid line
  72
65
  73
0
  40
0.0
  0
ENDTAB
  0
TABLE
  2
STYLE
  70
4
  0
STYLE
  2
KICAD
  70
0
  40
0
  41
1
  42
1
  50
0
  71
0
  3
isocp.shx
  0
STYLE
  2
KICADB
  70
0
  40
0
  41
1
  42
1
  50
0
  71
0
  3
isocp.shx
  0
STYLE
  2
KICADI
  70
0
  40
0
  41
1
  42
1
  50
15
  71
0
  3
isocp.shx
  0
STYLE
  2
KICADBI
  70
0
  40
0
  41
1
  42
1
  50
15
  71
0
  3
isocp.shx
  0
ENDTAB
  0
TABLE
  2
LAYER
  70
30
  0
LAYER
  2
BLACK
  70
0
  62
7
  6
CONTINUOUS
  0
LAYER
  2
GRAY1
  70
0
  62
251
  6
CONTINUOUS
  0
LAYER
  2
GRAY2
  70
0
  62
8
  6
CONTINUOUS
  0
LAYER
  2
GRAY3
  70
0
  62
9
  6
CONTINUOUS
  0
LAYER
  2
WHITE
  70
0
  62
7
  6
CONTINUOUS
  0
LAYER
  2
LYELLOW
  70
0
  62
51
  6
CONTINUOUS
  0
LAYER
  2
BLUE1
  70
0
  62
178
  6
CONTINUOUS
  0
LAYER
  2
GREEN1
  70
0
  62
98
  6
CONTINUOUS
  0
LAYER
  2
CYAN1
  70
0
  62
138
  6
CONTINUOUS
  0
LAYER
  2
RED1
  70
0
  62
18
  6
CONTINUOUS
  0
LAYER
  2
MAGENTA1
  70
0
  62
228
  6
CONTINUOUS
  0
LAYER
  2
BROWN1
  70
0
  62
58
  6
CONTINUOUS
  0
LAYER
  2
BLUE2
  70
0
  62
5
  6
CONTINUOUS
  0
LAYER
  2
GREEN2
  70
0
  62
3
  6
CONTINUOUS
  0
LAYER
  2
CYAN2
  70
0
  62
4
  6
CONTINUOUS
  0
LAYER
  2
RED2
  70
0
  62
1
  6
CONTINUOUS
  0
LAYER
  2
MAGENTA2
  70
0
  62
6
  6
CONTINUOUS
  0
LAYER
  2
BROWN2
  70
0
  62
54
  6
CONTINUOUS
  0
LAYER
  2
BLUE3
  70
0
  62
171
  6
CONTINUOUS
  0
LAYER
  2
GREEN3
  70
0
  62
91
  6
CONTINUOUS
  0
LAYER
  2
CYAN3
  70
0
  62
131
  6
CONTINUOUS
  0
LAYER
  2
RED3
  70
0
  62
11
  6
CONTINUOUS
  0
LAYER
  2
MAGENTA3
  70
0
  62
221
  6
CONTINUOUS
  0
LAYER
  2
YELLOW3
  70
0
  62
2
  6
CONTINUOUS
  0
LAYER
  2
BLUE4
  70
0
  62
5
  6
CONTINUOUS
  0
LAYER
  2
GREEN4
  70
0
  62
3
  6
CONTINUOUS
  0
LAYER
  2
CYAN4
  70
0
  62
4
  6
CONTINUOUS
  0
LAYER
  2
RED4
  70
0
  62
1
  6
CONTINUOUS
  0
LAYER
  2
MAGENTA4
  70
0
  62
6
  6
CONTINUOUS
  0
LAYER
  2
YELLOW4
  70
0
  62
2
  6
CONTINUOUS
  0
ENDTAB
  0
ENDSEC
  0
SECTION
  2
ENTITIES
0
LINE
8
Black
10
151.37
20
-57.7804
11
151.383
21
-57.7801
0
LINE
8
Black
10
151.383
20
-57.7801
11
162.326
21
-59.4145
0
LINE
8
Black
10
162.326
20
-59.4145
11
162.338
21
-59.4185
0
LINE
8
Black
10
162.338
20
-59.4185
11
162.35
21
-59.4205
0
LINE
8
Black
10
162.35
20
-59.4205
11
172.768
21
-63.1495
0
LINE
8
Black
10
172.768
20
-63.1495
11
172.779
21
-63.1556
0
LINE
8
Black
10
172.779
20
-63.1556
11
172.79
21
-63.16
0
LINE
8
Black
10
172.79
20
-63.16
11
182.298
21
-68.8489
0
LINE
8
Black
10
182.298
20
-68.8489
11
182.305
21
-68.855
0
LINE
8
Black
10
182.305
20
-68.855
11
182.313
21
-68.8595
0
LINE
8
Black
10
182.313
20
-68.8595
11
186.438
21
-72.224
0
LINE
8
Black
10
186.438
20
-72.224
11
186.444
21
-72.231
0
LINE
8
Black
10
186.444
20
-72.231
11
186.452
21
-72.2366
0
LINE
8
Black
10
186.452
20
-72.2366
11
186.781
21
-72.5958
0
LINE
8
Black
10
186.781
20
-72.5958
11
186.787
21
-72.6062
0
LINE
8
Black
10
186.787
20
-72.6062
11
186.795
21
-72.6156
0
LINE
8
Black
10
186.795
20
-72.6156
11
187.041
21
-73.0192
0
LINE
8
Black
10
187.041
20
-73.0192
11
187.045
21
-73.0308
0
LINE
8
Black
10
187.045
20
-73.0308
11
187.052
21
-73.0415
0
LINE
8
Black
10
187.052
20
-73.0415
11
187.214
21
-73.4851
0
LINE
8
Black
10
187.214
20
-73.4851
11
187.216
21
-73.4974
0
LINE
8
Black
10
187.216
20
-73.4974
11
187.22
21
-73.5091
0
LINE
8
Black
10
187.22
20
-73.5091
11
187.293
21
-73.9758
0
LINE
8
Black
10
187.293
20
-73.9758
11
187.293
21
-73.9882
0
LINE
8
Black
10
187.293
20
-73.9882
11
187.294
21
-74.0005
0
LINE
8
Black
10
187.294
20
-74.0005
11
187.275
21
-74.4725
0
LINE
8
Black
10
187.275
20
-74.4725
11
187.273
21
-74.4846
0
LINE
8
Black
10
187.273
20
-74.4846
11
187.272
21
-74.4971
0
LINE
8
Black
10
187.272
20
-74.4971
11
187.162
21
-74.9563
0
LINE
8
Black
10
187.162
20
-74.9563
11
187.157
21
-74.9677
0
LINE
8
Black
10
187.157
20
-74.9677
11
187.154
21
-74.9798
0
LINE
8
Black
10
187.154
20
-74.9798
11
186.956
21
-75.4089
0
LINE
8
Black
10
186.956
20
-75.4089
11
186.949
21
-75.4191
0
LINE
8
Black
10
186.949
20
-75.4191
11
186.944
21
-75.4303
0
LINE
8
Black
10
186.944
20
-75.4303
11
186.654
21
-75.8298
0
LINE
8
Black
10
186.654
20
-75.8298
11
186.649
21
-75.8353
0
LINE
8
Black
10
186.649
20
-75.8353
11
186.645
21
-75.8419
0
LINE
8
Black
10
186.645
20
-75.8419
11
186.567
21
-75.9248
0
LINE
8
Black
10
186.567
20
-75.9248
11
186.565
21
-75.9271
0
LINE
8
Black
10
186.565
20
-75.9271
11
186.558
21
-75.9342
0
LINE
8
Black
10
186.558
20
-75.9342
11
186.554
21
-75.939
0
LINE
8
Black
10
186.554
20
-75.939
11
186.554
21
-75.9392
0
LINE
8
Black
10
186.554
20
-75.9392
11
186.554
21
-75.9395
0
LINE
8
Black
10
186.554
20
-75.9395
11
186.552
21
-75.9425
0
LINE
8
Black
10
186.552
20
-75.9425
11
186.55
21
-75.9443
0
LINE
8
Black
10
186.55
20
-75.9443
11
186.549
21
-75.945
0
LINE
8
Black
10
186.549
20
-75.945
11
185.757
21
-76.8765
0
LINE
8
Black
10
185.757
20
-76.8765
11
185.735
21
-76.9081
0
LINE
8
Black
10
185.735
20
-76.9081
11
185.733
21
-76.91
0
LINE
8
Black
10
185.733
20
-76.91
11
185.732
21
-76.9123
0
LINE
8
Black
10
185.732
20
-76.9123
11
185.709
21
-76.9427
0
LINE
8
Black
10
185.709
20
-76.9427
11
185.709
21
-76.9435
0
LINE
8
Black
10
185.709
20
-76.9435
11
184.856
21
-78.3814
0
LINE
8
Black
10
184.856
20
-78.3814
11
184.836
21
-78.4231
0
LINE
8
Black
10
184.836
20
-78.4231
11
184.836
21
-78.4238
0
LINE
8
Black
10
184.836
20
-78.4238
11
184.836
21
-78.4247
0
LINE
8
Black
10
184.836
20
-78.4247
11
184.816
21
-78.4658
0
LINE
8
Black
10
184.816
20
-78.4658
11
184.815
21
-78.4668
0
LINE
8
Black
10
184.815
20
-78.4668
11
184.258
21
-80.0428
0
LINE
8
Black
10
184.258
20
-80.0428
11
184.247
21
-80.0876
0
LINE
8
Black
10
184.247
20
-80.0876
11
184.247
21
-80.0884
0
LINE
8
Black
10
184.247
20
-80.0884
11
184.247
21
-80.0893
0
LINE
8
Black
10
184.247
20
-80.0893
11
184.235
21
-80.1334
0
LINE
8
Black
10
184.235
20
-80.1334
11
184.235
21
-80.1344
0
LINE
8
Black
10
184.235
20
-80.1344
11
183.994
21
-81.7888
0
LINE
8
Black
10
183.994
20
-81.7888
11
183.992
21
-81.8348
0
LINE
8
Black
10
183.992
20
-81.8348
11
183.992
21
-81.8357
0
LINE
8
Black
10
183.992
20
-81.8357
11
183.992
21
-81.8365
0
LINE
8
Black
10
183.992
20
-81.8365
11
183.989
21
-81.8821
0
LINE
8
Black
10
183.989
20
-81.8821
11
183.989
21
-81.8831
0
LINE
8
Black
10
183.989
20
-81.8831
11
184.075
21
-83.5527
0
LINE
8
Black
10
184.075
20
-83.5527
11
184.081
21
-83.5983
0
LINE
8
Black
10
184.081
20
-83.5983
11
184.081
21
-83.5991
0
LINE
8
Black
10
184.081
20
-83.5991
11
184.082
21
-83.6
0
LINE
8
Black
10
184.082
20
-83.6
11
184.088
21
-83.6452
0
LINE
8
Black
10
184.088
20
-83.6452
11
184.088
21
-83.6461
0
LINE
8
Black
10
184.088
20
-83.6461
11
184.496
21
-85.2674
0
LINE
8
Black
10
184.496
20
-85.2674
11
184.512
21
-85.3107
0
LINE
8
Black
10
184.512
20
-85.3107
11
184.512
21
-85.3116
0
LINE
8
Black
10
184.512
20
-85.3116
11
184.512
21
-85.3124
0
LINE
8
Black
10
184.512
20
-85.3124
11
184.527
21
-85.3556
0
LINE
8
Black
10
184.527
20
-85.3556
11
184.528
21
-85.3565
0
LINE
8
Black
10
184.528
20
-85.3565
11
185.243
21
-86.8675
0
LINE
8
Black
10
185.243
20
-86.8675
11
185.266
21
-86.9071
0
LINE
8
Black
10
185.266
20
-86.9071
11
185.267
21
-86.9079
0
LINE
8
Black
10
185.267
20
-86.9079
11
185.267
21
-86.9086
0
LINE
8
Black
10
185.267
20
-86.9086
11
185.29
21
-86.9481
0
LINE
8
Black
10
185.29
20
-86.9481
11
185.291
21
-86.9489
0
LINE
8
Black
10
185.291
20
-86.9489
11
186.286
21
-88.2923
0
LINE
8
Black
10
186.286
20
-88.2923
11
186.317
21
-88.3264
0
LINE
8
Black
10
186.317
20
-88.3264
11
186.317
21
-88.3272
0
LINE
8
Black
10
186.317
20
-88.3272
11
186.318
21
-88.3277
0
LINE
8
Black
10
186.318
20
-88.3277
11
186.348
21
-88.362
0
LINE
8
Black
10
186.348
20
-88.362
11
186.349
21
-88.3628
0
LINE
8
Black
10
186.349
20
-88.3628
11
187.586
21
-89.4872
0
LINE
8
Black
10
187.586
20
-89.4872
11
187.623
21
-89.5147
0
LINE
8
Black
10
187.623
20
-89.5147
11
187.623
21
-89.5154
0
LINE
8
Black
10
187.623
20
-89.5154
11
187.624
21
-89.5158
0
LINE
8
Black
10
187.624
20
-89.5158
11
187.66
21
-89.5436
0
LINE
8
Black
10
187.66
20
-89.5436
11
187.661
21
-89.544
0
LINE
8
Black
10
187.661
20
-89.544
11
189.093
21
-90.4069
0
LINE
8
Black
10
189.093
20
-90.4069
11
189.135
21
-90.4268
0
LINE
8
Black
10
189.135
20
-90.4268
11
189.135
21
-90.4273
0
LINE
8
Black
10
189.135
20
-90.4273
11
189.136
21
-90.4275
0
LINE
8
Black
10
189.136
20
-90.4275
11
189.177
21
-90.4477
0
LINE
8
Black
10
189.177
20
-90.4477
11
189.178
21
-90.4481
0
LINE
8
Black
10
189.178
20
-90.4481
11
190.756
21
-91.0185
0
LINE
8
Black
10
190.756
20
-91.0185
11
190.756
21
-91.0185
0
LINE
8
Black
10
190.756
20
-91.0185
11
190.756
21
-91.0185
0
LINE
8
Black
10
190.756
20
-91.0185
11
191.254
21
-91.1983
0
LINE
8
Black
10
191.254
20
-91.1983
11
191.264
21
-91.2045
0
LINE
8
Black
10
191.264
20
-91.2045
11
191.276
21
-91.2089
0
LINE
8
Black
10
191.276
20
-91.2089
11
191.68
21
-91.4527
0
LINE
8
Black
10
191.68
20
-91.4527
11
191.69
21
-91.4609
0
LINE
8
Black
10
191.69
20
-91.4609
11
191.7
21
-91.4675
0
LINE
8
Black
10
191.7
20
-91.4675
11
192.05
21
-91.7853
0
LINE
8
Black
10
192.05
20
-91.7853
11
192.057
21
-91.7951
0
LINE
8
Black
10
192.057
20
-91.7951
11
192.066
21
-91.8036
0
LINE
8
Black
10
192.066
20
-91.8036
11
192.348
21
-92.1832
0
LINE
8
Black
10
192.348
20
-92.1832
11
192.353
21
-92.1943
0
LINE
8
Black
10
192.353
20
-92.1943
11
192.36
21
-92.2045
0
LINE
8
Black
10
192.36
20
-92.2045
11
192.562
21
-92.6314
0
LINE
8
Black
10
192.562
20
-92.6314
11
192.566
21
-92.6434
0
LINE
8
Black
10
192.566
20
-92.6434
11
192.571
21
-92.6547
0
LINE
8
Black
10
192.571
20
-92.6547
11
192.688
21
-93.1194
0
LINE
8
Black
10
192.688
20
-93.1194
11
192.689
21
-93.1303
0
LINE
8
Black
10
192.689
20
-93.1303
11
192.691
21
-93.1409
0
LINE
8
Black
10
192.691
20
-93.1409
11
192.719
21
-93.5147
0
LINE
8
Black
10
192.719
20
-93.5147
11
192.719
21
-93.5194
0
LINE
8
Black
10
192.719
20
-93.5194
11
192.719
21
-93.5241
0
LINE
8
Black
10
192.719
20
-93.5241
11
192.719
21
-116.572
0
LINE
8
Black
10
192.719
20
-116.572
11
192.718
21
-116.579
0
LINE
8
Black
10
192.718
20
-116.579
11
192.719
21
-116.585
0
LINE
8
Black
10
192.719
20
-116.585
11
192.67
21
-117.083
0
LINE
8
Black
10
192.67
20
-117.083
11
192.667
21
-117.095
0
LINE
8
Black
10
192.667
20
-117.095
11
192.665
21
-117.107
0
LINE
8
Black
10
192.665
20
-117.107
11
192.529
21
-117.56
0
LINE
8
Black
10
192.529
20
-117.56
11
192.523
21
-117.571
0
LINE
8
Black
10
192.523
20
-117.571
11
192.519
21
-117.582
0
LINE
8
Black
10
192.519
20
-117.582
11
192.297
21
-118
0
LINE
8
Black
10
192.297
20
-118
11
192.29
21
-118.009
0
LINE
8
Black
10
192.29
20
-118.009
11
192.284
21
-118.02
0
LINE
8
Black
10
192.284
20
-118.02
11
191.985
21
-118.386
0
LINE
8
Black
10
191.985
20
-118.386
11
191.976
21
-118.394
0
LINE
8
Black
10
191.976
20
-118.394
11
191.968
21
-118.404
0
LINE
8
Black
10
191.968
20
-118.404
11
191.604
21
-118.705
0
LINE
8
Black
10
191.604
20
-118.705
11
191.593
21
-118.711
0
LINE
8
Black
10
191.593
20
-118.711
11
191.583
21
-118.719
0
LINE
8
Black
10
191.583
20
-118.719
11
191.162
21
-118.946
0
LINE
8
Black
10
191.162
20
-118.946
11
191.152
21
-118.95
0
LINE
8
Black
10
191.152
20
-118.95
11
191.142
21
-118.955
0
LINE
8
Black
10
191.142
20
-118.955
11
190.752
21
-119.085
0
LINE
8
Black
10
190.752
20
-119.085
11
190.752
21
-119.085
0
LINE
8
Black
10
190.752
20
-119.085
11
190.752
21
-119.085
0
LINE
8
Black
10
190.752
20
-119.085
11
189.52
21
-119.493
0
LINE
8
Black
10
189.52
20
-119.493
11
189.483
21
-119.509
0
LINE
8
Black
10
189.483
20
-119.509
11
189.481
21
-119.51
0
LINE
8
Black
10
189.481
20
-119.51
11
189.479
21
-119.511
0
LINE
8
Black
10
189.479
20
-119.511
11
189.443
21
-119.526
0
LINE
8
Black
10
189.443
20
-119.526
11
189.442
21
-119.526
0
LINE
8
Black
10
189.442
20
-119.526
11
187.97
21
-120.319
0
LINE
8
Black
10
187.97
20
-120.319
11
187.931
21
-120.344
0
LINE
8
Black
10
187.931
20
-120.344
11
187.931
21
-120.345
0
LINE
8
Black
10
187.931
20
-120.345
11
187.93
21
-120.345
0
LINE
8
Black
10
187.93
20
-120.345
11
187.892
21
-120.37
0
LINE
8
Black
10
187.892
20
-120.37
11
187.891
21
-120.371
0
LINE
8
Black
10
187.891
20
-120.371
11
186.601
21
-121.434
0
LINE
8
Black
10
186.601
20
-121.434
11
186.568
21
-121.467
0
LINE
8
Black
10
186.568
20
-121.467
11
186.567
21
-121.467
0
LINE
8
Black
10
186.567
20
-121.467
11
186.567
21
-121.468
0
LINE
8
Black
10
186.567
20
-121.468
11
186.534
21
-121.5
0
LINE
8
Black
10
186.534
20
-121.5
11
186.534
21
-121.501
0
LINE
8
Black
10
186.534
20
-121.501
11
185.475
21
-122.794
0
LINE
8
Black
10
185.475
20
-122.794
11
185.449
21
-122.832
0
LINE
8
Black
10
185.449
20
-122.832
11
185.448
21
-122.833
0
LINE
8
Black
10
185.448
20
-122.833
11
185.448
21
-122.834
0
LINE
8
Black
10
185.448
20
-122.834
11
185.422
21
-122.871
0
LINE
8
Black
10
185.422
20
-122.871
11
185.422
21
-122.872
0
LINE
8
Black
10
185.422
20
-122.872
11
184.634
21
-124.347
0
LINE
8
Black
10
184.634
20
-124.347
11
184.616
21
-124.389
0
LINE
8
Black
10
184.616
20
-124.389
11
184.616
21
-124.39
0
LINE
8
Black
10
184.616
20
-124.39
11
184.616
21
-124.391
0
LINE
8
Black
10
184.616
20
-124.391
11
184.598
21
-124.433
0
LINE
8
Black
10
184.598
20
-124.433
11
184.597
21
-124.434
0
LINE
8
Black
10
184.597
20
-124.434
11
184.111
21
-126.033
0
LINE
8
Black
10
184.111
20
-126.033
11
184.102
21
-126.079
0
LINE
8
Black
10
184.102
20
-126.079
11
184.102
21
-126.079
0
LINE
8
Black
10
184.102
20
-126.079
11
184.102
21
-126.08
0
LINE
8
Black
10
184.102
20
-126.08
11
184.092
21
-126.125
0
LINE
8
Black
10
184.092
20
-126.125
11
184.092
21
-126.126
0
LINE
8
Black
10
184.092
20
-126.126
11
183.926
21
-127.789
0
LINE
8
Black
10
183.926
20
-127.789
11
183.926
21
-127.835
0
LINE
8
Black
10
183.926
20
-127.835
11
183.925
21
-127.836
0
LINE
8
Black
10
183.925
20
-127.836
11
183.926
21
-127.837
0
LINE
8
Black
10
183.926
20
-127.837
11
183.925
21
-127.883
0
LINE
8
Black
10
183.925
20
-127.883
11
183.925
21
-127.884
0
LINE
8
Black
10
183.925
20
-127.884
11
184.085
21
-129.548
0
LINE
8
Black
10
184.085
20
-129.548
11
184.094
21
-129.593
0
LINE
8
Black
10
184.094
20
-129.593
11
184.094
21
-129.594
0
LINE
8
Black
10
184.094
20
-129.594
11
184.094
21
-129.595
0
LINE
8
Black
10
184.094
20
-129.595
11
184.102
21
-129.64
0
LINE
8
Black
10
184.102
20
-129.64
11
184.103
21
-129.641
0
LINE
8
Black
10
184.103
20
-129.641
11
184.583
21
-131.242
0
LINE
8
Black
10
184.583
20
-131.242
11
184.6
21
-131.285
0
LINE
8
Black
10
184.6
20
-131.285
11
184.6
21
-131.286
0
LINE
8
Black
10
184.6
20
-131.286
11
184.601
21
-131.286
0
LINE
8
Black
10
184.601
20
-131.286
11
184.618
21
-131.329
0
LINE
8
Black
10
184.618
20
-131.329
11
184.618
21
-131.33
0
LINE
8
Black
10
184.618
20
-131.33
11
185.4
21
-132.807
0
LINE
8
Black
10
185.4
20
-132.807
11
185.425
21
-132.846
0
LINE
8
Black
10
185.425
20
-132.846
11
185.426
21
-132.846
0
LINE
8
Black
10
185.426
20
-132.846
11
185.426
21
-132.847
0
LINE
8
Black
10
185.426
20
-132.847
11
185.451
21
-132.886
0
LINE
8
Black
10
185.451
20
-132.886
11
185.452
21
-132.886
0
LINE
8
Black
10
185.452
20
-132.886
11
186.51
21
-134.189
0
LINE
8
Black
10
186.51
20
-134.189
11
186.51
21
-134.189
0
LINE
8
Black
10
186.51
20
-134.189
11
186.51
21
-134.189
0
LINE
8
Black
10
186.51
20
-134.189
11
186.51
21
-134.189
0
LINE
8
Black
10
186.51
20
-134.189
11
186.51
21
-134.189
0
LINE
8
Black
10
186.51
20
-134.189
11
186.843
21
-134.599
0
LINE
8
Black
10
186.843
20
-134.599
11
186.849
21
-134.61
0
LINE
8
Black
10
186.849
20
-134.61
11
186.857
21
-134.62
0
LINE
8
Black
10
186.857
20
-134.62
11
187.078
21
-135.037
0
LINE
8
Black
10
187.078
20
-135.037
11
187.082
21
-135.049
0
LINE
8
Black
10
187.082
20
-135.049
11
187.087
21
-135.06
0
LINE
8
Black
10
187.087
20
-135.06
11
187.223
21
-135.513
0
LINE
8
Black
10
187.223
20
-135.513
11
187.224
21
-135.525
0
LINE
8
Black
10
187.224
20
-135.525
11
187.228
21
-135.537
0
LINE
8
Black
10
187.228
20
-135.537
11
187.273
21
-136.007
0
LINE
8
Black
10
187.273
20
-136.007
11
187.272
21
-136.02
0
LINE
8
Black
10
187.272
20
-136.02
11
187.273
21
-136.032
0
LINE
8
Black
10
187.273
20
-136.032
11
187.226
21
-136.502
0
LINE
8
Black
10
187.226
20
-136.502
11
187.222
21
-136.514
0
LINE
8
Black
10
187.222
20
-136.514
11
187.221
21
-136.526
0
LINE
8
Black
10
187.221
20
-136.526
11
187.084
21
-136.978
0
LINE
8
Black
10
187.084
20
-136.978
11
187.078
21
-136.989
0
LINE
8
Black
10
187.078
20
-136.989
11
187.074
21
-137.001
0
LINE
8
Black
10
187.074
20
-137.001
11
186.852
21
-137.418
0
LINE
8
Black
10
186.852
20
-137.418
11
186.844
21
-137.428
0
LINE
8
Black
10
186.844
20
-137.428
11
186.838
21
-137.438
0
LINE
8
Black
10
186.838
20
-137.438
11
186.526
21
-137.819
0
LINE
8
Black
10
186.526
20
-137.819
11
186.52
21
-137.824
0
LINE
8
Black
10
186.52
20
-137.824
11
186.515
21
-137.831
0
LINE
8
Black
10
186.515
20
-137.831
11
186.439
21
-137.903
0
LINE
8
Black
10
186.439
20
-137.903
11
186.432
21
-137.907
0
LINE
8
Black
10
186.432
20
-137.907
11
186.426
21
-137.913
0
LINE
8
Black
10
186.426
20
-137.913
11
177.468
21
-144.441
0
LINE
8
Black
10
177.468
20
-144.441
11
177.457
21
-144.447
0
LINE
8
Black
10
177.457
20
-144.447
11
177.447
21
-144.454
0
LINE
8
Black
10
177.447
20
-144.454
11
167.409
21
-149.109
0
LINE
8
Black
10
167.409
20
-149.109
11
167.397
21
-149.112
0
LINE
8
Black
10
167.397
20
-149.112
11
167.385
21
-149.117
0
LINE
8
Black
10
167.385
20
-149.117
11
156.627
21
-151.736
0
LINE
8
Black
10
156.627
20
-151.736
11
156.616
21
-151.737
0
LINE
8
Black
10
156.616
20
-151.737
11
156.606
21
-151.74
0
LINE
8
Black
10
156.606
20
-151.74
11
148.517
21
-152.301
0
LINE
8
Black
10
148.517
20
-152.301
11
148.507
21
-152.3
0
LINE
8
Black
10
148.507
20
-152.3
11
148.497
21
-152.301
0
LINE
8
Black
10
148.497
20
-152.301
11
137.473
21
-151.246
0
LINE
8
Black
10
137.473
20
-151.246
11
137.461
21
-151.243
0
LINE
8
Black
10
137.461
20
-151.243
11
137.449
21
-151.241
0
LINE
8
Black
10
137.449
20
-151.241
11
126.849
21
-148.068
0
LINE
8
Black
10
126.849
20
-148.068
11
126.838
21
-148.062
0
LINE
8
Black
10
126.838
20
-148.062
11
126.826
21
-148.059
0
LINE
8
Black
10
126.826
20
-148.059
11
117.037
21
-142.883
0
LINE
8
Black
10
117.037
20
-142.883
11
117.029
21
-142.877
0
LINE
8
Black
10
117.029
20
-142.877
11
117.019
21
-142.872
0
LINE
8
Black
10
117.019
20
-142.872
11
110.594
21
-137.929
0
LINE
8
Black
10
110.594
20
-137.929
11
110.587
21
-137.921
0
LINE
8
Black
10
110.587
20
-137.921
11
110.578
21
-137.914
0
LINE
8
Black
10
110.578
20
-137.914
11
110.253
21
-137.561
0
LINE
8
Black
10
110.253
20
-137.561
11
110.246
21
-137.551
0
LINE
8
Black
10
110.246
20
-137.551
11
110.238
21
-137.542
0
LINE
8
Black
10
110.238
20
-137.542
11
109.991
21
-137.139
0
LINE
8
Black
10
109.991
20
-137.139
11
109.986
21
-137.127
0
LINE
8
Black
10
109.986
20
-137.127
11
109.98
21
-137.117
0
LINE
8
Black
10
109.98
20
-137.117
11
109.816
21
-136.674
0
LINE
8
Black
10
109.816
20
-136.674
11
109.814
21
-136.662
0
LINE
8
Black
10
109.814
20
-136.662
11
109.81
21
-136.65
0
LINE
8
Black
10
109.81
20
-136.65
11
109.735
21
-136.183
0
LINE
8
Black
10
109.735
20
-136.183
11
109.735
21
-136.171
0
LINE
8
Black
10
109.735
20
-136.171
11
109.733
21
-136.159
0
LINE
8
Black
10
109.733
20
-136.159
11
109.751
21
-135.687
0
LINE
8
Black
10
109.751
20
-135.687
11
109.753
21
-135.675
0
LINE
8
Black
10
109.753
20
-135.675
11
109.754
21
-135.662
0
LINE
8
Black
10
109.754
20
-135.662
11
109.842
21
-135.288
0
LINE
8
Black
10
109.842
20
-135.288
11
109.862
21
-135.202
0
LINE
8
Black
10
109.862
20
-135.202
11
109.867
21
-135.191
0
LINE
8
Black
10
109.867
20
-135.191
11
109.87
21
-135.179
0
LINE
8
Black
10
109.87
20
-135.179
11
110.066
21
-134.749
0
LINE
8
Black
10
110.066
20
-134.749
11
110.073
21
-134.739
0
LINE
8
Black
10
110.073
20
-134.739
11
110.079
21
-134.728
0
LINE
8
Black
10
110.079
20
-134.728
11
110.366
21
-134.328
0
LINE
8
Black
10
110.366
20
-134.328
11
110.371
21
-134.322
0
LINE
8
Black
10
110.371
20
-134.322
11
110.376
21
-134.315
0
LINE
8
Black
10
110.376
20
-134.315
11
110.468
21
-134.216
0
LINE
8
Black
10
110.468
20
-134.216
11
110.47
21
-134.214
0
LINE
8
Black
10
110.47
20
-134.214
11
110.478
21
-134.207
0
LINE
8
Black
10
110.478
20
-134.207
11
110.484
21
-134.198
0
LINE
8
Black
10
110.484
20
-134.198
11
110.486
21
-134.197
0
LINE
8
Black
10
110.486
20
-134.197
11
110.487
21
-134.196
0
LINE
8
Black
10
110.487
20
-134.196
11
111.327
21
-133.206
0
LINE
8
Black
10
111.327
20
-133.206
11
111.35
21
-133.173
0
LINE
8
Black
10
111.35
20
-133.173
11
111.352
21
-133.172
0
LINE
8
Black
10
111.352
20
-133.172
11
111.353
21
-133.17
0
LINE
8
Black
10
111.353
20
-133.17
11
111.376
21
-133.138
0
LINE
8
Black
10
111.376
20
-133.138
11
111.377
21
-133.137
0
LINE
8
Black
10
111.377
20
-133.137
11
112.222
21
-131.695
0
LINE
8
Black
10
112.222
20
-131.695
11
112.242
21
-131.653
0
LINE
8
Black
10
112.242
20
-131.653
11
112.242
21
-131.652
0
LINE
8
Black
10
112.242
20
-131.652
11
112.242
21
-131.652
0
LINE
8
Black
10
112.242
20
-131.652
11
112.262
21
-131.61
0
LINE
8
Black
10
112.262
20
-131.61
11
112.262
21
-131.609
0
LINE
8
Black
10
112.262
20
-131.609
11
112.812
21
-130.031
0
LINE
8
Black
10
112.812
20
-130.031
11
112.823
21
-129.986
0
LINE
8
Black
10
112.823
20
-129.986
11
112.823
21
-129.985
0
LINE
8
Black
10
112.823
20
-129.985
11
112.823
21
-129.984
0
LINE
8
Black
10
112.823
20
-129.984
11
112.834
21
-129.94
0
LINE
8
Black
10
112.834
20
-129.94
11
112.834
21
-129.939
0
LINE
8
Black
10
112.834
20
-129.939
11
113.067
21
-128.283
0
LINE
8
Black
10
113.067
20
-128.283
11
113.069
21
-128.237
0
LINE
8
Black
10
113.069
20
-128.237
11
113.069
21
-128.236
0
LINE
8
Black
10
113.069
20
-128.236
11
113.069
21
-128.236
0
LINE
8
Black
10
113.069
20
-128.236
11
113.071
21
-128.19
0
LINE
8
Black
10
113.071
20
-128.19
11
113.071
21
-128.189
0
LINE
8
Black
10
113.071
20
-128.189
11
112.977
21
-126.52
0
LINE
8
Black
10
112.977
20
-126.52
11
112.97
21
-126.474
0
LINE
8
Black
10
112.97
20
-126.474
11
112.97
21
-126.473
0
LINE
8
Black
10
112.97
20
-126.473
11
112.97
21
-126.473
0
LINE
8
Black
10
112.97
20
-126.473
11
112.964
21
-126.427
0
LINE
8
Black
10
112.964
20
-126.427
11
112.964
21
-126.426
0
LINE
8
Black
10
112.964
20
-126.426
11
112.547
21
-124.807
0
LINE
8
Black
10
112.547
20
-124.807
11
112.532
21
-124.764
0
LINE
8
Black
10
112.532
20
-124.764
11
112.531
21
-124.763
0
LINE
8
Black
10
112.531
20
-124.763
11
112.531
21
-124.762
0
LINE
8
Black
10
112.531
20
-124.762
11
112.516
21
-124.719
0
LINE
8
Black
10
112.516
20
-124.719
11
112.516
21
-124.718
0
LINE
8
Black
10
112.516
20
-124.718
11
111.793
21
-123.211
0
LINE
8
Black
10
111.793
20
-123.211
11
111.769
21
-123.171
0
LINE
8
Black
10
111.769
20
-123.171
11
111.769
21
-123.171
0
LINE
8
Black
10
111.769
20
-123.171
11
111.768
21
-123.17
0
LINE
8
Black
10
111.768
20
-123.17
11
111.745
21
-123.131
0
LINE
8
Black
10
111.745
20
-123.131
11
111.744
21
-123.13
0
LINE
8
Black
10
111.744
20
-123.13
11
110.743
21
-121.791
0
LINE
8
Black
10
110.743
20
-121.791
11
110.712
21
-121.757
0
LINE
8
Black
10
110.712
20
-121.757
11
110.711
21
-121.757
0
LINE
8
Black
10
110.711
20
-121.757
11
110.71
21
-121.756
0
LINE
8
Black
10
110.71
20
-121.756
11
110.68
21
-121.722
0
LINE
8
Black
10
110.68
20
-121.722
11
110.679
21
-121.721
0
LINE
8
Black
10
110.679
20
-121.721
11
109.437
21
-120.603
0
LINE
8
Black
10
109.437
20
-120.603
11
109.4
21
-120.576
0
LINE
8
Black
10
109.4
20
-120.576
11
109.399
21
-120.575
0
LINE
8
Black
10
109.399
20
-120.575
11
109.398
21
-120.575
0
LINE
8
Black
10
109.398
20
-120.575
11
109.362
21
-120.547
0
LINE
8
Black
10
109.362
20
-120.547
11
109.361
21
-120.547
0
LINE
8
Black
10
109.361
20
-120.547
11
107.925
21
-119.691
0
LINE
8
Black
10
107.925
20
-119.691
11
107.883
21
-119.671
0
LINE
8
Black
10
107.883
20
-119.671
11
107.882
21
-119.671
0
LINE
8
Black
10
107.882
20
-119.671
11
107.881
21
-119.671
0
LINE
8
Black
10
107.881
20
-119.671
11
107.84
21
-119.651
0
LINE
8
Black
10
107.84
20
-119.651
11
107.839
21
-119.65
0
LINE
8
Black
10
107.839
20
-119.65
11
106.259
21
-119.088
0
LINE
8
Black
10
106.259
20
-119.088
11
105.76
21
-118.91
0
LINE
8
Black
10
105.76
20
-118.91
11
105.749
21
-118.904
0
LINE
8
Black
10
105.749
20
-118.904
11
105.738
21
-118.9
0
LINE
8
Black
10
105.738
20
-118.9
11
105.332
21
-118.658
0
LINE
8
Black
10
105.332
20
-118.658
11
105.323
21
-118.65
0
LINE
8
Black
10
105.323
20
-118.65
11
105.312
21
-118.643
0
LINE
8
Black
10
105.312
20
-118.643
11
104.961
21
-118.327
0
LINE
8
Black
10
104.961
20
-118.327
11
104.953
21
-118.318
0
LINE
8
Black
10
104.953
20
-118.318
11
104.944
21
-118.309
0
LINE
8
Black
10
104.944
20
-118.309
11
104.661
21
-117.931
0
LINE
8
Black
10
104.661
20
-117.931
11
104.656
21
-117.92
0
LINE
8
Black
10
104.656
20
-117.92
11
104.648
21
-117.91
0
LINE
8
Black
10
104.648
20
-117.91
11
104.444
21
-117.484
0
LINE
8
Black
10
104.444
20
-117.484
11
104.441
21
-117.472
0
LINE
8
Black
10
104.441
20
-117.472
11
104.436
21
-117.461
0
LINE
8
Black
10
104.436
20
-117.461
11
104.317
21
-116.997
0
LINE
8
Black
10
104.317
20
-116.997
11
104.316
21
-116.986
0
LINE
8
Black
10
104.316
20
-116.986
11
104.313
21
-116.975
0
LINE
8
Black
10
104.313
20
-116.975
11
104.283
21
-116.588
0
LINE
8
Black
10
104.283
20
-116.588
11
104.284
21
-116.583
0
LINE
8
Black
10
104.284
20
-116.583
11
104.283
21
-116.578
0
LINE
8
Black
10
104.283
20
-116.578
11
104.283
21
-114.075
0
LINE
8
Black
10
104.283
20
-114.075
11
104.283
21
-112.702
0
LINE
8
Black
10
104.283
20
-112.702
11
104.283
21
-112.702
0
LINE
8
Black
10
104.283
20
-112.702
11
104.283
21
-111.234
0
LINE
8
Black
10
104.283
20
-111.234
11
104.283
21
-107.055
0
LINE
8
Black
10
104.283
20
-107.055
11
104.283
21
-105.228
0
LINE
8
Black
10
104.283
20
-105.228
11
104.283
21
-100.31
0
LINE
8
Black
10
104.283
20
-100.31
11
104.283
21
-98.9308
0
LINE
8
Black
10
104.283
20
-98.9308
11
104.283
21
-97.5572
0
LINE
8
Black
10
104.283
20
-97.5572
11
104.283
21
-96.09
0
LINE
8
Black
10
104.283
20
-96.09
11
104.283
21
-93.5309
0
LINE
8
Black
10
104.283
20
-93.5309
11
104.284
21
-93.5247
0
LINE
8
Black
10
104.284
20
-93.5247
11
104.283
21
-93.5185
0
LINE
8
Black
10
104.283
20
-93.5185
11
104.332
21
-93.0202
0
LINE
8
Black
10
104.332
20
-93.0202
11
104.336
21
-93.0082
0
LINE
8
Black
10
104.336
20
-93.0082
11
104.337
21
-92.9959
0
LINE
8
Black
10
104.337
20
-92.9959
11
104.474
21
-92.5437
0
LINE
8
Black
10
104.474
20
-92.5437
11
104.479
21
-92.5326
0
LINE
8
Black
10
104.479
20
-92.5326
11
104.483
21
-92.5208
0
LINE
8
Black
10
104.483
20
-92.5208
11
104.705
21
-92.1037
0
LINE
8
Black
10
104.705
20
-92.1037
11
104.712
21
-92.0939
0
LINE
8
Black
10
104.712
20
-92.0939
11
104.718
21
-92.0831
0
LINE
8
Black
10
104.718
20
-92.0831
11
105.017
21
-91.717
0
LINE
8
Black
10
105.017
20
-91.717
11
105.026
21
-91.7089
0
LINE
8
Black
10
105.026
20
-91.7089
11
105.035
21
-91.6994
0
LINE
8
Black
10
105.035
20
-91.6994
11
105.398
21
-91.3983
0
LINE
8
Black
10
105.398
20
-91.3983
11
105.409
21
-91.3922
0
LINE
8
Black
10
105.409
20
-91.3922
11
105.419
21
-91.3845
0
LINE
8
Black
10
105.419
20
-91.3845
11
105.84
21
-91.1566
0
LINE
8
Black
10
105.84
20
-91.1566
11
105.851
21
-91.1531
0
LINE
8
Black
10
105.851
20
-91.1531
11
105.86
21
-91.1479
0
LINE
8
Black
10
105.86
20
-91.1479
11
106.236
21
-91.0222
0
LINE
8
Black
10
106.236
20
-91.0222
11
106.236
21
-91.0221
0
LINE
8
Black
10
106.236
20
-91.0221
11
106.236
21
-91.022
0
LINE
8
Black
10
106.236
20
-91.022
11
107.396
21
-90.6368
0
LINE
8
Black
10
107.396
20
-90.6368
11
107.431
21
-90.6212
0
LINE
8
Black
10
107.431
20
-90.6212
11
107.433
21
-90.6206
0
LINE
8
Black
10
107.433
20
-90.6206
11
107.436
21
-90.6192
0
LINE
8
Black
10
107.436
20
-90.6192
11
107.471
21
-90.6051
0
LINE
8
Black
10
107.471
20
-90.6051
11
107.472
21
-90.6046
0
LINE
8
Black
10
107.472
20
-90.6046
11
108.947
21
-89.818
0
LINE
8
Black
10
108.947
20
-89.818
11
108.985
21
-89.7925
0
LINE
8
Black
10
108.985
20
-89.7925
11
108.986
21
-89.7921
0
LINE
8
Black
10
108.986
20
-89.7921
11
108.987
21
-89.7915
0
LINE
8
Black
10
108.987
20
-89.7915
11
109.025
21
-89.7667
0
LINE
8
Black
10
109.025
20
-89.7667
11
109.026
21
-89.7662
0
LINE
8
Black
10
109.026
20
-89.7662
11
110.32
21
-88.7079
0
LINE
8
Black
10
110.32
20
-88.7079
11
110.353
21
-88.6755
0
LINE
8
Black
10
110.353
20
-88.6755
11
110.354
21
-88.6749
0
LINE
8
Black
10
110.354
20
-88.6749
11
110.354
21
-88.6742
0
LINE
8
Black
10
110.354
20
-88.6742
11
110.387
21
-88.6424
0
LINE
8
Black
10
110.387
20
-88.6424
11
110.388
21
-88.6417
0
LINE
8
Black
10
110.388
20
-88.6417
11
111.452
21
-87.3523
0
LINE
8
Black
10
111.452
20
-87.3523
11
111.477
21
-87.314
0
LINE
8
Black
10
111.477
20
-87.314
11
111.478
21
-87.3134
0
LINE
8
Black
10
111.478
20
-87.3134
11
111.478
21
-87.3126
0
LINE
8
Black
10
111.478
20
-87.3126
11
111.504
21
-87.2751
0
LINE
8
Black
10
111.504
20
-87.2751
11
111.505
21
-87.2742
0
LINE
8
Black
10
111.505
20
-87.2742
11
112.298
21
-85.8027
0
LINE
8
Black
10
112.298
20
-85.8027
11
112.316
21
-85.7602
0
LINE
8
Black
10
112.316
20
-85.7602
11
112.316
21
-85.7594
0
LINE
8
Black
10
112.316
20
-85.7594
11
112.317
21
-85.7586
0
LINE
8
Black
10
112.317
20
-85.7586
11
112.335
21
-85.7167
0
LINE
8
Black
10
112.335
20
-85.7167
11
112.335
21
-85.7158
0
LINE
8
Black
10
112.335
20
-85.7158
11
112.828
21
-84.1182
0
LINE
8
Black
10
112.828
20
-84.1182
11
112.837
21
-84.073
0
LINE
8
Black
10
112.837
20
-84.073
11
112.837
21
-84.0722
0
LINE
8
Black
10
112.837
20
-84.0722
11
112.837
21
-84.0713
0
LINE
8
Black
10
112.837
20
-84.0713
11
112.847
21
-84.0267
0
LINE
8
Black
10
112.847
20
-84.0267
11
112.847
21
-84.0257
0
LINE
8
Black
10
112.847
20
-84.0257
11
113.02
21
-82.3629
0
LINE
8
Black
10
113.02
20
-82.3629
11
113.02
21
-82.3169
0
LINE
8
Black
10
113.02
20
-82.3169
11
113.02
21
-82.316
0
LINE
8
Black
10
113.02
20
-82.316
11
113.02
21
-82.3151
0
LINE
8
Black
10
113.02
20
-82.3151
11
113.021
21
-82.2694
0
LINE
8
Black
10
113.021
20
-82.2694
11
113.021
21
-82.2685
0
LINE
8
Black
10
113.021
20
-82.2685
11
112.867
21
-80.6038
0
LINE
8
Black
10
112.867
20
-80.6038
11
112.859
21
-80.5585
0
LINE
8
Black
10
112.859
20
-80.5585
11
112.859
21
-80.5576
0
LINE
8
Black
10
112.859
20
-80.5576
11
112.858
21
-80.5568
0
LINE
8
Black
10
112.858
20
-80.5568
11
112.85
21
-80.5118
0
LINE
8
Black
10
112.85
20
-80.5118
11
112.85
21
-80.5109
0
LINE
8
Black
10
112.85
20
-80.5109
11
112.376
21
-78.9078
0
LINE
8
Black
10
112.376
20
-78.9078
11
112.359
21
-78.8651
0
LINE
8
Black
10
112.359
20
-78.8651
11
112.359
21
-78.8642
0
LINE
8
Black
10
112.359
20
-78.8642
11
112.358
21
-78.8634
0
LINE
8
Black
10
112.358
20
-78.8634
11
112.341
21
-78.8209
0
LINE
8
Black
10
112.341
20
-78.8209
11
112.341
21
-78.82
0
LINE
8
Black
10
112.341
20
-78.82
11
111.565
21
-77.3394
0
LINE
8
Black
10
111.565
20
-77.3394
11
111.539
21
-77.3009
0
LINE
8
Black
10
111.539
20
-77.3009
11
111.539
21
-77.3001
0
LINE
8
Black
10
111.539
20
-77.3001
11
111.538
21
-77.2994
0
LINE
8
Black
10
111.538
20
-77.2994
11
111.514
21
-77.2609
0
LINE
8
Black
10
111.514
20
-77.2609
11
111.513
21
-77.2602
0
LINE
8
Black
10
111.513
20
-77.2602
11
110.46
21
-75.9537
0
LINE
8
Black
10
110.46
20
-75.9537
11
110.46
21
-75.9537
0
LINE
8
Black
10
110.46
20
-75.9537
11
110.46
21
-75.9537
0
LINE
8
Black
10
110.46
20
-75.9537
11
110.128
21
-75.5419
0
LINE
8
Black
10
110.128
20
-75.5419
11
110.122
21
-75.531
0
LINE
8
Black
10
110.122
20
-75.531
11
110.115
21
-75.5212
0
LINE
8
Black
10
110.115
20
-75.5212
11
110.039
21
-75.376
0
LINE
8
Black
10
110.039
20
-75.376
11
109.895
21
-75.1029
0
LINE
8
Black
10
109.895
20
-75.1029
11
109.892
21
-75.091
0
LINE
8
Black
10
109.892
20
-75.091
11
109.886
21
-75.0799
0
LINE
8
Black
10
109.886
20
-75.0799
11
109.752
21
-74.6269
0
LINE
8
Black
10
109.752
20
-74.6269
11
109.751
21
-74.6146
0
LINE
8
Black
10
109.751
20
-74.6146
11
109.748
21
-74.6026
0
LINE
8
Black
10
109.748
20
-74.6026
11
109.704
21
-74.1322
0
LINE
8
Black
10
109.704
20
-74.1322
11
109.705
21
-74.1198
0
LINE
8
Black
10
109.705
20
-74.1198
11
109.704
21
-74.1075
0
LINE
8
Black
10
109.704
20
-74.1075
11
109.753
21
-73.6376
0
LINE
8
Black
10
109.753
20
-73.6376
11
109.757
21
-73.6257
0
LINE
8
Black
10
109.757
20
-73.6257
11
109.758
21
-73.6134
0
LINE
8
Black
10
109.758
20
-73.6134
11
109.897
21
-73.162
0
LINE
8
Black
10
109.897
20
-73.162
11
109.903
21
-73.1509
0
LINE
8
Black
10
109.903
20
-73.1509
11
109.907
21
-73.1391
0
LINE
8
Black
10
109.907
20
-73.1391
11
110.131
21
-72.7233
0
LINE
8
Black
10
110.131
20
-72.7233
11
110.139
21
-72.7136
0
LINE
8
Black
10
110.139
20
-72.7136
11
110.145
21
-72.7028
0
LINE
8
Black
10
110.145
20
-72.7028
11
110.459
21
-72.3223
0
LINE
8
Black
10
110.459
20
-72.3223
11
110.465
21
-72.3172
0
LINE
8
Black
10
110.465
20
-72.3172
11
110.469
21
-72.3109
0
LINE
8
Black
10
110.469
20
-72.3109
11
110.53
21
-72.2533
0
LINE
8
Black
10
110.53
20
-72.2533
11
110.537
21
-72.249
0
LINE
8
Black
10
110.537
20
-72.249
11
110.542
21
-72.2433
0
LINE
8
Black
10
110.542
20
-72.2433
11
119.476
21
-65.6795
0
LINE
8
Black
10
119.476
20
-65.6795
11
119.487
21
-65.674
0
LINE
8
Black
10
119.487
20
-65.674
11
119.497
21
-65.6668
0
LINE
8
Black
10
119.497
20
-65.6668
11
129.517
21
-60.9721
0
LINE
8
Black
10
129.517
20
-60.9721
11
129.529
21
-60.9689
0
LINE
8
Black
10
129.529
20
-60.9689
11
129.54
21
-60.9639
0
LINE
8
Black
10
129.54
20
-60.9639
11
140.281
21
-58.3047
0
LINE
8
Black
10
140.281
20
-58.3047
11
140.293
21
-58.3039
0
LINE
8
Black
10
140.293
20
-58.3039
11
140.305
21
-58.3011
0
LINE
8
Black
10
140.305
20
-58.3011
11
151.358
21
-57.7788
0
LINE
8
Black
10
151.358
20
-57.7788
11
151.37
21
-57.7804
0
LINE
8
Black
10
122.98
20
-131.533
11
122.325
21
-131.798
0
LINE
8
Black
10
122.325
20
-131.798
11
121.734
21
-132.184
0
LINE
8
Black
10
121.734
20
-132.184
11
121.23
21
-132.678
0
LINE
8
Black
10
121.23
20
-132.678
11
120.831
21
-133.261
0
LINE
8
Black
10
120.831
20
-133.261
11
120.553
21
-133.91
0
LINE
8
Black
10
120.553
20
-133.91
11
120.406
21
-134.6
0
LINE
8
Black
10
120.406
20
-134.6
11
120.396
21
-135.306
0
LINE
8
Black
10
120.396
20
-135.306
11
120.524
21
-136.001
0
LINE
8
Black
10
120.524
20
-136.001
11
120.784
21
-136.657
0
LINE
8
Black
10
120.784
20
-136.657
11
121.166
21
-137.251
0
LINE
8
Black
10
121.166
20
-137.251
11
121.657
21
-137.758
0
LINE
8
Black
10
121.657
20
-137.758
11
122.236
21
-138.161
0
LINE
8
Black
10
122.236
20
-138.161
11
122.883
21
-138.444
0
LINE
8
Black
10
122.883
20
-138.444
11
123.573
21
-138.596
0
LINE
8
Black
10
123.573
20
-138.596
11
124.279
21
-138.61
0
LINE
8
Black
10
124.279
20
-138.61
11
124.974
21
-138.488
0
LINE
8
Black
10
124.974
20
-138.488
11
125.632
21
-138.232
0
LINE
8
Black
10
125.632
20
-138.232
11
126.228
21
-137.854
0
LINE
8
Black
10
126.228
20
-137.854
11
126.739
21
-137.367
0
LINE
8
Black
10
126.739
20
-137.367
11
127.146
21
-136.79
0
LINE
8
Black
10
127.146
20
-136.79
11
127.434
21
-136.145
0
LINE
8
Black
10
127.434
20
-136.145
11
127.59
21
-135.458
0
LINE
8
Black
10
127.59
20
-135.458
11
127.592
21
-135.315
0
LINE
8
Black
10
127.592
20
-135.315
11
127.601
21
-134.65
0
LINE
8
Black
10
127.601
20
-134.65
11
127.464
21
-133.958
0
LINE
8
Black
10
127.464
20
-133.958
11
127.195
21
-133.305
0
LINE
8
Black
10
127.195
20
-133.305
11
126.804
21
-132.717
0
LINE
8
Black
10
126.804
20
-132.717
11
126.307
21
-132.216
0
LINE
8
Black
10
126.307
20
-132.216
11
125.722
21
-131.822
0
LINE
8
Black
10
125.722
20
-131.822
11
125.071
21
-131.548
0
LINE
8
Black
10
125.071
20
-131.548
11
124.379
21
-131.406
0
LINE
8
Black
10
124.379
20
-131.406
11
123.673
21
-131.401
0
LINE
8
Black
10
123.673
20
-131.401
11
122.98
21
-131.533
0
LINE
8
Black
10
171.98
20
-131.533
11
171.325
21
-131.798
0
LINE
8
Black
10
171.325
20
-131.798
11
170.734
21
-132.184
0
LINE
8
Black
10
170.734
20
-132.184
11
170.23
21
-132.678
0
LINE
8
Black
10
170.23
20
-132.678
11
169.831
21
-133.261
0
LINE
8
Black
10
169.831
20
-133.261
11
169.553
21
-133.91
0
LINE
8
Black
10
169.553
20
-133.91
11
169.406
21
-134.6
0
LINE
8
Black
10
169.406
20
-134.6
11
169.396
21
-135.306
0
LINE
8
Black
10
169.396
20
-135.306
11
169.524
21
-136.001
0
LINE
8
Black
10
169.524
20
-136.001
11
169.784
21
-136.657
0
LINE
8
Black
10
169.784
20
-136.657
11
170.166
21
-137.251
0
LINE
8
Black
10
170.166
20
-137.251
11
170.657
21
-137.758
0
LINE
8
Black
10
170.657
20
-137.758
11
171.236
21
-138.161
0
LINE
8
Black
10
171.236
20
-138.161
11
171.883
21
-138.444
0
LINE
8
Black
10
171.883
20
-138.444
11
172.573
21
-138.596
0
LINE
8
Black
10
172.573
20
-138.596
11
173.279
21
-138.61
0
LINE
8
Black
10
173.279
20
-138.61
11
173.974
21
-138.488
0
LINE
8
Black
10
173.974
20
-138.488
11
174.632
21
-138.232
0
LINE
8
Black
10
174.632
20
-138.232
11
175.228
21
-137.854
0
LINE
8
Black
10
175.228
20
-137.854
11
175.739
21
-137.367
0
LINE
8
Black
10
175.739
20
-137.367
11
176.146
21
-136.79
0
LINE
8
Black
10
176.146
20
-136.79
11
176.434
21
-136.145
0
LINE
8
Black
10
176.434
20
-136.145
11
176.59
21
-135.458
0
LINE
8
Black
10
176.59
20
-135.458
11
176.601
21
-134.65
0
LINE
8
Black
10
176.601
20
-134.65
11
176.464
21
-133.958
0
LINE
8
Black
10
176.464
20
-133.958
11
176.195
21
-133.305
0
LINE
8
Black
10
176.195
20
-133.305
11
175.804
21
-132.717
0
LINE
8
Black
10
175.804
20
-132.717
11
175.307
21
-132.216
0
LINE
8
Black
10
175.307
20
-132.216
11
174.722
21
-131.822
0
LINE
8
Black
10
174.722
20
-131.822
11
174.071
21
-131.548
0
LINE
8
Black
10
174.071
20
-131.548
11
173.379
21
-131.406
0
LINE
8
Black
10
173.379
20
-131.406
11
172.673
21
-131.401
0
LINE
8
Black
10
172.673
20
-131.401
11
171.98
21
-131.533
0
LINE
8
Black
10
145.076
20
-89.4263
11
142.116
21
-90.3882
0
LINE
8
Black
10
142.116
20
-90.3882
11
139.399
21
-91.9068
0
LINE
8
Black
10
139.399
20
-91.9068
11
137.028
21
-93.9242
0
LINE
8
Black
10
137.028
20
-93.9242
11
135.095
21
-96.3637
0
LINE
8
Black
10
135.095
20
-96.3637
11
133.672
21
-99.1322
0
LINE
8
Black
10
133.672
20
-99.1322
11
132.814
21
-102.124
0
LINE
8
Black
10
132.814
20
-102.124
11
132.553
21
-105.226
0
LINE
8
Black
10
132.553
20
-105.226
11
132.9
21
-108.32
0
LINE
8
Black
10
132.9
20
-108.32
11
133.841
21
-111.287
0
LINE
8
Black
10
133.841
20
-111.287
11
135.341
21
-114.014
0
LINE
8
Black
10
135.341
20
-114.014
11
137.342
21
-116.399
0
LINE
8
Black
10
137.342
20
-116.399
11
139.768
21
-118.349
0
LINE
8
Black
10
139.768
20
-118.349
11
142.526
21
-119.792
0
LINE
8
Black
10
142.526
20
-119.792
11
145.512
21
-120.67
0
LINE
8
Black
10
145.512
20
-120.67
11
148.612
21
-120.953
0
LINE
8
Black
10
148.612
20
-120.953
11
151.708
21
-120.627
0
LINE
8
Black
10
151.708
20
-120.627
11
154.682
21
-119.707
0
LINE
8
Black
10
154.682
20
-119.707
11
157.42
21
-118.226
0
LINE
8
Black
10
157.42
20
-118.226
11
159.818
21
-116.242
0
LINE
8
Black
10
159.818
20
-116.242
11
161.786
21
-113.83
0
LINE
8
Black
10
161.786
20
-113.83
11
163.229
21
-111.115
0
LINE
8
Black
10
163.229
20
-111.115
11
163.229
21
-111.115
0
LINE
8
Black
10
163.229
20
-111.115
11
163.247
21
-111.081
0
LINE
8
Black
10
163.247
20
-111.081
11
164.147
21
-108.102
0
LINE
8
Black
10
164.147
20
-108.102
11
164.251
21
-107.042
0
LINE
8
Black
10
164.251
20
-107.042
11
164.451
21
-104.998
0
LINE
8
Black
10
164.451
20
-104.998
11
164.445
21
-104.564
0
LINE
8
Black
10
164.445
20
-104.564
11
164.054
21
-101.47
0
LINE
8
Black
10
164.054
20
-101.47
11
163.682
21
-100.35
0
LINE
8
Black
10
163.682
20
-100.35
11
163.072
21
-98.5164
0
LINE
8
Black
10
163.072
20
-98.5164
11
161.785
21
-96.2513
0
LINE
8
Black
10
161.785
20
-96.2513
11
161.534
21
-95.8099
0
LINE
8
Black
10
161.534
20
-95.8099
11
159.5
21
-93.4535
0
LINE
8
Black
10
159.5
20
-93.4535
11
157.047
21
-91.5371
0
LINE
8
Black
10
157.047
20
-91.5371
11
154.269
21
-90.1336
0
LINE
8
Black
10
154.269
20
-90.1336
11
151.271
21
-89.2965
0
LINE
8
Black
10
151.271
20
-89.2965
11
148.167
21
-89.0577
0
LINE
8
Black
10
148.167
20
-89.0577
11
145.076
21
-89.4263
0
LINE
8
Black
10
107.821
20
-113.975
11
107.34
21
-114.06
0
LINE
8
Black
10
107.34
20
-114.06
11
106.86
21
-113.975
0
LINE
8
Black
10
106.86
20
-113.975
11
106.555
21
-113.799
0
LINE
8
Black
10
106.555
20
-113.799
11
106.253
21
-114.102
0
LINE
8
Black
10
106.253
20
-114.102
11
106.34
21
-114.287
0
LINE
8
Black
10
106.34
20
-114.287
11
106.647
21
-114.442
0
LINE
8
Black
10
106.647
20
-114.442
11
107.009
21
-114.543
0
LINE
8
Black
10
107.009
20
-114.543
11
107.384
21
-114.572
0
LINE
8
Black
10
107.384
20
-114.572
11
107.757
21
-114.526
0
LINE
8
Black
10
107.757
20
-114.526
11
108.116
21
-114.408
0
LINE
8
Black
10
108.116
20
-114.408
11
108.34
21
-114.288
0
LINE
8
Black
10
108.34
20
-114.288
11
108.428
21
-114.102
0
LINE
8
Black
10
108.428
20
-114.102
11
108.411
21
-114.085
0
LINE
8
Black
10
108.411
20
-114.085
11
108.411
21
-114.085
0
LINE
8
Black
10
108.411
20
-114.085
11
108.126
21
-113.799
0
LINE
8
Black
10
108.126
20
-113.799
11
107.821
21
-113.975
0
LINE
8
Black
10
189.999
20
-113.975
11
189.518
21
-114.06
0
LINE
8
Black
10
189.518
20
-114.06
11
189.038
21
-113.975
0
LINE
8
Black
10
189.038
20
-113.975
11
188.733
21
-113.799
0
LINE
8
Black
10
188.733
20
-113.799
11
188.431
21
-114.102
0
LINE
8
Black
10
188.431
20
-114.102
11
188.518
21
-114.287
0
LINE
8
Black
10
188.518
20
-114.287
11
188.825
21
-114.442
0
LINE
8
Black
10
188.825
20
-114.442
11
189.187
21
-114.543
0
LINE
8
Black
10
189.187
20
-114.543
11
189.562
21
-114.572
0
LINE
8
Black
10
189.562
20
-114.572
11
189.935
21
-114.526
0
LINE
8
Black
10
189.935
20
-114.526
11
190.294
21
-114.408
0
LINE
8
Black
10
190.294
20
-114.408
11
190.518
21
-114.288
0
LINE
8
Black
10
190.518
20
-114.288
11
190.606
21
-114.102
0
LINE
8
Black
10
190.606
20
-114.102
11
190.304
21
-113.799
0
LINE
8
Black
10
190.304
20
-113.799
11
189.999
21
-113.975
0
LINE
8
Black
10
121.85
20
-113.895
11
121.369
21
-113.98
0
LINE
8
Black
10
121.369
20
-113.98
11
120.889
21
-113.895
0
LINE
8
Black
10
120.889
20
-113.895
11
120.584
21
-113.719
0
LINE
8
Black
10
120.584
20
-113.719
11
120.282
21
-114.022
0
LINE
8
Black
10
120.282
20
-114.022
11
120.369
21
-114.207
0
LINE
8
Black
10
120.369
20
-114.207
11
120.676
21
-114.362
0
LINE
8
Black
10
120.676
20
-114.362
11
121.038
21
-114.463
0
LINE
8
Black
10
121.038
20
-114.463
11
121.413
21
-114.491
0
LINE
8
Black
10
121.413
20
-114.491
11
121.786
21
-114.446
0
LINE
8
Black
10
121.786
20
-114.446
11
122.145
21
-114.328
0
LINE
8
Black
10
122.145
20
-114.328
11
122.369
21
-114.208
0
LINE
8
Black
10
122.369
20
-114.208
11
122.457
21
-114.022
0
LINE
8
Black
10
122.457
20
-114.022
11
122.155
21
-113.719
0
LINE
8
Black
10
122.155
20
-113.719
11
121.85
21
-113.895
0
LINE
8
Black
10
175.97
20
-113.895
11
175.489
21
-113.98
0
LINE
8
Black
10
175.489
20
-113.98
11
175.009
21
-113.895
0
LINE
8
Black
10
175.009
20
-113.895
11
174.704
21
-113.719
0
LINE
8
Black
10
174.704
20
-113.719
11
174.402
21
-114.022
0
LINE
8
Black
10
174.402
20
-114.022
11
174.489
21
-114.207
0
LINE
8
Black
10
174.489
20
-114.207
11
174.796
21
-114.362
0
LINE
8
Black
10
174.796
20
-114.362
11
175.158
21
-114.463
0
LINE
8
Black
10
175.158
20
-114.463
11
175.533
21
-114.491
0
LINE
8
Black
10
175.533
20
-114.491
11
175.906
21
-114.446
0
LINE
8
Black
10
175.906
20
-114.446
11
176.265
21
-114.328
0
LINE
8
Black
10
176.265
20
-114.328
11
176.489
21
-114.208
0
LINE
8
Black
10
176.489
20
-114.208
11
176.577
21
-114.022
0
LINE
8
Black
10
176.577
20
-114.022
11
176.275
21
-113.719
0
LINE
8
Black
10
176.275
20
-113.719
11
175.97
21
-113.895
0
LINE
8
Black
10
169.894
20
-110.772
11
169.83
21
-110.777
0
LINE
8
Black
10
169.83
20
-110.777
11
169.718
21
-110.812
0
LINE
8
Black
10
169.718
20
-110.812
11
169.624
21
-110.874
0
LINE
8
Black
10
169.624
20
-110.874
11
169.55
21
-110.96
0
LINE
8
Black
10
169.55
20
-110.96
11
169.504
21
-111.063
0
LINE
8
Black
10
169.504
20
-111.063
11
169.487
21
-111.184
0
LINE
8
Black
10
169.487
20
-111.184
11
169.487
21
-113.97
0
LINE
8
Black
10
169.487
20
-113.97
11
169.492
21
-114.034
0
LINE
8
Black
10
169.492
20
-114.034
11
169.527
21
-114.146
0
LINE
8
Black
10
169.527
20
-114.146
11
169.589
21
-114.24
0
LINE
8
Black
10
169.589
20
-114.24
11
169.675
21
-114.314
0
LINE
8
Black
10
169.675
20
-114.314
11
169.778
21
-114.36
0
LINE
8
Black
10
169.778
20
-114.36
11
169.898
21
-114.377
0
LINE
8
Black
10
169.898
20
-114.377
11
172.684
21
-114.377
0
LINE
8
Black
10
172.684
20
-114.377
11
172.749
21
-114.372
0
LINE
8
Black
10
172.749
20
-114.372
11
172.861
21
-114.337
0
LINE
8
Black
10
172.861
20
-114.337
11
172.955
21
-114.275
0
LINE
8
Black
10
172.955
20
-114.275
11
173.028
21
-114.189
0
LINE
8
Black
10
173.028
20
-114.189
11
173.075
21
-114.086
0
LINE
8
Black
10
173.075
20
-114.086
11
173.09
21
-113.977
0
LINE
8
Black
10
173.09
20
-113.977
11
173.09
21
-113.977
0
LINE
8
Black
10
173.09
20
-113.977
11
173.092
21
-113.966
0
LINE
8
Black
10
173.092
20
-113.966
11
173.092
21
-112.621
0
LINE
8
Black
10
173.092
20
-112.621
11
173.092
21
-111.18
0
LINE
8
Black
10
173.092
20
-111.18
11
173.091
21
-111.164
0
LINE
8
Black
10
173.091
20
-111.164
11
173.087
21
-111.115
0
LINE
8
Black
10
173.087
20
-111.115
11
173.052
21
-111.003
0
LINE
8
Black
10
173.052
20
-111.003
11
172.99
21
-110.909
0
LINE
8
Black
10
172.99
20
-110.909
11
172.904
21
-110.836
0
LINE
8
Black
10
172.904
20
-110.836
11
172.801
21
-110.789
0
LINE
8
Black
10
172.801
20
-110.789
11
172.68
21
-110.772
0
LINE
8
Black
10
172.68
20
-110.772
11
169.894
21
-110.772
0
LINE
8
Black
10
124.174
20
-110.772
11
124.11
21
-110.777
0
LINE
8
Black
10
124.11
20
-110.777
11
123.998
21
-110.812
0
LINE
8
Black
10
123.998
20
-110.812
11
123.904
21
-110.874
0
LINE
8
Black
10
123.904
20
-110.874
11
123.83
21
-110.96
0
LINE
8
Black
10
123.83
20
-110.96
11
123.784
21
-111.063
0
LINE
8
Black
10
123.784
20
-111.063
11
123.767
21
-111.184
0
LINE
8
Black
10
123.767
20
-111.184
11
123.767
21
-113.97
0
LINE
8
Black
10
123.767
20
-113.97
11
123.772
21
-114.034
0
LINE
8
Black
10
123.772
20
-114.034
11
123.807
21
-114.146
0
LINE
8
Black
10
123.807
20
-114.146
11
123.869
21
-114.24
0
LINE
8
Black
10
123.869
20
-114.24
11
123.955
21
-114.314
0
LINE
8
Black
10
123.955
20
-114.314
11
124.058
21
-114.36
0
LINE
8
Black
10
124.058
20
-114.36
11
124.178
21
-114.377
0
LINE
8
Black
10
124.178
20
-114.377
11
126.964
21
-114.377
0
LINE
8
Black
10
126.964
20
-114.377
11
127.029
21
-114.372
0
LINE
8
Black
10
127.029
20
-114.372
11
127.141
21
-114.337
0
LINE
8
Black
10
127.141
20
-114.337
11
127.235
21
-114.275
0
LINE
8
Black
10
127.235
20
-114.275
11
127.308
21
-114.189
0
LINE
8
Black
10
127.308
20
-114.189
11
127.355
21
-114.086
0
LINE
8
Black
10
127.355
20
-114.086
11
127.372
21
-113.966
0
LINE
8
Black
10
127.372
20
-113.966
11
127.372
21
-111.18
0
LINE
8
Black
10
127.372
20
-111.18
11
127.367
21
-111.115
0
LINE
8
Black
10
127.367
20
-111.115
11
127.332
21
-111.003
0
LINE
8
Black
10
127.332
20
-111.003
11
127.27
21
-110.909
0
LINE
8
Black
10
127.27
20
-110.909
11
127.184
21
-110.836
0
LINE
8
Black
10
127.184
20
-110.836
11
127.081
21
-110.789
0
LINE
8
Black
10
127.081
20
-110.789
11
126.96
21
-110.772
0
LINE
8
Black
10
126.96
20
-110.772
11
124.174
21
-110.772
0
LINE
8
Black
10
105.708
20
-111.654
11
105.553
21
-111.962
0
LINE
8
Black
10
105.553
20
-111.962
11
105.452
21
-112.324
0
LINE
8
Black
10
105.452
20
-112.324
11
105.424
21
-112.699
0
LINE
8
Black
10
105.424
20
-112.699
11
105.469
21
-113.072
0
LINE
8
Black
10
105.469
20
-113.072
11
105.587
21
-113.43
0
LINE
8
Black
10
105.587
20
-113.43
11
105.707
21
-113.655
0
LINE
8
Black
10
105.707
20
-113.655
11
105.893
21
-113.743
0
LINE
8
Black
10
105.893
20
-113.743
11
106.194
21
-113.442
0
LINE
8
Black
10
106.194
20
-113.442
11
106.123
21
-113.357
0
LINE
8
Black
10
106.123
20
-113.357
11
105.956
21
-112.899
0
LINE
8
Black
10
105.956
20
-112.899
11
105.956
21
-112.411
0
LINE
8
Black
10
105.956
20
-112.411
11
106.123
21
-111.952
0
LINE
8
Black
10
106.123
20
-111.952
11
106.194
21
-111.868
0
LINE
8
Black
10
106.194
20
-111.868
11
105.893
21
-111.567
0
LINE
8
Black
10
105.893
20
-111.567
11
105.708
21
-111.654
0
LINE
8
Black
10
108.487
20
-111.868
11
108.557
21
-111.952
0
LINE
8
Black
10
108.557
20
-111.952
11
108.724
21
-112.411
0
LINE
8
Black
10
108.724
20
-112.411
11
108.724
21
-112.899
0
LINE
8
Black
10
108.724
20
-112.899
11
108.557
21
-113.357
0
LINE
8
Black
10
108.557
20
-113.357
11
108.487
21
-113.442
0
LINE
8
Black
10
108.487
20
-113.442
11
108.787
21
-113.743
0
LINE
8
Black
10
108.787
20
-113.743
11
108.973
21
-113.655
0
LINE
8
Black
10
108.973
20
-113.655
11
109.128
21
-113.348
0
LINE
8
Black
10
109.128
20
-113.348
11
109.229
21
-112.986
0
LINE
8
Black
10
109.229
20
-112.986
11
109.257
21
-112.612
0
LINE
8
Black
10
109.257
20
-112.612
11
109.257
21
-112.612
0
LINE
8
Black
10
109.257
20
-112.612
11
109.257
21
-112.612
0
LINE
8
Black
10
109.257
20
-112.612
11
109.257
21
-112.611
0
LINE
8
Black
10
109.257
20
-112.611
11
109.212
21
-112.238
0
LINE
8
Black
10
109.212
20
-112.238
11
109.094
21
-111.879
0
LINE
8
Black
10
109.094
20
-111.879
11
108.974
21
-111.655
0
LINE
8
Black
10
108.974
20
-111.655
11
108.787
21
-111.567
0
LINE
8
Black
10
108.787
20
-111.567
11
108.487
21
-111.868
0
LINE
8
Black
10
187.886
20
-111.654
11
187.731
21
-111.962
0
LINE
8
Black
10
187.731
20
-111.962
11
187.63
21
-112.324
0
LINE
8
Black
10
187.63
20
-112.324
11
187.602
21
-112.699
0
LINE
8
Black
10
187.602
20
-112.699
11
187.647
21
-113.072
0
LINE
8
Black
10
187.647
20
-113.072
11
187.765
21
-113.43
0
LINE
8
Black
10
187.765
20
-113.43
11
187.885
21
-113.655
0
LINE
8
Black
10
187.885
20
-113.655
11
188.071
21
-113.743
0
LINE
8
Black
10
188.071
20
-113.743
11
188.372
21
-113.442
0
LINE
8
Black
10
188.372
20
-113.442
11
188.301
21
-113.357
0
LINE
8
Black
10
188.301
20
-113.357
11
188.134
21
-112.899
0
LINE
8
Black
10
188.134
20
-112.899
11
188.134
21
-112.411
0
LINE
8
Black
10
188.134
20
-112.411
11
188.301
21
-111.952
0
LINE
8
Black
10
188.301
20
-111.952
11
188.372
21
-111.868
0
LINE
8
Black
10
188.372
20
-111.868
11
188.071
21
-111.567
0
LINE
8
Black
10
188.071
20
-111.567
11
187.886
21
-111.654
0
LINE
8
Black
10
190.665
20
-111.868
11
190.735
21
-111.952
0
LINE
8
Black
10
190.735
20
-111.952
11
190.902
21
-112.411
0
LINE
8
Black
10
190.902
20
-112.411
11
190.902
21
-112.899
0
LINE
8
Black
10
190.902
20
-112.899
11
190.735
21
-113.357
0
LINE
8
Black
10
190.735
20
-113.357
11
190.665
21
-113.442
0
LINE
8
Black
10
190.665
20
-113.442
11
190.965
21
-113.743
0
LINE
8
Black
10
190.965
20
-113.743
11
191.151
21
-113.655
0
LINE
8
Black
10
191.151
20
-113.655
11
191.306
21
-113.348
0
LINE
8
Black
10
191.306
20
-113.348
11
191.407
21
-112.986
0
LINE
8
Black
10
191.407
20
-112.986
11
191.435
21
-112.611
0
LINE
8
Black
10
191.435
20
-112.611
11
191.39
21
-112.238
0
LINE
8
Black
10
191.39
20
-112.238
11
191.272
21
-111.879
0
LINE
8
Black
10
191.272
20
-111.879
11
191.152
21
-111.655
0
LINE
8
Black
10
191.152
20
-111.655
11
190.965
21
-111.567
0
LINE
8
Black
10
190.965
20
-111.567
11
190.665
21
-111.868
0
LINE
8
Black
10
119.737
20
-111.574
11
119.582
21
-111.882
0
LINE
8
Black
10
119.582
20
-111.882
11
119.481
21
-112.244
0
LINE
8
Black
10
119.481
20
-112.244
11
119.453
21
-112.618
0
LINE
8
Black
10
119.453
20
-112.618
11
119.498
21
-112.992
0
LINE
8
Black
10
119.498
20
-112.992
11
119.616
21
-113.35
0
LINE
8
Black
10
119.616
20
-113.35
11
119.736
21
-113.575
0
LINE
8
Black
10
119.736
20
-113.575
11
119.922
21
-113.662
0
LINE
8
Black
10
119.922
20
-113.662
11
120.223
21
-113.362
0
LINE
8
Black
10
120.223
20
-113.362
11
120.152
21
-113.277
0
LINE
8
Black
10
120.152
20
-113.277
11
119.985
21
-112.819
0
LINE
8
Black
10
119.985
20
-112.819
11
119.985
21
-112.331
0
LINE
8
Black
10
119.985
20
-112.331
11
120.152
21
-111.872
0
LINE
8
Black
10
120.152
20
-111.872
11
120.223
21
-111.788
0
LINE
8
Black
10
120.223
20
-111.788
11
119.922
21
-111.487
0
LINE
8
Black
10
119.922
20
-111.487
11
119.737
21
-111.574
0
LINE
8
Black
10
122.516
20
-111.788
11
122.586
21
-111.872
0
LINE
8
Black
10
122.586
20
-111.872
11
122.753
21
-112.331
0
LINE
8
Black
10
122.753
20
-112.331
11
122.753
21
-112.819
0
LINE
8
Black
10
122.753
20
-112.819
11
122.586
21
-113.277
0
LINE
8
Black
10
122.586
20
-113.277
11
122.516
21
-113.362
0
LINE
8
Black
10
122.516
20
-113.362
11
122.816
21
-113.662
0
LINE
8
Black
10
122.816
20
-113.662
11
123.002
21
-113.575
0
LINE
8
Black
10
123.002
20
-113.575
11
123.157
21
-113.268
0
LINE
8
Black
10
123.157
20
-113.268
11
123.258
21
-112.905
0
LINE
8
Black
10
123.258
20
-112.905
11
123.286
21
-112.531
0
LINE
8
Black
10
123.286
20
-112.531
11
123.241
21
-112.158
0
LINE
8
Black
10
123.241
20
-112.158
11
123.123
21
-111.799
0
LINE
8
Black
10
123.123
20
-111.799
11
123.003
21
-111.575
0
LINE
8
Black
10
123.003
20
-111.575
11
122.816
21
-111.487
0
LINE
8
Black
10
122.816
20
-111.487
11
122.516
21
-111.788
0
LINE
8
Black
10
173.857
20
-111.574
11
173.702
21
-111.882
0
LINE
8
Black
10
173.702
20
-111.882
11
173.601
21
-112.244
0
LINE
8
Black
10
173.601
20
-112.244
11
173.573
21
-112.618
0
LINE
8
Black
10
173.573
20
-112.618
11
173.618
21
-112.992
0
LINE
8
Black
10
173.618
20
-112.992
11
173.736
21
-113.35
0
LINE
8
Black
10
173.736
20
-113.35
11
173.856
21
-113.575
0
LINE
8
Black
10
173.856
20
-113.575
11
174.042
21
-113.662
0
LINE
8
Black
10
174.042
20
-113.662
11
174.343
21
-113.362
0
LINE
8
Black
10
174.343
20
-113.362
11
174.272
21
-113.277
0
LINE
8
Black
10
174.272
20
-113.277
11
174.105
21
-112.819
0
LINE
8
Black
10
174.105
20
-112.819
11
174.105
21
-112.331
0
LINE
8
Black
10
174.105
20
-112.331
11
174.272
21
-111.872
0
LINE
8
Black
10
174.272
20
-111.872
11
174.343
21
-111.788
0
LINE
8
Black
10
174.343
20
-111.788
11
174.042
21
-111.487
0
LINE
8
Black
10
174.042
20
-111.487
11
173.857
21
-111.574
0
LINE
8
Black
10
176.636
20
-111.788
11
176.706
21
-111.872
0
LINE
8
Black
10
176.706
20
-111.872
11
176.873
21
-112.331
0
LINE
8
Black
10
176.873
20
-112.331
11
176.873
21
-112.819
0
LINE
8
Black
10
176.873
20
-112.819
11
176.706
21
-113.277
0
LINE
8
Black
10
176.706
20
-113.277
11
176.636
21
-113.362
0
LINE
8
Black
10
176.636
20
-113.362
11
176.936
21
-113.662
0
LINE
8
Black
10
176.936
20
-113.662
11
177.122
21
-113.575
0
LINE
8
Black
10
177.122
20
-113.575
11
177.277
21
-113.268
0
LINE
8
Black
10
177.277
20
-113.268
11
177.378
21
-112.905
0
LINE
8
Black
10
177.378
20
-112.905
11
177.394
21
-112.692
0
LINE
8
Black
10
177.394
20
-112.692
11
177.406
21
-112.531
0
LINE
8
Black
10
177.406
20
-112.531
11
177.361
21
-112.158
0
LINE
8
Black
10
177.361
20
-112.158
11
177.243
21
-111.799
0
LINE
8
Black
10
177.243
20
-111.799
11
177.123
21
-111.575
0
LINE
8
Black
10
177.123
20
-111.575
11
176.936
21
-111.487
0
LINE
8
Black
10
176.936
20
-111.487
11
176.636
21
-111.788
0
LINE
8
Black
10
106.923
20
-110.783
11
106.565
21
-110.901
0
LINE
8
Black
10
106.565
20
-110.901
11
106.34
21
-111.021
0
LINE
8
Black
10
106.34
20
-111.021
11
106.253
21
-111.208
0
LINE
8
Black
10
106.253
20
-111.208
11
106.555
21
-111.51
0
LINE
8
Black
10
106.555
20
-111.51
11
106.86
21
-111.334
0
LINE
8
Black
10
106.86
20
-111.334
11
107.34
21
-111.249
0
LINE
8
Black
10
107.34
20
-111.249
11
107.821
21
-111.334
0
LINE
8
Black
10
107.821
20
-111.334
11
108.126
21
-111.51
0
LINE
8
Black
10
108.126
20
-111.51
11
108.428
21
-111.208
0
LINE
8
Black
10
108.428
20
-111.208
11
108.341
21
-111.023
0
LINE
8
Black
10
108.341
20
-111.023
11
108.033
21
-110.867
0
LINE
8
Black
10
108.033
20
-110.867
11
107.671
21
-110.766
0
LINE
8
Black
10
107.671
20
-110.766
11
107.297
21
-110.738
0
LINE
8
Black
10
107.297
20
-110.738
11
106.923
21
-110.783
0
LINE
8
Black
10
189.101
20
-110.783
11
188.743
21
-110.901
0
LINE
8
Black
10
188.743
20
-110.901
11
188.518
21
-111.021
0
LINE
8
Black
10
188.518
20
-111.021
11
188.431
21
-111.208
0
LINE
8
Black
10
188.431
20
-111.208
11
188.733
21
-111.51
0
LINE
8
Black
10
188.733
20
-111.51
11
189.038
21
-111.334
0
LINE
8
Black
10
189.038
20
-111.334
11
189.518
21
-111.249
0
LINE
8
Black
10
189.518
20
-111.249
11
189.999
21
-111.334
0
LINE
8
Black
10
189.999
20
-111.334
11
190.304
21
-111.51
0
LINE
8
Black
10
190.304
20
-111.51
11
190.606
21
-111.208
0
LINE
8
Black
10
190.606
20
-111.208
11
190.519
21
-111.023
0
LINE
8
Black
10
190.519
20
-111.023
11
190.211
21
-110.867
0
LINE
8
Black
10
190.211
20
-110.867
11
189.849
21
-110.766
0
LINE
8
Black
10
189.849
20
-110.766
11
189.475
21
-110.738
0
LINE
8
Black
10
189.475
20
-110.738
11
189.101
21
-110.783
0
LINE
8
Black
10
175.072
20
-110.703
11
174.714
21
-110.821
0
LINE
8
Black
10
174.714
20
-110.821
11
174.489
21
-110.941
0
LINE
8
Black
10
174.489
20
-110.941
11
174.402
21
-111.127
0
LINE
8
Black
10
174.402
20
-111.127
11
174.704
21
-111.43
0
LINE
8
Black
10
174.704
20
-111.43
11
175.009
21
-111.254
0
LINE
8
Black
10
175.009
20
-111.254
11
175.489
21
-111.169
0
LINE
8
Black
10
175.489
20
-111.169
11
175.97
21
-111.254
0
LINE
8
Black
10
175.97
20
-111.254
11
176.275
21
-111.43
0
LINE
8
Black
10
176.275
20
-111.43
11
176.56
21
-111.145
0
LINE
8
Black
10
176.56
20
-111.145
11
176.56
21
-111.145
0
LINE
8
Black
10
176.56
20
-111.145
11
176.577
21
-111.127
0
LINE
8
Black
10
176.577
20
-111.127
11
176.49
21
-110.942
0
LINE
8
Black
10
176.49
20
-110.942
11
176.182
21
-110.787
0
LINE
8
Black
10
176.182
20
-110.787
11
175.82
21
-110.686
0
LINE
8
Black
10
175.82
20
-110.686
11
175.446
21
-110.658
0
LINE
8
Black
10
175.446
20
-110.658
11
175.072
21
-110.703
0
LINE
8
Black
10
120.952
20
-110.703
11
120.594
21
-110.821
0
LINE
8
Black
10
120.594
20
-110.821
11
120.369
21
-110.941
0
LINE
8
Black
10
120.369
20
-110.941
11
120.282
21
-111.127
0
LINE
8
Black
10
120.282
20
-111.127
11
120.584
21
-111.43
0
LINE
8
Black
10
120.584
20
-111.43
11
120.889
21
-111.254
0
LINE
8
Black
10
120.889
20
-111.254
11
121.369
21
-111.169
0
LINE
8
Black
10
121.369
20
-111.169
11
121.85
21
-111.254
0
LINE
8
Black
10
121.85
20
-111.254
11
122.155
21
-111.43
0
LINE
8
Black
10
122.155
20
-111.43
11
122.457
21
-111.127
0
LINE
8
Black
10
122.457
20
-111.127
11
122.37
21
-110.942
0
LINE
8
Black
10
122.37
20
-110.942
11
122.062
21
-110.787
0
LINE
8
Black
10
122.062
20
-110.787
11
121.7
21
-110.686
0
LINE
8
Black
10
121.7
20
-110.686
11
121.326
21
-110.658
0
LINE
8
Black
10
121.326
20
-110.658
11
120.952
21
-110.703
0
LINE
8
Black
10
188.123
20
-106.652
11
188.059
21
-106.657
0
LINE
8
Black
10
188.059
20
-106.657
11
187.947
21
-106.692
0
LINE
8
Black
10
187.947
20
-106.692
11
187.853
21
-106.754
0
LINE
8
Black
10
187.853
20
-106.754
11
187.779
21
-106.84
0
LINE
8
Black
10
187.779
20
-106.84
11
187.733
21
-106.943
0
LINE
8
Black
10
187.733
20
-106.943
11
187.716
21
-107.064
0
LINE
8
Black
10
187.716
20
-107.064
11
187.716
21
-109.85
0
LINE
8
Black
10
187.716
20
-109.85
11
187.721
21
-109.915
0
LINE
8
Black
10
187.721
20
-109.915
11
187.756
21
-110.026
0
LINE
8
Black
10
187.756
20
-110.026
11
187.818
21
-110.121
0
LINE
8
Black
10
187.818
20
-110.121
11
187.904
21
-110.194
0
LINE
8
Black
10
187.904
20
-110.194
11
188.007
21
-110.24
0
LINE
8
Black
10
188.007
20
-110.24
11
188.127
21
-110.257
0
LINE
8
Black
10
188.127
20
-110.257
11
190.913
21
-110.257
0
LINE
8
Black
10
190.913
20
-110.257
11
190.978
21
-110.252
0
LINE
8
Black
10
190.978
20
-110.252
11
191.09
21
-110.218
0
LINE
8
Black
10
191.09
20
-110.218
11
191.184
21
-110.155
0
LINE
8
Black
10
191.184
20
-110.155
11
191.257
21
-110.07
0
LINE
8
Black
10
191.257
20
-110.07
11
191.304
21
-109.967
0
LINE
8
Black
10
191.304
20
-109.967
11
191.321
21
-109.846
0
LINE
8
Black
10
191.321
20
-109.846
11
191.321
21
-107.06
0
LINE
8
Black
10
191.321
20
-107.06
11
191.316
21
-106.995
0
LINE
8
Black
10
191.316
20
-106.995
11
191.281
21
-106.883
0
LINE
8
Black
10
191.281
20
-106.883
11
191.219
21
-106.789
0
LINE
8
Black
10
191.219
20
-106.789
11
191.133
21
-106.716
0
LINE
8
Black
10
191.133
20
-106.716
11
191.03
21
-106.669
0
LINE
8
Black
10
191.03
20
-106.669
11
190.909
21
-106.652
0
LINE
8
Black
10
190.909
20
-106.652
11
188.123
21
-106.652
0
LINE
8
Black
10
105.945
20
-106.652
11
105.881
21
-106.657
0
LINE
8
Black
10
105.881
20
-106.657
11
105.769
21
-106.692
0
LINE
8
Black
10
105.769
20
-106.692
11
105.675
21
-106.754
0
LINE
8
Black
10
105.675
20
-106.754
11
105.601
21
-106.84
0
LINE
8
Black
10
105.601
20
-106.84
11
105.555
21
-106.943
0
LINE
8
Black
10
105.555
20
-106.943
11
105.538
21
-107.064
0
LINE
8
Black
10
105.538
20
-107.064
11
105.538
21
-109.85
0
LINE
8
Black
10
105.538
20
-109.85
11
105.543
21
-109.915
0
LINE
8
Black
10
105.543
20
-109.915
11
105.578
21
-110.026
0
LINE
8
Black
10
105.578
20
-110.026
11
105.64
21
-110.121
0
LINE
8
Black
10
105.64
20
-110.121
11
105.726
21
-110.194
0
LINE
8
Black
10
105.726
20
-110.194
11
105.829
21
-110.24
0
LINE
8
Black
10
105.829
20
-110.24
11
105.949
21
-110.257
0
LINE
8
Black
10
105.949
20
-110.257
11
108.735
21
-110.257
0
LINE
8
Black
10
108.735
20
-110.257
11
108.8
21
-110.252
0
LINE
8
Black
10
108.8
20
-110.252
11
108.912
21
-110.218
0
LINE
8
Black
10
108.912
20
-110.218
11
109.006
21
-110.155
0
LINE
8
Black
10
109.006
20
-110.155
11
109.079
21
-110.07
0
LINE
8
Black
10
109.079
20
-110.07
11
109.126
21
-109.967
0
LINE
8
Black
10
109.126
20
-109.967
11
109.143
21
-109.846
0
LINE
8
Black
10
109.143
20
-109.846
11
109.143
21
-107.06
0
LINE
8
Black
10
109.143
20
-107.06
11
109.138
21
-106.995
0
LINE
8
Black
10
109.138
20
-106.995
11
109.103
21
-106.883
0
LINE
8
Black
10
109.103
20
-106.883
11
109.041
21
-106.789
0
LINE
8
Black
10
109.041
20
-106.789
11
108.955
21
-106.716
0
LINE
8
Black
10
108.955
20
-106.716
11
108.852
21
-106.669
0
LINE
8
Black
10
108.852
20
-106.669
11
108.731
21
-106.652
0
LINE
8
Black
10
108.731
20
-106.652
11
105.945
21
-106.652
0
LINE
8
Black
10
188.123
20
-99.9079
11
188.059
21
-99.913
0
LINE
8
Black
10
188.059
20
-99.913
11
187.947
21
-99.9476
0
LINE
8
Black
10
187.947
20
-99.9476
11
187.853
21
-100.01
0
LINE
8
Black
10
187.853
20
-100.01
11
187.779
21
-100.096
0
LINE
8
Black
10
187.779
20
-100.096
11
187.733
21
-100.199
0
LINE
8
Black
10
187.733
20
-100.199
11
187.716
21
-100.319
0
LINE
8
Black
10
187.716
20
-100.319
11
187.716
21
-103.105
0
LINE
8
Black
10
187.716
20
-103.105
11
187.721
21
-103.17
0
LINE
8
Black
10
187.721
20
-103.17
11
187.756
21
-103.282
0
LINE
8
Black
10
187.756
20
-103.282
11
187.818
21
-103.376
0
LINE
8
Black
10
187.818
20
-103.376
11
187.904
21
-103.449
0
LINE
8
Black
10
187.904
20
-103.449
11
188.007
21
-103.496
0
LINE
8
Black
10
188.007
20
-103.496
11
188.127
21
-103.513
0
LINE
8
Black
10
188.127
20
-103.513
11
190.913
21
-103.513
0
LINE
8
Black
10
190.913
20
-103.513
11
190.978
21
-103.508
0
LINE
8
Black
10
190.978
20
-103.508
11
191.09
21
-103.473
0
LINE
8
Black
10
191.09
20
-103.473
11
191.184
21
-103.411
0
LINE
8
Black
10
191.184
20
-103.411
11
191.257
21
-103.325
0
LINE
8
Black
10
191.257
20
-103.325
11
191.304
21
-103.222
0
LINE
8
Black
10
191.304
20
-103.222
11
191.321
21
-103.101
0
LINE
8
Black
10
191.321
20
-103.101
11
191.321
21
-100.315
0
LINE
8
Black
10
191.321
20
-100.315
11
191.316
21
-100.251
0
LINE
8
Black
10
191.316
20
-100.251
11
191.281
21
-100.139
0
LINE
8
Black
10
191.281
20
-100.139
11
191.219
21
-100.045
0
LINE
8
Black
10
191.219
20
-100.045
11
191.133
21
-99.9714
0
LINE
8
Black
10
191.133
20
-99.9714
11
191.03
21
-99.925
0
LINE
8
Black
10
191.03
20
-99.925
11
190.909
21
-99.9079
0
LINE
8
Black
10
190.909
20
-99.9079
11
188.123
21
-99.9079
0
LINE
8
Black
10
105.945
20
-99.9079
11
105.881
21
-99.913
0
LINE
8
Black
10
105.881
20
-99.913
11
105.769
21
-99.9476
0
LINE
8
Black
10
105.769
20
-99.9476
11
105.675
21
-100.01
0
LINE
8
Black
10
105.675
20
-100.01
11
105.601
21
-100.096
0
LINE
8
Black
10
105.601
20
-100.096
11
105.555
21
-100.199
0
LINE
8
Black
10
105.555
20
-100.199
11
105.538
21
-100.319
0
LINE
8
Black
10
105.538
20
-100.319
11
105.538
21
-103.105
0
LINE
8
Black
10
105.538
20
-103.105
11
105.543
21
-103.17
0
LINE
8
Black
10
105.543
20
-103.17
11
105.578
21
-103.282
0
LINE
8
Black
10
105.578
20
-103.282
11
105.64
21
-103.376
0
LINE
8
Black
10
105.64
20
-103.376
11
105.726
21
-103.449
0
LINE
8
Black
10
105.726
20
-103.449
11
105.829
21
-103.496
0
LINE
8
Black
10
105.829
20
-103.496
11
105.949
21
-103.513
0
LINE
8
Black
10
105.949
20
-103.513
11
108.735
21
-103.513
0
LINE
8
Black
10
108.735
20
-103.513
11
108.8
21
-103.508
0
LINE
8
Black
10
108.8
20
-103.508
11
108.912
21
-103.473
0
LINE
8
Black
10
108.912
20
-103.473
11
109.006
21
-103.411
0
LINE
8
Black
10
109.006
20
-103.411
11
109.079
21
-103.325
0
LINE
8
Black
10
109.079
20
-103.325
11
109.126
21
-103.222
0
LINE
8
Black
10
109.126
20
-103.222
11
109.143
21
-103.101
0
LINE
8
Black
10
109.143
20
-103.101
11
109.143
21
-100.315
0
LINE
8
Black
10
109.143
20
-100.315
11
109.138
21
-100.251
0
LINE
8
Black
10
109.138
20
-100.251
11
109.103
21
-100.139
0
LINE
8
Black
10
109.103
20
-100.139
11
109.041
21
-100.045
0
LINE
8
Black
10
109.041
20
-100.045
11
108.955
21
-99.9714
0
LINE
8
Black
10
108.955
20
-99.9714
11
108.852
21
-99.925
0
LINE
8
Black
10
108.852
20
-99.925
11
108.731
21
-99.9079
0
LINE
8
Black
10
108.731
20
-99.9079
11
105.945
21
-99.9079
0
LINE
8
Black
10
121.85
20
-98.9092
11
121.369
21
-98.9939
0
LINE
8
Black
10
121.369
20
-98.9939
11
120.889
21
-98.9092
0
LINE
8
Black
10
120.889
20
-98.9092
11
120.584
21
-98.7332
0
LINE
8
Black
10
120.584
20
-98.7332
11
120.282
21
-99.0357
0
LINE
8
Black
10
120.282
20
-99.0357
11
120.369
21
-99.2207
0
LINE
8
Black
10
120.369
20
-99.2207
11
120.676
21
-99.3762
0
LINE
8
Black
10
120.676
20
-99.3762
11
121.038
21
-99.477
0
LINE
8
Black
10
121.038
20
-99.477
11
121.413
21
-99.5053
0
LINE
8
Black
10
121.413
20
-99.5053
11
121.786
21
-99.4599
0
LINE
8
Black
10
121.786
20
-99.4599
11
122.145
21
-99.3422
0
LINE
8
Black
10
122.145
20
-99.3422
11
122.369
21
-99.2222
0
LINE
8
Black
10
122.369
20
-99.2222
11
122.457
21
-99.0357
0
LINE
8
Black
10
122.457
20
-99.0357
11
122.155
21
-98.7332
0
LINE
8
Black
10
122.155
20
-98.7332
11
121.85
21
-98.9092
0
LINE
8
Black
10
175.97
20
-98.9092
11
175.489
21
-98.9939
0
LINE
8
Black
10
175.489
20
-98.9939
11
175.009
21
-98.9092
0
LINE
8
Black
10
175.009
20
-98.9092
11
174.704
21
-98.7332
0
LINE
8
Black
10
174.704
20
-98.7332
11
174.402
21
-99.0357
0
LINE
8
Black
10
174.402
20
-99.0357
11
174.489
21
-99.2207
0
LINE
8
Black
10
174.489
20
-99.2207
11
174.796
21
-99.3762
0
LINE
8
Black
10
174.796
20
-99.3762
11
175.158
21
-99.477
0
LINE
8
Black
10
175.158
20
-99.477
11
175.533
21
-99.5053
0
LINE
8
Black
10
175.533
20
-99.5053
11
175.906
21
-99.4599
0
LINE
8
Black
10
175.906
20
-99.4599
11
176.265
21
-99.3422
0
LINE
8
Black
10
176.265
20
-99.3422
11
176.489
21
-99.2222
0
LINE
8
Black
10
176.489
20
-99.2222
11
176.577
21
-99.0357
0
LINE
8
Black
10
176.577
20
-99.0357
11
176.562
21
-99.0206
0
LINE
8
Black
10
176.562
20
-99.0206
11
176.275
21
-98.7332
0
LINE
8
Black
10
176.275
20
-98.7332
11
175.97
21
-98.9092
0
LINE
8
Black
10
107.821
20
-98.831
11
107.34
21
-98.9157
0
LINE
8
Black
10
107.34
20
-98.9157
11
106.86
21
-98.831
0
LINE
8
Black
10
106.86
20
-98.831
11
106.555
21
-98.655
0
LINE
8
Black
10
106.555
20
-98.655
11
106.253
21
-98.9575
0
LINE
8
Black
10
106.253
20
-98.9575
11
106.34
21
-99.1425
0
LINE
8
Black
10
106.34
20
-99.1425
11
106.647
21
-99.298
0
LINE
8
Black
10
106.647
20
-99.298
11
107.009
21
-99.3989
0
LINE
8
Black
10
107.009
20
-99.3989
11
107.384
21
-99.4271
0
LINE
8
Black
10
107.384
20
-99.4271
11
107.757
21
-99.3817
0
LINE
8
Black
10
107.757
20
-99.3817
11
108.116
21
-99.264
0
LINE
8
Black
10
108.116
20
-99.264
11
108.34
21
-99.144
0
LINE
8
Black
10
108.34
20
-99.144
11
108.428
21
-98.9575
0
LINE
8
Black
10
108.428
20
-98.9575
11
108.126
21
-98.655
0
LINE
8
Black
10
108.126
20
-98.655
11
107.821
21
-98.831
0
LINE
8
Black
10
189.999
20
-98.831
11
189.518
21
-98.9157
0
LINE
8
Black
10
189.518
20
-98.9157
11
189.038
21
-98.831
0
LINE
8
Black
10
189.038
20
-98.831
11
188.733
21
-98.655
0
LINE
8
Black
10
188.733
20
-98.655
11
188.431
21
-98.9575
0
LINE
8
Black
10
188.431
20
-98.9575
11
188.518
21
-99.1425
0
LINE
8
Black
10
188.518
20
-99.1425
11
188.825
21
-99.298
0
LINE
8
Black
10
188.825
20
-99.298
11
189.187
21
-99.3989
0
LINE
8
Black
10
189.187
20
-99.3989
11
189.562
21
-99.4271
0
LINE
8
Black
10
189.562
20
-99.4271
11
189.935
21
-99.3817
0
LINE
8
Black
10
189.935
20
-99.3817
11
190.294
21
-99.264
0
LINE
8
Black
10
190.294
20
-99.264
11
190.518
21
-99.144
0
LINE
8
Black
10
190.518
20
-99.144
11
190.606
21
-98.9575
0
LINE
8
Black
10
190.606
20
-98.9575
11
190.304
21
-98.655
0
LINE
8
Black
10
190.304
20
-98.655
11
189.999
21
-98.831
0
LINE
8
Black
10
169.894
20
-95.786
11
169.83
21
-95.7912
0
LINE
8
Black
10
169.83
20
-95.7912
11
169.718
21
-95.8258
0
LINE
8
Black
10
169.718
20
-95.8258
11
169.624
21
-95.8879
0
LINE
8
Black
10
169.624
20
-95.8879
11
169.55
21
-95.9738
0
LINE
8
Black
10
169.55
20
-95.9738
11
169.504
21
-96.0768
0
LINE
8
Black
10
169.504
20
-96.0768
11
169.487
21
-96.1976
0
LINE
8
Black
10
169.487
20
-96.1976
11
169.487
21
-98.9835
0
LINE
8
Black
10
169.487
20
-98.9835
11
169.492
21
-99.0484
0
LINE
8
Black
10
169.492
20
-99.0484
11
169.527
21
-99.16
0
LINE
8
Black
10
169.527
20
-99.16
11
169.589
21
-99.2543
0
LINE
8
Black
10
169.589
20
-99.2543
11
169.675
21
-99.3276
0
LINE
8
Black
10
169.675
20
-99.3276
11
169.778
21
-99.374
0
LINE
8
Black
10
169.778
20
-99.374
11
169.898
21
-99.3911
0
LINE
8
Black
10
169.898
20
-99.3911
11
172.684
21
-99.3911
0
LINE
8
Black
10
172.684
20
-99.3911
11
172.749
21
-99.386
0
LINE
8
Black
10
172.749
20
-99.386
11
172.861
21
-99.3514
0
LINE
8
Black
10
172.861
20
-99.3514
11
172.955
21
-99.2892
0
LINE
8
Black
10
172.955
20
-99.2892
11
173.028
21
-99.2033
0
LINE
8
Black
10
173.028
20
-99.2033
11
173.075
21
-99.1004
0
LINE
8
Black
10
173.075
20
-99.1004
11
173.09
21
-98.9912
0
LINE
8
Black
10
173.09
20
-98.9912
11
173.09
21
-98.9912
0
LINE
8
Black
10
173.09
20
-98.9912
11
173.092
21
-98.9796
0
LINE
8
Black
10
173.092
20
-98.9796
11
173.092
21
-97.6354
0
LINE
8
Black
10
173.092
20
-97.6354
11
173.092
21
-96.1936
0
LINE
8
Black
10
173.092
20
-96.1936
11
173.091
21
-96.1782
0
LINE
8
Black
10
173.091
20
-96.1782
11
173.087
21
-96.1288
0
LINE
8
Black
10
173.087
20
-96.1288
11
173.052
21
-96.0171
0
LINE
8
Black
10
173.052
20
-96.0171
11
172.99
21
-95.9228
0
LINE
8
Black
10
172.99
20
-95.9228
11
172.904
21
-95.8496
0
LINE
8
Black
10
172.904
20
-95.8496
11
172.801
21
-95.8032
0
LINE
8
Black
10
172.801
20
-95.8032
11
172.68
21
-95.786
0
LINE
8
Black
10
172.68
20
-95.786
11
169.894
21
-95.786
0
LINE
8
Black
10
124.174
20
-95.786
11
124.11
21
-95.7912
0
LINE
8
Black
10
124.11
20
-95.7912
11
123.998
21
-95.8258
0
LINE
8
Black
10
123.998
20
-95.8258
11
123.904
21
-95.8879
0
LINE
8
Black
10
123.904
20
-95.8879
11
123.83
21
-95.9738
0
LINE
8
Black
10
123.83
20
-95.9738
11
123.784
21
-96.0768
0
LINE
8
Black
10
123.784
20
-96.0768
11
123.767
21
-96.1976
0
LINE
8
Black
10
123.767
20
-96.1976
11
123.767
21
-98.9835
0
LINE
8
Black
10
123.767
20
-98.9835
11
123.772
21
-99.0484
0
LINE
8
Black
10
123.772
20
-99.0484
11
123.807
21
-99.16
0
LINE
8
Black
10
123.807
20
-99.16
11
123.869
21
-99.2543
0
LINE
8
Black
10
123.869
20
-99.2543
11
123.955
21
-99.3276
0
LINE
8
Black
10
123.955
20
-99.3276
11
124.058
21
-99.374
0
LINE
8
Black
10
124.058
20
-99.374
11
124.178
21
-99.3911
0
LINE
8
Black
10
124.178
20
-99.3911
11
126.964
21
-99.3911
0
LINE
8
Black
10
126.964
20
-99.3911
11
127.029
21
-99.386
0
LINE
8
Black
10
127.029
20
-99.386
11
127.141
21
-99.3514
0
LINE
8
Black
10
127.141
20
-99.3514
11
127.235
21
-99.2892
0
LINE
8
Black
10
127.235
20
-99.2892
11
127.308
21
-99.2033
0
LINE
8
Black
10
127.308
20
-99.2033
11
127.355
21
-99.1004
0
LINE
8
Black
10
127.355
20
-99.1004
11
127.372
21
-98.9796
0
LINE
8
Black
10
127.372
20
-98.9796
11
127.372
21
-96.1936
0
LINE
8
Black
10
127.372
20
-96.1936
11
127.367
21
-96.1288
0
LINE
8
Black
10
127.367
20
-96.1288
11
127.332
21
-96.0171
0
LINE
8
Black
10
127.332
20
-96.0171
11
127.27
21
-95.9228
0
LINE
8
Black
10
127.27
20
-95.9228
11
127.184
21
-95.8496
0
LINE
8
Black
10
127.184
20
-95.8496
11
127.081
21
-95.8032
0
LINE
8
Black
10
127.081
20
-95.8032
11
126.96
21
-95.786
0
LINE
8
Black
10
126.96
20
-95.786
11
124.174
21
-95.786
0
LINE
8
Black
10
119.737
20
-96.588
11
119.582
21
-96.8956
0
LINE
8
Black
10
119.582
20
-96.8956
11
119.481
21
-97.2577
0
LINE
8
Black
10
119.481
20
-97.2577
11
119.453
21
-97.6324
0
LINE
8
Black
10
119.453
20
-97.6324
11
119.498
21
-98.0055
0
LINE
8
Black
10
119.498
20
-98.0055
11
119.616
21
-98.364
0
LINE
8
Black
10
119.616
20
-98.364
11
119.736
21
-98.5885
0
LINE
8
Black
10
119.736
20
-98.5885
11
119.922
21
-98.6764
0
LINE
8
Black
10
119.922
20
-98.6764
11
120.223
21
-98.3756
0
LINE
8
Black
10
120.223
20
-98.3756
11
120.152
21
-98.2912
0
LINE
8
Black
10
120.152
20
-98.2912
11
119.985
21
-97.8326
0
LINE
8
Black
10
119.985
20
-97.8326
11
119.985
21
-97.3445
0
LINE
8
Black
10
119.985
20
-97.3445
11
120.152
21
-96.8859
0
LINE
8
Black
10
120.152
20
-96.8859
11
120.223
21
-96.8015
0
LINE
8
Black
10
120.223
20
-96.8015
11
119.922
21
-96.5007
0
LINE
8
Black
10
119.922
20
-96.5007
11
119.737
21
-96.588
0
LINE
8
Black
10
122.516
20
-96.8015
11
122.586
21
-96.8859
0
LINE
8
Black
10
122.586
20
-96.8859
11
122.753
21
-97.3445
0
LINE
8
Black
10
122.753
20
-97.3445
11
122.753
21
-97.8326
0
LINE
8
Black
10
122.753
20
-97.8326
11
122.586
21
-98.2912
0
LINE
8
Black
10
122.586
20
-98.2912
11
122.516
21
-98.3756
0
LINE
8
Black
10
122.516
20
-98.3756
11
122.816
21
-98.6764
0
LINE
8
Black
10
122.816
20
-98.6764
11
123.002
21
-98.5892
0
LINE
8
Black
10
123.002
20
-98.5892
11
123.157
21
-98.2816
0
LINE
8
Black
10
123.157
20
-98.2816
11
123.258
21
-97.9195
0
LINE
8
Black
10
123.258
20
-97.9195
11
123.286
21
-97.5447
0
LINE
8
Black
10
123.286
20
-97.5447
11
123.241
21
-97.1716
0
LINE
8
Black
10
123.241
20
-97.1716
11
123.123
21
-96.8132
0
LINE
8
Black
10
123.123
20
-96.8132
11
123.003
21
-96.5887
0
LINE
8
Black
10
123.003
20
-96.5887
11
122.816
21
-96.5007
0
LINE
8
Black
10
122.816
20
-96.5007
11
122.516
21
-96.8015
0
LINE
8
Black
10
173.857
20
-96.588
11
173.702
21
-96.8956
0
LINE
8
Black
10
173.702
20
-96.8956
11
173.601
21
-97.2577
0
LINE
8
Black
10
173.601
20
-97.2577
11
173.573
21
-97.6324
0
LINE
8
Black
10
173.573
20
-97.6324
11
173.618
21
-98.0055
0
LINE
8
Black
10
173.618
20
-98.0055
11
173.736
21
-98.364
0
LINE
8
Black
10
173.736
20
-98.364
11
173.856
21
-98.5885
0
LINE
8
Black
10
173.856
20
-98.5885
11
174.042
21
-98.6764
0
LINE
8
Black
10
174.042
20
-98.6764
11
174.343
21
-98.3756
0
LINE
8
Black
10
174.343
20
-98.3756
11
174.272
21
-98.2912
0
LINE
8
Black
10
174.272
20
-98.2912
11
174.105
21
-97.8326
0
LINE
8
Black
10
174.105
20
-97.8326
11
174.105
21
-97.3445
0
LINE
8
Black
10
174.105
20
-97.3445
11
174.272
21
-96.8859
0
LINE
8
Black
10
174.272
20
-96.8859
11
174.343
21
-96.8015
0
LINE
8
Black
10
174.343
20
-96.8015
11
174.042
21
-96.5007
0
LINE
8
Black
10
174.042
20
-96.5007
11
173.857
21
-96.588
0
LINE
8
Black
10
176.636
20
-96.8015
11
176.706
21
-96.8859
0
LINE
8
Black
10
176.706
20
-96.8859
11
176.873
21
-97.3445
0
LINE
8
Black
10
176.873
20
-97.3445
11
176.873
21
-97.8326
0
LINE
8
Black
10
176.873
20
-97.8326
11
176.706
21
-98.2912
0
LINE
8
Black
10
176.706
20
-98.2912
11
176.636
21
-98.3756
0
LINE
8
Black
10
176.636
20
-98.3756
11
176.936
21
-98.6764
0
LINE
8
Black
10
176.936
20
-98.6764
11
177.122
21
-98.5892
0
LINE
8
Black
10
177.122
20
-98.5892
11
177.277
21
-98.2816
0
LINE
8
Black
10
177.277
20
-98.2816
11
177.378
21
-97.9195
0
LINE
8
Black
10
177.378
20
-97.9195
11
177.406
21
-97.5476
0
LINE
8
Black
10
177.406
20
-97.5476
11
177.406
21
-97.5476
0
LINE
8
Black
10
177.406
20
-97.5476
11
177.406
21
-97.5476
0
LINE
8
Black
10
177.406
20
-97.5476
11
177.406
21
-97.5447
0
LINE
8
Black
10
177.406
20
-97.5447
11
177.361
21
-97.1716
0
LINE
8
Black
10
177.361
20
-97.1716
11
177.243
21
-96.8132
0
LINE
8
Black
10
177.243
20
-96.8132
11
177.123
21
-96.5887
0
LINE
8
Black
10
177.123
20
-96.5887
11
176.936
21
-96.5007
0
LINE
8
Black
10
176.936
20
-96.5007
11
176.636
21
-96.8015
0
LINE
8
Black
10
105.708
20
-96.5098
11
105.553
21
-96.8174
0
LINE
8
Black
10
105.553
20
-96.8174
11
105.452
21
-97.1795
0
LINE
8
Black
10
105.452
20
-97.1795
11
105.424
21
-97.5543
0
LINE
8
Black
10
105.424
20
-97.5543
11
105.469
21
-97.9274
0
LINE
8
Black
10
105.469
20
-97.9274
11
105.587
21
-98.2858
0
LINE
8
Black
10
105.587
20
-98.2858
11
105.707
21
-98.5103
0
LINE
8
Black
10
105.707
20
-98.5103
11
105.893
21
-98.5983
0
LINE
8
Black
10
105.893
20
-98.5983
11
106.194
21
-98.2975
0
LINE
8
Black
10
106.194
20
-98.2975
11
106.123
21
-98.2131
0
LINE
8
Black
10
106.123
20
-98.2131
11
105.956
21
-97.7544
0
LINE
8
Black
10
105.956
20
-97.7544
11
105.956
21
-97.2664
0
LINE
8
Black
10
105.956
20
-97.2664
11
106.123
21
-96.8077
0
LINE
8
Black
10
106.123
20
-96.8077
11
106.194
21
-96.7233
0
LINE
8
Black
10
106.194
20
-96.7233
11
105.893
21
-96.4225
0
LINE
8
Black
10
105.893
20
-96.4225
11
105.708
21
-96.5098
0
LINE
8
Black
10
108.487
20
-96.7233
11
108.557
21
-96.8077
0
LINE
8
Black
10
108.557
20
-96.8077
11
108.724
21
-97.2664
0
LINE
8
Black
10
108.724
20
-97.2664
11
108.724
21
-97.7544
0
LINE
8
Black
10
108.724
20
-97.7544
11
108.557
21
-98.2131
0
LINE
8
Black
10
108.557
20
-98.2131
11
108.487
21
-98.2975
0
LINE
8
Black
10
108.487
20
-98.2975
11
108.787
21
-98.5983
0
LINE
8
Black
10
108.787
20
-98.5983
11
108.973
21
-98.511
0
LINE
8
Black
10
108.973
20
-98.511
11
109.128
21
-98.2034
0
LINE
8
Black
10
109.128
20
-98.2034
11
109.229
21
-97.8413
0
LINE
8
Black
10
109.229
20
-97.8413
11
109.245
21
-97.6258
0
LINE
8
Black
10
109.245
20
-97.6258
11
109.245
21
-97.6258
0
LINE
8
Black
10
109.245
20
-97.6258
11
109.257
21
-97.4665
0
LINE
8
Black
10
109.257
20
-97.4665
11
109.212
21
-97.0934
0
LINE
8
Black
10
109.212
20
-97.0934
11
109.094
21
-96.735
0
LINE
8
Black
10
109.094
20
-96.735
11
108.974
21
-96.5105
0
LINE
8
Black
10
108.974
20
-96.5105
11
108.787
21
-96.4225
0
LINE
8
Black
10
108.787
20
-96.4225
11
108.487
21
-96.7233
0
LINE
8
Black
10
187.886
20
-96.5098
11
187.731
21
-96.8174
0
LINE
8
Black
10
187.731
20
-96.8174
11
187.63
21
-97.1795
0
LINE
8
Black
10
187.63
20
-97.1795
11
187.602
21
-97.5543
0
LINE
8
Black
10
187.602
20
-97.5543
11
187.647
21
-97.9274
0
LINE
8
Black
10
187.647
20
-97.9274
11
187.765
21
-98.2858
0
LINE
8
Black
10
187.765
20
-98.2858
11
187.885
21
-98.5103
0
LINE
8
Black
10
187.885
20
-98.5103
11
188.071
21
-98.5983
0
LINE
8
Black
10
188.071
20
-98.5983
11
188.372
21
-98.2975
0
LINE
8
Black
10
188.372
20
-98.2975
11
188.301
21
-98.2131
0
LINE
8
Black
10
188.301
20
-98.2131
11
188.134
21
-97.7544
0
LINE
8
Black
10
188.134
20
-97.7544
11
188.134
21
-97.2664
0
LINE
8
Black
10
188.134
20
-97.2664
11
188.301
21
-96.8077
0
LINE
8
Black
10
188.301
20
-96.8077
11
188.372
21
-96.7233
0
LINE
8
Black
10
188.372
20
-96.7233
11
188.071
21
-96.4225
0
LINE
8
Black
10
188.071
20
-96.4225
11
187.886
21
-96.5098
0
LINE
8
Black
10
190.665
20
-96.7233
11
190.735
21
-96.8077
0
LINE
8
Black
10
190.735
20
-96.8077
11
190.902
21
-97.2664
0
LINE
8
Black
10
190.902
20
-97.2664
11
190.902
21
-97.7544
0
LINE
8
Black
10
190.902
20
-97.7544
11
190.735
21
-98.2131
0
LINE
8
Black
10
190.735
20
-98.2131
11
190.665
21
-98.2975
0
LINE
8
Black
10
190.665
20
-98.2975
11
190.965
21
-98.5983
0
LINE
8
Black
10
190.965
20
-98.5983
11
191.151
21
-98.511
0
LINE
8
Black
10
191.151
20
-98.511
11
191.306
21
-98.2034
0
LINE
8
Black
10
191.306
20
-98.2034
11
191.407
21
-97.8413
0
LINE
8
Black
10
191.407
20
-97.8413
11
191.435
21
-97.4665
0
LINE
8
Black
10
191.435
20
-97.4665
11
191.39
21
-97.0934
0
LINE
8
Black
10
191.39
20
-97.0934
11
191.272
21
-96.735
0
LINE
8
Black
10
191.272
20
-96.735
11
191.152
21
-96.5105
0
LINE
8
Black
10
191.152
20
-96.5105
11
190.965
21
-96.4225
0
LINE
8
Black
10
190.965
20
-96.4225
11
190.665
21
-96.7233
0
LINE
8
Black
10
120.952
20
-95.7172
11
120.594
21
-95.835
0
LINE
8
Black
10
120.594
20
-95.835
11
120.369
21
-95.955
0
LINE
8
Black
10
120.369
20
-95.955
11
120.282
21
-96.1415
0
LINE
8
Black
10
120.282
20
-96.1415
11
120.584
21
-96.4439
0
LINE
8
Black
10
120.584
20
-96.4439
11
120.889
21
-96.268
0
LINE
8
Black
10
120.889
20
-96.268
11
121.369
21
-96.1832
0
LINE
8
Black
10
121.369
20
-96.1832
11
121.85
21
-96.268
0
LINE
8
Black
10
121.85
20
-96.268
11
122.155
21
-96.4439
0
LINE
8
Black
10
122.155
20
-96.4439
11
122.457
21
-96.1415
0
LINE
8
Black
10
122.457
20
-96.1415
11
122.37
21
-95.9565
0
LINE
8
Black
10
122.37
20
-95.9565
11
122.062
21
-95.801
0
LINE
8
Black
10
122.062
20
-95.801
11
121.7
21
-95.7001
0
LINE
8
Black
10
121.7
20
-95.7001
11
121.326
21
-95.6718
0
LINE
8
Black
10
121.326
20
-95.6718
11
120.952
21
-95.7172
0
LINE
8
Black
10
175.072
20
-95.7172
11
174.714
21
-95.835
0
LINE
8
Black
10
174.714
20
-95.835
11
174.489
21
-95.955
0
LINE
8
Black
10
174.489
20
-95.955
11
174.402
21
-96.1415
0
LINE
8
Black
10
174.402
20
-96.1415
11
174.704
21
-96.4439
0
LINE
8
Black
10
174.704
20
-96.4439
11
175.009
21
-96.268
0
LINE
8
Black
10
175.009
20
-96.268
11
175.489
21
-96.1832
0
LINE
8
Black
10
175.489
20
-96.1832
11
175.97
21
-96.268
0
LINE
8
Black
10
175.97
20
-96.268
11
176.275
21
-96.4439
0
LINE
8
Black
10
176.275
20
-96.4439
11
176.577
21
-96.1415
0
LINE
8
Black
10
176.577
20
-96.1415
11
176.49
21
-95.9565
0
LINE
8
Black
10
176.49
20
-95.9565
11
176.182
21
-95.801
0
LINE
8
Black
10
176.182
20
-95.801
11
175.82
21
-95.7001
0
LINE
8
Black
10
175.82
20
-95.7001
11
175.446
21
-95.6718
0
LINE
8
Black
10
175.446
20
-95.6718
11
175.072
21
-95.7172
0
LINE
8
Black
10
106.923
20
-95.6391
11
106.565
21
-95.7568
0
LINE
8
Black
10
106.565
20
-95.7568
11
106.34
21
-95.8768
0
LINE
8
Black
10
106.34
20
-95.8768
11
106.253
21
-96.0633
0
LINE
8
Black
10
106.253
20
-96.0633
11
106.555
21
-96.3658
0
LINE
8
Black
10
106.555
20
-96.3658
11
106.86
21
-96.1898
0
LINE
8
Black
10
106.86
20
-96.1898
11
107.34
21
-96.1051
0
LINE
8
Black
10
107.34
20
-96.1051
11
107.821
21
-96.1898
0
LINE
8
Black
10
107.821
20
-96.1898
11
108.126
21
-96.3658
0
LINE
8
Black
10
108.126
20
-96.3658
11
108.413
21
-96.0783
0
LINE
8
Black
10
108.413
20
-96.0783
11
108.428
21
-96.0633
0
LINE
8
Black
10
108.428
20
-96.0633
11
108.341
21
-95.8783
0
LINE
8
Black
10
108.341
20
-95.8783
11
108.033
21
-95.7228
0
LINE
8
Black
10
108.033
20
-95.7228
11
107.671
21
-95.6219
0
LINE
8
Black
10
107.671
20
-95.6219
11
107.297
21
-95.5937
0
LINE
8
Black
10
107.297
20
-95.5937
11
106.923
21
-95.6391
0
LINE
8
Black
10
189.101
20
-95.6391
11
188.743
21
-95.7568
0
LINE
8
Black
10
188.743
20
-95.7568
11
188.518
21
-95.8768
0
LINE
8
Black
10
188.518
20
-95.8768
11
188.431
21
-96.0633
0
LINE
8
Black
10
188.431
20
-96.0633
11
188.733
21
-96.3658
0
LINE
8
Black
10
188.733
20
-96.3658
11
189.038
21
-96.1898
0
LINE
8
Black
10
189.038
20
-96.1898
11
189.518
21
-96.1051
0
LINE
8
Black
10
189.518
20
-96.1051
11
189.999
21
-96.1898
0
LINE
8
Black
10
189.999
20
-96.1898
11
190.304
21
-96.3658
0
LINE
8
Black
10
190.304
20
-96.3658
11
190.606
21
-96.0633
0
LINE
8
Black
10
190.606
20
-96.0633
11
190.519
21
-95.8783
0
LINE
8
Black
10
190.519
20
-95.8783
11
190.211
21
-95.7228
0
LINE
8
Black
10
190.211
20
-95.7228
11
189.849
21
-95.6219
0
LINE
8
Black
10
189.849
20
-95.6219
11
189.475
21
-95.5937
0
LINE
8
Black
10
189.475
20
-95.5937
11
189.101
21
-95.6391
0
LINE
8
Black
10
122.98
20
-71.5334
11
122.325
21
-71.7978
0
LINE
8
Black
10
122.325
20
-71.7978
11
121.734
21
-72.1844
0
LINE
8
Black
10
121.734
20
-72.1844
11
121.23
21
-72.6784
0
LINE
8
Black
10
121.23
20
-72.6784
11
120.831
21
-73.2609
0
LINE
8
Black
10
120.831
20
-73.2609
11
120.553
21
-73.9098
0
LINE
8
Black
10
120.553
20
-73.9098
11
120.406
21
-74.6004
0
LINE
8
Black
10
120.406
20
-74.6004
11
120.396
21
-75.3063
0
LINE
8
Black
10
120.396
20
-75.3063
11
120.524
21
-76.0007
0
LINE
8
Black
10
120.524
20
-76.0007
11
120.784
21
-76.6571
0
LINE
8
Black
10
120.784
20
-76.6571
11
121.166
21
-77.2506
0
LINE
8
Black
10
121.166
20
-77.2506
11
121.657
21
-77.7584
0
LINE
8
Black
10
121.657
20
-77.7584
11
122.236
21
-78.1613
0
LINE
8
Black
10
122.236
20
-78.1613
11
122.883
21
-78.444
0
LINE
8
Black
10
122.883
20
-78.444
11
123.573
21
-78.5956
0
LINE
8
Black
10
123.573
20
-78.5956
11
124.279
21
-78.6104
0
LINE
8
Black
10
124.279
20
-78.6104
11
124.974
21
-78.4878
0
LINE
8
Black
10
124.974
20
-78.4878
11
125.632
21
-78.2325
0
LINE
8
Black
10
125.632
20
-78.2325
11
126.228
21
-77.8542
0
LINE
8
Black
10
126.228
20
-77.8542
11
126.739
21
-77.3673
0
LINE
8
Black
10
126.739
20
-77.3673
11
127.146
21
-76.7904
0
LINE
8
Black
10
127.146
20
-76.7904
11
127.434
21
-76.1454
0
LINE
8
Black
10
127.434
20
-76.1454
11
127.59
21
-75.4579
0
LINE
8
Black
10
127.59
20
-75.4579
11
127.592
21
-75.3152
0
LINE
8
Black
10
127.592
20
-75.3152
11
127.601
21
-74.6497
0
LINE
8
Black
10
127.601
20
-74.6497
11
127.464
21
-73.9581
0
LINE
8
Black
10
127.464
20
-73.9581
11
127.195
21
-73.3053
0
LINE
8
Black
10
127.195
20
-73.3053
11
126.804
21
-72.7173
0
LINE
8
Black
10
126.804
20
-72.7173
11
126.307
21
-72.2163
0
LINE
8
Black
10
126.307
20
-72.2163
11
125.722
21
-71.8215
0
LINE
8
Black
10
125.722
20
-71.8215
11
125.071
21
-71.548
0
LINE
8
Black
10
125.071
20
-71.548
11
124.379
21
-71.406
0
LINE
8
Black
10
124.379
20
-71.406
11
123.673
21
-71.4011
0
LINE
8
Black
10
123.673
20
-71.4011
11
122.98
21
-71.5334
0
LINE
8
Black
10
171.98
20
-71.5334
11
171.325
21
-71.7978
0
LINE
8
Black
10
171.325
20
-71.7978
11
170.734
21
-72.1844
0
LINE
8
Black
10
170.734
20
-72.1844
11
170.23
21
-72.6784
0
LINE
8
Black
10
170.23
20
-72.6784
11
169.831
21
-73.2609
0
LINE
8
Black
10
169.831
20
-73.2609
11
169.553
21
-73.9098
0
LINE
8
Black
10
169.553
20
-73.9098
11
169.406
21
-74.6004
0
LINE
8
Black
10
169.406
20
-74.6004
11
169.396
21
-75.3063
0
LINE
8
Black
10
169.396
20
-75.3063
11
169.524
21
-76.0007
0
LINE
8
Black
10
169.524
20
-76.0007
11
169.784
21
-76.6571
0
LINE
8
Black
10
169.784
20
-76.6571
11
170.166
21
-77.2506
0
LINE
8
Black
10
170.166
20
-77.2506
11
170.657
21
-77.7584
0
LINE
8
Black
10
170.657
20
-77.7584
11
171.236
21
-78.1613
0
LINE
8
Black
10
171.236
20
-78.1613
11
171.883
21
-78.444
0
LINE
8
Black
10
171.883
20
-78.444
11
172.573
21
-78.5956
0
LINE
8
Black
10
172.573
20
-78.5956
11
173.279
21
-78.6104
0
LINE
8
Black
10
173.279
20
-78.6104
11
173.974
21
-78.4878
0
LINE
8
Black
10
173.974
20
-78.4878
11
174.632
21
-78.2325
0
LINE
8
Black
10
174.632
20
-78.2325
11
175.228
21
-77.8542
0
LINE
8
Black
10
175.228
20
-77.8542
11
175.739
21
-77.3673
0
LINE
8
Black
10
175.739
20
-77.3673
11
176.146
21
-76.7904
0
LINE
8
Black
10
176.146
20
-76.7904
11
176.434
21
-76.1454
0
LINE
8
Black
10
176.434
20
-76.1454
11
176.59
21
-75.4579
0
LINE
8
Black
10
176.59
20
-75.4579
11
176.601
21
-74.6497
0
LINE
8
Black
10
176.601
20
-74.6497
11
176.464
21
-73.9581
0
LINE
8
Black
10
176.464
20
-73.9581
11
176.195
21
-73.3053
0
LINE
8
Black
10
176.195
20
-73.3053
11
175.804
21
-72.7173
0
LINE
8
Black
10
175.804
20
-72.7173
11
175.307
21
-72.2163
0
LINE
8
Black
10
175.307
20
-72.2163
11
174.722
21
-71.8215
0
LINE
8
Black
10
174.722
20
-71.8215
11
174.071
21
-71.548
0
LINE
8
Black
10
174.071
20
-71.548
11
173.379
21
-71.406
0
LINE
8
Black
10
173.379
20
-71.406
11
172.673
21
-71.4011
0
LINE
8
Black
10
172.673
20
-71.4011
11
171.98
21
-71.5334
0
LINE
8
Black
10
125.1
20
-131.985
11
126.066
21
-132.543
0
LINE
8
Black
10
126.066
20
-132.543
11
126.783
21
-133.397
0
LINE
8
Black
10
126.783
20
-133.397
11
127.165
21
-134.446
0
LINE
8
Black
10
127.165
20
-134.446
11
127.165
21
-135.561
0
LINE
8
Black
10
127.165
20
-135.561
11
126.783
21
-136.61
0
LINE
8
Black
10
126.783
20
-136.61
11
126.066
21
-137.464
0
LINE
8
Black
10
126.066
20
-137.464
11
125.1
21
-138.022
0
LINE
8
Black
10
125.1
20
-138.022
11
124.001
21
-138.216
0
LINE
8
Black
10
124.001
20
-138.216
11
122.902
21
-138.022
0
LINE
8
Black
10
122.902
20
-138.022
11
121.936
21
-137.464
0
LINE
8
Black
10
121.936
20
-137.464
11
121.219
21
-136.61
0
LINE
8
Black
10
121.219
20
-136.61
11
120.838
21
-135.561
0
LINE
8
Black
10
120.838
20
-135.561
11
120.838
21
-134.446
0
LINE
8
Black
10
120.838
20
-134.446
11
121.219
21
-133.397
0
LINE
8
Black
10
121.219
20
-133.397
11
121.936
21
-132.543
0
LINE
8
Black
10
121.936
20
-132.543
11
122.902
21
-131.985
0
LINE
8
Black
10
122.902
20
-131.985
11
124.001
21
-131.791
0
LINE
8
Black
10
124.001
20
-131.791
11
125.1
21
-131.985
0
LINE
8
Black
10
174.1
20
-131.985
11
175.066
21
-132.543
0
LINE
8
Black
10
175.066
20
-132.543
11
175.783
21
-133.397
0
LINE
8
Black
10
175.783
20
-133.397
11
176.165
21
-134.446
0
LINE
8
Black
10
176.165
20
-134.446
11
176.165
21
-135.561
0
LINE
8
Black
10
176.165
20
-135.561
11
175.783
21
-136.61
0
LINE
8
Black
10
175.783
20
-136.61
11
175.066
21
-137.464
0
LINE
8
Black
10
175.066
20
-137.464
11
174.1
21
-138.022
0
LINE
8
Black
10
174.1
20
-138.022
11
173.001
21
-138.216
0
LINE
8
Black
10
173.001
20
-138.216
11
171.902
21
-138.022
0
LINE
8
Black
10
171.902
20
-138.022
11
170.936
21
-137.464
0
LINE
8
Black
10
170.936
20
-137.464
11
170.219
21
-136.61
0
LINE
8
Black
10
170.219
20
-136.61
11
169.838
21
-135.561
0
LINE
8
Black
10
169.838
20
-135.561
11
169.838
21
-134.446
0
LINE
8
Black
10
169.838
20
-134.446
11
170.219
21
-133.397
0
LINE
8
Black
10
170.219
20
-133.397
11
170.936
21
-132.543
0
LINE
8
Black
10
170.936
20
-132.543
11
171.902
21
-131.985
0
LINE
8
Black
10
171.902
20
-131.985
11
173.001
21
-131.791
0
LINE
8
Black
10
173.001
20
-131.791
11
174.1
21
-131.985
0
LINE
8
Black
10
172.689
20
-113.975
11
169.889
21
-113.975
0
LINE
8
Black
10
169.889
20
-113.975
11
169.889
21
-111.175
0
LINE
8
Black
10
169.889
20
-111.175
11
172.689
21
-111.175
0
LINE
8
Black
10
172.689
20
-111.175
11
172.689
21
-113.975
0
LINE
8
Black
10
126.969
20
-113.975
11
124.169
21
-113.975
0
LINE
8
Black
10
124.169
20
-113.975
11
124.169
21
-111.175
0
LINE
8
Black
10
124.169
20
-111.175
11
126.969
21
-111.175
0
LINE
8
Black
10
126.969
20
-111.175
11
126.969
21
-113.975
0
LINE
8
Black
10
190.918
20
-109.855
11
188.118
21
-109.855
0
LINE
8
Black
10
188.118
20
-109.855
11
188.118
21
-107.055
0
LINE
8
Black
10
188.118
20
-107.055
11
190.918
21
-107.055
0
LINE
8
Black
10
190.918
20
-107.055
11
190.918
21
-109.855
0
LINE
8
Black
10
108.74
20
-109.855
11
105.94
21
-109.855
0
LINE
8
Black
10
105.94
20
-109.855
11
105.94
21
-107.055
0
LINE
8
Black
10
105.94
20
-107.055
11
108.74
21
-107.055
0
LINE
8
Black
10
108.74
20
-107.055
11
108.74
21
-109.855
0
LINE
8
Black
10
190.918
20
-103.11
11
188.118
21
-103.11
0
LINE
8
Black
10
188.118
20
-103.11
11
188.118
21
-100.31
0
LINE
8
Black
10
188.118
20
-100.31
11
190.918
21
-100.31
0
LINE
8
Black
10
190.918
20
-100.31
11
190.918
21
-103.11
0
LINE
8
Black
10
108.74
20
-103.11
11
105.94
21
-103.11
0
LINE
8
Black
10
105.94
20
-103.11
11
105.94
21
-100.31
0
LINE
8
Black
10
105.94
20
-100.31
11
108.74
21
-100.31
0
LINE
8
Black
10
108.74
20
-100.31
11
108.74
21
-103.11
0
LINE
8
Black
10
172.689
20
-98.9886
11
169.889
21
-98.9886
0
LINE
8
Black
10
169.889
20
-98.9886
11
169.889
21
-96.1886
0
LINE
8
Black
10
169.889
20
-96.1886
11
172.689
21
-96.1886
0
LINE
8
Black
10
172.689
20
-96.1886
11
172.689
21
-98.9886
0
LINE
8
Black
10
126.969
20
-98.9886
11
124.169
21
-98.9886
0
LINE
8
Black
10
124.169
20
-98.9886
11
124.169
21
-96.1886
0
LINE
8
Black
10
124.169
20
-96.1886
11
126.969
21
-96.1886
0
LINE
8
Black
10
126.969
20
-96.1886
11
126.969
21
-98.9886
0
LINE
8
Black
10
125.1
20
-71.9851
11
126.066
21
-72.5429
0
LINE
8
Black
10
126.066
20
-72.5429
11
126.783
21
-73.3975
0
LINE
8
Black
10
126.783
20
-73.3975
11
127.165
21
-74.4458
0
LINE
8
Black
10
127.165
20
-74.4458
11
127.165
21
-75.5614
0
LINE
8
Black
10
127.165
20
-75.5614
11
126.783
21
-76.6097
0
LINE
8
Black
10
126.783
20
-76.6097
11
126.066
21
-77.4643
0
LINE
8
Black
10
126.066
20
-77.4643
11
125.1
21
-78.0221
0
LINE
8
Black
10
125.1
20
-78.0221
11
124.001
21
-78.2158
0
LINE
8
Black
10
124.001
20
-78.2158
11
122.902
21
-78.0221
0
LINE
8
Black
10
122.902
20
-78.0221
11
121.936
21
-77.4643
0
LINE
8
Black
10
121.936
20
-77.4643
11
121.219
21
-76.6097
0
LINE
8
Black
10
121.219
20
-76.6097
11
120.838
21
-75.5614
0
LINE
8
Black
10
120.838
20
-75.5614
11
120.838
21
-74.4458
0
LINE
8
Black
10
120.838
20
-74.4458
11
121.219
21
-73.3975
0
LINE
8
Black
10
121.219
20
-73.3975
11
121.936
21
-72.5429
0
LINE
8
Black
10
121.936
20
-72.5429
11
122.902
21
-71.9851
0
LINE
8
Black
10
122.902
20
-71.9851
11
124.001
21
-71.7914
0
LINE
8
Black
10
124.001
20
-71.7914
11
125.1
21
-71.9851
0
LINE
8
Black
10
174.1
20
-71.9851
11
175.066
21
-72.5429
0
LINE
8
Black
10
175.066
20
-72.5429
11
175.783
21
-73.3975
0
LINE
8
Black
10
175.783
20
-73.3975
11
176.165
21
-74.4458
0
LINE
8
Black
10
176.165
20
-74.4458
11
176.165
21
-75.5614
0
LINE
8
Black
10
176.165
20
-75.5614
11
175.783
21
-76.6097
0
LINE
8
Black
10
175.783
20
-76.6097
11
175.066
21
-77.4643
0
LINE
8
Black
10
175.066
20
-77.4643
11
174.1
21
-78.0221
0
LINE
8
Black
10
174.1
20
-78.0221
11
173.001
21
-78.2158
0
LINE
8
Black
10
173.001
20
-78.2158
11
171.902
21
-78.0221
0
LINE
8
Black
10
171.902
20
-78.0221
11
170.936
21
-77.4643
0
LINE
8
Black
10
170.936
20
-77.4643
11
170.219
21
-76.6097
0
LINE
8
Black
10
170.219
20
-76.6097
11
169.838
21
-75.5614
0
LINE
8
Black
10
169.838
20
-75.5614
11
169.838
21
-74.4458
0
LINE
8
Black
10
169.838
20
-74.4458
11
170.219
21
-73.3975
0
LINE
8
Black
10
170.219
20
-73.3975
11
170.936
21
-72.5429
0
LINE
8
Black
10
170.936
20
-72.5429
11
171.902
21
-71.9851
0
LINE
8
Black
10
171.902
20
-71.9851
11
173.001
21
-71.7914
0
LINE
8
Black
10
173.001
20
-71.7914
11
174.1
21
-71.9851
  0
ENDSEC
  0
EOF
