  0
SECTION
  2
HEADER
  9
$ANGBASE
  50
0.0
  9
$ANGDIR
  70
  1
  9
$MEASUREMENT
  70
0
  0
ENDSEC
  0
SECTION
  2
TABLES
  0
TABLE
  2
LTYPE
  70
1
  0
LTYPE
  2
CONTINUOUS
  70
0
  3
Solid line
  72
65
  73
0
  40
0.0
  0
ENDTAB
  0
TABLE
  2
STYLE
  70
4
  0
STYLE
  2
KICAD
  70
0
  40
0
  41
1
  42
1
  50
0
  71
0
  3
isocp.shx
  0
STYLE
  2
KICADB
  70
0
  40
0
  41
1
  42
1
  50
0
  71
0
  3
isocp.shx
  0
STYLE
  2
KICADI
  70
0
  40
0
  41
1
  42
1
  50
15
  71
0
  3
isocp.shx
  0
STYLE
  2
KICADBI
  70
0
  40
0
  41
1
  42
1
  50
15
  71
0
  3
isocp.shx
  0
ENDTAB
  0
TABLE
  2
LAYER
  70
30
  0
LAYER
  2
BLACK
  70
0
  62
7
  6
CONTINUOUS
  0
LAYER
  2
GRAY1
  70
0
  62
251
  6
CONTINUOUS
  0
LAYER
  2
GRAY2
  70
0
  62
8
  6
CONTINUOUS
  0
LAYER
  2
GRAY3
  70
0
  62
9
  6
CONTINUOUS
  0
LAYER
  2
WHITE
  70
0
  62
7
  6
CONTINUOUS
  0
LAYER
  2
LYELLOW
  70
0
  62
51
  6
CONTINUOUS
  0
LAYER
  2
BLUE1
  70
0
  62
178
  6
CONTINUOUS
  0
LAYER
  2
GREEN1
  70
0
  62
98
  6
CONTINUOUS
  0
LAYER
  2
CYAN1
  70
0
  62
138
  6
CONTINUOUS
  0
LAYER
  2
RED1
  70
0
  62
18
  6
CONTINUOUS
  0
LAYER
  2
MAGENTA1
  70
0
  62
228
  6
CONTINUOUS
  0
LAYER
  2
BROWN1
  70
0
  62
58
  6
CONTINUOUS
  0
LAYER
  2
BLUE2
  70
0
  62
5
  6
CONTINUOUS
  0
LAYER
  2
GREEN2
  70
0
  62
3
  6
CONTINUOUS
  0
LAYER
  2
CYAN2
  70
0
  62
4
  6
CONTINUOUS
  0
LAYER
  2
RED2
  70
0
  62
1
  6
CONTINUOUS
  0
LAYER
  2
MAGENTA2
  70
0
  62
6
  6
CONTINUOUS
  0
LAYER
  2
BROWN2
  70
0
  62
54
  6
CONTINUOUS
  0
LAYER
  2
BLUE3
  70
0
  62
171
  6
CONTINUOUS
  0
LAYER
  2
GREEN3
  70
0
  62
91
  6
CONTINUOUS
  0
LAYER
  2
CYAN3
  70
0
  62
131
  6
CONTINUOUS
  0
LAYER
  2
RED3
  70
0
  62
11
  6
CONTINUOUS
  0
LAYER
  2
MAGENTA3
  70
0
  62
221
  6
CONTINUOUS
  0
LAYER
  2
YELLOW3
  70
0
  62
2
  6
CONTINUOUS
  0
LAYER
  2
BLUE4
  70
0
  62
5
  6
CONTINUOUS
  0
LAYER
  2
GREEN4
  70
0
  62
3
  6
CONTINUOUS
  0
LAYER
  2
CYAN4
  70
0
  62
4
  6
CONTINUOUS
  0
LAYER
  2
RED4
  70
0
  62
1
  6
CONTINUOUS
  0
LAYER
  2
MAGENTA4
  70
0
  62
6
  6
CONTINUOUS
  0
LAYER
  2
YELLOW4
  70
0
  62
2
  6
CONTINUOUS
  0
ENDTAB
  0
ENDSEC
  0
SECTION
  2
ENTITIES
0
LINE
8
Black
10
151.37
20
-57.7804
11
151.383
21
-57.7801
0
LINE
8
Black
10
151.383
20
-57.7801
11
162.326
21
-59.4145
0
LINE
8
Black
10
162.326
20
-59.4145
11
162.338
21
-59.4185
0
LINE
8
Black
10
162.338
20
-59.4185
11
162.35
21
-59.4205
0
LINE
8
Black
10
162.35
20
-59.4205
11
172.768
21
-63.1495
0
LINE
8
Black
10
172.768
20
-63.1495
11
172.779
21
-63.1556
0
LINE
8
Black
10
172.779
20
-63.1556
11
172.79
21
-63.16
0
LINE
8
Black
10
172.79
20
-63.16
11
182.298
21
-68.8489
0
LINE
8
Black
10
182.298
20
-68.8489
11
182.305
21
-68.855
0
LINE
8
Black
10
182.305
20
-68.855
11
182.313
21
-68.8595
0
LINE
8
Black
10
182.313
20
-68.8595
11
186.438
21
-72.224
0
LINE
8
Black
10
186.438
20
-72.224
11
186.444
21
-72.231
0
LINE
8
Black
10
186.444
20
-72.231
11
186.452
21
-72.2366
0
LINE
8
Black
10
186.452
20
-72.2366
11
186.781
21
-72.5958
0
LINE
8
Black
10
186.781
20
-72.5958
11
186.787
21
-72.6062
0
LINE
8
Black
10
186.787
20
-72.6062
11
186.795
21
-72.6156
0
LINE
8
Black
10
186.795
20
-72.6156
11
187.041
21
-73.0192
0
LINE
8
Black
10
187.041
20
-73.0192
11
187.045
21
-73.0308
0
LINE
8
Black
10
187.045
20
-73.0308
11
187.052
21
-73.0415
0
LINE
8
Black
10
187.052
20
-73.0415
11
187.214
21
-73.4851
0
LINE
8
Black
10
187.214
20
-73.4851
11
187.216
21
-73.4974
0
LINE
8
Black
10
187.216
20
-73.4974
11
187.22
21
-73.5091
0
LINE
8
Black
10
187.22
20
-73.5091
11
187.293
21
-73.9758
0
LINE
8
Black
10
187.293
20
-73.9758
11
187.293
21
-73.9882
0
LINE
8
Black
10
187.293
20
-73.9882
11
187.294
21
-74.0005
0
LINE
8
Black
10
187.294
20
-74.0005
11
187.275
21
-74.4725
0
LINE
8
Black
10
187.275
20
-74.4725
11
187.273
21
-74.4846
0
LINE
8
Black
10
187.273
20
-74.4846
11
187.272
21
-74.4971
0
LINE
8
Black
10
187.272
20
-74.4971
11
187.162
21
-74.9563
0
LINE
8
Black
10
187.162
20
-74.9563
11
187.157
21
-74.9677
0
LINE
8
Black
10
187.157
20
-74.9677
11
187.154
21
-74.9798
0
LINE
8
Black
10
187.154
20
-74.9798
11
186.956
21
-75.4089
0
LINE
8
Black
10
186.956
20
-75.4089
11
186.949
21
-75.4191
0
LINE
8
Black
10
186.949
20
-75.4191
11
186.944
21
-75.4303
0
LINE
8
Black
10
186.944
20
-75.4303
11
186.654
21
-75.8298
0
LINE
8
Black
10
186.654
20
-75.8298
11
186.649
21
-75.8353
0
LINE
8
Black
10
186.649
20
-75.8353
11
186.645
21
-75.8419
0
LINE
8
Black
10
186.645
20
-75.8419
11
186.567
21
-75.9248
0
LINE
8
Black
10
186.567
20
-75.9248
11
186.565
21
-75.9271
0
LINE
8
Black
10
186.565
20
-75.9271
11
186.558
21
-75.9342
0
LINE
8
Black
10
186.558
20
-75.9342
11
186.554
21
-75.939
0
LINE
8
Black
10
186.554
20
-75.939
11
186.554
21
-75.9392
0
LINE
8
Black
10
186.554
20
-75.9392
11
186.554
21
-75.9395
0
LINE
8
Black
10
186.554
20
-75.9395
11
186.552
21
-75.9425
0
LINE
8
Black
10
186.552
20
-75.9425
11
186.55
21
-75.9443
0
LINE
8
Black
10
186.55
20
-75.9443
11
186.549
21
-75.945
0
LINE
8
Black
10
186.549
20
-75.945
11
185.757
21
-76.8765
0
LINE
8
Black
10
185.757
20
-76.8765
11
185.735
21
-76.9081
0
LINE
8
Black
10
185.735
20
-76.9081
11
185.733
21
-76.91
0
LINE
8
Black
10
185.733
20
-76.91
11
185.732
21
-76.9123
0
LINE
8
Black
10
185.732
20
-76.9123
11
185.709
21
-76.9427
0
LINE
8
Black
10
185.709
20
-76.9427
11
185.709
21
-76.9435
0
LINE
8
Black
10
185.709
20
-76.9435
11
184.856
21
-78.3814
0
LINE
8
Black
10
184.856
20
-78.3814
11
184.836
21
-78.4231
0
LINE
8
Black
10
184.836
20
-78.4231
11
184.836
21
-78.4238
0
LINE
8
Black
10
184.836
20
-78.4238
11
184.836
21
-78.4247
0
LINE
8
Black
10
184.836
20
-78.4247
11
184.816
21
-78.4658
0
LINE
8
Black
10
184.816
20
-78.4658
11
184.815
21
-78.4668
0
LINE
8
Black
10
184.815
20
-78.4668
11
184.258
21
-80.0428
0
LINE
8
Black
10
184.258
20
-80.0428
11
184.247
21
-80.0876
0
LINE
8
Black
10
184.247
20
-80.0876
11
184.247
21
-80.0884
0
LINE
8
Black
10
184.247
20
-80.0884
11
184.247
21
-80.0893
0
LINE
8
Black
10
184.247
20
-80.0893
11
184.235
21
-80.1334
0
LINE
8
Black
10
184.235
20
-80.1334
11
184.235
21
-80.1344
0
LINE
8
Black
10
184.235
20
-80.1344
11
183.994
21
-81.7888
0
LINE
8
Black
10
183.994
20
-81.7888
11
183.992
21
-81.8348
0
LINE
8
Black
10
183.992
20
-81.8348
11
183.992
21
-81.8357
0
LINE
8
Black
10
183.992
20
-81.8357
11
183.992
21
-81.8365
0
LINE
8
Black
10
183.992
20
-81.8365
11
183.989
21
-81.8821
0
LINE
8
Black
10
183.989
20
-81.8821
11
183.989
21
-81.8831
0
LINE
8
Black
10
183.989
20
-81.8831
11
184.075
21
-83.5527
0
LINE
8
Black
10
184.075
20
-83.5527
11
184.081
21
-83.5983
0
LINE
8
Black
10
184.081
20
-83.5983
11
184.081
21
-83.5991
0
LINE
8
Black
10
184.081
20
-83.5991
11
184.082
21
-83.6
0
LINE
8
Black
10
184.082
20
-83.6
11
184.088
21
-83.6452
0
LINE
8
Black
10
184.088
20
-83.6452
11
184.088
21
-83.6461
0
LINE
8
Black
10
184.088
20
-83.6461
11
184.496
21
-85.2674
0
LINE
8
Black
10
184.496
20
-85.2674
11
184.512
21
-85.3107
0
LINE
8
Black
10
184.512
20
-85.3107
11
184.512
21
-85.3116
0
LINE
8
Black
10
184.512
20
-85.3116
11
184.512
21
-85.3124
0
LINE
8
Black
10
184.512
20
-85.3124
11
184.527
21
-85.3556
0
LINE
8
Black
10
184.527
20
-85.3556
11
184.528
21
-85.3565
0
LINE
8
Black
10
184.528
20
-85.3565
11
185.243
21
-86.8675
0
LINE
8
Black
10
185.243
20
-86.8675
11
185.266
21
-86.9071
0
LINE
8
Black
10
185.266
20
-86.9071
11
185.267
21
-86.9079
0
LINE
8
Black
10
185.267
20
-86.9079
11
185.267
21
-86.9086
0
LINE
8
Black
10
185.267
20
-86.9086
11
185.29
21
-86.9481
0
LINE
8
Black
10
185.29
20
-86.9481
11
185.291
21
-86.9489
0
LINE
8
Black
10
185.291
20
-86.9489
11
186.286
21
-88.2923
0
LINE
8
Black
10
186.286
20
-88.2923
11
186.317
21
-88.3264
0
LINE
8
Black
10
186.317
20
-88.3264
11
186.317
21
-88.3272
0
LINE
8
Black
10
186.317
20
-88.3272
11
186.318
21
-88.3277
0
LINE
8
Black
10
186.318
20
-88.3277
11
186.348
21
-88.362
0
LINE
8
Black
10
186.348
20
-88.362
11
186.349
21
-88.3628
0
LINE
8
Black
10
186.349
20
-88.3628
11
187.586
21
-89.4872
0
LINE
8
Black
10
187.586
20
-89.4872
11
187.623
21
-89.5147
0
LINE
8
Black
10
187.623
20
-89.5147
11
187.623
21
-89.5154
0
LINE
8
Black
10
187.623
20
-89.5154
11
187.624
21
-89.5158
0
LINE
8
Black
10
187.624
20
-89.5158
11
187.66
21
-89.5436
0
LINE
8
Black
10
187.66
20
-89.5436
11
187.661
21
-89.544
0
LINE
8
Black
10
187.661
20
-89.544
11
189.093
21
-90.4069
0
LINE
8
Black
10
189.093
20
-90.4069
11
189.135
21
-90.4268
0
LINE
8
Black
10
189.135
20
-90.4268
11
189.135
21
-90.4273
0
LINE
8
Black
10
189.135
20
-90.4273
11
189.136
21
-90.4275
0
LINE
8
Black
10
189.136
20
-90.4275
11
189.177
21
-90.4477
0
LINE
8
Black
10
189.177
20
-90.4477
11
189.178
21
-90.4481
0
LINE
8
Black
10
189.178
20
-90.4481
11
190.756
21
-91.0185
0
LINE
8
Black
10
190.756
20
-91.0185
11
190.756
21
-91.0185
0
LINE
8
Black
10
190.756
20
-91.0185
11
190.756
21
-91.0185
0
LINE
8
Black
10
190.756
20
-91.0185
11
191.254
21
-91.1983
0
LINE
8
Black
10
191.254
20
-91.1983
11
191.264
21
-91.2045
0
LINE
8
Black
10
191.264
20
-91.2045
11
191.276
21
-91.2089
0
LINE
8
Black
10
191.276
20
-91.2089
11
191.68
21
-91.4527
0
LINE
8
Black
10
191.68
20
-91.4527
11
191.69
21
-91.4609
0
LINE
8
Black
10
191.69
20
-91.4609
11
191.7
21
-91.4675
0
LINE
8
Black
10
191.7
20
-91.4675
11
192.05
21
-91.7853
0
LINE
8
Black
10
192.05
20
-91.7853
11
192.057
21
-91.7951
0
LINE
8
Black
10
192.057
20
-91.7951
11
192.066
21
-91.8036
0
LINE
8
Black
10
192.066
20
-91.8036
11
192.348
21
-92.1832
0
LINE
8
Black
10
192.348
20
-92.1832
11
192.353
21
-92.1943
0
LINE
8
Black
10
192.353
20
-92.1943
11
192.36
21
-92.2045
0
LINE
8
Black
10
192.36
20
-92.2045
11
192.562
21
-92.6314
0
LINE
8
Black
10
192.562
20
-92.6314
11
192.566
21
-92.6434
0
LINE
8
Black
10
192.566
20
-92.6434
11
192.571
21
-92.6547
0
LINE
8
Black
10
192.571
20
-92.6547
11
192.688
21
-93.1194
0
LINE
8
Black
10
192.688
20
-93.1194
11
192.689
21
-93.1303
0
LINE
8
Black
10
192.689
20
-93.1303
11
192.691
21
-93.1409
0
LINE
8
Black
10
192.691
20
-93.1409
11
192.719
21
-93.5147
0
LINE
8
Black
10
192.719
20
-93.5147
11
192.719
21
-93.5194
0
LINE
8
Black
10
192.719
20
-93.5194
11
192.719
21
-93.5241
0
LINE
8
Black
10
192.719
20
-93.5241
11
192.719
21
-116.572
0
LINE
8
Black
10
192.719
20
-116.572
11
192.718
21
-116.579
0
LINE
8
Black
10
192.718
20
-116.579
11
192.719
21
-116.585
0
LINE
8
Black
10
192.719
20
-116.585
11
192.67
21
-117.083
0
LINE
8
Black
10
192.67
20
-117.083
11
192.667
21
-117.095
0
LINE
8
Black
10
192.667
20
-117.095
11
192.665
21
-117.107
0
LINE
8
Black
10
192.665
20
-117.107
11
192.529
21
-117.56
0
LINE
8
Black
10
192.529
20
-117.56
11
192.523
21
-117.571
0
LINE
8
Black
10
192.523
20
-117.571
11
192.519
21
-117.582
0
LINE
8
Black
10
192.519
20
-117.582
11
192.297
21
-118
0
LINE
8
Black
10
192.297
20
-118
11
192.29
21
-118.009
0
LINE
8
Black
10
192.29
20
-118.009
11
192.284
21
-118.02
0
LINE
8
Black
10
192.284
20
-118.02
11
191.985
21
-118.386
0
LINE
8
Black
10
191.985
20
-118.386
11
191.976
21
-118.394
0
LINE
8
Black
10
191.976
20
-118.394
11
191.968
21
-118.404
0
LINE
8
Black
10
191.968
20
-118.404
11
191.604
21
-118.705
0
LINE
8
Black
10
191.604
20
-118.705
11
191.593
21
-118.711
0
LINE
8
Black
10
191.593
20
-118.711
11
191.583
21
-118.719
0
LINE
8
Black
10
191.583
20
-118.719
11
191.162
21
-118.946
0
LINE
8
Black
10
191.162
20
-118.946
11
191.152
21
-118.95
0
LINE
8
Black
10
191.152
20
-118.95
11
191.142
21
-118.955
0
LINE
8
Black
10
191.142
20
-118.955
11
190.752
21
-119.085
0
LINE
8
Black
10
190.752
20
-119.085
11
190.752
21
-119.085
0
LINE
8
Black
10
190.752
20
-119.085
11
190.752
21
-119.085
0
LINE
8
Black
10
190.752
20
-119.085
11
189.52
21
-119.493
0
LINE
8
Black
10
189.52
20
-119.493
11
189.483
21
-119.509
0
LINE
8
Black
10
189.483
20
-119.509
11
189.481
21
-119.51
0
LINE
8
Black
10
189.481
20
-119.51
11
189.479
21
-119.511
0
LINE
8
Black
10
189.479
20
-119.511
11
189.443
21
-119.526
0
LINE
8
Black
10
189.443
20
-119.526
11
189.442
21
-119.526
0
LINE
8
Black
10
189.442
20
-119.526
11
187.97
21
-120.319
0
LINE
8
Black
10
187.97
20
-120.319
11
187.931
21
-120.344
0
LINE
8
Black
10
187.931
20
-120.344
11
187.931
21
-120.345
0
LINE
8
Black
10
187.931
20
-120.345
11
187.93
21
-120.345
0
LINE
8
Black
10
187.93
20
-120.345
11
187.892
21
-120.37
0
LINE
8
Black
10
187.892
20
-120.37
11
187.891
21
-120.371
0
LINE
8
Black
10
187.891
20
-120.371
11
186.601
21
-121.434
0
LINE
8
Black
10
186.601
20
-121.434
11
186.568
21
-121.467
0
LINE
8
Black
10
186.568
20
-121.467
11
186.567
21
-121.467
0
LINE
8
Black
10
186.567
20
-121.467
11
186.567
21
-121.468
0
LINE
8
Black
10
186.567
20
-121.468
11
186.534
21
-121.5
0
LINE
8
Black
10
186.534
20
-121.5
11
186.534
21
-121.501
0
LINE
8
Black
10
186.534
20
-121.501
11
185.475
21
-122.794
0
LINE
8
Black
10
185.475
20
-122.794
11
185.449
21
-122.832
0
LINE
8
Black
10
185.449
20
-122.832
11
185.448
21
-122.833
0
LINE
8
Black
10
185.448
20
-122.833
11
185.448
21
-122.834
0
LINE
8
Black
10
185.448
20
-122.834
11
185.422
21
-122.871
0
LINE
8
Black
10
185.422
20
-122.871
11
185.422
21
-122.872
0
LINE
8
Black
10
185.422
20
-122.872
11
184.634
21
-124.347
0
LINE
8
Black
10
184.634
20
-124.347
11
184.616
21
-124.389
0
LINE
8
Black
10
184.616
20
-124.389
11
184.616
21
-124.39
0
LINE
8
Black
10
184.616
20
-124.39
11
184.616
21
-124.391
0
LINE
8
Black
10
184.616
20
-124.391
11
184.598
21
-124.433
0
LINE
8
Black
10
184.598
20
-124.433
11
184.597
21
-124.434
0
LINE
8
Black
10
184.597
20
-124.434
11
184.111
21
-126.033
0
LINE
8
Black
10
184.111
20
-126.033
11
184.102
21
-126.079
0
LINE
8
Black
10
184.102
20
-126.079
11
184.102
21
-126.079
0
LINE
8
Black
10
184.102
20
-126.079
11
184.102
21
-126.08
0
LINE
8
Black
10
184.102
20
-126.08
11
184.092
21
-126.125
0
LINE
8
Black
10
184.092
20
-126.125
11
184.092
21
-126.126
0
LINE
8
Black
10
184.092
20
-126.126
11
183.926
21
-127.789
0
LINE
8
Black
10
183.926
20
-127.789
11
183.926
21
-127.835
0
LINE
8
Black
10
183.926
20
-127.835
11
183.925
21
-127.836
0
LINE
8
Black
10
183.925
20
-127.836
11
183.926
21
-127.837
0
LINE
8
Black
10
183.926
20
-127.837
11
183.925
21
-127.883
0
LINE
8
Black
10
183.925
20
-127.883
11
183.925
21
-127.884
0
LINE
8
Black
10
183.925
20
-127.884
11
184.085
21
-129.548
0
LINE
8
Black
10
184.085
20
-129.548
11
184.094
21
-129.593
0
LINE
8
Black
10
184.094
20
-129.593
11
184.094
21
-129.594
0
LINE
8
Black
10
184.094
20
-129.594
11
184.094
21
-129.595
0
LINE
8
Black
10
184.094
20
-129.595
11
184.102
21
-129.64
0
LINE
8
Black
10
184.102
20
-129.64
11
184.103
21
-129.641
0
LINE
8
Black
10
184.103
20
-129.641
11
184.583
21
-131.242
0
LINE
8
Black
10
184.583
20
-131.242
11
184.6
21
-131.285
0
LINE
8
Black
10
184.6
20
-131.285
11
184.6
21
-131.286
0
LINE
8
Black
10
184.6
20
-131.286
11
184.601
21
-131.286
0
LINE
8
Black
10
184.601
20
-131.286
11
184.618
21
-131.329
0
LINE
8
Black
10
184.618
20
-131.329
11
184.618
21
-131.33
0
LINE
8
Black
10
184.618
20
-131.33
11
185.4
21
-132.807
0
LINE
8
Black
10
185.4
20
-132.807
11
185.425
21
-132.846
0
LINE
8
Black
10
185.425
20
-132.846
11
185.426
21
-132.846
0
LINE
8
Black
10
185.426
20
-132.846
11
185.426
21
-132.847
0
LINE
8
Black
10
185.426
20
-132.847
11
185.451
21
-132.886
0
LINE
8
Black
10
185.451
20
-132.886
11
185.452
21
-132.886
0
LINE
8
Black
10
185.452
20
-132.886
11
186.51
21
-134.189
0
LINE
8
Black
10
186.51
20
-134.189
11
186.51
21
-134.189
0
LINE
8
Black
10
186.51
20
-134.189
11
186.51
21
-134.189
0
LINE
8
Black
10
186.51
20
-134.189
11
186.51
21
-134.189
0
LINE
8
Black
10
186.51
20
-134.189
11
186.51
21
-134.189
0
LINE
8
Black
10
186.51
20
-134.189
11
186.843
21
-134.599
0
LINE
8
Black
10
186.843
20
-134.599
11
186.849
21
-134.61
0
LINE
8
Black
10
186.849
20
-134.61
11
186.857
21
-134.62
0
LINE
8
Black
10
186.857
20
-134.62
11
187.078
21
-135.037
0
LINE
8
Black
10
187.078
20
-135.037
11
187.082
21
-135.049
0
LINE
8
Black
10
187.082
20
-135.049
11
187.087
21
-135.06
0
LINE
8
Black
10
187.087
20
-135.06
11
187.223
21
-135.513
0
LINE
8
Black
10
187.223
20
-135.513
11
187.224
21
-135.525
0
LINE
8
Black
10
187.224
20
-135.525
11
187.228
21
-135.537
0
LINE
8
Black
10
187.228
20
-135.537
11
187.273
21
-136.007
0
LINE
8
Black
10
187.273
20
-136.007
11
187.272
21
-136.02
0
LINE
8
Black
10
187.272
20
-136.02
11
187.273
21
-136.032
0
LINE
8
Black
10
187.273
20
-136.032
11
187.226
21
-136.502
0
LINE
8
Black
10
187.226
20
-136.502
11
187.222
21
-136.514
0
LINE
8
Black
10
187.222
20
-136.514
11
187.221
21
-136.526
0
LINE
8
Black
10
187.221
20
-136.526
11
187.084
21
-136.978
0
LINE
8
Black
10
187.084
20
-136.978
11
187.078
21
-136.989
0
LINE
8
Black
10
187.078
20
-136.989
11
187.074
21
-137.001
0
LINE
8
Black
10
187.074
20
-137.001
11
186.852
21
-137.418
0
LINE
8
Black
10
186.852
20
-137.418
11
186.844
21
-137.428
0
LINE
8
Black
10
186.844
20
-137.428
11
186.838
21
-137.438
0
LINE
8
Black
10
186.838
20
-137.438
11
186.526
21
-137.819
0
LINE
8
Black
10
186.526
20
-137.819
11
186.52
21
-137.824
0
LINE
8
Black
10
186.52
20
-137.824
11
186.515
21
-137.831
0
LINE
8
Black
10
186.515
20
-137.831
11
186.439
21
-137.903
0
LINE
8
Black
10
186.439
20
-137.903
11
186.432
21
-137.907
0
LINE
8
Black
10
186.432
20
-137.907
11
186.426
21
-137.913
0
LINE
8
Black
10
186.426
20
-137.913
11
177.468
21
-144.441
0
LINE
8
Black
10
177.468
20
-144.441
11
177.457
21
-144.447
0
LINE
8
Black
10
177.457
20
-144.447
11
177.447
21
-144.454
0
LINE
8
Black
10
177.447
20
-144.454
11
167.409
21
-149.109
0
LINE
8
Black
10
167.409
20
-149.109
11
167.397
21
-149.112
0
LINE
8
Black
10
167.397
20
-149.112
11
167.385
21
-149.117
0
LINE
8
Black
10
167.385
20
-149.117
11
156.627
21
-151.736
0
LINE
8
Black
10
156.627
20
-151.736
11
156.616
21
-151.737
0
LINE
8
Black
10
156.616
20
-151.737
11
156.606
21
-151.74
0
LINE
8
Black
10
156.606
20
-151.74
11
148.517
21
-152.301
0
LINE
8
Black
10
148.517
20
-152.301
11
148.507
21
-152.3
0
LINE
8
Black
10
148.507
20
-152.3
11
148.497
21
-152.301
0
LINE
8
Black
10
148.497
20
-152.301
11
137.473
21
-151.246
0
LINE
8
Black
10
137.473
20
-151.246
11
137.461
21
-151.243
0
LINE
8
Black
10
137.461
20
-151.243
11
137.449
21
-151.241
0
LINE
8
Black
10
137.449
20
-151.241
11
126.849
21
-148.068
0
LINE
8
Black
10
126.849
20
-148.068
11
126.838
21
-148.062
0
LINE
8
Black
10
126.838
20
-148.062
11
126.826
21
-148.059
0
LINE
8
Black
10
126.826
20
-148.059
11
117.037
21
-142.883
0
LINE
8
Black
10
117.037
20
-142.883
11
117.029
21
-142.877
0
LINE
8
Black
10
117.029
20
-142.877
11
117.019
21
-142.872
0
LINE
8
Black
10
117.019
20
-142.872
11
110.594
21
-137.929
0
LINE
8
Black
10
110.594
20
-137.929
11
110.587
21
-137.921
0
LINE
8
Black
10
110.587
20
-137.921
11
110.578
21
-137.914
0
LINE
8
Black
10
110.578
20
-137.914
11
110.253
21
-137.561
0
LINE
8
Black
10
110.253
20
-137.561
11
110.246
21
-137.551
0
LINE
8
Black
10
110.246
20
-137.551
11
110.238
21
-137.542
0
LINE
8
Black
10
110.238
20
-137.542
11
109.991
21
-137.139
0
LINE
8
Black
10
109.991
20
-137.139
11
109.986
21
-137.127
0
LINE
8
Black
10
109.986
20
-137.127
11
109.98
21
-137.117
0
LINE
8
Black
10
109.98
20
-137.117
11
109.816
21
-136.674
0
LINE
8
Black
10
109.816
20
-136.674
11
109.814
21
-136.662
0
LINE
8
Black
10
109.814
20
-136.662
11
109.81
21
-136.65
0
LINE
8
Black
10
109.81
20
-136.65
11
109.735
21
-136.183
0
LINE
8
Black
10
109.735
20
-136.183
11
109.735
21
-136.171
0
LINE
8
Black
10
109.735
20
-136.171
11
109.733
21
-136.159
0
LINE
8
Black
10
109.733
20
-136.159
11
109.751
21
-135.687
0
LINE
8
Black
10
109.751
20
-135.687
11
109.753
21
-135.675
0
LINE
8
Black
10
109.753
20
-135.675
11
109.754
21
-135.662
0
LINE
8
Black
10
109.754
20
-135.662
11
109.842
21
-135.288
0
LINE
8
Black
10
109.842
20
-135.288
11
109.862
21
-135.202
0
LINE
8
Black
10
109.862
20
-135.202
11
109.867
21
-135.191
0
LINE
8
Black
10
109.867
20
-135.191
11
109.87
21
-135.179
0
LINE
8
Black
10
109.87
20
-135.179
11
110.066
21
-134.749
0
LINE
8
Black
10
110.066
20
-134.749
11
110.073
21
-134.739
0
LINE
8
Black
10
110.073
20
-134.739
11
110.079
21
-134.728
0
LINE
8
Black
10
110.079
20
-134.728
11
110.366
21
-134.328
0
LINE
8
Black
10
110.366
20
-134.328
11
110.371
21
-134.322
0
LINE
8
Black
10
110.371
20
-134.322
11
110.376
21
-134.315
0
LINE
8
Black
10
110.376
20
-134.315
11
110.468
21
-134.216
0
LINE
8
Black
10
110.468
20
-134.216
11
110.47
21
-134.214
0
LINE
8
Black
10
110.47
20
-134.214
11
110.478
21
-134.207
0
LINE
8
Black
10
110.478
20
-134.207
11
110.484
21
-134.198
0
LINE
8
Black
10
110.484
20
-134.198
11
110.486
21
-134.197
0
LINE
8
Black
10
110.486
20
-134.197
11
110.487
21
-134.196
0
LINE
8
Black
10
110.487
20
-134.196
11
111.327
21
-133.206
0
LINE
8
Black
10
111.327
20
-133.206
11
111.35
21
-133.173
0
LINE
8
Black
10
111.35
20
-133.173
11
111.352
21
-133.172
0
LINE
8
Black
10
111.352
20
-133.172
11
111.353
21
-133.17
0
LINE
8
Black
10
111.353
20
-133.17
11
111.376
21
-133.138
0
LINE
8
Black
10
111.376
20
-133.138
11
111.377
21
-133.137
0
LINE
8
Black
10
111.377
20
-133.137
11
112.222
21
-131.695
0
LINE
8
Black
10
112.222
20
-131.695
11
112.242
21
-131.653
0
LINE
8
Black
10
112.242
20
-131.653
11
112.242
21
-131.652
0
LINE
8
Black
10
112.242
20
-131.652
11
112.242
21
-131.652
0
LINE
8
Black
10
112.242
20
-131.652
11
112.262
21
-131.61
0
LINE
8
Black
10
112.262
20
-131.61
11
112.262
21
-131.609
0
LINE
8
Black
10
112.262
20
-131.609
11
112.812
21
-130.031
0
LINE
8
Black
10
112.812
20
-130.031
11
112.823
21
-129.986
0
LINE
8
Black
10
112.823
20
-129.986
11
112.823
21
-129.985
0
LINE
8
Black
10
112.823
20
-129.985
11
112.823
21
-129.984
0
LINE
8
Black
10
112.823
20
-129.984
11
112.834
21
-129.94
0
LINE
8
Black
10
112.834
20
-129.94
11
112.834
21
-129.939
0
LINE
8
Black
10
112.834
20
-129.939
11
113.067
21
-128.283
0
LINE
8
Black
10
113.067
20
-128.283
11
113.069
21
-128.237
0
LINE
8
Black
10
113.069
20
-128.237
11
113.069
21
-128.236
0
LINE
8
Black
10
113.069
20
-128.236
11
113.069
21
-128.236
0
LINE
8
Black
10
113.069
20
-128.236
11
113.071
21
-128.19
0
LINE
8
Black
10
113.071
20
-128.19
11
113.071
21
-128.189
0
LINE
8
Black
10
113.071
20
-128.189
11
112.977
21
-126.52
0
LINE
8
Black
10
112.977
20
-126.52
11
112.97
21
-126.474
0
LINE
8
Black
10
112.97
20
-126.474
11
112.97
21
-126.473
0
LINE
8
Black
10
112.97
20
-126.473
11
112.97
21
-126.473
0
LINE
8
Black
10
112.97
20
-126.473
11
112.964
21
-126.427
0
LINE
8
Black
10
112.964
20
-126.427
11
112.964
21
-126.426
0
LINE
8
Black
10
112.964
20
-126.426
11
112.547
21
-124.807
0
LINE
8
Black
10
112.547
20
-124.807
11
112.532
21
-124.764
0
LINE
8
Black
10
112.532
20
-124.764
11
112.531
21
-124.763
0
LINE
8
Black
10
112.531
20
-124.763
11
112.531
21
-124.762
0
LINE
8
Black
10
112.531
20
-124.762
11
112.516
21
-124.719
0
LINE
8
Black
10
112.516
20
-124.719
11
112.516
21
-124.718
0
LINE
8
Black
10
112.516
20
-124.718
11
111.793
21
-123.211
0
LINE
8
Black
10
111.793
20
-123.211
11
111.769
21
-123.171
0
LINE
8
Black
10
111.769
20
-123.171
11
111.769
21
-123.171
0
LINE
8
Black
10
111.769
20
-123.171
11
111.768
21
-123.17
0
LINE
8
Black
10
111.768
20
-123.17
11
111.745
21
-123.131
0
LINE
8
Black
10
111.745
20
-123.131
11
111.744
21
-123.13
0
LINE
8
Black
10
111.744
20
-123.13
11
110.743
21
-121.791
0
LINE
8
Black
10
110.743
20
-121.791
11
110.712
21
-121.757
0
LINE
8
Black
10
110.712
20
-121.757
11
110.711
21
-121.757
0
LINE
8
Black
10
110.711
20
-121.757
11
110.71
21
-121.756
0
LINE
8
Black
10
110.71
20
-121.756
11
110.68
21
-121.722
0
LINE
8
Black
10
110.68
20
-121.722
11
110.679
21
-121.721
0
LINE
8
Black
10
110.679
20
-121.721
11
109.437
21
-120.603
0
LINE
8
Black
10
109.437
20
-120.603
11
109.4
21
-120.576
0
LINE
8
Black
10
109.4
20
-120.576
11
109.399
21
-120.575
0
LINE
8
Black
10
109.399
20
-120.575
11
109.398
21
-120.575
0
LINE
8
Black
10
109.398
20
-120.575
11
109.362
21
-120.547
0
LINE
8
Black
10
109.362
20
-120.547
11
109.361
21
-120.547
0
LINE
8
Black
10
109.361
20
-120.547
11
107.925
21
-119.691
0
LINE
8
Black
10
107.925
20
-119.691
11
107.883
21
-119.671
0
LINE
8
Black
10
107.883
20
-119.671
11
107.882
21
-119.671
0
LINE
8
Black
10
107.882
20
-119.671
11
107.881
21
-119.671
0
LINE
8
Black
10
107.881
20
-119.671
11
107.84
21
-119.651
0
LINE
8
Black
10
107.84
20
-119.651
11
107.839
21
-119.65
0
LINE
8
Black
10
107.839
20
-119.65
11
106.259
21
-119.088
0
LINE
8
Black
10
106.259
20
-119.088
11
105.76
21
-118.91
0
LINE
8
Black
10
105.76
20
-118.91
11
105.749
21
-118.904
0
LINE
8
Black
10
105.749
20
-118.904
11
105.738
21
-118.9
0
LINE
8
Black
10
105.738
20
-118.9
11
105.332
21
-118.658
0
LINE
8
Black
10
105.332
20
-118.658
11
105.323
21
-118.65
0
LINE
8
Black
10
105.323
20
-118.65
11
105.312
21
-118.643
0
LINE
8
Black
10
105.312
20
-118.643
11
104.961
21
-118.327
0
LINE
8
Black
10
104.961
20
-118.327
11
104.953
21
-118.318
0
LINE
8
Black
10
104.953
20
-118.318
11
104.944
21
-118.309
0
LINE
8
Black
10
104.944
20
-118.309
11
104.661
21
-117.931
0
LINE
8
Black
10
104.661
20
-117.931
11
104.656
21
-117.92
0
LINE
8
Black
10
104.656
20
-117.92
11
104.648
21
-117.91
0
LINE
8
Black
10
104.648
20
-117.91
11
104.444
21
-117.484
0
LINE
8
Black
10
104.444
20
-117.484
11
104.441
21
-117.472
0
LINE
8
Black
10
104.441
20
-117.472
11
104.436
21
-117.461
0
LINE
8
Black
10
104.436
20
-117.461
11
104.317
21
-116.997
0
LINE
8
Black
10
104.317
20
-116.997
11
104.316
21
-116.986
0
LINE
8
Black
10
104.316
20
-116.986
11
104.313
21
-116.975
0
LINE
8
Black
10
104.313
20
-116.975
11
104.283
21
-116.588
0
LINE
8
Black
10
104.283
20
-116.588
11
104.284
21
-116.583
0
LINE
8
Black
10
104.284
20
-116.583
11
104.283
21
-116.578
0
LINE
8
Black
10
104.283
20
-116.578
11
104.283
21
-112.817
0
LINE
8
Black
10
104.283
20
-112.817
11
104.283
21
-108.741
0
LINE
8
Black
10
104.283
20
-108.741
11
104.283
21
-106.992
0
LINE
8
Black
10
104.283
20
-106.992
11
104.283
21
-105.228
0
LINE
8
Black
10
104.283
20
-105.228
11
104.283
21
-101.996
0
LINE
8
Black
10
104.283
20
-101.996
11
104.283
21
-100.248
0
LINE
8
Black
10
104.283
20
-100.248
11
104.283
21
-97.6724
0
LINE
8
Black
10
104.283
20
-97.6724
11
104.283
21
-93.5309
0
LINE
8
Black
10
104.283
20
-93.5309
11
104.284
21
-93.5247
0
LINE
8
Black
10
104.284
20
-93.5247
11
104.283
21
-93.5185
0
LINE
8
Black
10
104.283
20
-93.5185
11
104.332
21
-93.0202
0
LINE
8
Black
10
104.332
20
-93.0202
11
104.336
21
-93.0082
0
LINE
8
Black
10
104.336
20
-93.0082
11
104.337
21
-92.9959
0
LINE
8
Black
10
104.337
20
-92.9959
11
104.474
21
-92.5437
0
LINE
8
Black
10
104.474
20
-92.5437
11
104.479
21
-92.5326
0
LINE
8
Black
10
104.479
20
-92.5326
11
104.483
21
-92.5208
0
LINE
8
Black
10
104.483
20
-92.5208
11
104.705
21
-92.1037
0
LINE
8
Black
10
104.705
20
-92.1037
11
104.712
21
-92.0939
0
LINE
8
Black
10
104.712
20
-92.0939
11
104.718
21
-92.0831
0
LINE
8
Black
10
104.718
20
-92.0831
11
105.017
21
-91.717
0
LINE
8
Black
10
105.017
20
-91.717
11
105.026
21
-91.7089
0
LINE
8
Black
10
105.026
20
-91.7089
11
105.035
21
-91.6994
0
LINE
8
Black
10
105.035
20
-91.6994
11
105.398
21
-91.3983
0
LINE
8
Black
10
105.398
20
-91.3983
11
105.409
21
-91.3922
0
LINE
8
Black
10
105.409
20
-91.3922
11
105.419
21
-91.3845
0
LINE
8
Black
10
105.419
20
-91.3845
11
105.84
21
-91.1566
0
LINE
8
Black
10
105.84
20
-91.1566
11
105.851
21
-91.1531
0
LINE
8
Black
10
105.851
20
-91.1531
11
105.86
21
-91.1479
0
LINE
8
Black
10
105.86
20
-91.1479
11
106.236
21
-91.0222
0
LINE
8
Black
10
106.236
20
-91.0222
11
106.236
21
-91.0221
0
LINE
8
Black
10
106.236
20
-91.0221
11
106.236
21
-91.022
0
LINE
8
Black
10
106.236
20
-91.022
11
107.396
21
-90.6368
0
LINE
8
Black
10
107.396
20
-90.6368
11
107.431
21
-90.6212
0
LINE
8
Black
10
107.431
20
-90.6212
11
107.433
21
-90.6206
0
LINE
8
Black
10
107.433
20
-90.6206
11
107.436
21
-90.6192
0
LINE
8
Black
10
107.436
20
-90.6192
11
107.471
21
-90.6051
0
LINE
8
Black
10
107.471
20
-90.6051
11
107.472
21
-90.6046
0
LINE
8
Black
10
107.472
20
-90.6046
11
108.947
21
-89.818
0
LINE
8
Black
10
108.947
20
-89.818
11
108.985
21
-89.7925
0
LINE
8
Black
10
108.985
20
-89.7925
11
108.986
21
-89.7921
0
LINE
8
Black
10
108.986
20
-89.7921
11
108.987
21
-89.7915
0
LINE
8
Black
10
108.987
20
-89.7915
11
109.025
21
-89.7667
0
LINE
8
Black
10
109.025
20
-89.7667
11
109.026
21
-89.7662
0
LINE
8
Black
10
109.026
20
-89.7662
11
110.32
21
-88.7079
0
LINE
8
Black
10
110.32
20
-88.7079
11
110.353
21
-88.6755
0
LINE
8
Black
10
110.353
20
-88.6755
11
110.354
21
-88.6749
0
LINE
8
Black
10
110.354
20
-88.6749
11
110.354
21
-88.6742
0
LINE
8
Black
10
110.354
20
-88.6742
11
110.387
21
-88.6424
0
LINE
8
Black
10
110.387
20
-88.6424
11
110.388
21
-88.6417
0
LINE
8
Black
10
110.388
20
-88.6417
11
111.452
21
-87.3523
0
LINE
8
Black
10
111.452
20
-87.3523
11
111.477
21
-87.314
0
LINE
8
Black
10
111.477
20
-87.314
11
111.478
21
-87.3134
0
LINE
8
Black
10
111.478
20
-87.3134
11
111.478
21
-87.3126
0
LINE
8
Black
10
111.478
20
-87.3126
11
111.504
21
-87.2751
0
LINE
8
Black
10
111.504
20
-87.2751
11
111.505
21
-87.2742
0
LINE
8
Black
10
111.505
20
-87.2742
11
112.298
21
-85.8027
0
LINE
8
Black
10
112.298
20
-85.8027
11
112.316
21
-85.7602
0
LINE
8
Black
10
112.316
20
-85.7602
11
112.316
21
-85.7594
0
LINE
8
Black
10
112.316
20
-85.7594
11
112.317
21
-85.7586
0
LINE
8
Black
10
112.317
20
-85.7586
11
112.335
21
-85.7167
0
LINE
8
Black
10
112.335
20
-85.7167
11
112.335
21
-85.7158
0
LINE
8
Black
10
112.335
20
-85.7158
11
112.828
21
-84.1182
0
LINE
8
Black
10
112.828
20
-84.1182
11
112.837
21
-84.073
0
LINE
8
Black
10
112.837
20
-84.073
11
112.837
21
-84.0722
0
LINE
8
Black
10
112.837
20
-84.0722
11
112.837
21
-84.0713
0
LINE
8
Black
10
112.837
20
-84.0713
11
112.847
21
-84.0267
0
LINE
8
Black
10
112.847
20
-84.0267
11
112.847
21
-84.0257
0
LINE
8
Black
10
112.847
20
-84.0257
11
113.02
21
-82.3629
0
LINE
8
Black
10
113.02
20
-82.3629
11
113.02
21
-82.3169
0
LINE
8
Black
10
113.02
20
-82.3169
11
113.02
21
-82.316
0
LINE
8
Black
10
113.02
20
-82.316
11
113.02
21
-82.3151
0
LINE
8
Black
10
113.02
20
-82.3151
11
113.021
21
-82.2694
0
LINE
8
Black
10
113.021
20
-82.2694
11
113.021
21
-82.2685
0
LINE
8
Black
10
113.021
20
-82.2685
11
112.867
21
-80.6038
0
LINE
8
Black
10
112.867
20
-80.6038
11
112.859
21
-80.5585
0
LINE
8
Black
10
112.859
20
-80.5585
11
112.859
21
-80.5576
0
LINE
8
Black
10
112.859
20
-80.5576
11
112.858
21
-80.5568
0
LINE
8
Black
10
112.858
20
-80.5568
11
112.85
21
-80.5118
0
LINE
8
Black
10
112.85
20
-80.5118
11
112.85
21
-80.5109
0
LINE
8
Black
10
112.85
20
-80.5109
11
112.376
21
-78.9078
0
LINE
8
Black
10
112.376
20
-78.9078
11
112.359
21
-78.8651
0
LINE
8
Black
10
112.359
20
-78.8651
11
112.359
21
-78.8642
0
LINE
8
Black
10
112.359
20
-78.8642
11
112.358
21
-78.8634
0
LINE
8
Black
10
112.358
20
-78.8634
11
112.341
21
-78.8209
0
LINE
8
Black
10
112.341
20
-78.8209
11
112.341
21
-78.82
0
LINE
8
Black
10
112.341
20
-78.82
11
111.565
21
-77.3394
0
LINE
8
Black
10
111.565
20
-77.3394
11
111.539
21
-77.3009
0
LINE
8
Black
10
111.539
20
-77.3009
11
111.539
21
-77.3001
0
LINE
8
Black
10
111.539
20
-77.3001
11
111.538
21
-77.2994
0
LINE
8
Black
10
111.538
20
-77.2994
11
111.514
21
-77.2609
0
LINE
8
Black
10
111.514
20
-77.2609
11
111.513
21
-77.2602
0
LINE
8
Black
10
111.513
20
-77.2602
11
110.46
21
-75.9537
0
LINE
8
Black
10
110.46
20
-75.9537
11
110.46
21
-75.9537
0
LINE
8
Black
10
110.46
20
-75.9537
11
110.46
21
-75.9537
0
LINE
8
Black
10
110.46
20
-75.9537
11
110.128
21
-75.5419
0
LINE
8
Black
10
110.128
20
-75.5419
11
110.122
21
-75.531
0
LINE
8
Black
10
110.122
20
-75.531
11
110.115
21
-75.5212
0
LINE
8
Black
10
110.115
20
-75.5212
11
110.039
21
-75.376
0
LINE
8
Black
10
110.039
20
-75.376
11
109.895
21
-75.1029
0
LINE
8
Black
10
109.895
20
-75.1029
11
109.892
21
-75.091
0
LINE
8
Black
10
109.892
20
-75.091
11
109.886
21
-75.0799
0
LINE
8
Black
10
109.886
20
-75.0799
11
109.752
21
-74.6269
0
LINE
8
Black
10
109.752
20
-74.6269
11
109.751
21
-74.6146
0
LINE
8
Black
10
109.751
20
-74.6146
11
109.748
21
-74.6026
0
LINE
8
Black
10
109.748
20
-74.6026
11
109.704
21
-74.1322
0
LINE
8
Black
10
109.704
20
-74.1322
11
109.705
21
-74.1198
0
LINE
8
Black
10
109.705
20
-74.1198
11
109.704
21
-74.1075
0
LINE
8
Black
10
109.704
20
-74.1075
11
109.753
21
-73.6376
0
LINE
8
Black
10
109.753
20
-73.6376
11
109.757
21
-73.6257
0
LINE
8
Black
10
109.757
20
-73.6257
11
109.758
21
-73.6134
0
LINE
8
Black
10
109.758
20
-73.6134
11
109.897
21
-73.162
0
LINE
8
Black
10
109.897
20
-73.162
11
109.903
21
-73.1509
0
LINE
8
Black
10
109.903
20
-73.1509
11
109.907
21
-73.1391
0
LINE
8
Black
10
109.907
20
-73.1391
11
110.131
21
-72.7233
0
LINE
8
Black
10
110.131
20
-72.7233
11
110.139
21
-72.7136
0
LINE
8
Black
10
110.139
20
-72.7136
11
110.145
21
-72.7028
0
LINE
8
Black
10
110.145
20
-72.7028
11
110.459
21
-72.3223
0
LINE
8
Black
10
110.459
20
-72.3223
11
110.465
21
-72.3172
0
LINE
8
Black
10
110.465
20
-72.3172
11
110.469
21
-72.3109
0
LINE
8
Black
10
110.469
20
-72.3109
11
110.53
21
-72.2533
0
LINE
8
Black
10
110.53
20
-72.2533
11
110.537
21
-72.249
0
LINE
8
Black
10
110.537
20
-72.249
11
110.542
21
-72.2433
0
LINE
8
Black
10
110.542
20
-72.2433
11
119.476
21
-65.6795
0
LINE
8
Black
10
119.476
20
-65.6795
11
119.487
21
-65.674
0
LINE
8
Black
10
119.487
20
-65.674
11
119.497
21
-65.6668
0
LINE
8
Black
10
119.497
20
-65.6668
11
129.517
21
-60.9721
0
LINE
8
Black
10
129.517
20
-60.9721
11
129.529
21
-60.9689
0
LINE
8
Black
10
129.529
20
-60.9689
11
129.54
21
-60.9639
0
LINE
8
Black
10
129.54
20
-60.9639
11
140.281
21
-58.3047
0
LINE
8
Black
10
140.281
20
-58.3047
11
140.293
21
-58.3039
0
LINE
8
Black
10
140.293
20
-58.3039
11
140.305
21
-58.3011
0
LINE
8
Black
10
140.305
20
-58.3011
11
151.358
21
-57.7788
0
LINE
8
Black
10
151.358
20
-57.7788
11
151.37
21
-57.7804
0
LINE
8
Black
10
122.98
20
-131.533
11
122.325
21
-131.798
0
LINE
8
Black
10
122.325
20
-131.798
11
121.734
21
-132.184
0
LINE
8
Black
10
121.734
20
-132.184
11
121.23
21
-132.678
0
LINE
8
Black
10
121.23
20
-132.678
11
120.831
21
-133.261
0
LINE
8
Black
10
120.831
20
-133.261
11
120.553
21
-133.91
0
LINE
8
Black
10
120.553
20
-133.91
11
120.406
21
-134.6
0
LINE
8
Black
10
120.406
20
-134.6
11
120.396
21
-135.306
0
LINE
8
Black
10
120.396
20
-135.306
11
120.524
21
-136.001
0
LINE
8
Black
10
120.524
20
-136.001
11
120.784
21
-136.657
0
LINE
8
Black
10
120.784
20
-136.657
11
121.166
21
-137.251
0
LINE
8
Black
10
121.166
20
-137.251
11
121.657
21
-137.758
0
LINE
8
Black
10
121.657
20
-137.758
11
122.236
21
-138.161
0
LINE
8
Black
10
122.236
20
-138.161
11
122.883
21
-138.444
0
LINE
8
Black
10
122.883
20
-138.444
11
123.573
21
-138.596
0
LINE
8
Black
10
123.573
20
-138.596
11
124.279
21
-138.61
0
LINE
8
Black
10
124.279
20
-138.61
11
124.974
21
-138.488
0
LINE
8
Black
10
124.974
20
-138.488
11
125.632
21
-138.232
0
LINE
8
Black
10
125.632
20
-138.232
11
126.228
21
-137.854
0
LINE
8
Black
10
126.228
20
-137.854
11
126.739
21
-137.367
0
LINE
8
Black
10
126.739
20
-137.367
11
127.146
21
-136.79
0
LINE
8
Black
10
127.146
20
-136.79
11
127.434
21
-136.145
0
LINE
8
Black
10
127.434
20
-136.145
11
127.59
21
-135.458
0
LINE
8
Black
10
127.59
20
-135.458
11
127.592
21
-135.315
0
LINE
8
Black
10
127.592
20
-135.315
11
127.601
21
-134.65
0
LINE
8
Black
10
127.601
20
-134.65
11
127.464
21
-133.958
0
LINE
8
Black
10
127.464
20
-133.958
11
127.195
21
-133.305
0
LINE
8
Black
10
127.195
20
-133.305
11
126.804
21
-132.717
0
LINE
8
Black
10
126.804
20
-132.717
11
126.307
21
-132.216
0
LINE
8
Black
10
126.307
20
-132.216
11
125.722
21
-131.822
0
LINE
8
Black
10
125.722
20
-131.822
11
125.071
21
-131.548
0
LINE
8
Black
10
125.071
20
-131.548
11
124.379
21
-131.406
0
LINE
8
Black
10
124.379
20
-131.406
11
123.673
21
-131.401
0
LINE
8
Black
10
123.673
20
-131.401
11
122.98
21
-131.533
0
LINE
8
Black
10
171.98
20
-131.533
11
171.325
21
-131.798
0
LINE
8
Black
10
171.325
20
-131.798
11
170.734
21
-132.184
0
LINE
8
Black
10
170.734
20
-132.184
11
170.23
21
-132.678
0
LINE
8
Black
10
170.23
20
-132.678
11
169.831
21
-133.261
0
LINE
8
Black
10
169.831
20
-133.261
11
169.553
21
-133.91
0
LINE
8
Black
10
169.553
20
-133.91
11
169.406
21
-134.6
0
LINE
8
Black
10
169.406
20
-134.6
11
169.396
21
-135.306
0
LINE
8
Black
10
169.396
20
-135.306
11
169.524
21
-136.001
0
LINE
8
Black
10
169.524
20
-136.001
11
169.784
21
-136.657
0
LINE
8
Black
10
169.784
20
-136.657
11
170.166
21
-137.251
0
LINE
8
Black
10
170.166
20
-137.251
11
170.657
21
-137.758
0
LINE
8
Black
10
170.657
20
-137.758
11
171.236
21
-138.161
0
LINE
8
Black
10
171.236
20
-138.161
11
171.883
21
-138.444
0
LINE
8
Black
10
171.883
20
-138.444
11
172.573
21
-138.596
0
LINE
8
Black
10
172.573
20
-138.596
11
173.279
21
-138.61
0
LINE
8
Black
10
173.279
20
-138.61
11
173.974
21
-138.488
0
LINE
8
Black
10
173.974
20
-138.488
11
174.632
21
-138.232
0
LINE
8
Black
10
174.632
20
-138.232
11
175.228
21
-137.854
0
LINE
8
Black
10
175.228
20
-137.854
11
175.739
21
-137.367
0
LINE
8
Black
10
175.739
20
-137.367
11
176.146
21
-136.79
0
LINE
8
Black
10
176.146
20
-136.79
11
176.434
21
-136.145
0
LINE
8
Black
10
176.434
20
-136.145
11
176.59
21
-135.458
0
LINE
8
Black
10
176.59
20
-135.458
11
176.601
21
-134.65
0
LINE
8
Black
10
176.601
20
-134.65
11
176.464
21
-133.958
0
LINE
8
Black
10
176.464
20
-133.958
11
176.195
21
-133.305
0
LINE
8
Black
10
176.195
20
-133.305
11
175.804
21
-132.717
0
LINE
8
Black
10
175.804
20
-132.717
11
175.307
21
-132.216
0
LINE
8
Black
10
175.307
20
-132.216
11
174.722
21
-131.822
0
LINE
8
Black
10
174.722
20
-131.822
11
174.071
21
-131.548
0
LINE
8
Black
10
174.071
20
-131.548
11
173.379
21
-131.406
0
LINE
8
Black
10
173.379
20
-131.406
11
172.673
21
-131.401
0
LINE
8
Black
10
172.673
20
-131.401
11
171.98
21
-131.533
0
LINE
8
Black
10
145.076
20
-89.4263
11
142.116
21
-90.3882
0
LINE
8
Black
10
142.116
20
-90.3882
11
139.399
21
-91.9068
0
LINE
8
Black
10
139.399
20
-91.9068
11
137.028
21
-93.9242
0
LINE
8
Black
10
137.028
20
-93.9242
11
135.095
21
-96.3637
0
LINE
8
Black
10
135.095
20
-96.3637
11
133.672
21
-99.1322
0
LINE
8
Black
10
133.672
20
-99.1322
11
132.814
21
-102.124
0
LINE
8
Black
10
132.814
20
-102.124
11
132.553
21
-105.226
0
LINE
8
Black
10
132.553
20
-105.226
11
132.9
21
-108.32
0
LINE
8
Black
10
132.9
20
-108.32
11
133.841
21
-111.287
0
LINE
8
Black
10
133.841
20
-111.287
11
135.341
21
-114.014
0
LINE
8
Black
10
135.341
20
-114.014
11
137.342
21
-116.399
0
LINE
8
Black
10
137.342
20
-116.399
11
139.768
21
-118.349
0
LINE
8
Black
10
139.768
20
-118.349
11
142.526
21
-119.792
0
LINE
8
Black
10
142.526
20
-119.792
11
145.512
21
-120.67
0
LINE
8
Black
10
145.512
20
-120.67
11
148.612
21
-120.953
0
LINE
8
Black
10
148.612
20
-120.953
11
151.708
21
-120.627
0
LINE
8
Black
10
151.708
20
-120.627
11
154.682
21
-119.707
0
LINE
8
Black
10
154.682
20
-119.707
11
157.42
21
-118.226
0
LINE
8
Black
10
157.42
20
-118.226
11
159.818
21
-116.242
0
LINE
8
Black
10
159.818
20
-116.242
11
161.786
21
-113.83
0
LINE
8
Black
10
161.786
20
-113.83
11
162.333
21
-112.801
0
LINE
8
Black
10
162.333
20
-112.801
11
162.333
21
-112.801
0
LINE
8
Black
10
162.333
20
-112.801
11
163.247
21
-111.081
0
LINE
8
Black
10
163.247
20
-111.081
11
163.249
21
-111.075
0
LINE
8
Black
10
163.249
20
-111.075
11
163.249
21
-111.075
0
LINE
8
Black
10
163.249
20
-111.075
11
163.249
21
-111.075
0
LINE
8
Black
10
163.249
20
-111.075
11
163.965
21
-108.704
0
LINE
8
Black
10
163.965
20
-108.704
11
163.965
21
-108.704
0
LINE
8
Black
10
163.965
20
-108.704
11
164.147
21
-108.102
0
LINE
8
Black
10
164.147
20
-108.102
11
164.257
21
-106.98
0
LINE
8
Black
10
164.257
20
-106.98
11
164.451
21
-104.998
0
LINE
8
Black
10
164.451
20
-104.998
11
164.445
21
-104.564
0
LINE
8
Black
10
164.445
20
-104.564
11
164.123
21
-102.012
0
LINE
8
Black
10
164.123
20
-102.012
11
164.054
21
-101.47
0
LINE
8
Black
10
164.054
20
-101.47
11
163.661
21
-100.288
0
LINE
8
Black
10
163.661
20
-100.288
11
163.072
21
-98.5164
0
LINE
8
Black
10
163.072
20
-98.5164
11
162.742
21
-97.9371
0
LINE
8
Black
10
162.742
20
-97.9371
11
162.742
21
-97.9371
0
LINE
8
Black
10
162.742
20
-97.9371
11
161.749
21
-96.1888
0
LINE
8
Black
10
161.749
20
-96.1888
11
161.534
21
-95.8099
0
LINE
8
Black
10
161.534
20
-95.8099
11
159.5
21
-93.4535
0
LINE
8
Black
10
159.5
20
-93.4535
11
157.047
21
-91.5371
0
LINE
8
Black
10
157.047
20
-91.5371
11
154.269
21
-90.1336
0
LINE
8
Black
10
154.269
20
-90.1336
11
151.271
21
-89.2965
0
LINE
8
Black
10
151.271
20
-89.2965
11
148.167
21
-89.0577
0
LINE
8
Black
10
148.167
20
-89.0577
11
145.076
21
-89.4263
0
LINE
8
Black
10
172.689
20
-112.829
11
172.689
21
-113.975
0
LINE
8
Black
10
172.689
20
-113.975
11
171.543
21
-113.975
0
LINE
8
Black
10
171.543
20
-113.975
11
171.543
21
-114.398
0
LINE
8
Black
10
171.543
20
-114.398
11
171.628
21
-114.483
0
LINE
8
Black
10
171.628
20
-114.483
11
172.739
21
-114.483
0
LINE
8
Black
10
172.739
20
-114.483
11
172.838
21
-114.463
0
LINE
8
Black
10
172.838
20
-114.463
11
172.93
21
-114.425
0
LINE
8
Black
10
172.93
20
-114.425
11
173.013
21
-114.369
0
LINE
8
Black
10
173.013
20
-114.369
11
173.084
21
-114.298
0
LINE
8
Black
10
173.084
20
-114.298
11
173.14
21
-114.215
0
LINE
8
Black
10
173.14
20
-114.215
11
173.178
21
-114.123
0
LINE
8
Black
10
173.178
20
-114.123
11
173.197
21
-114.025
0
LINE
8
Black
10
173.197
20
-114.025
11
173.197
21
-112.913
0
LINE
8
Black
10
173.197
20
-112.913
11
173.113
21
-112.829
0
LINE
8
Black
10
173.113
20
-112.829
11
172.689
21
-112.829
0
LINE
8
Black
10
169.466
20
-112.829
11
169.381
21
-112.913
0
LINE
8
Black
10
169.381
20
-112.913
11
169.381
21
-114.025
0
LINE
8
Black
10
169.381
20
-114.025
11
169.401
21
-114.123
0
LINE
8
Black
10
169.401
20
-114.123
11
169.439
21
-114.215
0
LINE
8
Black
10
169.439
20
-114.215
11
169.495
21
-114.298
0
LINE
8
Black
10
169.495
20
-114.298
11
169.566
21
-114.369
0
LINE
8
Black
10
169.566
20
-114.369
11
169.649
21
-114.425
0
LINE
8
Black
10
169.649
20
-114.425
11
169.741
21
-114.463
0
LINE
8
Black
10
169.741
20
-114.463
11
169.839
21
-114.483
0
LINE
8
Black
10
169.839
20
-114.483
11
170.951
21
-114.483
0
LINE
8
Black
10
170.951
20
-114.483
11
171.035
21
-114.398
0
LINE
8
Black
10
171.035
20
-114.398
11
171.035
21
-113.975
0
LINE
8
Black
10
171.035
20
-113.975
11
169.889
21
-113.975
0
LINE
8
Black
10
169.889
20
-113.975
11
169.889
21
-112.829
0
LINE
8
Black
10
169.889
20
-112.829
11
169.466
21
-112.829
0
LINE
8
Black
10
126.969
20
-112.829
11
126.969
21
-113.975
0
LINE
8
Black
10
126.969
20
-113.975
11
125.823
21
-113.975
0
LINE
8
Black
10
125.823
20
-113.975
11
125.823
21
-114.398
0
LINE
8
Black
10
125.823
20
-114.398
11
125.908
21
-114.483
0
LINE
8
Black
10
125.908
20
-114.483
11
127.019
21
-114.483
0
LINE
8
Black
10
127.019
20
-114.483
11
127.118
21
-114.463
0
LINE
8
Black
10
127.118
20
-114.463
11
127.21
21
-114.425
0
LINE
8
Black
10
127.21
20
-114.425
11
127.293
21
-114.369
0
LINE
8
Black
10
127.293
20
-114.369
11
127.364
21
-114.298
0
LINE
8
Black
10
127.364
20
-114.298
11
127.42
21
-114.215
0
LINE
8
Black
10
127.42
20
-114.215
11
127.458
21
-114.123
0
LINE
8
Black
10
127.458
20
-114.123
11
127.477
21
-114.025
0
LINE
8
Black
10
127.477
20
-114.025
11
127.477
21
-112.913
0
LINE
8
Black
10
127.477
20
-112.913
11
127.393
21
-112.829
0
LINE
8
Black
10
127.393
20
-112.829
11
126.969
21
-112.829
0
LINE
8
Black
10
123.746
20
-112.829
11
123.661
21
-112.913
0
LINE
8
Black
10
123.661
20
-112.913
11
123.661
21
-114.025
0
LINE
8
Black
10
123.661
20
-114.025
11
123.681
21
-114.123
0
LINE
8
Black
10
123.681
20
-114.123
11
123.719
21
-114.215
0
LINE
8
Black
10
123.719
20
-114.215
11
123.775
21
-114.298
0
LINE
8
Black
10
123.775
20
-114.298
11
123.846
21
-114.369
0
LINE
8
Black
10
123.846
20
-114.369
11
123.929
21
-114.425
0
LINE
8
Black
10
123.929
20
-114.425
11
124.021
21
-114.463
0
LINE
8
Black
10
124.021
20
-114.463
11
124.119
21
-114.483
0
LINE
8
Black
10
124.119
20
-114.483
11
125.231
21
-114.483
0
LINE
8
Black
10
125.231
20
-114.483
11
125.315
21
-114.398
0
LINE
8
Black
10
125.315
20
-114.398
11
125.315
21
-113.975
0
LINE
8
Black
10
125.315
20
-113.975
11
124.169
21
-113.975
0
LINE
8
Black
10
124.169
20
-113.975
11
124.169
21
-112.829
0
LINE
8
Black
10
124.169
20
-112.829
11
123.746
21
-112.829
0
LINE
8
Black
10
106.83
20
-110.92
11
106.502
21
-111.052
0
LINE
8
Black
10
106.502
20
-111.052
11
106.207
21
-111.245
0
LINE
8
Black
10
106.207
20
-111.245
11
105.955
21
-111.492
0
LINE
8
Black
10
105.955
20
-111.492
11
105.755
21
-111.783
0
LINE
8
Black
10
105.755
20
-111.783
11
105.616
21
-112.108
0
LINE
8
Black
10
105.616
20
-112.108
11
105.543
21
-112.453
0
LINE
8
Black
10
105.543
20
-112.453
11
105.538
21
-112.806
0
LINE
8
Black
10
105.538
20
-112.806
11
105.602
21
-113.153
0
LINE
8
Black
10
105.602
20
-113.153
11
105.732
21
-113.482
0
LINE
8
Black
10
105.732
20
-113.482
11
105.923
21
-113.778
0
LINE
8
Black
10
105.923
20
-113.778
11
106.168
21
-114.032
0
LINE
8
Black
10
106.168
20
-114.032
11
106.458
21
-114.234
0
LINE
8
Black
10
106.458
20
-114.234
11
106.781
21
-114.375
0
LINE
8
Black
10
106.781
20
-114.375
11
107.126
21
-114.451
0
LINE
8
Black
10
107.126
20
-114.451
11
107.479
21
-114.458
0
LINE
8
Black
10
107.479
20
-114.458
11
107.827
21
-114.397
0
LINE
8
Black
10
107.827
20
-114.397
11
108.156
21
-114.269
0
LINE
8
Black
10
108.156
20
-114.269
11
108.454
21
-114.08
0
LINE
8
Black
10
108.454
20
-114.08
11
108.71
21
-113.837
0
LINE
8
Black
10
108.71
20
-113.837
11
108.913
21
-113.548
0
LINE
8
Black
10
108.913
20
-113.548
11
109.057
21
-113.226
0
LINE
8
Black
10
109.057
20
-113.226
11
109.135
21
-112.882
0
LINE
8
Black
10
109.135
20
-112.882
11
109.137
21
-112.735
0
LINE
8
Black
10
109.137
20
-112.735
11
109.14
21
-112.477
0
LINE
8
Black
10
109.14
20
-112.477
11
109.072
21
-112.132
0
LINE
8
Black
10
109.072
20
-112.132
11
108.937
21
-111.806
0
LINE
8
Black
10
108.937
20
-111.806
11
108.742
21
-111.512
0
LINE
8
Black
10
108.742
20
-111.512
11
108.493
21
-111.261
0
LINE
8
Black
10
108.493
20
-111.261
11
108.201
21
-111.064
0
LINE
8
Black
10
108.201
20
-111.064
11
107.875
21
-110.927
0
LINE
8
Black
10
107.875
20
-110.927
11
107.529
21
-110.856
0
LINE
8
Black
10
107.529
20
-110.856
11
107.176
21
-110.854
0
LINE
8
Black
10
107.176
20
-110.854
11
106.83
21
-110.92
0
LINE
8
Black
10
189.008
20
-110.92
11
188.68
21
-111.052
0
LINE
8
Black
10
188.68
20
-111.052
11
188.385
21
-111.245
0
LINE
8
Black
10
188.385
20
-111.245
11
188.133
21
-111.492
0
LINE
8
Black
10
188.133
20
-111.492
11
187.933
21
-111.783
0
LINE
8
Black
10
187.933
20
-111.783
11
187.794
21
-112.108
0
LINE
8
Black
10
187.794
20
-112.108
11
187.721
21
-112.453
0
LINE
8
Black
10
187.721
20
-112.453
11
187.716
21
-112.806
0
LINE
8
Black
10
187.716
20
-112.806
11
187.78
21
-113.153
0
LINE
8
Black
10
187.78
20
-113.153
11
187.91
21
-113.482
0
LINE
8
Black
10
187.91
20
-113.482
11
188.101
21
-113.778
0
LINE
8
Black
10
188.101
20
-113.778
11
188.346
21
-114.032
0
LINE
8
Black
10
188.346
20
-114.032
11
188.636
21
-114.234
0
LINE
8
Black
10
188.636
20
-114.234
11
188.959
21
-114.375
0
LINE
8
Black
10
188.959
20
-114.375
11
189.304
21
-114.451
0
LINE
8
Black
10
189.304
20
-114.451
11
189.657
21
-114.458
0
LINE
8
Black
10
189.657
20
-114.458
11
190.005
21
-114.397
0
LINE
8
Black
10
190.005
20
-114.397
11
190.334
21
-114.269
0
LINE
8
Black
10
190.334
20
-114.269
11
190.632
21
-114.08
0
LINE
8
Black
10
190.632
20
-114.08
11
190.888
21
-113.837
0
LINE
8
Black
10
190.888
20
-113.837
11
191.091
21
-113.548
0
LINE
8
Black
10
191.091
20
-113.548
11
191.235
21
-113.226
0
LINE
8
Black
10
191.235
20
-113.226
11
191.313
21
-112.882
0
LINE
8
Black
10
191.313
20
-112.882
11
191.318
21
-112.477
0
LINE
8
Black
10
191.318
20
-112.477
11
191.25
21
-112.132
0
LINE
8
Black
10
191.25
20
-112.132
11
191.115
21
-111.806
0
LINE
8
Black
10
191.115
20
-111.806
11
190.92
21
-111.512
0
LINE
8
Black
10
190.92
20
-111.512
11
190.671
21
-111.261
0
LINE
8
Black
10
190.671
20
-111.261
11
190.379
21
-111.064
0
LINE
8
Black
10
190.379
20
-111.064
11
190.053
21
-110.927
0
LINE
8
Black
10
190.053
20
-110.927
11
189.707
21
-110.856
0
LINE
8
Black
10
189.707
20
-110.856
11
189.354
21
-110.854
0
LINE
8
Black
10
189.354
20
-110.854
11
189.008
21
-110.92
0
LINE
8
Black
10
120.859
20
-110.839
11
120.531
21
-110.972
0
LINE
8
Black
10
120.531
20
-110.972
11
120.236
21
-111.165
0
LINE
8
Black
10
120.236
20
-111.165
11
119.984
21
-111.412
0
LINE
8
Black
10
119.984
20
-111.412
11
119.784
21
-111.703
0
LINE
8
Black
10
119.784
20
-111.703
11
119.645
21
-112.028
0
LINE
8
Black
10
119.645
20
-112.028
11
119.572
21
-112.373
0
LINE
8
Black
10
119.572
20
-112.373
11
119.567
21
-112.726
0
LINE
8
Black
10
119.567
20
-112.726
11
119.631
21
-113.073
0
LINE
8
Black
10
119.631
20
-113.073
11
119.761
21
-113.401
0
LINE
8
Black
10
119.761
20
-113.401
11
119.952
21
-113.698
0
LINE
8
Black
10
119.952
20
-113.698
11
120.197
21
-113.952
0
LINE
8
Black
10
120.197
20
-113.952
11
120.487
21
-114.153
0
LINE
8
Black
10
120.487
20
-114.153
11
120.81
21
-114.295
0
LINE
8
Black
10
120.81
20
-114.295
11
121.155
21
-114.371
0
LINE
8
Black
10
121.155
20
-114.371
11
121.508
21
-114.378
0
LINE
8
Black
10
121.508
20
-114.378
11
121.856
21
-114.317
0
LINE
8
Black
10
121.856
20
-114.317
11
122.185
21
-114.189
0
LINE
8
Black
10
122.185
20
-114.189
11
122.483
21
-114
0
LINE
8
Black
10
122.483
20
-114
11
122.739
21
-113.756
0
LINE
8
Black
10
122.739
20
-113.756
11
122.942
21
-113.468
0
LINE
8
Black
10
122.942
20
-113.468
11
123.086
21
-113.145
0
LINE
8
Black
10
123.086
20
-113.145
11
123.157
21
-112.832
0
LINE
8
Black
10
123.157
20
-112.832
11
123.157
21
-112.832
0
LINE
8
Black
10
123.157
20
-112.832
11
123.164
21
-112.802
0
LINE
8
Black
10
123.164
20
-112.802
11
123.169
21
-112.397
0
LINE
8
Black
10
123.169
20
-112.397
11
123.101
21
-112.052
0
LINE
8
Black
10
123.101
20
-112.052
11
122.966
21
-111.725
0
LINE
8
Black
10
122.966
20
-111.725
11
122.771
21
-111.431
0
LINE
8
Black
10
122.771
20
-111.431
11
122.543
21
-111.202
0
LINE
8
Black
10
122.543
20
-111.202
11
122.522
21
-111.181
0
LINE
8
Black
10
122.522
20
-111.181
11
122.23
21
-110.984
0
LINE
8
Black
10
122.23
20
-110.984
11
121.904
21
-110.847
0
LINE
8
Black
10
121.904
20
-110.847
11
121.558
21
-110.776
0
LINE
8
Black
10
121.558
20
-110.776
11
121.205
21
-110.773
0
LINE
8
Black
10
121.205
20
-110.773
11
120.859
21
-110.839
0
LINE
8
Black
10
174.979
20
-110.839
11
174.651
21
-110.972
0
LINE
8
Black
10
174.651
20
-110.972
11
174.356
21
-111.165
0
LINE
8
Black
10
174.356
20
-111.165
11
174.104
21
-111.412
0
LINE
8
Black
10
174.104
20
-111.412
11
173.904
21
-111.703
0
LINE
8
Black
10
173.904
20
-111.703
11
173.765
21
-112.028
0
LINE
8
Black
10
173.765
20
-112.028
11
173.692
21
-112.373
0
LINE
8
Black
10
173.692
20
-112.373
11
173.687
21
-112.726
0
LINE
8
Black
10
173.687
20
-112.726
11
173.751
21
-113.073
0
LINE
8
Black
10
173.751
20
-113.073
11
173.881
21
-113.401
0
LINE
8
Black
10
173.881
20
-113.401
11
174.072
21
-113.698
0
LINE
8
Black
10
174.072
20
-113.698
11
174.317
21
-113.952
0
LINE
8
Black
10
174.317
20
-113.952
11
174.607
21
-114.153
0
LINE
8
Black
10
174.607
20
-114.153
11
174.93
21
-114.295
0
LINE
8
Black
10
174.93
20
-114.295
11
175.275
21
-114.371
0
LINE
8
Black
10
175.275
20
-114.371
11
175.628
21
-114.378
0
LINE
8
Black
10
175.628
20
-114.378
11
175.976
21
-114.317
0
LINE
8
Black
10
175.976
20
-114.317
11
176.305
21
-114.189
0
LINE
8
Black
10
176.305
20
-114.189
11
176.603
21
-114
0
LINE
8
Black
10
176.603
20
-114
11
176.859
21
-113.756
0
LINE
8
Black
10
176.859
20
-113.756
11
177.062
21
-113.468
0
LINE
8
Black
10
177.062
20
-113.468
11
177.206
21
-113.145
0
LINE
8
Black
10
177.206
20
-113.145
11
177.284
21
-112.802
0
LINE
8
Black
10
177.284
20
-112.802
11
177.289
21
-112.397
0
LINE
8
Black
10
177.289
20
-112.397
11
177.221
21
-112.052
0
LINE
8
Black
10
177.221
20
-112.052
11
177.086
21
-111.725
0
LINE
8
Black
10
177.086
20
-111.725
11
176.891
21
-111.431
0
LINE
8
Black
10
176.891
20
-111.431
11
176.642
21
-111.181
0
LINE
8
Black
10
176.642
20
-111.181
11
176.35
21
-110.984
0
LINE
8
Black
10
176.35
20
-110.984
11
176.024
21
-110.847
0
LINE
8
Black
10
176.024
20
-110.847
11
175.678
21
-110.776
0
LINE
8
Black
10
175.678
20
-110.776
11
175.325
21
-110.773
0
LINE
8
Black
10
175.325
20
-110.773
11
174.979
21
-110.839
0
LINE
8
Black
10
171.628
20
-110.667
11
171.543
21
-110.751
0
LINE
8
Black
10
171.543
20
-110.751
11
171.543
21
-111.175
0
LINE
8
Black
10
171.543
20
-111.175
11
172.689
21
-111.175
0
LINE
8
Black
10
172.689
20
-111.175
11
172.689
21
-112.321
0
LINE
8
Black
10
172.689
20
-112.321
11
173.113
21
-112.321
0
LINE
8
Black
10
173.113
20
-112.321
11
173.197
21
-112.236
0
LINE
8
Black
10
173.197
20
-112.236
11
173.197
21
-111.125
0
LINE
8
Black
10
173.197
20
-111.125
11
173.178
21
-111.026
0
LINE
8
Black
10
173.178
20
-111.026
11
173.14
21
-110.934
0
LINE
8
Black
10
173.14
20
-110.934
11
173.084
21
-110.851
0
LINE
8
Black
10
173.084
20
-110.851
11
173.013
21
-110.78
0
LINE
8
Black
10
173.013
20
-110.78
11
172.93
21
-110.724
0
LINE
8
Black
10
172.93
20
-110.724
11
172.838
21
-110.686
0
LINE
8
Black
10
172.838
20
-110.686
11
172.739
21
-110.667
0
LINE
8
Black
10
172.739
20
-110.667
11
171.628
21
-110.667
0
LINE
8
Black
10
169.839
20
-110.667
11
169.741
21
-110.686
0
LINE
8
Black
10
169.741
20
-110.686
11
169.649
21
-110.724
0
LINE
8
Black
10
169.649
20
-110.724
11
169.566
21
-110.78
0
LINE
8
Black
10
169.566
20
-110.78
11
169.495
21
-110.851
0
LINE
8
Black
10
169.495
20
-110.851
11
169.439
21
-110.934
0
LINE
8
Black
10
169.439
20
-110.934
11
169.401
21
-111.026
0
LINE
8
Black
10
169.401
20
-111.026
11
169.381
21
-111.125
0
LINE
8
Black
10
169.381
20
-111.125
11
169.381
21
-112.236
0
LINE
8
Black
10
169.381
20
-112.236
11
169.466
21
-112.321
0
LINE
8
Black
10
169.466
20
-112.321
11
169.889
21
-112.321
0
LINE
8
Black
10
169.889
20
-112.321
11
169.889
21
-111.175
0
LINE
8
Black
10
169.889
20
-111.175
11
171.035
21
-111.175
0
LINE
8
Black
10
171.035
20
-111.175
11
171.035
21
-110.751
0
LINE
8
Black
10
171.035
20
-110.751
11
170.951
21
-110.667
0
LINE
8
Black
10
170.951
20
-110.667
11
169.839
21
-110.667
0
LINE
8
Black
10
125.908
20
-110.667
11
125.823
21
-110.751
0
LINE
8
Black
10
125.823
20
-110.751
11
125.823
21
-111.175
0
LINE
8
Black
10
125.823
20
-111.175
11
126.969
21
-111.175
0
LINE
8
Black
10
126.969
20
-111.175
11
126.969
21
-112.321
0
LINE
8
Black
10
126.969
20
-112.321
11
127.393
21
-112.321
0
LINE
8
Black
10
127.393
20
-112.321
11
127.477
21
-112.236
0
LINE
8
Black
10
127.477
20
-112.236
11
127.477
21
-111.125
0
LINE
8
Black
10
127.477
20
-111.125
11
127.458
21
-111.026
0
LINE
8
Black
10
127.458
20
-111.026
11
127.42
21
-110.934
0
LINE
8
Black
10
127.42
20
-110.934
11
127.364
21
-110.851
0
LINE
8
Black
10
127.364
20
-110.851
11
127.293
21
-110.78
0
LINE
8
Black
10
127.293
20
-110.78
11
127.21
21
-110.724
0
LINE
8
Black
10
127.21
20
-110.724
11
127.118
21
-110.686
0
LINE
8
Black
10
127.118
20
-110.686
11
127.019
21
-110.667
0
LINE
8
Black
10
127.019
20
-110.667
11
125.908
21
-110.667
0
LINE
8
Black
10
124.119
20
-110.667
11
124.021
21
-110.686
0
LINE
8
Black
10
124.021
20
-110.686
11
123.929
21
-110.724
0
LINE
8
Black
10
123.929
20
-110.724
11
123.846
21
-110.78
0
LINE
8
Black
10
123.846
20
-110.78
11
123.775
21
-110.851
0
LINE
8
Black
10
123.775
20
-110.851
11
123.719
21
-110.934
0
LINE
8
Black
10
123.719
20
-110.934
11
123.681
21
-111.026
0
LINE
8
Black
10
123.681
20
-111.026
11
123.661
21
-111.125
0
LINE
8
Black
10
123.661
20
-111.125
11
123.661
21
-112.236
0
LINE
8
Black
10
123.661
20
-112.236
11
123.746
21
-112.321
0
LINE
8
Black
10
123.746
20
-112.321
11
124.169
21
-112.321
0
LINE
8
Black
10
124.169
20
-112.321
11
124.169
21
-111.175
0
LINE
8
Black
10
124.169
20
-111.175
11
125.315
21
-111.175
0
LINE
8
Black
10
125.315
20
-111.175
11
125.315
21
-110.751
0
LINE
8
Black
10
125.315
20
-110.751
11
125.231
21
-110.667
0
LINE
8
Black
10
125.231
20
-110.667
11
124.119
21
-110.667
0
LINE
8
Black
10
190.918
20
-108.709
11
190.918
21
-109.855
0
LINE
8
Black
10
190.918
20
-109.855
11
189.772
21
-109.855
0
LINE
8
Black
10
189.772
20
-109.855
11
189.772
21
-110.278
0
LINE
8
Black
10
189.772
20
-110.278
11
189.857
21
-110.363
0
LINE
8
Black
10
189.857
20
-110.363
11
190.968
21
-110.363
0
LINE
8
Black
10
190.968
20
-110.363
11
191.067
21
-110.343
0
LINE
8
Black
10
191.067
20
-110.343
11
191.159
21
-110.305
0
LINE
8
Black
10
191.159
20
-110.305
11
191.242
21
-110.249
0
LINE
8
Black
10
191.242
20
-110.249
11
191.313
21
-110.179
0
LINE
8
Black
10
191.313
20
-110.179
11
191.369
21
-110.095
0
LINE
8
Black
10
191.369
20
-110.095
11
191.407
21
-110.003
0
LINE
8
Black
10
191.407
20
-110.003
11
191.426
21
-109.905
0
LINE
8
Black
10
191.426
20
-109.905
11
191.426
21
-108.793
0
LINE
8
Black
10
191.426
20
-108.793
11
191.342
21
-108.709
0
LINE
8
Black
10
191.342
20
-108.709
11
190.918
21
-108.709
0
LINE
8
Black
10
187.695
20
-108.709
11
187.61
21
-108.793
0
LINE
8
Black
10
187.61
20
-108.793
11
187.61
21
-109.905
0
LINE
8
Black
10
187.61
20
-109.905
11
187.63
21
-110.003
0
LINE
8
Black
10
187.63
20
-110.003
11
187.668
21
-110.095
0
LINE
8
Black
10
187.668
20
-110.095
11
187.724
21
-110.179
0
LINE
8
Black
10
187.724
20
-110.179
11
187.795
21
-110.249
0
LINE
8
Black
10
187.795
20
-110.249
11
187.878
21
-110.305
0
LINE
8
Black
10
187.878
20
-110.305
11
187.97
21
-110.343
0
LINE
8
Black
10
187.97
20
-110.343
11
188.068
21
-110.363
0
LINE
8
Black
10
188.068
20
-110.363
11
189.18
21
-110.363
0
LINE
8
Black
10
189.18
20
-110.363
11
189.264
21
-110.278
0
LINE
8
Black
10
189.264
20
-110.278
11
189.264
21
-109.855
0
LINE
8
Black
10
189.264
20
-109.855
11
188.118
21
-109.855
0
LINE
8
Black
10
188.118
20
-109.855
11
188.118
21
-108.709
0
LINE
8
Black
10
188.118
20
-108.709
11
187.695
21
-108.709
0
LINE
8
Black
10
108.74
20
-108.709
11
108.74
21
-109.855
0
LINE
8
Black
10
108.74
20
-109.855
11
107.594
21
-109.855
0
LINE
8
Black
10
107.594
20
-109.855
11
107.594
21
-110.278
0
LINE
8
Black
10
107.594
20
-110.278
11
107.679
21
-110.363
0
LINE
8
Black
10
107.679
20
-110.363
11
108.79
21
-110.363
0
LINE
8
Black
10
108.79
20
-110.363
11
108.889
21
-110.343
0
LINE
8
Black
10
108.889
20
-110.343
11
108.981
21
-110.305
0
LINE
8
Black
10
108.981
20
-110.305
11
109.064
21
-110.249
0
LINE
8
Black
10
109.064
20
-110.249
11
109.135
21
-110.179
0
LINE
8
Black
10
109.135
20
-110.179
11
109.191
21
-110.095
0
LINE
8
Black
10
109.191
20
-110.095
11
109.229
21
-110.003
0
LINE
8
Black
10
109.229
20
-110.003
11
109.248
21
-109.905
0
LINE
8
Black
10
109.248
20
-109.905
11
109.248
21
-108.793
0
LINE
8
Black
10
109.248
20
-108.793
11
109.164
21
-108.709
0
LINE
8
Black
10
109.164
20
-108.709
11
108.74
21
-108.709
0
LINE
8
Black
10
105.517
20
-108.709
11
105.432
21
-108.793
0
LINE
8
Black
10
105.432
20
-108.793
11
105.432
21
-109.905
0
LINE
8
Black
10
105.432
20
-109.905
11
105.452
21
-110.003
0
LINE
8
Black
10
105.452
20
-110.003
11
105.49
21
-110.095
0
LINE
8
Black
10
105.49
20
-110.095
11
105.546
21
-110.179
0
LINE
8
Black
10
105.546
20
-110.179
11
105.617
21
-110.249
0
LINE
8
Black
10
105.617
20
-110.249
11
105.7
21
-110.305
0
LINE
8
Black
10
105.7
20
-110.305
11
105.792
21
-110.343
0
LINE
8
Black
10
105.792
20
-110.343
11
105.89
21
-110.363
0
LINE
8
Black
10
105.89
20
-110.363
11
107.002
21
-110.363
0
LINE
8
Black
10
107.002
20
-110.363
11
107.086
21
-110.278
0
LINE
8
Black
10
107.086
20
-110.278
11
107.086
21
-109.855
0
LINE
8
Black
10
107.086
20
-109.855
11
105.94
21
-109.855
0
LINE
8
Black
10
105.94
20
-109.855
11
105.94
21
-108.709
0
LINE
8
Black
10
105.94
20
-108.709
11
105.517
21
-108.709
0
LINE
8
Black
10
189.857
20
-106.547
11
189.772
21
-106.631
0
LINE
8
Black
10
189.772
20
-106.631
11
189.772
21
-107.055
0
LINE
8
Black
10
189.772
20
-107.055
11
190.918
21
-107.055
0
LINE
8
Black
10
190.918
20
-107.055
11
190.918
21
-108.201
0
LINE
8
Black
10
190.918
20
-108.201
11
191.342
21
-108.201
0
LINE
8
Black
10
191.342
20
-108.201
11
191.426
21
-108.116
0
LINE
8
Black
10
191.426
20
-108.116
11
191.426
21
-107.005
0
LINE
8
Black
10
191.426
20
-107.005
11
191.407
21
-106.907
0
LINE
8
Black
10
191.407
20
-106.907
11
191.369
21
-106.814
0
LINE
8
Black
10
191.369
20
-106.814
11
191.313
21
-106.731
0
LINE
8
Black
10
191.313
20
-106.731
11
191.242
21
-106.66
0
LINE
8
Black
10
191.242
20
-106.66
11
191.159
21
-106.605
0
LINE
8
Black
10
191.159
20
-106.605
11
191.067
21
-106.566
0
LINE
8
Black
10
191.067
20
-106.566
11
190.968
21
-106.547
0
LINE
8
Black
10
190.968
20
-106.547
11
189.857
21
-106.547
0
LINE
8
Black
10
188.068
20
-106.547
11
187.97
21
-106.566
0
LINE
8
Black
10
187.97
20
-106.566
11
187.878
21
-106.605
0
LINE
8
Black
10
187.878
20
-106.605
11
187.795
21
-106.66
0
LINE
8
Black
10
187.795
20
-106.66
11
187.724
21
-106.731
0
LINE
8
Black
10
187.724
20
-106.731
11
187.668
21
-106.814
0
LINE
8
Black
10
187.668
20
-106.814
11
187.63
21
-106.907
0
LINE
8
Black
10
187.63
20
-106.907
11
187.61
21
-107.005
0
LINE
8
Black
10
187.61
20
-107.005
11
187.61
21
-108.116
0
LINE
8
Black
10
187.61
20
-108.116
11
187.695
21
-108.201
0
LINE
8
Black
10
187.695
20
-108.201
11
188.118
21
-108.201
0
LINE
8
Black
10
188.118
20
-108.201
11
188.118
21
-107.055
0
LINE
8
Black
10
188.118
20
-107.055
11
189.264
21
-107.055
0
LINE
8
Black
10
189.264
20
-107.055
11
189.264
21
-106.631
0
LINE
8
Black
10
189.264
20
-106.631
11
189.18
21
-106.547
0
LINE
8
Black
10
189.18
20
-106.547
11
188.068
21
-106.547
0
LINE
8
Black
10
107.679
20
-106.547
11
107.594
21
-106.631
0
LINE
8
Black
10
107.594
20
-106.631
11
107.594
21
-107.055
0
LINE
8
Black
10
107.594
20
-107.055
11
108.74
21
-107.055
0
LINE
8
Black
10
108.74
20
-107.055
11
108.74
21
-108.201
0
LINE
8
Black
10
108.74
20
-108.201
11
109.164
21
-108.201
0
LINE
8
Black
10
109.164
20
-108.201
11
109.248
21
-108.116
0
LINE
8
Black
10
109.248
20
-108.116
11
109.248
21
-107.005
0
LINE
8
Black
10
109.248
20
-107.005
11
109.229
21
-106.907
0
LINE
8
Black
10
109.229
20
-106.907
11
109.191
21
-106.814
0
LINE
8
Black
10
109.191
20
-106.814
11
109.135
21
-106.731
0
LINE
8
Black
10
109.135
20
-106.731
11
109.064
21
-106.66
0
LINE
8
Black
10
109.064
20
-106.66
11
108.981
21
-106.605
0
LINE
8
Black
10
108.981
20
-106.605
11
108.889
21
-106.566
0
LINE
8
Black
10
108.889
20
-106.566
11
108.79
21
-106.547
0
LINE
8
Black
10
108.79
20
-106.547
11
107.679
21
-106.547
0
LINE
8
Black
10
105.89
20
-106.547
11
105.792
21
-106.566
0
LINE
8
Black
10
105.792
20
-106.566
11
105.7
21
-106.605
0
LINE
8
Black
10
105.7
20
-106.605
11
105.617
21
-106.66
0
LINE
8
Black
10
105.617
20
-106.66
11
105.546
21
-106.731
0
LINE
8
Black
10
105.546
20
-106.731
11
105.49
21
-106.814
0
LINE
8
Black
10
105.49
20
-106.814
11
105.452
21
-106.907
0
LINE
8
Black
10
105.452
20
-106.907
11
105.432
21
-107.005
0
LINE
8
Black
10
105.432
20
-107.005
11
105.432
21
-108.116
0
LINE
8
Black
10
105.432
20
-108.116
11
105.517
21
-108.201
0
LINE
8
Black
10
105.517
20
-108.201
11
105.94
21
-108.201
0
LINE
8
Black
10
105.94
20
-108.201
11
105.94
21
-107.055
0
LINE
8
Black
10
105.94
20
-107.055
11
107.086
21
-107.055
0
LINE
8
Black
10
107.086
20
-107.055
11
107.086
21
-106.631
0
LINE
8
Black
10
107.086
20
-106.631
11
107.002
21
-106.547
0
LINE
8
Black
10
107.002
20
-106.547
11
105.89
21
-106.547
0
LINE
8
Black
10
190.918
20
-101.964
11
190.918
21
-103.11
0
LINE
8
Black
10
190.918
20
-103.11
11
189.772
21
-103.11
0
LINE
8
Black
10
189.772
20
-103.11
11
189.772
21
-103.534
0
LINE
8
Black
10
189.772
20
-103.534
11
189.857
21
-103.618
0
LINE
8
Black
10
189.857
20
-103.618
11
190.968
21
-103.618
0
LINE
8
Black
10
190.968
20
-103.618
11
191.067
21
-103.599
0
LINE
8
Black
10
191.067
20
-103.599
11
191.159
21
-103.561
0
LINE
8
Black
10
191.159
20
-103.561
11
191.242
21
-103.505
0
LINE
8
Black
10
191.242
20
-103.505
11
191.313
21
-103.434
0
LINE
8
Black
10
191.313
20
-103.434
11
191.369
21
-103.351
0
LINE
8
Black
10
191.369
20
-103.351
11
191.407
21
-103.259
0
LINE
8
Black
10
191.407
20
-103.259
11
191.426
21
-103.16
0
LINE
8
Black
10
191.426
20
-103.16
11
191.426
21
-102.049
0
LINE
8
Black
10
191.426
20
-102.049
11
191.342
21
-101.964
0
LINE
8
Black
10
191.342
20
-101.964
11
190.918
21
-101.964
0
LINE
8
Black
10
187.695
20
-101.964
11
187.61
21
-102.049
0
LINE
8
Black
10
187.61
20
-102.049
11
187.61
21
-103.16
0
LINE
8
Black
10
187.61
20
-103.16
11
187.63
21
-103.259
0
LINE
8
Black
10
187.63
20
-103.259
11
187.668
21
-103.351
0
LINE
8
Black
10
187.668
20
-103.351
11
187.724
21
-103.434
0
LINE
8
Black
10
187.724
20
-103.434
11
187.795
21
-103.505
0
LINE
8
Black
10
187.795
20
-103.505
11
187.878
21
-103.561
0
LINE
8
Black
10
187.878
20
-103.561
11
187.97
21
-103.599
0
LINE
8
Black
10
187.97
20
-103.599
11
188.068
21
-103.618
0
LINE
8
Black
10
188.068
20
-103.618
11
189.18
21
-103.618
0
LINE
8
Black
10
189.18
20
-103.618
11
189.264
21
-103.534
0
LINE
8
Black
10
189.264
20
-103.534
11
189.264
21
-103.11
0
LINE
8
Black
10
189.264
20
-103.11
11
188.118
21
-103.11
0
LINE
8
Black
10
188.118
20
-103.11
11
188.118
21
-101.964
0
LINE
8
Black
10
188.118
20
-101.964
11
187.695
21
-101.964
0
LINE
8
Black
10
108.74
20
-101.964
11
108.74
21
-103.11
0
LINE
8
Black
10
108.74
20
-103.11
11
107.594
21
-103.11
0
LINE
8
Black
10
107.594
20
-103.11
11
107.594
21
-103.534
0
LINE
8
Black
10
107.594
20
-103.534
11
107.679
21
-103.618
0
LINE
8
Black
10
107.679
20
-103.618
11
108.79
21
-103.618
0
LINE
8
Black
10
108.79
20
-103.618
11
108.889
21
-103.599
0
LINE
8
Black
10
108.889
20
-103.599
11
108.981
21
-103.561
0
LINE
8
Black
10
108.981
20
-103.561
11
109.064
21
-103.505
0
LINE
8
Black
10
109.064
20
-103.505
11
109.135
21
-103.434
0
LINE
8
Black
10
109.135
20
-103.434
11
109.191
21
-103.351
0
LINE
8
Black
10
109.191
20
-103.351
11
109.229
21
-103.259
0
LINE
8
Black
10
109.229
20
-103.259
11
109.248
21
-103.16
0
LINE
8
Black
10
109.248
20
-103.16
11
109.248
21
-102.049
0
LINE
8
Black
10
109.248
20
-102.049
11
109.164
21
-101.964
0
LINE
8
Black
10
109.164
20
-101.964
11
108.74
21
-101.964
0
LINE
8
Black
10
105.517
20
-101.964
11
105.432
21
-102.049
0
LINE
8
Black
10
105.432
20
-102.049
11
105.432
21
-103.16
0
LINE
8
Black
10
105.432
20
-103.16
11
105.452
21
-103.259
0
LINE
8
Black
10
105.452
20
-103.259
11
105.49
21
-103.351
0
LINE
8
Black
10
105.49
20
-103.351
11
105.546
21
-103.434
0
LINE
8
Black
10
105.546
20
-103.434
11
105.617
21
-103.505
0
LINE
8
Black
10
105.617
20
-103.505
11
105.7
21
-103.561
0
LINE
8
Black
10
105.7
20
-103.561
11
105.792
21
-103.599
0
LINE
8
Black
10
105.792
20
-103.599
11
105.89
21
-103.618
0
LINE
8
Black
10
105.89
20
-103.618
11
107.002
21
-103.618
0
LINE
8
Black
10
107.002
20
-103.618
11
107.086
21
-103.534
0
LINE
8
Black
10
107.086
20
-103.534
11
107.086
21
-103.11
0
LINE
8
Black
10
107.086
20
-103.11
11
105.94
21
-103.11
0
LINE
8
Black
10
105.94
20
-103.11
11
105.94
21
-101.964
0
LINE
8
Black
10
105.94
20
-101.964
11
105.517
21
-101.964
0
LINE
8
Black
10
189.857
20
-99.8024
11
189.772
21
-99.8868
0
LINE
8
Black
10
189.772
20
-99.8868
11
189.772
21
-100.31
0
LINE
8
Black
10
189.772
20
-100.31
11
190.918
21
-100.31
0
LINE
8
Black
10
190.918
20
-100.31
11
190.918
21
-101.456
0
LINE
8
Black
10
190.918
20
-101.456
11
191.342
21
-101.456
0
LINE
8
Black
10
191.342
20
-101.456
11
191.426
21
-101.372
0
LINE
8
Black
10
191.426
20
-101.372
11
191.426
21
-100.26
0
LINE
8
Black
10
191.426
20
-100.26
11
191.407
21
-100.162
0
LINE
8
Black
10
191.407
20
-100.162
11
191.369
21
-100.07
0
LINE
8
Black
10
191.369
20
-100.07
11
191.313
21
-99.9866
0
LINE
8
Black
10
191.313
20
-99.9866
11
191.242
21
-99.9158
0
LINE
8
Black
10
191.242
20
-99.9158
11
191.159
21
-99.8602
0
LINE
8
Black
10
191.159
20
-99.8602
11
191.067
21
-99.8219
0
LINE
8
Black
10
191.067
20
-99.8219
11
190.968
21
-99.8024
0
LINE
8
Black
10
190.968
20
-99.8024
11
189.857
21
-99.8024
0
LINE
8
Black
10
188.068
20
-99.8024
11
187.97
21
-99.8219
0
LINE
8
Black
10
187.97
20
-99.8219
11
187.878
21
-99.8602
0
LINE
8
Black
10
187.878
20
-99.8602
11
187.795
21
-99.9158
0
LINE
8
Black
10
187.795
20
-99.9158
11
187.724
21
-99.9866
0
LINE
8
Black
10
187.724
20
-99.9866
11
187.668
21
-100.07
0
LINE
8
Black
10
187.668
20
-100.07
11
187.63
21
-100.162
0
LINE
8
Black
10
187.63
20
-100.162
11
187.61
21
-100.26
0
LINE
8
Black
10
187.61
20
-100.26
11
187.61
21
-101.372
0
LINE
8
Black
10
187.61
20
-101.372
11
187.695
21
-101.456
0
LINE
8
Black
10
187.695
20
-101.456
11
188.118
21
-101.456
0
LINE
8
Black
10
188.118
20
-101.456
11
188.118
21
-100.31
0
LINE
8
Black
10
188.118
20
-100.31
11
189.264
21
-100.31
0
LINE
8
Black
10
189.264
20
-100.31
11
189.264
21
-99.8868
0
LINE
8
Black
10
189.264
20
-99.8868
11
189.18
21
-99.8024
0
LINE
8
Black
10
189.18
20
-99.8024
11
188.068
21
-99.8024
0
LINE
8
Black
10
107.679
20
-99.8024
11
107.594
21
-99.8868
0
LINE
8
Black
10
107.594
20
-99.8868
11
107.594
21
-100.31
0
LINE
8
Black
10
107.594
20
-100.31
11
108.74
21
-100.31
0
LINE
8
Black
10
108.74
20
-100.31
11
108.74
21
-101.456
0
LINE
8
Black
10
108.74
20
-101.456
11
109.164
21
-101.456
0
LINE
8
Black
10
109.164
20
-101.456
11
109.248
21
-101.372
0
LINE
8
Black
10
109.248
20
-101.372
11
109.248
21
-100.26
0
LINE
8
Black
10
109.248
20
-100.26
11
109.229
21
-100.162
0
LINE
8
Black
10
109.229
20
-100.162
11
109.191
21
-100.07
0
LINE
8
Black
10
109.191
20
-100.07
11
109.135
21
-99.9866
0
LINE
8
Black
10
109.135
20
-99.9866
11
109.064
21
-99.9158
0
LINE
8
Black
10
109.064
20
-99.9158
11
108.981
21
-99.8602
0
LINE
8
Black
10
108.981
20
-99.8602
11
108.889
21
-99.8219
0
LINE
8
Black
10
108.889
20
-99.8219
11
108.79
21
-99.8024
0
LINE
8
Black
10
108.79
20
-99.8024
11
107.679
21
-99.8024
0
LINE
8
Black
10
105.89
20
-99.8024
11
105.792
21
-99.8219
0
LINE
8
Black
10
105.792
20
-99.8219
11
105.7
21
-99.8602
0
LINE
8
Black
10
105.7
20
-99.8602
11
105.617
21
-99.9158
0
LINE
8
Black
10
105.617
20
-99.9158
11
105.546
21
-99.9866
0
LINE
8
Black
10
105.546
20
-99.9866
11
105.49
21
-100.07
0
LINE
8
Black
10
105.49
20
-100.07
11
105.452
21
-100.162
0
LINE
8
Black
10
105.452
20
-100.162
11
105.432
21
-100.26
0
LINE
8
Black
10
105.432
20
-100.26
11
105.432
21
-101.372
0
LINE
8
Black
10
105.432
20
-101.372
11
105.517
21
-101.456
0
LINE
8
Black
10
105.517
20
-101.456
11
105.94
21
-101.456
0
LINE
8
Black
10
105.94
20
-101.456
11
105.94
21
-100.31
0
LINE
8
Black
10
105.94
20
-100.31
11
107.086
21
-100.31
0
LINE
8
Black
10
107.086
20
-100.31
11
107.086
21
-99.8868
0
LINE
8
Black
10
107.086
20
-99.8868
11
107.002
21
-99.8024
0
LINE
8
Black
10
107.002
20
-99.8024
11
105.89
21
-99.8024
0
LINE
8
Black
10
172.689
20
-97.8426
11
172.689
21
-98.9886
0
LINE
8
Black
10
172.689
20
-98.9886
11
171.543
21
-98.9886
0
LINE
8
Black
10
171.543
20
-98.9886
11
171.543
21
-99.4122
0
LINE
8
Black
10
171.543
20
-99.4122
11
171.628
21
-99.4966
0
LINE
8
Black
10
171.628
20
-99.4966
11
172.739
21
-99.4966
0
LINE
8
Black
10
172.739
20
-99.4966
11
172.838
21
-99.4771
0
LINE
8
Black
10
172.838
20
-99.4771
11
172.93
21
-99.4388
0
LINE
8
Black
10
172.93
20
-99.4388
11
173.013
21
-99.3832
0
LINE
8
Black
10
173.013
20
-99.3832
11
173.084
21
-99.3124
0
LINE
8
Black
10
173.084
20
-99.3124
11
173.14
21
-99.2292
0
LINE
8
Black
10
173.14
20
-99.2292
11
173.178
21
-99.1368
0
LINE
8
Black
10
173.178
20
-99.1368
11
173.197
21
-99.0386
0
LINE
8
Black
10
173.197
20
-99.0386
11
173.197
21
-97.9269
0
LINE
8
Black
10
173.197
20
-97.9269
11
173.113
21
-97.8426
0
LINE
8
Black
10
173.113
20
-97.8426
11
172.689
21
-97.8426
0
LINE
8
Black
10
169.466
20
-97.8426
11
169.381
21
-97.9269
0
LINE
8
Black
10
169.381
20
-97.9269
11
169.381
21
-99.0386
0
LINE
8
Black
10
169.381
20
-99.0386
11
169.401
21
-99.1368
0
LINE
8
Black
10
169.401
20
-99.1368
11
169.439
21
-99.2292
0
LINE
8
Black
10
169.439
20
-99.2292
11
169.495
21
-99.3124
0
LINE
8
Black
10
169.495
20
-99.3124
11
169.566
21
-99.3832
0
LINE
8
Black
10
169.566
20
-99.3832
11
169.649
21
-99.4388
0
LINE
8
Black
10
169.649
20
-99.4388
11
169.741
21
-99.4771
0
LINE
8
Black
10
169.741
20
-99.4771
11
169.839
21
-99.4966
0
LINE
8
Black
10
169.839
20
-99.4966
11
170.951
21
-99.4966
0
LINE
8
Black
10
170.951
20
-99.4966
11
171.035
21
-99.4122
0
LINE
8
Black
10
171.035
20
-99.4122
11
171.035
21
-98.9886
0
LINE
8
Black
10
171.035
20
-98.9886
11
169.889
21
-98.9886
0
LINE
8
Black
10
169.889
20
-98.9886
11
169.889
21
-97.8426
0
LINE
8
Black
10
169.889
20
-97.8426
11
169.466
21
-97.8426
0
LINE
8
Black
10
126.969
20
-97.8426
11
126.969
21
-98.9886
0
LINE
8
Black
10
126.969
20
-98.9886
11
125.823
21
-98.9886
0
LINE
8
Black
10
125.823
20
-98.9886
11
125.823
21
-99.4122
0
LINE
8
Black
10
125.823
20
-99.4122
11
125.908
21
-99.4966
0
LINE
8
Black
10
125.908
20
-99.4966
11
127.019
21
-99.4966
0
LINE
8
Black
10
127.019
20
-99.4966
11
127.118
21
-99.4771
0
LINE
8
Black
10
127.118
20
-99.4771
11
127.21
21
-99.4388
0
LINE
8
Black
10
127.21
20
-99.4388
11
127.293
21
-99.3832
0
LINE
8
Black
10
127.293
20
-99.3832
11
127.364
21
-99.3124
0
LINE
8
Black
10
127.364
20
-99.3124
11
127.42
21
-99.2292
0
LINE
8
Black
10
127.42
20
-99.2292
11
127.458
21
-99.1368
0
LINE
8
Black
10
127.458
20
-99.1368
11
127.477
21
-99.0386
0
LINE
8
Black
10
127.477
20
-99.0386
11
127.477
21
-97.9269
0
LINE
8
Black
10
127.477
20
-97.9269
11
127.393
21
-97.8426
0
LINE
8
Black
10
127.393
20
-97.8426
11
126.969
21
-97.8426
0
LINE
8
Black
10
123.746
20
-97.8426
11
123.661
21
-97.9269
0
LINE
8
Black
10
123.661
20
-97.9269
11
123.661
21
-99.0386
0
LINE
8
Black
10
123.661
20
-99.0386
11
123.681
21
-99.1368
0
LINE
8
Black
10
123.681
20
-99.1368
11
123.719
21
-99.2292
0
LINE
8
Black
10
123.719
20
-99.2292
11
123.775
21
-99.3124
0
LINE
8
Black
10
123.775
20
-99.3124
11
123.846
21
-99.3832
0
LINE
8
Black
10
123.846
20
-99.3832
11
123.929
21
-99.4388
0
LINE
8
Black
10
123.929
20
-99.4388
11
124.021
21
-99.4771
0
LINE
8
Black
10
124.021
20
-99.4771
11
124.119
21
-99.4966
0
LINE
8
Black
10
124.119
20
-99.4966
11
125.231
21
-99.4966
0
LINE
8
Black
10
125.231
20
-99.4966
11
125.315
21
-99.4122
0
LINE
8
Black
10
125.315
20
-99.4122
11
125.315
21
-98.9886
0
LINE
8
Black
10
125.315
20
-98.9886
11
124.169
21
-98.9886
0
LINE
8
Black
10
124.169
20
-98.9886
11
124.169
21
-97.8426
0
LINE
8
Black
10
124.169
20
-97.8426
11
123.746
21
-97.8426
0
LINE
8
Black
10
120.859
20
-95.8534
11
120.531
21
-95.9857
0
LINE
8
Black
10
120.531
20
-95.9857
11
120.236
21
-96.179
0
LINE
8
Black
10
120.236
20
-96.179
11
119.984
21
-96.426
0
LINE
8
Black
10
119.984
20
-96.426
11
119.784
21
-96.7172
0
LINE
8
Black
10
119.784
20
-96.7172
11
119.645
21
-97.0417
0
LINE
8
Black
10
119.645
20
-97.0417
11
119.572
21
-97.387
0
LINE
8
Black
10
119.572
20
-97.387
11
119.567
21
-97.7399
0
LINE
8
Black
10
119.567
20
-97.7399
11
119.631
21
-98.0871
0
LINE
8
Black
10
119.631
20
-98.0871
11
119.761
21
-98.4153
0
LINE
8
Black
10
119.761
20
-98.4153
11
119.952
21
-98.7121
0
LINE
8
Black
10
119.952
20
-98.7121
11
120.197
21
-98.966
0
LINE
8
Black
10
120.197
20
-98.966
11
120.487
21
-99.1674
0
LINE
8
Black
10
120.487
20
-99.1674
11
120.81
21
-99.3088
0
LINE
8
Black
10
120.81
20
-99.3088
11
121.155
21
-99.3846
0
LINE
8
Black
10
121.155
20
-99.3846
11
121.508
21
-99.392
0
LINE
8
Black
10
121.508
20
-99.392
11
121.856
21
-99.3307
0
LINE
8
Black
10
121.856
20
-99.3307
11
122.185
21
-99.203
0
LINE
8
Black
10
122.185
20
-99.203
11
122.483
21
-99.0139
0
LINE
8
Black
10
122.483
20
-99.0139
11
122.739
21
-98.7704
0
LINE
8
Black
10
122.739
20
-98.7704
11
122.942
21
-98.482
0
LINE
8
Black
10
122.942
20
-98.482
11
123.086
21
-98.1595
0
LINE
8
Black
10
123.086
20
-98.1595
11
123.157
21
-97.8462
0
LINE
8
Black
10
123.157
20
-97.8462
11
123.157
21
-97.8462
0
LINE
8
Black
10
123.157
20
-97.8462
11
123.164
21
-97.8161
0
LINE
8
Black
10
123.164
20
-97.8161
11
123.169
21
-97.4112
0
LINE
8
Black
10
123.169
20
-97.4112
11
123.101
21
-97.0658
0
LINE
8
Black
10
123.101
20
-97.0658
11
122.966
21
-96.7394
0
LINE
8
Black
10
122.966
20
-96.7394
11
122.771
21
-96.4454
0
LINE
8
Black
10
122.771
20
-96.4454
11
122.543
21
-96.2155
0
LINE
8
Black
10
122.543
20
-96.2155
11
122.522
21
-96.1949
0
LINE
8
Black
10
122.522
20
-96.1949
11
122.23
21
-95.9975
0
LINE
8
Black
10
122.23
20
-95.9975
11
121.904
21
-95.8607
0
LINE
8
Black
10
121.904
20
-95.8607
11
121.558
21
-95.7898
0
LINE
8
Black
10
121.558
20
-95.7898
11
121.205
21
-95.7873
0
LINE
8
Black
10
121.205
20
-95.7873
11
120.859
21
-95.8534
0
LINE
8
Black
10
174.979
20
-95.8534
11
174.651
21
-95.9857
0
LINE
8
Black
10
174.651
20
-95.9857
11
174.356
21
-96.179
0
LINE
8
Black
10
174.356
20
-96.179
11
174.104
21
-96.426
0
LINE
8
Black
10
174.104
20
-96.426
11
173.904
21
-96.7172
0
LINE
8
Black
10
173.904
20
-96.7172
11
173.765
21
-97.0417
0
LINE
8
Black
10
173.765
20
-97.0417
11
173.692
21
-97.387
0
LINE
8
Black
10
173.692
20
-97.387
11
173.687
21
-97.7399
0
LINE
8
Black
10
173.687
20
-97.7399
11
173.751
21
-98.0871
0
LINE
8
Black
10
173.751
20
-98.0871
11
173.881
21
-98.4153
0
LINE
8
Black
10
173.881
20
-98.4153
11
174.072
21
-98.7121
0
LINE
8
Black
10
174.072
20
-98.7121
11
174.317
21
-98.966
0
LINE
8
Black
10
174.317
20
-98.966
11
174.607
21
-99.1674
0
LINE
8
Black
10
174.607
20
-99.1674
11
174.93
21
-99.3088
0
LINE
8
Black
10
174.93
20
-99.3088
11
175.275
21
-99.3846
0
LINE
8
Black
10
175.275
20
-99.3846
11
175.628
21
-99.392
0
LINE
8
Black
10
175.628
20
-99.392
11
175.976
21
-99.3307
0
LINE
8
Black
10
175.976
20
-99.3307
11
176.305
21
-99.203
0
LINE
8
Black
10
176.305
20
-99.203
11
176.603
21
-99.0139
0
LINE
8
Black
10
176.603
20
-99.0139
11
176.859
21
-98.7704
0
LINE
8
Black
10
176.859
20
-98.7704
11
177.062
21
-98.482
0
LINE
8
Black
10
177.062
20
-98.482
11
177.206
21
-98.1595
0
LINE
8
Black
10
177.206
20
-98.1595
11
177.284
21
-97.8161
0
LINE
8
Black
10
177.284
20
-97.8161
11
177.286
21
-97.6707
0
LINE
8
Black
10
177.286
20
-97.6707
11
177.286
21
-97.6707
0
LINE
8
Black
10
177.286
20
-97.6707
11
177.289
21
-97.4112
0
LINE
8
Black
10
177.289
20
-97.4112
11
177.221
21
-97.0658
0
LINE
8
Black
10
177.221
20
-97.0658
11
177.086
21
-96.7394
0
LINE
8
Black
10
177.086
20
-96.7394
11
176.891
21
-96.4454
0
LINE
8
Black
10
176.891
20
-96.4454
11
176.642
21
-96.1949
0
LINE
8
Black
10
176.642
20
-96.1949
11
176.35
21
-95.9975
0
LINE
8
Black
10
176.35
20
-95.9975
11
176.024
21
-95.8607
0
LINE
8
Black
10
176.024
20
-95.8607
11
175.678
21
-95.7898
0
LINE
8
Black
10
175.678
20
-95.7898
11
175.325
21
-95.7873
0
LINE
8
Black
10
175.325
20
-95.7873
11
174.979
21
-95.8534
0
LINE
8
Black
10
106.83
20
-95.7753
11
106.502
21
-95.9075
0
LINE
8
Black
10
106.502
20
-95.9075
11
106.207
21
-96.1008
0
LINE
8
Black
10
106.207
20
-96.1008
11
105.955
21
-96.3478
0
LINE
8
Black
10
105.955
20
-96.3478
11
105.755
21
-96.639
0
LINE
8
Black
10
105.755
20
-96.639
11
105.616
21
-96.9635
0
LINE
8
Black
10
105.616
20
-96.9635
11
105.543
21
-97.3088
0
LINE
8
Black
10
105.543
20
-97.3088
11
105.538
21
-97.6617
0
LINE
8
Black
10
105.538
20
-97.6617
11
105.602
21
-98.0089
0
LINE
8
Black
10
105.602
20
-98.0089
11
105.732
21
-98.3372
0
LINE
8
Black
10
105.732
20
-98.3372
11
105.923
21
-98.6339
0
LINE
8
Black
10
105.923
20
-98.6339
11
106.168
21
-98.8878
0
LINE
8
Black
10
106.168
20
-98.8878
11
106.458
21
-99.0893
0
LINE
8
Black
10
106.458
20
-99.0893
11
106.781
21
-99.2306
0
LINE
8
Black
10
106.781
20
-99.2306
11
107.126
21
-99.3064
0
LINE
8
Black
10
107.126
20
-99.3064
11
107.479
21
-99.3138
0
LINE
8
Black
10
107.479
20
-99.3138
11
107.827
21
-99.2525
0
LINE
8
Black
10
107.827
20
-99.2525
11
108.156
21
-99.1248
0
LINE
8
Black
10
108.156
20
-99.1248
11
108.454
21
-98.9357
0
LINE
8
Black
10
108.454
20
-98.9357
11
108.71
21
-98.6922
0
LINE
8
Black
10
108.71
20
-98.6922
11
108.913
21
-98.4038
0
LINE
8
Black
10
108.913
20
-98.4038
11
109.057
21
-98.0813
0
LINE
8
Black
10
109.057
20
-98.0813
11
109.135
21
-97.738
0
LINE
8
Black
10
109.135
20
-97.738
11
109.14
21
-97.333
0
LINE
8
Black
10
109.14
20
-97.333
11
109.072
21
-96.9876
0
LINE
8
Black
10
109.072
20
-96.9876
11
108.937
21
-96.6613
0
LINE
8
Black
10
108.937
20
-96.6613
11
108.742
21
-96.3672
0
LINE
8
Black
10
108.742
20
-96.3672
11
108.493
21
-96.1168
0
LINE
8
Black
10
108.493
20
-96.1168
11
108.201
21
-95.9194
0
LINE
8
Black
10
108.201
20
-95.9194
11
107.875
21
-95.7826
0
LINE
8
Black
10
107.875
20
-95.7826
11
107.529
21
-95.7116
0
LINE
8
Black
10
107.529
20
-95.7116
11
107.176
21
-95.7091
0
LINE
8
Black
10
107.176
20
-95.7091
11
106.83
21
-95.7753
0
LINE
8
Black
10
189.008
20
-95.7753
11
188.68
21
-95.9075
0
LINE
8
Black
10
188.68
20
-95.9075
11
188.385
21
-96.1008
0
LINE
8
Black
10
188.385
20
-96.1008
11
188.133
21
-96.3478
0
LINE
8
Black
10
188.133
20
-96.3478
11
187.933
21
-96.639
0
LINE
8
Black
10
187.933
20
-96.639
11
187.794
21
-96.9635
0
LINE
8
Black
10
187.794
20
-96.9635
11
187.721
21
-97.3088
0
LINE
8
Black
10
187.721
20
-97.3088
11
187.716
21
-97.6617
0
LINE
8
Black
10
187.716
20
-97.6617
11
187.78
21
-98.0089
0
LINE
8
Black
10
187.78
20
-98.0089
11
187.91
21
-98.3372
0
LINE
8
Black
10
187.91
20
-98.3372
11
188.101
21
-98.6339
0
LINE
8
Black
10
188.101
20
-98.6339
11
188.346
21
-98.8878
0
LINE
8
Black
10
188.346
20
-98.8878
11
188.636
21
-99.0893
0
LINE
8
Black
10
188.636
20
-99.0893
11
188.959
21
-99.2306
0
LINE
8
Black
10
188.959
20
-99.2306
11
189.304
21
-99.3064
0
LINE
8
Black
10
189.304
20
-99.3064
11
189.657
21
-99.3138
0
LINE
8
Black
10
189.657
20
-99.3138
11
190.005
21
-99.2525
0
LINE
8
Black
10
190.005
20
-99.2525
11
190.334
21
-99.1248
0
LINE
8
Black
10
190.334
20
-99.1248
11
190.632
21
-98.9357
0
LINE
8
Black
10
190.632
20
-98.9357
11
190.888
21
-98.6922
0
LINE
8
Black
10
190.888
20
-98.6922
11
191.091
21
-98.4038
0
LINE
8
Black
10
191.091
20
-98.4038
11
191.235
21
-98.0813
0
LINE
8
Black
10
191.235
20
-98.0813
11
191.313
21
-97.738
0
LINE
8
Black
10
191.313
20
-97.738
11
191.318
21
-97.333
0
LINE
8
Black
10
191.318
20
-97.333
11
191.25
21
-96.9876
0
LINE
8
Black
10
191.25
20
-96.9876
11
191.115
21
-96.6613
0
LINE
8
Black
10
191.115
20
-96.6613
11
190.92
21
-96.3672
0
LINE
8
Black
10
190.92
20
-96.3672
11
190.671
21
-96.1168
0
LINE
8
Black
10
190.671
20
-96.1168
11
190.379
21
-95.9194
0
LINE
8
Black
10
190.379
20
-95.9194
11
190.053
21
-95.7826
0
LINE
8
Black
10
190.053
20
-95.7826
11
189.707
21
-95.7116
0
LINE
8
Black
10
189.707
20
-95.7116
11
189.354
21
-95.7091
0
LINE
8
Black
10
189.354
20
-95.7091
11
189.008
21
-95.7753
0
LINE
8
Black
10
171.628
20
-95.6806
11
171.543
21
-95.7649
0
LINE
8
Black
10
171.543
20
-95.7649
11
171.543
21
-96.1886
0
LINE
8
Black
10
171.543
20
-96.1886
11
172.689
21
-96.1886
0
LINE
8
Black
10
172.689
20
-96.1886
11
172.689
21
-97.3346
0
LINE
8
Black
10
172.689
20
-97.3346
11
173.113
21
-97.3346
0
LINE
8
Black
10
173.113
20
-97.3346
11
173.197
21
-97.2502
0
LINE
8
Black
10
173.197
20
-97.2502
11
173.197
21
-96.1385
0
LINE
8
Black
10
173.197
20
-96.1385
11
173.178
21
-96.0404
0
LINE
8
Black
10
173.178
20
-96.0404
11
173.14
21
-95.9479
0
LINE
8
Black
10
173.14
20
-95.9479
11
173.084
21
-95.8647
0
LINE
8
Black
10
173.084
20
-95.8647
11
173.013
21
-95.794
0
LINE
8
Black
10
173.013
20
-95.794
11
172.93
21
-95.7384
0
LINE
8
Black
10
172.93
20
-95.7384
11
172.838
21
-95.7001
0
LINE
8
Black
10
172.838
20
-95.7001
11
172.739
21
-95.6806
0
LINE
8
Black
10
172.739
20
-95.6806
11
171.628
21
-95.6806
0
LINE
8
Black
10
169.839
20
-95.6806
11
169.741
21
-95.7001
0
LINE
8
Black
10
169.741
20
-95.7001
11
169.649
21
-95.7384
0
LINE
8
Black
10
169.649
20
-95.7384
11
169.566
21
-95.794
0
LINE
8
Black
10
169.566
20
-95.794
11
169.495
21
-95.8647
0
LINE
8
Black
10
169.495
20
-95.8647
11
169.439
21
-95.9479
0
LINE
8
Black
10
169.439
20
-95.9479
11
169.401
21
-96.0404
0
LINE
8
Black
10
169.401
20
-96.0404
11
169.381
21
-96.1385
0
LINE
8
Black
10
169.381
20
-96.1385
11
169.381
21
-97.2502
0
LINE
8
Black
10
169.381
20
-97.2502
11
169.466
21
-97.3346
0
LINE
8
Black
10
169.466
20
-97.3346
11
169.889
21
-97.3346
0
LINE
8
Black
10
169.889
20
-97.3346
11
169.889
21
-96.1886
0
LINE
8
Black
10
169.889
20
-96.1886
11
171.035
21
-96.1886
0
LINE
8
Black
10
171.035
20
-96.1886
11
171.035
21
-95.7649
0
LINE
8
Black
10
171.035
20
-95.7649
11
170.951
21
-95.6806
0
LINE
8
Black
10
170.951
20
-95.6806
11
169.839
21
-95.6806
0
LINE
8
Black
10
125.908
20
-95.6806
11
125.823
21
-95.7649
0
LINE
8
Black
10
125.823
20
-95.7649
11
125.823
21
-96.1886
0
LINE
8
Black
10
125.823
20
-96.1886
11
126.969
21
-96.1886
0
LINE
8
Black
10
126.969
20
-96.1886
11
126.969
21
-97.3346
0
LINE
8
Black
10
126.969
20
-97.3346
11
127.393
21
-97.3346
0
LINE
8
Black
10
127.393
20
-97.3346
11
127.477
21
-97.2502
0
LINE
8
Black
10
127.477
20
-97.2502
11
127.477
21
-96.1385
0
LINE
8
Black
10
127.477
20
-96.1385
11
127.458
21
-96.0404
0
LINE
8
Black
10
127.458
20
-96.0404
11
127.42
21
-95.9479
0
LINE
8
Black
10
127.42
20
-95.9479
11
127.364
21
-95.8647
0
LINE
8
Black
10
127.364
20
-95.8647
11
127.293
21
-95.794
0
LINE
8
Black
10
127.293
20
-95.794
11
127.21
21
-95.7384
0
LINE
8
Black
10
127.21
20
-95.7384
11
127.118
21
-95.7001
0
LINE
8
Black
10
127.118
20
-95.7001
11
127.019
21
-95.6806
0
LINE
8
Black
10
127.019
20
-95.6806
11
125.908
21
-95.6806
0
LINE
8
Black
10
124.119
20
-95.6806
11
124.021
21
-95.7001
0
LINE
8
Black
10
124.021
20
-95.7001
11
123.929
21
-95.7384
0
LINE
8
Black
10
123.929
20
-95.7384
11
123.846
21
-95.794
0
LINE
8
Black
10
123.846
20
-95.794
11
123.775
21
-95.8647
0
LINE
8
Black
10
123.775
20
-95.8647
11
123.719
21
-95.9479
0
LINE
8
Black
10
123.719
20
-95.9479
11
123.681
21
-96.0404
0
LINE
8
Black
10
123.681
20
-96.0404
11
123.661
21
-96.1385
0
LINE
8
Black
10
123.661
20
-96.1385
11
123.661
21
-97.2502
0
LINE
8
Black
10
123.661
20
-97.2502
11
123.746
21
-97.3346
0
LINE
8
Black
10
123.746
20
-97.3346
11
124.169
21
-97.3346
0
LINE
8
Black
10
124.169
20
-97.3346
11
124.169
21
-96.1886
0
LINE
8
Black
10
124.169
20
-96.1886
11
125.315
21
-96.1886
0
LINE
8
Black
10
125.315
20
-96.1886
11
125.315
21
-95.7649
0
LINE
8
Black
10
125.315
20
-95.7649
11
125.231
21
-95.6806
0
LINE
8
Black
10
125.231
20
-95.6806
11
124.119
21
-95.6806
0
LINE
8
Black
10
122.98
20
-71.5334
11
122.325
21
-71.7978
0
LINE
8
Black
10
122.325
20
-71.7978
11
121.734
21
-72.1844
0
LINE
8
Black
10
121.734
20
-72.1844
11
121.23
21
-72.6784
0
LINE
8
Black
10
121.23
20
-72.6784
11
120.831
21
-73.2609
0
LINE
8
Black
10
120.831
20
-73.2609
11
120.553
21
-73.9098
0
LINE
8
Black
10
120.553
20
-73.9098
11
120.406
21
-74.6004
0
LINE
8
Black
10
120.406
20
-74.6004
11
120.396
21
-75.3063
0
LINE
8
Black
10
120.396
20
-75.3063
11
120.524
21
-76.0007
0
LINE
8
Black
10
120.524
20
-76.0007
11
120.784
21
-76.6571
0
LINE
8
Black
10
120.784
20
-76.6571
11
121.166
21
-77.2506
0
LINE
8
Black
10
121.166
20
-77.2506
11
121.657
21
-77.7584
0
LINE
8
Black
10
121.657
20
-77.7584
11
122.236
21
-78.1613
0
LINE
8
Black
10
122.236
20
-78.1613
11
122.883
21
-78.444
0
LINE
8
Black
10
122.883
20
-78.444
11
123.573
21
-78.5956
0
LINE
8
Black
10
123.573
20
-78.5956
11
124.279
21
-78.6104
0
LINE
8
Black
10
124.279
20
-78.6104
11
124.974
21
-78.4878
0
LINE
8
Black
10
124.974
20
-78.4878
11
125.632
21
-78.2325
0
LINE
8
Black
10
125.632
20
-78.2325
11
126.228
21
-77.8542
0
LINE
8
Black
10
126.228
20
-77.8542
11
126.739
21
-77.3673
0
LINE
8
Black
10
126.739
20
-77.3673
11
127.146
21
-76.7904
0
LINE
8
Black
10
127.146
20
-76.7904
11
127.434
21
-76.1454
0
LINE
8
Black
10
127.434
20
-76.1454
11
127.59
21
-75.4579
0
LINE
8
Black
10
127.59
20
-75.4579
11
127.592
21
-75.3152
0
LINE
8
Black
10
127.592
20
-75.3152
11
127.601
21
-74.6497
0
LINE
8
Black
10
127.601
20
-74.6497
11
127.464
21
-73.9581
0
LINE
8
Black
10
127.464
20
-73.9581
11
127.195
21
-73.3053
0
LINE
8
Black
10
127.195
20
-73.3053
11
126.804
21
-72.7173
0
LINE
8
Black
10
126.804
20
-72.7173
11
126.307
21
-72.2163
0
LINE
8
Black
10
126.307
20
-72.2163
11
125.722
21
-71.8215
0
LINE
8
Black
10
125.722
20
-71.8215
11
125.071
21
-71.548
0
LINE
8
Black
10
125.071
20
-71.548
11
124.379
21
-71.406
0
LINE
8
Black
10
124.379
20
-71.406
11
123.673
21
-71.4011
0
LINE
8
Black
10
123.673
20
-71.4011
11
122.98
21
-71.5334
0
LINE
8
Black
10
171.98
20
-71.5334
11
171.325
21
-71.7978
0
LINE
8
Black
10
171.325
20
-71.7978
11
170.734
21
-72.1844
0
LINE
8
Black
10
170.734
20
-72.1844
11
170.23
21
-72.6784
0
LINE
8
Black
10
170.23
20
-72.6784
11
169.831
21
-73.2609
0
LINE
8
Black
10
169.831
20
-73.2609
11
169.553
21
-73.9098
0
LINE
8
Black
10
169.553
20
-73.9098
11
169.406
21
-74.6004
0
LINE
8
Black
10
169.406
20
-74.6004
11
169.396
21
-75.3063
0
LINE
8
Black
10
169.396
20
-75.3063
11
169.524
21
-76.0007
0
LINE
8
Black
10
169.524
20
-76.0007
11
169.784
21
-76.6571
0
LINE
8
Black
10
169.784
20
-76.6571
11
170.166
21
-77.2506
0
LINE
8
Black
10
170.166
20
-77.2506
11
170.657
21
-77.7584
0
LINE
8
Black
10
170.657
20
-77.7584
11
171.236
21
-78.1613
0
LINE
8
Black
10
171.236
20
-78.1613
11
171.883
21
-78.444
0
LINE
8
Black
10
171.883
20
-78.444
11
172.573
21
-78.5956
0
LINE
8
Black
10
172.573
20
-78.5956
11
173.279
21
-78.6104
0
LINE
8
Black
10
173.279
20
-78.6104
11
173.974
21
-78.4878
0
LINE
8
Black
10
173.974
20
-78.4878
11
174.632
21
-78.2325
0
LINE
8
Black
10
174.632
20
-78.2325
11
175.228
21
-77.8542
0
LINE
8
Black
10
175.228
20
-77.8542
11
175.739
21
-77.3673
0
LINE
8
Black
10
175.739
20
-77.3673
11
176.146
21
-76.7904
0
LINE
8
Black
10
176.146
20
-76.7904
11
176.434
21
-76.1454
0
LINE
8
Black
10
176.434
20
-76.1454
11
176.59
21
-75.4579
0
LINE
8
Black
10
176.59
20
-75.4579
11
176.601
21
-74.6497
0
LINE
8
Black
10
176.601
20
-74.6497
11
176.464
21
-73.9581
0
LINE
8
Black
10
176.464
20
-73.9581
11
176.195
21
-73.3053
0
LINE
8
Black
10
176.195
20
-73.3053
11
175.804
21
-72.7173
0
LINE
8
Black
10
175.804
20
-72.7173
11
175.307
21
-72.2163
0
LINE
8
Black
10
175.307
20
-72.2163
11
174.722
21
-71.8215
0
LINE
8
Black
10
174.722
20
-71.8215
11
174.071
21
-71.548
0
LINE
8
Black
10
174.071
20
-71.548
11
173.379
21
-71.406
0
LINE
8
Black
10
173.379
20
-71.406
11
172.673
21
-71.4011
0
LINE
8
Black
10
172.673
20
-71.4011
11
171.98
21
-71.5334
0
LINE
8
Black
10
125.1
20
-131.985
11
126.066
21
-132.543
0
LINE
8
Black
10
126.066
20
-132.543
11
126.783
21
-133.397
0
LINE
8
Black
10
126.783
20
-133.397
11
127.165
21
-134.446
0
LINE
8
Black
10
127.165
20
-134.446
11
127.165
21
-135.561
0
LINE
8
Black
10
127.165
20
-135.561
11
126.783
21
-136.61
0
LINE
8
Black
10
126.783
20
-136.61
11
126.066
21
-137.464
0
LINE
8
Black
10
126.066
20
-137.464
11
125.1
21
-138.022
0
LINE
8
Black
10
125.1
20
-138.022
11
124.001
21
-138.216
0
LINE
8
Black
10
124.001
20
-138.216
11
122.902
21
-138.022
0
LINE
8
Black
10
122.902
20
-138.022
11
121.936
21
-137.464
0
LINE
8
Black
10
121.936
20
-137.464
11
121.219
21
-136.61
0
LINE
8
Black
10
121.219
20
-136.61
11
120.838
21
-135.561
0
LINE
8
Black
10
120.838
20
-135.561
11
120.838
21
-134.446
0
LINE
8
Black
10
120.838
20
-134.446
11
121.219
21
-133.397
0
LINE
8
Black
10
121.219
20
-133.397
11
121.936
21
-132.543
0
LINE
8
Black
10
121.936
20
-132.543
11
122.902
21
-131.985
0
LINE
8
Black
10
122.902
20
-131.985
11
124.001
21
-131.791
0
LINE
8
Black
10
124.001
20
-131.791
11
125.1
21
-131.985
0
LINE
8
Black
10
174.1
20
-131.985
11
175.066
21
-132.543
0
LINE
8
Black
10
175.066
20
-132.543
11
175.783
21
-133.397
0
LINE
8
Black
10
175.783
20
-133.397
11
176.165
21
-134.446
0
LINE
8
Black
10
176.165
20
-134.446
11
176.165
21
-135.561
0
LINE
8
Black
10
176.165
20
-135.561
11
175.783
21
-136.61
0
LINE
8
Black
10
175.783
20
-136.61
11
175.066
21
-137.464
0
LINE
8
Black
10
175.066
20
-137.464
11
174.1
21
-138.022
0
LINE
8
Black
10
174.1
20
-138.022
11
173.001
21
-138.216
0
LINE
8
Black
10
173.001
20
-138.216
11
171.902
21
-138.022
0
LINE
8
Black
10
171.902
20
-138.022
11
170.936
21
-137.464
0
LINE
8
Black
10
170.936
20
-137.464
11
170.219
21
-136.61
0
LINE
8
Black
10
170.219
20
-136.61
11
169.838
21
-135.561
0
LINE
8
Black
10
169.838
20
-135.561
11
169.838
21
-134.446
0
LINE
8
Black
10
169.838
20
-134.446
11
170.219
21
-133.397
0
LINE
8
Black
10
170.219
20
-133.397
11
170.936
21
-132.543
0
LINE
8
Black
10
170.936
20
-132.543
11
171.902
21
-131.985
0
LINE
8
Black
10
171.902
20
-131.985
11
173.001
21
-131.791
0
LINE
8
Black
10
173.001
20
-131.791
11
174.1
21
-131.985
0
LINE
8
Black
10
107.821
20
-111.334
11
108.244
21
-111.578
0
LINE
8
Black
10
108.244
20
-111.578
11
108.557
21
-111.952
0
LINE
8
Black
10
108.557
20
-111.952
11
108.724
21
-112.411
0
LINE
8
Black
10
108.724
20
-112.411
11
108.724
21
-112.899
0
LINE
8
Black
10
108.724
20
-112.899
11
108.557
21
-113.357
0
LINE
8
Black
10
108.557
20
-113.357
11
108.244
21
-113.731
0
LINE
8
Black
10
108.244
20
-113.731
11
107.821
21
-113.975
0
LINE
8
Black
10
107.821
20
-113.975
11
107.34
21
-114.06
0
LINE
8
Black
10
107.34
20
-114.06
11
106.86
21
-113.975
0
LINE
8
Black
10
106.86
20
-113.975
11
106.437
21
-113.731
0
LINE
8
Black
10
106.437
20
-113.731
11
106.123
21
-113.357
0
LINE
8
Black
10
106.123
20
-113.357
11
105.956
21
-112.899
0
LINE
8
Black
10
105.956
20
-112.899
11
105.956
21
-112.411
0
LINE
8
Black
10
105.956
20
-112.411
11
106.123
21
-111.952
0
LINE
8
Black
10
106.123
20
-111.952
11
106.437
21
-111.578
0
LINE
8
Black
10
106.437
20
-111.578
11
106.86
21
-111.334
0
LINE
8
Black
10
106.86
20
-111.334
11
107.34
21
-111.249
0
LINE
8
Black
10
107.34
20
-111.249
11
107.821
21
-111.334
0
LINE
8
Black
10
189.999
20
-111.334
11
190.422
21
-111.578
0
LINE
8
Black
10
190.422
20
-111.578
11
190.735
21
-111.952
0
LINE
8
Black
10
190.735
20
-111.952
11
190.902
21
-112.411
0
LINE
8
Black
10
190.902
20
-112.411
11
190.902
21
-112.899
0
LINE
8
Black
10
190.902
20
-112.899
11
190.735
21
-113.357
0
LINE
8
Black
10
190.735
20
-113.357
11
190.422
21
-113.731
0
LINE
8
Black
10
190.422
20
-113.731
11
189.999
21
-113.975
0
LINE
8
Black
10
189.999
20
-113.975
11
189.518
21
-114.06
0
LINE
8
Black
10
189.518
20
-114.06
11
189.038
21
-113.975
0
LINE
8
Black
10
189.038
20
-113.975
11
188.615
21
-113.731
0
LINE
8
Black
10
188.615
20
-113.731
11
188.301
21
-113.357
0
LINE
8
Black
10
188.301
20
-113.357
11
188.134
21
-112.899
0
LINE
8
Black
10
188.134
20
-112.899
11
188.134
21
-112.411
0
LINE
8
Black
10
188.134
20
-112.411
11
188.301
21
-111.952
0
LINE
8
Black
10
188.301
20
-111.952
11
188.615
21
-111.578
0
LINE
8
Black
10
188.615
20
-111.578
11
189.038
21
-111.334
0
LINE
8
Black
10
189.038
20
-111.334
11
189.518
21
-111.249
0
LINE
8
Black
10
189.518
20
-111.249
11
189.999
21
-111.334
0
LINE
8
Black
10
121.85
20
-111.254
11
122.273
21
-111.498
0
LINE
8
Black
10
122.273
20
-111.498
11
122.586
21
-111.872
0
LINE
8
Black
10
122.586
20
-111.872
11
122.753
21
-112.331
0
LINE
8
Black
10
122.753
20
-112.331
11
122.753
21
-112.819
0
LINE
8
Black
10
122.753
20
-112.819
11
122.586
21
-113.277
0
LINE
8
Black
10
122.586
20
-113.277
11
122.273
21
-113.651
0
LINE
8
Black
10
122.273
20
-113.651
11
121.85
21
-113.895
0
LINE
8
Black
10
121.85
20
-113.895
11
121.369
21
-113.98
0
LINE
8
Black
10
121.369
20
-113.98
11
120.889
21
-113.895
0
LINE
8
Black
10
120.889
20
-113.895
11
120.466
21
-113.651
0
LINE
8
Black
10
120.466
20
-113.651
11
120.152
21
-113.277
0
LINE
8
Black
10
120.152
20
-113.277
11
119.985
21
-112.819
0
LINE
8
Black
10
119.985
20
-112.819
11
119.985
21
-112.331
0
LINE
8
Black
10
119.985
20
-112.331
11
120.152
21
-111.872
0
LINE
8
Black
10
120.152
20
-111.872
11
120.466
21
-111.498
0
LINE
8
Black
10
120.466
20
-111.498
11
120.889
21
-111.254
0
LINE
8
Black
10
120.889
20
-111.254
11
121.369
21
-111.169
0
LINE
8
Black
10
121.369
20
-111.169
11
121.85
21
-111.254
0
LINE
8
Black
10
175.97
20
-111.254
11
176.393
21
-111.498
0
LINE
8
Black
10
176.393
20
-111.498
11
176.706
21
-111.872
0
LINE
8
Black
10
176.706
20
-111.872
11
176.873
21
-112.331
0
LINE
8
Black
10
176.873
20
-112.331
11
176.873
21
-112.819
0
LINE
8
Black
10
176.873
20
-112.819
11
176.706
21
-113.277
0
LINE
8
Black
10
176.706
20
-113.277
11
176.393
21
-113.651
0
LINE
8
Black
10
176.393
20
-113.651
11
175.97
21
-113.895
0
LINE
8
Black
10
175.97
20
-113.895
11
175.489
21
-113.98
0
LINE
8
Black
10
175.489
20
-113.98
11
175.009
21
-113.895
0
LINE
8
Black
10
175.009
20
-113.895
11
174.586
21
-113.651
0
LINE
8
Black
10
174.586
20
-113.651
11
174.272
21
-113.277
0
LINE
8
Black
10
174.272
20
-113.277
11
174.105
21
-112.819
0
LINE
8
Black
10
174.105
20
-112.819
11
174.105
21
-112.331
0
LINE
8
Black
10
174.105
20
-112.331
11
174.272
21
-111.872
0
LINE
8
Black
10
174.272
20
-111.872
11
174.586
21
-111.498
0
LINE
8
Black
10
174.586
20
-111.498
11
175.009
21
-111.254
0
LINE
8
Black
10
175.009
20
-111.254
11
175.489
21
-111.169
0
LINE
8
Black
10
175.489
20
-111.169
11
175.97
21
-111.254
0
LINE
8
Black
10
121.85
20
-96.268
11
122.273
21
-96.512
0
LINE
8
Black
10
122.273
20
-96.512
11
122.586
21
-96.8859
0
LINE
8
Black
10
122.586
20
-96.8859
11
122.753
21
-97.3445
0
LINE
8
Black
10
122.753
20
-97.3445
11
122.753
21
-97.8326
0
LINE
8
Black
10
122.753
20
-97.8326
11
122.586
21
-98.2912
0
LINE
8
Black
10
122.586
20
-98.2912
11
122.273
21
-98.6651
0
LINE
8
Black
10
122.273
20
-98.6651
11
121.85
21
-98.9092
0
LINE
8
Black
10
121.85
20
-98.9092
11
121.369
21
-98.9939
0
LINE
8
Black
10
121.369
20
-98.9939
11
120.889
21
-98.9092
0
LINE
8
Black
10
120.889
20
-98.9092
11
120.466
21
-98.6651
0
LINE
8
Black
10
120.466
20
-98.6651
11
120.152
21
-98.2912
0
LINE
8
Black
10
120.152
20
-98.2912
11
119.985
21
-97.8326
0
LINE
8
Black
10
119.985
20
-97.8326
11
119.985
21
-97.3445
0
LINE
8
Black
10
119.985
20
-97.3445
11
120.152
21
-96.8859
0
LINE
8
Black
10
120.152
20
-96.8859
11
120.466
21
-96.512
0
LINE
8
Black
10
120.466
20
-96.512
11
120.889
21
-96.268
0
LINE
8
Black
10
120.889
20
-96.268
11
121.369
21
-96.1832
0
LINE
8
Black
10
121.369
20
-96.1832
11
121.85
21
-96.268
0
LINE
8
Black
10
175.97
20
-96.268
11
176.393
21
-96.512
0
LINE
8
Black
10
176.393
20
-96.512
11
176.706
21
-96.8859
0
LINE
8
Black
10
176.706
20
-96.8859
11
176.873
21
-97.3445
0
LINE
8
Black
10
176.873
20
-97.3445
11
176.873
21
-97.8326
0
LINE
8
Black
10
176.873
20
-97.8326
11
176.706
21
-98.2912
0
LINE
8
Black
10
176.706
20
-98.2912
11
176.393
21
-98.6651
0
LINE
8
Black
10
176.393
20
-98.6651
11
175.97
21
-98.9092
0
LINE
8
Black
10
175.97
20
-98.9092
11
175.489
21
-98.9939
0
LINE
8
Black
10
175.489
20
-98.9939
11
175.009
21
-98.9092
0
LINE
8
Black
10
175.009
20
-98.9092
11
174.586
21
-98.6651
0
LINE
8
Black
10
174.586
20
-98.6651
11
174.272
21
-98.2912
0
LINE
8
Black
10
174.272
20
-98.2912
11
174.105
21
-97.8326
0
LINE
8
Black
10
174.105
20
-97.8326
11
174.105
21
-97.3445
0
LINE
8
Black
10
174.105
20
-97.3445
11
174.272
21
-96.8859
0
LINE
8
Black
10
174.272
20
-96.8859
11
174.586
21
-96.512
0
LINE
8
Black
10
174.586
20
-96.512
11
175.009
21
-96.268
0
LINE
8
Black
10
175.009
20
-96.268
11
175.489
21
-96.1832
0
LINE
8
Black
10
175.489
20
-96.1832
11
175.97
21
-96.268
0
LINE
8
Black
10
107.821
20
-96.1898
11
108.244
21
-96.4338
0
LINE
8
Black
10
108.244
20
-96.4338
11
108.557
21
-96.8077
0
LINE
8
Black
10
108.557
20
-96.8077
11
108.724
21
-97.2664
0
LINE
8
Black
10
108.724
20
-97.2664
11
108.724
21
-97.7544
0
LINE
8
Black
10
108.724
20
-97.7544
11
108.557
21
-98.2131
0
LINE
8
Black
10
108.557
20
-98.2131
11
108.244
21
-98.587
0
LINE
8
Black
10
108.244
20
-98.587
11
107.821
21
-98.831
0
LINE
8
Black
10
107.821
20
-98.831
11
107.34
21
-98.9157
0
LINE
8
Black
10
107.34
20
-98.9157
11
106.86
21
-98.831
0
LINE
8
Black
10
106.86
20
-98.831
11
106.437
21
-98.587
0
LINE
8
Black
10
106.437
20
-98.587
11
106.123
21
-98.2131
0
LINE
8
Black
10
106.123
20
-98.2131
11
105.956
21
-97.7544
0
LINE
8
Black
10
105.956
20
-97.7544
11
105.956
21
-97.2664
0
LINE
8
Black
10
105.956
20
-97.2664
11
106.123
21
-96.8077
0
LINE
8
Black
10
106.123
20
-96.8077
11
106.437
21
-96.4338
0
LINE
8
Black
10
106.437
20
-96.4338
11
106.86
21
-96.1898
0
LINE
8
Black
10
106.86
20
-96.1898
11
107.34
21
-96.1051
0
LINE
8
Black
10
107.34
20
-96.1051
11
107.821
21
-96.1898
0
LINE
8
Black
10
189.999
20
-96.1898
11
190.422
21
-96.4338
0
LINE
8
Black
10
190.422
20
-96.4338
11
190.735
21
-96.8077
0
LINE
8
Black
10
190.735
20
-96.8077
11
190.902
21
-97.2664
0
LINE
8
Black
10
190.902
20
-97.2664
11
190.902
21
-97.7544
0
LINE
8
Black
10
190.902
20
-97.7544
11
190.735
21
-98.2131
0
LINE
8
Black
10
190.735
20
-98.2131
11
190.422
21
-98.587
0
LINE
8
Black
10
190.422
20
-98.587
11
189.999
21
-98.831
0
LINE
8
Black
10
189.999
20
-98.831
11
189.518
21
-98.9157
0
LINE
8
Black
10
189.518
20
-98.9157
11
189.038
21
-98.831
0
LINE
8
Black
10
189.038
20
-98.831
11
188.615
21
-98.587
0
LINE
8
Black
10
188.615
20
-98.587
11
188.301
21
-98.2131
0
LINE
8
Black
10
188.301
20
-98.2131
11
188.134
21
-97.7544
0
LINE
8
Black
10
188.134
20
-97.7544
11
188.134
21
-97.2664
0
LINE
8
Black
10
188.134
20
-97.2664
11
188.301
21
-96.8077
0
LINE
8
Black
10
188.301
20
-96.8077
11
188.615
21
-96.4338
0
LINE
8
Black
10
188.615
20
-96.4338
11
189.038
21
-96.1898
0
LINE
8
Black
10
189.038
20
-96.1898
11
189.518
21
-96.1051
0
LINE
8
Black
10
189.518
20
-96.1051
11
189.999
21
-96.1898
0
LINE
8
Black
10
125.1
20
-71.9851
11
126.066
21
-72.5429
0
LINE
8
Black
10
126.066
20
-72.5429
11
126.783
21
-73.3975
0
LINE
8
Black
10
126.783
20
-73.3975
11
127.165
21
-74.4458
0
LINE
8
Black
10
127.165
20
-74.4458
11
127.165
21
-75.5614
0
LINE
8
Black
10
127.165
20
-75.5614
11
126.783
21
-76.6097
0
LINE
8
Black
10
126.783
20
-76.6097
11
126.066
21
-77.4643
0
LINE
8
Black
10
126.066
20
-77.4643
11
125.1
21
-78.0221
0
LINE
8
Black
10
125.1
20
-78.0221
11
124.001
21
-78.2158
0
LINE
8
Black
10
124.001
20
-78.2158
11
122.902
21
-78.0221
0
LINE
8
Black
10
122.902
20
-78.0221
11
121.936
21
-77.4643
0
LINE
8
Black
10
121.936
20
-77.4643
11
121.219
21
-76.6097
0
LINE
8
Black
10
121.219
20
-76.6097
11
120.838
21
-75.5614
0
LINE
8
Black
10
120.838
20
-75.5614
11
120.838
21
-74.4458
0
LINE
8
Black
10
120.838
20
-74.4458
11
121.219
21
-73.3975
0
LINE
8
Black
10
121.219
20
-73.3975
11
121.936
21
-72.5429
0
LINE
8
Black
10
121.936
20
-72.5429
11
122.902
21
-71.9851
0
LINE
8
Black
10
122.902
20
-71.9851
11
124.001
21
-71.7914
0
LINE
8
Black
10
124.001
20
-71.7914
11
125.1
21
-71.9851
0
LINE
8
Black
10
174.1
20
-71.9851
11
175.066
21
-72.5429
0
LINE
8
Black
10
175.066
20
-72.5429
11
175.783
21
-73.3975
0
LINE
8
Black
10
175.783
20
-73.3975
11
176.165
21
-74.4458
0
LINE
8
Black
10
176.165
20
-74.4458
11
176.165
21
-75.5614
0
LINE
8
Black
10
176.165
20
-75.5614
11
175.783
21
-76.6097
0
LINE
8
Black
10
175.783
20
-76.6097
11
175.066
21
-77.4643
0
LINE
8
Black
10
175.066
20
-77.4643
11
174.1
21
-78.0221
0
LINE
8
Black
10
174.1
20
-78.0221
11
173.001
21
-78.2158
0
LINE
8
Black
10
173.001
20
-78.2158
11
171.902
21
-78.0221
0
LINE
8
Black
10
171.902
20
-78.0221
11
170.936
21
-77.4643
0
LINE
8
Black
10
170.936
20
-77.4643
11
170.219
21
-76.6097
0
LINE
8
Black
10
170.219
20
-76.6097
11
169.838
21
-75.5614
0
LINE
8
Black
10
169.838
20
-75.5614
11
169.838
21
-74.4458
0
LINE
8
Black
10
169.838
20
-74.4458
11
170.219
21
-73.3975
0
LINE
8
Black
10
170.219
20
-73.3975
11
170.936
21
-72.5429
0
LINE
8
Black
10
170.936
20
-72.5429
11
171.902
21
-71.9851
0
LINE
8
Black
10
171.902
20
-71.9851
11
173.001
21
-71.7914
0
LINE
8
Black
10
173.001
20
-71.7914
11
174.1
21
-71.9851
  0
ENDSEC
  0
EOF
