G04 #@! TF.FileFunction,Legend,Bot*
%FSLAX46Y46*%
G04 Gerber Fmt 4.6, Leading zero omitted, Abs format (unit mm)*
G04 Created by KiCad (PCBNEW 4.0.6) date Fri Jul 14 09:31:39 2017*
%MOMM*%
%LPD*%
G01*
G04 APERTURE LIST*
%ADD10C,0.100000*%
%ADD11C,0.300000*%
%ADD12C,0.150000*%
G04 APERTURE END LIST*
D10*
D11*
X140871715Y-124619857D02*
X141086001Y-124548429D01*
X141443144Y-124548429D01*
X141586001Y-124619857D01*
X141657430Y-124691286D01*
X141728858Y-124834143D01*
X141728858Y-124977000D01*
X141657430Y-125119857D01*
X141586001Y-125191286D01*
X141443144Y-125262714D01*
X141157430Y-125334143D01*
X141014572Y-125405571D01*
X140943144Y-125477000D01*
X140871715Y-125619857D01*
X140871715Y-125762714D01*
X140943144Y-125905571D01*
X141014572Y-125977000D01*
X141157430Y-126048429D01*
X141514572Y-126048429D01*
X141728858Y-125977000D01*
X142371715Y-126048429D02*
X142371715Y-124834143D01*
X142443143Y-124691286D01*
X142514572Y-124619857D01*
X142657429Y-124548429D01*
X142943143Y-124548429D01*
X143086001Y-124619857D01*
X143157429Y-124691286D01*
X143228858Y-124834143D01*
X143228858Y-126048429D01*
X143943144Y-124548429D02*
X143943144Y-126048429D01*
X144514572Y-126048429D01*
X144657430Y-125977000D01*
X144728858Y-125905571D01*
X144800287Y-125762714D01*
X144800287Y-125548429D01*
X144728858Y-125405571D01*
X144657430Y-125334143D01*
X144514572Y-125262714D01*
X143943144Y-125262714D01*
X145443144Y-125334143D02*
X145943144Y-125334143D01*
X146157430Y-124548429D02*
X145443144Y-124548429D01*
X145443144Y-126048429D01*
X146157430Y-126048429D01*
X147657430Y-124548429D02*
X147157430Y-125262714D01*
X146800287Y-124548429D02*
X146800287Y-126048429D01*
X147371715Y-126048429D01*
X147514573Y-125977000D01*
X147586001Y-125905571D01*
X147657430Y-125762714D01*
X147657430Y-125548429D01*
X147586001Y-125405571D01*
X147514573Y-125334143D01*
X147371715Y-125262714D01*
X146800287Y-125262714D01*
X148300287Y-124548429D02*
X148300287Y-126048429D01*
X148300287Y-125477000D02*
X148443144Y-125548429D01*
X148728858Y-125548429D01*
X148871715Y-125477000D01*
X148943144Y-125405571D01*
X149014573Y-125262714D01*
X149014573Y-124834143D01*
X148943144Y-124691286D01*
X148871715Y-124619857D01*
X148728858Y-124548429D01*
X148443144Y-124548429D01*
X148300287Y-124619857D01*
X150300287Y-124548429D02*
X150300287Y-125334143D01*
X150228858Y-125477000D01*
X150086001Y-125548429D01*
X149800287Y-125548429D01*
X149657430Y-125477000D01*
X150300287Y-124619857D02*
X150157430Y-124548429D01*
X149800287Y-124548429D01*
X149657430Y-124619857D01*
X149586001Y-124762714D01*
X149586001Y-124905571D01*
X149657430Y-125048429D01*
X149800287Y-125119857D01*
X150157430Y-125119857D01*
X150300287Y-125191286D01*
X151228859Y-124548429D02*
X151086001Y-124619857D01*
X151014573Y-124762714D01*
X151014573Y-126048429D01*
X152014573Y-124548429D02*
X151871715Y-124619857D01*
X151800287Y-124762714D01*
X151800287Y-126048429D01*
X153514572Y-126048429D02*
X154014572Y-124548429D01*
X154514572Y-126048429D01*
X154943143Y-125905571D02*
X155014572Y-125977000D01*
X155157429Y-126048429D01*
X155514572Y-126048429D01*
X155657429Y-125977000D01*
X155728858Y-125905571D01*
X155800286Y-125762714D01*
X155800286Y-125619857D01*
X155728858Y-125405571D01*
X154871715Y-124548429D01*
X155800286Y-124548429D01*
X135336001Y-121998429D02*
X135336001Y-123498429D01*
X135907429Y-123498429D01*
X136050287Y-123427000D01*
X136121715Y-123355571D01*
X136193144Y-123212714D01*
X136193144Y-122998429D01*
X136121715Y-122855571D01*
X136050287Y-122784143D01*
X135907429Y-122712714D01*
X135336001Y-122712714D01*
X137050287Y-121998429D02*
X136907429Y-122069857D01*
X136836001Y-122141286D01*
X136764572Y-122284143D01*
X136764572Y-122712714D01*
X136836001Y-122855571D01*
X136907429Y-122927000D01*
X137050287Y-122998429D01*
X137264572Y-122998429D01*
X137407429Y-122927000D01*
X137478858Y-122855571D01*
X137550287Y-122712714D01*
X137550287Y-122284143D01*
X137478858Y-122141286D01*
X137407429Y-122069857D01*
X137264572Y-121998429D01*
X137050287Y-121998429D01*
X138050287Y-122998429D02*
X138336001Y-121998429D01*
X138621715Y-122712714D01*
X138907430Y-121998429D01*
X139193144Y-122998429D01*
X140336001Y-122069857D02*
X140193144Y-121998429D01*
X139907430Y-121998429D01*
X139764573Y-122069857D01*
X139693144Y-122212714D01*
X139693144Y-122784143D01*
X139764573Y-122927000D01*
X139907430Y-122998429D01*
X140193144Y-122998429D01*
X140336001Y-122927000D01*
X140407430Y-122784143D01*
X140407430Y-122641286D01*
X139693144Y-122498429D01*
X141050287Y-121998429D02*
X141050287Y-122998429D01*
X141050287Y-122712714D02*
X141121715Y-122855571D01*
X141193144Y-122927000D01*
X141336001Y-122998429D01*
X141478858Y-122998429D01*
X143978858Y-122141286D02*
X143907429Y-122069857D01*
X143693143Y-121998429D01*
X143550286Y-121998429D01*
X143336001Y-122069857D01*
X143193143Y-122212714D01*
X143121715Y-122355571D01*
X143050286Y-122641286D01*
X143050286Y-122855571D01*
X143121715Y-123141286D01*
X143193143Y-123284143D01*
X143336001Y-123427000D01*
X143550286Y-123498429D01*
X143693143Y-123498429D01*
X143907429Y-123427000D01*
X143978858Y-123355571D01*
X144836001Y-121998429D02*
X144693143Y-122069857D01*
X144621715Y-122141286D01*
X144550286Y-122284143D01*
X144550286Y-122712714D01*
X144621715Y-122855571D01*
X144693143Y-122927000D01*
X144836001Y-122998429D01*
X145050286Y-122998429D01*
X145193143Y-122927000D01*
X145264572Y-122855571D01*
X145336001Y-122712714D01*
X145336001Y-122284143D01*
X145264572Y-122141286D01*
X145193143Y-122069857D01*
X145050286Y-121998429D01*
X144836001Y-121998429D01*
X145978858Y-122998429D02*
X145978858Y-121998429D01*
X145978858Y-122855571D02*
X146050286Y-122927000D01*
X146193144Y-122998429D01*
X146407429Y-122998429D01*
X146550286Y-122927000D01*
X146621715Y-122784143D01*
X146621715Y-121998429D01*
X147336001Y-122998429D02*
X147336001Y-121998429D01*
X147336001Y-122855571D02*
X147407429Y-122927000D01*
X147550287Y-122998429D01*
X147764572Y-122998429D01*
X147907429Y-122927000D01*
X147978858Y-122784143D01*
X147978858Y-121998429D01*
X149264572Y-122069857D02*
X149121715Y-121998429D01*
X148836001Y-121998429D01*
X148693144Y-122069857D01*
X148621715Y-122212714D01*
X148621715Y-122784143D01*
X148693144Y-122927000D01*
X148836001Y-122998429D01*
X149121715Y-122998429D01*
X149264572Y-122927000D01*
X149336001Y-122784143D01*
X149336001Y-122641286D01*
X148621715Y-122498429D01*
X150621715Y-122069857D02*
X150478858Y-121998429D01*
X150193144Y-121998429D01*
X150050286Y-122069857D01*
X149978858Y-122141286D01*
X149907429Y-122284143D01*
X149907429Y-122712714D01*
X149978858Y-122855571D01*
X150050286Y-122927000D01*
X150193144Y-122998429D01*
X150478858Y-122998429D01*
X150621715Y-122927000D01*
X151050286Y-122998429D02*
X151621715Y-122998429D01*
X151264572Y-123498429D02*
X151264572Y-122212714D01*
X151336000Y-122069857D01*
X151478858Y-121998429D01*
X151621715Y-121998429D01*
X152336001Y-121998429D02*
X152193143Y-122069857D01*
X152121715Y-122141286D01*
X152050286Y-122284143D01*
X152050286Y-122712714D01*
X152121715Y-122855571D01*
X152193143Y-122927000D01*
X152336001Y-122998429D01*
X152550286Y-122998429D01*
X152693143Y-122927000D01*
X152764572Y-122855571D01*
X152836001Y-122712714D01*
X152836001Y-122284143D01*
X152764572Y-122141286D01*
X152693143Y-122069857D01*
X152550286Y-121998429D01*
X152336001Y-121998429D01*
X153478858Y-121998429D02*
X153478858Y-122998429D01*
X153478858Y-122712714D02*
X153550286Y-122855571D01*
X153621715Y-122927000D01*
X153764572Y-122998429D01*
X153907429Y-122998429D01*
X156050286Y-122784143D02*
X156264572Y-122712714D01*
X156336000Y-122641286D01*
X156407429Y-122498429D01*
X156407429Y-122284143D01*
X156336000Y-122141286D01*
X156264572Y-122069857D01*
X156121714Y-121998429D01*
X155550286Y-121998429D01*
X155550286Y-123498429D01*
X156050286Y-123498429D01*
X156193143Y-123427000D01*
X156264572Y-123355571D01*
X156336000Y-123212714D01*
X156336000Y-123069857D01*
X156264572Y-122927000D01*
X156193143Y-122855571D01*
X156050286Y-122784143D01*
X155550286Y-122784143D01*
X157264572Y-121998429D02*
X157121714Y-122069857D01*
X157050286Y-122141286D01*
X156978857Y-122284143D01*
X156978857Y-122712714D01*
X157050286Y-122855571D01*
X157121714Y-122927000D01*
X157264572Y-122998429D01*
X157478857Y-122998429D01*
X157621714Y-122927000D01*
X157693143Y-122855571D01*
X157764572Y-122712714D01*
X157764572Y-122284143D01*
X157693143Y-122141286D01*
X157621714Y-122069857D01*
X157478857Y-121998429D01*
X157264572Y-121998429D01*
X159050286Y-121998429D02*
X159050286Y-122784143D01*
X158978857Y-122927000D01*
X158836000Y-122998429D01*
X158550286Y-122998429D01*
X158407429Y-122927000D01*
X159050286Y-122069857D02*
X158907429Y-121998429D01*
X158550286Y-121998429D01*
X158407429Y-122069857D01*
X158336000Y-122212714D01*
X158336000Y-122355571D01*
X158407429Y-122498429D01*
X158550286Y-122569857D01*
X158907429Y-122569857D01*
X159050286Y-122641286D01*
X159764572Y-121998429D02*
X159764572Y-122998429D01*
X159764572Y-122712714D02*
X159836000Y-122855571D01*
X159907429Y-122927000D01*
X160050286Y-122998429D01*
X160193143Y-122998429D01*
X161336000Y-121998429D02*
X161336000Y-123498429D01*
X161336000Y-122069857D02*
X161193143Y-121998429D01*
X160907429Y-121998429D01*
X160764571Y-122069857D01*
X160693143Y-122141286D01*
X160621714Y-122284143D01*
X160621714Y-122712714D01*
X160693143Y-122855571D01*
X160764571Y-122927000D01*
X160907429Y-122998429D01*
X161193143Y-122998429D01*
X161336000Y-122927000D01*
X155800285Y-85184143D02*
X155585999Y-85255571D01*
X155228856Y-85255571D01*
X155085999Y-85184143D01*
X155014570Y-85112714D01*
X154943142Y-84969857D01*
X154943142Y-84827000D01*
X155014570Y-84684143D01*
X155085999Y-84612714D01*
X155228856Y-84541286D01*
X155514570Y-84469857D01*
X155657428Y-84398429D01*
X155728856Y-84327000D01*
X155800285Y-84184143D01*
X155800285Y-84041286D01*
X155728856Y-83898429D01*
X155657428Y-83827000D01*
X155514570Y-83755571D01*
X155157428Y-83755571D01*
X154943142Y-83827000D01*
X154300285Y-83755571D02*
X154300285Y-84969857D01*
X154228857Y-85112714D01*
X154157428Y-85184143D01*
X154014571Y-85255571D01*
X153728857Y-85255571D01*
X153585999Y-85184143D01*
X153514571Y-85112714D01*
X153443142Y-84969857D01*
X153443142Y-83755571D01*
X152728856Y-85255571D02*
X152728856Y-83755571D01*
X152157428Y-83755571D01*
X152014570Y-83827000D01*
X151943142Y-83898429D01*
X151871713Y-84041286D01*
X151871713Y-84255571D01*
X151943142Y-84398429D01*
X152014570Y-84469857D01*
X152157428Y-84541286D01*
X152728856Y-84541286D01*
X151228856Y-84469857D02*
X150728856Y-84469857D01*
X150514570Y-85255571D02*
X151228856Y-85255571D01*
X151228856Y-83755571D01*
X150514570Y-83755571D01*
X149014570Y-85255571D02*
X149514570Y-84541286D01*
X149871713Y-85255571D02*
X149871713Y-83755571D01*
X149300285Y-83755571D01*
X149157427Y-83827000D01*
X149085999Y-83898429D01*
X149014570Y-84041286D01*
X149014570Y-84255571D01*
X149085999Y-84398429D01*
X149157427Y-84469857D01*
X149300285Y-84541286D01*
X149871713Y-84541286D01*
X148371713Y-85255571D02*
X148371713Y-83755571D01*
X148371713Y-84327000D02*
X148228856Y-84255571D01*
X147943142Y-84255571D01*
X147800285Y-84327000D01*
X147728856Y-84398429D01*
X147657427Y-84541286D01*
X147657427Y-84969857D01*
X147728856Y-85112714D01*
X147800285Y-85184143D01*
X147943142Y-85255571D01*
X148228856Y-85255571D01*
X148371713Y-85184143D01*
X146371713Y-85255571D02*
X146371713Y-84469857D01*
X146443142Y-84327000D01*
X146585999Y-84255571D01*
X146871713Y-84255571D01*
X147014570Y-84327000D01*
X146371713Y-85184143D02*
X146514570Y-85255571D01*
X146871713Y-85255571D01*
X147014570Y-85184143D01*
X147085999Y-85041286D01*
X147085999Y-84898429D01*
X147014570Y-84755571D01*
X146871713Y-84684143D01*
X146514570Y-84684143D01*
X146371713Y-84612714D01*
X145443141Y-85255571D02*
X145585999Y-85184143D01*
X145657427Y-85041286D01*
X145657427Y-83755571D01*
X144657427Y-85255571D02*
X144800285Y-85184143D01*
X144871713Y-85041286D01*
X144871713Y-83755571D01*
X143157428Y-83755571D02*
X142657428Y-85255571D01*
X142157428Y-83755571D01*
X141728857Y-83898429D02*
X141657428Y-83827000D01*
X141514571Y-83755571D01*
X141157428Y-83755571D01*
X141014571Y-83827000D01*
X140943142Y-83898429D01*
X140871714Y-84041286D01*
X140871714Y-84184143D01*
X140943142Y-84398429D01*
X141800285Y-85255571D01*
X140871714Y-85255571D01*
X161335999Y-87805571D02*
X161335999Y-86305571D01*
X160764571Y-86305571D01*
X160621713Y-86377000D01*
X160550285Y-86448429D01*
X160478856Y-86591286D01*
X160478856Y-86805571D01*
X160550285Y-86948429D01*
X160621713Y-87019857D01*
X160764571Y-87091286D01*
X161335999Y-87091286D01*
X159621713Y-87805571D02*
X159764571Y-87734143D01*
X159835999Y-87662714D01*
X159907428Y-87519857D01*
X159907428Y-87091286D01*
X159835999Y-86948429D01*
X159764571Y-86877000D01*
X159621713Y-86805571D01*
X159407428Y-86805571D01*
X159264571Y-86877000D01*
X159193142Y-86948429D01*
X159121713Y-87091286D01*
X159121713Y-87519857D01*
X159193142Y-87662714D01*
X159264571Y-87734143D01*
X159407428Y-87805571D01*
X159621713Y-87805571D01*
X158621713Y-86805571D02*
X158335999Y-87805571D01*
X158050285Y-87091286D01*
X157764570Y-87805571D01*
X157478856Y-86805571D01*
X156335999Y-87734143D02*
X156478856Y-87805571D01*
X156764570Y-87805571D01*
X156907427Y-87734143D01*
X156978856Y-87591286D01*
X156978856Y-87019857D01*
X156907427Y-86877000D01*
X156764570Y-86805571D01*
X156478856Y-86805571D01*
X156335999Y-86877000D01*
X156264570Y-87019857D01*
X156264570Y-87162714D01*
X156978856Y-87305571D01*
X155621713Y-87805571D02*
X155621713Y-86805571D01*
X155621713Y-87091286D02*
X155550285Y-86948429D01*
X155478856Y-86877000D01*
X155335999Y-86805571D01*
X155193142Y-86805571D01*
X152693142Y-87662714D02*
X152764571Y-87734143D01*
X152978857Y-87805571D01*
X153121714Y-87805571D01*
X153335999Y-87734143D01*
X153478857Y-87591286D01*
X153550285Y-87448429D01*
X153621714Y-87162714D01*
X153621714Y-86948429D01*
X153550285Y-86662714D01*
X153478857Y-86519857D01*
X153335999Y-86377000D01*
X153121714Y-86305571D01*
X152978857Y-86305571D01*
X152764571Y-86377000D01*
X152693142Y-86448429D01*
X151835999Y-87805571D02*
X151978857Y-87734143D01*
X152050285Y-87662714D01*
X152121714Y-87519857D01*
X152121714Y-87091286D01*
X152050285Y-86948429D01*
X151978857Y-86877000D01*
X151835999Y-86805571D01*
X151621714Y-86805571D01*
X151478857Y-86877000D01*
X151407428Y-86948429D01*
X151335999Y-87091286D01*
X151335999Y-87519857D01*
X151407428Y-87662714D01*
X151478857Y-87734143D01*
X151621714Y-87805571D01*
X151835999Y-87805571D01*
X150693142Y-86805571D02*
X150693142Y-87805571D01*
X150693142Y-86948429D02*
X150621714Y-86877000D01*
X150478856Y-86805571D01*
X150264571Y-86805571D01*
X150121714Y-86877000D01*
X150050285Y-87019857D01*
X150050285Y-87805571D01*
X149335999Y-86805571D02*
X149335999Y-87805571D01*
X149335999Y-86948429D02*
X149264571Y-86877000D01*
X149121713Y-86805571D01*
X148907428Y-86805571D01*
X148764571Y-86877000D01*
X148693142Y-87019857D01*
X148693142Y-87805571D01*
X147407428Y-87734143D02*
X147550285Y-87805571D01*
X147835999Y-87805571D01*
X147978856Y-87734143D01*
X148050285Y-87591286D01*
X148050285Y-87019857D01*
X147978856Y-86877000D01*
X147835999Y-86805571D01*
X147550285Y-86805571D01*
X147407428Y-86877000D01*
X147335999Y-87019857D01*
X147335999Y-87162714D01*
X148050285Y-87305571D01*
X146050285Y-87734143D02*
X146193142Y-87805571D01*
X146478856Y-87805571D01*
X146621714Y-87734143D01*
X146693142Y-87662714D01*
X146764571Y-87519857D01*
X146764571Y-87091286D01*
X146693142Y-86948429D01*
X146621714Y-86877000D01*
X146478856Y-86805571D01*
X146193142Y-86805571D01*
X146050285Y-86877000D01*
X145621714Y-86805571D02*
X145050285Y-86805571D01*
X145407428Y-86305571D02*
X145407428Y-87591286D01*
X145336000Y-87734143D01*
X145193142Y-87805571D01*
X145050285Y-87805571D01*
X144335999Y-87805571D02*
X144478857Y-87734143D01*
X144550285Y-87662714D01*
X144621714Y-87519857D01*
X144621714Y-87091286D01*
X144550285Y-86948429D01*
X144478857Y-86877000D01*
X144335999Y-86805571D01*
X144121714Y-86805571D01*
X143978857Y-86877000D01*
X143907428Y-86948429D01*
X143835999Y-87091286D01*
X143835999Y-87519857D01*
X143907428Y-87662714D01*
X143978857Y-87734143D01*
X144121714Y-87805571D01*
X144335999Y-87805571D01*
X143193142Y-87805571D02*
X143193142Y-86805571D01*
X143193142Y-87091286D02*
X143121714Y-86948429D01*
X143050285Y-86877000D01*
X142907428Y-86805571D01*
X142764571Y-86805571D01*
X140621714Y-87019857D02*
X140407428Y-87091286D01*
X140336000Y-87162714D01*
X140264571Y-87305571D01*
X140264571Y-87519857D01*
X140336000Y-87662714D01*
X140407428Y-87734143D01*
X140550286Y-87805571D01*
X141121714Y-87805571D01*
X141121714Y-86305571D01*
X140621714Y-86305571D01*
X140478857Y-86377000D01*
X140407428Y-86448429D01*
X140336000Y-86591286D01*
X140336000Y-86734143D01*
X140407428Y-86877000D01*
X140478857Y-86948429D01*
X140621714Y-87019857D01*
X141121714Y-87019857D01*
X139407428Y-87805571D02*
X139550286Y-87734143D01*
X139621714Y-87662714D01*
X139693143Y-87519857D01*
X139693143Y-87091286D01*
X139621714Y-86948429D01*
X139550286Y-86877000D01*
X139407428Y-86805571D01*
X139193143Y-86805571D01*
X139050286Y-86877000D01*
X138978857Y-86948429D01*
X138907428Y-87091286D01*
X138907428Y-87519857D01*
X138978857Y-87662714D01*
X139050286Y-87734143D01*
X139193143Y-87805571D01*
X139407428Y-87805571D01*
X137621714Y-87805571D02*
X137621714Y-87019857D01*
X137693143Y-86877000D01*
X137836000Y-86805571D01*
X138121714Y-86805571D01*
X138264571Y-86877000D01*
X137621714Y-87734143D02*
X137764571Y-87805571D01*
X138121714Y-87805571D01*
X138264571Y-87734143D01*
X138336000Y-87591286D01*
X138336000Y-87448429D01*
X138264571Y-87305571D01*
X138121714Y-87234143D01*
X137764571Y-87234143D01*
X137621714Y-87162714D01*
X136907428Y-87805571D02*
X136907428Y-86805571D01*
X136907428Y-87091286D02*
X136836000Y-86948429D01*
X136764571Y-86877000D01*
X136621714Y-86805571D01*
X136478857Y-86805571D01*
X135336000Y-87805571D02*
X135336000Y-86305571D01*
X135336000Y-87734143D02*
X135478857Y-87805571D01*
X135764571Y-87805571D01*
X135907429Y-87734143D01*
X135978857Y-87662714D01*
X136050286Y-87519857D01*
X136050286Y-87091286D01*
X135978857Y-86948429D01*
X135907429Y-86877000D01*
X135764571Y-86805571D01*
X135478857Y-86805571D01*
X135336000Y-86877000D01*
D12*
X127919400Y-112574576D02*
X127919400Y-115374576D01*
X127919400Y-115374576D02*
X118019400Y-115374576D01*
X118019400Y-115374576D02*
X118019400Y-114374576D01*
X118019400Y-114374576D02*
X116619400Y-114374576D01*
X116619400Y-114374576D02*
X116619400Y-112574576D01*
X127919400Y-112574576D02*
X127919400Y-109774576D01*
X127919400Y-109774576D02*
X118019400Y-109774576D01*
X118019400Y-109774576D02*
X118019400Y-110774576D01*
X118019400Y-110774576D02*
X116619400Y-110774576D01*
X116619400Y-110774576D02*
X116619400Y-112574576D01*
X125569400Y-115774576D02*
X125269400Y-116374576D01*
X125269400Y-116374576D02*
X125869400Y-116374576D01*
X125869400Y-116374576D02*
X125569400Y-115774576D01*
X127919400Y-97588576D02*
X127919400Y-100388576D01*
X127919400Y-100388576D02*
X118019400Y-100388576D01*
X118019400Y-100388576D02*
X118019400Y-99388576D01*
X118019400Y-99388576D02*
X116619400Y-99388576D01*
X116619400Y-99388576D02*
X116619400Y-97588576D01*
X127919400Y-97588576D02*
X127919400Y-94788576D01*
X127919400Y-94788576D02*
X118019400Y-94788576D01*
X118019400Y-94788576D02*
X118019400Y-95788576D01*
X118019400Y-95788576D02*
X116619400Y-95788576D01*
X116619400Y-95788576D02*
X116619400Y-97588576D01*
X125569400Y-100788576D02*
X125269400Y-101388576D01*
X125269400Y-101388576D02*
X125869400Y-101388576D01*
X125869400Y-101388576D02*
X125569400Y-100788576D01*
X107340400Y-106104800D02*
X110140400Y-106104800D01*
X110140400Y-106104800D02*
X110140400Y-116004800D01*
X110140400Y-116004800D02*
X109140400Y-116004800D01*
X109140400Y-116004800D02*
X109140400Y-117404800D01*
X109140400Y-117404800D02*
X107340400Y-117404800D01*
X107340400Y-106104800D02*
X104540400Y-106104800D01*
X104540400Y-106104800D02*
X104540400Y-116004800D01*
X104540400Y-116004800D02*
X105540400Y-116004800D01*
X105540400Y-116004800D02*
X105540400Y-117404800D01*
X105540400Y-117404800D02*
X107340400Y-117404800D01*
X110540400Y-108454800D02*
X111140400Y-108754800D01*
X111140400Y-108754800D02*
X111140400Y-108154800D01*
X111140400Y-108154800D02*
X110540400Y-108454800D01*
X107340400Y-104060400D02*
X104540400Y-104060400D01*
X104540400Y-104060400D02*
X104540400Y-94160400D01*
X104540400Y-94160400D02*
X105540400Y-94160400D01*
X105540400Y-94160400D02*
X105540400Y-92760400D01*
X105540400Y-92760400D02*
X107340400Y-92760400D01*
X107340400Y-104060400D02*
X110140400Y-104060400D01*
X110140400Y-104060400D02*
X110140400Y-94160400D01*
X110140400Y-94160400D02*
X109140400Y-94160400D01*
X109140400Y-94160400D02*
X109140400Y-92760400D01*
X109140400Y-92760400D02*
X107340400Y-92760400D01*
X104140400Y-101710400D02*
X103540400Y-101410400D01*
X103540400Y-101410400D02*
X103540400Y-102010400D01*
X103540400Y-102010400D02*
X104140400Y-101710400D01*
X168939400Y-97588576D02*
X168939400Y-94788576D01*
X168939400Y-94788576D02*
X178839400Y-94788576D01*
X178839400Y-94788576D02*
X178839400Y-95788576D01*
X178839400Y-95788576D02*
X180239400Y-95788576D01*
X180239400Y-95788576D02*
X180239400Y-97588576D01*
X168939400Y-97588576D02*
X168939400Y-100388576D01*
X168939400Y-100388576D02*
X178839400Y-100388576D01*
X178839400Y-100388576D02*
X178839400Y-99388576D01*
X178839400Y-99388576D02*
X180239400Y-99388576D01*
X180239400Y-99388576D02*
X180239400Y-97588576D01*
X171289400Y-94388576D02*
X171589400Y-93788576D01*
X171589400Y-93788576D02*
X170989400Y-93788576D01*
X170989400Y-93788576D02*
X171289400Y-94388576D01*
X168939400Y-112574576D02*
X168939400Y-109774576D01*
X168939400Y-109774576D02*
X178839400Y-109774576D01*
X178839400Y-109774576D02*
X178839400Y-110774576D01*
X178839400Y-110774576D02*
X180239400Y-110774576D01*
X180239400Y-110774576D02*
X180239400Y-112574576D01*
X168939400Y-112574576D02*
X168939400Y-115374576D01*
X168939400Y-115374576D02*
X178839400Y-115374576D01*
X178839400Y-115374576D02*
X178839400Y-114374576D01*
X178839400Y-114374576D02*
X180239400Y-114374576D01*
X180239400Y-114374576D02*
X180239400Y-112574576D01*
X171289400Y-109374576D02*
X171589400Y-108774576D01*
X171589400Y-108774576D02*
X170989400Y-108774576D01*
X170989400Y-108774576D02*
X171289400Y-109374576D01*
X189518400Y-106104800D02*
X192318400Y-106104800D01*
X192318400Y-106104800D02*
X192318400Y-116004800D01*
X192318400Y-116004800D02*
X191318400Y-116004800D01*
X191318400Y-116004800D02*
X191318400Y-117404800D01*
X191318400Y-117404800D02*
X189518400Y-117404800D01*
X189518400Y-106104800D02*
X186718400Y-106104800D01*
X186718400Y-106104800D02*
X186718400Y-116004800D01*
X186718400Y-116004800D02*
X187718400Y-116004800D01*
X187718400Y-116004800D02*
X187718400Y-117404800D01*
X187718400Y-117404800D02*
X189518400Y-117404800D01*
X192718400Y-108454800D02*
X193318400Y-108754800D01*
X193318400Y-108754800D02*
X193318400Y-108154800D01*
X193318400Y-108154800D02*
X192718400Y-108454800D01*
X189518400Y-104060400D02*
X186718400Y-104060400D01*
X186718400Y-104060400D02*
X186718400Y-94160400D01*
X186718400Y-94160400D02*
X187718400Y-94160400D01*
X187718400Y-94160400D02*
X187718400Y-92760400D01*
X187718400Y-92760400D02*
X189518400Y-92760400D01*
X189518400Y-104060400D02*
X192318400Y-104060400D01*
X192318400Y-104060400D02*
X192318400Y-94160400D01*
X192318400Y-94160400D02*
X191318400Y-94160400D01*
X191318400Y-94160400D02*
X191318400Y-92760400D01*
X191318400Y-92760400D02*
X189518400Y-92760400D01*
X186318400Y-101710400D02*
X185718400Y-101410400D01*
X185718400Y-101410400D02*
X185718400Y-102010400D01*
X185718400Y-102010400D02*
X186318400Y-101710400D01*
X115021781Y-112241243D02*
X115736067Y-112241243D01*
X115878924Y-112193623D01*
X115974162Y-112098385D01*
X116021781Y-111955528D01*
X116021781Y-111860290D01*
X116021781Y-113241243D02*
X116021781Y-112669814D01*
X116021781Y-112955528D02*
X115021781Y-112955528D01*
X115164638Y-112860290D01*
X115259876Y-112765052D01*
X115307495Y-112669814D01*
X115021781Y-97255243D02*
X115736067Y-97255243D01*
X115878924Y-97207623D01*
X115974162Y-97112385D01*
X116021781Y-96969528D01*
X116021781Y-96874290D01*
X115117019Y-97683814D02*
X115069400Y-97731433D01*
X115021781Y-97826671D01*
X115021781Y-98064767D01*
X115069400Y-98160005D01*
X115117019Y-98207624D01*
X115212257Y-98255243D01*
X115307495Y-98255243D01*
X115450352Y-98207624D01*
X116021781Y-97636195D01*
X116021781Y-98255243D01*
X107673733Y-117907181D02*
X107673733Y-118621467D01*
X107721353Y-118764324D01*
X107816591Y-118859562D01*
X107959448Y-118907181D01*
X108054686Y-118907181D01*
X107292781Y-117907181D02*
X106673733Y-117907181D01*
X107007067Y-118288133D01*
X106864209Y-118288133D01*
X106768971Y-118335752D01*
X106721352Y-118383371D01*
X106673733Y-118478610D01*
X106673733Y-118716705D01*
X106721352Y-118811943D01*
X106768971Y-118859562D01*
X106864209Y-118907181D01*
X107149924Y-118907181D01*
X107245162Y-118859562D01*
X107292781Y-118811943D01*
X107673733Y-91162781D02*
X107673733Y-91877067D01*
X107721353Y-92019924D01*
X107816591Y-92115162D01*
X107959448Y-92162781D01*
X108054686Y-92162781D01*
X106768971Y-91496114D02*
X106768971Y-92162781D01*
X107007067Y-91115162D02*
X107245162Y-91829448D01*
X106626114Y-91829448D01*
X180741781Y-97255243D02*
X181456067Y-97255243D01*
X181598924Y-97207623D01*
X181694162Y-97112385D01*
X181741781Y-96969528D01*
X181741781Y-96874290D01*
X180741781Y-98207624D02*
X180741781Y-97731433D01*
X181217971Y-97683814D01*
X181170352Y-97731433D01*
X181122733Y-97826671D01*
X181122733Y-98064767D01*
X181170352Y-98160005D01*
X181217971Y-98207624D01*
X181313210Y-98255243D01*
X181551305Y-98255243D01*
X181646543Y-98207624D01*
X181694162Y-98160005D01*
X181741781Y-98064767D01*
X181741781Y-97826671D01*
X181694162Y-97731433D01*
X181646543Y-97683814D01*
X180741781Y-112241243D02*
X181456067Y-112241243D01*
X181598924Y-112193623D01*
X181694162Y-112098385D01*
X181741781Y-111955528D01*
X181741781Y-111860290D01*
X180741781Y-113146005D02*
X180741781Y-112955528D01*
X180789400Y-112860290D01*
X180837019Y-112812671D01*
X180979876Y-112717433D01*
X181170352Y-112669814D01*
X181551305Y-112669814D01*
X181646543Y-112717433D01*
X181694162Y-112765052D01*
X181741781Y-112860290D01*
X181741781Y-113050767D01*
X181694162Y-113146005D01*
X181646543Y-113193624D01*
X181551305Y-113241243D01*
X181313210Y-113241243D01*
X181217971Y-113193624D01*
X181170352Y-113146005D01*
X181122733Y-113050767D01*
X181122733Y-112860290D01*
X181170352Y-112765052D01*
X181217971Y-112717433D01*
X181313210Y-112669814D01*
X189851733Y-117907181D02*
X189851733Y-118621467D01*
X189899353Y-118764324D01*
X189994591Y-118859562D01*
X190137448Y-118907181D01*
X190232686Y-118907181D01*
X189470781Y-117907181D02*
X188804114Y-117907181D01*
X189232686Y-118907181D01*
X189851733Y-91162781D02*
X189851733Y-91877067D01*
X189899353Y-92019924D01*
X189994591Y-92115162D01*
X190137448Y-92162781D01*
X190232686Y-92162781D01*
X189232686Y-91591352D02*
X189327924Y-91543733D01*
X189375543Y-91496114D01*
X189423162Y-91400876D01*
X189423162Y-91353257D01*
X189375543Y-91258019D01*
X189327924Y-91210400D01*
X189232686Y-91162781D01*
X189042209Y-91162781D01*
X188946971Y-91210400D01*
X188899352Y-91258019D01*
X188851733Y-91353257D01*
X188851733Y-91400876D01*
X188899352Y-91496114D01*
X188946971Y-91543733D01*
X189042209Y-91591352D01*
X189232686Y-91591352D01*
X189327924Y-91638971D01*
X189375543Y-91686590D01*
X189423162Y-91781829D01*
X189423162Y-91972305D01*
X189375543Y-92067543D01*
X189327924Y-92115162D01*
X189232686Y-92162781D01*
X189042209Y-92162781D01*
X188946971Y-92115162D01*
X188899352Y-92067543D01*
X188851733Y-91972305D01*
X188851733Y-91781829D01*
X188899352Y-91686590D01*
X188946971Y-91638971D01*
X189042209Y-91591352D01*
M02*
