M48
;DRILL file {KiCad 4.0.6} date Fri Jul 14 09:31:41 2017
;FORMAT={-:-/ absolute / inch / decimal}
FMAT,2
INCH,TZ
T1C0.055
T2C0.126
%
G90
G05
M72
T1
X4.226Y-3.839
X4.226Y-4.0043
X4.226Y-4.2699
X4.226Y-4.4352
X4.7783Y-3.8421
X4.7783Y-4.4321
X4.9437Y-3.8421
X4.9437Y-4.4321
X6.7437Y-3.8421
X6.7437Y-4.4321
X6.909Y-3.8421
X6.909Y-4.4321
X7.4614Y-3.839
X7.4614Y-4.0043
X7.4614Y-4.2699
X7.4614Y-4.4352
T2
X4.8819Y-2.9529
X4.8819Y-5.3151
X6.8111Y-2.9529
X6.8111Y-5.3151
T0
M30
