G04 #@! TF.FileFunction,Copper,L4,Bot,Signal*
%FSLAX46Y46*%
G04 Gerber Fmt 4.6, Leading zero omitted, Abs format (unit mm)*
G04 Created by KiCad (PCBNEW 4.0.6) date Fri Jul 14 09:31:39 2017*
%MOMM*%
%LPD*%
G01*
G04 APERTURE LIST*
%ADD10C,0.100000*%
%ADD11C,6.400000*%
%ADD12R,2.800000X2.800000*%
%ADD13C,2.800000*%
%ADD14C,0.254000*%
G04 APERTURE END LIST*
D10*
D11*
X124001100Y-135003600D03*
X124001100Y-75003600D03*
X173001100Y-75003600D03*
X173001100Y-135003600D03*
D12*
X125569400Y-112574576D03*
D13*
X121369400Y-112574576D03*
D12*
X125569400Y-97588576D03*
D13*
X121369400Y-97588576D03*
D12*
X107340400Y-108454800D03*
D13*
X107340400Y-112654800D03*
D12*
X107340400Y-101710400D03*
D13*
X107340400Y-97510400D03*
D12*
X171289400Y-97588576D03*
D13*
X175489400Y-97588576D03*
D12*
X171289400Y-112574576D03*
D13*
X175489400Y-112574576D03*
D12*
X189518400Y-108454800D03*
D13*
X189518400Y-112654800D03*
D12*
X189518400Y-101710400D03*
D13*
X189518400Y-97510400D03*
D14*
G36*
X162307447Y-59540121D02*
X172725074Y-63269027D01*
X182232615Y-68957914D01*
X186357926Y-72322435D01*
X186686925Y-72681545D01*
X186932279Y-73085171D01*
X187094561Y-73528760D01*
X187167593Y-73995433D01*
X187148591Y-74467396D01*
X187038280Y-74926677D01*
X186840858Y-75355791D01*
X186551617Y-75755282D01*
X186470136Y-75842696D01*
X186464563Y-75849988D01*
X186457877Y-75856273D01*
X186452616Y-75862374D01*
X185656342Y-76798936D01*
X185630806Y-76835716D01*
X185603820Y-76871433D01*
X185599662Y-76878334D01*
X184743434Y-78321935D01*
X184721278Y-78369290D01*
X184698450Y-78416358D01*
X184695712Y-78423935D01*
X184136187Y-80006352D01*
X184123650Y-80057113D01*
X184110401Y-80107714D01*
X184109186Y-80115678D01*
X183867677Y-81776637D01*
X183865239Y-81828856D01*
X183862070Y-81881077D01*
X183862426Y-81889126D01*
X183948132Y-83565362D01*
X183955886Y-83617081D01*
X183962917Y-83668901D01*
X183964829Y-83676727D01*
X184374485Y-85304393D01*
X184392135Y-85353613D01*
X184409100Y-85403090D01*
X184412496Y-85410395D01*
X185130498Y-86927492D01*
X185157379Y-86972359D01*
X185183624Y-87017585D01*
X185188374Y-87024092D01*
X186187375Y-88372836D01*
X186222441Y-88411607D01*
X186256988Y-88450895D01*
X186262912Y-88456355D01*
X187504860Y-89585372D01*
X187546790Y-89616595D01*
X187588309Y-89648423D01*
X187595180Y-89652628D01*
X189032769Y-90518914D01*
X189079994Y-90541412D01*
X189126875Y-90564555D01*
X189134432Y-90567347D01*
X190712905Y-91137906D01*
X190712914Y-91137908D01*
X191210332Y-91317706D01*
X191614898Y-91561496D01*
X191964409Y-91879227D01*
X192245553Y-92258797D01*
X192447614Y-92685740D01*
X192564558Y-93150387D01*
X192592420Y-93524135D01*
X192592420Y-116572379D01*
X192543560Y-117070686D01*
X192407038Y-117522874D01*
X192185283Y-117939934D01*
X191886746Y-118305976D01*
X191522796Y-118607062D01*
X191101969Y-118834601D01*
X190712377Y-118964146D01*
X190712371Y-118964149D01*
X189473794Y-119374679D01*
X189431711Y-119393361D01*
X189388986Y-119410528D01*
X189381866Y-119414297D01*
X187903919Y-120209776D01*
X187860514Y-120238932D01*
X187816693Y-120267488D01*
X187810440Y-120272568D01*
X186515150Y-121339965D01*
X186478238Y-121376995D01*
X186440795Y-121413521D01*
X186435648Y-121419719D01*
X185372352Y-122718378D01*
X185343352Y-122761848D01*
X185313700Y-122804975D01*
X185309855Y-122812055D01*
X184519054Y-124292508D01*
X184499028Y-124340833D01*
X184478339Y-124388849D01*
X184475942Y-124396541D01*
X183987756Y-126002401D01*
X183977509Y-126053641D01*
X183966529Y-126104815D01*
X183965672Y-126112825D01*
X183798697Y-127782924D01*
X183798597Y-127835234D01*
X183797767Y-127887510D01*
X183798482Y-127895534D01*
X183959077Y-129566260D01*
X183969141Y-129617600D01*
X183978479Y-129669035D01*
X183980739Y-129676767D01*
X184462789Y-131284482D01*
X184482629Y-131332880D01*
X184501784Y-131381530D01*
X184505503Y-131388677D01*
X185290644Y-132872140D01*
X185319478Y-132915719D01*
X185347746Y-132959768D01*
X185352777Y-132966048D01*
X185352782Y-132966055D01*
X185352788Y-132966061D01*
X186411098Y-134268749D01*
X186411111Y-134268765D01*
X186744622Y-134679289D01*
X186965578Y-135096768D01*
X187101238Y-135549215D01*
X187146433Y-136019394D01*
X187099442Y-136489401D01*
X186962057Y-136941324D01*
X186739507Y-137357956D01*
X186427763Y-137738707D01*
X186351568Y-137810724D01*
X177393105Y-144338741D01*
X167355203Y-148994084D01*
X156596877Y-151612854D01*
X148508642Y-152174686D01*
X137485181Y-151119785D01*
X126885116Y-147946402D01*
X117096609Y-142771018D01*
X110671731Y-137827919D01*
X110346147Y-137475325D01*
X110099211Y-137072667D01*
X109935188Y-136629712D01*
X109860327Y-136163339D01*
X109877477Y-135691299D01*
X109965830Y-135316976D01*
X120269201Y-135316976D01*
X120401143Y-136035871D01*
X120670206Y-136715447D01*
X121066142Y-137329819D01*
X121573870Y-137855586D01*
X122174049Y-138272722D01*
X122843821Y-138565338D01*
X123557673Y-138722289D01*
X124288415Y-138737595D01*
X125008214Y-138610676D01*
X125689651Y-138346363D01*
X126306773Y-137954726D01*
X126836071Y-137450682D01*
X127257387Y-136853429D01*
X127554672Y-136185716D01*
X127716602Y-135472977D01*
X127718780Y-135316976D01*
X169269201Y-135316976D01*
X169401143Y-136035871D01*
X169670206Y-136715447D01*
X170066142Y-137329819D01*
X170573870Y-137855586D01*
X171174049Y-138272722D01*
X171843821Y-138565338D01*
X172557673Y-138722289D01*
X173288415Y-138737595D01*
X174008214Y-138610676D01*
X174689651Y-138346363D01*
X175306773Y-137954726D01*
X175836071Y-137450682D01*
X176257387Y-136853429D01*
X176554672Y-136185716D01*
X176716602Y-135472977D01*
X176728259Y-134638149D01*
X176586293Y-133921166D01*
X176307768Y-133245414D01*
X175903293Y-132636629D01*
X175388274Y-132118002D01*
X174782328Y-131709287D01*
X174108536Y-131426051D01*
X173392563Y-131279083D01*
X172661678Y-131273980D01*
X171943722Y-131410938D01*
X171266041Y-131684738D01*
X170654448Y-132084954D01*
X170132238Y-132596339D01*
X169719303Y-133199417D01*
X169431369Y-133871215D01*
X169279406Y-134586145D01*
X169269201Y-135316976D01*
X127718780Y-135316976D01*
X127728259Y-134638149D01*
X127586293Y-133921166D01*
X127307768Y-133245414D01*
X126903293Y-132636629D01*
X126388274Y-132118002D01*
X125782328Y-131709287D01*
X125108536Y-131426051D01*
X124392563Y-131279083D01*
X123661678Y-131273980D01*
X122943722Y-131410938D01*
X122266041Y-131684738D01*
X121654448Y-132084954D01*
X121132238Y-132596339D01*
X120719303Y-133199417D01*
X120431369Y-133871215D01*
X120279406Y-134586145D01*
X120269201Y-135316976D01*
X109965830Y-135316976D01*
X109985985Y-135231586D01*
X110181721Y-134801702D01*
X110468740Y-134401990D01*
X110565340Y-134298346D01*
X110571008Y-134290929D01*
X110577805Y-134284532D01*
X110583063Y-134278428D01*
X111428039Y-133283401D01*
X111454265Y-133245579D01*
X111481849Y-133208687D01*
X111485972Y-133201766D01*
X112334940Y-131753883D01*
X112356851Y-131706430D01*
X112379449Y-131659235D01*
X112382149Y-131651645D01*
X112933719Y-130066437D01*
X112946000Y-130015615D01*
X112958996Y-129964947D01*
X112960170Y-129956977D01*
X113193335Y-128294827D01*
X113195511Y-128242581D01*
X113198418Y-128190359D01*
X113198022Y-128182312D01*
X113103898Y-126506528D01*
X113095885Y-126454859D01*
X113088593Y-126403064D01*
X113086642Y-126395247D01*
X112668817Y-124769659D01*
X112650905Y-124720488D01*
X112633706Y-124671138D01*
X112630274Y-124663850D01*
X111904660Y-123150377D01*
X111877556Y-123105649D01*
X111851083Y-123060553D01*
X111846300Y-123054070D01*
X110840538Y-121710360D01*
X110805280Y-121671768D01*
X110770533Y-121632651D01*
X110764583Y-121627221D01*
X109516981Y-120504456D01*
X109474879Y-120473432D01*
X109433216Y-120441825D01*
X109426324Y-120437654D01*
X107984402Y-119578599D01*
X107937091Y-119556351D01*
X107890068Y-119533431D01*
X107882497Y-119530678D01*
X106301179Y-118968054D01*
X105802860Y-118790755D01*
X105397067Y-118548995D01*
X105045964Y-118233024D01*
X104762923Y-117854877D01*
X104558718Y-117428952D01*
X104439625Y-116965606D01*
X104409780Y-116578390D01*
X104409780Y-112816827D01*
X105410867Y-112816827D01*
X105479086Y-113188523D01*
X105618202Y-113539890D01*
X105822916Y-113857543D01*
X106085430Y-114129385D01*
X106395746Y-114345060D01*
X106742043Y-114496354D01*
X107111132Y-114577503D01*
X107488953Y-114585417D01*
X107861116Y-114519795D01*
X108213445Y-114383135D01*
X108532520Y-114180644D01*
X108806188Y-113920034D01*
X109024024Y-113611231D01*
X109177731Y-113265999D01*
X109261456Y-112897486D01*
X109263702Y-112736603D01*
X119439867Y-112736603D01*
X119508086Y-113108299D01*
X119647202Y-113459666D01*
X119851916Y-113777319D01*
X120114430Y-114049161D01*
X120424746Y-114264836D01*
X120771043Y-114416130D01*
X121140132Y-114497279D01*
X121517953Y-114505193D01*
X121890116Y-114439571D01*
X122242445Y-114302911D01*
X122561520Y-114100420D01*
X122835188Y-113839810D01*
X123053024Y-113531007D01*
X123206731Y-113185775D01*
X123280671Y-112860326D01*
X123534400Y-112860326D01*
X123534400Y-114037118D01*
X123558803Y-114159799D01*
X123606670Y-114275361D01*
X123676163Y-114379365D01*
X123764611Y-114467813D01*
X123868615Y-114537306D01*
X123984177Y-114585173D01*
X124106858Y-114609576D01*
X125283650Y-114609576D01*
X125442400Y-114450826D01*
X125442400Y-112701576D01*
X125696400Y-112701576D01*
X125696400Y-114450826D01*
X125855150Y-114609576D01*
X127031942Y-114609576D01*
X127154623Y-114585173D01*
X127270185Y-114537306D01*
X127374189Y-114467813D01*
X127462637Y-114379365D01*
X127532130Y-114275361D01*
X127579997Y-114159799D01*
X127604400Y-114037118D01*
X127604400Y-112860326D01*
X127445650Y-112701576D01*
X125696400Y-112701576D01*
X125442400Y-112701576D01*
X123693150Y-112701576D01*
X123534400Y-112860326D01*
X123280671Y-112860326D01*
X123290456Y-112817262D01*
X123296483Y-112385624D01*
X123223081Y-112014917D01*
X123079073Y-111665527D01*
X122869944Y-111350762D01*
X122632876Y-111112034D01*
X123534400Y-111112034D01*
X123534400Y-112288826D01*
X123693150Y-112447576D01*
X125442400Y-112447576D01*
X125442400Y-110698326D01*
X125696400Y-110698326D01*
X125696400Y-112447576D01*
X127445650Y-112447576D01*
X127604400Y-112288826D01*
X127604400Y-111112034D01*
X127579997Y-110989353D01*
X127532130Y-110873791D01*
X127462637Y-110769787D01*
X127374189Y-110681339D01*
X127270185Y-110611846D01*
X127154623Y-110563979D01*
X127031942Y-110539576D01*
X125855150Y-110539576D01*
X125696400Y-110698326D01*
X125442400Y-110698326D01*
X125283650Y-110539576D01*
X124106858Y-110539576D01*
X123984177Y-110563979D01*
X123868615Y-110611846D01*
X123764611Y-110681339D01*
X123676163Y-110769787D01*
X123606670Y-110873791D01*
X123558803Y-110989353D01*
X123534400Y-111112034D01*
X122632876Y-111112034D01*
X122603659Y-111082613D01*
X122290363Y-110871291D01*
X121941987Y-110724848D01*
X121571801Y-110648859D01*
X121193906Y-110646221D01*
X120822695Y-110717033D01*
X120472309Y-110858599D01*
X120156092Y-111065525D01*
X119886090Y-111329931D01*
X119672586Y-111641745D01*
X119523714Y-111989090D01*
X119445143Y-112358736D01*
X119439867Y-112736603D01*
X109263702Y-112736603D01*
X109267483Y-112465848D01*
X109194081Y-112095141D01*
X109050073Y-111745751D01*
X108840944Y-111430986D01*
X108574659Y-111162837D01*
X108261363Y-110951515D01*
X107912987Y-110805072D01*
X107542801Y-110729083D01*
X107164906Y-110726445D01*
X106793695Y-110797257D01*
X106443309Y-110938823D01*
X106127092Y-111145749D01*
X105857090Y-111410155D01*
X105643586Y-111721969D01*
X105494714Y-112069314D01*
X105416143Y-112438960D01*
X105410867Y-112816827D01*
X104409780Y-112816827D01*
X104409780Y-108740550D01*
X105305400Y-108740550D01*
X105305400Y-109917342D01*
X105329803Y-110040023D01*
X105377670Y-110155585D01*
X105447163Y-110259589D01*
X105535611Y-110348037D01*
X105639615Y-110417530D01*
X105755177Y-110465397D01*
X105877858Y-110489800D01*
X107054650Y-110489800D01*
X107213400Y-110331050D01*
X107213400Y-108581800D01*
X107467400Y-108581800D01*
X107467400Y-110331050D01*
X107626150Y-110489800D01*
X108802942Y-110489800D01*
X108925623Y-110465397D01*
X109041185Y-110417530D01*
X109145189Y-110348037D01*
X109233637Y-110259589D01*
X109303130Y-110155585D01*
X109350997Y-110040023D01*
X109375400Y-109917342D01*
X109375400Y-108740550D01*
X109216650Y-108581800D01*
X107467400Y-108581800D01*
X107213400Y-108581800D01*
X105464150Y-108581800D01*
X105305400Y-108740550D01*
X104409780Y-108740550D01*
X104409780Y-106992258D01*
X105305400Y-106992258D01*
X105305400Y-108169050D01*
X105464150Y-108327800D01*
X107213400Y-108327800D01*
X107213400Y-106578550D01*
X107467400Y-106578550D01*
X107467400Y-108327800D01*
X109216650Y-108327800D01*
X109375400Y-108169050D01*
X109375400Y-106992258D01*
X109350997Y-106869577D01*
X109303130Y-106754015D01*
X109233637Y-106650011D01*
X109145189Y-106561563D01*
X109041185Y-106492070D01*
X108925623Y-106444203D01*
X108802942Y-106419800D01*
X107626150Y-106419800D01*
X107467400Y-106578550D01*
X107213400Y-106578550D01*
X107054650Y-106419800D01*
X105877858Y-106419800D01*
X105755177Y-106444203D01*
X105639615Y-106492070D01*
X105535611Y-106561563D01*
X105447163Y-106650011D01*
X105377670Y-106754015D01*
X105329803Y-106869577D01*
X105305400Y-106992258D01*
X104409780Y-106992258D01*
X104409780Y-105228070D01*
X132425667Y-105228070D01*
X132775421Y-108346196D01*
X133724161Y-111337004D01*
X135235750Y-114086575D01*
X137252612Y-116490177D01*
X139697926Y-118456260D01*
X142478550Y-119909935D01*
X145488571Y-120795832D01*
X148613338Y-121080208D01*
X151733830Y-120752231D01*
X154731188Y-119824394D01*
X157491244Y-118332037D01*
X159908869Y-116332004D01*
X161891975Y-113900476D01*
X162445032Y-112860326D01*
X169254400Y-112860326D01*
X169254400Y-114037118D01*
X169278803Y-114159799D01*
X169326670Y-114275361D01*
X169396163Y-114379365D01*
X169484611Y-114467813D01*
X169588615Y-114537306D01*
X169704177Y-114585173D01*
X169826858Y-114609576D01*
X171003650Y-114609576D01*
X171162400Y-114450826D01*
X171162400Y-112701576D01*
X171416400Y-112701576D01*
X171416400Y-114450826D01*
X171575150Y-114609576D01*
X172751942Y-114609576D01*
X172874623Y-114585173D01*
X172990185Y-114537306D01*
X173094189Y-114467813D01*
X173182637Y-114379365D01*
X173252130Y-114275361D01*
X173299997Y-114159799D01*
X173324400Y-114037118D01*
X173324400Y-112860326D01*
X173200677Y-112736603D01*
X173559867Y-112736603D01*
X173628086Y-113108299D01*
X173767202Y-113459666D01*
X173971916Y-113777319D01*
X174234430Y-114049161D01*
X174544746Y-114264836D01*
X174891043Y-114416130D01*
X175260132Y-114497279D01*
X175637953Y-114505193D01*
X176010116Y-114439571D01*
X176362445Y-114302911D01*
X176681520Y-114100420D01*
X176955188Y-113839810D01*
X177173024Y-113531007D01*
X177326731Y-113185775D01*
X177410456Y-112817262D01*
X177410462Y-112816827D01*
X187588867Y-112816827D01*
X187657086Y-113188523D01*
X187796202Y-113539890D01*
X188000916Y-113857543D01*
X188263430Y-114129385D01*
X188573746Y-114345060D01*
X188920043Y-114496354D01*
X189289132Y-114577503D01*
X189666953Y-114585417D01*
X190039116Y-114519795D01*
X190391445Y-114383135D01*
X190710520Y-114180644D01*
X190984188Y-113920034D01*
X191202024Y-113611231D01*
X191355731Y-113265999D01*
X191439456Y-112897486D01*
X191445483Y-112465848D01*
X191372081Y-112095141D01*
X191228073Y-111745751D01*
X191018944Y-111430986D01*
X190752659Y-111162837D01*
X190439363Y-110951515D01*
X190090987Y-110805072D01*
X189720801Y-110729083D01*
X189342906Y-110726445D01*
X188971695Y-110797257D01*
X188621309Y-110938823D01*
X188305092Y-111145749D01*
X188035090Y-111410155D01*
X187821586Y-111721969D01*
X187672714Y-112069314D01*
X187594143Y-112438960D01*
X187588867Y-112816827D01*
X177410462Y-112816827D01*
X177416483Y-112385624D01*
X177343081Y-112014917D01*
X177199073Y-111665527D01*
X176989944Y-111350762D01*
X176723659Y-111082613D01*
X176410363Y-110871291D01*
X176061987Y-110724848D01*
X175691801Y-110648859D01*
X175313906Y-110646221D01*
X174942695Y-110717033D01*
X174592309Y-110858599D01*
X174276092Y-111065525D01*
X174006090Y-111329931D01*
X173792586Y-111641745D01*
X173643714Y-111989090D01*
X173565143Y-112358736D01*
X173559867Y-112736603D01*
X173200677Y-112736603D01*
X173165650Y-112701576D01*
X171416400Y-112701576D01*
X171162400Y-112701576D01*
X169413150Y-112701576D01*
X169254400Y-112860326D01*
X162445032Y-112860326D01*
X163365027Y-111130068D01*
X163370471Y-111112034D01*
X169254400Y-111112034D01*
X169254400Y-112288826D01*
X169413150Y-112447576D01*
X171162400Y-112447576D01*
X171162400Y-110698326D01*
X171416400Y-110698326D01*
X171416400Y-112447576D01*
X173165650Y-112447576D01*
X173324400Y-112288826D01*
X173324400Y-111112034D01*
X173299997Y-110989353D01*
X173252130Y-110873791D01*
X173182637Y-110769787D01*
X173094189Y-110681339D01*
X172990185Y-110611846D01*
X172874623Y-110563979D01*
X172751942Y-110539576D01*
X171575150Y-110539576D01*
X171416400Y-110698326D01*
X171162400Y-110698326D01*
X171003650Y-110539576D01*
X169826858Y-110539576D01*
X169704177Y-110563979D01*
X169588615Y-110611846D01*
X169484611Y-110681339D01*
X169396163Y-110769787D01*
X169326670Y-110873791D01*
X169278803Y-110989353D01*
X169254400Y-111112034D01*
X163370471Y-111112034D01*
X164086464Y-108740550D01*
X187483400Y-108740550D01*
X187483400Y-109917342D01*
X187507803Y-110040023D01*
X187555670Y-110155585D01*
X187625163Y-110259589D01*
X187713611Y-110348037D01*
X187817615Y-110417530D01*
X187933177Y-110465397D01*
X188055858Y-110489800D01*
X189232650Y-110489800D01*
X189391400Y-110331050D01*
X189391400Y-108581800D01*
X189645400Y-108581800D01*
X189645400Y-110331050D01*
X189804150Y-110489800D01*
X190980942Y-110489800D01*
X191103623Y-110465397D01*
X191219185Y-110417530D01*
X191323189Y-110348037D01*
X191411637Y-110259589D01*
X191481130Y-110155585D01*
X191528997Y-110040023D01*
X191553400Y-109917342D01*
X191553400Y-108740550D01*
X191394650Y-108581800D01*
X189645400Y-108581800D01*
X189391400Y-108581800D01*
X187642150Y-108581800D01*
X187483400Y-108740550D01*
X164086464Y-108740550D01*
X164271916Y-108126306D01*
X164383110Y-106992258D01*
X187483400Y-106992258D01*
X187483400Y-108169050D01*
X187642150Y-108327800D01*
X189391400Y-108327800D01*
X189391400Y-106578550D01*
X189645400Y-106578550D01*
X189645400Y-108327800D01*
X191394650Y-108327800D01*
X191553400Y-108169050D01*
X191553400Y-106992258D01*
X191528997Y-106869577D01*
X191481130Y-106754015D01*
X191411637Y-106650011D01*
X191323189Y-106561563D01*
X191219185Y-106492070D01*
X191103623Y-106444203D01*
X190980942Y-106419800D01*
X189804150Y-106419800D01*
X189645400Y-106578550D01*
X189391400Y-106578550D01*
X189232650Y-106419800D01*
X188055858Y-106419800D01*
X187933177Y-106444203D01*
X187817615Y-106492070D01*
X187713611Y-106561563D01*
X187625163Y-106650011D01*
X187555670Y-106754015D01*
X187507803Y-106869577D01*
X187483400Y-106992258D01*
X164383110Y-106992258D01*
X164578100Y-105003600D01*
X164571832Y-104554704D01*
X164248612Y-101996150D01*
X187483400Y-101996150D01*
X187483400Y-103172942D01*
X187507803Y-103295623D01*
X187555670Y-103411185D01*
X187625163Y-103515189D01*
X187713611Y-103603637D01*
X187817615Y-103673130D01*
X187933177Y-103720997D01*
X188055858Y-103745400D01*
X189232650Y-103745400D01*
X189391400Y-103586650D01*
X189391400Y-101837400D01*
X189645400Y-101837400D01*
X189645400Y-103586650D01*
X189804150Y-103745400D01*
X190980942Y-103745400D01*
X191103623Y-103720997D01*
X191219185Y-103673130D01*
X191323189Y-103603637D01*
X191411637Y-103515189D01*
X191481130Y-103411185D01*
X191528997Y-103295623D01*
X191553400Y-103172942D01*
X191553400Y-101996150D01*
X191394650Y-101837400D01*
X189645400Y-101837400D01*
X189391400Y-101837400D01*
X187642150Y-101837400D01*
X187483400Y-101996150D01*
X164248612Y-101996150D01*
X164178576Y-101441765D01*
X163781416Y-100247858D01*
X187483400Y-100247858D01*
X187483400Y-101424650D01*
X187642150Y-101583400D01*
X189391400Y-101583400D01*
X189391400Y-99834150D01*
X189645400Y-99834150D01*
X189645400Y-101583400D01*
X191394650Y-101583400D01*
X191553400Y-101424650D01*
X191553400Y-100247858D01*
X191528997Y-100125177D01*
X191481130Y-100009615D01*
X191411637Y-99905611D01*
X191323189Y-99817163D01*
X191219185Y-99747670D01*
X191103623Y-99699803D01*
X190980942Y-99675400D01*
X189804150Y-99675400D01*
X189645400Y-99834150D01*
X189391400Y-99834150D01*
X189232650Y-99675400D01*
X188055858Y-99675400D01*
X187933177Y-99699803D01*
X187817615Y-99747670D01*
X187713611Y-99817163D01*
X187625163Y-99905611D01*
X187555670Y-100009615D01*
X187507803Y-100125177D01*
X187483400Y-100247858D01*
X163781416Y-100247858D01*
X163188170Y-98464495D01*
X162852908Y-97874326D01*
X169254400Y-97874326D01*
X169254400Y-99051118D01*
X169278803Y-99173799D01*
X169326670Y-99289361D01*
X169396163Y-99393365D01*
X169484611Y-99481813D01*
X169588615Y-99551306D01*
X169704177Y-99599173D01*
X169826858Y-99623576D01*
X171003650Y-99623576D01*
X171162400Y-99464826D01*
X171162400Y-97715576D01*
X171416400Y-97715576D01*
X171416400Y-99464826D01*
X171575150Y-99623576D01*
X172751942Y-99623576D01*
X172874623Y-99599173D01*
X172990185Y-99551306D01*
X173094189Y-99481813D01*
X173182637Y-99393365D01*
X173252130Y-99289361D01*
X173299997Y-99173799D01*
X173324400Y-99051118D01*
X173324400Y-97874326D01*
X173200677Y-97750603D01*
X173559867Y-97750603D01*
X173628086Y-98122299D01*
X173767202Y-98473666D01*
X173971916Y-98791319D01*
X174234430Y-99063161D01*
X174544746Y-99278836D01*
X174891043Y-99430130D01*
X175260132Y-99511279D01*
X175637953Y-99519193D01*
X176010116Y-99453571D01*
X176362445Y-99316911D01*
X176681520Y-99114420D01*
X176955188Y-98853810D01*
X177173024Y-98545007D01*
X177326731Y-98199775D01*
X177410456Y-97831262D01*
X177412673Y-97672427D01*
X187588867Y-97672427D01*
X187657086Y-98044123D01*
X187796202Y-98395490D01*
X188000916Y-98713143D01*
X188263430Y-98984985D01*
X188573746Y-99200660D01*
X188920043Y-99351954D01*
X189289132Y-99433103D01*
X189666953Y-99441017D01*
X190039116Y-99375395D01*
X190391445Y-99238735D01*
X190710520Y-99036244D01*
X190984188Y-98775634D01*
X191202024Y-98466831D01*
X191355731Y-98121599D01*
X191439456Y-97753086D01*
X191445483Y-97321448D01*
X191372081Y-96950741D01*
X191228073Y-96601351D01*
X191018944Y-96286586D01*
X190752659Y-96018437D01*
X190439363Y-95807115D01*
X190090987Y-95660672D01*
X189720801Y-95584683D01*
X189342906Y-95582045D01*
X188971695Y-95652857D01*
X188621309Y-95794423D01*
X188305092Y-96001349D01*
X188035090Y-96265755D01*
X187821586Y-96577569D01*
X187672714Y-96924914D01*
X187594143Y-97294560D01*
X187588867Y-97672427D01*
X177412673Y-97672427D01*
X177416483Y-97399624D01*
X177343081Y-97028917D01*
X177199073Y-96679527D01*
X176989944Y-96364762D01*
X176723659Y-96096613D01*
X176410363Y-95885291D01*
X176061987Y-95738848D01*
X175691801Y-95662859D01*
X175313906Y-95660221D01*
X174942695Y-95731033D01*
X174592309Y-95872599D01*
X174276092Y-96079525D01*
X174006090Y-96343931D01*
X173792586Y-96655745D01*
X173643714Y-97003090D01*
X173565143Y-97372736D01*
X173559867Y-97750603D01*
X173200677Y-97750603D01*
X173165650Y-97715576D01*
X171416400Y-97715576D01*
X171162400Y-97715576D01*
X169413150Y-97715576D01*
X169254400Y-97874326D01*
X162852908Y-97874326D01*
X161859740Y-96126034D01*
X169254400Y-96126034D01*
X169254400Y-97302826D01*
X169413150Y-97461576D01*
X171162400Y-97461576D01*
X171162400Y-95712326D01*
X171416400Y-95712326D01*
X171416400Y-97461576D01*
X173165650Y-97461576D01*
X173324400Y-97302826D01*
X173324400Y-96126034D01*
X173299997Y-96003353D01*
X173252130Y-95887791D01*
X173182637Y-95783787D01*
X173094189Y-95695339D01*
X172990185Y-95625846D01*
X172874623Y-95577979D01*
X172751942Y-95553576D01*
X171575150Y-95553576D01*
X171416400Y-95712326D01*
X171162400Y-95712326D01*
X171003650Y-95553576D01*
X169826858Y-95553576D01*
X169704177Y-95577979D01*
X169588615Y-95625846D01*
X169484611Y-95695339D01*
X169396163Y-95783787D01*
X169326670Y-95887791D01*
X169278803Y-96003353D01*
X169254400Y-96126034D01*
X161859740Y-96126034D01*
X161638339Y-95736298D01*
X159588113Y-93361089D01*
X157115587Y-91429340D01*
X154314938Y-90014630D01*
X151292842Y-89170846D01*
X148164409Y-88930126D01*
X145048800Y-89301640D01*
X142064689Y-90271236D01*
X139325738Y-91801984D01*
X136936274Y-93835577D01*
X134987311Y-96294557D01*
X133553083Y-99085262D01*
X132688221Y-102101394D01*
X132425667Y-105228070D01*
X104409780Y-105228070D01*
X104409780Y-101996150D01*
X105305400Y-101996150D01*
X105305400Y-103172942D01*
X105329803Y-103295623D01*
X105377670Y-103411185D01*
X105447163Y-103515189D01*
X105535611Y-103603637D01*
X105639615Y-103673130D01*
X105755177Y-103720997D01*
X105877858Y-103745400D01*
X107054650Y-103745400D01*
X107213400Y-103586650D01*
X107213400Y-101837400D01*
X107467400Y-101837400D01*
X107467400Y-103586650D01*
X107626150Y-103745400D01*
X108802942Y-103745400D01*
X108925623Y-103720997D01*
X109041185Y-103673130D01*
X109145189Y-103603637D01*
X109233637Y-103515189D01*
X109303130Y-103411185D01*
X109350997Y-103295623D01*
X109375400Y-103172942D01*
X109375400Y-101996150D01*
X109216650Y-101837400D01*
X107467400Y-101837400D01*
X107213400Y-101837400D01*
X105464150Y-101837400D01*
X105305400Y-101996150D01*
X104409780Y-101996150D01*
X104409780Y-100247858D01*
X105305400Y-100247858D01*
X105305400Y-101424650D01*
X105464150Y-101583400D01*
X107213400Y-101583400D01*
X107213400Y-99834150D01*
X107467400Y-99834150D01*
X107467400Y-101583400D01*
X109216650Y-101583400D01*
X109375400Y-101424650D01*
X109375400Y-100247858D01*
X109350997Y-100125177D01*
X109303130Y-100009615D01*
X109233637Y-99905611D01*
X109145189Y-99817163D01*
X109041185Y-99747670D01*
X108925623Y-99699803D01*
X108802942Y-99675400D01*
X107626150Y-99675400D01*
X107467400Y-99834150D01*
X107213400Y-99834150D01*
X107054650Y-99675400D01*
X105877858Y-99675400D01*
X105755177Y-99699803D01*
X105639615Y-99747670D01*
X105535611Y-99817163D01*
X105447163Y-99905611D01*
X105377670Y-100009615D01*
X105329803Y-100125177D01*
X105305400Y-100247858D01*
X104409780Y-100247858D01*
X104409780Y-97672427D01*
X105410867Y-97672427D01*
X105479086Y-98044123D01*
X105618202Y-98395490D01*
X105822916Y-98713143D01*
X106085430Y-98984985D01*
X106395746Y-99200660D01*
X106742043Y-99351954D01*
X107111132Y-99433103D01*
X107488953Y-99441017D01*
X107861116Y-99375395D01*
X108213445Y-99238735D01*
X108532520Y-99036244D01*
X108806188Y-98775634D01*
X109024024Y-98466831D01*
X109177731Y-98121599D01*
X109261456Y-97753086D01*
X109261490Y-97750603D01*
X119439867Y-97750603D01*
X119508086Y-98122299D01*
X119647202Y-98473666D01*
X119851916Y-98791319D01*
X120114430Y-99063161D01*
X120424746Y-99278836D01*
X120771043Y-99430130D01*
X121140132Y-99511279D01*
X121517953Y-99519193D01*
X121890116Y-99453571D01*
X122242445Y-99316911D01*
X122561520Y-99114420D01*
X122835188Y-98853810D01*
X123053024Y-98545007D01*
X123206731Y-98199775D01*
X123280671Y-97874326D01*
X123534400Y-97874326D01*
X123534400Y-99051118D01*
X123558803Y-99173799D01*
X123606670Y-99289361D01*
X123676163Y-99393365D01*
X123764611Y-99481813D01*
X123868615Y-99551306D01*
X123984177Y-99599173D01*
X124106858Y-99623576D01*
X125283650Y-99623576D01*
X125442400Y-99464826D01*
X125442400Y-97715576D01*
X125696400Y-97715576D01*
X125696400Y-99464826D01*
X125855150Y-99623576D01*
X127031942Y-99623576D01*
X127154623Y-99599173D01*
X127270185Y-99551306D01*
X127374189Y-99481813D01*
X127462637Y-99393365D01*
X127532130Y-99289361D01*
X127579997Y-99173799D01*
X127604400Y-99051118D01*
X127604400Y-97874326D01*
X127445650Y-97715576D01*
X125696400Y-97715576D01*
X125442400Y-97715576D01*
X123693150Y-97715576D01*
X123534400Y-97874326D01*
X123280671Y-97874326D01*
X123290456Y-97831262D01*
X123296483Y-97399624D01*
X123223081Y-97028917D01*
X123079073Y-96679527D01*
X122869944Y-96364762D01*
X122632876Y-96126034D01*
X123534400Y-96126034D01*
X123534400Y-97302826D01*
X123693150Y-97461576D01*
X125442400Y-97461576D01*
X125442400Y-95712326D01*
X125696400Y-95712326D01*
X125696400Y-97461576D01*
X127445650Y-97461576D01*
X127604400Y-97302826D01*
X127604400Y-96126034D01*
X127579997Y-96003353D01*
X127532130Y-95887791D01*
X127462637Y-95783787D01*
X127374189Y-95695339D01*
X127270185Y-95625846D01*
X127154623Y-95577979D01*
X127031942Y-95553576D01*
X125855150Y-95553576D01*
X125696400Y-95712326D01*
X125442400Y-95712326D01*
X125283650Y-95553576D01*
X124106858Y-95553576D01*
X123984177Y-95577979D01*
X123868615Y-95625846D01*
X123764611Y-95695339D01*
X123676163Y-95783787D01*
X123606670Y-95887791D01*
X123558803Y-96003353D01*
X123534400Y-96126034D01*
X122632876Y-96126034D01*
X122603659Y-96096613D01*
X122290363Y-95885291D01*
X121941987Y-95738848D01*
X121571801Y-95662859D01*
X121193906Y-95660221D01*
X120822695Y-95731033D01*
X120472309Y-95872599D01*
X120156092Y-96079525D01*
X119886090Y-96343931D01*
X119672586Y-96655745D01*
X119523714Y-97003090D01*
X119445143Y-97372736D01*
X119439867Y-97750603D01*
X109261490Y-97750603D01*
X109267483Y-97321448D01*
X109194081Y-96950741D01*
X109050073Y-96601351D01*
X108840944Y-96286586D01*
X108574659Y-96018437D01*
X108261363Y-95807115D01*
X107912987Y-95660672D01*
X107542801Y-95584683D01*
X107164906Y-95582045D01*
X106793695Y-95652857D01*
X106443309Y-95794423D01*
X106127092Y-96001349D01*
X105857090Y-96265755D01*
X105643586Y-96577569D01*
X105494714Y-96924914D01*
X105416143Y-97294560D01*
X105410867Y-97672427D01*
X104409780Y-97672427D01*
X104409780Y-93530890D01*
X104458640Y-93032569D01*
X104595163Y-92580385D01*
X104816916Y-92163329D01*
X105115454Y-91797285D01*
X105479404Y-91496198D01*
X105900872Y-91268312D01*
X106275875Y-91142571D01*
X107441663Y-90755409D01*
X107482558Y-90737226D01*
X107524179Y-90720688D01*
X107531314Y-90716946D01*
X109012312Y-89927162D01*
X109055827Y-89898174D01*
X109099759Y-89869786D01*
X109106031Y-89864730D01*
X110405420Y-88802326D01*
X110442451Y-88765462D01*
X110480058Y-88729057D01*
X110485228Y-88722879D01*
X111553516Y-87428323D01*
X111582709Y-87384928D01*
X111612500Y-87341952D01*
X111616372Y-87334888D01*
X112412867Y-85857488D01*
X112433064Y-85809276D01*
X112453952Y-85761305D01*
X112456379Y-85753623D01*
X112950743Y-84149653D01*
X112961195Y-84098417D01*
X112972363Y-84047323D01*
X112973251Y-84039316D01*
X113146654Y-82369871D01*
X113146955Y-82317588D01*
X113147987Y-82265289D01*
X113147303Y-82257262D01*
X112993140Y-80585931D01*
X112983279Y-80534578D01*
X112974134Y-80483082D01*
X112971904Y-80475341D01*
X112496047Y-78865784D01*
X112476411Y-78817355D01*
X112457426Y-78768585D01*
X112453734Y-78761424D01*
X111674308Y-77274949D01*
X111645612Y-77231214D01*
X111617544Y-77187104D01*
X111612532Y-77180796D01*
X110559226Y-75874021D01*
X110559220Y-75874015D01*
X110227297Y-75462218D01*
X110151141Y-75316976D01*
X120269201Y-75316976D01*
X120401143Y-76035871D01*
X120670206Y-76715447D01*
X121066142Y-77329819D01*
X121573870Y-77855586D01*
X122174049Y-78272722D01*
X122843821Y-78565338D01*
X123557673Y-78722289D01*
X124288415Y-78737595D01*
X125008214Y-78610676D01*
X125689651Y-78346363D01*
X126306773Y-77954726D01*
X126836071Y-77450682D01*
X127257387Y-76853429D01*
X127554672Y-76185716D01*
X127716602Y-75472977D01*
X127718780Y-75316976D01*
X169269201Y-75316976D01*
X169401143Y-76035871D01*
X169670206Y-76715447D01*
X170066142Y-77329819D01*
X170573870Y-77855586D01*
X171174049Y-78272722D01*
X171843821Y-78565338D01*
X172557673Y-78722289D01*
X173288415Y-78737595D01*
X174008214Y-78610676D01*
X174689651Y-78346363D01*
X175306773Y-77954726D01*
X175836071Y-77450682D01*
X176257387Y-76853429D01*
X176554672Y-76185716D01*
X176716602Y-75472977D01*
X176728259Y-74638149D01*
X176586293Y-73921166D01*
X176307768Y-73245414D01*
X175903293Y-72636629D01*
X175388274Y-72118002D01*
X174782328Y-71709287D01*
X174108536Y-71426051D01*
X173392563Y-71279083D01*
X172661678Y-71273980D01*
X171943722Y-71410938D01*
X171266041Y-71684738D01*
X170654448Y-72084954D01*
X170132238Y-72596339D01*
X169719303Y-73199417D01*
X169431369Y-73871215D01*
X169279406Y-74586145D01*
X169269201Y-75316976D01*
X127718780Y-75316976D01*
X127728259Y-74638149D01*
X127586293Y-73921166D01*
X127307768Y-73245414D01*
X126903293Y-72636629D01*
X126388274Y-72118002D01*
X125782328Y-71709287D01*
X125108536Y-71426051D01*
X124392563Y-71279083D01*
X123661678Y-71273980D01*
X122943722Y-71410938D01*
X122266041Y-71684738D01*
X121654448Y-72084954D01*
X121132238Y-72596339D01*
X120719303Y-73199417D01*
X120431369Y-73871215D01*
X120279406Y-74586145D01*
X120269201Y-75316976D01*
X110151141Y-75316976D01*
X110007950Y-75043891D01*
X109874033Y-74590924D01*
X109830647Y-74120572D01*
X109879446Y-73650759D01*
X110018573Y-73199360D01*
X110242724Y-72783588D01*
X110556643Y-72403180D01*
X110617538Y-72345617D01*
X119551221Y-65781835D01*
X129570782Y-61087140D01*
X140311386Y-58427998D01*
X151363943Y-57905693D01*
X162307447Y-59540121D01*
X162307447Y-59540121D01*
G37*
X162307447Y-59540121D02*
X172725074Y-63269027D01*
X182232615Y-68957914D01*
X186357926Y-72322435D01*
X186686925Y-72681545D01*
X186932279Y-73085171D01*
X187094561Y-73528760D01*
X187167593Y-73995433D01*
X187148591Y-74467396D01*
X187038280Y-74926677D01*
X186840858Y-75355791D01*
X186551617Y-75755282D01*
X186470136Y-75842696D01*
X186464563Y-75849988D01*
X186457877Y-75856273D01*
X186452616Y-75862374D01*
X185656342Y-76798936D01*
X185630806Y-76835716D01*
X185603820Y-76871433D01*
X185599662Y-76878334D01*
X184743434Y-78321935D01*
X184721278Y-78369290D01*
X184698450Y-78416358D01*
X184695712Y-78423935D01*
X184136187Y-80006352D01*
X184123650Y-80057113D01*
X184110401Y-80107714D01*
X184109186Y-80115678D01*
X183867677Y-81776637D01*
X183865239Y-81828856D01*
X183862070Y-81881077D01*
X183862426Y-81889126D01*
X183948132Y-83565362D01*
X183955886Y-83617081D01*
X183962917Y-83668901D01*
X183964829Y-83676727D01*
X184374485Y-85304393D01*
X184392135Y-85353613D01*
X184409100Y-85403090D01*
X184412496Y-85410395D01*
X185130498Y-86927492D01*
X185157379Y-86972359D01*
X185183624Y-87017585D01*
X185188374Y-87024092D01*
X186187375Y-88372836D01*
X186222441Y-88411607D01*
X186256988Y-88450895D01*
X186262912Y-88456355D01*
X187504860Y-89585372D01*
X187546790Y-89616595D01*
X187588309Y-89648423D01*
X187595180Y-89652628D01*
X189032769Y-90518914D01*
X189079994Y-90541412D01*
X189126875Y-90564555D01*
X189134432Y-90567347D01*
X190712905Y-91137906D01*
X190712914Y-91137908D01*
X191210332Y-91317706D01*
X191614898Y-91561496D01*
X191964409Y-91879227D01*
X192245553Y-92258797D01*
X192447614Y-92685740D01*
X192564558Y-93150387D01*
X192592420Y-93524135D01*
X192592420Y-116572379D01*
X192543560Y-117070686D01*
X192407038Y-117522874D01*
X192185283Y-117939934D01*
X191886746Y-118305976D01*
X191522796Y-118607062D01*
X191101969Y-118834601D01*
X190712377Y-118964146D01*
X190712371Y-118964149D01*
X189473794Y-119374679D01*
X189431711Y-119393361D01*
X189388986Y-119410528D01*
X189381866Y-119414297D01*
X187903919Y-120209776D01*
X187860514Y-120238932D01*
X187816693Y-120267488D01*
X187810440Y-120272568D01*
X186515150Y-121339965D01*
X186478238Y-121376995D01*
X186440795Y-121413521D01*
X186435648Y-121419719D01*
X185372352Y-122718378D01*
X185343352Y-122761848D01*
X185313700Y-122804975D01*
X185309855Y-122812055D01*
X184519054Y-124292508D01*
X184499028Y-124340833D01*
X184478339Y-124388849D01*
X184475942Y-124396541D01*
X183987756Y-126002401D01*
X183977509Y-126053641D01*
X183966529Y-126104815D01*
X183965672Y-126112825D01*
X183798697Y-127782924D01*
X183798597Y-127835234D01*
X183797767Y-127887510D01*
X183798482Y-127895534D01*
X183959077Y-129566260D01*
X183969141Y-129617600D01*
X183978479Y-129669035D01*
X183980739Y-129676767D01*
X184462789Y-131284482D01*
X184482629Y-131332880D01*
X184501784Y-131381530D01*
X184505503Y-131388677D01*
X185290644Y-132872140D01*
X185319478Y-132915719D01*
X185347746Y-132959768D01*
X185352777Y-132966048D01*
X185352782Y-132966055D01*
X185352788Y-132966061D01*
X186411098Y-134268749D01*
X186411111Y-134268765D01*
X186744622Y-134679289D01*
X186965578Y-135096768D01*
X187101238Y-135549215D01*
X187146433Y-136019394D01*
X187099442Y-136489401D01*
X186962057Y-136941324D01*
X186739507Y-137357956D01*
X186427763Y-137738707D01*
X186351568Y-137810724D01*
X177393105Y-144338741D01*
X167355203Y-148994084D01*
X156596877Y-151612854D01*
X148508642Y-152174686D01*
X137485181Y-151119785D01*
X126885116Y-147946402D01*
X117096609Y-142771018D01*
X110671731Y-137827919D01*
X110346147Y-137475325D01*
X110099211Y-137072667D01*
X109935188Y-136629712D01*
X109860327Y-136163339D01*
X109877477Y-135691299D01*
X109965830Y-135316976D01*
X120269201Y-135316976D01*
X120401143Y-136035871D01*
X120670206Y-136715447D01*
X121066142Y-137329819D01*
X121573870Y-137855586D01*
X122174049Y-138272722D01*
X122843821Y-138565338D01*
X123557673Y-138722289D01*
X124288415Y-138737595D01*
X125008214Y-138610676D01*
X125689651Y-138346363D01*
X126306773Y-137954726D01*
X126836071Y-137450682D01*
X127257387Y-136853429D01*
X127554672Y-136185716D01*
X127716602Y-135472977D01*
X127718780Y-135316976D01*
X169269201Y-135316976D01*
X169401143Y-136035871D01*
X169670206Y-136715447D01*
X170066142Y-137329819D01*
X170573870Y-137855586D01*
X171174049Y-138272722D01*
X171843821Y-138565338D01*
X172557673Y-138722289D01*
X173288415Y-138737595D01*
X174008214Y-138610676D01*
X174689651Y-138346363D01*
X175306773Y-137954726D01*
X175836071Y-137450682D01*
X176257387Y-136853429D01*
X176554672Y-136185716D01*
X176716602Y-135472977D01*
X176728259Y-134638149D01*
X176586293Y-133921166D01*
X176307768Y-133245414D01*
X175903293Y-132636629D01*
X175388274Y-132118002D01*
X174782328Y-131709287D01*
X174108536Y-131426051D01*
X173392563Y-131279083D01*
X172661678Y-131273980D01*
X171943722Y-131410938D01*
X171266041Y-131684738D01*
X170654448Y-132084954D01*
X170132238Y-132596339D01*
X169719303Y-133199417D01*
X169431369Y-133871215D01*
X169279406Y-134586145D01*
X169269201Y-135316976D01*
X127718780Y-135316976D01*
X127728259Y-134638149D01*
X127586293Y-133921166D01*
X127307768Y-133245414D01*
X126903293Y-132636629D01*
X126388274Y-132118002D01*
X125782328Y-131709287D01*
X125108536Y-131426051D01*
X124392563Y-131279083D01*
X123661678Y-131273980D01*
X122943722Y-131410938D01*
X122266041Y-131684738D01*
X121654448Y-132084954D01*
X121132238Y-132596339D01*
X120719303Y-133199417D01*
X120431369Y-133871215D01*
X120279406Y-134586145D01*
X120269201Y-135316976D01*
X109965830Y-135316976D01*
X109985985Y-135231586D01*
X110181721Y-134801702D01*
X110468740Y-134401990D01*
X110565340Y-134298346D01*
X110571008Y-134290929D01*
X110577805Y-134284532D01*
X110583063Y-134278428D01*
X111428039Y-133283401D01*
X111454265Y-133245579D01*
X111481849Y-133208687D01*
X111485972Y-133201766D01*
X112334940Y-131753883D01*
X112356851Y-131706430D01*
X112379449Y-131659235D01*
X112382149Y-131651645D01*
X112933719Y-130066437D01*
X112946000Y-130015615D01*
X112958996Y-129964947D01*
X112960170Y-129956977D01*
X113193335Y-128294827D01*
X113195511Y-128242581D01*
X113198418Y-128190359D01*
X113198022Y-128182312D01*
X113103898Y-126506528D01*
X113095885Y-126454859D01*
X113088593Y-126403064D01*
X113086642Y-126395247D01*
X112668817Y-124769659D01*
X112650905Y-124720488D01*
X112633706Y-124671138D01*
X112630274Y-124663850D01*
X111904660Y-123150377D01*
X111877556Y-123105649D01*
X111851083Y-123060553D01*
X111846300Y-123054070D01*
X110840538Y-121710360D01*
X110805280Y-121671768D01*
X110770533Y-121632651D01*
X110764583Y-121627221D01*
X109516981Y-120504456D01*
X109474879Y-120473432D01*
X109433216Y-120441825D01*
X109426324Y-120437654D01*
X107984402Y-119578599D01*
X107937091Y-119556351D01*
X107890068Y-119533431D01*
X107882497Y-119530678D01*
X106301179Y-118968054D01*
X105802860Y-118790755D01*
X105397067Y-118548995D01*
X105045964Y-118233024D01*
X104762923Y-117854877D01*
X104558718Y-117428952D01*
X104439625Y-116965606D01*
X104409780Y-116578390D01*
X104409780Y-112816827D01*
X105410867Y-112816827D01*
X105479086Y-113188523D01*
X105618202Y-113539890D01*
X105822916Y-113857543D01*
X106085430Y-114129385D01*
X106395746Y-114345060D01*
X106742043Y-114496354D01*
X107111132Y-114577503D01*
X107488953Y-114585417D01*
X107861116Y-114519795D01*
X108213445Y-114383135D01*
X108532520Y-114180644D01*
X108806188Y-113920034D01*
X109024024Y-113611231D01*
X109177731Y-113265999D01*
X109261456Y-112897486D01*
X109263702Y-112736603D01*
X119439867Y-112736603D01*
X119508086Y-113108299D01*
X119647202Y-113459666D01*
X119851916Y-113777319D01*
X120114430Y-114049161D01*
X120424746Y-114264836D01*
X120771043Y-114416130D01*
X121140132Y-114497279D01*
X121517953Y-114505193D01*
X121890116Y-114439571D01*
X122242445Y-114302911D01*
X122561520Y-114100420D01*
X122835188Y-113839810D01*
X123053024Y-113531007D01*
X123206731Y-113185775D01*
X123280671Y-112860326D01*
X123534400Y-112860326D01*
X123534400Y-114037118D01*
X123558803Y-114159799D01*
X123606670Y-114275361D01*
X123676163Y-114379365D01*
X123764611Y-114467813D01*
X123868615Y-114537306D01*
X123984177Y-114585173D01*
X124106858Y-114609576D01*
X125283650Y-114609576D01*
X125442400Y-114450826D01*
X125442400Y-112701576D01*
X125696400Y-112701576D01*
X125696400Y-114450826D01*
X125855150Y-114609576D01*
X127031942Y-114609576D01*
X127154623Y-114585173D01*
X127270185Y-114537306D01*
X127374189Y-114467813D01*
X127462637Y-114379365D01*
X127532130Y-114275361D01*
X127579997Y-114159799D01*
X127604400Y-114037118D01*
X127604400Y-112860326D01*
X127445650Y-112701576D01*
X125696400Y-112701576D01*
X125442400Y-112701576D01*
X123693150Y-112701576D01*
X123534400Y-112860326D01*
X123280671Y-112860326D01*
X123290456Y-112817262D01*
X123296483Y-112385624D01*
X123223081Y-112014917D01*
X123079073Y-111665527D01*
X122869944Y-111350762D01*
X122632876Y-111112034D01*
X123534400Y-111112034D01*
X123534400Y-112288826D01*
X123693150Y-112447576D01*
X125442400Y-112447576D01*
X125442400Y-110698326D01*
X125696400Y-110698326D01*
X125696400Y-112447576D01*
X127445650Y-112447576D01*
X127604400Y-112288826D01*
X127604400Y-111112034D01*
X127579997Y-110989353D01*
X127532130Y-110873791D01*
X127462637Y-110769787D01*
X127374189Y-110681339D01*
X127270185Y-110611846D01*
X127154623Y-110563979D01*
X127031942Y-110539576D01*
X125855150Y-110539576D01*
X125696400Y-110698326D01*
X125442400Y-110698326D01*
X125283650Y-110539576D01*
X124106858Y-110539576D01*
X123984177Y-110563979D01*
X123868615Y-110611846D01*
X123764611Y-110681339D01*
X123676163Y-110769787D01*
X123606670Y-110873791D01*
X123558803Y-110989353D01*
X123534400Y-111112034D01*
X122632876Y-111112034D01*
X122603659Y-111082613D01*
X122290363Y-110871291D01*
X121941987Y-110724848D01*
X121571801Y-110648859D01*
X121193906Y-110646221D01*
X120822695Y-110717033D01*
X120472309Y-110858599D01*
X120156092Y-111065525D01*
X119886090Y-111329931D01*
X119672586Y-111641745D01*
X119523714Y-111989090D01*
X119445143Y-112358736D01*
X119439867Y-112736603D01*
X109263702Y-112736603D01*
X109267483Y-112465848D01*
X109194081Y-112095141D01*
X109050073Y-111745751D01*
X108840944Y-111430986D01*
X108574659Y-111162837D01*
X108261363Y-110951515D01*
X107912987Y-110805072D01*
X107542801Y-110729083D01*
X107164906Y-110726445D01*
X106793695Y-110797257D01*
X106443309Y-110938823D01*
X106127092Y-111145749D01*
X105857090Y-111410155D01*
X105643586Y-111721969D01*
X105494714Y-112069314D01*
X105416143Y-112438960D01*
X105410867Y-112816827D01*
X104409780Y-112816827D01*
X104409780Y-108740550D01*
X105305400Y-108740550D01*
X105305400Y-109917342D01*
X105329803Y-110040023D01*
X105377670Y-110155585D01*
X105447163Y-110259589D01*
X105535611Y-110348037D01*
X105639615Y-110417530D01*
X105755177Y-110465397D01*
X105877858Y-110489800D01*
X107054650Y-110489800D01*
X107213400Y-110331050D01*
X107213400Y-108581800D01*
X107467400Y-108581800D01*
X107467400Y-110331050D01*
X107626150Y-110489800D01*
X108802942Y-110489800D01*
X108925623Y-110465397D01*
X109041185Y-110417530D01*
X109145189Y-110348037D01*
X109233637Y-110259589D01*
X109303130Y-110155585D01*
X109350997Y-110040023D01*
X109375400Y-109917342D01*
X109375400Y-108740550D01*
X109216650Y-108581800D01*
X107467400Y-108581800D01*
X107213400Y-108581800D01*
X105464150Y-108581800D01*
X105305400Y-108740550D01*
X104409780Y-108740550D01*
X104409780Y-106992258D01*
X105305400Y-106992258D01*
X105305400Y-108169050D01*
X105464150Y-108327800D01*
X107213400Y-108327800D01*
X107213400Y-106578550D01*
X107467400Y-106578550D01*
X107467400Y-108327800D01*
X109216650Y-108327800D01*
X109375400Y-108169050D01*
X109375400Y-106992258D01*
X109350997Y-106869577D01*
X109303130Y-106754015D01*
X109233637Y-106650011D01*
X109145189Y-106561563D01*
X109041185Y-106492070D01*
X108925623Y-106444203D01*
X108802942Y-106419800D01*
X107626150Y-106419800D01*
X107467400Y-106578550D01*
X107213400Y-106578550D01*
X107054650Y-106419800D01*
X105877858Y-106419800D01*
X105755177Y-106444203D01*
X105639615Y-106492070D01*
X105535611Y-106561563D01*
X105447163Y-106650011D01*
X105377670Y-106754015D01*
X105329803Y-106869577D01*
X105305400Y-106992258D01*
X104409780Y-106992258D01*
X104409780Y-105228070D01*
X132425667Y-105228070D01*
X132775421Y-108346196D01*
X133724161Y-111337004D01*
X135235750Y-114086575D01*
X137252612Y-116490177D01*
X139697926Y-118456260D01*
X142478550Y-119909935D01*
X145488571Y-120795832D01*
X148613338Y-121080208D01*
X151733830Y-120752231D01*
X154731188Y-119824394D01*
X157491244Y-118332037D01*
X159908869Y-116332004D01*
X161891975Y-113900476D01*
X162445032Y-112860326D01*
X169254400Y-112860326D01*
X169254400Y-114037118D01*
X169278803Y-114159799D01*
X169326670Y-114275361D01*
X169396163Y-114379365D01*
X169484611Y-114467813D01*
X169588615Y-114537306D01*
X169704177Y-114585173D01*
X169826858Y-114609576D01*
X171003650Y-114609576D01*
X171162400Y-114450826D01*
X171162400Y-112701576D01*
X171416400Y-112701576D01*
X171416400Y-114450826D01*
X171575150Y-114609576D01*
X172751942Y-114609576D01*
X172874623Y-114585173D01*
X172990185Y-114537306D01*
X173094189Y-114467813D01*
X173182637Y-114379365D01*
X173252130Y-114275361D01*
X173299997Y-114159799D01*
X173324400Y-114037118D01*
X173324400Y-112860326D01*
X173200677Y-112736603D01*
X173559867Y-112736603D01*
X173628086Y-113108299D01*
X173767202Y-113459666D01*
X173971916Y-113777319D01*
X174234430Y-114049161D01*
X174544746Y-114264836D01*
X174891043Y-114416130D01*
X175260132Y-114497279D01*
X175637953Y-114505193D01*
X176010116Y-114439571D01*
X176362445Y-114302911D01*
X176681520Y-114100420D01*
X176955188Y-113839810D01*
X177173024Y-113531007D01*
X177326731Y-113185775D01*
X177410456Y-112817262D01*
X177410462Y-112816827D01*
X187588867Y-112816827D01*
X187657086Y-113188523D01*
X187796202Y-113539890D01*
X188000916Y-113857543D01*
X188263430Y-114129385D01*
X188573746Y-114345060D01*
X188920043Y-114496354D01*
X189289132Y-114577503D01*
X189666953Y-114585417D01*
X190039116Y-114519795D01*
X190391445Y-114383135D01*
X190710520Y-114180644D01*
X190984188Y-113920034D01*
X191202024Y-113611231D01*
X191355731Y-113265999D01*
X191439456Y-112897486D01*
X191445483Y-112465848D01*
X191372081Y-112095141D01*
X191228073Y-111745751D01*
X191018944Y-111430986D01*
X190752659Y-111162837D01*
X190439363Y-110951515D01*
X190090987Y-110805072D01*
X189720801Y-110729083D01*
X189342906Y-110726445D01*
X188971695Y-110797257D01*
X188621309Y-110938823D01*
X188305092Y-111145749D01*
X188035090Y-111410155D01*
X187821586Y-111721969D01*
X187672714Y-112069314D01*
X187594143Y-112438960D01*
X187588867Y-112816827D01*
X177410462Y-112816827D01*
X177416483Y-112385624D01*
X177343081Y-112014917D01*
X177199073Y-111665527D01*
X176989944Y-111350762D01*
X176723659Y-111082613D01*
X176410363Y-110871291D01*
X176061987Y-110724848D01*
X175691801Y-110648859D01*
X175313906Y-110646221D01*
X174942695Y-110717033D01*
X174592309Y-110858599D01*
X174276092Y-111065525D01*
X174006090Y-111329931D01*
X173792586Y-111641745D01*
X173643714Y-111989090D01*
X173565143Y-112358736D01*
X173559867Y-112736603D01*
X173200677Y-112736603D01*
X173165650Y-112701576D01*
X171416400Y-112701576D01*
X171162400Y-112701576D01*
X169413150Y-112701576D01*
X169254400Y-112860326D01*
X162445032Y-112860326D01*
X163365027Y-111130068D01*
X163370471Y-111112034D01*
X169254400Y-111112034D01*
X169254400Y-112288826D01*
X169413150Y-112447576D01*
X171162400Y-112447576D01*
X171162400Y-110698326D01*
X171416400Y-110698326D01*
X171416400Y-112447576D01*
X173165650Y-112447576D01*
X173324400Y-112288826D01*
X173324400Y-111112034D01*
X173299997Y-110989353D01*
X173252130Y-110873791D01*
X173182637Y-110769787D01*
X173094189Y-110681339D01*
X172990185Y-110611846D01*
X172874623Y-110563979D01*
X172751942Y-110539576D01*
X171575150Y-110539576D01*
X171416400Y-110698326D01*
X171162400Y-110698326D01*
X171003650Y-110539576D01*
X169826858Y-110539576D01*
X169704177Y-110563979D01*
X169588615Y-110611846D01*
X169484611Y-110681339D01*
X169396163Y-110769787D01*
X169326670Y-110873791D01*
X169278803Y-110989353D01*
X169254400Y-111112034D01*
X163370471Y-111112034D01*
X164086464Y-108740550D01*
X187483400Y-108740550D01*
X187483400Y-109917342D01*
X187507803Y-110040023D01*
X187555670Y-110155585D01*
X187625163Y-110259589D01*
X187713611Y-110348037D01*
X187817615Y-110417530D01*
X187933177Y-110465397D01*
X188055858Y-110489800D01*
X189232650Y-110489800D01*
X189391400Y-110331050D01*
X189391400Y-108581800D01*
X189645400Y-108581800D01*
X189645400Y-110331050D01*
X189804150Y-110489800D01*
X190980942Y-110489800D01*
X191103623Y-110465397D01*
X191219185Y-110417530D01*
X191323189Y-110348037D01*
X191411637Y-110259589D01*
X191481130Y-110155585D01*
X191528997Y-110040023D01*
X191553400Y-109917342D01*
X191553400Y-108740550D01*
X191394650Y-108581800D01*
X189645400Y-108581800D01*
X189391400Y-108581800D01*
X187642150Y-108581800D01*
X187483400Y-108740550D01*
X164086464Y-108740550D01*
X164271916Y-108126306D01*
X164383110Y-106992258D01*
X187483400Y-106992258D01*
X187483400Y-108169050D01*
X187642150Y-108327800D01*
X189391400Y-108327800D01*
X189391400Y-106578550D01*
X189645400Y-106578550D01*
X189645400Y-108327800D01*
X191394650Y-108327800D01*
X191553400Y-108169050D01*
X191553400Y-106992258D01*
X191528997Y-106869577D01*
X191481130Y-106754015D01*
X191411637Y-106650011D01*
X191323189Y-106561563D01*
X191219185Y-106492070D01*
X191103623Y-106444203D01*
X190980942Y-106419800D01*
X189804150Y-106419800D01*
X189645400Y-106578550D01*
X189391400Y-106578550D01*
X189232650Y-106419800D01*
X188055858Y-106419800D01*
X187933177Y-106444203D01*
X187817615Y-106492070D01*
X187713611Y-106561563D01*
X187625163Y-106650011D01*
X187555670Y-106754015D01*
X187507803Y-106869577D01*
X187483400Y-106992258D01*
X164383110Y-106992258D01*
X164578100Y-105003600D01*
X164571832Y-104554704D01*
X164248612Y-101996150D01*
X187483400Y-101996150D01*
X187483400Y-103172942D01*
X187507803Y-103295623D01*
X187555670Y-103411185D01*
X187625163Y-103515189D01*
X187713611Y-103603637D01*
X187817615Y-103673130D01*
X187933177Y-103720997D01*
X188055858Y-103745400D01*
X189232650Y-103745400D01*
X189391400Y-103586650D01*
X189391400Y-101837400D01*
X189645400Y-101837400D01*
X189645400Y-103586650D01*
X189804150Y-103745400D01*
X190980942Y-103745400D01*
X191103623Y-103720997D01*
X191219185Y-103673130D01*
X191323189Y-103603637D01*
X191411637Y-103515189D01*
X191481130Y-103411185D01*
X191528997Y-103295623D01*
X191553400Y-103172942D01*
X191553400Y-101996150D01*
X191394650Y-101837400D01*
X189645400Y-101837400D01*
X189391400Y-101837400D01*
X187642150Y-101837400D01*
X187483400Y-101996150D01*
X164248612Y-101996150D01*
X164178576Y-101441765D01*
X163781416Y-100247858D01*
X187483400Y-100247858D01*
X187483400Y-101424650D01*
X187642150Y-101583400D01*
X189391400Y-101583400D01*
X189391400Y-99834150D01*
X189645400Y-99834150D01*
X189645400Y-101583400D01*
X191394650Y-101583400D01*
X191553400Y-101424650D01*
X191553400Y-100247858D01*
X191528997Y-100125177D01*
X191481130Y-100009615D01*
X191411637Y-99905611D01*
X191323189Y-99817163D01*
X191219185Y-99747670D01*
X191103623Y-99699803D01*
X190980942Y-99675400D01*
X189804150Y-99675400D01*
X189645400Y-99834150D01*
X189391400Y-99834150D01*
X189232650Y-99675400D01*
X188055858Y-99675400D01*
X187933177Y-99699803D01*
X187817615Y-99747670D01*
X187713611Y-99817163D01*
X187625163Y-99905611D01*
X187555670Y-100009615D01*
X187507803Y-100125177D01*
X187483400Y-100247858D01*
X163781416Y-100247858D01*
X163188170Y-98464495D01*
X162852908Y-97874326D01*
X169254400Y-97874326D01*
X169254400Y-99051118D01*
X169278803Y-99173799D01*
X169326670Y-99289361D01*
X169396163Y-99393365D01*
X169484611Y-99481813D01*
X169588615Y-99551306D01*
X169704177Y-99599173D01*
X169826858Y-99623576D01*
X171003650Y-99623576D01*
X171162400Y-99464826D01*
X171162400Y-97715576D01*
X171416400Y-97715576D01*
X171416400Y-99464826D01*
X171575150Y-99623576D01*
X172751942Y-99623576D01*
X172874623Y-99599173D01*
X172990185Y-99551306D01*
X173094189Y-99481813D01*
X173182637Y-99393365D01*
X173252130Y-99289361D01*
X173299997Y-99173799D01*
X173324400Y-99051118D01*
X173324400Y-97874326D01*
X173200677Y-97750603D01*
X173559867Y-97750603D01*
X173628086Y-98122299D01*
X173767202Y-98473666D01*
X173971916Y-98791319D01*
X174234430Y-99063161D01*
X174544746Y-99278836D01*
X174891043Y-99430130D01*
X175260132Y-99511279D01*
X175637953Y-99519193D01*
X176010116Y-99453571D01*
X176362445Y-99316911D01*
X176681520Y-99114420D01*
X176955188Y-98853810D01*
X177173024Y-98545007D01*
X177326731Y-98199775D01*
X177410456Y-97831262D01*
X177412673Y-97672427D01*
X187588867Y-97672427D01*
X187657086Y-98044123D01*
X187796202Y-98395490D01*
X188000916Y-98713143D01*
X188263430Y-98984985D01*
X188573746Y-99200660D01*
X188920043Y-99351954D01*
X189289132Y-99433103D01*
X189666953Y-99441017D01*
X190039116Y-99375395D01*
X190391445Y-99238735D01*
X190710520Y-99036244D01*
X190984188Y-98775634D01*
X191202024Y-98466831D01*
X191355731Y-98121599D01*
X191439456Y-97753086D01*
X191445483Y-97321448D01*
X191372081Y-96950741D01*
X191228073Y-96601351D01*
X191018944Y-96286586D01*
X190752659Y-96018437D01*
X190439363Y-95807115D01*
X190090987Y-95660672D01*
X189720801Y-95584683D01*
X189342906Y-95582045D01*
X188971695Y-95652857D01*
X188621309Y-95794423D01*
X188305092Y-96001349D01*
X188035090Y-96265755D01*
X187821586Y-96577569D01*
X187672714Y-96924914D01*
X187594143Y-97294560D01*
X187588867Y-97672427D01*
X177412673Y-97672427D01*
X177416483Y-97399624D01*
X177343081Y-97028917D01*
X177199073Y-96679527D01*
X176989944Y-96364762D01*
X176723659Y-96096613D01*
X176410363Y-95885291D01*
X176061987Y-95738848D01*
X175691801Y-95662859D01*
X175313906Y-95660221D01*
X174942695Y-95731033D01*
X174592309Y-95872599D01*
X174276092Y-96079525D01*
X174006090Y-96343931D01*
X173792586Y-96655745D01*
X173643714Y-97003090D01*
X173565143Y-97372736D01*
X173559867Y-97750603D01*
X173200677Y-97750603D01*
X173165650Y-97715576D01*
X171416400Y-97715576D01*
X171162400Y-97715576D01*
X169413150Y-97715576D01*
X169254400Y-97874326D01*
X162852908Y-97874326D01*
X161859740Y-96126034D01*
X169254400Y-96126034D01*
X169254400Y-97302826D01*
X169413150Y-97461576D01*
X171162400Y-97461576D01*
X171162400Y-95712326D01*
X171416400Y-95712326D01*
X171416400Y-97461576D01*
X173165650Y-97461576D01*
X173324400Y-97302826D01*
X173324400Y-96126034D01*
X173299997Y-96003353D01*
X173252130Y-95887791D01*
X173182637Y-95783787D01*
X173094189Y-95695339D01*
X172990185Y-95625846D01*
X172874623Y-95577979D01*
X172751942Y-95553576D01*
X171575150Y-95553576D01*
X171416400Y-95712326D01*
X171162400Y-95712326D01*
X171003650Y-95553576D01*
X169826858Y-95553576D01*
X169704177Y-95577979D01*
X169588615Y-95625846D01*
X169484611Y-95695339D01*
X169396163Y-95783787D01*
X169326670Y-95887791D01*
X169278803Y-96003353D01*
X169254400Y-96126034D01*
X161859740Y-96126034D01*
X161638339Y-95736298D01*
X159588113Y-93361089D01*
X157115587Y-91429340D01*
X154314938Y-90014630D01*
X151292842Y-89170846D01*
X148164409Y-88930126D01*
X145048800Y-89301640D01*
X142064689Y-90271236D01*
X139325738Y-91801984D01*
X136936274Y-93835577D01*
X134987311Y-96294557D01*
X133553083Y-99085262D01*
X132688221Y-102101394D01*
X132425667Y-105228070D01*
X104409780Y-105228070D01*
X104409780Y-101996150D01*
X105305400Y-101996150D01*
X105305400Y-103172942D01*
X105329803Y-103295623D01*
X105377670Y-103411185D01*
X105447163Y-103515189D01*
X105535611Y-103603637D01*
X105639615Y-103673130D01*
X105755177Y-103720997D01*
X105877858Y-103745400D01*
X107054650Y-103745400D01*
X107213400Y-103586650D01*
X107213400Y-101837400D01*
X107467400Y-101837400D01*
X107467400Y-103586650D01*
X107626150Y-103745400D01*
X108802942Y-103745400D01*
X108925623Y-103720997D01*
X109041185Y-103673130D01*
X109145189Y-103603637D01*
X109233637Y-103515189D01*
X109303130Y-103411185D01*
X109350997Y-103295623D01*
X109375400Y-103172942D01*
X109375400Y-101996150D01*
X109216650Y-101837400D01*
X107467400Y-101837400D01*
X107213400Y-101837400D01*
X105464150Y-101837400D01*
X105305400Y-101996150D01*
X104409780Y-101996150D01*
X104409780Y-100247858D01*
X105305400Y-100247858D01*
X105305400Y-101424650D01*
X105464150Y-101583400D01*
X107213400Y-101583400D01*
X107213400Y-99834150D01*
X107467400Y-99834150D01*
X107467400Y-101583400D01*
X109216650Y-101583400D01*
X109375400Y-101424650D01*
X109375400Y-100247858D01*
X109350997Y-100125177D01*
X109303130Y-100009615D01*
X109233637Y-99905611D01*
X109145189Y-99817163D01*
X109041185Y-99747670D01*
X108925623Y-99699803D01*
X108802942Y-99675400D01*
X107626150Y-99675400D01*
X107467400Y-99834150D01*
X107213400Y-99834150D01*
X107054650Y-99675400D01*
X105877858Y-99675400D01*
X105755177Y-99699803D01*
X105639615Y-99747670D01*
X105535611Y-99817163D01*
X105447163Y-99905611D01*
X105377670Y-100009615D01*
X105329803Y-100125177D01*
X105305400Y-100247858D01*
X104409780Y-100247858D01*
X104409780Y-97672427D01*
X105410867Y-97672427D01*
X105479086Y-98044123D01*
X105618202Y-98395490D01*
X105822916Y-98713143D01*
X106085430Y-98984985D01*
X106395746Y-99200660D01*
X106742043Y-99351954D01*
X107111132Y-99433103D01*
X107488953Y-99441017D01*
X107861116Y-99375395D01*
X108213445Y-99238735D01*
X108532520Y-99036244D01*
X108806188Y-98775634D01*
X109024024Y-98466831D01*
X109177731Y-98121599D01*
X109261456Y-97753086D01*
X109261490Y-97750603D01*
X119439867Y-97750603D01*
X119508086Y-98122299D01*
X119647202Y-98473666D01*
X119851916Y-98791319D01*
X120114430Y-99063161D01*
X120424746Y-99278836D01*
X120771043Y-99430130D01*
X121140132Y-99511279D01*
X121517953Y-99519193D01*
X121890116Y-99453571D01*
X122242445Y-99316911D01*
X122561520Y-99114420D01*
X122835188Y-98853810D01*
X123053024Y-98545007D01*
X123206731Y-98199775D01*
X123280671Y-97874326D01*
X123534400Y-97874326D01*
X123534400Y-99051118D01*
X123558803Y-99173799D01*
X123606670Y-99289361D01*
X123676163Y-99393365D01*
X123764611Y-99481813D01*
X123868615Y-99551306D01*
X123984177Y-99599173D01*
X124106858Y-99623576D01*
X125283650Y-99623576D01*
X125442400Y-99464826D01*
X125442400Y-97715576D01*
X125696400Y-97715576D01*
X125696400Y-99464826D01*
X125855150Y-99623576D01*
X127031942Y-99623576D01*
X127154623Y-99599173D01*
X127270185Y-99551306D01*
X127374189Y-99481813D01*
X127462637Y-99393365D01*
X127532130Y-99289361D01*
X127579997Y-99173799D01*
X127604400Y-99051118D01*
X127604400Y-97874326D01*
X127445650Y-97715576D01*
X125696400Y-97715576D01*
X125442400Y-97715576D01*
X123693150Y-97715576D01*
X123534400Y-97874326D01*
X123280671Y-97874326D01*
X123290456Y-97831262D01*
X123296483Y-97399624D01*
X123223081Y-97028917D01*
X123079073Y-96679527D01*
X122869944Y-96364762D01*
X122632876Y-96126034D01*
X123534400Y-96126034D01*
X123534400Y-97302826D01*
X123693150Y-97461576D01*
X125442400Y-97461576D01*
X125442400Y-95712326D01*
X125696400Y-95712326D01*
X125696400Y-97461576D01*
X127445650Y-97461576D01*
X127604400Y-97302826D01*
X127604400Y-96126034D01*
X127579997Y-96003353D01*
X127532130Y-95887791D01*
X127462637Y-95783787D01*
X127374189Y-95695339D01*
X127270185Y-95625846D01*
X127154623Y-95577979D01*
X127031942Y-95553576D01*
X125855150Y-95553576D01*
X125696400Y-95712326D01*
X125442400Y-95712326D01*
X125283650Y-95553576D01*
X124106858Y-95553576D01*
X123984177Y-95577979D01*
X123868615Y-95625846D01*
X123764611Y-95695339D01*
X123676163Y-95783787D01*
X123606670Y-95887791D01*
X123558803Y-96003353D01*
X123534400Y-96126034D01*
X122632876Y-96126034D01*
X122603659Y-96096613D01*
X122290363Y-95885291D01*
X121941987Y-95738848D01*
X121571801Y-95662859D01*
X121193906Y-95660221D01*
X120822695Y-95731033D01*
X120472309Y-95872599D01*
X120156092Y-96079525D01*
X119886090Y-96343931D01*
X119672586Y-96655745D01*
X119523714Y-97003090D01*
X119445143Y-97372736D01*
X119439867Y-97750603D01*
X109261490Y-97750603D01*
X109267483Y-97321448D01*
X109194081Y-96950741D01*
X109050073Y-96601351D01*
X108840944Y-96286586D01*
X108574659Y-96018437D01*
X108261363Y-95807115D01*
X107912987Y-95660672D01*
X107542801Y-95584683D01*
X107164906Y-95582045D01*
X106793695Y-95652857D01*
X106443309Y-95794423D01*
X106127092Y-96001349D01*
X105857090Y-96265755D01*
X105643586Y-96577569D01*
X105494714Y-96924914D01*
X105416143Y-97294560D01*
X105410867Y-97672427D01*
X104409780Y-97672427D01*
X104409780Y-93530890D01*
X104458640Y-93032569D01*
X104595163Y-92580385D01*
X104816916Y-92163329D01*
X105115454Y-91797285D01*
X105479404Y-91496198D01*
X105900872Y-91268312D01*
X106275875Y-91142571D01*
X107441663Y-90755409D01*
X107482558Y-90737226D01*
X107524179Y-90720688D01*
X107531314Y-90716946D01*
X109012312Y-89927162D01*
X109055827Y-89898174D01*
X109099759Y-89869786D01*
X109106031Y-89864730D01*
X110405420Y-88802326D01*
X110442451Y-88765462D01*
X110480058Y-88729057D01*
X110485228Y-88722879D01*
X111553516Y-87428323D01*
X111582709Y-87384928D01*
X111612500Y-87341952D01*
X111616372Y-87334888D01*
X112412867Y-85857488D01*
X112433064Y-85809276D01*
X112453952Y-85761305D01*
X112456379Y-85753623D01*
X112950743Y-84149653D01*
X112961195Y-84098417D01*
X112972363Y-84047323D01*
X112973251Y-84039316D01*
X113146654Y-82369871D01*
X113146955Y-82317588D01*
X113147987Y-82265289D01*
X113147303Y-82257262D01*
X112993140Y-80585931D01*
X112983279Y-80534578D01*
X112974134Y-80483082D01*
X112971904Y-80475341D01*
X112496047Y-78865784D01*
X112476411Y-78817355D01*
X112457426Y-78768585D01*
X112453734Y-78761424D01*
X111674308Y-77274949D01*
X111645612Y-77231214D01*
X111617544Y-77187104D01*
X111612532Y-77180796D01*
X110559226Y-75874021D01*
X110559220Y-75874015D01*
X110227297Y-75462218D01*
X110151141Y-75316976D01*
X120269201Y-75316976D01*
X120401143Y-76035871D01*
X120670206Y-76715447D01*
X121066142Y-77329819D01*
X121573870Y-77855586D01*
X122174049Y-78272722D01*
X122843821Y-78565338D01*
X123557673Y-78722289D01*
X124288415Y-78737595D01*
X125008214Y-78610676D01*
X125689651Y-78346363D01*
X126306773Y-77954726D01*
X126836071Y-77450682D01*
X127257387Y-76853429D01*
X127554672Y-76185716D01*
X127716602Y-75472977D01*
X127718780Y-75316976D01*
X169269201Y-75316976D01*
X169401143Y-76035871D01*
X169670206Y-76715447D01*
X170066142Y-77329819D01*
X170573870Y-77855586D01*
X171174049Y-78272722D01*
X171843821Y-78565338D01*
X172557673Y-78722289D01*
X173288415Y-78737595D01*
X174008214Y-78610676D01*
X174689651Y-78346363D01*
X175306773Y-77954726D01*
X175836071Y-77450682D01*
X176257387Y-76853429D01*
X176554672Y-76185716D01*
X176716602Y-75472977D01*
X176728259Y-74638149D01*
X176586293Y-73921166D01*
X176307768Y-73245414D01*
X175903293Y-72636629D01*
X175388274Y-72118002D01*
X174782328Y-71709287D01*
X174108536Y-71426051D01*
X173392563Y-71279083D01*
X172661678Y-71273980D01*
X171943722Y-71410938D01*
X171266041Y-71684738D01*
X170654448Y-72084954D01*
X170132238Y-72596339D01*
X169719303Y-73199417D01*
X169431369Y-73871215D01*
X169279406Y-74586145D01*
X169269201Y-75316976D01*
X127718780Y-75316976D01*
X127728259Y-74638149D01*
X127586293Y-73921166D01*
X127307768Y-73245414D01*
X126903293Y-72636629D01*
X126388274Y-72118002D01*
X125782328Y-71709287D01*
X125108536Y-71426051D01*
X124392563Y-71279083D01*
X123661678Y-71273980D01*
X122943722Y-71410938D01*
X122266041Y-71684738D01*
X121654448Y-72084954D01*
X121132238Y-72596339D01*
X120719303Y-73199417D01*
X120431369Y-73871215D01*
X120279406Y-74586145D01*
X120269201Y-75316976D01*
X110151141Y-75316976D01*
X110007950Y-75043891D01*
X109874033Y-74590924D01*
X109830647Y-74120572D01*
X109879446Y-73650759D01*
X110018573Y-73199360D01*
X110242724Y-72783588D01*
X110556643Y-72403180D01*
X110617538Y-72345617D01*
X119551221Y-65781835D01*
X129570782Y-61087140D01*
X140311386Y-58427998D01*
X151363943Y-57905693D01*
X162307447Y-59540121D01*
M02*
