G04 #@! TF.FileFunction,Copper,L1,Top,Signal*
%FSLAX46Y46*%
G04 Gerber Fmt 4.6, Leading zero omitted, Abs format (unit mm)*
G04 Created by KiCad (PCBNEW 4.0.7-e2-6376~58~ubuntu16.04.1) date Tue Apr 10 12:50:06 2018*
%MOMM*%
%LPD*%
G01*
G04 APERTURE LIST*
%ADD10C,0.100000*%
%ADD11R,0.500000X0.500000*%
%ADD12R,2.400000X3.400000*%
%ADD13R,2.800000X2.800000*%
%ADD14C,2.800000*%
%ADD15R,0.670000X1.000000*%
%ADD16R,1.000000X0.670000*%
%ADD17R,1.600000X1.600000*%
%ADD18O,1.600000X1.600000*%
%ADD19C,2.200000*%
%ADD20C,1.000000*%
%ADD21C,0.300000*%
%ADD22C,0.254000*%
G04 APERTURE END LIST*
D10*
D11*
X151810000Y-102829000D03*
X151810000Y-102179000D03*
X151810000Y-101529000D03*
X151810000Y-100879000D03*
D12*
X149860000Y-101854000D03*
D13*
X114808000Y-96384000D03*
D14*
X114808000Y-100584000D03*
D13*
X168656000Y-94352000D03*
D14*
X168656000Y-98552000D03*
D15*
X125984000Y-89408000D03*
X124234000Y-89408000D03*
D16*
X127762000Y-84102000D03*
X127762000Y-85852000D03*
D15*
X129286000Y-89408000D03*
X131036000Y-89408000D03*
D11*
X145116000Y-100879000D03*
X145116000Y-101529000D03*
X145116000Y-102179000D03*
X145116000Y-102829000D03*
D12*
X147066000Y-101854000D03*
D11*
X153752000Y-89449000D03*
X153752000Y-90099000D03*
X153752000Y-90749000D03*
X153752000Y-91399000D03*
D12*
X155702000Y-90424000D03*
D17*
X148590000Y-88138000D03*
D18*
X138430000Y-95758000D03*
X146050000Y-88138000D03*
X140970000Y-95758000D03*
X143510000Y-88138000D03*
X143510000Y-95758000D03*
X140970000Y-88138000D03*
X146050000Y-95758000D03*
X138430000Y-88138000D03*
X148590000Y-95758000D03*
D13*
X114808000Y-86868000D03*
D14*
X114808000Y-82668000D03*
D19*
X114808000Y-91694000D03*
X133350000Y-89408000D03*
X145037512Y-99058011D03*
X143764000Y-104648000D03*
D20*
X134874000Y-84328000D02*
X133350000Y-85852000D01*
X133350000Y-85852000D02*
X133350000Y-87852366D01*
X140831370Y-84328000D02*
X134874000Y-84328000D01*
X143510000Y-88138000D02*
X143510000Y-87006630D01*
X143510000Y-87006630D02*
X140831370Y-84328000D01*
X133350000Y-87852366D02*
X133350000Y-89408000D01*
X168656000Y-94352000D02*
X171056000Y-94352000D01*
X171056000Y-94352000D02*
X171704000Y-95000000D01*
X171704000Y-95000000D02*
X171704000Y-103886000D01*
X171704000Y-103886000D02*
X168887999Y-106702001D01*
X168887999Y-106702001D02*
X112036001Y-106702001D01*
X112036001Y-106702001D02*
X112014000Y-106680000D01*
X112014000Y-106680000D02*
X112014000Y-104902000D01*
X112014000Y-104902000D02*
X112014000Y-96778000D01*
X112014000Y-96778000D02*
X112014000Y-87262000D01*
X112014000Y-87262000D02*
X112408000Y-86868000D01*
X112408000Y-86868000D02*
X114808000Y-86868000D01*
X114808000Y-91694000D02*
X114808000Y-96384000D01*
X131036000Y-89408000D02*
X133350000Y-89408000D01*
X112014000Y-96778000D02*
X112408000Y-96384000D01*
X112408000Y-96384000D02*
X114808000Y-96384000D01*
X114808000Y-82668000D02*
X125984000Y-82668000D01*
X125984000Y-82668000D02*
X127663000Y-82668000D01*
X146050000Y-84074000D02*
X144644000Y-82668000D01*
X144644000Y-82668000D02*
X125984000Y-82668000D01*
X146050000Y-88138000D02*
X146050000Y-84074000D01*
X146050000Y-88138000D02*
X146050000Y-87006630D01*
X153752000Y-90099000D02*
X146879630Y-90099000D01*
X146879630Y-90099000D02*
X146050000Y-89269370D01*
X146050000Y-89269370D02*
X146050000Y-88138000D01*
X146050000Y-95758000D02*
X146050000Y-88138000D01*
X127663000Y-82668000D02*
X127762000Y-82767000D01*
X127762000Y-82767000D02*
X127762000Y-84102000D01*
D21*
X153752000Y-90099000D02*
X153752000Y-90749000D01*
X153752000Y-89449000D02*
X153752000Y-90099000D01*
D20*
X130048000Y-96012000D02*
X130048000Y-100584000D01*
X134874000Y-96012000D02*
X130048000Y-96012000D01*
X136652000Y-94234000D02*
X134874000Y-96012000D01*
X114808000Y-100584000D02*
X130048000Y-100584000D01*
X130048000Y-100584000D02*
X136652000Y-100584000D01*
X137160000Y-93726000D02*
X136652000Y-94234000D01*
X140462000Y-93726000D02*
X137160000Y-93726000D01*
X140970000Y-94234000D02*
X140462000Y-93726000D01*
X140970000Y-95758000D02*
X140970000Y-94234000D01*
X136652000Y-100584000D02*
X140462000Y-100584000D01*
X140462000Y-100584000D02*
X140970000Y-100584000D01*
X140970000Y-100584000D02*
X143510000Y-100584000D01*
D21*
X145116000Y-102179000D02*
X143835000Y-102179000D01*
X143835000Y-102179000D02*
X143764000Y-102108000D01*
D20*
X143764000Y-100838000D02*
X143764000Y-101600000D01*
X143764000Y-101600000D02*
X143764000Y-102108000D01*
D21*
X145116000Y-101529000D02*
X143835000Y-101529000D01*
X143835000Y-101529000D02*
X143764000Y-101600000D01*
X145116000Y-100879000D02*
X143805000Y-100879000D01*
X143805000Y-100879000D02*
X143764000Y-100838000D01*
D20*
X143510000Y-100584000D02*
X143764000Y-100838000D01*
D21*
X145116000Y-101529000D02*
X145116000Y-102179000D01*
X145116000Y-100879000D02*
X145116000Y-101529000D01*
D20*
X153670000Y-101600000D02*
X153670000Y-97742002D01*
X153670000Y-97742002D02*
X153185999Y-97258001D01*
X153185999Y-97258001D02*
X155702000Y-94742000D01*
X155702000Y-94742000D02*
X155702000Y-90424000D01*
X143510000Y-95758000D02*
X145010001Y-97258001D01*
X145010001Y-97258001D02*
X153185999Y-97258001D01*
D21*
X151810000Y-102829000D02*
X152105000Y-102829000D01*
X152105000Y-102829000D02*
X152146000Y-102788000D01*
X151810000Y-102179000D02*
X152105000Y-102179000D01*
X152105000Y-102179000D02*
X152146000Y-102138000D01*
X151810000Y-101529000D02*
X152105000Y-101529000D01*
X152105000Y-101529000D02*
X152146000Y-101488000D01*
X151810000Y-102179000D02*
X151810000Y-101529000D01*
X151810000Y-102829000D02*
X151810000Y-102179000D01*
D20*
X153670000Y-101600000D02*
X153670000Y-102108000D01*
D21*
X152146000Y-101488000D02*
X153558000Y-101488000D01*
X153558000Y-101488000D02*
X153670000Y-101600000D01*
D20*
X153670000Y-102108000D02*
X153670000Y-102870000D01*
D21*
X152146000Y-102138000D02*
X153640000Y-102138000D01*
X153640000Y-102138000D02*
X153670000Y-102108000D01*
X152146000Y-102788000D02*
X153588000Y-102788000D01*
X153588000Y-102788000D02*
X153670000Y-102870000D01*
D20*
X153670000Y-102870000D02*
X159766000Y-102870000D01*
X159766000Y-102870000D02*
X164084000Y-98552000D01*
X164084000Y-98552000D02*
X168656000Y-98552000D01*
X147066000Y-101854000D02*
X149860000Y-101854000D01*
X150155000Y-101854000D02*
X150196000Y-101813000D01*
X138430000Y-95758000D02*
X138430000Y-98806000D01*
X138430000Y-98806000D02*
X138682011Y-99058011D01*
X138682011Y-99058011D02*
X143481878Y-99058011D01*
X143481878Y-99058011D02*
X145037512Y-99058011D01*
D21*
X150539011Y-99058011D02*
X146593146Y-99058011D01*
X151810000Y-100879000D02*
X151810000Y-100329000D01*
X146593146Y-99058011D02*
X145037512Y-99058011D01*
X151810000Y-100329000D02*
X150539011Y-99058011D01*
X145116000Y-102829000D02*
X145116000Y-103296000D01*
X145116000Y-103296000D02*
X143764000Y-104648000D01*
D20*
X148590000Y-95758000D02*
X150876000Y-95758000D01*
X150876000Y-95758000D02*
X153752000Y-92882000D01*
D21*
X153752000Y-91399000D02*
X153752000Y-92882000D01*
D20*
X140970000Y-88138000D02*
X140970000Y-87006630D01*
X140970000Y-87006630D02*
X140069370Y-86106000D01*
X140069370Y-86106000D02*
X137160000Y-86106000D01*
X135382000Y-90678000D02*
X134620000Y-91440000D01*
X137160000Y-86106000D02*
X135382000Y-87884000D01*
X127762000Y-90678000D02*
X127762000Y-89408000D01*
X135382000Y-87884000D02*
X135382000Y-90678000D01*
X134620000Y-91440000D02*
X128524000Y-91440000D01*
X128524000Y-91440000D02*
X127762000Y-90678000D01*
X127762000Y-89408000D02*
X125984000Y-89408000D01*
X127762000Y-85852000D02*
X127762000Y-89408000D01*
X127762000Y-89408000D02*
X129286000Y-89408000D01*
X124234000Y-89408000D02*
X124234000Y-91976000D01*
X124234000Y-91976000D02*
X125222000Y-92964000D01*
X125222000Y-92964000D02*
X135382000Y-92964000D01*
X135382000Y-92964000D02*
X138430000Y-89916000D01*
X138430000Y-89916000D02*
X138430000Y-88138000D01*
D22*
G36*
X144145000Y-87154914D02*
X144097411Y-87113433D01*
X143819114Y-86998171D01*
X143637000Y-87059703D01*
X143637000Y-88011000D01*
X143657000Y-88011000D01*
X143657000Y-88265000D01*
X143637000Y-88265000D01*
X143637000Y-89216297D01*
X143819114Y-89277829D01*
X144097411Y-89162567D01*
X144145000Y-89121086D01*
X144145000Y-91567000D01*
X142621000Y-91567000D01*
X142621000Y-88899689D01*
X142922589Y-89162567D01*
X143200886Y-89277829D01*
X143383000Y-89216297D01*
X143383000Y-88265000D01*
X143363000Y-88265000D01*
X143363000Y-88011000D01*
X143383000Y-88011000D01*
X143383000Y-87059703D01*
X143200886Y-86998171D01*
X142922589Y-87113433D01*
X142621000Y-87376311D01*
X142621000Y-87122000D01*
X142610994Y-87072590D01*
X142583803Y-87032197D01*
X140805803Y-85254197D01*
X140763789Y-85226334D01*
X140716000Y-85217000D01*
X135890000Y-85217000D01*
X135840590Y-85227006D01*
X135800197Y-85254197D01*
X134276197Y-86778197D01*
X134248334Y-86820211D01*
X134239000Y-86868000D01*
X134239000Y-90297000D01*
X130429000Y-90297000D01*
X130429000Y-90174815D01*
X130485180Y-90230996D01*
X130625214Y-90289000D01*
X130813750Y-90289000D01*
X130909000Y-90193750D01*
X130909000Y-89535000D01*
X131163000Y-89535000D01*
X131163000Y-90193750D01*
X131258250Y-90289000D01*
X131446786Y-90289000D01*
X131586820Y-90230996D01*
X131693996Y-90123819D01*
X131752000Y-89983785D01*
X131752000Y-89630250D01*
X131656750Y-89535000D01*
X131163000Y-89535000D01*
X130909000Y-89535000D01*
X130889000Y-89535000D01*
X130889000Y-89281000D01*
X130909000Y-89281000D01*
X130909000Y-88622250D01*
X131163000Y-88622250D01*
X131163000Y-89281000D01*
X131656750Y-89281000D01*
X131752000Y-89185750D01*
X131752000Y-88832215D01*
X131693996Y-88692181D01*
X131586820Y-88585004D01*
X131446786Y-88527000D01*
X131258250Y-88527000D01*
X131163000Y-88622250D01*
X130909000Y-88622250D01*
X130813750Y-88527000D01*
X130625214Y-88527000D01*
X130485180Y-88585004D01*
X130429000Y-88641185D01*
X130429000Y-83693000D01*
X144145000Y-83693000D01*
X144145000Y-87154914D01*
X144145000Y-87154914D01*
G37*
X144145000Y-87154914D02*
X144097411Y-87113433D01*
X143819114Y-86998171D01*
X143637000Y-87059703D01*
X143637000Y-88011000D01*
X143657000Y-88011000D01*
X143657000Y-88265000D01*
X143637000Y-88265000D01*
X143637000Y-89216297D01*
X143819114Y-89277829D01*
X144097411Y-89162567D01*
X144145000Y-89121086D01*
X144145000Y-91567000D01*
X142621000Y-91567000D01*
X142621000Y-88899689D01*
X142922589Y-89162567D01*
X143200886Y-89277829D01*
X143383000Y-89216297D01*
X143383000Y-88265000D01*
X143363000Y-88265000D01*
X143363000Y-88011000D01*
X143383000Y-88011000D01*
X143383000Y-87059703D01*
X143200886Y-86998171D01*
X142922589Y-87113433D01*
X142621000Y-87376311D01*
X142621000Y-87122000D01*
X142610994Y-87072590D01*
X142583803Y-87032197D01*
X140805803Y-85254197D01*
X140763789Y-85226334D01*
X140716000Y-85217000D01*
X135890000Y-85217000D01*
X135840590Y-85227006D01*
X135800197Y-85254197D01*
X134276197Y-86778197D01*
X134248334Y-86820211D01*
X134239000Y-86868000D01*
X134239000Y-90297000D01*
X130429000Y-90297000D01*
X130429000Y-90174815D01*
X130485180Y-90230996D01*
X130625214Y-90289000D01*
X130813750Y-90289000D01*
X130909000Y-90193750D01*
X130909000Y-89535000D01*
X131163000Y-89535000D01*
X131163000Y-90193750D01*
X131258250Y-90289000D01*
X131446786Y-90289000D01*
X131586820Y-90230996D01*
X131693996Y-90123819D01*
X131752000Y-89983785D01*
X131752000Y-89630250D01*
X131656750Y-89535000D01*
X131163000Y-89535000D01*
X130909000Y-89535000D01*
X130889000Y-89535000D01*
X130889000Y-89281000D01*
X130909000Y-89281000D01*
X130909000Y-88622250D01*
X131163000Y-88622250D01*
X131163000Y-89281000D01*
X131656750Y-89281000D01*
X131752000Y-89185750D01*
X131752000Y-88832215D01*
X131693996Y-88692181D01*
X131586820Y-88585004D01*
X131446786Y-88527000D01*
X131258250Y-88527000D01*
X131163000Y-88622250D01*
X130909000Y-88622250D01*
X130813750Y-88527000D01*
X130625214Y-88527000D01*
X130485180Y-88585004D01*
X130429000Y-88641185D01*
X130429000Y-83693000D01*
X144145000Y-83693000D01*
X144145000Y-87154914D01*
G36*
X146864000Y-86360000D02*
X146898711Y-86534504D01*
X146997559Y-86682441D01*
X147145496Y-86781289D01*
X147320000Y-86816000D01*
X154051000Y-86816000D01*
X154051000Y-88818000D01*
X153972250Y-88818000D01*
X153877000Y-88913250D01*
X153877000Y-89324000D01*
X153899000Y-89324000D01*
X153899000Y-89541250D01*
X153877000Y-89563250D01*
X153877000Y-89984750D01*
X153899000Y-90006750D01*
X153899000Y-90191250D01*
X153877000Y-90213250D01*
X153877000Y-90634750D01*
X153899000Y-90656750D01*
X153899000Y-90760536D01*
X153502000Y-90760536D01*
X153360810Y-90787103D01*
X153332997Y-90805000D01*
X147066000Y-90805000D01*
X147016590Y-90815006D01*
X146974965Y-90843447D01*
X146947685Y-90885841D01*
X146939000Y-90932000D01*
X146939000Y-94996311D01*
X146637411Y-94733433D01*
X146359114Y-94618171D01*
X146177000Y-94679703D01*
X146177000Y-95631000D01*
X146197000Y-95631000D01*
X146197000Y-95885000D01*
X146177000Y-95885000D01*
X146177000Y-95905000D01*
X145923000Y-95905000D01*
X145923000Y-95885000D01*
X145903000Y-95885000D01*
X145903000Y-95631000D01*
X145923000Y-95631000D01*
X145923000Y-94679703D01*
X145740886Y-94618171D01*
X145462589Y-94733433D01*
X145161000Y-94996311D01*
X145161000Y-91694000D01*
X145150994Y-91644590D01*
X145122553Y-91602965D01*
X145080159Y-91575685D01*
X145034000Y-91567000D01*
X144653000Y-91567000D01*
X144653000Y-90319250D01*
X153121000Y-90319250D01*
X153121000Y-90528750D01*
X153216250Y-90624000D01*
X153238184Y-90624000D01*
X153286180Y-90671996D01*
X153426214Y-90730000D01*
X153531750Y-90730000D01*
X153627000Y-90634750D01*
X153627000Y-90213250D01*
X153531750Y-90118000D01*
X153426214Y-90118000D01*
X153286180Y-90176004D01*
X153238184Y-90224000D01*
X153216250Y-90224000D01*
X153121000Y-90319250D01*
X144653000Y-90319250D01*
X144653000Y-89669250D01*
X153121000Y-89669250D01*
X153121000Y-89878750D01*
X153216250Y-89974000D01*
X153238184Y-89974000D01*
X153286180Y-90021996D01*
X153426214Y-90080000D01*
X153531750Y-90080000D01*
X153627000Y-89984750D01*
X153627000Y-89563250D01*
X153531750Y-89468000D01*
X153426214Y-89468000D01*
X153286180Y-89526004D01*
X153238184Y-89574000D01*
X153216250Y-89574000D01*
X153121000Y-89669250D01*
X144653000Y-89669250D01*
X144653000Y-88447116D01*
X144910159Y-88447116D01*
X145115218Y-88859784D01*
X145462589Y-89162567D01*
X145740886Y-89277829D01*
X145923000Y-89216297D01*
X145923000Y-88265000D01*
X146177000Y-88265000D01*
X146177000Y-89216297D01*
X146359114Y-89277829D01*
X146637411Y-89162567D01*
X146984782Y-88859784D01*
X147189841Y-88447116D01*
X147128914Y-88265000D01*
X146177000Y-88265000D01*
X145923000Y-88265000D01*
X144971086Y-88265000D01*
X144910159Y-88447116D01*
X144653000Y-88447116D01*
X144653000Y-88352176D01*
X144691000Y-88161137D01*
X144691000Y-88114863D01*
X144653000Y-87923824D01*
X144653000Y-87828884D01*
X144910159Y-87828884D01*
X144971086Y-88011000D01*
X145923000Y-88011000D01*
X145923000Y-87059703D01*
X146177000Y-87059703D01*
X146177000Y-88011000D01*
X147128914Y-88011000D01*
X147189841Y-87828884D01*
X146984782Y-87416216D01*
X146895048Y-87338000D01*
X147401536Y-87338000D01*
X147401536Y-88938000D01*
X147428103Y-89079190D01*
X147511546Y-89208865D01*
X147638866Y-89295859D01*
X147790000Y-89326464D01*
X149390000Y-89326464D01*
X149531190Y-89299897D01*
X149660865Y-89216454D01*
X149724572Y-89123215D01*
X153121000Y-89123215D01*
X153121000Y-89228750D01*
X153216250Y-89324000D01*
X153627000Y-89324000D01*
X153627000Y-88913250D01*
X153531750Y-88818000D01*
X153426214Y-88818000D01*
X153286180Y-88876004D01*
X153179004Y-88983181D01*
X153121000Y-89123215D01*
X149724572Y-89123215D01*
X149747859Y-89089134D01*
X149778464Y-88938000D01*
X149778464Y-87338000D01*
X149751897Y-87196810D01*
X149668454Y-87067135D01*
X149541134Y-86980141D01*
X149390000Y-86949536D01*
X147790000Y-86949536D01*
X147648810Y-86976103D01*
X147519135Y-87059546D01*
X147432141Y-87186866D01*
X147401536Y-87338000D01*
X146895048Y-87338000D01*
X146637411Y-87113433D01*
X146359114Y-86998171D01*
X146177000Y-87059703D01*
X145923000Y-87059703D01*
X145740886Y-86998171D01*
X145462589Y-87113433D01*
X145115218Y-87416216D01*
X144910159Y-87828884D01*
X144653000Y-87828884D01*
X144653000Y-83312000D01*
X144642994Y-83262590D01*
X144614553Y-83220965D01*
X144572159Y-83193685D01*
X144526000Y-83185000D01*
X130048000Y-83185000D01*
X129998590Y-83195006D01*
X129956965Y-83223447D01*
X129929685Y-83265841D01*
X129921000Y-83312000D01*
X129921000Y-84709000D01*
X128528815Y-84709000D01*
X128584996Y-84652820D01*
X128643000Y-84512786D01*
X128643000Y-84324250D01*
X128547750Y-84229000D01*
X127889000Y-84229000D01*
X127889000Y-84249000D01*
X127635000Y-84249000D01*
X127635000Y-84229000D01*
X126976250Y-84229000D01*
X126881000Y-84324250D01*
X126881000Y-84512786D01*
X126939004Y-84652820D01*
X126995185Y-84709000D01*
X111200000Y-84709000D01*
X111200000Y-83971162D01*
X113684443Y-83971162D01*
X113846005Y-84208139D01*
X114508618Y-84459042D01*
X115216810Y-84437276D01*
X115769995Y-84208139D01*
X115931557Y-83971162D01*
X114808000Y-82847605D01*
X113684443Y-83971162D01*
X111200000Y-83971162D01*
X111200000Y-82368618D01*
X113016958Y-82368618D01*
X113038724Y-83076810D01*
X113267861Y-83629995D01*
X113504838Y-83791557D01*
X114628395Y-82668000D01*
X114987605Y-82668000D01*
X116111162Y-83791557D01*
X116258343Y-83691214D01*
X126881000Y-83691214D01*
X126881000Y-83879750D01*
X126976250Y-83975000D01*
X127635000Y-83975000D01*
X127635000Y-83481250D01*
X127889000Y-83481250D01*
X127889000Y-83975000D01*
X128547750Y-83975000D01*
X128643000Y-83879750D01*
X128643000Y-83691214D01*
X128584996Y-83551180D01*
X128477819Y-83444004D01*
X128337785Y-83386000D01*
X127984250Y-83386000D01*
X127889000Y-83481250D01*
X127635000Y-83481250D01*
X127539750Y-83386000D01*
X127186215Y-83386000D01*
X127046181Y-83444004D01*
X126939004Y-83551180D01*
X126881000Y-83691214D01*
X116258343Y-83691214D01*
X116348139Y-83629995D01*
X116599042Y-82967382D01*
X116577276Y-82259190D01*
X116348139Y-81706005D01*
X116111162Y-81544443D01*
X114987605Y-82668000D01*
X114628395Y-82668000D01*
X113504838Y-81544443D01*
X113267861Y-81706005D01*
X113016958Y-82368618D01*
X111200000Y-82368618D01*
X111200000Y-81364838D01*
X113684443Y-81364838D01*
X114808000Y-82488395D01*
X115931557Y-81364838D01*
X115769995Y-81127861D01*
X115107382Y-80876958D01*
X114399190Y-80898724D01*
X113846005Y-81127861D01*
X113684443Y-81364838D01*
X111200000Y-81364838D01*
X111200000Y-77164000D01*
X146864000Y-77164000D01*
X146864000Y-86360000D01*
X146864000Y-86360000D01*
G37*
X146864000Y-86360000D02*
X146898711Y-86534504D01*
X146997559Y-86682441D01*
X147145496Y-86781289D01*
X147320000Y-86816000D01*
X154051000Y-86816000D01*
X154051000Y-88818000D01*
X153972250Y-88818000D01*
X153877000Y-88913250D01*
X153877000Y-89324000D01*
X153899000Y-89324000D01*
X153899000Y-89541250D01*
X153877000Y-89563250D01*
X153877000Y-89984750D01*
X153899000Y-90006750D01*
X153899000Y-90191250D01*
X153877000Y-90213250D01*
X153877000Y-90634750D01*
X153899000Y-90656750D01*
X153899000Y-90760536D01*
X153502000Y-90760536D01*
X153360810Y-90787103D01*
X153332997Y-90805000D01*
X147066000Y-90805000D01*
X147016590Y-90815006D01*
X146974965Y-90843447D01*
X146947685Y-90885841D01*
X146939000Y-90932000D01*
X146939000Y-94996311D01*
X146637411Y-94733433D01*
X146359114Y-94618171D01*
X146177000Y-94679703D01*
X146177000Y-95631000D01*
X146197000Y-95631000D01*
X146197000Y-95885000D01*
X146177000Y-95885000D01*
X146177000Y-95905000D01*
X145923000Y-95905000D01*
X145923000Y-95885000D01*
X145903000Y-95885000D01*
X145903000Y-95631000D01*
X145923000Y-95631000D01*
X145923000Y-94679703D01*
X145740886Y-94618171D01*
X145462589Y-94733433D01*
X145161000Y-94996311D01*
X145161000Y-91694000D01*
X145150994Y-91644590D01*
X145122553Y-91602965D01*
X145080159Y-91575685D01*
X145034000Y-91567000D01*
X144653000Y-91567000D01*
X144653000Y-90319250D01*
X153121000Y-90319250D01*
X153121000Y-90528750D01*
X153216250Y-90624000D01*
X153238184Y-90624000D01*
X153286180Y-90671996D01*
X153426214Y-90730000D01*
X153531750Y-90730000D01*
X153627000Y-90634750D01*
X153627000Y-90213250D01*
X153531750Y-90118000D01*
X153426214Y-90118000D01*
X153286180Y-90176004D01*
X153238184Y-90224000D01*
X153216250Y-90224000D01*
X153121000Y-90319250D01*
X144653000Y-90319250D01*
X144653000Y-89669250D01*
X153121000Y-89669250D01*
X153121000Y-89878750D01*
X153216250Y-89974000D01*
X153238184Y-89974000D01*
X153286180Y-90021996D01*
X153426214Y-90080000D01*
X153531750Y-90080000D01*
X153627000Y-89984750D01*
X153627000Y-89563250D01*
X153531750Y-89468000D01*
X153426214Y-89468000D01*
X153286180Y-89526004D01*
X153238184Y-89574000D01*
X153216250Y-89574000D01*
X153121000Y-89669250D01*
X144653000Y-89669250D01*
X144653000Y-88447116D01*
X144910159Y-88447116D01*
X145115218Y-88859784D01*
X145462589Y-89162567D01*
X145740886Y-89277829D01*
X145923000Y-89216297D01*
X145923000Y-88265000D01*
X146177000Y-88265000D01*
X146177000Y-89216297D01*
X146359114Y-89277829D01*
X146637411Y-89162567D01*
X146984782Y-88859784D01*
X147189841Y-88447116D01*
X147128914Y-88265000D01*
X146177000Y-88265000D01*
X145923000Y-88265000D01*
X144971086Y-88265000D01*
X144910159Y-88447116D01*
X144653000Y-88447116D01*
X144653000Y-88352176D01*
X144691000Y-88161137D01*
X144691000Y-88114863D01*
X144653000Y-87923824D01*
X144653000Y-87828884D01*
X144910159Y-87828884D01*
X144971086Y-88011000D01*
X145923000Y-88011000D01*
X145923000Y-87059703D01*
X146177000Y-87059703D01*
X146177000Y-88011000D01*
X147128914Y-88011000D01*
X147189841Y-87828884D01*
X146984782Y-87416216D01*
X146895048Y-87338000D01*
X147401536Y-87338000D01*
X147401536Y-88938000D01*
X147428103Y-89079190D01*
X147511546Y-89208865D01*
X147638866Y-89295859D01*
X147790000Y-89326464D01*
X149390000Y-89326464D01*
X149531190Y-89299897D01*
X149660865Y-89216454D01*
X149724572Y-89123215D01*
X153121000Y-89123215D01*
X153121000Y-89228750D01*
X153216250Y-89324000D01*
X153627000Y-89324000D01*
X153627000Y-88913250D01*
X153531750Y-88818000D01*
X153426214Y-88818000D01*
X153286180Y-88876004D01*
X153179004Y-88983181D01*
X153121000Y-89123215D01*
X149724572Y-89123215D01*
X149747859Y-89089134D01*
X149778464Y-88938000D01*
X149778464Y-87338000D01*
X149751897Y-87196810D01*
X149668454Y-87067135D01*
X149541134Y-86980141D01*
X149390000Y-86949536D01*
X147790000Y-86949536D01*
X147648810Y-86976103D01*
X147519135Y-87059546D01*
X147432141Y-87186866D01*
X147401536Y-87338000D01*
X146895048Y-87338000D01*
X146637411Y-87113433D01*
X146359114Y-86998171D01*
X146177000Y-87059703D01*
X145923000Y-87059703D01*
X145740886Y-86998171D01*
X145462589Y-87113433D01*
X145115218Y-87416216D01*
X144910159Y-87828884D01*
X144653000Y-87828884D01*
X144653000Y-83312000D01*
X144642994Y-83262590D01*
X144614553Y-83220965D01*
X144572159Y-83193685D01*
X144526000Y-83185000D01*
X130048000Y-83185000D01*
X129998590Y-83195006D01*
X129956965Y-83223447D01*
X129929685Y-83265841D01*
X129921000Y-83312000D01*
X129921000Y-84709000D01*
X128528815Y-84709000D01*
X128584996Y-84652820D01*
X128643000Y-84512786D01*
X128643000Y-84324250D01*
X128547750Y-84229000D01*
X127889000Y-84229000D01*
X127889000Y-84249000D01*
X127635000Y-84249000D01*
X127635000Y-84229000D01*
X126976250Y-84229000D01*
X126881000Y-84324250D01*
X126881000Y-84512786D01*
X126939004Y-84652820D01*
X126995185Y-84709000D01*
X111200000Y-84709000D01*
X111200000Y-83971162D01*
X113684443Y-83971162D01*
X113846005Y-84208139D01*
X114508618Y-84459042D01*
X115216810Y-84437276D01*
X115769995Y-84208139D01*
X115931557Y-83971162D01*
X114808000Y-82847605D01*
X113684443Y-83971162D01*
X111200000Y-83971162D01*
X111200000Y-82368618D01*
X113016958Y-82368618D01*
X113038724Y-83076810D01*
X113267861Y-83629995D01*
X113504838Y-83791557D01*
X114628395Y-82668000D01*
X114987605Y-82668000D01*
X116111162Y-83791557D01*
X116258343Y-83691214D01*
X126881000Y-83691214D01*
X126881000Y-83879750D01*
X126976250Y-83975000D01*
X127635000Y-83975000D01*
X127635000Y-83481250D01*
X127889000Y-83481250D01*
X127889000Y-83975000D01*
X128547750Y-83975000D01*
X128643000Y-83879750D01*
X128643000Y-83691214D01*
X128584996Y-83551180D01*
X128477819Y-83444004D01*
X128337785Y-83386000D01*
X127984250Y-83386000D01*
X127889000Y-83481250D01*
X127635000Y-83481250D01*
X127539750Y-83386000D01*
X127186215Y-83386000D01*
X127046181Y-83444004D01*
X126939004Y-83551180D01*
X126881000Y-83691214D01*
X116258343Y-83691214D01*
X116348139Y-83629995D01*
X116599042Y-82967382D01*
X116577276Y-82259190D01*
X116348139Y-81706005D01*
X116111162Y-81544443D01*
X114987605Y-82668000D01*
X114628395Y-82668000D01*
X113504838Y-81544443D01*
X113267861Y-81706005D01*
X113016958Y-82368618D01*
X111200000Y-82368618D01*
X111200000Y-81364838D01*
X113684443Y-81364838D01*
X114808000Y-82488395D01*
X115931557Y-81364838D01*
X115769995Y-81127861D01*
X115107382Y-80876958D01*
X114399190Y-80898724D01*
X113846005Y-81127861D01*
X113684443Y-81364838D01*
X111200000Y-81364838D01*
X111200000Y-77164000D01*
X146864000Y-77164000D01*
X146864000Y-86360000D01*
G36*
X153350866Y-91356859D02*
X153502000Y-91387464D01*
X153899000Y-91387464D01*
X153899000Y-91524000D01*
X153877000Y-91524000D01*
X153877000Y-91934750D01*
X153972250Y-92030000D01*
X154051000Y-92030000D01*
X154051000Y-92456000D01*
X154061006Y-92505410D01*
X154089447Y-92547035D01*
X154131841Y-92574315D01*
X154178000Y-92583000D01*
X154305000Y-92583000D01*
X154305000Y-94435394D01*
X152363393Y-96377001D01*
X149575856Y-96377001D01*
X149729841Y-96067116D01*
X149668914Y-95885000D01*
X148717000Y-95885000D01*
X148717000Y-95905000D01*
X148463000Y-95905000D01*
X148463000Y-95885000D01*
X148443000Y-95885000D01*
X148443000Y-95631000D01*
X148463000Y-95631000D01*
X148463000Y-94679703D01*
X148717000Y-94679703D01*
X148717000Y-95631000D01*
X149668914Y-95631000D01*
X149729841Y-95448884D01*
X149524782Y-95036216D01*
X149177411Y-94733433D01*
X148899114Y-94618171D01*
X148717000Y-94679703D01*
X148463000Y-94679703D01*
X148280886Y-94618171D01*
X148002589Y-94733433D01*
X147655218Y-95036216D01*
X147450159Y-95448884D01*
X147511085Y-95630998D01*
X147447000Y-95630998D01*
X147447000Y-91619250D01*
X153121000Y-91619250D01*
X153121000Y-91724785D01*
X153179004Y-91864819D01*
X153286180Y-91971996D01*
X153426214Y-92030000D01*
X153531750Y-92030000D01*
X153627000Y-91934750D01*
X153627000Y-91524000D01*
X153216250Y-91524000D01*
X153121000Y-91619250D01*
X147447000Y-91619250D01*
X147447000Y-91313000D01*
X153286676Y-91313000D01*
X153350866Y-91356859D01*
X153350866Y-91356859D01*
G37*
X153350866Y-91356859D02*
X153502000Y-91387464D01*
X153899000Y-91387464D01*
X153899000Y-91524000D01*
X153877000Y-91524000D01*
X153877000Y-91934750D01*
X153972250Y-92030000D01*
X154051000Y-92030000D01*
X154051000Y-92456000D01*
X154061006Y-92505410D01*
X154089447Y-92547035D01*
X154131841Y-92574315D01*
X154178000Y-92583000D01*
X154305000Y-92583000D01*
X154305000Y-94435394D01*
X152363393Y-96377001D01*
X149575856Y-96377001D01*
X149729841Y-96067116D01*
X149668914Y-95885000D01*
X148717000Y-95885000D01*
X148717000Y-95905000D01*
X148463000Y-95905000D01*
X148463000Y-95885000D01*
X148443000Y-95885000D01*
X148443000Y-95631000D01*
X148463000Y-95631000D01*
X148463000Y-94679703D01*
X148717000Y-94679703D01*
X148717000Y-95631000D01*
X149668914Y-95631000D01*
X149729841Y-95448884D01*
X149524782Y-95036216D01*
X149177411Y-94733433D01*
X148899114Y-94618171D01*
X148717000Y-94679703D01*
X148463000Y-94679703D01*
X148280886Y-94618171D01*
X148002589Y-94733433D01*
X147655218Y-95036216D01*
X147450159Y-95448884D01*
X147511085Y-95630998D01*
X147447000Y-95630998D01*
X147447000Y-91619250D01*
X153121000Y-91619250D01*
X153121000Y-91724785D01*
X153179004Y-91864819D01*
X153286180Y-91971996D01*
X153426214Y-92030000D01*
X153531750Y-92030000D01*
X153627000Y-91934750D01*
X153627000Y-91524000D01*
X153216250Y-91524000D01*
X153121000Y-91619250D01*
X147447000Y-91619250D01*
X147447000Y-91313000D01*
X153286676Y-91313000D01*
X153350866Y-91356859D01*
G36*
X161163000Y-96520000D02*
X161173006Y-96569410D01*
X161201447Y-96611035D01*
X161243841Y-96638315D01*
X161290000Y-96647000D01*
X170307000Y-96647000D01*
X170307000Y-97857647D01*
X170196139Y-97590005D01*
X169959162Y-97428443D01*
X168835605Y-98552000D01*
X169959162Y-99675557D01*
X170196139Y-99513995D01*
X170307000Y-99221221D01*
X170307000Y-101039394D01*
X168095394Y-103251000D01*
X152401146Y-103251000D01*
X152441000Y-103154785D01*
X152441000Y-103049250D01*
X152345750Y-102954000D01*
X151935000Y-102954000D01*
X151935000Y-102976000D01*
X151765000Y-102976000D01*
X151765000Y-102293250D01*
X151935000Y-102293250D01*
X151935000Y-102714750D01*
X152030250Y-102810000D01*
X152135786Y-102810000D01*
X152275820Y-102751996D01*
X152323816Y-102704000D01*
X152345750Y-102704000D01*
X152441000Y-102608750D01*
X152441000Y-102399250D01*
X152345750Y-102304000D01*
X152323816Y-102304000D01*
X152275820Y-102256004D01*
X152135786Y-102198000D01*
X152030250Y-102198000D01*
X151935000Y-102293250D01*
X151765000Y-102293250D01*
X151765000Y-101643250D01*
X151935000Y-101643250D01*
X151935000Y-102064750D01*
X152030250Y-102160000D01*
X152135786Y-102160000D01*
X152275820Y-102101996D01*
X152323816Y-102054000D01*
X152345750Y-102054000D01*
X152441000Y-101958750D01*
X152441000Y-101749250D01*
X152345750Y-101654000D01*
X152323816Y-101654000D01*
X152275820Y-101606004D01*
X152135786Y-101548000D01*
X152030250Y-101548000D01*
X151935000Y-101643250D01*
X151765000Y-101643250D01*
X151765000Y-101517464D01*
X152060000Y-101517464D01*
X152201190Y-101490897D01*
X152229003Y-101473000D01*
X152908000Y-101473000D01*
X152957410Y-101462994D01*
X152999035Y-101434553D01*
X153026315Y-101392159D01*
X153035000Y-101346000D01*
X153035000Y-99855162D01*
X167532443Y-99855162D01*
X167694005Y-100092139D01*
X168356618Y-100343042D01*
X169064810Y-100321276D01*
X169617995Y-100092139D01*
X169779557Y-99855162D01*
X168656000Y-98731605D01*
X167532443Y-99855162D01*
X153035000Y-99855162D01*
X153035000Y-98252618D01*
X166864958Y-98252618D01*
X166886724Y-98960810D01*
X167115861Y-99513995D01*
X167352838Y-99675557D01*
X168476395Y-98552000D01*
X167352838Y-97428443D01*
X167115861Y-97590005D01*
X166864958Y-98252618D01*
X153035000Y-98252618D01*
X153035000Y-97790000D01*
X153024994Y-97740590D01*
X152996553Y-97698965D01*
X152954159Y-97671685D01*
X152908000Y-97663000D01*
X145539859Y-97663000D01*
X145333394Y-97577268D01*
X144744215Y-97576754D01*
X144535484Y-97663000D01*
X142621000Y-97663000D01*
X142621000Y-97248838D01*
X167532443Y-97248838D01*
X168656000Y-98372395D01*
X169779557Y-97248838D01*
X169617995Y-97011861D01*
X168955382Y-96760958D01*
X168247190Y-96782724D01*
X167694005Y-97011861D01*
X167532443Y-97248838D01*
X142621000Y-97248838D01*
X142621000Y-96519689D01*
X142922589Y-96782567D01*
X143200886Y-96897829D01*
X143383000Y-96836297D01*
X143383000Y-95885000D01*
X143363000Y-95885000D01*
X143363000Y-95631000D01*
X143383000Y-95631000D01*
X143383000Y-94679703D01*
X143200886Y-94618171D01*
X142922589Y-94733433D01*
X142621000Y-94996311D01*
X142621000Y-92075000D01*
X144653000Y-92075000D01*
X144653000Y-95630998D01*
X144588915Y-95630998D01*
X144649841Y-95448884D01*
X144444782Y-95036216D01*
X144097411Y-94733433D01*
X143819114Y-94618171D01*
X143637000Y-94679703D01*
X143637000Y-95631000D01*
X143657000Y-95631000D01*
X143657000Y-95885000D01*
X143637000Y-95885000D01*
X143637000Y-96836297D01*
X143819114Y-96897829D01*
X144097411Y-96782567D01*
X144444782Y-96479784D01*
X144649841Y-96067116D01*
X144588915Y-95885002D01*
X144653000Y-95885002D01*
X144653000Y-96266000D01*
X144663006Y-96315410D01*
X144690197Y-96355803D01*
X145198197Y-96863803D01*
X145240211Y-96891666D01*
X145288000Y-96901000D01*
X145742643Y-96901000D01*
X146050000Y-96962137D01*
X146357357Y-96901000D01*
X148282643Y-96901000D01*
X148590000Y-96962137D01*
X148897357Y-96901000D01*
X152654000Y-96901000D01*
X152703410Y-96890994D01*
X152743803Y-96863803D01*
X154775803Y-94831803D01*
X154803666Y-94789789D01*
X154813000Y-94742000D01*
X154813000Y-92505000D01*
X155479750Y-92505000D01*
X155575000Y-92409750D01*
X155575000Y-90551000D01*
X155829000Y-90551000D01*
X155829000Y-92409750D01*
X155924250Y-92505000D01*
X156977786Y-92505000D01*
X157117820Y-92446996D01*
X157224996Y-92339819D01*
X157283000Y-92199785D01*
X157283000Y-90646250D01*
X157187750Y-90551000D01*
X155829000Y-90551000D01*
X155575000Y-90551000D01*
X155555000Y-90551000D01*
X155555000Y-90297000D01*
X155575000Y-90297000D01*
X155575000Y-88438250D01*
X155829000Y-88438250D01*
X155829000Y-90297000D01*
X157187750Y-90297000D01*
X157283000Y-90201750D01*
X157283000Y-88648215D01*
X157224996Y-88508181D01*
X157117820Y-88401004D01*
X156977786Y-88343000D01*
X155924250Y-88343000D01*
X155829000Y-88438250D01*
X155575000Y-88438250D01*
X155479750Y-88343000D01*
X154813000Y-88343000D01*
X154813000Y-86816000D01*
X161163000Y-86816000D01*
X161163000Y-96520000D01*
X161163000Y-96520000D01*
G37*
X161163000Y-96520000D02*
X161173006Y-96569410D01*
X161201447Y-96611035D01*
X161243841Y-96638315D01*
X161290000Y-96647000D01*
X170307000Y-96647000D01*
X170307000Y-97857647D01*
X170196139Y-97590005D01*
X169959162Y-97428443D01*
X168835605Y-98552000D01*
X169959162Y-99675557D01*
X170196139Y-99513995D01*
X170307000Y-99221221D01*
X170307000Y-101039394D01*
X168095394Y-103251000D01*
X152401146Y-103251000D01*
X152441000Y-103154785D01*
X152441000Y-103049250D01*
X152345750Y-102954000D01*
X151935000Y-102954000D01*
X151935000Y-102976000D01*
X151765000Y-102976000D01*
X151765000Y-102293250D01*
X151935000Y-102293250D01*
X151935000Y-102714750D01*
X152030250Y-102810000D01*
X152135786Y-102810000D01*
X152275820Y-102751996D01*
X152323816Y-102704000D01*
X152345750Y-102704000D01*
X152441000Y-102608750D01*
X152441000Y-102399250D01*
X152345750Y-102304000D01*
X152323816Y-102304000D01*
X152275820Y-102256004D01*
X152135786Y-102198000D01*
X152030250Y-102198000D01*
X151935000Y-102293250D01*
X151765000Y-102293250D01*
X151765000Y-101643250D01*
X151935000Y-101643250D01*
X151935000Y-102064750D01*
X152030250Y-102160000D01*
X152135786Y-102160000D01*
X152275820Y-102101996D01*
X152323816Y-102054000D01*
X152345750Y-102054000D01*
X152441000Y-101958750D01*
X152441000Y-101749250D01*
X152345750Y-101654000D01*
X152323816Y-101654000D01*
X152275820Y-101606004D01*
X152135786Y-101548000D01*
X152030250Y-101548000D01*
X151935000Y-101643250D01*
X151765000Y-101643250D01*
X151765000Y-101517464D01*
X152060000Y-101517464D01*
X152201190Y-101490897D01*
X152229003Y-101473000D01*
X152908000Y-101473000D01*
X152957410Y-101462994D01*
X152999035Y-101434553D01*
X153026315Y-101392159D01*
X153035000Y-101346000D01*
X153035000Y-99855162D01*
X167532443Y-99855162D01*
X167694005Y-100092139D01*
X168356618Y-100343042D01*
X169064810Y-100321276D01*
X169617995Y-100092139D01*
X169779557Y-99855162D01*
X168656000Y-98731605D01*
X167532443Y-99855162D01*
X153035000Y-99855162D01*
X153035000Y-98252618D01*
X166864958Y-98252618D01*
X166886724Y-98960810D01*
X167115861Y-99513995D01*
X167352838Y-99675557D01*
X168476395Y-98552000D01*
X167352838Y-97428443D01*
X167115861Y-97590005D01*
X166864958Y-98252618D01*
X153035000Y-98252618D01*
X153035000Y-97790000D01*
X153024994Y-97740590D01*
X152996553Y-97698965D01*
X152954159Y-97671685D01*
X152908000Y-97663000D01*
X145539859Y-97663000D01*
X145333394Y-97577268D01*
X144744215Y-97576754D01*
X144535484Y-97663000D01*
X142621000Y-97663000D01*
X142621000Y-97248838D01*
X167532443Y-97248838D01*
X168656000Y-98372395D01*
X169779557Y-97248838D01*
X169617995Y-97011861D01*
X168955382Y-96760958D01*
X168247190Y-96782724D01*
X167694005Y-97011861D01*
X167532443Y-97248838D01*
X142621000Y-97248838D01*
X142621000Y-96519689D01*
X142922589Y-96782567D01*
X143200886Y-96897829D01*
X143383000Y-96836297D01*
X143383000Y-95885000D01*
X143363000Y-95885000D01*
X143363000Y-95631000D01*
X143383000Y-95631000D01*
X143383000Y-94679703D01*
X143200886Y-94618171D01*
X142922589Y-94733433D01*
X142621000Y-94996311D01*
X142621000Y-92075000D01*
X144653000Y-92075000D01*
X144653000Y-95630998D01*
X144588915Y-95630998D01*
X144649841Y-95448884D01*
X144444782Y-95036216D01*
X144097411Y-94733433D01*
X143819114Y-94618171D01*
X143637000Y-94679703D01*
X143637000Y-95631000D01*
X143657000Y-95631000D01*
X143657000Y-95885000D01*
X143637000Y-95885000D01*
X143637000Y-96836297D01*
X143819114Y-96897829D01*
X144097411Y-96782567D01*
X144444782Y-96479784D01*
X144649841Y-96067116D01*
X144588915Y-95885002D01*
X144653000Y-95885002D01*
X144653000Y-96266000D01*
X144663006Y-96315410D01*
X144690197Y-96355803D01*
X145198197Y-96863803D01*
X145240211Y-96891666D01*
X145288000Y-96901000D01*
X145742643Y-96901000D01*
X146050000Y-96962137D01*
X146357357Y-96901000D01*
X148282643Y-96901000D01*
X148590000Y-96962137D01*
X148897357Y-96901000D01*
X152654000Y-96901000D01*
X152703410Y-96890994D01*
X152743803Y-96863803D01*
X154775803Y-94831803D01*
X154803666Y-94789789D01*
X154813000Y-94742000D01*
X154813000Y-92505000D01*
X155479750Y-92505000D01*
X155575000Y-92409750D01*
X155575000Y-90551000D01*
X155829000Y-90551000D01*
X155829000Y-92409750D01*
X155924250Y-92505000D01*
X156977786Y-92505000D01*
X157117820Y-92446996D01*
X157224996Y-92339819D01*
X157283000Y-92199785D01*
X157283000Y-90646250D01*
X157187750Y-90551000D01*
X155829000Y-90551000D01*
X155575000Y-90551000D01*
X155555000Y-90551000D01*
X155555000Y-90297000D01*
X155575000Y-90297000D01*
X155575000Y-88438250D01*
X155829000Y-88438250D01*
X155829000Y-90297000D01*
X157187750Y-90297000D01*
X157283000Y-90201750D01*
X157283000Y-88648215D01*
X157224996Y-88508181D01*
X157117820Y-88401004D01*
X156977786Y-88343000D01*
X155924250Y-88343000D01*
X155829000Y-88438250D01*
X155575000Y-88438250D01*
X155479750Y-88343000D01*
X154813000Y-88343000D01*
X154813000Y-86816000D01*
X161163000Y-86816000D01*
X161163000Y-96520000D01*
G36*
X126939004Y-85301180D02*
X126881000Y-85441214D01*
X126881000Y-85629750D01*
X126976250Y-85725000D01*
X127635000Y-85725000D01*
X127635000Y-85705000D01*
X127889000Y-85705000D01*
X127889000Y-85725000D01*
X128547750Y-85725000D01*
X128643000Y-85629750D01*
X128643000Y-85441214D01*
X128584996Y-85301180D01*
X128500815Y-85217000D01*
X129921000Y-85217000D01*
X129921000Y-88669185D01*
X129836820Y-88585004D01*
X129696786Y-88527000D01*
X129508250Y-88527000D01*
X129413000Y-88622250D01*
X129413000Y-89281000D01*
X129433000Y-89281000D01*
X129433000Y-89535000D01*
X129413000Y-89535000D01*
X129413000Y-90193750D01*
X129508250Y-90289000D01*
X129696786Y-90289000D01*
X129836820Y-90230996D01*
X129921000Y-90146815D01*
X129921000Y-90678000D01*
X129931006Y-90727410D01*
X129959447Y-90769035D01*
X130001841Y-90796315D01*
X130048000Y-90805000D01*
X132852443Y-90805000D01*
X133054118Y-90888743D01*
X133643297Y-90889257D01*
X133847214Y-90805000D01*
X134620000Y-90805000D01*
X134669410Y-90794994D01*
X134711035Y-90766553D01*
X134738315Y-90724159D01*
X134747000Y-90678000D01*
X134747000Y-89905557D01*
X134830743Y-89703882D01*
X134831257Y-89114703D01*
X134747000Y-88910786D01*
X134747000Y-86920606D01*
X135942606Y-85725000D01*
X140663394Y-85725000D01*
X142113000Y-87174606D01*
X142113000Y-88010998D01*
X142048915Y-88010998D01*
X142109841Y-87828884D01*
X141904782Y-87416216D01*
X141557411Y-87113433D01*
X141279114Y-86998171D01*
X141097000Y-87059703D01*
X141097000Y-88011000D01*
X141117000Y-88011000D01*
X141117000Y-88265000D01*
X141097000Y-88265000D01*
X141097000Y-89216297D01*
X141279114Y-89277829D01*
X141557411Y-89162567D01*
X141904782Y-88859784D01*
X142109841Y-88447116D01*
X142048915Y-88265002D01*
X142113000Y-88265002D01*
X142113000Y-91567000D01*
X140081000Y-91567000D01*
X140081000Y-88899689D01*
X140382589Y-89162567D01*
X140660886Y-89277829D01*
X140843000Y-89216297D01*
X140843000Y-88265000D01*
X140823000Y-88265000D01*
X140823000Y-88011000D01*
X140843000Y-88011000D01*
X140843000Y-87059703D01*
X140660886Y-86998171D01*
X140382589Y-87113433D01*
X140081000Y-87376311D01*
X140081000Y-86868000D01*
X140070994Y-86818590D01*
X140043803Y-86778197D01*
X139789803Y-86524197D01*
X139747789Y-86496334D01*
X139700000Y-86487000D01*
X137668000Y-86487000D01*
X137618590Y-86497006D01*
X137578197Y-86524197D01*
X136308197Y-87794197D01*
X136280334Y-87836211D01*
X136271000Y-87884000D01*
X136271000Y-90371394D01*
X134821394Y-91821000D01*
X125603000Y-91821000D01*
X125603000Y-90289000D01*
X125761750Y-90289000D01*
X125857000Y-90193750D01*
X125857000Y-89535000D01*
X126111000Y-89535000D01*
X126111000Y-90193750D01*
X126206250Y-90289000D01*
X126394786Y-90289000D01*
X126534820Y-90230996D01*
X126641996Y-90123819D01*
X126700000Y-89983785D01*
X126700000Y-89630250D01*
X128570000Y-89630250D01*
X128570000Y-89983785D01*
X128628004Y-90123819D01*
X128735180Y-90230996D01*
X128875214Y-90289000D01*
X129063750Y-90289000D01*
X129159000Y-90193750D01*
X129159000Y-89535000D01*
X128665250Y-89535000D01*
X128570000Y-89630250D01*
X126700000Y-89630250D01*
X126604750Y-89535000D01*
X126111000Y-89535000D01*
X125857000Y-89535000D01*
X125837000Y-89535000D01*
X125837000Y-89281000D01*
X125857000Y-89281000D01*
X125857000Y-88622250D01*
X126111000Y-88622250D01*
X126111000Y-89281000D01*
X126604750Y-89281000D01*
X126700000Y-89185750D01*
X126700000Y-88832215D01*
X128570000Y-88832215D01*
X128570000Y-89185750D01*
X128665250Y-89281000D01*
X129159000Y-89281000D01*
X129159000Y-88622250D01*
X129063750Y-88527000D01*
X128875214Y-88527000D01*
X128735180Y-88585004D01*
X128628004Y-88692181D01*
X128570000Y-88832215D01*
X126700000Y-88832215D01*
X126641996Y-88692181D01*
X126534820Y-88585004D01*
X126394786Y-88527000D01*
X126206250Y-88527000D01*
X126111000Y-88622250D01*
X125857000Y-88622250D01*
X125761750Y-88527000D01*
X125603000Y-88527000D01*
X125603000Y-86074250D01*
X126881000Y-86074250D01*
X126881000Y-86262786D01*
X126939004Y-86402820D01*
X127046181Y-86509996D01*
X127186215Y-86568000D01*
X127539750Y-86568000D01*
X127635000Y-86472750D01*
X127635000Y-85979000D01*
X127889000Y-85979000D01*
X127889000Y-86472750D01*
X127984250Y-86568000D01*
X128337785Y-86568000D01*
X128477819Y-86509996D01*
X128584996Y-86402820D01*
X128643000Y-86262786D01*
X128643000Y-86074250D01*
X128547750Y-85979000D01*
X127889000Y-85979000D01*
X127635000Y-85979000D01*
X126976250Y-85979000D01*
X126881000Y-86074250D01*
X125603000Y-86074250D01*
X125603000Y-85217000D01*
X127023185Y-85217000D01*
X126939004Y-85301180D01*
X126939004Y-85301180D01*
G37*
X126939004Y-85301180D02*
X126881000Y-85441214D01*
X126881000Y-85629750D01*
X126976250Y-85725000D01*
X127635000Y-85725000D01*
X127635000Y-85705000D01*
X127889000Y-85705000D01*
X127889000Y-85725000D01*
X128547750Y-85725000D01*
X128643000Y-85629750D01*
X128643000Y-85441214D01*
X128584996Y-85301180D01*
X128500815Y-85217000D01*
X129921000Y-85217000D01*
X129921000Y-88669185D01*
X129836820Y-88585004D01*
X129696786Y-88527000D01*
X129508250Y-88527000D01*
X129413000Y-88622250D01*
X129413000Y-89281000D01*
X129433000Y-89281000D01*
X129433000Y-89535000D01*
X129413000Y-89535000D01*
X129413000Y-90193750D01*
X129508250Y-90289000D01*
X129696786Y-90289000D01*
X129836820Y-90230996D01*
X129921000Y-90146815D01*
X129921000Y-90678000D01*
X129931006Y-90727410D01*
X129959447Y-90769035D01*
X130001841Y-90796315D01*
X130048000Y-90805000D01*
X132852443Y-90805000D01*
X133054118Y-90888743D01*
X133643297Y-90889257D01*
X133847214Y-90805000D01*
X134620000Y-90805000D01*
X134669410Y-90794994D01*
X134711035Y-90766553D01*
X134738315Y-90724159D01*
X134747000Y-90678000D01*
X134747000Y-89905557D01*
X134830743Y-89703882D01*
X134831257Y-89114703D01*
X134747000Y-88910786D01*
X134747000Y-86920606D01*
X135942606Y-85725000D01*
X140663394Y-85725000D01*
X142113000Y-87174606D01*
X142113000Y-88010998D01*
X142048915Y-88010998D01*
X142109841Y-87828884D01*
X141904782Y-87416216D01*
X141557411Y-87113433D01*
X141279114Y-86998171D01*
X141097000Y-87059703D01*
X141097000Y-88011000D01*
X141117000Y-88011000D01*
X141117000Y-88265000D01*
X141097000Y-88265000D01*
X141097000Y-89216297D01*
X141279114Y-89277829D01*
X141557411Y-89162567D01*
X141904782Y-88859784D01*
X142109841Y-88447116D01*
X142048915Y-88265002D01*
X142113000Y-88265002D01*
X142113000Y-91567000D01*
X140081000Y-91567000D01*
X140081000Y-88899689D01*
X140382589Y-89162567D01*
X140660886Y-89277829D01*
X140843000Y-89216297D01*
X140843000Y-88265000D01*
X140823000Y-88265000D01*
X140823000Y-88011000D01*
X140843000Y-88011000D01*
X140843000Y-87059703D01*
X140660886Y-86998171D01*
X140382589Y-87113433D01*
X140081000Y-87376311D01*
X140081000Y-86868000D01*
X140070994Y-86818590D01*
X140043803Y-86778197D01*
X139789803Y-86524197D01*
X139747789Y-86496334D01*
X139700000Y-86487000D01*
X137668000Y-86487000D01*
X137618590Y-86497006D01*
X137578197Y-86524197D01*
X136308197Y-87794197D01*
X136280334Y-87836211D01*
X136271000Y-87884000D01*
X136271000Y-90371394D01*
X134821394Y-91821000D01*
X125603000Y-91821000D01*
X125603000Y-90289000D01*
X125761750Y-90289000D01*
X125857000Y-90193750D01*
X125857000Y-89535000D01*
X126111000Y-89535000D01*
X126111000Y-90193750D01*
X126206250Y-90289000D01*
X126394786Y-90289000D01*
X126534820Y-90230996D01*
X126641996Y-90123819D01*
X126700000Y-89983785D01*
X126700000Y-89630250D01*
X128570000Y-89630250D01*
X128570000Y-89983785D01*
X128628004Y-90123819D01*
X128735180Y-90230996D01*
X128875214Y-90289000D01*
X129063750Y-90289000D01*
X129159000Y-90193750D01*
X129159000Y-89535000D01*
X128665250Y-89535000D01*
X128570000Y-89630250D01*
X126700000Y-89630250D01*
X126604750Y-89535000D01*
X126111000Y-89535000D01*
X125857000Y-89535000D01*
X125837000Y-89535000D01*
X125837000Y-89281000D01*
X125857000Y-89281000D01*
X125857000Y-88622250D01*
X126111000Y-88622250D01*
X126111000Y-89281000D01*
X126604750Y-89281000D01*
X126700000Y-89185750D01*
X126700000Y-88832215D01*
X128570000Y-88832215D01*
X128570000Y-89185750D01*
X128665250Y-89281000D01*
X129159000Y-89281000D01*
X129159000Y-88622250D01*
X129063750Y-88527000D01*
X128875214Y-88527000D01*
X128735180Y-88585004D01*
X128628004Y-88692181D01*
X128570000Y-88832215D01*
X126700000Y-88832215D01*
X126641996Y-88692181D01*
X126534820Y-88585004D01*
X126394786Y-88527000D01*
X126206250Y-88527000D01*
X126111000Y-88622250D01*
X125857000Y-88622250D01*
X125761750Y-88527000D01*
X125603000Y-88527000D01*
X125603000Y-86074250D01*
X126881000Y-86074250D01*
X126881000Y-86262786D01*
X126939004Y-86402820D01*
X127046181Y-86509996D01*
X127186215Y-86568000D01*
X127539750Y-86568000D01*
X127635000Y-86472750D01*
X127635000Y-85979000D01*
X127889000Y-85979000D01*
X127889000Y-86472750D01*
X127984250Y-86568000D01*
X128337785Y-86568000D01*
X128477819Y-86509996D01*
X128584996Y-86402820D01*
X128643000Y-86262786D01*
X128643000Y-86074250D01*
X128547750Y-85979000D01*
X127889000Y-85979000D01*
X127635000Y-85979000D01*
X126976250Y-85979000D01*
X126881000Y-86074250D01*
X125603000Y-86074250D01*
X125603000Y-85217000D01*
X127023185Y-85217000D01*
X126939004Y-85301180D01*
G36*
X125095000Y-92202000D02*
X125105006Y-92251410D01*
X125133447Y-92293035D01*
X125175841Y-92320315D01*
X125222000Y-92329000D01*
X134874000Y-92329000D01*
X134923410Y-92318994D01*
X134963803Y-92291803D01*
X135091325Y-92164281D01*
X135242961Y-92062961D01*
X136004961Y-91300961D01*
X136106281Y-91149325D01*
X136741803Y-90513803D01*
X136769666Y-90471789D01*
X136779000Y-90424000D01*
X136779000Y-88447116D01*
X137290159Y-88447116D01*
X137495218Y-88859784D01*
X137842589Y-89162567D01*
X138120886Y-89277829D01*
X138303000Y-89216297D01*
X138303000Y-88265000D01*
X137351086Y-88265000D01*
X137290159Y-88447116D01*
X136779000Y-88447116D01*
X136779000Y-87936606D01*
X137720606Y-86995000D01*
X138302998Y-86995000D01*
X138302998Y-87059702D01*
X138120886Y-86998171D01*
X137842589Y-87113433D01*
X137495218Y-87416216D01*
X137290159Y-87828884D01*
X137351086Y-88011000D01*
X138303000Y-88011000D01*
X138303000Y-87991000D01*
X138557000Y-87991000D01*
X138557000Y-88011000D01*
X138577000Y-88011000D01*
X138577000Y-88265000D01*
X138557000Y-88265000D01*
X138557000Y-89216297D01*
X138739114Y-89277829D01*
X139017411Y-89162567D01*
X139364782Y-88859784D01*
X139569841Y-88447116D01*
X139508915Y-88265002D01*
X139573000Y-88265002D01*
X139573000Y-91567000D01*
X137922000Y-91567000D01*
X137872590Y-91577006D01*
X137832197Y-91604197D01*
X135329394Y-94107000D01*
X122301000Y-94107000D01*
X122301000Y-89630250D01*
X123518000Y-89630250D01*
X123518000Y-89983785D01*
X123576004Y-90123819D01*
X123683180Y-90230996D01*
X123823214Y-90289000D01*
X124011750Y-90289000D01*
X124107000Y-90193750D01*
X124107000Y-89535000D01*
X124361000Y-89535000D01*
X124361000Y-90193750D01*
X124456250Y-90289000D01*
X124644786Y-90289000D01*
X124784820Y-90230996D01*
X124891996Y-90123819D01*
X124950000Y-89983785D01*
X124950000Y-89630250D01*
X124854750Y-89535000D01*
X124361000Y-89535000D01*
X124107000Y-89535000D01*
X123613250Y-89535000D01*
X123518000Y-89630250D01*
X122301000Y-89630250D01*
X122301000Y-88832215D01*
X123518000Y-88832215D01*
X123518000Y-89185750D01*
X123613250Y-89281000D01*
X124107000Y-89281000D01*
X124107000Y-88622250D01*
X124361000Y-88622250D01*
X124361000Y-89281000D01*
X124854750Y-89281000D01*
X124950000Y-89185750D01*
X124950000Y-88832215D01*
X124891996Y-88692181D01*
X124784820Y-88585004D01*
X124644786Y-88527000D01*
X124456250Y-88527000D01*
X124361000Y-88622250D01*
X124107000Y-88622250D01*
X124011750Y-88527000D01*
X123823214Y-88527000D01*
X123683180Y-88585004D01*
X123576004Y-88692181D01*
X123518000Y-88832215D01*
X122301000Y-88832215D01*
X122301000Y-85217000D01*
X125095000Y-85217000D01*
X125095000Y-92202000D01*
X125095000Y-92202000D01*
G37*
X125095000Y-92202000D02*
X125105006Y-92251410D01*
X125133447Y-92293035D01*
X125175841Y-92320315D01*
X125222000Y-92329000D01*
X134874000Y-92329000D01*
X134923410Y-92318994D01*
X134963803Y-92291803D01*
X135091325Y-92164281D01*
X135242961Y-92062961D01*
X136004961Y-91300961D01*
X136106281Y-91149325D01*
X136741803Y-90513803D01*
X136769666Y-90471789D01*
X136779000Y-90424000D01*
X136779000Y-88447116D01*
X137290159Y-88447116D01*
X137495218Y-88859784D01*
X137842589Y-89162567D01*
X138120886Y-89277829D01*
X138303000Y-89216297D01*
X138303000Y-88265000D01*
X137351086Y-88265000D01*
X137290159Y-88447116D01*
X136779000Y-88447116D01*
X136779000Y-87936606D01*
X137720606Y-86995000D01*
X138302998Y-86995000D01*
X138302998Y-87059702D01*
X138120886Y-86998171D01*
X137842589Y-87113433D01*
X137495218Y-87416216D01*
X137290159Y-87828884D01*
X137351086Y-88011000D01*
X138303000Y-88011000D01*
X138303000Y-87991000D01*
X138557000Y-87991000D01*
X138557000Y-88011000D01*
X138577000Y-88011000D01*
X138577000Y-88265000D01*
X138557000Y-88265000D01*
X138557000Y-89216297D01*
X138739114Y-89277829D01*
X139017411Y-89162567D01*
X139364782Y-88859784D01*
X139569841Y-88447116D01*
X139508915Y-88265002D01*
X139573000Y-88265002D01*
X139573000Y-91567000D01*
X137922000Y-91567000D01*
X137872590Y-91577006D01*
X137832197Y-91604197D01*
X135329394Y-94107000D01*
X122301000Y-94107000D01*
X122301000Y-89630250D01*
X123518000Y-89630250D01*
X123518000Y-89983785D01*
X123576004Y-90123819D01*
X123683180Y-90230996D01*
X123823214Y-90289000D01*
X124011750Y-90289000D01*
X124107000Y-90193750D01*
X124107000Y-89535000D01*
X124361000Y-89535000D01*
X124361000Y-90193750D01*
X124456250Y-90289000D01*
X124644786Y-90289000D01*
X124784820Y-90230996D01*
X124891996Y-90123819D01*
X124950000Y-89983785D01*
X124950000Y-89630250D01*
X124854750Y-89535000D01*
X124361000Y-89535000D01*
X124107000Y-89535000D01*
X123613250Y-89535000D01*
X123518000Y-89630250D01*
X122301000Y-89630250D01*
X122301000Y-88832215D01*
X123518000Y-88832215D01*
X123518000Y-89185750D01*
X123613250Y-89281000D01*
X124107000Y-89281000D01*
X124107000Y-88622250D01*
X124361000Y-88622250D01*
X124361000Y-89281000D01*
X124854750Y-89281000D01*
X124950000Y-89185750D01*
X124950000Y-88832215D01*
X124891996Y-88692181D01*
X124784820Y-88585004D01*
X124644786Y-88527000D01*
X124456250Y-88527000D01*
X124361000Y-88622250D01*
X124107000Y-88622250D01*
X124011750Y-88527000D01*
X123823214Y-88527000D01*
X123683180Y-88585004D01*
X123576004Y-88692181D01*
X123518000Y-88832215D01*
X122301000Y-88832215D01*
X122301000Y-85217000D01*
X125095000Y-85217000D01*
X125095000Y-92202000D01*
G36*
X142113000Y-95630998D02*
X142048915Y-95630998D01*
X142109841Y-95448884D01*
X141904782Y-95036216D01*
X141557411Y-94733433D01*
X141279114Y-94618171D01*
X141097000Y-94679703D01*
X141097000Y-95631000D01*
X141117000Y-95631000D01*
X141117000Y-95885000D01*
X141097000Y-95885000D01*
X141097000Y-96836297D01*
X141279114Y-96897829D01*
X141557411Y-96782567D01*
X141904782Y-96479784D01*
X142109841Y-96067116D01*
X142048915Y-95885002D01*
X142113000Y-95885002D01*
X142113000Y-97663000D01*
X139827000Y-97663000D01*
X139827000Y-95885002D01*
X139891085Y-95885002D01*
X139830159Y-96067116D01*
X140035218Y-96479784D01*
X140382589Y-96782567D01*
X140660886Y-96897829D01*
X140843000Y-96836297D01*
X140843000Y-95885000D01*
X140823000Y-95885000D01*
X140823000Y-95631000D01*
X140843000Y-95631000D01*
X140843000Y-94679703D01*
X140660886Y-94618171D01*
X140382589Y-94733433D01*
X140035218Y-95036216D01*
X139830159Y-95448884D01*
X139891085Y-95630998D01*
X139827000Y-95630998D01*
X139827000Y-94234000D01*
X139816994Y-94184590D01*
X139788553Y-94142965D01*
X139746159Y-94115685D01*
X139700000Y-94107000D01*
X137668000Y-94107000D01*
X137618590Y-94117006D01*
X137578197Y-94144197D01*
X135038197Y-96684197D01*
X135010334Y-96726211D01*
X135001000Y-96774000D01*
X135001000Y-99822000D01*
X135011006Y-99871410D01*
X135039447Y-99913035D01*
X135081841Y-99940315D01*
X135128000Y-99949000D01*
X143834323Y-99949000D01*
X144197497Y-100312810D01*
X144399000Y-100396482D01*
X144399000Y-102997000D01*
X113157000Y-102997000D01*
X113157000Y-101887162D01*
X113684443Y-101887162D01*
X113846005Y-102124139D01*
X114508618Y-102375042D01*
X115216810Y-102353276D01*
X115769995Y-102124139D01*
X115931557Y-101887162D01*
X114808000Y-100763605D01*
X113684443Y-101887162D01*
X113157000Y-101887162D01*
X113157000Y-101278353D01*
X113267861Y-101545995D01*
X113504838Y-101707557D01*
X114628395Y-100584000D01*
X114987605Y-100584000D01*
X116111162Y-101707557D01*
X116348139Y-101545995D01*
X116599042Y-100883382D01*
X116577276Y-100175190D01*
X116348139Y-99622005D01*
X116111162Y-99460443D01*
X114987605Y-100584000D01*
X114628395Y-100584000D01*
X113504838Y-99460443D01*
X113267861Y-99622005D01*
X113157000Y-99914779D01*
X113157000Y-99280838D01*
X113684443Y-99280838D01*
X114808000Y-100404395D01*
X115931557Y-99280838D01*
X115769995Y-99043861D01*
X115107382Y-98792958D01*
X114399190Y-98814724D01*
X113846005Y-99043861D01*
X113684443Y-99280838D01*
X113157000Y-99280838D01*
X113157000Y-98679000D01*
X122174000Y-98679000D01*
X122223410Y-98668994D01*
X122265035Y-98640553D01*
X122292315Y-98598159D01*
X122301000Y-98552000D01*
X122301000Y-94615000D01*
X135382000Y-94615000D01*
X135431410Y-94604994D01*
X135471803Y-94577803D01*
X137974606Y-92075000D01*
X142113000Y-92075000D01*
X142113000Y-95630998D01*
X142113000Y-95630998D01*
G37*
X142113000Y-95630998D02*
X142048915Y-95630998D01*
X142109841Y-95448884D01*
X141904782Y-95036216D01*
X141557411Y-94733433D01*
X141279114Y-94618171D01*
X141097000Y-94679703D01*
X141097000Y-95631000D01*
X141117000Y-95631000D01*
X141117000Y-95885000D01*
X141097000Y-95885000D01*
X141097000Y-96836297D01*
X141279114Y-96897829D01*
X141557411Y-96782567D01*
X141904782Y-96479784D01*
X142109841Y-96067116D01*
X142048915Y-95885002D01*
X142113000Y-95885002D01*
X142113000Y-97663000D01*
X139827000Y-97663000D01*
X139827000Y-95885002D01*
X139891085Y-95885002D01*
X139830159Y-96067116D01*
X140035218Y-96479784D01*
X140382589Y-96782567D01*
X140660886Y-96897829D01*
X140843000Y-96836297D01*
X140843000Y-95885000D01*
X140823000Y-95885000D01*
X140823000Y-95631000D01*
X140843000Y-95631000D01*
X140843000Y-94679703D01*
X140660886Y-94618171D01*
X140382589Y-94733433D01*
X140035218Y-95036216D01*
X139830159Y-95448884D01*
X139891085Y-95630998D01*
X139827000Y-95630998D01*
X139827000Y-94234000D01*
X139816994Y-94184590D01*
X139788553Y-94142965D01*
X139746159Y-94115685D01*
X139700000Y-94107000D01*
X137668000Y-94107000D01*
X137618590Y-94117006D01*
X137578197Y-94144197D01*
X135038197Y-96684197D01*
X135010334Y-96726211D01*
X135001000Y-96774000D01*
X135001000Y-99822000D01*
X135011006Y-99871410D01*
X135039447Y-99913035D01*
X135081841Y-99940315D01*
X135128000Y-99949000D01*
X143834323Y-99949000D01*
X144197497Y-100312810D01*
X144399000Y-100396482D01*
X144399000Y-102997000D01*
X113157000Y-102997000D01*
X113157000Y-101887162D01*
X113684443Y-101887162D01*
X113846005Y-102124139D01*
X114508618Y-102375042D01*
X115216810Y-102353276D01*
X115769995Y-102124139D01*
X115931557Y-101887162D01*
X114808000Y-100763605D01*
X113684443Y-101887162D01*
X113157000Y-101887162D01*
X113157000Y-101278353D01*
X113267861Y-101545995D01*
X113504838Y-101707557D01*
X114628395Y-100584000D01*
X114987605Y-100584000D01*
X116111162Y-101707557D01*
X116348139Y-101545995D01*
X116599042Y-100883382D01*
X116577276Y-100175190D01*
X116348139Y-99622005D01*
X116111162Y-99460443D01*
X114987605Y-100584000D01*
X114628395Y-100584000D01*
X113504838Y-99460443D01*
X113267861Y-99622005D01*
X113157000Y-99914779D01*
X113157000Y-99280838D01*
X113684443Y-99280838D01*
X114808000Y-100404395D01*
X115931557Y-99280838D01*
X115769995Y-99043861D01*
X115107382Y-98792958D01*
X114399190Y-98814724D01*
X113846005Y-99043861D01*
X113684443Y-99280838D01*
X113157000Y-99280838D01*
X113157000Y-98679000D01*
X122174000Y-98679000D01*
X122223410Y-98668994D01*
X122265035Y-98640553D01*
X122292315Y-98598159D01*
X122301000Y-98552000D01*
X122301000Y-94615000D01*
X135382000Y-94615000D01*
X135431410Y-94604994D01*
X135471803Y-94577803D01*
X137974606Y-92075000D01*
X142113000Y-92075000D01*
X142113000Y-95630998D01*
G36*
X138302998Y-94679702D02*
X138120886Y-94618171D01*
X137842589Y-94733433D01*
X137495218Y-95036216D01*
X137290159Y-95448884D01*
X137351086Y-95631000D01*
X138303000Y-95631000D01*
X138303000Y-95611000D01*
X138557000Y-95611000D01*
X138557000Y-95631000D01*
X138577000Y-95631000D01*
X138577000Y-95885000D01*
X138557000Y-95885000D01*
X138557000Y-96836297D01*
X138739114Y-96897829D01*
X139017411Y-96782567D01*
X139319000Y-96519689D01*
X139319000Y-98044000D01*
X139329006Y-98093410D01*
X139357447Y-98135035D01*
X139399841Y-98162315D01*
X139446000Y-98171000D01*
X152527000Y-98171000D01*
X152527000Y-100957000D01*
X152263615Y-100957000D01*
X152211134Y-100921141D01*
X152060000Y-100890536D01*
X151663000Y-100890536D01*
X151663000Y-100754000D01*
X151685000Y-100754000D01*
X151685000Y-100343250D01*
X151935000Y-100343250D01*
X151935000Y-100754000D01*
X152345750Y-100754000D01*
X152441000Y-100658750D01*
X152441000Y-100553215D01*
X152382996Y-100413181D01*
X152275820Y-100306004D01*
X152135786Y-100248000D01*
X152030250Y-100248000D01*
X151935000Y-100343250D01*
X151685000Y-100343250D01*
X151589750Y-100248000D01*
X151511000Y-100248000D01*
X151511000Y-100076000D01*
X151500994Y-100026590D01*
X151473803Y-99986197D01*
X151219803Y-99732197D01*
X151177789Y-99704334D01*
X151130000Y-99695000D01*
X144324606Y-99695000D01*
X144107803Y-99478197D01*
X144065789Y-99450334D01*
X144018000Y-99441000D01*
X135509000Y-99441000D01*
X135509000Y-96826606D01*
X136268490Y-96067116D01*
X137290159Y-96067116D01*
X137495218Y-96479784D01*
X137842589Y-96782567D01*
X138120886Y-96897829D01*
X138303000Y-96836297D01*
X138303000Y-95885000D01*
X137351086Y-95885000D01*
X137290159Y-96067116D01*
X136268490Y-96067116D01*
X137720606Y-94615000D01*
X138302998Y-94615000D01*
X138302998Y-94679702D01*
X138302998Y-94679702D01*
G37*
X138302998Y-94679702D02*
X138120886Y-94618171D01*
X137842589Y-94733433D01*
X137495218Y-95036216D01*
X137290159Y-95448884D01*
X137351086Y-95631000D01*
X138303000Y-95631000D01*
X138303000Y-95611000D01*
X138557000Y-95611000D01*
X138557000Y-95631000D01*
X138577000Y-95631000D01*
X138577000Y-95885000D01*
X138557000Y-95885000D01*
X138557000Y-96836297D01*
X138739114Y-96897829D01*
X139017411Y-96782567D01*
X139319000Y-96519689D01*
X139319000Y-98044000D01*
X139329006Y-98093410D01*
X139357447Y-98135035D01*
X139399841Y-98162315D01*
X139446000Y-98171000D01*
X152527000Y-98171000D01*
X152527000Y-100957000D01*
X152263615Y-100957000D01*
X152211134Y-100921141D01*
X152060000Y-100890536D01*
X151663000Y-100890536D01*
X151663000Y-100754000D01*
X151685000Y-100754000D01*
X151685000Y-100343250D01*
X151935000Y-100343250D01*
X151935000Y-100754000D01*
X152345750Y-100754000D01*
X152441000Y-100658750D01*
X152441000Y-100553215D01*
X152382996Y-100413181D01*
X152275820Y-100306004D01*
X152135786Y-100248000D01*
X152030250Y-100248000D01*
X151935000Y-100343250D01*
X151685000Y-100343250D01*
X151589750Y-100248000D01*
X151511000Y-100248000D01*
X151511000Y-100076000D01*
X151500994Y-100026590D01*
X151473803Y-99986197D01*
X151219803Y-99732197D01*
X151177789Y-99704334D01*
X151130000Y-99695000D01*
X144324606Y-99695000D01*
X144107803Y-99478197D01*
X144065789Y-99450334D01*
X144018000Y-99441000D01*
X135509000Y-99441000D01*
X135509000Y-96826606D01*
X136268490Y-96067116D01*
X137290159Y-96067116D01*
X137495218Y-96479784D01*
X137842589Y-96782567D01*
X138120886Y-96897829D01*
X138303000Y-96836297D01*
X138303000Y-95885000D01*
X137351086Y-95885000D01*
X137290159Y-96067116D01*
X136268490Y-96067116D01*
X137720606Y-94615000D01*
X138302998Y-94615000D01*
X138302998Y-94679702D01*
G36*
X113085004Y-85252181D02*
X113027000Y-85392215D01*
X113027000Y-86645750D01*
X113122250Y-86741000D01*
X114681000Y-86741000D01*
X114681000Y-86721000D01*
X114935000Y-86721000D01*
X114935000Y-86741000D01*
X116493750Y-86741000D01*
X116589000Y-86645750D01*
X116589000Y-85392215D01*
X116530996Y-85252181D01*
X116495815Y-85217000D01*
X121793000Y-85217000D01*
X121793000Y-98171000D01*
X112776000Y-98171000D01*
X112726590Y-98181006D01*
X112684965Y-98209447D01*
X112657685Y-98251841D01*
X112649000Y-98298000D01*
X112649000Y-103378000D01*
X112659006Y-103427410D01*
X112687447Y-103469035D01*
X112729841Y-103496315D01*
X112776000Y-103505000D01*
X142812716Y-103505000D01*
X142509201Y-103807985D01*
X142283257Y-104352118D01*
X142282743Y-104941297D01*
X142507737Y-105485823D01*
X142923985Y-105902799D01*
X143468118Y-106128743D01*
X144057297Y-106129257D01*
X144601823Y-105904263D01*
X145018799Y-105488015D01*
X145244743Y-104943882D01*
X145245257Y-104354703D01*
X145117482Y-104045466D01*
X145403948Y-103759000D01*
X145545163Y-103759000D01*
X145587546Y-103824865D01*
X145714866Y-103911859D01*
X145866000Y-103942464D01*
X148266000Y-103942464D01*
X148407190Y-103915897D01*
X148462596Y-103880244D01*
X148508866Y-103911859D01*
X148660000Y-103942464D01*
X151060000Y-103942464D01*
X151201190Y-103915897D01*
X151330865Y-103832454D01*
X151381054Y-103759000D01*
X168148000Y-103759000D01*
X168197410Y-103748994D01*
X168237803Y-103721803D01*
X170777803Y-101181803D01*
X170805666Y-101139789D01*
X170815000Y-101092000D01*
X170815000Y-96266000D01*
X170804994Y-96216590D01*
X170776553Y-96174965D01*
X170734159Y-96147685D01*
X170688000Y-96139000D01*
X161671000Y-96139000D01*
X161671000Y-94574250D01*
X166875000Y-94574250D01*
X166875000Y-95827785D01*
X166933004Y-95967819D01*
X167040180Y-96074996D01*
X167180214Y-96133000D01*
X168433750Y-96133000D01*
X168529000Y-96037750D01*
X168529000Y-94479000D01*
X168783000Y-94479000D01*
X168783000Y-96037750D01*
X168878250Y-96133000D01*
X170131786Y-96133000D01*
X170271820Y-96074996D01*
X170378996Y-95967819D01*
X170437000Y-95827785D01*
X170437000Y-94574250D01*
X170341750Y-94479000D01*
X168783000Y-94479000D01*
X168529000Y-94479000D01*
X166970250Y-94479000D01*
X166875000Y-94574250D01*
X161671000Y-94574250D01*
X161671000Y-92876215D01*
X166875000Y-92876215D01*
X166875000Y-94129750D01*
X166970250Y-94225000D01*
X168529000Y-94225000D01*
X168529000Y-92666250D01*
X168783000Y-92666250D01*
X168783000Y-94225000D01*
X170341750Y-94225000D01*
X170437000Y-94129750D01*
X170437000Y-92876215D01*
X170378996Y-92736181D01*
X170271820Y-92629004D01*
X170131786Y-92571000D01*
X168878250Y-92571000D01*
X168783000Y-92666250D01*
X168529000Y-92666250D01*
X168433750Y-92571000D01*
X167180214Y-92571000D01*
X167040180Y-92629004D01*
X166933004Y-92736181D01*
X166875000Y-92876215D01*
X161671000Y-92876215D01*
X161671000Y-86816000D01*
X172264000Y-86816000D01*
X172264000Y-107494000D01*
X111200000Y-107494000D01*
X111200000Y-96606250D01*
X113027000Y-96606250D01*
X113027000Y-97859785D01*
X113085004Y-97999819D01*
X113192180Y-98106996D01*
X113332214Y-98165000D01*
X114585750Y-98165000D01*
X114681000Y-98069750D01*
X114681000Y-96511000D01*
X114935000Y-96511000D01*
X114935000Y-98069750D01*
X115030250Y-98165000D01*
X116283786Y-98165000D01*
X116423820Y-98106996D01*
X116530996Y-97999819D01*
X116589000Y-97859785D01*
X116589000Y-96606250D01*
X116493750Y-96511000D01*
X114935000Y-96511000D01*
X114681000Y-96511000D01*
X113122250Y-96511000D01*
X113027000Y-96606250D01*
X111200000Y-96606250D01*
X111200000Y-94908215D01*
X113027000Y-94908215D01*
X113027000Y-96161750D01*
X113122250Y-96257000D01*
X114681000Y-96257000D01*
X114681000Y-94698250D01*
X114935000Y-94698250D01*
X114935000Y-96257000D01*
X116493750Y-96257000D01*
X116589000Y-96161750D01*
X116589000Y-94908215D01*
X116530996Y-94768181D01*
X116423820Y-94661004D01*
X116283786Y-94603000D01*
X115030250Y-94603000D01*
X114935000Y-94698250D01*
X114681000Y-94698250D01*
X114585750Y-94603000D01*
X113332214Y-94603000D01*
X113192180Y-94661004D01*
X113085004Y-94768181D01*
X113027000Y-94908215D01*
X111200000Y-94908215D01*
X111200000Y-87090250D01*
X113027000Y-87090250D01*
X113027000Y-88343785D01*
X113085004Y-88483819D01*
X113192180Y-88590996D01*
X113332214Y-88649000D01*
X114585750Y-88649000D01*
X114681000Y-88553750D01*
X114681000Y-86995000D01*
X114935000Y-86995000D01*
X114935000Y-88553750D01*
X115030250Y-88649000D01*
X116283786Y-88649000D01*
X116423820Y-88590996D01*
X116530996Y-88483819D01*
X116589000Y-88343785D01*
X116589000Y-87090250D01*
X116493750Y-86995000D01*
X114935000Y-86995000D01*
X114681000Y-86995000D01*
X113122250Y-86995000D01*
X113027000Y-87090250D01*
X111200000Y-87090250D01*
X111200000Y-85217000D01*
X113120185Y-85217000D01*
X113085004Y-85252181D01*
X113085004Y-85252181D01*
G37*
X113085004Y-85252181D02*
X113027000Y-85392215D01*
X113027000Y-86645750D01*
X113122250Y-86741000D01*
X114681000Y-86741000D01*
X114681000Y-86721000D01*
X114935000Y-86721000D01*
X114935000Y-86741000D01*
X116493750Y-86741000D01*
X116589000Y-86645750D01*
X116589000Y-85392215D01*
X116530996Y-85252181D01*
X116495815Y-85217000D01*
X121793000Y-85217000D01*
X121793000Y-98171000D01*
X112776000Y-98171000D01*
X112726590Y-98181006D01*
X112684965Y-98209447D01*
X112657685Y-98251841D01*
X112649000Y-98298000D01*
X112649000Y-103378000D01*
X112659006Y-103427410D01*
X112687447Y-103469035D01*
X112729841Y-103496315D01*
X112776000Y-103505000D01*
X142812716Y-103505000D01*
X142509201Y-103807985D01*
X142283257Y-104352118D01*
X142282743Y-104941297D01*
X142507737Y-105485823D01*
X142923985Y-105902799D01*
X143468118Y-106128743D01*
X144057297Y-106129257D01*
X144601823Y-105904263D01*
X145018799Y-105488015D01*
X145244743Y-104943882D01*
X145245257Y-104354703D01*
X145117482Y-104045466D01*
X145403948Y-103759000D01*
X145545163Y-103759000D01*
X145587546Y-103824865D01*
X145714866Y-103911859D01*
X145866000Y-103942464D01*
X148266000Y-103942464D01*
X148407190Y-103915897D01*
X148462596Y-103880244D01*
X148508866Y-103911859D01*
X148660000Y-103942464D01*
X151060000Y-103942464D01*
X151201190Y-103915897D01*
X151330865Y-103832454D01*
X151381054Y-103759000D01*
X168148000Y-103759000D01*
X168197410Y-103748994D01*
X168237803Y-103721803D01*
X170777803Y-101181803D01*
X170805666Y-101139789D01*
X170815000Y-101092000D01*
X170815000Y-96266000D01*
X170804994Y-96216590D01*
X170776553Y-96174965D01*
X170734159Y-96147685D01*
X170688000Y-96139000D01*
X161671000Y-96139000D01*
X161671000Y-94574250D01*
X166875000Y-94574250D01*
X166875000Y-95827785D01*
X166933004Y-95967819D01*
X167040180Y-96074996D01*
X167180214Y-96133000D01*
X168433750Y-96133000D01*
X168529000Y-96037750D01*
X168529000Y-94479000D01*
X168783000Y-94479000D01*
X168783000Y-96037750D01*
X168878250Y-96133000D01*
X170131786Y-96133000D01*
X170271820Y-96074996D01*
X170378996Y-95967819D01*
X170437000Y-95827785D01*
X170437000Y-94574250D01*
X170341750Y-94479000D01*
X168783000Y-94479000D01*
X168529000Y-94479000D01*
X166970250Y-94479000D01*
X166875000Y-94574250D01*
X161671000Y-94574250D01*
X161671000Y-92876215D01*
X166875000Y-92876215D01*
X166875000Y-94129750D01*
X166970250Y-94225000D01*
X168529000Y-94225000D01*
X168529000Y-92666250D01*
X168783000Y-92666250D01*
X168783000Y-94225000D01*
X170341750Y-94225000D01*
X170437000Y-94129750D01*
X170437000Y-92876215D01*
X170378996Y-92736181D01*
X170271820Y-92629004D01*
X170131786Y-92571000D01*
X168878250Y-92571000D01*
X168783000Y-92666250D01*
X168529000Y-92666250D01*
X168433750Y-92571000D01*
X167180214Y-92571000D01*
X167040180Y-92629004D01*
X166933004Y-92736181D01*
X166875000Y-92876215D01*
X161671000Y-92876215D01*
X161671000Y-86816000D01*
X172264000Y-86816000D01*
X172264000Y-107494000D01*
X111200000Y-107494000D01*
X111200000Y-96606250D01*
X113027000Y-96606250D01*
X113027000Y-97859785D01*
X113085004Y-97999819D01*
X113192180Y-98106996D01*
X113332214Y-98165000D01*
X114585750Y-98165000D01*
X114681000Y-98069750D01*
X114681000Y-96511000D01*
X114935000Y-96511000D01*
X114935000Y-98069750D01*
X115030250Y-98165000D01*
X116283786Y-98165000D01*
X116423820Y-98106996D01*
X116530996Y-97999819D01*
X116589000Y-97859785D01*
X116589000Y-96606250D01*
X116493750Y-96511000D01*
X114935000Y-96511000D01*
X114681000Y-96511000D01*
X113122250Y-96511000D01*
X113027000Y-96606250D01*
X111200000Y-96606250D01*
X111200000Y-94908215D01*
X113027000Y-94908215D01*
X113027000Y-96161750D01*
X113122250Y-96257000D01*
X114681000Y-96257000D01*
X114681000Y-94698250D01*
X114935000Y-94698250D01*
X114935000Y-96257000D01*
X116493750Y-96257000D01*
X116589000Y-96161750D01*
X116589000Y-94908215D01*
X116530996Y-94768181D01*
X116423820Y-94661004D01*
X116283786Y-94603000D01*
X115030250Y-94603000D01*
X114935000Y-94698250D01*
X114681000Y-94698250D01*
X114585750Y-94603000D01*
X113332214Y-94603000D01*
X113192180Y-94661004D01*
X113085004Y-94768181D01*
X113027000Y-94908215D01*
X111200000Y-94908215D01*
X111200000Y-87090250D01*
X113027000Y-87090250D01*
X113027000Y-88343785D01*
X113085004Y-88483819D01*
X113192180Y-88590996D01*
X113332214Y-88649000D01*
X114585750Y-88649000D01*
X114681000Y-88553750D01*
X114681000Y-86995000D01*
X114935000Y-86995000D01*
X114935000Y-88553750D01*
X115030250Y-88649000D01*
X116283786Y-88649000D01*
X116423820Y-88590996D01*
X116530996Y-88483819D01*
X116589000Y-88343785D01*
X116589000Y-87090250D01*
X116493750Y-86995000D01*
X114935000Y-86995000D01*
X114681000Y-86995000D01*
X113122250Y-86995000D01*
X113027000Y-87090250D01*
X111200000Y-87090250D01*
X111200000Y-85217000D01*
X113120185Y-85217000D01*
X113085004Y-85252181D01*
M02*
