M48
;DRILL file {KiCad 4.0.7-e2-6376~58~ubuntu16.04.1} date Tue Apr 10 12:50:10 2018
;FORMAT={-:-/ absolute / inch / decimal}
FMAT,2
INCH,TZ
T1C0.031
T2C0.055
%
G90
G05
M72
T1
X5.45Y-3.47
X5.45Y-3.77
X5.55Y-3.47
X5.55Y-3.77
X5.65Y-3.47
X5.65Y-3.77
X5.75Y-3.47
X5.75Y-3.77
X5.85Y-3.47
X5.85Y-3.77
T2
X4.52Y-3.2546
X4.52Y-3.42
X4.52Y-3.61
X4.52Y-3.7946
X4.52Y-3.96
X5.25Y-3.52
X5.66Y-4.12
X5.7101Y-3.8999
X6.64Y-3.7146
X6.64Y-3.88
T0
M30
