G04 #@! TF.FileFunction,Copper,L1,Top,Signal*
%FSLAX46Y46*%
G04 Gerber Fmt 4.6, Leading zero omitted, Abs format (unit mm)*
G04 Created by KiCad (PCBNEW 4.0.4-stable) date 05/22/17 07:46:13*
%MOMM*%
%LPD*%
G01*
G04 APERTURE LIST*
%ADD10C,0.100000*%
%ADD11R,1.250000X1.500000*%
%ADD12R,1.700000X1.700000*%
%ADD13R,4.700000X1.500000*%
%ADD14R,4.200000X3.100000*%
%ADD15R,0.700000X1.150000*%
%ADD16R,1.300000X1.500000*%
%ADD17R,1.500000X1.500000*%
%ADD18C,1.500000*%
%ADD19R,1.220000X0.400000*%
%ADD20C,1.524000*%
%ADD21C,0.500000*%
%ADD22C,0.300000*%
%ADD23C,1.000000*%
%ADD24C,0.250000*%
G04 APERTURE END LIST*
D10*
D11*
X133604000Y-68834000D03*
X133604000Y-66334000D03*
X137160000Y-55880000D03*
X137160000Y-58380000D03*
D12*
X129286000Y-60706000D03*
D13*
X144404000Y-77611000D03*
D14*
X144404000Y-75311000D03*
D15*
X146304000Y-72136000D03*
X145034000Y-72136000D03*
X143764000Y-72136000D03*
X142494000Y-72136000D03*
D16*
X145542000Y-58674000D03*
X145542000Y-55974000D03*
X140716000Y-55880000D03*
X140716000Y-58580000D03*
D17*
X148114000Y-66294000D03*
D18*
X150114000Y-66294000D03*
D19*
X139406000Y-62271000D03*
X139406000Y-62921000D03*
X139406000Y-63571000D03*
X139406000Y-64221000D03*
X142026000Y-64221000D03*
X142026000Y-63571000D03*
X142026000Y-62921000D03*
X142026000Y-62271000D03*
D20*
X129286000Y-55880000D03*
X138176000Y-75438000D03*
X150622000Y-57912000D03*
X153162000Y-72136000D03*
D12*
X133604000Y-75438000D03*
X153162000Y-76962000D03*
D21*
X150114000Y-66294000D02*
X150114000Y-67354660D01*
X150114000Y-67354660D02*
X148634660Y-68834000D01*
X148634660Y-68834000D02*
X136906000Y-68834000D01*
X136398000Y-80264000D02*
X133604000Y-77470000D01*
X133604000Y-77470000D02*
X133604000Y-75438000D01*
X151210000Y-80264000D02*
X136398000Y-80264000D01*
X153162000Y-76962000D02*
X153162000Y-78312000D01*
X153162000Y-78312000D02*
X151210000Y-80264000D01*
X133604000Y-68834000D02*
X133604000Y-75438000D01*
X136906000Y-68834000D02*
X139406000Y-66334000D01*
X139406000Y-66334000D02*
X139406000Y-64271001D01*
X133604000Y-68834000D02*
X136906000Y-68834000D01*
X137160000Y-58380000D02*
X137160000Y-58505000D01*
X137160000Y-58505000D02*
X139406000Y-60751000D01*
X139406000Y-60751000D02*
X139406000Y-62220999D01*
X129286000Y-60706000D02*
X129286000Y-59356000D01*
X129286000Y-59356000D02*
X130262000Y-58380000D01*
X130262000Y-58380000D02*
X136035000Y-58380000D01*
X136035000Y-58380000D02*
X137160000Y-58380000D01*
D22*
X133604000Y-64516000D02*
X134549000Y-63571000D01*
X134549000Y-63571000D02*
X139406000Y-63571000D01*
X133604000Y-66334000D02*
X133604000Y-64516000D01*
D21*
X140716000Y-55880000D02*
X145448000Y-55880000D01*
X145448000Y-55880000D02*
X145542000Y-55974000D01*
X137160000Y-55880000D02*
X140716000Y-55880000D01*
X129286000Y-55880000D02*
X137160000Y-55880000D01*
D23*
X144404000Y-75311000D02*
X144404000Y-77611000D01*
X138176000Y-75438000D02*
X144277000Y-75438000D01*
X144277000Y-75438000D02*
X144404000Y-75311000D01*
D22*
X143510000Y-69596000D02*
X142494000Y-70612000D01*
X142494000Y-70612000D02*
X142494000Y-72136000D01*
X150368000Y-69596000D02*
X143510000Y-69596000D01*
X152146000Y-67818000D02*
X150368000Y-69596000D01*
X152146000Y-59436000D02*
X152146000Y-67818000D01*
X150622000Y-57912000D02*
X152146000Y-59436000D01*
X142026000Y-62921000D02*
X145613000Y-62921000D01*
X145613000Y-62921000D02*
X150622000Y-57912000D01*
D21*
X146304000Y-72136000D02*
X153162000Y-72136000D01*
X145034000Y-72136000D02*
X146304000Y-72136000D01*
X143764000Y-72136000D02*
X145034000Y-72136000D01*
D24*
X147523002Y-57708998D02*
X146558000Y-58674000D01*
X146558000Y-58674000D02*
X145542000Y-58674000D01*
X147523002Y-55880000D02*
X147523002Y-57708998D01*
X128524000Y-54102000D02*
X145745002Y-54102000D01*
X145745002Y-54102000D02*
X147523002Y-55880000D01*
X127254000Y-55372000D02*
X128524000Y-54102000D01*
X127254000Y-62484000D02*
X127254000Y-55372000D01*
X127691000Y-62921000D02*
X127254000Y-62484000D01*
X139406000Y-62921000D02*
X127691000Y-62921000D01*
D22*
X145542000Y-61214000D02*
X144485000Y-62271000D01*
X144485000Y-62271000D02*
X142026000Y-62271000D01*
X145542000Y-58674000D02*
X145542000Y-61214000D01*
X140716000Y-58580000D02*
X140716000Y-63171000D01*
X140716000Y-63171000D02*
X141116000Y-63571000D01*
X141116000Y-63571000D02*
X142026000Y-63571000D01*
X148114000Y-66294000D02*
X143599000Y-66294000D01*
X143599000Y-66294000D02*
X142026000Y-64721000D01*
X142026000Y-64721000D02*
X142026000Y-64221000D01*
M02*
