G04 #@! TF.GenerationSoftware,KiCad,Pcbnew,6.0.0-unknown-9810725~86~ubuntu18.04.1*
G04 #@! TF.CreationDate,2019-07-01T12:49:01-06:00*
G04 #@! TF.ProjectId,main_board_onion,6d61696e-5f62-46f6-9172-645f6f6e696f,rev?*
G04 #@! TF.SameCoordinates,Original*
G04 #@! TF.FileFunction,Paste,Bot*
G04 #@! TF.FilePolarity,Positive*
%FSLAX46Y46*%
G04 Gerber Fmt 4.6, Leading zero omitted, Abs format (unit mm)*
G04 Created by KiCad (PCBNEW 6.0.0-unknown-9810725~86~ubuntu18.04.1) date 2019-07-01 12:49:01*
%MOMM*%
%LPD*%
G04 APERTURE LIST*
%ADD10C,0.100000*%
%ADD11R,0.740000X2.400000*%
%ADD12C,0.590000*%
%ADD13C,0.875000*%
%ADD14C,1.200000*%
%ADD15C,0.600000*%
%ADD16R,0.800000X0.250000*%
%ADD17R,0.250000X0.800000*%
%ADD18R,1.650000X6.600000*%
%ADD19R,0.285000X1.100000*%
%ADD20R,0.900000X0.600000*%
%ADD21R,0.600000X0.900000*%
%ADD22R,0.600000X1.050000*%
%ADD23R,1.050000X0.600000*%
%ADD24R,0.800000X0.900000*%
%ADD25R,0.900000X1.200000*%
%ADD26R,1.200000X0.900000*%
G04 APERTURE END LIST*
D10*
G36*
X125197000Y-112403000D02*
G01*
X125197000Y-113546000D01*
X124054000Y-113546000D01*
X124054000Y-112403000D01*
X125197000Y-112403000D01*
G37*
G36*
X123546000Y-114054000D02*
G01*
X123546000Y-115197000D01*
X122403000Y-115197000D01*
X122403000Y-114054000D01*
X123546000Y-114054000D01*
G37*
G36*
X123546000Y-112403000D02*
G01*
X123546000Y-113546000D01*
X122403000Y-113546000D01*
X122403000Y-112403000D01*
X123546000Y-112403000D01*
G37*
G36*
X125197000Y-114054000D02*
G01*
X125197000Y-115197000D01*
X124054000Y-115197000D01*
X124054000Y-114054000D01*
X125197000Y-114054000D01*
G37*
D11*
X127590000Y-101500000D03*
X127590000Y-105400000D03*
X128860000Y-101500000D03*
X128860000Y-105400000D03*
X130130000Y-101500000D03*
X130130000Y-105400000D03*
X131400000Y-101500000D03*
X131400000Y-105400000D03*
X132670000Y-101500000D03*
X132670000Y-105400000D03*
D10*
G36*
X181428946Y-79201228D02*
G01*
X181476798Y-79233202D01*
X181508772Y-79281054D01*
X181520000Y-79337500D01*
X181520000Y-79632500D01*
X181508772Y-79688946D01*
X181476798Y-79736798D01*
X181428946Y-79768772D01*
X181372500Y-79780000D01*
X181027500Y-79780000D01*
X180971054Y-79768772D01*
X180923202Y-79736798D01*
X180891228Y-79688946D01*
X180880000Y-79632500D01*
X180880000Y-79337500D01*
X180891228Y-79281054D01*
X180923202Y-79233202D01*
X180971054Y-79201228D01*
X181027500Y-79190000D01*
X181372500Y-79190000D01*
X181428946Y-79201228D01*
X181428946Y-79201228D01*
G37*
D12*
X181200000Y-79485000D03*
D10*
G36*
X181428946Y-78231228D02*
G01*
X181476798Y-78263202D01*
X181508772Y-78311054D01*
X181520000Y-78367500D01*
X181520000Y-78662500D01*
X181508772Y-78718946D01*
X181476798Y-78766798D01*
X181428946Y-78798772D01*
X181372500Y-78810000D01*
X181027500Y-78810000D01*
X180971054Y-78798772D01*
X180923202Y-78766798D01*
X180891228Y-78718946D01*
X180880000Y-78662500D01*
X180880000Y-78367500D01*
X180891228Y-78311054D01*
X180923202Y-78263202D01*
X180971054Y-78231228D01*
X181027500Y-78220000D01*
X181372500Y-78220000D01*
X181428946Y-78231228D01*
X181428946Y-78231228D01*
G37*
D12*
X181200000Y-78515000D03*
D10*
G36*
X182628946Y-83086228D02*
G01*
X182676798Y-83118202D01*
X182708772Y-83166054D01*
X182720000Y-83222500D01*
X182720000Y-83517500D01*
X182708772Y-83573946D01*
X182676798Y-83621798D01*
X182628946Y-83653772D01*
X182572500Y-83665000D01*
X182227500Y-83665000D01*
X182171054Y-83653772D01*
X182123202Y-83621798D01*
X182091228Y-83573946D01*
X182080000Y-83517500D01*
X182080000Y-83222500D01*
X182091228Y-83166054D01*
X182123202Y-83118202D01*
X182171054Y-83086228D01*
X182227500Y-83075000D01*
X182572500Y-83075000D01*
X182628946Y-83086228D01*
X182628946Y-83086228D01*
G37*
D12*
X182400000Y-83370000D03*
D10*
G36*
X182628946Y-82116228D02*
G01*
X182676798Y-82148202D01*
X182708772Y-82196054D01*
X182720000Y-82252500D01*
X182720000Y-82547500D01*
X182708772Y-82603946D01*
X182676798Y-82651798D01*
X182628946Y-82683772D01*
X182572500Y-82695000D01*
X182227500Y-82695000D01*
X182171054Y-82683772D01*
X182123202Y-82651798D01*
X182091228Y-82603946D01*
X182080000Y-82547500D01*
X182080000Y-82252500D01*
X182091228Y-82196054D01*
X182123202Y-82148202D01*
X182171054Y-82116228D01*
X182227500Y-82105000D01*
X182572500Y-82105000D01*
X182628946Y-82116228D01*
X182628946Y-82116228D01*
G37*
D12*
X182400000Y-82400000D03*
D10*
G36*
X171888946Y-85791228D02*
G01*
X171936798Y-85823202D01*
X171968772Y-85871054D01*
X171980000Y-85927500D01*
X171980000Y-86272500D01*
X171968772Y-86328946D01*
X171936798Y-86376798D01*
X171888946Y-86408772D01*
X171832500Y-86420000D01*
X171537500Y-86420000D01*
X171481054Y-86408772D01*
X171433202Y-86376798D01*
X171401228Y-86328946D01*
X171390000Y-86272500D01*
X171390000Y-85927500D01*
X171401228Y-85871054D01*
X171433202Y-85823202D01*
X171481054Y-85791228D01*
X171537500Y-85780000D01*
X171832500Y-85780000D01*
X171888946Y-85791228D01*
X171888946Y-85791228D01*
G37*
D12*
X171685000Y-86100000D03*
D10*
G36*
X170918946Y-85791228D02*
G01*
X170966798Y-85823202D01*
X170998772Y-85871054D01*
X171010000Y-85927500D01*
X171010000Y-86272500D01*
X170998772Y-86328946D01*
X170966798Y-86376798D01*
X170918946Y-86408772D01*
X170862500Y-86420000D01*
X170567500Y-86420000D01*
X170511054Y-86408772D01*
X170463202Y-86376798D01*
X170431228Y-86328946D01*
X170420000Y-86272500D01*
X170420000Y-85927500D01*
X170431228Y-85871054D01*
X170463202Y-85823202D01*
X170511054Y-85791228D01*
X170567500Y-85780000D01*
X170862500Y-85780000D01*
X170918946Y-85791228D01*
X170918946Y-85791228D01*
G37*
D12*
X170715000Y-86100000D03*
D10*
G36*
X171903946Y-86991228D02*
G01*
X171951798Y-87023202D01*
X171983772Y-87071054D01*
X171995000Y-87127500D01*
X171995000Y-87472500D01*
X171983772Y-87528946D01*
X171951798Y-87576798D01*
X171903946Y-87608772D01*
X171847500Y-87620000D01*
X171552500Y-87620000D01*
X171496054Y-87608772D01*
X171448202Y-87576798D01*
X171416228Y-87528946D01*
X171405000Y-87472500D01*
X171405000Y-87127500D01*
X171416228Y-87071054D01*
X171448202Y-87023202D01*
X171496054Y-86991228D01*
X171552500Y-86980000D01*
X171847500Y-86980000D01*
X171903946Y-86991228D01*
X171903946Y-86991228D01*
G37*
D12*
X171700000Y-87300000D03*
D10*
G36*
X170933946Y-86991228D02*
G01*
X170981798Y-87023202D01*
X171013772Y-87071054D01*
X171025000Y-87127500D01*
X171025000Y-87472500D01*
X171013772Y-87528946D01*
X170981798Y-87576798D01*
X170933946Y-87608772D01*
X170877500Y-87620000D01*
X170582500Y-87620000D01*
X170526054Y-87608772D01*
X170478202Y-87576798D01*
X170446228Y-87528946D01*
X170435000Y-87472500D01*
X170435000Y-87127500D01*
X170446228Y-87071054D01*
X170478202Y-87023202D01*
X170526054Y-86991228D01*
X170582500Y-86980000D01*
X170877500Y-86980000D01*
X170933946Y-86991228D01*
X170933946Y-86991228D01*
G37*
D12*
X170730000Y-87300000D03*
D10*
G36*
X179288946Y-80891228D02*
G01*
X179336798Y-80923202D01*
X179368772Y-80971054D01*
X179380000Y-81027500D01*
X179380000Y-81372500D01*
X179368772Y-81428946D01*
X179336798Y-81476798D01*
X179288946Y-81508772D01*
X179232500Y-81520000D01*
X178937500Y-81520000D01*
X178881054Y-81508772D01*
X178833202Y-81476798D01*
X178801228Y-81428946D01*
X178790000Y-81372500D01*
X178790000Y-81027500D01*
X178801228Y-80971054D01*
X178833202Y-80923202D01*
X178881054Y-80891228D01*
X178937500Y-80880000D01*
X179232500Y-80880000D01*
X179288946Y-80891228D01*
X179288946Y-80891228D01*
G37*
D12*
X179085000Y-81200000D03*
D10*
G36*
X178318946Y-80891228D02*
G01*
X178366798Y-80923202D01*
X178398772Y-80971054D01*
X178410000Y-81027500D01*
X178410000Y-81372500D01*
X178398772Y-81428946D01*
X178366798Y-81476798D01*
X178318946Y-81508772D01*
X178262500Y-81520000D01*
X177967500Y-81520000D01*
X177911054Y-81508772D01*
X177863202Y-81476798D01*
X177831228Y-81428946D01*
X177820000Y-81372500D01*
X177820000Y-81027500D01*
X177831228Y-80971054D01*
X177863202Y-80923202D01*
X177911054Y-80891228D01*
X177967500Y-80880000D01*
X178262500Y-80880000D01*
X178318946Y-80891228D01*
X178318946Y-80891228D01*
G37*
D12*
X178115000Y-81200000D03*
D10*
G36*
X181173946Y-75091228D02*
G01*
X181221798Y-75123202D01*
X181253772Y-75171054D01*
X181265000Y-75227500D01*
X181265000Y-75572500D01*
X181253772Y-75628946D01*
X181221798Y-75676798D01*
X181173946Y-75708772D01*
X181117500Y-75720000D01*
X180822500Y-75720000D01*
X180766054Y-75708772D01*
X180718202Y-75676798D01*
X180686228Y-75628946D01*
X180675000Y-75572500D01*
X180675000Y-75227500D01*
X180686228Y-75171054D01*
X180718202Y-75123202D01*
X180766054Y-75091228D01*
X180822500Y-75080000D01*
X181117500Y-75080000D01*
X181173946Y-75091228D01*
X181173946Y-75091228D01*
G37*
D12*
X180970000Y-75400000D03*
D10*
G36*
X180203946Y-75091228D02*
G01*
X180251798Y-75123202D01*
X180283772Y-75171054D01*
X180295000Y-75227500D01*
X180295000Y-75572500D01*
X180283772Y-75628946D01*
X180251798Y-75676798D01*
X180203946Y-75708772D01*
X180147500Y-75720000D01*
X179852500Y-75720000D01*
X179796054Y-75708772D01*
X179748202Y-75676798D01*
X179716228Y-75628946D01*
X179705000Y-75572500D01*
X179705000Y-75227500D01*
X179716228Y-75171054D01*
X179748202Y-75123202D01*
X179796054Y-75091228D01*
X179852500Y-75080000D01*
X180147500Y-75080000D01*
X180203946Y-75091228D01*
X180203946Y-75091228D01*
G37*
D12*
X180000000Y-75400000D03*
D10*
G36*
X171903946Y-88191228D02*
G01*
X171951798Y-88223202D01*
X171983772Y-88271054D01*
X171995000Y-88327500D01*
X171995000Y-88672500D01*
X171983772Y-88728946D01*
X171951798Y-88776798D01*
X171903946Y-88808772D01*
X171847500Y-88820000D01*
X171552500Y-88820000D01*
X171496054Y-88808772D01*
X171448202Y-88776798D01*
X171416228Y-88728946D01*
X171405000Y-88672500D01*
X171405000Y-88327500D01*
X171416228Y-88271054D01*
X171448202Y-88223202D01*
X171496054Y-88191228D01*
X171552500Y-88180000D01*
X171847500Y-88180000D01*
X171903946Y-88191228D01*
X171903946Y-88191228D01*
G37*
D12*
X171700000Y-88500000D03*
D10*
G36*
X170933946Y-88191228D02*
G01*
X170981798Y-88223202D01*
X171013772Y-88271054D01*
X171025000Y-88327500D01*
X171025000Y-88672500D01*
X171013772Y-88728946D01*
X170981798Y-88776798D01*
X170933946Y-88808772D01*
X170877500Y-88820000D01*
X170582500Y-88820000D01*
X170526054Y-88808772D01*
X170478202Y-88776798D01*
X170446228Y-88728946D01*
X170435000Y-88672500D01*
X170435000Y-88327500D01*
X170446228Y-88271054D01*
X170478202Y-88223202D01*
X170526054Y-88191228D01*
X170582500Y-88180000D01*
X170877500Y-88180000D01*
X170933946Y-88191228D01*
X170933946Y-88191228D01*
G37*
D12*
X170730000Y-88500000D03*
D10*
G36*
X179288946Y-82091228D02*
G01*
X179336798Y-82123202D01*
X179368772Y-82171054D01*
X179380000Y-82227500D01*
X179380000Y-82572500D01*
X179368772Y-82628946D01*
X179336798Y-82676798D01*
X179288946Y-82708772D01*
X179232500Y-82720000D01*
X178937500Y-82720000D01*
X178881054Y-82708772D01*
X178833202Y-82676798D01*
X178801228Y-82628946D01*
X178790000Y-82572500D01*
X178790000Y-82227500D01*
X178801228Y-82171054D01*
X178833202Y-82123202D01*
X178881054Y-82091228D01*
X178937500Y-82080000D01*
X179232500Y-82080000D01*
X179288946Y-82091228D01*
X179288946Y-82091228D01*
G37*
D12*
X179085000Y-82400000D03*
D10*
G36*
X178318946Y-82091228D02*
G01*
X178366798Y-82123202D01*
X178398772Y-82171054D01*
X178410000Y-82227500D01*
X178410000Y-82572500D01*
X178398772Y-82628946D01*
X178366798Y-82676798D01*
X178318946Y-82708772D01*
X178262500Y-82720000D01*
X177967500Y-82720000D01*
X177911054Y-82708772D01*
X177863202Y-82676798D01*
X177831228Y-82628946D01*
X177820000Y-82572500D01*
X177820000Y-82227500D01*
X177831228Y-82171054D01*
X177863202Y-82123202D01*
X177911054Y-82091228D01*
X177967500Y-82080000D01*
X178262500Y-82080000D01*
X178318946Y-82091228D01*
X178318946Y-82091228D01*
G37*
D12*
X178115000Y-82400000D03*
D10*
G36*
X167306446Y-91691228D02*
G01*
X167354298Y-91723202D01*
X167386272Y-91771054D01*
X167397500Y-91827500D01*
X167397500Y-92172500D01*
X167386272Y-92228946D01*
X167354298Y-92276798D01*
X167306446Y-92308772D01*
X167250000Y-92320000D01*
X166955000Y-92320000D01*
X166898554Y-92308772D01*
X166850702Y-92276798D01*
X166818728Y-92228946D01*
X166807500Y-92172500D01*
X166807500Y-91827500D01*
X166818728Y-91771054D01*
X166850702Y-91723202D01*
X166898554Y-91691228D01*
X166955000Y-91680000D01*
X167250000Y-91680000D01*
X167306446Y-91691228D01*
X167306446Y-91691228D01*
G37*
D12*
X167102500Y-92000000D03*
D10*
G36*
X168276446Y-91691228D02*
G01*
X168324298Y-91723202D01*
X168356272Y-91771054D01*
X168367500Y-91827500D01*
X168367500Y-92172500D01*
X168356272Y-92228946D01*
X168324298Y-92276798D01*
X168276446Y-92308772D01*
X168220000Y-92320000D01*
X167925000Y-92320000D01*
X167868554Y-92308772D01*
X167820702Y-92276798D01*
X167788728Y-92228946D01*
X167777500Y-92172500D01*
X167777500Y-91827500D01*
X167788728Y-91771054D01*
X167820702Y-91723202D01*
X167868554Y-91691228D01*
X167925000Y-91680000D01*
X168220000Y-91680000D01*
X168276446Y-91691228D01*
X168276446Y-91691228D01*
G37*
D12*
X168072500Y-92000000D03*
D10*
G36*
X167306446Y-93091228D02*
G01*
X167354298Y-93123202D01*
X167386272Y-93171054D01*
X167397500Y-93227500D01*
X167397500Y-93572500D01*
X167386272Y-93628946D01*
X167354298Y-93676798D01*
X167306446Y-93708772D01*
X167250000Y-93720000D01*
X166955000Y-93720000D01*
X166898554Y-93708772D01*
X166850702Y-93676798D01*
X166818728Y-93628946D01*
X166807500Y-93572500D01*
X166807500Y-93227500D01*
X166818728Y-93171054D01*
X166850702Y-93123202D01*
X166898554Y-93091228D01*
X166955000Y-93080000D01*
X167250000Y-93080000D01*
X167306446Y-93091228D01*
X167306446Y-93091228D01*
G37*
D12*
X167102500Y-93400000D03*
D10*
G36*
X168276446Y-93091228D02*
G01*
X168324298Y-93123202D01*
X168356272Y-93171054D01*
X168367500Y-93227500D01*
X168367500Y-93572500D01*
X168356272Y-93628946D01*
X168324298Y-93676798D01*
X168276446Y-93708772D01*
X168220000Y-93720000D01*
X167925000Y-93720000D01*
X167868554Y-93708772D01*
X167820702Y-93676798D01*
X167788728Y-93628946D01*
X167777500Y-93572500D01*
X167777500Y-93227500D01*
X167788728Y-93171054D01*
X167820702Y-93123202D01*
X167868554Y-93091228D01*
X167925000Y-93080000D01*
X168220000Y-93080000D01*
X168276446Y-93091228D01*
X168276446Y-93091228D01*
G37*
D12*
X168072500Y-93400000D03*
D10*
G36*
X167318946Y-95491228D02*
G01*
X167366798Y-95523202D01*
X167398772Y-95571054D01*
X167410000Y-95627500D01*
X167410000Y-95972500D01*
X167398772Y-96028946D01*
X167366798Y-96076798D01*
X167318946Y-96108772D01*
X167262500Y-96120000D01*
X166967500Y-96120000D01*
X166911054Y-96108772D01*
X166863202Y-96076798D01*
X166831228Y-96028946D01*
X166820000Y-95972500D01*
X166820000Y-95627500D01*
X166831228Y-95571054D01*
X166863202Y-95523202D01*
X166911054Y-95491228D01*
X166967500Y-95480000D01*
X167262500Y-95480000D01*
X167318946Y-95491228D01*
X167318946Y-95491228D01*
G37*
D12*
X167115000Y-95800000D03*
D10*
G36*
X168288946Y-95491228D02*
G01*
X168336798Y-95523202D01*
X168368772Y-95571054D01*
X168380000Y-95627500D01*
X168380000Y-95972500D01*
X168368772Y-96028946D01*
X168336798Y-96076798D01*
X168288946Y-96108772D01*
X168232500Y-96120000D01*
X167937500Y-96120000D01*
X167881054Y-96108772D01*
X167833202Y-96076798D01*
X167801228Y-96028946D01*
X167790000Y-95972500D01*
X167790000Y-95627500D01*
X167801228Y-95571054D01*
X167833202Y-95523202D01*
X167881054Y-95491228D01*
X167937500Y-95480000D01*
X168232500Y-95480000D01*
X168288946Y-95491228D01*
X168288946Y-95491228D01*
G37*
D12*
X168085000Y-95800000D03*
D10*
G36*
X169628946Y-95401228D02*
G01*
X169676798Y-95433202D01*
X169708772Y-95481054D01*
X169720000Y-95537500D01*
X169720000Y-95832500D01*
X169708772Y-95888946D01*
X169676798Y-95936798D01*
X169628946Y-95968772D01*
X169572500Y-95980000D01*
X169227500Y-95980000D01*
X169171054Y-95968772D01*
X169123202Y-95936798D01*
X169091228Y-95888946D01*
X169080000Y-95832500D01*
X169080000Y-95537500D01*
X169091228Y-95481054D01*
X169123202Y-95433202D01*
X169171054Y-95401228D01*
X169227500Y-95390000D01*
X169572500Y-95390000D01*
X169628946Y-95401228D01*
X169628946Y-95401228D01*
G37*
D12*
X169400000Y-95685000D03*
D10*
G36*
X169628946Y-94431228D02*
G01*
X169676798Y-94463202D01*
X169708772Y-94511054D01*
X169720000Y-94567500D01*
X169720000Y-94862500D01*
X169708772Y-94918946D01*
X169676798Y-94966798D01*
X169628946Y-94998772D01*
X169572500Y-95010000D01*
X169227500Y-95010000D01*
X169171054Y-94998772D01*
X169123202Y-94966798D01*
X169091228Y-94918946D01*
X169080000Y-94862500D01*
X169080000Y-94567500D01*
X169091228Y-94511054D01*
X169123202Y-94463202D01*
X169171054Y-94431228D01*
X169227500Y-94420000D01*
X169572500Y-94420000D01*
X169628946Y-94431228D01*
X169628946Y-94431228D01*
G37*
D12*
X169400000Y-94715000D03*
D10*
G36*
X168288946Y-94291228D02*
G01*
X168336798Y-94323202D01*
X168368772Y-94371054D01*
X168380000Y-94427500D01*
X168380000Y-94772500D01*
X168368772Y-94828946D01*
X168336798Y-94876798D01*
X168288946Y-94908772D01*
X168232500Y-94920000D01*
X167937500Y-94920000D01*
X167881054Y-94908772D01*
X167833202Y-94876798D01*
X167801228Y-94828946D01*
X167790000Y-94772500D01*
X167790000Y-94427500D01*
X167801228Y-94371054D01*
X167833202Y-94323202D01*
X167881054Y-94291228D01*
X167937500Y-94280000D01*
X168232500Y-94280000D01*
X168288946Y-94291228D01*
X168288946Y-94291228D01*
G37*
D12*
X168085000Y-94600000D03*
D10*
G36*
X167318946Y-94291228D02*
G01*
X167366798Y-94323202D01*
X167398772Y-94371054D01*
X167410000Y-94427500D01*
X167410000Y-94772500D01*
X167398772Y-94828946D01*
X167366798Y-94876798D01*
X167318946Y-94908772D01*
X167262500Y-94920000D01*
X166967500Y-94920000D01*
X166911054Y-94908772D01*
X166863202Y-94876798D01*
X166831228Y-94828946D01*
X166820000Y-94772500D01*
X166820000Y-94427500D01*
X166831228Y-94371054D01*
X166863202Y-94323202D01*
X166911054Y-94291228D01*
X166967500Y-94280000D01*
X167262500Y-94280000D01*
X167318946Y-94291228D01*
X167318946Y-94291228D01*
G37*
D12*
X167115000Y-94600000D03*
D10*
G36*
X172678946Y-94481228D02*
G01*
X172726798Y-94513202D01*
X172758772Y-94561054D01*
X172770000Y-94617500D01*
X172770000Y-94912500D01*
X172758772Y-94968946D01*
X172726798Y-95016798D01*
X172678946Y-95048772D01*
X172622500Y-95060000D01*
X172277500Y-95060000D01*
X172221054Y-95048772D01*
X172173202Y-95016798D01*
X172141228Y-94968946D01*
X172130000Y-94912500D01*
X172130000Y-94617500D01*
X172141228Y-94561054D01*
X172173202Y-94513202D01*
X172221054Y-94481228D01*
X172277500Y-94470000D01*
X172622500Y-94470000D01*
X172678946Y-94481228D01*
X172678946Y-94481228D01*
G37*
D12*
X172450000Y-94765000D03*
D10*
G36*
X172678946Y-95451228D02*
G01*
X172726798Y-95483202D01*
X172758772Y-95531054D01*
X172770000Y-95587500D01*
X172770000Y-95882500D01*
X172758772Y-95938946D01*
X172726798Y-95986798D01*
X172678946Y-96018772D01*
X172622500Y-96030000D01*
X172277500Y-96030000D01*
X172221054Y-96018772D01*
X172173202Y-95986798D01*
X172141228Y-95938946D01*
X172130000Y-95882500D01*
X172130000Y-95587500D01*
X172141228Y-95531054D01*
X172173202Y-95483202D01*
X172221054Y-95451228D01*
X172277500Y-95440000D01*
X172622500Y-95440000D01*
X172678946Y-95451228D01*
X172678946Y-95451228D01*
G37*
D12*
X172450000Y-95735000D03*
D10*
G36*
X173978946Y-94481228D02*
G01*
X174026798Y-94513202D01*
X174058772Y-94561054D01*
X174070000Y-94617500D01*
X174070000Y-94912500D01*
X174058772Y-94968946D01*
X174026798Y-95016798D01*
X173978946Y-95048772D01*
X173922500Y-95060000D01*
X173577500Y-95060000D01*
X173521054Y-95048772D01*
X173473202Y-95016798D01*
X173441228Y-94968946D01*
X173430000Y-94912500D01*
X173430000Y-94617500D01*
X173441228Y-94561054D01*
X173473202Y-94513202D01*
X173521054Y-94481228D01*
X173577500Y-94470000D01*
X173922500Y-94470000D01*
X173978946Y-94481228D01*
X173978946Y-94481228D01*
G37*
D12*
X173750000Y-94765000D03*
D10*
G36*
X173978946Y-95451228D02*
G01*
X174026798Y-95483202D01*
X174058772Y-95531054D01*
X174070000Y-95587500D01*
X174070000Y-95882500D01*
X174058772Y-95938946D01*
X174026798Y-95986798D01*
X173978946Y-96018772D01*
X173922500Y-96030000D01*
X173577500Y-96030000D01*
X173521054Y-96018772D01*
X173473202Y-95986798D01*
X173441228Y-95938946D01*
X173430000Y-95882500D01*
X173430000Y-95587500D01*
X173441228Y-95531054D01*
X173473202Y-95483202D01*
X173521054Y-95451228D01*
X173577500Y-95440000D01*
X173922500Y-95440000D01*
X173978946Y-95451228D01*
X173978946Y-95451228D01*
G37*
D12*
X173750000Y-95735000D03*
D10*
G36*
X175228946Y-94481228D02*
G01*
X175276798Y-94513202D01*
X175308772Y-94561054D01*
X175320000Y-94617500D01*
X175320000Y-94912500D01*
X175308772Y-94968946D01*
X175276798Y-95016798D01*
X175228946Y-95048772D01*
X175172500Y-95060000D01*
X174827500Y-95060000D01*
X174771054Y-95048772D01*
X174723202Y-95016798D01*
X174691228Y-94968946D01*
X174680000Y-94912500D01*
X174680000Y-94617500D01*
X174691228Y-94561054D01*
X174723202Y-94513202D01*
X174771054Y-94481228D01*
X174827500Y-94470000D01*
X175172500Y-94470000D01*
X175228946Y-94481228D01*
X175228946Y-94481228D01*
G37*
D12*
X175000000Y-94765000D03*
D10*
G36*
X175228946Y-95451228D02*
G01*
X175276798Y-95483202D01*
X175308772Y-95531054D01*
X175320000Y-95587500D01*
X175320000Y-95882500D01*
X175308772Y-95938946D01*
X175276798Y-95986798D01*
X175228946Y-96018772D01*
X175172500Y-96030000D01*
X174827500Y-96030000D01*
X174771054Y-96018772D01*
X174723202Y-95986798D01*
X174691228Y-95938946D01*
X174680000Y-95882500D01*
X174680000Y-95587500D01*
X174691228Y-95531054D01*
X174723202Y-95483202D01*
X174771054Y-95451228D01*
X174827500Y-95440000D01*
X175172500Y-95440000D01*
X175228946Y-95451228D01*
X175228946Y-95451228D01*
G37*
D12*
X175000000Y-95735000D03*
D10*
G36*
X176628946Y-95501228D02*
G01*
X176676798Y-95533202D01*
X176708772Y-95581054D01*
X176720000Y-95637500D01*
X176720000Y-95932500D01*
X176708772Y-95988946D01*
X176676798Y-96036798D01*
X176628946Y-96068772D01*
X176572500Y-96080000D01*
X176227500Y-96080000D01*
X176171054Y-96068772D01*
X176123202Y-96036798D01*
X176091228Y-95988946D01*
X176080000Y-95932500D01*
X176080000Y-95637500D01*
X176091228Y-95581054D01*
X176123202Y-95533202D01*
X176171054Y-95501228D01*
X176227500Y-95490000D01*
X176572500Y-95490000D01*
X176628946Y-95501228D01*
X176628946Y-95501228D01*
G37*
D12*
X176400000Y-95785000D03*
D10*
G36*
X176628946Y-94531228D02*
G01*
X176676798Y-94563202D01*
X176708772Y-94611054D01*
X176720000Y-94667500D01*
X176720000Y-94962500D01*
X176708772Y-95018946D01*
X176676798Y-95066798D01*
X176628946Y-95098772D01*
X176572500Y-95110000D01*
X176227500Y-95110000D01*
X176171054Y-95098772D01*
X176123202Y-95066798D01*
X176091228Y-95018946D01*
X176080000Y-94962500D01*
X176080000Y-94667500D01*
X176091228Y-94611054D01*
X176123202Y-94563202D01*
X176171054Y-94531228D01*
X176227500Y-94520000D01*
X176572500Y-94520000D01*
X176628946Y-94531228D01*
X176628946Y-94531228D01*
G37*
D12*
X176400000Y-94815000D03*
D10*
G36*
X178478946Y-95501228D02*
G01*
X178526798Y-95533202D01*
X178558772Y-95581054D01*
X178570000Y-95637500D01*
X178570000Y-95932500D01*
X178558772Y-95988946D01*
X178526798Y-96036798D01*
X178478946Y-96068772D01*
X178422500Y-96080000D01*
X178077500Y-96080000D01*
X178021054Y-96068772D01*
X177973202Y-96036798D01*
X177941228Y-95988946D01*
X177930000Y-95932500D01*
X177930000Y-95637500D01*
X177941228Y-95581054D01*
X177973202Y-95533202D01*
X178021054Y-95501228D01*
X178077500Y-95490000D01*
X178422500Y-95490000D01*
X178478946Y-95501228D01*
X178478946Y-95501228D01*
G37*
D12*
X178250000Y-95785000D03*
D10*
G36*
X178478946Y-94531228D02*
G01*
X178526798Y-94563202D01*
X178558772Y-94611054D01*
X178570000Y-94667500D01*
X178570000Y-94962500D01*
X178558772Y-95018946D01*
X178526798Y-95066798D01*
X178478946Y-95098772D01*
X178422500Y-95110000D01*
X178077500Y-95110000D01*
X178021054Y-95098772D01*
X177973202Y-95066798D01*
X177941228Y-95018946D01*
X177930000Y-94962500D01*
X177930000Y-94667500D01*
X177941228Y-94611054D01*
X177973202Y-94563202D01*
X178021054Y-94531228D01*
X178077500Y-94520000D01*
X178422500Y-94520000D01*
X178478946Y-94531228D01*
X178478946Y-94531228D01*
G37*
D12*
X178250000Y-94815000D03*
D10*
G36*
X179728946Y-95501228D02*
G01*
X179776798Y-95533202D01*
X179808772Y-95581054D01*
X179820000Y-95637500D01*
X179820000Y-95932500D01*
X179808772Y-95988946D01*
X179776798Y-96036798D01*
X179728946Y-96068772D01*
X179672500Y-96080000D01*
X179327500Y-96080000D01*
X179271054Y-96068772D01*
X179223202Y-96036798D01*
X179191228Y-95988946D01*
X179180000Y-95932500D01*
X179180000Y-95637500D01*
X179191228Y-95581054D01*
X179223202Y-95533202D01*
X179271054Y-95501228D01*
X179327500Y-95490000D01*
X179672500Y-95490000D01*
X179728946Y-95501228D01*
X179728946Y-95501228D01*
G37*
D12*
X179500000Y-95785000D03*
D10*
G36*
X179728946Y-94531228D02*
G01*
X179776798Y-94563202D01*
X179808772Y-94611054D01*
X179820000Y-94667500D01*
X179820000Y-94962500D01*
X179808772Y-95018946D01*
X179776798Y-95066798D01*
X179728946Y-95098772D01*
X179672500Y-95110000D01*
X179327500Y-95110000D01*
X179271054Y-95098772D01*
X179223202Y-95066798D01*
X179191228Y-95018946D01*
X179180000Y-94962500D01*
X179180000Y-94667500D01*
X179191228Y-94611054D01*
X179223202Y-94563202D01*
X179271054Y-94531228D01*
X179327500Y-94520000D01*
X179672500Y-94520000D01*
X179728946Y-94531228D01*
X179728946Y-94531228D01*
G37*
D12*
X179500000Y-94815000D03*
D10*
G36*
X180978946Y-95501228D02*
G01*
X181026798Y-95533202D01*
X181058772Y-95581054D01*
X181070000Y-95637500D01*
X181070000Y-95932500D01*
X181058772Y-95988946D01*
X181026798Y-96036798D01*
X180978946Y-96068772D01*
X180922500Y-96080000D01*
X180577500Y-96080000D01*
X180521054Y-96068772D01*
X180473202Y-96036798D01*
X180441228Y-95988946D01*
X180430000Y-95932500D01*
X180430000Y-95637500D01*
X180441228Y-95581054D01*
X180473202Y-95533202D01*
X180521054Y-95501228D01*
X180577500Y-95490000D01*
X180922500Y-95490000D01*
X180978946Y-95501228D01*
X180978946Y-95501228D01*
G37*
D12*
X180750000Y-95785000D03*
D10*
G36*
X180978946Y-94531228D02*
G01*
X181026798Y-94563202D01*
X181058772Y-94611054D01*
X181070000Y-94667500D01*
X181070000Y-94962500D01*
X181058772Y-95018946D01*
X181026798Y-95066798D01*
X180978946Y-95098772D01*
X180922500Y-95110000D01*
X180577500Y-95110000D01*
X180521054Y-95098772D01*
X180473202Y-95066798D01*
X180441228Y-95018946D01*
X180430000Y-94962500D01*
X180430000Y-94667500D01*
X180441228Y-94611054D01*
X180473202Y-94563202D01*
X180521054Y-94531228D01*
X180577500Y-94520000D01*
X180922500Y-94520000D01*
X180978946Y-94531228D01*
X180978946Y-94531228D01*
G37*
D12*
X180750000Y-94815000D03*
D10*
G36*
X182178946Y-95486228D02*
G01*
X182226798Y-95518202D01*
X182258772Y-95566054D01*
X182270000Y-95622500D01*
X182270000Y-95917500D01*
X182258772Y-95973946D01*
X182226798Y-96021798D01*
X182178946Y-96053772D01*
X182122500Y-96065000D01*
X181777500Y-96065000D01*
X181721054Y-96053772D01*
X181673202Y-96021798D01*
X181641228Y-95973946D01*
X181630000Y-95917500D01*
X181630000Y-95622500D01*
X181641228Y-95566054D01*
X181673202Y-95518202D01*
X181721054Y-95486228D01*
X181777500Y-95475000D01*
X182122500Y-95475000D01*
X182178946Y-95486228D01*
X182178946Y-95486228D01*
G37*
D12*
X181950000Y-95770000D03*
D10*
G36*
X182178946Y-94516228D02*
G01*
X182226798Y-94548202D01*
X182258772Y-94596054D01*
X182270000Y-94652500D01*
X182270000Y-94947500D01*
X182258772Y-95003946D01*
X182226798Y-95051798D01*
X182178946Y-95083772D01*
X182122500Y-95095000D01*
X181777500Y-95095000D01*
X181721054Y-95083772D01*
X181673202Y-95051798D01*
X181641228Y-95003946D01*
X181630000Y-94947500D01*
X181630000Y-94652500D01*
X181641228Y-94596054D01*
X181673202Y-94548202D01*
X181721054Y-94516228D01*
X181777500Y-94505000D01*
X182122500Y-94505000D01*
X182178946Y-94516228D01*
X182178946Y-94516228D01*
G37*
D12*
X181950000Y-94800000D03*
D10*
G36*
X172678946Y-93088728D02*
G01*
X172726798Y-93120702D01*
X172758772Y-93168554D01*
X172770000Y-93225000D01*
X172770000Y-93520000D01*
X172758772Y-93576446D01*
X172726798Y-93624298D01*
X172678946Y-93656272D01*
X172622500Y-93667500D01*
X172277500Y-93667500D01*
X172221054Y-93656272D01*
X172173202Y-93624298D01*
X172141228Y-93576446D01*
X172130000Y-93520000D01*
X172130000Y-93225000D01*
X172141228Y-93168554D01*
X172173202Y-93120702D01*
X172221054Y-93088728D01*
X172277500Y-93077500D01*
X172622500Y-93077500D01*
X172678946Y-93088728D01*
X172678946Y-93088728D01*
G37*
D12*
X172450000Y-93372500D03*
D10*
G36*
X172678946Y-92118728D02*
G01*
X172726798Y-92150702D01*
X172758772Y-92198554D01*
X172770000Y-92255000D01*
X172770000Y-92550000D01*
X172758772Y-92606446D01*
X172726798Y-92654298D01*
X172678946Y-92686272D01*
X172622500Y-92697500D01*
X172277500Y-92697500D01*
X172221054Y-92686272D01*
X172173202Y-92654298D01*
X172141228Y-92606446D01*
X172130000Y-92550000D01*
X172130000Y-92255000D01*
X172141228Y-92198554D01*
X172173202Y-92150702D01*
X172221054Y-92118728D01*
X172277500Y-92107500D01*
X172622500Y-92107500D01*
X172678946Y-92118728D01*
X172678946Y-92118728D01*
G37*
D12*
X172450000Y-92402500D03*
D10*
G36*
X173928946Y-92081228D02*
G01*
X173976798Y-92113202D01*
X174008772Y-92161054D01*
X174020000Y-92217500D01*
X174020000Y-92512500D01*
X174008772Y-92568946D01*
X173976798Y-92616798D01*
X173928946Y-92648772D01*
X173872500Y-92660000D01*
X173527500Y-92660000D01*
X173471054Y-92648772D01*
X173423202Y-92616798D01*
X173391228Y-92568946D01*
X173380000Y-92512500D01*
X173380000Y-92217500D01*
X173391228Y-92161054D01*
X173423202Y-92113202D01*
X173471054Y-92081228D01*
X173527500Y-92070000D01*
X173872500Y-92070000D01*
X173928946Y-92081228D01*
X173928946Y-92081228D01*
G37*
D12*
X173700000Y-92365000D03*
D10*
G36*
X173928946Y-93051228D02*
G01*
X173976798Y-93083202D01*
X174008772Y-93131054D01*
X174020000Y-93187500D01*
X174020000Y-93482500D01*
X174008772Y-93538946D01*
X173976798Y-93586798D01*
X173928946Y-93618772D01*
X173872500Y-93630000D01*
X173527500Y-93630000D01*
X173471054Y-93618772D01*
X173423202Y-93586798D01*
X173391228Y-93538946D01*
X173380000Y-93482500D01*
X173380000Y-93187500D01*
X173391228Y-93131054D01*
X173423202Y-93083202D01*
X173471054Y-93051228D01*
X173527500Y-93040000D01*
X173872500Y-93040000D01*
X173928946Y-93051228D01*
X173928946Y-93051228D01*
G37*
D12*
X173700000Y-93335000D03*
D10*
G36*
X175228946Y-93051228D02*
G01*
X175276798Y-93083202D01*
X175308772Y-93131054D01*
X175320000Y-93187500D01*
X175320000Y-93482500D01*
X175308772Y-93538946D01*
X175276798Y-93586798D01*
X175228946Y-93618772D01*
X175172500Y-93630000D01*
X174827500Y-93630000D01*
X174771054Y-93618772D01*
X174723202Y-93586798D01*
X174691228Y-93538946D01*
X174680000Y-93482500D01*
X174680000Y-93187500D01*
X174691228Y-93131054D01*
X174723202Y-93083202D01*
X174771054Y-93051228D01*
X174827500Y-93040000D01*
X175172500Y-93040000D01*
X175228946Y-93051228D01*
X175228946Y-93051228D01*
G37*
D12*
X175000000Y-93335000D03*
D10*
G36*
X175228946Y-92081228D02*
G01*
X175276798Y-92113202D01*
X175308772Y-92161054D01*
X175320000Y-92217500D01*
X175320000Y-92512500D01*
X175308772Y-92568946D01*
X175276798Y-92616798D01*
X175228946Y-92648772D01*
X175172500Y-92660000D01*
X174827500Y-92660000D01*
X174771054Y-92648772D01*
X174723202Y-92616798D01*
X174691228Y-92568946D01*
X174680000Y-92512500D01*
X174680000Y-92217500D01*
X174691228Y-92161054D01*
X174723202Y-92113202D01*
X174771054Y-92081228D01*
X174827500Y-92070000D01*
X175172500Y-92070000D01*
X175228946Y-92081228D01*
X175228946Y-92081228D01*
G37*
D12*
X175000000Y-92365000D03*
D10*
G36*
X176678946Y-93063728D02*
G01*
X176726798Y-93095702D01*
X176758772Y-93143554D01*
X176770000Y-93200000D01*
X176770000Y-93495000D01*
X176758772Y-93551446D01*
X176726798Y-93599298D01*
X176678946Y-93631272D01*
X176622500Y-93642500D01*
X176277500Y-93642500D01*
X176221054Y-93631272D01*
X176173202Y-93599298D01*
X176141228Y-93551446D01*
X176130000Y-93495000D01*
X176130000Y-93200000D01*
X176141228Y-93143554D01*
X176173202Y-93095702D01*
X176221054Y-93063728D01*
X176277500Y-93052500D01*
X176622500Y-93052500D01*
X176678946Y-93063728D01*
X176678946Y-93063728D01*
G37*
D12*
X176450000Y-93347500D03*
D10*
G36*
X176678946Y-92093728D02*
G01*
X176726798Y-92125702D01*
X176758772Y-92173554D01*
X176770000Y-92230000D01*
X176770000Y-92525000D01*
X176758772Y-92581446D01*
X176726798Y-92629298D01*
X176678946Y-92661272D01*
X176622500Y-92672500D01*
X176277500Y-92672500D01*
X176221054Y-92661272D01*
X176173202Y-92629298D01*
X176141228Y-92581446D01*
X176130000Y-92525000D01*
X176130000Y-92230000D01*
X176141228Y-92173554D01*
X176173202Y-92125702D01*
X176221054Y-92093728D01*
X176277500Y-92082500D01*
X176622500Y-92082500D01*
X176678946Y-92093728D01*
X176678946Y-92093728D01*
G37*
D12*
X176450000Y-92377500D03*
D10*
G36*
X178478946Y-93101228D02*
G01*
X178526798Y-93133202D01*
X178558772Y-93181054D01*
X178570000Y-93237500D01*
X178570000Y-93532500D01*
X178558772Y-93588946D01*
X178526798Y-93636798D01*
X178478946Y-93668772D01*
X178422500Y-93680000D01*
X178077500Y-93680000D01*
X178021054Y-93668772D01*
X177973202Y-93636798D01*
X177941228Y-93588946D01*
X177930000Y-93532500D01*
X177930000Y-93237500D01*
X177941228Y-93181054D01*
X177973202Y-93133202D01*
X178021054Y-93101228D01*
X178077500Y-93090000D01*
X178422500Y-93090000D01*
X178478946Y-93101228D01*
X178478946Y-93101228D01*
G37*
D12*
X178250000Y-93385000D03*
D10*
G36*
X178478946Y-92131228D02*
G01*
X178526798Y-92163202D01*
X178558772Y-92211054D01*
X178570000Y-92267500D01*
X178570000Y-92562500D01*
X178558772Y-92618946D01*
X178526798Y-92666798D01*
X178478946Y-92698772D01*
X178422500Y-92710000D01*
X178077500Y-92710000D01*
X178021054Y-92698772D01*
X177973202Y-92666798D01*
X177941228Y-92618946D01*
X177930000Y-92562500D01*
X177930000Y-92267500D01*
X177941228Y-92211054D01*
X177973202Y-92163202D01*
X178021054Y-92131228D01*
X178077500Y-92120000D01*
X178422500Y-92120000D01*
X178478946Y-92131228D01*
X178478946Y-92131228D01*
G37*
D12*
X178250000Y-92415000D03*
D10*
G36*
X179678946Y-92131228D02*
G01*
X179726798Y-92163202D01*
X179758772Y-92211054D01*
X179770000Y-92267500D01*
X179770000Y-92562500D01*
X179758772Y-92618946D01*
X179726798Y-92666798D01*
X179678946Y-92698772D01*
X179622500Y-92710000D01*
X179277500Y-92710000D01*
X179221054Y-92698772D01*
X179173202Y-92666798D01*
X179141228Y-92618946D01*
X179130000Y-92562500D01*
X179130000Y-92267500D01*
X179141228Y-92211054D01*
X179173202Y-92163202D01*
X179221054Y-92131228D01*
X179277500Y-92120000D01*
X179622500Y-92120000D01*
X179678946Y-92131228D01*
X179678946Y-92131228D01*
G37*
D12*
X179450000Y-92415000D03*
D10*
G36*
X179678946Y-93101228D02*
G01*
X179726798Y-93133202D01*
X179758772Y-93181054D01*
X179770000Y-93237500D01*
X179770000Y-93532500D01*
X179758772Y-93588946D01*
X179726798Y-93636798D01*
X179678946Y-93668772D01*
X179622500Y-93680000D01*
X179277500Y-93680000D01*
X179221054Y-93668772D01*
X179173202Y-93636798D01*
X179141228Y-93588946D01*
X179130000Y-93532500D01*
X179130000Y-93237500D01*
X179141228Y-93181054D01*
X179173202Y-93133202D01*
X179221054Y-93101228D01*
X179277500Y-93090000D01*
X179622500Y-93090000D01*
X179678946Y-93101228D01*
X179678946Y-93101228D01*
G37*
D12*
X179450000Y-93385000D03*
D10*
G36*
X180978946Y-93101228D02*
G01*
X181026798Y-93133202D01*
X181058772Y-93181054D01*
X181070000Y-93237500D01*
X181070000Y-93532500D01*
X181058772Y-93588946D01*
X181026798Y-93636798D01*
X180978946Y-93668772D01*
X180922500Y-93680000D01*
X180577500Y-93680000D01*
X180521054Y-93668772D01*
X180473202Y-93636798D01*
X180441228Y-93588946D01*
X180430000Y-93532500D01*
X180430000Y-93237500D01*
X180441228Y-93181054D01*
X180473202Y-93133202D01*
X180521054Y-93101228D01*
X180577500Y-93090000D01*
X180922500Y-93090000D01*
X180978946Y-93101228D01*
X180978946Y-93101228D01*
G37*
D12*
X180750000Y-93385000D03*
D10*
G36*
X180978946Y-92131228D02*
G01*
X181026798Y-92163202D01*
X181058772Y-92211054D01*
X181070000Y-92267500D01*
X181070000Y-92562500D01*
X181058772Y-92618946D01*
X181026798Y-92666798D01*
X180978946Y-92698772D01*
X180922500Y-92710000D01*
X180577500Y-92710000D01*
X180521054Y-92698772D01*
X180473202Y-92666798D01*
X180441228Y-92618946D01*
X180430000Y-92562500D01*
X180430000Y-92267500D01*
X180441228Y-92211054D01*
X180473202Y-92163202D01*
X180521054Y-92131228D01*
X180577500Y-92120000D01*
X180922500Y-92120000D01*
X180978946Y-92131228D01*
X180978946Y-92131228D01*
G37*
D12*
X180750000Y-92415000D03*
D10*
G36*
X182178946Y-93116228D02*
G01*
X182226798Y-93148202D01*
X182258772Y-93196054D01*
X182270000Y-93252500D01*
X182270000Y-93547500D01*
X182258772Y-93603946D01*
X182226798Y-93651798D01*
X182178946Y-93683772D01*
X182122500Y-93695000D01*
X181777500Y-93695000D01*
X181721054Y-93683772D01*
X181673202Y-93651798D01*
X181641228Y-93603946D01*
X181630000Y-93547500D01*
X181630000Y-93252500D01*
X181641228Y-93196054D01*
X181673202Y-93148202D01*
X181721054Y-93116228D01*
X181777500Y-93105000D01*
X182122500Y-93105000D01*
X182178946Y-93116228D01*
X182178946Y-93116228D01*
G37*
D12*
X181950000Y-93400000D03*
D10*
G36*
X182178946Y-92146228D02*
G01*
X182226798Y-92178202D01*
X182258772Y-92226054D01*
X182270000Y-92282500D01*
X182270000Y-92577500D01*
X182258772Y-92633946D01*
X182226798Y-92681798D01*
X182178946Y-92713772D01*
X182122500Y-92725000D01*
X181777500Y-92725000D01*
X181721054Y-92713772D01*
X181673202Y-92681798D01*
X181641228Y-92633946D01*
X181630000Y-92577500D01*
X181630000Y-92282500D01*
X181641228Y-92226054D01*
X181673202Y-92178202D01*
X181721054Y-92146228D01*
X181777500Y-92135000D01*
X182122500Y-92135000D01*
X182178946Y-92146228D01*
X182178946Y-92146228D01*
G37*
D12*
X181950000Y-92430000D03*
D10*
G36*
X129514962Y-116941651D02*
G01*
X129585930Y-116989070D01*
X129633349Y-117060038D01*
X129650000Y-117143750D01*
X129650000Y-117656250D01*
X129633349Y-117739962D01*
X129585930Y-117810930D01*
X129514962Y-117858349D01*
X129431250Y-117875000D01*
X128993750Y-117875000D01*
X128910038Y-117858349D01*
X128839070Y-117810930D01*
X128791651Y-117739962D01*
X128775000Y-117656250D01*
X128775000Y-117143750D01*
X128791651Y-117060038D01*
X128839070Y-116989070D01*
X128910038Y-116941651D01*
X128993750Y-116925000D01*
X129431250Y-116925000D01*
X129514962Y-116941651D01*
X129514962Y-116941651D01*
G37*
D13*
X129212500Y-117400000D03*
D10*
G36*
X131089962Y-116941651D02*
G01*
X131160930Y-116989070D01*
X131208349Y-117060038D01*
X131225000Y-117143750D01*
X131225000Y-117656250D01*
X131208349Y-117739962D01*
X131160930Y-117810930D01*
X131089962Y-117858349D01*
X131006250Y-117875000D01*
X130568750Y-117875000D01*
X130485038Y-117858349D01*
X130414070Y-117810930D01*
X130366651Y-117739962D01*
X130350000Y-117656250D01*
X130350000Y-117143750D01*
X130366651Y-117060038D01*
X130414070Y-116989070D01*
X130485038Y-116941651D01*
X130568750Y-116925000D01*
X131006250Y-116925000D01*
X131089962Y-116941651D01*
X131089962Y-116941651D01*
G37*
D13*
X130787500Y-117400000D03*
D10*
G36*
X131139962Y-113791651D02*
G01*
X131210930Y-113839070D01*
X131258349Y-113910038D01*
X131275000Y-113993750D01*
X131275000Y-114431250D01*
X131258349Y-114514962D01*
X131210930Y-114585930D01*
X131139962Y-114633349D01*
X131056250Y-114650000D01*
X130543750Y-114650000D01*
X130460038Y-114633349D01*
X130389070Y-114585930D01*
X130341651Y-114514962D01*
X130325000Y-114431250D01*
X130325000Y-113993750D01*
X130341651Y-113910038D01*
X130389070Y-113839070D01*
X130460038Y-113791651D01*
X130543750Y-113775000D01*
X131056250Y-113775000D01*
X131139962Y-113791651D01*
X131139962Y-113791651D01*
G37*
D13*
X130800000Y-114212500D03*
D10*
G36*
X131139962Y-115366651D02*
G01*
X131210930Y-115414070D01*
X131258349Y-115485038D01*
X131275000Y-115568750D01*
X131275000Y-116006250D01*
X131258349Y-116089962D01*
X131210930Y-116160930D01*
X131139962Y-116208349D01*
X131056250Y-116225000D01*
X130543750Y-116225000D01*
X130460038Y-116208349D01*
X130389070Y-116160930D01*
X130341651Y-116089962D01*
X130325000Y-116006250D01*
X130325000Y-115568750D01*
X130341651Y-115485038D01*
X130389070Y-115414070D01*
X130460038Y-115366651D01*
X130543750Y-115350000D01*
X131056250Y-115350000D01*
X131139962Y-115366651D01*
X131139962Y-115366651D01*
G37*
D13*
X130800000Y-115787500D03*
D10*
G36*
X118302462Y-113141651D02*
G01*
X118373430Y-113189070D01*
X118420849Y-113260038D01*
X118437500Y-113343750D01*
X118437500Y-113856250D01*
X118420849Y-113939962D01*
X118373430Y-114010930D01*
X118302462Y-114058349D01*
X118218750Y-114075000D01*
X117781250Y-114075000D01*
X117697538Y-114058349D01*
X117626570Y-114010930D01*
X117579151Y-113939962D01*
X117562500Y-113856250D01*
X117562500Y-113343750D01*
X117579151Y-113260038D01*
X117626570Y-113189070D01*
X117697538Y-113141651D01*
X117781250Y-113125000D01*
X118218750Y-113125000D01*
X118302462Y-113141651D01*
X118302462Y-113141651D01*
G37*
D13*
X118000000Y-113600000D03*
D10*
G36*
X119877462Y-113141651D02*
G01*
X119948430Y-113189070D01*
X119995849Y-113260038D01*
X120012500Y-113343750D01*
X120012500Y-113856250D01*
X119995849Y-113939962D01*
X119948430Y-114010930D01*
X119877462Y-114058349D01*
X119793750Y-114075000D01*
X119356250Y-114075000D01*
X119272538Y-114058349D01*
X119201570Y-114010930D01*
X119154151Y-113939962D01*
X119137500Y-113856250D01*
X119137500Y-113343750D01*
X119154151Y-113260038D01*
X119201570Y-113189070D01*
X119272538Y-113141651D01*
X119356250Y-113125000D01*
X119793750Y-113125000D01*
X119877462Y-113141651D01*
X119877462Y-113141651D01*
G37*
D13*
X119575000Y-113600000D03*
D10*
G36*
X129539962Y-112766651D02*
G01*
X129610930Y-112814070D01*
X129658349Y-112885038D01*
X129675000Y-112968750D01*
X129675000Y-113406250D01*
X129658349Y-113489962D01*
X129610930Y-113560930D01*
X129539962Y-113608349D01*
X129456250Y-113625000D01*
X128943750Y-113625000D01*
X128860038Y-113608349D01*
X128789070Y-113560930D01*
X128741651Y-113489962D01*
X128725000Y-113406250D01*
X128725000Y-112968750D01*
X128741651Y-112885038D01*
X128789070Y-112814070D01*
X128860038Y-112766651D01*
X128943750Y-112750000D01*
X129456250Y-112750000D01*
X129539962Y-112766651D01*
X129539962Y-112766651D01*
G37*
D13*
X129200000Y-113187500D03*
D10*
G36*
X129539962Y-111191651D02*
G01*
X129610930Y-111239070D01*
X129658349Y-111310038D01*
X129675000Y-111393750D01*
X129675000Y-111831250D01*
X129658349Y-111914962D01*
X129610930Y-111985930D01*
X129539962Y-112033349D01*
X129456250Y-112050000D01*
X128943750Y-112050000D01*
X128860038Y-112033349D01*
X128789070Y-111985930D01*
X128741651Y-111914962D01*
X128725000Y-111831250D01*
X128725000Y-111393750D01*
X128741651Y-111310038D01*
X128789070Y-111239070D01*
X128860038Y-111191651D01*
X128943750Y-111175000D01*
X129456250Y-111175000D01*
X129539962Y-111191651D01*
X129539962Y-111191651D01*
G37*
D13*
X129200000Y-111612500D03*
D10*
G36*
X129345671Y-96819030D02*
G01*
X129426777Y-96873223D01*
X129480970Y-96954329D01*
X129500000Y-97049999D01*
X129500000Y-97750001D01*
X129480970Y-97845671D01*
X129426777Y-97926777D01*
X129345671Y-97980970D01*
X129250001Y-98000000D01*
X127949999Y-98000000D01*
X127854329Y-97980970D01*
X127773223Y-97926777D01*
X127719030Y-97845671D01*
X127700000Y-97750001D01*
X127700000Y-97049999D01*
X127719030Y-96954329D01*
X127773223Y-96873223D01*
X127854329Y-96819030D01*
X127949999Y-96800000D01*
X129250001Y-96800000D01*
X129345671Y-96819030D01*
X129345671Y-96819030D01*
G37*
D14*
X128600000Y-97400000D03*
D10*
G36*
X129345671Y-93219030D02*
G01*
X129426777Y-93273223D01*
X129480970Y-93354329D01*
X129500000Y-93449999D01*
X129500000Y-94150001D01*
X129480970Y-94245671D01*
X129426777Y-94326777D01*
X129345671Y-94380970D01*
X129250001Y-94400000D01*
X127949999Y-94400000D01*
X127854329Y-94380970D01*
X127773223Y-94326777D01*
X127719030Y-94245671D01*
X127700000Y-94150001D01*
X127700000Y-93449999D01*
X127719030Y-93354329D01*
X127773223Y-93273223D01*
X127854329Y-93219030D01*
X127949999Y-93200000D01*
X129250001Y-93200000D01*
X129345671Y-93219030D01*
X129345671Y-93219030D01*
G37*
D14*
X128600000Y-93800000D03*
D10*
G36*
X131807403Y-95811418D02*
G01*
X131856066Y-95843934D01*
X131888582Y-95892597D01*
X131900000Y-95950000D01*
X131900000Y-96250000D01*
X131888582Y-96307403D01*
X131856066Y-96356066D01*
X131807403Y-96388582D01*
X131750000Y-96400000D01*
X130500000Y-96400000D01*
X130442597Y-96388582D01*
X130393934Y-96356066D01*
X130361418Y-96307403D01*
X130350000Y-96250000D01*
X130350000Y-95950000D01*
X130361418Y-95892597D01*
X130393934Y-95843934D01*
X130442597Y-95811418D01*
X130500000Y-95800000D01*
X131750000Y-95800000D01*
X131807403Y-95811418D01*
X131807403Y-95811418D01*
G37*
D15*
X131125000Y-96100000D03*
D10*
G36*
X131807403Y-94811418D02*
G01*
X131856066Y-94843934D01*
X131888582Y-94892597D01*
X131900000Y-94950000D01*
X131900000Y-95250000D01*
X131888582Y-95307403D01*
X131856066Y-95356066D01*
X131807403Y-95388582D01*
X131750000Y-95400000D01*
X130500000Y-95400000D01*
X130442597Y-95388582D01*
X130393934Y-95356066D01*
X130361418Y-95307403D01*
X130350000Y-95250000D01*
X130350000Y-94950000D01*
X130361418Y-94892597D01*
X130393934Y-94843934D01*
X130442597Y-94811418D01*
X130500000Y-94800000D01*
X131750000Y-94800000D01*
X131807403Y-94811418D01*
X131807403Y-94811418D01*
G37*
D15*
X131125000Y-95100000D03*
D10*
G36*
X189745671Y-92929030D02*
G01*
X189826777Y-92983223D01*
X189880970Y-93064329D01*
X189900000Y-93159999D01*
X189900000Y-93860001D01*
X189880970Y-93955671D01*
X189826777Y-94036777D01*
X189745671Y-94090970D01*
X189650001Y-94110000D01*
X188349999Y-94110000D01*
X188254329Y-94090970D01*
X188173223Y-94036777D01*
X188119030Y-93955671D01*
X188100000Y-93860001D01*
X188100000Y-93159999D01*
X188119030Y-93064329D01*
X188173223Y-92983223D01*
X188254329Y-92929030D01*
X188349999Y-92910000D01*
X189650001Y-92910000D01*
X189745671Y-92929030D01*
X189745671Y-92929030D01*
G37*
D14*
X189000000Y-93510000D03*
D10*
G36*
X189745671Y-87329030D02*
G01*
X189826777Y-87383223D01*
X189880970Y-87464329D01*
X189900000Y-87559999D01*
X189900000Y-88260001D01*
X189880970Y-88355671D01*
X189826777Y-88436777D01*
X189745671Y-88490970D01*
X189650001Y-88510000D01*
X188349999Y-88510000D01*
X188254329Y-88490970D01*
X188173223Y-88436777D01*
X188119030Y-88355671D01*
X188100000Y-88260001D01*
X188100000Y-87559999D01*
X188119030Y-87464329D01*
X188173223Y-87383223D01*
X188254329Y-87329030D01*
X188349999Y-87310000D01*
X189650001Y-87310000D01*
X189745671Y-87329030D01*
X189745671Y-87329030D01*
G37*
D14*
X189000000Y-87910000D03*
D10*
G36*
X192207403Y-91921418D02*
G01*
X192256066Y-91953934D01*
X192288582Y-92002597D01*
X192300000Y-92060000D01*
X192300000Y-92360000D01*
X192288582Y-92417403D01*
X192256066Y-92466066D01*
X192207403Y-92498582D01*
X192150000Y-92510000D01*
X190900000Y-92510000D01*
X190842597Y-92498582D01*
X190793934Y-92466066D01*
X190761418Y-92417403D01*
X190750000Y-92360000D01*
X190750000Y-92060000D01*
X190761418Y-92002597D01*
X190793934Y-91953934D01*
X190842597Y-91921418D01*
X190900000Y-91910000D01*
X192150000Y-91910000D01*
X192207403Y-91921418D01*
X192207403Y-91921418D01*
G37*
D15*
X191525000Y-92210000D03*
D10*
G36*
X192207403Y-90921418D02*
G01*
X192256066Y-90953934D01*
X192288582Y-91002597D01*
X192300000Y-91060000D01*
X192300000Y-91360000D01*
X192288582Y-91417403D01*
X192256066Y-91466066D01*
X192207403Y-91498582D01*
X192150000Y-91510000D01*
X190900000Y-91510000D01*
X190842597Y-91498582D01*
X190793934Y-91466066D01*
X190761418Y-91417403D01*
X190750000Y-91360000D01*
X190750000Y-91060000D01*
X190761418Y-91002597D01*
X190793934Y-90953934D01*
X190842597Y-90921418D01*
X190900000Y-90910000D01*
X192150000Y-90910000D01*
X192207403Y-90921418D01*
X192207403Y-90921418D01*
G37*
D15*
X191525000Y-91210000D03*
D10*
G36*
X192207403Y-89921418D02*
G01*
X192256066Y-89953934D01*
X192288582Y-90002597D01*
X192300000Y-90060000D01*
X192300000Y-90360000D01*
X192288582Y-90417403D01*
X192256066Y-90466066D01*
X192207403Y-90498582D01*
X192150000Y-90510000D01*
X190900000Y-90510000D01*
X190842597Y-90498582D01*
X190793934Y-90466066D01*
X190761418Y-90417403D01*
X190750000Y-90360000D01*
X190750000Y-90060000D01*
X190761418Y-90002597D01*
X190793934Y-89953934D01*
X190842597Y-89921418D01*
X190900000Y-89910000D01*
X192150000Y-89910000D01*
X192207403Y-89921418D01*
X192207403Y-89921418D01*
G37*
D15*
X191525000Y-90210000D03*
D10*
G36*
X192207403Y-88921418D02*
G01*
X192256066Y-88953934D01*
X192288582Y-89002597D01*
X192300000Y-89060000D01*
X192300000Y-89360000D01*
X192288582Y-89417403D01*
X192256066Y-89466066D01*
X192207403Y-89498582D01*
X192150000Y-89510000D01*
X190900000Y-89510000D01*
X190842597Y-89498582D01*
X190793934Y-89466066D01*
X190761418Y-89417403D01*
X190750000Y-89360000D01*
X190750000Y-89060000D01*
X190761418Y-89002597D01*
X190793934Y-88953934D01*
X190842597Y-88921418D01*
X190900000Y-88910000D01*
X192150000Y-88910000D01*
X192207403Y-88921418D01*
X192207403Y-88921418D01*
G37*
D15*
X191525000Y-89210000D03*
D10*
G36*
X118028946Y-103496228D02*
G01*
X118076798Y-103528202D01*
X118108772Y-103576054D01*
X118120000Y-103632500D01*
X118120000Y-103927500D01*
X118108772Y-103983946D01*
X118076798Y-104031798D01*
X118028946Y-104063772D01*
X117972500Y-104075000D01*
X117627500Y-104075000D01*
X117571054Y-104063772D01*
X117523202Y-104031798D01*
X117491228Y-103983946D01*
X117480000Y-103927500D01*
X117480000Y-103632500D01*
X117491228Y-103576054D01*
X117523202Y-103528202D01*
X117571054Y-103496228D01*
X117627500Y-103485000D01*
X117972500Y-103485000D01*
X118028946Y-103496228D01*
X118028946Y-103496228D01*
G37*
D12*
X117800000Y-103780000D03*
D10*
G36*
X118028946Y-104466228D02*
G01*
X118076798Y-104498202D01*
X118108772Y-104546054D01*
X118120000Y-104602500D01*
X118120000Y-104897500D01*
X118108772Y-104953946D01*
X118076798Y-105001798D01*
X118028946Y-105033772D01*
X117972500Y-105045000D01*
X117627500Y-105045000D01*
X117571054Y-105033772D01*
X117523202Y-105001798D01*
X117491228Y-104953946D01*
X117480000Y-104897500D01*
X117480000Y-104602500D01*
X117491228Y-104546054D01*
X117523202Y-104498202D01*
X117571054Y-104466228D01*
X117627500Y-104455000D01*
X117972500Y-104455000D01*
X118028946Y-104466228D01*
X118028946Y-104466228D01*
G37*
D12*
X117800000Y-104750000D03*
D10*
G36*
X121978946Y-103496228D02*
G01*
X122026798Y-103528202D01*
X122058772Y-103576054D01*
X122070000Y-103632500D01*
X122070000Y-103927500D01*
X122058772Y-103983946D01*
X122026798Y-104031798D01*
X121978946Y-104063772D01*
X121922500Y-104075000D01*
X121577500Y-104075000D01*
X121521054Y-104063772D01*
X121473202Y-104031798D01*
X121441228Y-103983946D01*
X121430000Y-103927500D01*
X121430000Y-103632500D01*
X121441228Y-103576054D01*
X121473202Y-103528202D01*
X121521054Y-103496228D01*
X121577500Y-103485000D01*
X121922500Y-103485000D01*
X121978946Y-103496228D01*
X121978946Y-103496228D01*
G37*
D12*
X121750000Y-103780000D03*
D10*
G36*
X121978946Y-104466228D02*
G01*
X122026798Y-104498202D01*
X122058772Y-104546054D01*
X122070000Y-104602500D01*
X122070000Y-104897500D01*
X122058772Y-104953946D01*
X122026798Y-105001798D01*
X121978946Y-105033772D01*
X121922500Y-105045000D01*
X121577500Y-105045000D01*
X121521054Y-105033772D01*
X121473202Y-105001798D01*
X121441228Y-104953946D01*
X121430000Y-104897500D01*
X121430000Y-104602500D01*
X121441228Y-104546054D01*
X121473202Y-104498202D01*
X121521054Y-104466228D01*
X121577500Y-104455000D01*
X121922500Y-104455000D01*
X121978946Y-104466228D01*
X121978946Y-104466228D01*
G37*
D12*
X121750000Y-104750000D03*
D10*
G36*
X115478946Y-103481228D02*
G01*
X115526798Y-103513202D01*
X115558772Y-103561054D01*
X115570000Y-103617500D01*
X115570000Y-103912500D01*
X115558772Y-103968946D01*
X115526798Y-104016798D01*
X115478946Y-104048772D01*
X115422500Y-104060000D01*
X115077500Y-104060000D01*
X115021054Y-104048772D01*
X114973202Y-104016798D01*
X114941228Y-103968946D01*
X114930000Y-103912500D01*
X114930000Y-103617500D01*
X114941228Y-103561054D01*
X114973202Y-103513202D01*
X115021054Y-103481228D01*
X115077500Y-103470000D01*
X115422500Y-103470000D01*
X115478946Y-103481228D01*
X115478946Y-103481228D01*
G37*
D12*
X115250000Y-103765000D03*
D10*
G36*
X115478946Y-104451228D02*
G01*
X115526798Y-104483202D01*
X115558772Y-104531054D01*
X115570000Y-104587500D01*
X115570000Y-104882500D01*
X115558772Y-104938946D01*
X115526798Y-104986798D01*
X115478946Y-105018772D01*
X115422500Y-105030000D01*
X115077500Y-105030000D01*
X115021054Y-105018772D01*
X114973202Y-104986798D01*
X114941228Y-104938946D01*
X114930000Y-104882500D01*
X114930000Y-104587500D01*
X114941228Y-104531054D01*
X114973202Y-104483202D01*
X115021054Y-104451228D01*
X115077500Y-104440000D01*
X115422500Y-104440000D01*
X115478946Y-104451228D01*
X115478946Y-104451228D01*
G37*
D12*
X115250000Y-104735000D03*
D10*
G36*
X124478946Y-103496228D02*
G01*
X124526798Y-103528202D01*
X124558772Y-103576054D01*
X124570000Y-103632500D01*
X124570000Y-103927500D01*
X124558772Y-103983946D01*
X124526798Y-104031798D01*
X124478946Y-104063772D01*
X124422500Y-104075000D01*
X124077500Y-104075000D01*
X124021054Y-104063772D01*
X123973202Y-104031798D01*
X123941228Y-103983946D01*
X123930000Y-103927500D01*
X123930000Y-103632500D01*
X123941228Y-103576054D01*
X123973202Y-103528202D01*
X124021054Y-103496228D01*
X124077500Y-103485000D01*
X124422500Y-103485000D01*
X124478946Y-103496228D01*
X124478946Y-103496228D01*
G37*
D12*
X124250000Y-103780000D03*
D10*
G36*
X124478946Y-104466228D02*
G01*
X124526798Y-104498202D01*
X124558772Y-104546054D01*
X124570000Y-104602500D01*
X124570000Y-104897500D01*
X124558772Y-104953946D01*
X124526798Y-105001798D01*
X124478946Y-105033772D01*
X124422500Y-105045000D01*
X124077500Y-105045000D01*
X124021054Y-105033772D01*
X123973202Y-105001798D01*
X123941228Y-104953946D01*
X123930000Y-104897500D01*
X123930000Y-104602500D01*
X123941228Y-104546054D01*
X123973202Y-104498202D01*
X124021054Y-104466228D01*
X124077500Y-104455000D01*
X124422500Y-104455000D01*
X124478946Y-104466228D01*
X124478946Y-104466228D01*
G37*
D12*
X124250000Y-104750000D03*
D10*
G36*
X116728946Y-105416228D02*
G01*
X116776798Y-105448202D01*
X116808772Y-105496054D01*
X116820000Y-105552500D01*
X116820000Y-105847500D01*
X116808772Y-105903946D01*
X116776798Y-105951798D01*
X116728946Y-105983772D01*
X116672500Y-105995000D01*
X116327500Y-105995000D01*
X116271054Y-105983772D01*
X116223202Y-105951798D01*
X116191228Y-105903946D01*
X116180000Y-105847500D01*
X116180000Y-105552500D01*
X116191228Y-105496054D01*
X116223202Y-105448202D01*
X116271054Y-105416228D01*
X116327500Y-105405000D01*
X116672500Y-105405000D01*
X116728946Y-105416228D01*
X116728946Y-105416228D01*
G37*
D12*
X116500000Y-105700000D03*
D10*
G36*
X116728946Y-104446228D02*
G01*
X116776798Y-104478202D01*
X116808772Y-104526054D01*
X116820000Y-104582500D01*
X116820000Y-104877500D01*
X116808772Y-104933946D01*
X116776798Y-104981798D01*
X116728946Y-105013772D01*
X116672500Y-105025000D01*
X116327500Y-105025000D01*
X116271054Y-105013772D01*
X116223202Y-104981798D01*
X116191228Y-104933946D01*
X116180000Y-104877500D01*
X116180000Y-104582500D01*
X116191228Y-104526054D01*
X116223202Y-104478202D01*
X116271054Y-104446228D01*
X116327500Y-104435000D01*
X116672500Y-104435000D01*
X116728946Y-104446228D01*
X116728946Y-104446228D01*
G37*
D12*
X116500000Y-104730000D03*
D10*
G36*
X123228946Y-105451228D02*
G01*
X123276798Y-105483202D01*
X123308772Y-105531054D01*
X123320000Y-105587500D01*
X123320000Y-105882500D01*
X123308772Y-105938946D01*
X123276798Y-105986798D01*
X123228946Y-106018772D01*
X123172500Y-106030000D01*
X122827500Y-106030000D01*
X122771054Y-106018772D01*
X122723202Y-105986798D01*
X122691228Y-105938946D01*
X122680000Y-105882500D01*
X122680000Y-105587500D01*
X122691228Y-105531054D01*
X122723202Y-105483202D01*
X122771054Y-105451228D01*
X122827500Y-105440000D01*
X123172500Y-105440000D01*
X123228946Y-105451228D01*
X123228946Y-105451228D01*
G37*
D12*
X123000000Y-105735000D03*
D10*
G36*
X123228946Y-104481228D02*
G01*
X123276798Y-104513202D01*
X123308772Y-104561054D01*
X123320000Y-104617500D01*
X123320000Y-104912500D01*
X123308772Y-104968946D01*
X123276798Y-105016798D01*
X123228946Y-105048772D01*
X123172500Y-105060000D01*
X122827500Y-105060000D01*
X122771054Y-105048772D01*
X122723202Y-105016798D01*
X122691228Y-104968946D01*
X122680000Y-104912500D01*
X122680000Y-104617500D01*
X122691228Y-104561054D01*
X122723202Y-104513202D01*
X122771054Y-104481228D01*
X122827500Y-104470000D01*
X123172500Y-104470000D01*
X123228946Y-104481228D01*
X123228946Y-104481228D01*
G37*
D12*
X123000000Y-104765000D03*
D16*
X121300000Y-112050000D03*
X121300000Y-112550000D03*
X121300000Y-113050000D03*
X121300000Y-113550000D03*
X121300000Y-114050000D03*
X121300000Y-114550000D03*
X121300000Y-115050000D03*
X121300000Y-115550000D03*
D17*
X122050000Y-116300000D03*
X122550000Y-116300000D03*
X123050000Y-116300000D03*
X123550000Y-116300000D03*
X124050000Y-116300000D03*
X124550000Y-116300000D03*
X125050000Y-116300000D03*
X125550000Y-116300000D03*
D16*
X126300000Y-115550000D03*
X126300000Y-115050000D03*
X126300000Y-114550000D03*
X126300000Y-114050000D03*
X126300000Y-113550000D03*
X126300000Y-113050000D03*
X126300000Y-112550000D03*
X126300000Y-112050000D03*
D17*
X125550000Y-111300000D03*
X125050000Y-111300000D03*
X124550000Y-111300000D03*
X124050000Y-111300000D03*
X123550000Y-111300000D03*
X123050000Y-111300000D03*
X122550000Y-111300000D03*
X122050000Y-111300000D03*
D18*
X168800000Y-87600000D03*
X166250000Y-87500000D03*
D19*
X173750000Y-84150000D03*
X174250000Y-84150000D03*
X174750000Y-84150000D03*
X175250000Y-84150000D03*
X175750000Y-84150000D03*
X176250000Y-84150000D03*
X176750000Y-84150000D03*
X177250000Y-84150000D03*
X177750000Y-84150000D03*
X178250000Y-84150000D03*
X178750000Y-84150000D03*
X179250000Y-84150000D03*
X179750000Y-84150000D03*
X180250000Y-84150000D03*
X180750000Y-84150000D03*
X180750000Y-89850000D03*
X180250000Y-89850000D03*
X179750000Y-89850000D03*
X179250000Y-89850000D03*
X178750000Y-89850000D03*
X178250000Y-89850000D03*
X177750000Y-89850000D03*
X177250000Y-89850000D03*
X176750000Y-89850000D03*
X176250000Y-89850000D03*
X175750000Y-89850000D03*
X175250000Y-89850000D03*
X174750000Y-89850000D03*
X174250000Y-89850000D03*
X173750000Y-89850000D03*
D10*
G36*
X124402403Y-100386418D02*
G01*
X124451066Y-100418934D01*
X124483582Y-100467597D01*
X124495000Y-100525000D01*
X124495000Y-102275000D01*
X124483582Y-102332403D01*
X124451066Y-102381066D01*
X124402403Y-102413582D01*
X124345000Y-102425000D01*
X124045000Y-102425000D01*
X123987597Y-102413582D01*
X123938934Y-102381066D01*
X123906418Y-102332403D01*
X123895000Y-102275000D01*
X123895000Y-100525000D01*
X123906418Y-100467597D01*
X123938934Y-100418934D01*
X123987597Y-100386418D01*
X124045000Y-100375000D01*
X124345000Y-100375000D01*
X124402403Y-100386418D01*
X124402403Y-100386418D01*
G37*
D15*
X124195000Y-101400000D03*
D10*
G36*
X123132403Y-100386418D02*
G01*
X123181066Y-100418934D01*
X123213582Y-100467597D01*
X123225000Y-100525000D01*
X123225000Y-102275000D01*
X123213582Y-102332403D01*
X123181066Y-102381066D01*
X123132403Y-102413582D01*
X123075000Y-102425000D01*
X122775000Y-102425000D01*
X122717597Y-102413582D01*
X122668934Y-102381066D01*
X122636418Y-102332403D01*
X122625000Y-102275000D01*
X122625000Y-100525000D01*
X122636418Y-100467597D01*
X122668934Y-100418934D01*
X122717597Y-100386418D01*
X122775000Y-100375000D01*
X123075000Y-100375000D01*
X123132403Y-100386418D01*
X123132403Y-100386418D01*
G37*
D15*
X122925000Y-101400000D03*
D10*
G36*
X121862403Y-100386418D02*
G01*
X121911066Y-100418934D01*
X121943582Y-100467597D01*
X121955000Y-100525000D01*
X121955000Y-102275000D01*
X121943582Y-102332403D01*
X121911066Y-102381066D01*
X121862403Y-102413582D01*
X121805000Y-102425000D01*
X121505000Y-102425000D01*
X121447597Y-102413582D01*
X121398934Y-102381066D01*
X121366418Y-102332403D01*
X121355000Y-102275000D01*
X121355000Y-100525000D01*
X121366418Y-100467597D01*
X121398934Y-100418934D01*
X121447597Y-100386418D01*
X121505000Y-100375000D01*
X121805000Y-100375000D01*
X121862403Y-100386418D01*
X121862403Y-100386418D01*
G37*
D15*
X121655000Y-101400000D03*
D10*
G36*
X120592403Y-100386418D02*
G01*
X120641066Y-100418934D01*
X120673582Y-100467597D01*
X120685000Y-100525000D01*
X120685000Y-102275000D01*
X120673582Y-102332403D01*
X120641066Y-102381066D01*
X120592403Y-102413582D01*
X120535000Y-102425000D01*
X120235000Y-102425000D01*
X120177597Y-102413582D01*
X120128934Y-102381066D01*
X120096418Y-102332403D01*
X120085000Y-102275000D01*
X120085000Y-100525000D01*
X120096418Y-100467597D01*
X120128934Y-100418934D01*
X120177597Y-100386418D01*
X120235000Y-100375000D01*
X120535000Y-100375000D01*
X120592403Y-100386418D01*
X120592403Y-100386418D01*
G37*
D15*
X120385000Y-101400000D03*
D10*
G36*
X119322403Y-100386418D02*
G01*
X119371066Y-100418934D01*
X119403582Y-100467597D01*
X119415000Y-100525000D01*
X119415000Y-102275000D01*
X119403582Y-102332403D01*
X119371066Y-102381066D01*
X119322403Y-102413582D01*
X119265000Y-102425000D01*
X118965000Y-102425000D01*
X118907597Y-102413582D01*
X118858934Y-102381066D01*
X118826418Y-102332403D01*
X118815000Y-102275000D01*
X118815000Y-100525000D01*
X118826418Y-100467597D01*
X118858934Y-100418934D01*
X118907597Y-100386418D01*
X118965000Y-100375000D01*
X119265000Y-100375000D01*
X119322403Y-100386418D01*
X119322403Y-100386418D01*
G37*
D15*
X119115000Y-101400000D03*
D10*
G36*
X118052403Y-100386418D02*
G01*
X118101066Y-100418934D01*
X118133582Y-100467597D01*
X118145000Y-100525000D01*
X118145000Y-102275000D01*
X118133582Y-102332403D01*
X118101066Y-102381066D01*
X118052403Y-102413582D01*
X117995000Y-102425000D01*
X117695000Y-102425000D01*
X117637597Y-102413582D01*
X117588934Y-102381066D01*
X117556418Y-102332403D01*
X117545000Y-102275000D01*
X117545000Y-100525000D01*
X117556418Y-100467597D01*
X117588934Y-100418934D01*
X117637597Y-100386418D01*
X117695000Y-100375000D01*
X117995000Y-100375000D01*
X118052403Y-100386418D01*
X118052403Y-100386418D01*
G37*
D15*
X117845000Y-101400000D03*
D10*
G36*
X116782403Y-100386418D02*
G01*
X116831066Y-100418934D01*
X116863582Y-100467597D01*
X116875000Y-100525000D01*
X116875000Y-102275000D01*
X116863582Y-102332403D01*
X116831066Y-102381066D01*
X116782403Y-102413582D01*
X116725000Y-102425000D01*
X116425000Y-102425000D01*
X116367597Y-102413582D01*
X116318934Y-102381066D01*
X116286418Y-102332403D01*
X116275000Y-102275000D01*
X116275000Y-100525000D01*
X116286418Y-100467597D01*
X116318934Y-100418934D01*
X116367597Y-100386418D01*
X116425000Y-100375000D01*
X116725000Y-100375000D01*
X116782403Y-100386418D01*
X116782403Y-100386418D01*
G37*
D15*
X116575000Y-101400000D03*
D10*
G36*
X115512403Y-100386418D02*
G01*
X115561066Y-100418934D01*
X115593582Y-100467597D01*
X115605000Y-100525000D01*
X115605000Y-102275000D01*
X115593582Y-102332403D01*
X115561066Y-102381066D01*
X115512403Y-102413582D01*
X115455000Y-102425000D01*
X115155000Y-102425000D01*
X115097597Y-102413582D01*
X115048934Y-102381066D01*
X115016418Y-102332403D01*
X115005000Y-102275000D01*
X115005000Y-100525000D01*
X115016418Y-100467597D01*
X115048934Y-100418934D01*
X115097597Y-100386418D01*
X115155000Y-100375000D01*
X115455000Y-100375000D01*
X115512403Y-100386418D01*
X115512403Y-100386418D01*
G37*
D15*
X115305000Y-101400000D03*
D10*
G36*
X115512403Y-91086418D02*
G01*
X115561066Y-91118934D01*
X115593582Y-91167597D01*
X115605000Y-91225000D01*
X115605000Y-92975000D01*
X115593582Y-93032403D01*
X115561066Y-93081066D01*
X115512403Y-93113582D01*
X115455000Y-93125000D01*
X115155000Y-93125000D01*
X115097597Y-93113582D01*
X115048934Y-93081066D01*
X115016418Y-93032403D01*
X115005000Y-92975000D01*
X115005000Y-91225000D01*
X115016418Y-91167597D01*
X115048934Y-91118934D01*
X115097597Y-91086418D01*
X115155000Y-91075000D01*
X115455000Y-91075000D01*
X115512403Y-91086418D01*
X115512403Y-91086418D01*
G37*
D15*
X115305000Y-92100000D03*
D10*
G36*
X116782403Y-91086418D02*
G01*
X116831066Y-91118934D01*
X116863582Y-91167597D01*
X116875000Y-91225000D01*
X116875000Y-92975000D01*
X116863582Y-93032403D01*
X116831066Y-93081066D01*
X116782403Y-93113582D01*
X116725000Y-93125000D01*
X116425000Y-93125000D01*
X116367597Y-93113582D01*
X116318934Y-93081066D01*
X116286418Y-93032403D01*
X116275000Y-92975000D01*
X116275000Y-91225000D01*
X116286418Y-91167597D01*
X116318934Y-91118934D01*
X116367597Y-91086418D01*
X116425000Y-91075000D01*
X116725000Y-91075000D01*
X116782403Y-91086418D01*
X116782403Y-91086418D01*
G37*
D15*
X116575000Y-92100000D03*
D10*
G36*
X118052403Y-91086418D02*
G01*
X118101066Y-91118934D01*
X118133582Y-91167597D01*
X118145000Y-91225000D01*
X118145000Y-92975000D01*
X118133582Y-93032403D01*
X118101066Y-93081066D01*
X118052403Y-93113582D01*
X117995000Y-93125000D01*
X117695000Y-93125000D01*
X117637597Y-93113582D01*
X117588934Y-93081066D01*
X117556418Y-93032403D01*
X117545000Y-92975000D01*
X117545000Y-91225000D01*
X117556418Y-91167597D01*
X117588934Y-91118934D01*
X117637597Y-91086418D01*
X117695000Y-91075000D01*
X117995000Y-91075000D01*
X118052403Y-91086418D01*
X118052403Y-91086418D01*
G37*
D15*
X117845000Y-92100000D03*
D10*
G36*
X119322403Y-91086418D02*
G01*
X119371066Y-91118934D01*
X119403582Y-91167597D01*
X119415000Y-91225000D01*
X119415000Y-92975000D01*
X119403582Y-93032403D01*
X119371066Y-93081066D01*
X119322403Y-93113582D01*
X119265000Y-93125000D01*
X118965000Y-93125000D01*
X118907597Y-93113582D01*
X118858934Y-93081066D01*
X118826418Y-93032403D01*
X118815000Y-92975000D01*
X118815000Y-91225000D01*
X118826418Y-91167597D01*
X118858934Y-91118934D01*
X118907597Y-91086418D01*
X118965000Y-91075000D01*
X119265000Y-91075000D01*
X119322403Y-91086418D01*
X119322403Y-91086418D01*
G37*
D15*
X119115000Y-92100000D03*
D10*
G36*
X120592403Y-91086418D02*
G01*
X120641066Y-91118934D01*
X120673582Y-91167597D01*
X120685000Y-91225000D01*
X120685000Y-92975000D01*
X120673582Y-93032403D01*
X120641066Y-93081066D01*
X120592403Y-93113582D01*
X120535000Y-93125000D01*
X120235000Y-93125000D01*
X120177597Y-93113582D01*
X120128934Y-93081066D01*
X120096418Y-93032403D01*
X120085000Y-92975000D01*
X120085000Y-91225000D01*
X120096418Y-91167597D01*
X120128934Y-91118934D01*
X120177597Y-91086418D01*
X120235000Y-91075000D01*
X120535000Y-91075000D01*
X120592403Y-91086418D01*
X120592403Y-91086418D01*
G37*
D15*
X120385000Y-92100000D03*
D10*
G36*
X121862403Y-91086418D02*
G01*
X121911066Y-91118934D01*
X121943582Y-91167597D01*
X121955000Y-91225000D01*
X121955000Y-92975000D01*
X121943582Y-93032403D01*
X121911066Y-93081066D01*
X121862403Y-93113582D01*
X121805000Y-93125000D01*
X121505000Y-93125000D01*
X121447597Y-93113582D01*
X121398934Y-93081066D01*
X121366418Y-93032403D01*
X121355000Y-92975000D01*
X121355000Y-91225000D01*
X121366418Y-91167597D01*
X121398934Y-91118934D01*
X121447597Y-91086418D01*
X121505000Y-91075000D01*
X121805000Y-91075000D01*
X121862403Y-91086418D01*
X121862403Y-91086418D01*
G37*
D15*
X121655000Y-92100000D03*
D10*
G36*
X123132403Y-91086418D02*
G01*
X123181066Y-91118934D01*
X123213582Y-91167597D01*
X123225000Y-91225000D01*
X123225000Y-92975000D01*
X123213582Y-93032403D01*
X123181066Y-93081066D01*
X123132403Y-93113582D01*
X123075000Y-93125000D01*
X122775000Y-93125000D01*
X122717597Y-93113582D01*
X122668934Y-93081066D01*
X122636418Y-93032403D01*
X122625000Y-92975000D01*
X122625000Y-91225000D01*
X122636418Y-91167597D01*
X122668934Y-91118934D01*
X122717597Y-91086418D01*
X122775000Y-91075000D01*
X123075000Y-91075000D01*
X123132403Y-91086418D01*
X123132403Y-91086418D01*
G37*
D15*
X122925000Y-92100000D03*
D10*
G36*
X124402403Y-91086418D02*
G01*
X124451066Y-91118934D01*
X124483582Y-91167597D01*
X124495000Y-91225000D01*
X124495000Y-92975000D01*
X124483582Y-93032403D01*
X124451066Y-93081066D01*
X124402403Y-93113582D01*
X124345000Y-93125000D01*
X124045000Y-93125000D01*
X123987597Y-93113582D01*
X123938934Y-93081066D01*
X123906418Y-93032403D01*
X123895000Y-92975000D01*
X123895000Y-91225000D01*
X123906418Y-91167597D01*
X123938934Y-91118934D01*
X123987597Y-91086418D01*
X124045000Y-91075000D01*
X124345000Y-91075000D01*
X124402403Y-91086418D01*
X124402403Y-91086418D01*
G37*
D15*
X124195000Y-92100000D03*
D10*
G36*
X173639962Y-74804151D02*
G01*
X173710930Y-74851570D01*
X173758349Y-74922538D01*
X173775000Y-75006250D01*
X173775000Y-75443750D01*
X173758349Y-75527462D01*
X173710930Y-75598430D01*
X173639962Y-75645849D01*
X173556250Y-75662500D01*
X173043750Y-75662500D01*
X172960038Y-75645849D01*
X172889070Y-75598430D01*
X172841651Y-75527462D01*
X172825000Y-75443750D01*
X172825000Y-75006250D01*
X172841651Y-74922538D01*
X172889070Y-74851570D01*
X172960038Y-74804151D01*
X173043750Y-74787500D01*
X173556250Y-74787500D01*
X173639962Y-74804151D01*
X173639962Y-74804151D01*
G37*
D13*
X173300000Y-75225000D03*
D10*
G36*
X173639962Y-76379151D02*
G01*
X173710930Y-76426570D01*
X173758349Y-76497538D01*
X173775000Y-76581250D01*
X173775000Y-77018750D01*
X173758349Y-77102462D01*
X173710930Y-77173430D01*
X173639962Y-77220849D01*
X173556250Y-77237500D01*
X173043750Y-77237500D01*
X172960038Y-77220849D01*
X172889070Y-77173430D01*
X172841651Y-77102462D01*
X172825000Y-77018750D01*
X172825000Y-76581250D01*
X172841651Y-76497538D01*
X172889070Y-76426570D01*
X172960038Y-76379151D01*
X173043750Y-76362500D01*
X173556250Y-76362500D01*
X173639962Y-76379151D01*
X173639962Y-76379151D01*
G37*
D13*
X173300000Y-76800000D03*
D10*
G36*
X175114962Y-77941651D02*
G01*
X175185930Y-77989070D01*
X175233349Y-78060038D01*
X175250000Y-78143750D01*
X175250000Y-78656250D01*
X175233349Y-78739962D01*
X175185930Y-78810930D01*
X175114962Y-78858349D01*
X175031250Y-78875000D01*
X174593750Y-78875000D01*
X174510038Y-78858349D01*
X174439070Y-78810930D01*
X174391651Y-78739962D01*
X174375000Y-78656250D01*
X174375000Y-78143750D01*
X174391651Y-78060038D01*
X174439070Y-77989070D01*
X174510038Y-77941651D01*
X174593750Y-77925000D01*
X175031250Y-77925000D01*
X175114962Y-77941651D01*
X175114962Y-77941651D01*
G37*
D13*
X174812500Y-78400000D03*
D10*
G36*
X176689962Y-77941651D02*
G01*
X176760930Y-77989070D01*
X176808349Y-78060038D01*
X176825000Y-78143750D01*
X176825000Y-78656250D01*
X176808349Y-78739962D01*
X176760930Y-78810930D01*
X176689962Y-78858349D01*
X176606250Y-78875000D01*
X176168750Y-78875000D01*
X176085038Y-78858349D01*
X176014070Y-78810930D01*
X175966651Y-78739962D01*
X175950000Y-78656250D01*
X175950000Y-78143750D01*
X175966651Y-78060038D01*
X176014070Y-77989070D01*
X176085038Y-77941651D01*
X176168750Y-77925000D01*
X176606250Y-77925000D01*
X176689962Y-77941651D01*
X176689962Y-77941651D01*
G37*
D13*
X176387500Y-78400000D03*
D10*
G36*
X173639962Y-80304151D02*
G01*
X173710930Y-80351570D01*
X173758349Y-80422538D01*
X173775000Y-80506250D01*
X173775000Y-80943750D01*
X173758349Y-81027462D01*
X173710930Y-81098430D01*
X173639962Y-81145849D01*
X173556250Y-81162500D01*
X173043750Y-81162500D01*
X172960038Y-81145849D01*
X172889070Y-81098430D01*
X172841651Y-81027462D01*
X172825000Y-80943750D01*
X172825000Y-80506250D01*
X172841651Y-80422538D01*
X172889070Y-80351570D01*
X172960038Y-80304151D01*
X173043750Y-80287500D01*
X173556250Y-80287500D01*
X173639962Y-80304151D01*
X173639962Y-80304151D01*
G37*
D13*
X173300000Y-80725000D03*
D10*
G36*
X173639962Y-81879151D02*
G01*
X173710930Y-81926570D01*
X173758349Y-81997538D01*
X173775000Y-82081250D01*
X173775000Y-82518750D01*
X173758349Y-82602462D01*
X173710930Y-82673430D01*
X173639962Y-82720849D01*
X173556250Y-82737500D01*
X173043750Y-82737500D01*
X172960038Y-82720849D01*
X172889070Y-82673430D01*
X172841651Y-82602462D01*
X172825000Y-82518750D01*
X172825000Y-82081250D01*
X172841651Y-81997538D01*
X172889070Y-81926570D01*
X172960038Y-81879151D01*
X173043750Y-81862500D01*
X173556250Y-81862500D01*
X173639962Y-81879151D01*
X173639962Y-81879151D01*
G37*
D13*
X173300000Y-82300000D03*
D20*
X183500000Y-78350000D03*
X183500000Y-77500000D03*
X183500000Y-79200000D03*
X185800000Y-78350000D03*
X185800000Y-77500000D03*
X185800000Y-79200000D03*
X184650000Y-79200000D03*
X184650000Y-77500000D03*
D21*
X182770000Y-81050000D03*
X186530000Y-81050000D03*
X184050000Y-81050000D03*
D22*
X184010000Y-75330000D03*
X182740000Y-75330000D03*
X185290000Y-75330000D03*
X186560000Y-75330000D03*
D21*
X185250000Y-81050000D03*
D20*
X184650000Y-78350000D03*
D21*
X168615000Y-73650000D03*
X169465000Y-73650000D03*
X167765000Y-73650000D03*
X168615000Y-75950000D03*
X169465000Y-75950000D03*
X167765000Y-75950000D03*
X167765000Y-74800000D03*
X169465000Y-74800000D03*
D20*
X165915000Y-72920000D03*
X165915000Y-76680000D03*
X165915000Y-74200000D03*
D23*
X171635000Y-74160000D03*
X171635000Y-72890000D03*
X171635000Y-75440000D03*
X171635000Y-76710000D03*
D20*
X165915000Y-75400000D03*
D21*
X168615000Y-74800000D03*
D24*
X175800000Y-80000000D03*
X174850000Y-82000000D03*
X176750000Y-82000000D03*
D21*
X168650000Y-79300000D03*
X169500000Y-79300000D03*
X167800000Y-79300000D03*
X168650000Y-81600000D03*
X169500000Y-81600000D03*
X167800000Y-81600000D03*
X167800000Y-80450000D03*
X169500000Y-80450000D03*
D20*
X165950000Y-78570000D03*
X165950000Y-82330000D03*
X165950000Y-79850000D03*
D23*
X171670000Y-79810000D03*
X171670000Y-78540000D03*
X171670000Y-81090000D03*
X171670000Y-82360000D03*
D20*
X165950000Y-81050000D03*
D21*
X168650000Y-80450000D03*
D25*
X174950000Y-76400000D03*
X178250000Y-76400000D03*
D26*
X182750000Y-88650000D03*
X182750000Y-85350000D03*
X185200000Y-88650000D03*
X185200000Y-85350000D03*
D10*
G36*
X181339962Y-81966651D02*
G01*
X181410930Y-82014070D01*
X181458349Y-82085038D01*
X181475000Y-82168750D01*
X181475000Y-82606250D01*
X181458349Y-82689962D01*
X181410930Y-82760930D01*
X181339962Y-82808349D01*
X181256250Y-82825000D01*
X180743750Y-82825000D01*
X180660038Y-82808349D01*
X180589070Y-82760930D01*
X180541651Y-82689962D01*
X180525000Y-82606250D01*
X180525000Y-82168750D01*
X180541651Y-82085038D01*
X180589070Y-82014070D01*
X180660038Y-81966651D01*
X180743750Y-81950000D01*
X181256250Y-81950000D01*
X181339962Y-81966651D01*
X181339962Y-81966651D01*
G37*
D13*
X181000000Y-82387500D03*
D10*
G36*
X181339962Y-80391651D02*
G01*
X181410930Y-80439070D01*
X181458349Y-80510038D01*
X181475000Y-80593750D01*
X181475000Y-81031250D01*
X181458349Y-81114962D01*
X181410930Y-81185930D01*
X181339962Y-81233349D01*
X181256250Y-81250000D01*
X180743750Y-81250000D01*
X180660038Y-81233349D01*
X180589070Y-81185930D01*
X180541651Y-81114962D01*
X180525000Y-81031250D01*
X180525000Y-80593750D01*
X180541651Y-80510038D01*
X180589070Y-80439070D01*
X180660038Y-80391651D01*
X180743750Y-80375000D01*
X181256250Y-80375000D01*
X181339962Y-80391651D01*
X181339962Y-80391651D01*
G37*
D13*
X181000000Y-80812500D03*
D10*
G36*
X178739962Y-79479151D02*
G01*
X178810930Y-79526570D01*
X178858349Y-79597538D01*
X178875000Y-79681250D01*
X178875000Y-80118750D01*
X178858349Y-80202462D01*
X178810930Y-80273430D01*
X178739962Y-80320849D01*
X178656250Y-80337500D01*
X178143750Y-80337500D01*
X178060038Y-80320849D01*
X177989070Y-80273430D01*
X177941651Y-80202462D01*
X177925000Y-80118750D01*
X177925000Y-79681250D01*
X177941651Y-79597538D01*
X177989070Y-79526570D01*
X178060038Y-79479151D01*
X178143750Y-79462500D01*
X178656250Y-79462500D01*
X178739962Y-79479151D01*
X178739962Y-79479151D01*
G37*
D13*
X178400000Y-79900000D03*
D10*
G36*
X178739962Y-77904151D02*
G01*
X178810930Y-77951570D01*
X178858349Y-78022538D01*
X178875000Y-78106250D01*
X178875000Y-78543750D01*
X178858349Y-78627462D01*
X178810930Y-78698430D01*
X178739962Y-78745849D01*
X178656250Y-78762500D01*
X178143750Y-78762500D01*
X178060038Y-78745849D01*
X177989070Y-78698430D01*
X177941651Y-78627462D01*
X177925000Y-78543750D01*
X177925000Y-78106250D01*
X177941651Y-78022538D01*
X177989070Y-77951570D01*
X178060038Y-77904151D01*
X178143750Y-77887500D01*
X178656250Y-77887500D01*
X178739962Y-77904151D01*
X178739962Y-77904151D01*
G37*
D13*
X178400000Y-78325000D03*
M02*
