G04 #@! TF.GenerationSoftware,KiCad,Pcbnew,5.1.4-e60b266~84~ubuntu18.04.1*
G04 #@! TF.CreationDate,2019-09-10T17:15:46-06:00*
G04 #@! TF.ProjectId,main_board_onion,6d61696e-5f62-46f6-9172-645f6f6e696f,rev?*
G04 #@! TF.SameCoordinates,Original*
G04 #@! TF.FileFunction,Soldermask,Bot*
G04 #@! TF.FilePolarity,Negative*
%FSLAX46Y46*%
G04 Gerber Fmt 4.6, Leading zero omitted, Abs format (unit mm)*
G04 Created by KiCad (PCBNEW 5.1.4-e60b266~84~ubuntu18.04.1) date 2019-09-10 17:15:46*
%MOMM*%
%LPD*%
G04 APERTURE LIST*
%ADD10C,0.100000*%
G04 APERTURE END LIST*
D10*
G36*
X120850000Y-111875000D02*
G01*
X121750000Y-111875000D01*
X121750000Y-112225000D01*
X120850000Y-112225000D01*
X120850000Y-111875000D01*
G37*
G36*
X120850000Y-112375000D02*
G01*
X121750000Y-112375000D01*
X121750000Y-112725000D01*
X120850000Y-112725000D01*
X120850000Y-112375000D01*
G37*
G36*
X120850000Y-112875000D02*
G01*
X121750000Y-112875000D01*
X121750000Y-113225000D01*
X120850000Y-113225000D01*
X120850000Y-112875000D01*
G37*
G36*
X120850000Y-113375000D02*
G01*
X121750000Y-113375000D01*
X121750000Y-113725000D01*
X120850000Y-113725000D01*
X120850000Y-113375000D01*
G37*
G36*
X120850000Y-113875000D02*
G01*
X121750000Y-113875000D01*
X121750000Y-114225000D01*
X120850000Y-114225000D01*
X120850000Y-113875000D01*
G37*
G36*
X120850000Y-114375000D02*
G01*
X121750000Y-114375000D01*
X121750000Y-114725000D01*
X120850000Y-114725000D01*
X120850000Y-114375000D01*
G37*
G36*
X120850000Y-114875000D02*
G01*
X121750000Y-114875000D01*
X121750000Y-115225000D01*
X120850000Y-115225000D01*
X120850000Y-114875000D01*
G37*
G36*
X120850000Y-115375000D02*
G01*
X121750000Y-115375000D01*
X121750000Y-115725000D01*
X120850000Y-115725000D01*
X120850000Y-115375000D01*
G37*
G36*
X121875000Y-116750000D02*
G01*
X121875000Y-115850000D01*
X122225000Y-115850000D01*
X122225000Y-116750000D01*
X121875000Y-116750000D01*
G37*
G36*
X122375000Y-116750000D02*
G01*
X122375000Y-115850000D01*
X122725000Y-115850000D01*
X122725000Y-116750000D01*
X122375000Y-116750000D01*
G37*
G36*
X122875000Y-116750000D02*
G01*
X122875000Y-115850000D01*
X123225000Y-115850000D01*
X123225000Y-116750000D01*
X122875000Y-116750000D01*
G37*
G36*
X123375000Y-116750000D02*
G01*
X123375000Y-115850000D01*
X123725000Y-115850000D01*
X123725000Y-116750000D01*
X123375000Y-116750000D01*
G37*
G36*
X123875000Y-116750000D02*
G01*
X123875000Y-115850000D01*
X124225000Y-115850000D01*
X124225000Y-116750000D01*
X123875000Y-116750000D01*
G37*
G36*
X124375000Y-116750000D02*
G01*
X124375000Y-115850000D01*
X124725000Y-115850000D01*
X124725000Y-116750000D01*
X124375000Y-116750000D01*
G37*
G36*
X124875000Y-116750000D02*
G01*
X124875000Y-115850000D01*
X125225000Y-115850000D01*
X125225000Y-116750000D01*
X124875000Y-116750000D01*
G37*
G36*
X125375000Y-116750000D02*
G01*
X125375000Y-115850000D01*
X125725000Y-115850000D01*
X125725000Y-116750000D01*
X125375000Y-116750000D01*
G37*
G36*
X126750000Y-115725000D02*
G01*
X125850000Y-115725000D01*
X125850000Y-115375000D01*
X126750000Y-115375000D01*
X126750000Y-115725000D01*
G37*
G36*
X126750000Y-115225000D02*
G01*
X125850000Y-115225000D01*
X125850000Y-114875000D01*
X126750000Y-114875000D01*
X126750000Y-115225000D01*
G37*
G36*
X126750000Y-114725000D02*
G01*
X125850000Y-114725000D01*
X125850000Y-114375000D01*
X126750000Y-114375000D01*
X126750000Y-114725000D01*
G37*
G36*
X126750000Y-114225000D02*
G01*
X125850000Y-114225000D01*
X125850000Y-113875000D01*
X126750000Y-113875000D01*
X126750000Y-114225000D01*
G37*
G36*
X126750000Y-113725000D02*
G01*
X125850000Y-113725000D01*
X125850000Y-113375000D01*
X126750000Y-113375000D01*
X126750000Y-113725000D01*
G37*
G36*
X126750000Y-113225000D02*
G01*
X125850000Y-113225000D01*
X125850000Y-112875000D01*
X126750000Y-112875000D01*
X126750000Y-113225000D01*
G37*
G36*
X126750000Y-112725000D02*
G01*
X125850000Y-112725000D01*
X125850000Y-112375000D01*
X126750000Y-112375000D01*
X126750000Y-112725000D01*
G37*
G36*
X126750000Y-112225000D02*
G01*
X125850000Y-112225000D01*
X125850000Y-111875000D01*
X126750000Y-111875000D01*
X126750000Y-112225000D01*
G37*
G36*
X125725000Y-110850000D02*
G01*
X125725000Y-111750000D01*
X125375000Y-111750000D01*
X125375000Y-110850000D01*
X125725000Y-110850000D01*
G37*
G36*
X125225000Y-110850000D02*
G01*
X125225000Y-111750000D01*
X124875000Y-111750000D01*
X124875000Y-110850000D01*
X125225000Y-110850000D01*
G37*
G36*
X124725000Y-110850000D02*
G01*
X124725000Y-111750000D01*
X124375000Y-111750000D01*
X124375000Y-110850000D01*
X124725000Y-110850000D01*
G37*
G36*
X124225000Y-110850000D02*
G01*
X124225000Y-111750000D01*
X123875000Y-111750000D01*
X123875000Y-110850000D01*
X124225000Y-110850000D01*
G37*
G36*
X123725000Y-110850000D02*
G01*
X123725000Y-111750000D01*
X123375000Y-111750000D01*
X123375000Y-110850000D01*
X123725000Y-110850000D01*
G37*
G36*
X123225000Y-110850000D02*
G01*
X123225000Y-111750000D01*
X122875000Y-111750000D01*
X122875000Y-110850000D01*
X123225000Y-110850000D01*
G37*
G36*
X122725000Y-110850000D02*
G01*
X122725000Y-111750000D01*
X122375000Y-111750000D01*
X122375000Y-110850000D01*
X122725000Y-110850000D01*
G37*
G36*
X122225000Y-110850000D02*
G01*
X122225000Y-111750000D01*
X121875000Y-111750000D01*
X121875000Y-110850000D01*
X122225000Y-110850000D01*
G37*
G36*
X158664921Y-135399278D02*
G01*
X157517767Y-137037582D01*
X155879463Y-135890428D01*
X157026617Y-134252124D01*
X158664921Y-135399278D01*
X158664921Y-135399278D01*
G37*
G36*
X158956366Y-132589826D02*
G01*
X159020765Y-132602636D01*
X159202754Y-132678018D01*
X159366539Y-132787456D01*
X159505827Y-132926744D01*
X159615265Y-133090529D01*
X159690647Y-133272518D01*
X159729076Y-133465716D01*
X159729076Y-133662698D01*
X159690647Y-133855896D01*
X159615265Y-134037885D01*
X159505827Y-134201670D01*
X159366539Y-134340958D01*
X159202754Y-134450396D01*
X159020765Y-134525778D01*
X158956366Y-134538588D01*
X158827569Y-134564207D01*
X158630583Y-134564207D01*
X158501786Y-134538588D01*
X158437387Y-134525778D01*
X158255398Y-134450396D01*
X158091613Y-134340958D01*
X157952325Y-134201670D01*
X157842887Y-134037885D01*
X157767505Y-133855896D01*
X157729076Y-133662698D01*
X157729076Y-133465716D01*
X157767505Y-133272518D01*
X157842887Y-133090529D01*
X157952325Y-132926744D01*
X158091613Y-132787456D01*
X158255398Y-132678018D01*
X158437387Y-132602636D01*
X158501786Y-132589826D01*
X158630583Y-132564207D01*
X158827569Y-132564207D01*
X158956366Y-132589826D01*
X158956366Y-132589826D01*
G37*
G36*
X160413250Y-130509179D02*
G01*
X160477649Y-130521989D01*
X160659638Y-130597371D01*
X160823423Y-130706809D01*
X160962711Y-130846097D01*
X161072149Y-131009882D01*
X161147531Y-131191871D01*
X161185960Y-131385069D01*
X161185960Y-131582051D01*
X161147531Y-131775249D01*
X161072149Y-131957238D01*
X160962711Y-132121023D01*
X160823423Y-132260311D01*
X160659638Y-132369749D01*
X160477649Y-132445131D01*
X160413250Y-132457941D01*
X160284453Y-132483560D01*
X160087467Y-132483560D01*
X159958670Y-132457941D01*
X159894271Y-132445131D01*
X159712282Y-132369749D01*
X159548497Y-132260311D01*
X159409209Y-132121023D01*
X159299771Y-131957238D01*
X159224389Y-131775249D01*
X159185960Y-131582051D01*
X159185960Y-131385069D01*
X159224389Y-131191871D01*
X159299771Y-131009882D01*
X159409209Y-130846097D01*
X159548497Y-130706809D01*
X159712282Y-130597371D01*
X159894271Y-130521989D01*
X159958670Y-130509179D01*
X160087467Y-130483560D01*
X160284453Y-130483560D01*
X160413250Y-130509179D01*
X160413250Y-130509179D01*
G37*
G36*
X161870134Y-128428533D02*
G01*
X161934533Y-128441343D01*
X162116522Y-128516725D01*
X162280307Y-128626163D01*
X162419595Y-128765451D01*
X162529033Y-128929236D01*
X162604415Y-129111225D01*
X162642844Y-129304423D01*
X162642844Y-129501405D01*
X162604415Y-129694603D01*
X162529033Y-129876592D01*
X162419595Y-130040377D01*
X162280307Y-130179665D01*
X162116522Y-130289103D01*
X161934533Y-130364485D01*
X161870134Y-130377295D01*
X161741337Y-130402914D01*
X161544351Y-130402914D01*
X161415554Y-130377295D01*
X161351155Y-130364485D01*
X161169166Y-130289103D01*
X161005381Y-130179665D01*
X160866093Y-130040377D01*
X160756655Y-129876592D01*
X160681273Y-129694603D01*
X160642844Y-129501405D01*
X160642844Y-129304423D01*
X160681273Y-129111225D01*
X160756655Y-128929236D01*
X160866093Y-128765451D01*
X161005381Y-128626163D01*
X161169166Y-128516725D01*
X161351155Y-128441343D01*
X161415554Y-128428533D01*
X161544351Y-128402914D01*
X161741337Y-128402914D01*
X161870134Y-128428533D01*
X161870134Y-128428533D01*
G37*
G36*
X163327018Y-126347887D02*
G01*
X163391417Y-126360697D01*
X163573406Y-126436079D01*
X163737191Y-126545517D01*
X163876479Y-126684805D01*
X163985917Y-126848590D01*
X164061299Y-127030579D01*
X164099728Y-127223777D01*
X164099728Y-127420759D01*
X164061299Y-127613957D01*
X163985917Y-127795946D01*
X163876479Y-127959731D01*
X163737191Y-128099019D01*
X163573406Y-128208457D01*
X163391417Y-128283839D01*
X163327018Y-128296649D01*
X163198221Y-128322268D01*
X163001235Y-128322268D01*
X162872438Y-128296649D01*
X162808039Y-128283839D01*
X162626050Y-128208457D01*
X162462265Y-128099019D01*
X162322977Y-127959731D01*
X162213539Y-127795946D01*
X162138157Y-127613957D01*
X162099728Y-127420759D01*
X162099728Y-127223777D01*
X162138157Y-127030579D01*
X162213539Y-126848590D01*
X162322977Y-126684805D01*
X162462265Y-126545517D01*
X162626050Y-126436079D01*
X162808039Y-126360697D01*
X162872438Y-126347887D01*
X163001235Y-126322268D01*
X163198221Y-126322268D01*
X163327018Y-126347887D01*
X163327018Y-126347887D01*
G37*
G36*
X145015604Y-125929167D02*
G01*
X145080003Y-125941977D01*
X145261992Y-126017359D01*
X145425777Y-126126797D01*
X145565065Y-126266085D01*
X145674503Y-126429870D01*
X145749885Y-126611859D01*
X145788314Y-126805057D01*
X145788314Y-127002039D01*
X145749885Y-127195237D01*
X145674503Y-127377226D01*
X145565065Y-127541011D01*
X145425777Y-127680299D01*
X145261992Y-127789737D01*
X145080003Y-127865119D01*
X145015604Y-127877929D01*
X144886807Y-127903548D01*
X144689821Y-127903548D01*
X144561024Y-127877929D01*
X144496625Y-127865119D01*
X144314636Y-127789737D01*
X144150851Y-127680299D01*
X144011563Y-127541011D01*
X143902125Y-127377226D01*
X143826743Y-127195237D01*
X143788314Y-127002039D01*
X143788314Y-126805057D01*
X143826743Y-126611859D01*
X143902125Y-126429870D01*
X144011563Y-126266085D01*
X144150851Y-126126797D01*
X144314636Y-126017359D01*
X144496625Y-125941977D01*
X144561024Y-125929167D01*
X144689821Y-125903548D01*
X144886807Y-125903548D01*
X145015604Y-125929167D01*
X145015604Y-125929167D01*
G37*
G36*
X164783902Y-124267241D02*
G01*
X164848301Y-124280051D01*
X165030290Y-124355433D01*
X165194075Y-124464871D01*
X165333363Y-124604159D01*
X165442801Y-124767944D01*
X165518183Y-124949933D01*
X165556612Y-125143131D01*
X165556612Y-125340113D01*
X165518183Y-125533311D01*
X165442801Y-125715300D01*
X165333363Y-125879085D01*
X165194075Y-126018373D01*
X165030290Y-126127811D01*
X164848301Y-126203193D01*
X164783902Y-126216003D01*
X164655105Y-126241622D01*
X164458119Y-126241622D01*
X164329322Y-126216003D01*
X164264923Y-126203193D01*
X164082934Y-126127811D01*
X163919149Y-126018373D01*
X163779861Y-125879085D01*
X163670423Y-125715300D01*
X163595041Y-125533311D01*
X163556612Y-125340113D01*
X163556612Y-125143131D01*
X163595041Y-124949933D01*
X163670423Y-124767944D01*
X163779861Y-124604159D01*
X163919149Y-124464871D01*
X164082934Y-124355433D01*
X164264923Y-124280051D01*
X164329322Y-124267241D01*
X164458119Y-124241622D01*
X164655105Y-124241622D01*
X164783902Y-124267241D01*
X164783902Y-124267241D01*
G37*
G36*
X146472489Y-123848521D02*
G01*
X146536888Y-123861331D01*
X146718877Y-123936713D01*
X146882662Y-124046151D01*
X147021950Y-124185439D01*
X147131388Y-124349224D01*
X147206770Y-124531213D01*
X147245199Y-124724411D01*
X147245199Y-124921393D01*
X147206770Y-125114591D01*
X147131388Y-125296580D01*
X147021950Y-125460365D01*
X146882662Y-125599653D01*
X146718877Y-125709091D01*
X146536888Y-125784473D01*
X146472489Y-125797283D01*
X146343692Y-125822902D01*
X146146706Y-125822902D01*
X146017909Y-125797283D01*
X145953510Y-125784473D01*
X145771521Y-125709091D01*
X145607736Y-125599653D01*
X145468448Y-125460365D01*
X145359010Y-125296580D01*
X145283628Y-125114591D01*
X145245199Y-124921393D01*
X145245199Y-124724411D01*
X145283628Y-124531213D01*
X145359010Y-124349224D01*
X145468448Y-124185439D01*
X145607736Y-124046151D01*
X145771521Y-123936713D01*
X145953510Y-123861331D01*
X146017909Y-123848521D01*
X146146706Y-123822902D01*
X146343692Y-123822902D01*
X146472489Y-123848521D01*
X146472489Y-123848521D01*
G37*
G36*
X166240787Y-122186595D02*
G01*
X166305186Y-122199405D01*
X166487175Y-122274787D01*
X166650960Y-122384225D01*
X166790248Y-122523513D01*
X166899686Y-122687298D01*
X166975068Y-122869287D01*
X166977373Y-122880874D01*
X167013497Y-123062483D01*
X167013497Y-123259469D01*
X166994604Y-123354452D01*
X166975068Y-123452665D01*
X166899686Y-123634654D01*
X166790248Y-123798439D01*
X166650960Y-123937727D01*
X166487175Y-124047165D01*
X166305186Y-124122547D01*
X166240787Y-124135357D01*
X166111990Y-124160976D01*
X165915004Y-124160976D01*
X165786207Y-124135357D01*
X165721808Y-124122547D01*
X165539819Y-124047165D01*
X165376034Y-123937727D01*
X165236746Y-123798439D01*
X165127308Y-123634654D01*
X165051926Y-123452665D01*
X165032390Y-123354452D01*
X165013497Y-123259469D01*
X165013497Y-123062483D01*
X165049621Y-122880874D01*
X165051926Y-122869287D01*
X165127308Y-122687298D01*
X165236746Y-122523513D01*
X165376034Y-122384225D01*
X165539819Y-122274787D01*
X165721808Y-122199405D01*
X165786207Y-122186595D01*
X165915004Y-122160976D01*
X166111990Y-122160976D01*
X166240787Y-122186595D01*
X166240787Y-122186595D01*
G37*
G36*
X174462807Y-117378830D02*
G01*
X174791243Y-117444160D01*
X175062451Y-117556498D01*
X175398728Y-117695788D01*
X175410004Y-117700459D01*
X175493501Y-117756250D01*
X175966873Y-118072547D01*
X176440453Y-118546127D01*
X176548609Y-118707994D01*
X176812541Y-119102996D01*
X177068840Y-119721757D01*
X177116479Y-119961254D01*
X177199500Y-120378628D01*
X177199500Y-121048372D01*
X177135123Y-121372017D01*
X177068840Y-121705243D01*
X176812541Y-122324004D01*
X176727975Y-122450566D01*
X176440453Y-122880873D01*
X175966873Y-123354453D01*
X175819888Y-123452665D01*
X175410004Y-123726541D01*
X174791243Y-123982840D01*
X174472957Y-124046151D01*
X174134372Y-124113500D01*
X173464628Y-124113500D01*
X173126043Y-124046151D01*
X172807757Y-123982840D01*
X172188996Y-123726541D01*
X171779112Y-123452665D01*
X171632127Y-123354453D01*
X171158547Y-122880873D01*
X170871025Y-122450566D01*
X170786459Y-122324004D01*
X170530160Y-121705243D01*
X170463877Y-121372017D01*
X170399500Y-121048372D01*
X170399500Y-120378628D01*
X170482521Y-119961254D01*
X170530160Y-119721757D01*
X170786459Y-119102996D01*
X171050391Y-118707994D01*
X171158547Y-118546127D01*
X171632127Y-118072547D01*
X172105499Y-117756250D01*
X172188996Y-117700459D01*
X172200273Y-117695788D01*
X172536549Y-117556498D01*
X172807757Y-117444160D01*
X173136193Y-117378830D01*
X173464628Y-117313500D01*
X174134372Y-117313500D01*
X174462807Y-117378830D01*
X174462807Y-117378830D01*
G37*
G36*
X125478907Y-117366130D02*
G01*
X125807343Y-117431460D01*
X126426104Y-117687759D01*
X126612955Y-117812609D01*
X126982973Y-118059847D01*
X127456553Y-118533427D01*
X127641334Y-118809972D01*
X127828641Y-119090296D01*
X128055154Y-119637146D01*
X128084940Y-119709058D01*
X128215600Y-120365928D01*
X128215600Y-121035672D01*
X128163207Y-121299070D01*
X128084940Y-121692543D01*
X127828641Y-122311304D01*
X127735589Y-122450566D01*
X127456553Y-122868173D01*
X126982973Y-123341753D01*
X126963966Y-123354453D01*
X126426104Y-123713841D01*
X126426103Y-123713842D01*
X126426102Y-123713842D01*
X126244871Y-123788910D01*
X125807343Y-123970140D01*
X125478907Y-124035470D01*
X125150472Y-124100800D01*
X124480728Y-124100800D01*
X124152293Y-124035470D01*
X123823857Y-123970140D01*
X123386329Y-123788910D01*
X123205098Y-123713842D01*
X123205097Y-123713842D01*
X123205096Y-123713841D01*
X122667234Y-123354453D01*
X122648227Y-123341753D01*
X122174647Y-122868173D01*
X121895611Y-122450566D01*
X121802559Y-122311304D01*
X121546260Y-121692543D01*
X121467993Y-121299070D01*
X121415600Y-121035672D01*
X121415600Y-120365928D01*
X121546260Y-119709058D01*
X121576047Y-119637146D01*
X121802559Y-119090296D01*
X121989866Y-118809972D01*
X122174647Y-118533427D01*
X122648227Y-118059847D01*
X123018245Y-117812609D01*
X123205096Y-117687759D01*
X123823857Y-117431460D01*
X124152293Y-117366130D01*
X124480728Y-117300800D01*
X125150472Y-117300800D01*
X125478907Y-117366130D01*
X125478907Y-117366130D01*
G37*
G36*
X147929373Y-121767874D02*
G01*
X147993772Y-121780684D01*
X148175761Y-121856066D01*
X148339546Y-121965504D01*
X148478834Y-122104792D01*
X148588272Y-122268577D01*
X148663654Y-122450566D01*
X148663654Y-122450567D01*
X148702083Y-122643762D01*
X148702083Y-122840748D01*
X148694101Y-122880874D01*
X148663654Y-123033944D01*
X148588272Y-123215933D01*
X148478834Y-123379718D01*
X148339546Y-123519006D01*
X148175761Y-123628444D01*
X147993772Y-123703826D01*
X147929373Y-123716636D01*
X147800576Y-123742255D01*
X147603590Y-123742255D01*
X147474793Y-123716636D01*
X147410394Y-123703826D01*
X147228405Y-123628444D01*
X147064620Y-123519006D01*
X146925332Y-123379718D01*
X146815894Y-123215933D01*
X146740512Y-123033944D01*
X146710065Y-122880874D01*
X146702083Y-122840748D01*
X146702083Y-122643762D01*
X146740512Y-122450567D01*
X146740512Y-122450566D01*
X146815894Y-122268577D01*
X146925332Y-122104792D01*
X147064620Y-121965504D01*
X147228405Y-121856066D01*
X147410394Y-121780684D01*
X147474793Y-121767874D01*
X147603590Y-121742255D01*
X147800576Y-121742255D01*
X147929373Y-121767874D01*
X147929373Y-121767874D01*
G37*
G36*
X167697671Y-120105948D02*
G01*
X167762070Y-120118758D01*
X167944059Y-120194140D01*
X168107844Y-120303578D01*
X168247132Y-120442866D01*
X168356570Y-120606651D01*
X168431952Y-120788640D01*
X168470381Y-120981838D01*
X168470381Y-121178820D01*
X168431952Y-121372018D01*
X168356570Y-121554007D01*
X168247132Y-121717792D01*
X168107844Y-121857080D01*
X167944059Y-121966518D01*
X167762070Y-122041900D01*
X167697671Y-122054710D01*
X167568874Y-122080329D01*
X167371888Y-122080329D01*
X167243091Y-122054710D01*
X167178692Y-122041900D01*
X166996703Y-121966518D01*
X166832918Y-121857080D01*
X166693630Y-121717792D01*
X166584192Y-121554007D01*
X166508810Y-121372018D01*
X166470381Y-121178820D01*
X166470381Y-120981838D01*
X166508810Y-120788640D01*
X166584192Y-120606651D01*
X166693630Y-120442866D01*
X166832918Y-120303578D01*
X166996703Y-120194140D01*
X167178692Y-120118758D01*
X167243091Y-120105948D01*
X167371888Y-120080329D01*
X167568874Y-120080329D01*
X167697671Y-120105948D01*
X167697671Y-120105948D01*
G37*
G36*
X149386257Y-119687228D02*
G01*
X149450656Y-119700038D01*
X149632645Y-119775420D01*
X149796430Y-119884858D01*
X149935718Y-120024146D01*
X150045156Y-120187931D01*
X150120538Y-120369920D01*
X150158967Y-120563118D01*
X150158967Y-120760100D01*
X150120538Y-120953298D01*
X150045156Y-121135287D01*
X149935718Y-121299072D01*
X149796430Y-121438360D01*
X149632645Y-121547798D01*
X149450656Y-121623180D01*
X149386257Y-121635990D01*
X149257460Y-121661609D01*
X149060474Y-121661609D01*
X148931677Y-121635990D01*
X148867278Y-121623180D01*
X148685289Y-121547798D01*
X148521504Y-121438360D01*
X148382216Y-121299072D01*
X148272778Y-121135287D01*
X148197396Y-120953298D01*
X148158967Y-120760100D01*
X148158967Y-120563118D01*
X148197396Y-120369920D01*
X148272778Y-120187931D01*
X148382216Y-120024146D01*
X148521504Y-119884858D01*
X148685289Y-119775420D01*
X148867278Y-119700038D01*
X148931677Y-119687228D01*
X149060474Y-119661609D01*
X149257460Y-119661609D01*
X149386257Y-119687228D01*
X149386257Y-119687228D01*
G37*
G36*
X169134338Y-118021281D02*
G01*
X169218954Y-118038112D01*
X169400943Y-118113494D01*
X169564728Y-118222932D01*
X169704016Y-118362220D01*
X169813454Y-118526005D01*
X169877014Y-118679454D01*
X169888836Y-118707995D01*
X169927265Y-118901190D01*
X169927265Y-119098176D01*
X169903346Y-119218424D01*
X169888836Y-119291372D01*
X169813454Y-119473361D01*
X169704016Y-119637146D01*
X169564728Y-119776434D01*
X169400943Y-119885872D01*
X169218954Y-119961254D01*
X169154555Y-119974064D01*
X169025758Y-119999683D01*
X168828772Y-119999683D01*
X168699975Y-119974064D01*
X168635576Y-119961254D01*
X168453587Y-119885872D01*
X168289802Y-119776434D01*
X168150514Y-119637146D01*
X168041076Y-119473361D01*
X167965694Y-119291372D01*
X167951184Y-119218424D01*
X167927265Y-119098176D01*
X167927265Y-118901190D01*
X167965694Y-118707995D01*
X167977516Y-118679454D01*
X168041076Y-118526005D01*
X168150514Y-118362220D01*
X168289802Y-118222932D01*
X168453587Y-118113494D01*
X168635576Y-118038112D01*
X168720192Y-118021281D01*
X168828772Y-117999683D01*
X169025758Y-117999683D01*
X169134338Y-118021281D01*
X169134338Y-118021281D01*
G37*
G36*
X150843141Y-117606582D02*
G01*
X150907540Y-117619392D01*
X151089529Y-117694774D01*
X151253314Y-117804212D01*
X151392602Y-117943500D01*
X151502040Y-118107285D01*
X151577422Y-118289274D01*
X151615851Y-118482472D01*
X151615851Y-118679454D01*
X151577422Y-118872652D01*
X151502040Y-119054641D01*
X151392602Y-119218426D01*
X151253314Y-119357714D01*
X151089529Y-119467152D01*
X150907540Y-119542534D01*
X150843141Y-119555344D01*
X150714344Y-119580963D01*
X150517358Y-119580963D01*
X150388561Y-119555344D01*
X150324162Y-119542534D01*
X150142173Y-119467152D01*
X149978388Y-119357714D01*
X149839100Y-119218426D01*
X149729662Y-119054641D01*
X149654280Y-118872652D01*
X149615851Y-118679454D01*
X149615851Y-118482472D01*
X149654280Y-118289274D01*
X149729662Y-118107285D01*
X149839100Y-117943500D01*
X149978388Y-117804212D01*
X150142173Y-117694774D01*
X150324162Y-117619392D01*
X150388561Y-117606582D01*
X150517358Y-117580963D01*
X150714344Y-117580963D01*
X150843141Y-117606582D01*
X150843141Y-117606582D01*
G37*
G36*
X131218622Y-116730517D02*
G01*
X131266585Y-116745066D01*
X131310778Y-116768688D01*
X131349519Y-116800481D01*
X131381312Y-116839222D01*
X131404934Y-116883415D01*
X131419483Y-116931378D01*
X131425000Y-116987391D01*
X131425000Y-117812609D01*
X131419483Y-117868622D01*
X131404934Y-117916585D01*
X131381312Y-117960778D01*
X131349519Y-117999519D01*
X131310778Y-118031312D01*
X131266585Y-118054934D01*
X131218622Y-118069483D01*
X131162609Y-118075000D01*
X130412391Y-118075000D01*
X130356378Y-118069483D01*
X130308415Y-118054934D01*
X130264222Y-118031312D01*
X130225481Y-117999519D01*
X130193688Y-117960778D01*
X130170066Y-117916585D01*
X130155517Y-117868622D01*
X130150000Y-117812609D01*
X130150000Y-116987391D01*
X130155517Y-116931378D01*
X130170066Y-116883415D01*
X130193688Y-116839222D01*
X130225481Y-116800481D01*
X130264222Y-116768688D01*
X130308415Y-116745066D01*
X130356378Y-116730517D01*
X130412391Y-116725000D01*
X131162609Y-116725000D01*
X131218622Y-116730517D01*
X131218622Y-116730517D01*
G37*
G36*
X129643622Y-116730517D02*
G01*
X129691585Y-116745066D01*
X129735778Y-116768688D01*
X129774519Y-116800481D01*
X129806312Y-116839222D01*
X129829934Y-116883415D01*
X129844483Y-116931378D01*
X129850000Y-116987391D01*
X129850000Y-117812609D01*
X129844483Y-117868622D01*
X129829934Y-117916585D01*
X129806312Y-117960778D01*
X129774519Y-117999519D01*
X129735778Y-118031312D01*
X129691585Y-118054934D01*
X129643622Y-118069483D01*
X129587609Y-118075000D01*
X128837391Y-118075000D01*
X128781378Y-118069483D01*
X128733415Y-118054934D01*
X128689222Y-118031312D01*
X128650481Y-117999519D01*
X128618688Y-117960778D01*
X128595066Y-117916585D01*
X128580517Y-117868622D01*
X128575000Y-117812609D01*
X128575000Y-116987391D01*
X128580517Y-116931378D01*
X128595066Y-116883415D01*
X128618688Y-116839222D01*
X128650481Y-116800481D01*
X128689222Y-116768688D01*
X128733415Y-116745066D01*
X128781378Y-116730517D01*
X128837391Y-116725000D01*
X129587609Y-116725000D01*
X129643622Y-116730517D01*
X129643622Y-116730517D01*
G37*
G36*
X170611439Y-115944656D02*
G01*
X170675838Y-115957466D01*
X170857827Y-116032848D01*
X171021612Y-116142286D01*
X171160900Y-116281574D01*
X171270338Y-116445359D01*
X171333898Y-116598808D01*
X171345720Y-116627349D01*
X171384149Y-116820544D01*
X171384149Y-117017530D01*
X171360230Y-117137778D01*
X171345720Y-117210726D01*
X171270338Y-117392715D01*
X171160900Y-117556500D01*
X171021612Y-117695788D01*
X170857827Y-117805226D01*
X170675838Y-117880608D01*
X170611439Y-117893418D01*
X170482642Y-117919037D01*
X170285656Y-117919037D01*
X170156859Y-117893418D01*
X170092460Y-117880608D01*
X169910471Y-117805226D01*
X169746686Y-117695788D01*
X169607398Y-117556500D01*
X169497960Y-117392715D01*
X169422578Y-117210726D01*
X169408068Y-117137778D01*
X169384149Y-117017530D01*
X169384149Y-116820544D01*
X169422578Y-116627349D01*
X169434400Y-116598808D01*
X169497960Y-116445359D01*
X169607398Y-116281574D01*
X169746686Y-116142286D01*
X169910471Y-116032848D01*
X170092460Y-115957466D01*
X170156859Y-115944656D01*
X170285656Y-115919037D01*
X170482642Y-115919037D01*
X170611439Y-115944656D01*
X170611439Y-115944656D01*
G37*
G36*
X152295619Y-115525060D02*
G01*
X152364424Y-115538746D01*
X152546413Y-115614128D01*
X152710198Y-115723566D01*
X152849486Y-115862854D01*
X152958924Y-116026639D01*
X153034306Y-116208628D01*
X153034306Y-116208629D01*
X153072519Y-116400737D01*
X153072735Y-116401826D01*
X153072735Y-116598808D01*
X153034306Y-116792006D01*
X152958924Y-116973995D01*
X152849486Y-117137780D01*
X152710198Y-117277068D01*
X152546413Y-117386506D01*
X152364424Y-117461888D01*
X152300025Y-117474698D01*
X152171228Y-117500317D01*
X151974242Y-117500317D01*
X151845445Y-117474698D01*
X151781046Y-117461888D01*
X151599057Y-117386506D01*
X151435272Y-117277068D01*
X151295984Y-117137780D01*
X151186546Y-116973995D01*
X151111164Y-116792006D01*
X151072735Y-116598808D01*
X151072735Y-116401826D01*
X151072952Y-116400737D01*
X151111164Y-116208629D01*
X151111164Y-116208628D01*
X151186546Y-116026639D01*
X151295984Y-115862854D01*
X151435272Y-115723566D01*
X151599057Y-115614128D01*
X151781046Y-115538746D01*
X151849851Y-115525060D01*
X151974242Y-115500317D01*
X152171228Y-115500317D01*
X152295619Y-115525060D01*
X152295619Y-115525060D01*
G37*
G36*
X125725800Y-111749201D02*
G01*
X125725975Y-111750975D01*
X125724201Y-111750800D01*
X125549446Y-111750800D01*
X125525060Y-111753202D01*
X125501611Y-111760315D01*
X125480000Y-111771866D01*
X125461058Y-111787411D01*
X125445513Y-111806353D01*
X125433962Y-111827964D01*
X125426849Y-111851413D01*
X125424447Y-111875799D01*
X125426849Y-111900185D01*
X125433962Y-111923634D01*
X125445513Y-111945245D01*
X125461058Y-111964187D01*
X125480000Y-111979732D01*
X125501611Y-111991283D01*
X125525060Y-111998396D01*
X125537195Y-112000196D01*
X125546284Y-112001091D01*
X125558853Y-112004904D01*
X125570428Y-112011091D01*
X125580579Y-112019421D01*
X125588909Y-112029572D01*
X125595096Y-112041147D01*
X125598909Y-112053716D01*
X125599804Y-112062805D01*
X125604584Y-112086838D01*
X125613961Y-112109477D01*
X125627575Y-112129852D01*
X125644902Y-112147179D01*
X125665276Y-112160793D01*
X125687915Y-112170170D01*
X125711948Y-112174951D01*
X125736452Y-112174951D01*
X125760485Y-112170171D01*
X125783124Y-112160794D01*
X125803499Y-112147180D01*
X125820826Y-112129853D01*
X125834440Y-112109479D01*
X125843817Y-112086840D01*
X125848598Y-112062807D01*
X125849200Y-112050554D01*
X125849200Y-111875799D01*
X125849025Y-111874025D01*
X125850799Y-111874200D01*
X126750800Y-111874200D01*
X126750800Y-115725800D01*
X125850799Y-115725800D01*
X125849025Y-115725975D01*
X125849200Y-115724201D01*
X125849200Y-115549446D01*
X125846798Y-115525060D01*
X125839685Y-115501611D01*
X125828134Y-115480000D01*
X125812589Y-115461058D01*
X125793647Y-115445513D01*
X125772036Y-115433962D01*
X125748587Y-115426849D01*
X125724201Y-115424447D01*
X125699815Y-115426849D01*
X125676366Y-115433962D01*
X125654755Y-115445513D01*
X125635813Y-115461058D01*
X125620268Y-115480000D01*
X125608717Y-115501611D01*
X125601604Y-115525060D01*
X125599804Y-115537195D01*
X125598909Y-115546284D01*
X125595096Y-115558853D01*
X125588909Y-115570428D01*
X125580579Y-115580579D01*
X125570428Y-115588909D01*
X125558853Y-115595096D01*
X125546284Y-115598909D01*
X125537195Y-115599804D01*
X125513162Y-115604584D01*
X125490523Y-115613961D01*
X125470148Y-115627575D01*
X125452821Y-115644902D01*
X125439207Y-115665276D01*
X125429830Y-115687915D01*
X125425049Y-115711948D01*
X125425049Y-115736452D01*
X125429829Y-115760485D01*
X125439206Y-115783124D01*
X125452820Y-115803499D01*
X125470147Y-115820826D01*
X125490521Y-115834440D01*
X125513160Y-115843817D01*
X125537193Y-115848598D01*
X125549446Y-115849200D01*
X125724201Y-115849200D01*
X125725975Y-115849025D01*
X125725800Y-115850799D01*
X125725800Y-116750800D01*
X121874200Y-116750800D01*
X121874200Y-115850799D01*
X121874025Y-115849025D01*
X121875799Y-115849200D01*
X122050554Y-115849200D01*
X122074940Y-115846798D01*
X122098389Y-115839685D01*
X122120000Y-115828134D01*
X122138942Y-115812589D01*
X122154487Y-115793647D01*
X122166038Y-115772036D01*
X122173151Y-115748587D01*
X122175553Y-115724201D01*
X122173151Y-115699815D01*
X122166038Y-115676366D01*
X122154487Y-115654755D01*
X122138942Y-115635813D01*
X122120000Y-115620268D01*
X122098389Y-115608717D01*
X122074940Y-115601604D01*
X122062805Y-115599804D01*
X122053716Y-115598909D01*
X122041147Y-115595096D01*
X122029572Y-115588909D01*
X122019421Y-115580579D01*
X122011091Y-115570428D01*
X122004904Y-115558853D01*
X122001091Y-115546284D01*
X122000196Y-115537195D01*
X121995416Y-115513162D01*
X121986039Y-115490523D01*
X121972425Y-115470148D01*
X121955098Y-115452821D01*
X121934724Y-115439207D01*
X121912085Y-115429830D01*
X121888052Y-115425049D01*
X121863548Y-115425049D01*
X121839515Y-115429829D01*
X121816876Y-115439206D01*
X121796501Y-115452820D01*
X121779174Y-115470147D01*
X121765560Y-115490521D01*
X121756183Y-115513160D01*
X121751402Y-115537193D01*
X121750800Y-115549446D01*
X121750800Y-115724201D01*
X121750975Y-115725975D01*
X121749201Y-115725800D01*
X120849200Y-115725800D01*
X120849200Y-111874200D01*
X121749201Y-111874200D01*
X121750975Y-111874025D01*
X121750800Y-111875799D01*
X121750800Y-112050554D01*
X121753202Y-112074940D01*
X121760315Y-112098389D01*
X121771866Y-112120000D01*
X121787411Y-112138942D01*
X121806353Y-112154487D01*
X121827964Y-112166038D01*
X121851413Y-112173151D01*
X121875799Y-112175553D01*
X121900185Y-112173151D01*
X121923634Y-112166038D01*
X121945245Y-112154487D01*
X121964187Y-112138942D01*
X121979732Y-112120000D01*
X121991283Y-112098389D01*
X121998396Y-112074940D01*
X122000196Y-112062805D01*
X122001091Y-112053716D01*
X122004904Y-112041147D01*
X122011091Y-112029572D01*
X122019421Y-112019421D01*
X122029572Y-112011091D01*
X122041147Y-112004904D01*
X122053716Y-112001091D01*
X122062805Y-112000196D01*
X122086838Y-111995416D01*
X122109477Y-111986039D01*
X122129852Y-111972425D01*
X122147179Y-111955098D01*
X122160793Y-111934724D01*
X122170170Y-111912085D01*
X122174951Y-111888052D01*
X122174951Y-111863548D01*
X122170171Y-111839515D01*
X122160794Y-111816876D01*
X122147180Y-111796501D01*
X122129853Y-111779174D01*
X122109479Y-111765560D01*
X122086840Y-111756183D01*
X122062807Y-111751402D01*
X122050554Y-111750800D01*
X121875799Y-111750800D01*
X121874025Y-111750975D01*
X121874200Y-111749201D01*
X121874200Y-110849200D01*
X125725800Y-110849200D01*
X125725800Y-111749201D01*
X125725800Y-111749201D01*
G37*
G36*
X131268622Y-115155517D02*
G01*
X131316585Y-115170066D01*
X131360778Y-115193688D01*
X131399519Y-115225481D01*
X131431312Y-115264222D01*
X131454934Y-115308415D01*
X131469483Y-115356378D01*
X131475000Y-115412391D01*
X131475000Y-116162609D01*
X131469483Y-116218622D01*
X131454934Y-116266585D01*
X131431312Y-116310778D01*
X131399519Y-116349519D01*
X131360778Y-116381312D01*
X131316585Y-116404934D01*
X131268622Y-116419483D01*
X131212609Y-116425000D01*
X130387391Y-116425000D01*
X130331378Y-116419483D01*
X130283415Y-116404934D01*
X130239222Y-116381312D01*
X130200481Y-116349519D01*
X130168688Y-116310778D01*
X130145066Y-116266585D01*
X130130517Y-116218622D01*
X130125000Y-116162609D01*
X130125000Y-115412391D01*
X130130517Y-115356378D01*
X130145066Y-115308415D01*
X130168688Y-115264222D01*
X130200481Y-115225481D01*
X130239222Y-115193688D01*
X130283415Y-115170066D01*
X130331378Y-115155517D01*
X130387391Y-115150000D01*
X131212609Y-115150000D01*
X131268622Y-115155517D01*
X131268622Y-115155517D01*
G37*
G36*
X172068323Y-113864010D02*
G01*
X172132722Y-113876820D01*
X172314711Y-113952202D01*
X172478496Y-114061640D01*
X172617784Y-114200928D01*
X172727222Y-114364713D01*
X172802604Y-114546702D01*
X172802604Y-114546703D01*
X172838229Y-114725800D01*
X172841033Y-114739900D01*
X172841033Y-114936882D01*
X172802604Y-115130080D01*
X172727222Y-115312069D01*
X172617784Y-115475854D01*
X172478496Y-115615142D01*
X172314711Y-115724580D01*
X172132722Y-115799962D01*
X172069241Y-115812589D01*
X171939526Y-115838391D01*
X171742540Y-115838391D01*
X171612825Y-115812589D01*
X171549344Y-115799962D01*
X171367355Y-115724580D01*
X171203570Y-115615142D01*
X171064282Y-115475854D01*
X170954844Y-115312069D01*
X170879462Y-115130080D01*
X170841033Y-114936882D01*
X170841033Y-114739900D01*
X170843838Y-114725800D01*
X170879462Y-114546703D01*
X170879462Y-114546702D01*
X170954844Y-114364713D01*
X171064282Y-114200928D01*
X171203570Y-114061640D01*
X171367355Y-113952202D01*
X171549344Y-113876820D01*
X171613743Y-113864010D01*
X171742540Y-113838391D01*
X171939526Y-113838391D01*
X172068323Y-113864010D01*
X172068323Y-113864010D01*
G37*
G36*
X153756909Y-113445290D02*
G01*
X153821308Y-113458100D01*
X154003297Y-113533482D01*
X154167082Y-113642920D01*
X154306370Y-113782208D01*
X154415808Y-113945993D01*
X154445814Y-114018435D01*
X154491190Y-114127983D01*
X154529619Y-114321178D01*
X154529619Y-114518164D01*
X154504664Y-114643622D01*
X154491190Y-114711360D01*
X154415808Y-114893349D01*
X154306370Y-115057134D01*
X154167082Y-115196422D01*
X154003297Y-115305860D01*
X153821308Y-115381242D01*
X153756909Y-115394052D01*
X153628112Y-115419671D01*
X153431126Y-115419671D01*
X153302329Y-115394052D01*
X153237930Y-115381242D01*
X153055941Y-115305860D01*
X152892156Y-115196422D01*
X152752868Y-115057134D01*
X152643430Y-114893349D01*
X152568048Y-114711360D01*
X152554574Y-114643622D01*
X152529619Y-114518164D01*
X152529619Y-114321178D01*
X152568048Y-114127983D01*
X152613424Y-114018435D01*
X152643430Y-113945993D01*
X152752868Y-113782208D01*
X152892156Y-113642920D01*
X153055941Y-113533482D01*
X153237930Y-113458100D01*
X153302329Y-113445290D01*
X153431126Y-113419671D01*
X153628112Y-113419671D01*
X153756909Y-113445290D01*
X153756909Y-113445290D01*
G37*
G36*
X131268622Y-113580517D02*
G01*
X131316585Y-113595066D01*
X131360778Y-113618688D01*
X131399519Y-113650481D01*
X131431312Y-113689222D01*
X131454934Y-113733415D01*
X131469483Y-113781378D01*
X131475000Y-113837391D01*
X131475000Y-114587609D01*
X131469483Y-114643622D01*
X131454934Y-114691585D01*
X131431312Y-114735778D01*
X131399519Y-114774519D01*
X131360778Y-114806312D01*
X131316585Y-114829934D01*
X131268622Y-114844483D01*
X131212609Y-114850000D01*
X130387391Y-114850000D01*
X130331378Y-114844483D01*
X130283415Y-114829934D01*
X130239222Y-114806312D01*
X130200481Y-114774519D01*
X130168688Y-114735778D01*
X130145066Y-114691585D01*
X130130517Y-114643622D01*
X130125000Y-114587609D01*
X130125000Y-113837391D01*
X130130517Y-113781378D01*
X130145066Y-113733415D01*
X130168688Y-113689222D01*
X130200481Y-113650481D01*
X130239222Y-113618688D01*
X130283415Y-113595066D01*
X130331378Y-113580517D01*
X130387391Y-113575000D01*
X131212609Y-113575000D01*
X131268622Y-113580517D01*
X131268622Y-113580517D01*
G37*
G36*
X118431122Y-112930517D02*
G01*
X118479085Y-112945066D01*
X118523278Y-112968688D01*
X118562019Y-113000481D01*
X118593812Y-113039222D01*
X118617434Y-113083415D01*
X118631983Y-113131378D01*
X118637500Y-113187391D01*
X118637500Y-114012609D01*
X118631983Y-114068622D01*
X118617434Y-114116585D01*
X118593812Y-114160778D01*
X118562019Y-114199519D01*
X118523278Y-114231312D01*
X118479085Y-114254934D01*
X118431122Y-114269483D01*
X118375109Y-114275000D01*
X117624891Y-114275000D01*
X117568878Y-114269483D01*
X117520915Y-114254934D01*
X117476722Y-114231312D01*
X117437981Y-114199519D01*
X117406188Y-114160778D01*
X117382566Y-114116585D01*
X117368017Y-114068622D01*
X117362500Y-114012609D01*
X117362500Y-113187391D01*
X117368017Y-113131378D01*
X117382566Y-113083415D01*
X117406188Y-113039222D01*
X117437981Y-113000481D01*
X117476722Y-112968688D01*
X117520915Y-112945066D01*
X117568878Y-112930517D01*
X117624891Y-112925000D01*
X118375109Y-112925000D01*
X118431122Y-112930517D01*
X118431122Y-112930517D01*
G37*
G36*
X120006122Y-112930517D02*
G01*
X120054085Y-112945066D01*
X120098278Y-112968688D01*
X120137019Y-113000481D01*
X120168812Y-113039222D01*
X120192434Y-113083415D01*
X120206983Y-113131378D01*
X120212500Y-113187391D01*
X120212500Y-114012609D01*
X120206983Y-114068622D01*
X120192434Y-114116585D01*
X120168812Y-114160778D01*
X120137019Y-114199519D01*
X120098278Y-114231312D01*
X120054085Y-114254934D01*
X120006122Y-114269483D01*
X119950109Y-114275000D01*
X119199891Y-114275000D01*
X119143878Y-114269483D01*
X119095915Y-114254934D01*
X119051722Y-114231312D01*
X119012981Y-114199519D01*
X118981188Y-114160778D01*
X118957566Y-114116585D01*
X118943017Y-114068622D01*
X118937500Y-114012609D01*
X118937500Y-113187391D01*
X118943017Y-113131378D01*
X118957566Y-113083415D01*
X118981188Y-113039222D01*
X119012981Y-113000481D01*
X119051722Y-112968688D01*
X119095915Y-112945066D01*
X119143878Y-112930517D01*
X119199891Y-112925000D01*
X119950109Y-112925000D01*
X120006122Y-112930517D01*
X120006122Y-112930517D01*
G37*
G36*
X129668622Y-112555517D02*
G01*
X129716585Y-112570066D01*
X129760778Y-112593688D01*
X129799519Y-112625481D01*
X129831312Y-112664222D01*
X129854934Y-112708415D01*
X129869483Y-112756378D01*
X129875000Y-112812391D01*
X129875000Y-113562609D01*
X129869483Y-113618622D01*
X129854934Y-113666585D01*
X129831312Y-113710778D01*
X129799519Y-113749519D01*
X129760778Y-113781312D01*
X129716585Y-113804934D01*
X129668622Y-113819483D01*
X129612609Y-113825000D01*
X128787391Y-113825000D01*
X128731378Y-113819483D01*
X128683415Y-113804934D01*
X128639222Y-113781312D01*
X128600481Y-113749519D01*
X128568688Y-113710778D01*
X128545066Y-113666585D01*
X128530517Y-113618622D01*
X128525000Y-113562609D01*
X128525000Y-112812391D01*
X128530517Y-112756378D01*
X128545066Y-112708415D01*
X128568688Y-112664222D01*
X128600481Y-112625481D01*
X128639222Y-112593688D01*
X128683415Y-112570066D01*
X128731378Y-112555517D01*
X128787391Y-112550000D01*
X129612609Y-112550000D01*
X129668622Y-112555517D01*
X129668622Y-112555517D01*
G37*
G36*
X173525207Y-111783364D02*
G01*
X173589606Y-111796174D01*
X173771595Y-111871556D01*
X173935380Y-111980994D01*
X174074668Y-112120282D01*
X174184106Y-112284067D01*
X174259488Y-112466056D01*
X174259488Y-112466057D01*
X174291200Y-112625481D01*
X174297917Y-112659254D01*
X174297917Y-112856236D01*
X174259488Y-113049434D01*
X174184106Y-113231423D01*
X174074668Y-113395208D01*
X173935380Y-113534496D01*
X173771595Y-113643934D01*
X173589606Y-113719316D01*
X173557008Y-113725800D01*
X173396410Y-113757745D01*
X173199424Y-113757745D01*
X173038826Y-113725800D01*
X173006228Y-113719316D01*
X172824239Y-113643934D01*
X172660454Y-113534496D01*
X172521166Y-113395208D01*
X172411728Y-113231423D01*
X172336346Y-113049434D01*
X172297917Y-112856236D01*
X172297917Y-112659254D01*
X172304635Y-112625481D01*
X172336346Y-112466057D01*
X172336346Y-112466056D01*
X172411728Y-112284067D01*
X172521166Y-112120282D01*
X172660454Y-111980994D01*
X172824239Y-111871556D01*
X173006228Y-111796174D01*
X173070627Y-111783364D01*
X173199424Y-111757745D01*
X173396410Y-111757745D01*
X173525207Y-111783364D01*
X173525207Y-111783364D01*
G37*
G36*
X155213793Y-111364643D02*
G01*
X155278192Y-111377453D01*
X155460181Y-111452835D01*
X155623966Y-111562273D01*
X155763254Y-111701561D01*
X155872692Y-111865346D01*
X155948074Y-112047335D01*
X155955932Y-112086840D01*
X155983573Y-112225800D01*
X155986503Y-112240533D01*
X155986503Y-112437515D01*
X155948074Y-112630713D01*
X155872692Y-112812702D01*
X155763254Y-112976487D01*
X155623966Y-113115775D01*
X155460181Y-113225213D01*
X155278192Y-113300595D01*
X155213793Y-113313405D01*
X155084996Y-113339024D01*
X154888010Y-113339024D01*
X154759213Y-113313405D01*
X154694814Y-113300595D01*
X154512825Y-113225213D01*
X154349040Y-113115775D01*
X154209752Y-112976487D01*
X154100314Y-112812702D01*
X154024932Y-112630713D01*
X153986503Y-112437515D01*
X153986503Y-112240533D01*
X153989434Y-112225800D01*
X154017074Y-112086840D01*
X154024932Y-112047335D01*
X154100314Y-111865346D01*
X154209752Y-111701561D01*
X154349040Y-111562273D01*
X154512825Y-111452835D01*
X154694814Y-111377453D01*
X154759213Y-111364643D01*
X154888010Y-111339024D01*
X155084996Y-111339024D01*
X155213793Y-111364643D01*
X155213793Y-111364643D01*
G37*
G36*
X129668622Y-110980517D02*
G01*
X129716585Y-110995066D01*
X129760778Y-111018688D01*
X129799519Y-111050481D01*
X129831312Y-111089222D01*
X129854934Y-111133415D01*
X129869483Y-111181378D01*
X129875000Y-111237391D01*
X129875000Y-111987609D01*
X129869483Y-112043622D01*
X129854934Y-112091585D01*
X129831312Y-112135778D01*
X129799519Y-112174519D01*
X129760778Y-112206312D01*
X129716585Y-112229934D01*
X129668622Y-112244483D01*
X129612609Y-112250000D01*
X128787391Y-112250000D01*
X128731378Y-112244483D01*
X128683415Y-112229934D01*
X128639222Y-112206312D01*
X128600481Y-112174519D01*
X128568688Y-112135778D01*
X128545066Y-112091585D01*
X128530517Y-112043622D01*
X128525000Y-111987609D01*
X128525000Y-111237391D01*
X128530517Y-111181378D01*
X128545066Y-111133415D01*
X128568688Y-111089222D01*
X128600481Y-111050481D01*
X128639222Y-111018688D01*
X128683415Y-110995066D01*
X128731378Y-110980517D01*
X128787391Y-110975000D01*
X129612609Y-110975000D01*
X129668622Y-110980517D01*
X129668622Y-110980517D01*
G37*
G36*
X174982091Y-109702717D02*
G01*
X175046490Y-109715527D01*
X175228479Y-109790909D01*
X175392264Y-109900347D01*
X175531552Y-110039635D01*
X175640990Y-110203420D01*
X175716372Y-110385409D01*
X175754801Y-110578607D01*
X175754801Y-110775589D01*
X175716372Y-110968787D01*
X175640990Y-111150776D01*
X175531552Y-111314561D01*
X175392264Y-111453849D01*
X175228479Y-111563287D01*
X175046490Y-111638669D01*
X174982091Y-111651479D01*
X174853294Y-111677098D01*
X174656308Y-111677098D01*
X174527511Y-111651479D01*
X174463112Y-111638669D01*
X174281123Y-111563287D01*
X174117338Y-111453849D01*
X173978050Y-111314561D01*
X173868612Y-111150776D01*
X173793230Y-110968787D01*
X173754801Y-110775589D01*
X173754801Y-110578607D01*
X173793230Y-110385409D01*
X173868612Y-110203420D01*
X173978050Y-110039635D01*
X174117338Y-109900347D01*
X174281123Y-109790909D01*
X174463112Y-109715527D01*
X174527511Y-109702717D01*
X174656308Y-109677098D01*
X174853294Y-109677098D01*
X174982091Y-109702717D01*
X174982091Y-109702717D01*
G37*
G36*
X156670678Y-109283997D02*
G01*
X156735077Y-109296807D01*
X156917066Y-109372189D01*
X157080851Y-109481627D01*
X157220139Y-109620915D01*
X157329577Y-109784700D01*
X157404959Y-109966689D01*
X157443388Y-110159887D01*
X157443388Y-110356869D01*
X157404959Y-110550067D01*
X157329577Y-110732056D01*
X157220139Y-110895841D01*
X157080851Y-111035129D01*
X156917066Y-111144567D01*
X156735077Y-111219949D01*
X156676679Y-111231565D01*
X156541881Y-111258378D01*
X156344895Y-111258378D01*
X156210097Y-111231565D01*
X156151699Y-111219949D01*
X155969710Y-111144567D01*
X155805925Y-111035129D01*
X155666637Y-110895841D01*
X155557199Y-110732056D01*
X155481817Y-110550067D01*
X155443388Y-110356869D01*
X155443388Y-110159887D01*
X155481817Y-109966689D01*
X155557199Y-109784700D01*
X155666637Y-109620915D01*
X155805925Y-109481627D01*
X155969710Y-109372189D01*
X156151699Y-109296807D01*
X156216098Y-109283997D01*
X156344895Y-109258378D01*
X156541881Y-109258378D01*
X156670678Y-109283997D01*
X156670678Y-109283997D01*
G37*
G36*
X176438976Y-107622071D02*
G01*
X176503375Y-107634881D01*
X176685364Y-107710263D01*
X176849149Y-107819701D01*
X176988437Y-107958989D01*
X177097875Y-108122774D01*
X177173257Y-108304763D01*
X177211686Y-108497961D01*
X177211686Y-108694943D01*
X177173257Y-108888141D01*
X177097875Y-109070130D01*
X176988437Y-109233915D01*
X176849149Y-109373203D01*
X176685364Y-109482641D01*
X176503375Y-109558023D01*
X176438976Y-109570833D01*
X176310179Y-109596452D01*
X176113193Y-109596452D01*
X175984396Y-109570833D01*
X175919997Y-109558023D01*
X175738008Y-109482641D01*
X175574223Y-109373203D01*
X175434935Y-109233915D01*
X175325497Y-109070130D01*
X175250115Y-108888141D01*
X175211686Y-108694943D01*
X175211686Y-108497961D01*
X175250115Y-108304763D01*
X175325497Y-108122774D01*
X175434935Y-107958989D01*
X175574223Y-107819701D01*
X175738008Y-107710263D01*
X175919997Y-107634881D01*
X175984396Y-107622071D01*
X176113193Y-107596452D01*
X176310179Y-107596452D01*
X176438976Y-107622071D01*
X176438976Y-107622071D01*
G37*
G36*
X158127562Y-107203351D02*
G01*
X158191961Y-107216161D01*
X158373950Y-107291543D01*
X158537735Y-107400981D01*
X158677023Y-107540269D01*
X158786461Y-107704054D01*
X158861843Y-107886043D01*
X158900272Y-108079241D01*
X158900272Y-108276223D01*
X158861843Y-108469421D01*
X158786461Y-108651410D01*
X158677023Y-108815195D01*
X158537735Y-108954483D01*
X158373950Y-109063921D01*
X158191961Y-109139303D01*
X158127562Y-109152113D01*
X157998765Y-109177732D01*
X157801779Y-109177732D01*
X157672982Y-109152113D01*
X157608583Y-109139303D01*
X157426594Y-109063921D01*
X157262809Y-108954483D01*
X157123521Y-108815195D01*
X157014083Y-108651410D01*
X156938701Y-108469421D01*
X156900272Y-108276223D01*
X156900272Y-108079241D01*
X156938701Y-107886043D01*
X157014083Y-107704054D01*
X157123521Y-107540269D01*
X157262809Y-107400981D01*
X157426594Y-107291543D01*
X157608583Y-107216161D01*
X157672982Y-107203351D01*
X157801779Y-107177732D01*
X157998765Y-107177732D01*
X158127562Y-107203351D01*
X158127562Y-107203351D01*
G37*
G36*
X183236549Y-105877854D02*
G01*
X183414136Y-105913177D01*
X183605224Y-105992329D01*
X183777198Y-106107238D01*
X183923451Y-106253491D01*
X184038360Y-106425465D01*
X184117512Y-106616553D01*
X184157862Y-106819411D01*
X184157862Y-107026243D01*
X184117512Y-107229101D01*
X184038360Y-107420189D01*
X183923451Y-107592163D01*
X183777198Y-107738416D01*
X183605224Y-107853325D01*
X183414136Y-107932477D01*
X183236549Y-107967800D01*
X183211279Y-107972827D01*
X183004445Y-107972827D01*
X182979175Y-107967800D01*
X182801588Y-107932477D01*
X182610500Y-107853325D01*
X182438526Y-107738416D01*
X182292273Y-107592163D01*
X182177364Y-107420189D01*
X182098212Y-107229101D01*
X182057862Y-107026243D01*
X182057862Y-106819411D01*
X182098212Y-106616553D01*
X182177364Y-106425465D01*
X182292273Y-106253491D01*
X182438526Y-106107238D01*
X182610500Y-105992329D01*
X182801588Y-105913177D01*
X182979175Y-105877854D01*
X183004445Y-105872827D01*
X183211279Y-105872827D01*
X183236549Y-105877854D01*
X183236549Y-105877854D01*
G37*
G36*
X159566441Y-105119124D02*
G01*
X159648845Y-105135515D01*
X159830834Y-105210897D01*
X159994619Y-105320335D01*
X160133907Y-105459623D01*
X160243345Y-105623408D01*
X160318727Y-105805397D01*
X160318727Y-105805398D01*
X160357156Y-105998593D01*
X160357156Y-106195579D01*
X160345636Y-106253492D01*
X160318727Y-106388775D01*
X160243345Y-106570764D01*
X160133907Y-106734549D01*
X159994619Y-106873837D01*
X159830834Y-106983275D01*
X159648845Y-107058657D01*
X159584446Y-107071467D01*
X159455649Y-107097086D01*
X159258663Y-107097086D01*
X159129866Y-107071467D01*
X159065467Y-107058657D01*
X158883478Y-106983275D01*
X158719693Y-106873837D01*
X158580405Y-106734549D01*
X158470967Y-106570764D01*
X158395585Y-106388775D01*
X158368676Y-106253492D01*
X158357156Y-106195579D01*
X158357156Y-105998593D01*
X158395585Y-105805398D01*
X158395585Y-105805397D01*
X158470967Y-105623408D01*
X158580405Y-105459623D01*
X158719693Y-105320335D01*
X158883478Y-105210897D01*
X159065467Y-105135515D01*
X159147871Y-105119124D01*
X159258663Y-105097086D01*
X159455649Y-105097086D01*
X159566441Y-105119124D01*
X159566441Y-105119124D01*
G37*
G36*
X133240000Y-106800000D02*
G01*
X127020000Y-106800000D01*
X127020000Y-104000000D01*
X133240000Y-104000000D01*
X133240000Y-106800000D01*
X133240000Y-106800000D01*
G37*
G36*
X181220178Y-103860935D02*
G01*
X181262046Y-103871277D01*
X181301089Y-103889587D01*
X181340778Y-103918822D01*
X182564395Y-105020572D01*
X182597620Y-105056990D01*
X182619914Y-105093910D01*
X182634572Y-105134457D01*
X182641039Y-105177100D01*
X182639065Y-105220178D01*
X182628723Y-105262046D01*
X182610413Y-105301089D01*
X182581178Y-105340778D01*
X181479428Y-106564395D01*
X181443010Y-106597620D01*
X181406090Y-106619914D01*
X181365543Y-106634572D01*
X181322900Y-106641039D01*
X181279822Y-106639065D01*
X181237954Y-106628723D01*
X181198911Y-106610413D01*
X181159222Y-106581178D01*
X179935605Y-105479428D01*
X179902380Y-105443010D01*
X179880086Y-105406090D01*
X179865428Y-105365543D01*
X179858961Y-105322900D01*
X179860935Y-105279822D01*
X179871277Y-105237954D01*
X179889587Y-105198911D01*
X179918822Y-105159222D01*
X181020572Y-103935605D01*
X181056990Y-103902380D01*
X181093910Y-103880086D01*
X181134457Y-103865428D01*
X181177100Y-103858961D01*
X181220178Y-103860935D01*
X181220178Y-103860935D01*
G37*
G36*
X122120974Y-103289148D02*
G01*
X122155567Y-103299642D01*
X122187440Y-103316678D01*
X122215386Y-103339614D01*
X122238322Y-103367560D01*
X122255358Y-103399433D01*
X122265852Y-103434026D01*
X122270000Y-103476141D01*
X122270000Y-104083859D01*
X122265852Y-104125974D01*
X122255358Y-104160567D01*
X122234213Y-104200127D01*
X122230244Y-104206066D01*
X122220865Y-104228703D01*
X122216082Y-104252736D01*
X122216080Y-104277240D01*
X122220858Y-104301274D01*
X122230233Y-104323914D01*
X122234206Y-104329861D01*
X122255358Y-104369432D01*
X122257658Y-104377015D01*
X122267035Y-104399654D01*
X122280649Y-104420028D01*
X122297976Y-104437355D01*
X122318350Y-104450969D01*
X122340989Y-104460346D01*
X122365022Y-104465127D01*
X122389526Y-104465127D01*
X122413560Y-104460347D01*
X122436199Y-104450970D01*
X122456573Y-104437356D01*
X122473900Y-104420029D01*
X122487514Y-104399655D01*
X122490987Y-104391270D01*
X122511678Y-104352560D01*
X122534614Y-104324614D01*
X122562560Y-104301678D01*
X122594433Y-104284642D01*
X122629026Y-104274148D01*
X122671141Y-104270000D01*
X123328859Y-104270000D01*
X123370974Y-104274148D01*
X123405567Y-104284642D01*
X123437440Y-104301678D01*
X123465386Y-104324614D01*
X123488322Y-104352560D01*
X123509013Y-104391271D01*
X123512487Y-104399657D01*
X123526101Y-104420031D01*
X123543429Y-104437357D01*
X123563803Y-104450971D01*
X123586442Y-104460347D01*
X123610476Y-104465127D01*
X123634980Y-104465127D01*
X123659013Y-104460346D01*
X123681652Y-104450968D01*
X123702026Y-104437354D01*
X123719352Y-104420026D01*
X123732966Y-104399652D01*
X123742342Y-104377015D01*
X123744642Y-104369432D01*
X123765787Y-104329873D01*
X123769756Y-104323934D01*
X123779135Y-104301297D01*
X123783918Y-104277264D01*
X123783920Y-104252760D01*
X123779142Y-104228726D01*
X123769767Y-104206086D01*
X123765794Y-104200139D01*
X123744642Y-104160567D01*
X123734148Y-104125974D01*
X123730000Y-104083859D01*
X123730000Y-103476141D01*
X123734148Y-103434026D01*
X123744642Y-103399433D01*
X123761678Y-103367560D01*
X123784614Y-103339614D01*
X123812560Y-103316678D01*
X123844433Y-103299642D01*
X123879026Y-103289148D01*
X123921141Y-103285000D01*
X124578859Y-103285000D01*
X124620974Y-103289148D01*
X124655567Y-103299642D01*
X124687440Y-103316678D01*
X124715386Y-103339614D01*
X124738322Y-103367560D01*
X124755358Y-103399433D01*
X124765852Y-103434026D01*
X124770000Y-103476141D01*
X124770000Y-104083859D01*
X124765852Y-104125974D01*
X124755358Y-104160567D01*
X124734213Y-104200127D01*
X124730244Y-104206066D01*
X124720865Y-104228703D01*
X124716082Y-104252736D01*
X124716080Y-104277240D01*
X124720858Y-104301274D01*
X124730233Y-104323914D01*
X124734206Y-104329861D01*
X124755358Y-104369433D01*
X124765852Y-104404026D01*
X124770000Y-104446141D01*
X124770000Y-105053859D01*
X124765852Y-105095974D01*
X124755358Y-105130567D01*
X124738322Y-105162440D01*
X124715386Y-105190386D01*
X124687440Y-105213322D01*
X124655567Y-105230358D01*
X124620974Y-105240852D01*
X124578859Y-105245000D01*
X123921141Y-105245000D01*
X123879026Y-105240852D01*
X123844433Y-105230358D01*
X123812560Y-105213322D01*
X123784614Y-105190386D01*
X123761678Y-105162440D01*
X123740987Y-105123729D01*
X123737513Y-105115343D01*
X123723899Y-105094969D01*
X123706571Y-105077643D01*
X123686197Y-105064029D01*
X123663558Y-105054653D01*
X123639524Y-105049873D01*
X123615020Y-105049873D01*
X123590987Y-105054654D01*
X123568348Y-105064032D01*
X123547974Y-105077646D01*
X123530648Y-105094974D01*
X123517034Y-105115348D01*
X123507658Y-105137985D01*
X123505358Y-105145568D01*
X123484213Y-105185127D01*
X123480244Y-105191066D01*
X123470865Y-105213703D01*
X123466082Y-105237736D01*
X123466080Y-105262240D01*
X123470858Y-105286274D01*
X123480233Y-105308914D01*
X123484206Y-105314861D01*
X123505358Y-105354433D01*
X123515852Y-105389026D01*
X123520000Y-105431141D01*
X123520000Y-106038859D01*
X123515852Y-106080974D01*
X123505358Y-106115567D01*
X123488322Y-106147440D01*
X123465386Y-106175386D01*
X123437440Y-106198322D01*
X123405567Y-106215358D01*
X123370974Y-106225852D01*
X123328859Y-106230000D01*
X122671141Y-106230000D01*
X122629026Y-106225852D01*
X122594433Y-106215358D01*
X122562560Y-106198322D01*
X122534614Y-106175386D01*
X122511678Y-106147440D01*
X122494642Y-106115567D01*
X122484148Y-106080974D01*
X122480000Y-106038859D01*
X122480000Y-105431141D01*
X122484148Y-105389026D01*
X122494642Y-105354433D01*
X122515787Y-105314873D01*
X122519756Y-105308934D01*
X122529135Y-105286297D01*
X122533918Y-105262264D01*
X122533920Y-105237760D01*
X122529142Y-105213726D01*
X122519767Y-105191086D01*
X122515794Y-105185139D01*
X122494642Y-105145568D01*
X122492342Y-105137985D01*
X122482965Y-105115346D01*
X122469351Y-105094972D01*
X122452024Y-105077645D01*
X122431650Y-105064031D01*
X122409011Y-105054654D01*
X122384978Y-105049873D01*
X122360474Y-105049873D01*
X122336440Y-105054653D01*
X122313801Y-105064030D01*
X122293427Y-105077644D01*
X122276100Y-105094971D01*
X122262486Y-105115345D01*
X122259013Y-105123730D01*
X122238322Y-105162440D01*
X122215386Y-105190386D01*
X122187440Y-105213322D01*
X122155567Y-105230358D01*
X122120974Y-105240852D01*
X122078859Y-105245000D01*
X121421141Y-105245000D01*
X121379026Y-105240852D01*
X121344433Y-105230358D01*
X121312560Y-105213322D01*
X121284614Y-105190386D01*
X121261678Y-105162440D01*
X121244642Y-105130567D01*
X121234148Y-105095974D01*
X121230000Y-105053859D01*
X121230000Y-104446141D01*
X121234148Y-104404026D01*
X121244642Y-104369433D01*
X121265787Y-104329873D01*
X121269756Y-104323934D01*
X121279135Y-104301297D01*
X121283918Y-104277264D01*
X121283920Y-104252760D01*
X121279142Y-104228726D01*
X121269767Y-104206086D01*
X121265794Y-104200139D01*
X121244642Y-104160567D01*
X121234148Y-104125974D01*
X121230000Y-104083859D01*
X121230000Y-103476141D01*
X121234148Y-103434026D01*
X121244642Y-103399433D01*
X121261678Y-103367560D01*
X121284614Y-103339614D01*
X121312560Y-103316678D01*
X121344433Y-103299642D01*
X121379026Y-103289148D01*
X121421141Y-103285000D01*
X122078859Y-103285000D01*
X122120974Y-103289148D01*
X122120974Y-103289148D01*
G37*
G36*
X115620974Y-103274148D02*
G01*
X115655567Y-103284642D01*
X115687440Y-103301678D01*
X115715386Y-103324614D01*
X115738322Y-103352560D01*
X115755358Y-103384433D01*
X115765852Y-103419026D01*
X115770000Y-103461141D01*
X115770000Y-104068859D01*
X115765852Y-104110974D01*
X115755358Y-104145567D01*
X115734213Y-104185127D01*
X115730244Y-104191066D01*
X115720865Y-104213703D01*
X115716082Y-104237736D01*
X115716080Y-104262240D01*
X115720858Y-104286274D01*
X115730233Y-104308914D01*
X115734206Y-104314861D01*
X115756551Y-104356665D01*
X115764005Y-104374658D01*
X115777619Y-104395032D01*
X115794947Y-104412358D01*
X115815322Y-104425971D01*
X115837961Y-104435348D01*
X115861994Y-104440128D01*
X115886499Y-104440127D01*
X115910532Y-104435345D01*
X115933170Y-104425967D01*
X115953544Y-104412353D01*
X115970870Y-104395025D01*
X115984483Y-104374650D01*
X115993859Y-104352013D01*
X115994641Y-104349434D01*
X116011678Y-104317560D01*
X116034614Y-104289614D01*
X116062560Y-104266678D01*
X116094433Y-104249642D01*
X116129026Y-104239148D01*
X116171141Y-104235000D01*
X116828859Y-104235000D01*
X116870974Y-104239148D01*
X116905567Y-104249642D01*
X116937440Y-104266678D01*
X116965386Y-104289614D01*
X116988322Y-104317560D01*
X117005358Y-104349433D01*
X117015852Y-104384026D01*
X117020000Y-104426141D01*
X117020000Y-105033859D01*
X117015852Y-105075974D01*
X117005358Y-105110567D01*
X116984213Y-105150127D01*
X116980244Y-105156066D01*
X116970865Y-105178703D01*
X116966082Y-105202736D01*
X116966080Y-105227240D01*
X116970858Y-105251274D01*
X116980233Y-105273914D01*
X116984206Y-105279861D01*
X117005358Y-105319433D01*
X117015852Y-105354026D01*
X117020000Y-105396141D01*
X117020000Y-106003859D01*
X117015852Y-106045974D01*
X117005358Y-106080567D01*
X116988322Y-106112440D01*
X116965386Y-106140386D01*
X116937440Y-106163322D01*
X116905567Y-106180358D01*
X116870974Y-106190852D01*
X116828859Y-106195000D01*
X116171141Y-106195000D01*
X116129026Y-106190852D01*
X116094433Y-106180358D01*
X116062560Y-106163322D01*
X116034614Y-106140386D01*
X116011678Y-106112440D01*
X115994642Y-106080567D01*
X115984148Y-106045974D01*
X115980000Y-106003859D01*
X115980000Y-105396141D01*
X115984148Y-105354026D01*
X115994642Y-105319433D01*
X116015787Y-105279873D01*
X116019756Y-105273934D01*
X116029135Y-105251297D01*
X116033918Y-105227264D01*
X116033920Y-105202760D01*
X116029142Y-105178726D01*
X116019767Y-105156086D01*
X116015794Y-105150139D01*
X115993449Y-105108335D01*
X115985995Y-105090342D01*
X115972381Y-105069968D01*
X115955053Y-105052642D01*
X115934678Y-105039029D01*
X115912039Y-105029652D01*
X115888006Y-105024872D01*
X115863501Y-105024873D01*
X115839468Y-105029655D01*
X115816830Y-105039033D01*
X115796456Y-105052647D01*
X115779130Y-105069975D01*
X115765517Y-105090350D01*
X115756141Y-105112987D01*
X115755359Y-105115566D01*
X115738322Y-105147440D01*
X115715386Y-105175386D01*
X115687440Y-105198322D01*
X115655567Y-105215358D01*
X115620974Y-105225852D01*
X115578859Y-105230000D01*
X114921141Y-105230000D01*
X114879026Y-105225852D01*
X114844433Y-105215358D01*
X114812560Y-105198322D01*
X114784614Y-105175386D01*
X114761678Y-105147440D01*
X114744642Y-105115567D01*
X114734148Y-105080974D01*
X114730000Y-105038859D01*
X114730000Y-104431141D01*
X114734148Y-104389026D01*
X114744642Y-104354433D01*
X114765787Y-104314873D01*
X114769756Y-104308934D01*
X114779135Y-104286297D01*
X114783918Y-104262264D01*
X114783920Y-104237760D01*
X114779142Y-104213726D01*
X114769767Y-104191086D01*
X114765794Y-104185139D01*
X114744642Y-104145567D01*
X114734148Y-104110974D01*
X114730000Y-104068859D01*
X114730000Y-103461141D01*
X114734148Y-103419026D01*
X114744642Y-103384433D01*
X114761678Y-103352560D01*
X114784614Y-103324614D01*
X114812560Y-103301678D01*
X114844433Y-103284642D01*
X114879026Y-103274148D01*
X114921141Y-103270000D01*
X115578859Y-103270000D01*
X115620974Y-103274148D01*
X115620974Y-103274148D01*
G37*
G36*
X184909376Y-104019991D02*
G01*
X185086963Y-104055314D01*
X185278051Y-104134466D01*
X185450025Y-104249375D01*
X185596278Y-104395628D01*
X185711187Y-104567602D01*
X185790339Y-104758690D01*
X185825662Y-104936277D01*
X185830689Y-104961547D01*
X185830689Y-105168381D01*
X185827358Y-105185127D01*
X185790339Y-105371238D01*
X185711187Y-105562326D01*
X185596278Y-105734300D01*
X185450025Y-105880553D01*
X185278051Y-105995462D01*
X185086963Y-106074614D01*
X184922947Y-106107238D01*
X184884106Y-106114964D01*
X184677272Y-106114964D01*
X184638431Y-106107238D01*
X184474415Y-106074614D01*
X184283327Y-105995462D01*
X184111353Y-105880553D01*
X183965100Y-105734300D01*
X183850191Y-105562326D01*
X183771039Y-105371238D01*
X183734020Y-105185127D01*
X183730689Y-105168381D01*
X183730689Y-104961547D01*
X183735716Y-104936277D01*
X183771039Y-104758690D01*
X183850191Y-104567602D01*
X183965100Y-104395628D01*
X184111353Y-104249375D01*
X184283327Y-104134466D01*
X184474415Y-104055314D01*
X184652002Y-104019991D01*
X184677272Y-104014964D01*
X184884106Y-104014964D01*
X184909376Y-104019991D01*
X184909376Y-104019991D01*
G37*
G36*
X118170974Y-103289148D02*
G01*
X118205567Y-103299642D01*
X118237440Y-103316678D01*
X118265386Y-103339614D01*
X118288322Y-103367560D01*
X118305358Y-103399433D01*
X118315852Y-103434026D01*
X118320000Y-103476141D01*
X118320000Y-104083859D01*
X118315852Y-104125974D01*
X118305358Y-104160567D01*
X118284213Y-104200127D01*
X118280244Y-104206066D01*
X118270865Y-104228703D01*
X118266082Y-104252736D01*
X118266080Y-104277240D01*
X118270858Y-104301274D01*
X118280233Y-104323914D01*
X118284206Y-104329861D01*
X118305358Y-104369433D01*
X118315852Y-104404026D01*
X118320000Y-104446141D01*
X118320000Y-105053859D01*
X118315852Y-105095974D01*
X118305358Y-105130567D01*
X118288322Y-105162440D01*
X118265386Y-105190386D01*
X118237440Y-105213322D01*
X118205567Y-105230358D01*
X118170974Y-105240852D01*
X118128859Y-105245000D01*
X117471141Y-105245000D01*
X117429026Y-105240852D01*
X117394433Y-105230358D01*
X117362560Y-105213322D01*
X117334614Y-105190386D01*
X117311678Y-105162440D01*
X117294642Y-105130567D01*
X117284148Y-105095974D01*
X117280000Y-105053859D01*
X117280000Y-104446141D01*
X117284148Y-104404026D01*
X117294642Y-104369433D01*
X117315787Y-104329873D01*
X117319756Y-104323934D01*
X117329135Y-104301297D01*
X117333918Y-104277264D01*
X117333920Y-104252760D01*
X117329142Y-104228726D01*
X117319767Y-104206086D01*
X117315794Y-104200139D01*
X117294642Y-104160567D01*
X117284148Y-104125974D01*
X117280000Y-104083859D01*
X117280000Y-103476141D01*
X117284148Y-103434026D01*
X117294642Y-103399433D01*
X117311678Y-103367560D01*
X117334614Y-103339614D01*
X117362560Y-103316678D01*
X117394433Y-103299642D01*
X117429026Y-103289148D01*
X117471141Y-103285000D01*
X118128859Y-103285000D01*
X118170974Y-103289148D01*
X118170974Y-103289148D01*
G37*
G36*
X161041330Y-103042059D02*
G01*
X161105729Y-103054869D01*
X161287718Y-103130251D01*
X161451503Y-103239689D01*
X161590791Y-103378977D01*
X161700229Y-103542762D01*
X161775611Y-103724751D01*
X161775611Y-103724752D01*
X161814040Y-103917947D01*
X161814040Y-104114933D01*
X161809531Y-104137600D01*
X161775611Y-104308129D01*
X161700229Y-104490118D01*
X161590791Y-104653903D01*
X161451503Y-104793191D01*
X161287718Y-104902629D01*
X161105729Y-104978011D01*
X161041330Y-104990821D01*
X160912533Y-105016440D01*
X160715547Y-105016440D01*
X160586750Y-104990821D01*
X160522351Y-104978011D01*
X160340362Y-104902629D01*
X160176577Y-104793191D01*
X160037289Y-104653903D01*
X159927851Y-104490118D01*
X159852469Y-104308129D01*
X159818549Y-104137600D01*
X159814040Y-104114933D01*
X159814040Y-103917947D01*
X159852469Y-103724752D01*
X159852469Y-103724751D01*
X159927851Y-103542762D01*
X160037289Y-103378977D01*
X160176577Y-103239689D01*
X160340362Y-103130251D01*
X160522351Y-103054869D01*
X160586750Y-103042059D01*
X160715547Y-103016440D01*
X160912533Y-103016440D01*
X161041330Y-103042059D01*
X161041330Y-103042059D01*
G37*
G36*
X184724340Y-100489303D02*
G01*
X184901927Y-100524626D01*
X185093015Y-100603778D01*
X185264989Y-100718687D01*
X185411242Y-100864940D01*
X185526151Y-101036914D01*
X185605303Y-101228002D01*
X185640626Y-101405589D01*
X185645653Y-101430859D01*
X185645653Y-101637693D01*
X185642108Y-101655514D01*
X185605303Y-101840550D01*
X185526151Y-102031638D01*
X185411242Y-102203612D01*
X185264989Y-102349865D01*
X185093015Y-102464774D01*
X184901927Y-102543926D01*
X184737916Y-102576549D01*
X184699070Y-102584276D01*
X184492236Y-102584276D01*
X184453390Y-102576549D01*
X184289379Y-102543926D01*
X184098291Y-102464774D01*
X183926317Y-102349865D01*
X183780064Y-102203612D01*
X183673989Y-102044859D01*
X183658447Y-102025922D01*
X183639506Y-102010377D01*
X183617895Y-101998826D01*
X183594446Y-101991713D01*
X183570060Y-101989311D01*
X183545674Y-101991713D01*
X183522225Y-101998826D01*
X183500614Y-102010377D01*
X183481672Y-102025923D01*
X183466128Y-102044864D01*
X183423664Y-102108416D01*
X183305270Y-102226810D01*
X183305267Y-102226812D01*
X183305159Y-102226920D01*
X183289614Y-102245862D01*
X183278063Y-102267473D01*
X183270950Y-102290922D01*
X183268548Y-102315308D01*
X183270950Y-102339694D01*
X183278063Y-102363143D01*
X183289614Y-102384754D01*
X183305159Y-102403696D01*
X183324101Y-102419241D01*
X183345702Y-102430786D01*
X183420189Y-102461640D01*
X183592163Y-102576549D01*
X183738416Y-102722802D01*
X183853325Y-102894776D01*
X183932477Y-103085864D01*
X183963074Y-103239689D01*
X183972827Y-103288721D01*
X183972827Y-103495555D01*
X183969282Y-103513376D01*
X183932477Y-103698412D01*
X183853325Y-103889500D01*
X183738416Y-104061474D01*
X183592163Y-104207727D01*
X183420189Y-104322636D01*
X183229101Y-104401788D01*
X183060379Y-104435348D01*
X183026244Y-104442138D01*
X182819410Y-104442138D01*
X182785275Y-104435348D01*
X182616553Y-104401788D01*
X182425465Y-104322636D01*
X182253491Y-104207727D01*
X182107238Y-104061474D01*
X181992329Y-103889500D01*
X181913177Y-103698412D01*
X181876372Y-103513376D01*
X181872827Y-103495555D01*
X181872827Y-103288721D01*
X181882580Y-103239689D01*
X181913177Y-103085864D01*
X181992329Y-102894776D01*
X182107238Y-102722802D01*
X182253491Y-102576549D01*
X182343708Y-102516268D01*
X182362644Y-102500727D01*
X182378189Y-102481785D01*
X182389740Y-102460175D01*
X182396853Y-102436726D01*
X182399255Y-102412340D01*
X182396853Y-102387954D01*
X182389740Y-102364505D01*
X182378189Y-102342894D01*
X182362643Y-102323952D01*
X182343701Y-102308407D01*
X182221585Y-102226812D01*
X182221582Y-102226810D01*
X182103188Y-102108416D01*
X182010166Y-101969198D01*
X181974348Y-101882727D01*
X181946090Y-101814507D01*
X181913426Y-101650291D01*
X181913426Y-101482853D01*
X181946090Y-101318637D01*
X182010165Y-101163948D01*
X182057876Y-101092543D01*
X182103188Y-101024728D01*
X182221582Y-100906334D01*
X182360800Y-100813312D01*
X182360802Y-100813311D01*
X182515491Y-100749236D01*
X182679707Y-100716572D01*
X182847145Y-100716572D01*
X183011361Y-100749236D01*
X183166050Y-100813311D01*
X183166052Y-100813312D01*
X183305270Y-100906334D01*
X183423664Y-101024728D01*
X183423666Y-101024731D01*
X183423668Y-101024733D01*
X183445934Y-101058056D01*
X183461479Y-101076998D01*
X183480421Y-101092543D01*
X183502032Y-101104094D01*
X183525481Y-101111207D01*
X183549867Y-101113609D01*
X183574253Y-101111207D01*
X183597702Y-101104094D01*
X183619312Y-101092542D01*
X183638254Y-101076997D01*
X183653799Y-101058055D01*
X183664872Y-101037339D01*
X183665153Y-101036918D01*
X183665155Y-101036914D01*
X183780064Y-100864940D01*
X183926317Y-100718687D01*
X184098291Y-100603778D01*
X184289379Y-100524626D01*
X184466966Y-100489303D01*
X184492236Y-100484276D01*
X184699070Y-100484276D01*
X184724340Y-100489303D01*
X184724340Y-100489303D01*
G37*
G36*
X186582202Y-102162129D02*
G01*
X186759789Y-102197452D01*
X186950877Y-102276604D01*
X187122851Y-102391513D01*
X187269104Y-102537766D01*
X187384013Y-102709740D01*
X187463165Y-102900828D01*
X187486161Y-103016440D01*
X187499971Y-103085866D01*
X187503515Y-103103686D01*
X187503515Y-103310518D01*
X187463165Y-103513376D01*
X187384013Y-103704464D01*
X187269104Y-103876438D01*
X187122851Y-104022691D01*
X186950877Y-104137600D01*
X186759789Y-104216752D01*
X186582202Y-104252075D01*
X186556932Y-104257102D01*
X186350098Y-104257102D01*
X186324828Y-104252075D01*
X186147241Y-104216752D01*
X185956153Y-104137600D01*
X185784179Y-104022691D01*
X185637926Y-103876438D01*
X185523017Y-103704464D01*
X185443865Y-103513376D01*
X185403515Y-103310518D01*
X185403515Y-103103686D01*
X185407060Y-103085866D01*
X185420869Y-103016440D01*
X185443865Y-102900828D01*
X185523017Y-102709740D01*
X185637926Y-102537766D01*
X185784179Y-102391513D01*
X185956153Y-102276604D01*
X186147241Y-102197452D01*
X186324828Y-102162129D01*
X186350098Y-102157102D01*
X186556932Y-102157102D01*
X186582202Y-102162129D01*
X186582202Y-102162129D01*
G37*
G36*
X168116391Y-101794535D02*
G01*
X168180790Y-101807345D01*
X168362779Y-101882727D01*
X168526564Y-101992165D01*
X168665852Y-102131453D01*
X168775290Y-102295238D01*
X168850672Y-102477227D01*
X168855346Y-102500727D01*
X168889101Y-102670423D01*
X168889101Y-102867409D01*
X168863482Y-102996206D01*
X168850672Y-103060605D01*
X168775290Y-103242594D01*
X168665852Y-103406379D01*
X168526564Y-103545667D01*
X168362779Y-103655105D01*
X168180790Y-103730487D01*
X168116391Y-103743297D01*
X167987594Y-103768916D01*
X167790608Y-103768916D01*
X167661811Y-103743297D01*
X167597412Y-103730487D01*
X167415423Y-103655105D01*
X167251638Y-103545667D01*
X167112350Y-103406379D01*
X167002912Y-103242594D01*
X166927530Y-103060605D01*
X166914720Y-102996206D01*
X166889101Y-102867409D01*
X166889101Y-102670423D01*
X166922856Y-102500727D01*
X166927530Y-102477227D01*
X167002912Y-102295238D01*
X167112350Y-102131453D01*
X167251638Y-101992165D01*
X167415423Y-101882727D01*
X167597412Y-101807345D01*
X167661811Y-101794535D01*
X167790608Y-101768916D01*
X167987594Y-101768916D01*
X168116391Y-101794535D01*
X168116391Y-101794535D01*
G37*
G36*
X162498214Y-100961412D02*
G01*
X162562613Y-100974222D01*
X162744602Y-101049604D01*
X162908387Y-101159042D01*
X163047675Y-101298330D01*
X163157113Y-101462115D01*
X163232495Y-101644104D01*
X163245305Y-101708503D01*
X163270924Y-101837300D01*
X163270924Y-102034286D01*
X163251596Y-102131453D01*
X163232495Y-102227482D01*
X163157113Y-102409471D01*
X163047675Y-102573256D01*
X162908387Y-102712544D01*
X162744602Y-102821982D01*
X162562613Y-102897364D01*
X162498214Y-102910174D01*
X162369417Y-102935793D01*
X162172431Y-102935793D01*
X162043634Y-102910174D01*
X161979235Y-102897364D01*
X161797246Y-102821982D01*
X161633461Y-102712544D01*
X161494173Y-102573256D01*
X161384735Y-102409471D01*
X161309353Y-102227482D01*
X161290252Y-102131453D01*
X161270924Y-102034286D01*
X161270924Y-101837300D01*
X161296543Y-101708503D01*
X161309353Y-101644104D01*
X161384735Y-101462115D01*
X161494173Y-101298330D01*
X161633461Y-101159042D01*
X161797246Y-101049604D01*
X161979235Y-100974222D01*
X162043634Y-100961412D01*
X162172431Y-100935793D01*
X162369417Y-100935793D01*
X162498214Y-100961412D01*
X162498214Y-100961412D01*
G37*
G36*
X133240000Y-102900000D02*
G01*
X127020000Y-102900000D01*
X127020000Y-100100000D01*
X133240000Y-100100000D01*
X133240000Y-102900000D01*
X133240000Y-102900000D01*
G37*
G36*
X118193963Y-100179196D02*
G01*
X118229021Y-100189831D01*
X118261332Y-100207102D01*
X118289655Y-100230345D01*
X118312898Y-100258668D01*
X118330169Y-100290979D01*
X118340804Y-100326037D01*
X118345000Y-100368641D01*
X118345000Y-102431359D01*
X118340804Y-102473963D01*
X118330169Y-102509021D01*
X118312898Y-102541332D01*
X118289655Y-102569655D01*
X118261332Y-102592898D01*
X118229021Y-102610169D01*
X118193963Y-102620804D01*
X118151359Y-102625000D01*
X117538641Y-102625000D01*
X117496037Y-102620804D01*
X117460979Y-102610169D01*
X117428668Y-102592898D01*
X117400345Y-102569655D01*
X117377102Y-102541332D01*
X117359831Y-102509021D01*
X117349196Y-102473963D01*
X117345000Y-102431359D01*
X117345000Y-100368641D01*
X117349196Y-100326037D01*
X117359831Y-100290979D01*
X117377102Y-100258668D01*
X117400345Y-100230345D01*
X117428668Y-100207102D01*
X117460979Y-100189831D01*
X117496037Y-100179196D01*
X117538641Y-100175000D01*
X118151359Y-100175000D01*
X118193963Y-100179196D01*
X118193963Y-100179196D01*
G37*
G36*
X123273963Y-100179196D02*
G01*
X123309021Y-100189831D01*
X123341332Y-100207102D01*
X123369655Y-100230345D01*
X123392898Y-100258668D01*
X123410169Y-100290979D01*
X123420804Y-100326037D01*
X123425000Y-100368641D01*
X123425000Y-102431359D01*
X123420804Y-102473963D01*
X123410169Y-102509021D01*
X123392898Y-102541332D01*
X123369655Y-102569655D01*
X123341332Y-102592898D01*
X123309021Y-102610169D01*
X123273963Y-102620804D01*
X123231359Y-102625000D01*
X122618641Y-102625000D01*
X122576037Y-102620804D01*
X122540979Y-102610169D01*
X122508668Y-102592898D01*
X122480345Y-102569655D01*
X122457102Y-102541332D01*
X122439831Y-102509021D01*
X122429196Y-102473963D01*
X122425000Y-102431359D01*
X122425000Y-100368641D01*
X122429196Y-100326037D01*
X122439831Y-100290979D01*
X122457102Y-100258668D01*
X122480345Y-100230345D01*
X122508668Y-100207102D01*
X122540979Y-100189831D01*
X122576037Y-100179196D01*
X122618641Y-100175000D01*
X123231359Y-100175000D01*
X123273963Y-100179196D01*
X123273963Y-100179196D01*
G37*
G36*
X122003963Y-100179196D02*
G01*
X122039021Y-100189831D01*
X122071332Y-100207102D01*
X122099655Y-100230345D01*
X122122898Y-100258668D01*
X122140169Y-100290979D01*
X122150804Y-100326037D01*
X122155000Y-100368641D01*
X122155000Y-102431359D01*
X122150804Y-102473963D01*
X122140169Y-102509021D01*
X122122898Y-102541332D01*
X122099655Y-102569655D01*
X122071332Y-102592898D01*
X122039021Y-102610169D01*
X122003963Y-102620804D01*
X121961359Y-102625000D01*
X121348641Y-102625000D01*
X121306037Y-102620804D01*
X121270979Y-102610169D01*
X121238668Y-102592898D01*
X121210345Y-102569655D01*
X121187102Y-102541332D01*
X121169831Y-102509021D01*
X121159196Y-102473963D01*
X121155000Y-102431359D01*
X121155000Y-100368641D01*
X121159196Y-100326037D01*
X121169831Y-100290979D01*
X121187102Y-100258668D01*
X121210345Y-100230345D01*
X121238668Y-100207102D01*
X121270979Y-100189831D01*
X121306037Y-100179196D01*
X121348641Y-100175000D01*
X121961359Y-100175000D01*
X122003963Y-100179196D01*
X122003963Y-100179196D01*
G37*
G36*
X124543963Y-100179196D02*
G01*
X124579021Y-100189831D01*
X124611332Y-100207102D01*
X124639655Y-100230345D01*
X124662898Y-100258668D01*
X124680169Y-100290979D01*
X124690804Y-100326037D01*
X124695000Y-100368641D01*
X124695000Y-102431359D01*
X124690804Y-102473963D01*
X124680169Y-102509021D01*
X124662898Y-102541332D01*
X124639655Y-102569655D01*
X124611332Y-102592898D01*
X124579021Y-102610169D01*
X124543963Y-102620804D01*
X124501359Y-102625000D01*
X123888641Y-102625000D01*
X123846037Y-102620804D01*
X123810979Y-102610169D01*
X123778668Y-102592898D01*
X123750345Y-102569655D01*
X123727102Y-102541332D01*
X123709831Y-102509021D01*
X123699196Y-102473963D01*
X123695000Y-102431359D01*
X123695000Y-100368641D01*
X123699196Y-100326037D01*
X123709831Y-100290979D01*
X123727102Y-100258668D01*
X123750345Y-100230345D01*
X123778668Y-100207102D01*
X123810979Y-100189831D01*
X123846037Y-100179196D01*
X123888641Y-100175000D01*
X124501359Y-100175000D01*
X124543963Y-100179196D01*
X124543963Y-100179196D01*
G37*
G36*
X120733963Y-100179196D02*
G01*
X120769021Y-100189831D01*
X120801332Y-100207102D01*
X120829655Y-100230345D01*
X120852898Y-100258668D01*
X120870169Y-100290979D01*
X120880804Y-100326037D01*
X120885000Y-100368641D01*
X120885000Y-102431359D01*
X120880804Y-102473963D01*
X120870169Y-102509021D01*
X120852898Y-102541332D01*
X120829655Y-102569655D01*
X120801332Y-102592898D01*
X120769021Y-102610169D01*
X120733963Y-102620804D01*
X120691359Y-102625000D01*
X120078641Y-102625000D01*
X120036037Y-102620804D01*
X120000979Y-102610169D01*
X119968668Y-102592898D01*
X119940345Y-102569655D01*
X119917102Y-102541332D01*
X119899831Y-102509021D01*
X119889196Y-102473963D01*
X119885000Y-102431359D01*
X119885000Y-100368641D01*
X119889196Y-100326037D01*
X119899831Y-100290979D01*
X119917102Y-100258668D01*
X119940345Y-100230345D01*
X119968668Y-100207102D01*
X120000979Y-100189831D01*
X120036037Y-100179196D01*
X120078641Y-100175000D01*
X120691359Y-100175000D01*
X120733963Y-100179196D01*
X120733963Y-100179196D01*
G37*
G36*
X115653963Y-100179196D02*
G01*
X115689021Y-100189831D01*
X115721332Y-100207102D01*
X115749655Y-100230345D01*
X115772898Y-100258668D01*
X115790169Y-100290979D01*
X115800804Y-100326037D01*
X115805000Y-100368641D01*
X115805000Y-102431359D01*
X115800804Y-102473963D01*
X115790169Y-102509021D01*
X115772898Y-102541332D01*
X115749655Y-102569655D01*
X115721332Y-102592898D01*
X115689021Y-102610169D01*
X115653963Y-102620804D01*
X115611359Y-102625000D01*
X114998641Y-102625000D01*
X114956037Y-102620804D01*
X114920979Y-102610169D01*
X114888668Y-102592898D01*
X114860345Y-102569655D01*
X114837102Y-102541332D01*
X114819831Y-102509021D01*
X114809196Y-102473963D01*
X114805000Y-102431359D01*
X114805000Y-100368641D01*
X114809196Y-100326037D01*
X114819831Y-100290979D01*
X114837102Y-100258668D01*
X114860345Y-100230345D01*
X114888668Y-100207102D01*
X114920979Y-100189831D01*
X114956037Y-100179196D01*
X114998641Y-100175000D01*
X115611359Y-100175000D01*
X115653963Y-100179196D01*
X115653963Y-100179196D01*
G37*
G36*
X119463963Y-100179196D02*
G01*
X119499021Y-100189831D01*
X119531332Y-100207102D01*
X119559655Y-100230345D01*
X119582898Y-100258668D01*
X119600169Y-100290979D01*
X119610804Y-100326037D01*
X119615000Y-100368641D01*
X119615000Y-102431359D01*
X119610804Y-102473963D01*
X119600169Y-102509021D01*
X119582898Y-102541332D01*
X119559655Y-102569655D01*
X119531332Y-102592898D01*
X119499021Y-102610169D01*
X119463963Y-102620804D01*
X119421359Y-102625000D01*
X118808641Y-102625000D01*
X118766037Y-102620804D01*
X118730979Y-102610169D01*
X118698668Y-102592898D01*
X118670345Y-102569655D01*
X118647102Y-102541332D01*
X118629831Y-102509021D01*
X118619196Y-102473963D01*
X118615000Y-102431359D01*
X118615000Y-100368641D01*
X118619196Y-100326037D01*
X118629831Y-100290979D01*
X118647102Y-100258668D01*
X118670345Y-100230345D01*
X118698668Y-100207102D01*
X118730979Y-100189831D01*
X118766037Y-100179196D01*
X118808641Y-100175000D01*
X119421359Y-100175000D01*
X119463963Y-100179196D01*
X119463963Y-100179196D01*
G37*
G36*
X116923963Y-100179196D02*
G01*
X116959021Y-100189831D01*
X116991332Y-100207102D01*
X117019655Y-100230345D01*
X117042898Y-100258668D01*
X117060169Y-100290979D01*
X117070804Y-100326037D01*
X117075000Y-100368641D01*
X117075000Y-102431359D01*
X117070804Y-102473963D01*
X117060169Y-102509021D01*
X117042898Y-102541332D01*
X117019655Y-102569655D01*
X116991332Y-102592898D01*
X116959021Y-102610169D01*
X116923963Y-102620804D01*
X116881359Y-102625000D01*
X116268641Y-102625000D01*
X116226037Y-102620804D01*
X116190979Y-102610169D01*
X116158668Y-102592898D01*
X116130345Y-102569655D01*
X116107102Y-102541332D01*
X116089831Y-102509021D01*
X116079196Y-102473963D01*
X116075000Y-102431359D01*
X116075000Y-100368641D01*
X116079196Y-100326037D01*
X116089831Y-100290979D01*
X116107102Y-100258668D01*
X116130345Y-100230345D01*
X116158668Y-100207102D01*
X116190979Y-100189831D01*
X116226037Y-100179196D01*
X116268641Y-100175000D01*
X116881359Y-100175000D01*
X116923963Y-100179196D01*
X116923963Y-100179196D01*
G37*
G36*
X188255029Y-100304267D02*
G01*
X188432616Y-100339590D01*
X188623704Y-100418742D01*
X188795678Y-100533651D01*
X188941931Y-100679904D01*
X189056840Y-100851878D01*
X189135992Y-101042966D01*
X189160056Y-101163948D01*
X189172798Y-101228004D01*
X189176342Y-101245824D01*
X189176342Y-101452656D01*
X189135992Y-101655514D01*
X189056840Y-101846602D01*
X188941931Y-102018576D01*
X188795678Y-102164829D01*
X188623704Y-102279738D01*
X188432616Y-102358890D01*
X188268605Y-102391513D01*
X188229759Y-102399240D01*
X188022925Y-102399240D01*
X187984079Y-102391513D01*
X187820068Y-102358890D01*
X187628980Y-102279738D01*
X187457006Y-102164829D01*
X187310753Y-102018576D01*
X187195844Y-101846602D01*
X187116692Y-101655514D01*
X187076342Y-101452656D01*
X187076342Y-101245824D01*
X187079887Y-101228004D01*
X187092628Y-101163948D01*
X187116692Y-101042966D01*
X187195844Y-100851878D01*
X187310753Y-100679904D01*
X187457006Y-100533651D01*
X187628980Y-100418742D01*
X187820068Y-100339590D01*
X187997655Y-100304267D01*
X188022925Y-100299240D01*
X188229759Y-100299240D01*
X188255029Y-100304267D01*
X188255029Y-100304267D01*
G37*
G36*
X166035745Y-100337650D02*
G01*
X166100144Y-100350460D01*
X166282133Y-100425842D01*
X166445918Y-100535280D01*
X166585206Y-100674568D01*
X166694644Y-100838353D01*
X166770026Y-101020342D01*
X166777527Y-101058055D01*
X166808455Y-101213538D01*
X166808455Y-101410524D01*
X166782836Y-101539321D01*
X166770026Y-101603720D01*
X166694644Y-101785709D01*
X166585206Y-101949494D01*
X166445918Y-102088782D01*
X166282133Y-102198220D01*
X166100144Y-102273602D01*
X166035745Y-102286412D01*
X165906948Y-102312031D01*
X165709962Y-102312031D01*
X165581165Y-102286412D01*
X165516766Y-102273602D01*
X165334777Y-102198220D01*
X165170992Y-102088782D01*
X165031704Y-101949494D01*
X164922266Y-101785709D01*
X164846884Y-101603720D01*
X164834074Y-101539321D01*
X164808455Y-101410524D01*
X164808455Y-101213538D01*
X164839383Y-101058055D01*
X164846884Y-101020342D01*
X164922266Y-100838353D01*
X165031704Y-100674568D01*
X165170992Y-100535280D01*
X165334777Y-100425842D01*
X165516766Y-100350460D01*
X165581165Y-100337650D01*
X165709962Y-100312031D01*
X165906948Y-100312031D01*
X166035745Y-100337650D01*
X166035745Y-100337650D01*
G37*
G36*
X163955098Y-98880766D02*
G01*
X164019497Y-98893576D01*
X164201486Y-98968958D01*
X164365271Y-99078396D01*
X164504559Y-99217684D01*
X164613997Y-99381469D01*
X164689379Y-99563458D01*
X164695612Y-99594794D01*
X164727808Y-99756654D01*
X164727808Y-99953640D01*
X164720826Y-99988740D01*
X164689379Y-100146836D01*
X164613997Y-100328825D01*
X164504559Y-100492610D01*
X164365271Y-100631898D01*
X164201486Y-100741336D01*
X164019497Y-100816718D01*
X163955098Y-100829528D01*
X163826301Y-100855147D01*
X163629315Y-100855147D01*
X163500518Y-100829528D01*
X163436119Y-100816718D01*
X163254130Y-100741336D01*
X163090345Y-100631898D01*
X162951057Y-100492610D01*
X162841619Y-100328825D01*
X162766237Y-100146836D01*
X162734790Y-99988740D01*
X162727808Y-99953640D01*
X162727808Y-99756654D01*
X162760004Y-99594794D01*
X162766237Y-99563458D01*
X162841619Y-99381469D01*
X162951057Y-99217684D01*
X163090345Y-99078396D01*
X163254130Y-98968958D01*
X163436119Y-98893576D01*
X163500518Y-98880766D01*
X163629315Y-98855147D01*
X163826301Y-98855147D01*
X163955098Y-98880766D01*
X163955098Y-98880766D01*
G37*
G36*
X186397167Y-98631441D02*
G01*
X186574754Y-98666764D01*
X186765842Y-98745916D01*
X186937816Y-98860825D01*
X187084069Y-99007078D01*
X187198978Y-99179052D01*
X187278130Y-99370140D01*
X187309615Y-99528428D01*
X187318480Y-99572997D01*
X187318480Y-99779831D01*
X187314935Y-99797652D01*
X187278130Y-99982688D01*
X187198978Y-100173776D01*
X187084069Y-100345750D01*
X186937816Y-100492003D01*
X186765842Y-100606912D01*
X186574754Y-100686064D01*
X186410743Y-100718687D01*
X186371897Y-100726414D01*
X186165063Y-100726414D01*
X186126217Y-100718687D01*
X185962206Y-100686064D01*
X185771118Y-100606912D01*
X185599144Y-100492003D01*
X185452891Y-100345750D01*
X185337982Y-100173776D01*
X185258830Y-99982688D01*
X185222025Y-99797652D01*
X185218480Y-99779831D01*
X185218480Y-99572997D01*
X185227345Y-99528428D01*
X185258830Y-99370140D01*
X185337982Y-99179052D01*
X185452891Y-99007078D01*
X185599144Y-98860825D01*
X185771118Y-98745916D01*
X185962206Y-98666764D01*
X186139793Y-98631441D01*
X186165063Y-98626414D01*
X186371897Y-98626414D01*
X186397167Y-98631441D01*
X186397167Y-98631441D01*
G37*
G36*
X189927855Y-98446405D02*
G01*
X190105442Y-98481728D01*
X190296530Y-98560880D01*
X190468504Y-98675789D01*
X190614757Y-98822042D01*
X190729666Y-98994016D01*
X190808818Y-99185104D01*
X190844141Y-99362691D01*
X190847877Y-99381469D01*
X190849168Y-99387962D01*
X190849168Y-99594794D01*
X190808818Y-99797652D01*
X190729666Y-99988740D01*
X190614757Y-100160714D01*
X190468504Y-100306967D01*
X190296530Y-100421876D01*
X190105442Y-100501028D01*
X189941431Y-100533651D01*
X189902585Y-100541378D01*
X189695751Y-100541378D01*
X189656905Y-100533651D01*
X189492894Y-100501028D01*
X189301806Y-100421876D01*
X189129832Y-100306967D01*
X188983579Y-100160714D01*
X188868670Y-99988740D01*
X188789518Y-99797652D01*
X188749168Y-99594794D01*
X188749168Y-99387962D01*
X188750460Y-99381469D01*
X188754195Y-99362691D01*
X188789518Y-99185104D01*
X188868670Y-98994016D01*
X188983579Y-98822042D01*
X189129832Y-98675789D01*
X189301806Y-98560880D01*
X189492894Y-98481728D01*
X189670481Y-98446405D01*
X189695751Y-98441378D01*
X189902585Y-98441378D01*
X189927855Y-98446405D01*
X189927855Y-98446405D01*
G37*
G36*
X108507849Y-96804827D02*
G01*
X108507852Y-96804828D01*
X108507853Y-96804828D01*
X108800029Y-96893459D01*
X108800031Y-96893460D01*
X108800034Y-96893461D01*
X109069299Y-97037386D01*
X109305319Y-97231081D01*
X109499014Y-97467101D01*
X109642940Y-97736368D01*
X109731573Y-98028550D01*
X109754000Y-98256259D01*
X109754000Y-99008542D01*
X109731573Y-99236249D01*
X109731572Y-99236252D01*
X109731572Y-99236253D01*
X109685552Y-99387961D01*
X109642939Y-99528434D01*
X109499014Y-99797699D01*
X109305319Y-100033719D01*
X109069298Y-100227414D01*
X108800033Y-100371339D01*
X108800030Y-100371340D01*
X108800028Y-100371341D01*
X108507852Y-100459972D01*
X108507851Y-100459972D01*
X108507848Y-100459973D01*
X108204000Y-100489899D01*
X107900151Y-100459973D01*
X107900148Y-100459972D01*
X107900147Y-100459972D01*
X107607971Y-100371341D01*
X107607969Y-100371340D01*
X107607966Y-100371339D01*
X107338701Y-100227414D01*
X107102681Y-100033719D01*
X106908986Y-99797698D01*
X106765061Y-99528433D01*
X106720480Y-99381469D01*
X106676428Y-99236252D01*
X106676428Y-99236251D01*
X106676427Y-99236248D01*
X106654000Y-99008541D01*
X106654000Y-98256258D01*
X106676427Y-98028551D01*
X106676428Y-98028547D01*
X106765059Y-97736371D01*
X106765060Y-97736369D01*
X106765061Y-97736366D01*
X106908986Y-97467101D01*
X107102681Y-97231081D01*
X107338702Y-97037386D01*
X107607967Y-96893461D01*
X107607970Y-96893460D01*
X107607972Y-96893459D01*
X107900148Y-96804828D01*
X107900149Y-96804828D01*
X107900152Y-96804827D01*
X108204000Y-96774901D01*
X108507849Y-96804827D01*
X108507849Y-96804827D01*
G37*
G36*
X188069993Y-96773579D02*
G01*
X188247580Y-96808902D01*
X188438668Y-96888054D01*
X188610642Y-97002963D01*
X188756895Y-97149216D01*
X188871804Y-97321190D01*
X188950956Y-97512278D01*
X188991306Y-97715136D01*
X188991306Y-97921968D01*
X188950956Y-98124826D01*
X188871804Y-98315914D01*
X188756895Y-98487888D01*
X188610642Y-98634141D01*
X188438668Y-98749050D01*
X188247580Y-98828202D01*
X188083569Y-98860825D01*
X188044723Y-98868552D01*
X187837889Y-98868552D01*
X187799043Y-98860825D01*
X187635032Y-98828202D01*
X187443944Y-98749050D01*
X187271970Y-98634141D01*
X187125717Y-98487888D01*
X187010808Y-98315914D01*
X186931656Y-98124826D01*
X186891306Y-97921968D01*
X186891306Y-97715136D01*
X186931656Y-97512278D01*
X187010808Y-97321190D01*
X187125717Y-97149216D01*
X187271970Y-97002963D01*
X187443944Y-96888054D01*
X187635032Y-96808902D01*
X187812619Y-96773579D01*
X187837889Y-96768552D01*
X188044723Y-96768552D01*
X188069993Y-96773579D01*
X188069993Y-96773579D01*
G37*
G36*
X129490269Y-96605597D02*
G01*
X129539013Y-96620383D01*
X129583926Y-96644390D01*
X129623299Y-96676701D01*
X129655610Y-96716074D01*
X129679617Y-96760987D01*
X129694403Y-96809731D01*
X129700000Y-96866557D01*
X129700000Y-97933443D01*
X129694403Y-97990269D01*
X129679617Y-98039013D01*
X129655610Y-98083926D01*
X129623299Y-98123299D01*
X129583926Y-98155610D01*
X129539013Y-98179617D01*
X129490269Y-98194403D01*
X129433443Y-98200000D01*
X127766557Y-98200000D01*
X127709731Y-98194403D01*
X127660987Y-98179617D01*
X127616074Y-98155610D01*
X127576701Y-98123299D01*
X127544390Y-98083926D01*
X127520383Y-98039013D01*
X127505597Y-97990269D01*
X127500000Y-97933443D01*
X127500000Y-96866557D01*
X127505597Y-96809731D01*
X127520383Y-96760987D01*
X127544390Y-96716074D01*
X127576701Y-96676701D01*
X127616074Y-96644390D01*
X127660987Y-96620383D01*
X127709731Y-96605597D01*
X127766557Y-96600000D01*
X129433443Y-96600000D01*
X129490269Y-96605597D01*
X129490269Y-96605597D01*
G37*
G36*
X192048767Y-95846044D02*
G01*
X192921963Y-96632274D01*
X191650615Y-98044249D01*
X191308679Y-97736368D01*
X190517321Y-97023826D01*
X189644125Y-96237596D01*
X190915473Y-94825621D01*
X192048767Y-95846044D01*
X192048767Y-95846044D01*
G37*
G36*
X131948963Y-94604196D02*
G01*
X131984021Y-94614831D01*
X132016332Y-94632102D01*
X132044655Y-94655345D01*
X132067898Y-94683668D01*
X132085169Y-94715979D01*
X132095804Y-94751037D01*
X132100000Y-94793641D01*
X132100000Y-95406359D01*
X132095804Y-95448963D01*
X132085169Y-95484021D01*
X132067898Y-95516332D01*
X132064312Y-95520702D01*
X132050698Y-95541076D01*
X132041321Y-95563715D01*
X132036541Y-95587749D01*
X132036541Y-95612253D01*
X132041322Y-95636286D01*
X132050699Y-95658925D01*
X132064312Y-95679298D01*
X132067898Y-95683668D01*
X132085169Y-95715979D01*
X132095804Y-95751037D01*
X132100000Y-95793641D01*
X132100000Y-96406359D01*
X132095804Y-96448963D01*
X132085169Y-96484021D01*
X132067898Y-96516332D01*
X132044655Y-96544655D01*
X132016332Y-96567898D01*
X131984021Y-96585169D01*
X131948963Y-96595804D01*
X131906359Y-96600000D01*
X130343641Y-96600000D01*
X130301037Y-96595804D01*
X130265979Y-96585169D01*
X130233668Y-96567898D01*
X130205345Y-96544655D01*
X130182102Y-96516332D01*
X130164831Y-96484021D01*
X130154196Y-96448963D01*
X130150000Y-96406359D01*
X130150000Y-95793641D01*
X130154196Y-95751037D01*
X130164831Y-95715979D01*
X130182102Y-95683668D01*
X130185688Y-95679298D01*
X130199302Y-95658924D01*
X130208679Y-95636285D01*
X130213459Y-95612251D01*
X130213459Y-95587747D01*
X130208678Y-95563714D01*
X130199301Y-95541075D01*
X130185688Y-95520702D01*
X130182102Y-95516332D01*
X130164831Y-95484021D01*
X130154196Y-95448963D01*
X130150000Y-95406359D01*
X130150000Y-94793641D01*
X130154196Y-94751037D01*
X130164831Y-94715979D01*
X130182102Y-94683668D01*
X130205345Y-94655345D01*
X130233668Y-94632102D01*
X130265979Y-94614831D01*
X130301037Y-94604196D01*
X130343641Y-94600000D01*
X131906359Y-94600000D01*
X131948963Y-94604196D01*
X131948963Y-94604196D01*
G37*
G36*
X167448474Y-92884148D02*
G01*
X167483067Y-92894642D01*
X167522627Y-92915787D01*
X167528566Y-92919756D01*
X167551203Y-92929135D01*
X167575236Y-92933918D01*
X167599740Y-92933920D01*
X167623774Y-92929142D01*
X167646414Y-92919767D01*
X167652361Y-92915794D01*
X167691933Y-92894642D01*
X167726526Y-92884148D01*
X167768641Y-92880000D01*
X168376359Y-92880000D01*
X168418474Y-92884148D01*
X168453067Y-92894642D01*
X168484940Y-92911678D01*
X168512886Y-92934614D01*
X168535822Y-92962560D01*
X168552858Y-92994433D01*
X168563352Y-93029026D01*
X168567500Y-93071141D01*
X168567500Y-93728859D01*
X168563352Y-93770974D01*
X168552858Y-93805567D01*
X168535822Y-93837440D01*
X168512886Y-93865386D01*
X168481827Y-93890877D01*
X168468129Y-93900028D01*
X168450801Y-93917354D01*
X168437186Y-93937728D01*
X168427807Y-93960366D01*
X168423025Y-93984399D01*
X168423023Y-94008903D01*
X168427802Y-94032937D01*
X168437178Y-94055576D01*
X168450790Y-94075951D01*
X168468116Y-94093279D01*
X168488497Y-94106898D01*
X168497440Y-94111678D01*
X168525386Y-94134614D01*
X168548322Y-94162560D01*
X168565358Y-94194433D01*
X168575852Y-94229026D01*
X168580000Y-94271141D01*
X168580000Y-94928859D01*
X168575852Y-94970974D01*
X168565358Y-95005567D01*
X168548322Y-95037440D01*
X168525386Y-95065386D01*
X168497441Y-95088321D01*
X168494749Y-95089760D01*
X168474374Y-95103373D01*
X168457047Y-95120700D01*
X168443433Y-95141074D01*
X168434055Y-95163713D01*
X168429274Y-95187746D01*
X168429274Y-95212250D01*
X168434054Y-95236283D01*
X168443431Y-95258922D01*
X168457044Y-95279297D01*
X168474371Y-95296624D01*
X168494749Y-95310240D01*
X168497441Y-95311679D01*
X168525386Y-95334614D01*
X168548322Y-95362560D01*
X168565358Y-95394433D01*
X168575852Y-95429026D01*
X168580000Y-95471141D01*
X168580000Y-96128859D01*
X168575852Y-96170974D01*
X168565358Y-96205567D01*
X168548322Y-96237440D01*
X168525386Y-96265386D01*
X168497440Y-96288322D01*
X168465567Y-96305358D01*
X168430974Y-96315852D01*
X168388859Y-96320000D01*
X167781141Y-96320000D01*
X167739026Y-96315852D01*
X167704433Y-96305358D01*
X167664873Y-96284213D01*
X167658934Y-96280244D01*
X167636297Y-96270865D01*
X167612264Y-96266082D01*
X167587760Y-96266080D01*
X167563726Y-96270858D01*
X167541086Y-96280233D01*
X167535139Y-96284206D01*
X167495567Y-96305358D01*
X167460974Y-96315852D01*
X167418859Y-96320000D01*
X166811141Y-96320000D01*
X166769026Y-96315852D01*
X166734433Y-96305358D01*
X166702560Y-96288322D01*
X166674614Y-96265386D01*
X166651678Y-96237440D01*
X166634642Y-96205567D01*
X166624148Y-96170974D01*
X166620000Y-96128859D01*
X166620000Y-95471141D01*
X166624148Y-95429026D01*
X166634642Y-95394433D01*
X166651678Y-95362560D01*
X166674614Y-95334614D01*
X166702559Y-95311679D01*
X166705251Y-95310240D01*
X166725626Y-95296627D01*
X166742953Y-95279300D01*
X166756567Y-95258926D01*
X166765945Y-95236287D01*
X166770726Y-95212254D01*
X166770726Y-95187750D01*
X166770726Y-95187746D01*
X167459274Y-95187746D01*
X167459274Y-95212250D01*
X167464054Y-95236283D01*
X167473431Y-95258922D01*
X167487044Y-95279297D01*
X167504371Y-95296624D01*
X167524749Y-95310240D01*
X167535127Y-95315787D01*
X167541066Y-95319756D01*
X167563703Y-95329135D01*
X167587736Y-95333918D01*
X167612240Y-95333920D01*
X167636274Y-95329142D01*
X167658914Y-95319767D01*
X167664861Y-95315794D01*
X167675251Y-95310240D01*
X167695626Y-95296627D01*
X167712953Y-95279300D01*
X167726567Y-95258926D01*
X167735945Y-95236287D01*
X167740726Y-95212254D01*
X167740726Y-95187750D01*
X167735946Y-95163717D01*
X167726569Y-95141078D01*
X167712956Y-95120703D01*
X167695629Y-95103376D01*
X167675251Y-95089760D01*
X167664873Y-95084213D01*
X167658934Y-95080244D01*
X167636297Y-95070865D01*
X167612264Y-95066082D01*
X167587760Y-95066080D01*
X167563726Y-95070858D01*
X167541086Y-95080233D01*
X167535139Y-95084206D01*
X167524749Y-95089760D01*
X167504374Y-95103373D01*
X167487047Y-95120700D01*
X167473433Y-95141074D01*
X167464055Y-95163713D01*
X167459274Y-95187746D01*
X166770726Y-95187746D01*
X166765946Y-95163717D01*
X166756569Y-95141078D01*
X166742956Y-95120703D01*
X166725629Y-95103376D01*
X166705251Y-95089760D01*
X166702559Y-95088321D01*
X166674614Y-95065386D01*
X166651678Y-95037440D01*
X166634642Y-95005567D01*
X166624148Y-94970974D01*
X166620000Y-94928859D01*
X166620000Y-94271141D01*
X166624148Y-94229026D01*
X166634642Y-94194433D01*
X166651678Y-94162560D01*
X166674614Y-94134614D01*
X166705673Y-94109123D01*
X166719371Y-94099972D01*
X166736699Y-94082646D01*
X166750314Y-94062272D01*
X166759693Y-94039634D01*
X166764475Y-94015601D01*
X166764475Y-94008903D01*
X167453023Y-94008903D01*
X167457802Y-94032937D01*
X167467178Y-94055576D01*
X167480790Y-94075951D01*
X167498116Y-94093279D01*
X167518497Y-94106898D01*
X167535127Y-94115787D01*
X167541066Y-94119756D01*
X167563703Y-94129135D01*
X167587736Y-94133918D01*
X167612240Y-94133920D01*
X167636274Y-94129142D01*
X167658914Y-94119767D01*
X167664857Y-94115796D01*
X167668996Y-94113584D01*
X167689371Y-94099972D01*
X167706699Y-94082646D01*
X167720314Y-94062272D01*
X167729693Y-94039634D01*
X167734475Y-94015601D01*
X167734477Y-93991097D01*
X167729698Y-93967063D01*
X167720322Y-93944424D01*
X167706710Y-93924049D01*
X167689384Y-93906721D01*
X167669003Y-93893102D01*
X167652373Y-93884213D01*
X167646434Y-93880244D01*
X167623797Y-93870865D01*
X167599764Y-93866082D01*
X167575260Y-93866080D01*
X167551226Y-93870858D01*
X167528586Y-93880233D01*
X167522643Y-93884204D01*
X167518504Y-93886416D01*
X167498129Y-93900028D01*
X167480801Y-93917354D01*
X167467186Y-93937728D01*
X167457807Y-93960366D01*
X167453025Y-93984399D01*
X167453023Y-94008903D01*
X166764475Y-94008903D01*
X166764477Y-93991097D01*
X166759698Y-93967063D01*
X166750322Y-93944424D01*
X166736710Y-93924049D01*
X166719384Y-93906721D01*
X166699003Y-93893102D01*
X166690060Y-93888322D01*
X166662114Y-93865386D01*
X166639178Y-93837440D01*
X166622142Y-93805567D01*
X166611648Y-93770974D01*
X166607500Y-93728859D01*
X166607500Y-93071141D01*
X166611648Y-93029026D01*
X166622142Y-92994433D01*
X166639178Y-92962560D01*
X166662114Y-92934614D01*
X166690060Y-92911678D01*
X166721933Y-92894642D01*
X166756526Y-92884148D01*
X166798641Y-92880000D01*
X167406359Y-92880000D01*
X167448474Y-92884148D01*
X167448474Y-92884148D01*
G37*
G36*
X182320974Y-94309148D02*
G01*
X182355567Y-94319642D01*
X182387440Y-94336678D01*
X182415386Y-94359614D01*
X182438322Y-94387560D01*
X182455358Y-94419433D01*
X182465852Y-94454026D01*
X182470000Y-94496141D01*
X182470000Y-95103859D01*
X182465852Y-95145974D01*
X182455358Y-95180567D01*
X182434213Y-95220127D01*
X182430244Y-95226066D01*
X182420865Y-95248703D01*
X182416082Y-95272736D01*
X182416080Y-95297240D01*
X182420858Y-95321274D01*
X182430233Y-95343914D01*
X182434206Y-95349861D01*
X182455358Y-95389433D01*
X182465852Y-95424026D01*
X182470000Y-95466141D01*
X182470000Y-96073859D01*
X182465852Y-96115974D01*
X182455358Y-96150567D01*
X182438322Y-96182440D01*
X182415386Y-96210386D01*
X182387440Y-96233322D01*
X182355567Y-96250358D01*
X182320974Y-96260852D01*
X182278859Y-96265000D01*
X181621141Y-96265000D01*
X181579026Y-96260852D01*
X181544433Y-96250358D01*
X181512560Y-96233322D01*
X181484614Y-96210386D01*
X181458226Y-96178234D01*
X181450639Y-96166878D01*
X181433313Y-96149550D01*
X181412940Y-96135935D01*
X181390301Y-96126557D01*
X181366268Y-96121775D01*
X181341764Y-96121773D01*
X181317731Y-96126552D01*
X181295091Y-96135928D01*
X181274716Y-96149541D01*
X181257388Y-96166867D01*
X181243769Y-96187247D01*
X181238319Y-96197444D01*
X181215386Y-96225386D01*
X181187440Y-96248322D01*
X181155567Y-96265358D01*
X181120974Y-96275852D01*
X181078859Y-96280000D01*
X180421141Y-96280000D01*
X180379026Y-96275852D01*
X180344433Y-96265358D01*
X180312560Y-96248322D01*
X180284614Y-96225386D01*
X180261678Y-96197440D01*
X180244642Y-96165567D01*
X180244617Y-96165485D01*
X180235239Y-96142846D01*
X180221626Y-96122471D01*
X180204298Y-96105144D01*
X180183924Y-96091531D01*
X180161285Y-96082153D01*
X180137252Y-96077373D01*
X180112748Y-96077373D01*
X180088715Y-96082153D01*
X180066076Y-96091531D01*
X180045701Y-96105144D01*
X180028374Y-96122472D01*
X180014761Y-96142846D01*
X180005383Y-96165485D01*
X180005358Y-96165567D01*
X179988322Y-96197440D01*
X179965386Y-96225386D01*
X179937440Y-96248322D01*
X179905567Y-96265358D01*
X179870974Y-96275852D01*
X179828859Y-96280000D01*
X179171141Y-96280000D01*
X179129026Y-96275852D01*
X179094433Y-96265358D01*
X179062560Y-96248322D01*
X179034614Y-96225386D01*
X179011678Y-96197440D01*
X178994642Y-96165567D01*
X178994617Y-96165485D01*
X178985239Y-96142846D01*
X178971626Y-96122471D01*
X178954298Y-96105144D01*
X178933924Y-96091531D01*
X178911285Y-96082153D01*
X178887252Y-96077373D01*
X178862748Y-96077373D01*
X178838715Y-96082153D01*
X178816076Y-96091531D01*
X178795701Y-96105144D01*
X178778374Y-96122472D01*
X178764761Y-96142846D01*
X178755383Y-96165485D01*
X178755358Y-96165567D01*
X178738322Y-96197440D01*
X178715386Y-96225386D01*
X178687440Y-96248322D01*
X178655567Y-96265358D01*
X178620974Y-96275852D01*
X178578859Y-96280000D01*
X177921141Y-96280000D01*
X177879026Y-96275852D01*
X177844433Y-96265358D01*
X177812560Y-96248322D01*
X177784614Y-96225386D01*
X177761678Y-96197440D01*
X177744642Y-96165567D01*
X177734148Y-96130974D01*
X177730000Y-96088859D01*
X177730000Y-95481141D01*
X177734148Y-95439026D01*
X177744642Y-95404433D01*
X177765787Y-95364873D01*
X177769756Y-95358934D01*
X177779135Y-95336297D01*
X177783918Y-95312264D01*
X177783918Y-95312240D01*
X178716080Y-95312240D01*
X178720858Y-95336274D01*
X178730233Y-95358914D01*
X178734206Y-95364861D01*
X178755358Y-95404433D01*
X178755383Y-95404515D01*
X178764761Y-95427154D01*
X178778374Y-95447529D01*
X178795702Y-95464856D01*
X178816076Y-95478469D01*
X178838715Y-95487847D01*
X178862748Y-95492627D01*
X178887252Y-95492627D01*
X178911285Y-95487847D01*
X178933924Y-95478469D01*
X178954299Y-95464856D01*
X178971626Y-95447528D01*
X178985239Y-95427154D01*
X178994617Y-95404515D01*
X178994642Y-95404433D01*
X179015787Y-95364873D01*
X179019756Y-95358934D01*
X179029135Y-95336297D01*
X179033918Y-95312264D01*
X179033918Y-95312240D01*
X179966080Y-95312240D01*
X179970858Y-95336274D01*
X179980233Y-95358914D01*
X179984206Y-95364861D01*
X180005358Y-95404433D01*
X180005383Y-95404515D01*
X180014761Y-95427154D01*
X180028374Y-95447529D01*
X180045702Y-95464856D01*
X180066076Y-95478469D01*
X180088715Y-95487847D01*
X180112748Y-95492627D01*
X180137252Y-95492627D01*
X180161285Y-95487847D01*
X180183924Y-95478469D01*
X180204299Y-95464856D01*
X180221626Y-95447528D01*
X180235239Y-95427154D01*
X180244617Y-95404515D01*
X180244642Y-95404433D01*
X180265787Y-95364873D01*
X180269756Y-95358934D01*
X180279135Y-95336297D01*
X180283918Y-95312264D01*
X180283918Y-95312240D01*
X181216080Y-95312240D01*
X181220858Y-95336274D01*
X181230233Y-95358914D01*
X181234201Y-95364853D01*
X181235748Y-95367747D01*
X181249361Y-95388122D01*
X181266687Y-95405450D01*
X181287060Y-95419065D01*
X181309699Y-95428443D01*
X181333732Y-95433225D01*
X181358236Y-95433227D01*
X181382269Y-95428448D01*
X181404909Y-95419072D01*
X181425284Y-95405459D01*
X181442612Y-95388133D01*
X181456231Y-95367753D01*
X181465792Y-95349866D01*
X181469756Y-95343934D01*
X181479135Y-95321297D01*
X181483918Y-95297264D01*
X181483920Y-95272760D01*
X181479142Y-95248726D01*
X181469767Y-95226086D01*
X181465799Y-95220147D01*
X181464252Y-95217253D01*
X181450639Y-95196878D01*
X181433313Y-95179550D01*
X181412940Y-95165935D01*
X181390301Y-95156557D01*
X181366268Y-95151775D01*
X181341764Y-95151773D01*
X181317731Y-95156552D01*
X181295091Y-95165928D01*
X181274716Y-95179541D01*
X181257388Y-95196867D01*
X181243769Y-95217247D01*
X181234208Y-95235134D01*
X181230244Y-95241066D01*
X181220865Y-95263703D01*
X181216082Y-95287736D01*
X181216080Y-95312240D01*
X180283918Y-95312240D01*
X180283920Y-95287760D01*
X180279142Y-95263726D01*
X180269767Y-95241086D01*
X180265794Y-95235139D01*
X180244642Y-95195567D01*
X180244617Y-95195485D01*
X180235239Y-95172846D01*
X180221626Y-95152471D01*
X180204298Y-95135144D01*
X180183924Y-95121531D01*
X180161285Y-95112153D01*
X180137252Y-95107373D01*
X180112748Y-95107373D01*
X180088715Y-95112153D01*
X180066076Y-95121531D01*
X180045701Y-95135144D01*
X180028374Y-95152472D01*
X180014761Y-95172846D01*
X180005383Y-95195485D01*
X180005358Y-95195567D01*
X179984213Y-95235127D01*
X179980244Y-95241066D01*
X179970865Y-95263703D01*
X179966082Y-95287736D01*
X179966080Y-95312240D01*
X179033918Y-95312240D01*
X179033920Y-95287760D01*
X179029142Y-95263726D01*
X179019767Y-95241086D01*
X179015794Y-95235139D01*
X178994642Y-95195567D01*
X178994617Y-95195485D01*
X178985239Y-95172846D01*
X178971626Y-95152471D01*
X178954298Y-95135144D01*
X178933924Y-95121531D01*
X178911285Y-95112153D01*
X178887252Y-95107373D01*
X178862748Y-95107373D01*
X178838715Y-95112153D01*
X178816076Y-95121531D01*
X178795701Y-95135144D01*
X178778374Y-95152472D01*
X178764761Y-95172846D01*
X178755383Y-95195485D01*
X178755358Y-95195567D01*
X178734213Y-95235127D01*
X178730244Y-95241066D01*
X178720865Y-95263703D01*
X178716082Y-95287736D01*
X178716080Y-95312240D01*
X177783918Y-95312240D01*
X177783920Y-95287760D01*
X177779142Y-95263726D01*
X177769767Y-95241086D01*
X177765794Y-95235139D01*
X177744642Y-95195567D01*
X177734148Y-95160974D01*
X177730000Y-95118859D01*
X177730000Y-94511141D01*
X177734148Y-94469026D01*
X177744642Y-94434433D01*
X177761678Y-94402560D01*
X177784614Y-94374614D01*
X177812560Y-94351678D01*
X177844433Y-94334642D01*
X177879026Y-94324148D01*
X177921141Y-94320000D01*
X178578859Y-94320000D01*
X178620974Y-94324148D01*
X178655567Y-94334642D01*
X178687440Y-94351678D01*
X178715386Y-94374614D01*
X178738322Y-94402560D01*
X178755358Y-94434433D01*
X178755383Y-94434515D01*
X178764761Y-94457154D01*
X178778374Y-94477529D01*
X178795702Y-94494856D01*
X178816076Y-94508469D01*
X178838715Y-94517847D01*
X178862748Y-94522627D01*
X178887252Y-94522627D01*
X178911285Y-94517847D01*
X178933924Y-94508469D01*
X178954299Y-94494856D01*
X178971626Y-94477528D01*
X178985239Y-94457154D01*
X178994617Y-94434515D01*
X178994642Y-94434433D01*
X179011678Y-94402560D01*
X179034614Y-94374614D01*
X179062560Y-94351678D01*
X179094433Y-94334642D01*
X179129026Y-94324148D01*
X179171141Y-94320000D01*
X179828859Y-94320000D01*
X179870974Y-94324148D01*
X179905567Y-94334642D01*
X179937440Y-94351678D01*
X179965386Y-94374614D01*
X179988322Y-94402560D01*
X180005358Y-94434433D01*
X180005383Y-94434515D01*
X180014761Y-94457154D01*
X180028374Y-94477529D01*
X180045702Y-94494856D01*
X180066076Y-94508469D01*
X180088715Y-94517847D01*
X180112748Y-94522627D01*
X180137252Y-94522627D01*
X180161285Y-94517847D01*
X180183924Y-94508469D01*
X180204299Y-94494856D01*
X180221626Y-94477528D01*
X180235239Y-94457154D01*
X180244617Y-94434515D01*
X180244642Y-94434433D01*
X180261678Y-94402560D01*
X180284614Y-94374614D01*
X180312560Y-94351678D01*
X180344433Y-94334642D01*
X180379026Y-94324148D01*
X180421141Y-94320000D01*
X181078859Y-94320000D01*
X181120974Y-94324148D01*
X181155567Y-94334642D01*
X181187440Y-94351678D01*
X181215386Y-94374614D01*
X181241774Y-94406766D01*
X181249361Y-94418122D01*
X181266687Y-94435450D01*
X181287060Y-94449065D01*
X181309699Y-94458443D01*
X181333732Y-94463225D01*
X181358236Y-94463227D01*
X181382269Y-94458448D01*
X181404909Y-94449072D01*
X181425284Y-94435459D01*
X181442612Y-94418133D01*
X181456231Y-94397753D01*
X181461681Y-94387556D01*
X181484614Y-94359614D01*
X181512560Y-94336678D01*
X181544433Y-94319642D01*
X181579026Y-94309148D01*
X181621141Y-94305000D01*
X182278859Y-94305000D01*
X182320974Y-94309148D01*
X182320974Y-94309148D01*
G37*
G36*
X176770974Y-94324148D02*
G01*
X176805567Y-94334642D01*
X176837440Y-94351678D01*
X176865386Y-94374614D01*
X176888322Y-94402560D01*
X176905358Y-94434433D01*
X176915852Y-94469026D01*
X176920000Y-94511141D01*
X176920000Y-95118859D01*
X176915852Y-95160974D01*
X176905358Y-95195567D01*
X176884213Y-95235127D01*
X176880244Y-95241066D01*
X176870865Y-95263703D01*
X176866082Y-95287736D01*
X176866080Y-95312240D01*
X176870858Y-95336274D01*
X176880233Y-95358914D01*
X176884206Y-95364861D01*
X176905358Y-95404433D01*
X176915852Y-95439026D01*
X176920000Y-95481141D01*
X176920000Y-96088859D01*
X176915852Y-96130974D01*
X176905358Y-96165567D01*
X176888322Y-96197440D01*
X176865386Y-96225386D01*
X176837440Y-96248322D01*
X176805567Y-96265358D01*
X176770974Y-96275852D01*
X176728859Y-96280000D01*
X176071141Y-96280000D01*
X176029026Y-96275852D01*
X175994433Y-96265358D01*
X175962560Y-96248322D01*
X175934614Y-96225386D01*
X175911678Y-96197440D01*
X175894642Y-96165567D01*
X175884148Y-96130974D01*
X175880000Y-96088859D01*
X175880000Y-95481141D01*
X175884148Y-95439026D01*
X175894642Y-95404433D01*
X175915787Y-95364873D01*
X175919756Y-95358934D01*
X175929135Y-95336297D01*
X175933918Y-95312264D01*
X175933920Y-95287760D01*
X175929142Y-95263726D01*
X175919767Y-95241086D01*
X175915794Y-95235139D01*
X175894642Y-95195567D01*
X175884148Y-95160974D01*
X175880000Y-95118859D01*
X175880000Y-94511141D01*
X175884148Y-94469026D01*
X175894642Y-94434433D01*
X175911678Y-94402560D01*
X175934614Y-94374614D01*
X175962560Y-94351678D01*
X175994433Y-94334642D01*
X176029026Y-94324148D01*
X176071141Y-94320000D01*
X176728859Y-94320000D01*
X176770974Y-94324148D01*
X176770974Y-94324148D01*
G37*
G36*
X174120974Y-94274148D02*
G01*
X174155567Y-94284642D01*
X174187440Y-94301678D01*
X174215386Y-94324614D01*
X174238322Y-94352560D01*
X174255358Y-94384433D01*
X174255383Y-94384515D01*
X174264761Y-94407154D01*
X174278374Y-94427529D01*
X174295702Y-94444856D01*
X174316076Y-94458469D01*
X174338715Y-94467847D01*
X174362748Y-94472627D01*
X174387252Y-94472627D01*
X174411285Y-94467847D01*
X174433924Y-94458469D01*
X174454299Y-94444856D01*
X174471626Y-94427528D01*
X174485239Y-94407154D01*
X174494617Y-94384515D01*
X174494642Y-94384433D01*
X174511678Y-94352560D01*
X174534614Y-94324614D01*
X174562560Y-94301678D01*
X174594433Y-94284642D01*
X174629026Y-94274148D01*
X174671141Y-94270000D01*
X175328859Y-94270000D01*
X175370974Y-94274148D01*
X175405567Y-94284642D01*
X175437440Y-94301678D01*
X175465386Y-94324614D01*
X175488322Y-94352560D01*
X175505358Y-94384433D01*
X175515852Y-94419026D01*
X175520000Y-94461141D01*
X175520000Y-95068859D01*
X175515852Y-95110974D01*
X175505358Y-95145567D01*
X175484213Y-95185127D01*
X175480244Y-95191066D01*
X175470865Y-95213703D01*
X175466082Y-95237736D01*
X175466080Y-95262240D01*
X175470858Y-95286274D01*
X175480233Y-95308914D01*
X175484206Y-95314861D01*
X175505358Y-95354433D01*
X175515852Y-95389026D01*
X175520000Y-95431141D01*
X175520000Y-96038859D01*
X175515852Y-96080974D01*
X175505358Y-96115567D01*
X175488322Y-96147440D01*
X175465386Y-96175386D01*
X175437440Y-96198322D01*
X175405567Y-96215358D01*
X175370974Y-96225852D01*
X175328859Y-96230000D01*
X174671141Y-96230000D01*
X174629026Y-96225852D01*
X174594433Y-96215358D01*
X174562560Y-96198322D01*
X174534614Y-96175386D01*
X174511678Y-96147440D01*
X174494642Y-96115567D01*
X174494617Y-96115485D01*
X174485239Y-96092846D01*
X174471626Y-96072471D01*
X174454298Y-96055144D01*
X174433924Y-96041531D01*
X174411285Y-96032153D01*
X174387252Y-96027373D01*
X174362748Y-96027373D01*
X174338715Y-96032153D01*
X174316076Y-96041531D01*
X174295701Y-96055144D01*
X174278374Y-96072472D01*
X174264761Y-96092846D01*
X174255383Y-96115485D01*
X174255358Y-96115567D01*
X174238322Y-96147440D01*
X174215386Y-96175386D01*
X174187440Y-96198322D01*
X174155567Y-96215358D01*
X174120974Y-96225852D01*
X174078859Y-96230000D01*
X173421141Y-96230000D01*
X173379026Y-96225852D01*
X173344433Y-96215358D01*
X173312560Y-96198322D01*
X173284614Y-96175386D01*
X173261678Y-96147440D01*
X173244642Y-96115567D01*
X173234148Y-96080974D01*
X173230000Y-96038859D01*
X173230000Y-95431141D01*
X173234148Y-95389026D01*
X173244642Y-95354433D01*
X173265787Y-95314873D01*
X173269756Y-95308934D01*
X173279135Y-95286297D01*
X173283918Y-95262264D01*
X173283918Y-95262240D01*
X174216080Y-95262240D01*
X174220858Y-95286274D01*
X174230233Y-95308914D01*
X174234206Y-95314861D01*
X174255358Y-95354433D01*
X174255383Y-95354515D01*
X174264761Y-95377154D01*
X174278374Y-95397529D01*
X174295702Y-95414856D01*
X174316076Y-95428469D01*
X174338715Y-95437847D01*
X174362748Y-95442627D01*
X174387252Y-95442627D01*
X174411285Y-95437847D01*
X174433924Y-95428469D01*
X174454299Y-95414856D01*
X174471626Y-95397528D01*
X174485239Y-95377154D01*
X174494617Y-95354515D01*
X174494642Y-95354433D01*
X174515787Y-95314873D01*
X174519756Y-95308934D01*
X174529135Y-95286297D01*
X174533918Y-95262264D01*
X174533920Y-95237760D01*
X174529142Y-95213726D01*
X174519767Y-95191086D01*
X174515794Y-95185139D01*
X174494642Y-95145567D01*
X174494617Y-95145485D01*
X174485239Y-95122846D01*
X174471626Y-95102471D01*
X174454298Y-95085144D01*
X174433924Y-95071531D01*
X174411285Y-95062153D01*
X174387252Y-95057373D01*
X174362748Y-95057373D01*
X174338715Y-95062153D01*
X174316076Y-95071531D01*
X174295701Y-95085144D01*
X174278374Y-95102472D01*
X174264761Y-95122846D01*
X174255383Y-95145485D01*
X174255358Y-95145567D01*
X174234213Y-95185127D01*
X174230244Y-95191066D01*
X174220865Y-95213703D01*
X174216082Y-95237736D01*
X174216080Y-95262240D01*
X173283918Y-95262240D01*
X173283920Y-95237760D01*
X173279142Y-95213726D01*
X173269767Y-95191086D01*
X173265794Y-95185139D01*
X173244642Y-95145567D01*
X173234148Y-95110974D01*
X173230000Y-95068859D01*
X173230000Y-94461141D01*
X173234148Y-94419026D01*
X173244642Y-94384433D01*
X173261678Y-94352560D01*
X173284614Y-94324614D01*
X173312560Y-94301678D01*
X173344433Y-94284642D01*
X173379026Y-94274148D01*
X173421141Y-94270000D01*
X174078859Y-94270000D01*
X174120974Y-94274148D01*
X174120974Y-94274148D01*
G37*
G36*
X172820974Y-94274148D02*
G01*
X172855567Y-94284642D01*
X172887440Y-94301678D01*
X172915386Y-94324614D01*
X172938322Y-94352560D01*
X172955358Y-94384433D01*
X172965852Y-94419026D01*
X172970000Y-94461141D01*
X172970000Y-95068859D01*
X172965852Y-95110974D01*
X172955358Y-95145567D01*
X172934213Y-95185127D01*
X172930244Y-95191066D01*
X172920865Y-95213703D01*
X172916082Y-95237736D01*
X172916080Y-95262240D01*
X172920858Y-95286274D01*
X172930233Y-95308914D01*
X172934206Y-95314861D01*
X172955358Y-95354433D01*
X172965852Y-95389026D01*
X172970000Y-95431141D01*
X172970000Y-96038859D01*
X172965852Y-96080974D01*
X172955358Y-96115567D01*
X172938322Y-96147440D01*
X172915386Y-96175386D01*
X172887440Y-96198322D01*
X172855567Y-96215358D01*
X172820974Y-96225852D01*
X172778859Y-96230000D01*
X172121141Y-96230000D01*
X172079026Y-96225852D01*
X172044433Y-96215358D01*
X172012560Y-96198322D01*
X171984614Y-96175386D01*
X171961678Y-96147440D01*
X171944642Y-96115567D01*
X171934148Y-96080974D01*
X171930000Y-96038859D01*
X171930000Y-95431141D01*
X171934148Y-95389026D01*
X171944642Y-95354433D01*
X171965787Y-95314873D01*
X171969756Y-95308934D01*
X171979135Y-95286297D01*
X171983918Y-95262264D01*
X171983920Y-95237760D01*
X171979142Y-95213726D01*
X171969767Y-95191086D01*
X171965794Y-95185139D01*
X171944642Y-95145567D01*
X171934148Y-95110974D01*
X171930000Y-95068859D01*
X171930000Y-94461141D01*
X171934148Y-94419026D01*
X171944642Y-94384433D01*
X171961678Y-94352560D01*
X171984614Y-94324614D01*
X172012560Y-94301678D01*
X172044433Y-94284642D01*
X172079026Y-94274148D01*
X172121141Y-94270000D01*
X172778859Y-94270000D01*
X172820974Y-94274148D01*
X172820974Y-94274148D01*
G37*
G36*
X169770974Y-94224148D02*
G01*
X169805567Y-94234642D01*
X169837440Y-94251678D01*
X169865386Y-94274614D01*
X169888322Y-94302560D01*
X169905358Y-94334433D01*
X169915852Y-94369026D01*
X169920000Y-94411141D01*
X169920000Y-95018859D01*
X169915852Y-95060974D01*
X169905358Y-95095567D01*
X169884213Y-95135127D01*
X169880244Y-95141066D01*
X169870865Y-95163703D01*
X169866082Y-95187736D01*
X169866080Y-95212240D01*
X169870858Y-95236274D01*
X169880233Y-95258914D01*
X169884206Y-95264861D01*
X169905358Y-95304433D01*
X169915852Y-95339026D01*
X169920000Y-95381141D01*
X169920000Y-95988859D01*
X169915852Y-96030974D01*
X169905358Y-96065567D01*
X169888322Y-96097440D01*
X169865386Y-96125386D01*
X169837440Y-96148322D01*
X169805567Y-96165358D01*
X169770974Y-96175852D01*
X169728859Y-96180000D01*
X169071141Y-96180000D01*
X169029026Y-96175852D01*
X168994433Y-96165358D01*
X168962560Y-96148322D01*
X168934614Y-96125386D01*
X168911678Y-96097440D01*
X168894642Y-96065567D01*
X168884148Y-96030974D01*
X168880000Y-95988859D01*
X168880000Y-95381141D01*
X168884148Y-95339026D01*
X168894642Y-95304433D01*
X168915787Y-95264873D01*
X168919756Y-95258934D01*
X168929135Y-95236297D01*
X168933918Y-95212264D01*
X168933920Y-95187760D01*
X168929142Y-95163726D01*
X168919767Y-95141086D01*
X168915794Y-95135139D01*
X168894642Y-95095567D01*
X168884148Y-95060974D01*
X168880000Y-95018859D01*
X168880000Y-94411141D01*
X168884148Y-94369026D01*
X168894642Y-94334433D01*
X168911678Y-94302560D01*
X168934614Y-94274614D01*
X168962560Y-94251678D01*
X168994433Y-94234642D01*
X169029026Y-94224148D01*
X169071141Y-94220000D01*
X169728859Y-94220000D01*
X169770974Y-94224148D01*
X169770974Y-94224148D01*
G37*
G36*
X109754000Y-94982400D02*
G01*
X106654000Y-94982400D01*
X106654000Y-91282400D01*
X109754000Y-91282400D01*
X109754000Y-94982400D01*
X109754000Y-94982400D01*
G37*
G36*
X129490269Y-93005597D02*
G01*
X129539013Y-93020383D01*
X129583926Y-93044390D01*
X129623299Y-93076701D01*
X129655610Y-93116074D01*
X129679617Y-93160987D01*
X129694403Y-93209731D01*
X129700000Y-93266557D01*
X129700000Y-94333443D01*
X129694403Y-94390269D01*
X129679617Y-94439013D01*
X129655610Y-94483926D01*
X129623299Y-94523299D01*
X129583926Y-94555610D01*
X129539013Y-94579617D01*
X129490269Y-94594403D01*
X129433443Y-94600000D01*
X127766557Y-94600000D01*
X127709731Y-94594403D01*
X127660987Y-94579617D01*
X127616074Y-94555610D01*
X127576701Y-94523299D01*
X127544390Y-94483926D01*
X127520383Y-94439013D01*
X127505597Y-94390269D01*
X127500000Y-94333443D01*
X127500000Y-93266557D01*
X127505597Y-93209731D01*
X127520383Y-93160987D01*
X127544390Y-93116074D01*
X127576701Y-93076701D01*
X127616074Y-93044390D01*
X127660987Y-93020383D01*
X127709731Y-93005597D01*
X127766557Y-93000000D01*
X129433443Y-93000000D01*
X129490269Y-93005597D01*
X129490269Y-93005597D01*
G37*
G36*
X189890269Y-92715597D02*
G01*
X189939013Y-92730383D01*
X189983926Y-92754390D01*
X190023299Y-92786701D01*
X190055610Y-92826074D01*
X190079617Y-92870987D01*
X190094403Y-92919731D01*
X190100000Y-92976557D01*
X190100000Y-94043443D01*
X190094403Y-94100269D01*
X190079617Y-94149013D01*
X190055610Y-94193926D01*
X190023299Y-94233299D01*
X189983926Y-94265610D01*
X189939013Y-94289617D01*
X189890269Y-94304403D01*
X189833443Y-94310000D01*
X188166557Y-94310000D01*
X188109731Y-94304403D01*
X188060987Y-94289617D01*
X188016074Y-94265610D01*
X187976701Y-94233299D01*
X187944390Y-94193926D01*
X187920383Y-94149013D01*
X187905597Y-94100269D01*
X187900000Y-94043443D01*
X187900000Y-92976557D01*
X187905597Y-92919731D01*
X187920383Y-92870987D01*
X187944390Y-92826074D01*
X187976701Y-92786701D01*
X188016074Y-92754390D01*
X188060987Y-92730383D01*
X188109731Y-92715597D01*
X188166557Y-92710000D01*
X189833443Y-92710000D01*
X189890269Y-92715597D01*
X189890269Y-92715597D01*
G37*
G36*
X181120974Y-91924148D02*
G01*
X181155567Y-91934642D01*
X181187440Y-91951678D01*
X181215386Y-91974614D01*
X181238319Y-92002556D01*
X181243769Y-92012753D01*
X181257383Y-92033127D01*
X181274710Y-92050454D01*
X181295084Y-92064068D01*
X181317723Y-92073445D01*
X181341756Y-92078226D01*
X181366260Y-92078226D01*
X181390294Y-92073446D01*
X181412933Y-92064069D01*
X181433307Y-92050455D01*
X181450634Y-92033128D01*
X181458224Y-92021769D01*
X181484614Y-91989614D01*
X181512560Y-91966678D01*
X181544433Y-91949642D01*
X181579026Y-91939148D01*
X181621141Y-91935000D01*
X182278859Y-91935000D01*
X182320974Y-91939148D01*
X182355567Y-91949642D01*
X182387440Y-91966678D01*
X182415386Y-91989614D01*
X182438322Y-92017560D01*
X182455358Y-92049433D01*
X182465852Y-92084026D01*
X182470000Y-92126141D01*
X182470000Y-92733859D01*
X182465852Y-92775974D01*
X182455358Y-92810567D01*
X182434213Y-92850127D01*
X182430244Y-92856066D01*
X182420865Y-92878703D01*
X182416082Y-92902736D01*
X182416080Y-92927240D01*
X182420858Y-92951274D01*
X182430233Y-92973914D01*
X182434206Y-92979861D01*
X182455358Y-93019433D01*
X182465852Y-93054026D01*
X182470000Y-93096141D01*
X182470000Y-93703859D01*
X182465852Y-93745974D01*
X182455358Y-93780567D01*
X182438322Y-93812440D01*
X182415386Y-93840386D01*
X182387440Y-93863322D01*
X182355567Y-93880358D01*
X182320974Y-93890852D01*
X182278859Y-93895000D01*
X181621141Y-93895000D01*
X181579026Y-93890852D01*
X181544433Y-93880358D01*
X181512560Y-93863322D01*
X181484614Y-93840386D01*
X181461681Y-93812444D01*
X181456231Y-93802247D01*
X181442617Y-93781873D01*
X181425290Y-93764546D01*
X181404916Y-93750932D01*
X181382277Y-93741555D01*
X181358244Y-93736774D01*
X181333740Y-93736774D01*
X181309706Y-93741554D01*
X181287067Y-93750931D01*
X181266693Y-93764545D01*
X181249366Y-93781872D01*
X181241776Y-93793231D01*
X181215386Y-93825386D01*
X181187440Y-93848322D01*
X181155567Y-93865358D01*
X181120974Y-93875852D01*
X181078859Y-93880000D01*
X180421141Y-93880000D01*
X180379026Y-93875852D01*
X180344433Y-93865358D01*
X180312560Y-93848322D01*
X180284614Y-93825386D01*
X180261678Y-93797440D01*
X180244642Y-93765567D01*
X180234148Y-93730974D01*
X180230000Y-93688859D01*
X180230000Y-93081141D01*
X180234148Y-93039026D01*
X180244642Y-93004433D01*
X180265787Y-92964873D01*
X180269756Y-92958934D01*
X180279135Y-92936297D01*
X180283918Y-92912264D01*
X180283918Y-92912240D01*
X181216080Y-92912240D01*
X181220858Y-92936274D01*
X181230233Y-92958914D01*
X181234201Y-92964853D01*
X181243769Y-92982753D01*
X181257383Y-93003127D01*
X181274710Y-93020454D01*
X181295084Y-93034068D01*
X181317723Y-93043445D01*
X181341756Y-93048226D01*
X181366260Y-93048226D01*
X181390294Y-93043446D01*
X181412933Y-93034069D01*
X181433307Y-93020455D01*
X181450634Y-93003128D01*
X181464252Y-92982747D01*
X181465792Y-92979865D01*
X181469756Y-92973934D01*
X181479135Y-92951297D01*
X181483918Y-92927264D01*
X181483920Y-92902760D01*
X181479142Y-92878726D01*
X181469767Y-92856086D01*
X181465799Y-92850147D01*
X181456231Y-92832247D01*
X181442617Y-92811873D01*
X181425290Y-92794546D01*
X181404916Y-92780932D01*
X181382277Y-92771555D01*
X181358244Y-92766774D01*
X181333740Y-92766774D01*
X181309706Y-92771554D01*
X181287067Y-92780931D01*
X181266693Y-92794545D01*
X181249366Y-92811872D01*
X181235748Y-92832253D01*
X181234208Y-92835135D01*
X181230244Y-92841066D01*
X181220865Y-92863703D01*
X181216082Y-92887736D01*
X181216080Y-92912240D01*
X180283918Y-92912240D01*
X180283920Y-92887760D01*
X180279142Y-92863726D01*
X180269767Y-92841086D01*
X180265794Y-92835139D01*
X180244642Y-92795567D01*
X180234148Y-92760974D01*
X180230000Y-92718859D01*
X180230000Y-92111141D01*
X180234148Y-92069026D01*
X180244642Y-92034433D01*
X180261678Y-92002560D01*
X180284614Y-91974614D01*
X180312560Y-91951678D01*
X180344433Y-91934642D01*
X180379026Y-91924148D01*
X180421141Y-91920000D01*
X181078859Y-91920000D01*
X181120974Y-91924148D01*
X181120974Y-91924148D01*
G37*
G36*
X178620974Y-91924148D02*
G01*
X178655567Y-91934642D01*
X178687440Y-91951678D01*
X178715386Y-91974614D01*
X178738321Y-92002559D01*
X178739760Y-92005251D01*
X178753373Y-92025626D01*
X178770700Y-92042953D01*
X178791074Y-92056567D01*
X178813713Y-92065945D01*
X178837746Y-92070726D01*
X178862250Y-92070726D01*
X178886283Y-92065946D01*
X178908922Y-92056569D01*
X178929297Y-92042956D01*
X178946624Y-92025629D01*
X178960240Y-92005251D01*
X178961679Y-92002559D01*
X178984614Y-91974614D01*
X179012560Y-91951678D01*
X179044433Y-91934642D01*
X179079026Y-91924148D01*
X179121141Y-91920000D01*
X179778859Y-91920000D01*
X179820974Y-91924148D01*
X179855567Y-91934642D01*
X179887440Y-91951678D01*
X179915386Y-91974614D01*
X179938322Y-92002560D01*
X179955358Y-92034433D01*
X179965852Y-92069026D01*
X179970000Y-92111141D01*
X179970000Y-92718859D01*
X179965852Y-92760974D01*
X179955358Y-92795567D01*
X179934213Y-92835127D01*
X179930244Y-92841066D01*
X179920865Y-92863703D01*
X179916082Y-92887736D01*
X179916080Y-92912240D01*
X179920858Y-92936274D01*
X179930233Y-92958914D01*
X179934206Y-92964861D01*
X179955358Y-93004433D01*
X179965852Y-93039026D01*
X179970000Y-93081141D01*
X179970000Y-93688859D01*
X179965852Y-93730974D01*
X179955358Y-93765567D01*
X179938322Y-93797440D01*
X179915386Y-93825386D01*
X179887440Y-93848322D01*
X179855567Y-93865358D01*
X179820974Y-93875852D01*
X179778859Y-93880000D01*
X179121141Y-93880000D01*
X179079026Y-93875852D01*
X179044433Y-93865358D01*
X179012560Y-93848322D01*
X178984614Y-93825386D01*
X178961679Y-93797441D01*
X178960240Y-93794749D01*
X178946627Y-93774374D01*
X178929300Y-93757047D01*
X178908926Y-93743433D01*
X178886287Y-93734055D01*
X178862254Y-93729274D01*
X178837750Y-93729274D01*
X178813717Y-93734054D01*
X178791078Y-93743431D01*
X178770703Y-93757044D01*
X178753376Y-93774371D01*
X178739760Y-93794749D01*
X178738321Y-93797441D01*
X178715386Y-93825386D01*
X178687440Y-93848322D01*
X178655567Y-93865358D01*
X178620974Y-93875852D01*
X178578859Y-93880000D01*
X177921141Y-93880000D01*
X177879026Y-93875852D01*
X177844433Y-93865358D01*
X177812560Y-93848322D01*
X177784614Y-93825386D01*
X177761678Y-93797440D01*
X177744642Y-93765567D01*
X177734148Y-93730974D01*
X177730000Y-93688859D01*
X177730000Y-93081141D01*
X177734148Y-93039026D01*
X177744642Y-93004433D01*
X177765787Y-92964873D01*
X177769756Y-92958934D01*
X177779135Y-92936297D01*
X177783918Y-92912264D01*
X177783918Y-92912240D01*
X178716080Y-92912240D01*
X178720858Y-92936274D01*
X178730233Y-92958914D01*
X178734206Y-92964861D01*
X178739760Y-92975251D01*
X178753373Y-92995626D01*
X178770700Y-93012953D01*
X178791074Y-93026567D01*
X178813713Y-93035945D01*
X178837746Y-93040726D01*
X178862250Y-93040726D01*
X178886283Y-93035946D01*
X178908922Y-93026569D01*
X178929297Y-93012956D01*
X178946624Y-92995629D01*
X178960240Y-92975251D01*
X178965787Y-92964873D01*
X178969756Y-92958934D01*
X178979135Y-92936297D01*
X178983918Y-92912264D01*
X178983920Y-92887760D01*
X178979142Y-92863726D01*
X178969767Y-92841086D01*
X178965794Y-92835139D01*
X178960240Y-92824749D01*
X178946627Y-92804374D01*
X178929300Y-92787047D01*
X178908926Y-92773433D01*
X178886287Y-92764055D01*
X178862254Y-92759274D01*
X178837750Y-92759274D01*
X178813717Y-92764054D01*
X178791078Y-92773431D01*
X178770703Y-92787044D01*
X178753376Y-92804371D01*
X178739760Y-92824749D01*
X178734213Y-92835127D01*
X178730244Y-92841066D01*
X178720865Y-92863703D01*
X178716082Y-92887736D01*
X178716080Y-92912240D01*
X177783918Y-92912240D01*
X177783920Y-92887760D01*
X177779142Y-92863726D01*
X177769767Y-92841086D01*
X177765794Y-92835139D01*
X177744642Y-92795567D01*
X177734148Y-92760974D01*
X177730000Y-92718859D01*
X177730000Y-92111141D01*
X177734148Y-92069026D01*
X177744642Y-92034433D01*
X177761678Y-92002560D01*
X177784614Y-91974614D01*
X177812560Y-91951678D01*
X177844433Y-91934642D01*
X177879026Y-91924148D01*
X177921141Y-91920000D01*
X178578859Y-91920000D01*
X178620974Y-91924148D01*
X178620974Y-91924148D01*
G37*
G36*
X174070974Y-91874148D02*
G01*
X174105567Y-91884642D01*
X174137440Y-91901678D01*
X174165386Y-91924614D01*
X174188322Y-91952560D01*
X174205358Y-91984433D01*
X174215852Y-92019026D01*
X174220000Y-92061141D01*
X174220000Y-92668859D01*
X174215852Y-92710974D01*
X174205358Y-92745567D01*
X174184213Y-92785127D01*
X174180244Y-92791066D01*
X174170865Y-92813703D01*
X174166082Y-92837736D01*
X174166080Y-92862240D01*
X174170858Y-92886274D01*
X174180233Y-92908914D01*
X174184206Y-92914861D01*
X174205358Y-92954433D01*
X174215852Y-92989026D01*
X174220000Y-93031141D01*
X174220000Y-93638859D01*
X174215852Y-93680974D01*
X174205358Y-93715567D01*
X174188322Y-93747440D01*
X174165386Y-93775386D01*
X174137440Y-93798322D01*
X174105567Y-93815358D01*
X174070974Y-93825852D01*
X174028859Y-93830000D01*
X173371141Y-93830000D01*
X173329026Y-93825852D01*
X173294433Y-93815358D01*
X173262560Y-93798322D01*
X173234614Y-93775386D01*
X173211678Y-93747440D01*
X173191503Y-93709695D01*
X173177890Y-93689320D01*
X173160562Y-93671993D01*
X173140188Y-93658380D01*
X173117549Y-93649002D01*
X173093516Y-93644222D01*
X173069012Y-93644222D01*
X173044979Y-93649002D01*
X173022340Y-93658380D01*
X173001965Y-93671993D01*
X172984638Y-93689321D01*
X172971025Y-93709695D01*
X172961647Y-93732335D01*
X172955358Y-93753067D01*
X172938322Y-93784940D01*
X172915386Y-93812886D01*
X172887440Y-93835822D01*
X172855567Y-93852858D01*
X172820974Y-93863352D01*
X172778859Y-93867500D01*
X172121141Y-93867500D01*
X172079026Y-93863352D01*
X172044433Y-93852858D01*
X172012560Y-93835822D01*
X171984614Y-93812886D01*
X171961678Y-93784940D01*
X171944642Y-93753067D01*
X171934148Y-93718474D01*
X171930000Y-93676359D01*
X171930000Y-93068641D01*
X171934148Y-93026526D01*
X171944642Y-92991933D01*
X171965787Y-92952373D01*
X171969756Y-92946434D01*
X171979135Y-92923797D01*
X171983918Y-92899764D01*
X171983918Y-92899740D01*
X172916080Y-92899740D01*
X172920858Y-92923774D01*
X172930233Y-92946414D01*
X172934206Y-92952361D01*
X172958497Y-92997805D01*
X172972110Y-93018180D01*
X172989438Y-93035507D01*
X173009812Y-93049120D01*
X173032451Y-93058498D01*
X173056484Y-93063278D01*
X173080988Y-93063278D01*
X173105021Y-93058498D01*
X173127660Y-93049120D01*
X173148035Y-93035507D01*
X173165362Y-93018179D01*
X173178975Y-92997805D01*
X173188353Y-92975165D01*
X173194642Y-92954433D01*
X173215787Y-92914873D01*
X173219756Y-92908934D01*
X173229135Y-92886297D01*
X173233918Y-92862264D01*
X173233920Y-92837760D01*
X173229142Y-92813726D01*
X173219767Y-92791086D01*
X173215794Y-92785139D01*
X173191503Y-92739695D01*
X173177890Y-92719320D01*
X173160562Y-92701993D01*
X173140188Y-92688380D01*
X173117549Y-92679002D01*
X173093516Y-92674222D01*
X173069012Y-92674222D01*
X173044979Y-92679002D01*
X173022340Y-92688380D01*
X173001965Y-92701993D01*
X172984638Y-92719321D01*
X172971025Y-92739695D01*
X172961647Y-92762335D01*
X172955358Y-92783067D01*
X172934213Y-92822627D01*
X172930244Y-92828566D01*
X172920865Y-92851203D01*
X172916082Y-92875236D01*
X172916080Y-92899740D01*
X171983918Y-92899740D01*
X171983920Y-92875260D01*
X171979142Y-92851226D01*
X171969767Y-92828586D01*
X171965794Y-92822639D01*
X171944642Y-92783067D01*
X171934148Y-92748474D01*
X171930000Y-92706359D01*
X171930000Y-92098641D01*
X171934148Y-92056526D01*
X171944642Y-92021933D01*
X171961678Y-91990060D01*
X171984614Y-91962114D01*
X172012560Y-91939178D01*
X172044433Y-91922142D01*
X172079026Y-91911648D01*
X172121141Y-91907500D01*
X172778859Y-91907500D01*
X172820974Y-91911648D01*
X172855567Y-91922142D01*
X172887440Y-91939178D01*
X172915386Y-91962114D01*
X172938322Y-91990060D01*
X172958497Y-92027805D01*
X172972110Y-92048180D01*
X172989438Y-92065507D01*
X173009812Y-92079120D01*
X173032451Y-92088498D01*
X173056484Y-92093278D01*
X173080988Y-92093278D01*
X173105021Y-92088498D01*
X173127660Y-92079120D01*
X173148035Y-92065507D01*
X173165362Y-92048179D01*
X173178975Y-92027805D01*
X173188353Y-92005165D01*
X173194642Y-91984433D01*
X173211678Y-91952560D01*
X173234614Y-91924614D01*
X173262560Y-91901678D01*
X173294433Y-91884642D01*
X173329026Y-91874148D01*
X173371141Y-91870000D01*
X174028859Y-91870000D01*
X174070974Y-91874148D01*
X174070974Y-91874148D01*
G37*
G36*
X176820974Y-91886648D02*
G01*
X176855567Y-91897142D01*
X176887440Y-91914178D01*
X176915386Y-91937114D01*
X176938322Y-91965060D01*
X176955358Y-91996933D01*
X176965852Y-92031526D01*
X176970000Y-92073641D01*
X176970000Y-92681359D01*
X176965852Y-92723474D01*
X176955358Y-92758067D01*
X176934213Y-92797627D01*
X176930244Y-92803566D01*
X176920865Y-92826203D01*
X176916082Y-92850236D01*
X176916080Y-92874740D01*
X176920858Y-92898774D01*
X176930233Y-92921414D01*
X176934206Y-92927361D01*
X176955358Y-92966933D01*
X176965852Y-93001526D01*
X176970000Y-93043641D01*
X176970000Y-93651359D01*
X176965852Y-93693474D01*
X176955358Y-93728067D01*
X176938322Y-93759940D01*
X176915386Y-93787886D01*
X176887440Y-93810822D01*
X176855567Y-93827858D01*
X176820974Y-93838352D01*
X176778859Y-93842500D01*
X176121141Y-93842500D01*
X176079026Y-93838352D01*
X176044433Y-93827858D01*
X176012560Y-93810822D01*
X175984614Y-93787886D01*
X175961678Y-93759940D01*
X175944642Y-93728067D01*
X175934148Y-93693474D01*
X175930000Y-93651359D01*
X175930000Y-93043641D01*
X175934148Y-93001526D01*
X175944642Y-92966933D01*
X175965787Y-92927373D01*
X175969756Y-92921434D01*
X175979135Y-92898797D01*
X175983918Y-92874764D01*
X175983920Y-92850260D01*
X175979142Y-92826226D01*
X175969767Y-92803586D01*
X175965794Y-92797639D01*
X175944642Y-92758067D01*
X175934148Y-92723474D01*
X175930000Y-92681359D01*
X175930000Y-92073641D01*
X175934148Y-92031526D01*
X175944642Y-91996933D01*
X175961678Y-91965060D01*
X175984614Y-91937114D01*
X176012560Y-91914178D01*
X176044433Y-91897142D01*
X176079026Y-91886648D01*
X176121141Y-91882500D01*
X176778859Y-91882500D01*
X176820974Y-91886648D01*
X176820974Y-91886648D01*
G37*
G36*
X175370974Y-91874148D02*
G01*
X175405567Y-91884642D01*
X175437440Y-91901678D01*
X175465386Y-91924614D01*
X175488322Y-91952560D01*
X175505358Y-91984433D01*
X175515852Y-92019026D01*
X175520000Y-92061141D01*
X175520000Y-92668859D01*
X175515852Y-92710974D01*
X175505358Y-92745567D01*
X175484213Y-92785127D01*
X175480244Y-92791066D01*
X175470865Y-92813703D01*
X175466082Y-92837736D01*
X175466080Y-92862240D01*
X175470858Y-92886274D01*
X175480233Y-92908914D01*
X175484206Y-92914861D01*
X175505358Y-92954433D01*
X175515852Y-92989026D01*
X175520000Y-93031141D01*
X175520000Y-93638859D01*
X175515852Y-93680974D01*
X175505358Y-93715567D01*
X175488322Y-93747440D01*
X175465386Y-93775386D01*
X175437440Y-93798322D01*
X175405567Y-93815358D01*
X175370974Y-93825852D01*
X175328859Y-93830000D01*
X174671141Y-93830000D01*
X174629026Y-93825852D01*
X174594433Y-93815358D01*
X174562560Y-93798322D01*
X174534614Y-93775386D01*
X174511678Y-93747440D01*
X174494642Y-93715567D01*
X174484148Y-93680974D01*
X174480000Y-93638859D01*
X174480000Y-93031141D01*
X174484148Y-92989026D01*
X174494642Y-92954433D01*
X174515787Y-92914873D01*
X174519756Y-92908934D01*
X174529135Y-92886297D01*
X174533918Y-92862264D01*
X174533920Y-92837760D01*
X174529142Y-92813726D01*
X174519767Y-92791086D01*
X174515794Y-92785139D01*
X174494642Y-92745567D01*
X174484148Y-92710974D01*
X174480000Y-92668859D01*
X174480000Y-92061141D01*
X174484148Y-92019026D01*
X174494642Y-91984433D01*
X174511678Y-91952560D01*
X174534614Y-91924614D01*
X174562560Y-91901678D01*
X174594433Y-91884642D01*
X174629026Y-91874148D01*
X174671141Y-91870000D01*
X175328859Y-91870000D01*
X175370974Y-91874148D01*
X175370974Y-91874148D01*
G37*
G36*
X123273963Y-90879196D02*
G01*
X123309021Y-90889831D01*
X123341332Y-90907102D01*
X123369655Y-90930345D01*
X123392898Y-90958668D01*
X123410169Y-90990979D01*
X123420804Y-91026037D01*
X123425000Y-91068641D01*
X123425000Y-93131359D01*
X123420804Y-93173963D01*
X123410169Y-93209021D01*
X123392898Y-93241332D01*
X123369655Y-93269655D01*
X123341332Y-93292898D01*
X123309021Y-93310169D01*
X123273963Y-93320804D01*
X123231359Y-93325000D01*
X122618641Y-93325000D01*
X122576037Y-93320804D01*
X122540979Y-93310169D01*
X122508668Y-93292898D01*
X122480345Y-93269655D01*
X122457102Y-93241332D01*
X122439831Y-93209021D01*
X122429196Y-93173963D01*
X122425000Y-93131359D01*
X122425000Y-91068641D01*
X122429196Y-91026037D01*
X122439831Y-90990979D01*
X122457102Y-90958668D01*
X122480345Y-90930345D01*
X122508668Y-90907102D01*
X122540979Y-90889831D01*
X122576037Y-90879196D01*
X122618641Y-90875000D01*
X123231359Y-90875000D01*
X123273963Y-90879196D01*
X123273963Y-90879196D01*
G37*
G36*
X115653963Y-90879196D02*
G01*
X115689021Y-90889831D01*
X115721332Y-90907102D01*
X115749655Y-90930345D01*
X115772898Y-90958668D01*
X115790169Y-90990979D01*
X115800804Y-91026037D01*
X115805000Y-91068641D01*
X115805000Y-93131359D01*
X115800804Y-93173963D01*
X115790169Y-93209021D01*
X115772898Y-93241332D01*
X115749655Y-93269655D01*
X115721332Y-93292898D01*
X115689021Y-93310169D01*
X115653963Y-93320804D01*
X115611359Y-93325000D01*
X114998641Y-93325000D01*
X114956037Y-93320804D01*
X114920979Y-93310169D01*
X114888668Y-93292898D01*
X114860345Y-93269655D01*
X114837102Y-93241332D01*
X114819831Y-93209021D01*
X114809196Y-93173963D01*
X114805000Y-93131359D01*
X114805000Y-91068641D01*
X114809196Y-91026037D01*
X114819831Y-90990979D01*
X114837102Y-90958668D01*
X114860345Y-90930345D01*
X114888668Y-90907102D01*
X114920979Y-90889831D01*
X114956037Y-90879196D01*
X114998641Y-90875000D01*
X115611359Y-90875000D01*
X115653963Y-90879196D01*
X115653963Y-90879196D01*
G37*
G36*
X116923963Y-90879196D02*
G01*
X116959021Y-90889831D01*
X116991332Y-90907102D01*
X117019655Y-90930345D01*
X117042898Y-90958668D01*
X117060169Y-90990979D01*
X117070804Y-91026037D01*
X117075000Y-91068641D01*
X117075000Y-93131359D01*
X117070804Y-93173963D01*
X117060169Y-93209021D01*
X117042898Y-93241332D01*
X117019655Y-93269655D01*
X116991332Y-93292898D01*
X116959021Y-93310169D01*
X116923963Y-93320804D01*
X116881359Y-93325000D01*
X116268641Y-93325000D01*
X116226037Y-93320804D01*
X116190979Y-93310169D01*
X116158668Y-93292898D01*
X116130345Y-93269655D01*
X116107102Y-93241332D01*
X116089831Y-93209021D01*
X116079196Y-93173963D01*
X116075000Y-93131359D01*
X116075000Y-91068641D01*
X116079196Y-91026037D01*
X116089831Y-90990979D01*
X116107102Y-90958668D01*
X116130345Y-90930345D01*
X116158668Y-90907102D01*
X116190979Y-90889831D01*
X116226037Y-90879196D01*
X116268641Y-90875000D01*
X116881359Y-90875000D01*
X116923963Y-90879196D01*
X116923963Y-90879196D01*
G37*
G36*
X118193963Y-90879196D02*
G01*
X118229021Y-90889831D01*
X118261332Y-90907102D01*
X118289655Y-90930345D01*
X118312898Y-90958668D01*
X118330169Y-90990979D01*
X118340804Y-91026037D01*
X118345000Y-91068641D01*
X118345000Y-93131359D01*
X118340804Y-93173963D01*
X118330169Y-93209021D01*
X118312898Y-93241332D01*
X118289655Y-93269655D01*
X118261332Y-93292898D01*
X118229021Y-93310169D01*
X118193963Y-93320804D01*
X118151359Y-93325000D01*
X117538641Y-93325000D01*
X117496037Y-93320804D01*
X117460979Y-93310169D01*
X117428668Y-93292898D01*
X117400345Y-93269655D01*
X117377102Y-93241332D01*
X117359831Y-93209021D01*
X117349196Y-93173963D01*
X117345000Y-93131359D01*
X117345000Y-91068641D01*
X117349196Y-91026037D01*
X117359831Y-90990979D01*
X117377102Y-90958668D01*
X117400345Y-90930345D01*
X117428668Y-90907102D01*
X117460979Y-90889831D01*
X117496037Y-90879196D01*
X117538641Y-90875000D01*
X118151359Y-90875000D01*
X118193963Y-90879196D01*
X118193963Y-90879196D01*
G37*
G36*
X124543963Y-90879196D02*
G01*
X124579021Y-90889831D01*
X124611332Y-90907102D01*
X124639655Y-90930345D01*
X124662898Y-90958668D01*
X124680169Y-90990979D01*
X124690804Y-91026037D01*
X124695000Y-91068641D01*
X124695000Y-93131359D01*
X124690804Y-93173963D01*
X124680169Y-93209021D01*
X124662898Y-93241332D01*
X124639655Y-93269655D01*
X124611332Y-93292898D01*
X124579021Y-93310169D01*
X124543963Y-93320804D01*
X124501359Y-93325000D01*
X123888641Y-93325000D01*
X123846037Y-93320804D01*
X123810979Y-93310169D01*
X123778668Y-93292898D01*
X123750345Y-93269655D01*
X123727102Y-93241332D01*
X123709831Y-93209021D01*
X123699196Y-93173963D01*
X123695000Y-93131359D01*
X123695000Y-91068641D01*
X123699196Y-91026037D01*
X123709831Y-90990979D01*
X123727102Y-90958668D01*
X123750345Y-90930345D01*
X123778668Y-90907102D01*
X123810979Y-90889831D01*
X123846037Y-90879196D01*
X123888641Y-90875000D01*
X124501359Y-90875000D01*
X124543963Y-90879196D01*
X124543963Y-90879196D01*
G37*
G36*
X122003963Y-90879196D02*
G01*
X122039021Y-90889831D01*
X122071332Y-90907102D01*
X122099655Y-90930345D01*
X122122898Y-90958668D01*
X122140169Y-90990979D01*
X122150804Y-91026037D01*
X122155000Y-91068641D01*
X122155000Y-93131359D01*
X122150804Y-93173963D01*
X122140169Y-93209021D01*
X122122898Y-93241332D01*
X122099655Y-93269655D01*
X122071332Y-93292898D01*
X122039021Y-93310169D01*
X122003963Y-93320804D01*
X121961359Y-93325000D01*
X121348641Y-93325000D01*
X121306037Y-93320804D01*
X121270979Y-93310169D01*
X121238668Y-93292898D01*
X121210345Y-93269655D01*
X121187102Y-93241332D01*
X121169831Y-93209021D01*
X121159196Y-93173963D01*
X121155000Y-93131359D01*
X121155000Y-91068641D01*
X121159196Y-91026037D01*
X121169831Y-90990979D01*
X121187102Y-90958668D01*
X121210345Y-90930345D01*
X121238668Y-90907102D01*
X121270979Y-90889831D01*
X121306037Y-90879196D01*
X121348641Y-90875000D01*
X121961359Y-90875000D01*
X122003963Y-90879196D01*
X122003963Y-90879196D01*
G37*
G36*
X120733963Y-90879196D02*
G01*
X120769021Y-90889831D01*
X120801332Y-90907102D01*
X120829655Y-90930345D01*
X120852898Y-90958668D01*
X120870169Y-90990979D01*
X120880804Y-91026037D01*
X120885000Y-91068641D01*
X120885000Y-93131359D01*
X120880804Y-93173963D01*
X120870169Y-93209021D01*
X120852898Y-93241332D01*
X120829655Y-93269655D01*
X120801332Y-93292898D01*
X120769021Y-93310169D01*
X120733963Y-93320804D01*
X120691359Y-93325000D01*
X120078641Y-93325000D01*
X120036037Y-93320804D01*
X120000979Y-93310169D01*
X119968668Y-93292898D01*
X119940345Y-93269655D01*
X119917102Y-93241332D01*
X119899831Y-93209021D01*
X119889196Y-93173963D01*
X119885000Y-93131359D01*
X119885000Y-91068641D01*
X119889196Y-91026037D01*
X119899831Y-90990979D01*
X119917102Y-90958668D01*
X119940345Y-90930345D01*
X119968668Y-90907102D01*
X120000979Y-90889831D01*
X120036037Y-90879196D01*
X120078641Y-90875000D01*
X120691359Y-90875000D01*
X120733963Y-90879196D01*
X120733963Y-90879196D01*
G37*
G36*
X119463963Y-90879196D02*
G01*
X119499021Y-90889831D01*
X119531332Y-90907102D01*
X119559655Y-90930345D01*
X119582898Y-90958668D01*
X119600169Y-90990979D01*
X119610804Y-91026037D01*
X119615000Y-91068641D01*
X119615000Y-93131359D01*
X119610804Y-93173963D01*
X119600169Y-93209021D01*
X119582898Y-93241332D01*
X119559655Y-93269655D01*
X119531332Y-93292898D01*
X119499021Y-93310169D01*
X119463963Y-93320804D01*
X119421359Y-93325000D01*
X118808641Y-93325000D01*
X118766037Y-93320804D01*
X118730979Y-93310169D01*
X118698668Y-93292898D01*
X118670345Y-93269655D01*
X118647102Y-93241332D01*
X118629831Y-93209021D01*
X118619196Y-93173963D01*
X118615000Y-93131359D01*
X118615000Y-91068641D01*
X118619196Y-91026037D01*
X118629831Y-90990979D01*
X118647102Y-90958668D01*
X118670345Y-90930345D01*
X118698668Y-90907102D01*
X118730979Y-90889831D01*
X118766037Y-90879196D01*
X118808641Y-90875000D01*
X119421359Y-90875000D01*
X119463963Y-90879196D01*
X119463963Y-90879196D01*
G37*
G36*
X192348963Y-88714196D02*
G01*
X192384021Y-88724831D01*
X192416332Y-88742102D01*
X192444655Y-88765345D01*
X192467898Y-88793668D01*
X192485169Y-88825979D01*
X192495804Y-88861037D01*
X192500000Y-88903641D01*
X192500000Y-89516359D01*
X192495804Y-89558963D01*
X192485169Y-89594021D01*
X192467898Y-89626332D01*
X192464312Y-89630702D01*
X192450698Y-89651076D01*
X192441321Y-89673715D01*
X192436541Y-89697749D01*
X192436541Y-89722253D01*
X192441322Y-89746286D01*
X192450699Y-89768925D01*
X192464312Y-89789298D01*
X192467898Y-89793668D01*
X192485169Y-89825979D01*
X192495804Y-89861037D01*
X192500000Y-89903641D01*
X192500000Y-90516359D01*
X192495804Y-90558963D01*
X192485169Y-90594021D01*
X192467898Y-90626332D01*
X192464312Y-90630702D01*
X192450698Y-90651076D01*
X192441321Y-90673715D01*
X192436541Y-90697749D01*
X192436541Y-90722253D01*
X192441322Y-90746286D01*
X192450699Y-90768925D01*
X192464312Y-90789298D01*
X192467898Y-90793668D01*
X192485169Y-90825979D01*
X192495804Y-90861037D01*
X192500000Y-90903641D01*
X192500000Y-91516359D01*
X192495804Y-91558963D01*
X192485169Y-91594021D01*
X192467898Y-91626332D01*
X192464312Y-91630702D01*
X192450698Y-91651076D01*
X192441321Y-91673715D01*
X192436541Y-91697749D01*
X192436541Y-91722253D01*
X192441322Y-91746286D01*
X192450699Y-91768925D01*
X192464312Y-91789298D01*
X192467898Y-91793668D01*
X192485169Y-91825979D01*
X192495804Y-91861037D01*
X192500000Y-91903641D01*
X192500000Y-92516359D01*
X192495804Y-92558963D01*
X192485169Y-92594021D01*
X192467898Y-92626332D01*
X192444655Y-92654655D01*
X192416332Y-92677898D01*
X192384021Y-92695169D01*
X192348963Y-92705804D01*
X192306359Y-92710000D01*
X190743641Y-92710000D01*
X190701037Y-92705804D01*
X190665979Y-92695169D01*
X190633668Y-92677898D01*
X190605345Y-92654655D01*
X190582102Y-92626332D01*
X190564831Y-92594021D01*
X190554196Y-92558963D01*
X190550000Y-92516359D01*
X190550000Y-91903641D01*
X190554196Y-91861037D01*
X190564831Y-91825979D01*
X190582102Y-91793668D01*
X190585688Y-91789298D01*
X190599302Y-91768924D01*
X190608679Y-91746285D01*
X190613459Y-91722251D01*
X190613459Y-91697747D01*
X190608678Y-91673714D01*
X190599301Y-91651075D01*
X190585688Y-91630702D01*
X190582102Y-91626332D01*
X190564831Y-91594021D01*
X190554196Y-91558963D01*
X190550000Y-91516359D01*
X190550000Y-90903641D01*
X190554196Y-90861037D01*
X190564831Y-90825979D01*
X190582102Y-90793668D01*
X190585688Y-90789298D01*
X190599302Y-90768924D01*
X190608679Y-90746285D01*
X190613459Y-90722251D01*
X190613459Y-90697747D01*
X190608678Y-90673714D01*
X190599301Y-90651075D01*
X190585688Y-90630702D01*
X190582102Y-90626332D01*
X190564831Y-90594021D01*
X190554196Y-90558963D01*
X190550000Y-90516359D01*
X190550000Y-89903641D01*
X190554196Y-89861037D01*
X190564831Y-89825979D01*
X190582102Y-89793668D01*
X190585688Y-89789298D01*
X190599302Y-89768924D01*
X190608679Y-89746285D01*
X190613459Y-89722251D01*
X190613459Y-89697747D01*
X190608678Y-89673714D01*
X190599301Y-89651075D01*
X190585688Y-89630702D01*
X190582102Y-89626332D01*
X190564831Y-89594021D01*
X190554196Y-89558963D01*
X190550000Y-89516359D01*
X190550000Y-88903641D01*
X190554196Y-88861037D01*
X190564831Y-88825979D01*
X190582102Y-88793668D01*
X190605345Y-88765345D01*
X190633668Y-88742102D01*
X190665979Y-88724831D01*
X190701037Y-88714196D01*
X190743641Y-88710000D01*
X192306359Y-88710000D01*
X192348963Y-88714196D01*
X192348963Y-88714196D01*
G37*
G36*
X167448474Y-91484148D02*
G01*
X167483067Y-91494642D01*
X167522627Y-91515787D01*
X167528566Y-91519756D01*
X167551203Y-91529135D01*
X167575236Y-91533918D01*
X167599740Y-91533920D01*
X167623774Y-91529142D01*
X167646414Y-91519767D01*
X167652361Y-91515794D01*
X167691933Y-91494642D01*
X167726526Y-91484148D01*
X167768641Y-91480000D01*
X168376359Y-91480000D01*
X168418474Y-91484148D01*
X168453067Y-91494642D01*
X168484940Y-91511678D01*
X168512886Y-91534614D01*
X168535822Y-91562560D01*
X168552858Y-91594433D01*
X168563352Y-91629026D01*
X168567500Y-91671141D01*
X168567500Y-92328859D01*
X168563352Y-92370974D01*
X168552858Y-92405567D01*
X168535822Y-92437440D01*
X168512886Y-92465386D01*
X168484940Y-92488322D01*
X168453067Y-92505358D01*
X168418474Y-92515852D01*
X168376359Y-92520000D01*
X167768641Y-92520000D01*
X167726526Y-92515852D01*
X167691933Y-92505358D01*
X167652373Y-92484213D01*
X167646434Y-92480244D01*
X167623797Y-92470865D01*
X167599764Y-92466082D01*
X167575260Y-92466080D01*
X167551226Y-92470858D01*
X167528586Y-92480233D01*
X167522639Y-92484206D01*
X167483067Y-92505358D01*
X167448474Y-92515852D01*
X167406359Y-92520000D01*
X166798641Y-92520000D01*
X166756526Y-92515852D01*
X166721933Y-92505358D01*
X166690060Y-92488322D01*
X166662114Y-92465386D01*
X166639178Y-92437440D01*
X166622142Y-92405567D01*
X166611648Y-92370974D01*
X166607500Y-92328859D01*
X166607500Y-91671141D01*
X166611648Y-91629026D01*
X166622142Y-91594433D01*
X166639178Y-91562560D01*
X166662114Y-91534614D01*
X166690060Y-91511678D01*
X166721933Y-91494642D01*
X166756526Y-91484148D01*
X166798641Y-91480000D01*
X167406359Y-91480000D01*
X167448474Y-91484148D01*
X167448474Y-91484148D01*
G37*
G36*
X169825000Y-91100000D02*
G01*
X167775000Y-91100000D01*
X167775000Y-84100000D01*
X169825000Y-84100000D01*
X169825000Y-91100000D01*
X169825000Y-91100000D01*
G37*
G36*
X167275000Y-91000000D02*
G01*
X165225000Y-91000000D01*
X165225000Y-84000000D01*
X167275000Y-84000000D01*
X167275000Y-91000000D01*
X167275000Y-91000000D01*
G37*
G36*
X181092500Y-90600000D02*
G01*
X173407500Y-90600000D01*
X173407500Y-89100000D01*
X181092500Y-89100000D01*
X181092500Y-90600000D01*
X181092500Y-90600000D01*
G37*
G36*
X186000000Y-89300000D02*
G01*
X184400000Y-89300000D01*
X184400000Y-88000000D01*
X186000000Y-88000000D01*
X186000000Y-89300000D01*
X186000000Y-89300000D01*
G37*
G36*
X183550000Y-89300000D02*
G01*
X181950000Y-89300000D01*
X181950000Y-88000000D01*
X183550000Y-88000000D01*
X183550000Y-89300000D01*
X183550000Y-89300000D01*
G37*
G36*
X171075974Y-86784148D02*
G01*
X171110567Y-86794642D01*
X171150127Y-86815787D01*
X171156066Y-86819756D01*
X171178703Y-86829135D01*
X171202736Y-86833918D01*
X171227240Y-86833920D01*
X171251274Y-86829142D01*
X171273914Y-86819767D01*
X171279861Y-86815794D01*
X171319433Y-86794642D01*
X171354026Y-86784148D01*
X171396141Y-86780000D01*
X172003859Y-86780000D01*
X172045974Y-86784148D01*
X172080567Y-86794642D01*
X172112440Y-86811678D01*
X172140386Y-86834614D01*
X172163322Y-86862560D01*
X172180358Y-86894433D01*
X172190852Y-86929026D01*
X172195000Y-86971141D01*
X172195000Y-87628859D01*
X172190852Y-87670974D01*
X172180358Y-87705567D01*
X172163322Y-87737440D01*
X172140386Y-87765386D01*
X172112441Y-87788321D01*
X172109749Y-87789760D01*
X172089374Y-87803373D01*
X172072047Y-87820700D01*
X172058433Y-87841074D01*
X172049055Y-87863713D01*
X172044274Y-87887746D01*
X172044274Y-87912250D01*
X172049054Y-87936283D01*
X172058431Y-87958922D01*
X172072044Y-87979297D01*
X172089371Y-87996624D01*
X172109749Y-88010240D01*
X172112441Y-88011679D01*
X172140386Y-88034614D01*
X172163322Y-88062560D01*
X172180358Y-88094433D01*
X172190852Y-88129026D01*
X172195000Y-88171141D01*
X172195000Y-88828859D01*
X172190852Y-88870974D01*
X172180358Y-88905567D01*
X172163322Y-88937440D01*
X172140386Y-88965386D01*
X172112440Y-88988322D01*
X172080567Y-89005358D01*
X172045974Y-89015852D01*
X172003859Y-89020000D01*
X171396141Y-89020000D01*
X171354026Y-89015852D01*
X171319433Y-89005358D01*
X171279873Y-88984213D01*
X171273934Y-88980244D01*
X171251297Y-88970865D01*
X171227264Y-88966082D01*
X171202760Y-88966080D01*
X171178726Y-88970858D01*
X171156086Y-88980233D01*
X171150139Y-88984206D01*
X171110567Y-89005358D01*
X171075974Y-89015852D01*
X171033859Y-89020000D01*
X170426141Y-89020000D01*
X170384026Y-89015852D01*
X170349433Y-89005358D01*
X170317560Y-88988322D01*
X170289614Y-88965386D01*
X170266678Y-88937440D01*
X170249642Y-88905567D01*
X170239148Y-88870974D01*
X170235000Y-88828859D01*
X170235000Y-88171141D01*
X170239148Y-88129026D01*
X170249642Y-88094433D01*
X170266678Y-88062560D01*
X170289614Y-88034614D01*
X170317559Y-88011679D01*
X170320251Y-88010240D01*
X170340626Y-87996627D01*
X170357953Y-87979300D01*
X170371567Y-87958926D01*
X170380945Y-87936287D01*
X170385726Y-87912254D01*
X170385726Y-87887750D01*
X170385726Y-87887746D01*
X171074274Y-87887746D01*
X171074274Y-87912250D01*
X171079054Y-87936283D01*
X171088431Y-87958922D01*
X171102044Y-87979297D01*
X171119371Y-87996624D01*
X171139749Y-88010240D01*
X171150127Y-88015787D01*
X171156066Y-88019756D01*
X171178703Y-88029135D01*
X171202736Y-88033918D01*
X171227240Y-88033920D01*
X171251274Y-88029142D01*
X171273914Y-88019767D01*
X171279861Y-88015794D01*
X171290251Y-88010240D01*
X171310626Y-87996627D01*
X171327953Y-87979300D01*
X171341567Y-87958926D01*
X171350945Y-87936287D01*
X171355726Y-87912254D01*
X171355726Y-87887750D01*
X171350946Y-87863717D01*
X171341569Y-87841078D01*
X171327956Y-87820703D01*
X171310629Y-87803376D01*
X171290251Y-87789760D01*
X171279873Y-87784213D01*
X171273934Y-87780244D01*
X171251297Y-87770865D01*
X171227264Y-87766082D01*
X171202760Y-87766080D01*
X171178726Y-87770858D01*
X171156086Y-87780233D01*
X171150139Y-87784206D01*
X171139749Y-87789760D01*
X171119374Y-87803373D01*
X171102047Y-87820700D01*
X171088433Y-87841074D01*
X171079055Y-87863713D01*
X171074274Y-87887746D01*
X170385726Y-87887746D01*
X170380946Y-87863717D01*
X170371569Y-87841078D01*
X170357956Y-87820703D01*
X170340629Y-87803376D01*
X170320251Y-87789760D01*
X170317559Y-87788321D01*
X170289614Y-87765386D01*
X170266678Y-87737440D01*
X170249642Y-87705567D01*
X170239148Y-87670974D01*
X170235000Y-87628859D01*
X170235000Y-86971141D01*
X170239148Y-86929026D01*
X170249642Y-86894433D01*
X170266678Y-86862560D01*
X170289614Y-86834614D01*
X170317560Y-86811678D01*
X170349433Y-86794642D01*
X170384026Y-86784148D01*
X170426141Y-86780000D01*
X171033859Y-86780000D01*
X171075974Y-86784148D01*
X171075974Y-86784148D01*
G37*
G36*
X189890269Y-87115597D02*
G01*
X189939013Y-87130383D01*
X189983926Y-87154390D01*
X190023299Y-87186701D01*
X190055610Y-87226074D01*
X190079617Y-87270987D01*
X190094403Y-87319731D01*
X190100000Y-87376557D01*
X190100000Y-88443443D01*
X190094403Y-88500269D01*
X190079617Y-88549013D01*
X190055610Y-88593926D01*
X190023299Y-88633299D01*
X189983926Y-88665610D01*
X189939013Y-88689617D01*
X189890269Y-88704403D01*
X189833443Y-88710000D01*
X188166557Y-88710000D01*
X188109731Y-88704403D01*
X188060987Y-88689617D01*
X188016074Y-88665610D01*
X187976701Y-88633299D01*
X187944390Y-88593926D01*
X187920383Y-88549013D01*
X187905597Y-88500269D01*
X187900000Y-88443443D01*
X187900000Y-87376557D01*
X187905597Y-87319731D01*
X187920383Y-87270987D01*
X187944390Y-87226074D01*
X187976701Y-87186701D01*
X188016074Y-87154390D01*
X188060987Y-87130383D01*
X188109731Y-87115597D01*
X188166557Y-87110000D01*
X189833443Y-87110000D01*
X189890269Y-87115597D01*
X189890269Y-87115597D01*
G37*
G36*
X109604824Y-84530151D02*
G01*
X109639449Y-84540655D01*
X109671360Y-84557712D01*
X109699332Y-84580668D01*
X109722288Y-84608640D01*
X109739345Y-84640551D01*
X109749849Y-84675176D01*
X109754000Y-84717327D01*
X109754000Y-88034673D01*
X109749849Y-88076824D01*
X109739345Y-88111449D01*
X109722288Y-88143360D01*
X109699332Y-88171332D01*
X109671360Y-88194288D01*
X109639449Y-88211345D01*
X109604824Y-88221849D01*
X109562673Y-88226000D01*
X106845327Y-88226000D01*
X106803176Y-88221849D01*
X106768551Y-88211345D01*
X106736640Y-88194288D01*
X106708668Y-88171332D01*
X106685712Y-88143360D01*
X106668655Y-88111449D01*
X106658151Y-88076824D01*
X106654000Y-88034673D01*
X106654000Y-84717327D01*
X106658151Y-84675176D01*
X106668655Y-84640551D01*
X106685712Y-84608640D01*
X106708668Y-84580668D01*
X106736640Y-84557712D01*
X106768551Y-84540655D01*
X106803176Y-84530151D01*
X106845327Y-84526000D01*
X109562673Y-84526000D01*
X109604824Y-84530151D01*
X109604824Y-84530151D01*
G37*
G36*
X186000000Y-86000000D02*
G01*
X184400000Y-86000000D01*
X184400000Y-84700000D01*
X186000000Y-84700000D01*
X186000000Y-86000000D01*
X186000000Y-86000000D01*
G37*
G36*
X183550000Y-86000000D02*
G01*
X181950000Y-86000000D01*
X181950000Y-84700000D01*
X183550000Y-84700000D01*
X183550000Y-86000000D01*
X183550000Y-86000000D01*
G37*
G36*
X181092500Y-84900000D02*
G01*
X173407500Y-84900000D01*
X173407500Y-83400000D01*
X181092500Y-83400000D01*
X181092500Y-84900000D01*
X181092500Y-84900000D01*
G37*
G36*
X181468622Y-81755517D02*
G01*
X181516585Y-81770066D01*
X181560778Y-81793688D01*
X181599519Y-81825481D01*
X181631312Y-81864222D01*
X181654934Y-81908415D01*
X181669814Y-81957470D01*
X181674152Y-81979275D01*
X181683530Y-82001914D01*
X181697144Y-82022288D01*
X181714471Y-82039615D01*
X181734846Y-82053228D01*
X181757485Y-82062605D01*
X181781518Y-82067385D01*
X181806022Y-82067385D01*
X181830055Y-82062604D01*
X181852694Y-82053226D01*
X181873068Y-82039612D01*
X181890395Y-82022285D01*
X181904008Y-82001912D01*
X181911681Y-81987556D01*
X181934614Y-81959614D01*
X181962560Y-81936678D01*
X181994433Y-81919642D01*
X182029026Y-81909148D01*
X182071141Y-81905000D01*
X182728859Y-81905000D01*
X182770974Y-81909148D01*
X182805567Y-81919642D01*
X182837440Y-81936678D01*
X182865386Y-81959614D01*
X182888322Y-81987560D01*
X182905358Y-82019433D01*
X182915852Y-82054026D01*
X182920000Y-82096141D01*
X182920000Y-82703859D01*
X182915852Y-82745974D01*
X182905358Y-82780567D01*
X182884213Y-82820127D01*
X182880244Y-82826066D01*
X182870865Y-82848703D01*
X182866082Y-82872736D01*
X182866080Y-82897240D01*
X182870858Y-82921274D01*
X182880233Y-82943914D01*
X182884206Y-82949861D01*
X182905358Y-82989433D01*
X182915852Y-83024026D01*
X182920000Y-83066141D01*
X182920000Y-83673859D01*
X182915852Y-83715974D01*
X182905358Y-83750567D01*
X182888322Y-83782440D01*
X182865386Y-83810386D01*
X182837440Y-83833322D01*
X182805567Y-83850358D01*
X182770974Y-83860852D01*
X182728859Y-83865000D01*
X182071141Y-83865000D01*
X182029026Y-83860852D01*
X181994433Y-83850358D01*
X181962560Y-83833322D01*
X181934614Y-83810386D01*
X181911678Y-83782440D01*
X181894642Y-83750567D01*
X181884148Y-83715974D01*
X181880000Y-83673859D01*
X181880000Y-83066141D01*
X181884148Y-83024026D01*
X181894642Y-82989433D01*
X181915787Y-82949873D01*
X181919756Y-82943934D01*
X181929135Y-82921297D01*
X181933918Y-82897264D01*
X181933920Y-82872760D01*
X181929142Y-82848726D01*
X181919767Y-82826086D01*
X181915799Y-82820147D01*
X181900623Y-82791755D01*
X181887009Y-82771381D01*
X181869682Y-82754054D01*
X181849308Y-82740440D01*
X181826669Y-82731063D01*
X181802636Y-82726282D01*
X181778132Y-82726282D01*
X181754098Y-82731062D01*
X181731459Y-82740439D01*
X181711085Y-82754053D01*
X181693758Y-82771380D01*
X181680144Y-82791754D01*
X181670767Y-82814393D01*
X181654936Y-82866581D01*
X181631312Y-82910778D01*
X181599519Y-82949519D01*
X181560778Y-82981312D01*
X181516585Y-83004934D01*
X181468622Y-83019483D01*
X181412609Y-83025000D01*
X180587391Y-83025000D01*
X180531378Y-83019483D01*
X180483415Y-83004934D01*
X180439222Y-82981312D01*
X180400481Y-82949519D01*
X180368688Y-82910778D01*
X180345066Y-82866585D01*
X180330517Y-82818622D01*
X180325000Y-82762609D01*
X180325000Y-82012391D01*
X180330517Y-81956378D01*
X180345066Y-81908415D01*
X180368688Y-81864222D01*
X180400481Y-81825481D01*
X180439222Y-81793688D01*
X180483415Y-81770066D01*
X180531378Y-81755517D01*
X180587391Y-81750000D01*
X181412609Y-81750000D01*
X181468622Y-81755517D01*
X181468622Y-81755517D01*
G37*
G36*
X173768622Y-81668017D02*
G01*
X173816585Y-81682566D01*
X173860778Y-81706188D01*
X173899519Y-81737981D01*
X173931312Y-81776722D01*
X173954934Y-81820915D01*
X173969483Y-81868878D01*
X173975000Y-81924891D01*
X173975000Y-82675109D01*
X173969483Y-82731122D01*
X173954934Y-82779085D01*
X173931312Y-82823278D01*
X173899519Y-82862019D01*
X173860778Y-82893812D01*
X173816585Y-82917434D01*
X173768622Y-82931983D01*
X173712609Y-82937500D01*
X172887391Y-82937500D01*
X172831378Y-82931983D01*
X172783415Y-82917434D01*
X172739222Y-82893812D01*
X172700481Y-82862019D01*
X172668688Y-82823278D01*
X172645066Y-82779085D01*
X172630517Y-82731122D01*
X172625000Y-82675109D01*
X172625000Y-81924891D01*
X172630517Y-81868878D01*
X172645066Y-81820915D01*
X172668688Y-81776722D01*
X172700481Y-81737981D01*
X172739222Y-81706188D01*
X172783415Y-81682566D01*
X172831378Y-81668017D01*
X172887391Y-81662500D01*
X173712609Y-81662500D01*
X173768622Y-81668017D01*
X173768622Y-81668017D01*
G37*
G36*
X178868622Y-79268017D02*
G01*
X178916585Y-79282566D01*
X178960778Y-79306188D01*
X178999519Y-79337981D01*
X179031312Y-79376722D01*
X179054934Y-79420915D01*
X179069483Y-79468878D01*
X179075000Y-79524891D01*
X179075000Y-80275109D01*
X179069483Y-80331122D01*
X179054934Y-80379085D01*
X179031312Y-80423278D01*
X178995877Y-80466456D01*
X178986634Y-80475698D01*
X178973020Y-80496072D01*
X178963641Y-80518710D01*
X178958859Y-80542743D01*
X178958858Y-80567247D01*
X178963638Y-80591281D01*
X178973014Y-80613920D01*
X178986627Y-80634295D01*
X179003953Y-80651623D01*
X179024327Y-80665237D01*
X179046965Y-80674616D01*
X179070998Y-80679398D01*
X179083256Y-80680000D01*
X179388859Y-80680000D01*
X179430974Y-80684148D01*
X179465567Y-80694642D01*
X179497440Y-80711678D01*
X179525386Y-80734614D01*
X179548322Y-80762560D01*
X179565358Y-80794433D01*
X179575852Y-80829026D01*
X179580000Y-80871141D01*
X179580000Y-81528859D01*
X179575852Y-81570974D01*
X179565358Y-81605567D01*
X179548322Y-81637440D01*
X179525386Y-81665386D01*
X179497441Y-81688321D01*
X179494749Y-81689760D01*
X179474374Y-81703373D01*
X179457047Y-81720700D01*
X179443433Y-81741074D01*
X179434055Y-81763713D01*
X179429274Y-81787746D01*
X179429274Y-81812250D01*
X179434054Y-81836283D01*
X179443431Y-81858922D01*
X179457044Y-81879297D01*
X179474371Y-81896624D01*
X179494749Y-81910240D01*
X179497441Y-81911679D01*
X179525386Y-81934614D01*
X179548322Y-81962560D01*
X179565358Y-81994433D01*
X179575852Y-82029026D01*
X179580000Y-82071141D01*
X179580000Y-82728859D01*
X179575852Y-82770974D01*
X179565358Y-82805567D01*
X179548322Y-82837440D01*
X179525386Y-82865386D01*
X179497440Y-82888322D01*
X179465567Y-82905358D01*
X179430974Y-82915852D01*
X179388859Y-82920000D01*
X178781141Y-82920000D01*
X178739026Y-82915852D01*
X178704433Y-82905358D01*
X178664873Y-82884213D01*
X178658934Y-82880244D01*
X178636297Y-82870865D01*
X178612264Y-82866082D01*
X178587760Y-82866080D01*
X178563726Y-82870858D01*
X178541086Y-82880233D01*
X178535139Y-82884206D01*
X178495567Y-82905358D01*
X178460974Y-82915852D01*
X178418859Y-82920000D01*
X177811141Y-82920000D01*
X177769026Y-82915852D01*
X177734433Y-82905358D01*
X177702560Y-82888322D01*
X177674614Y-82865386D01*
X177651678Y-82837440D01*
X177634642Y-82805567D01*
X177624148Y-82770974D01*
X177620000Y-82728859D01*
X177620000Y-82071141D01*
X177624148Y-82029026D01*
X177634642Y-81994433D01*
X177651678Y-81962560D01*
X177674614Y-81934614D01*
X177702559Y-81911679D01*
X177705251Y-81910240D01*
X177725626Y-81896627D01*
X177742953Y-81879300D01*
X177756567Y-81858926D01*
X177765945Y-81836287D01*
X177770726Y-81812254D01*
X177770726Y-81787750D01*
X177770726Y-81787746D01*
X178459274Y-81787746D01*
X178459274Y-81812250D01*
X178464054Y-81836283D01*
X178473431Y-81858922D01*
X178487044Y-81879297D01*
X178504371Y-81896624D01*
X178524749Y-81910240D01*
X178535127Y-81915787D01*
X178541066Y-81919756D01*
X178563703Y-81929135D01*
X178587736Y-81933918D01*
X178612240Y-81933920D01*
X178636274Y-81929142D01*
X178658914Y-81919767D01*
X178664861Y-81915794D01*
X178675251Y-81910240D01*
X178695626Y-81896627D01*
X178712953Y-81879300D01*
X178726567Y-81858926D01*
X178735945Y-81836287D01*
X178740726Y-81812254D01*
X178740726Y-81787750D01*
X178735946Y-81763717D01*
X178726569Y-81741078D01*
X178712956Y-81720703D01*
X178695629Y-81703376D01*
X178675251Y-81689760D01*
X178664873Y-81684213D01*
X178658934Y-81680244D01*
X178636297Y-81670865D01*
X178612264Y-81666082D01*
X178587760Y-81666080D01*
X178563726Y-81670858D01*
X178541086Y-81680233D01*
X178535139Y-81684206D01*
X178524749Y-81689760D01*
X178504374Y-81703373D01*
X178487047Y-81720700D01*
X178473433Y-81741074D01*
X178464055Y-81763713D01*
X178459274Y-81787746D01*
X177770726Y-81787746D01*
X177765946Y-81763717D01*
X177756569Y-81741078D01*
X177742956Y-81720703D01*
X177725629Y-81703376D01*
X177705251Y-81689760D01*
X177702559Y-81688321D01*
X177674614Y-81665386D01*
X177651678Y-81637440D01*
X177634642Y-81605567D01*
X177624148Y-81570974D01*
X177620000Y-81528859D01*
X177620000Y-80871141D01*
X177624148Y-80829026D01*
X177634642Y-80794433D01*
X177651678Y-80762560D01*
X177674614Y-80734614D01*
X177702560Y-80711678D01*
X177734434Y-80694641D01*
X177765823Y-80685120D01*
X177788462Y-80675743D01*
X177808837Y-80662130D01*
X177826164Y-80644803D01*
X177839778Y-80624429D01*
X177849156Y-80601790D01*
X177853937Y-80577757D01*
X177853937Y-80553253D01*
X177849157Y-80529220D01*
X177839780Y-80506581D01*
X177826167Y-80486206D01*
X177808839Y-80468878D01*
X177800482Y-80462020D01*
X177768688Y-80423278D01*
X177745066Y-80379085D01*
X177730517Y-80331122D01*
X177725000Y-80275109D01*
X177725000Y-79524891D01*
X177730517Y-79468878D01*
X177745066Y-79420915D01*
X177768688Y-79376722D01*
X177800481Y-79337981D01*
X177839222Y-79306188D01*
X177883415Y-79282566D01*
X177931378Y-79268017D01*
X177987391Y-79262500D01*
X178812609Y-79262500D01*
X178868622Y-79268017D01*
X178868622Y-79268017D01*
G37*
G36*
X167045000Y-78155001D02*
G01*
X167047402Y-78179387D01*
X167054515Y-78202836D01*
X167066066Y-78224447D01*
X167081611Y-78243389D01*
X167100553Y-78258934D01*
X167122164Y-78270485D01*
X167145613Y-78277598D01*
X167169999Y-78280000D01*
X170120000Y-78280000D01*
X170120000Y-82620000D01*
X167169999Y-82620000D01*
X167145613Y-82622402D01*
X167122164Y-82629515D01*
X167100553Y-82641066D01*
X167081611Y-82656611D01*
X167066066Y-82675553D01*
X167054515Y-82697164D01*
X167047402Y-82720613D01*
X167045000Y-82744999D01*
X167045000Y-82870000D01*
X165355000Y-82870000D01*
X165355000Y-78030000D01*
X167045000Y-78030000D01*
X167045000Y-78155001D01*
X167045000Y-78155001D01*
G37*
G36*
X172315000Y-82780000D02*
G01*
X171025000Y-82780000D01*
X171025000Y-81940000D01*
X172315000Y-81940000D01*
X172315000Y-82780000D01*
X172315000Y-82780000D01*
G37*
G36*
X108507848Y-79048427D02*
G01*
X108507851Y-79048428D01*
X108507852Y-79048428D01*
X108800028Y-79137059D01*
X108800030Y-79137060D01*
X108800033Y-79137061D01*
X109069298Y-79280986D01*
X109305319Y-79474681D01*
X109499014Y-79710701D01*
X109642939Y-79979966D01*
X109642939Y-79979967D01*
X109642941Y-79979971D01*
X109730423Y-80268360D01*
X109731573Y-80272151D01*
X109754000Y-80499858D01*
X109754000Y-81252141D01*
X109731573Y-81479850D01*
X109642940Y-81772032D01*
X109499014Y-82041299D01*
X109305319Y-82277319D01*
X109069299Y-82471014D01*
X108800034Y-82614939D01*
X108800031Y-82614940D01*
X108800029Y-82614941D01*
X108507853Y-82703572D01*
X108507852Y-82703572D01*
X108507849Y-82703573D01*
X108204000Y-82733499D01*
X107900152Y-82703573D01*
X107900149Y-82703572D01*
X107900148Y-82703572D01*
X107607972Y-82614941D01*
X107607970Y-82614940D01*
X107607967Y-82614939D01*
X107338702Y-82471014D01*
X107102681Y-82277319D01*
X106908986Y-82041299D01*
X106765061Y-81772034D01*
X106762537Y-81763713D01*
X106676428Y-81479853D01*
X106676428Y-81479852D01*
X106676427Y-81479849D01*
X106654000Y-81252142D01*
X106654000Y-80499859D01*
X106676427Y-80272152D01*
X106676428Y-80272148D01*
X106765059Y-79979972D01*
X106765060Y-79979970D01*
X106765061Y-79979967D01*
X106908986Y-79710702D01*
X107102681Y-79474681D01*
X107338701Y-79280986D01*
X107607966Y-79137061D01*
X107607969Y-79137060D01*
X107607971Y-79137059D01*
X107900147Y-79048428D01*
X107900148Y-79048428D01*
X107900151Y-79048427D01*
X108204000Y-79018501D01*
X108507848Y-79048427D01*
X108507848Y-79048427D01*
G37*
G36*
X177350000Y-82650000D02*
G01*
X176150000Y-82650000D01*
X176150000Y-81350000D01*
X177350000Y-81350000D01*
X177350000Y-82650000D01*
X177350000Y-82650000D01*
G37*
G36*
X175450000Y-82650000D02*
G01*
X174250000Y-82650000D01*
X174250000Y-81350000D01*
X175450000Y-81350000D01*
X175450000Y-82650000D01*
X175450000Y-82650000D01*
G37*
G36*
X186820000Y-79830001D02*
G01*
X186822402Y-79854387D01*
X186829515Y-79877836D01*
X186841066Y-79899447D01*
X186856611Y-79918389D01*
X186875553Y-79933934D01*
X186897164Y-79945485D01*
X186920613Y-79952598D01*
X186944999Y-79955000D01*
X187070000Y-79955000D01*
X187070000Y-81645000D01*
X182230000Y-81645000D01*
X182230000Y-79955000D01*
X182355001Y-79955000D01*
X182379387Y-79952598D01*
X182402836Y-79945485D01*
X182424447Y-79933934D01*
X182443389Y-79918389D01*
X182458934Y-79899447D01*
X182470485Y-79877836D01*
X182477598Y-79854387D01*
X182480000Y-79830001D01*
X182480000Y-76880000D01*
X186820000Y-76880000D01*
X186820000Y-79830001D01*
X186820000Y-79830001D01*
G37*
G36*
X172315000Y-81510000D02*
G01*
X171025000Y-81510000D01*
X171025000Y-80670000D01*
X172315000Y-80670000D01*
X172315000Y-81510000D01*
X172315000Y-81510000D01*
G37*
G36*
X181570974Y-78024148D02*
G01*
X181605567Y-78034642D01*
X181637440Y-78051678D01*
X181665386Y-78074614D01*
X181688322Y-78102560D01*
X181705358Y-78134433D01*
X181715852Y-78169026D01*
X181720000Y-78211141D01*
X181720000Y-78818859D01*
X181715852Y-78860974D01*
X181705358Y-78895567D01*
X181684213Y-78935127D01*
X181680244Y-78941066D01*
X181670865Y-78963703D01*
X181666082Y-78987736D01*
X181666080Y-79012240D01*
X181670858Y-79036274D01*
X181680233Y-79058914D01*
X181684206Y-79064861D01*
X181705358Y-79104433D01*
X181715852Y-79139026D01*
X181720000Y-79181141D01*
X181720000Y-79788859D01*
X181715852Y-79830974D01*
X181705358Y-79865567D01*
X181688322Y-79897440D01*
X181665386Y-79925386D01*
X181637440Y-79948322D01*
X181605567Y-79965358D01*
X181563420Y-79978143D01*
X181540781Y-79987520D01*
X181520406Y-80001134D01*
X181503079Y-80018461D01*
X181489465Y-80038835D01*
X181480088Y-80061474D01*
X181475307Y-80085507D01*
X181475307Y-80110011D01*
X181480087Y-80134044D01*
X181489464Y-80156683D01*
X181503078Y-80177058D01*
X181520405Y-80194385D01*
X181540781Y-80208000D01*
X181560780Y-80218689D01*
X181599519Y-80250481D01*
X181631312Y-80289222D01*
X181654934Y-80333415D01*
X181669483Y-80381378D01*
X181675000Y-80437391D01*
X181675000Y-81187609D01*
X181669483Y-81243622D01*
X181654934Y-81291585D01*
X181631312Y-81335778D01*
X181599519Y-81374519D01*
X181560778Y-81406312D01*
X181516585Y-81429934D01*
X181468622Y-81444483D01*
X181412609Y-81450000D01*
X180587391Y-81450000D01*
X180531378Y-81444483D01*
X180483415Y-81429934D01*
X180439222Y-81406312D01*
X180400481Y-81374519D01*
X180368688Y-81335778D01*
X180345066Y-81291585D01*
X180330517Y-81243622D01*
X180325000Y-81187609D01*
X180325000Y-80437391D01*
X180330517Y-80381378D01*
X180345066Y-80333415D01*
X180368688Y-80289222D01*
X180400481Y-80250481D01*
X180439222Y-80218688D01*
X180483415Y-80195066D01*
X180531378Y-80180517D01*
X180587391Y-80175000D01*
X180689418Y-80175000D01*
X180713804Y-80172598D01*
X180737253Y-80165485D01*
X180758864Y-80153934D01*
X180777806Y-80138389D01*
X180793351Y-80119447D01*
X180804902Y-80097836D01*
X180812015Y-80074387D01*
X180814417Y-80050001D01*
X180812015Y-80025615D01*
X180804902Y-80002166D01*
X180793351Y-79980555D01*
X180768718Y-79953377D01*
X180734616Y-79925390D01*
X180711678Y-79897440D01*
X180694642Y-79865567D01*
X180684148Y-79830974D01*
X180680000Y-79788859D01*
X180680000Y-79181141D01*
X180684148Y-79139026D01*
X180694642Y-79104433D01*
X180715787Y-79064873D01*
X180719756Y-79058934D01*
X180729135Y-79036297D01*
X180733918Y-79012264D01*
X180733920Y-78987760D01*
X180729142Y-78963726D01*
X180719767Y-78941086D01*
X180715794Y-78935139D01*
X180694642Y-78895567D01*
X180684148Y-78860974D01*
X180680000Y-78818859D01*
X180680000Y-78211141D01*
X180684148Y-78169026D01*
X180694642Y-78134433D01*
X180711678Y-78102560D01*
X180734614Y-78074614D01*
X180762560Y-78051678D01*
X180794433Y-78034642D01*
X180829026Y-78024148D01*
X180871141Y-78020000D01*
X181528859Y-78020000D01*
X181570974Y-78024148D01*
X181570974Y-78024148D01*
G37*
G36*
X173768622Y-80093017D02*
G01*
X173816585Y-80107566D01*
X173860778Y-80131188D01*
X173899519Y-80162981D01*
X173931312Y-80201722D01*
X173954934Y-80245915D01*
X173969483Y-80293878D01*
X173975000Y-80349891D01*
X173975000Y-81100109D01*
X173969483Y-81156122D01*
X173954934Y-81204085D01*
X173931312Y-81248278D01*
X173899519Y-81287019D01*
X173860778Y-81318812D01*
X173816585Y-81342434D01*
X173768622Y-81356983D01*
X173712609Y-81362500D01*
X172887391Y-81362500D01*
X172831378Y-81356983D01*
X172783415Y-81342434D01*
X172739222Y-81318812D01*
X172700481Y-81287019D01*
X172668688Y-81248278D01*
X172645066Y-81204085D01*
X172630517Y-81156122D01*
X172625000Y-81100109D01*
X172625000Y-80349891D01*
X172630517Y-80293878D01*
X172645066Y-80245915D01*
X172668688Y-80201722D01*
X172700481Y-80162981D01*
X172739222Y-80131188D01*
X172783415Y-80107566D01*
X172831378Y-80093017D01*
X172887391Y-80087500D01*
X173712609Y-80087500D01*
X173768622Y-80093017D01*
X173768622Y-80093017D01*
G37*
G36*
X176400000Y-80650000D02*
G01*
X175200000Y-80650000D01*
X175200000Y-79350000D01*
X176400000Y-79350000D01*
X176400000Y-80650000D01*
X176400000Y-80650000D01*
G37*
G36*
X172315000Y-80230000D02*
G01*
X171025000Y-80230000D01*
X171025000Y-79390000D01*
X172315000Y-79390000D01*
X172315000Y-80230000D01*
X172315000Y-80230000D01*
G37*
G36*
X175243622Y-77730517D02*
G01*
X175291585Y-77745066D01*
X175335778Y-77768688D01*
X175374519Y-77800481D01*
X175406312Y-77839222D01*
X175429934Y-77883415D01*
X175444483Y-77931378D01*
X175450000Y-77987391D01*
X175450000Y-78812609D01*
X175444483Y-78868622D01*
X175429934Y-78916585D01*
X175406312Y-78960778D01*
X175374519Y-78999519D01*
X175335778Y-79031312D01*
X175291585Y-79054934D01*
X175243622Y-79069483D01*
X175187609Y-79075000D01*
X174437391Y-79075000D01*
X174381378Y-79069483D01*
X174333415Y-79054934D01*
X174289222Y-79031312D01*
X174250481Y-78999519D01*
X174218688Y-78960778D01*
X174195066Y-78916585D01*
X174180517Y-78868622D01*
X174175000Y-78812609D01*
X174175000Y-77987391D01*
X174180517Y-77931378D01*
X174195066Y-77883415D01*
X174218688Y-77839222D01*
X174250481Y-77800481D01*
X174289222Y-77768688D01*
X174333415Y-77745066D01*
X174381378Y-77730517D01*
X174437391Y-77725000D01*
X175187609Y-77725000D01*
X175243622Y-77730517D01*
X175243622Y-77730517D01*
G37*
G36*
X176818622Y-77730517D02*
G01*
X176866585Y-77745066D01*
X176910778Y-77768688D01*
X176949519Y-77800481D01*
X176981312Y-77839222D01*
X177004934Y-77883415D01*
X177019483Y-77931378D01*
X177025000Y-77987391D01*
X177025000Y-78812609D01*
X177019483Y-78868622D01*
X177004934Y-78916585D01*
X176981312Y-78960778D01*
X176949519Y-78999519D01*
X176910778Y-79031312D01*
X176866585Y-79054934D01*
X176818622Y-79069483D01*
X176762609Y-79075000D01*
X176012391Y-79075000D01*
X175956378Y-79069483D01*
X175908415Y-79054934D01*
X175864222Y-79031312D01*
X175825481Y-78999519D01*
X175793688Y-78960778D01*
X175770066Y-78916585D01*
X175755517Y-78868622D01*
X175750000Y-78812609D01*
X175750000Y-77987391D01*
X175755517Y-77931378D01*
X175770066Y-77883415D01*
X175793688Y-77839222D01*
X175825481Y-77800481D01*
X175864222Y-77768688D01*
X175908415Y-77745066D01*
X175956378Y-77730517D01*
X176012391Y-77725000D01*
X176762609Y-77725000D01*
X176818622Y-77730517D01*
X176818622Y-77730517D01*
G37*
G36*
X178868622Y-77693017D02*
G01*
X178916585Y-77707566D01*
X178960778Y-77731188D01*
X178999519Y-77762981D01*
X179031312Y-77801722D01*
X179054934Y-77845915D01*
X179069483Y-77893878D01*
X179075000Y-77949891D01*
X179075000Y-78700109D01*
X179069483Y-78756122D01*
X179054934Y-78804085D01*
X179031312Y-78848278D01*
X178999519Y-78887019D01*
X178960778Y-78918812D01*
X178916585Y-78942434D01*
X178868622Y-78956983D01*
X178812609Y-78962500D01*
X177987391Y-78962500D01*
X177931378Y-78956983D01*
X177883415Y-78942434D01*
X177839222Y-78918812D01*
X177800481Y-78887019D01*
X177768688Y-78848278D01*
X177745066Y-78804085D01*
X177730517Y-78756122D01*
X177725000Y-78700109D01*
X177725000Y-77949891D01*
X177730517Y-77893878D01*
X177745066Y-77845915D01*
X177768688Y-77801722D01*
X177800481Y-77762981D01*
X177839222Y-77731188D01*
X177883415Y-77707566D01*
X177931378Y-77693017D01*
X177987391Y-77687500D01*
X178812609Y-77687500D01*
X178868622Y-77693017D01*
X178868622Y-77693017D01*
G37*
G36*
X172315000Y-78960000D02*
G01*
X171025000Y-78960000D01*
X171025000Y-78120000D01*
X172315000Y-78120000D01*
X172315000Y-78960000D01*
X172315000Y-78960000D01*
G37*
G36*
X173768622Y-76168017D02*
G01*
X173816585Y-76182566D01*
X173860778Y-76206188D01*
X173899519Y-76237981D01*
X173931312Y-76276722D01*
X173954934Y-76320915D01*
X173969483Y-76368878D01*
X173975000Y-76424891D01*
X173975000Y-77175109D01*
X173969483Y-77231122D01*
X173954934Y-77279085D01*
X173931312Y-77323278D01*
X173899519Y-77362019D01*
X173860778Y-77393812D01*
X173816585Y-77417434D01*
X173768622Y-77431983D01*
X173712609Y-77437500D01*
X172887391Y-77437500D01*
X172831378Y-77431983D01*
X172783415Y-77417434D01*
X172739222Y-77393812D01*
X172700481Y-77362019D01*
X172668688Y-77323278D01*
X172645066Y-77279085D01*
X172630517Y-77231122D01*
X172625000Y-77175109D01*
X172625000Y-76424891D01*
X172630517Y-76368878D01*
X172645066Y-76320915D01*
X172668688Y-76276722D01*
X172700481Y-76237981D01*
X172739222Y-76206188D01*
X172783415Y-76182566D01*
X172831378Y-76168017D01*
X172887391Y-76162500D01*
X173712609Y-76162500D01*
X173768622Y-76168017D01*
X173768622Y-76168017D01*
G37*
G36*
X167010000Y-72505001D02*
G01*
X167012402Y-72529387D01*
X167019515Y-72552836D01*
X167031066Y-72574447D01*
X167046611Y-72593389D01*
X167065553Y-72608934D01*
X167087164Y-72620485D01*
X167110613Y-72627598D01*
X167134999Y-72630000D01*
X170085000Y-72630000D01*
X170085000Y-76970000D01*
X167134999Y-76970000D01*
X167110613Y-76972402D01*
X167087164Y-76979515D01*
X167065553Y-76991066D01*
X167046611Y-77006611D01*
X167031066Y-77025553D01*
X167019515Y-77047164D01*
X167012402Y-77070613D01*
X167010000Y-77094999D01*
X167010000Y-77220000D01*
X165320000Y-77220000D01*
X165320000Y-72380000D01*
X167010000Y-72380000D01*
X167010000Y-72505001D01*
X167010000Y-72505001D01*
G37*
G36*
X178900000Y-77200000D02*
G01*
X177600000Y-77200000D01*
X177600000Y-75600000D01*
X178900000Y-75600000D01*
X178900000Y-77200000D01*
X178900000Y-77200000D01*
G37*
G36*
X175600000Y-77200000D02*
G01*
X174300000Y-77200000D01*
X174300000Y-75600000D01*
X175600000Y-75600000D01*
X175600000Y-77200000D01*
X175600000Y-77200000D01*
G37*
G36*
X172280000Y-77130000D02*
G01*
X170990000Y-77130000D01*
X170990000Y-76290000D01*
X172280000Y-76290000D01*
X172280000Y-77130000D01*
X172280000Y-77130000D01*
G37*
G36*
X184430000Y-75975000D02*
G01*
X183590000Y-75975000D01*
X183590000Y-74685000D01*
X184430000Y-74685000D01*
X184430000Y-75975000D01*
X184430000Y-75975000D01*
G37*
G36*
X183160000Y-75975000D02*
G01*
X182320000Y-75975000D01*
X182320000Y-74685000D01*
X183160000Y-74685000D01*
X183160000Y-75975000D01*
X183160000Y-75975000D01*
G37*
G36*
X185710000Y-75975000D02*
G01*
X184870000Y-75975000D01*
X184870000Y-74685000D01*
X185710000Y-74685000D01*
X185710000Y-75975000D01*
X185710000Y-75975000D01*
G37*
G36*
X186980000Y-75975000D02*
G01*
X186140000Y-75975000D01*
X186140000Y-74685000D01*
X186980000Y-74685000D01*
X186980000Y-75975000D01*
X186980000Y-75975000D01*
G37*
G36*
X180345974Y-74884148D02*
G01*
X180380567Y-74894642D01*
X180420127Y-74915787D01*
X180426066Y-74919756D01*
X180448703Y-74929135D01*
X180472736Y-74933918D01*
X180497240Y-74933920D01*
X180521274Y-74929142D01*
X180543914Y-74919767D01*
X180549861Y-74915794D01*
X180589433Y-74894642D01*
X180624026Y-74884148D01*
X180666141Y-74880000D01*
X181273859Y-74880000D01*
X181315974Y-74884148D01*
X181350567Y-74894642D01*
X181382440Y-74911678D01*
X181410386Y-74934614D01*
X181433322Y-74962560D01*
X181450358Y-74994433D01*
X181460852Y-75029026D01*
X181465000Y-75071141D01*
X181465000Y-75728859D01*
X181460852Y-75770974D01*
X181450358Y-75805567D01*
X181433322Y-75837440D01*
X181410386Y-75865386D01*
X181382440Y-75888322D01*
X181350567Y-75905358D01*
X181315974Y-75915852D01*
X181273859Y-75920000D01*
X180666141Y-75920000D01*
X180624026Y-75915852D01*
X180589433Y-75905358D01*
X180549873Y-75884213D01*
X180543934Y-75880244D01*
X180521297Y-75870865D01*
X180497264Y-75866082D01*
X180472760Y-75866080D01*
X180448726Y-75870858D01*
X180426086Y-75880233D01*
X180420139Y-75884206D01*
X180380567Y-75905358D01*
X180345974Y-75915852D01*
X180303859Y-75920000D01*
X179696141Y-75920000D01*
X179654026Y-75915852D01*
X179619433Y-75905358D01*
X179587560Y-75888322D01*
X179559614Y-75865386D01*
X179536678Y-75837440D01*
X179519642Y-75805567D01*
X179509148Y-75770974D01*
X179505000Y-75728859D01*
X179505000Y-75071141D01*
X179509148Y-75029026D01*
X179519642Y-74994433D01*
X179536678Y-74962560D01*
X179559614Y-74934614D01*
X179587560Y-74911678D01*
X179619433Y-74894642D01*
X179654026Y-74884148D01*
X179696141Y-74880000D01*
X180303859Y-74880000D01*
X180345974Y-74884148D01*
X180345974Y-74884148D01*
G37*
G36*
X173768622Y-74593017D02*
G01*
X173816585Y-74607566D01*
X173860778Y-74631188D01*
X173899519Y-74662981D01*
X173931312Y-74701722D01*
X173954934Y-74745915D01*
X173969483Y-74793878D01*
X173975000Y-74849891D01*
X173975000Y-75600109D01*
X173969483Y-75656122D01*
X173954934Y-75704085D01*
X173931312Y-75748278D01*
X173899519Y-75787019D01*
X173860778Y-75818812D01*
X173816585Y-75842434D01*
X173768622Y-75856983D01*
X173712609Y-75862500D01*
X172887391Y-75862500D01*
X172831378Y-75856983D01*
X172783415Y-75842434D01*
X172739222Y-75818812D01*
X172700481Y-75787019D01*
X172668688Y-75748278D01*
X172645066Y-75704085D01*
X172630517Y-75656122D01*
X172625000Y-75600109D01*
X172625000Y-74849891D01*
X172630517Y-74793878D01*
X172645066Y-74745915D01*
X172668688Y-74701722D01*
X172700481Y-74662981D01*
X172739222Y-74631188D01*
X172783415Y-74607566D01*
X172831378Y-74593017D01*
X172887391Y-74587500D01*
X173712609Y-74587500D01*
X173768622Y-74593017D01*
X173768622Y-74593017D01*
G37*
G36*
X172280000Y-75860000D02*
G01*
X170990000Y-75860000D01*
X170990000Y-75020000D01*
X172280000Y-75020000D01*
X172280000Y-75860000D01*
X172280000Y-75860000D01*
G37*
G36*
X172280000Y-74580000D02*
G01*
X170990000Y-74580000D01*
X170990000Y-73740000D01*
X172280000Y-73740000D01*
X172280000Y-74580000D01*
X172280000Y-74580000D01*
G37*
G36*
X142449000Y-73908000D02*
G01*
X140699000Y-73908000D01*
X140699000Y-72158000D01*
X142449000Y-72158000D01*
X142449000Y-73908000D01*
X142449000Y-73908000D01*
G37*
G36*
X152449000Y-73908000D02*
G01*
X150699000Y-73908000D01*
X150699000Y-72158000D01*
X152449000Y-72158000D01*
X152449000Y-73908000D01*
X152449000Y-73908000D01*
G37*
G36*
X148449000Y-73908000D02*
G01*
X146699000Y-73908000D01*
X146699000Y-72158000D01*
X148449000Y-72158000D01*
X148449000Y-73908000D01*
X148449000Y-73908000D01*
G37*
G36*
X146449000Y-73908000D02*
G01*
X144699000Y-73908000D01*
X144699000Y-72158000D01*
X146449000Y-72158000D01*
X146449000Y-73908000D01*
X146449000Y-73908000D01*
G37*
G36*
X144449000Y-73908000D02*
G01*
X142699000Y-73908000D01*
X142699000Y-72158000D01*
X144449000Y-72158000D01*
X144449000Y-73908000D01*
X144449000Y-73908000D01*
G37*
G36*
X156449000Y-73908000D02*
G01*
X154699000Y-73908000D01*
X154699000Y-72158000D01*
X156449000Y-72158000D01*
X156449000Y-73908000D01*
X156449000Y-73908000D01*
G37*
G36*
X158449000Y-73908000D02*
G01*
X156699000Y-73908000D01*
X156699000Y-72158000D01*
X158449000Y-72158000D01*
X158449000Y-73908000D01*
X158449000Y-73908000D01*
G37*
G36*
X154449000Y-73908000D02*
G01*
X152699000Y-73908000D01*
X152699000Y-72158000D01*
X154449000Y-72158000D01*
X154449000Y-73908000D01*
X154449000Y-73908000D01*
G37*
G36*
X134449000Y-73908000D02*
G01*
X132699000Y-73908000D01*
X132699000Y-72158000D01*
X134449000Y-72158000D01*
X134449000Y-73908000D01*
X134449000Y-73908000D01*
G37*
G36*
X160449000Y-73908000D02*
G01*
X158699000Y-73908000D01*
X158699000Y-72158000D01*
X160449000Y-72158000D01*
X160449000Y-73908000D01*
X160449000Y-73908000D01*
G37*
G36*
X150449000Y-73908000D02*
G01*
X148699000Y-73908000D01*
X148699000Y-72158000D01*
X150449000Y-72158000D01*
X150449000Y-73908000D01*
X150449000Y-73908000D01*
G37*
G36*
X162449000Y-73908000D02*
G01*
X160699000Y-73908000D01*
X160699000Y-72158000D01*
X162449000Y-72158000D01*
X162449000Y-73908000D01*
X162449000Y-73908000D01*
G37*
G36*
X164449000Y-73908000D02*
G01*
X162699000Y-73908000D01*
X162699000Y-72158000D01*
X164449000Y-72158000D01*
X164449000Y-73908000D01*
X164449000Y-73908000D01*
G37*
G36*
X138449000Y-73908000D02*
G01*
X136699000Y-73908000D01*
X136699000Y-72158000D01*
X138449000Y-72158000D01*
X138449000Y-73908000D01*
X138449000Y-73908000D01*
G37*
G36*
X140449000Y-73908000D02*
G01*
X138699000Y-73908000D01*
X138699000Y-72158000D01*
X140449000Y-72158000D01*
X140449000Y-73908000D01*
X140449000Y-73908000D01*
G37*
G36*
X136449000Y-73908000D02*
G01*
X134699000Y-73908000D01*
X134699000Y-72158000D01*
X136449000Y-72158000D01*
X136449000Y-73908000D01*
X136449000Y-73908000D01*
G37*
G36*
X172280000Y-73310000D02*
G01*
X170990000Y-73310000D01*
X170990000Y-72470000D01*
X172280000Y-72470000D01*
X172280000Y-73310000D01*
X172280000Y-73310000D01*
G37*
G36*
X174462807Y-57371330D02*
G01*
X174791243Y-57436660D01*
X175153344Y-57586647D01*
X175361450Y-57672847D01*
X175410004Y-57692959D01*
X175553883Y-57789096D01*
X175966873Y-58065047D01*
X176440453Y-58538627D01*
X176625234Y-58815172D01*
X176800180Y-59076996D01*
X176812542Y-59095498D01*
X176848484Y-59182271D01*
X177068840Y-59714257D01*
X177199500Y-60371129D01*
X177199500Y-61040871D01*
X177068840Y-61697743D01*
X176812541Y-62316504D01*
X176440452Y-62873374D01*
X175966874Y-63346952D01*
X175410004Y-63719041D01*
X174791243Y-63975340D01*
X174462807Y-64040670D01*
X174134372Y-64106000D01*
X173464628Y-64106000D01*
X173136193Y-64040670D01*
X172807757Y-63975340D01*
X172188996Y-63719041D01*
X171632126Y-63346952D01*
X171158548Y-62873374D01*
X170786459Y-62316504D01*
X170530160Y-61697743D01*
X170399500Y-61040871D01*
X170399500Y-60371129D01*
X170530160Y-59714257D01*
X170750516Y-59182271D01*
X170786458Y-59095498D01*
X170798821Y-59076996D01*
X170973766Y-58815172D01*
X171158547Y-58538627D01*
X171632127Y-58065047D01*
X172045117Y-57789096D01*
X172188996Y-57692959D01*
X172237551Y-57672847D01*
X172445656Y-57586647D01*
X172807757Y-57436660D01*
X173136193Y-57371330D01*
X173464628Y-57306000D01*
X174134372Y-57306000D01*
X174462807Y-57371330D01*
X174462807Y-57371330D01*
G37*
G36*
X125504307Y-57371330D02*
G01*
X125832743Y-57436660D01*
X126194844Y-57586647D01*
X126402950Y-57672847D01*
X126451504Y-57692959D01*
X126595383Y-57789096D01*
X127008373Y-58065047D01*
X127481953Y-58538627D01*
X127666734Y-58815172D01*
X127841680Y-59076996D01*
X127854042Y-59095498D01*
X127889984Y-59182271D01*
X128110340Y-59714257D01*
X128241000Y-60371129D01*
X128241000Y-61040871D01*
X128110340Y-61697743D01*
X127854041Y-62316504D01*
X127481952Y-62873374D01*
X127008374Y-63346952D01*
X126451504Y-63719041D01*
X125832743Y-63975340D01*
X125504307Y-64040670D01*
X125175872Y-64106000D01*
X124506128Y-64106000D01*
X124177693Y-64040670D01*
X123849257Y-63975340D01*
X123230496Y-63719041D01*
X122673626Y-63346952D01*
X122200048Y-62873374D01*
X121827959Y-62316504D01*
X121571660Y-61697743D01*
X121441000Y-61040871D01*
X121441000Y-60371129D01*
X121571660Y-59714257D01*
X121792016Y-59182271D01*
X121827958Y-59095498D01*
X121840321Y-59076996D01*
X122015266Y-58815172D01*
X122200047Y-58538627D01*
X122673627Y-58065047D01*
X123086617Y-57789096D01*
X123230496Y-57692959D01*
X123279051Y-57672847D01*
X123487156Y-57586647D01*
X123849257Y-57436660D01*
X124177693Y-57371330D01*
X124506128Y-57306000D01*
X125175872Y-57306000D01*
X125504307Y-57371330D01*
X125504307Y-57371330D01*
G37*
G36*
X114099656Y-60986964D02*
G01*
X114178659Y-61010929D01*
X114251466Y-61049846D01*
X114315282Y-61102218D01*
X114367654Y-61166034D01*
X114406571Y-61238841D01*
X114430536Y-61317844D01*
X114438627Y-61400000D01*
X114430536Y-61482156D01*
X114406571Y-61561159D01*
X114367654Y-61633966D01*
X114315282Y-61697782D01*
X114251466Y-61750154D01*
X114178659Y-61789071D01*
X114099656Y-61813036D01*
X114038084Y-61819100D01*
X113361916Y-61819100D01*
X113300344Y-61813036D01*
X113221341Y-61789071D01*
X113148534Y-61750154D01*
X113084718Y-61697782D01*
X113032346Y-61633966D01*
X112993429Y-61561159D01*
X112969464Y-61482156D01*
X112961373Y-61400000D01*
X112969464Y-61317844D01*
X112993429Y-61238841D01*
X113032346Y-61166034D01*
X113084718Y-61102218D01*
X113148534Y-61049846D01*
X113221341Y-61010929D01*
X113300344Y-60986964D01*
X113361916Y-60980900D01*
X114038084Y-60980900D01*
X114099656Y-60986964D01*
X114099656Y-60986964D01*
G37*
G36*
X119674656Y-60986964D02*
G01*
X119753659Y-61010929D01*
X119826466Y-61049846D01*
X119890282Y-61102218D01*
X119942654Y-61166034D01*
X119981571Y-61238841D01*
X120005536Y-61317844D01*
X120013627Y-61400000D01*
X120005536Y-61482156D01*
X119981571Y-61561159D01*
X119942654Y-61633966D01*
X119890282Y-61697782D01*
X119826466Y-61750154D01*
X119753659Y-61789071D01*
X119674656Y-61813036D01*
X119613084Y-61819100D01*
X118936916Y-61819100D01*
X118875344Y-61813036D01*
X118796341Y-61789071D01*
X118723534Y-61750154D01*
X118659718Y-61697782D01*
X118607346Y-61633966D01*
X118568429Y-61561159D01*
X118544464Y-61482156D01*
X118536373Y-61400000D01*
X118544464Y-61317844D01*
X118568429Y-61238841D01*
X118607346Y-61166034D01*
X118659718Y-61102218D01*
X118723534Y-61049846D01*
X118796341Y-61010929D01*
X118875344Y-60986964D01*
X118936916Y-60980900D01*
X119613084Y-60980900D01*
X119674656Y-60986964D01*
X119674656Y-60986964D01*
G37*
G36*
X183339028Y-59088841D02*
G01*
X183458187Y-59112543D01*
X183626526Y-59182271D01*
X183778027Y-59283501D01*
X183906869Y-59412343D01*
X184008099Y-59563844D01*
X184077827Y-59732183D01*
X184113374Y-59910891D01*
X184113374Y-60093101D01*
X184077827Y-60271809D01*
X184008099Y-60440148D01*
X183906869Y-60591649D01*
X183778027Y-60720491D01*
X183626526Y-60821721D01*
X183458187Y-60891449D01*
X183339048Y-60915147D01*
X183279480Y-60926996D01*
X183097268Y-60926996D01*
X183037700Y-60915147D01*
X182918561Y-60891449D01*
X182750222Y-60821721D01*
X182598721Y-60720491D01*
X182469879Y-60591649D01*
X182368649Y-60440148D01*
X182298921Y-60271809D01*
X182263374Y-60093101D01*
X182263374Y-59910891D01*
X182298921Y-59732183D01*
X182368649Y-59563844D01*
X182469879Y-59412343D01*
X182598721Y-59283501D01*
X182750222Y-59182271D01*
X182918561Y-59112543D01*
X183037720Y-59088841D01*
X183097268Y-59076996D01*
X183279480Y-59076996D01*
X183339028Y-59088841D01*
X183339028Y-59088841D01*
G37*
G36*
X116899656Y-58836964D02*
G01*
X116978659Y-58860929D01*
X117051466Y-58899846D01*
X117115282Y-58952218D01*
X117167654Y-59016034D01*
X117206571Y-59088841D01*
X117230536Y-59167844D01*
X117238627Y-59250000D01*
X117230536Y-59332156D01*
X117206571Y-59411159D01*
X117167654Y-59483966D01*
X117115282Y-59547782D01*
X117051466Y-59600154D01*
X116978659Y-59639071D01*
X116899656Y-59663036D01*
X116838084Y-59669100D01*
X116161916Y-59669100D01*
X116100344Y-59663036D01*
X116021341Y-59639071D01*
X115948534Y-59600154D01*
X115884718Y-59547782D01*
X115832346Y-59483966D01*
X115793429Y-59411159D01*
X115769464Y-59332156D01*
X115761373Y-59250000D01*
X115769464Y-59167844D01*
X115793429Y-59088841D01*
X115832346Y-59016034D01*
X115884718Y-58952218D01*
X115948534Y-58899846D01*
X116021341Y-58860929D01*
X116100344Y-58836964D01*
X116161916Y-58830900D01*
X116838084Y-58830900D01*
X116899656Y-58836964D01*
X116899656Y-58836964D01*
G37*
G36*
X186046505Y-57414550D02*
G01*
X186113330Y-57439702D01*
X186193993Y-57470061D01*
X186327815Y-57553277D01*
X186327817Y-57553279D01*
X186327819Y-57553280D01*
X186442830Y-57661000D01*
X186534623Y-57789096D01*
X186599657Y-57932631D01*
X186635442Y-58086105D01*
X186640598Y-58243607D01*
X186614929Y-58399087D01*
X186559420Y-58546569D01*
X186497049Y-58646871D01*
X186034250Y-59250000D01*
X186023078Y-59264559D01*
X185942344Y-59350758D01*
X185895775Y-59384129D01*
X185814249Y-59442550D01*
X185670714Y-59507584D01*
X185670710Y-59507585D01*
X185517241Y-59543369D01*
X185359741Y-59548525D01*
X185359739Y-59548525D01*
X185204259Y-59522856D01*
X185056773Y-59467345D01*
X184922950Y-59384129D01*
X184807936Y-59276406D01*
X184789014Y-59250000D01*
X184716144Y-59148311D01*
X184716143Y-59148310D01*
X184651109Y-59004775D01*
X184615324Y-58851301D01*
X184610168Y-58693800D01*
X184635837Y-58538320D01*
X184691348Y-58390834D01*
X184753712Y-58290544D01*
X184910584Y-58086105D01*
X185028348Y-57932631D01*
X185227686Y-57672849D01*
X185238784Y-57661000D01*
X185308422Y-57586648D01*
X185436515Y-57494857D01*
X185580055Y-57429821D01*
X185733524Y-57394037D01*
X185891025Y-57388881D01*
X185891027Y-57388881D01*
X186046505Y-57414550D01*
X186046505Y-57414550D01*
G37*
G36*
X179372281Y-56045038D02*
G01*
X179491420Y-56068736D01*
X179659759Y-56138464D01*
X179811260Y-56239694D01*
X179940102Y-56368536D01*
X180041332Y-56520037D01*
X180111060Y-56688376D01*
X180146607Y-56867084D01*
X180146607Y-57049294D01*
X180111060Y-57228002D01*
X180041332Y-57396341D01*
X179940102Y-57547842D01*
X179811260Y-57676684D01*
X179659759Y-57777914D01*
X179491420Y-57847642D01*
X179372281Y-57871340D01*
X179312713Y-57883189D01*
X179130501Y-57883189D01*
X179070933Y-57871340D01*
X178951794Y-57847642D01*
X178783455Y-57777914D01*
X178631954Y-57676684D01*
X178503112Y-57547842D01*
X178401882Y-57396341D01*
X178332154Y-57228002D01*
X178296607Y-57049294D01*
X178296607Y-56867084D01*
X178332154Y-56688376D01*
X178401882Y-56520037D01*
X178503112Y-56368536D01*
X178631954Y-56239694D01*
X178783455Y-56138464D01*
X178951794Y-56068736D01*
X179070933Y-56045038D01*
X179130501Y-56033189D01*
X179312713Y-56033189D01*
X179372281Y-56045038D01*
X179372281Y-56045038D01*
G37*
G36*
X180493032Y-53153220D02*
G01*
X180559857Y-53178372D01*
X180640520Y-53208731D01*
X180774342Y-53291947D01*
X180774344Y-53291949D01*
X180774346Y-53291950D01*
X180889357Y-53399670D01*
X180981150Y-53527766D01*
X181046184Y-53671301D01*
X181081969Y-53824775D01*
X181087125Y-53982277D01*
X181061456Y-54137757D01*
X181005947Y-54285239D01*
X180943576Y-54385541D01*
X180558806Y-54886981D01*
X180469605Y-55003229D01*
X180388871Y-55089428D01*
X180342302Y-55122799D01*
X180260776Y-55181220D01*
X180117241Y-55246254D01*
X180117237Y-55246255D01*
X179963768Y-55282039D01*
X179806268Y-55287195D01*
X179806266Y-55287195D01*
X179650786Y-55261526D01*
X179503300Y-55206015D01*
X179369477Y-55122799D01*
X179254463Y-55015076D01*
X179162670Y-54886980D01*
X179097636Y-54743445D01*
X179061851Y-54589971D01*
X179056695Y-54432470D01*
X179082364Y-54276990D01*
X179137875Y-54129504D01*
X179200239Y-54029214D01*
X179357111Y-53824775D01*
X179585014Y-53527766D01*
X179674213Y-53411519D01*
X179685311Y-53399670D01*
X179754949Y-53325318D01*
X179883042Y-53233527D01*
X180026582Y-53168491D01*
X180180051Y-53132707D01*
X180337552Y-53127551D01*
X180337554Y-53127551D01*
X180493032Y-53153220D01*
X180493032Y-53153220D01*
G37*
G36*
X164449000Y-49508000D02*
G01*
X162699000Y-49508000D01*
X162699000Y-47758000D01*
X164449000Y-47758000D01*
X164449000Y-49508000D01*
X164449000Y-49508000D01*
G37*
G36*
X150449000Y-49508000D02*
G01*
X148699000Y-49508000D01*
X148699000Y-47758000D01*
X150449000Y-47758000D01*
X150449000Y-49508000D01*
X150449000Y-49508000D01*
G37*
G36*
X152449000Y-49508000D02*
G01*
X150699000Y-49508000D01*
X150699000Y-47758000D01*
X152449000Y-47758000D01*
X152449000Y-49508000D01*
X152449000Y-49508000D01*
G37*
G36*
X134449000Y-49508000D02*
G01*
X132699000Y-49508000D01*
X132699000Y-47758000D01*
X134449000Y-47758000D01*
X134449000Y-49508000D01*
X134449000Y-49508000D01*
G37*
G36*
X136449000Y-49508000D02*
G01*
X134699000Y-49508000D01*
X134699000Y-47758000D01*
X136449000Y-47758000D01*
X136449000Y-49508000D01*
X136449000Y-49508000D01*
G37*
G36*
X138449000Y-49508000D02*
G01*
X136699000Y-49508000D01*
X136699000Y-47758000D01*
X138449000Y-47758000D01*
X138449000Y-49508000D01*
X138449000Y-49508000D01*
G37*
G36*
X140449000Y-49508000D02*
G01*
X138699000Y-49508000D01*
X138699000Y-47758000D01*
X140449000Y-47758000D01*
X140449000Y-49508000D01*
X140449000Y-49508000D01*
G37*
G36*
X142449000Y-49508000D02*
G01*
X140699000Y-49508000D01*
X140699000Y-47758000D01*
X142449000Y-47758000D01*
X142449000Y-49508000D01*
X142449000Y-49508000D01*
G37*
G36*
X146449000Y-49508000D02*
G01*
X144699000Y-49508000D01*
X144699000Y-47758000D01*
X146449000Y-47758000D01*
X146449000Y-49508000D01*
X146449000Y-49508000D01*
G37*
G36*
X144449000Y-49508000D02*
G01*
X142699000Y-49508000D01*
X142699000Y-47758000D01*
X144449000Y-47758000D01*
X144449000Y-49508000D01*
X144449000Y-49508000D01*
G37*
G36*
X148449000Y-49508000D02*
G01*
X146699000Y-49508000D01*
X146699000Y-47758000D01*
X148449000Y-47758000D01*
X148449000Y-49508000D01*
X148449000Y-49508000D01*
G37*
G36*
X160449000Y-49508000D02*
G01*
X158699000Y-49508000D01*
X158699000Y-47758000D01*
X160449000Y-47758000D01*
X160449000Y-49508000D01*
X160449000Y-49508000D01*
G37*
G36*
X158449000Y-49508000D02*
G01*
X156699000Y-49508000D01*
X156699000Y-47758000D01*
X158449000Y-47758000D01*
X158449000Y-49508000D01*
X158449000Y-49508000D01*
G37*
G36*
X156449000Y-49508000D02*
G01*
X154699000Y-49508000D01*
X154699000Y-47758000D01*
X156449000Y-47758000D01*
X156449000Y-49508000D01*
X156449000Y-49508000D01*
G37*
G36*
X154449000Y-49508000D02*
G01*
X152699000Y-49508000D01*
X152699000Y-47758000D01*
X154449000Y-47758000D01*
X154449000Y-49508000D01*
X154449000Y-49508000D01*
G37*
G36*
X162449000Y-49508000D02*
G01*
X160699000Y-49508000D01*
X160699000Y-47758000D01*
X162449000Y-47758000D01*
X162449000Y-49508000D01*
X162449000Y-49508000D01*
G37*
M02*
