G04 #@! TF.GenerationSoftware,KiCad,Pcbnew,6.0.0-rc1-unknown-3eb3db0~66~ubuntu18.04.1*
G04 #@! TF.CreationDate,2018-08-10T16:09:31-07:00*
G04 #@! TF.ProjectId,main_board_onion,6D61696E5F626F6172645F6F6E696F6E,rev?*
G04 #@! TF.SameCoordinates,Original*
G04 #@! TF.FileFunction,Legend,Bot*
G04 #@! TF.FilePolarity,Positive*
%FSLAX46Y46*%
G04 Gerber Fmt 4.6, Leading zero omitted, Abs format (unit mm)*
G04 Created by KiCad (PCBNEW 6.0.0-rc1-unknown-3eb3db0~66~ubuntu18.04.1) date Fri Aug 10 16:09:31 2018*
%MOMM*%
%LPD*%
G01*
G04 APERTURE LIST*
%ADD10C,0.120000*%
%ADD11C,0.150000*%
G04 APERTURE END LIST*
D10*
G04 #@! TO.C,JP1*
X175343736Y-83570400D02*
X176547864Y-83570400D01*
X175343736Y-85390400D02*
X176547864Y-85390400D01*
G04 #@! TO.C,C3*
X171448000Y-88838921D02*
X171448000Y-89164479D01*
X172468000Y-88838921D02*
X172468000Y-89164479D01*
G04 #@! TO.C,C4*
X171358679Y-87124000D02*
X171033121Y-87124000D01*
X171358679Y-86104000D02*
X171033121Y-86104000D01*
G04 #@! TO.C,J2*
X193448400Y-91507000D02*
X193448400Y-94357000D01*
X190598400Y-91507000D02*
X193448400Y-91507000D01*
X188588400Y-102967000D02*
X190398400Y-102967000D01*
X188588400Y-101567000D02*
X188588400Y-102967000D01*
X187588400Y-101567000D02*
X188588400Y-101567000D01*
X187588400Y-91747000D02*
X187588400Y-101567000D01*
X190398400Y-91747000D02*
X187588400Y-91747000D01*
X192208400Y-102967000D02*
X190398400Y-102967000D01*
X192208400Y-101567000D02*
X192208400Y-102967000D01*
X193208400Y-101567000D02*
X192208400Y-101567000D01*
X193208400Y-91747000D02*
X193208400Y-101567000D01*
X190398400Y-91747000D02*
X193208400Y-91747000D01*
G04 #@! TO.C,J3*
X187323000Y-89976000D02*
X187323000Y-87126000D01*
X190173000Y-89976000D02*
X187323000Y-89976000D01*
X192183000Y-78516000D02*
X190373000Y-78516000D01*
X192183000Y-79916000D02*
X192183000Y-78516000D01*
X193183000Y-79916000D02*
X192183000Y-79916000D01*
X193183000Y-89736000D02*
X193183000Y-79916000D01*
X190373000Y-89736000D02*
X193183000Y-89736000D01*
X188563000Y-78516000D02*
X190373000Y-78516000D01*
X188563000Y-79916000D02*
X188563000Y-78516000D01*
X187563000Y-79916000D02*
X188563000Y-79916000D01*
X187563000Y-89736000D02*
X187563000Y-79916000D01*
X190373000Y-89736000D02*
X187563000Y-89736000D01*
G04 #@! TO.C,J4*
X111254000Y-91532400D02*
X111254000Y-94382400D01*
X108404000Y-91532400D02*
X111254000Y-91532400D01*
X106394000Y-102992400D02*
X108204000Y-102992400D01*
X106394000Y-101592400D02*
X106394000Y-102992400D01*
X105394000Y-101592400D02*
X106394000Y-101592400D01*
X105394000Y-91772400D02*
X105394000Y-101592400D01*
X108204000Y-91772400D02*
X105394000Y-91772400D01*
X110014000Y-102992400D02*
X108204000Y-102992400D01*
X110014000Y-101592400D02*
X110014000Y-102992400D01*
X111014000Y-101592400D02*
X110014000Y-101592400D01*
X111014000Y-91772400D02*
X111014000Y-101592400D01*
X108204000Y-91772400D02*
X111014000Y-91772400D01*
G04 #@! TO.C,J5*
X108204000Y-89736000D02*
X105394000Y-89736000D01*
X105394000Y-89736000D02*
X105394000Y-79916000D01*
X105394000Y-79916000D02*
X106394000Y-79916000D01*
X106394000Y-79916000D02*
X106394000Y-78516000D01*
X106394000Y-78516000D02*
X108204000Y-78516000D01*
X108204000Y-89736000D02*
X111014000Y-89736000D01*
X111014000Y-89736000D02*
X111014000Y-79916000D01*
X111014000Y-79916000D02*
X110014000Y-79916000D01*
X110014000Y-79916000D02*
X110014000Y-78516000D01*
X110014000Y-78516000D02*
X108204000Y-78516000D01*
X108004000Y-89976000D02*
X105154000Y-89976000D01*
X105154000Y-89976000D02*
X105154000Y-87126000D01*
D11*
G04 #@! TO.C,J16*
X116442021Y-69591238D02*
X131571073Y-75097762D01*
X111448527Y-83310750D02*
X116442021Y-69591238D01*
X126577579Y-88817274D02*
X111448527Y-83310750D01*
X131571073Y-75097762D02*
X126577579Y-88817274D01*
D10*
G04 #@! TO.C,C1*
X171397200Y-95823821D02*
X171397200Y-96149379D01*
X172417200Y-95823821D02*
X172417200Y-96149379D01*
G04 #@! TO.C,C13*
X150001800Y-120385621D02*
X150001800Y-120711179D01*
X148981800Y-120385621D02*
X148981800Y-120711179D01*
G04 #@! TO.C,C14*
X146886300Y-120322121D02*
X146886300Y-120647679D01*
X147906300Y-120322121D02*
X147906300Y-120647679D01*
G04 #@! TO.C,C15*
X123065000Y-106783821D02*
X123065000Y-107109379D01*
X122045000Y-106783821D02*
X122045000Y-107109379D01*
G04 #@! TO.C,C16*
X116702300Y-106834721D02*
X116702300Y-107160279D01*
X115682300Y-106834721D02*
X115682300Y-107160279D01*
G04 #@! TO.C,J11*
X135141880Y-103320527D02*
X133992625Y-99982847D01*
X129024375Y-105426953D02*
X127875120Y-102089273D01*
X135511799Y-104594501D02*
X135080422Y-103341689D01*
X135141880Y-103320527D02*
X135080422Y-103341689D01*
X133992625Y-99982847D02*
X133931166Y-100004009D01*
X129085834Y-105405791D02*
X129024375Y-105426953D01*
X127936578Y-102068111D02*
X127875120Y-102089273D01*
G04 #@! TO.C,J12*
X171787158Y-100969972D02*
X170695084Y-100593941D01*
X171136022Y-102861009D02*
X171787158Y-100969972D01*
X179295847Y-105670663D02*
X171136022Y-102861009D01*
X179946984Y-103779625D02*
X179295847Y-105670663D01*
X181039058Y-104155657D02*
X179946984Y-103779625D01*
X167677792Y-106239167D02*
X169734295Y-106947278D01*
X169022389Y-102334175D02*
X167677792Y-106239167D01*
X177884665Y-109753675D02*
X177754438Y-110131882D01*
X179941168Y-110461786D02*
X177884665Y-109753675D01*
X181285765Y-106556794D02*
X179941168Y-110461786D01*
G04 #@! TO.C,J14*
X170847067Y-78228673D02*
X169502470Y-74323681D01*
X169502470Y-74323681D02*
X171558973Y-73615570D01*
X171558973Y-73615570D02*
X171428746Y-73237363D01*
X180273887Y-74982758D02*
X178929290Y-71077766D01*
X178929290Y-71077766D02*
X176872787Y-71785877D01*
X172519762Y-79968907D02*
X173611836Y-79592875D01*
X173611836Y-79592875D02*
X172960700Y-77701838D01*
X172960700Y-77701838D02*
X178283969Y-75868890D01*
X178283969Y-75868890D02*
X178935106Y-77759927D01*
X178935106Y-77759927D02*
X180027180Y-77383896D01*
G04 #@! TO.C,JP3*
X150620900Y-120277122D02*
X150620900Y-120794278D01*
X152040900Y-120277122D02*
X152040900Y-120794278D01*
G04 #@! TO.C,R2*
X167942800Y-88351479D02*
X167942800Y-88025921D01*
X168962800Y-88351479D02*
X168962800Y-88025921D01*
G04 #@! TO.C,R5*
X173695319Y-111635450D02*
X173801310Y-111327629D01*
X172730890Y-111303371D02*
X172836881Y-110995550D01*
G04 #@! TO.C,R7*
X174686690Y-111976471D02*
X174792681Y-111668650D01*
X175651119Y-112308550D02*
X175757110Y-112000729D01*
G04 #@! TO.C,R10*
X123315000Y-103947079D02*
X123315000Y-103621521D01*
X124335000Y-103947079D02*
X124335000Y-103621521D01*
G04 #@! TO.C,R11*
X114425000Y-103985179D02*
X114425000Y-103659621D01*
X115445000Y-103985179D02*
X115445000Y-103659621D01*
G04 #@! TO.C,R12*
X121820400Y-103972479D02*
X121820400Y-103646921D01*
X120800400Y-103972479D02*
X120800400Y-103646921D01*
G04 #@! TO.C,R13*
X117985000Y-103985379D02*
X117985000Y-103659821D01*
X116965000Y-103985379D02*
X116965000Y-103659821D01*
D11*
G04 #@! TO.C,U4*
X125955000Y-99937800D02*
X124430000Y-99937800D01*
X125955000Y-92187800D02*
X124350000Y-92187800D01*
X112805000Y-92187800D02*
X114410000Y-92187800D01*
X112805000Y-99937800D02*
X114410000Y-99937800D01*
X125955000Y-99937800D02*
X125955000Y-92187800D01*
X112805000Y-99937800D02*
X112805000Y-92187800D01*
X124430000Y-99937800D02*
X124430000Y-101462800D01*
D10*
G04 #@! TO.C,Y1*
X149156100Y-118248400D02*
X147806100Y-118248400D01*
X149156100Y-116498400D02*
X147806100Y-116498400D01*
G04 #@! TO.C,R22*
X167917300Y-94249021D02*
X167917300Y-94574579D01*
X168937300Y-94249021D02*
X168937300Y-94574579D01*
G04 #@! TO.C,C28*
X169619100Y-95823821D02*
X169619100Y-96149379D01*
X170639100Y-95823821D02*
X170639100Y-96149379D01*
G04 #@! TO.C,C29*
X168962800Y-91226321D02*
X168962800Y-91551879D01*
X167942800Y-91226321D02*
X167942800Y-91551879D01*
G04 #@! TO.C,C30*
X171454578Y-84024400D02*
X170937422Y-84024400D01*
X171454578Y-85444400D02*
X170937422Y-85444400D01*
D11*
G04 #@! TO.C,U1*
X177390600Y-86389200D02*
X177390600Y-96389200D01*
X177390600Y-96389200D02*
X187245600Y-96389200D01*
X187245600Y-96389200D02*
X187245600Y-86389200D01*
X187245600Y-86389200D02*
X177390600Y-86389200D01*
D10*
G04 #@! TO.C,R1*
X169796900Y-88864221D02*
X169796900Y-89189779D01*
X170816900Y-88864221D02*
X170816900Y-89189779D01*
G04 #@! TO.C,JP1*
D11*
X176779133Y-85752780D02*
X176779133Y-86467066D01*
X176826752Y-86609923D01*
X176921990Y-86705161D01*
X177064847Y-86752780D01*
X177160085Y-86752780D01*
X176302942Y-86752780D02*
X176302942Y-85752780D01*
X175921990Y-85752780D01*
X175826752Y-85800400D01*
X175779133Y-85848019D01*
X175731514Y-85943257D01*
X175731514Y-86086114D01*
X175779133Y-86181352D01*
X175826752Y-86228971D01*
X175921990Y-86276590D01*
X176302942Y-86276590D01*
X174779133Y-86752780D02*
X175350561Y-86752780D01*
X175064847Y-86752780D02*
X175064847Y-85752780D01*
X175160085Y-85895638D01*
X175255323Y-85990876D01*
X175350561Y-86038495D01*
G04 #@! TO.C,C3*
X170885142Y-88835033D02*
X170932761Y-88787414D01*
X170980380Y-88644557D01*
X170980380Y-88549319D01*
X170932761Y-88406461D01*
X170837523Y-88311223D01*
X170742285Y-88263604D01*
X170551809Y-88215985D01*
X170408952Y-88215985D01*
X170218476Y-88263604D01*
X170123238Y-88311223D01*
X170028000Y-88406461D01*
X169980380Y-88549319D01*
X169980380Y-88644557D01*
X170028000Y-88787414D01*
X170075619Y-88835033D01*
X169980380Y-89168366D02*
X169980380Y-89787414D01*
X170361333Y-89454080D01*
X170361333Y-89596938D01*
X170408952Y-89692176D01*
X170456571Y-89739795D01*
X170551809Y-89787414D01*
X170789904Y-89787414D01*
X170885142Y-89739795D01*
X170932761Y-89692176D01*
X170980380Y-89596938D01*
X170980380Y-89311223D01*
X170932761Y-89215985D01*
X170885142Y-89168366D01*
G04 #@! TO.C,C4*
X171362566Y-85541142D02*
X171410185Y-85588761D01*
X171553042Y-85636380D01*
X171648280Y-85636380D01*
X171791138Y-85588761D01*
X171886376Y-85493523D01*
X171933995Y-85398285D01*
X171981614Y-85207809D01*
X171981614Y-85064952D01*
X171933995Y-84874476D01*
X171886376Y-84779238D01*
X171791138Y-84684000D01*
X171648280Y-84636380D01*
X171553042Y-84636380D01*
X171410185Y-84684000D01*
X171362566Y-84731619D01*
X170505423Y-84969714D02*
X170505423Y-85636380D01*
X170743519Y-84588761D02*
X170981614Y-85303047D01*
X170362566Y-85303047D01*
G04 #@! TO.C,J2*
X190731733Y-103559380D02*
X190731733Y-104273666D01*
X190779352Y-104416523D01*
X190874590Y-104511761D01*
X191017447Y-104559380D01*
X191112685Y-104559380D01*
X190303161Y-103654619D02*
X190255542Y-103607000D01*
X190160304Y-103559380D01*
X189922209Y-103559380D01*
X189826971Y-103607000D01*
X189779352Y-103654619D01*
X189731733Y-103749857D01*
X189731733Y-103845095D01*
X189779352Y-103987952D01*
X190350780Y-104559380D01*
X189731733Y-104559380D01*
G04 #@! TO.C,J3*
X190706333Y-76828380D02*
X190706333Y-77542666D01*
X190753952Y-77685523D01*
X190849190Y-77780761D01*
X190992047Y-77828380D01*
X191087285Y-77828380D01*
X190325380Y-76828380D02*
X189706333Y-76828380D01*
X190039666Y-77209333D01*
X189896809Y-77209333D01*
X189801571Y-77256952D01*
X189753952Y-77304571D01*
X189706333Y-77399809D01*
X189706333Y-77637904D01*
X189753952Y-77733142D01*
X189801571Y-77780761D01*
X189896809Y-77828380D01*
X190182523Y-77828380D01*
X190277761Y-77780761D01*
X190325380Y-77733142D01*
G04 #@! TO.C,J4*
X108537333Y-103584780D02*
X108537333Y-104299066D01*
X108584952Y-104441923D01*
X108680190Y-104537161D01*
X108823047Y-104584780D01*
X108918285Y-104584780D01*
X107632571Y-103918114D02*
X107632571Y-104584780D01*
X107870666Y-103537161D02*
X108108761Y-104251447D01*
X107489714Y-104251447D01*
G04 #@! TO.C,J5*
X108537333Y-76828380D02*
X108537333Y-77542666D01*
X108584952Y-77685523D01*
X108680190Y-77780761D01*
X108823047Y-77828380D01*
X108918285Y-77828380D01*
X107584952Y-76828380D02*
X108061142Y-76828380D01*
X108108761Y-77304571D01*
X108061142Y-77256952D01*
X107965904Y-77209333D01*
X107727809Y-77209333D01*
X107632571Y-77256952D01*
X107584952Y-77304571D01*
X107537333Y-77399809D01*
X107537333Y-77637904D01*
X107584952Y-77733142D01*
X107632571Y-77780761D01*
X107727809Y-77828380D01*
X107965904Y-77828380D01*
X108061142Y-77780761D01*
X108108761Y-77733142D01*
G04 #@! TO.C,C1*
X170834342Y-95819933D02*
X170881961Y-95772314D01*
X170929580Y-95629457D01*
X170929580Y-95534219D01*
X170881961Y-95391361D01*
X170786723Y-95296123D01*
X170691485Y-95248504D01*
X170501009Y-95200885D01*
X170358152Y-95200885D01*
X170167676Y-95248504D01*
X170072438Y-95296123D01*
X169977200Y-95391361D01*
X169929580Y-95534219D01*
X169929580Y-95629457D01*
X169977200Y-95772314D01*
X170024819Y-95819933D01*
X170929580Y-96772314D02*
X170929580Y-96200885D01*
X170929580Y-96486600D02*
X169929580Y-96486600D01*
X170072438Y-96391361D01*
X170167676Y-96296123D01*
X170215295Y-96200885D01*
G04 #@! TO.C,C13*
X148418942Y-119905542D02*
X148466561Y-119857923D01*
X148514180Y-119715066D01*
X148514180Y-119619828D01*
X148466561Y-119476971D01*
X148371323Y-119381733D01*
X148276085Y-119334114D01*
X148085609Y-119286495D01*
X147942752Y-119286495D01*
X147752276Y-119334114D01*
X147657038Y-119381733D01*
X147561800Y-119476971D01*
X147514180Y-119619828D01*
X147514180Y-119715066D01*
X147561800Y-119857923D01*
X147609419Y-119905542D01*
X148514180Y-120857923D02*
X148514180Y-120286495D01*
X148514180Y-120572209D02*
X147514180Y-120572209D01*
X147657038Y-120476971D01*
X147752276Y-120381733D01*
X147799895Y-120286495D01*
X147514180Y-121191257D02*
X147514180Y-121810304D01*
X147895133Y-121476971D01*
X147895133Y-121619828D01*
X147942752Y-121715066D01*
X147990371Y-121762685D01*
X148085609Y-121810304D01*
X148323704Y-121810304D01*
X148418942Y-121762685D01*
X148466561Y-121715066D01*
X148514180Y-121619828D01*
X148514180Y-121334114D01*
X148466561Y-121238876D01*
X148418942Y-121191257D01*
G04 #@! TO.C,C14*
X146323442Y-119842042D02*
X146371061Y-119794423D01*
X146418680Y-119651566D01*
X146418680Y-119556328D01*
X146371061Y-119413471D01*
X146275823Y-119318233D01*
X146180585Y-119270614D01*
X145990109Y-119222995D01*
X145847252Y-119222995D01*
X145656776Y-119270614D01*
X145561538Y-119318233D01*
X145466300Y-119413471D01*
X145418680Y-119556328D01*
X145418680Y-119651566D01*
X145466300Y-119794423D01*
X145513919Y-119842042D01*
X146418680Y-120794423D02*
X146418680Y-120222995D01*
X146418680Y-120508709D02*
X145418680Y-120508709D01*
X145561538Y-120413471D01*
X145656776Y-120318233D01*
X145704395Y-120222995D01*
X145752014Y-121651566D02*
X146418680Y-121651566D01*
X145371061Y-121413471D02*
X146085347Y-121175376D01*
X146085347Y-121794423D01*
G04 #@! TO.C,C15*
X121482142Y-106303742D02*
X121529761Y-106256123D01*
X121577380Y-106113266D01*
X121577380Y-106018028D01*
X121529761Y-105875171D01*
X121434523Y-105779933D01*
X121339285Y-105732314D01*
X121148809Y-105684695D01*
X121005952Y-105684695D01*
X120815476Y-105732314D01*
X120720238Y-105779933D01*
X120625000Y-105875171D01*
X120577380Y-106018028D01*
X120577380Y-106113266D01*
X120625000Y-106256123D01*
X120672619Y-106303742D01*
X121577380Y-107256123D02*
X121577380Y-106684695D01*
X121577380Y-106970409D02*
X120577380Y-106970409D01*
X120720238Y-106875171D01*
X120815476Y-106779933D01*
X120863095Y-106684695D01*
X120577380Y-108160885D02*
X120577380Y-107684695D01*
X121053571Y-107637076D01*
X121005952Y-107684695D01*
X120958333Y-107779933D01*
X120958333Y-108018028D01*
X121005952Y-108113266D01*
X121053571Y-108160885D01*
X121148809Y-108208504D01*
X121386904Y-108208504D01*
X121482142Y-108160885D01*
X121529761Y-108113266D01*
X121577380Y-108018028D01*
X121577380Y-107779933D01*
X121529761Y-107684695D01*
X121482142Y-107637076D01*
G04 #@! TO.C,C16*
X115119442Y-106354642D02*
X115167061Y-106307023D01*
X115214680Y-106164166D01*
X115214680Y-106068928D01*
X115167061Y-105926071D01*
X115071823Y-105830833D01*
X114976585Y-105783214D01*
X114786109Y-105735595D01*
X114643252Y-105735595D01*
X114452776Y-105783214D01*
X114357538Y-105830833D01*
X114262300Y-105926071D01*
X114214680Y-106068928D01*
X114214680Y-106164166D01*
X114262300Y-106307023D01*
X114309919Y-106354642D01*
X115214680Y-107307023D02*
X115214680Y-106735595D01*
X115214680Y-107021309D02*
X114214680Y-107021309D01*
X114357538Y-106926071D01*
X114452776Y-106830833D01*
X114500395Y-106735595D01*
X114214680Y-108164166D02*
X114214680Y-107973690D01*
X114262300Y-107878452D01*
X114309919Y-107830833D01*
X114452776Y-107735595D01*
X114643252Y-107687976D01*
X115024204Y-107687976D01*
X115119442Y-107735595D01*
X115167061Y-107783214D01*
X115214680Y-107878452D01*
X115214680Y-108068928D01*
X115167061Y-108164166D01*
X115119442Y-108211785D01*
X115024204Y-108259404D01*
X114786109Y-108259404D01*
X114690871Y-108211785D01*
X114643252Y-108164166D01*
X114595633Y-108068928D01*
X114595633Y-107878452D01*
X114643252Y-107783214D01*
X114690871Y-107735595D01*
X114786109Y-107687976D01*
G04 #@! TO.C,J11*
X136294110Y-101913251D02*
X135618739Y-102145800D01*
X135499168Y-102237334D01*
X135440126Y-102358390D01*
X135441611Y-102508967D01*
X135472617Y-102599017D01*
X135023023Y-101293301D02*
X135209062Y-101833597D01*
X135116042Y-101563449D02*
X136061561Y-101237881D01*
X135957493Y-101374440D01*
X135898450Y-101495496D01*
X135884432Y-101601048D01*
X134712958Y-100392807D02*
X134898997Y-100933103D01*
X134805977Y-100662955D02*
X135751496Y-100337387D01*
X135647428Y-100473946D01*
X135588386Y-100595002D01*
X135574367Y-100700554D01*
G04 #@! TO.C,J12*
X177167275Y-101085227D02*
X176934726Y-101760597D01*
X176933241Y-101911174D01*
X176992284Y-102032230D01*
X177111855Y-102123765D01*
X177201904Y-102154771D01*
X175896188Y-101705177D02*
X176436484Y-101891216D01*
X176166336Y-101798197D02*
X176491904Y-100852678D01*
X176535444Y-101018759D01*
X176594487Y-101139814D01*
X176669033Y-101215846D01*
X175830552Y-100725682D02*
X175801031Y-100665154D01*
X175726484Y-100589123D01*
X175501361Y-100511607D01*
X175395808Y-100525625D01*
X175335280Y-100555146D01*
X175259249Y-100629692D01*
X175228243Y-100719742D01*
X175226758Y-100870319D01*
X175581015Y-101596654D01*
X174995694Y-101395112D01*
G04 #@! TO.C,J14*
X177217100Y-78930404D02*
X177449649Y-79605775D01*
X177541183Y-79725346D01*
X177662239Y-79784388D01*
X177812816Y-79782903D01*
X177902866Y-79751897D01*
X176597150Y-80201491D02*
X177137446Y-80015452D01*
X176867298Y-80108472D02*
X176541730Y-79162953D01*
X176678289Y-79267021D01*
X176799345Y-79326064D01*
X176904897Y-79340082D01*
X175569660Y-79850204D02*
X175786705Y-80480549D01*
X175670757Y-79412490D02*
X176128429Y-80010344D01*
X175543108Y-80211886D01*
G04 #@! TO.C,JP3*
X149133280Y-119702366D02*
X149847566Y-119702366D01*
X149990423Y-119654747D01*
X150085661Y-119559509D01*
X150133280Y-119416652D01*
X150133280Y-119321414D01*
X150133280Y-120178557D02*
X149133280Y-120178557D01*
X149133280Y-120559509D01*
X149180900Y-120654747D01*
X149228519Y-120702366D01*
X149323757Y-120749985D01*
X149466614Y-120749985D01*
X149561852Y-120702366D01*
X149609471Y-120654747D01*
X149657090Y-120559509D01*
X149657090Y-120178557D01*
X149133280Y-121083319D02*
X149133280Y-121702366D01*
X149514233Y-121369033D01*
X149514233Y-121511890D01*
X149561852Y-121607128D01*
X149609471Y-121654747D01*
X149704709Y-121702366D01*
X149942804Y-121702366D01*
X150038042Y-121654747D01*
X150085661Y-121607128D01*
X150133280Y-121511890D01*
X150133280Y-121226176D01*
X150085661Y-121130938D01*
X150038042Y-121083319D01*
G04 #@! TO.C,R2*
X170335180Y-88022033D02*
X169858990Y-87688700D01*
X170335180Y-87450604D02*
X169335180Y-87450604D01*
X169335180Y-87831557D01*
X169382800Y-87926795D01*
X169430419Y-87974414D01*
X169525657Y-88022033D01*
X169668514Y-88022033D01*
X169763752Y-87974414D01*
X169811371Y-87926795D01*
X169858990Y-87831557D01*
X169858990Y-87450604D01*
X169430419Y-88402985D02*
X169382800Y-88450604D01*
X169335180Y-88545842D01*
X169335180Y-88783938D01*
X169382800Y-88879176D01*
X169430419Y-88926795D01*
X169525657Y-88974414D01*
X169620895Y-88974414D01*
X169763752Y-88926795D01*
X170335180Y-88355366D01*
X170335180Y-88974414D01*
G04 #@! TO.C,R5*
X175100187Y-111770756D02*
X174758463Y-111300551D01*
X175286226Y-111230460D02*
X174340708Y-110904891D01*
X174216682Y-111265089D01*
X174230700Y-111370642D01*
X174260222Y-111431170D01*
X174334768Y-111507201D01*
X174469842Y-111553710D01*
X174575394Y-111539692D01*
X174635922Y-111510171D01*
X174711953Y-111435625D01*
X174835979Y-111075427D01*
X173860107Y-112300657D02*
X174015140Y-111850410D01*
X174480890Y-111960418D01*
X174420362Y-111989939D01*
X174344331Y-112064485D01*
X174266815Y-112289609D01*
X174280833Y-112395161D01*
X174310354Y-112455689D01*
X174384900Y-112531721D01*
X174610024Y-112609237D01*
X174715576Y-112595219D01*
X174776104Y-112565697D01*
X174852136Y-112491151D01*
X174929652Y-112266028D01*
X174915634Y-112160475D01*
X174886112Y-112099947D01*
G04 #@! TO.C,R7*
X177055987Y-112443856D02*
X176714263Y-111973651D01*
X177242026Y-111903560D02*
X176296508Y-111577991D01*
X176172482Y-111938189D01*
X176186500Y-112043742D01*
X176216022Y-112104270D01*
X176290568Y-112180301D01*
X176425642Y-112226810D01*
X176531194Y-112212792D01*
X176591722Y-112183271D01*
X176667753Y-112108725D01*
X176791779Y-111748527D01*
X176001946Y-112433461D02*
X175784901Y-113063806D01*
X176869949Y-112984152D01*
G04 #@! TO.C,R10*
X125707380Y-103141442D02*
X125231190Y-102808109D01*
X125707380Y-102570014D02*
X124707380Y-102570014D01*
X124707380Y-102950966D01*
X124755000Y-103046204D01*
X124802619Y-103093823D01*
X124897857Y-103141442D01*
X125040714Y-103141442D01*
X125135952Y-103093823D01*
X125183571Y-103046204D01*
X125231190Y-102950966D01*
X125231190Y-102570014D01*
X125707380Y-104093823D02*
X125707380Y-103522395D01*
X125707380Y-103808109D02*
X124707380Y-103808109D01*
X124850238Y-103712871D01*
X124945476Y-103617633D01*
X124993095Y-103522395D01*
X124707380Y-104712871D02*
X124707380Y-104808109D01*
X124755000Y-104903347D01*
X124802619Y-104950966D01*
X124897857Y-104998585D01*
X125088333Y-105046204D01*
X125326428Y-105046204D01*
X125516904Y-104998585D01*
X125612142Y-104950966D01*
X125659761Y-104903347D01*
X125707380Y-104808109D01*
X125707380Y-104712871D01*
X125659761Y-104617633D01*
X125612142Y-104570014D01*
X125516904Y-104522395D01*
X125326428Y-104474776D01*
X125088333Y-104474776D01*
X124897857Y-104522395D01*
X124802619Y-104570014D01*
X124755000Y-104617633D01*
X124707380Y-104712871D01*
G04 #@! TO.C,R11*
X116817380Y-103179542D02*
X116341190Y-102846209D01*
X116817380Y-102608114D02*
X115817380Y-102608114D01*
X115817380Y-102989066D01*
X115865000Y-103084304D01*
X115912619Y-103131923D01*
X116007857Y-103179542D01*
X116150714Y-103179542D01*
X116245952Y-103131923D01*
X116293571Y-103084304D01*
X116341190Y-102989066D01*
X116341190Y-102608114D01*
X116817380Y-104131923D02*
X116817380Y-103560495D01*
X116817380Y-103846209D02*
X115817380Y-103846209D01*
X115960238Y-103750971D01*
X116055476Y-103655733D01*
X116103095Y-103560495D01*
X116817380Y-105084304D02*
X116817380Y-104512876D01*
X116817380Y-104798590D02*
X115817380Y-104798590D01*
X115960238Y-104703352D01*
X116055476Y-104608114D01*
X116103095Y-104512876D01*
G04 #@! TO.C,R12*
X123192780Y-103166842D02*
X122716590Y-102833509D01*
X123192780Y-102595414D02*
X122192780Y-102595414D01*
X122192780Y-102976366D01*
X122240400Y-103071604D01*
X122288019Y-103119223D01*
X122383257Y-103166842D01*
X122526114Y-103166842D01*
X122621352Y-103119223D01*
X122668971Y-103071604D01*
X122716590Y-102976366D01*
X122716590Y-102595414D01*
X123192780Y-104119223D02*
X123192780Y-103547795D01*
X123192780Y-103833509D02*
X122192780Y-103833509D01*
X122335638Y-103738271D01*
X122430876Y-103643033D01*
X122478495Y-103547795D01*
X122288019Y-104500176D02*
X122240400Y-104547795D01*
X122192780Y-104643033D01*
X122192780Y-104881128D01*
X122240400Y-104976366D01*
X122288019Y-105023985D01*
X122383257Y-105071604D01*
X122478495Y-105071604D01*
X122621352Y-105023985D01*
X123192780Y-104452557D01*
X123192780Y-105071604D01*
G04 #@! TO.C,R13*
X119357380Y-103179742D02*
X118881190Y-102846409D01*
X119357380Y-102608314D02*
X118357380Y-102608314D01*
X118357380Y-102989266D01*
X118405000Y-103084504D01*
X118452619Y-103132123D01*
X118547857Y-103179742D01*
X118690714Y-103179742D01*
X118785952Y-103132123D01*
X118833571Y-103084504D01*
X118881190Y-102989266D01*
X118881190Y-102608314D01*
X119357380Y-104132123D02*
X119357380Y-103560695D01*
X119357380Y-103846409D02*
X118357380Y-103846409D01*
X118500238Y-103751171D01*
X118595476Y-103655933D01*
X118643095Y-103560695D01*
X118357380Y-104465457D02*
X118357380Y-105084504D01*
X118738333Y-104751171D01*
X118738333Y-104894028D01*
X118785952Y-104989266D01*
X118833571Y-105036885D01*
X118928809Y-105084504D01*
X119166904Y-105084504D01*
X119262142Y-105036885D01*
X119309761Y-104989266D01*
X119357380Y-104894028D01*
X119357380Y-104608314D01*
X119309761Y-104513076D01*
X119262142Y-104465457D01*
G04 #@! TO.C,U4*
X126332380Y-95300895D02*
X127141904Y-95300895D01*
X127237142Y-95348514D01*
X127284761Y-95396133D01*
X127332380Y-95491371D01*
X127332380Y-95681847D01*
X127284761Y-95777085D01*
X127237142Y-95824704D01*
X127141904Y-95872323D01*
X126332380Y-95872323D01*
X126665714Y-96777085D02*
X127332380Y-96777085D01*
X126284761Y-96538990D02*
X126999047Y-96300895D01*
X126999047Y-96919942D01*
G04 #@! TO.C,Y1*
X148957290Y-115349590D02*
X148957290Y-115825780D01*
X149290623Y-114825780D02*
X148957290Y-115349590D01*
X148623957Y-114825780D01*
X147766814Y-115825780D02*
X148338242Y-115825780D01*
X148052528Y-115825780D02*
X148052528Y-114825780D01*
X148147766Y-114968638D01*
X148243004Y-115063876D01*
X148338242Y-115111495D01*
G04 #@! TO.C,R22*
X167449680Y-93768942D02*
X166973490Y-93435609D01*
X167449680Y-93197514D02*
X166449680Y-93197514D01*
X166449680Y-93578466D01*
X166497300Y-93673704D01*
X166544919Y-93721323D01*
X166640157Y-93768942D01*
X166783014Y-93768942D01*
X166878252Y-93721323D01*
X166925871Y-93673704D01*
X166973490Y-93578466D01*
X166973490Y-93197514D01*
X166544919Y-94149895D02*
X166497300Y-94197514D01*
X166449680Y-94292752D01*
X166449680Y-94530847D01*
X166497300Y-94626085D01*
X166544919Y-94673704D01*
X166640157Y-94721323D01*
X166735395Y-94721323D01*
X166878252Y-94673704D01*
X167449680Y-94102276D01*
X167449680Y-94721323D01*
X166544919Y-95102276D02*
X166497300Y-95149895D01*
X166449680Y-95245133D01*
X166449680Y-95483228D01*
X166497300Y-95578466D01*
X166544919Y-95626085D01*
X166640157Y-95673704D01*
X166735395Y-95673704D01*
X166878252Y-95626085D01*
X167449680Y-95054657D01*
X167449680Y-95673704D01*
G04 #@! TO.C,C28*
X169056242Y-95343742D02*
X169103861Y-95296123D01*
X169151480Y-95153266D01*
X169151480Y-95058028D01*
X169103861Y-94915171D01*
X169008623Y-94819933D01*
X168913385Y-94772314D01*
X168722909Y-94724695D01*
X168580052Y-94724695D01*
X168389576Y-94772314D01*
X168294338Y-94819933D01*
X168199100Y-94915171D01*
X168151480Y-95058028D01*
X168151480Y-95153266D01*
X168199100Y-95296123D01*
X168246719Y-95343742D01*
X168246719Y-95724695D02*
X168199100Y-95772314D01*
X168151480Y-95867552D01*
X168151480Y-96105647D01*
X168199100Y-96200885D01*
X168246719Y-96248504D01*
X168341957Y-96296123D01*
X168437195Y-96296123D01*
X168580052Y-96248504D01*
X169151480Y-95677076D01*
X169151480Y-96296123D01*
X168580052Y-96867552D02*
X168532433Y-96772314D01*
X168484814Y-96724695D01*
X168389576Y-96677076D01*
X168341957Y-96677076D01*
X168246719Y-96724695D01*
X168199100Y-96772314D01*
X168151480Y-96867552D01*
X168151480Y-97058028D01*
X168199100Y-97153266D01*
X168246719Y-97200885D01*
X168341957Y-97248504D01*
X168389576Y-97248504D01*
X168484814Y-97200885D01*
X168532433Y-97153266D01*
X168580052Y-97058028D01*
X168580052Y-96867552D01*
X168627671Y-96772314D01*
X168675290Y-96724695D01*
X168770528Y-96677076D01*
X168961004Y-96677076D01*
X169056242Y-96724695D01*
X169103861Y-96772314D01*
X169151480Y-96867552D01*
X169151480Y-97058028D01*
X169103861Y-97153266D01*
X169056242Y-97200885D01*
X168961004Y-97248504D01*
X168770528Y-97248504D01*
X168675290Y-97200885D01*
X168627671Y-97153266D01*
X168580052Y-97058028D01*
G04 #@! TO.C,C29*
X167379942Y-90746242D02*
X167427561Y-90698623D01*
X167475180Y-90555766D01*
X167475180Y-90460528D01*
X167427561Y-90317671D01*
X167332323Y-90222433D01*
X167237085Y-90174814D01*
X167046609Y-90127195D01*
X166903752Y-90127195D01*
X166713276Y-90174814D01*
X166618038Y-90222433D01*
X166522800Y-90317671D01*
X166475180Y-90460528D01*
X166475180Y-90555766D01*
X166522800Y-90698623D01*
X166570419Y-90746242D01*
X166570419Y-91127195D02*
X166522800Y-91174814D01*
X166475180Y-91270052D01*
X166475180Y-91508147D01*
X166522800Y-91603385D01*
X166570419Y-91651004D01*
X166665657Y-91698623D01*
X166760895Y-91698623D01*
X166903752Y-91651004D01*
X167475180Y-91079576D01*
X167475180Y-91698623D01*
X167475180Y-92174814D02*
X167475180Y-92365290D01*
X167427561Y-92460528D01*
X167379942Y-92508147D01*
X167237085Y-92603385D01*
X167046609Y-92651004D01*
X166665657Y-92651004D01*
X166570419Y-92603385D01*
X166522800Y-92555766D01*
X166475180Y-92460528D01*
X166475180Y-92270052D01*
X166522800Y-92174814D01*
X166570419Y-92127195D01*
X166665657Y-92079576D01*
X166903752Y-92079576D01*
X166998990Y-92127195D01*
X167046609Y-92174814D01*
X167094228Y-92270052D01*
X167094228Y-92460528D01*
X167046609Y-92555766D01*
X166998990Y-92603385D01*
X166903752Y-92651004D01*
G04 #@! TO.C,C30*
X171838857Y-83441542D02*
X171886476Y-83489161D01*
X172029333Y-83536780D01*
X172124571Y-83536780D01*
X172267428Y-83489161D01*
X172362666Y-83393923D01*
X172410285Y-83298685D01*
X172457904Y-83108209D01*
X172457904Y-82965352D01*
X172410285Y-82774876D01*
X172362666Y-82679638D01*
X172267428Y-82584400D01*
X172124571Y-82536780D01*
X172029333Y-82536780D01*
X171886476Y-82584400D01*
X171838857Y-82632019D01*
X171505523Y-82536780D02*
X170886476Y-82536780D01*
X171219809Y-82917733D01*
X171076952Y-82917733D01*
X170981714Y-82965352D01*
X170934095Y-83012971D01*
X170886476Y-83108209D01*
X170886476Y-83346304D01*
X170934095Y-83441542D01*
X170981714Y-83489161D01*
X171076952Y-83536780D01*
X171362666Y-83536780D01*
X171457904Y-83489161D01*
X171505523Y-83441542D01*
X170267428Y-82536780D02*
X170172190Y-82536780D01*
X170076952Y-82584400D01*
X170029333Y-82632019D01*
X169981714Y-82727257D01*
X169934095Y-82917733D01*
X169934095Y-83155828D01*
X169981714Y-83346304D01*
X170029333Y-83441542D01*
X170076952Y-83489161D01*
X170172190Y-83536780D01*
X170267428Y-83536780D01*
X170362666Y-83489161D01*
X170410285Y-83441542D01*
X170457904Y-83346304D01*
X170505523Y-83155828D01*
X170505523Y-82917733D01*
X170457904Y-82727257D01*
X170410285Y-82632019D01*
X170362666Y-82584400D01*
X170267428Y-82536780D01*
G04 #@! TO.C,U1*
X169112980Y-89627295D02*
X169922504Y-89627295D01*
X170017742Y-89674914D01*
X170065361Y-89722533D01*
X170112980Y-89817771D01*
X170112980Y-90008247D01*
X170065361Y-90103485D01*
X170017742Y-90151104D01*
X169922504Y-90198723D01*
X169112980Y-90198723D01*
X170112980Y-91198723D02*
X170112980Y-90627295D01*
X170112980Y-90913009D02*
X169112980Y-90913009D01*
X169255838Y-90817771D01*
X169351076Y-90722533D01*
X169398695Y-90627295D01*
G04 #@! TO.C,R1*
X169329280Y-88860333D02*
X168853090Y-88527000D01*
X169329280Y-88288904D02*
X168329280Y-88288904D01*
X168329280Y-88669857D01*
X168376900Y-88765095D01*
X168424519Y-88812714D01*
X168519757Y-88860333D01*
X168662614Y-88860333D01*
X168757852Y-88812714D01*
X168805471Y-88765095D01*
X168853090Y-88669857D01*
X168853090Y-88288904D01*
X169329280Y-89812714D02*
X169329280Y-89241285D01*
X169329280Y-89527000D02*
X168329280Y-89527000D01*
X168472138Y-89431761D01*
X168567376Y-89336523D01*
X168614995Y-89241285D01*
G04 #@! TD*
M02*
