G04 #@! TF.GenerationSoftware,KiCad,Pcbnew,6.0.0-unknown-9810725~86~ubuntu18.04.1*
G04 #@! TF.CreationDate,2019-07-01T12:49:01-06:00*
G04 #@! TF.ProjectId,main_board_onion,6d61696e-5f62-46f6-9172-645f6f6e696f,rev?*
G04 #@! TF.SameCoordinates,Original*
G04 #@! TF.FileFunction,Paste,Top*
G04 #@! TF.FilePolarity,Positive*
%FSLAX46Y46*%
G04 Gerber Fmt 4.6, Leading zero omitted, Abs format (unit mm)*
G04 Created by KiCad (PCBNEW 6.0.0-unknown-9810725~86~ubuntu18.04.1) date 2019-07-01 12:49:01*
%MOMM*%
%LPD*%
G04 APERTURE LIST*
%ADD10C,0.100000*%
%ADD11C,0.590000*%
%ADD12R,0.900000X0.800000*%
%ADD13R,2.500000X2.500000*%
%ADD14R,0.900000X1.200000*%
%ADD15C,1.200000*%
%ADD16C,0.600000*%
%ADD17R,1.050000X1.000000*%
%ADD18R,2.200000X1.050000*%
%ADD19C,0.875000*%
%ADD20R,1.400000X1.200000*%
%ADD21C,1.540000*%
%ADD22C,1.010000*%
%ADD23C,0.250000*%
%ADD24C,1.500000*%
%ADD25C,0.400000*%
%ADD26C,2.800000*%
%ADD27C,0.700000*%
%ADD28R,1.000000X2.200000*%
%ADD29R,3.400000X1.800000*%
%ADD30C,0.450000*%
%ADD31C,0.650000*%
%ADD32C,1.050000*%
%ADD33C,0.800000*%
%ADD34R,0.800000X0.900000*%
%ADD35R,1.400000X1.000000*%
%ADD36C,1.250000*%
%ADD37C,0.975000*%
G04 APERTURE END LIST*
D10*
G36*
X144603946Y-123291228D02*
G01*
X144651798Y-123323202D01*
X144683772Y-123371054D01*
X144695000Y-123427500D01*
X144695000Y-123772500D01*
X144683772Y-123828946D01*
X144651798Y-123876798D01*
X144603946Y-123908772D01*
X144547500Y-123920000D01*
X144252500Y-123920000D01*
X144196054Y-123908772D01*
X144148202Y-123876798D01*
X144116228Y-123828946D01*
X144105000Y-123772500D01*
X144105000Y-123427500D01*
X144116228Y-123371054D01*
X144148202Y-123323202D01*
X144196054Y-123291228D01*
X144252500Y-123280000D01*
X144547500Y-123280000D01*
X144603946Y-123291228D01*
X144603946Y-123291228D01*
G37*
D11*
X144400000Y-123600000D03*
D10*
G36*
X143633946Y-123291228D02*
G01*
X143681798Y-123323202D01*
X143713772Y-123371054D01*
X143725000Y-123427500D01*
X143725000Y-123772500D01*
X143713772Y-123828946D01*
X143681798Y-123876798D01*
X143633946Y-123908772D01*
X143577500Y-123920000D01*
X143282500Y-123920000D01*
X143226054Y-123908772D01*
X143178202Y-123876798D01*
X143146228Y-123828946D01*
X143135000Y-123772500D01*
X143135000Y-123427500D01*
X143146228Y-123371054D01*
X143178202Y-123323202D01*
X143226054Y-123291228D01*
X143282500Y-123280000D01*
X143577500Y-123280000D01*
X143633946Y-123291228D01*
X143633946Y-123291228D01*
G37*
D11*
X143430000Y-123600000D03*
D10*
G36*
X126228946Y-107831228D02*
G01*
X126276798Y-107863202D01*
X126308772Y-107911054D01*
X126320000Y-107967500D01*
X126320000Y-108262500D01*
X126308772Y-108318946D01*
X126276798Y-108366798D01*
X126228946Y-108398772D01*
X126172500Y-108410000D01*
X125827500Y-108410000D01*
X125771054Y-108398772D01*
X125723202Y-108366798D01*
X125691228Y-108318946D01*
X125680000Y-108262500D01*
X125680000Y-107967500D01*
X125691228Y-107911054D01*
X125723202Y-107863202D01*
X125771054Y-107831228D01*
X125827500Y-107820000D01*
X126172500Y-107820000D01*
X126228946Y-107831228D01*
X126228946Y-107831228D01*
G37*
D11*
X126000000Y-108115000D03*
D10*
G36*
X126228946Y-108801228D02*
G01*
X126276798Y-108833202D01*
X126308772Y-108881054D01*
X126320000Y-108937500D01*
X126320000Y-109232500D01*
X126308772Y-109288946D01*
X126276798Y-109336798D01*
X126228946Y-109368772D01*
X126172500Y-109380000D01*
X125827500Y-109380000D01*
X125771054Y-109368772D01*
X125723202Y-109336798D01*
X125691228Y-109288946D01*
X125680000Y-109232500D01*
X125680000Y-108937500D01*
X125691228Y-108881054D01*
X125723202Y-108833202D01*
X125771054Y-108801228D01*
X125827500Y-108790000D01*
X126172500Y-108790000D01*
X126228946Y-108801228D01*
X126228946Y-108801228D01*
G37*
D11*
X126000000Y-109085000D03*
D10*
G36*
X127328946Y-107831228D02*
G01*
X127376798Y-107863202D01*
X127408772Y-107911054D01*
X127420000Y-107967500D01*
X127420000Y-108262500D01*
X127408772Y-108318946D01*
X127376798Y-108366798D01*
X127328946Y-108398772D01*
X127272500Y-108410000D01*
X126927500Y-108410000D01*
X126871054Y-108398772D01*
X126823202Y-108366798D01*
X126791228Y-108318946D01*
X126780000Y-108262500D01*
X126780000Y-107967500D01*
X126791228Y-107911054D01*
X126823202Y-107863202D01*
X126871054Y-107831228D01*
X126927500Y-107820000D01*
X127272500Y-107820000D01*
X127328946Y-107831228D01*
X127328946Y-107831228D01*
G37*
D11*
X127100000Y-108115000D03*
D10*
G36*
X127328946Y-108801228D02*
G01*
X127376798Y-108833202D01*
X127408772Y-108881054D01*
X127420000Y-108937500D01*
X127420000Y-109232500D01*
X127408772Y-109288946D01*
X127376798Y-109336798D01*
X127328946Y-109368772D01*
X127272500Y-109380000D01*
X126927500Y-109380000D01*
X126871054Y-109368772D01*
X126823202Y-109336798D01*
X126791228Y-109288946D01*
X126780000Y-109232500D01*
X126780000Y-108937500D01*
X126791228Y-108881054D01*
X126823202Y-108833202D01*
X126871054Y-108801228D01*
X126927500Y-108790000D01*
X127272500Y-108790000D01*
X127328946Y-108801228D01*
X127328946Y-108801228D01*
G37*
D11*
X127100000Y-109085000D03*
D10*
G36*
X116218946Y-115391228D02*
G01*
X116266798Y-115423202D01*
X116298772Y-115471054D01*
X116310000Y-115527500D01*
X116310000Y-115872500D01*
X116298772Y-115928946D01*
X116266798Y-115976798D01*
X116218946Y-116008772D01*
X116162500Y-116020000D01*
X115867500Y-116020000D01*
X115811054Y-116008772D01*
X115763202Y-115976798D01*
X115731228Y-115928946D01*
X115720000Y-115872500D01*
X115720000Y-115527500D01*
X115731228Y-115471054D01*
X115763202Y-115423202D01*
X115811054Y-115391228D01*
X115867500Y-115380000D01*
X116162500Y-115380000D01*
X116218946Y-115391228D01*
X116218946Y-115391228D01*
G37*
D11*
X116015000Y-115700000D03*
D10*
G36*
X117188946Y-115391228D02*
G01*
X117236798Y-115423202D01*
X117268772Y-115471054D01*
X117280000Y-115527500D01*
X117280000Y-115872500D01*
X117268772Y-115928946D01*
X117236798Y-115976798D01*
X117188946Y-116008772D01*
X117132500Y-116020000D01*
X116837500Y-116020000D01*
X116781054Y-116008772D01*
X116733202Y-115976798D01*
X116701228Y-115928946D01*
X116690000Y-115872500D01*
X116690000Y-115527500D01*
X116701228Y-115471054D01*
X116733202Y-115423202D01*
X116781054Y-115391228D01*
X116837500Y-115380000D01*
X117132500Y-115380000D01*
X117188946Y-115391228D01*
X117188946Y-115391228D01*
G37*
D11*
X116985000Y-115700000D03*
D10*
G36*
X116128946Y-110231228D02*
G01*
X116176798Y-110263202D01*
X116208772Y-110311054D01*
X116220000Y-110367500D01*
X116220000Y-110662500D01*
X116208772Y-110718946D01*
X116176798Y-110766798D01*
X116128946Y-110798772D01*
X116072500Y-110810000D01*
X115727500Y-110810000D01*
X115671054Y-110798772D01*
X115623202Y-110766798D01*
X115591228Y-110718946D01*
X115580000Y-110662500D01*
X115580000Y-110367500D01*
X115591228Y-110311054D01*
X115623202Y-110263202D01*
X115671054Y-110231228D01*
X115727500Y-110220000D01*
X116072500Y-110220000D01*
X116128946Y-110231228D01*
X116128946Y-110231228D01*
G37*
D11*
X115900000Y-110515000D03*
D10*
G36*
X116128946Y-111201228D02*
G01*
X116176798Y-111233202D01*
X116208772Y-111281054D01*
X116220000Y-111337500D01*
X116220000Y-111632500D01*
X116208772Y-111688946D01*
X116176798Y-111736798D01*
X116128946Y-111768772D01*
X116072500Y-111780000D01*
X115727500Y-111780000D01*
X115671054Y-111768772D01*
X115623202Y-111736798D01*
X115591228Y-111688946D01*
X115580000Y-111632500D01*
X115580000Y-111337500D01*
X115591228Y-111281054D01*
X115623202Y-111233202D01*
X115671054Y-111201228D01*
X115727500Y-111190000D01*
X116072500Y-111190000D01*
X116128946Y-111201228D01*
X116128946Y-111201228D01*
G37*
D11*
X115900000Y-111485000D03*
D10*
G36*
X117188946Y-114291228D02*
G01*
X117236798Y-114323202D01*
X117268772Y-114371054D01*
X117280000Y-114427500D01*
X117280000Y-114772500D01*
X117268772Y-114828946D01*
X117236798Y-114876798D01*
X117188946Y-114908772D01*
X117132500Y-114920000D01*
X116837500Y-114920000D01*
X116781054Y-114908772D01*
X116733202Y-114876798D01*
X116701228Y-114828946D01*
X116690000Y-114772500D01*
X116690000Y-114427500D01*
X116701228Y-114371054D01*
X116733202Y-114323202D01*
X116781054Y-114291228D01*
X116837500Y-114280000D01*
X117132500Y-114280000D01*
X117188946Y-114291228D01*
X117188946Y-114291228D01*
G37*
D11*
X116985000Y-114600000D03*
D10*
G36*
X116218946Y-114291228D02*
G01*
X116266798Y-114323202D01*
X116298772Y-114371054D01*
X116310000Y-114427500D01*
X116310000Y-114772500D01*
X116298772Y-114828946D01*
X116266798Y-114876798D01*
X116218946Y-114908772D01*
X116162500Y-114920000D01*
X115867500Y-114920000D01*
X115811054Y-114908772D01*
X115763202Y-114876798D01*
X115731228Y-114828946D01*
X115720000Y-114772500D01*
X115720000Y-114427500D01*
X115731228Y-114371054D01*
X115763202Y-114323202D01*
X115811054Y-114291228D01*
X115867500Y-114280000D01*
X116162500Y-114280000D01*
X116218946Y-114291228D01*
X116218946Y-114291228D01*
G37*
D11*
X116015000Y-114600000D03*
D10*
G36*
X117228946Y-110231228D02*
G01*
X117276798Y-110263202D01*
X117308772Y-110311054D01*
X117320000Y-110367500D01*
X117320000Y-110662500D01*
X117308772Y-110718946D01*
X117276798Y-110766798D01*
X117228946Y-110798772D01*
X117172500Y-110810000D01*
X116827500Y-110810000D01*
X116771054Y-110798772D01*
X116723202Y-110766798D01*
X116691228Y-110718946D01*
X116680000Y-110662500D01*
X116680000Y-110367500D01*
X116691228Y-110311054D01*
X116723202Y-110263202D01*
X116771054Y-110231228D01*
X116827500Y-110220000D01*
X117172500Y-110220000D01*
X117228946Y-110231228D01*
X117228946Y-110231228D01*
G37*
D11*
X117000000Y-110515000D03*
D10*
G36*
X117228946Y-111201228D02*
G01*
X117276798Y-111233202D01*
X117308772Y-111281054D01*
X117320000Y-111337500D01*
X117320000Y-111632500D01*
X117308772Y-111688946D01*
X117276798Y-111736798D01*
X117228946Y-111768772D01*
X117172500Y-111780000D01*
X116827500Y-111780000D01*
X116771054Y-111768772D01*
X116723202Y-111736798D01*
X116691228Y-111688946D01*
X116680000Y-111632500D01*
X116680000Y-111337500D01*
X116691228Y-111281054D01*
X116723202Y-111233202D01*
X116771054Y-111201228D01*
X116827500Y-111190000D01*
X117172500Y-111190000D01*
X117228946Y-111201228D01*
X117228946Y-111201228D01*
G37*
D11*
X117000000Y-111485000D03*
D10*
G36*
X119728946Y-106816228D02*
G01*
X119776798Y-106848202D01*
X119808772Y-106896054D01*
X119820000Y-106952500D01*
X119820000Y-107247500D01*
X119808772Y-107303946D01*
X119776798Y-107351798D01*
X119728946Y-107383772D01*
X119672500Y-107395000D01*
X119327500Y-107395000D01*
X119271054Y-107383772D01*
X119223202Y-107351798D01*
X119191228Y-107303946D01*
X119180000Y-107247500D01*
X119180000Y-106952500D01*
X119191228Y-106896054D01*
X119223202Y-106848202D01*
X119271054Y-106816228D01*
X119327500Y-106805000D01*
X119672500Y-106805000D01*
X119728946Y-106816228D01*
X119728946Y-106816228D01*
G37*
D11*
X119500000Y-107100000D03*
D10*
G36*
X119728946Y-107786228D02*
G01*
X119776798Y-107818202D01*
X119808772Y-107866054D01*
X119820000Y-107922500D01*
X119820000Y-108217500D01*
X119808772Y-108273946D01*
X119776798Y-108321798D01*
X119728946Y-108353772D01*
X119672500Y-108365000D01*
X119327500Y-108365000D01*
X119271054Y-108353772D01*
X119223202Y-108321798D01*
X119191228Y-108273946D01*
X119180000Y-108217500D01*
X119180000Y-107922500D01*
X119191228Y-107866054D01*
X119223202Y-107818202D01*
X119271054Y-107786228D01*
X119327500Y-107775000D01*
X119672500Y-107775000D01*
X119728946Y-107786228D01*
X119728946Y-107786228D01*
G37*
D11*
X119500000Y-108070000D03*
D10*
G36*
X125128946Y-107816228D02*
G01*
X125176798Y-107848202D01*
X125208772Y-107896054D01*
X125220000Y-107952500D01*
X125220000Y-108247500D01*
X125208772Y-108303946D01*
X125176798Y-108351798D01*
X125128946Y-108383772D01*
X125072500Y-108395000D01*
X124727500Y-108395000D01*
X124671054Y-108383772D01*
X124623202Y-108351798D01*
X124591228Y-108303946D01*
X124580000Y-108247500D01*
X124580000Y-107952500D01*
X124591228Y-107896054D01*
X124623202Y-107848202D01*
X124671054Y-107816228D01*
X124727500Y-107805000D01*
X125072500Y-107805000D01*
X125128946Y-107816228D01*
X125128946Y-107816228D01*
G37*
D11*
X124900000Y-108100000D03*
D10*
G36*
X125128946Y-106846228D02*
G01*
X125176798Y-106878202D01*
X125208772Y-106926054D01*
X125220000Y-106982500D01*
X125220000Y-107277500D01*
X125208772Y-107333946D01*
X125176798Y-107381798D01*
X125128946Y-107413772D01*
X125072500Y-107425000D01*
X124727500Y-107425000D01*
X124671054Y-107413772D01*
X124623202Y-107381798D01*
X124591228Y-107333946D01*
X124580000Y-107277500D01*
X124580000Y-106982500D01*
X124591228Y-106926054D01*
X124623202Y-106878202D01*
X124671054Y-106846228D01*
X124727500Y-106835000D01*
X125072500Y-106835000D01*
X125128946Y-106846228D01*
X125128946Y-106846228D01*
G37*
D11*
X124900000Y-107130000D03*
D10*
G36*
X119718946Y-117091228D02*
G01*
X119766798Y-117123202D01*
X119798772Y-117171054D01*
X119810000Y-117227500D01*
X119810000Y-117572500D01*
X119798772Y-117628946D01*
X119766798Y-117676798D01*
X119718946Y-117708772D01*
X119662500Y-117720000D01*
X119367500Y-117720000D01*
X119311054Y-117708772D01*
X119263202Y-117676798D01*
X119231228Y-117628946D01*
X119220000Y-117572500D01*
X119220000Y-117227500D01*
X119231228Y-117171054D01*
X119263202Y-117123202D01*
X119311054Y-117091228D01*
X119367500Y-117080000D01*
X119662500Y-117080000D01*
X119718946Y-117091228D01*
X119718946Y-117091228D01*
G37*
D11*
X119515000Y-117400000D03*
D10*
G36*
X120688946Y-117091228D02*
G01*
X120736798Y-117123202D01*
X120768772Y-117171054D01*
X120780000Y-117227500D01*
X120780000Y-117572500D01*
X120768772Y-117628946D01*
X120736798Y-117676798D01*
X120688946Y-117708772D01*
X120632500Y-117720000D01*
X120337500Y-117720000D01*
X120281054Y-117708772D01*
X120233202Y-117676798D01*
X120201228Y-117628946D01*
X120190000Y-117572500D01*
X120190000Y-117227500D01*
X120201228Y-117171054D01*
X120233202Y-117123202D01*
X120281054Y-117091228D01*
X120337500Y-117080000D01*
X120632500Y-117080000D01*
X120688946Y-117091228D01*
X120688946Y-117091228D01*
G37*
D11*
X120485000Y-117400000D03*
D10*
G36*
X175395212Y-100596346D02*
G01*
X175444673Y-100625772D01*
X175701058Y-100856622D01*
X175735492Y-100902736D01*
X175749659Y-100958516D01*
X175741401Y-101015472D01*
X175711975Y-101064933D01*
X175514582Y-101284161D01*
X175468469Y-101318595D01*
X175412688Y-101332762D01*
X175355732Y-101324504D01*
X175306271Y-101295078D01*
X175049886Y-101064228D01*
X175015452Y-101018114D01*
X175001285Y-100962334D01*
X175009543Y-100905378D01*
X175038969Y-100855917D01*
X175236362Y-100636689D01*
X175282475Y-100602255D01*
X175338256Y-100588088D01*
X175395212Y-100596346D01*
X175395212Y-100596346D01*
G37*
D11*
X175375472Y-100960425D03*
D10*
G36*
X176044268Y-99875496D02*
G01*
X176093729Y-99904922D01*
X176350114Y-100135772D01*
X176384548Y-100181886D01*
X176398715Y-100237666D01*
X176390457Y-100294622D01*
X176361031Y-100344083D01*
X176163638Y-100563311D01*
X176117525Y-100597745D01*
X176061744Y-100611912D01*
X176004788Y-100603654D01*
X175955327Y-100574228D01*
X175698942Y-100343378D01*
X175664508Y-100297264D01*
X175650341Y-100241484D01*
X175658599Y-100184528D01*
X175688025Y-100135067D01*
X175885418Y-99915839D01*
X175931531Y-99881405D01*
X175987312Y-99867238D01*
X176044268Y-99875496D01*
X176044268Y-99875496D01*
G37*
D11*
X176024528Y-100239575D03*
D12*
X143200000Y-120850000D03*
X145200000Y-119900000D03*
X145200000Y-121800000D03*
D13*
X140100000Y-116100000D03*
X140100000Y-123100000D03*
X133100000Y-123100000D03*
X133100000Y-116100000D03*
D14*
X140050000Y-126600000D03*
X136750000Y-126600000D03*
D10*
G36*
X172620671Y-87332930D02*
G01*
X172701777Y-87387123D01*
X172755970Y-87468229D01*
X172775000Y-87563899D01*
X172775000Y-88263901D01*
X172755970Y-88359571D01*
X172701777Y-88440677D01*
X172620671Y-88494870D01*
X172525001Y-88513900D01*
X171224999Y-88513900D01*
X171129329Y-88494870D01*
X171048223Y-88440677D01*
X170994030Y-88359571D01*
X170975000Y-88263901D01*
X170975000Y-87563899D01*
X170994030Y-87468229D01*
X171048223Y-87387123D01*
X171129329Y-87332930D01*
X171224999Y-87313900D01*
X172525001Y-87313900D01*
X172620671Y-87332930D01*
X172620671Y-87332930D01*
G37*
D15*
X171875000Y-87913900D03*
D10*
G36*
X172620671Y-92932930D02*
G01*
X172701777Y-92987123D01*
X172755970Y-93068229D01*
X172775000Y-93163899D01*
X172775000Y-93863901D01*
X172755970Y-93959571D01*
X172701777Y-94040677D01*
X172620671Y-94094870D01*
X172525001Y-94113900D01*
X171224999Y-94113900D01*
X171129329Y-94094870D01*
X171048223Y-94040677D01*
X170994030Y-93959571D01*
X170975000Y-93863901D01*
X170975000Y-93163899D01*
X170994030Y-93068229D01*
X171048223Y-92987123D01*
X171129329Y-92932930D01*
X171224999Y-92913900D01*
X172525001Y-92913900D01*
X172620671Y-92932930D01*
X172620671Y-92932930D01*
G37*
D15*
X171875000Y-93513900D03*
D10*
G36*
X168632403Y-88925318D02*
G01*
X168681066Y-88957834D01*
X168713582Y-89006497D01*
X168725000Y-89063900D01*
X168725000Y-89363900D01*
X168713582Y-89421303D01*
X168681066Y-89469966D01*
X168632403Y-89502482D01*
X168575000Y-89513900D01*
X167375000Y-89513900D01*
X167317597Y-89502482D01*
X167268934Y-89469966D01*
X167236418Y-89421303D01*
X167225000Y-89363900D01*
X167225000Y-89063900D01*
X167236418Y-89006497D01*
X167268934Y-88957834D01*
X167317597Y-88925318D01*
X167375000Y-88913900D01*
X168575000Y-88913900D01*
X168632403Y-88925318D01*
X168632403Y-88925318D01*
G37*
D16*
X167975000Y-89213900D03*
D10*
G36*
X168632403Y-89925318D02*
G01*
X168681066Y-89957834D01*
X168713582Y-90006497D01*
X168725000Y-90063900D01*
X168725000Y-90363900D01*
X168713582Y-90421303D01*
X168681066Y-90469966D01*
X168632403Y-90502482D01*
X168575000Y-90513900D01*
X167375000Y-90513900D01*
X167317597Y-90502482D01*
X167268934Y-90469966D01*
X167236418Y-90421303D01*
X167225000Y-90363900D01*
X167225000Y-90063900D01*
X167236418Y-90006497D01*
X167268934Y-89957834D01*
X167317597Y-89925318D01*
X167375000Y-89913900D01*
X168575000Y-89913900D01*
X168632403Y-89925318D01*
X168632403Y-89925318D01*
G37*
D16*
X167975000Y-90213900D03*
D10*
G36*
X168632403Y-90925318D02*
G01*
X168681066Y-90957834D01*
X168713582Y-91006497D01*
X168725000Y-91063900D01*
X168725000Y-91363900D01*
X168713582Y-91421303D01*
X168681066Y-91469966D01*
X168632403Y-91502482D01*
X168575000Y-91513900D01*
X167375000Y-91513900D01*
X167317597Y-91502482D01*
X167268934Y-91469966D01*
X167236418Y-91421303D01*
X167225000Y-91363900D01*
X167225000Y-91063900D01*
X167236418Y-91006497D01*
X167268934Y-90957834D01*
X167317597Y-90925318D01*
X167375000Y-90913900D01*
X168575000Y-90913900D01*
X168632403Y-90925318D01*
X168632403Y-90925318D01*
G37*
D16*
X167975000Y-91213900D03*
D10*
G36*
X168632403Y-91925318D02*
G01*
X168681066Y-91957834D01*
X168713582Y-92006497D01*
X168725000Y-92063900D01*
X168725000Y-92363900D01*
X168713582Y-92421303D01*
X168681066Y-92469966D01*
X168632403Y-92502482D01*
X168575000Y-92513900D01*
X167375000Y-92513900D01*
X167317597Y-92502482D01*
X167268934Y-92469966D01*
X167236418Y-92421303D01*
X167225000Y-92363900D01*
X167225000Y-92063900D01*
X167236418Y-92006497D01*
X167268934Y-91957834D01*
X167317597Y-91925318D01*
X167375000Y-91913900D01*
X168575000Y-91913900D01*
X168632403Y-91925318D01*
X168632403Y-91925318D01*
G37*
D16*
X167975000Y-92213900D03*
D10*
G36*
X120918946Y-91091228D02*
G01*
X120966798Y-91123202D01*
X120998772Y-91171054D01*
X121010000Y-91227500D01*
X121010000Y-91572500D01*
X120998772Y-91628946D01*
X120966798Y-91676798D01*
X120918946Y-91708772D01*
X120862500Y-91720000D01*
X120567500Y-91720000D01*
X120511054Y-91708772D01*
X120463202Y-91676798D01*
X120431228Y-91628946D01*
X120420000Y-91572500D01*
X120420000Y-91227500D01*
X120431228Y-91171054D01*
X120463202Y-91123202D01*
X120511054Y-91091228D01*
X120567500Y-91080000D01*
X120862500Y-91080000D01*
X120918946Y-91091228D01*
X120918946Y-91091228D01*
G37*
D11*
X120715000Y-91400000D03*
D10*
G36*
X121888946Y-91091228D02*
G01*
X121936798Y-91123202D01*
X121968772Y-91171054D01*
X121980000Y-91227500D01*
X121980000Y-91572500D01*
X121968772Y-91628946D01*
X121936798Y-91676798D01*
X121888946Y-91708772D01*
X121832500Y-91720000D01*
X121537500Y-91720000D01*
X121481054Y-91708772D01*
X121433202Y-91676798D01*
X121401228Y-91628946D01*
X121390000Y-91572500D01*
X121390000Y-91227500D01*
X121401228Y-91171054D01*
X121433202Y-91123202D01*
X121481054Y-91091228D01*
X121537500Y-91080000D01*
X121832500Y-91080000D01*
X121888946Y-91091228D01*
X121888946Y-91091228D01*
G37*
D11*
X121685000Y-91400000D03*
D10*
G36*
X119803946Y-91091228D02*
G01*
X119851798Y-91123202D01*
X119883772Y-91171054D01*
X119895000Y-91227500D01*
X119895000Y-91572500D01*
X119883772Y-91628946D01*
X119851798Y-91676798D01*
X119803946Y-91708772D01*
X119747500Y-91720000D01*
X119452500Y-91720000D01*
X119396054Y-91708772D01*
X119348202Y-91676798D01*
X119316228Y-91628946D01*
X119305000Y-91572500D01*
X119305000Y-91227500D01*
X119316228Y-91171054D01*
X119348202Y-91123202D01*
X119396054Y-91091228D01*
X119452500Y-91080000D01*
X119747500Y-91080000D01*
X119803946Y-91091228D01*
X119803946Y-91091228D01*
G37*
D11*
X119600000Y-91400000D03*
D10*
G36*
X118833946Y-91091228D02*
G01*
X118881798Y-91123202D01*
X118913772Y-91171054D01*
X118925000Y-91227500D01*
X118925000Y-91572500D01*
X118913772Y-91628946D01*
X118881798Y-91676798D01*
X118833946Y-91708772D01*
X118777500Y-91720000D01*
X118482500Y-91720000D01*
X118426054Y-91708772D01*
X118378202Y-91676798D01*
X118346228Y-91628946D01*
X118335000Y-91572500D01*
X118335000Y-91227500D01*
X118346228Y-91171054D01*
X118378202Y-91123202D01*
X118426054Y-91091228D01*
X118482500Y-91080000D01*
X118777500Y-91080000D01*
X118833946Y-91091228D01*
X118833946Y-91091228D01*
G37*
D11*
X118630000Y-91400000D03*
D10*
G36*
X119803946Y-92291228D02*
G01*
X119851798Y-92323202D01*
X119883772Y-92371054D01*
X119895000Y-92427500D01*
X119895000Y-92772500D01*
X119883772Y-92828946D01*
X119851798Y-92876798D01*
X119803946Y-92908772D01*
X119747500Y-92920000D01*
X119452500Y-92920000D01*
X119396054Y-92908772D01*
X119348202Y-92876798D01*
X119316228Y-92828946D01*
X119305000Y-92772500D01*
X119305000Y-92427500D01*
X119316228Y-92371054D01*
X119348202Y-92323202D01*
X119396054Y-92291228D01*
X119452500Y-92280000D01*
X119747500Y-92280000D01*
X119803946Y-92291228D01*
X119803946Y-92291228D01*
G37*
D11*
X119600000Y-92600000D03*
D10*
G36*
X118833946Y-92291228D02*
G01*
X118881798Y-92323202D01*
X118913772Y-92371054D01*
X118925000Y-92427500D01*
X118925000Y-92772500D01*
X118913772Y-92828946D01*
X118881798Y-92876798D01*
X118833946Y-92908772D01*
X118777500Y-92920000D01*
X118482500Y-92920000D01*
X118426054Y-92908772D01*
X118378202Y-92876798D01*
X118346228Y-92828946D01*
X118335000Y-92772500D01*
X118335000Y-92427500D01*
X118346228Y-92371054D01*
X118378202Y-92323202D01*
X118426054Y-92291228D01*
X118482500Y-92280000D01*
X118777500Y-92280000D01*
X118833946Y-92291228D01*
X118833946Y-92291228D01*
G37*
D11*
X118630000Y-92600000D03*
D10*
G36*
X115978946Y-95201228D02*
G01*
X116026798Y-95233202D01*
X116058772Y-95281054D01*
X116070000Y-95337500D01*
X116070000Y-95632500D01*
X116058772Y-95688946D01*
X116026798Y-95736798D01*
X115978946Y-95768772D01*
X115922500Y-95780000D01*
X115577500Y-95780000D01*
X115521054Y-95768772D01*
X115473202Y-95736798D01*
X115441228Y-95688946D01*
X115430000Y-95632500D01*
X115430000Y-95337500D01*
X115441228Y-95281054D01*
X115473202Y-95233202D01*
X115521054Y-95201228D01*
X115577500Y-95190000D01*
X115922500Y-95190000D01*
X115978946Y-95201228D01*
X115978946Y-95201228D01*
G37*
D11*
X115750000Y-95485000D03*
D10*
G36*
X115978946Y-94231228D02*
G01*
X116026798Y-94263202D01*
X116058772Y-94311054D01*
X116070000Y-94367500D01*
X116070000Y-94662500D01*
X116058772Y-94718946D01*
X116026798Y-94766798D01*
X115978946Y-94798772D01*
X115922500Y-94810000D01*
X115577500Y-94810000D01*
X115521054Y-94798772D01*
X115473202Y-94766798D01*
X115441228Y-94718946D01*
X115430000Y-94662500D01*
X115430000Y-94367500D01*
X115441228Y-94311054D01*
X115473202Y-94263202D01*
X115521054Y-94231228D01*
X115577500Y-94220000D01*
X115922500Y-94220000D01*
X115978946Y-94231228D01*
X115978946Y-94231228D01*
G37*
D11*
X115750000Y-94515000D03*
D17*
X181925000Y-118600000D03*
D18*
X180400000Y-117125000D03*
X180400000Y-120075000D03*
D10*
G36*
X183939962Y-119754151D02*
G01*
X184010930Y-119801570D01*
X184058349Y-119872538D01*
X184075000Y-119956250D01*
X184075000Y-120393750D01*
X184058349Y-120477462D01*
X184010930Y-120548430D01*
X183939962Y-120595849D01*
X183856250Y-120612500D01*
X183343750Y-120612500D01*
X183260038Y-120595849D01*
X183189070Y-120548430D01*
X183141651Y-120477462D01*
X183125000Y-120393750D01*
X183125000Y-119956250D01*
X183141651Y-119872538D01*
X183189070Y-119801570D01*
X183260038Y-119754151D01*
X183343750Y-119737500D01*
X183856250Y-119737500D01*
X183939962Y-119754151D01*
X183939962Y-119754151D01*
G37*
D19*
X183600000Y-120175000D03*
D10*
G36*
X183939962Y-118179151D02*
G01*
X184010930Y-118226570D01*
X184058349Y-118297538D01*
X184075000Y-118381250D01*
X184075000Y-118818750D01*
X184058349Y-118902462D01*
X184010930Y-118973430D01*
X183939962Y-119020849D01*
X183856250Y-119037500D01*
X183343750Y-119037500D01*
X183260038Y-119020849D01*
X183189070Y-118973430D01*
X183141651Y-118902462D01*
X183125000Y-118818750D01*
X183125000Y-118381250D01*
X183141651Y-118297538D01*
X183189070Y-118226570D01*
X183260038Y-118179151D01*
X183343750Y-118162500D01*
X183856250Y-118162500D01*
X183939962Y-118179151D01*
X183939962Y-118179151D01*
G37*
D19*
X183600000Y-118600000D03*
D10*
G36*
X173127462Y-54041651D02*
G01*
X173198430Y-54089070D01*
X173245849Y-54160038D01*
X173262500Y-54243750D01*
X173262500Y-54756250D01*
X173245849Y-54839962D01*
X173198430Y-54910930D01*
X173127462Y-54958349D01*
X173043750Y-54975000D01*
X172606250Y-54975000D01*
X172522538Y-54958349D01*
X172451570Y-54910930D01*
X172404151Y-54839962D01*
X172387500Y-54756250D01*
X172387500Y-54243750D01*
X172404151Y-54160038D01*
X172451570Y-54089070D01*
X172522538Y-54041651D01*
X172606250Y-54025000D01*
X173043750Y-54025000D01*
X173127462Y-54041651D01*
X173127462Y-54041651D01*
G37*
D19*
X172825000Y-54500000D03*
D10*
G36*
X174702462Y-54041651D02*
G01*
X174773430Y-54089070D01*
X174820849Y-54160038D01*
X174837500Y-54243750D01*
X174837500Y-54756250D01*
X174820849Y-54839962D01*
X174773430Y-54910930D01*
X174702462Y-54958349D01*
X174618750Y-54975000D01*
X174181250Y-54975000D01*
X174097538Y-54958349D01*
X174026570Y-54910930D01*
X173979151Y-54839962D01*
X173962500Y-54756250D01*
X173962500Y-54243750D01*
X173979151Y-54160038D01*
X174026570Y-54089070D01*
X174097538Y-54041651D01*
X174181250Y-54025000D01*
X174618750Y-54025000D01*
X174702462Y-54041651D01*
X174702462Y-54041651D01*
G37*
D19*
X174400000Y-54500000D03*
D10*
G36*
X180089962Y-84354151D02*
G01*
X180160930Y-84401570D01*
X180208349Y-84472538D01*
X180225000Y-84556250D01*
X180225000Y-84993750D01*
X180208349Y-85077462D01*
X180160930Y-85148430D01*
X180089962Y-85195849D01*
X180006250Y-85212500D01*
X179493750Y-85212500D01*
X179410038Y-85195849D01*
X179339070Y-85148430D01*
X179291651Y-85077462D01*
X179275000Y-84993750D01*
X179275000Y-84556250D01*
X179291651Y-84472538D01*
X179339070Y-84401570D01*
X179410038Y-84354151D01*
X179493750Y-84337500D01*
X180006250Y-84337500D01*
X180089962Y-84354151D01*
X180089962Y-84354151D01*
G37*
D19*
X179750000Y-84775000D03*
D10*
G36*
X180089962Y-82779151D02*
G01*
X180160930Y-82826570D01*
X180208349Y-82897538D01*
X180225000Y-82981250D01*
X180225000Y-83418750D01*
X180208349Y-83502462D01*
X180160930Y-83573430D01*
X180089962Y-83620849D01*
X180006250Y-83637500D01*
X179493750Y-83637500D01*
X179410038Y-83620849D01*
X179339070Y-83573430D01*
X179291651Y-83502462D01*
X179275000Y-83418750D01*
X179275000Y-82981250D01*
X179291651Y-82897538D01*
X179339070Y-82826570D01*
X179410038Y-82779151D01*
X179493750Y-82762500D01*
X180006250Y-82762500D01*
X180089962Y-82779151D01*
X180089962Y-82779151D01*
G37*
D19*
X179750000Y-83200000D03*
D10*
G36*
X121618946Y-109691228D02*
G01*
X121666798Y-109723202D01*
X121698772Y-109771054D01*
X121710000Y-109827500D01*
X121710000Y-110172500D01*
X121698772Y-110228946D01*
X121666798Y-110276798D01*
X121618946Y-110308772D01*
X121562500Y-110320000D01*
X121267500Y-110320000D01*
X121211054Y-110308772D01*
X121163202Y-110276798D01*
X121131228Y-110228946D01*
X121120000Y-110172500D01*
X121120000Y-109827500D01*
X121131228Y-109771054D01*
X121163202Y-109723202D01*
X121211054Y-109691228D01*
X121267500Y-109680000D01*
X121562500Y-109680000D01*
X121618946Y-109691228D01*
X121618946Y-109691228D01*
G37*
D11*
X121415000Y-110000000D03*
D10*
G36*
X122588946Y-109691228D02*
G01*
X122636798Y-109723202D01*
X122668772Y-109771054D01*
X122680000Y-109827500D01*
X122680000Y-110172500D01*
X122668772Y-110228946D01*
X122636798Y-110276798D01*
X122588946Y-110308772D01*
X122532500Y-110320000D01*
X122237500Y-110320000D01*
X122181054Y-110308772D01*
X122133202Y-110276798D01*
X122101228Y-110228946D01*
X122090000Y-110172500D01*
X122090000Y-109827500D01*
X122101228Y-109771054D01*
X122133202Y-109723202D01*
X122181054Y-109691228D01*
X122237500Y-109680000D01*
X122532500Y-109680000D01*
X122588946Y-109691228D01*
X122588946Y-109691228D01*
G37*
D11*
X122385000Y-110000000D03*
D10*
G36*
X119728946Y-115986228D02*
G01*
X119776798Y-116018202D01*
X119808772Y-116066054D01*
X119820000Y-116122500D01*
X119820000Y-116417500D01*
X119808772Y-116473946D01*
X119776798Y-116521798D01*
X119728946Y-116553772D01*
X119672500Y-116565000D01*
X119327500Y-116565000D01*
X119271054Y-116553772D01*
X119223202Y-116521798D01*
X119191228Y-116473946D01*
X119180000Y-116417500D01*
X119180000Y-116122500D01*
X119191228Y-116066054D01*
X119223202Y-116018202D01*
X119271054Y-115986228D01*
X119327500Y-115975000D01*
X119672500Y-115975000D01*
X119728946Y-115986228D01*
X119728946Y-115986228D01*
G37*
D11*
X119500000Y-116270000D03*
D10*
G36*
X119728946Y-115016228D02*
G01*
X119776798Y-115048202D01*
X119808772Y-115096054D01*
X119820000Y-115152500D01*
X119820000Y-115447500D01*
X119808772Y-115503946D01*
X119776798Y-115551798D01*
X119728946Y-115583772D01*
X119672500Y-115595000D01*
X119327500Y-115595000D01*
X119271054Y-115583772D01*
X119223202Y-115551798D01*
X119191228Y-115503946D01*
X119180000Y-115447500D01*
X119180000Y-115152500D01*
X119191228Y-115096054D01*
X119223202Y-115048202D01*
X119271054Y-115016228D01*
X119327500Y-115005000D01*
X119672500Y-115005000D01*
X119728946Y-115016228D01*
X119728946Y-115016228D01*
G37*
D11*
X119500000Y-115300000D03*
D10*
G36*
X118328946Y-113231228D02*
G01*
X118376798Y-113263202D01*
X118408772Y-113311054D01*
X118420000Y-113367500D01*
X118420000Y-113662500D01*
X118408772Y-113718946D01*
X118376798Y-113766798D01*
X118328946Y-113798772D01*
X118272500Y-113810000D01*
X117927500Y-113810000D01*
X117871054Y-113798772D01*
X117823202Y-113766798D01*
X117791228Y-113718946D01*
X117780000Y-113662500D01*
X117780000Y-113367500D01*
X117791228Y-113311054D01*
X117823202Y-113263202D01*
X117871054Y-113231228D01*
X117927500Y-113220000D01*
X118272500Y-113220000D01*
X118328946Y-113231228D01*
X118328946Y-113231228D01*
G37*
D11*
X118100000Y-113515000D03*
D10*
G36*
X118328946Y-114201228D02*
G01*
X118376798Y-114233202D01*
X118408772Y-114281054D01*
X118420000Y-114337500D01*
X118420000Y-114632500D01*
X118408772Y-114688946D01*
X118376798Y-114736798D01*
X118328946Y-114768772D01*
X118272500Y-114780000D01*
X117927500Y-114780000D01*
X117871054Y-114768772D01*
X117823202Y-114736798D01*
X117791228Y-114688946D01*
X117780000Y-114632500D01*
X117780000Y-114337500D01*
X117791228Y-114281054D01*
X117823202Y-114233202D01*
X117871054Y-114201228D01*
X117927500Y-114190000D01*
X118272500Y-114190000D01*
X118328946Y-114201228D01*
X118328946Y-114201228D01*
G37*
D11*
X118100000Y-114485000D03*
D10*
G36*
X118328946Y-112201228D02*
G01*
X118376798Y-112233202D01*
X118408772Y-112281054D01*
X118420000Y-112337500D01*
X118420000Y-112632500D01*
X118408772Y-112688946D01*
X118376798Y-112736798D01*
X118328946Y-112768772D01*
X118272500Y-112780000D01*
X117927500Y-112780000D01*
X117871054Y-112768772D01*
X117823202Y-112736798D01*
X117791228Y-112688946D01*
X117780000Y-112632500D01*
X117780000Y-112337500D01*
X117791228Y-112281054D01*
X117823202Y-112233202D01*
X117871054Y-112201228D01*
X117927500Y-112190000D01*
X118272500Y-112190000D01*
X118328946Y-112201228D01*
X118328946Y-112201228D01*
G37*
D11*
X118100000Y-112485000D03*
D10*
G36*
X118328946Y-111231228D02*
G01*
X118376798Y-111263202D01*
X118408772Y-111311054D01*
X118420000Y-111367500D01*
X118420000Y-111662500D01*
X118408772Y-111718946D01*
X118376798Y-111766798D01*
X118328946Y-111798772D01*
X118272500Y-111810000D01*
X117927500Y-111810000D01*
X117871054Y-111798772D01*
X117823202Y-111766798D01*
X117791228Y-111718946D01*
X117780000Y-111662500D01*
X117780000Y-111367500D01*
X117791228Y-111311054D01*
X117823202Y-111263202D01*
X117871054Y-111231228D01*
X117927500Y-111220000D01*
X118272500Y-111220000D01*
X118328946Y-111231228D01*
X118328946Y-111231228D01*
G37*
D11*
X118100000Y-111515000D03*
D10*
G36*
X119528946Y-113201228D02*
G01*
X119576798Y-113233202D01*
X119608772Y-113281054D01*
X119620000Y-113337500D01*
X119620000Y-113632500D01*
X119608772Y-113688946D01*
X119576798Y-113736798D01*
X119528946Y-113768772D01*
X119472500Y-113780000D01*
X119127500Y-113780000D01*
X119071054Y-113768772D01*
X119023202Y-113736798D01*
X118991228Y-113688946D01*
X118980000Y-113632500D01*
X118980000Y-113337500D01*
X118991228Y-113281054D01*
X119023202Y-113233202D01*
X119071054Y-113201228D01*
X119127500Y-113190000D01*
X119472500Y-113190000D01*
X119528946Y-113201228D01*
X119528946Y-113201228D01*
G37*
D11*
X119300000Y-113485000D03*
D10*
G36*
X119528946Y-112231228D02*
G01*
X119576798Y-112263202D01*
X119608772Y-112311054D01*
X119620000Y-112367500D01*
X119620000Y-112662500D01*
X119608772Y-112718946D01*
X119576798Y-112766798D01*
X119528946Y-112798772D01*
X119472500Y-112810000D01*
X119127500Y-112810000D01*
X119071054Y-112798772D01*
X119023202Y-112766798D01*
X118991228Y-112718946D01*
X118980000Y-112662500D01*
X118980000Y-112367500D01*
X118991228Y-112311054D01*
X119023202Y-112263202D01*
X119071054Y-112231228D01*
X119127500Y-112220000D01*
X119472500Y-112220000D01*
X119528946Y-112231228D01*
X119528946Y-112231228D01*
G37*
D11*
X119300000Y-112515000D03*
D10*
G36*
X174689962Y-52341651D02*
G01*
X174760930Y-52389070D01*
X174808349Y-52460038D01*
X174825000Y-52543750D01*
X174825000Y-53056250D01*
X174808349Y-53139962D01*
X174760930Y-53210930D01*
X174689962Y-53258349D01*
X174606250Y-53275000D01*
X174168750Y-53275000D01*
X174085038Y-53258349D01*
X174014070Y-53210930D01*
X173966651Y-53139962D01*
X173950000Y-53056250D01*
X173950000Y-52543750D01*
X173966651Y-52460038D01*
X174014070Y-52389070D01*
X174085038Y-52341651D01*
X174168750Y-52325000D01*
X174606250Y-52325000D01*
X174689962Y-52341651D01*
X174689962Y-52341651D01*
G37*
D19*
X174387500Y-52800000D03*
D10*
G36*
X173114962Y-52341651D02*
G01*
X173185930Y-52389070D01*
X173233349Y-52460038D01*
X173250000Y-52543750D01*
X173250000Y-53056250D01*
X173233349Y-53139962D01*
X173185930Y-53210930D01*
X173114962Y-53258349D01*
X173031250Y-53275000D01*
X172593750Y-53275000D01*
X172510038Y-53258349D01*
X172439070Y-53210930D01*
X172391651Y-53139962D01*
X172375000Y-53056250D01*
X172375000Y-52543750D01*
X172391651Y-52460038D01*
X172439070Y-52389070D01*
X172510038Y-52341651D01*
X172593750Y-52325000D01*
X173031250Y-52325000D01*
X173114962Y-52341651D01*
X173114962Y-52341651D01*
G37*
D19*
X172812500Y-52800000D03*
D10*
G36*
X178339962Y-82779151D02*
G01*
X178410930Y-82826570D01*
X178458349Y-82897538D01*
X178475000Y-82981250D01*
X178475000Y-83418750D01*
X178458349Y-83502462D01*
X178410930Y-83573430D01*
X178339962Y-83620849D01*
X178256250Y-83637500D01*
X177743750Y-83637500D01*
X177660038Y-83620849D01*
X177589070Y-83573430D01*
X177541651Y-83502462D01*
X177525000Y-83418750D01*
X177525000Y-82981250D01*
X177541651Y-82897538D01*
X177589070Y-82826570D01*
X177660038Y-82779151D01*
X177743750Y-82762500D01*
X178256250Y-82762500D01*
X178339962Y-82779151D01*
X178339962Y-82779151D01*
G37*
D19*
X178000000Y-83200000D03*
D10*
G36*
X178339962Y-84354151D02*
G01*
X178410930Y-84401570D01*
X178458349Y-84472538D01*
X178475000Y-84556250D01*
X178475000Y-84993750D01*
X178458349Y-85077462D01*
X178410930Y-85148430D01*
X178339962Y-85195849D01*
X178256250Y-85212500D01*
X177743750Y-85212500D01*
X177660038Y-85195849D01*
X177589070Y-85148430D01*
X177541651Y-85077462D01*
X177525000Y-84993750D01*
X177525000Y-84556250D01*
X177541651Y-84472538D01*
X177589070Y-84401570D01*
X177660038Y-84354151D01*
X177743750Y-84337500D01*
X178256250Y-84337500D01*
X178339962Y-84354151D01*
X178339962Y-84354151D01*
G37*
D19*
X178000000Y-84775000D03*
D20*
X121100000Y-106700000D03*
X123300000Y-106700000D03*
X123300000Y-108400000D03*
X121100000Y-108400000D03*
D21*
X124726499Y-128797851D03*
D10*
G36*
X125305723Y-129937061D02*
G01*
X123472183Y-129042784D01*
X124147275Y-127658641D01*
X125980815Y-128552918D01*
X125305723Y-129937061D01*
X125305723Y-129937061D01*
G37*
D21*
X123880443Y-130532523D03*
D10*
G36*
X124459667Y-131671733D02*
G01*
X122626127Y-130777456D01*
X123301219Y-129393313D01*
X125134759Y-130287590D01*
X124459667Y-131671733D01*
X124459667Y-131671733D01*
G37*
D21*
X126073501Y-131602149D03*
D10*
G36*
X126652725Y-132741359D02*
G01*
X124819185Y-131847082D01*
X125494277Y-130462939D01*
X127327817Y-131357216D01*
X126652725Y-132741359D01*
X126652725Y-132741359D01*
G37*
D21*
X126919557Y-129867477D03*
D10*
G36*
X127498781Y-131006687D02*
G01*
X125665241Y-130112410D01*
X126340333Y-128728267D01*
X128173873Y-129622544D01*
X127498781Y-131006687D01*
X127498781Y-131006687D01*
G37*
G36*
X123675671Y-113439030D02*
G01*
X123756777Y-113493223D01*
X123810970Y-113574329D01*
X123830000Y-113670000D01*
X123830000Y-114180000D01*
X123810970Y-114275671D01*
X123756777Y-114356777D01*
X123675671Y-114410970D01*
X123580000Y-114430000D01*
X123070000Y-114430000D01*
X122974329Y-114410970D01*
X122893223Y-114356777D01*
X122839030Y-114275671D01*
X122820000Y-114180000D01*
X122820000Y-113670000D01*
X122839030Y-113574329D01*
X122893223Y-113493223D01*
X122974329Y-113439030D01*
X123070000Y-113420000D01*
X123580000Y-113420000D01*
X123675671Y-113439030D01*
X123675671Y-113439030D01*
G37*
D22*
X123325000Y-113925000D03*
D10*
G36*
X123675671Y-112189030D02*
G01*
X123756777Y-112243223D01*
X123810970Y-112324329D01*
X123830000Y-112420000D01*
X123830000Y-112930000D01*
X123810970Y-113025671D01*
X123756777Y-113106777D01*
X123675671Y-113160970D01*
X123580000Y-113180000D01*
X123070000Y-113180000D01*
X122974329Y-113160970D01*
X122893223Y-113106777D01*
X122839030Y-113025671D01*
X122820000Y-112930000D01*
X122820000Y-112420000D01*
X122839030Y-112324329D01*
X122893223Y-112243223D01*
X122974329Y-112189030D01*
X123070000Y-112170000D01*
X123580000Y-112170000D01*
X123675671Y-112189030D01*
X123675671Y-112189030D01*
G37*
D22*
X123325000Y-112675000D03*
D10*
G36*
X122425671Y-113439030D02*
G01*
X122506777Y-113493223D01*
X122560970Y-113574329D01*
X122580000Y-113670000D01*
X122580000Y-114180000D01*
X122560970Y-114275671D01*
X122506777Y-114356777D01*
X122425671Y-114410970D01*
X122330000Y-114430000D01*
X121820000Y-114430000D01*
X121724329Y-114410970D01*
X121643223Y-114356777D01*
X121589030Y-114275671D01*
X121570000Y-114180000D01*
X121570000Y-113670000D01*
X121589030Y-113574329D01*
X121643223Y-113493223D01*
X121724329Y-113439030D01*
X121820000Y-113420000D01*
X122330000Y-113420000D01*
X122425671Y-113439030D01*
X122425671Y-113439030D01*
G37*
D22*
X122075000Y-113925000D03*
D10*
G36*
X122425671Y-112189030D02*
G01*
X122506777Y-112243223D01*
X122560970Y-112324329D01*
X122580000Y-112420000D01*
X122580000Y-112930000D01*
X122560970Y-113025671D01*
X122506777Y-113106777D01*
X122425671Y-113160970D01*
X122330000Y-113180000D01*
X121820000Y-113180000D01*
X121724329Y-113160970D01*
X121643223Y-113106777D01*
X121589030Y-113025671D01*
X121570000Y-112930000D01*
X121570000Y-112420000D01*
X121589030Y-112324329D01*
X121643223Y-112243223D01*
X121724329Y-112189030D01*
X121820000Y-112170000D01*
X122330000Y-112170000D01*
X122425671Y-112189030D01*
X122425671Y-112189030D01*
G37*
D22*
X122075000Y-112675000D03*
D10*
G36*
X125011418Y-114179758D02*
G01*
X125031694Y-114193306D01*
X125045242Y-114213582D01*
X125050000Y-114237500D01*
X125050000Y-114362500D01*
X125045242Y-114386418D01*
X125031694Y-114406694D01*
X125011418Y-114420242D01*
X124987500Y-114425000D01*
X124287500Y-114425000D01*
X124263582Y-114420242D01*
X124243306Y-114406694D01*
X124229758Y-114386418D01*
X124225000Y-114362500D01*
X124225000Y-114237500D01*
X124229758Y-114213582D01*
X124243306Y-114193306D01*
X124263582Y-114179758D01*
X124287500Y-114175000D01*
X124987500Y-114175000D01*
X125011418Y-114179758D01*
X125011418Y-114179758D01*
G37*
D23*
X124637500Y-114300000D03*
D10*
G36*
X125011418Y-113679758D02*
G01*
X125031694Y-113693306D01*
X125045242Y-113713582D01*
X125050000Y-113737500D01*
X125050000Y-113862500D01*
X125045242Y-113886418D01*
X125031694Y-113906694D01*
X125011418Y-113920242D01*
X124987500Y-113925000D01*
X124287500Y-113925000D01*
X124263582Y-113920242D01*
X124243306Y-113906694D01*
X124229758Y-113886418D01*
X124225000Y-113862500D01*
X124225000Y-113737500D01*
X124229758Y-113713582D01*
X124243306Y-113693306D01*
X124263582Y-113679758D01*
X124287500Y-113675000D01*
X124987500Y-113675000D01*
X125011418Y-113679758D01*
X125011418Y-113679758D01*
G37*
D23*
X124637500Y-113800000D03*
D10*
G36*
X125011418Y-113179758D02*
G01*
X125031694Y-113193306D01*
X125045242Y-113213582D01*
X125050000Y-113237500D01*
X125050000Y-113362500D01*
X125045242Y-113386418D01*
X125031694Y-113406694D01*
X125011418Y-113420242D01*
X124987500Y-113425000D01*
X124287500Y-113425000D01*
X124263582Y-113420242D01*
X124243306Y-113406694D01*
X124229758Y-113386418D01*
X124225000Y-113362500D01*
X124225000Y-113237500D01*
X124229758Y-113213582D01*
X124243306Y-113193306D01*
X124263582Y-113179758D01*
X124287500Y-113175000D01*
X124987500Y-113175000D01*
X125011418Y-113179758D01*
X125011418Y-113179758D01*
G37*
D23*
X124637500Y-113300000D03*
D10*
G36*
X125011418Y-112679758D02*
G01*
X125031694Y-112693306D01*
X125045242Y-112713582D01*
X125050000Y-112737500D01*
X125050000Y-112862500D01*
X125045242Y-112886418D01*
X125031694Y-112906694D01*
X125011418Y-112920242D01*
X124987500Y-112925000D01*
X124287500Y-112925000D01*
X124263582Y-112920242D01*
X124243306Y-112906694D01*
X124229758Y-112886418D01*
X124225000Y-112862500D01*
X124225000Y-112737500D01*
X124229758Y-112713582D01*
X124243306Y-112693306D01*
X124263582Y-112679758D01*
X124287500Y-112675000D01*
X124987500Y-112675000D01*
X125011418Y-112679758D01*
X125011418Y-112679758D01*
G37*
D23*
X124637500Y-112800000D03*
D10*
G36*
X125011418Y-112179758D02*
G01*
X125031694Y-112193306D01*
X125045242Y-112213582D01*
X125050000Y-112237500D01*
X125050000Y-112362500D01*
X125045242Y-112386418D01*
X125031694Y-112406694D01*
X125011418Y-112420242D01*
X124987500Y-112425000D01*
X124287500Y-112425000D01*
X124263582Y-112420242D01*
X124243306Y-112406694D01*
X124229758Y-112386418D01*
X124225000Y-112362500D01*
X124225000Y-112237500D01*
X124229758Y-112213582D01*
X124243306Y-112193306D01*
X124263582Y-112179758D01*
X124287500Y-112175000D01*
X124987500Y-112175000D01*
X125011418Y-112179758D01*
X125011418Y-112179758D01*
G37*
D23*
X124637500Y-112300000D03*
D10*
G36*
X123786418Y-110954758D02*
G01*
X123806694Y-110968306D01*
X123820242Y-110988582D01*
X123825000Y-111012500D01*
X123825000Y-111712500D01*
X123820242Y-111736418D01*
X123806694Y-111756694D01*
X123786418Y-111770242D01*
X123762500Y-111775000D01*
X123637500Y-111775000D01*
X123613582Y-111770242D01*
X123593306Y-111756694D01*
X123579758Y-111736418D01*
X123575000Y-111712500D01*
X123575000Y-111012500D01*
X123579758Y-110988582D01*
X123593306Y-110968306D01*
X123613582Y-110954758D01*
X123637500Y-110950000D01*
X123762500Y-110950000D01*
X123786418Y-110954758D01*
X123786418Y-110954758D01*
G37*
D23*
X123700000Y-111362500D03*
D10*
G36*
X123286418Y-110954758D02*
G01*
X123306694Y-110968306D01*
X123320242Y-110988582D01*
X123325000Y-111012500D01*
X123325000Y-111712500D01*
X123320242Y-111736418D01*
X123306694Y-111756694D01*
X123286418Y-111770242D01*
X123262500Y-111775000D01*
X123137500Y-111775000D01*
X123113582Y-111770242D01*
X123093306Y-111756694D01*
X123079758Y-111736418D01*
X123075000Y-111712500D01*
X123075000Y-111012500D01*
X123079758Y-110988582D01*
X123093306Y-110968306D01*
X123113582Y-110954758D01*
X123137500Y-110950000D01*
X123262500Y-110950000D01*
X123286418Y-110954758D01*
X123286418Y-110954758D01*
G37*
D23*
X123200000Y-111362500D03*
D10*
G36*
X122786418Y-110954758D02*
G01*
X122806694Y-110968306D01*
X122820242Y-110988582D01*
X122825000Y-111012500D01*
X122825000Y-111712500D01*
X122820242Y-111736418D01*
X122806694Y-111756694D01*
X122786418Y-111770242D01*
X122762500Y-111775000D01*
X122637500Y-111775000D01*
X122613582Y-111770242D01*
X122593306Y-111756694D01*
X122579758Y-111736418D01*
X122575000Y-111712500D01*
X122575000Y-111012500D01*
X122579758Y-110988582D01*
X122593306Y-110968306D01*
X122613582Y-110954758D01*
X122637500Y-110950000D01*
X122762500Y-110950000D01*
X122786418Y-110954758D01*
X122786418Y-110954758D01*
G37*
D23*
X122700000Y-111362500D03*
D10*
G36*
X122286418Y-110954758D02*
G01*
X122306694Y-110968306D01*
X122320242Y-110988582D01*
X122325000Y-111012500D01*
X122325000Y-111712500D01*
X122320242Y-111736418D01*
X122306694Y-111756694D01*
X122286418Y-111770242D01*
X122262500Y-111775000D01*
X122137500Y-111775000D01*
X122113582Y-111770242D01*
X122093306Y-111756694D01*
X122079758Y-111736418D01*
X122075000Y-111712500D01*
X122075000Y-111012500D01*
X122079758Y-110988582D01*
X122093306Y-110968306D01*
X122113582Y-110954758D01*
X122137500Y-110950000D01*
X122262500Y-110950000D01*
X122286418Y-110954758D01*
X122286418Y-110954758D01*
G37*
D23*
X122200000Y-111362500D03*
D10*
G36*
X121786418Y-110954758D02*
G01*
X121806694Y-110968306D01*
X121820242Y-110988582D01*
X121825000Y-111012500D01*
X121825000Y-111712500D01*
X121820242Y-111736418D01*
X121806694Y-111756694D01*
X121786418Y-111770242D01*
X121762500Y-111775000D01*
X121637500Y-111775000D01*
X121613582Y-111770242D01*
X121593306Y-111756694D01*
X121579758Y-111736418D01*
X121575000Y-111712500D01*
X121575000Y-111012500D01*
X121579758Y-110988582D01*
X121593306Y-110968306D01*
X121613582Y-110954758D01*
X121637500Y-110950000D01*
X121762500Y-110950000D01*
X121786418Y-110954758D01*
X121786418Y-110954758D01*
G37*
D23*
X121700000Y-111362500D03*
D10*
G36*
X121136418Y-112179758D02*
G01*
X121156694Y-112193306D01*
X121170242Y-112213582D01*
X121175000Y-112237500D01*
X121175000Y-112362500D01*
X121170242Y-112386418D01*
X121156694Y-112406694D01*
X121136418Y-112420242D01*
X121112500Y-112425000D01*
X120412500Y-112425000D01*
X120388582Y-112420242D01*
X120368306Y-112406694D01*
X120354758Y-112386418D01*
X120350000Y-112362500D01*
X120350000Y-112237500D01*
X120354758Y-112213582D01*
X120368306Y-112193306D01*
X120388582Y-112179758D01*
X120412500Y-112175000D01*
X121112500Y-112175000D01*
X121136418Y-112179758D01*
X121136418Y-112179758D01*
G37*
D23*
X120762500Y-112300000D03*
D10*
G36*
X121136418Y-112679758D02*
G01*
X121156694Y-112693306D01*
X121170242Y-112713582D01*
X121175000Y-112737500D01*
X121175000Y-112862500D01*
X121170242Y-112886418D01*
X121156694Y-112906694D01*
X121136418Y-112920242D01*
X121112500Y-112925000D01*
X120412500Y-112925000D01*
X120388582Y-112920242D01*
X120368306Y-112906694D01*
X120354758Y-112886418D01*
X120350000Y-112862500D01*
X120350000Y-112737500D01*
X120354758Y-112713582D01*
X120368306Y-112693306D01*
X120388582Y-112679758D01*
X120412500Y-112675000D01*
X121112500Y-112675000D01*
X121136418Y-112679758D01*
X121136418Y-112679758D01*
G37*
D23*
X120762500Y-112800000D03*
D10*
G36*
X121136418Y-113179758D02*
G01*
X121156694Y-113193306D01*
X121170242Y-113213582D01*
X121175000Y-113237500D01*
X121175000Y-113362500D01*
X121170242Y-113386418D01*
X121156694Y-113406694D01*
X121136418Y-113420242D01*
X121112500Y-113425000D01*
X120412500Y-113425000D01*
X120388582Y-113420242D01*
X120368306Y-113406694D01*
X120354758Y-113386418D01*
X120350000Y-113362500D01*
X120350000Y-113237500D01*
X120354758Y-113213582D01*
X120368306Y-113193306D01*
X120388582Y-113179758D01*
X120412500Y-113175000D01*
X121112500Y-113175000D01*
X121136418Y-113179758D01*
X121136418Y-113179758D01*
G37*
D23*
X120762500Y-113300000D03*
D10*
G36*
X121136418Y-113679758D02*
G01*
X121156694Y-113693306D01*
X121170242Y-113713582D01*
X121175000Y-113737500D01*
X121175000Y-113862500D01*
X121170242Y-113886418D01*
X121156694Y-113906694D01*
X121136418Y-113920242D01*
X121112500Y-113925000D01*
X120412500Y-113925000D01*
X120388582Y-113920242D01*
X120368306Y-113906694D01*
X120354758Y-113886418D01*
X120350000Y-113862500D01*
X120350000Y-113737500D01*
X120354758Y-113713582D01*
X120368306Y-113693306D01*
X120388582Y-113679758D01*
X120412500Y-113675000D01*
X121112500Y-113675000D01*
X121136418Y-113679758D01*
X121136418Y-113679758D01*
G37*
D23*
X120762500Y-113800000D03*
D10*
G36*
X121136418Y-114179758D02*
G01*
X121156694Y-114193306D01*
X121170242Y-114213582D01*
X121175000Y-114237500D01*
X121175000Y-114362500D01*
X121170242Y-114386418D01*
X121156694Y-114406694D01*
X121136418Y-114420242D01*
X121112500Y-114425000D01*
X120412500Y-114425000D01*
X120388582Y-114420242D01*
X120368306Y-114406694D01*
X120354758Y-114386418D01*
X120350000Y-114362500D01*
X120350000Y-114237500D01*
X120354758Y-114213582D01*
X120368306Y-114193306D01*
X120388582Y-114179758D01*
X120412500Y-114175000D01*
X121112500Y-114175000D01*
X121136418Y-114179758D01*
X121136418Y-114179758D01*
G37*
D23*
X120762500Y-114300000D03*
D10*
G36*
X121786418Y-114829758D02*
G01*
X121806694Y-114843306D01*
X121820242Y-114863582D01*
X121825000Y-114887500D01*
X121825000Y-115587500D01*
X121820242Y-115611418D01*
X121806694Y-115631694D01*
X121786418Y-115645242D01*
X121762500Y-115650000D01*
X121637500Y-115650000D01*
X121613582Y-115645242D01*
X121593306Y-115631694D01*
X121579758Y-115611418D01*
X121575000Y-115587500D01*
X121575000Y-114887500D01*
X121579758Y-114863582D01*
X121593306Y-114843306D01*
X121613582Y-114829758D01*
X121637500Y-114825000D01*
X121762500Y-114825000D01*
X121786418Y-114829758D01*
X121786418Y-114829758D01*
G37*
D23*
X121700000Y-115237500D03*
D10*
G36*
X122286418Y-114829758D02*
G01*
X122306694Y-114843306D01*
X122320242Y-114863582D01*
X122325000Y-114887500D01*
X122325000Y-115587500D01*
X122320242Y-115611418D01*
X122306694Y-115631694D01*
X122286418Y-115645242D01*
X122262500Y-115650000D01*
X122137500Y-115650000D01*
X122113582Y-115645242D01*
X122093306Y-115631694D01*
X122079758Y-115611418D01*
X122075000Y-115587500D01*
X122075000Y-114887500D01*
X122079758Y-114863582D01*
X122093306Y-114843306D01*
X122113582Y-114829758D01*
X122137500Y-114825000D01*
X122262500Y-114825000D01*
X122286418Y-114829758D01*
X122286418Y-114829758D01*
G37*
D23*
X122200000Y-115237500D03*
D10*
G36*
X122786418Y-114829758D02*
G01*
X122806694Y-114843306D01*
X122820242Y-114863582D01*
X122825000Y-114887500D01*
X122825000Y-115587500D01*
X122820242Y-115611418D01*
X122806694Y-115631694D01*
X122786418Y-115645242D01*
X122762500Y-115650000D01*
X122637500Y-115650000D01*
X122613582Y-115645242D01*
X122593306Y-115631694D01*
X122579758Y-115611418D01*
X122575000Y-115587500D01*
X122575000Y-114887500D01*
X122579758Y-114863582D01*
X122593306Y-114843306D01*
X122613582Y-114829758D01*
X122637500Y-114825000D01*
X122762500Y-114825000D01*
X122786418Y-114829758D01*
X122786418Y-114829758D01*
G37*
D23*
X122700000Y-115237500D03*
D10*
G36*
X123286418Y-114829758D02*
G01*
X123306694Y-114843306D01*
X123320242Y-114863582D01*
X123325000Y-114887500D01*
X123325000Y-115587500D01*
X123320242Y-115611418D01*
X123306694Y-115631694D01*
X123286418Y-115645242D01*
X123262500Y-115650000D01*
X123137500Y-115650000D01*
X123113582Y-115645242D01*
X123093306Y-115631694D01*
X123079758Y-115611418D01*
X123075000Y-115587500D01*
X123075000Y-114887500D01*
X123079758Y-114863582D01*
X123093306Y-114843306D01*
X123113582Y-114829758D01*
X123137500Y-114825000D01*
X123262500Y-114825000D01*
X123286418Y-114829758D01*
X123286418Y-114829758D01*
G37*
D23*
X123200000Y-115237500D03*
D10*
G36*
X123786418Y-114829758D02*
G01*
X123806694Y-114843306D01*
X123820242Y-114863582D01*
X123825000Y-114887500D01*
X123825000Y-115587500D01*
X123820242Y-115611418D01*
X123806694Y-115631694D01*
X123786418Y-115645242D01*
X123762500Y-115650000D01*
X123637500Y-115650000D01*
X123613582Y-115645242D01*
X123593306Y-115631694D01*
X123579758Y-115611418D01*
X123575000Y-115587500D01*
X123575000Y-114887500D01*
X123579758Y-114863582D01*
X123593306Y-114843306D01*
X123613582Y-114829758D01*
X123637500Y-114825000D01*
X123762500Y-114825000D01*
X123786418Y-114829758D01*
X123786418Y-114829758D01*
G37*
D23*
X123700000Y-115237500D03*
D24*
X182055293Y-55729277D03*
D10*
G36*
X183228631Y-55432162D02*
G01*
X182071985Y-56939534D01*
X180881955Y-56026392D01*
X182038601Y-54519020D01*
X183228631Y-55432162D01*
X183228631Y-55432162D01*
G37*
D25*
X181720670Y-58875787D03*
D10*
G36*
X182290255Y-58462026D02*
G01*
X181468427Y-59533053D01*
X181151085Y-59289548D01*
X181972913Y-58218521D01*
X182290255Y-58462026D01*
X182290255Y-58462026D01*
G37*
D25*
X182236350Y-59271482D03*
D10*
G36*
X182805935Y-58857721D02*
G01*
X181984107Y-59928748D01*
X181666765Y-59685243D01*
X182488593Y-58614216D01*
X182805935Y-58857721D01*
X182805935Y-58857721D01*
G37*
D25*
X180173631Y-57688702D03*
D10*
G36*
X180743216Y-57274941D02*
G01*
X179921388Y-58345968D01*
X179604046Y-58102463D01*
X180425874Y-57031436D01*
X180743216Y-57274941D01*
X180743216Y-57274941D01*
G37*
D25*
X180689311Y-58084397D03*
D10*
G36*
X181258896Y-57670636D02*
G01*
X180437068Y-58741663D01*
X180119726Y-58498158D01*
X180941554Y-57427131D01*
X181258896Y-57670636D01*
X181258896Y-57670636D01*
G37*
D25*
X181204990Y-58480092D03*
D10*
G36*
X181774575Y-58066331D02*
G01*
X180952747Y-59137358D01*
X180635405Y-58893853D01*
X181457233Y-57822826D01*
X181774575Y-58066331D01*
X181774575Y-58066331D01*
G37*
D24*
X183642000Y-56946800D03*
D10*
G36*
X184815338Y-56649685D02*
G01*
X183658692Y-58157057D01*
X182468662Y-57243915D01*
X183625308Y-55736543D01*
X184815338Y-56649685D01*
X184815338Y-56649685D01*
G37*
D26*
X127140007Y-71995137D03*
D10*
G36*
X126138819Y-70140886D02*
G01*
X129098851Y-71218249D01*
X128141195Y-73849388D01*
X125181163Y-72772025D01*
X126138819Y-70140886D01*
X126138819Y-70140886D01*
G37*
D26*
X121830744Y-70062723D03*
D10*
G36*
X120829556Y-68208472D02*
G01*
X123789588Y-69285835D01*
X122831932Y-71916974D01*
X119871900Y-70839611D01*
X120829556Y-68208472D01*
X120829556Y-68208472D01*
G37*
D27*
X122847967Y-88523984D03*
D10*
G36*
X122861095Y-87464584D02*
G01*
X123518880Y-87703998D01*
X122834839Y-89583384D01*
X122177054Y-89343970D01*
X122861095Y-87464584D01*
X122861095Y-87464584D01*
G37*
D27*
X121654557Y-88089619D03*
D10*
G36*
X121667685Y-87030219D02*
G01*
X122325470Y-87269633D01*
X121641429Y-89149019D01*
X120983644Y-88909605D01*
X121667685Y-87030219D01*
X121667685Y-87030219D01*
G37*
D27*
X120461147Y-87655253D03*
D10*
G36*
X120474275Y-86595853D02*
G01*
X121132060Y-86835267D01*
X120448019Y-88714653D01*
X119790234Y-88475239D01*
X120474275Y-86595853D01*
X120474275Y-86595853D01*
G37*
D27*
X119267739Y-87220888D03*
D10*
G36*
X119280867Y-86161488D02*
G01*
X119938652Y-86400902D01*
X119254611Y-88280288D01*
X118596826Y-88040874D01*
X119280867Y-86161488D01*
X119280867Y-86161488D01*
G37*
D27*
X118074328Y-86786522D03*
D10*
G36*
X118087456Y-85727122D02*
G01*
X118745241Y-85966536D01*
X118061200Y-87845922D01*
X117403415Y-87606508D01*
X118087456Y-85727122D01*
X118087456Y-85727122D01*
G37*
D27*
X116880918Y-86352156D03*
D10*
G36*
X116894046Y-85292756D02*
G01*
X117551831Y-85532170D01*
X116867790Y-87411556D01*
X116210005Y-87172142D01*
X116894046Y-85292756D01*
X116894046Y-85292756D01*
G37*
D27*
X115687509Y-85917791D03*
D10*
G36*
X115700637Y-84858391D02*
G01*
X116358422Y-85097805D01*
X115674381Y-86977191D01*
X115016596Y-86737777D01*
X115700637Y-84858391D01*
X115700637Y-84858391D01*
G37*
D27*
X114494099Y-85483425D03*
D10*
G36*
X114507227Y-84424025D02*
G01*
X115165012Y-84663439D01*
X114480971Y-86542825D01*
X113823186Y-86303411D01*
X114507227Y-84424025D01*
X114507227Y-84424025D01*
G37*
D28*
X181150000Y-74950000D03*
X178150000Y-74950000D03*
D29*
X178900000Y-81250000D03*
D28*
X179650000Y-74950000D03*
X176650000Y-74950000D03*
D10*
G36*
X174250492Y-106236345D02*
G01*
X174288216Y-106258788D01*
X174455424Y-106409342D01*
X174481688Y-106444513D01*
X174492493Y-106487058D01*
X174486194Y-106530499D01*
X174463751Y-106568223D01*
X174079001Y-106995531D01*
X174043829Y-107021795D01*
X174001285Y-107032600D01*
X173957844Y-107026301D01*
X173920120Y-107003858D01*
X173752912Y-106853304D01*
X173726648Y-106818133D01*
X173715843Y-106775588D01*
X173722142Y-106732147D01*
X173744585Y-106694423D01*
X174129335Y-106267115D01*
X174164507Y-106240851D01*
X174207051Y-106230046D01*
X174250492Y-106236345D01*
X174250492Y-106236345D01*
G37*
D30*
X174104168Y-106631323D03*
D10*
G36*
X173804605Y-105834866D02*
G01*
X173842329Y-105857309D01*
X174009537Y-106007863D01*
X174035801Y-106043034D01*
X174046606Y-106085579D01*
X174040307Y-106129020D01*
X174017864Y-106166744D01*
X173633114Y-106594052D01*
X173597942Y-106620316D01*
X173555398Y-106631121D01*
X173511957Y-106624822D01*
X173474233Y-106602379D01*
X173307025Y-106451825D01*
X173280761Y-106416654D01*
X173269956Y-106374109D01*
X173276255Y-106330668D01*
X173298698Y-106292944D01*
X173683448Y-105865636D01*
X173718620Y-105839372D01*
X173761164Y-105828567D01*
X173804605Y-105834866D01*
X173804605Y-105834866D01*
G37*
D30*
X173658281Y-106229844D03*
D10*
G36*
X173358718Y-105433388D02*
G01*
X173396442Y-105455831D01*
X173563650Y-105606385D01*
X173589914Y-105641556D01*
X173600719Y-105684101D01*
X173594420Y-105727542D01*
X173571977Y-105765266D01*
X173187227Y-106192574D01*
X173152055Y-106218838D01*
X173109511Y-106229643D01*
X173066070Y-106223344D01*
X173028346Y-106200901D01*
X172861138Y-106050347D01*
X172834874Y-106015176D01*
X172824069Y-105972631D01*
X172830368Y-105929190D01*
X172852811Y-105891466D01*
X173237561Y-105464158D01*
X173272733Y-105437894D01*
X173315277Y-105427089D01*
X173358718Y-105433388D01*
X173358718Y-105433388D01*
G37*
D30*
X173212394Y-105828366D03*
D10*
G36*
X172912831Y-105031909D02*
G01*
X172950555Y-105054352D01*
X173117763Y-105204906D01*
X173144027Y-105240077D01*
X173154832Y-105282622D01*
X173148533Y-105326063D01*
X173126090Y-105363787D01*
X172741340Y-105791095D01*
X172706168Y-105817359D01*
X172663624Y-105828164D01*
X172620183Y-105821865D01*
X172582459Y-105799422D01*
X172415251Y-105648868D01*
X172388987Y-105613697D01*
X172378182Y-105571152D01*
X172384481Y-105527711D01*
X172406924Y-105489987D01*
X172791674Y-105062679D01*
X172826846Y-105036415D01*
X172869390Y-105025610D01*
X172912831Y-105031909D01*
X172912831Y-105031909D01*
G37*
D30*
X172766507Y-105426887D03*
D10*
G36*
X172466944Y-104630431D02*
G01*
X172504668Y-104652874D01*
X172671876Y-104803428D01*
X172698140Y-104838599D01*
X172708945Y-104881144D01*
X172702646Y-104924585D01*
X172680203Y-104962309D01*
X172295453Y-105389617D01*
X172260281Y-105415881D01*
X172217737Y-105426686D01*
X172174296Y-105420387D01*
X172136572Y-105397944D01*
X171969364Y-105247390D01*
X171943100Y-105212219D01*
X171932295Y-105169674D01*
X171938594Y-105126233D01*
X171961037Y-105088509D01*
X172345787Y-104661201D01*
X172380959Y-104634937D01*
X172423503Y-104624132D01*
X172466944Y-104630431D01*
X172466944Y-104630431D01*
G37*
D30*
X172320620Y-105025409D03*
D10*
G36*
X174507792Y-102363839D02*
G01*
X174545516Y-102386282D01*
X174712724Y-102536836D01*
X174738988Y-102572007D01*
X174749793Y-102614552D01*
X174743494Y-102657993D01*
X174721051Y-102695717D01*
X174336301Y-103123025D01*
X174301129Y-103149289D01*
X174258585Y-103160094D01*
X174215144Y-103153795D01*
X174177420Y-103131352D01*
X174010212Y-102980798D01*
X173983948Y-102945627D01*
X173973143Y-102903082D01*
X173979442Y-102859641D01*
X174001885Y-102821917D01*
X174386635Y-102394609D01*
X174421807Y-102368345D01*
X174464351Y-102357540D01*
X174507792Y-102363839D01*
X174507792Y-102363839D01*
G37*
D30*
X174361468Y-102758817D03*
D10*
G36*
X174953679Y-102765318D02*
G01*
X174991403Y-102787761D01*
X175158611Y-102938315D01*
X175184875Y-102973486D01*
X175195680Y-103016031D01*
X175189381Y-103059472D01*
X175166938Y-103097196D01*
X174782188Y-103524504D01*
X174747016Y-103550768D01*
X174704472Y-103561573D01*
X174661031Y-103555274D01*
X174623307Y-103532831D01*
X174456099Y-103382277D01*
X174429835Y-103347106D01*
X174419030Y-103304561D01*
X174425329Y-103261120D01*
X174447772Y-103223396D01*
X174832522Y-102796088D01*
X174867694Y-102769824D01*
X174910238Y-102759019D01*
X174953679Y-102765318D01*
X174953679Y-102765318D01*
G37*
D30*
X174807355Y-103160296D03*
D10*
G36*
X175399566Y-103166796D02*
G01*
X175437290Y-103189239D01*
X175604498Y-103339793D01*
X175630762Y-103374964D01*
X175641567Y-103417509D01*
X175635268Y-103460950D01*
X175612825Y-103498674D01*
X175228075Y-103925982D01*
X175192903Y-103952246D01*
X175150359Y-103963051D01*
X175106918Y-103956752D01*
X175069194Y-103934309D01*
X174901986Y-103783755D01*
X174875722Y-103748584D01*
X174864917Y-103706039D01*
X174871216Y-103662598D01*
X174893659Y-103624874D01*
X175278409Y-103197566D01*
X175313581Y-103171302D01*
X175356125Y-103160497D01*
X175399566Y-103166796D01*
X175399566Y-103166796D01*
G37*
D30*
X175253242Y-103561774D03*
D10*
G36*
X175845453Y-103568275D02*
G01*
X175883177Y-103590718D01*
X176050385Y-103741272D01*
X176076649Y-103776443D01*
X176087454Y-103818988D01*
X176081155Y-103862429D01*
X176058712Y-103900153D01*
X175673962Y-104327461D01*
X175638790Y-104353725D01*
X175596246Y-104364530D01*
X175552805Y-104358231D01*
X175515081Y-104335788D01*
X175347873Y-104185234D01*
X175321609Y-104150063D01*
X175310804Y-104107518D01*
X175317103Y-104064077D01*
X175339546Y-104026353D01*
X175724296Y-103599045D01*
X175759468Y-103572781D01*
X175802012Y-103561976D01*
X175845453Y-103568275D01*
X175845453Y-103568275D01*
G37*
D30*
X175699129Y-103963253D03*
D10*
G36*
X176291340Y-103969753D02*
G01*
X176329064Y-103992196D01*
X176496272Y-104142750D01*
X176522536Y-104177921D01*
X176533341Y-104220466D01*
X176527042Y-104263907D01*
X176504599Y-104301631D01*
X176119849Y-104728939D01*
X176084677Y-104755203D01*
X176042133Y-104766008D01*
X175998692Y-104759709D01*
X175960968Y-104737266D01*
X175793760Y-104586712D01*
X175767496Y-104551541D01*
X175756691Y-104508996D01*
X175762990Y-104465555D01*
X175785433Y-104427831D01*
X176170183Y-104000523D01*
X176205355Y-103974259D01*
X176247899Y-103963454D01*
X176291340Y-103969753D01*
X176291340Y-103969753D01*
G37*
D30*
X176145016Y-104364731D03*
D10*
G36*
X173578389Y-103449648D02*
G01*
X173632879Y-103482066D01*
X174060187Y-103866816D01*
X174098123Y-103917619D01*
X174113730Y-103979072D01*
X174104632Y-104041821D01*
X174072214Y-104096311D01*
X173854746Y-104337833D01*
X173803943Y-104375769D01*
X173742489Y-104391376D01*
X173679741Y-104382278D01*
X173625251Y-104349860D01*
X173197943Y-103965110D01*
X173160007Y-103914307D01*
X173144400Y-103852854D01*
X173153498Y-103790105D01*
X173185916Y-103735615D01*
X173403384Y-103494093D01*
X173454187Y-103456157D01*
X173515641Y-103440550D01*
X173578389Y-103449648D01*
X173578389Y-103449648D01*
G37*
D31*
X173629065Y-103915963D03*
D10*
G36*
X174299240Y-104098705D02*
G01*
X174353730Y-104131123D01*
X174781038Y-104515873D01*
X174818974Y-104566676D01*
X174834581Y-104628129D01*
X174825483Y-104690878D01*
X174793065Y-104745368D01*
X174575597Y-104986890D01*
X174524794Y-105024826D01*
X174463340Y-105040433D01*
X174400592Y-105031335D01*
X174346102Y-104998917D01*
X173918794Y-104614167D01*
X173880858Y-104563364D01*
X173865251Y-104501911D01*
X173874349Y-104439162D01*
X173906767Y-104384672D01*
X174124235Y-104143150D01*
X174175038Y-104105214D01*
X174236492Y-104089607D01*
X174299240Y-104098705D01*
X174299240Y-104098705D01*
G37*
D31*
X174349916Y-104565020D03*
D10*
G36*
X175020090Y-104747761D02*
G01*
X175074580Y-104780179D01*
X175501888Y-105164929D01*
X175539824Y-105215732D01*
X175555431Y-105277185D01*
X175546333Y-105339934D01*
X175513915Y-105394424D01*
X175296447Y-105635946D01*
X175245644Y-105673882D01*
X175184190Y-105689489D01*
X175121442Y-105680391D01*
X175066952Y-105647973D01*
X174639644Y-105263223D01*
X174601708Y-105212420D01*
X174586101Y-105150967D01*
X174595199Y-105088218D01*
X174627617Y-105033728D01*
X174845085Y-104792206D01*
X174895888Y-104754270D01*
X174957342Y-104738663D01*
X175020090Y-104747761D01*
X175020090Y-104747761D01*
G37*
D31*
X175070766Y-105214076D03*
D10*
G36*
X162470671Y-66644030D02*
G01*
X162551777Y-66698223D01*
X162605970Y-66779329D01*
X162625000Y-66874999D01*
X162625000Y-67425001D01*
X162605970Y-67520671D01*
X162551777Y-67601777D01*
X162470671Y-67655970D01*
X162375001Y-67675000D01*
X161824999Y-67675000D01*
X161729329Y-67655970D01*
X161648223Y-67601777D01*
X161594030Y-67520671D01*
X161575000Y-67425001D01*
X161575000Y-66874999D01*
X161594030Y-66779329D01*
X161648223Y-66698223D01*
X161729329Y-66644030D01*
X161824999Y-66625000D01*
X162375001Y-66625000D01*
X162470671Y-66644030D01*
X162470671Y-66644030D01*
G37*
D32*
X162100000Y-67150000D03*
D10*
G36*
X162470671Y-65344030D02*
G01*
X162551777Y-65398223D01*
X162605970Y-65479329D01*
X162625000Y-65574999D01*
X162625000Y-66125001D01*
X162605970Y-66220671D01*
X162551777Y-66301777D01*
X162470671Y-66355970D01*
X162375001Y-66375000D01*
X161824999Y-66375000D01*
X161729329Y-66355970D01*
X161648223Y-66301777D01*
X161594030Y-66220671D01*
X161575000Y-66125001D01*
X161575000Y-65574999D01*
X161594030Y-65479329D01*
X161648223Y-65398223D01*
X161729329Y-65344030D01*
X161824999Y-65325000D01*
X162375001Y-65325000D01*
X162470671Y-65344030D01*
X162470671Y-65344030D01*
G37*
D32*
X162100000Y-65850000D03*
D10*
G36*
X161170671Y-66644030D02*
G01*
X161251777Y-66698223D01*
X161305970Y-66779329D01*
X161325000Y-66874999D01*
X161325000Y-67425001D01*
X161305970Y-67520671D01*
X161251777Y-67601777D01*
X161170671Y-67655970D01*
X161075001Y-67675000D01*
X160524999Y-67675000D01*
X160429329Y-67655970D01*
X160348223Y-67601777D01*
X160294030Y-67520671D01*
X160275000Y-67425001D01*
X160275000Y-66874999D01*
X160294030Y-66779329D01*
X160348223Y-66698223D01*
X160429329Y-66644030D01*
X160524999Y-66625000D01*
X161075001Y-66625000D01*
X161170671Y-66644030D01*
X161170671Y-66644030D01*
G37*
D32*
X160800000Y-67150000D03*
D10*
G36*
X161170671Y-65344030D02*
G01*
X161251777Y-65398223D01*
X161305970Y-65479329D01*
X161325000Y-65574999D01*
X161325000Y-66125001D01*
X161305970Y-66220671D01*
X161251777Y-66301777D01*
X161170671Y-66355970D01*
X161075001Y-66375000D01*
X160524999Y-66375000D01*
X160429329Y-66355970D01*
X160348223Y-66301777D01*
X160294030Y-66220671D01*
X160275000Y-66125001D01*
X160275000Y-65574999D01*
X160294030Y-65479329D01*
X160348223Y-65398223D01*
X160429329Y-65344030D01*
X160524999Y-65325000D01*
X161075001Y-65325000D01*
X161170671Y-65344030D01*
X161170671Y-65344030D01*
G37*
D32*
X160800000Y-65850000D03*
D10*
G36*
X163761418Y-67629758D02*
G01*
X163781694Y-67643306D01*
X163795242Y-67663582D01*
X163800000Y-67687500D01*
X163800000Y-67812500D01*
X163795242Y-67836418D01*
X163781694Y-67856694D01*
X163761418Y-67870242D01*
X163737500Y-67875000D01*
X163037500Y-67875000D01*
X163013582Y-67870242D01*
X162993306Y-67856694D01*
X162979758Y-67836418D01*
X162975000Y-67812500D01*
X162975000Y-67687500D01*
X162979758Y-67663582D01*
X162993306Y-67643306D01*
X163013582Y-67629758D01*
X163037500Y-67625000D01*
X163737500Y-67625000D01*
X163761418Y-67629758D01*
X163761418Y-67629758D01*
G37*
D23*
X163387500Y-67750000D03*
D10*
G36*
X163761418Y-67129758D02*
G01*
X163781694Y-67143306D01*
X163795242Y-67163582D01*
X163800000Y-67187500D01*
X163800000Y-67312500D01*
X163795242Y-67336418D01*
X163781694Y-67356694D01*
X163761418Y-67370242D01*
X163737500Y-67375000D01*
X163037500Y-67375000D01*
X163013582Y-67370242D01*
X162993306Y-67356694D01*
X162979758Y-67336418D01*
X162975000Y-67312500D01*
X162975000Y-67187500D01*
X162979758Y-67163582D01*
X162993306Y-67143306D01*
X163013582Y-67129758D01*
X163037500Y-67125000D01*
X163737500Y-67125000D01*
X163761418Y-67129758D01*
X163761418Y-67129758D01*
G37*
D23*
X163387500Y-67250000D03*
D10*
G36*
X163761418Y-66629758D02*
G01*
X163781694Y-66643306D01*
X163795242Y-66663582D01*
X163800000Y-66687500D01*
X163800000Y-66812500D01*
X163795242Y-66836418D01*
X163781694Y-66856694D01*
X163761418Y-66870242D01*
X163737500Y-66875000D01*
X163037500Y-66875000D01*
X163013582Y-66870242D01*
X162993306Y-66856694D01*
X162979758Y-66836418D01*
X162975000Y-66812500D01*
X162975000Y-66687500D01*
X162979758Y-66663582D01*
X162993306Y-66643306D01*
X163013582Y-66629758D01*
X163037500Y-66625000D01*
X163737500Y-66625000D01*
X163761418Y-66629758D01*
X163761418Y-66629758D01*
G37*
D23*
X163387500Y-66750000D03*
D10*
G36*
X163761418Y-66129758D02*
G01*
X163781694Y-66143306D01*
X163795242Y-66163582D01*
X163800000Y-66187500D01*
X163800000Y-66312500D01*
X163795242Y-66336418D01*
X163781694Y-66356694D01*
X163761418Y-66370242D01*
X163737500Y-66375000D01*
X163037500Y-66375000D01*
X163013582Y-66370242D01*
X162993306Y-66356694D01*
X162979758Y-66336418D01*
X162975000Y-66312500D01*
X162975000Y-66187500D01*
X162979758Y-66163582D01*
X162993306Y-66143306D01*
X163013582Y-66129758D01*
X163037500Y-66125000D01*
X163737500Y-66125000D01*
X163761418Y-66129758D01*
X163761418Y-66129758D01*
G37*
D23*
X163387500Y-66250000D03*
D10*
G36*
X163761418Y-65629758D02*
G01*
X163781694Y-65643306D01*
X163795242Y-65663582D01*
X163800000Y-65687500D01*
X163800000Y-65812500D01*
X163795242Y-65836418D01*
X163781694Y-65856694D01*
X163761418Y-65870242D01*
X163737500Y-65875000D01*
X163037500Y-65875000D01*
X163013582Y-65870242D01*
X162993306Y-65856694D01*
X162979758Y-65836418D01*
X162975000Y-65812500D01*
X162975000Y-65687500D01*
X162979758Y-65663582D01*
X162993306Y-65643306D01*
X163013582Y-65629758D01*
X163037500Y-65625000D01*
X163737500Y-65625000D01*
X163761418Y-65629758D01*
X163761418Y-65629758D01*
G37*
D23*
X163387500Y-65750000D03*
D10*
G36*
X163761418Y-65129758D02*
G01*
X163781694Y-65143306D01*
X163795242Y-65163582D01*
X163800000Y-65187500D01*
X163800000Y-65312500D01*
X163795242Y-65336418D01*
X163781694Y-65356694D01*
X163761418Y-65370242D01*
X163737500Y-65375000D01*
X163037500Y-65375000D01*
X163013582Y-65370242D01*
X162993306Y-65356694D01*
X162979758Y-65336418D01*
X162975000Y-65312500D01*
X162975000Y-65187500D01*
X162979758Y-65163582D01*
X162993306Y-65143306D01*
X163013582Y-65129758D01*
X163037500Y-65125000D01*
X163737500Y-65125000D01*
X163761418Y-65129758D01*
X163761418Y-65129758D01*
G37*
D23*
X163387500Y-65250000D03*
D10*
G36*
X162786418Y-64154758D02*
G01*
X162806694Y-64168306D01*
X162820242Y-64188582D01*
X162825000Y-64212500D01*
X162825000Y-64912500D01*
X162820242Y-64936418D01*
X162806694Y-64956694D01*
X162786418Y-64970242D01*
X162762500Y-64975000D01*
X162637500Y-64975000D01*
X162613582Y-64970242D01*
X162593306Y-64956694D01*
X162579758Y-64936418D01*
X162575000Y-64912500D01*
X162575000Y-64212500D01*
X162579758Y-64188582D01*
X162593306Y-64168306D01*
X162613582Y-64154758D01*
X162637500Y-64150000D01*
X162762500Y-64150000D01*
X162786418Y-64154758D01*
X162786418Y-64154758D01*
G37*
D23*
X162700000Y-64562500D03*
D10*
G36*
X162286418Y-64154758D02*
G01*
X162306694Y-64168306D01*
X162320242Y-64188582D01*
X162325000Y-64212500D01*
X162325000Y-64912500D01*
X162320242Y-64936418D01*
X162306694Y-64956694D01*
X162286418Y-64970242D01*
X162262500Y-64975000D01*
X162137500Y-64975000D01*
X162113582Y-64970242D01*
X162093306Y-64956694D01*
X162079758Y-64936418D01*
X162075000Y-64912500D01*
X162075000Y-64212500D01*
X162079758Y-64188582D01*
X162093306Y-64168306D01*
X162113582Y-64154758D01*
X162137500Y-64150000D01*
X162262500Y-64150000D01*
X162286418Y-64154758D01*
X162286418Y-64154758D01*
G37*
D23*
X162200000Y-64562500D03*
D10*
G36*
X161786418Y-64154758D02*
G01*
X161806694Y-64168306D01*
X161820242Y-64188582D01*
X161825000Y-64212500D01*
X161825000Y-64912500D01*
X161820242Y-64936418D01*
X161806694Y-64956694D01*
X161786418Y-64970242D01*
X161762500Y-64975000D01*
X161637500Y-64975000D01*
X161613582Y-64970242D01*
X161593306Y-64956694D01*
X161579758Y-64936418D01*
X161575000Y-64912500D01*
X161575000Y-64212500D01*
X161579758Y-64188582D01*
X161593306Y-64168306D01*
X161613582Y-64154758D01*
X161637500Y-64150000D01*
X161762500Y-64150000D01*
X161786418Y-64154758D01*
X161786418Y-64154758D01*
G37*
D23*
X161700000Y-64562500D03*
D10*
G36*
X161286418Y-64154758D02*
G01*
X161306694Y-64168306D01*
X161320242Y-64188582D01*
X161325000Y-64212500D01*
X161325000Y-64912500D01*
X161320242Y-64936418D01*
X161306694Y-64956694D01*
X161286418Y-64970242D01*
X161262500Y-64975000D01*
X161137500Y-64975000D01*
X161113582Y-64970242D01*
X161093306Y-64956694D01*
X161079758Y-64936418D01*
X161075000Y-64912500D01*
X161075000Y-64212500D01*
X161079758Y-64188582D01*
X161093306Y-64168306D01*
X161113582Y-64154758D01*
X161137500Y-64150000D01*
X161262500Y-64150000D01*
X161286418Y-64154758D01*
X161286418Y-64154758D01*
G37*
D23*
X161200000Y-64562500D03*
D10*
G36*
X160786418Y-64154758D02*
G01*
X160806694Y-64168306D01*
X160820242Y-64188582D01*
X160825000Y-64212500D01*
X160825000Y-64912500D01*
X160820242Y-64936418D01*
X160806694Y-64956694D01*
X160786418Y-64970242D01*
X160762500Y-64975000D01*
X160637500Y-64975000D01*
X160613582Y-64970242D01*
X160593306Y-64956694D01*
X160579758Y-64936418D01*
X160575000Y-64912500D01*
X160575000Y-64212500D01*
X160579758Y-64188582D01*
X160593306Y-64168306D01*
X160613582Y-64154758D01*
X160637500Y-64150000D01*
X160762500Y-64150000D01*
X160786418Y-64154758D01*
X160786418Y-64154758D01*
G37*
D23*
X160700000Y-64562500D03*
D10*
G36*
X160286418Y-64154758D02*
G01*
X160306694Y-64168306D01*
X160320242Y-64188582D01*
X160325000Y-64212500D01*
X160325000Y-64912500D01*
X160320242Y-64936418D01*
X160306694Y-64956694D01*
X160286418Y-64970242D01*
X160262500Y-64975000D01*
X160137500Y-64975000D01*
X160113582Y-64970242D01*
X160093306Y-64956694D01*
X160079758Y-64936418D01*
X160075000Y-64912500D01*
X160075000Y-64212500D01*
X160079758Y-64188582D01*
X160093306Y-64168306D01*
X160113582Y-64154758D01*
X160137500Y-64150000D01*
X160262500Y-64150000D01*
X160286418Y-64154758D01*
X160286418Y-64154758D01*
G37*
D23*
X160200000Y-64562500D03*
D10*
G36*
X159886418Y-65129758D02*
G01*
X159906694Y-65143306D01*
X159920242Y-65163582D01*
X159925000Y-65187500D01*
X159925000Y-65312500D01*
X159920242Y-65336418D01*
X159906694Y-65356694D01*
X159886418Y-65370242D01*
X159862500Y-65375000D01*
X159162500Y-65375000D01*
X159138582Y-65370242D01*
X159118306Y-65356694D01*
X159104758Y-65336418D01*
X159100000Y-65312500D01*
X159100000Y-65187500D01*
X159104758Y-65163582D01*
X159118306Y-65143306D01*
X159138582Y-65129758D01*
X159162500Y-65125000D01*
X159862500Y-65125000D01*
X159886418Y-65129758D01*
X159886418Y-65129758D01*
G37*
D23*
X159512500Y-65250000D03*
D10*
G36*
X159886418Y-65629758D02*
G01*
X159906694Y-65643306D01*
X159920242Y-65663582D01*
X159925000Y-65687500D01*
X159925000Y-65812500D01*
X159920242Y-65836418D01*
X159906694Y-65856694D01*
X159886418Y-65870242D01*
X159862500Y-65875000D01*
X159162500Y-65875000D01*
X159138582Y-65870242D01*
X159118306Y-65856694D01*
X159104758Y-65836418D01*
X159100000Y-65812500D01*
X159100000Y-65687500D01*
X159104758Y-65663582D01*
X159118306Y-65643306D01*
X159138582Y-65629758D01*
X159162500Y-65625000D01*
X159862500Y-65625000D01*
X159886418Y-65629758D01*
X159886418Y-65629758D01*
G37*
D23*
X159512500Y-65750000D03*
D10*
G36*
X159886418Y-66129758D02*
G01*
X159906694Y-66143306D01*
X159920242Y-66163582D01*
X159925000Y-66187500D01*
X159925000Y-66312500D01*
X159920242Y-66336418D01*
X159906694Y-66356694D01*
X159886418Y-66370242D01*
X159862500Y-66375000D01*
X159162500Y-66375000D01*
X159138582Y-66370242D01*
X159118306Y-66356694D01*
X159104758Y-66336418D01*
X159100000Y-66312500D01*
X159100000Y-66187500D01*
X159104758Y-66163582D01*
X159118306Y-66143306D01*
X159138582Y-66129758D01*
X159162500Y-66125000D01*
X159862500Y-66125000D01*
X159886418Y-66129758D01*
X159886418Y-66129758D01*
G37*
D23*
X159512500Y-66250000D03*
D10*
G36*
X159886418Y-66629758D02*
G01*
X159906694Y-66643306D01*
X159920242Y-66663582D01*
X159925000Y-66687500D01*
X159925000Y-66812500D01*
X159920242Y-66836418D01*
X159906694Y-66856694D01*
X159886418Y-66870242D01*
X159862500Y-66875000D01*
X159162500Y-66875000D01*
X159138582Y-66870242D01*
X159118306Y-66856694D01*
X159104758Y-66836418D01*
X159100000Y-66812500D01*
X159100000Y-66687500D01*
X159104758Y-66663582D01*
X159118306Y-66643306D01*
X159138582Y-66629758D01*
X159162500Y-66625000D01*
X159862500Y-66625000D01*
X159886418Y-66629758D01*
X159886418Y-66629758D01*
G37*
D23*
X159512500Y-66750000D03*
D10*
G36*
X159886418Y-67129758D02*
G01*
X159906694Y-67143306D01*
X159920242Y-67163582D01*
X159925000Y-67187500D01*
X159925000Y-67312500D01*
X159920242Y-67336418D01*
X159906694Y-67356694D01*
X159886418Y-67370242D01*
X159862500Y-67375000D01*
X159162500Y-67375000D01*
X159138582Y-67370242D01*
X159118306Y-67356694D01*
X159104758Y-67336418D01*
X159100000Y-67312500D01*
X159100000Y-67187500D01*
X159104758Y-67163582D01*
X159118306Y-67143306D01*
X159138582Y-67129758D01*
X159162500Y-67125000D01*
X159862500Y-67125000D01*
X159886418Y-67129758D01*
X159886418Y-67129758D01*
G37*
D23*
X159512500Y-67250000D03*
D10*
G36*
X159886418Y-67629758D02*
G01*
X159906694Y-67643306D01*
X159920242Y-67663582D01*
X159925000Y-67687500D01*
X159925000Y-67812500D01*
X159920242Y-67836418D01*
X159906694Y-67856694D01*
X159886418Y-67870242D01*
X159862500Y-67875000D01*
X159162500Y-67875000D01*
X159138582Y-67870242D01*
X159118306Y-67856694D01*
X159104758Y-67836418D01*
X159100000Y-67812500D01*
X159100000Y-67687500D01*
X159104758Y-67663582D01*
X159118306Y-67643306D01*
X159138582Y-67629758D01*
X159162500Y-67625000D01*
X159862500Y-67625000D01*
X159886418Y-67629758D01*
X159886418Y-67629758D01*
G37*
D23*
X159512500Y-67750000D03*
D10*
G36*
X160286418Y-68029758D02*
G01*
X160306694Y-68043306D01*
X160320242Y-68063582D01*
X160325000Y-68087500D01*
X160325000Y-68787500D01*
X160320242Y-68811418D01*
X160306694Y-68831694D01*
X160286418Y-68845242D01*
X160262500Y-68850000D01*
X160137500Y-68850000D01*
X160113582Y-68845242D01*
X160093306Y-68831694D01*
X160079758Y-68811418D01*
X160075000Y-68787500D01*
X160075000Y-68087500D01*
X160079758Y-68063582D01*
X160093306Y-68043306D01*
X160113582Y-68029758D01*
X160137500Y-68025000D01*
X160262500Y-68025000D01*
X160286418Y-68029758D01*
X160286418Y-68029758D01*
G37*
D23*
X160200000Y-68437500D03*
D10*
G36*
X160786418Y-68029758D02*
G01*
X160806694Y-68043306D01*
X160820242Y-68063582D01*
X160825000Y-68087500D01*
X160825000Y-68787500D01*
X160820242Y-68811418D01*
X160806694Y-68831694D01*
X160786418Y-68845242D01*
X160762500Y-68850000D01*
X160637500Y-68850000D01*
X160613582Y-68845242D01*
X160593306Y-68831694D01*
X160579758Y-68811418D01*
X160575000Y-68787500D01*
X160575000Y-68087500D01*
X160579758Y-68063582D01*
X160593306Y-68043306D01*
X160613582Y-68029758D01*
X160637500Y-68025000D01*
X160762500Y-68025000D01*
X160786418Y-68029758D01*
X160786418Y-68029758D01*
G37*
D23*
X160700000Y-68437500D03*
D10*
G36*
X161286418Y-68029758D02*
G01*
X161306694Y-68043306D01*
X161320242Y-68063582D01*
X161325000Y-68087500D01*
X161325000Y-68787500D01*
X161320242Y-68811418D01*
X161306694Y-68831694D01*
X161286418Y-68845242D01*
X161262500Y-68850000D01*
X161137500Y-68850000D01*
X161113582Y-68845242D01*
X161093306Y-68831694D01*
X161079758Y-68811418D01*
X161075000Y-68787500D01*
X161075000Y-68087500D01*
X161079758Y-68063582D01*
X161093306Y-68043306D01*
X161113582Y-68029758D01*
X161137500Y-68025000D01*
X161262500Y-68025000D01*
X161286418Y-68029758D01*
X161286418Y-68029758D01*
G37*
D23*
X161200000Y-68437500D03*
D10*
G36*
X161786418Y-68029758D02*
G01*
X161806694Y-68043306D01*
X161820242Y-68063582D01*
X161825000Y-68087500D01*
X161825000Y-68787500D01*
X161820242Y-68811418D01*
X161806694Y-68831694D01*
X161786418Y-68845242D01*
X161762500Y-68850000D01*
X161637500Y-68850000D01*
X161613582Y-68845242D01*
X161593306Y-68831694D01*
X161579758Y-68811418D01*
X161575000Y-68787500D01*
X161575000Y-68087500D01*
X161579758Y-68063582D01*
X161593306Y-68043306D01*
X161613582Y-68029758D01*
X161637500Y-68025000D01*
X161762500Y-68025000D01*
X161786418Y-68029758D01*
X161786418Y-68029758D01*
G37*
D23*
X161700000Y-68437500D03*
D10*
G36*
X162286418Y-68029758D02*
G01*
X162306694Y-68043306D01*
X162320242Y-68063582D01*
X162325000Y-68087500D01*
X162325000Y-68787500D01*
X162320242Y-68811418D01*
X162306694Y-68831694D01*
X162286418Y-68845242D01*
X162262500Y-68850000D01*
X162137500Y-68850000D01*
X162113582Y-68845242D01*
X162093306Y-68831694D01*
X162079758Y-68811418D01*
X162075000Y-68787500D01*
X162075000Y-68087500D01*
X162079758Y-68063582D01*
X162093306Y-68043306D01*
X162113582Y-68029758D01*
X162137500Y-68025000D01*
X162262500Y-68025000D01*
X162286418Y-68029758D01*
X162286418Y-68029758D01*
G37*
D23*
X162200000Y-68437500D03*
D10*
G36*
X162786418Y-68029758D02*
G01*
X162806694Y-68043306D01*
X162820242Y-68063582D01*
X162825000Y-68087500D01*
X162825000Y-68787500D01*
X162820242Y-68811418D01*
X162806694Y-68831694D01*
X162786418Y-68845242D01*
X162762500Y-68850000D01*
X162637500Y-68850000D01*
X162613582Y-68845242D01*
X162593306Y-68831694D01*
X162579758Y-68811418D01*
X162575000Y-68787500D01*
X162575000Y-68087500D01*
X162579758Y-68063582D01*
X162593306Y-68043306D01*
X162613582Y-68029758D01*
X162637500Y-68025000D01*
X162762500Y-68025000D01*
X162786418Y-68029758D01*
X162786418Y-68029758D01*
G37*
D23*
X162700000Y-68437500D03*
D21*
X176025129Y-129805953D03*
D10*
G36*
X174766730Y-129582948D02*
G01*
X176584383Y-128656808D01*
X177283528Y-130028958D01*
X175465875Y-130955098D01*
X174766730Y-129582948D01*
X174766730Y-129582948D01*
G37*
D21*
X175148927Y-128086310D03*
D10*
G36*
X173890528Y-127863305D02*
G01*
X175708181Y-126937165D01*
X176407326Y-128309315D01*
X174589673Y-129235455D01*
X173890528Y-127863305D01*
X173890528Y-127863305D01*
G37*
D21*
X172974871Y-129194047D03*
D10*
G36*
X171716472Y-128971042D02*
G01*
X173534125Y-128044902D01*
X174233270Y-129417052D01*
X172415617Y-130343192D01*
X171716472Y-128971042D01*
X171716472Y-128971042D01*
G37*
D21*
X173851073Y-130913690D03*
D10*
G36*
X172592674Y-130690685D02*
G01*
X174410327Y-129764545D01*
X175109472Y-131136695D01*
X173291819Y-132062835D01*
X172592674Y-130690685D01*
X172592674Y-130690685D01*
G37*
G36*
X148524971Y-129347675D02*
G01*
X148603095Y-129382051D01*
X148961474Y-129632991D01*
X149020496Y-129694646D01*
X149051431Y-129774195D01*
X149049569Y-129859526D01*
X149015194Y-129937649D01*
X148721237Y-130357465D01*
X148659582Y-130416488D01*
X148580033Y-130447423D01*
X148494701Y-130445561D01*
X148416577Y-130411185D01*
X148058198Y-130160245D01*
X147999176Y-130098590D01*
X147968241Y-130019041D01*
X147970103Y-129933710D01*
X148004478Y-129855587D01*
X148298435Y-129435771D01*
X148360090Y-129376748D01*
X148439639Y-129345813D01*
X148524971Y-129347675D01*
X148524971Y-129347675D01*
G37*
D19*
X148509836Y-129896618D03*
D10*
G36*
X149815135Y-130251057D02*
G01*
X149893259Y-130285433D01*
X150251638Y-130536373D01*
X150310660Y-130598028D01*
X150341595Y-130677577D01*
X150339733Y-130762908D01*
X150305358Y-130841031D01*
X150011401Y-131260847D01*
X149949746Y-131319870D01*
X149870197Y-131350805D01*
X149784865Y-131348943D01*
X149706741Y-131314567D01*
X149348362Y-131063627D01*
X149289340Y-131001972D01*
X149258405Y-130922423D01*
X149260267Y-130837092D01*
X149294642Y-130758969D01*
X149588599Y-130339153D01*
X149650254Y-130280130D01*
X149729803Y-130249195D01*
X149815135Y-130251057D01*
X149815135Y-130251057D01*
G37*
D19*
X149800000Y-130800000D03*
D10*
G36*
X165460217Y-102902748D02*
G01*
X165538341Y-102937124D01*
X165896720Y-103188064D01*
X165955742Y-103249719D01*
X165986677Y-103329268D01*
X165984815Y-103414599D01*
X165950440Y-103492722D01*
X165656483Y-103912538D01*
X165594828Y-103971561D01*
X165515279Y-104002496D01*
X165429947Y-104000634D01*
X165351823Y-103966258D01*
X164993444Y-103715318D01*
X164934422Y-103653663D01*
X164903487Y-103574114D01*
X164905349Y-103488783D01*
X164939724Y-103410660D01*
X165233681Y-102990844D01*
X165295336Y-102931821D01*
X165374885Y-102900886D01*
X165460217Y-102902748D01*
X165460217Y-102902748D01*
G37*
D19*
X165445082Y-103451691D03*
D10*
G36*
X164170053Y-101999366D02*
G01*
X164248177Y-102033742D01*
X164606556Y-102284682D01*
X164665578Y-102346337D01*
X164696513Y-102425886D01*
X164694651Y-102511217D01*
X164660276Y-102589340D01*
X164366319Y-103009156D01*
X164304664Y-103068179D01*
X164225115Y-103099114D01*
X164139783Y-103097252D01*
X164061659Y-103062876D01*
X163703280Y-102811936D01*
X163644258Y-102750281D01*
X163613323Y-102670732D01*
X163615185Y-102585401D01*
X163649560Y-102507278D01*
X163943517Y-102087462D01*
X164005172Y-102028439D01*
X164084721Y-101997504D01*
X164170053Y-101999366D01*
X164170053Y-101999366D01*
G37*
D19*
X164154918Y-102548309D03*
D10*
G36*
X167524971Y-97747675D02*
G01*
X167603095Y-97782051D01*
X167961474Y-98032991D01*
X168020496Y-98094646D01*
X168051431Y-98174195D01*
X168049569Y-98259526D01*
X168015194Y-98337649D01*
X167721237Y-98757465D01*
X167659582Y-98816488D01*
X167580033Y-98847423D01*
X167494701Y-98845561D01*
X167416577Y-98811185D01*
X167058198Y-98560245D01*
X166999176Y-98498590D01*
X166968241Y-98419041D01*
X166970103Y-98333710D01*
X167004478Y-98255587D01*
X167298435Y-97835771D01*
X167360090Y-97776748D01*
X167439639Y-97745813D01*
X167524971Y-97747675D01*
X167524971Y-97747675D01*
G37*
D19*
X167509836Y-98296618D03*
D10*
G36*
X168815135Y-98651057D02*
G01*
X168893259Y-98685433D01*
X169251638Y-98936373D01*
X169310660Y-98998028D01*
X169341595Y-99077577D01*
X169339733Y-99162908D01*
X169305358Y-99241031D01*
X169011401Y-99660847D01*
X168949746Y-99719870D01*
X168870197Y-99750805D01*
X168784865Y-99748943D01*
X168706741Y-99714567D01*
X168348362Y-99463627D01*
X168289340Y-99401972D01*
X168258405Y-99322423D01*
X168260267Y-99237092D01*
X168294642Y-99158969D01*
X168588599Y-98739153D01*
X168650254Y-98680130D01*
X168729803Y-98649195D01*
X168815135Y-98651057D01*
X168815135Y-98651057D01*
G37*
D19*
X168800000Y-99200000D03*
D10*
G36*
X184139962Y-76179151D02*
G01*
X184210930Y-76226570D01*
X184258349Y-76297538D01*
X184275000Y-76381250D01*
X184275000Y-76818750D01*
X184258349Y-76902462D01*
X184210930Y-76973430D01*
X184139962Y-77020849D01*
X184056250Y-77037500D01*
X183543750Y-77037500D01*
X183460038Y-77020849D01*
X183389070Y-76973430D01*
X183341651Y-76902462D01*
X183325000Y-76818750D01*
X183325000Y-76381250D01*
X183341651Y-76297538D01*
X183389070Y-76226570D01*
X183460038Y-76179151D01*
X183543750Y-76162500D01*
X184056250Y-76162500D01*
X184139962Y-76179151D01*
X184139962Y-76179151D01*
G37*
D19*
X183800000Y-76600000D03*
D10*
G36*
X184139962Y-74604151D02*
G01*
X184210930Y-74651570D01*
X184258349Y-74722538D01*
X184275000Y-74806250D01*
X184275000Y-75243750D01*
X184258349Y-75327462D01*
X184210930Y-75398430D01*
X184139962Y-75445849D01*
X184056250Y-75462500D01*
X183543750Y-75462500D01*
X183460038Y-75445849D01*
X183389070Y-75398430D01*
X183341651Y-75327462D01*
X183325000Y-75243750D01*
X183325000Y-74806250D01*
X183341651Y-74722538D01*
X183389070Y-74651570D01*
X183460038Y-74604151D01*
X183543750Y-74587500D01*
X184056250Y-74587500D01*
X184139962Y-74604151D01*
X184139962Y-74604151D01*
G37*
D19*
X183800000Y-75025000D03*
D33*
X150848229Y-129474254D03*
D10*
G36*
X150917780Y-130072303D02*
G01*
X150262459Y-129613442D01*
X150778678Y-128876205D01*
X151433999Y-129335066D01*
X150917780Y-130072303D01*
X150917780Y-130072303D01*
G37*
D33*
X152404618Y-130564050D03*
D10*
G36*
X152474169Y-131162099D02*
G01*
X151818848Y-130703238D01*
X152335067Y-129966001D01*
X152990388Y-130424862D01*
X152474169Y-131162099D01*
X152474169Y-131162099D01*
G37*
D33*
X152773576Y-128380848D03*
D10*
G36*
X152843127Y-128978897D02*
G01*
X152187806Y-128520036D01*
X152704025Y-127782799D01*
X153359346Y-128241660D01*
X152843127Y-128978897D01*
X152843127Y-128978897D01*
G37*
D33*
X165848229Y-101674254D03*
D10*
G36*
X165917780Y-102272303D02*
G01*
X165262459Y-101813442D01*
X165778678Y-101076205D01*
X166433999Y-101535066D01*
X165917780Y-102272303D01*
X165917780Y-102272303D01*
G37*
D33*
X167404618Y-102764050D03*
D10*
G36*
X167474169Y-103362099D02*
G01*
X166818848Y-102903238D01*
X167335067Y-102166001D01*
X167990388Y-102624862D01*
X167474169Y-103362099D01*
X167474169Y-103362099D01*
G37*
D33*
X167773576Y-100580848D03*
D10*
G36*
X167843127Y-101178897D02*
G01*
X167187806Y-100720036D01*
X167704025Y-99982799D01*
X168359346Y-100441660D01*
X167843127Y-101178897D01*
X167843127Y-101178897D01*
G37*
D34*
X148050000Y-69000000D03*
X149950000Y-69000000D03*
X149000000Y-67000000D03*
D10*
G36*
X185428946Y-119686228D02*
G01*
X185476798Y-119718202D01*
X185508772Y-119766054D01*
X185520000Y-119822500D01*
X185520000Y-120117500D01*
X185508772Y-120173946D01*
X185476798Y-120221798D01*
X185428946Y-120253772D01*
X185372500Y-120265000D01*
X185027500Y-120265000D01*
X184971054Y-120253772D01*
X184923202Y-120221798D01*
X184891228Y-120173946D01*
X184880000Y-120117500D01*
X184880000Y-119822500D01*
X184891228Y-119766054D01*
X184923202Y-119718202D01*
X184971054Y-119686228D01*
X185027500Y-119675000D01*
X185372500Y-119675000D01*
X185428946Y-119686228D01*
X185428946Y-119686228D01*
G37*
D11*
X185200000Y-119970000D03*
D10*
G36*
X185428946Y-118716228D02*
G01*
X185476798Y-118748202D01*
X185508772Y-118796054D01*
X185520000Y-118852500D01*
X185520000Y-119147500D01*
X185508772Y-119203946D01*
X185476798Y-119251798D01*
X185428946Y-119283772D01*
X185372500Y-119295000D01*
X185027500Y-119295000D01*
X184971054Y-119283772D01*
X184923202Y-119251798D01*
X184891228Y-119203946D01*
X184880000Y-119147500D01*
X184880000Y-118852500D01*
X184891228Y-118796054D01*
X184923202Y-118748202D01*
X184971054Y-118716228D01*
X185027500Y-118705000D01*
X185372500Y-118705000D01*
X185428946Y-118716228D01*
X185428946Y-118716228D01*
G37*
D11*
X185200000Y-119000000D03*
D35*
X177650000Y-66150000D03*
X177650000Y-64250000D03*
X179850000Y-64250000D03*
D20*
X179850000Y-65970000D03*
D10*
G36*
X175470671Y-71544030D02*
G01*
X175551777Y-71598223D01*
X175605970Y-71679329D01*
X175625000Y-71775000D01*
X175625000Y-73025000D01*
X175605970Y-73120671D01*
X175551777Y-73201777D01*
X175470671Y-73255970D01*
X175375000Y-73275000D01*
X174625000Y-73275000D01*
X174529329Y-73255970D01*
X174448223Y-73201777D01*
X174394030Y-73120671D01*
X174375000Y-73025000D01*
X174375000Y-71775000D01*
X174394030Y-71679329D01*
X174448223Y-71598223D01*
X174529329Y-71544030D01*
X174625000Y-71525000D01*
X175375000Y-71525000D01*
X175470671Y-71544030D01*
X175470671Y-71544030D01*
G37*
D36*
X175000000Y-72400000D03*
D10*
G36*
X178270671Y-71544030D02*
G01*
X178351777Y-71598223D01*
X178405970Y-71679329D01*
X178425000Y-71775000D01*
X178425000Y-73025000D01*
X178405970Y-73120671D01*
X178351777Y-73201777D01*
X178270671Y-73255970D01*
X178175000Y-73275000D01*
X177425000Y-73275000D01*
X177329329Y-73255970D01*
X177248223Y-73201777D01*
X177194030Y-73120671D01*
X177175000Y-73025000D01*
X177175000Y-71775000D01*
X177194030Y-71679329D01*
X177248223Y-71598223D01*
X177329329Y-71544030D01*
X177425000Y-71525000D01*
X178175000Y-71525000D01*
X178270671Y-71544030D01*
X178270671Y-71544030D01*
G37*
D36*
X177800000Y-72400000D03*
D10*
G36*
X182920671Y-70644030D02*
G01*
X183001777Y-70698223D01*
X183055970Y-70779329D01*
X183075000Y-70875000D01*
X183075000Y-73025000D01*
X183055970Y-73120671D01*
X183001777Y-73201777D01*
X182920671Y-73255970D01*
X182825000Y-73275000D01*
X182075000Y-73275000D01*
X181979329Y-73255970D01*
X181898223Y-73201777D01*
X181844030Y-73120671D01*
X181825000Y-73025000D01*
X181825000Y-70875000D01*
X181844030Y-70779329D01*
X181898223Y-70698223D01*
X181979329Y-70644030D01*
X182075000Y-70625000D01*
X182825000Y-70625000D01*
X182920671Y-70644030D01*
X182920671Y-70644030D01*
G37*
D36*
X182450000Y-71950000D03*
D10*
G36*
X180120671Y-70644030D02*
G01*
X180201777Y-70698223D01*
X180255970Y-70779329D01*
X180275000Y-70875000D01*
X180275000Y-73025000D01*
X180255970Y-73120671D01*
X180201777Y-73201777D01*
X180120671Y-73255970D01*
X180025000Y-73275000D01*
X179275000Y-73275000D01*
X179179329Y-73255970D01*
X179098223Y-73201777D01*
X179044030Y-73120671D01*
X179025000Y-73025000D01*
X179025000Y-70875000D01*
X179044030Y-70779329D01*
X179098223Y-70698223D01*
X179179329Y-70644030D01*
X179275000Y-70625000D01*
X180025000Y-70625000D01*
X180120671Y-70644030D01*
X180120671Y-70644030D01*
G37*
D36*
X179650000Y-71950000D03*
D10*
G36*
X182920671Y-67394030D02*
G01*
X183001777Y-67448223D01*
X183055970Y-67529329D01*
X183075000Y-67625000D01*
X183075000Y-69775000D01*
X183055970Y-69870671D01*
X183001777Y-69951777D01*
X182920671Y-70005970D01*
X182825000Y-70025000D01*
X182075000Y-70025000D01*
X181979329Y-70005970D01*
X181898223Y-69951777D01*
X181844030Y-69870671D01*
X181825000Y-69775000D01*
X181825000Y-67625000D01*
X181844030Y-67529329D01*
X181898223Y-67448223D01*
X181979329Y-67394030D01*
X182075000Y-67375000D01*
X182825000Y-67375000D01*
X182920671Y-67394030D01*
X182920671Y-67394030D01*
G37*
D36*
X182450000Y-68700000D03*
D10*
G36*
X180120671Y-67394030D02*
G01*
X180201777Y-67448223D01*
X180255970Y-67529329D01*
X180275000Y-67625000D01*
X180275000Y-69775000D01*
X180255970Y-69870671D01*
X180201777Y-69951777D01*
X180120671Y-70005970D01*
X180025000Y-70025000D01*
X179275000Y-70025000D01*
X179179329Y-70005970D01*
X179098223Y-69951777D01*
X179044030Y-69870671D01*
X179025000Y-69775000D01*
X179025000Y-67625000D01*
X179044030Y-67529329D01*
X179098223Y-67448223D01*
X179179329Y-67394030D01*
X179275000Y-67375000D01*
X180025000Y-67375000D01*
X180120671Y-67394030D01*
X180120671Y-67394030D01*
G37*
D36*
X179650000Y-68700000D03*
D10*
G36*
X171726691Y-106096719D02*
G01*
X171808427Y-106145346D01*
X172170710Y-106471547D01*
X172227614Y-106547752D01*
X172251025Y-106639932D01*
X172237378Y-106734054D01*
X172188751Y-106815790D01*
X171578170Y-107493909D01*
X171501965Y-107550813D01*
X171409785Y-107574224D01*
X171315663Y-107560577D01*
X171233927Y-107511950D01*
X170871644Y-107185749D01*
X170814740Y-107109544D01*
X170791329Y-107017364D01*
X170804976Y-106923242D01*
X170853603Y-106841506D01*
X171464184Y-106163387D01*
X171540389Y-106106483D01*
X171632569Y-106083072D01*
X171726691Y-106096719D01*
X171726691Y-106096719D01*
G37*
D37*
X171521177Y-106828648D03*
D10*
G36*
X173120087Y-107351339D02*
G01*
X173201823Y-107399966D01*
X173564106Y-107726167D01*
X173621010Y-107802372D01*
X173644421Y-107894552D01*
X173630774Y-107988674D01*
X173582147Y-108070410D01*
X172971566Y-108748529D01*
X172895361Y-108805433D01*
X172803181Y-108828844D01*
X172709059Y-108815197D01*
X172627323Y-108766570D01*
X172265040Y-108440369D01*
X172208136Y-108364164D01*
X172184725Y-108271984D01*
X172198372Y-108177862D01*
X172246999Y-108096126D01*
X172857580Y-107418007D01*
X172933785Y-107361103D01*
X173025965Y-107337692D01*
X173120087Y-107351339D01*
X173120087Y-107351339D01*
G37*
D37*
X172914573Y-108083268D03*
D10*
G36*
X177470586Y-100470482D02*
G01*
X177554417Y-100520356D01*
X178111776Y-101022204D01*
X178170139Y-101100362D01*
X178194150Y-101194906D01*
X178180153Y-101291442D01*
X178130279Y-101375273D01*
X176691648Y-102973035D01*
X176613490Y-103031398D01*
X176518946Y-103055409D01*
X176422410Y-103041412D01*
X176338579Y-102991538D01*
X175781220Y-102489690D01*
X175722857Y-102411532D01*
X175698846Y-102316988D01*
X175712843Y-102220452D01*
X175762717Y-102136621D01*
X177201348Y-100538859D01*
X177279506Y-100480496D01*
X177374050Y-100456485D01*
X177470586Y-100470482D01*
X177470586Y-100470482D01*
G37*
D36*
X176946498Y-101755947D03*
D10*
G36*
X179551392Y-102344048D02*
G01*
X179635223Y-102393922D01*
X180192582Y-102895770D01*
X180250945Y-102973928D01*
X180274956Y-103068472D01*
X180260959Y-103165008D01*
X180211085Y-103248839D01*
X178772454Y-104846601D01*
X178694296Y-104904964D01*
X178599752Y-104928975D01*
X178503216Y-104914978D01*
X178419385Y-104865104D01*
X177862026Y-104363256D01*
X177803663Y-104285098D01*
X177779652Y-104190554D01*
X177793649Y-104094018D01*
X177843523Y-104010187D01*
X179282154Y-102412425D01*
X179360312Y-102354062D01*
X179454856Y-102330051D01*
X179551392Y-102344048D01*
X179551392Y-102344048D01*
G37*
D36*
X179027304Y-103629513D03*
D10*
G36*
X163252462Y-62541651D02*
G01*
X163323430Y-62589070D01*
X163370849Y-62660038D01*
X163387500Y-62743750D01*
X163387500Y-63256250D01*
X163370849Y-63339962D01*
X163323430Y-63410930D01*
X163252462Y-63458349D01*
X163168750Y-63475000D01*
X162731250Y-63475000D01*
X162647538Y-63458349D01*
X162576570Y-63410930D01*
X162529151Y-63339962D01*
X162512500Y-63256250D01*
X162512500Y-62743750D01*
X162529151Y-62660038D01*
X162576570Y-62589070D01*
X162647538Y-62541651D01*
X162731250Y-62525000D01*
X163168750Y-62525000D01*
X163252462Y-62541651D01*
X163252462Y-62541651D01*
G37*
D19*
X162950000Y-63000000D03*
D10*
G36*
X164827462Y-62541651D02*
G01*
X164898430Y-62589070D01*
X164945849Y-62660038D01*
X164962500Y-62743750D01*
X164962500Y-63256250D01*
X164945849Y-63339962D01*
X164898430Y-63410930D01*
X164827462Y-63458349D01*
X164743750Y-63475000D01*
X164306250Y-63475000D01*
X164222538Y-63458349D01*
X164151570Y-63410930D01*
X164104151Y-63339962D01*
X164087500Y-63256250D01*
X164087500Y-62743750D01*
X164104151Y-62660038D01*
X164151570Y-62589070D01*
X164222538Y-62541651D01*
X164306250Y-62525000D01*
X164743750Y-62525000D01*
X164827462Y-62541651D01*
X164827462Y-62541651D01*
G37*
D19*
X164525000Y-63000000D03*
D10*
G36*
X164827462Y-61041651D02*
G01*
X164898430Y-61089070D01*
X164945849Y-61160038D01*
X164962500Y-61243750D01*
X164962500Y-61756250D01*
X164945849Y-61839962D01*
X164898430Y-61910930D01*
X164827462Y-61958349D01*
X164743750Y-61975000D01*
X164306250Y-61975000D01*
X164222538Y-61958349D01*
X164151570Y-61910930D01*
X164104151Y-61839962D01*
X164087500Y-61756250D01*
X164087500Y-61243750D01*
X164104151Y-61160038D01*
X164151570Y-61089070D01*
X164222538Y-61041651D01*
X164306250Y-61025000D01*
X164743750Y-61025000D01*
X164827462Y-61041651D01*
X164827462Y-61041651D01*
G37*
D19*
X164525000Y-61500000D03*
D10*
G36*
X163252462Y-61041651D02*
G01*
X163323430Y-61089070D01*
X163370849Y-61160038D01*
X163387500Y-61243750D01*
X163387500Y-61756250D01*
X163370849Y-61839962D01*
X163323430Y-61910930D01*
X163252462Y-61958349D01*
X163168750Y-61975000D01*
X162731250Y-61975000D01*
X162647538Y-61958349D01*
X162576570Y-61910930D01*
X162529151Y-61839962D01*
X162512500Y-61756250D01*
X162512500Y-61243750D01*
X162529151Y-61160038D01*
X162576570Y-61089070D01*
X162647538Y-61041651D01*
X162731250Y-61025000D01*
X163168750Y-61025000D01*
X163252462Y-61041651D01*
X163252462Y-61041651D01*
G37*
D19*
X162950000Y-61500000D03*
D10*
G36*
X161289962Y-62654151D02*
G01*
X161360930Y-62701570D01*
X161408349Y-62772538D01*
X161425000Y-62856250D01*
X161425000Y-63293750D01*
X161408349Y-63377462D01*
X161360930Y-63448430D01*
X161289962Y-63495849D01*
X161206250Y-63512500D01*
X160693750Y-63512500D01*
X160610038Y-63495849D01*
X160539070Y-63448430D01*
X160491651Y-63377462D01*
X160475000Y-63293750D01*
X160475000Y-62856250D01*
X160491651Y-62772538D01*
X160539070Y-62701570D01*
X160610038Y-62654151D01*
X160693750Y-62637500D01*
X161206250Y-62637500D01*
X161289962Y-62654151D01*
X161289962Y-62654151D01*
G37*
D19*
X160950000Y-63075000D03*
D10*
G36*
X161289962Y-61079151D02*
G01*
X161360930Y-61126570D01*
X161408349Y-61197538D01*
X161425000Y-61281250D01*
X161425000Y-61718750D01*
X161408349Y-61802462D01*
X161360930Y-61873430D01*
X161289962Y-61920849D01*
X161206250Y-61937500D01*
X160693750Y-61937500D01*
X160610038Y-61920849D01*
X160539070Y-61873430D01*
X160491651Y-61802462D01*
X160475000Y-61718750D01*
X160475000Y-61281250D01*
X160491651Y-61197538D01*
X160539070Y-61126570D01*
X160610038Y-61079151D01*
X160693750Y-61062500D01*
X161206250Y-61062500D01*
X161289962Y-61079151D01*
X161289962Y-61079151D01*
G37*
D19*
X160950000Y-61500000D03*
D10*
G36*
X151939962Y-70179151D02*
G01*
X152010930Y-70226570D01*
X152058349Y-70297538D01*
X152075000Y-70381250D01*
X152075000Y-70818750D01*
X152058349Y-70902462D01*
X152010930Y-70973430D01*
X151939962Y-71020849D01*
X151856250Y-71037500D01*
X151343750Y-71037500D01*
X151260038Y-71020849D01*
X151189070Y-70973430D01*
X151141651Y-70902462D01*
X151125000Y-70818750D01*
X151125000Y-70381250D01*
X151141651Y-70297538D01*
X151189070Y-70226570D01*
X151260038Y-70179151D01*
X151343750Y-70162500D01*
X151856250Y-70162500D01*
X151939962Y-70179151D01*
X151939962Y-70179151D01*
G37*
D19*
X151600000Y-70600000D03*
D10*
G36*
X151939962Y-68604151D02*
G01*
X152010930Y-68651570D01*
X152058349Y-68722538D01*
X152075000Y-68806250D01*
X152075000Y-69243750D01*
X152058349Y-69327462D01*
X152010930Y-69398430D01*
X151939962Y-69445849D01*
X151856250Y-69462500D01*
X151343750Y-69462500D01*
X151260038Y-69445849D01*
X151189070Y-69398430D01*
X151141651Y-69327462D01*
X151125000Y-69243750D01*
X151125000Y-68806250D01*
X151141651Y-68722538D01*
X151189070Y-68651570D01*
X151260038Y-68604151D01*
X151343750Y-68587500D01*
X151856250Y-68587500D01*
X151939962Y-68604151D01*
X151939962Y-68604151D01*
G37*
D19*
X151600000Y-69025000D03*
D10*
G36*
X173089962Y-65291651D02*
G01*
X173160930Y-65339070D01*
X173208349Y-65410038D01*
X173225000Y-65493750D01*
X173225000Y-66006250D01*
X173208349Y-66089962D01*
X173160930Y-66160930D01*
X173089962Y-66208349D01*
X173006250Y-66225000D01*
X172568750Y-66225000D01*
X172485038Y-66208349D01*
X172414070Y-66160930D01*
X172366651Y-66089962D01*
X172350000Y-66006250D01*
X172350000Y-65493750D01*
X172366651Y-65410038D01*
X172414070Y-65339070D01*
X172485038Y-65291651D01*
X172568750Y-65275000D01*
X173006250Y-65275000D01*
X173089962Y-65291651D01*
X173089962Y-65291651D01*
G37*
D19*
X172787500Y-65750000D03*
D10*
G36*
X171514962Y-65291651D02*
G01*
X171585930Y-65339070D01*
X171633349Y-65410038D01*
X171650000Y-65493750D01*
X171650000Y-66006250D01*
X171633349Y-66089962D01*
X171585930Y-66160930D01*
X171514962Y-66208349D01*
X171431250Y-66225000D01*
X170993750Y-66225000D01*
X170910038Y-66208349D01*
X170839070Y-66160930D01*
X170791651Y-66089962D01*
X170775000Y-66006250D01*
X170775000Y-65493750D01*
X170791651Y-65410038D01*
X170839070Y-65339070D01*
X170910038Y-65291651D01*
X170993750Y-65275000D01*
X171431250Y-65275000D01*
X171514962Y-65291651D01*
X171514962Y-65291651D01*
G37*
D19*
X171212500Y-65750000D03*
D10*
G36*
X173127462Y-66791651D02*
G01*
X173198430Y-66839070D01*
X173245849Y-66910038D01*
X173262500Y-66993750D01*
X173262500Y-67506250D01*
X173245849Y-67589962D01*
X173198430Y-67660930D01*
X173127462Y-67708349D01*
X173043750Y-67725000D01*
X172606250Y-67725000D01*
X172522538Y-67708349D01*
X172451570Y-67660930D01*
X172404151Y-67589962D01*
X172387500Y-67506250D01*
X172387500Y-66993750D01*
X172404151Y-66910038D01*
X172451570Y-66839070D01*
X172522538Y-66791651D01*
X172606250Y-66775000D01*
X173043750Y-66775000D01*
X173127462Y-66791651D01*
X173127462Y-66791651D01*
G37*
D19*
X172825000Y-67250000D03*
D10*
G36*
X171552462Y-66791651D02*
G01*
X171623430Y-66839070D01*
X171670849Y-66910038D01*
X171687500Y-66993750D01*
X171687500Y-67506250D01*
X171670849Y-67589962D01*
X171623430Y-67660930D01*
X171552462Y-67708349D01*
X171468750Y-67725000D01*
X171031250Y-67725000D01*
X170947538Y-67708349D01*
X170876570Y-67660930D01*
X170829151Y-67589962D01*
X170812500Y-67506250D01*
X170812500Y-66993750D01*
X170829151Y-66910038D01*
X170876570Y-66839070D01*
X170947538Y-66791651D01*
X171031250Y-66775000D01*
X171468750Y-66775000D01*
X171552462Y-66791651D01*
X171552462Y-66791651D01*
G37*
D19*
X171250000Y-67250000D03*
M02*
