G04 #@! TF.GenerationSoftware,KiCad,Pcbnew,6.0.0-rc1-unknown-3eb3db0~66~ubuntu18.04.1*
G04 #@! TF.CreationDate,2018-08-09T16:50:38-07:00*
G04 #@! TF.ProjectId,main_board_onion,6D61696E5F626F6172645F6F6E696F6E,rev?*
G04 #@! TF.SameCoordinates,Original*
G04 #@! TF.FileFunction,Soldermask,Top*
G04 #@! TF.FilePolarity,Negative*
%FSLAX46Y46*%
G04 Gerber Fmt 4.6, Leading zero omitted, Abs format (unit mm)*
G04 Created by KiCad (PCBNEW 6.0.0-rc1-unknown-3eb3db0~66~ubuntu18.04.1) date Thu Aug  9 16:50:38 2018*
%MOMM*%
%LPD*%
G01*
G04 APERTURE LIST*
%ADD10C,0.100000*%
%ADD11C,3.000000*%
%ADD12C,0.650000*%
%ADD13O,3.100000X3.700000*%
%ADD14R,3.100000X3.700000*%
%ADD15C,3.200000*%
%ADD16C,1.100000*%
%ADD17C,1.275000*%
%ADD18R,1.800000X1.400000*%
%ADD19R,1.800000X1.600000*%
%ADD20R,1.400000X1.200000*%
%ADD21R,2.100000X2.100000*%
%ADD22O,2.100000X2.100000*%
%ADD23C,6.800000*%
%ADD24C,1.000000*%
%ADD25C,1.650000*%
%ADD26C,1.900000*%
%ADD27C,1.850000*%
%ADD28C,0.800000*%
%ADD29C,1.600000*%
%ADD30C,1.600000*%
%ADD31R,1.380000X3.800000*%
%ADD32R,1.750000X1.750000*%
%ADD33C,1.300000*%
%ADD34R,1.460000X1.050000*%
%ADD35R,0.650000X1.400000*%
%ADD36R,1.400000X0.650000*%
G04 APERTURE END LIST*
D10*
G04 #@! TO.C,U5*
G36*
X154960612Y-59689989D02*
X154988614Y-59694143D01*
X155016074Y-59701021D01*
X155042728Y-59710558D01*
X155068318Y-59722661D01*
X155092599Y-59737215D01*
X155115336Y-59754078D01*
X155136311Y-59773089D01*
X155155322Y-59794064D01*
X155172185Y-59816801D01*
X155186739Y-59841082D01*
X155198842Y-59866672D01*
X155208379Y-59893326D01*
X155215257Y-59920786D01*
X155219411Y-59948788D01*
X155220800Y-59977062D01*
X155220800Y-62400138D01*
X155219411Y-62428412D01*
X155215257Y-62456414D01*
X155208379Y-62483874D01*
X155198842Y-62510528D01*
X155186739Y-62536118D01*
X155172185Y-62560399D01*
X155155322Y-62583136D01*
X155136311Y-62604111D01*
X155115336Y-62623122D01*
X155092599Y-62639985D01*
X155068318Y-62654539D01*
X155042728Y-62666642D01*
X155016074Y-62676179D01*
X154988614Y-62683057D01*
X154960612Y-62687211D01*
X154932338Y-62688600D01*
X152509262Y-62688600D01*
X152480988Y-62687211D01*
X152452986Y-62683057D01*
X152425526Y-62676179D01*
X152398872Y-62666642D01*
X152373282Y-62654539D01*
X152349001Y-62639985D01*
X152326264Y-62623122D01*
X152305289Y-62604111D01*
X152286278Y-62583136D01*
X152269415Y-62560399D01*
X152254861Y-62536118D01*
X152242758Y-62510528D01*
X152233221Y-62483874D01*
X152226343Y-62456414D01*
X152222189Y-62428412D01*
X152220800Y-62400138D01*
X152220800Y-59977062D01*
X152222189Y-59948788D01*
X152226343Y-59920786D01*
X152233221Y-59893326D01*
X152242758Y-59866672D01*
X152254861Y-59841082D01*
X152269415Y-59816801D01*
X152286278Y-59794064D01*
X152305289Y-59773089D01*
X152326264Y-59754078D01*
X152349001Y-59737215D01*
X152373282Y-59722661D01*
X152398872Y-59710558D01*
X152425526Y-59701021D01*
X152452986Y-59694143D01*
X152480988Y-59689989D01*
X152509262Y-59688600D01*
X154932338Y-59688600D01*
X154960612Y-59689989D01*
X154960612Y-59689989D01*
G37*
D11*
X153720800Y-61188600D03*
D10*
G36*
X156124228Y-62114382D02*
X156140002Y-62116722D01*
X156155471Y-62120597D01*
X156170486Y-62125970D01*
X156184902Y-62132788D01*
X156198580Y-62140986D01*
X156211389Y-62150486D01*
X156223205Y-62161195D01*
X156233914Y-62173011D01*
X156243414Y-62185820D01*
X156251612Y-62199498D01*
X156258430Y-62213914D01*
X156263803Y-62228929D01*
X156267678Y-62244398D01*
X156270018Y-62260172D01*
X156270800Y-62276100D01*
X156270800Y-62601100D01*
X156270018Y-62617028D01*
X156267678Y-62632802D01*
X156263803Y-62648271D01*
X156258430Y-62663286D01*
X156251612Y-62677702D01*
X156243414Y-62691380D01*
X156233914Y-62704189D01*
X156223205Y-62716005D01*
X156211389Y-62726714D01*
X156198580Y-62736214D01*
X156184902Y-62744412D01*
X156170486Y-62751230D01*
X156155471Y-62756603D01*
X156140002Y-62760478D01*
X156124228Y-62762818D01*
X156108300Y-62763600D01*
X155208300Y-62763600D01*
X155192372Y-62762818D01*
X155176598Y-62760478D01*
X155161129Y-62756603D01*
X155146114Y-62751230D01*
X155131698Y-62744412D01*
X155118020Y-62736214D01*
X155105211Y-62726714D01*
X155093395Y-62716005D01*
X155082686Y-62704189D01*
X155073186Y-62691380D01*
X155064988Y-62677702D01*
X155058170Y-62663286D01*
X155052797Y-62648271D01*
X155048922Y-62632802D01*
X155046582Y-62617028D01*
X155045800Y-62601100D01*
X155045800Y-62276100D01*
X155046582Y-62260172D01*
X155048922Y-62244398D01*
X155052797Y-62228929D01*
X155058170Y-62213914D01*
X155064988Y-62199498D01*
X155073186Y-62185820D01*
X155082686Y-62173011D01*
X155093395Y-62161195D01*
X155105211Y-62150486D01*
X155118020Y-62140986D01*
X155131698Y-62132788D01*
X155146114Y-62125970D01*
X155161129Y-62120597D01*
X155176598Y-62116722D01*
X155192372Y-62114382D01*
X155208300Y-62113600D01*
X156108300Y-62113600D01*
X156124228Y-62114382D01*
X156124228Y-62114382D01*
G37*
D12*
X155658300Y-62438600D03*
D10*
G36*
X156124228Y-61614382D02*
X156140002Y-61616722D01*
X156155471Y-61620597D01*
X156170486Y-61625970D01*
X156184902Y-61632788D01*
X156198580Y-61640986D01*
X156211389Y-61650486D01*
X156223205Y-61661195D01*
X156233914Y-61673011D01*
X156243414Y-61685820D01*
X156251612Y-61699498D01*
X156258430Y-61713914D01*
X156263803Y-61728929D01*
X156267678Y-61744398D01*
X156270018Y-61760172D01*
X156270800Y-61776100D01*
X156270800Y-62101100D01*
X156270018Y-62117028D01*
X156267678Y-62132802D01*
X156263803Y-62148271D01*
X156258430Y-62163286D01*
X156251612Y-62177702D01*
X156243414Y-62191380D01*
X156233914Y-62204189D01*
X156223205Y-62216005D01*
X156211389Y-62226714D01*
X156198580Y-62236214D01*
X156184902Y-62244412D01*
X156170486Y-62251230D01*
X156155471Y-62256603D01*
X156140002Y-62260478D01*
X156124228Y-62262818D01*
X156108300Y-62263600D01*
X155208300Y-62263600D01*
X155192372Y-62262818D01*
X155176598Y-62260478D01*
X155161129Y-62256603D01*
X155146114Y-62251230D01*
X155131698Y-62244412D01*
X155118020Y-62236214D01*
X155105211Y-62226714D01*
X155093395Y-62216005D01*
X155082686Y-62204189D01*
X155073186Y-62191380D01*
X155064988Y-62177702D01*
X155058170Y-62163286D01*
X155052797Y-62148271D01*
X155048922Y-62132802D01*
X155046582Y-62117028D01*
X155045800Y-62101100D01*
X155045800Y-61776100D01*
X155046582Y-61760172D01*
X155048922Y-61744398D01*
X155052797Y-61728929D01*
X155058170Y-61713914D01*
X155064988Y-61699498D01*
X155073186Y-61685820D01*
X155082686Y-61673011D01*
X155093395Y-61661195D01*
X155105211Y-61650486D01*
X155118020Y-61640986D01*
X155131698Y-61632788D01*
X155146114Y-61625970D01*
X155161129Y-61620597D01*
X155176598Y-61616722D01*
X155192372Y-61614382D01*
X155208300Y-61613600D01*
X156108300Y-61613600D01*
X156124228Y-61614382D01*
X156124228Y-61614382D01*
G37*
D12*
X155658300Y-61938600D03*
D10*
G36*
X156124228Y-61114382D02*
X156140002Y-61116722D01*
X156155471Y-61120597D01*
X156170486Y-61125970D01*
X156184902Y-61132788D01*
X156198580Y-61140986D01*
X156211389Y-61150486D01*
X156223205Y-61161195D01*
X156233914Y-61173011D01*
X156243414Y-61185820D01*
X156251612Y-61199498D01*
X156258430Y-61213914D01*
X156263803Y-61228929D01*
X156267678Y-61244398D01*
X156270018Y-61260172D01*
X156270800Y-61276100D01*
X156270800Y-61601100D01*
X156270018Y-61617028D01*
X156267678Y-61632802D01*
X156263803Y-61648271D01*
X156258430Y-61663286D01*
X156251612Y-61677702D01*
X156243414Y-61691380D01*
X156233914Y-61704189D01*
X156223205Y-61716005D01*
X156211389Y-61726714D01*
X156198580Y-61736214D01*
X156184902Y-61744412D01*
X156170486Y-61751230D01*
X156155471Y-61756603D01*
X156140002Y-61760478D01*
X156124228Y-61762818D01*
X156108300Y-61763600D01*
X155208300Y-61763600D01*
X155192372Y-61762818D01*
X155176598Y-61760478D01*
X155161129Y-61756603D01*
X155146114Y-61751230D01*
X155131698Y-61744412D01*
X155118020Y-61736214D01*
X155105211Y-61726714D01*
X155093395Y-61716005D01*
X155082686Y-61704189D01*
X155073186Y-61691380D01*
X155064988Y-61677702D01*
X155058170Y-61663286D01*
X155052797Y-61648271D01*
X155048922Y-61632802D01*
X155046582Y-61617028D01*
X155045800Y-61601100D01*
X155045800Y-61276100D01*
X155046582Y-61260172D01*
X155048922Y-61244398D01*
X155052797Y-61228929D01*
X155058170Y-61213914D01*
X155064988Y-61199498D01*
X155073186Y-61185820D01*
X155082686Y-61173011D01*
X155093395Y-61161195D01*
X155105211Y-61150486D01*
X155118020Y-61140986D01*
X155131698Y-61132788D01*
X155146114Y-61125970D01*
X155161129Y-61120597D01*
X155176598Y-61116722D01*
X155192372Y-61114382D01*
X155208300Y-61113600D01*
X156108300Y-61113600D01*
X156124228Y-61114382D01*
X156124228Y-61114382D01*
G37*
D12*
X155658300Y-61438600D03*
D10*
G36*
X156124228Y-60614382D02*
X156140002Y-60616722D01*
X156155471Y-60620597D01*
X156170486Y-60625970D01*
X156184902Y-60632788D01*
X156198580Y-60640986D01*
X156211389Y-60650486D01*
X156223205Y-60661195D01*
X156233914Y-60673011D01*
X156243414Y-60685820D01*
X156251612Y-60699498D01*
X156258430Y-60713914D01*
X156263803Y-60728929D01*
X156267678Y-60744398D01*
X156270018Y-60760172D01*
X156270800Y-60776100D01*
X156270800Y-61101100D01*
X156270018Y-61117028D01*
X156267678Y-61132802D01*
X156263803Y-61148271D01*
X156258430Y-61163286D01*
X156251612Y-61177702D01*
X156243414Y-61191380D01*
X156233914Y-61204189D01*
X156223205Y-61216005D01*
X156211389Y-61226714D01*
X156198580Y-61236214D01*
X156184902Y-61244412D01*
X156170486Y-61251230D01*
X156155471Y-61256603D01*
X156140002Y-61260478D01*
X156124228Y-61262818D01*
X156108300Y-61263600D01*
X155208300Y-61263600D01*
X155192372Y-61262818D01*
X155176598Y-61260478D01*
X155161129Y-61256603D01*
X155146114Y-61251230D01*
X155131698Y-61244412D01*
X155118020Y-61236214D01*
X155105211Y-61226714D01*
X155093395Y-61216005D01*
X155082686Y-61204189D01*
X155073186Y-61191380D01*
X155064988Y-61177702D01*
X155058170Y-61163286D01*
X155052797Y-61148271D01*
X155048922Y-61132802D01*
X155046582Y-61117028D01*
X155045800Y-61101100D01*
X155045800Y-60776100D01*
X155046582Y-60760172D01*
X155048922Y-60744398D01*
X155052797Y-60728929D01*
X155058170Y-60713914D01*
X155064988Y-60699498D01*
X155073186Y-60685820D01*
X155082686Y-60673011D01*
X155093395Y-60661195D01*
X155105211Y-60650486D01*
X155118020Y-60640986D01*
X155131698Y-60632788D01*
X155146114Y-60625970D01*
X155161129Y-60620597D01*
X155176598Y-60616722D01*
X155192372Y-60614382D01*
X155208300Y-60613600D01*
X156108300Y-60613600D01*
X156124228Y-60614382D01*
X156124228Y-60614382D01*
G37*
D12*
X155658300Y-60938600D03*
D10*
G36*
X156124228Y-60114382D02*
X156140002Y-60116722D01*
X156155471Y-60120597D01*
X156170486Y-60125970D01*
X156184902Y-60132788D01*
X156198580Y-60140986D01*
X156211389Y-60150486D01*
X156223205Y-60161195D01*
X156233914Y-60173011D01*
X156243414Y-60185820D01*
X156251612Y-60199498D01*
X156258430Y-60213914D01*
X156263803Y-60228929D01*
X156267678Y-60244398D01*
X156270018Y-60260172D01*
X156270800Y-60276100D01*
X156270800Y-60601100D01*
X156270018Y-60617028D01*
X156267678Y-60632802D01*
X156263803Y-60648271D01*
X156258430Y-60663286D01*
X156251612Y-60677702D01*
X156243414Y-60691380D01*
X156233914Y-60704189D01*
X156223205Y-60716005D01*
X156211389Y-60726714D01*
X156198580Y-60736214D01*
X156184902Y-60744412D01*
X156170486Y-60751230D01*
X156155471Y-60756603D01*
X156140002Y-60760478D01*
X156124228Y-60762818D01*
X156108300Y-60763600D01*
X155208300Y-60763600D01*
X155192372Y-60762818D01*
X155176598Y-60760478D01*
X155161129Y-60756603D01*
X155146114Y-60751230D01*
X155131698Y-60744412D01*
X155118020Y-60736214D01*
X155105211Y-60726714D01*
X155093395Y-60716005D01*
X155082686Y-60704189D01*
X155073186Y-60691380D01*
X155064988Y-60677702D01*
X155058170Y-60663286D01*
X155052797Y-60648271D01*
X155048922Y-60632802D01*
X155046582Y-60617028D01*
X155045800Y-60601100D01*
X155045800Y-60276100D01*
X155046582Y-60260172D01*
X155048922Y-60244398D01*
X155052797Y-60228929D01*
X155058170Y-60213914D01*
X155064988Y-60199498D01*
X155073186Y-60185820D01*
X155082686Y-60173011D01*
X155093395Y-60161195D01*
X155105211Y-60150486D01*
X155118020Y-60140986D01*
X155131698Y-60132788D01*
X155146114Y-60125970D01*
X155161129Y-60120597D01*
X155176598Y-60116722D01*
X155192372Y-60114382D01*
X155208300Y-60113600D01*
X156108300Y-60113600D01*
X156124228Y-60114382D01*
X156124228Y-60114382D01*
G37*
D12*
X155658300Y-60438600D03*
D10*
G36*
X156124228Y-59614382D02*
X156140002Y-59616722D01*
X156155471Y-59620597D01*
X156170486Y-59625970D01*
X156184902Y-59632788D01*
X156198580Y-59640986D01*
X156211389Y-59650486D01*
X156223205Y-59661195D01*
X156233914Y-59673011D01*
X156243414Y-59685820D01*
X156251612Y-59699498D01*
X156258430Y-59713914D01*
X156263803Y-59728929D01*
X156267678Y-59744398D01*
X156270018Y-59760172D01*
X156270800Y-59776100D01*
X156270800Y-60101100D01*
X156270018Y-60117028D01*
X156267678Y-60132802D01*
X156263803Y-60148271D01*
X156258430Y-60163286D01*
X156251612Y-60177702D01*
X156243414Y-60191380D01*
X156233914Y-60204189D01*
X156223205Y-60216005D01*
X156211389Y-60226714D01*
X156198580Y-60236214D01*
X156184902Y-60244412D01*
X156170486Y-60251230D01*
X156155471Y-60256603D01*
X156140002Y-60260478D01*
X156124228Y-60262818D01*
X156108300Y-60263600D01*
X155208300Y-60263600D01*
X155192372Y-60262818D01*
X155176598Y-60260478D01*
X155161129Y-60256603D01*
X155146114Y-60251230D01*
X155131698Y-60244412D01*
X155118020Y-60236214D01*
X155105211Y-60226714D01*
X155093395Y-60216005D01*
X155082686Y-60204189D01*
X155073186Y-60191380D01*
X155064988Y-60177702D01*
X155058170Y-60163286D01*
X155052797Y-60148271D01*
X155048922Y-60132802D01*
X155046582Y-60117028D01*
X155045800Y-60101100D01*
X155045800Y-59776100D01*
X155046582Y-59760172D01*
X155048922Y-59744398D01*
X155052797Y-59728929D01*
X155058170Y-59713914D01*
X155064988Y-59699498D01*
X155073186Y-59685820D01*
X155082686Y-59673011D01*
X155093395Y-59661195D01*
X155105211Y-59650486D01*
X155118020Y-59640986D01*
X155131698Y-59632788D01*
X155146114Y-59625970D01*
X155161129Y-59620597D01*
X155176598Y-59616722D01*
X155192372Y-59614382D01*
X155208300Y-59613600D01*
X156108300Y-59613600D01*
X156124228Y-59614382D01*
X156124228Y-59614382D01*
G37*
D12*
X155658300Y-59938600D03*
D10*
G36*
X155149228Y-58639382D02*
X155165002Y-58641722D01*
X155180471Y-58645597D01*
X155195486Y-58650970D01*
X155209902Y-58657788D01*
X155223580Y-58665986D01*
X155236389Y-58675486D01*
X155248205Y-58686195D01*
X155258914Y-58698011D01*
X155268414Y-58710820D01*
X155276612Y-58724498D01*
X155283430Y-58738914D01*
X155288803Y-58753929D01*
X155292678Y-58769398D01*
X155295018Y-58785172D01*
X155295800Y-58801100D01*
X155295800Y-59701100D01*
X155295018Y-59717028D01*
X155292678Y-59732802D01*
X155288803Y-59748271D01*
X155283430Y-59763286D01*
X155276612Y-59777702D01*
X155268414Y-59791380D01*
X155258914Y-59804189D01*
X155248205Y-59816005D01*
X155236389Y-59826714D01*
X155223580Y-59836214D01*
X155209902Y-59844412D01*
X155195486Y-59851230D01*
X155180471Y-59856603D01*
X155165002Y-59860478D01*
X155149228Y-59862818D01*
X155133300Y-59863600D01*
X154808300Y-59863600D01*
X154792372Y-59862818D01*
X154776598Y-59860478D01*
X154761129Y-59856603D01*
X154746114Y-59851230D01*
X154731698Y-59844412D01*
X154718020Y-59836214D01*
X154705211Y-59826714D01*
X154693395Y-59816005D01*
X154682686Y-59804189D01*
X154673186Y-59791380D01*
X154664988Y-59777702D01*
X154658170Y-59763286D01*
X154652797Y-59748271D01*
X154648922Y-59732802D01*
X154646582Y-59717028D01*
X154645800Y-59701100D01*
X154645800Y-58801100D01*
X154646582Y-58785172D01*
X154648922Y-58769398D01*
X154652797Y-58753929D01*
X154658170Y-58738914D01*
X154664988Y-58724498D01*
X154673186Y-58710820D01*
X154682686Y-58698011D01*
X154693395Y-58686195D01*
X154705211Y-58675486D01*
X154718020Y-58665986D01*
X154731698Y-58657788D01*
X154746114Y-58650970D01*
X154761129Y-58645597D01*
X154776598Y-58641722D01*
X154792372Y-58639382D01*
X154808300Y-58638600D01*
X155133300Y-58638600D01*
X155149228Y-58639382D01*
X155149228Y-58639382D01*
G37*
D12*
X154970800Y-59251100D03*
D10*
G36*
X154649228Y-58639382D02*
X154665002Y-58641722D01*
X154680471Y-58645597D01*
X154695486Y-58650970D01*
X154709902Y-58657788D01*
X154723580Y-58665986D01*
X154736389Y-58675486D01*
X154748205Y-58686195D01*
X154758914Y-58698011D01*
X154768414Y-58710820D01*
X154776612Y-58724498D01*
X154783430Y-58738914D01*
X154788803Y-58753929D01*
X154792678Y-58769398D01*
X154795018Y-58785172D01*
X154795800Y-58801100D01*
X154795800Y-59701100D01*
X154795018Y-59717028D01*
X154792678Y-59732802D01*
X154788803Y-59748271D01*
X154783430Y-59763286D01*
X154776612Y-59777702D01*
X154768414Y-59791380D01*
X154758914Y-59804189D01*
X154748205Y-59816005D01*
X154736389Y-59826714D01*
X154723580Y-59836214D01*
X154709902Y-59844412D01*
X154695486Y-59851230D01*
X154680471Y-59856603D01*
X154665002Y-59860478D01*
X154649228Y-59862818D01*
X154633300Y-59863600D01*
X154308300Y-59863600D01*
X154292372Y-59862818D01*
X154276598Y-59860478D01*
X154261129Y-59856603D01*
X154246114Y-59851230D01*
X154231698Y-59844412D01*
X154218020Y-59836214D01*
X154205211Y-59826714D01*
X154193395Y-59816005D01*
X154182686Y-59804189D01*
X154173186Y-59791380D01*
X154164988Y-59777702D01*
X154158170Y-59763286D01*
X154152797Y-59748271D01*
X154148922Y-59732802D01*
X154146582Y-59717028D01*
X154145800Y-59701100D01*
X154145800Y-58801100D01*
X154146582Y-58785172D01*
X154148922Y-58769398D01*
X154152797Y-58753929D01*
X154158170Y-58738914D01*
X154164988Y-58724498D01*
X154173186Y-58710820D01*
X154182686Y-58698011D01*
X154193395Y-58686195D01*
X154205211Y-58675486D01*
X154218020Y-58665986D01*
X154231698Y-58657788D01*
X154246114Y-58650970D01*
X154261129Y-58645597D01*
X154276598Y-58641722D01*
X154292372Y-58639382D01*
X154308300Y-58638600D01*
X154633300Y-58638600D01*
X154649228Y-58639382D01*
X154649228Y-58639382D01*
G37*
D12*
X154470800Y-59251100D03*
D10*
G36*
X154149228Y-58639382D02*
X154165002Y-58641722D01*
X154180471Y-58645597D01*
X154195486Y-58650970D01*
X154209902Y-58657788D01*
X154223580Y-58665986D01*
X154236389Y-58675486D01*
X154248205Y-58686195D01*
X154258914Y-58698011D01*
X154268414Y-58710820D01*
X154276612Y-58724498D01*
X154283430Y-58738914D01*
X154288803Y-58753929D01*
X154292678Y-58769398D01*
X154295018Y-58785172D01*
X154295800Y-58801100D01*
X154295800Y-59701100D01*
X154295018Y-59717028D01*
X154292678Y-59732802D01*
X154288803Y-59748271D01*
X154283430Y-59763286D01*
X154276612Y-59777702D01*
X154268414Y-59791380D01*
X154258914Y-59804189D01*
X154248205Y-59816005D01*
X154236389Y-59826714D01*
X154223580Y-59836214D01*
X154209902Y-59844412D01*
X154195486Y-59851230D01*
X154180471Y-59856603D01*
X154165002Y-59860478D01*
X154149228Y-59862818D01*
X154133300Y-59863600D01*
X153808300Y-59863600D01*
X153792372Y-59862818D01*
X153776598Y-59860478D01*
X153761129Y-59856603D01*
X153746114Y-59851230D01*
X153731698Y-59844412D01*
X153718020Y-59836214D01*
X153705211Y-59826714D01*
X153693395Y-59816005D01*
X153682686Y-59804189D01*
X153673186Y-59791380D01*
X153664988Y-59777702D01*
X153658170Y-59763286D01*
X153652797Y-59748271D01*
X153648922Y-59732802D01*
X153646582Y-59717028D01*
X153645800Y-59701100D01*
X153645800Y-58801100D01*
X153646582Y-58785172D01*
X153648922Y-58769398D01*
X153652797Y-58753929D01*
X153658170Y-58738914D01*
X153664988Y-58724498D01*
X153673186Y-58710820D01*
X153682686Y-58698011D01*
X153693395Y-58686195D01*
X153705211Y-58675486D01*
X153718020Y-58665986D01*
X153731698Y-58657788D01*
X153746114Y-58650970D01*
X153761129Y-58645597D01*
X153776598Y-58641722D01*
X153792372Y-58639382D01*
X153808300Y-58638600D01*
X154133300Y-58638600D01*
X154149228Y-58639382D01*
X154149228Y-58639382D01*
G37*
D12*
X153970800Y-59251100D03*
D10*
G36*
X153649228Y-58639382D02*
X153665002Y-58641722D01*
X153680471Y-58645597D01*
X153695486Y-58650970D01*
X153709902Y-58657788D01*
X153723580Y-58665986D01*
X153736389Y-58675486D01*
X153748205Y-58686195D01*
X153758914Y-58698011D01*
X153768414Y-58710820D01*
X153776612Y-58724498D01*
X153783430Y-58738914D01*
X153788803Y-58753929D01*
X153792678Y-58769398D01*
X153795018Y-58785172D01*
X153795800Y-58801100D01*
X153795800Y-59701100D01*
X153795018Y-59717028D01*
X153792678Y-59732802D01*
X153788803Y-59748271D01*
X153783430Y-59763286D01*
X153776612Y-59777702D01*
X153768414Y-59791380D01*
X153758914Y-59804189D01*
X153748205Y-59816005D01*
X153736389Y-59826714D01*
X153723580Y-59836214D01*
X153709902Y-59844412D01*
X153695486Y-59851230D01*
X153680471Y-59856603D01*
X153665002Y-59860478D01*
X153649228Y-59862818D01*
X153633300Y-59863600D01*
X153308300Y-59863600D01*
X153292372Y-59862818D01*
X153276598Y-59860478D01*
X153261129Y-59856603D01*
X153246114Y-59851230D01*
X153231698Y-59844412D01*
X153218020Y-59836214D01*
X153205211Y-59826714D01*
X153193395Y-59816005D01*
X153182686Y-59804189D01*
X153173186Y-59791380D01*
X153164988Y-59777702D01*
X153158170Y-59763286D01*
X153152797Y-59748271D01*
X153148922Y-59732802D01*
X153146582Y-59717028D01*
X153145800Y-59701100D01*
X153145800Y-58801100D01*
X153146582Y-58785172D01*
X153148922Y-58769398D01*
X153152797Y-58753929D01*
X153158170Y-58738914D01*
X153164988Y-58724498D01*
X153173186Y-58710820D01*
X153182686Y-58698011D01*
X153193395Y-58686195D01*
X153205211Y-58675486D01*
X153218020Y-58665986D01*
X153231698Y-58657788D01*
X153246114Y-58650970D01*
X153261129Y-58645597D01*
X153276598Y-58641722D01*
X153292372Y-58639382D01*
X153308300Y-58638600D01*
X153633300Y-58638600D01*
X153649228Y-58639382D01*
X153649228Y-58639382D01*
G37*
D12*
X153470800Y-59251100D03*
D10*
G36*
X153149228Y-58639382D02*
X153165002Y-58641722D01*
X153180471Y-58645597D01*
X153195486Y-58650970D01*
X153209902Y-58657788D01*
X153223580Y-58665986D01*
X153236389Y-58675486D01*
X153248205Y-58686195D01*
X153258914Y-58698011D01*
X153268414Y-58710820D01*
X153276612Y-58724498D01*
X153283430Y-58738914D01*
X153288803Y-58753929D01*
X153292678Y-58769398D01*
X153295018Y-58785172D01*
X153295800Y-58801100D01*
X153295800Y-59701100D01*
X153295018Y-59717028D01*
X153292678Y-59732802D01*
X153288803Y-59748271D01*
X153283430Y-59763286D01*
X153276612Y-59777702D01*
X153268414Y-59791380D01*
X153258914Y-59804189D01*
X153248205Y-59816005D01*
X153236389Y-59826714D01*
X153223580Y-59836214D01*
X153209902Y-59844412D01*
X153195486Y-59851230D01*
X153180471Y-59856603D01*
X153165002Y-59860478D01*
X153149228Y-59862818D01*
X153133300Y-59863600D01*
X152808300Y-59863600D01*
X152792372Y-59862818D01*
X152776598Y-59860478D01*
X152761129Y-59856603D01*
X152746114Y-59851230D01*
X152731698Y-59844412D01*
X152718020Y-59836214D01*
X152705211Y-59826714D01*
X152693395Y-59816005D01*
X152682686Y-59804189D01*
X152673186Y-59791380D01*
X152664988Y-59777702D01*
X152658170Y-59763286D01*
X152652797Y-59748271D01*
X152648922Y-59732802D01*
X152646582Y-59717028D01*
X152645800Y-59701100D01*
X152645800Y-58801100D01*
X152646582Y-58785172D01*
X152648922Y-58769398D01*
X152652797Y-58753929D01*
X152658170Y-58738914D01*
X152664988Y-58724498D01*
X152673186Y-58710820D01*
X152682686Y-58698011D01*
X152693395Y-58686195D01*
X152705211Y-58675486D01*
X152718020Y-58665986D01*
X152731698Y-58657788D01*
X152746114Y-58650970D01*
X152761129Y-58645597D01*
X152776598Y-58641722D01*
X152792372Y-58639382D01*
X152808300Y-58638600D01*
X153133300Y-58638600D01*
X153149228Y-58639382D01*
X153149228Y-58639382D01*
G37*
D12*
X152970800Y-59251100D03*
D10*
G36*
X152649228Y-58639382D02*
X152665002Y-58641722D01*
X152680471Y-58645597D01*
X152695486Y-58650970D01*
X152709902Y-58657788D01*
X152723580Y-58665986D01*
X152736389Y-58675486D01*
X152748205Y-58686195D01*
X152758914Y-58698011D01*
X152768414Y-58710820D01*
X152776612Y-58724498D01*
X152783430Y-58738914D01*
X152788803Y-58753929D01*
X152792678Y-58769398D01*
X152795018Y-58785172D01*
X152795800Y-58801100D01*
X152795800Y-59701100D01*
X152795018Y-59717028D01*
X152792678Y-59732802D01*
X152788803Y-59748271D01*
X152783430Y-59763286D01*
X152776612Y-59777702D01*
X152768414Y-59791380D01*
X152758914Y-59804189D01*
X152748205Y-59816005D01*
X152736389Y-59826714D01*
X152723580Y-59836214D01*
X152709902Y-59844412D01*
X152695486Y-59851230D01*
X152680471Y-59856603D01*
X152665002Y-59860478D01*
X152649228Y-59862818D01*
X152633300Y-59863600D01*
X152308300Y-59863600D01*
X152292372Y-59862818D01*
X152276598Y-59860478D01*
X152261129Y-59856603D01*
X152246114Y-59851230D01*
X152231698Y-59844412D01*
X152218020Y-59836214D01*
X152205211Y-59826714D01*
X152193395Y-59816005D01*
X152182686Y-59804189D01*
X152173186Y-59791380D01*
X152164988Y-59777702D01*
X152158170Y-59763286D01*
X152152797Y-59748271D01*
X152148922Y-59732802D01*
X152146582Y-59717028D01*
X152145800Y-59701100D01*
X152145800Y-58801100D01*
X152146582Y-58785172D01*
X152148922Y-58769398D01*
X152152797Y-58753929D01*
X152158170Y-58738914D01*
X152164988Y-58724498D01*
X152173186Y-58710820D01*
X152182686Y-58698011D01*
X152193395Y-58686195D01*
X152205211Y-58675486D01*
X152218020Y-58665986D01*
X152231698Y-58657788D01*
X152246114Y-58650970D01*
X152261129Y-58645597D01*
X152276598Y-58641722D01*
X152292372Y-58639382D01*
X152308300Y-58638600D01*
X152633300Y-58638600D01*
X152649228Y-58639382D01*
X152649228Y-58639382D01*
G37*
D12*
X152470800Y-59251100D03*
D10*
G36*
X152249228Y-59614382D02*
X152265002Y-59616722D01*
X152280471Y-59620597D01*
X152295486Y-59625970D01*
X152309902Y-59632788D01*
X152323580Y-59640986D01*
X152336389Y-59650486D01*
X152348205Y-59661195D01*
X152358914Y-59673011D01*
X152368414Y-59685820D01*
X152376612Y-59699498D01*
X152383430Y-59713914D01*
X152388803Y-59728929D01*
X152392678Y-59744398D01*
X152395018Y-59760172D01*
X152395800Y-59776100D01*
X152395800Y-60101100D01*
X152395018Y-60117028D01*
X152392678Y-60132802D01*
X152388803Y-60148271D01*
X152383430Y-60163286D01*
X152376612Y-60177702D01*
X152368414Y-60191380D01*
X152358914Y-60204189D01*
X152348205Y-60216005D01*
X152336389Y-60226714D01*
X152323580Y-60236214D01*
X152309902Y-60244412D01*
X152295486Y-60251230D01*
X152280471Y-60256603D01*
X152265002Y-60260478D01*
X152249228Y-60262818D01*
X152233300Y-60263600D01*
X151333300Y-60263600D01*
X151317372Y-60262818D01*
X151301598Y-60260478D01*
X151286129Y-60256603D01*
X151271114Y-60251230D01*
X151256698Y-60244412D01*
X151243020Y-60236214D01*
X151230211Y-60226714D01*
X151218395Y-60216005D01*
X151207686Y-60204189D01*
X151198186Y-60191380D01*
X151189988Y-60177702D01*
X151183170Y-60163286D01*
X151177797Y-60148271D01*
X151173922Y-60132802D01*
X151171582Y-60117028D01*
X151170800Y-60101100D01*
X151170800Y-59776100D01*
X151171582Y-59760172D01*
X151173922Y-59744398D01*
X151177797Y-59728929D01*
X151183170Y-59713914D01*
X151189988Y-59699498D01*
X151198186Y-59685820D01*
X151207686Y-59673011D01*
X151218395Y-59661195D01*
X151230211Y-59650486D01*
X151243020Y-59640986D01*
X151256698Y-59632788D01*
X151271114Y-59625970D01*
X151286129Y-59620597D01*
X151301598Y-59616722D01*
X151317372Y-59614382D01*
X151333300Y-59613600D01*
X152233300Y-59613600D01*
X152249228Y-59614382D01*
X152249228Y-59614382D01*
G37*
D12*
X151783300Y-59938600D03*
D10*
G36*
X152249228Y-60114382D02*
X152265002Y-60116722D01*
X152280471Y-60120597D01*
X152295486Y-60125970D01*
X152309902Y-60132788D01*
X152323580Y-60140986D01*
X152336389Y-60150486D01*
X152348205Y-60161195D01*
X152358914Y-60173011D01*
X152368414Y-60185820D01*
X152376612Y-60199498D01*
X152383430Y-60213914D01*
X152388803Y-60228929D01*
X152392678Y-60244398D01*
X152395018Y-60260172D01*
X152395800Y-60276100D01*
X152395800Y-60601100D01*
X152395018Y-60617028D01*
X152392678Y-60632802D01*
X152388803Y-60648271D01*
X152383430Y-60663286D01*
X152376612Y-60677702D01*
X152368414Y-60691380D01*
X152358914Y-60704189D01*
X152348205Y-60716005D01*
X152336389Y-60726714D01*
X152323580Y-60736214D01*
X152309902Y-60744412D01*
X152295486Y-60751230D01*
X152280471Y-60756603D01*
X152265002Y-60760478D01*
X152249228Y-60762818D01*
X152233300Y-60763600D01*
X151333300Y-60763600D01*
X151317372Y-60762818D01*
X151301598Y-60760478D01*
X151286129Y-60756603D01*
X151271114Y-60751230D01*
X151256698Y-60744412D01*
X151243020Y-60736214D01*
X151230211Y-60726714D01*
X151218395Y-60716005D01*
X151207686Y-60704189D01*
X151198186Y-60691380D01*
X151189988Y-60677702D01*
X151183170Y-60663286D01*
X151177797Y-60648271D01*
X151173922Y-60632802D01*
X151171582Y-60617028D01*
X151170800Y-60601100D01*
X151170800Y-60276100D01*
X151171582Y-60260172D01*
X151173922Y-60244398D01*
X151177797Y-60228929D01*
X151183170Y-60213914D01*
X151189988Y-60199498D01*
X151198186Y-60185820D01*
X151207686Y-60173011D01*
X151218395Y-60161195D01*
X151230211Y-60150486D01*
X151243020Y-60140986D01*
X151256698Y-60132788D01*
X151271114Y-60125970D01*
X151286129Y-60120597D01*
X151301598Y-60116722D01*
X151317372Y-60114382D01*
X151333300Y-60113600D01*
X152233300Y-60113600D01*
X152249228Y-60114382D01*
X152249228Y-60114382D01*
G37*
D12*
X151783300Y-60438600D03*
D10*
G36*
X152249228Y-60614382D02*
X152265002Y-60616722D01*
X152280471Y-60620597D01*
X152295486Y-60625970D01*
X152309902Y-60632788D01*
X152323580Y-60640986D01*
X152336389Y-60650486D01*
X152348205Y-60661195D01*
X152358914Y-60673011D01*
X152368414Y-60685820D01*
X152376612Y-60699498D01*
X152383430Y-60713914D01*
X152388803Y-60728929D01*
X152392678Y-60744398D01*
X152395018Y-60760172D01*
X152395800Y-60776100D01*
X152395800Y-61101100D01*
X152395018Y-61117028D01*
X152392678Y-61132802D01*
X152388803Y-61148271D01*
X152383430Y-61163286D01*
X152376612Y-61177702D01*
X152368414Y-61191380D01*
X152358914Y-61204189D01*
X152348205Y-61216005D01*
X152336389Y-61226714D01*
X152323580Y-61236214D01*
X152309902Y-61244412D01*
X152295486Y-61251230D01*
X152280471Y-61256603D01*
X152265002Y-61260478D01*
X152249228Y-61262818D01*
X152233300Y-61263600D01*
X151333300Y-61263600D01*
X151317372Y-61262818D01*
X151301598Y-61260478D01*
X151286129Y-61256603D01*
X151271114Y-61251230D01*
X151256698Y-61244412D01*
X151243020Y-61236214D01*
X151230211Y-61226714D01*
X151218395Y-61216005D01*
X151207686Y-61204189D01*
X151198186Y-61191380D01*
X151189988Y-61177702D01*
X151183170Y-61163286D01*
X151177797Y-61148271D01*
X151173922Y-61132802D01*
X151171582Y-61117028D01*
X151170800Y-61101100D01*
X151170800Y-60776100D01*
X151171582Y-60760172D01*
X151173922Y-60744398D01*
X151177797Y-60728929D01*
X151183170Y-60713914D01*
X151189988Y-60699498D01*
X151198186Y-60685820D01*
X151207686Y-60673011D01*
X151218395Y-60661195D01*
X151230211Y-60650486D01*
X151243020Y-60640986D01*
X151256698Y-60632788D01*
X151271114Y-60625970D01*
X151286129Y-60620597D01*
X151301598Y-60616722D01*
X151317372Y-60614382D01*
X151333300Y-60613600D01*
X152233300Y-60613600D01*
X152249228Y-60614382D01*
X152249228Y-60614382D01*
G37*
D12*
X151783300Y-60938600D03*
D10*
G36*
X152249228Y-61114382D02*
X152265002Y-61116722D01*
X152280471Y-61120597D01*
X152295486Y-61125970D01*
X152309902Y-61132788D01*
X152323580Y-61140986D01*
X152336389Y-61150486D01*
X152348205Y-61161195D01*
X152358914Y-61173011D01*
X152368414Y-61185820D01*
X152376612Y-61199498D01*
X152383430Y-61213914D01*
X152388803Y-61228929D01*
X152392678Y-61244398D01*
X152395018Y-61260172D01*
X152395800Y-61276100D01*
X152395800Y-61601100D01*
X152395018Y-61617028D01*
X152392678Y-61632802D01*
X152388803Y-61648271D01*
X152383430Y-61663286D01*
X152376612Y-61677702D01*
X152368414Y-61691380D01*
X152358914Y-61704189D01*
X152348205Y-61716005D01*
X152336389Y-61726714D01*
X152323580Y-61736214D01*
X152309902Y-61744412D01*
X152295486Y-61751230D01*
X152280471Y-61756603D01*
X152265002Y-61760478D01*
X152249228Y-61762818D01*
X152233300Y-61763600D01*
X151333300Y-61763600D01*
X151317372Y-61762818D01*
X151301598Y-61760478D01*
X151286129Y-61756603D01*
X151271114Y-61751230D01*
X151256698Y-61744412D01*
X151243020Y-61736214D01*
X151230211Y-61726714D01*
X151218395Y-61716005D01*
X151207686Y-61704189D01*
X151198186Y-61691380D01*
X151189988Y-61677702D01*
X151183170Y-61663286D01*
X151177797Y-61648271D01*
X151173922Y-61632802D01*
X151171582Y-61617028D01*
X151170800Y-61601100D01*
X151170800Y-61276100D01*
X151171582Y-61260172D01*
X151173922Y-61244398D01*
X151177797Y-61228929D01*
X151183170Y-61213914D01*
X151189988Y-61199498D01*
X151198186Y-61185820D01*
X151207686Y-61173011D01*
X151218395Y-61161195D01*
X151230211Y-61150486D01*
X151243020Y-61140986D01*
X151256698Y-61132788D01*
X151271114Y-61125970D01*
X151286129Y-61120597D01*
X151301598Y-61116722D01*
X151317372Y-61114382D01*
X151333300Y-61113600D01*
X152233300Y-61113600D01*
X152249228Y-61114382D01*
X152249228Y-61114382D01*
G37*
D12*
X151783300Y-61438600D03*
D10*
G36*
X152249228Y-61614382D02*
X152265002Y-61616722D01*
X152280471Y-61620597D01*
X152295486Y-61625970D01*
X152309902Y-61632788D01*
X152323580Y-61640986D01*
X152336389Y-61650486D01*
X152348205Y-61661195D01*
X152358914Y-61673011D01*
X152368414Y-61685820D01*
X152376612Y-61699498D01*
X152383430Y-61713914D01*
X152388803Y-61728929D01*
X152392678Y-61744398D01*
X152395018Y-61760172D01*
X152395800Y-61776100D01*
X152395800Y-62101100D01*
X152395018Y-62117028D01*
X152392678Y-62132802D01*
X152388803Y-62148271D01*
X152383430Y-62163286D01*
X152376612Y-62177702D01*
X152368414Y-62191380D01*
X152358914Y-62204189D01*
X152348205Y-62216005D01*
X152336389Y-62226714D01*
X152323580Y-62236214D01*
X152309902Y-62244412D01*
X152295486Y-62251230D01*
X152280471Y-62256603D01*
X152265002Y-62260478D01*
X152249228Y-62262818D01*
X152233300Y-62263600D01*
X151333300Y-62263600D01*
X151317372Y-62262818D01*
X151301598Y-62260478D01*
X151286129Y-62256603D01*
X151271114Y-62251230D01*
X151256698Y-62244412D01*
X151243020Y-62236214D01*
X151230211Y-62226714D01*
X151218395Y-62216005D01*
X151207686Y-62204189D01*
X151198186Y-62191380D01*
X151189988Y-62177702D01*
X151183170Y-62163286D01*
X151177797Y-62148271D01*
X151173922Y-62132802D01*
X151171582Y-62117028D01*
X151170800Y-62101100D01*
X151170800Y-61776100D01*
X151171582Y-61760172D01*
X151173922Y-61744398D01*
X151177797Y-61728929D01*
X151183170Y-61713914D01*
X151189988Y-61699498D01*
X151198186Y-61685820D01*
X151207686Y-61673011D01*
X151218395Y-61661195D01*
X151230211Y-61650486D01*
X151243020Y-61640986D01*
X151256698Y-61632788D01*
X151271114Y-61625970D01*
X151286129Y-61620597D01*
X151301598Y-61616722D01*
X151317372Y-61614382D01*
X151333300Y-61613600D01*
X152233300Y-61613600D01*
X152249228Y-61614382D01*
X152249228Y-61614382D01*
G37*
D12*
X151783300Y-61938600D03*
D10*
G36*
X152249228Y-62114382D02*
X152265002Y-62116722D01*
X152280471Y-62120597D01*
X152295486Y-62125970D01*
X152309902Y-62132788D01*
X152323580Y-62140986D01*
X152336389Y-62150486D01*
X152348205Y-62161195D01*
X152358914Y-62173011D01*
X152368414Y-62185820D01*
X152376612Y-62199498D01*
X152383430Y-62213914D01*
X152388803Y-62228929D01*
X152392678Y-62244398D01*
X152395018Y-62260172D01*
X152395800Y-62276100D01*
X152395800Y-62601100D01*
X152395018Y-62617028D01*
X152392678Y-62632802D01*
X152388803Y-62648271D01*
X152383430Y-62663286D01*
X152376612Y-62677702D01*
X152368414Y-62691380D01*
X152358914Y-62704189D01*
X152348205Y-62716005D01*
X152336389Y-62726714D01*
X152323580Y-62736214D01*
X152309902Y-62744412D01*
X152295486Y-62751230D01*
X152280471Y-62756603D01*
X152265002Y-62760478D01*
X152249228Y-62762818D01*
X152233300Y-62763600D01*
X151333300Y-62763600D01*
X151317372Y-62762818D01*
X151301598Y-62760478D01*
X151286129Y-62756603D01*
X151271114Y-62751230D01*
X151256698Y-62744412D01*
X151243020Y-62736214D01*
X151230211Y-62726714D01*
X151218395Y-62716005D01*
X151207686Y-62704189D01*
X151198186Y-62691380D01*
X151189988Y-62677702D01*
X151183170Y-62663286D01*
X151177797Y-62648271D01*
X151173922Y-62632802D01*
X151171582Y-62617028D01*
X151170800Y-62601100D01*
X151170800Y-62276100D01*
X151171582Y-62260172D01*
X151173922Y-62244398D01*
X151177797Y-62228929D01*
X151183170Y-62213914D01*
X151189988Y-62199498D01*
X151198186Y-62185820D01*
X151207686Y-62173011D01*
X151218395Y-62161195D01*
X151230211Y-62150486D01*
X151243020Y-62140986D01*
X151256698Y-62132788D01*
X151271114Y-62125970D01*
X151286129Y-62120597D01*
X151301598Y-62116722D01*
X151317372Y-62114382D01*
X151333300Y-62113600D01*
X152233300Y-62113600D01*
X152249228Y-62114382D01*
X152249228Y-62114382D01*
G37*
D12*
X151783300Y-62438600D03*
D10*
G36*
X152649228Y-62514382D02*
X152665002Y-62516722D01*
X152680471Y-62520597D01*
X152695486Y-62525970D01*
X152709902Y-62532788D01*
X152723580Y-62540986D01*
X152736389Y-62550486D01*
X152748205Y-62561195D01*
X152758914Y-62573011D01*
X152768414Y-62585820D01*
X152776612Y-62599498D01*
X152783430Y-62613914D01*
X152788803Y-62628929D01*
X152792678Y-62644398D01*
X152795018Y-62660172D01*
X152795800Y-62676100D01*
X152795800Y-63576100D01*
X152795018Y-63592028D01*
X152792678Y-63607802D01*
X152788803Y-63623271D01*
X152783430Y-63638286D01*
X152776612Y-63652702D01*
X152768414Y-63666380D01*
X152758914Y-63679189D01*
X152748205Y-63691005D01*
X152736389Y-63701714D01*
X152723580Y-63711214D01*
X152709902Y-63719412D01*
X152695486Y-63726230D01*
X152680471Y-63731603D01*
X152665002Y-63735478D01*
X152649228Y-63737818D01*
X152633300Y-63738600D01*
X152308300Y-63738600D01*
X152292372Y-63737818D01*
X152276598Y-63735478D01*
X152261129Y-63731603D01*
X152246114Y-63726230D01*
X152231698Y-63719412D01*
X152218020Y-63711214D01*
X152205211Y-63701714D01*
X152193395Y-63691005D01*
X152182686Y-63679189D01*
X152173186Y-63666380D01*
X152164988Y-63652702D01*
X152158170Y-63638286D01*
X152152797Y-63623271D01*
X152148922Y-63607802D01*
X152146582Y-63592028D01*
X152145800Y-63576100D01*
X152145800Y-62676100D01*
X152146582Y-62660172D01*
X152148922Y-62644398D01*
X152152797Y-62628929D01*
X152158170Y-62613914D01*
X152164988Y-62599498D01*
X152173186Y-62585820D01*
X152182686Y-62573011D01*
X152193395Y-62561195D01*
X152205211Y-62550486D01*
X152218020Y-62540986D01*
X152231698Y-62532788D01*
X152246114Y-62525970D01*
X152261129Y-62520597D01*
X152276598Y-62516722D01*
X152292372Y-62514382D01*
X152308300Y-62513600D01*
X152633300Y-62513600D01*
X152649228Y-62514382D01*
X152649228Y-62514382D01*
G37*
D12*
X152470800Y-63126100D03*
D10*
G36*
X153149228Y-62514382D02*
X153165002Y-62516722D01*
X153180471Y-62520597D01*
X153195486Y-62525970D01*
X153209902Y-62532788D01*
X153223580Y-62540986D01*
X153236389Y-62550486D01*
X153248205Y-62561195D01*
X153258914Y-62573011D01*
X153268414Y-62585820D01*
X153276612Y-62599498D01*
X153283430Y-62613914D01*
X153288803Y-62628929D01*
X153292678Y-62644398D01*
X153295018Y-62660172D01*
X153295800Y-62676100D01*
X153295800Y-63576100D01*
X153295018Y-63592028D01*
X153292678Y-63607802D01*
X153288803Y-63623271D01*
X153283430Y-63638286D01*
X153276612Y-63652702D01*
X153268414Y-63666380D01*
X153258914Y-63679189D01*
X153248205Y-63691005D01*
X153236389Y-63701714D01*
X153223580Y-63711214D01*
X153209902Y-63719412D01*
X153195486Y-63726230D01*
X153180471Y-63731603D01*
X153165002Y-63735478D01*
X153149228Y-63737818D01*
X153133300Y-63738600D01*
X152808300Y-63738600D01*
X152792372Y-63737818D01*
X152776598Y-63735478D01*
X152761129Y-63731603D01*
X152746114Y-63726230D01*
X152731698Y-63719412D01*
X152718020Y-63711214D01*
X152705211Y-63701714D01*
X152693395Y-63691005D01*
X152682686Y-63679189D01*
X152673186Y-63666380D01*
X152664988Y-63652702D01*
X152658170Y-63638286D01*
X152652797Y-63623271D01*
X152648922Y-63607802D01*
X152646582Y-63592028D01*
X152645800Y-63576100D01*
X152645800Y-62676100D01*
X152646582Y-62660172D01*
X152648922Y-62644398D01*
X152652797Y-62628929D01*
X152658170Y-62613914D01*
X152664988Y-62599498D01*
X152673186Y-62585820D01*
X152682686Y-62573011D01*
X152693395Y-62561195D01*
X152705211Y-62550486D01*
X152718020Y-62540986D01*
X152731698Y-62532788D01*
X152746114Y-62525970D01*
X152761129Y-62520597D01*
X152776598Y-62516722D01*
X152792372Y-62514382D01*
X152808300Y-62513600D01*
X153133300Y-62513600D01*
X153149228Y-62514382D01*
X153149228Y-62514382D01*
G37*
D12*
X152970800Y-63126100D03*
D10*
G36*
X153649228Y-62514382D02*
X153665002Y-62516722D01*
X153680471Y-62520597D01*
X153695486Y-62525970D01*
X153709902Y-62532788D01*
X153723580Y-62540986D01*
X153736389Y-62550486D01*
X153748205Y-62561195D01*
X153758914Y-62573011D01*
X153768414Y-62585820D01*
X153776612Y-62599498D01*
X153783430Y-62613914D01*
X153788803Y-62628929D01*
X153792678Y-62644398D01*
X153795018Y-62660172D01*
X153795800Y-62676100D01*
X153795800Y-63576100D01*
X153795018Y-63592028D01*
X153792678Y-63607802D01*
X153788803Y-63623271D01*
X153783430Y-63638286D01*
X153776612Y-63652702D01*
X153768414Y-63666380D01*
X153758914Y-63679189D01*
X153748205Y-63691005D01*
X153736389Y-63701714D01*
X153723580Y-63711214D01*
X153709902Y-63719412D01*
X153695486Y-63726230D01*
X153680471Y-63731603D01*
X153665002Y-63735478D01*
X153649228Y-63737818D01*
X153633300Y-63738600D01*
X153308300Y-63738600D01*
X153292372Y-63737818D01*
X153276598Y-63735478D01*
X153261129Y-63731603D01*
X153246114Y-63726230D01*
X153231698Y-63719412D01*
X153218020Y-63711214D01*
X153205211Y-63701714D01*
X153193395Y-63691005D01*
X153182686Y-63679189D01*
X153173186Y-63666380D01*
X153164988Y-63652702D01*
X153158170Y-63638286D01*
X153152797Y-63623271D01*
X153148922Y-63607802D01*
X153146582Y-63592028D01*
X153145800Y-63576100D01*
X153145800Y-62676100D01*
X153146582Y-62660172D01*
X153148922Y-62644398D01*
X153152797Y-62628929D01*
X153158170Y-62613914D01*
X153164988Y-62599498D01*
X153173186Y-62585820D01*
X153182686Y-62573011D01*
X153193395Y-62561195D01*
X153205211Y-62550486D01*
X153218020Y-62540986D01*
X153231698Y-62532788D01*
X153246114Y-62525970D01*
X153261129Y-62520597D01*
X153276598Y-62516722D01*
X153292372Y-62514382D01*
X153308300Y-62513600D01*
X153633300Y-62513600D01*
X153649228Y-62514382D01*
X153649228Y-62514382D01*
G37*
D12*
X153470800Y-63126100D03*
D10*
G36*
X154149228Y-62514382D02*
X154165002Y-62516722D01*
X154180471Y-62520597D01*
X154195486Y-62525970D01*
X154209902Y-62532788D01*
X154223580Y-62540986D01*
X154236389Y-62550486D01*
X154248205Y-62561195D01*
X154258914Y-62573011D01*
X154268414Y-62585820D01*
X154276612Y-62599498D01*
X154283430Y-62613914D01*
X154288803Y-62628929D01*
X154292678Y-62644398D01*
X154295018Y-62660172D01*
X154295800Y-62676100D01*
X154295800Y-63576100D01*
X154295018Y-63592028D01*
X154292678Y-63607802D01*
X154288803Y-63623271D01*
X154283430Y-63638286D01*
X154276612Y-63652702D01*
X154268414Y-63666380D01*
X154258914Y-63679189D01*
X154248205Y-63691005D01*
X154236389Y-63701714D01*
X154223580Y-63711214D01*
X154209902Y-63719412D01*
X154195486Y-63726230D01*
X154180471Y-63731603D01*
X154165002Y-63735478D01*
X154149228Y-63737818D01*
X154133300Y-63738600D01*
X153808300Y-63738600D01*
X153792372Y-63737818D01*
X153776598Y-63735478D01*
X153761129Y-63731603D01*
X153746114Y-63726230D01*
X153731698Y-63719412D01*
X153718020Y-63711214D01*
X153705211Y-63701714D01*
X153693395Y-63691005D01*
X153682686Y-63679189D01*
X153673186Y-63666380D01*
X153664988Y-63652702D01*
X153658170Y-63638286D01*
X153652797Y-63623271D01*
X153648922Y-63607802D01*
X153646582Y-63592028D01*
X153645800Y-63576100D01*
X153645800Y-62676100D01*
X153646582Y-62660172D01*
X153648922Y-62644398D01*
X153652797Y-62628929D01*
X153658170Y-62613914D01*
X153664988Y-62599498D01*
X153673186Y-62585820D01*
X153682686Y-62573011D01*
X153693395Y-62561195D01*
X153705211Y-62550486D01*
X153718020Y-62540986D01*
X153731698Y-62532788D01*
X153746114Y-62525970D01*
X153761129Y-62520597D01*
X153776598Y-62516722D01*
X153792372Y-62514382D01*
X153808300Y-62513600D01*
X154133300Y-62513600D01*
X154149228Y-62514382D01*
X154149228Y-62514382D01*
G37*
D12*
X153970800Y-63126100D03*
D10*
G36*
X154649228Y-62514382D02*
X154665002Y-62516722D01*
X154680471Y-62520597D01*
X154695486Y-62525970D01*
X154709902Y-62532788D01*
X154723580Y-62540986D01*
X154736389Y-62550486D01*
X154748205Y-62561195D01*
X154758914Y-62573011D01*
X154768414Y-62585820D01*
X154776612Y-62599498D01*
X154783430Y-62613914D01*
X154788803Y-62628929D01*
X154792678Y-62644398D01*
X154795018Y-62660172D01*
X154795800Y-62676100D01*
X154795800Y-63576100D01*
X154795018Y-63592028D01*
X154792678Y-63607802D01*
X154788803Y-63623271D01*
X154783430Y-63638286D01*
X154776612Y-63652702D01*
X154768414Y-63666380D01*
X154758914Y-63679189D01*
X154748205Y-63691005D01*
X154736389Y-63701714D01*
X154723580Y-63711214D01*
X154709902Y-63719412D01*
X154695486Y-63726230D01*
X154680471Y-63731603D01*
X154665002Y-63735478D01*
X154649228Y-63737818D01*
X154633300Y-63738600D01*
X154308300Y-63738600D01*
X154292372Y-63737818D01*
X154276598Y-63735478D01*
X154261129Y-63731603D01*
X154246114Y-63726230D01*
X154231698Y-63719412D01*
X154218020Y-63711214D01*
X154205211Y-63701714D01*
X154193395Y-63691005D01*
X154182686Y-63679189D01*
X154173186Y-63666380D01*
X154164988Y-63652702D01*
X154158170Y-63638286D01*
X154152797Y-63623271D01*
X154148922Y-63607802D01*
X154146582Y-63592028D01*
X154145800Y-63576100D01*
X154145800Y-62676100D01*
X154146582Y-62660172D01*
X154148922Y-62644398D01*
X154152797Y-62628929D01*
X154158170Y-62613914D01*
X154164988Y-62599498D01*
X154173186Y-62585820D01*
X154182686Y-62573011D01*
X154193395Y-62561195D01*
X154205211Y-62550486D01*
X154218020Y-62540986D01*
X154231698Y-62532788D01*
X154246114Y-62525970D01*
X154261129Y-62520597D01*
X154276598Y-62516722D01*
X154292372Y-62514382D01*
X154308300Y-62513600D01*
X154633300Y-62513600D01*
X154649228Y-62514382D01*
X154649228Y-62514382D01*
G37*
D12*
X154470800Y-63126100D03*
D10*
G36*
X155149228Y-62514382D02*
X155165002Y-62516722D01*
X155180471Y-62520597D01*
X155195486Y-62525970D01*
X155209902Y-62532788D01*
X155223580Y-62540986D01*
X155236389Y-62550486D01*
X155248205Y-62561195D01*
X155258914Y-62573011D01*
X155268414Y-62585820D01*
X155276612Y-62599498D01*
X155283430Y-62613914D01*
X155288803Y-62628929D01*
X155292678Y-62644398D01*
X155295018Y-62660172D01*
X155295800Y-62676100D01*
X155295800Y-63576100D01*
X155295018Y-63592028D01*
X155292678Y-63607802D01*
X155288803Y-63623271D01*
X155283430Y-63638286D01*
X155276612Y-63652702D01*
X155268414Y-63666380D01*
X155258914Y-63679189D01*
X155248205Y-63691005D01*
X155236389Y-63701714D01*
X155223580Y-63711214D01*
X155209902Y-63719412D01*
X155195486Y-63726230D01*
X155180471Y-63731603D01*
X155165002Y-63735478D01*
X155149228Y-63737818D01*
X155133300Y-63738600D01*
X154808300Y-63738600D01*
X154792372Y-63737818D01*
X154776598Y-63735478D01*
X154761129Y-63731603D01*
X154746114Y-63726230D01*
X154731698Y-63719412D01*
X154718020Y-63711214D01*
X154705211Y-63701714D01*
X154693395Y-63691005D01*
X154682686Y-63679189D01*
X154673186Y-63666380D01*
X154664988Y-63652702D01*
X154658170Y-63638286D01*
X154652797Y-63623271D01*
X154648922Y-63607802D01*
X154646582Y-63592028D01*
X154645800Y-63576100D01*
X154645800Y-62676100D01*
X154646582Y-62660172D01*
X154648922Y-62644398D01*
X154652797Y-62628929D01*
X154658170Y-62613914D01*
X154664988Y-62599498D01*
X154673186Y-62585820D01*
X154682686Y-62573011D01*
X154693395Y-62561195D01*
X154705211Y-62550486D01*
X154718020Y-62540986D01*
X154731698Y-62532788D01*
X154746114Y-62525970D01*
X154761129Y-62520597D01*
X154776598Y-62516722D01*
X154792372Y-62514382D01*
X154808300Y-62513600D01*
X155133300Y-62513600D01*
X155149228Y-62514382D01*
X155149228Y-62514382D01*
G37*
D12*
X154970800Y-63126100D03*
G04 #@! TD*
D13*
G04 #@! TO.C,J2*
X190398400Y-99607000D03*
D14*
X190398400Y-94107000D03*
G04 #@! TD*
D13*
G04 #@! TO.C,J3*
X190373000Y-81876000D03*
D14*
X190373000Y-87376000D03*
G04 #@! TD*
D13*
G04 #@! TO.C,J4*
X108204000Y-99632400D03*
D14*
X108204000Y-94132400D03*
G04 #@! TD*
G04 #@! TO.C,J5*
X108204000Y-87376000D03*
D13*
X108204000Y-81876000D03*
G04 #@! TD*
D15*
G04 #@! TO.C,J16*
X127140007Y-71995137D03*
D10*
G36*
X126019285Y-69884543D02*
X129355194Y-71098715D01*
X128260729Y-74105731D01*
X124924820Y-72891559D01*
X126019285Y-69884543D01*
X126019285Y-69884543D01*
G37*
D15*
X121830744Y-70062723D03*
D10*
G36*
X120710022Y-67952129D02*
X124045931Y-69166301D01*
X122951466Y-72173317D01*
X119615557Y-70959145D01*
X120710022Y-67952129D01*
X120710022Y-67952129D01*
G37*
D16*
X122847967Y-88523984D03*
D10*
G36*
X122741560Y-87208242D02*
X123775222Y-87584464D01*
X122954374Y-89839726D01*
X121920712Y-89463504D01*
X122741560Y-87208242D01*
X122741560Y-87208242D01*
G37*
D16*
X121654557Y-88089619D03*
D10*
G36*
X121548150Y-86773877D02*
X122581812Y-87150099D01*
X121760964Y-89405361D01*
X120727302Y-89029139D01*
X121548150Y-86773877D01*
X121548150Y-86773877D01*
G37*
D16*
X120461147Y-87655253D03*
D10*
G36*
X120354740Y-86339511D02*
X121388402Y-86715733D01*
X120567554Y-88970995D01*
X119533892Y-88594773D01*
X120354740Y-86339511D01*
X120354740Y-86339511D01*
G37*
D16*
X119267739Y-87220888D03*
D10*
G36*
X119161332Y-85905146D02*
X120194994Y-86281368D01*
X119374146Y-88536630D01*
X118340484Y-88160408D01*
X119161332Y-85905146D01*
X119161332Y-85905146D01*
G37*
D16*
X118074328Y-86786522D03*
D10*
G36*
X117967921Y-85470780D02*
X119001583Y-85847002D01*
X118180735Y-88102264D01*
X117147073Y-87726042D01*
X117967921Y-85470780D01*
X117967921Y-85470780D01*
G37*
D16*
X116880918Y-86352156D03*
D10*
G36*
X116774511Y-85036414D02*
X117808173Y-85412636D01*
X116987325Y-87667898D01*
X115953663Y-87291676D01*
X116774511Y-85036414D01*
X116774511Y-85036414D01*
G37*
D16*
X115687509Y-85917791D03*
D10*
G36*
X115581102Y-84602049D02*
X116614764Y-84978271D01*
X115793916Y-87233533D01*
X114760254Y-86857311D01*
X115581102Y-84602049D01*
X115581102Y-84602049D01*
G37*
D16*
X114494099Y-85483425D03*
D10*
G36*
X114387692Y-84167683D02*
X115421354Y-84543905D01*
X114600506Y-86799167D01*
X113566844Y-86422945D01*
X114387692Y-84167683D01*
X114387692Y-84167683D01*
G37*
G04 #@! TD*
G04 #@! TO.C,C2*
G36*
X179051093Y-93521935D02*
X179082035Y-93526525D01*
X179112378Y-93534125D01*
X179141830Y-93544663D01*
X179170108Y-93558038D01*
X179196938Y-93574119D01*
X179222063Y-93592753D01*
X179245240Y-93613760D01*
X179266247Y-93636937D01*
X179284881Y-93662062D01*
X179300962Y-93688892D01*
X179314337Y-93717170D01*
X179324875Y-93746622D01*
X179332475Y-93776965D01*
X179337065Y-93807907D01*
X179338600Y-93839150D01*
X179338600Y-94476650D01*
X179337065Y-94507893D01*
X179332475Y-94538835D01*
X179324875Y-94569178D01*
X179314337Y-94598630D01*
X179300962Y-94626908D01*
X179284881Y-94653738D01*
X179266247Y-94678863D01*
X179245240Y-94702040D01*
X179222063Y-94723047D01*
X179196938Y-94741681D01*
X179170108Y-94757762D01*
X179141830Y-94771137D01*
X179112378Y-94781675D01*
X179082035Y-94789275D01*
X179051093Y-94793865D01*
X179019850Y-94795400D01*
X178307350Y-94795400D01*
X178276107Y-94793865D01*
X178245165Y-94789275D01*
X178214822Y-94781675D01*
X178185370Y-94771137D01*
X178157092Y-94757762D01*
X178130262Y-94741681D01*
X178105137Y-94723047D01*
X178081960Y-94702040D01*
X178060953Y-94678863D01*
X178042319Y-94653738D01*
X178026238Y-94626908D01*
X178012863Y-94598630D01*
X178002325Y-94569178D01*
X177994725Y-94538835D01*
X177990135Y-94507893D01*
X177988600Y-94476650D01*
X177988600Y-93839150D01*
X177990135Y-93807907D01*
X177994725Y-93776965D01*
X178002325Y-93746622D01*
X178012863Y-93717170D01*
X178026238Y-93688892D01*
X178042319Y-93662062D01*
X178060953Y-93636937D01*
X178081960Y-93613760D01*
X178105137Y-93592753D01*
X178130262Y-93574119D01*
X178157092Y-93558038D01*
X178185370Y-93544663D01*
X178214822Y-93534125D01*
X178245165Y-93526525D01*
X178276107Y-93521935D01*
X178307350Y-93520400D01*
X179019850Y-93520400D01*
X179051093Y-93521935D01*
X179051093Y-93521935D01*
G37*
D17*
X178663600Y-94157900D03*
D10*
G36*
X179051093Y-91946935D02*
X179082035Y-91951525D01*
X179112378Y-91959125D01*
X179141830Y-91969663D01*
X179170108Y-91983038D01*
X179196938Y-91999119D01*
X179222063Y-92017753D01*
X179245240Y-92038760D01*
X179266247Y-92061937D01*
X179284881Y-92087062D01*
X179300962Y-92113892D01*
X179314337Y-92142170D01*
X179324875Y-92171622D01*
X179332475Y-92201965D01*
X179337065Y-92232907D01*
X179338600Y-92264150D01*
X179338600Y-92901650D01*
X179337065Y-92932893D01*
X179332475Y-92963835D01*
X179324875Y-92994178D01*
X179314337Y-93023630D01*
X179300962Y-93051908D01*
X179284881Y-93078738D01*
X179266247Y-93103863D01*
X179245240Y-93127040D01*
X179222063Y-93148047D01*
X179196938Y-93166681D01*
X179170108Y-93182762D01*
X179141830Y-93196137D01*
X179112378Y-93206675D01*
X179082035Y-93214275D01*
X179051093Y-93218865D01*
X179019850Y-93220400D01*
X178307350Y-93220400D01*
X178276107Y-93218865D01*
X178245165Y-93214275D01*
X178214822Y-93206675D01*
X178185370Y-93196137D01*
X178157092Y-93182762D01*
X178130262Y-93166681D01*
X178105137Y-93148047D01*
X178081960Y-93127040D01*
X178060953Y-93103863D01*
X178042319Y-93078738D01*
X178026238Y-93051908D01*
X178012863Y-93023630D01*
X178002325Y-92994178D01*
X177994725Y-92963835D01*
X177990135Y-92932893D01*
X177988600Y-92901650D01*
X177988600Y-92264150D01*
X177990135Y-92232907D01*
X177994725Y-92201965D01*
X178002325Y-92171622D01*
X178012863Y-92142170D01*
X178026238Y-92113892D01*
X178042319Y-92087062D01*
X178060953Y-92061937D01*
X178081960Y-92038760D01*
X178105137Y-92017753D01*
X178130262Y-91999119D01*
X178157092Y-91983038D01*
X178185370Y-91969663D01*
X178214822Y-91959125D01*
X178245165Y-91951525D01*
X178276107Y-91946935D01*
X178307350Y-91945400D01*
X179019850Y-91945400D01*
X179051093Y-91946935D01*
X179051093Y-91946935D01*
G37*
D17*
X178663600Y-92582900D03*
G04 #@! TD*
D10*
G04 #@! TO.C,C5*
G36*
X187483893Y-91311835D02*
X187514835Y-91316425D01*
X187545178Y-91324025D01*
X187574630Y-91334563D01*
X187602908Y-91347938D01*
X187629738Y-91364019D01*
X187654863Y-91382653D01*
X187678040Y-91403660D01*
X187699047Y-91426837D01*
X187717681Y-91451962D01*
X187733762Y-91478792D01*
X187747137Y-91507070D01*
X187757675Y-91536522D01*
X187765275Y-91566865D01*
X187769865Y-91597807D01*
X187771400Y-91629050D01*
X187771400Y-92266550D01*
X187769865Y-92297793D01*
X187765275Y-92328735D01*
X187757675Y-92359078D01*
X187747137Y-92388530D01*
X187733762Y-92416808D01*
X187717681Y-92443638D01*
X187699047Y-92468763D01*
X187678040Y-92491940D01*
X187654863Y-92512947D01*
X187629738Y-92531581D01*
X187602908Y-92547662D01*
X187574630Y-92561037D01*
X187545178Y-92571575D01*
X187514835Y-92579175D01*
X187483893Y-92583765D01*
X187452650Y-92585300D01*
X186740150Y-92585300D01*
X186708907Y-92583765D01*
X186677965Y-92579175D01*
X186647622Y-92571575D01*
X186618170Y-92561037D01*
X186589892Y-92547662D01*
X186563062Y-92531581D01*
X186537937Y-92512947D01*
X186514760Y-92491940D01*
X186493753Y-92468763D01*
X186475119Y-92443638D01*
X186459038Y-92416808D01*
X186445663Y-92388530D01*
X186435125Y-92359078D01*
X186427525Y-92328735D01*
X186422935Y-92297793D01*
X186421400Y-92266550D01*
X186421400Y-91629050D01*
X186422935Y-91597807D01*
X186427525Y-91566865D01*
X186435125Y-91536522D01*
X186445663Y-91507070D01*
X186459038Y-91478792D01*
X186475119Y-91451962D01*
X186493753Y-91426837D01*
X186514760Y-91403660D01*
X186537937Y-91382653D01*
X186563062Y-91364019D01*
X186589892Y-91347938D01*
X186618170Y-91334563D01*
X186647622Y-91324025D01*
X186677965Y-91316425D01*
X186708907Y-91311835D01*
X186740150Y-91310300D01*
X187452650Y-91310300D01*
X187483893Y-91311835D01*
X187483893Y-91311835D01*
G37*
D17*
X187096400Y-91947800D03*
D10*
G36*
X187483893Y-92886835D02*
X187514835Y-92891425D01*
X187545178Y-92899025D01*
X187574630Y-92909563D01*
X187602908Y-92922938D01*
X187629738Y-92939019D01*
X187654863Y-92957653D01*
X187678040Y-92978660D01*
X187699047Y-93001837D01*
X187717681Y-93026962D01*
X187733762Y-93053792D01*
X187747137Y-93082070D01*
X187757675Y-93111522D01*
X187765275Y-93141865D01*
X187769865Y-93172807D01*
X187771400Y-93204050D01*
X187771400Y-93841550D01*
X187769865Y-93872793D01*
X187765275Y-93903735D01*
X187757675Y-93934078D01*
X187747137Y-93963530D01*
X187733762Y-93991808D01*
X187717681Y-94018638D01*
X187699047Y-94043763D01*
X187678040Y-94066940D01*
X187654863Y-94087947D01*
X187629738Y-94106581D01*
X187602908Y-94122662D01*
X187574630Y-94136037D01*
X187545178Y-94146575D01*
X187514835Y-94154175D01*
X187483893Y-94158765D01*
X187452650Y-94160300D01*
X186740150Y-94160300D01*
X186708907Y-94158765D01*
X186677965Y-94154175D01*
X186647622Y-94146575D01*
X186618170Y-94136037D01*
X186589892Y-94122662D01*
X186563062Y-94106581D01*
X186537937Y-94087947D01*
X186514760Y-94066940D01*
X186493753Y-94043763D01*
X186475119Y-94018638D01*
X186459038Y-93991808D01*
X186445663Y-93963530D01*
X186435125Y-93934078D01*
X186427525Y-93903735D01*
X186422935Y-93872793D01*
X186421400Y-93841550D01*
X186421400Y-93204050D01*
X186422935Y-93172807D01*
X186427525Y-93141865D01*
X186435125Y-93111522D01*
X186445663Y-93082070D01*
X186459038Y-93053792D01*
X186475119Y-93026962D01*
X186493753Y-93001837D01*
X186514760Y-92978660D01*
X186537937Y-92957653D01*
X186563062Y-92939019D01*
X186589892Y-92922938D01*
X186618170Y-92909563D01*
X186647622Y-92899025D01*
X186677965Y-92891425D01*
X186708907Y-92886835D01*
X186740150Y-92885300D01*
X187452650Y-92885300D01*
X187483893Y-92886835D01*
X187483893Y-92886835D01*
G37*
D17*
X187096400Y-93522800D03*
G04 #@! TD*
D10*
G04 #@! TO.C,C6*
G36*
X150362393Y-126542435D02*
X150393335Y-126547025D01*
X150423678Y-126554625D01*
X150453130Y-126565163D01*
X150481408Y-126578538D01*
X150508238Y-126594619D01*
X150533363Y-126613253D01*
X150556540Y-126634260D01*
X150577547Y-126657437D01*
X150596181Y-126682562D01*
X150612262Y-126709392D01*
X150625637Y-126737670D01*
X150636175Y-126767122D01*
X150643775Y-126797465D01*
X150648365Y-126828407D01*
X150649900Y-126859650D01*
X150649900Y-127572150D01*
X150648365Y-127603393D01*
X150643775Y-127634335D01*
X150636175Y-127664678D01*
X150625637Y-127694130D01*
X150612262Y-127722408D01*
X150596181Y-127749238D01*
X150577547Y-127774363D01*
X150556540Y-127797540D01*
X150533363Y-127818547D01*
X150508238Y-127837181D01*
X150481408Y-127853262D01*
X150453130Y-127866637D01*
X150423678Y-127877175D01*
X150393335Y-127884775D01*
X150362393Y-127889365D01*
X150331150Y-127890900D01*
X149693650Y-127890900D01*
X149662407Y-127889365D01*
X149631465Y-127884775D01*
X149601122Y-127877175D01*
X149571670Y-127866637D01*
X149543392Y-127853262D01*
X149516562Y-127837181D01*
X149491437Y-127818547D01*
X149468260Y-127797540D01*
X149447253Y-127774363D01*
X149428619Y-127749238D01*
X149412538Y-127722408D01*
X149399163Y-127694130D01*
X149388625Y-127664678D01*
X149381025Y-127634335D01*
X149376435Y-127603393D01*
X149374900Y-127572150D01*
X149374900Y-126859650D01*
X149376435Y-126828407D01*
X149381025Y-126797465D01*
X149388625Y-126767122D01*
X149399163Y-126737670D01*
X149412538Y-126709392D01*
X149428619Y-126682562D01*
X149447253Y-126657437D01*
X149468260Y-126634260D01*
X149491437Y-126613253D01*
X149516562Y-126594619D01*
X149543392Y-126578538D01*
X149571670Y-126565163D01*
X149601122Y-126554625D01*
X149631465Y-126547025D01*
X149662407Y-126542435D01*
X149693650Y-126540900D01*
X150331150Y-126540900D01*
X150362393Y-126542435D01*
X150362393Y-126542435D01*
G37*
D17*
X150012400Y-127215900D03*
D10*
G36*
X148787393Y-126542435D02*
X148818335Y-126547025D01*
X148848678Y-126554625D01*
X148878130Y-126565163D01*
X148906408Y-126578538D01*
X148933238Y-126594619D01*
X148958363Y-126613253D01*
X148981540Y-126634260D01*
X149002547Y-126657437D01*
X149021181Y-126682562D01*
X149037262Y-126709392D01*
X149050637Y-126737670D01*
X149061175Y-126767122D01*
X149068775Y-126797465D01*
X149073365Y-126828407D01*
X149074900Y-126859650D01*
X149074900Y-127572150D01*
X149073365Y-127603393D01*
X149068775Y-127634335D01*
X149061175Y-127664678D01*
X149050637Y-127694130D01*
X149037262Y-127722408D01*
X149021181Y-127749238D01*
X149002547Y-127774363D01*
X148981540Y-127797540D01*
X148958363Y-127818547D01*
X148933238Y-127837181D01*
X148906408Y-127853262D01*
X148878130Y-127866637D01*
X148848678Y-127877175D01*
X148818335Y-127884775D01*
X148787393Y-127889365D01*
X148756150Y-127890900D01*
X148118650Y-127890900D01*
X148087407Y-127889365D01*
X148056465Y-127884775D01*
X148026122Y-127877175D01*
X147996670Y-127866637D01*
X147968392Y-127853262D01*
X147941562Y-127837181D01*
X147916437Y-127818547D01*
X147893260Y-127797540D01*
X147872253Y-127774363D01*
X147853619Y-127749238D01*
X147837538Y-127722408D01*
X147824163Y-127694130D01*
X147813625Y-127664678D01*
X147806025Y-127634335D01*
X147801435Y-127603393D01*
X147799900Y-127572150D01*
X147799900Y-126859650D01*
X147801435Y-126828407D01*
X147806025Y-126797465D01*
X147813625Y-126767122D01*
X147824163Y-126737670D01*
X147837538Y-126709392D01*
X147853619Y-126682562D01*
X147872253Y-126657437D01*
X147893260Y-126634260D01*
X147916437Y-126613253D01*
X147941562Y-126594619D01*
X147968392Y-126578538D01*
X147996670Y-126565163D01*
X148026122Y-126554625D01*
X148056465Y-126547025D01*
X148087407Y-126542435D01*
X148118650Y-126540900D01*
X148756150Y-126540900D01*
X148787393Y-126542435D01*
X148787393Y-126542435D01*
G37*
D17*
X148437400Y-127215900D03*
G04 #@! TD*
D10*
G04 #@! TO.C,C7*
G36*
X148787493Y-128091735D02*
X148818435Y-128096325D01*
X148848778Y-128103925D01*
X148878230Y-128114463D01*
X148906508Y-128127838D01*
X148933338Y-128143919D01*
X148958463Y-128162553D01*
X148981640Y-128183560D01*
X149002647Y-128206737D01*
X149021281Y-128231862D01*
X149037362Y-128258692D01*
X149050737Y-128286970D01*
X149061275Y-128316422D01*
X149068875Y-128346765D01*
X149073465Y-128377707D01*
X149075000Y-128408950D01*
X149075000Y-129121450D01*
X149073465Y-129152693D01*
X149068875Y-129183635D01*
X149061275Y-129213978D01*
X149050737Y-129243430D01*
X149037362Y-129271708D01*
X149021281Y-129298538D01*
X149002647Y-129323663D01*
X148981640Y-129346840D01*
X148958463Y-129367847D01*
X148933338Y-129386481D01*
X148906508Y-129402562D01*
X148878230Y-129415937D01*
X148848778Y-129426475D01*
X148818435Y-129434075D01*
X148787493Y-129438665D01*
X148756250Y-129440200D01*
X148118750Y-129440200D01*
X148087507Y-129438665D01*
X148056565Y-129434075D01*
X148026222Y-129426475D01*
X147996770Y-129415937D01*
X147968492Y-129402562D01*
X147941662Y-129386481D01*
X147916537Y-129367847D01*
X147893360Y-129346840D01*
X147872353Y-129323663D01*
X147853719Y-129298538D01*
X147837638Y-129271708D01*
X147824263Y-129243430D01*
X147813725Y-129213978D01*
X147806125Y-129183635D01*
X147801535Y-129152693D01*
X147800000Y-129121450D01*
X147800000Y-128408950D01*
X147801535Y-128377707D01*
X147806125Y-128346765D01*
X147813725Y-128316422D01*
X147824263Y-128286970D01*
X147837638Y-128258692D01*
X147853719Y-128231862D01*
X147872353Y-128206737D01*
X147893360Y-128183560D01*
X147916537Y-128162553D01*
X147941662Y-128143919D01*
X147968492Y-128127838D01*
X147996770Y-128114463D01*
X148026222Y-128103925D01*
X148056565Y-128096325D01*
X148087507Y-128091735D01*
X148118750Y-128090200D01*
X148756250Y-128090200D01*
X148787493Y-128091735D01*
X148787493Y-128091735D01*
G37*
D17*
X148437500Y-128765200D03*
D10*
G36*
X150362493Y-128091735D02*
X150393435Y-128096325D01*
X150423778Y-128103925D01*
X150453230Y-128114463D01*
X150481508Y-128127838D01*
X150508338Y-128143919D01*
X150533463Y-128162553D01*
X150556640Y-128183560D01*
X150577647Y-128206737D01*
X150596281Y-128231862D01*
X150612362Y-128258692D01*
X150625737Y-128286970D01*
X150636275Y-128316422D01*
X150643875Y-128346765D01*
X150648465Y-128377707D01*
X150650000Y-128408950D01*
X150650000Y-129121450D01*
X150648465Y-129152693D01*
X150643875Y-129183635D01*
X150636275Y-129213978D01*
X150625737Y-129243430D01*
X150612362Y-129271708D01*
X150596281Y-129298538D01*
X150577647Y-129323663D01*
X150556640Y-129346840D01*
X150533463Y-129367847D01*
X150508338Y-129386481D01*
X150481508Y-129402562D01*
X150453230Y-129415937D01*
X150423778Y-129426475D01*
X150393435Y-129434075D01*
X150362493Y-129438665D01*
X150331250Y-129440200D01*
X149693750Y-129440200D01*
X149662507Y-129438665D01*
X149631565Y-129434075D01*
X149601222Y-129426475D01*
X149571770Y-129415937D01*
X149543492Y-129402562D01*
X149516662Y-129386481D01*
X149491537Y-129367847D01*
X149468360Y-129346840D01*
X149447353Y-129323663D01*
X149428719Y-129298538D01*
X149412638Y-129271708D01*
X149399263Y-129243430D01*
X149388725Y-129213978D01*
X149381125Y-129183635D01*
X149376535Y-129152693D01*
X149375000Y-129121450D01*
X149375000Y-128408950D01*
X149376535Y-128377707D01*
X149381125Y-128346765D01*
X149388725Y-128316422D01*
X149399263Y-128286970D01*
X149412638Y-128258692D01*
X149428719Y-128231862D01*
X149447353Y-128206737D01*
X149468360Y-128183560D01*
X149491537Y-128162553D01*
X149516662Y-128143919D01*
X149543492Y-128127838D01*
X149571770Y-128114463D01*
X149601222Y-128103925D01*
X149631565Y-128096325D01*
X149662507Y-128091735D01*
X149693750Y-128090200D01*
X150331250Y-128090200D01*
X150362493Y-128091735D01*
X150362493Y-128091735D01*
G37*
D17*
X150012500Y-128765200D03*
G04 #@! TD*
D10*
G04 #@! TO.C,C8*
G36*
X159251693Y-119556735D02*
X159282635Y-119561325D01*
X159312978Y-119568925D01*
X159342430Y-119579463D01*
X159370708Y-119592838D01*
X159397538Y-119608919D01*
X159422663Y-119627553D01*
X159445840Y-119648560D01*
X159466847Y-119671737D01*
X159485481Y-119696862D01*
X159501562Y-119723692D01*
X159514937Y-119751970D01*
X159525475Y-119781422D01*
X159533075Y-119811765D01*
X159537665Y-119842707D01*
X159539200Y-119873950D01*
X159539200Y-120511450D01*
X159537665Y-120542693D01*
X159533075Y-120573635D01*
X159525475Y-120603978D01*
X159514937Y-120633430D01*
X159501562Y-120661708D01*
X159485481Y-120688538D01*
X159466847Y-120713663D01*
X159445840Y-120736840D01*
X159422663Y-120757847D01*
X159397538Y-120776481D01*
X159370708Y-120792562D01*
X159342430Y-120805937D01*
X159312978Y-120816475D01*
X159282635Y-120824075D01*
X159251693Y-120828665D01*
X159220450Y-120830200D01*
X158507950Y-120830200D01*
X158476707Y-120828665D01*
X158445765Y-120824075D01*
X158415422Y-120816475D01*
X158385970Y-120805937D01*
X158357692Y-120792562D01*
X158330862Y-120776481D01*
X158305737Y-120757847D01*
X158282560Y-120736840D01*
X158261553Y-120713663D01*
X158242919Y-120688538D01*
X158226838Y-120661708D01*
X158213463Y-120633430D01*
X158202925Y-120603978D01*
X158195325Y-120573635D01*
X158190735Y-120542693D01*
X158189200Y-120511450D01*
X158189200Y-119873950D01*
X158190735Y-119842707D01*
X158195325Y-119811765D01*
X158202925Y-119781422D01*
X158213463Y-119751970D01*
X158226838Y-119723692D01*
X158242919Y-119696862D01*
X158261553Y-119671737D01*
X158282560Y-119648560D01*
X158305737Y-119627553D01*
X158330862Y-119608919D01*
X158357692Y-119592838D01*
X158385970Y-119579463D01*
X158415422Y-119568925D01*
X158445765Y-119561325D01*
X158476707Y-119556735D01*
X158507950Y-119555200D01*
X159220450Y-119555200D01*
X159251693Y-119556735D01*
X159251693Y-119556735D01*
G37*
D17*
X158864200Y-120192700D03*
D10*
G36*
X159251693Y-121131735D02*
X159282635Y-121136325D01*
X159312978Y-121143925D01*
X159342430Y-121154463D01*
X159370708Y-121167838D01*
X159397538Y-121183919D01*
X159422663Y-121202553D01*
X159445840Y-121223560D01*
X159466847Y-121246737D01*
X159485481Y-121271862D01*
X159501562Y-121298692D01*
X159514937Y-121326970D01*
X159525475Y-121356422D01*
X159533075Y-121386765D01*
X159537665Y-121417707D01*
X159539200Y-121448950D01*
X159539200Y-122086450D01*
X159537665Y-122117693D01*
X159533075Y-122148635D01*
X159525475Y-122178978D01*
X159514937Y-122208430D01*
X159501562Y-122236708D01*
X159485481Y-122263538D01*
X159466847Y-122288663D01*
X159445840Y-122311840D01*
X159422663Y-122332847D01*
X159397538Y-122351481D01*
X159370708Y-122367562D01*
X159342430Y-122380937D01*
X159312978Y-122391475D01*
X159282635Y-122399075D01*
X159251693Y-122403665D01*
X159220450Y-122405200D01*
X158507950Y-122405200D01*
X158476707Y-122403665D01*
X158445765Y-122399075D01*
X158415422Y-122391475D01*
X158385970Y-122380937D01*
X158357692Y-122367562D01*
X158330862Y-122351481D01*
X158305737Y-122332847D01*
X158282560Y-122311840D01*
X158261553Y-122288663D01*
X158242919Y-122263538D01*
X158226838Y-122236708D01*
X158213463Y-122208430D01*
X158202925Y-122178978D01*
X158195325Y-122148635D01*
X158190735Y-122117693D01*
X158189200Y-122086450D01*
X158189200Y-121448950D01*
X158190735Y-121417707D01*
X158195325Y-121386765D01*
X158202925Y-121356422D01*
X158213463Y-121326970D01*
X158226838Y-121298692D01*
X158242919Y-121271862D01*
X158261553Y-121246737D01*
X158282560Y-121223560D01*
X158305737Y-121202553D01*
X158330862Y-121183919D01*
X158357692Y-121167838D01*
X158385970Y-121154463D01*
X158415422Y-121143925D01*
X158445765Y-121136325D01*
X158476707Y-121131735D01*
X158507950Y-121130200D01*
X159220450Y-121130200D01*
X159251693Y-121131735D01*
X159251693Y-121131735D01*
G37*
D17*
X158864200Y-121767700D03*
G04 #@! TD*
D10*
G04 #@! TO.C,C9*
G36*
X157676893Y-121131735D02*
X157707835Y-121136325D01*
X157738178Y-121143925D01*
X157767630Y-121154463D01*
X157795908Y-121167838D01*
X157822738Y-121183919D01*
X157847863Y-121202553D01*
X157871040Y-121223560D01*
X157892047Y-121246737D01*
X157910681Y-121271862D01*
X157926762Y-121298692D01*
X157940137Y-121326970D01*
X157950675Y-121356422D01*
X157958275Y-121386765D01*
X157962865Y-121417707D01*
X157964400Y-121448950D01*
X157964400Y-122086450D01*
X157962865Y-122117693D01*
X157958275Y-122148635D01*
X157950675Y-122178978D01*
X157940137Y-122208430D01*
X157926762Y-122236708D01*
X157910681Y-122263538D01*
X157892047Y-122288663D01*
X157871040Y-122311840D01*
X157847863Y-122332847D01*
X157822738Y-122351481D01*
X157795908Y-122367562D01*
X157767630Y-122380937D01*
X157738178Y-122391475D01*
X157707835Y-122399075D01*
X157676893Y-122403665D01*
X157645650Y-122405200D01*
X156933150Y-122405200D01*
X156901907Y-122403665D01*
X156870965Y-122399075D01*
X156840622Y-122391475D01*
X156811170Y-122380937D01*
X156782892Y-122367562D01*
X156756062Y-122351481D01*
X156730937Y-122332847D01*
X156707760Y-122311840D01*
X156686753Y-122288663D01*
X156668119Y-122263538D01*
X156652038Y-122236708D01*
X156638663Y-122208430D01*
X156628125Y-122178978D01*
X156620525Y-122148635D01*
X156615935Y-122117693D01*
X156614400Y-122086450D01*
X156614400Y-121448950D01*
X156615935Y-121417707D01*
X156620525Y-121386765D01*
X156628125Y-121356422D01*
X156638663Y-121326970D01*
X156652038Y-121298692D01*
X156668119Y-121271862D01*
X156686753Y-121246737D01*
X156707760Y-121223560D01*
X156730937Y-121202553D01*
X156756062Y-121183919D01*
X156782892Y-121167838D01*
X156811170Y-121154463D01*
X156840622Y-121143925D01*
X156870965Y-121136325D01*
X156901907Y-121131735D01*
X156933150Y-121130200D01*
X157645650Y-121130200D01*
X157676893Y-121131735D01*
X157676893Y-121131735D01*
G37*
D17*
X157289400Y-121767700D03*
D10*
G36*
X157676893Y-119556735D02*
X157707835Y-119561325D01*
X157738178Y-119568925D01*
X157767630Y-119579463D01*
X157795908Y-119592838D01*
X157822738Y-119608919D01*
X157847863Y-119627553D01*
X157871040Y-119648560D01*
X157892047Y-119671737D01*
X157910681Y-119696862D01*
X157926762Y-119723692D01*
X157940137Y-119751970D01*
X157950675Y-119781422D01*
X157958275Y-119811765D01*
X157962865Y-119842707D01*
X157964400Y-119873950D01*
X157964400Y-120511450D01*
X157962865Y-120542693D01*
X157958275Y-120573635D01*
X157950675Y-120603978D01*
X157940137Y-120633430D01*
X157926762Y-120661708D01*
X157910681Y-120688538D01*
X157892047Y-120713663D01*
X157871040Y-120736840D01*
X157847863Y-120757847D01*
X157822738Y-120776481D01*
X157795908Y-120792562D01*
X157767630Y-120805937D01*
X157738178Y-120816475D01*
X157707835Y-120824075D01*
X157676893Y-120828665D01*
X157645650Y-120830200D01*
X156933150Y-120830200D01*
X156901907Y-120828665D01*
X156870965Y-120824075D01*
X156840622Y-120816475D01*
X156811170Y-120805937D01*
X156782892Y-120792562D01*
X156756062Y-120776481D01*
X156730937Y-120757847D01*
X156707760Y-120736840D01*
X156686753Y-120713663D01*
X156668119Y-120688538D01*
X156652038Y-120661708D01*
X156638663Y-120633430D01*
X156628125Y-120603978D01*
X156620525Y-120573635D01*
X156615935Y-120542693D01*
X156614400Y-120511450D01*
X156614400Y-119873950D01*
X156615935Y-119842707D01*
X156620525Y-119811765D01*
X156628125Y-119781422D01*
X156638663Y-119751970D01*
X156652038Y-119723692D01*
X156668119Y-119696862D01*
X156686753Y-119671737D01*
X156707760Y-119648560D01*
X156730937Y-119627553D01*
X156756062Y-119608919D01*
X156782892Y-119592838D01*
X156811170Y-119579463D01*
X156840622Y-119568925D01*
X156870965Y-119561325D01*
X156901907Y-119556735D01*
X156933150Y-119555200D01*
X157645650Y-119555200D01*
X157676893Y-119556735D01*
X157676893Y-119556735D01*
G37*
D17*
X157289400Y-120192700D03*
G04 #@! TD*
D10*
G04 #@! TO.C,C10*
G36*
X157651493Y-122617435D02*
X157682435Y-122622025D01*
X157712778Y-122629625D01*
X157742230Y-122640163D01*
X157770508Y-122653538D01*
X157797338Y-122669619D01*
X157822463Y-122688253D01*
X157845640Y-122709260D01*
X157866647Y-122732437D01*
X157885281Y-122757562D01*
X157901362Y-122784392D01*
X157914737Y-122812670D01*
X157925275Y-122842122D01*
X157932875Y-122872465D01*
X157937465Y-122903407D01*
X157939000Y-122934650D01*
X157939000Y-123572150D01*
X157937465Y-123603393D01*
X157932875Y-123634335D01*
X157925275Y-123664678D01*
X157914737Y-123694130D01*
X157901362Y-123722408D01*
X157885281Y-123749238D01*
X157866647Y-123774363D01*
X157845640Y-123797540D01*
X157822463Y-123818547D01*
X157797338Y-123837181D01*
X157770508Y-123853262D01*
X157742230Y-123866637D01*
X157712778Y-123877175D01*
X157682435Y-123884775D01*
X157651493Y-123889365D01*
X157620250Y-123890900D01*
X156907750Y-123890900D01*
X156876507Y-123889365D01*
X156845565Y-123884775D01*
X156815222Y-123877175D01*
X156785770Y-123866637D01*
X156757492Y-123853262D01*
X156730662Y-123837181D01*
X156705537Y-123818547D01*
X156682360Y-123797540D01*
X156661353Y-123774363D01*
X156642719Y-123749238D01*
X156626638Y-123722408D01*
X156613263Y-123694130D01*
X156602725Y-123664678D01*
X156595125Y-123634335D01*
X156590535Y-123603393D01*
X156589000Y-123572150D01*
X156589000Y-122934650D01*
X156590535Y-122903407D01*
X156595125Y-122872465D01*
X156602725Y-122842122D01*
X156613263Y-122812670D01*
X156626638Y-122784392D01*
X156642719Y-122757562D01*
X156661353Y-122732437D01*
X156682360Y-122709260D01*
X156705537Y-122688253D01*
X156730662Y-122669619D01*
X156757492Y-122653538D01*
X156785770Y-122640163D01*
X156815222Y-122629625D01*
X156845565Y-122622025D01*
X156876507Y-122617435D01*
X156907750Y-122615900D01*
X157620250Y-122615900D01*
X157651493Y-122617435D01*
X157651493Y-122617435D01*
G37*
D17*
X157264000Y-123253400D03*
D10*
G36*
X157651493Y-124192435D02*
X157682435Y-124197025D01*
X157712778Y-124204625D01*
X157742230Y-124215163D01*
X157770508Y-124228538D01*
X157797338Y-124244619D01*
X157822463Y-124263253D01*
X157845640Y-124284260D01*
X157866647Y-124307437D01*
X157885281Y-124332562D01*
X157901362Y-124359392D01*
X157914737Y-124387670D01*
X157925275Y-124417122D01*
X157932875Y-124447465D01*
X157937465Y-124478407D01*
X157939000Y-124509650D01*
X157939000Y-125147150D01*
X157937465Y-125178393D01*
X157932875Y-125209335D01*
X157925275Y-125239678D01*
X157914737Y-125269130D01*
X157901362Y-125297408D01*
X157885281Y-125324238D01*
X157866647Y-125349363D01*
X157845640Y-125372540D01*
X157822463Y-125393547D01*
X157797338Y-125412181D01*
X157770508Y-125428262D01*
X157742230Y-125441637D01*
X157712778Y-125452175D01*
X157682435Y-125459775D01*
X157651493Y-125464365D01*
X157620250Y-125465900D01*
X156907750Y-125465900D01*
X156876507Y-125464365D01*
X156845565Y-125459775D01*
X156815222Y-125452175D01*
X156785770Y-125441637D01*
X156757492Y-125428262D01*
X156730662Y-125412181D01*
X156705537Y-125393547D01*
X156682360Y-125372540D01*
X156661353Y-125349363D01*
X156642719Y-125324238D01*
X156626638Y-125297408D01*
X156613263Y-125269130D01*
X156602725Y-125239678D01*
X156595125Y-125209335D01*
X156590535Y-125178393D01*
X156589000Y-125147150D01*
X156589000Y-124509650D01*
X156590535Y-124478407D01*
X156595125Y-124447465D01*
X156602725Y-124417122D01*
X156613263Y-124387670D01*
X156626638Y-124359392D01*
X156642719Y-124332562D01*
X156661353Y-124307437D01*
X156682360Y-124284260D01*
X156705537Y-124263253D01*
X156730662Y-124244619D01*
X156757492Y-124228538D01*
X156785770Y-124215163D01*
X156815222Y-124204625D01*
X156845565Y-124197025D01*
X156876507Y-124192435D01*
X156907750Y-124190900D01*
X157620250Y-124190900D01*
X157651493Y-124192435D01*
X157651493Y-124192435D01*
G37*
D17*
X157264000Y-124828400D03*
G04 #@! TD*
D10*
G04 #@! TO.C,C11*
G36*
X159251693Y-124217835D02*
X159282635Y-124222425D01*
X159312978Y-124230025D01*
X159342430Y-124240563D01*
X159370708Y-124253938D01*
X159397538Y-124270019D01*
X159422663Y-124288653D01*
X159445840Y-124309660D01*
X159466847Y-124332837D01*
X159485481Y-124357962D01*
X159501562Y-124384792D01*
X159514937Y-124413070D01*
X159525475Y-124442522D01*
X159533075Y-124472865D01*
X159537665Y-124503807D01*
X159539200Y-124535050D01*
X159539200Y-125172550D01*
X159537665Y-125203793D01*
X159533075Y-125234735D01*
X159525475Y-125265078D01*
X159514937Y-125294530D01*
X159501562Y-125322808D01*
X159485481Y-125349638D01*
X159466847Y-125374763D01*
X159445840Y-125397940D01*
X159422663Y-125418947D01*
X159397538Y-125437581D01*
X159370708Y-125453662D01*
X159342430Y-125467037D01*
X159312978Y-125477575D01*
X159282635Y-125485175D01*
X159251693Y-125489765D01*
X159220450Y-125491300D01*
X158507950Y-125491300D01*
X158476707Y-125489765D01*
X158445765Y-125485175D01*
X158415422Y-125477575D01*
X158385970Y-125467037D01*
X158357692Y-125453662D01*
X158330862Y-125437581D01*
X158305737Y-125418947D01*
X158282560Y-125397940D01*
X158261553Y-125374763D01*
X158242919Y-125349638D01*
X158226838Y-125322808D01*
X158213463Y-125294530D01*
X158202925Y-125265078D01*
X158195325Y-125234735D01*
X158190735Y-125203793D01*
X158189200Y-125172550D01*
X158189200Y-124535050D01*
X158190735Y-124503807D01*
X158195325Y-124472865D01*
X158202925Y-124442522D01*
X158213463Y-124413070D01*
X158226838Y-124384792D01*
X158242919Y-124357962D01*
X158261553Y-124332837D01*
X158282560Y-124309660D01*
X158305737Y-124288653D01*
X158330862Y-124270019D01*
X158357692Y-124253938D01*
X158385970Y-124240563D01*
X158415422Y-124230025D01*
X158445765Y-124222425D01*
X158476707Y-124217835D01*
X158507950Y-124216300D01*
X159220450Y-124216300D01*
X159251693Y-124217835D01*
X159251693Y-124217835D01*
G37*
D17*
X158864200Y-124853800D03*
D10*
G36*
X159251693Y-122642835D02*
X159282635Y-122647425D01*
X159312978Y-122655025D01*
X159342430Y-122665563D01*
X159370708Y-122678938D01*
X159397538Y-122695019D01*
X159422663Y-122713653D01*
X159445840Y-122734660D01*
X159466847Y-122757837D01*
X159485481Y-122782962D01*
X159501562Y-122809792D01*
X159514937Y-122838070D01*
X159525475Y-122867522D01*
X159533075Y-122897865D01*
X159537665Y-122928807D01*
X159539200Y-122960050D01*
X159539200Y-123597550D01*
X159537665Y-123628793D01*
X159533075Y-123659735D01*
X159525475Y-123690078D01*
X159514937Y-123719530D01*
X159501562Y-123747808D01*
X159485481Y-123774638D01*
X159466847Y-123799763D01*
X159445840Y-123822940D01*
X159422663Y-123843947D01*
X159397538Y-123862581D01*
X159370708Y-123878662D01*
X159342430Y-123892037D01*
X159312978Y-123902575D01*
X159282635Y-123910175D01*
X159251693Y-123914765D01*
X159220450Y-123916300D01*
X158507950Y-123916300D01*
X158476707Y-123914765D01*
X158445765Y-123910175D01*
X158415422Y-123902575D01*
X158385970Y-123892037D01*
X158357692Y-123878662D01*
X158330862Y-123862581D01*
X158305737Y-123843947D01*
X158282560Y-123822940D01*
X158261553Y-123799763D01*
X158242919Y-123774638D01*
X158226838Y-123747808D01*
X158213463Y-123719530D01*
X158202925Y-123690078D01*
X158195325Y-123659735D01*
X158190735Y-123628793D01*
X158189200Y-123597550D01*
X158189200Y-122960050D01*
X158190735Y-122928807D01*
X158195325Y-122897865D01*
X158202925Y-122867522D01*
X158213463Y-122838070D01*
X158226838Y-122809792D01*
X158242919Y-122782962D01*
X158261553Y-122757837D01*
X158282560Y-122734660D01*
X158305737Y-122713653D01*
X158330862Y-122695019D01*
X158357692Y-122678938D01*
X158385970Y-122665563D01*
X158415422Y-122655025D01*
X158445765Y-122647425D01*
X158476707Y-122642835D01*
X158507950Y-122641300D01*
X159220450Y-122641300D01*
X159251693Y-122642835D01*
X159251693Y-122642835D01*
G37*
D17*
X158864200Y-123278800D03*
G04 #@! TD*
D10*
G04 #@! TO.C,C12*
G36*
X161055293Y-122630135D02*
X161086235Y-122634725D01*
X161116578Y-122642325D01*
X161146030Y-122652863D01*
X161174308Y-122666238D01*
X161201138Y-122682319D01*
X161226263Y-122700953D01*
X161249440Y-122721960D01*
X161270447Y-122745137D01*
X161289081Y-122770262D01*
X161305162Y-122797092D01*
X161318537Y-122825370D01*
X161329075Y-122854822D01*
X161336675Y-122885165D01*
X161341265Y-122916107D01*
X161342800Y-122947350D01*
X161342800Y-123584850D01*
X161341265Y-123616093D01*
X161336675Y-123647035D01*
X161329075Y-123677378D01*
X161318537Y-123706830D01*
X161305162Y-123735108D01*
X161289081Y-123761938D01*
X161270447Y-123787063D01*
X161249440Y-123810240D01*
X161226263Y-123831247D01*
X161201138Y-123849881D01*
X161174308Y-123865962D01*
X161146030Y-123879337D01*
X161116578Y-123889875D01*
X161086235Y-123897475D01*
X161055293Y-123902065D01*
X161024050Y-123903600D01*
X160311550Y-123903600D01*
X160280307Y-123902065D01*
X160249365Y-123897475D01*
X160219022Y-123889875D01*
X160189570Y-123879337D01*
X160161292Y-123865962D01*
X160134462Y-123849881D01*
X160109337Y-123831247D01*
X160086160Y-123810240D01*
X160065153Y-123787063D01*
X160046519Y-123761938D01*
X160030438Y-123735108D01*
X160017063Y-123706830D01*
X160006525Y-123677378D01*
X159998925Y-123647035D01*
X159994335Y-123616093D01*
X159992800Y-123584850D01*
X159992800Y-122947350D01*
X159994335Y-122916107D01*
X159998925Y-122885165D01*
X160006525Y-122854822D01*
X160017063Y-122825370D01*
X160030438Y-122797092D01*
X160046519Y-122770262D01*
X160065153Y-122745137D01*
X160086160Y-122721960D01*
X160109337Y-122700953D01*
X160134462Y-122682319D01*
X160161292Y-122666238D01*
X160189570Y-122652863D01*
X160219022Y-122642325D01*
X160249365Y-122634725D01*
X160280307Y-122630135D01*
X160311550Y-122628600D01*
X161024050Y-122628600D01*
X161055293Y-122630135D01*
X161055293Y-122630135D01*
G37*
D17*
X160667800Y-123266100D03*
D10*
G36*
X161055293Y-124205135D02*
X161086235Y-124209725D01*
X161116578Y-124217325D01*
X161146030Y-124227863D01*
X161174308Y-124241238D01*
X161201138Y-124257319D01*
X161226263Y-124275953D01*
X161249440Y-124296960D01*
X161270447Y-124320137D01*
X161289081Y-124345262D01*
X161305162Y-124372092D01*
X161318537Y-124400370D01*
X161329075Y-124429822D01*
X161336675Y-124460165D01*
X161341265Y-124491107D01*
X161342800Y-124522350D01*
X161342800Y-125159850D01*
X161341265Y-125191093D01*
X161336675Y-125222035D01*
X161329075Y-125252378D01*
X161318537Y-125281830D01*
X161305162Y-125310108D01*
X161289081Y-125336938D01*
X161270447Y-125362063D01*
X161249440Y-125385240D01*
X161226263Y-125406247D01*
X161201138Y-125424881D01*
X161174308Y-125440962D01*
X161146030Y-125454337D01*
X161116578Y-125464875D01*
X161086235Y-125472475D01*
X161055293Y-125477065D01*
X161024050Y-125478600D01*
X160311550Y-125478600D01*
X160280307Y-125477065D01*
X160249365Y-125472475D01*
X160219022Y-125464875D01*
X160189570Y-125454337D01*
X160161292Y-125440962D01*
X160134462Y-125424881D01*
X160109337Y-125406247D01*
X160086160Y-125385240D01*
X160065153Y-125362063D01*
X160046519Y-125336938D01*
X160030438Y-125310108D01*
X160017063Y-125281830D01*
X160006525Y-125252378D01*
X159998925Y-125222035D01*
X159994335Y-125191093D01*
X159992800Y-125159850D01*
X159992800Y-124522350D01*
X159994335Y-124491107D01*
X159998925Y-124460165D01*
X160006525Y-124429822D01*
X160017063Y-124400370D01*
X160030438Y-124372092D01*
X160046519Y-124345262D01*
X160065153Y-124320137D01*
X160086160Y-124296960D01*
X160109337Y-124275953D01*
X160134462Y-124257319D01*
X160161292Y-124241238D01*
X160189570Y-124227863D01*
X160219022Y-124217325D01*
X160249365Y-124209725D01*
X160280307Y-124205135D01*
X160311550Y-124203600D01*
X161024050Y-124203600D01*
X161055293Y-124205135D01*
X161055293Y-124205135D01*
G37*
D17*
X160667800Y-124841100D03*
G04 #@! TD*
D10*
G04 #@! TO.C,C17*
G36*
X121342693Y-96722835D02*
X121373635Y-96727425D01*
X121403978Y-96735025D01*
X121433430Y-96745563D01*
X121461708Y-96758938D01*
X121488538Y-96775019D01*
X121513663Y-96793653D01*
X121536840Y-96814660D01*
X121557847Y-96837837D01*
X121576481Y-96862962D01*
X121592562Y-96889792D01*
X121605937Y-96918070D01*
X121616475Y-96947522D01*
X121624075Y-96977865D01*
X121628665Y-97008807D01*
X121630200Y-97040050D01*
X121630200Y-97752550D01*
X121628665Y-97783793D01*
X121624075Y-97814735D01*
X121616475Y-97845078D01*
X121605937Y-97874530D01*
X121592562Y-97902808D01*
X121576481Y-97929638D01*
X121557847Y-97954763D01*
X121536840Y-97977940D01*
X121513663Y-97998947D01*
X121488538Y-98017581D01*
X121461708Y-98033662D01*
X121433430Y-98047037D01*
X121403978Y-98057575D01*
X121373635Y-98065175D01*
X121342693Y-98069765D01*
X121311450Y-98071300D01*
X120673950Y-98071300D01*
X120642707Y-98069765D01*
X120611765Y-98065175D01*
X120581422Y-98057575D01*
X120551970Y-98047037D01*
X120523692Y-98033662D01*
X120496862Y-98017581D01*
X120471737Y-97998947D01*
X120448560Y-97977940D01*
X120427553Y-97954763D01*
X120408919Y-97929638D01*
X120392838Y-97902808D01*
X120379463Y-97874530D01*
X120368925Y-97845078D01*
X120361325Y-97814735D01*
X120356735Y-97783793D01*
X120355200Y-97752550D01*
X120355200Y-97040050D01*
X120356735Y-97008807D01*
X120361325Y-96977865D01*
X120368925Y-96947522D01*
X120379463Y-96918070D01*
X120392838Y-96889792D01*
X120408919Y-96862962D01*
X120427553Y-96837837D01*
X120448560Y-96814660D01*
X120471737Y-96793653D01*
X120496862Y-96775019D01*
X120523692Y-96758938D01*
X120551970Y-96745563D01*
X120581422Y-96735025D01*
X120611765Y-96727425D01*
X120642707Y-96722835D01*
X120673950Y-96721300D01*
X121311450Y-96721300D01*
X121342693Y-96722835D01*
X121342693Y-96722835D01*
G37*
D17*
X120992700Y-97396300D03*
D10*
G36*
X122917693Y-96722835D02*
X122948635Y-96727425D01*
X122978978Y-96735025D01*
X123008430Y-96745563D01*
X123036708Y-96758938D01*
X123063538Y-96775019D01*
X123088663Y-96793653D01*
X123111840Y-96814660D01*
X123132847Y-96837837D01*
X123151481Y-96862962D01*
X123167562Y-96889792D01*
X123180937Y-96918070D01*
X123191475Y-96947522D01*
X123199075Y-96977865D01*
X123203665Y-97008807D01*
X123205200Y-97040050D01*
X123205200Y-97752550D01*
X123203665Y-97783793D01*
X123199075Y-97814735D01*
X123191475Y-97845078D01*
X123180937Y-97874530D01*
X123167562Y-97902808D01*
X123151481Y-97929638D01*
X123132847Y-97954763D01*
X123111840Y-97977940D01*
X123088663Y-97998947D01*
X123063538Y-98017581D01*
X123036708Y-98033662D01*
X123008430Y-98047037D01*
X122978978Y-98057575D01*
X122948635Y-98065175D01*
X122917693Y-98069765D01*
X122886450Y-98071300D01*
X122248950Y-98071300D01*
X122217707Y-98069765D01*
X122186765Y-98065175D01*
X122156422Y-98057575D01*
X122126970Y-98047037D01*
X122098692Y-98033662D01*
X122071862Y-98017581D01*
X122046737Y-97998947D01*
X122023560Y-97977940D01*
X122002553Y-97954763D01*
X121983919Y-97929638D01*
X121967838Y-97902808D01*
X121954463Y-97874530D01*
X121943925Y-97845078D01*
X121936325Y-97814735D01*
X121931735Y-97783793D01*
X121930200Y-97752550D01*
X121930200Y-97040050D01*
X121931735Y-97008807D01*
X121936325Y-96977865D01*
X121943925Y-96947522D01*
X121954463Y-96918070D01*
X121967838Y-96889792D01*
X121983919Y-96862962D01*
X122002553Y-96837837D01*
X122023560Y-96814660D01*
X122046737Y-96793653D01*
X122071862Y-96775019D01*
X122098692Y-96758938D01*
X122126970Y-96745563D01*
X122156422Y-96735025D01*
X122186765Y-96727425D01*
X122217707Y-96722835D01*
X122248950Y-96721300D01*
X122886450Y-96721300D01*
X122917693Y-96722835D01*
X122917693Y-96722835D01*
G37*
D17*
X122567700Y-97396300D03*
G04 #@! TD*
D10*
G04 #@! TO.C,C18*
G36*
X119856393Y-93280435D02*
X119887335Y-93285025D01*
X119917678Y-93292625D01*
X119947130Y-93303163D01*
X119975408Y-93316538D01*
X120002238Y-93332619D01*
X120027363Y-93351253D01*
X120050540Y-93372260D01*
X120071547Y-93395437D01*
X120090181Y-93420562D01*
X120106262Y-93447392D01*
X120119637Y-93475670D01*
X120130175Y-93505122D01*
X120137775Y-93535465D01*
X120142365Y-93566407D01*
X120143900Y-93597650D01*
X120143900Y-94235150D01*
X120142365Y-94266393D01*
X120137775Y-94297335D01*
X120130175Y-94327678D01*
X120119637Y-94357130D01*
X120106262Y-94385408D01*
X120090181Y-94412238D01*
X120071547Y-94437363D01*
X120050540Y-94460540D01*
X120027363Y-94481547D01*
X120002238Y-94500181D01*
X119975408Y-94516262D01*
X119947130Y-94529637D01*
X119917678Y-94540175D01*
X119887335Y-94547775D01*
X119856393Y-94552365D01*
X119825150Y-94553900D01*
X119112650Y-94553900D01*
X119081407Y-94552365D01*
X119050465Y-94547775D01*
X119020122Y-94540175D01*
X118990670Y-94529637D01*
X118962392Y-94516262D01*
X118935562Y-94500181D01*
X118910437Y-94481547D01*
X118887260Y-94460540D01*
X118866253Y-94437363D01*
X118847619Y-94412238D01*
X118831538Y-94385408D01*
X118818163Y-94357130D01*
X118807625Y-94327678D01*
X118800025Y-94297335D01*
X118795435Y-94266393D01*
X118793900Y-94235150D01*
X118793900Y-93597650D01*
X118795435Y-93566407D01*
X118800025Y-93535465D01*
X118807625Y-93505122D01*
X118818163Y-93475670D01*
X118831538Y-93447392D01*
X118847619Y-93420562D01*
X118866253Y-93395437D01*
X118887260Y-93372260D01*
X118910437Y-93351253D01*
X118935562Y-93332619D01*
X118962392Y-93316538D01*
X118990670Y-93303163D01*
X119020122Y-93292625D01*
X119050465Y-93285025D01*
X119081407Y-93280435D01*
X119112650Y-93278900D01*
X119825150Y-93278900D01*
X119856393Y-93280435D01*
X119856393Y-93280435D01*
G37*
D17*
X119468900Y-93916400D03*
D10*
G36*
X119856393Y-94855435D02*
X119887335Y-94860025D01*
X119917678Y-94867625D01*
X119947130Y-94878163D01*
X119975408Y-94891538D01*
X120002238Y-94907619D01*
X120027363Y-94926253D01*
X120050540Y-94947260D01*
X120071547Y-94970437D01*
X120090181Y-94995562D01*
X120106262Y-95022392D01*
X120119637Y-95050670D01*
X120130175Y-95080122D01*
X120137775Y-95110465D01*
X120142365Y-95141407D01*
X120143900Y-95172650D01*
X120143900Y-95810150D01*
X120142365Y-95841393D01*
X120137775Y-95872335D01*
X120130175Y-95902678D01*
X120119637Y-95932130D01*
X120106262Y-95960408D01*
X120090181Y-95987238D01*
X120071547Y-96012363D01*
X120050540Y-96035540D01*
X120027363Y-96056547D01*
X120002238Y-96075181D01*
X119975408Y-96091262D01*
X119947130Y-96104637D01*
X119917678Y-96115175D01*
X119887335Y-96122775D01*
X119856393Y-96127365D01*
X119825150Y-96128900D01*
X119112650Y-96128900D01*
X119081407Y-96127365D01*
X119050465Y-96122775D01*
X119020122Y-96115175D01*
X118990670Y-96104637D01*
X118962392Y-96091262D01*
X118935562Y-96075181D01*
X118910437Y-96056547D01*
X118887260Y-96035540D01*
X118866253Y-96012363D01*
X118847619Y-95987238D01*
X118831538Y-95960408D01*
X118818163Y-95932130D01*
X118807625Y-95902678D01*
X118800025Y-95872335D01*
X118795435Y-95841393D01*
X118793900Y-95810150D01*
X118793900Y-95172650D01*
X118795435Y-95141407D01*
X118800025Y-95110465D01*
X118807625Y-95080122D01*
X118818163Y-95050670D01*
X118831538Y-95022392D01*
X118847619Y-94995562D01*
X118866253Y-94970437D01*
X118887260Y-94947260D01*
X118910437Y-94926253D01*
X118935562Y-94907619D01*
X118962392Y-94891538D01*
X118990670Y-94878163D01*
X119020122Y-94867625D01*
X119050465Y-94860025D01*
X119081407Y-94855435D01*
X119112650Y-94853900D01*
X119825150Y-94853900D01*
X119856393Y-94855435D01*
X119856393Y-94855435D01*
G37*
D17*
X119468900Y-95491400D03*
G04 #@! TD*
D10*
G04 #@! TO.C,C19*
G36*
X155340793Y-56491936D02*
X155371735Y-56496526D01*
X155402078Y-56504126D01*
X155431530Y-56514664D01*
X155459808Y-56528039D01*
X155486638Y-56544120D01*
X155511763Y-56562754D01*
X155534940Y-56583761D01*
X155555947Y-56606938D01*
X155574581Y-56632063D01*
X155590662Y-56658893D01*
X155604037Y-56687171D01*
X155614575Y-56716623D01*
X155622175Y-56746966D01*
X155626765Y-56777908D01*
X155628300Y-56809151D01*
X155628300Y-57521651D01*
X155626765Y-57552894D01*
X155622175Y-57583836D01*
X155614575Y-57614179D01*
X155604037Y-57643631D01*
X155590662Y-57671909D01*
X155574581Y-57698739D01*
X155555947Y-57723864D01*
X155534940Y-57747041D01*
X155511763Y-57768048D01*
X155486638Y-57786682D01*
X155459808Y-57802763D01*
X155431530Y-57816138D01*
X155402078Y-57826676D01*
X155371735Y-57834276D01*
X155340793Y-57838866D01*
X155309550Y-57840401D01*
X154672050Y-57840401D01*
X154640807Y-57838866D01*
X154609865Y-57834276D01*
X154579522Y-57826676D01*
X154550070Y-57816138D01*
X154521792Y-57802763D01*
X154494962Y-57786682D01*
X154469837Y-57768048D01*
X154446660Y-57747041D01*
X154425653Y-57723864D01*
X154407019Y-57698739D01*
X154390938Y-57671909D01*
X154377563Y-57643631D01*
X154367025Y-57614179D01*
X154359425Y-57583836D01*
X154354835Y-57552894D01*
X154353300Y-57521651D01*
X154353300Y-56809151D01*
X154354835Y-56777908D01*
X154359425Y-56746966D01*
X154367025Y-56716623D01*
X154377563Y-56687171D01*
X154390938Y-56658893D01*
X154407019Y-56632063D01*
X154425653Y-56606938D01*
X154446660Y-56583761D01*
X154469837Y-56562754D01*
X154494962Y-56544120D01*
X154521792Y-56528039D01*
X154550070Y-56514664D01*
X154579522Y-56504126D01*
X154609865Y-56496526D01*
X154640807Y-56491936D01*
X154672050Y-56490401D01*
X155309550Y-56490401D01*
X155340793Y-56491936D01*
X155340793Y-56491936D01*
G37*
D17*
X154990800Y-57165401D03*
D10*
G36*
X153765793Y-56491936D02*
X153796735Y-56496526D01*
X153827078Y-56504126D01*
X153856530Y-56514664D01*
X153884808Y-56528039D01*
X153911638Y-56544120D01*
X153936763Y-56562754D01*
X153959940Y-56583761D01*
X153980947Y-56606938D01*
X153999581Y-56632063D01*
X154015662Y-56658893D01*
X154029037Y-56687171D01*
X154039575Y-56716623D01*
X154047175Y-56746966D01*
X154051765Y-56777908D01*
X154053300Y-56809151D01*
X154053300Y-57521651D01*
X154051765Y-57552894D01*
X154047175Y-57583836D01*
X154039575Y-57614179D01*
X154029037Y-57643631D01*
X154015662Y-57671909D01*
X153999581Y-57698739D01*
X153980947Y-57723864D01*
X153959940Y-57747041D01*
X153936763Y-57768048D01*
X153911638Y-57786682D01*
X153884808Y-57802763D01*
X153856530Y-57816138D01*
X153827078Y-57826676D01*
X153796735Y-57834276D01*
X153765793Y-57838866D01*
X153734550Y-57840401D01*
X153097050Y-57840401D01*
X153065807Y-57838866D01*
X153034865Y-57834276D01*
X153004522Y-57826676D01*
X152975070Y-57816138D01*
X152946792Y-57802763D01*
X152919962Y-57786682D01*
X152894837Y-57768048D01*
X152871660Y-57747041D01*
X152850653Y-57723864D01*
X152832019Y-57698739D01*
X152815938Y-57671909D01*
X152802563Y-57643631D01*
X152792025Y-57614179D01*
X152784425Y-57583836D01*
X152779835Y-57552894D01*
X152778300Y-57521651D01*
X152778300Y-56809151D01*
X152779835Y-56777908D01*
X152784425Y-56746966D01*
X152792025Y-56716623D01*
X152802563Y-56687171D01*
X152815938Y-56658893D01*
X152832019Y-56632063D01*
X152850653Y-56606938D01*
X152871660Y-56583761D01*
X152894837Y-56562754D01*
X152919962Y-56544120D01*
X152946792Y-56528039D01*
X152975070Y-56514664D01*
X153004522Y-56504126D01*
X153034865Y-56496526D01*
X153065807Y-56491936D01*
X153097050Y-56490401D01*
X153734550Y-56490401D01*
X153765793Y-56491936D01*
X153765793Y-56491936D01*
G37*
D17*
X153415800Y-57165401D03*
G04 #@! TD*
D10*
G04 #@! TO.C,C20*
G36*
X153765793Y-54927135D02*
X153796735Y-54931725D01*
X153827078Y-54939325D01*
X153856530Y-54949863D01*
X153884808Y-54963238D01*
X153911638Y-54979319D01*
X153936763Y-54997953D01*
X153959940Y-55018960D01*
X153980947Y-55042137D01*
X153999581Y-55067262D01*
X154015662Y-55094092D01*
X154029037Y-55122370D01*
X154039575Y-55151822D01*
X154047175Y-55182165D01*
X154051765Y-55213107D01*
X154053300Y-55244350D01*
X154053300Y-55956850D01*
X154051765Y-55988093D01*
X154047175Y-56019035D01*
X154039575Y-56049378D01*
X154029037Y-56078830D01*
X154015662Y-56107108D01*
X153999581Y-56133938D01*
X153980947Y-56159063D01*
X153959940Y-56182240D01*
X153936763Y-56203247D01*
X153911638Y-56221881D01*
X153884808Y-56237962D01*
X153856530Y-56251337D01*
X153827078Y-56261875D01*
X153796735Y-56269475D01*
X153765793Y-56274065D01*
X153734550Y-56275600D01*
X153097050Y-56275600D01*
X153065807Y-56274065D01*
X153034865Y-56269475D01*
X153004522Y-56261875D01*
X152975070Y-56251337D01*
X152946792Y-56237962D01*
X152919962Y-56221881D01*
X152894837Y-56203247D01*
X152871660Y-56182240D01*
X152850653Y-56159063D01*
X152832019Y-56133938D01*
X152815938Y-56107108D01*
X152802563Y-56078830D01*
X152792025Y-56049378D01*
X152784425Y-56019035D01*
X152779835Y-55988093D01*
X152778300Y-55956850D01*
X152778300Y-55244350D01*
X152779835Y-55213107D01*
X152784425Y-55182165D01*
X152792025Y-55151822D01*
X152802563Y-55122370D01*
X152815938Y-55094092D01*
X152832019Y-55067262D01*
X152850653Y-55042137D01*
X152871660Y-55018960D01*
X152894837Y-54997953D01*
X152919962Y-54979319D01*
X152946792Y-54963238D01*
X152975070Y-54949863D01*
X153004522Y-54939325D01*
X153034865Y-54931725D01*
X153065807Y-54927135D01*
X153097050Y-54925600D01*
X153734550Y-54925600D01*
X153765793Y-54927135D01*
X153765793Y-54927135D01*
G37*
D17*
X153415800Y-55600600D03*
D10*
G36*
X155340793Y-54927135D02*
X155371735Y-54931725D01*
X155402078Y-54939325D01*
X155431530Y-54949863D01*
X155459808Y-54963238D01*
X155486638Y-54979319D01*
X155511763Y-54997953D01*
X155534940Y-55018960D01*
X155555947Y-55042137D01*
X155574581Y-55067262D01*
X155590662Y-55094092D01*
X155604037Y-55122370D01*
X155614575Y-55151822D01*
X155622175Y-55182165D01*
X155626765Y-55213107D01*
X155628300Y-55244350D01*
X155628300Y-55956850D01*
X155626765Y-55988093D01*
X155622175Y-56019035D01*
X155614575Y-56049378D01*
X155604037Y-56078830D01*
X155590662Y-56107108D01*
X155574581Y-56133938D01*
X155555947Y-56159063D01*
X155534940Y-56182240D01*
X155511763Y-56203247D01*
X155486638Y-56221881D01*
X155459808Y-56237962D01*
X155431530Y-56251337D01*
X155402078Y-56261875D01*
X155371735Y-56269475D01*
X155340793Y-56274065D01*
X155309550Y-56275600D01*
X154672050Y-56275600D01*
X154640807Y-56274065D01*
X154609865Y-56269475D01*
X154579522Y-56261875D01*
X154550070Y-56251337D01*
X154521792Y-56237962D01*
X154494962Y-56221881D01*
X154469837Y-56203247D01*
X154446660Y-56182240D01*
X154425653Y-56159063D01*
X154407019Y-56133938D01*
X154390938Y-56107108D01*
X154377563Y-56078830D01*
X154367025Y-56049378D01*
X154359425Y-56019035D01*
X154354835Y-55988093D01*
X154353300Y-55956850D01*
X154353300Y-55244350D01*
X154354835Y-55213107D01*
X154359425Y-55182165D01*
X154367025Y-55151822D01*
X154377563Y-55122370D01*
X154390938Y-55094092D01*
X154407019Y-55067262D01*
X154425653Y-55042137D01*
X154446660Y-55018960D01*
X154469837Y-54997953D01*
X154494962Y-54979319D01*
X154521792Y-54963238D01*
X154550070Y-54949863D01*
X154579522Y-54939325D01*
X154609865Y-54931725D01*
X154640807Y-54927135D01*
X154672050Y-54925600D01*
X155309550Y-54925600D01*
X155340793Y-54927135D01*
X155340793Y-54927135D01*
G37*
D17*
X154990800Y-55600600D03*
G04 #@! TD*
D18*
G04 #@! TO.C,D1*
X119362400Y-115991600D03*
X119362400Y-117891600D03*
X117162400Y-117891600D03*
D19*
X117162400Y-116171600D03*
G04 #@! TD*
D20*
G04 #@! TO.C,D2*
X146984400Y-44766000D03*
X149484400Y-44766000D03*
X149484400Y-46166000D03*
X146984400Y-46166000D03*
G04 #@! TD*
D19*
G04 #@! TO.C,D3*
X180213000Y-65836800D03*
D18*
X180213000Y-64116800D03*
X178013000Y-64116800D03*
X178013000Y-66016800D03*
G04 #@! TD*
D21*
G04 #@! TO.C,J1*
X167335200Y-81762600D03*
D22*
X167335200Y-84302600D03*
G04 #@! TD*
D23*
G04 #@! TO.C,J6*
X173799500Y-60706000D03*
G04 #@! TD*
G04 #@! TO.C,J7*
X124841000Y-60706000D03*
G04 #@! TD*
G04 #@! TO.C,J8*
X173799500Y-120713500D03*
G04 #@! TD*
G04 #@! TO.C,J9*
X124815600Y-120700800D03*
G04 #@! TD*
D24*
G04 #@! TO.C,J10*
X170296342Y-107035044D03*
D10*
G36*
X169595685Y-107534123D02*
X170051480Y-106210397D01*
X170996999Y-106535965D01*
X170541204Y-107859691D01*
X169595685Y-107534123D01*
X169595685Y-107534123D01*
G37*
D24*
X171714620Y-107523396D03*
D10*
G36*
X171013963Y-108022475D02*
X171469758Y-106698749D01*
X172415277Y-107024317D01*
X171959482Y-108348043D01*
X171013963Y-108022475D01*
X171013963Y-108022475D01*
G37*
D24*
X173132898Y-108011748D03*
D10*
G36*
X172432241Y-108510827D02*
X172888036Y-107187101D01*
X173833555Y-107512669D01*
X173377760Y-108836395D01*
X172432241Y-108510827D01*
X172432241Y-108510827D01*
G37*
D24*
X174551176Y-108500101D03*
D10*
G36*
X173850519Y-108999180D02*
X174306314Y-107675454D01*
X175251833Y-108001022D01*
X174796038Y-109324748D01*
X173850519Y-108999180D01*
X173850519Y-108999180D01*
G37*
D24*
X175969454Y-108988453D03*
D10*
G36*
X175268797Y-109487532D02*
X175724592Y-108163806D01*
X176670111Y-108489374D01*
X176214316Y-109813100D01*
X175268797Y-109487532D01*
X175268797Y-109487532D01*
G37*
D24*
X177387732Y-109476805D03*
D10*
G36*
X176687075Y-109975884D02*
X177142870Y-108652158D01*
X178088389Y-108977726D01*
X177632594Y-110301452D01*
X176687075Y-109975884D01*
X176687075Y-109975884D01*
G37*
D25*
X169522965Y-101279697D03*
D10*
G36*
X168384787Y-102051174D02*
X169101037Y-99971033D01*
X170661143Y-100508220D01*
X169944893Y-102588361D01*
X168384787Y-102051174D01*
X168384787Y-102051174D01*
G37*
D25*
X181540506Y-105417669D03*
D10*
G36*
X180402328Y-106189146D02*
X181118578Y-104109005D01*
X182678684Y-104646192D01*
X181962434Y-106726333D01*
X180402328Y-106189146D01*
X180402328Y-106189146D01*
G37*
G04 #@! TD*
D25*
G04 #@! TO.C,J13*
X171347643Y-79283150D03*
D10*
G36*
X171769571Y-77974486D02*
X172485821Y-80054627D01*
X170925715Y-80591814D01*
X170209465Y-78511673D01*
X171769571Y-77974486D01*
X171769571Y-77974486D01*
G37*
D25*
X180528627Y-76121884D03*
D10*
G36*
X180950555Y-74813220D02*
X181666805Y-76893361D01*
X180106699Y-77430548D01*
X179390449Y-75350407D01*
X180950555Y-74813220D01*
X180950555Y-74813220D01*
G37*
D24*
X172121020Y-73527804D03*
D10*
G36*
X172365882Y-72703157D02*
X172821677Y-74026883D01*
X171876158Y-74352451D01*
X171420363Y-73028725D01*
X172365882Y-72703157D01*
X172365882Y-72703157D01*
G37*
D24*
X173539298Y-73039452D03*
D10*
G36*
X173784160Y-72214805D02*
X174239955Y-73538531D01*
X173294436Y-73864099D01*
X172838641Y-72540373D01*
X173784160Y-72214805D01*
X173784160Y-72214805D01*
G37*
D24*
X174957576Y-72551099D03*
D10*
G36*
X175202438Y-71726452D02*
X175658233Y-73050178D01*
X174712714Y-73375746D01*
X174256919Y-72052020D01*
X175202438Y-71726452D01*
X175202438Y-71726452D01*
G37*
D24*
X176375854Y-72062747D03*
D10*
G36*
X176620716Y-71238100D02*
X177076511Y-72561826D01*
X176130992Y-72887394D01*
X175675197Y-71563668D01*
X176620716Y-71238100D01*
X176620716Y-71238100D01*
G37*
G04 #@! TD*
D26*
G04 #@! TO.C,J15*
X116433600Y-125628400D03*
D10*
G36*
X114979839Y-125962433D02*
X116379990Y-124137720D01*
X117887361Y-125294367D01*
X116487210Y-127119080D01*
X114979839Y-125962433D01*
X114979839Y-125962433D01*
G37*
D27*
X115300519Y-121355681D03*
D28*
X116768223Y-122481890D03*
D10*
G36*
X115918215Y-122932570D02*
X116983548Y-121544201D01*
X117618231Y-122031210D01*
X116552898Y-123419579D01*
X115918215Y-122932570D01*
X115918215Y-122932570D01*
G37*
D28*
X116252543Y-122086195D03*
D10*
G36*
X115402535Y-122536875D02*
X116467868Y-121148506D01*
X117102551Y-121635515D01*
X116037218Y-123023884D01*
X115402535Y-122536875D01*
X115402535Y-122536875D01*
G37*
D28*
X118315262Y-123668975D03*
D10*
G36*
X117465254Y-124119655D02*
X118530587Y-122731286D01*
X119165270Y-123218295D01*
X118099937Y-124606664D01*
X117465254Y-124119655D01*
X117465254Y-124119655D01*
G37*
D28*
X117799582Y-123273280D03*
D10*
G36*
X116949574Y-123723960D02*
X118014907Y-122335591D01*
X118649590Y-122822600D01*
X117584257Y-124210969D01*
X116949574Y-123723960D01*
X116949574Y-123723960D01*
G37*
D28*
X117283903Y-122877585D03*
D10*
G36*
X116433895Y-123328265D02*
X117499228Y-121939896D01*
X118133911Y-122426905D01*
X117068578Y-123815274D01*
X116433895Y-123328265D01*
X116433895Y-123328265D01*
G37*
D27*
X119267286Y-124399488D03*
D26*
X114846893Y-124410877D03*
D10*
G36*
X113393132Y-124744910D02*
X114793283Y-122920197D01*
X116300654Y-124076844D01*
X114900503Y-125901557D01*
X113393132Y-124744910D01*
X113393132Y-124744910D01*
G37*
D29*
X112863510Y-122888974D03*
D30*
X112650443Y-123166648D02*
X113076577Y-122611300D01*
D29*
X118416983Y-127150304D03*
D30*
X118630050Y-126872630D02*
X118203916Y-127427978D01*
D29*
X117940971Y-126785047D03*
D10*
G36*
X116606213Y-127210394D02*
X118006364Y-125385682D01*
X119275729Y-126359700D01*
X117875578Y-128184412D01*
X116606213Y-127210394D01*
X116606213Y-127210394D01*
G37*
D29*
X113339522Y-123254231D03*
D10*
G36*
X112004764Y-123679578D02*
X113404915Y-121854866D01*
X114674280Y-122828884D01*
X113274129Y-124653596D01*
X112004764Y-123679578D01*
X112004764Y-123679578D01*
G37*
G04 #@! TD*
D29*
G04 #@! TO.C,J17*
X185149371Y-58103446D03*
D10*
G36*
X186484129Y-57678099D02*
X185083978Y-59502811D01*
X183814613Y-58528793D01*
X185214764Y-56704081D01*
X186484129Y-57678099D01*
X186484129Y-57678099D01*
G37*
D29*
X180547922Y-54572630D03*
D10*
G36*
X181882680Y-54147283D02*
X180482529Y-55971995D01*
X179213164Y-54997977D01*
X180613315Y-53173265D01*
X181882680Y-54147283D01*
X181882680Y-54147283D01*
G37*
D29*
X180071910Y-54207373D03*
D30*
X179858843Y-54485047D02*
X180284977Y-53929699D01*
D29*
X185625383Y-58468703D03*
D30*
X185838450Y-58191029D02*
X185412316Y-58746377D01*
D26*
X183642000Y-56946800D03*
D10*
G36*
X185095761Y-56612767D02*
X183695610Y-58437480D01*
X182188239Y-57280833D01*
X183588390Y-55456120D01*
X185095761Y-56612767D01*
X185095761Y-56612767D01*
G37*
D27*
X179221607Y-56958189D03*
D28*
X181204990Y-58480092D03*
D10*
G36*
X182054998Y-58029412D02*
X180989665Y-59417781D01*
X180354982Y-58930772D01*
X181420315Y-57542403D01*
X182054998Y-58029412D01*
X182054998Y-58029412D01*
G37*
D28*
X180689311Y-58084397D03*
D10*
G36*
X181539319Y-57633717D02*
X180473986Y-59022086D01*
X179839303Y-58535077D01*
X180904636Y-57146708D01*
X181539319Y-57633717D01*
X181539319Y-57633717D01*
G37*
D28*
X180173631Y-57688702D03*
D10*
G36*
X181023639Y-57238022D02*
X179958306Y-58626391D01*
X179323623Y-58139382D01*
X180388956Y-56751013D01*
X181023639Y-57238022D01*
X181023639Y-57238022D01*
G37*
D28*
X182236350Y-59271482D03*
D10*
G36*
X183086358Y-58820802D02*
X182021025Y-60209171D01*
X181386342Y-59722162D01*
X182451675Y-58333793D01*
X183086358Y-58820802D01*
X183086358Y-58820802D01*
G37*
D28*
X181720670Y-58875787D03*
D10*
G36*
X182570678Y-58425107D02*
X181505345Y-59813476D01*
X180870662Y-59326467D01*
X181935995Y-57938098D01*
X182570678Y-58425107D01*
X182570678Y-58425107D01*
G37*
D27*
X183188374Y-60001996D03*
D26*
X182055293Y-55729277D03*
D10*
G36*
X183509054Y-55395244D02*
X182108903Y-57219957D01*
X180601532Y-56063310D01*
X182001683Y-54238597D01*
X183509054Y-55395244D01*
X183509054Y-55395244D01*
G37*
G04 #@! TD*
G04 #@! TO.C,JP2*
G36*
X185518546Y-82006989D02*
X185550580Y-82011741D01*
X185581994Y-82019610D01*
X185612486Y-82030520D01*
X185641761Y-82044366D01*
X185669538Y-82061015D01*
X185695550Y-82080307D01*
X185719545Y-82102055D01*
X185741293Y-82126050D01*
X185760585Y-82152062D01*
X185777234Y-82179839D01*
X185791080Y-82209114D01*
X185801990Y-82239606D01*
X185809859Y-82271020D01*
X185814611Y-82303054D01*
X185816200Y-82335400D01*
X185816200Y-83825400D01*
X185814611Y-83857746D01*
X185809859Y-83889780D01*
X185801990Y-83921194D01*
X185791080Y-83951686D01*
X185777234Y-83980961D01*
X185760585Y-84008738D01*
X185741293Y-84034750D01*
X185719545Y-84058745D01*
X185695550Y-84080493D01*
X185669538Y-84099785D01*
X185641761Y-84116434D01*
X185612486Y-84130280D01*
X185581994Y-84141190D01*
X185550580Y-84149059D01*
X185518546Y-84153811D01*
X185486200Y-84155400D01*
X184496200Y-84155400D01*
X184463854Y-84153811D01*
X184431820Y-84149059D01*
X184400406Y-84141190D01*
X184369914Y-84130280D01*
X184340639Y-84116434D01*
X184312862Y-84099785D01*
X184286850Y-84080493D01*
X184262855Y-84058745D01*
X184241107Y-84034750D01*
X184221815Y-84008738D01*
X184205166Y-83980961D01*
X184191320Y-83951686D01*
X184180410Y-83921194D01*
X184172541Y-83889780D01*
X184167789Y-83857746D01*
X184166200Y-83825400D01*
X184166200Y-82335400D01*
X184167789Y-82303054D01*
X184172541Y-82271020D01*
X184180410Y-82239606D01*
X184191320Y-82209114D01*
X184205166Y-82179839D01*
X184221815Y-82152062D01*
X184241107Y-82126050D01*
X184262855Y-82102055D01*
X184286850Y-82080307D01*
X184312862Y-82061015D01*
X184340639Y-82044366D01*
X184369914Y-82030520D01*
X184400406Y-82019610D01*
X184431820Y-82011741D01*
X184463854Y-82006989D01*
X184496200Y-82005400D01*
X185486200Y-82005400D01*
X185518546Y-82006989D01*
X185518546Y-82006989D01*
G37*
D25*
X184991200Y-83080400D03*
D10*
G36*
X182718546Y-82006989D02*
X182750580Y-82011741D01*
X182781994Y-82019610D01*
X182812486Y-82030520D01*
X182841761Y-82044366D01*
X182869538Y-82061015D01*
X182895550Y-82080307D01*
X182919545Y-82102055D01*
X182941293Y-82126050D01*
X182960585Y-82152062D01*
X182977234Y-82179839D01*
X182991080Y-82209114D01*
X183001990Y-82239606D01*
X183009859Y-82271020D01*
X183014611Y-82303054D01*
X183016200Y-82335400D01*
X183016200Y-83825400D01*
X183014611Y-83857746D01*
X183009859Y-83889780D01*
X183001990Y-83921194D01*
X182991080Y-83951686D01*
X182977234Y-83980961D01*
X182960585Y-84008738D01*
X182941293Y-84034750D01*
X182919545Y-84058745D01*
X182895550Y-84080493D01*
X182869538Y-84099785D01*
X182841761Y-84116434D01*
X182812486Y-84130280D01*
X182781994Y-84141190D01*
X182750580Y-84149059D01*
X182718546Y-84153811D01*
X182686200Y-84155400D01*
X181696200Y-84155400D01*
X181663854Y-84153811D01*
X181631820Y-84149059D01*
X181600406Y-84141190D01*
X181569914Y-84130280D01*
X181540639Y-84116434D01*
X181512862Y-84099785D01*
X181486850Y-84080493D01*
X181462855Y-84058745D01*
X181441107Y-84034750D01*
X181421815Y-84008738D01*
X181405166Y-83980961D01*
X181391320Y-83951686D01*
X181380410Y-83921194D01*
X181372541Y-83889780D01*
X181367789Y-83857746D01*
X181366200Y-83825400D01*
X181366200Y-82335400D01*
X181367789Y-82303054D01*
X181372541Y-82271020D01*
X181380410Y-82239606D01*
X181391320Y-82209114D01*
X181405166Y-82179839D01*
X181421815Y-82152062D01*
X181441107Y-82126050D01*
X181462855Y-82102055D01*
X181486850Y-82080307D01*
X181512862Y-82061015D01*
X181540639Y-82044366D01*
X181569914Y-82030520D01*
X181600406Y-82019610D01*
X181631820Y-82011741D01*
X181663854Y-82006989D01*
X181696200Y-82005400D01*
X182686200Y-82005400D01*
X182718546Y-82006989D01*
X182718546Y-82006989D01*
G37*
D25*
X182191200Y-83080400D03*
G04 #@! TD*
D31*
G04 #@! TO.C,L1*
X184726400Y-88442800D03*
X187096400Y-88442800D03*
G04 #@! TD*
D32*
G04 #@! TO.C,O1*
X162574000Y-73033000D03*
X160574000Y-73033000D03*
X158574000Y-73033000D03*
X156574000Y-73033000D03*
X154574000Y-73033000D03*
X152574000Y-73033000D03*
X150574000Y-73033000D03*
X148574000Y-73033000D03*
X146574000Y-73033000D03*
X144574000Y-73033000D03*
X142574000Y-73033000D03*
X140574000Y-73033000D03*
X138574000Y-73033000D03*
X136574000Y-73033000D03*
X134574000Y-73033000D03*
X132574000Y-73033000D03*
X162574000Y-48633000D03*
X160574000Y-48633000D03*
X158574000Y-48633000D03*
X156574000Y-48633000D03*
X154574000Y-48633000D03*
X152574000Y-48633000D03*
X150574000Y-48633000D03*
X148574000Y-48633000D03*
X146574000Y-48633000D03*
X144574000Y-48633000D03*
X142574000Y-48633000D03*
X140574000Y-48633000D03*
X138574000Y-48633000D03*
X136574000Y-48633000D03*
X134574000Y-48633000D03*
X132574000Y-48633000D03*
G04 #@! TD*
D10*
G04 #@! TO.C,R3*
G36*
X183509493Y-97319735D02*
X183540435Y-97324325D01*
X183570778Y-97331925D01*
X183600230Y-97342463D01*
X183628508Y-97355838D01*
X183655338Y-97371919D01*
X183680463Y-97390553D01*
X183703640Y-97411560D01*
X183724647Y-97434737D01*
X183743281Y-97459862D01*
X183759362Y-97486692D01*
X183772737Y-97514970D01*
X183783275Y-97544422D01*
X183790875Y-97574765D01*
X183795465Y-97605707D01*
X183797000Y-97636950D01*
X183797000Y-98349450D01*
X183795465Y-98380693D01*
X183790875Y-98411635D01*
X183783275Y-98441978D01*
X183772737Y-98471430D01*
X183759362Y-98499708D01*
X183743281Y-98526538D01*
X183724647Y-98551663D01*
X183703640Y-98574840D01*
X183680463Y-98595847D01*
X183655338Y-98614481D01*
X183628508Y-98630562D01*
X183600230Y-98643937D01*
X183570778Y-98654475D01*
X183540435Y-98662075D01*
X183509493Y-98666665D01*
X183478250Y-98668200D01*
X182840750Y-98668200D01*
X182809507Y-98666665D01*
X182778565Y-98662075D01*
X182748222Y-98654475D01*
X182718770Y-98643937D01*
X182690492Y-98630562D01*
X182663662Y-98614481D01*
X182638537Y-98595847D01*
X182615360Y-98574840D01*
X182594353Y-98551663D01*
X182575719Y-98526538D01*
X182559638Y-98499708D01*
X182546263Y-98471430D01*
X182535725Y-98441978D01*
X182528125Y-98411635D01*
X182523535Y-98380693D01*
X182522000Y-98349450D01*
X182522000Y-97636950D01*
X182523535Y-97605707D01*
X182528125Y-97574765D01*
X182535725Y-97544422D01*
X182546263Y-97514970D01*
X182559638Y-97486692D01*
X182575719Y-97459862D01*
X182594353Y-97434737D01*
X182615360Y-97411560D01*
X182638537Y-97390553D01*
X182663662Y-97371919D01*
X182690492Y-97355838D01*
X182718770Y-97342463D01*
X182748222Y-97331925D01*
X182778565Y-97324325D01*
X182809507Y-97319735D01*
X182840750Y-97318200D01*
X183478250Y-97318200D01*
X183509493Y-97319735D01*
X183509493Y-97319735D01*
G37*
D17*
X183159500Y-97993200D03*
D10*
G36*
X181934493Y-97319735D02*
X181965435Y-97324325D01*
X181995778Y-97331925D01*
X182025230Y-97342463D01*
X182053508Y-97355838D01*
X182080338Y-97371919D01*
X182105463Y-97390553D01*
X182128640Y-97411560D01*
X182149647Y-97434737D01*
X182168281Y-97459862D01*
X182184362Y-97486692D01*
X182197737Y-97514970D01*
X182208275Y-97544422D01*
X182215875Y-97574765D01*
X182220465Y-97605707D01*
X182222000Y-97636950D01*
X182222000Y-98349450D01*
X182220465Y-98380693D01*
X182215875Y-98411635D01*
X182208275Y-98441978D01*
X182197737Y-98471430D01*
X182184362Y-98499708D01*
X182168281Y-98526538D01*
X182149647Y-98551663D01*
X182128640Y-98574840D01*
X182105463Y-98595847D01*
X182080338Y-98614481D01*
X182053508Y-98630562D01*
X182025230Y-98643937D01*
X181995778Y-98654475D01*
X181965435Y-98662075D01*
X181934493Y-98666665D01*
X181903250Y-98668200D01*
X181265750Y-98668200D01*
X181234507Y-98666665D01*
X181203565Y-98662075D01*
X181173222Y-98654475D01*
X181143770Y-98643937D01*
X181115492Y-98630562D01*
X181088662Y-98614481D01*
X181063537Y-98595847D01*
X181040360Y-98574840D01*
X181019353Y-98551663D01*
X181000719Y-98526538D01*
X180984638Y-98499708D01*
X180971263Y-98471430D01*
X180960725Y-98441978D01*
X180953125Y-98411635D01*
X180948535Y-98380693D01*
X180947000Y-98349450D01*
X180947000Y-97636950D01*
X180948535Y-97605707D01*
X180953125Y-97574765D01*
X180960725Y-97544422D01*
X180971263Y-97514970D01*
X180984638Y-97486692D01*
X181000719Y-97459862D01*
X181019353Y-97434737D01*
X181040360Y-97411560D01*
X181063537Y-97390553D01*
X181088662Y-97371919D01*
X181115492Y-97355838D01*
X181143770Y-97342463D01*
X181173222Y-97331925D01*
X181203565Y-97324325D01*
X181234507Y-97319735D01*
X181265750Y-97318200D01*
X181903250Y-97318200D01*
X181934493Y-97319735D01*
X181934493Y-97319735D01*
G37*
D17*
X181584500Y-97993200D03*
G04 #@! TD*
D10*
G04 #@! TO.C,R4*
G36*
X183534793Y-95694135D02*
X183565735Y-95698725D01*
X183596078Y-95706325D01*
X183625530Y-95716863D01*
X183653808Y-95730238D01*
X183680638Y-95746319D01*
X183705763Y-95764953D01*
X183728940Y-95785960D01*
X183749947Y-95809137D01*
X183768581Y-95834262D01*
X183784662Y-95861092D01*
X183798037Y-95889370D01*
X183808575Y-95918822D01*
X183816175Y-95949165D01*
X183820765Y-95980107D01*
X183822300Y-96011350D01*
X183822300Y-96723850D01*
X183820765Y-96755093D01*
X183816175Y-96786035D01*
X183808575Y-96816378D01*
X183798037Y-96845830D01*
X183784662Y-96874108D01*
X183768581Y-96900938D01*
X183749947Y-96926063D01*
X183728940Y-96949240D01*
X183705763Y-96970247D01*
X183680638Y-96988881D01*
X183653808Y-97004962D01*
X183625530Y-97018337D01*
X183596078Y-97028875D01*
X183565735Y-97036475D01*
X183534793Y-97041065D01*
X183503550Y-97042600D01*
X182866050Y-97042600D01*
X182834807Y-97041065D01*
X182803865Y-97036475D01*
X182773522Y-97028875D01*
X182744070Y-97018337D01*
X182715792Y-97004962D01*
X182688962Y-96988881D01*
X182663837Y-96970247D01*
X182640660Y-96949240D01*
X182619653Y-96926063D01*
X182601019Y-96900938D01*
X182584938Y-96874108D01*
X182571563Y-96845830D01*
X182561025Y-96816378D01*
X182553425Y-96786035D01*
X182548835Y-96755093D01*
X182547300Y-96723850D01*
X182547300Y-96011350D01*
X182548835Y-95980107D01*
X182553425Y-95949165D01*
X182561025Y-95918822D01*
X182571563Y-95889370D01*
X182584938Y-95861092D01*
X182601019Y-95834262D01*
X182619653Y-95809137D01*
X182640660Y-95785960D01*
X182663837Y-95764953D01*
X182688962Y-95746319D01*
X182715792Y-95730238D01*
X182744070Y-95716863D01*
X182773522Y-95706325D01*
X182803865Y-95698725D01*
X182834807Y-95694135D01*
X182866050Y-95692600D01*
X183503550Y-95692600D01*
X183534793Y-95694135D01*
X183534793Y-95694135D01*
G37*
D17*
X183184800Y-96367600D03*
D10*
G36*
X181959793Y-95694135D02*
X181990735Y-95698725D01*
X182021078Y-95706325D01*
X182050530Y-95716863D01*
X182078808Y-95730238D01*
X182105638Y-95746319D01*
X182130763Y-95764953D01*
X182153940Y-95785960D01*
X182174947Y-95809137D01*
X182193581Y-95834262D01*
X182209662Y-95861092D01*
X182223037Y-95889370D01*
X182233575Y-95918822D01*
X182241175Y-95949165D01*
X182245765Y-95980107D01*
X182247300Y-96011350D01*
X182247300Y-96723850D01*
X182245765Y-96755093D01*
X182241175Y-96786035D01*
X182233575Y-96816378D01*
X182223037Y-96845830D01*
X182209662Y-96874108D01*
X182193581Y-96900938D01*
X182174947Y-96926063D01*
X182153940Y-96949240D01*
X182130763Y-96970247D01*
X182105638Y-96988881D01*
X182078808Y-97004962D01*
X182050530Y-97018337D01*
X182021078Y-97028875D01*
X181990735Y-97036475D01*
X181959793Y-97041065D01*
X181928550Y-97042600D01*
X181291050Y-97042600D01*
X181259807Y-97041065D01*
X181228865Y-97036475D01*
X181198522Y-97028875D01*
X181169070Y-97018337D01*
X181140792Y-97004962D01*
X181113962Y-96988881D01*
X181088837Y-96970247D01*
X181065660Y-96949240D01*
X181044653Y-96926063D01*
X181026019Y-96900938D01*
X181009938Y-96874108D01*
X180996563Y-96845830D01*
X180986025Y-96816378D01*
X180978425Y-96786035D01*
X180973835Y-96755093D01*
X180972300Y-96723850D01*
X180972300Y-96011350D01*
X180973835Y-95980107D01*
X180978425Y-95949165D01*
X180986025Y-95918822D01*
X180996563Y-95889370D01*
X181009938Y-95861092D01*
X181026019Y-95834262D01*
X181044653Y-95809137D01*
X181065660Y-95785960D01*
X181088837Y-95764953D01*
X181113962Y-95746319D01*
X181140792Y-95730238D01*
X181169070Y-95716863D01*
X181198522Y-95706325D01*
X181228865Y-95698725D01*
X181259807Y-95694135D01*
X181291050Y-95692600D01*
X181928550Y-95692600D01*
X181959793Y-95694135D01*
X181959793Y-95694135D01*
G37*
D17*
X181609800Y-96367600D03*
G04 #@! TD*
D10*
G04 #@! TO.C,R6*
G36*
X164256093Y-76872735D02*
X164287035Y-76877325D01*
X164317378Y-76884925D01*
X164346830Y-76895463D01*
X164375108Y-76908838D01*
X164401938Y-76924919D01*
X164427063Y-76943553D01*
X164450240Y-76964560D01*
X164471247Y-76987737D01*
X164489881Y-77012862D01*
X164505962Y-77039692D01*
X164519337Y-77067970D01*
X164529875Y-77097422D01*
X164537475Y-77127765D01*
X164542065Y-77158707D01*
X164543600Y-77189950D01*
X164543600Y-77902450D01*
X164542065Y-77933693D01*
X164537475Y-77964635D01*
X164529875Y-77994978D01*
X164519337Y-78024430D01*
X164505962Y-78052708D01*
X164489881Y-78079538D01*
X164471247Y-78104663D01*
X164450240Y-78127840D01*
X164427063Y-78148847D01*
X164401938Y-78167481D01*
X164375108Y-78183562D01*
X164346830Y-78196937D01*
X164317378Y-78207475D01*
X164287035Y-78215075D01*
X164256093Y-78219665D01*
X164224850Y-78221200D01*
X163587350Y-78221200D01*
X163556107Y-78219665D01*
X163525165Y-78215075D01*
X163494822Y-78207475D01*
X163465370Y-78196937D01*
X163437092Y-78183562D01*
X163410262Y-78167481D01*
X163385137Y-78148847D01*
X163361960Y-78127840D01*
X163340953Y-78104663D01*
X163322319Y-78079538D01*
X163306238Y-78052708D01*
X163292863Y-78024430D01*
X163282325Y-77994978D01*
X163274725Y-77964635D01*
X163270135Y-77933693D01*
X163268600Y-77902450D01*
X163268600Y-77189950D01*
X163270135Y-77158707D01*
X163274725Y-77127765D01*
X163282325Y-77097422D01*
X163292863Y-77067970D01*
X163306238Y-77039692D01*
X163322319Y-77012862D01*
X163340953Y-76987737D01*
X163361960Y-76964560D01*
X163385137Y-76943553D01*
X163410262Y-76924919D01*
X163437092Y-76908838D01*
X163465370Y-76895463D01*
X163494822Y-76884925D01*
X163525165Y-76877325D01*
X163556107Y-76872735D01*
X163587350Y-76871200D01*
X164224850Y-76871200D01*
X164256093Y-76872735D01*
X164256093Y-76872735D01*
G37*
D17*
X163906100Y-77546200D03*
D10*
G36*
X165831093Y-76872735D02*
X165862035Y-76877325D01*
X165892378Y-76884925D01*
X165921830Y-76895463D01*
X165950108Y-76908838D01*
X165976938Y-76924919D01*
X166002063Y-76943553D01*
X166025240Y-76964560D01*
X166046247Y-76987737D01*
X166064881Y-77012862D01*
X166080962Y-77039692D01*
X166094337Y-77067970D01*
X166104875Y-77097422D01*
X166112475Y-77127765D01*
X166117065Y-77158707D01*
X166118600Y-77189950D01*
X166118600Y-77902450D01*
X166117065Y-77933693D01*
X166112475Y-77964635D01*
X166104875Y-77994978D01*
X166094337Y-78024430D01*
X166080962Y-78052708D01*
X166064881Y-78079538D01*
X166046247Y-78104663D01*
X166025240Y-78127840D01*
X166002063Y-78148847D01*
X165976938Y-78167481D01*
X165950108Y-78183562D01*
X165921830Y-78196937D01*
X165892378Y-78207475D01*
X165862035Y-78215075D01*
X165831093Y-78219665D01*
X165799850Y-78221200D01*
X165162350Y-78221200D01*
X165131107Y-78219665D01*
X165100165Y-78215075D01*
X165069822Y-78207475D01*
X165040370Y-78196937D01*
X165012092Y-78183562D01*
X164985262Y-78167481D01*
X164960137Y-78148847D01*
X164936960Y-78127840D01*
X164915953Y-78104663D01*
X164897319Y-78079538D01*
X164881238Y-78052708D01*
X164867863Y-78024430D01*
X164857325Y-77994978D01*
X164849725Y-77964635D01*
X164845135Y-77933693D01*
X164843600Y-77902450D01*
X164843600Y-77189950D01*
X164845135Y-77158707D01*
X164849725Y-77127765D01*
X164857325Y-77097422D01*
X164867863Y-77067970D01*
X164881238Y-77039692D01*
X164897319Y-77012862D01*
X164915953Y-76987737D01*
X164936960Y-76964560D01*
X164960137Y-76943553D01*
X164985262Y-76924919D01*
X165012092Y-76908838D01*
X165040370Y-76895463D01*
X165069822Y-76884925D01*
X165100165Y-76877325D01*
X165131107Y-76872735D01*
X165162350Y-76871200D01*
X165799850Y-76871200D01*
X165831093Y-76872735D01*
X165831093Y-76872735D01*
G37*
D17*
X165481100Y-77546200D03*
G04 #@! TD*
D10*
G04 #@! TO.C,R8*
G36*
X125724493Y-113385235D02*
X125755435Y-113389825D01*
X125785778Y-113397425D01*
X125815230Y-113407963D01*
X125843508Y-113421338D01*
X125870338Y-113437419D01*
X125895463Y-113456053D01*
X125918640Y-113477060D01*
X125939647Y-113500237D01*
X125958281Y-113525362D01*
X125974362Y-113552192D01*
X125987737Y-113580470D01*
X125998275Y-113609922D01*
X126005875Y-113640265D01*
X126010465Y-113671207D01*
X126012000Y-113702450D01*
X126012000Y-114414950D01*
X126010465Y-114446193D01*
X126005875Y-114477135D01*
X125998275Y-114507478D01*
X125987737Y-114536930D01*
X125974362Y-114565208D01*
X125958281Y-114592038D01*
X125939647Y-114617163D01*
X125918640Y-114640340D01*
X125895463Y-114661347D01*
X125870338Y-114679981D01*
X125843508Y-114696062D01*
X125815230Y-114709437D01*
X125785778Y-114719975D01*
X125755435Y-114727575D01*
X125724493Y-114732165D01*
X125693250Y-114733700D01*
X125055750Y-114733700D01*
X125024507Y-114732165D01*
X124993565Y-114727575D01*
X124963222Y-114719975D01*
X124933770Y-114709437D01*
X124905492Y-114696062D01*
X124878662Y-114679981D01*
X124853537Y-114661347D01*
X124830360Y-114640340D01*
X124809353Y-114617163D01*
X124790719Y-114592038D01*
X124774638Y-114565208D01*
X124761263Y-114536930D01*
X124750725Y-114507478D01*
X124743125Y-114477135D01*
X124738535Y-114446193D01*
X124737000Y-114414950D01*
X124737000Y-113702450D01*
X124738535Y-113671207D01*
X124743125Y-113640265D01*
X124750725Y-113609922D01*
X124761263Y-113580470D01*
X124774638Y-113552192D01*
X124790719Y-113525362D01*
X124809353Y-113500237D01*
X124830360Y-113477060D01*
X124853537Y-113456053D01*
X124878662Y-113437419D01*
X124905492Y-113421338D01*
X124933770Y-113407963D01*
X124963222Y-113397425D01*
X124993565Y-113389825D01*
X125024507Y-113385235D01*
X125055750Y-113383700D01*
X125693250Y-113383700D01*
X125724493Y-113385235D01*
X125724493Y-113385235D01*
G37*
D17*
X125374500Y-114058700D03*
D10*
G36*
X124149493Y-113385235D02*
X124180435Y-113389825D01*
X124210778Y-113397425D01*
X124240230Y-113407963D01*
X124268508Y-113421338D01*
X124295338Y-113437419D01*
X124320463Y-113456053D01*
X124343640Y-113477060D01*
X124364647Y-113500237D01*
X124383281Y-113525362D01*
X124399362Y-113552192D01*
X124412737Y-113580470D01*
X124423275Y-113609922D01*
X124430875Y-113640265D01*
X124435465Y-113671207D01*
X124437000Y-113702450D01*
X124437000Y-114414950D01*
X124435465Y-114446193D01*
X124430875Y-114477135D01*
X124423275Y-114507478D01*
X124412737Y-114536930D01*
X124399362Y-114565208D01*
X124383281Y-114592038D01*
X124364647Y-114617163D01*
X124343640Y-114640340D01*
X124320463Y-114661347D01*
X124295338Y-114679981D01*
X124268508Y-114696062D01*
X124240230Y-114709437D01*
X124210778Y-114719975D01*
X124180435Y-114727575D01*
X124149493Y-114732165D01*
X124118250Y-114733700D01*
X123480750Y-114733700D01*
X123449507Y-114732165D01*
X123418565Y-114727575D01*
X123388222Y-114719975D01*
X123358770Y-114709437D01*
X123330492Y-114696062D01*
X123303662Y-114679981D01*
X123278537Y-114661347D01*
X123255360Y-114640340D01*
X123234353Y-114617163D01*
X123215719Y-114592038D01*
X123199638Y-114565208D01*
X123186263Y-114536930D01*
X123175725Y-114507478D01*
X123168125Y-114477135D01*
X123163535Y-114446193D01*
X123162000Y-114414950D01*
X123162000Y-113702450D01*
X123163535Y-113671207D01*
X123168125Y-113640265D01*
X123175725Y-113609922D01*
X123186263Y-113580470D01*
X123199638Y-113552192D01*
X123215719Y-113525362D01*
X123234353Y-113500237D01*
X123255360Y-113477060D01*
X123278537Y-113456053D01*
X123303662Y-113437419D01*
X123330492Y-113421338D01*
X123358770Y-113407963D01*
X123388222Y-113397425D01*
X123418565Y-113389825D01*
X123449507Y-113385235D01*
X123480750Y-113383700D01*
X124118250Y-113383700D01*
X124149493Y-113385235D01*
X124149493Y-113385235D01*
G37*
D17*
X123799500Y-114058700D03*
G04 #@! TD*
D10*
G04 #@! TO.C,R9*
G36*
X125724393Y-114960035D02*
X125755335Y-114964625D01*
X125785678Y-114972225D01*
X125815130Y-114982763D01*
X125843408Y-114996138D01*
X125870238Y-115012219D01*
X125895363Y-115030853D01*
X125918540Y-115051860D01*
X125939547Y-115075037D01*
X125958181Y-115100162D01*
X125974262Y-115126992D01*
X125987637Y-115155270D01*
X125998175Y-115184722D01*
X126005775Y-115215065D01*
X126010365Y-115246007D01*
X126011900Y-115277250D01*
X126011900Y-115989750D01*
X126010365Y-116020993D01*
X126005775Y-116051935D01*
X125998175Y-116082278D01*
X125987637Y-116111730D01*
X125974262Y-116140008D01*
X125958181Y-116166838D01*
X125939547Y-116191963D01*
X125918540Y-116215140D01*
X125895363Y-116236147D01*
X125870238Y-116254781D01*
X125843408Y-116270862D01*
X125815130Y-116284237D01*
X125785678Y-116294775D01*
X125755335Y-116302375D01*
X125724393Y-116306965D01*
X125693150Y-116308500D01*
X125055650Y-116308500D01*
X125024407Y-116306965D01*
X124993465Y-116302375D01*
X124963122Y-116294775D01*
X124933670Y-116284237D01*
X124905392Y-116270862D01*
X124878562Y-116254781D01*
X124853437Y-116236147D01*
X124830260Y-116215140D01*
X124809253Y-116191963D01*
X124790619Y-116166838D01*
X124774538Y-116140008D01*
X124761163Y-116111730D01*
X124750625Y-116082278D01*
X124743025Y-116051935D01*
X124738435Y-116020993D01*
X124736900Y-115989750D01*
X124736900Y-115277250D01*
X124738435Y-115246007D01*
X124743025Y-115215065D01*
X124750625Y-115184722D01*
X124761163Y-115155270D01*
X124774538Y-115126992D01*
X124790619Y-115100162D01*
X124809253Y-115075037D01*
X124830260Y-115051860D01*
X124853437Y-115030853D01*
X124878562Y-115012219D01*
X124905392Y-114996138D01*
X124933670Y-114982763D01*
X124963122Y-114972225D01*
X124993465Y-114964625D01*
X125024407Y-114960035D01*
X125055650Y-114958500D01*
X125693150Y-114958500D01*
X125724393Y-114960035D01*
X125724393Y-114960035D01*
G37*
D17*
X125374400Y-115633500D03*
D10*
G36*
X124149393Y-114960035D02*
X124180335Y-114964625D01*
X124210678Y-114972225D01*
X124240130Y-114982763D01*
X124268408Y-114996138D01*
X124295238Y-115012219D01*
X124320363Y-115030853D01*
X124343540Y-115051860D01*
X124364547Y-115075037D01*
X124383181Y-115100162D01*
X124399262Y-115126992D01*
X124412637Y-115155270D01*
X124423175Y-115184722D01*
X124430775Y-115215065D01*
X124435365Y-115246007D01*
X124436900Y-115277250D01*
X124436900Y-115989750D01*
X124435365Y-116020993D01*
X124430775Y-116051935D01*
X124423175Y-116082278D01*
X124412637Y-116111730D01*
X124399262Y-116140008D01*
X124383181Y-116166838D01*
X124364547Y-116191963D01*
X124343540Y-116215140D01*
X124320363Y-116236147D01*
X124295238Y-116254781D01*
X124268408Y-116270862D01*
X124240130Y-116284237D01*
X124210678Y-116294775D01*
X124180335Y-116302375D01*
X124149393Y-116306965D01*
X124118150Y-116308500D01*
X123480650Y-116308500D01*
X123449407Y-116306965D01*
X123418465Y-116302375D01*
X123388122Y-116294775D01*
X123358670Y-116284237D01*
X123330392Y-116270862D01*
X123303562Y-116254781D01*
X123278437Y-116236147D01*
X123255260Y-116215140D01*
X123234253Y-116191963D01*
X123215619Y-116166838D01*
X123199538Y-116140008D01*
X123186163Y-116111730D01*
X123175625Y-116082278D01*
X123168025Y-116051935D01*
X123163435Y-116020993D01*
X123161900Y-115989750D01*
X123161900Y-115277250D01*
X123163435Y-115246007D01*
X123168025Y-115215065D01*
X123175625Y-115184722D01*
X123186163Y-115155270D01*
X123199538Y-115126992D01*
X123215619Y-115100162D01*
X123234253Y-115075037D01*
X123255260Y-115051860D01*
X123278437Y-115030853D01*
X123303562Y-115012219D01*
X123330392Y-114996138D01*
X123358670Y-114982763D01*
X123388122Y-114972225D01*
X123418465Y-114964625D01*
X123449407Y-114960035D01*
X123480650Y-114958500D01*
X124118150Y-114958500D01*
X124149393Y-114960035D01*
X124149393Y-114960035D01*
G37*
D17*
X123799400Y-115633500D03*
G04 #@! TD*
D10*
G04 #@! TO.C,R14*
G36*
X116592493Y-94842835D02*
X116623435Y-94847425D01*
X116653778Y-94855025D01*
X116683230Y-94865563D01*
X116711508Y-94878938D01*
X116738338Y-94895019D01*
X116763463Y-94913653D01*
X116786640Y-94934660D01*
X116807647Y-94957837D01*
X116826281Y-94982962D01*
X116842362Y-95009792D01*
X116855737Y-95038070D01*
X116866275Y-95067522D01*
X116873875Y-95097865D01*
X116878465Y-95128807D01*
X116880000Y-95160050D01*
X116880000Y-95797550D01*
X116878465Y-95828793D01*
X116873875Y-95859735D01*
X116866275Y-95890078D01*
X116855737Y-95919530D01*
X116842362Y-95947808D01*
X116826281Y-95974638D01*
X116807647Y-95999763D01*
X116786640Y-96022940D01*
X116763463Y-96043947D01*
X116738338Y-96062581D01*
X116711508Y-96078662D01*
X116683230Y-96092037D01*
X116653778Y-96102575D01*
X116623435Y-96110175D01*
X116592493Y-96114765D01*
X116561250Y-96116300D01*
X115848750Y-96116300D01*
X115817507Y-96114765D01*
X115786565Y-96110175D01*
X115756222Y-96102575D01*
X115726770Y-96092037D01*
X115698492Y-96078662D01*
X115671662Y-96062581D01*
X115646537Y-96043947D01*
X115623360Y-96022940D01*
X115602353Y-95999763D01*
X115583719Y-95974638D01*
X115567638Y-95947808D01*
X115554263Y-95919530D01*
X115543725Y-95890078D01*
X115536125Y-95859735D01*
X115531535Y-95828793D01*
X115530000Y-95797550D01*
X115530000Y-95160050D01*
X115531535Y-95128807D01*
X115536125Y-95097865D01*
X115543725Y-95067522D01*
X115554263Y-95038070D01*
X115567638Y-95009792D01*
X115583719Y-94982962D01*
X115602353Y-94957837D01*
X115623360Y-94934660D01*
X115646537Y-94913653D01*
X115671662Y-94895019D01*
X115698492Y-94878938D01*
X115726770Y-94865563D01*
X115756222Y-94855025D01*
X115786565Y-94847425D01*
X115817507Y-94842835D01*
X115848750Y-94841300D01*
X116561250Y-94841300D01*
X116592493Y-94842835D01*
X116592493Y-94842835D01*
G37*
D17*
X116205000Y-95478800D03*
D10*
G36*
X116592493Y-93267835D02*
X116623435Y-93272425D01*
X116653778Y-93280025D01*
X116683230Y-93290563D01*
X116711508Y-93303938D01*
X116738338Y-93320019D01*
X116763463Y-93338653D01*
X116786640Y-93359660D01*
X116807647Y-93382837D01*
X116826281Y-93407962D01*
X116842362Y-93434792D01*
X116855737Y-93463070D01*
X116866275Y-93492522D01*
X116873875Y-93522865D01*
X116878465Y-93553807D01*
X116880000Y-93585050D01*
X116880000Y-94222550D01*
X116878465Y-94253793D01*
X116873875Y-94284735D01*
X116866275Y-94315078D01*
X116855737Y-94344530D01*
X116842362Y-94372808D01*
X116826281Y-94399638D01*
X116807647Y-94424763D01*
X116786640Y-94447940D01*
X116763463Y-94468947D01*
X116738338Y-94487581D01*
X116711508Y-94503662D01*
X116683230Y-94517037D01*
X116653778Y-94527575D01*
X116623435Y-94535175D01*
X116592493Y-94539765D01*
X116561250Y-94541300D01*
X115848750Y-94541300D01*
X115817507Y-94539765D01*
X115786565Y-94535175D01*
X115756222Y-94527575D01*
X115726770Y-94517037D01*
X115698492Y-94503662D01*
X115671662Y-94487581D01*
X115646537Y-94468947D01*
X115623360Y-94447940D01*
X115602353Y-94424763D01*
X115583719Y-94399638D01*
X115567638Y-94372808D01*
X115554263Y-94344530D01*
X115543725Y-94315078D01*
X115536125Y-94284735D01*
X115531535Y-94253793D01*
X115530000Y-94222550D01*
X115530000Y-93585050D01*
X115531535Y-93553807D01*
X115536125Y-93522865D01*
X115543725Y-93492522D01*
X115554263Y-93463070D01*
X115567638Y-93434792D01*
X115583719Y-93407962D01*
X115602353Y-93382837D01*
X115623360Y-93359660D01*
X115646537Y-93338653D01*
X115671662Y-93320019D01*
X115698492Y-93303938D01*
X115726770Y-93290563D01*
X115756222Y-93280025D01*
X115786565Y-93272425D01*
X115817507Y-93267835D01*
X115848750Y-93266300D01*
X116561250Y-93266300D01*
X116592493Y-93267835D01*
X116592493Y-93267835D01*
G37*
D17*
X116205000Y-93903800D03*
G04 #@! TD*
D10*
G04 #@! TO.C,R15*
G36*
X122929793Y-94842635D02*
X122960735Y-94847225D01*
X122991078Y-94854825D01*
X123020530Y-94865363D01*
X123048808Y-94878738D01*
X123075638Y-94894819D01*
X123100763Y-94913453D01*
X123123940Y-94934460D01*
X123144947Y-94957637D01*
X123163581Y-94982762D01*
X123179662Y-95009592D01*
X123193037Y-95037870D01*
X123203575Y-95067322D01*
X123211175Y-95097665D01*
X123215765Y-95128607D01*
X123217300Y-95159850D01*
X123217300Y-95797350D01*
X123215765Y-95828593D01*
X123211175Y-95859535D01*
X123203575Y-95889878D01*
X123193037Y-95919330D01*
X123179662Y-95947608D01*
X123163581Y-95974438D01*
X123144947Y-95999563D01*
X123123940Y-96022740D01*
X123100763Y-96043747D01*
X123075638Y-96062381D01*
X123048808Y-96078462D01*
X123020530Y-96091837D01*
X122991078Y-96102375D01*
X122960735Y-96109975D01*
X122929793Y-96114565D01*
X122898550Y-96116100D01*
X122186050Y-96116100D01*
X122154807Y-96114565D01*
X122123865Y-96109975D01*
X122093522Y-96102375D01*
X122064070Y-96091837D01*
X122035792Y-96078462D01*
X122008962Y-96062381D01*
X121983837Y-96043747D01*
X121960660Y-96022740D01*
X121939653Y-95999563D01*
X121921019Y-95974438D01*
X121904938Y-95947608D01*
X121891563Y-95919330D01*
X121881025Y-95889878D01*
X121873425Y-95859535D01*
X121868835Y-95828593D01*
X121867300Y-95797350D01*
X121867300Y-95159850D01*
X121868835Y-95128607D01*
X121873425Y-95097665D01*
X121881025Y-95067322D01*
X121891563Y-95037870D01*
X121904938Y-95009592D01*
X121921019Y-94982762D01*
X121939653Y-94957637D01*
X121960660Y-94934460D01*
X121983837Y-94913453D01*
X122008962Y-94894819D01*
X122035792Y-94878738D01*
X122064070Y-94865363D01*
X122093522Y-94854825D01*
X122123865Y-94847225D01*
X122154807Y-94842635D01*
X122186050Y-94841100D01*
X122898550Y-94841100D01*
X122929793Y-94842635D01*
X122929793Y-94842635D01*
G37*
D17*
X122542300Y-95478600D03*
D10*
G36*
X122929793Y-93267635D02*
X122960735Y-93272225D01*
X122991078Y-93279825D01*
X123020530Y-93290363D01*
X123048808Y-93303738D01*
X123075638Y-93319819D01*
X123100763Y-93338453D01*
X123123940Y-93359460D01*
X123144947Y-93382637D01*
X123163581Y-93407762D01*
X123179662Y-93434592D01*
X123193037Y-93462870D01*
X123203575Y-93492322D01*
X123211175Y-93522665D01*
X123215765Y-93553607D01*
X123217300Y-93584850D01*
X123217300Y-94222350D01*
X123215765Y-94253593D01*
X123211175Y-94284535D01*
X123203575Y-94314878D01*
X123193037Y-94344330D01*
X123179662Y-94372608D01*
X123163581Y-94399438D01*
X123144947Y-94424563D01*
X123123940Y-94447740D01*
X123100763Y-94468747D01*
X123075638Y-94487381D01*
X123048808Y-94503462D01*
X123020530Y-94516837D01*
X122991078Y-94527375D01*
X122960735Y-94534975D01*
X122929793Y-94539565D01*
X122898550Y-94541100D01*
X122186050Y-94541100D01*
X122154807Y-94539565D01*
X122123865Y-94534975D01*
X122093522Y-94527375D01*
X122064070Y-94516837D01*
X122035792Y-94503462D01*
X122008962Y-94487381D01*
X121983837Y-94468747D01*
X121960660Y-94447740D01*
X121939653Y-94424563D01*
X121921019Y-94399438D01*
X121904938Y-94372608D01*
X121891563Y-94344330D01*
X121881025Y-94314878D01*
X121873425Y-94284535D01*
X121868835Y-94253593D01*
X121867300Y-94222350D01*
X121867300Y-93584850D01*
X121868835Y-93553607D01*
X121873425Y-93522665D01*
X121881025Y-93492322D01*
X121891563Y-93462870D01*
X121904938Y-93434592D01*
X121921019Y-93407762D01*
X121939653Y-93382637D01*
X121960660Y-93359460D01*
X121983837Y-93338453D01*
X122008962Y-93319819D01*
X122035792Y-93303738D01*
X122064070Y-93290363D01*
X122093522Y-93279825D01*
X122123865Y-93272225D01*
X122154807Y-93267635D01*
X122186050Y-93266100D01*
X122898550Y-93266100D01*
X122929793Y-93267635D01*
X122929793Y-93267635D01*
G37*
D17*
X122542300Y-93903600D03*
G04 #@! TD*
D10*
G04 #@! TO.C,R16*
G36*
X143681993Y-45529135D02*
X143712935Y-45533725D01*
X143743278Y-45541325D01*
X143772730Y-45551863D01*
X143801008Y-45565238D01*
X143827838Y-45581319D01*
X143852963Y-45599953D01*
X143876140Y-45620960D01*
X143897147Y-45644137D01*
X143915781Y-45669262D01*
X143931862Y-45696092D01*
X143945237Y-45724370D01*
X143955775Y-45753822D01*
X143963375Y-45784165D01*
X143967965Y-45815107D01*
X143969500Y-45846350D01*
X143969500Y-46558850D01*
X143967965Y-46590093D01*
X143963375Y-46621035D01*
X143955775Y-46651378D01*
X143945237Y-46680830D01*
X143931862Y-46709108D01*
X143915781Y-46735938D01*
X143897147Y-46761063D01*
X143876140Y-46784240D01*
X143852963Y-46805247D01*
X143827838Y-46823881D01*
X143801008Y-46839962D01*
X143772730Y-46853337D01*
X143743278Y-46863875D01*
X143712935Y-46871475D01*
X143681993Y-46876065D01*
X143650750Y-46877600D01*
X143013250Y-46877600D01*
X142982007Y-46876065D01*
X142951065Y-46871475D01*
X142920722Y-46863875D01*
X142891270Y-46853337D01*
X142862992Y-46839962D01*
X142836162Y-46823881D01*
X142811037Y-46805247D01*
X142787860Y-46784240D01*
X142766853Y-46761063D01*
X142748219Y-46735938D01*
X142732138Y-46709108D01*
X142718763Y-46680830D01*
X142708225Y-46651378D01*
X142700625Y-46621035D01*
X142696035Y-46590093D01*
X142694500Y-46558850D01*
X142694500Y-45846350D01*
X142696035Y-45815107D01*
X142700625Y-45784165D01*
X142708225Y-45753822D01*
X142718763Y-45724370D01*
X142732138Y-45696092D01*
X142748219Y-45669262D01*
X142766853Y-45644137D01*
X142787860Y-45620960D01*
X142811037Y-45599953D01*
X142836162Y-45581319D01*
X142862992Y-45565238D01*
X142891270Y-45551863D01*
X142920722Y-45541325D01*
X142951065Y-45533725D01*
X142982007Y-45529135D01*
X143013250Y-45527600D01*
X143650750Y-45527600D01*
X143681993Y-45529135D01*
X143681993Y-45529135D01*
G37*
D17*
X143332000Y-46202600D03*
D10*
G36*
X145256993Y-45529135D02*
X145287935Y-45533725D01*
X145318278Y-45541325D01*
X145347730Y-45551863D01*
X145376008Y-45565238D01*
X145402838Y-45581319D01*
X145427963Y-45599953D01*
X145451140Y-45620960D01*
X145472147Y-45644137D01*
X145490781Y-45669262D01*
X145506862Y-45696092D01*
X145520237Y-45724370D01*
X145530775Y-45753822D01*
X145538375Y-45784165D01*
X145542965Y-45815107D01*
X145544500Y-45846350D01*
X145544500Y-46558850D01*
X145542965Y-46590093D01*
X145538375Y-46621035D01*
X145530775Y-46651378D01*
X145520237Y-46680830D01*
X145506862Y-46709108D01*
X145490781Y-46735938D01*
X145472147Y-46761063D01*
X145451140Y-46784240D01*
X145427963Y-46805247D01*
X145402838Y-46823881D01*
X145376008Y-46839962D01*
X145347730Y-46853337D01*
X145318278Y-46863875D01*
X145287935Y-46871475D01*
X145256993Y-46876065D01*
X145225750Y-46877600D01*
X144588250Y-46877600D01*
X144557007Y-46876065D01*
X144526065Y-46871475D01*
X144495722Y-46863875D01*
X144466270Y-46853337D01*
X144437992Y-46839962D01*
X144411162Y-46823881D01*
X144386037Y-46805247D01*
X144362860Y-46784240D01*
X144341853Y-46761063D01*
X144323219Y-46735938D01*
X144307138Y-46709108D01*
X144293763Y-46680830D01*
X144283225Y-46651378D01*
X144275625Y-46621035D01*
X144271035Y-46590093D01*
X144269500Y-46558850D01*
X144269500Y-45846350D01*
X144271035Y-45815107D01*
X144275625Y-45784165D01*
X144283225Y-45753822D01*
X144293763Y-45724370D01*
X144307138Y-45696092D01*
X144323219Y-45669262D01*
X144341853Y-45644137D01*
X144362860Y-45620960D01*
X144386037Y-45599953D01*
X144411162Y-45581319D01*
X144437992Y-45565238D01*
X144466270Y-45551863D01*
X144495722Y-45541325D01*
X144526065Y-45533725D01*
X144557007Y-45529135D01*
X144588250Y-45527600D01*
X145225750Y-45527600D01*
X145256993Y-45529135D01*
X145256993Y-45529135D01*
G37*
D17*
X144907000Y-46202600D03*
G04 #@! TD*
D10*
G04 #@! TO.C,R17*
G36*
X153588393Y-45478335D02*
X153619335Y-45482925D01*
X153649678Y-45490525D01*
X153679130Y-45501063D01*
X153707408Y-45514438D01*
X153734238Y-45530519D01*
X153759363Y-45549153D01*
X153782540Y-45570160D01*
X153803547Y-45593337D01*
X153822181Y-45618462D01*
X153838262Y-45645292D01*
X153851637Y-45673570D01*
X153862175Y-45703022D01*
X153869775Y-45733365D01*
X153874365Y-45764307D01*
X153875900Y-45795550D01*
X153875900Y-46508050D01*
X153874365Y-46539293D01*
X153869775Y-46570235D01*
X153862175Y-46600578D01*
X153851637Y-46630030D01*
X153838262Y-46658308D01*
X153822181Y-46685138D01*
X153803547Y-46710263D01*
X153782540Y-46733440D01*
X153759363Y-46754447D01*
X153734238Y-46773081D01*
X153707408Y-46789162D01*
X153679130Y-46802537D01*
X153649678Y-46813075D01*
X153619335Y-46820675D01*
X153588393Y-46825265D01*
X153557150Y-46826800D01*
X152919650Y-46826800D01*
X152888407Y-46825265D01*
X152857465Y-46820675D01*
X152827122Y-46813075D01*
X152797670Y-46802537D01*
X152769392Y-46789162D01*
X152742562Y-46773081D01*
X152717437Y-46754447D01*
X152694260Y-46733440D01*
X152673253Y-46710263D01*
X152654619Y-46685138D01*
X152638538Y-46658308D01*
X152625163Y-46630030D01*
X152614625Y-46600578D01*
X152607025Y-46570235D01*
X152602435Y-46539293D01*
X152600900Y-46508050D01*
X152600900Y-45795550D01*
X152602435Y-45764307D01*
X152607025Y-45733365D01*
X152614625Y-45703022D01*
X152625163Y-45673570D01*
X152638538Y-45645292D01*
X152654619Y-45618462D01*
X152673253Y-45593337D01*
X152694260Y-45570160D01*
X152717437Y-45549153D01*
X152742562Y-45530519D01*
X152769392Y-45514438D01*
X152797670Y-45501063D01*
X152827122Y-45490525D01*
X152857465Y-45482925D01*
X152888407Y-45478335D01*
X152919650Y-45476800D01*
X153557150Y-45476800D01*
X153588393Y-45478335D01*
X153588393Y-45478335D01*
G37*
D17*
X153238400Y-46151800D03*
D10*
G36*
X152013393Y-45478335D02*
X152044335Y-45482925D01*
X152074678Y-45490525D01*
X152104130Y-45501063D01*
X152132408Y-45514438D01*
X152159238Y-45530519D01*
X152184363Y-45549153D01*
X152207540Y-45570160D01*
X152228547Y-45593337D01*
X152247181Y-45618462D01*
X152263262Y-45645292D01*
X152276637Y-45673570D01*
X152287175Y-45703022D01*
X152294775Y-45733365D01*
X152299365Y-45764307D01*
X152300900Y-45795550D01*
X152300900Y-46508050D01*
X152299365Y-46539293D01*
X152294775Y-46570235D01*
X152287175Y-46600578D01*
X152276637Y-46630030D01*
X152263262Y-46658308D01*
X152247181Y-46685138D01*
X152228547Y-46710263D01*
X152207540Y-46733440D01*
X152184363Y-46754447D01*
X152159238Y-46773081D01*
X152132408Y-46789162D01*
X152104130Y-46802537D01*
X152074678Y-46813075D01*
X152044335Y-46820675D01*
X152013393Y-46825265D01*
X151982150Y-46826800D01*
X151344650Y-46826800D01*
X151313407Y-46825265D01*
X151282465Y-46820675D01*
X151252122Y-46813075D01*
X151222670Y-46802537D01*
X151194392Y-46789162D01*
X151167562Y-46773081D01*
X151142437Y-46754447D01*
X151119260Y-46733440D01*
X151098253Y-46710263D01*
X151079619Y-46685138D01*
X151063538Y-46658308D01*
X151050163Y-46630030D01*
X151039625Y-46600578D01*
X151032025Y-46570235D01*
X151027435Y-46539293D01*
X151025900Y-46508050D01*
X151025900Y-45795550D01*
X151027435Y-45764307D01*
X151032025Y-45733365D01*
X151039625Y-45703022D01*
X151050163Y-45673570D01*
X151063538Y-45645292D01*
X151079619Y-45618462D01*
X151098253Y-45593337D01*
X151119260Y-45570160D01*
X151142437Y-45549153D01*
X151167562Y-45530519D01*
X151194392Y-45514438D01*
X151222670Y-45501063D01*
X151252122Y-45490525D01*
X151282465Y-45482925D01*
X151313407Y-45478335D01*
X151344650Y-45476800D01*
X151982150Y-45476800D01*
X152013393Y-45478335D01*
X152013393Y-45478335D01*
G37*
D17*
X151663400Y-46151800D03*
G04 #@! TD*
D10*
G04 #@! TO.C,R18*
G36*
X155188193Y-45478335D02*
X155219135Y-45482925D01*
X155249478Y-45490525D01*
X155278930Y-45501063D01*
X155307208Y-45514438D01*
X155334038Y-45530519D01*
X155359163Y-45549153D01*
X155382340Y-45570160D01*
X155403347Y-45593337D01*
X155421981Y-45618462D01*
X155438062Y-45645292D01*
X155451437Y-45673570D01*
X155461975Y-45703022D01*
X155469575Y-45733365D01*
X155474165Y-45764307D01*
X155475700Y-45795550D01*
X155475700Y-46508050D01*
X155474165Y-46539293D01*
X155469575Y-46570235D01*
X155461975Y-46600578D01*
X155451437Y-46630030D01*
X155438062Y-46658308D01*
X155421981Y-46685138D01*
X155403347Y-46710263D01*
X155382340Y-46733440D01*
X155359163Y-46754447D01*
X155334038Y-46773081D01*
X155307208Y-46789162D01*
X155278930Y-46802537D01*
X155249478Y-46813075D01*
X155219135Y-46820675D01*
X155188193Y-46825265D01*
X155156950Y-46826800D01*
X154519450Y-46826800D01*
X154488207Y-46825265D01*
X154457265Y-46820675D01*
X154426922Y-46813075D01*
X154397470Y-46802537D01*
X154369192Y-46789162D01*
X154342362Y-46773081D01*
X154317237Y-46754447D01*
X154294060Y-46733440D01*
X154273053Y-46710263D01*
X154254419Y-46685138D01*
X154238338Y-46658308D01*
X154224963Y-46630030D01*
X154214425Y-46600578D01*
X154206825Y-46570235D01*
X154202235Y-46539293D01*
X154200700Y-46508050D01*
X154200700Y-45795550D01*
X154202235Y-45764307D01*
X154206825Y-45733365D01*
X154214425Y-45703022D01*
X154224963Y-45673570D01*
X154238338Y-45645292D01*
X154254419Y-45618462D01*
X154273053Y-45593337D01*
X154294060Y-45570160D01*
X154317237Y-45549153D01*
X154342362Y-45530519D01*
X154369192Y-45514438D01*
X154397470Y-45501063D01*
X154426922Y-45490525D01*
X154457265Y-45482925D01*
X154488207Y-45478335D01*
X154519450Y-45476800D01*
X155156950Y-45476800D01*
X155188193Y-45478335D01*
X155188193Y-45478335D01*
G37*
D17*
X154838200Y-46151800D03*
D10*
G36*
X156763193Y-45478335D02*
X156794135Y-45482925D01*
X156824478Y-45490525D01*
X156853930Y-45501063D01*
X156882208Y-45514438D01*
X156909038Y-45530519D01*
X156934163Y-45549153D01*
X156957340Y-45570160D01*
X156978347Y-45593337D01*
X156996981Y-45618462D01*
X157013062Y-45645292D01*
X157026437Y-45673570D01*
X157036975Y-45703022D01*
X157044575Y-45733365D01*
X157049165Y-45764307D01*
X157050700Y-45795550D01*
X157050700Y-46508050D01*
X157049165Y-46539293D01*
X157044575Y-46570235D01*
X157036975Y-46600578D01*
X157026437Y-46630030D01*
X157013062Y-46658308D01*
X156996981Y-46685138D01*
X156978347Y-46710263D01*
X156957340Y-46733440D01*
X156934163Y-46754447D01*
X156909038Y-46773081D01*
X156882208Y-46789162D01*
X156853930Y-46802537D01*
X156824478Y-46813075D01*
X156794135Y-46820675D01*
X156763193Y-46825265D01*
X156731950Y-46826800D01*
X156094450Y-46826800D01*
X156063207Y-46825265D01*
X156032265Y-46820675D01*
X156001922Y-46813075D01*
X155972470Y-46802537D01*
X155944192Y-46789162D01*
X155917362Y-46773081D01*
X155892237Y-46754447D01*
X155869060Y-46733440D01*
X155848053Y-46710263D01*
X155829419Y-46685138D01*
X155813338Y-46658308D01*
X155799963Y-46630030D01*
X155789425Y-46600578D01*
X155781825Y-46570235D01*
X155777235Y-46539293D01*
X155775700Y-46508050D01*
X155775700Y-45795550D01*
X155777235Y-45764307D01*
X155781825Y-45733365D01*
X155789425Y-45703022D01*
X155799963Y-45673570D01*
X155813338Y-45645292D01*
X155829419Y-45618462D01*
X155848053Y-45593337D01*
X155869060Y-45570160D01*
X155892237Y-45549153D01*
X155917362Y-45530519D01*
X155944192Y-45514438D01*
X155972470Y-45501063D01*
X156001922Y-45490525D01*
X156032265Y-45482925D01*
X156063207Y-45478335D01*
X156094450Y-45476800D01*
X156731950Y-45476800D01*
X156763193Y-45478335D01*
X156763193Y-45478335D01*
G37*
D17*
X156413200Y-46151800D03*
G04 #@! TD*
D10*
G04 #@! TO.C,R19*
G36*
X157816593Y-57936535D02*
X157847535Y-57941125D01*
X157877878Y-57948725D01*
X157907330Y-57959263D01*
X157935608Y-57972638D01*
X157962438Y-57988719D01*
X157987563Y-58007353D01*
X158010740Y-58028360D01*
X158031747Y-58051537D01*
X158050381Y-58076662D01*
X158066462Y-58103492D01*
X158079837Y-58131770D01*
X158090375Y-58161222D01*
X158097975Y-58191565D01*
X158102565Y-58222507D01*
X158104100Y-58253750D01*
X158104100Y-58891250D01*
X158102565Y-58922493D01*
X158097975Y-58953435D01*
X158090375Y-58983778D01*
X158079837Y-59013230D01*
X158066462Y-59041508D01*
X158050381Y-59068338D01*
X158031747Y-59093463D01*
X158010740Y-59116640D01*
X157987563Y-59137647D01*
X157962438Y-59156281D01*
X157935608Y-59172362D01*
X157907330Y-59185737D01*
X157877878Y-59196275D01*
X157847535Y-59203875D01*
X157816593Y-59208465D01*
X157785350Y-59210000D01*
X157072850Y-59210000D01*
X157041607Y-59208465D01*
X157010665Y-59203875D01*
X156980322Y-59196275D01*
X156950870Y-59185737D01*
X156922592Y-59172362D01*
X156895762Y-59156281D01*
X156870637Y-59137647D01*
X156847460Y-59116640D01*
X156826453Y-59093463D01*
X156807819Y-59068338D01*
X156791738Y-59041508D01*
X156778363Y-59013230D01*
X156767825Y-58983778D01*
X156760225Y-58953435D01*
X156755635Y-58922493D01*
X156754100Y-58891250D01*
X156754100Y-58253750D01*
X156755635Y-58222507D01*
X156760225Y-58191565D01*
X156767825Y-58161222D01*
X156778363Y-58131770D01*
X156791738Y-58103492D01*
X156807819Y-58076662D01*
X156826453Y-58051537D01*
X156847460Y-58028360D01*
X156870637Y-58007353D01*
X156895762Y-57988719D01*
X156922592Y-57972638D01*
X156950870Y-57959263D01*
X156980322Y-57948725D01*
X157010665Y-57941125D01*
X157041607Y-57936535D01*
X157072850Y-57935000D01*
X157785350Y-57935000D01*
X157816593Y-57936535D01*
X157816593Y-57936535D01*
G37*
D17*
X157429100Y-58572500D03*
D10*
G36*
X157816593Y-56361535D02*
X157847535Y-56366125D01*
X157877878Y-56373725D01*
X157907330Y-56384263D01*
X157935608Y-56397638D01*
X157962438Y-56413719D01*
X157987563Y-56432353D01*
X158010740Y-56453360D01*
X158031747Y-56476537D01*
X158050381Y-56501662D01*
X158066462Y-56528492D01*
X158079837Y-56556770D01*
X158090375Y-56586222D01*
X158097975Y-56616565D01*
X158102565Y-56647507D01*
X158104100Y-56678750D01*
X158104100Y-57316250D01*
X158102565Y-57347493D01*
X158097975Y-57378435D01*
X158090375Y-57408778D01*
X158079837Y-57438230D01*
X158066462Y-57466508D01*
X158050381Y-57493338D01*
X158031747Y-57518463D01*
X158010740Y-57541640D01*
X157987563Y-57562647D01*
X157962438Y-57581281D01*
X157935608Y-57597362D01*
X157907330Y-57610737D01*
X157877878Y-57621275D01*
X157847535Y-57628875D01*
X157816593Y-57633465D01*
X157785350Y-57635000D01*
X157072850Y-57635000D01*
X157041607Y-57633465D01*
X157010665Y-57628875D01*
X156980322Y-57621275D01*
X156950870Y-57610737D01*
X156922592Y-57597362D01*
X156895762Y-57581281D01*
X156870637Y-57562647D01*
X156847460Y-57541640D01*
X156826453Y-57518463D01*
X156807819Y-57493338D01*
X156791738Y-57466508D01*
X156778363Y-57438230D01*
X156767825Y-57408778D01*
X156760225Y-57378435D01*
X156755635Y-57347493D01*
X156754100Y-57316250D01*
X156754100Y-56678750D01*
X156755635Y-56647507D01*
X156760225Y-56616565D01*
X156767825Y-56586222D01*
X156778363Y-56556770D01*
X156791738Y-56528492D01*
X156807819Y-56501662D01*
X156826453Y-56476537D01*
X156847460Y-56453360D01*
X156870637Y-56432353D01*
X156895762Y-56413719D01*
X156922592Y-56397638D01*
X156950870Y-56384263D01*
X156980322Y-56373725D01*
X157010665Y-56366125D01*
X157041607Y-56361535D01*
X157072850Y-56360000D01*
X157785350Y-56360000D01*
X157816593Y-56361535D01*
X157816593Y-56361535D01*
G37*
D17*
X157429100Y-56997500D03*
G04 #@! TD*
D10*
G04 #@! TO.C,R20*
G36*
X174060593Y-65036335D02*
X174091535Y-65040925D01*
X174121878Y-65048525D01*
X174151330Y-65059063D01*
X174179608Y-65072438D01*
X174206438Y-65088519D01*
X174231563Y-65107153D01*
X174254740Y-65128160D01*
X174275747Y-65151337D01*
X174294381Y-65176462D01*
X174310462Y-65203292D01*
X174323837Y-65231570D01*
X174334375Y-65261022D01*
X174341975Y-65291365D01*
X174346565Y-65322307D01*
X174348100Y-65353550D01*
X174348100Y-66066050D01*
X174346565Y-66097293D01*
X174341975Y-66128235D01*
X174334375Y-66158578D01*
X174323837Y-66188030D01*
X174310462Y-66216308D01*
X174294381Y-66243138D01*
X174275747Y-66268263D01*
X174254740Y-66291440D01*
X174231563Y-66312447D01*
X174206438Y-66331081D01*
X174179608Y-66347162D01*
X174151330Y-66360537D01*
X174121878Y-66371075D01*
X174091535Y-66378675D01*
X174060593Y-66383265D01*
X174029350Y-66384800D01*
X173391850Y-66384800D01*
X173360607Y-66383265D01*
X173329665Y-66378675D01*
X173299322Y-66371075D01*
X173269870Y-66360537D01*
X173241592Y-66347162D01*
X173214762Y-66331081D01*
X173189637Y-66312447D01*
X173166460Y-66291440D01*
X173145453Y-66268263D01*
X173126819Y-66243138D01*
X173110738Y-66216308D01*
X173097363Y-66188030D01*
X173086825Y-66158578D01*
X173079225Y-66128235D01*
X173074635Y-66097293D01*
X173073100Y-66066050D01*
X173073100Y-65353550D01*
X173074635Y-65322307D01*
X173079225Y-65291365D01*
X173086825Y-65261022D01*
X173097363Y-65231570D01*
X173110738Y-65203292D01*
X173126819Y-65176462D01*
X173145453Y-65151337D01*
X173166460Y-65128160D01*
X173189637Y-65107153D01*
X173214762Y-65088519D01*
X173241592Y-65072438D01*
X173269870Y-65059063D01*
X173299322Y-65048525D01*
X173329665Y-65040925D01*
X173360607Y-65036335D01*
X173391850Y-65034800D01*
X174029350Y-65034800D01*
X174060593Y-65036335D01*
X174060593Y-65036335D01*
G37*
D17*
X173710600Y-65709800D03*
D10*
G36*
X172485593Y-65036335D02*
X172516535Y-65040925D01*
X172546878Y-65048525D01*
X172576330Y-65059063D01*
X172604608Y-65072438D01*
X172631438Y-65088519D01*
X172656563Y-65107153D01*
X172679740Y-65128160D01*
X172700747Y-65151337D01*
X172719381Y-65176462D01*
X172735462Y-65203292D01*
X172748837Y-65231570D01*
X172759375Y-65261022D01*
X172766975Y-65291365D01*
X172771565Y-65322307D01*
X172773100Y-65353550D01*
X172773100Y-66066050D01*
X172771565Y-66097293D01*
X172766975Y-66128235D01*
X172759375Y-66158578D01*
X172748837Y-66188030D01*
X172735462Y-66216308D01*
X172719381Y-66243138D01*
X172700747Y-66268263D01*
X172679740Y-66291440D01*
X172656563Y-66312447D01*
X172631438Y-66331081D01*
X172604608Y-66347162D01*
X172576330Y-66360537D01*
X172546878Y-66371075D01*
X172516535Y-66378675D01*
X172485593Y-66383265D01*
X172454350Y-66384800D01*
X171816850Y-66384800D01*
X171785607Y-66383265D01*
X171754665Y-66378675D01*
X171724322Y-66371075D01*
X171694870Y-66360537D01*
X171666592Y-66347162D01*
X171639762Y-66331081D01*
X171614637Y-66312447D01*
X171591460Y-66291440D01*
X171570453Y-66268263D01*
X171551819Y-66243138D01*
X171535738Y-66216308D01*
X171522363Y-66188030D01*
X171511825Y-66158578D01*
X171504225Y-66128235D01*
X171499635Y-66097293D01*
X171498100Y-66066050D01*
X171498100Y-65353550D01*
X171499635Y-65322307D01*
X171504225Y-65291365D01*
X171511825Y-65261022D01*
X171522363Y-65231570D01*
X171535738Y-65203292D01*
X171551819Y-65176462D01*
X171570453Y-65151337D01*
X171591460Y-65128160D01*
X171614637Y-65107153D01*
X171639762Y-65088519D01*
X171666592Y-65072438D01*
X171694870Y-65059063D01*
X171724322Y-65048525D01*
X171754665Y-65040925D01*
X171785607Y-65036335D01*
X171816850Y-65034800D01*
X172454350Y-65034800D01*
X172485593Y-65036335D01*
X172485593Y-65036335D01*
G37*
D17*
X172135600Y-65709800D03*
G04 #@! TD*
D10*
G04 #@! TO.C,R21*
G36*
X172485593Y-66661935D02*
X172516535Y-66666525D01*
X172546878Y-66674125D01*
X172576330Y-66684663D01*
X172604608Y-66698038D01*
X172631438Y-66714119D01*
X172656563Y-66732753D01*
X172679740Y-66753760D01*
X172700747Y-66776937D01*
X172719381Y-66802062D01*
X172735462Y-66828892D01*
X172748837Y-66857170D01*
X172759375Y-66886622D01*
X172766975Y-66916965D01*
X172771565Y-66947907D01*
X172773100Y-66979150D01*
X172773100Y-67691650D01*
X172771565Y-67722893D01*
X172766975Y-67753835D01*
X172759375Y-67784178D01*
X172748837Y-67813630D01*
X172735462Y-67841908D01*
X172719381Y-67868738D01*
X172700747Y-67893863D01*
X172679740Y-67917040D01*
X172656563Y-67938047D01*
X172631438Y-67956681D01*
X172604608Y-67972762D01*
X172576330Y-67986137D01*
X172546878Y-67996675D01*
X172516535Y-68004275D01*
X172485593Y-68008865D01*
X172454350Y-68010400D01*
X171816850Y-68010400D01*
X171785607Y-68008865D01*
X171754665Y-68004275D01*
X171724322Y-67996675D01*
X171694870Y-67986137D01*
X171666592Y-67972762D01*
X171639762Y-67956681D01*
X171614637Y-67938047D01*
X171591460Y-67917040D01*
X171570453Y-67893863D01*
X171551819Y-67868738D01*
X171535738Y-67841908D01*
X171522363Y-67813630D01*
X171511825Y-67784178D01*
X171504225Y-67753835D01*
X171499635Y-67722893D01*
X171498100Y-67691650D01*
X171498100Y-66979150D01*
X171499635Y-66947907D01*
X171504225Y-66916965D01*
X171511825Y-66886622D01*
X171522363Y-66857170D01*
X171535738Y-66828892D01*
X171551819Y-66802062D01*
X171570453Y-66776937D01*
X171591460Y-66753760D01*
X171614637Y-66732753D01*
X171639762Y-66714119D01*
X171666592Y-66698038D01*
X171694870Y-66684663D01*
X171724322Y-66674125D01*
X171754665Y-66666525D01*
X171785607Y-66661935D01*
X171816850Y-66660400D01*
X172454350Y-66660400D01*
X172485593Y-66661935D01*
X172485593Y-66661935D01*
G37*
D17*
X172135600Y-67335400D03*
D10*
G36*
X174060593Y-66661935D02*
X174091535Y-66666525D01*
X174121878Y-66674125D01*
X174151330Y-66684663D01*
X174179608Y-66698038D01*
X174206438Y-66714119D01*
X174231563Y-66732753D01*
X174254740Y-66753760D01*
X174275747Y-66776937D01*
X174294381Y-66802062D01*
X174310462Y-66828892D01*
X174323837Y-66857170D01*
X174334375Y-66886622D01*
X174341975Y-66916965D01*
X174346565Y-66947907D01*
X174348100Y-66979150D01*
X174348100Y-67691650D01*
X174346565Y-67722893D01*
X174341975Y-67753835D01*
X174334375Y-67784178D01*
X174323837Y-67813630D01*
X174310462Y-67841908D01*
X174294381Y-67868738D01*
X174275747Y-67893863D01*
X174254740Y-67917040D01*
X174231563Y-67938047D01*
X174206438Y-67956681D01*
X174179608Y-67972762D01*
X174151330Y-67986137D01*
X174121878Y-67996675D01*
X174091535Y-68004275D01*
X174060593Y-68008865D01*
X174029350Y-68010400D01*
X173391850Y-68010400D01*
X173360607Y-68008865D01*
X173329665Y-68004275D01*
X173299322Y-67996675D01*
X173269870Y-67986137D01*
X173241592Y-67972762D01*
X173214762Y-67956681D01*
X173189637Y-67938047D01*
X173166460Y-67917040D01*
X173145453Y-67893863D01*
X173126819Y-67868738D01*
X173110738Y-67841908D01*
X173097363Y-67813630D01*
X173086825Y-67784178D01*
X173079225Y-67753835D01*
X173074635Y-67722893D01*
X173073100Y-67691650D01*
X173073100Y-66979150D01*
X173074635Y-66947907D01*
X173079225Y-66916965D01*
X173086825Y-66886622D01*
X173097363Y-66857170D01*
X173110738Y-66828892D01*
X173126819Y-66802062D01*
X173145453Y-66776937D01*
X173166460Y-66753760D01*
X173189637Y-66732753D01*
X173214762Y-66714119D01*
X173241592Y-66698038D01*
X173269870Y-66684663D01*
X173299322Y-66674125D01*
X173329665Y-66666525D01*
X173360607Y-66661935D01*
X173391850Y-66660400D01*
X174029350Y-66660400D01*
X174060593Y-66661935D01*
X174060593Y-66661935D01*
G37*
D17*
X173710600Y-67335400D03*
G04 #@! TD*
D25*
G04 #@! TO.C,SW1*
X179171723Y-121514182D03*
D10*
G36*
X179399911Y-123166773D02*
X177634502Y-120866048D01*
X178943535Y-119861591D01*
X180708944Y-122162316D01*
X179399911Y-123166773D01*
X179399911Y-123166773D01*
G37*
D25*
X181155106Y-119992278D03*
D10*
G36*
X181383294Y-121644869D02*
X179617885Y-119344144D01*
X180926918Y-118339687D01*
X182692327Y-120640412D01*
X181383294Y-121644869D01*
X181383294Y-121644869D01*
G37*
D25*
X183138489Y-118470375D03*
D10*
G36*
X183366677Y-120122966D02*
X181601268Y-117822241D01*
X182910301Y-116817784D01*
X184675710Y-119118509D01*
X183366677Y-120122966D01*
X183366677Y-120122966D01*
G37*
D33*
X180131799Y-124243789D03*
X185526601Y-120104211D03*
G04 #@! TD*
D34*
G04 #@! TO.C,U2*
X183827600Y-94472800D03*
X183827600Y-93522800D03*
X183827600Y-92572800D03*
X181627600Y-92572800D03*
X181627600Y-94472800D03*
G04 #@! TD*
D35*
G04 #@! TO.C,U3*
X145475000Y-125130800D03*
X145975000Y-125130800D03*
X146475000Y-125130800D03*
X146975000Y-125130800D03*
X147475000Y-125130800D03*
X147975000Y-125130800D03*
X148475000Y-125130800D03*
X148975000Y-125130800D03*
X149475000Y-125130800D03*
X149975000Y-125130800D03*
X150475000Y-125130800D03*
X150975000Y-125130800D03*
X151475000Y-125130800D03*
X151975000Y-125130800D03*
X152475000Y-125130800D03*
X152975000Y-125130800D03*
D36*
X154925000Y-123180800D03*
X154925000Y-122680800D03*
X154925000Y-122180800D03*
X154925000Y-121680800D03*
X154925000Y-121180800D03*
X154925000Y-120680800D03*
X154925000Y-120180800D03*
X154925000Y-119680800D03*
X154925000Y-119180800D03*
X154925000Y-118680800D03*
X154925000Y-118180800D03*
X154925000Y-117680800D03*
X154925000Y-117180800D03*
X154925000Y-116680800D03*
X154925000Y-116180800D03*
X154925000Y-115680800D03*
D35*
X152975000Y-113730800D03*
X152475000Y-113730800D03*
X151975000Y-113730800D03*
X151475000Y-113730800D03*
X150975000Y-113730800D03*
X150475000Y-113730800D03*
X149975000Y-113730800D03*
X149475000Y-113730800D03*
X148975000Y-113730800D03*
X148475000Y-113730800D03*
X147975000Y-113730800D03*
X147475000Y-113730800D03*
X146975000Y-113730800D03*
X146475000Y-113730800D03*
X145975000Y-113730800D03*
X145475000Y-113730800D03*
D36*
X143525000Y-115680800D03*
X143525000Y-116180800D03*
X143525000Y-116680800D03*
X143525000Y-117180800D03*
X143525000Y-117680800D03*
X143525000Y-118180800D03*
X143525000Y-118680800D03*
X143525000Y-119180800D03*
X143525000Y-119680800D03*
X143525000Y-120180800D03*
X143525000Y-120680800D03*
X143525000Y-121180800D03*
X143525000Y-121680800D03*
X143525000Y-122180800D03*
X143525000Y-122680800D03*
X143525000Y-123180800D03*
G04 #@! TD*
D10*
G04 #@! TO.C,R22*
G36*
X190773893Y-102552135D02*
X190804835Y-102556725D01*
X190835178Y-102564325D01*
X190864630Y-102574863D01*
X190892908Y-102588238D01*
X190919738Y-102604319D01*
X190944863Y-102622953D01*
X190968040Y-102643960D01*
X190989047Y-102667137D01*
X191007681Y-102692262D01*
X191023762Y-102719092D01*
X191037137Y-102747370D01*
X191047675Y-102776822D01*
X191055275Y-102807165D01*
X191059865Y-102838107D01*
X191061400Y-102869350D01*
X191061400Y-103581850D01*
X191059865Y-103613093D01*
X191055275Y-103644035D01*
X191047675Y-103674378D01*
X191037137Y-103703830D01*
X191023762Y-103732108D01*
X191007681Y-103758938D01*
X190989047Y-103784063D01*
X190968040Y-103807240D01*
X190944863Y-103828247D01*
X190919738Y-103846881D01*
X190892908Y-103862962D01*
X190864630Y-103876337D01*
X190835178Y-103886875D01*
X190804835Y-103894475D01*
X190773893Y-103899065D01*
X190742650Y-103900600D01*
X190105150Y-103900600D01*
X190073907Y-103899065D01*
X190042965Y-103894475D01*
X190012622Y-103886875D01*
X189983170Y-103876337D01*
X189954892Y-103862962D01*
X189928062Y-103846881D01*
X189902937Y-103828247D01*
X189879760Y-103807240D01*
X189858753Y-103784063D01*
X189840119Y-103758938D01*
X189824038Y-103732108D01*
X189810663Y-103703830D01*
X189800125Y-103674378D01*
X189792525Y-103644035D01*
X189787935Y-103613093D01*
X189786400Y-103581850D01*
X189786400Y-102869350D01*
X189787935Y-102838107D01*
X189792525Y-102807165D01*
X189800125Y-102776822D01*
X189810663Y-102747370D01*
X189824038Y-102719092D01*
X189840119Y-102692262D01*
X189858753Y-102667137D01*
X189879760Y-102643960D01*
X189902937Y-102622953D01*
X189928062Y-102604319D01*
X189954892Y-102588238D01*
X189983170Y-102574863D01*
X190012622Y-102564325D01*
X190042965Y-102556725D01*
X190073907Y-102552135D01*
X190105150Y-102550600D01*
X190742650Y-102550600D01*
X190773893Y-102552135D01*
X190773893Y-102552135D01*
G37*
D17*
X190423900Y-103225600D03*
D10*
G36*
X189198893Y-102552135D02*
X189229835Y-102556725D01*
X189260178Y-102564325D01*
X189289630Y-102574863D01*
X189317908Y-102588238D01*
X189344738Y-102604319D01*
X189369863Y-102622953D01*
X189393040Y-102643960D01*
X189414047Y-102667137D01*
X189432681Y-102692262D01*
X189448762Y-102719092D01*
X189462137Y-102747370D01*
X189472675Y-102776822D01*
X189480275Y-102807165D01*
X189484865Y-102838107D01*
X189486400Y-102869350D01*
X189486400Y-103581850D01*
X189484865Y-103613093D01*
X189480275Y-103644035D01*
X189472675Y-103674378D01*
X189462137Y-103703830D01*
X189448762Y-103732108D01*
X189432681Y-103758938D01*
X189414047Y-103784063D01*
X189393040Y-103807240D01*
X189369863Y-103828247D01*
X189344738Y-103846881D01*
X189317908Y-103862962D01*
X189289630Y-103876337D01*
X189260178Y-103886875D01*
X189229835Y-103894475D01*
X189198893Y-103899065D01*
X189167650Y-103900600D01*
X188530150Y-103900600D01*
X188498907Y-103899065D01*
X188467965Y-103894475D01*
X188437622Y-103886875D01*
X188408170Y-103876337D01*
X188379892Y-103862962D01*
X188353062Y-103846881D01*
X188327937Y-103828247D01*
X188304760Y-103807240D01*
X188283753Y-103784063D01*
X188265119Y-103758938D01*
X188249038Y-103732108D01*
X188235663Y-103703830D01*
X188225125Y-103674378D01*
X188217525Y-103644035D01*
X188212935Y-103613093D01*
X188211400Y-103581850D01*
X188211400Y-102869350D01*
X188212935Y-102838107D01*
X188217525Y-102807165D01*
X188225125Y-102776822D01*
X188235663Y-102747370D01*
X188249038Y-102719092D01*
X188265119Y-102692262D01*
X188283753Y-102667137D01*
X188304760Y-102643960D01*
X188327937Y-102622953D01*
X188353062Y-102604319D01*
X188379892Y-102588238D01*
X188408170Y-102574863D01*
X188437622Y-102564325D01*
X188467965Y-102556725D01*
X188498907Y-102552135D01*
X188530150Y-102550600D01*
X189167650Y-102550600D01*
X189198893Y-102552135D01*
X189198893Y-102552135D01*
G37*
D17*
X188848900Y-103225600D03*
G04 #@! TD*
D10*
G04 #@! TO.C,R23*
G36*
X187331493Y-101040135D02*
X187362435Y-101044725D01*
X187392778Y-101052325D01*
X187422230Y-101062863D01*
X187450508Y-101076238D01*
X187477338Y-101092319D01*
X187502463Y-101110953D01*
X187525640Y-101131960D01*
X187546647Y-101155137D01*
X187565281Y-101180262D01*
X187581362Y-101207092D01*
X187594737Y-101235370D01*
X187605275Y-101264822D01*
X187612875Y-101295165D01*
X187617465Y-101326107D01*
X187619000Y-101357350D01*
X187619000Y-101994850D01*
X187617465Y-102026093D01*
X187612875Y-102057035D01*
X187605275Y-102087378D01*
X187594737Y-102116830D01*
X187581362Y-102145108D01*
X187565281Y-102171938D01*
X187546647Y-102197063D01*
X187525640Y-102220240D01*
X187502463Y-102241247D01*
X187477338Y-102259881D01*
X187450508Y-102275962D01*
X187422230Y-102289337D01*
X187392778Y-102299875D01*
X187362435Y-102307475D01*
X187331493Y-102312065D01*
X187300250Y-102313600D01*
X186587750Y-102313600D01*
X186556507Y-102312065D01*
X186525565Y-102307475D01*
X186495222Y-102299875D01*
X186465770Y-102289337D01*
X186437492Y-102275962D01*
X186410662Y-102259881D01*
X186385537Y-102241247D01*
X186362360Y-102220240D01*
X186341353Y-102197063D01*
X186322719Y-102171938D01*
X186306638Y-102145108D01*
X186293263Y-102116830D01*
X186282725Y-102087378D01*
X186275125Y-102057035D01*
X186270535Y-102026093D01*
X186269000Y-101994850D01*
X186269000Y-101357350D01*
X186270535Y-101326107D01*
X186275125Y-101295165D01*
X186282725Y-101264822D01*
X186293263Y-101235370D01*
X186306638Y-101207092D01*
X186322719Y-101180262D01*
X186341353Y-101155137D01*
X186362360Y-101131960D01*
X186385537Y-101110953D01*
X186410662Y-101092319D01*
X186437492Y-101076238D01*
X186465770Y-101062863D01*
X186495222Y-101052325D01*
X186525565Y-101044725D01*
X186556507Y-101040135D01*
X186587750Y-101038600D01*
X187300250Y-101038600D01*
X187331493Y-101040135D01*
X187331493Y-101040135D01*
G37*
D17*
X186944000Y-101676100D03*
D10*
G36*
X187331493Y-102615135D02*
X187362435Y-102619725D01*
X187392778Y-102627325D01*
X187422230Y-102637863D01*
X187450508Y-102651238D01*
X187477338Y-102667319D01*
X187502463Y-102685953D01*
X187525640Y-102706960D01*
X187546647Y-102730137D01*
X187565281Y-102755262D01*
X187581362Y-102782092D01*
X187594737Y-102810370D01*
X187605275Y-102839822D01*
X187612875Y-102870165D01*
X187617465Y-102901107D01*
X187619000Y-102932350D01*
X187619000Y-103569850D01*
X187617465Y-103601093D01*
X187612875Y-103632035D01*
X187605275Y-103662378D01*
X187594737Y-103691830D01*
X187581362Y-103720108D01*
X187565281Y-103746938D01*
X187546647Y-103772063D01*
X187525640Y-103795240D01*
X187502463Y-103816247D01*
X187477338Y-103834881D01*
X187450508Y-103850962D01*
X187422230Y-103864337D01*
X187392778Y-103874875D01*
X187362435Y-103882475D01*
X187331493Y-103887065D01*
X187300250Y-103888600D01*
X186587750Y-103888600D01*
X186556507Y-103887065D01*
X186525565Y-103882475D01*
X186495222Y-103874875D01*
X186465770Y-103864337D01*
X186437492Y-103850962D01*
X186410662Y-103834881D01*
X186385537Y-103816247D01*
X186362360Y-103795240D01*
X186341353Y-103772063D01*
X186322719Y-103746938D01*
X186306638Y-103720108D01*
X186293263Y-103691830D01*
X186282725Y-103662378D01*
X186275125Y-103632035D01*
X186270535Y-103601093D01*
X186269000Y-103569850D01*
X186269000Y-102932350D01*
X186270535Y-102901107D01*
X186275125Y-102870165D01*
X186282725Y-102839822D01*
X186293263Y-102810370D01*
X186306638Y-102782092D01*
X186322719Y-102755262D01*
X186341353Y-102730137D01*
X186362360Y-102706960D01*
X186385537Y-102685953D01*
X186410662Y-102667319D01*
X186437492Y-102651238D01*
X186465770Y-102637863D01*
X186495222Y-102627325D01*
X186525565Y-102619725D01*
X186556507Y-102615135D01*
X186587750Y-102613600D01*
X187300250Y-102613600D01*
X187331493Y-102615135D01*
X187331493Y-102615135D01*
G37*
D17*
X186944000Y-103251100D03*
G04 #@! TD*
D10*
G04 #@! TO.C,C21*
G36*
X157651693Y-118071035D02*
X157682635Y-118075625D01*
X157712978Y-118083225D01*
X157742430Y-118093763D01*
X157770708Y-118107138D01*
X157797538Y-118123219D01*
X157822663Y-118141853D01*
X157845840Y-118162860D01*
X157866847Y-118186037D01*
X157885481Y-118211162D01*
X157901562Y-118237992D01*
X157914937Y-118266270D01*
X157925475Y-118295722D01*
X157933075Y-118326065D01*
X157937665Y-118357007D01*
X157939200Y-118388250D01*
X157939200Y-119025750D01*
X157937665Y-119056993D01*
X157933075Y-119087935D01*
X157925475Y-119118278D01*
X157914937Y-119147730D01*
X157901562Y-119176008D01*
X157885481Y-119202838D01*
X157866847Y-119227963D01*
X157845840Y-119251140D01*
X157822663Y-119272147D01*
X157797538Y-119290781D01*
X157770708Y-119306862D01*
X157742430Y-119320237D01*
X157712978Y-119330775D01*
X157682635Y-119338375D01*
X157651693Y-119342965D01*
X157620450Y-119344500D01*
X156907950Y-119344500D01*
X156876707Y-119342965D01*
X156845765Y-119338375D01*
X156815422Y-119330775D01*
X156785970Y-119320237D01*
X156757692Y-119306862D01*
X156730862Y-119290781D01*
X156705737Y-119272147D01*
X156682560Y-119251140D01*
X156661553Y-119227963D01*
X156642919Y-119202838D01*
X156626838Y-119176008D01*
X156613463Y-119147730D01*
X156602925Y-119118278D01*
X156595325Y-119087935D01*
X156590735Y-119056993D01*
X156589200Y-119025750D01*
X156589200Y-118388250D01*
X156590735Y-118357007D01*
X156595325Y-118326065D01*
X156602925Y-118295722D01*
X156613463Y-118266270D01*
X156626838Y-118237992D01*
X156642919Y-118211162D01*
X156661553Y-118186037D01*
X156682560Y-118162860D01*
X156705737Y-118141853D01*
X156730862Y-118123219D01*
X156757692Y-118107138D01*
X156785970Y-118093763D01*
X156815422Y-118083225D01*
X156845765Y-118075625D01*
X156876707Y-118071035D01*
X156907950Y-118069500D01*
X157620450Y-118069500D01*
X157651693Y-118071035D01*
X157651693Y-118071035D01*
G37*
D17*
X157264200Y-118707000D03*
D10*
G36*
X157651693Y-116496035D02*
X157682635Y-116500625D01*
X157712978Y-116508225D01*
X157742430Y-116518763D01*
X157770708Y-116532138D01*
X157797538Y-116548219D01*
X157822663Y-116566853D01*
X157845840Y-116587860D01*
X157866847Y-116611037D01*
X157885481Y-116636162D01*
X157901562Y-116662992D01*
X157914937Y-116691270D01*
X157925475Y-116720722D01*
X157933075Y-116751065D01*
X157937665Y-116782007D01*
X157939200Y-116813250D01*
X157939200Y-117450750D01*
X157937665Y-117481993D01*
X157933075Y-117512935D01*
X157925475Y-117543278D01*
X157914937Y-117572730D01*
X157901562Y-117601008D01*
X157885481Y-117627838D01*
X157866847Y-117652963D01*
X157845840Y-117676140D01*
X157822663Y-117697147D01*
X157797538Y-117715781D01*
X157770708Y-117731862D01*
X157742430Y-117745237D01*
X157712978Y-117755775D01*
X157682635Y-117763375D01*
X157651693Y-117767965D01*
X157620450Y-117769500D01*
X156907950Y-117769500D01*
X156876707Y-117767965D01*
X156845765Y-117763375D01*
X156815422Y-117755775D01*
X156785970Y-117745237D01*
X156757692Y-117731862D01*
X156730862Y-117715781D01*
X156705737Y-117697147D01*
X156682560Y-117676140D01*
X156661553Y-117652963D01*
X156642919Y-117627838D01*
X156626838Y-117601008D01*
X156613463Y-117572730D01*
X156602925Y-117543278D01*
X156595325Y-117512935D01*
X156590735Y-117481993D01*
X156589200Y-117450750D01*
X156589200Y-116813250D01*
X156590735Y-116782007D01*
X156595325Y-116751065D01*
X156602925Y-116720722D01*
X156613463Y-116691270D01*
X156626838Y-116662992D01*
X156642919Y-116636162D01*
X156661553Y-116611037D01*
X156682560Y-116587860D01*
X156705737Y-116566853D01*
X156730862Y-116548219D01*
X156757692Y-116532138D01*
X156785970Y-116518763D01*
X156815422Y-116508225D01*
X156845765Y-116500625D01*
X156876707Y-116496035D01*
X156907950Y-116494500D01*
X157620450Y-116494500D01*
X157651693Y-116496035D01*
X157651693Y-116496035D01*
G37*
D17*
X157264200Y-117132000D03*
G04 #@! TD*
D10*
G04 #@! TO.C,C22*
G36*
X159226293Y-116483335D02*
X159257235Y-116487925D01*
X159287578Y-116495525D01*
X159317030Y-116506063D01*
X159345308Y-116519438D01*
X159372138Y-116535519D01*
X159397263Y-116554153D01*
X159420440Y-116575160D01*
X159441447Y-116598337D01*
X159460081Y-116623462D01*
X159476162Y-116650292D01*
X159489537Y-116678570D01*
X159500075Y-116708022D01*
X159507675Y-116738365D01*
X159512265Y-116769307D01*
X159513800Y-116800550D01*
X159513800Y-117438050D01*
X159512265Y-117469293D01*
X159507675Y-117500235D01*
X159500075Y-117530578D01*
X159489537Y-117560030D01*
X159476162Y-117588308D01*
X159460081Y-117615138D01*
X159441447Y-117640263D01*
X159420440Y-117663440D01*
X159397263Y-117684447D01*
X159372138Y-117703081D01*
X159345308Y-117719162D01*
X159317030Y-117732537D01*
X159287578Y-117743075D01*
X159257235Y-117750675D01*
X159226293Y-117755265D01*
X159195050Y-117756800D01*
X158482550Y-117756800D01*
X158451307Y-117755265D01*
X158420365Y-117750675D01*
X158390022Y-117743075D01*
X158360570Y-117732537D01*
X158332292Y-117719162D01*
X158305462Y-117703081D01*
X158280337Y-117684447D01*
X158257160Y-117663440D01*
X158236153Y-117640263D01*
X158217519Y-117615138D01*
X158201438Y-117588308D01*
X158188063Y-117560030D01*
X158177525Y-117530578D01*
X158169925Y-117500235D01*
X158165335Y-117469293D01*
X158163800Y-117438050D01*
X158163800Y-116800550D01*
X158165335Y-116769307D01*
X158169925Y-116738365D01*
X158177525Y-116708022D01*
X158188063Y-116678570D01*
X158201438Y-116650292D01*
X158217519Y-116623462D01*
X158236153Y-116598337D01*
X158257160Y-116575160D01*
X158280337Y-116554153D01*
X158305462Y-116535519D01*
X158332292Y-116519438D01*
X158360570Y-116506063D01*
X158390022Y-116495525D01*
X158420365Y-116487925D01*
X158451307Y-116483335D01*
X158482550Y-116481800D01*
X159195050Y-116481800D01*
X159226293Y-116483335D01*
X159226293Y-116483335D01*
G37*
D17*
X158838800Y-117119300D03*
D10*
G36*
X159226293Y-118058335D02*
X159257235Y-118062925D01*
X159287578Y-118070525D01*
X159317030Y-118081063D01*
X159345308Y-118094438D01*
X159372138Y-118110519D01*
X159397263Y-118129153D01*
X159420440Y-118150160D01*
X159441447Y-118173337D01*
X159460081Y-118198462D01*
X159476162Y-118225292D01*
X159489537Y-118253570D01*
X159500075Y-118283022D01*
X159507675Y-118313365D01*
X159512265Y-118344307D01*
X159513800Y-118375550D01*
X159513800Y-119013050D01*
X159512265Y-119044293D01*
X159507675Y-119075235D01*
X159500075Y-119105578D01*
X159489537Y-119135030D01*
X159476162Y-119163308D01*
X159460081Y-119190138D01*
X159441447Y-119215263D01*
X159420440Y-119238440D01*
X159397263Y-119259447D01*
X159372138Y-119278081D01*
X159345308Y-119294162D01*
X159317030Y-119307537D01*
X159287578Y-119318075D01*
X159257235Y-119325675D01*
X159226293Y-119330265D01*
X159195050Y-119331800D01*
X158482550Y-119331800D01*
X158451307Y-119330265D01*
X158420365Y-119325675D01*
X158390022Y-119318075D01*
X158360570Y-119307537D01*
X158332292Y-119294162D01*
X158305462Y-119278081D01*
X158280337Y-119259447D01*
X158257160Y-119238440D01*
X158236153Y-119215263D01*
X158217519Y-119190138D01*
X158201438Y-119163308D01*
X158188063Y-119135030D01*
X158177525Y-119105578D01*
X158169925Y-119075235D01*
X158165335Y-119044293D01*
X158163800Y-119013050D01*
X158163800Y-118375550D01*
X158165335Y-118344307D01*
X158169925Y-118313365D01*
X158177525Y-118283022D01*
X158188063Y-118253570D01*
X158201438Y-118225292D01*
X158217519Y-118198462D01*
X158236153Y-118173337D01*
X158257160Y-118150160D01*
X158280337Y-118129153D01*
X158305462Y-118110519D01*
X158332292Y-118094438D01*
X158360570Y-118081063D01*
X158390022Y-118070525D01*
X158420365Y-118062925D01*
X158451307Y-118058335D01*
X158482550Y-118056800D01*
X159195050Y-118056800D01*
X159226293Y-118058335D01*
X159226293Y-118058335D01*
G37*
D17*
X158838800Y-118694300D03*
G04 #@! TD*
D10*
G04 #@! TO.C,C23*
G36*
X157727793Y-114133935D02*
X157758735Y-114138525D01*
X157789078Y-114146125D01*
X157818530Y-114156663D01*
X157846808Y-114170038D01*
X157873638Y-114186119D01*
X157898763Y-114204753D01*
X157921940Y-114225760D01*
X157942947Y-114248937D01*
X157961581Y-114274062D01*
X157977662Y-114300892D01*
X157991037Y-114329170D01*
X158001575Y-114358622D01*
X158009175Y-114388965D01*
X158013765Y-114419907D01*
X158015300Y-114451150D01*
X158015300Y-115088650D01*
X158013765Y-115119893D01*
X158009175Y-115150835D01*
X158001575Y-115181178D01*
X157991037Y-115210630D01*
X157977662Y-115238908D01*
X157961581Y-115265738D01*
X157942947Y-115290863D01*
X157921940Y-115314040D01*
X157898763Y-115335047D01*
X157873638Y-115353681D01*
X157846808Y-115369762D01*
X157818530Y-115383137D01*
X157789078Y-115393675D01*
X157758735Y-115401275D01*
X157727793Y-115405865D01*
X157696550Y-115407400D01*
X156984050Y-115407400D01*
X156952807Y-115405865D01*
X156921865Y-115401275D01*
X156891522Y-115393675D01*
X156862070Y-115383137D01*
X156833792Y-115369762D01*
X156806962Y-115353681D01*
X156781837Y-115335047D01*
X156758660Y-115314040D01*
X156737653Y-115290863D01*
X156719019Y-115265738D01*
X156702938Y-115238908D01*
X156689563Y-115210630D01*
X156679025Y-115181178D01*
X156671425Y-115150835D01*
X156666835Y-115119893D01*
X156665300Y-115088650D01*
X156665300Y-114451150D01*
X156666835Y-114419907D01*
X156671425Y-114388965D01*
X156679025Y-114358622D01*
X156689563Y-114329170D01*
X156702938Y-114300892D01*
X156719019Y-114274062D01*
X156737653Y-114248937D01*
X156758660Y-114225760D01*
X156781837Y-114204753D01*
X156806962Y-114186119D01*
X156833792Y-114170038D01*
X156862070Y-114156663D01*
X156891522Y-114146125D01*
X156921865Y-114138525D01*
X156952807Y-114133935D01*
X156984050Y-114132400D01*
X157696550Y-114132400D01*
X157727793Y-114133935D01*
X157727793Y-114133935D01*
G37*
D17*
X157340300Y-114769900D03*
D10*
G36*
X157727793Y-112558935D02*
X157758735Y-112563525D01*
X157789078Y-112571125D01*
X157818530Y-112581663D01*
X157846808Y-112595038D01*
X157873638Y-112611119D01*
X157898763Y-112629753D01*
X157921940Y-112650760D01*
X157942947Y-112673937D01*
X157961581Y-112699062D01*
X157977662Y-112725892D01*
X157991037Y-112754170D01*
X158001575Y-112783622D01*
X158009175Y-112813965D01*
X158013765Y-112844907D01*
X158015300Y-112876150D01*
X158015300Y-113513650D01*
X158013765Y-113544893D01*
X158009175Y-113575835D01*
X158001575Y-113606178D01*
X157991037Y-113635630D01*
X157977662Y-113663908D01*
X157961581Y-113690738D01*
X157942947Y-113715863D01*
X157921940Y-113739040D01*
X157898763Y-113760047D01*
X157873638Y-113778681D01*
X157846808Y-113794762D01*
X157818530Y-113808137D01*
X157789078Y-113818675D01*
X157758735Y-113826275D01*
X157727793Y-113830865D01*
X157696550Y-113832400D01*
X156984050Y-113832400D01*
X156952807Y-113830865D01*
X156921865Y-113826275D01*
X156891522Y-113818675D01*
X156862070Y-113808137D01*
X156833792Y-113794762D01*
X156806962Y-113778681D01*
X156781837Y-113760047D01*
X156758660Y-113739040D01*
X156737653Y-113715863D01*
X156719019Y-113690738D01*
X156702938Y-113663908D01*
X156689563Y-113635630D01*
X156679025Y-113606178D01*
X156671425Y-113575835D01*
X156666835Y-113544893D01*
X156665300Y-113513650D01*
X156665300Y-112876150D01*
X156666835Y-112844907D01*
X156671425Y-112813965D01*
X156679025Y-112783622D01*
X156689563Y-112754170D01*
X156702938Y-112725892D01*
X156719019Y-112699062D01*
X156737653Y-112673937D01*
X156758660Y-112650760D01*
X156781837Y-112629753D01*
X156806962Y-112611119D01*
X156833792Y-112595038D01*
X156862070Y-112581663D01*
X156891522Y-112571125D01*
X156921865Y-112563525D01*
X156952807Y-112558935D01*
X156984050Y-112557400D01*
X157696550Y-112557400D01*
X157727793Y-112558935D01*
X157727793Y-112558935D01*
G37*
D17*
X157340300Y-113194900D03*
G04 #@! TD*
D10*
G04 #@! TO.C,C24*
G36*
X159277193Y-112559135D02*
X159308135Y-112563725D01*
X159338478Y-112571325D01*
X159367930Y-112581863D01*
X159396208Y-112595238D01*
X159423038Y-112611319D01*
X159448163Y-112629953D01*
X159471340Y-112650960D01*
X159492347Y-112674137D01*
X159510981Y-112699262D01*
X159527062Y-112726092D01*
X159540437Y-112754370D01*
X159550975Y-112783822D01*
X159558575Y-112814165D01*
X159563165Y-112845107D01*
X159564700Y-112876350D01*
X159564700Y-113513850D01*
X159563165Y-113545093D01*
X159558575Y-113576035D01*
X159550975Y-113606378D01*
X159540437Y-113635830D01*
X159527062Y-113664108D01*
X159510981Y-113690938D01*
X159492347Y-113716063D01*
X159471340Y-113739240D01*
X159448163Y-113760247D01*
X159423038Y-113778881D01*
X159396208Y-113794962D01*
X159367930Y-113808337D01*
X159338478Y-113818875D01*
X159308135Y-113826475D01*
X159277193Y-113831065D01*
X159245950Y-113832600D01*
X158533450Y-113832600D01*
X158502207Y-113831065D01*
X158471265Y-113826475D01*
X158440922Y-113818875D01*
X158411470Y-113808337D01*
X158383192Y-113794962D01*
X158356362Y-113778881D01*
X158331237Y-113760247D01*
X158308060Y-113739240D01*
X158287053Y-113716063D01*
X158268419Y-113690938D01*
X158252338Y-113664108D01*
X158238963Y-113635830D01*
X158228425Y-113606378D01*
X158220825Y-113576035D01*
X158216235Y-113545093D01*
X158214700Y-113513850D01*
X158214700Y-112876350D01*
X158216235Y-112845107D01*
X158220825Y-112814165D01*
X158228425Y-112783822D01*
X158238963Y-112754370D01*
X158252338Y-112726092D01*
X158268419Y-112699262D01*
X158287053Y-112674137D01*
X158308060Y-112650960D01*
X158331237Y-112629953D01*
X158356362Y-112611319D01*
X158383192Y-112595238D01*
X158411470Y-112581863D01*
X158440922Y-112571325D01*
X158471265Y-112563725D01*
X158502207Y-112559135D01*
X158533450Y-112557600D01*
X159245950Y-112557600D01*
X159277193Y-112559135D01*
X159277193Y-112559135D01*
G37*
D17*
X158889700Y-113195100D03*
D10*
G36*
X159277193Y-114134135D02*
X159308135Y-114138725D01*
X159338478Y-114146325D01*
X159367930Y-114156863D01*
X159396208Y-114170238D01*
X159423038Y-114186319D01*
X159448163Y-114204953D01*
X159471340Y-114225960D01*
X159492347Y-114249137D01*
X159510981Y-114274262D01*
X159527062Y-114301092D01*
X159540437Y-114329370D01*
X159550975Y-114358822D01*
X159558575Y-114389165D01*
X159563165Y-114420107D01*
X159564700Y-114451350D01*
X159564700Y-115088850D01*
X159563165Y-115120093D01*
X159558575Y-115151035D01*
X159550975Y-115181378D01*
X159540437Y-115210830D01*
X159527062Y-115239108D01*
X159510981Y-115265938D01*
X159492347Y-115291063D01*
X159471340Y-115314240D01*
X159448163Y-115335247D01*
X159423038Y-115353881D01*
X159396208Y-115369962D01*
X159367930Y-115383337D01*
X159338478Y-115393875D01*
X159308135Y-115401475D01*
X159277193Y-115406065D01*
X159245950Y-115407600D01*
X158533450Y-115407600D01*
X158502207Y-115406065D01*
X158471265Y-115401475D01*
X158440922Y-115393875D01*
X158411470Y-115383337D01*
X158383192Y-115369962D01*
X158356362Y-115353881D01*
X158331237Y-115335247D01*
X158308060Y-115314240D01*
X158287053Y-115291063D01*
X158268419Y-115265938D01*
X158252338Y-115239108D01*
X158238963Y-115210830D01*
X158228425Y-115181378D01*
X158220825Y-115151035D01*
X158216235Y-115120093D01*
X158214700Y-115088850D01*
X158214700Y-114451350D01*
X158216235Y-114420107D01*
X158220825Y-114389165D01*
X158228425Y-114358822D01*
X158238963Y-114329370D01*
X158252338Y-114301092D01*
X158268419Y-114274262D01*
X158287053Y-114249137D01*
X158308060Y-114225960D01*
X158331237Y-114204953D01*
X158356362Y-114186319D01*
X158383192Y-114170238D01*
X158411470Y-114156863D01*
X158440922Y-114146325D01*
X158471265Y-114138725D01*
X158502207Y-114134135D01*
X158533450Y-114132600D01*
X159245950Y-114132600D01*
X159277193Y-114134135D01*
X159277193Y-114134135D01*
G37*
D17*
X158889700Y-114770100D03*
G04 #@! TD*
D10*
G04 #@! TO.C,C25*
G36*
X141776493Y-117461235D02*
X141807435Y-117465825D01*
X141837778Y-117473425D01*
X141867230Y-117483963D01*
X141895508Y-117497338D01*
X141922338Y-117513419D01*
X141947463Y-117532053D01*
X141970640Y-117553060D01*
X141991647Y-117576237D01*
X142010281Y-117601362D01*
X142026362Y-117628192D01*
X142039737Y-117656470D01*
X142050275Y-117685922D01*
X142057875Y-117716265D01*
X142062465Y-117747207D01*
X142064000Y-117778450D01*
X142064000Y-118415950D01*
X142062465Y-118447193D01*
X142057875Y-118478135D01*
X142050275Y-118508478D01*
X142039737Y-118537930D01*
X142026362Y-118566208D01*
X142010281Y-118593038D01*
X141991647Y-118618163D01*
X141970640Y-118641340D01*
X141947463Y-118662347D01*
X141922338Y-118680981D01*
X141895508Y-118697062D01*
X141867230Y-118710437D01*
X141837778Y-118720975D01*
X141807435Y-118728575D01*
X141776493Y-118733165D01*
X141745250Y-118734700D01*
X141032750Y-118734700D01*
X141001507Y-118733165D01*
X140970565Y-118728575D01*
X140940222Y-118720975D01*
X140910770Y-118710437D01*
X140882492Y-118697062D01*
X140855662Y-118680981D01*
X140830537Y-118662347D01*
X140807360Y-118641340D01*
X140786353Y-118618163D01*
X140767719Y-118593038D01*
X140751638Y-118566208D01*
X140738263Y-118537930D01*
X140727725Y-118508478D01*
X140720125Y-118478135D01*
X140715535Y-118447193D01*
X140714000Y-118415950D01*
X140714000Y-117778450D01*
X140715535Y-117747207D01*
X140720125Y-117716265D01*
X140727725Y-117685922D01*
X140738263Y-117656470D01*
X140751638Y-117628192D01*
X140767719Y-117601362D01*
X140786353Y-117576237D01*
X140807360Y-117553060D01*
X140830537Y-117532053D01*
X140855662Y-117513419D01*
X140882492Y-117497338D01*
X140910770Y-117483963D01*
X140940222Y-117473425D01*
X140970565Y-117465825D01*
X141001507Y-117461235D01*
X141032750Y-117459700D01*
X141745250Y-117459700D01*
X141776493Y-117461235D01*
X141776493Y-117461235D01*
G37*
D17*
X141389000Y-118097200D03*
D10*
G36*
X141776493Y-119036235D02*
X141807435Y-119040825D01*
X141837778Y-119048425D01*
X141867230Y-119058963D01*
X141895508Y-119072338D01*
X141922338Y-119088419D01*
X141947463Y-119107053D01*
X141970640Y-119128060D01*
X141991647Y-119151237D01*
X142010281Y-119176362D01*
X142026362Y-119203192D01*
X142039737Y-119231470D01*
X142050275Y-119260922D01*
X142057875Y-119291265D01*
X142062465Y-119322207D01*
X142064000Y-119353450D01*
X142064000Y-119990950D01*
X142062465Y-120022193D01*
X142057875Y-120053135D01*
X142050275Y-120083478D01*
X142039737Y-120112930D01*
X142026362Y-120141208D01*
X142010281Y-120168038D01*
X141991647Y-120193163D01*
X141970640Y-120216340D01*
X141947463Y-120237347D01*
X141922338Y-120255981D01*
X141895508Y-120272062D01*
X141867230Y-120285437D01*
X141837778Y-120295975D01*
X141807435Y-120303575D01*
X141776493Y-120308165D01*
X141745250Y-120309700D01*
X141032750Y-120309700D01*
X141001507Y-120308165D01*
X140970565Y-120303575D01*
X140940222Y-120295975D01*
X140910770Y-120285437D01*
X140882492Y-120272062D01*
X140855662Y-120255981D01*
X140830537Y-120237347D01*
X140807360Y-120216340D01*
X140786353Y-120193163D01*
X140767719Y-120168038D01*
X140751638Y-120141208D01*
X140738263Y-120112930D01*
X140727725Y-120083478D01*
X140720125Y-120053135D01*
X140715535Y-120022193D01*
X140714000Y-119990950D01*
X140714000Y-119353450D01*
X140715535Y-119322207D01*
X140720125Y-119291265D01*
X140727725Y-119260922D01*
X140738263Y-119231470D01*
X140751638Y-119203192D01*
X140767719Y-119176362D01*
X140786353Y-119151237D01*
X140807360Y-119128060D01*
X140830537Y-119107053D01*
X140855662Y-119088419D01*
X140882492Y-119072338D01*
X140910770Y-119058963D01*
X140940222Y-119048425D01*
X140970565Y-119040825D01*
X141001507Y-119036235D01*
X141032750Y-119034700D01*
X141745250Y-119034700D01*
X141776493Y-119036235D01*
X141776493Y-119036235D01*
G37*
D17*
X141389000Y-119672200D03*
G04 #@! TD*
D10*
G04 #@! TO.C,C26*
G36*
X140163593Y-119048935D02*
X140194535Y-119053525D01*
X140224878Y-119061125D01*
X140254330Y-119071663D01*
X140282608Y-119085038D01*
X140309438Y-119101119D01*
X140334563Y-119119753D01*
X140357740Y-119140760D01*
X140378747Y-119163937D01*
X140397381Y-119189062D01*
X140413462Y-119215892D01*
X140426837Y-119244170D01*
X140437375Y-119273622D01*
X140444975Y-119303965D01*
X140449565Y-119334907D01*
X140451100Y-119366150D01*
X140451100Y-120003650D01*
X140449565Y-120034893D01*
X140444975Y-120065835D01*
X140437375Y-120096178D01*
X140426837Y-120125630D01*
X140413462Y-120153908D01*
X140397381Y-120180738D01*
X140378747Y-120205863D01*
X140357740Y-120229040D01*
X140334563Y-120250047D01*
X140309438Y-120268681D01*
X140282608Y-120284762D01*
X140254330Y-120298137D01*
X140224878Y-120308675D01*
X140194535Y-120316275D01*
X140163593Y-120320865D01*
X140132350Y-120322400D01*
X139419850Y-120322400D01*
X139388607Y-120320865D01*
X139357665Y-120316275D01*
X139327322Y-120308675D01*
X139297870Y-120298137D01*
X139269592Y-120284762D01*
X139242762Y-120268681D01*
X139217637Y-120250047D01*
X139194460Y-120229040D01*
X139173453Y-120205863D01*
X139154819Y-120180738D01*
X139138738Y-120153908D01*
X139125363Y-120125630D01*
X139114825Y-120096178D01*
X139107225Y-120065835D01*
X139102635Y-120034893D01*
X139101100Y-120003650D01*
X139101100Y-119366150D01*
X139102635Y-119334907D01*
X139107225Y-119303965D01*
X139114825Y-119273622D01*
X139125363Y-119244170D01*
X139138738Y-119215892D01*
X139154819Y-119189062D01*
X139173453Y-119163937D01*
X139194460Y-119140760D01*
X139217637Y-119119753D01*
X139242762Y-119101119D01*
X139269592Y-119085038D01*
X139297870Y-119071663D01*
X139327322Y-119061125D01*
X139357665Y-119053525D01*
X139388607Y-119048935D01*
X139419850Y-119047400D01*
X140132350Y-119047400D01*
X140163593Y-119048935D01*
X140163593Y-119048935D01*
G37*
D17*
X139776100Y-119684900D03*
D10*
G36*
X140163593Y-117473935D02*
X140194535Y-117478525D01*
X140224878Y-117486125D01*
X140254330Y-117496663D01*
X140282608Y-117510038D01*
X140309438Y-117526119D01*
X140334563Y-117544753D01*
X140357740Y-117565760D01*
X140378747Y-117588937D01*
X140397381Y-117614062D01*
X140413462Y-117640892D01*
X140426837Y-117669170D01*
X140437375Y-117698622D01*
X140444975Y-117728965D01*
X140449565Y-117759907D01*
X140451100Y-117791150D01*
X140451100Y-118428650D01*
X140449565Y-118459893D01*
X140444975Y-118490835D01*
X140437375Y-118521178D01*
X140426837Y-118550630D01*
X140413462Y-118578908D01*
X140397381Y-118605738D01*
X140378747Y-118630863D01*
X140357740Y-118654040D01*
X140334563Y-118675047D01*
X140309438Y-118693681D01*
X140282608Y-118709762D01*
X140254330Y-118723137D01*
X140224878Y-118733675D01*
X140194535Y-118741275D01*
X140163593Y-118745865D01*
X140132350Y-118747400D01*
X139419850Y-118747400D01*
X139388607Y-118745865D01*
X139357665Y-118741275D01*
X139327322Y-118733675D01*
X139297870Y-118723137D01*
X139269592Y-118709762D01*
X139242762Y-118693681D01*
X139217637Y-118675047D01*
X139194460Y-118654040D01*
X139173453Y-118630863D01*
X139154819Y-118605738D01*
X139138738Y-118578908D01*
X139125363Y-118550630D01*
X139114825Y-118521178D01*
X139107225Y-118490835D01*
X139102635Y-118459893D01*
X139101100Y-118428650D01*
X139101100Y-117791150D01*
X139102635Y-117759907D01*
X139107225Y-117728965D01*
X139114825Y-117698622D01*
X139125363Y-117669170D01*
X139138738Y-117640892D01*
X139154819Y-117614062D01*
X139173453Y-117588937D01*
X139194460Y-117565760D01*
X139217637Y-117544753D01*
X139242762Y-117526119D01*
X139269592Y-117510038D01*
X139297870Y-117496663D01*
X139327322Y-117486125D01*
X139357665Y-117478525D01*
X139388607Y-117473935D01*
X139419850Y-117472400D01*
X140132350Y-117472400D01*
X140163593Y-117473935D01*
X140163593Y-117473935D01*
G37*
D17*
X139776100Y-118109900D03*
G04 #@! TD*
M02*
