G04 #@! TF.GenerationSoftware,KiCad,Pcbnew,5.1.4-e60b266~84~ubuntu18.04.1*
G04 #@! TF.CreationDate,2019-09-10T17:15:46-06:00*
G04 #@! TF.ProjectId,main_board_onion,6d61696e-5f62-46f6-9172-645f6f6e696f,rev?*
G04 #@! TF.SameCoordinates,Original*
G04 #@! TF.FileFunction,Legend,Top*
G04 #@! TF.FilePolarity,Positive*
%FSLAX46Y46*%
G04 Gerber Fmt 4.6, Leading zero omitted, Abs format (unit mm)*
G04 Created by KiCad (PCBNEW 5.1.4-e60b266~84~ubuntu18.04.1) date 2019-09-10 17:15:46*
%MOMM*%
%LPD*%
G04 APERTURE LIST*
%ADD10C,0.150000*%
%ADD11C,0.120000*%
%ADD12C,0.250000*%
%ADD13C,0.200000*%
%ADD14C,0.100000*%
%ADD15C,0.076000*%
%ADD16C,0.254000*%
%ADD17C,0.125000*%
G04 APERTURE END LIST*
D10*
X125000000Y-115452380D02*
X125000000Y-115690476D01*
X124761904Y-115595238D02*
X125000000Y-115690476D01*
X125238095Y-115595238D01*
X124857142Y-115880952D02*
X125000000Y-115690476D01*
X125142857Y-115880952D01*
X178500000Y-70952380D02*
X178500000Y-71190476D01*
X178261904Y-71095238D02*
X178500000Y-71190476D01*
X178738095Y-71095238D01*
X178357142Y-71380952D02*
X178500000Y-71190476D01*
X178642857Y-71380952D01*
X163600000Y-68252380D02*
X163695238Y-68300000D01*
X163742857Y-68395238D01*
X163695238Y-68490476D01*
X163600000Y-68538095D01*
X163504761Y-68490476D01*
X163457142Y-68395238D01*
X163504761Y-68300000D01*
X163600000Y-68252380D01*
X180800000Y-66652380D02*
X180895238Y-66700000D01*
X180942857Y-66795238D01*
X180895238Y-66890476D01*
X180800000Y-66938095D01*
X180704761Y-66890476D01*
X180657142Y-66795238D01*
X180704761Y-66700000D01*
X180800000Y-66652380D01*
X177000000Y-104252380D02*
X177095238Y-104300000D01*
X177142857Y-104395238D01*
X177095238Y-104490476D01*
X177000000Y-104538095D01*
X176904761Y-104490476D01*
X176857142Y-104395238D01*
X176904761Y-104300000D01*
X177000000Y-104252380D01*
X119800000Y-108852380D02*
X119895238Y-108900000D01*
X119942857Y-108995238D01*
X119895238Y-109090476D01*
X119800000Y-109138095D01*
X119704761Y-109090476D01*
X119657142Y-108995238D01*
X119704761Y-108900000D01*
X119800000Y-108852380D01*
X124600000Y-114852380D02*
X124695238Y-114900000D01*
X124742857Y-114995238D01*
X124695238Y-115090476D01*
X124600000Y-115138095D01*
X124504761Y-115090476D01*
X124457142Y-114995238D01*
X124504761Y-114900000D01*
X124600000Y-114852380D01*
D11*
X151337221Y-110990000D02*
X151662779Y-110990000D01*
X151337221Y-112010000D02*
X151662779Y-112010000D01*
X151337221Y-109240000D02*
X151662779Y-109240000D01*
X151337221Y-110260000D02*
X151662779Y-110260000D01*
D10*
X153422780Y-134499850D02*
X152694338Y-135540173D01*
X152694338Y-135540173D02*
X146452400Y-131169520D01*
X146452400Y-131169520D02*
X147180842Y-130129197D01*
X161019082Y-125865384D02*
X163204408Y-122744414D01*
X163204408Y-122744414D02*
X161123762Y-121287530D01*
X161123762Y-121287530D02*
X158938436Y-124408500D01*
X158938436Y-124408500D02*
X161019082Y-125865384D01*
X156336549Y-130338557D02*
X150094610Y-125967905D01*
X150094610Y-125967905D02*
X147180842Y-130129197D01*
X156336549Y-130338557D02*
X153422780Y-134499850D01*
X158105314Y-130026676D02*
X159562198Y-127946030D01*
X159562198Y-127946030D02*
X157481552Y-126489146D01*
X157481552Y-126489146D02*
X156024668Y-128569792D01*
X156024668Y-128569792D02*
X158105314Y-130026676D01*
X167160659Y-103809239D02*
X171321951Y-106723007D01*
X171321951Y-106723007D02*
X169865067Y-108803653D01*
X169865067Y-108803653D02*
X165703775Y-105889885D01*
X165703775Y-105889885D02*
X167160659Y-103809239D01*
X169760387Y-113381507D02*
X161437802Y-107553970D01*
X156338708Y-114836232D02*
X164661292Y-120663768D01*
X161437802Y-107553970D02*
X156338708Y-114836232D01*
X169760387Y-113381507D02*
X164661292Y-120663768D01*
X143019549Y-127215429D02*
X163415927Y-98086382D01*
X163415927Y-98086382D02*
X177980451Y-108284571D01*
X177980451Y-108284571D02*
X157584073Y-137413618D01*
X157584073Y-137413618D02*
X143019549Y-127215429D01*
X170024000Y-47633000D02*
X170024000Y-69363000D01*
X170024000Y-69363000D02*
X165354000Y-74033000D01*
X165354000Y-74033000D02*
X131424000Y-74033000D01*
X131424000Y-74033000D02*
X127124000Y-69613000D01*
X127124000Y-69613000D02*
X127124000Y-49613000D01*
X127124000Y-49613000D02*
X129104000Y-47633000D01*
X129104000Y-47633000D02*
X170024000Y-47633000D01*
X165574000Y-73833000D02*
X165574000Y-47833000D01*
X165574000Y-47833000D02*
X169574000Y-51833000D01*
X165574000Y-50833000D02*
X169574000Y-54833000D01*
X165574000Y-53833000D02*
X169574000Y-57833000D01*
X165574000Y-56833000D02*
X169574000Y-60833000D01*
X165574000Y-59833000D02*
X169574000Y-63833000D01*
X165574000Y-62833000D02*
X169574000Y-66833000D01*
X165574000Y-66833000D02*
X165574000Y-65833000D01*
X165574000Y-65833000D02*
X168574000Y-68833000D01*
X165574000Y-68833000D02*
X167574000Y-70833000D01*
D11*
X120337221Y-66010000D02*
X120662779Y-66010000D01*
X120337221Y-64990000D02*
X120662779Y-64990000D01*
X120337221Y-64510000D02*
X120662779Y-64510000D01*
X120337221Y-63490000D02*
X120662779Y-63490000D01*
X115200000Y-64030000D02*
X115200000Y-66980000D01*
X118300000Y-66430000D02*
X118300000Y-64030000D01*
D10*
X120625000Y-61900000D02*
X120575000Y-61900000D01*
X112425000Y-61900000D02*
X112375000Y-61900000D01*
X112375000Y-58650000D02*
X112375000Y-61900000D01*
X120625000Y-58650000D02*
X118000000Y-58650000D01*
X115050000Y-58650000D02*
X112375000Y-58650000D01*
X120625000Y-58650000D02*
X120625000Y-61900000D01*
D12*
X117975000Y-62540000D02*
G75*
G03X117975000Y-62540000I-125000J0D01*
G01*
D11*
X143440000Y-119270000D02*
X144900000Y-119270000D01*
X143440000Y-122430000D02*
X145600000Y-122430000D01*
X143440000Y-122430000D02*
X143440000Y-121500000D01*
X143440000Y-119270000D02*
X143440000Y-120200000D01*
D13*
X131400000Y-116000000D02*
G75*
G02X131400000Y-116200000I0J-100000D01*
G01*
X131400000Y-116200000D02*
G75*
G02X131400000Y-116000000I0J100000D01*
G01*
X131400000Y-116200000D02*
X131400000Y-116200000D01*
X131400000Y-116000000D02*
X131400000Y-116000000D01*
D14*
X138600000Y-123850000D02*
X134600000Y-123850000D01*
X140850000Y-117600000D02*
X140850000Y-121600000D01*
X132350000Y-117600000D02*
X132350000Y-121600000D01*
X138600000Y-115350000D02*
X134600000Y-115350000D01*
D11*
X136150000Y-125600000D02*
X140050000Y-125600000D01*
X136150000Y-127600000D02*
X140050000Y-127600000D01*
X136150000Y-125600000D02*
X136150000Y-127600000D01*
X170715000Y-93823900D02*
X168015000Y-93823900D01*
X168015000Y-93823900D02*
X168015000Y-92773900D01*
X168015000Y-92773900D02*
X167225000Y-92773900D01*
X170715000Y-87603900D02*
X168015000Y-87603900D01*
X168015000Y-87603900D02*
X168015000Y-88653900D01*
X173035000Y-93823900D02*
X173585000Y-93823900D01*
X173585000Y-93823900D02*
X173585000Y-87603900D01*
X173585000Y-87603900D02*
X173035000Y-87603900D01*
D10*
X178900000Y-120100000D02*
X178900000Y-117100000D01*
X178900000Y-117100000D02*
X181900000Y-117100000D01*
X181900000Y-117100000D02*
X181900000Y-120100000D01*
X181900000Y-120100000D02*
X178900000Y-120100000D01*
X181900000Y-120100000D02*
X178900000Y-117100000D01*
X178900000Y-117100000D02*
X178900000Y-117600000D01*
X178900000Y-117600000D02*
X181400000Y-120100000D01*
X181400000Y-120100000D02*
X180900000Y-120100000D01*
X180900000Y-120100000D02*
X178900000Y-118100000D01*
X178900000Y-118100000D02*
X178900000Y-118600000D01*
X178900000Y-118600000D02*
X180400000Y-120100000D01*
X180400000Y-120100000D02*
X179900000Y-120100000D01*
X179900000Y-120100000D02*
X178900000Y-119100000D01*
X179400000Y-117100000D02*
X181900000Y-119600000D01*
X181900000Y-119600000D02*
X181900000Y-119100000D01*
X181900000Y-119100000D02*
X179900000Y-117100000D01*
X179900000Y-117100000D02*
X180400000Y-117100000D01*
X180400000Y-117100000D02*
X181900000Y-118600000D01*
X181900000Y-118600000D02*
X181900000Y-118100000D01*
X181900000Y-118100000D02*
X180900000Y-117100000D01*
D11*
X173775279Y-53990000D02*
X173449721Y-53990000D01*
X173775279Y-55010000D02*
X173449721Y-55010000D01*
X179240000Y-83824721D02*
X179240000Y-84150279D01*
X180260000Y-83824721D02*
X180260000Y-84150279D01*
X172115000Y-53535000D02*
X174400000Y-53535000D01*
X172115000Y-52065000D02*
X172115000Y-53535000D01*
X174400000Y-52065000D02*
X172115000Y-52065000D01*
X178735000Y-85472500D02*
X178735000Y-83187500D01*
X177265000Y-85472500D02*
X178735000Y-85472500D01*
X177265000Y-83187500D02*
X177265000Y-85472500D01*
X120200000Y-105900000D02*
X120200000Y-109200000D01*
X120200000Y-109200000D02*
X124200000Y-109200000D01*
X124085000Y-115410000D02*
X124810000Y-115410000D01*
X120590000Y-111190000D02*
X120590000Y-111915000D01*
X121315000Y-111190000D02*
X120590000Y-111190000D01*
X124810000Y-111190000D02*
X124810000Y-111915000D01*
X124085000Y-111190000D02*
X124810000Y-111190000D01*
X120590000Y-115410000D02*
X120590000Y-114685000D01*
X121315000Y-115410000D02*
X120590000Y-115410000D01*
X182036244Y-60189337D02*
X182310187Y-59832328D01*
X182036244Y-60189337D02*
X181679235Y-59915394D01*
X177928284Y-56343929D02*
X178285293Y-56617871D01*
X179054493Y-54876225D02*
X177928284Y-56343929D01*
X186794990Y-57601513D02*
X186642800Y-57799851D01*
X180606834Y-52853174D02*
X180454644Y-53051512D01*
X185242649Y-59624564D02*
X184116440Y-61092268D01*
X184116440Y-61092268D02*
X183759431Y-60818325D01*
D10*
X131571073Y-75097762D02*
X126577579Y-88817274D01*
X126577579Y-88817274D02*
X111448527Y-83310750D01*
X111448527Y-83310750D02*
X116442021Y-69591238D01*
X116442021Y-69591238D02*
X131571073Y-75097762D01*
D11*
X182310000Y-73962500D02*
X182310000Y-79972500D01*
X175490000Y-76212500D02*
X175490000Y-79972500D01*
X182310000Y-79972500D02*
X181050000Y-79972500D01*
X175490000Y-79972500D02*
X176750000Y-79972500D01*
X174307703Y-102205795D02*
X171765007Y-105029745D01*
X175429281Y-105772370D02*
X174157933Y-107184345D01*
X159815000Y-68610000D02*
X159340000Y-68610000D01*
X159340000Y-68610000D02*
X159340000Y-68135000D01*
X163085000Y-64390000D02*
X163560000Y-64390000D01*
X163560000Y-64390000D02*
X163560000Y-64865000D01*
X159815000Y-64390000D02*
X159340000Y-64390000D01*
X159340000Y-64390000D02*
X159340000Y-64865000D01*
X163085000Y-68610000D02*
X163560000Y-68610000D01*
X162179053Y-108372710D02*
X162445735Y-108559443D01*
X162764101Y-107537175D02*
X163030783Y-107723908D01*
X168314101Y-98237175D02*
X168580783Y-98423908D01*
X167729053Y-99072710D02*
X167995735Y-99259443D01*
X183290000Y-75649721D02*
X183290000Y-75975279D01*
X184310000Y-75649721D02*
X184310000Y-75975279D01*
X165980178Y-106033695D02*
X165218367Y-105500269D01*
X163391658Y-104221194D02*
X164153469Y-104754620D01*
X163391658Y-104221194D02*
X162152733Y-105990562D01*
X165980178Y-106033695D02*
X165142757Y-107229657D01*
X177550000Y-66750000D02*
X180500000Y-66750000D01*
X179950000Y-63650000D02*
X177550000Y-63650000D01*
X177002064Y-71490000D02*
X175797936Y-71490000D01*
X177002064Y-73310000D02*
X175797936Y-73310000D01*
X180447936Y-73310000D02*
X181652064Y-73310000D01*
X180447936Y-70590000D02*
X181652064Y-70590000D01*
X180447936Y-70060000D02*
X181652064Y-70060000D01*
X180447936Y-67340000D02*
X181652064Y-67340000D01*
X172885119Y-107101348D02*
X172500797Y-106755303D01*
X171934953Y-108156613D02*
X171550631Y-107810568D01*
X178449498Y-101279194D02*
X179344339Y-102084912D01*
X176629463Y-103300548D02*
X177524304Y-104106266D01*
X163574721Y-63510000D02*
X163900279Y-63510000D01*
X163574721Y-62490000D02*
X163900279Y-62490000D01*
X163574721Y-60990000D02*
X163900279Y-60990000D01*
X163574721Y-62010000D02*
X163900279Y-62010000D01*
X161460000Y-62124721D02*
X161460000Y-62450279D01*
X160440000Y-62124721D02*
X160440000Y-62450279D01*
X172162779Y-65240000D02*
X171837221Y-65240000D01*
X172162779Y-66260000D02*
X171837221Y-66260000D01*
X172200279Y-66740000D02*
X171874721Y-66740000D01*
X172200279Y-67760000D02*
X171874721Y-67760000D01*
D10*
X151333333Y-113452380D02*
X151000000Y-112976190D01*
X150761904Y-113452380D02*
X150761904Y-112452380D01*
X151142857Y-112452380D01*
X151238095Y-112500000D01*
X151285714Y-112547619D01*
X151333333Y-112642857D01*
X151333333Y-112785714D01*
X151285714Y-112880952D01*
X151238095Y-112928571D01*
X151142857Y-112976190D01*
X150761904Y-112976190D01*
X151809523Y-113452380D02*
X152000000Y-113452380D01*
X152095238Y-113404761D01*
X152142857Y-113357142D01*
X152238095Y-113214285D01*
X152285714Y-113023809D01*
X152285714Y-112642857D01*
X152238095Y-112547619D01*
X152190476Y-112500000D01*
X152095238Y-112452380D01*
X151904761Y-112452380D01*
X151809523Y-112500000D01*
X151761904Y-112547619D01*
X151714285Y-112642857D01*
X151714285Y-112880952D01*
X151761904Y-112976190D01*
X151809523Y-113023809D01*
X151904761Y-113071428D01*
X152095238Y-113071428D01*
X152190476Y-113023809D01*
X152238095Y-112976190D01*
X152285714Y-112880952D01*
X151333333Y-108772380D02*
X151000000Y-108296190D01*
X150761904Y-108772380D02*
X150761904Y-107772380D01*
X151142857Y-107772380D01*
X151238095Y-107820000D01*
X151285714Y-107867619D01*
X151333333Y-107962857D01*
X151333333Y-108105714D01*
X151285714Y-108200952D01*
X151238095Y-108248571D01*
X151142857Y-108296190D01*
X150761904Y-108296190D01*
X151904761Y-108200952D02*
X151809523Y-108153333D01*
X151761904Y-108105714D01*
X151714285Y-108010476D01*
X151714285Y-107962857D01*
X151761904Y-107867619D01*
X151809523Y-107820000D01*
X151904761Y-107772380D01*
X152095238Y-107772380D01*
X152190476Y-107820000D01*
X152238095Y-107867619D01*
X152285714Y-107962857D01*
X152285714Y-108010476D01*
X152238095Y-108105714D01*
X152190476Y-108153333D01*
X152095238Y-108200952D01*
X151904761Y-108200952D01*
X151809523Y-108248571D01*
X151761904Y-108296190D01*
X151714285Y-108391428D01*
X151714285Y-108581904D01*
X151761904Y-108677142D01*
X151809523Y-108724761D01*
X151904761Y-108772380D01*
X152095238Y-108772380D01*
X152190476Y-108724761D01*
X152238095Y-108677142D01*
X152285714Y-108581904D01*
X152285714Y-108391428D01*
X152238095Y-108296190D01*
X152190476Y-108248571D01*
X152095238Y-108200952D01*
X184107142Y-117416666D02*
X184154761Y-117464285D01*
X184202380Y-117607142D01*
X184202380Y-117702380D01*
X184154761Y-117845238D01*
X184059523Y-117940476D01*
X183964285Y-117988095D01*
X183773809Y-118035714D01*
X183630952Y-118035714D01*
X183440476Y-117988095D01*
X183345238Y-117940476D01*
X183250000Y-117845238D01*
X183202380Y-117702380D01*
X183202380Y-117607142D01*
X183250000Y-117464285D01*
X183297619Y-117416666D01*
X184202380Y-116464285D02*
X184202380Y-117035714D01*
X184202380Y-116750000D02*
X183202380Y-116750000D01*
X183345238Y-116845238D01*
X183440476Y-116940476D01*
X183488095Y-117035714D01*
X129026380Y-61404428D02*
X129026380Y-61213952D01*
X129074000Y-61118714D01*
X129169238Y-61023476D01*
X129359714Y-60975857D01*
X129693047Y-60975857D01*
X129883523Y-61023476D01*
X129978761Y-61118714D01*
X130026380Y-61213952D01*
X130026380Y-61404428D01*
X129978761Y-61499666D01*
X129883523Y-61594904D01*
X129693047Y-61642523D01*
X129359714Y-61642523D01*
X129169238Y-61594904D01*
X129074000Y-61499666D01*
X129026380Y-61404428D01*
X130026380Y-60023476D02*
X130026380Y-60594904D01*
X130026380Y-60309190D02*
X129026380Y-60309190D01*
X129169238Y-60404428D01*
X129264476Y-60499666D01*
X129312095Y-60594904D01*
X119857142Y-64522380D02*
X119523809Y-64046190D01*
X119285714Y-64522380D02*
X119285714Y-63522380D01*
X119666666Y-63522380D01*
X119761904Y-63570000D01*
X119809523Y-63617619D01*
X119857142Y-63712857D01*
X119857142Y-63855714D01*
X119809523Y-63950952D01*
X119761904Y-63998571D01*
X119666666Y-64046190D01*
X119285714Y-64046190D01*
X120714285Y-63855714D02*
X120714285Y-64522380D01*
X120476190Y-63474761D02*
X120238095Y-64189047D01*
X120857142Y-64189047D01*
X121190476Y-63617619D02*
X121238095Y-63570000D01*
X121333333Y-63522380D01*
X121571428Y-63522380D01*
X121666666Y-63570000D01*
X121714285Y-63617619D01*
X121761904Y-63712857D01*
X121761904Y-63808095D01*
X121714285Y-63950952D01*
X121142857Y-64522380D01*
X121761904Y-64522380D01*
X119894642Y-65952380D02*
X119561309Y-65476190D01*
X119323214Y-65952380D02*
X119323214Y-64952380D01*
X119704166Y-64952380D01*
X119799404Y-65000000D01*
X119847023Y-65047619D01*
X119894642Y-65142857D01*
X119894642Y-65285714D01*
X119847023Y-65380952D01*
X119799404Y-65428571D01*
X119704166Y-65476190D01*
X119323214Y-65476190D01*
X120275595Y-65047619D02*
X120323214Y-65000000D01*
X120418452Y-64952380D01*
X120656547Y-64952380D01*
X120751785Y-65000000D01*
X120799404Y-65047619D01*
X120847023Y-65142857D01*
X120847023Y-65238095D01*
X120799404Y-65380952D01*
X120227976Y-65952380D01*
X120847023Y-65952380D01*
X121418452Y-65380952D02*
X121323214Y-65333333D01*
X121275595Y-65285714D01*
X121227976Y-65190476D01*
X121227976Y-65142857D01*
X121275595Y-65047619D01*
X121323214Y-65000000D01*
X121418452Y-64952380D01*
X121608928Y-64952380D01*
X121704166Y-65000000D01*
X121751785Y-65047619D01*
X121799404Y-65142857D01*
X121799404Y-65190476D01*
X121751785Y-65285714D01*
X121704166Y-65333333D01*
X121608928Y-65380952D01*
X121418452Y-65380952D01*
X121323214Y-65428571D01*
X121275595Y-65476190D01*
X121227976Y-65571428D01*
X121227976Y-65761904D01*
X121275595Y-65857142D01*
X121323214Y-65904761D01*
X121418452Y-65952380D01*
X121608928Y-65952380D01*
X121704166Y-65904761D01*
X121751785Y-65857142D01*
X121799404Y-65761904D01*
X121799404Y-65571428D01*
X121751785Y-65476190D01*
X121704166Y-65428571D01*
X121608928Y-65380952D01*
X114822380Y-65948095D02*
X113822380Y-65948095D01*
X113822380Y-65710000D01*
X113870000Y-65567142D01*
X113965238Y-65471904D01*
X114060476Y-65424285D01*
X114250952Y-65376666D01*
X114393809Y-65376666D01*
X114584285Y-65424285D01*
X114679523Y-65471904D01*
X114774761Y-65567142D01*
X114822380Y-65710000D01*
X114822380Y-65948095D01*
X114250952Y-64805238D02*
X114203333Y-64900476D01*
X114155714Y-64948095D01*
X114060476Y-64995714D01*
X114012857Y-64995714D01*
X113917619Y-64948095D01*
X113870000Y-64900476D01*
X113822380Y-64805238D01*
X113822380Y-64614761D01*
X113870000Y-64519523D01*
X113917619Y-64471904D01*
X114012857Y-64424285D01*
X114060476Y-64424285D01*
X114155714Y-64471904D01*
X114203333Y-64519523D01*
X114250952Y-64614761D01*
X114250952Y-64805238D01*
X114298571Y-64900476D01*
X114346190Y-64948095D01*
X114441428Y-64995714D01*
X114631904Y-64995714D01*
X114727142Y-64948095D01*
X114774761Y-64900476D01*
X114822380Y-64805238D01*
X114822380Y-64614761D01*
X114774761Y-64519523D01*
X114727142Y-64471904D01*
X114631904Y-64424285D01*
X114441428Y-64424285D01*
X114346190Y-64471904D01*
X114298571Y-64519523D01*
X114250952Y-64614761D01*
D15*
X119514885Y-61579761D02*
X119514885Y-62258333D01*
X119469647Y-62394047D01*
X119379171Y-62484523D01*
X119243457Y-62529761D01*
X119152980Y-62529761D01*
X120464885Y-62529761D02*
X119922028Y-62529761D01*
X120193457Y-62529761D02*
X120193457Y-61579761D01*
X120102980Y-61715476D01*
X120012504Y-61805952D01*
X119922028Y-61851190D01*
X121279171Y-61896428D02*
X121279171Y-62529761D01*
X121052980Y-61534523D02*
X120826790Y-62213095D01*
X121414885Y-62213095D01*
D10*
X143033333Y-125252380D02*
X142700000Y-124776190D01*
X142461904Y-125252380D02*
X142461904Y-124252380D01*
X142842857Y-124252380D01*
X142938095Y-124300000D01*
X142985714Y-124347619D01*
X143033333Y-124442857D01*
X143033333Y-124585714D01*
X142985714Y-124680952D01*
X142938095Y-124728571D01*
X142842857Y-124776190D01*
X142461904Y-124776190D01*
X143366666Y-124252380D02*
X144033333Y-124252380D01*
X143604761Y-125252380D01*
X125357142Y-106042857D02*
X125404761Y-106090476D01*
X125452380Y-106233333D01*
X125452380Y-106328571D01*
X125404761Y-106471428D01*
X125309523Y-106566666D01*
X125214285Y-106614285D01*
X125023809Y-106661904D01*
X124880952Y-106661904D01*
X124690476Y-106614285D01*
X124595238Y-106566666D01*
X124500000Y-106471428D01*
X124452380Y-106328571D01*
X124452380Y-106233333D01*
X124500000Y-106090476D01*
X124547619Y-106042857D01*
X124452380Y-105709523D02*
X124452380Y-105090476D01*
X124833333Y-105423809D01*
X124833333Y-105280952D01*
X124880952Y-105185714D01*
X124928571Y-105138095D01*
X125023809Y-105090476D01*
X125261904Y-105090476D01*
X125357142Y-105138095D01*
X125404761Y-105185714D01*
X125452380Y-105280952D01*
X125452380Y-105566666D01*
X125404761Y-105661904D01*
X125357142Y-105709523D01*
X124785714Y-104233333D02*
X125452380Y-104233333D01*
X124404761Y-104471428D02*
X125119047Y-104709523D01*
X125119047Y-104090476D01*
X127757142Y-106842857D02*
X127804761Y-106890476D01*
X127852380Y-107033333D01*
X127852380Y-107128571D01*
X127804761Y-107271428D01*
X127709523Y-107366666D01*
X127614285Y-107414285D01*
X127423809Y-107461904D01*
X127280952Y-107461904D01*
X127090476Y-107414285D01*
X126995238Y-107366666D01*
X126900000Y-107271428D01*
X126852380Y-107128571D01*
X126852380Y-107033333D01*
X126900000Y-106890476D01*
X126947619Y-106842857D01*
X126852380Y-106509523D02*
X126852380Y-105890476D01*
X127233333Y-106223809D01*
X127233333Y-106080952D01*
X127280952Y-105985714D01*
X127328571Y-105938095D01*
X127423809Y-105890476D01*
X127661904Y-105890476D01*
X127757142Y-105938095D01*
X127804761Y-105985714D01*
X127852380Y-106080952D01*
X127852380Y-106366666D01*
X127804761Y-106461904D01*
X127757142Y-106509523D01*
X126947619Y-105509523D02*
X126900000Y-105461904D01*
X126852380Y-105366666D01*
X126852380Y-105128571D01*
X126900000Y-105033333D01*
X126947619Y-104985714D01*
X127042857Y-104938095D01*
X127138095Y-104938095D01*
X127280952Y-104985714D01*
X127852380Y-105557142D01*
X127852380Y-104938095D01*
X115857142Y-117227142D02*
X115809523Y-117274761D01*
X115666666Y-117322380D01*
X115571428Y-117322380D01*
X115428571Y-117274761D01*
X115333333Y-117179523D01*
X115285714Y-117084285D01*
X115238095Y-116893809D01*
X115238095Y-116750952D01*
X115285714Y-116560476D01*
X115333333Y-116465238D01*
X115428571Y-116370000D01*
X115571428Y-116322380D01*
X115666666Y-116322380D01*
X115809523Y-116370000D01*
X115857142Y-116417619D01*
X116714285Y-116655714D02*
X116714285Y-117322380D01*
X116476190Y-116274761D02*
X116238095Y-116989047D01*
X116857142Y-116989047D01*
X117761904Y-117322380D02*
X117190476Y-117322380D01*
X117476190Y-117322380D02*
X117476190Y-116322380D01*
X117380952Y-116465238D01*
X117285714Y-116560476D01*
X117190476Y-116608095D01*
X115087142Y-111642857D02*
X115134761Y-111690476D01*
X115182380Y-111833333D01*
X115182380Y-111928571D01*
X115134761Y-112071428D01*
X115039523Y-112166666D01*
X114944285Y-112214285D01*
X114753809Y-112261904D01*
X114610952Y-112261904D01*
X114420476Y-112214285D01*
X114325238Y-112166666D01*
X114230000Y-112071428D01*
X114182380Y-111928571D01*
X114182380Y-111833333D01*
X114230000Y-111690476D01*
X114277619Y-111642857D01*
X114515714Y-110785714D02*
X115182380Y-110785714D01*
X114134761Y-111023809D02*
X114849047Y-111261904D01*
X114849047Y-110642857D01*
X114182380Y-110071428D02*
X114182380Y-109976190D01*
X114230000Y-109880952D01*
X114277619Y-109833333D01*
X114372857Y-109785714D01*
X114563333Y-109738095D01*
X114801428Y-109738095D01*
X114991904Y-109785714D01*
X115087142Y-109833333D01*
X115134761Y-109880952D01*
X115182380Y-109976190D01*
X115182380Y-110071428D01*
X115134761Y-110166666D01*
X115087142Y-110214285D01*
X114991904Y-110261904D01*
X114801428Y-110309523D01*
X114563333Y-110309523D01*
X114372857Y-110261904D01*
X114277619Y-110214285D01*
X114230000Y-110166666D01*
X114182380Y-110071428D01*
X114357142Y-113787142D02*
X114309523Y-113834761D01*
X114166666Y-113882380D01*
X114071428Y-113882380D01*
X113928571Y-113834761D01*
X113833333Y-113739523D01*
X113785714Y-113644285D01*
X113738095Y-113453809D01*
X113738095Y-113310952D01*
X113785714Y-113120476D01*
X113833333Y-113025238D01*
X113928571Y-112930000D01*
X114071428Y-112882380D01*
X114166666Y-112882380D01*
X114309523Y-112930000D01*
X114357142Y-112977619D01*
X114690476Y-112882380D02*
X115309523Y-112882380D01*
X114976190Y-113263333D01*
X115119047Y-113263333D01*
X115214285Y-113310952D01*
X115261904Y-113358571D01*
X115309523Y-113453809D01*
X115309523Y-113691904D01*
X115261904Y-113787142D01*
X115214285Y-113834761D01*
X115119047Y-113882380D01*
X114833333Y-113882380D01*
X114738095Y-113834761D01*
X114690476Y-113787142D01*
X115785714Y-113882380D02*
X115976190Y-113882380D01*
X116071428Y-113834761D01*
X116119047Y-113787142D01*
X116214285Y-113644285D01*
X116261904Y-113453809D01*
X116261904Y-113072857D01*
X116214285Y-112977619D01*
X116166666Y-112930000D01*
X116071428Y-112882380D01*
X115880952Y-112882380D01*
X115785714Y-112930000D01*
X115738095Y-112977619D01*
X115690476Y-113072857D01*
X115690476Y-113310952D01*
X115738095Y-113406190D01*
X115785714Y-113453809D01*
X115880952Y-113501428D01*
X116071428Y-113501428D01*
X116166666Y-113453809D01*
X116214285Y-113406190D01*
X116261904Y-113310952D01*
X117357142Y-109442857D02*
X117404761Y-109490476D01*
X117452380Y-109633333D01*
X117452380Y-109728571D01*
X117404761Y-109871428D01*
X117309523Y-109966666D01*
X117214285Y-110014285D01*
X117023809Y-110061904D01*
X116880952Y-110061904D01*
X116690476Y-110014285D01*
X116595238Y-109966666D01*
X116500000Y-109871428D01*
X116452380Y-109728571D01*
X116452380Y-109633333D01*
X116500000Y-109490476D01*
X116547619Y-109442857D01*
X116452380Y-109109523D02*
X116452380Y-108490476D01*
X116833333Y-108823809D01*
X116833333Y-108680952D01*
X116880952Y-108585714D01*
X116928571Y-108538095D01*
X117023809Y-108490476D01*
X117261904Y-108490476D01*
X117357142Y-108538095D01*
X117404761Y-108585714D01*
X117452380Y-108680952D01*
X117452380Y-108966666D01*
X117404761Y-109061904D01*
X117357142Y-109109523D01*
X116880952Y-107919047D02*
X116833333Y-108014285D01*
X116785714Y-108061904D01*
X116690476Y-108109523D01*
X116642857Y-108109523D01*
X116547619Y-108061904D01*
X116500000Y-108014285D01*
X116452380Y-107919047D01*
X116452380Y-107728571D01*
X116500000Y-107633333D01*
X116547619Y-107585714D01*
X116642857Y-107538095D01*
X116690476Y-107538095D01*
X116785714Y-107585714D01*
X116833333Y-107633333D01*
X116880952Y-107728571D01*
X116880952Y-107919047D01*
X116928571Y-108014285D01*
X116976190Y-108061904D01*
X117071428Y-108109523D01*
X117261904Y-108109523D01*
X117357142Y-108061904D01*
X117404761Y-108014285D01*
X117452380Y-107919047D01*
X117452380Y-107728571D01*
X117404761Y-107633333D01*
X117357142Y-107585714D01*
X117261904Y-107538095D01*
X117071428Y-107538095D01*
X116976190Y-107585714D01*
X116928571Y-107633333D01*
X116880952Y-107728571D01*
X118687142Y-108227857D02*
X118734761Y-108275476D01*
X118782380Y-108418333D01*
X118782380Y-108513571D01*
X118734761Y-108656428D01*
X118639523Y-108751666D01*
X118544285Y-108799285D01*
X118353809Y-108846904D01*
X118210952Y-108846904D01*
X118020476Y-108799285D01*
X117925238Y-108751666D01*
X117830000Y-108656428D01*
X117782380Y-108513571D01*
X117782380Y-108418333D01*
X117830000Y-108275476D01*
X117877619Y-108227857D01*
X117782380Y-107894523D02*
X117782380Y-107275476D01*
X118163333Y-107608809D01*
X118163333Y-107465952D01*
X118210952Y-107370714D01*
X118258571Y-107323095D01*
X118353809Y-107275476D01*
X118591904Y-107275476D01*
X118687142Y-107323095D01*
X118734761Y-107370714D01*
X118782380Y-107465952D01*
X118782380Y-107751666D01*
X118734761Y-107846904D01*
X118687142Y-107894523D01*
X117782380Y-106942142D02*
X117782380Y-106275476D01*
X118782380Y-106704047D01*
X126557142Y-106842857D02*
X126604761Y-106890476D01*
X126652380Y-107033333D01*
X126652380Y-107128571D01*
X126604761Y-107271428D01*
X126509523Y-107366666D01*
X126414285Y-107414285D01*
X126223809Y-107461904D01*
X126080952Y-107461904D01*
X125890476Y-107414285D01*
X125795238Y-107366666D01*
X125700000Y-107271428D01*
X125652380Y-107128571D01*
X125652380Y-107033333D01*
X125700000Y-106890476D01*
X125747619Y-106842857D01*
X125652380Y-106509523D02*
X125652380Y-105890476D01*
X126033333Y-106223809D01*
X126033333Y-106080952D01*
X126080952Y-105985714D01*
X126128571Y-105938095D01*
X126223809Y-105890476D01*
X126461904Y-105890476D01*
X126557142Y-105938095D01*
X126604761Y-105985714D01*
X126652380Y-106080952D01*
X126652380Y-106366666D01*
X126604761Y-106461904D01*
X126557142Y-106509523D01*
X125652380Y-105033333D02*
X125652380Y-105223809D01*
X125700000Y-105319047D01*
X125747619Y-105366666D01*
X125890476Y-105461904D01*
X126080952Y-105509523D01*
X126461904Y-105509523D01*
X126557142Y-105461904D01*
X126604761Y-105414285D01*
X126652380Y-105319047D01*
X126652380Y-105128571D01*
X126604761Y-105033333D01*
X126557142Y-104985714D01*
X126461904Y-104938095D01*
X126223809Y-104938095D01*
X126128571Y-104985714D01*
X126080952Y-105033333D01*
X126033333Y-105128571D01*
X126033333Y-105319047D01*
X126080952Y-105414285D01*
X126128571Y-105461904D01*
X126223809Y-105509523D01*
X119357142Y-118927142D02*
X119309523Y-118974761D01*
X119166666Y-119022380D01*
X119071428Y-119022380D01*
X118928571Y-118974761D01*
X118833333Y-118879523D01*
X118785714Y-118784285D01*
X118738095Y-118593809D01*
X118738095Y-118450952D01*
X118785714Y-118260476D01*
X118833333Y-118165238D01*
X118928571Y-118070000D01*
X119071428Y-118022380D01*
X119166666Y-118022380D01*
X119309523Y-118070000D01*
X119357142Y-118117619D01*
X119690476Y-118022380D02*
X120309523Y-118022380D01*
X119976190Y-118403333D01*
X120119047Y-118403333D01*
X120214285Y-118450952D01*
X120261904Y-118498571D01*
X120309523Y-118593809D01*
X120309523Y-118831904D01*
X120261904Y-118927142D01*
X120214285Y-118974761D01*
X120119047Y-119022380D01*
X119833333Y-119022380D01*
X119738095Y-118974761D01*
X119690476Y-118927142D01*
X121214285Y-118022380D02*
X120738095Y-118022380D01*
X120690476Y-118498571D01*
X120738095Y-118450952D01*
X120833333Y-118403333D01*
X121071428Y-118403333D01*
X121166666Y-118450952D01*
X121214285Y-118498571D01*
X121261904Y-118593809D01*
X121261904Y-118831904D01*
X121214285Y-118927142D01*
X121166666Y-118974761D01*
X121071428Y-119022380D01*
X120833333Y-119022380D01*
X120738095Y-118974761D01*
X120690476Y-118927142D01*
X174635253Y-100516711D02*
X174638777Y-100583962D01*
X174578575Y-100721989D01*
X174514849Y-100792764D01*
X174383871Y-100867065D01*
X174249368Y-100874114D01*
X174146729Y-100845775D01*
X173973314Y-100753709D01*
X173867151Y-100658119D01*
X173757463Y-100495278D01*
X173718550Y-100396163D01*
X173711501Y-100261661D01*
X173771704Y-100123634D01*
X173835430Y-100052858D01*
X173966408Y-99978558D01*
X174033660Y-99975034D01*
X175343296Y-99872680D02*
X174960936Y-100297335D01*
X175152116Y-100085008D02*
X174408971Y-99415877D01*
X174451408Y-99582243D01*
X174458457Y-99716745D01*
X174430118Y-99819384D01*
X175661930Y-99518802D02*
X175789383Y-99377251D01*
X175817722Y-99274611D01*
X175814197Y-99207360D01*
X175771761Y-99040994D01*
X175662073Y-98878153D01*
X175378970Y-98623246D01*
X175276331Y-98594907D01*
X175209079Y-98598432D01*
X175109965Y-98637344D01*
X174982511Y-98778896D01*
X174954173Y-98881535D01*
X174957697Y-98948786D01*
X174996609Y-99047900D01*
X175173549Y-99207217D01*
X175276188Y-99235556D01*
X175343439Y-99232032D01*
X175442553Y-99193119D01*
X175570007Y-99051568D01*
X175598346Y-98948929D01*
X175594821Y-98881678D01*
X175555909Y-98782563D01*
X143904761Y-118947619D02*
X143809523Y-118900000D01*
X143714285Y-118804761D01*
X143571428Y-118661904D01*
X143476190Y-118614285D01*
X143380952Y-118614285D01*
X143428571Y-118852380D02*
X143333333Y-118804761D01*
X143238095Y-118709523D01*
X143190476Y-118519047D01*
X143190476Y-118185714D01*
X143238095Y-117995238D01*
X143333333Y-117900000D01*
X143428571Y-117852380D01*
X143619047Y-117852380D01*
X143714285Y-117900000D01*
X143809523Y-117995238D01*
X143857142Y-118185714D01*
X143857142Y-118519047D01*
X143809523Y-118709523D01*
X143714285Y-118804761D01*
X143619047Y-118852380D01*
X143428571Y-118852380D01*
X144428571Y-118280952D02*
X144333333Y-118233333D01*
X144285714Y-118185714D01*
X144238095Y-118090476D01*
X144238095Y-118042857D01*
X144285714Y-117947619D01*
X144333333Y-117900000D01*
X144428571Y-117852380D01*
X144619047Y-117852380D01*
X144714285Y-117900000D01*
X144761904Y-117947619D01*
X144809523Y-118042857D01*
X144809523Y-118090476D01*
X144761904Y-118185714D01*
X144714285Y-118233333D01*
X144619047Y-118280952D01*
X144428571Y-118280952D01*
X144333333Y-118328571D01*
X144285714Y-118376190D01*
X144238095Y-118471428D01*
X144238095Y-118661904D01*
X144285714Y-118757142D01*
X144333333Y-118804761D01*
X144428571Y-118852380D01*
X144619047Y-118852380D01*
X144714285Y-118804761D01*
X144761904Y-118757142D01*
X144809523Y-118661904D01*
X144809523Y-118471428D01*
X144761904Y-118376190D01*
X144714285Y-118328571D01*
X144619047Y-118280952D01*
D16*
X137174523Y-120416428D02*
X137174523Y-121021190D01*
X135904523Y-121021190D01*
X137114047Y-120053571D02*
X137174523Y-119872142D01*
X137174523Y-119569761D01*
X137114047Y-119448809D01*
X137053571Y-119388333D01*
X136932619Y-119327857D01*
X136811666Y-119327857D01*
X136690714Y-119388333D01*
X136630238Y-119448809D01*
X136569761Y-119569761D01*
X136509285Y-119811666D01*
X136448809Y-119932619D01*
X136388333Y-119993095D01*
X136267380Y-120053571D01*
X136146428Y-120053571D01*
X136025476Y-119993095D01*
X135965000Y-119932619D01*
X135904523Y-119811666D01*
X135904523Y-119509285D01*
X135965000Y-119327857D01*
X137174523Y-118118333D02*
X137174523Y-118844047D01*
X137174523Y-118481190D02*
X135904523Y-118481190D01*
X136085952Y-118602142D01*
X136206904Y-118723095D01*
X136267380Y-118844047D01*
D10*
X137661904Y-129052380D02*
X137661904Y-128052380D01*
X137900000Y-128052380D01*
X138042857Y-128100000D01*
X138138095Y-128195238D01*
X138185714Y-128290476D01*
X138233333Y-128480952D01*
X138233333Y-128623809D01*
X138185714Y-128814285D01*
X138138095Y-128909523D01*
X138042857Y-129004761D01*
X137900000Y-129052380D01*
X137661904Y-129052380D01*
X139185714Y-129052380D02*
X138614285Y-129052380D01*
X138900000Y-129052380D02*
X138900000Y-128052380D01*
X138804761Y-128195238D01*
X138709523Y-128290476D01*
X138614285Y-128338095D01*
X165472380Y-91523423D02*
X166186666Y-91523423D01*
X166329523Y-91571042D01*
X166424761Y-91666280D01*
X166472380Y-91809138D01*
X166472380Y-91904376D01*
X166472380Y-90523423D02*
X166472380Y-91094852D01*
X166472380Y-90809138D02*
X165472380Y-90809138D01*
X165615238Y-90904376D01*
X165710476Y-90999614D01*
X165758095Y-91094852D01*
X165472380Y-90190090D02*
X165472380Y-89571042D01*
X165853333Y-89904376D01*
X165853333Y-89761519D01*
X165900952Y-89666280D01*
X165948571Y-89618661D01*
X166043809Y-89571042D01*
X166281904Y-89571042D01*
X166377142Y-89618661D01*
X166424761Y-89666280D01*
X166472380Y-89761519D01*
X166472380Y-90047233D01*
X166424761Y-90142471D01*
X166377142Y-90190090D01*
X123033333Y-91852380D02*
X122700000Y-91376190D01*
X122461904Y-91852380D02*
X122461904Y-90852380D01*
X122842857Y-90852380D01*
X122938095Y-90900000D01*
X122985714Y-90947619D01*
X123033333Y-91042857D01*
X123033333Y-91185714D01*
X122985714Y-91280952D01*
X122938095Y-91328571D01*
X122842857Y-91376190D01*
X122461904Y-91376190D01*
X123890476Y-90852380D02*
X123700000Y-90852380D01*
X123604761Y-90900000D01*
X123557142Y-90947619D01*
X123461904Y-91090476D01*
X123414285Y-91280952D01*
X123414285Y-91661904D01*
X123461904Y-91757142D01*
X123509523Y-91804761D01*
X123604761Y-91852380D01*
X123795238Y-91852380D01*
X123890476Y-91804761D01*
X123938095Y-91757142D01*
X123985714Y-91661904D01*
X123985714Y-91423809D01*
X123938095Y-91328571D01*
X123890476Y-91280952D01*
X123795238Y-91233333D01*
X123604761Y-91233333D01*
X123509523Y-91280952D01*
X123461904Y-91328571D01*
X123414285Y-91423809D01*
X118948333Y-90682380D02*
X118615000Y-90206190D01*
X118376904Y-90682380D02*
X118376904Y-89682380D01*
X118757857Y-89682380D01*
X118853095Y-89730000D01*
X118900714Y-89777619D01*
X118948333Y-89872857D01*
X118948333Y-90015714D01*
X118900714Y-90110952D01*
X118853095Y-90158571D01*
X118757857Y-90206190D01*
X118376904Y-90206190D01*
X119853095Y-89682380D02*
X119376904Y-89682380D01*
X119329285Y-90158571D01*
X119376904Y-90110952D01*
X119472142Y-90063333D01*
X119710238Y-90063333D01*
X119805476Y-90110952D01*
X119853095Y-90158571D01*
X119900714Y-90253809D01*
X119900714Y-90491904D01*
X119853095Y-90587142D01*
X119805476Y-90634761D01*
X119710238Y-90682380D01*
X119472142Y-90682380D01*
X119376904Y-90634761D01*
X119329285Y-90587142D01*
X117033333Y-92957142D02*
X116985714Y-93004761D01*
X116842857Y-93052380D01*
X116747619Y-93052380D01*
X116604761Y-93004761D01*
X116509523Y-92909523D01*
X116461904Y-92814285D01*
X116414285Y-92623809D01*
X116414285Y-92480952D01*
X116461904Y-92290476D01*
X116509523Y-92195238D01*
X116604761Y-92100000D01*
X116747619Y-92052380D01*
X116842857Y-92052380D01*
X116985714Y-92100000D01*
X117033333Y-92147619D01*
X117938095Y-92052380D02*
X117461904Y-92052380D01*
X117414285Y-92528571D01*
X117461904Y-92480952D01*
X117557142Y-92433333D01*
X117795238Y-92433333D01*
X117890476Y-92480952D01*
X117938095Y-92528571D01*
X117985714Y-92623809D01*
X117985714Y-92861904D01*
X117938095Y-92957142D01*
X117890476Y-93004761D01*
X117795238Y-93052380D01*
X117557142Y-93052380D01*
X117461904Y-93004761D01*
X117414285Y-92957142D01*
X117277142Y-95166666D02*
X117324761Y-95214285D01*
X117372380Y-95357142D01*
X117372380Y-95452380D01*
X117324761Y-95595238D01*
X117229523Y-95690476D01*
X117134285Y-95738095D01*
X116943809Y-95785714D01*
X116800952Y-95785714D01*
X116610476Y-95738095D01*
X116515238Y-95690476D01*
X116420000Y-95595238D01*
X116372380Y-95452380D01*
X116372380Y-95357142D01*
X116420000Y-95214285D01*
X116467619Y-95166666D01*
X116705714Y-94309523D02*
X117372380Y-94309523D01*
X116324761Y-94547619D02*
X117039047Y-94785714D01*
X117039047Y-94166666D01*
X180052380Y-115961904D02*
X180861904Y-115961904D01*
X180957142Y-115914285D01*
X181004761Y-115866666D01*
X181052380Y-115771428D01*
X181052380Y-115580952D01*
X181004761Y-115485714D01*
X180957142Y-115438095D01*
X180861904Y-115390476D01*
X180052380Y-115390476D01*
X180147619Y-114961904D02*
X180100000Y-114914285D01*
X180052380Y-114819047D01*
X180052380Y-114580952D01*
X180100000Y-114485714D01*
X180147619Y-114438095D01*
X180242857Y-114390476D01*
X180338095Y-114390476D01*
X180480952Y-114438095D01*
X181052380Y-115009523D01*
X181052380Y-114390476D01*
X172969642Y-56382380D02*
X172636309Y-55906190D01*
X172398214Y-56382380D02*
X172398214Y-55382380D01*
X172779166Y-55382380D01*
X172874404Y-55430000D01*
X172922023Y-55477619D01*
X172969642Y-55572857D01*
X172969642Y-55715714D01*
X172922023Y-55810952D01*
X172874404Y-55858571D01*
X172779166Y-55906190D01*
X172398214Y-55906190D01*
X173826785Y-55715714D02*
X173826785Y-56382380D01*
X173588690Y-55334761D02*
X173350595Y-56049047D01*
X173969642Y-56049047D01*
X174541071Y-55382380D02*
X174636309Y-55382380D01*
X174731547Y-55430000D01*
X174779166Y-55477619D01*
X174826785Y-55572857D01*
X174874404Y-55763333D01*
X174874404Y-56001428D01*
X174826785Y-56191904D01*
X174779166Y-56287142D01*
X174731547Y-56334761D01*
X174636309Y-56382380D01*
X174541071Y-56382380D01*
X174445833Y-56334761D01*
X174398214Y-56287142D01*
X174350595Y-56191904D01*
X174302976Y-56001428D01*
X174302976Y-55763333D01*
X174350595Y-55572857D01*
X174398214Y-55477619D01*
X174445833Y-55430000D01*
X174541071Y-55382380D01*
X181632380Y-84630357D02*
X181156190Y-84963690D01*
X181632380Y-85201785D02*
X180632380Y-85201785D01*
X180632380Y-84820833D01*
X180680000Y-84725595D01*
X180727619Y-84677976D01*
X180822857Y-84630357D01*
X180965714Y-84630357D01*
X181060952Y-84677976D01*
X181108571Y-84725595D01*
X181156190Y-84820833D01*
X181156190Y-85201785D01*
X180632380Y-84297023D02*
X180632380Y-83677976D01*
X181013333Y-84011309D01*
X181013333Y-83868452D01*
X181060952Y-83773214D01*
X181108571Y-83725595D01*
X181203809Y-83677976D01*
X181441904Y-83677976D01*
X181537142Y-83725595D01*
X181584761Y-83773214D01*
X181632380Y-83868452D01*
X181632380Y-84154166D01*
X181584761Y-84249404D01*
X181537142Y-84297023D01*
X181632380Y-83201785D02*
X181632380Y-83011309D01*
X181584761Y-82916071D01*
X181537142Y-82868452D01*
X181394285Y-82773214D01*
X181203809Y-82725595D01*
X180822857Y-82725595D01*
X180727619Y-82773214D01*
X180680000Y-82820833D01*
X180632380Y-82916071D01*
X180632380Y-83106547D01*
X180680000Y-83201785D01*
X180727619Y-83249404D01*
X180822857Y-83297023D01*
X181060952Y-83297023D01*
X181156190Y-83249404D01*
X181203809Y-83201785D01*
X181251428Y-83106547D01*
X181251428Y-82916071D01*
X181203809Y-82820833D01*
X181156190Y-82773214D01*
X181060952Y-82725595D01*
X118957142Y-110452380D02*
X118623809Y-109976190D01*
X118385714Y-110452380D02*
X118385714Y-109452380D01*
X118766666Y-109452380D01*
X118861904Y-109500000D01*
X118909523Y-109547619D01*
X118957142Y-109642857D01*
X118957142Y-109785714D01*
X118909523Y-109880952D01*
X118861904Y-109928571D01*
X118766666Y-109976190D01*
X118385714Y-109976190D01*
X119290476Y-109452380D02*
X119909523Y-109452380D01*
X119576190Y-109833333D01*
X119719047Y-109833333D01*
X119814285Y-109880952D01*
X119861904Y-109928571D01*
X119909523Y-110023809D01*
X119909523Y-110261904D01*
X119861904Y-110357142D01*
X119814285Y-110404761D01*
X119719047Y-110452380D01*
X119433333Y-110452380D01*
X119338095Y-110404761D01*
X119290476Y-110357142D01*
X120480952Y-109880952D02*
X120385714Y-109833333D01*
X120338095Y-109785714D01*
X120290476Y-109690476D01*
X120290476Y-109642857D01*
X120338095Y-109547619D01*
X120385714Y-109500000D01*
X120480952Y-109452380D01*
X120671428Y-109452380D01*
X120766666Y-109500000D01*
X120814285Y-109547619D01*
X120861904Y-109642857D01*
X120861904Y-109690476D01*
X120814285Y-109785714D01*
X120766666Y-109833333D01*
X120671428Y-109880952D01*
X120480952Y-109880952D01*
X120385714Y-109928571D01*
X120338095Y-109976190D01*
X120290476Y-110071428D01*
X120290476Y-110261904D01*
X120338095Y-110357142D01*
X120385714Y-110404761D01*
X120480952Y-110452380D01*
X120671428Y-110452380D01*
X120766666Y-110404761D01*
X120814285Y-110357142D01*
X120861904Y-110261904D01*
X120861904Y-110071428D01*
X120814285Y-109976190D01*
X120766666Y-109928571D01*
X120671428Y-109880952D01*
D17*
X120626190Y-116321428D02*
X120388095Y-116488095D01*
X120626190Y-116607142D02*
X120126190Y-116607142D01*
X120126190Y-116416666D01*
X120150000Y-116369047D01*
X120173809Y-116345238D01*
X120221428Y-116321428D01*
X120292857Y-116321428D01*
X120340476Y-116345238D01*
X120364285Y-116369047D01*
X120388095Y-116416666D01*
X120388095Y-116607142D01*
X120126190Y-116154761D02*
X120126190Y-115845238D01*
X120316666Y-116011904D01*
X120316666Y-115940476D01*
X120340476Y-115892857D01*
X120364285Y-115869047D01*
X120411904Y-115845238D01*
X120530952Y-115845238D01*
X120578571Y-115869047D01*
X120602380Y-115892857D01*
X120626190Y-115940476D01*
X120626190Y-116083333D01*
X120602380Y-116130952D01*
X120578571Y-116154761D01*
X120126190Y-115678571D02*
X120126190Y-115345238D01*
X120626190Y-115559523D01*
X117426190Y-113683333D02*
X117426190Y-113921428D01*
X116926190Y-113921428D01*
X117092857Y-113302380D02*
X117426190Y-113302380D01*
X116902380Y-113421428D02*
X117259523Y-113540476D01*
X117259523Y-113230952D01*
X117426190Y-112483333D02*
X117426190Y-112721428D01*
X116926190Y-112721428D01*
X116926190Y-112364285D02*
X116926190Y-112054761D01*
X117116666Y-112221428D01*
X117116666Y-112150000D01*
X117140476Y-112102380D01*
X117164285Y-112078571D01*
X117211904Y-112054761D01*
X117330952Y-112054761D01*
X117378571Y-112078571D01*
X117402380Y-112102380D01*
X117426190Y-112150000D01*
X117426190Y-112292857D01*
X117402380Y-112340476D01*
X117378571Y-112364285D01*
X119626190Y-111683333D02*
X119626190Y-111921428D01*
X119126190Y-111921428D01*
X119173809Y-111540476D02*
X119150000Y-111516666D01*
X119126190Y-111469047D01*
X119126190Y-111350000D01*
X119150000Y-111302380D01*
X119173809Y-111278571D01*
X119221428Y-111254761D01*
X119269047Y-111254761D01*
X119340476Y-111278571D01*
X119626190Y-111564285D01*
X119626190Y-111254761D01*
D10*
X172861904Y-51822380D02*
X172861904Y-50822380D01*
X173100000Y-50822380D01*
X173242857Y-50870000D01*
X173338095Y-50965238D01*
X173385714Y-51060476D01*
X173433333Y-51250952D01*
X173433333Y-51393809D01*
X173385714Y-51584285D01*
X173338095Y-51679523D01*
X173242857Y-51774761D01*
X173100000Y-51822380D01*
X172861904Y-51822380D01*
X173766666Y-50822380D02*
X174433333Y-50822380D01*
X174004761Y-51822380D01*
X177022380Y-84725595D02*
X176022380Y-84725595D01*
X176022380Y-84487500D01*
X176070000Y-84344642D01*
X176165238Y-84249404D01*
X176260476Y-84201785D01*
X176450952Y-84154166D01*
X176593809Y-84154166D01*
X176784285Y-84201785D01*
X176879523Y-84249404D01*
X176974761Y-84344642D01*
X177022380Y-84487500D01*
X177022380Y-84725595D01*
X176022380Y-83297023D02*
X176022380Y-83487500D01*
X176070000Y-83582738D01*
X176117619Y-83630357D01*
X176260476Y-83725595D01*
X176450952Y-83773214D01*
X176831904Y-83773214D01*
X176927142Y-83725595D01*
X176974761Y-83677976D01*
X177022380Y-83582738D01*
X177022380Y-83392261D01*
X176974761Y-83297023D01*
X176927142Y-83249404D01*
X176831904Y-83201785D01*
X176593809Y-83201785D01*
X176498571Y-83249404D01*
X176450952Y-83297023D01*
X176403333Y-83392261D01*
X176403333Y-83582738D01*
X176450952Y-83677976D01*
X176498571Y-83725595D01*
X176593809Y-83773214D01*
X121723809Y-105076190D02*
X121723809Y-105552380D01*
X121390476Y-104552380D02*
X121723809Y-105076190D01*
X122057142Y-104552380D01*
X122342857Y-104647619D02*
X122390476Y-104600000D01*
X122485714Y-104552380D01*
X122723809Y-104552380D01*
X122819047Y-104600000D01*
X122866666Y-104647619D01*
X122914285Y-104742857D01*
X122914285Y-104838095D01*
X122866666Y-104980952D01*
X122295238Y-105552380D01*
X122914285Y-105552380D01*
X121219279Y-129538433D02*
X121946874Y-129893305D01*
X122053348Y-129892255D01*
X122117022Y-129870330D01*
X122201572Y-129805605D01*
X122285071Y-129634406D01*
X122284021Y-129527932D01*
X122262096Y-129464257D01*
X122197372Y-129379708D01*
X121469776Y-129024836D01*
X122806942Y-128564413D02*
X122556444Y-129078010D01*
X122681693Y-128821212D02*
X121782899Y-128382840D01*
X121869548Y-128531064D01*
X121913398Y-128658413D01*
X121914448Y-128764888D01*
X123224438Y-127708419D02*
X122973940Y-128222016D01*
X123099189Y-127965217D02*
X122200395Y-127526846D01*
X122287044Y-127675070D01*
X122330894Y-127802419D01*
X122331944Y-127908893D01*
X125104937Y-127274583D02*
X125318935Y-127378957D01*
X125128962Y-127551206D02*
X125318935Y-127378957D01*
X125337710Y-127123209D01*
X125427510Y-127590856D02*
X125318935Y-127378957D01*
X125552759Y-127334057D01*
X121461904Y-116052380D02*
X121461904Y-116861904D01*
X121509523Y-116957142D01*
X121557142Y-117004761D01*
X121652380Y-117052380D01*
X121842857Y-117052380D01*
X121938095Y-117004761D01*
X121985714Y-116957142D01*
X122033333Y-116861904D01*
X122033333Y-116052380D01*
X123033333Y-117052380D02*
X122461904Y-117052380D01*
X122747619Y-117052380D02*
X122747619Y-116052380D01*
X122652380Y-116195238D01*
X122557142Y-116290476D01*
X122461904Y-116338095D01*
X123652380Y-116052380D02*
X123747619Y-116052380D01*
X123842857Y-116100000D01*
X123890476Y-116147619D01*
X123938095Y-116242857D01*
X123985714Y-116433333D01*
X123985714Y-116671428D01*
X123938095Y-116861904D01*
X123890476Y-116957142D01*
X123842857Y-117004761D01*
X123747619Y-117052380D01*
X123652380Y-117052380D01*
X123557142Y-117004761D01*
X123509523Y-116957142D01*
X123461904Y-116861904D01*
X123414285Y-116671428D01*
X123414285Y-116433333D01*
X123461904Y-116242857D01*
X123509523Y-116147619D01*
X123557142Y-116100000D01*
X123652380Y-116052380D01*
X179891664Y-58861862D02*
X179456835Y-59428543D01*
X179332090Y-59512891D01*
X179198555Y-59530471D01*
X179056231Y-59481284D01*
X178980673Y-59423306D01*
X180076256Y-60263977D02*
X179622912Y-59916113D01*
X179849584Y-60090045D02*
X180458345Y-59296692D01*
X180295822Y-59352051D01*
X180162287Y-59369631D01*
X180057741Y-59349432D01*
X180831831Y-60843750D02*
X180378486Y-60495886D01*
X180605159Y-60669818D02*
X181213920Y-59876465D01*
X181051397Y-59931824D01*
X180917862Y-59949404D01*
X180813316Y-59929205D01*
X111321406Y-76357461D02*
X111992615Y-76601761D01*
X112110571Y-76695369D01*
X112167492Y-76817437D01*
X112163379Y-76967965D01*
X112130806Y-77057460D01*
X112603119Y-75759789D02*
X112407679Y-76296756D01*
X112505399Y-76028272D02*
X111565707Y-75686252D01*
X111667375Y-75824607D01*
X111724296Y-75946675D01*
X111736470Y-76052456D01*
X111875153Y-74836054D02*
X111907727Y-74746560D01*
X111985047Y-74673352D01*
X112046081Y-74644891D01*
X112151862Y-74632717D01*
X112347138Y-74653117D01*
X112570875Y-74734550D01*
X112733577Y-74844444D01*
X112806785Y-74921765D01*
X112835245Y-74982799D01*
X112847419Y-75088580D01*
X112814846Y-75178074D01*
X112737525Y-75251282D01*
X112676491Y-75279743D01*
X112570710Y-75291917D01*
X112375434Y-75271517D01*
X112151698Y-75190084D01*
X111988996Y-75080190D01*
X111915788Y-75002869D01*
X111887327Y-74941835D01*
X111875153Y-74836054D01*
X120632047Y-82660077D02*
X120693081Y-82631616D01*
X120721541Y-82692650D01*
X120660507Y-82721111D01*
X120632047Y-82660077D01*
X120721541Y-82692650D01*
X120363563Y-82562357D02*
X119810309Y-82411664D01*
X119781849Y-82350630D01*
X119842883Y-82322170D01*
X120363563Y-82562357D01*
X119781849Y-82350630D01*
X120794914Y-82212604D02*
X120855948Y-82184144D01*
X120884408Y-82245178D01*
X120823374Y-82273638D01*
X120794914Y-82212604D01*
X120884408Y-82245178D01*
X120526430Y-82114884D02*
X119973176Y-81964191D01*
X119944715Y-81903158D01*
X120005749Y-81874697D01*
X120526430Y-82114884D01*
X119944715Y-81903158D01*
X121153220Y-81228164D02*
X121181681Y-81289198D01*
X121177568Y-81439727D01*
X121144995Y-81529221D01*
X121051388Y-81647177D01*
X120929320Y-81704098D01*
X120823538Y-81716272D01*
X120628263Y-81695872D01*
X120494021Y-81647012D01*
X120331319Y-81537118D01*
X120258111Y-81459798D01*
X120201190Y-81337730D01*
X120205302Y-81187201D01*
X120237876Y-81097707D01*
X120331483Y-80979752D01*
X120392517Y-80951291D01*
X120449602Y-80515992D02*
X121210306Y-80792866D01*
X121316087Y-80780692D01*
X121377121Y-80752231D01*
X121454442Y-80679023D01*
X121519588Y-80500034D01*
X121507414Y-80394253D01*
X121478954Y-80333219D01*
X121405746Y-80255898D01*
X120645042Y-79979025D01*
X120759049Y-79665794D02*
X120954489Y-79128827D01*
X121796462Y-79739331D02*
X120856769Y-79397311D01*
X121133643Y-78636607D02*
X121198789Y-78457618D01*
X121276110Y-78384410D01*
X121398178Y-78327489D01*
X121593454Y-78347888D01*
X121906684Y-78461895D01*
X122069387Y-78571789D01*
X122126308Y-78693857D01*
X122138482Y-78799638D01*
X122073335Y-78978627D01*
X121996015Y-79051835D01*
X121873947Y-79108756D01*
X121678671Y-79088357D01*
X121365440Y-78974350D01*
X121202738Y-78864456D01*
X121145817Y-78742388D01*
X121133643Y-78636607D01*
X121426803Y-77831156D02*
X122187506Y-78108030D01*
X122293288Y-78095856D01*
X122354321Y-78067395D01*
X122431642Y-77994187D01*
X122496789Y-77815198D01*
X122484615Y-77709417D01*
X122456154Y-77648383D01*
X122382946Y-77571062D01*
X121622243Y-77294189D01*
X121736250Y-76980958D02*
X121931690Y-76443991D01*
X122773662Y-77054495D02*
X121833970Y-76712474D01*
X122895894Y-76440207D02*
X122956928Y-76411746D01*
X122985389Y-76472780D01*
X122924355Y-76501241D01*
X122895894Y-76440207D01*
X122985389Y-76472780D01*
X122627411Y-76342487D02*
X122074157Y-76191794D01*
X122045696Y-76130760D01*
X122106730Y-76102299D01*
X122627411Y-76342487D01*
X122045696Y-76130760D01*
X123058761Y-75992734D02*
X123119795Y-75964274D01*
X123148256Y-76025307D01*
X123087222Y-76053768D01*
X123058761Y-75992734D01*
X123148256Y-76025307D01*
X122790278Y-75895014D02*
X122237024Y-75744321D01*
X122208563Y-75683287D01*
X122269597Y-75654827D01*
X122790278Y-75895014D01*
X122208563Y-75683287D01*
X120632047Y-82660077D02*
X120693081Y-82631616D01*
X120721541Y-82692650D01*
X120660507Y-82721111D01*
X120632047Y-82660077D01*
X120721541Y-82692650D01*
X120363563Y-82562357D02*
X119810309Y-82411664D01*
X119781849Y-82350630D01*
X119842883Y-82322170D01*
X120363563Y-82562357D01*
X119781849Y-82350630D01*
X120794914Y-82212604D02*
X120855948Y-82184144D01*
X120884408Y-82245178D01*
X120823374Y-82273638D01*
X120794914Y-82212604D01*
X120884408Y-82245178D01*
X120526430Y-82114884D02*
X119973176Y-81964191D01*
X119944715Y-81903158D01*
X120005749Y-81874697D01*
X120526430Y-82114884D01*
X119944715Y-81903158D01*
X121153220Y-81228164D02*
X121181681Y-81289198D01*
X121177568Y-81439727D01*
X121144995Y-81529221D01*
X121051388Y-81647177D01*
X120929320Y-81704098D01*
X120823538Y-81716272D01*
X120628263Y-81695872D01*
X120494021Y-81647012D01*
X120331319Y-81537118D01*
X120258111Y-81459798D01*
X120201190Y-81337730D01*
X120205302Y-81187201D01*
X120237876Y-81097707D01*
X120331483Y-80979752D01*
X120392517Y-80951291D01*
X120449602Y-80515992D02*
X121210306Y-80792866D01*
X121316087Y-80780692D01*
X121377121Y-80752231D01*
X121454442Y-80679023D01*
X121519588Y-80500034D01*
X121507414Y-80394253D01*
X121478954Y-80333219D01*
X121405746Y-80255898D01*
X120645042Y-79979025D01*
X120759049Y-79665794D02*
X120954489Y-79128827D01*
X121796462Y-79739331D02*
X120856769Y-79397311D01*
X121133643Y-78636607D02*
X121198789Y-78457618D01*
X121276110Y-78384410D01*
X121398178Y-78327489D01*
X121593454Y-78347888D01*
X121906684Y-78461895D01*
X122069387Y-78571789D01*
X122126308Y-78693857D01*
X122138482Y-78799638D01*
X122073335Y-78978627D01*
X121996015Y-79051835D01*
X121873947Y-79108756D01*
X121678671Y-79088357D01*
X121365440Y-78974350D01*
X121202738Y-78864456D01*
X121145817Y-78742388D01*
X121133643Y-78636607D01*
X121426803Y-77831156D02*
X122187506Y-78108030D01*
X122293288Y-78095856D01*
X122354321Y-78067395D01*
X122431642Y-77994187D01*
X122496789Y-77815198D01*
X122484615Y-77709417D01*
X122456154Y-77648383D01*
X122382946Y-77571062D01*
X121622243Y-77294189D01*
X121736250Y-76980958D02*
X121931690Y-76443991D01*
X122773662Y-77054495D02*
X121833970Y-76712474D01*
X122895894Y-76440207D02*
X122956928Y-76411746D01*
X122985389Y-76472780D01*
X122924355Y-76501241D01*
X122895894Y-76440207D01*
X122985389Y-76472780D01*
X122627411Y-76342487D02*
X122074157Y-76191794D01*
X122045696Y-76130760D01*
X122106730Y-76102299D01*
X122627411Y-76342487D01*
X122045696Y-76130760D01*
X123058761Y-75992734D02*
X123119795Y-75964274D01*
X123148256Y-76025307D01*
X123087222Y-76053768D01*
X123058761Y-75992734D01*
X123148256Y-76025307D01*
X122790278Y-75895014D02*
X122237024Y-75744321D01*
X122208563Y-75683287D01*
X122269597Y-75654827D01*
X122790278Y-75895014D01*
X122208563Y-75683287D01*
X182852380Y-79561904D02*
X183661904Y-79561904D01*
X183757142Y-79514285D01*
X183804761Y-79466666D01*
X183852380Y-79371428D01*
X183852380Y-79180952D01*
X183804761Y-79085714D01*
X183757142Y-79038095D01*
X183661904Y-78990476D01*
X182852380Y-78990476D01*
X182852380Y-78609523D02*
X182852380Y-77942857D01*
X183852380Y-78371428D01*
X175683225Y-105999776D02*
X176284819Y-106541454D01*
X176387458Y-106569792D01*
X176454709Y-106566268D01*
X176553824Y-106527356D01*
X176681277Y-106385804D01*
X176709616Y-106283165D01*
X176706092Y-106215914D01*
X176667179Y-106116799D01*
X176065586Y-105575122D01*
X176670990Y-104902753D02*
X176543536Y-105044304D01*
X176515197Y-105146944D01*
X176518722Y-105214195D01*
X176561159Y-105380561D01*
X176670847Y-105543402D01*
X176953949Y-105798309D01*
X177056589Y-105826648D01*
X177123840Y-105823123D01*
X177222954Y-105784211D01*
X177350408Y-105642659D01*
X177378747Y-105540020D01*
X177375222Y-105472769D01*
X177336310Y-105373655D01*
X177159371Y-105214338D01*
X177056732Y-105185999D01*
X176989480Y-105189523D01*
X176890366Y-105228436D01*
X176762912Y-105369987D01*
X176734573Y-105472626D01*
X176738098Y-105539877D01*
X176777010Y-105638992D01*
X160688095Y-69252380D02*
X160688095Y-70061904D01*
X160735714Y-70157142D01*
X160783333Y-70204761D01*
X160878571Y-70252380D01*
X161069047Y-70252380D01*
X161164285Y-70204761D01*
X161211904Y-70157142D01*
X161259523Y-70061904D01*
X161259523Y-69252380D01*
X162164285Y-69585714D02*
X162164285Y-70252380D01*
X161926190Y-69204761D02*
X161688095Y-69919047D01*
X162307142Y-69919047D01*
X177760557Y-126983557D02*
X177039266Y-127351073D01*
X176976027Y-127436739D01*
X176955217Y-127500786D01*
X176956025Y-127607263D01*
X177042499Y-127776978D01*
X177128165Y-127840217D01*
X177192213Y-127861028D01*
X177298689Y-127860219D01*
X178019980Y-127492703D01*
X177582964Y-128837700D02*
X177323541Y-128328554D01*
X177453253Y-128583127D02*
X178344259Y-128129136D01*
X178173735Y-128109134D01*
X178045640Y-128067514D01*
X177959974Y-128004275D01*
X178235952Y-129137962D02*
X178023807Y-129246055D01*
X178000572Y-128990673D02*
X178023807Y-129246055D01*
X178216758Y-129414962D01*
X177789236Y-129205242D02*
X178023807Y-129246055D01*
X177918947Y-129459816D01*
X161213927Y-109501841D02*
X161214008Y-108920576D01*
X160745840Y-109174083D02*
X161319416Y-108354931D01*
X161631474Y-108573436D01*
X161682175Y-108667069D01*
X161693870Y-108733390D01*
X161678250Y-108838717D01*
X161596311Y-108955739D01*
X161502677Y-109006441D01*
X161436357Y-109018135D01*
X161331029Y-109002516D01*
X161018971Y-108784010D01*
X162060554Y-108873881D02*
X162567648Y-109228952D01*
X162076092Y-109349818D01*
X162193114Y-109431757D01*
X162243815Y-109525391D01*
X162255509Y-109591711D01*
X162239890Y-109697039D01*
X162103324Y-109892075D01*
X162009691Y-109942776D01*
X161943370Y-109954470D01*
X161838043Y-109938851D01*
X161603999Y-109774972D01*
X161553298Y-109681339D01*
X161541604Y-109615018D01*
X163308786Y-109747902D02*
X162918713Y-109474770D01*
X162606574Y-109837530D01*
X162672895Y-109825835D01*
X162778222Y-109841455D01*
X162973258Y-109978020D01*
X163023960Y-110071654D01*
X163035654Y-110137974D01*
X163020035Y-110243302D01*
X162883469Y-110438338D01*
X162789835Y-110489039D01*
X162723515Y-110500734D01*
X162618187Y-110485114D01*
X162423151Y-110348549D01*
X162372450Y-110254915D01*
X162360756Y-110188595D01*
X169813927Y-100601841D02*
X169814008Y-100020576D01*
X169345840Y-100274083D02*
X169919416Y-99454931D01*
X170231474Y-99673436D01*
X170282175Y-99767069D01*
X170293870Y-99833390D01*
X170278250Y-99938717D01*
X170196311Y-100055739D01*
X170102677Y-100106441D01*
X170036357Y-100118135D01*
X169931029Y-100102516D01*
X169618971Y-99884010D01*
X170660554Y-99973881D02*
X171167648Y-100328952D01*
X170676092Y-100449818D01*
X170793114Y-100531757D01*
X170843815Y-100625391D01*
X170855509Y-100691711D01*
X170839890Y-100797039D01*
X170703324Y-100992075D01*
X170609691Y-101042776D01*
X170543370Y-101054470D01*
X170438043Y-101038851D01*
X170203999Y-100874972D01*
X170153298Y-100781339D01*
X170141604Y-100715018D01*
X171678586Y-101093639D02*
X171296202Y-101639741D01*
X171702055Y-100645016D02*
X171097322Y-101093558D01*
X171604416Y-101448630D01*
X185682380Y-76455357D02*
X185206190Y-76788690D01*
X185682380Y-77026785D02*
X184682380Y-77026785D01*
X184682380Y-76645833D01*
X184730000Y-76550595D01*
X184777619Y-76502976D01*
X184872857Y-76455357D01*
X185015714Y-76455357D01*
X185110952Y-76502976D01*
X185158571Y-76550595D01*
X185206190Y-76645833D01*
X185206190Y-77026785D01*
X184682380Y-76122023D02*
X184682380Y-75502976D01*
X185063333Y-75836309D01*
X185063333Y-75693452D01*
X185110952Y-75598214D01*
X185158571Y-75550595D01*
X185253809Y-75502976D01*
X185491904Y-75502976D01*
X185587142Y-75550595D01*
X185634761Y-75598214D01*
X185682380Y-75693452D01*
X185682380Y-75979166D01*
X185634761Y-76074404D01*
X185587142Y-76122023D01*
X184682380Y-75169642D02*
X184682380Y-74550595D01*
X185063333Y-74883928D01*
X185063333Y-74741071D01*
X185110952Y-74645833D01*
X185158571Y-74598214D01*
X185253809Y-74550595D01*
X185491904Y-74550595D01*
X185587142Y-74598214D01*
X185634761Y-74645833D01*
X185682380Y-74741071D01*
X185682380Y-75026785D01*
X185634761Y-75122023D01*
X185587142Y-75169642D01*
X166243956Y-108142115D02*
X166150323Y-108192817D01*
X166017682Y-108216205D01*
X165818721Y-108251287D01*
X165725087Y-108301988D01*
X165670461Y-108380003D01*
X165892810Y-108477561D02*
X165799177Y-108528263D01*
X165666536Y-108551651D01*
X165483194Y-108481405D01*
X165210143Y-108290213D01*
X165081427Y-108141953D01*
X165058039Y-108009313D01*
X165073658Y-107903985D01*
X165182911Y-107747956D01*
X165276544Y-107697255D01*
X165409185Y-107673867D01*
X165592527Y-107744112D01*
X165865578Y-107935304D01*
X165994294Y-108083564D01*
X166017682Y-108216205D01*
X166002063Y-108321532D01*
X165892810Y-108477561D01*
X165811114Y-106850790D02*
X165701861Y-107006818D01*
X165686242Y-107112146D01*
X165697936Y-107178467D01*
X165760331Y-107338420D01*
X165889047Y-107486680D01*
X166201105Y-107705186D01*
X166306433Y-107720805D01*
X166372753Y-107709111D01*
X166466387Y-107658409D01*
X166575639Y-107502380D01*
X166591258Y-107397053D01*
X166579564Y-107330732D01*
X166528863Y-107237099D01*
X166333827Y-107100533D01*
X166228499Y-107084914D01*
X166162179Y-107096608D01*
X166068545Y-107147309D01*
X165959293Y-107303338D01*
X165943674Y-107408666D01*
X165955368Y-107474986D01*
X166006069Y-107568620D01*
X186452380Y-121366666D02*
X186452380Y-121842857D01*
X185452380Y-121842857D01*
X186452380Y-120509523D02*
X186452380Y-121080952D01*
X186452380Y-120795238D02*
X185452380Y-120795238D01*
X185595238Y-120890476D01*
X185690476Y-120985714D01*
X185738095Y-121080952D01*
X177661904Y-63252380D02*
X177661904Y-62252380D01*
X177900000Y-62252380D01*
X178042857Y-62300000D01*
X178138095Y-62395238D01*
X178185714Y-62490476D01*
X178233333Y-62680952D01*
X178233333Y-62823809D01*
X178185714Y-63014285D01*
X178138095Y-63109523D01*
X178042857Y-63204761D01*
X177900000Y-63252380D01*
X177661904Y-63252380D01*
X178614285Y-62347619D02*
X178661904Y-62300000D01*
X178757142Y-62252380D01*
X178995238Y-62252380D01*
X179090476Y-62300000D01*
X179138095Y-62347619D01*
X179185714Y-62442857D01*
X179185714Y-62538095D01*
X179138095Y-62680952D01*
X178566666Y-63252380D01*
X179185714Y-63252380D01*
X174957142Y-75642857D02*
X175004761Y-75690476D01*
X175052380Y-75833333D01*
X175052380Y-75928571D01*
X175004761Y-76071428D01*
X174909523Y-76166666D01*
X174814285Y-76214285D01*
X174623809Y-76261904D01*
X174480952Y-76261904D01*
X174290476Y-76214285D01*
X174195238Y-76166666D01*
X174100000Y-76071428D01*
X174052380Y-75928571D01*
X174052380Y-75833333D01*
X174100000Y-75690476D01*
X174147619Y-75642857D01*
X174147619Y-75261904D02*
X174100000Y-75214285D01*
X174052380Y-75119047D01*
X174052380Y-74880952D01*
X174100000Y-74785714D01*
X174147619Y-74738095D01*
X174242857Y-74690476D01*
X174338095Y-74690476D01*
X174480952Y-74738095D01*
X175052380Y-75309523D01*
X175052380Y-74690476D01*
X175052380Y-74214285D02*
X175052380Y-74023809D01*
X175004761Y-73928571D01*
X174957142Y-73880952D01*
X174814285Y-73785714D01*
X174623809Y-73738095D01*
X174242857Y-73738095D01*
X174147619Y-73785714D01*
X174100000Y-73833333D01*
X174052380Y-73928571D01*
X174052380Y-74119047D01*
X174100000Y-74214285D01*
X174147619Y-74261904D01*
X174242857Y-74309523D01*
X174480952Y-74309523D01*
X174576190Y-74261904D01*
X174623809Y-74214285D01*
X174671428Y-74119047D01*
X174671428Y-73928571D01*
X174623809Y-73833333D01*
X174576190Y-73785714D01*
X174480952Y-73738095D01*
X183957142Y-72757142D02*
X183909523Y-72804761D01*
X183766666Y-72852380D01*
X183671428Y-72852380D01*
X183528571Y-72804761D01*
X183433333Y-72709523D01*
X183385714Y-72614285D01*
X183338095Y-72423809D01*
X183338095Y-72280952D01*
X183385714Y-72090476D01*
X183433333Y-71995238D01*
X183528571Y-71900000D01*
X183671428Y-71852380D01*
X183766666Y-71852380D01*
X183909523Y-71900000D01*
X183957142Y-71947619D01*
X184338095Y-71947619D02*
X184385714Y-71900000D01*
X184480952Y-71852380D01*
X184719047Y-71852380D01*
X184814285Y-71900000D01*
X184861904Y-71947619D01*
X184909523Y-72042857D01*
X184909523Y-72138095D01*
X184861904Y-72280952D01*
X184290476Y-72852380D01*
X184909523Y-72852380D01*
X185480952Y-72280952D02*
X185385714Y-72233333D01*
X185338095Y-72185714D01*
X185290476Y-72090476D01*
X185290476Y-72042857D01*
X185338095Y-71947619D01*
X185385714Y-71900000D01*
X185480952Y-71852380D01*
X185671428Y-71852380D01*
X185766666Y-71900000D01*
X185814285Y-71947619D01*
X185861904Y-72042857D01*
X185861904Y-72090476D01*
X185814285Y-72185714D01*
X185766666Y-72233333D01*
X185671428Y-72280952D01*
X185480952Y-72280952D01*
X185385714Y-72328571D01*
X185338095Y-72376190D01*
X185290476Y-72471428D01*
X185290476Y-72661904D01*
X185338095Y-72757142D01*
X185385714Y-72804761D01*
X185480952Y-72852380D01*
X185671428Y-72852380D01*
X185766666Y-72804761D01*
X185814285Y-72757142D01*
X185861904Y-72661904D01*
X185861904Y-72471428D01*
X185814285Y-72376190D01*
X185766666Y-72328571D01*
X185671428Y-72280952D01*
X181757142Y-66757142D02*
X181709523Y-66804761D01*
X181566666Y-66852380D01*
X181471428Y-66852380D01*
X181328571Y-66804761D01*
X181233333Y-66709523D01*
X181185714Y-66614285D01*
X181138095Y-66423809D01*
X181138095Y-66280952D01*
X181185714Y-66090476D01*
X181233333Y-65995238D01*
X181328571Y-65900000D01*
X181471428Y-65852380D01*
X181566666Y-65852380D01*
X181709523Y-65900000D01*
X181757142Y-65947619D01*
X182138095Y-65947619D02*
X182185714Y-65900000D01*
X182280952Y-65852380D01*
X182519047Y-65852380D01*
X182614285Y-65900000D01*
X182661904Y-65947619D01*
X182709523Y-66042857D01*
X182709523Y-66138095D01*
X182661904Y-66280952D01*
X182090476Y-66852380D01*
X182709523Y-66852380D01*
X183042857Y-65852380D02*
X183709523Y-65852380D01*
X183280952Y-66852380D01*
X170883288Y-109035253D02*
X170816037Y-109038777D01*
X170678010Y-108978575D01*
X170607235Y-108914849D01*
X170532934Y-108783871D01*
X170525885Y-108649368D01*
X170554224Y-108546729D01*
X170646290Y-108373314D01*
X170741880Y-108267151D01*
X170904721Y-108157463D01*
X171003836Y-108118550D01*
X171138338Y-108111501D01*
X171276365Y-108171704D01*
X171347141Y-108235430D01*
X171421441Y-108366408D01*
X171424965Y-108433660D01*
X171708068Y-108688566D02*
X171775319Y-108685042D01*
X171877959Y-108713381D01*
X172054898Y-108872698D01*
X172093810Y-108971812D01*
X172097335Y-109039063D01*
X172068996Y-109141702D01*
X172005269Y-109212478D01*
X171874291Y-109286778D01*
X171067277Y-109329072D01*
X171527319Y-109743296D01*
X172833430Y-109573692D02*
X172691879Y-109446238D01*
X172589240Y-109417899D01*
X172521989Y-109421424D01*
X172355623Y-109463861D01*
X172192782Y-109573549D01*
X171937875Y-109856651D01*
X171909536Y-109959290D01*
X171913060Y-110026542D01*
X171951973Y-110125656D01*
X172093524Y-110253110D01*
X172196163Y-110281449D01*
X172263414Y-110277924D01*
X172362529Y-110239012D01*
X172521846Y-110062073D01*
X172550185Y-109959433D01*
X172546660Y-109892182D01*
X172507748Y-109793068D01*
X172366196Y-109665614D01*
X172263557Y-109637275D01*
X172196306Y-109640800D01*
X172097192Y-109679712D01*
X178795807Y-100833613D02*
X178728556Y-100837137D01*
X178590529Y-100776935D01*
X178519754Y-100713209D01*
X178445453Y-100582231D01*
X178438404Y-100447728D01*
X178466743Y-100345089D01*
X178558809Y-100171674D01*
X178654399Y-100065511D01*
X178817240Y-99955823D01*
X178916355Y-99916910D01*
X179050857Y-99909861D01*
X179188884Y-99970064D01*
X179259660Y-100033790D01*
X179333960Y-100164768D01*
X179337484Y-100232020D01*
X179620587Y-100486926D02*
X179687838Y-100483402D01*
X179790478Y-100511741D01*
X179967417Y-100671058D01*
X180006329Y-100770172D01*
X180009854Y-100837423D01*
X179981515Y-100940062D01*
X179917788Y-101010838D01*
X179786810Y-101085138D01*
X178979796Y-101127432D01*
X179439838Y-101541656D01*
X180781337Y-101403915D02*
X180427459Y-101085281D01*
X180073437Y-101407296D01*
X180140689Y-101403772D01*
X180243328Y-101432111D01*
X180420267Y-101591428D01*
X180459179Y-101690542D01*
X180462704Y-101757793D01*
X180434365Y-101860433D01*
X180275048Y-102037372D01*
X180175933Y-102076284D01*
X180108682Y-102079809D01*
X180006043Y-102051470D01*
X179829104Y-101892153D01*
X179790192Y-101793038D01*
X179786667Y-101725787D01*
X164433333Y-64757142D02*
X164385714Y-64804761D01*
X164242857Y-64852380D01*
X164147619Y-64852380D01*
X164004761Y-64804761D01*
X163909523Y-64709523D01*
X163861904Y-64614285D01*
X163814285Y-64423809D01*
X163814285Y-64280952D01*
X163861904Y-64090476D01*
X163909523Y-63995238D01*
X164004761Y-63900000D01*
X164147619Y-63852380D01*
X164242857Y-63852380D01*
X164385714Y-63900000D01*
X164433333Y-63947619D01*
X165290476Y-63852380D02*
X165100000Y-63852380D01*
X165004761Y-63900000D01*
X164957142Y-63947619D01*
X164861904Y-64090476D01*
X164814285Y-64280952D01*
X164814285Y-64661904D01*
X164861904Y-64757142D01*
X164909523Y-64804761D01*
X165004761Y-64852380D01*
X165195238Y-64852380D01*
X165290476Y-64804761D01*
X165338095Y-64757142D01*
X165385714Y-64661904D01*
X165385714Y-64423809D01*
X165338095Y-64328571D01*
X165290476Y-64280952D01*
X165195238Y-64233333D01*
X165004761Y-64233333D01*
X164909523Y-64280952D01*
X164861904Y-64328571D01*
X164814285Y-64423809D01*
X164433333Y-60427142D02*
X164385714Y-60474761D01*
X164242857Y-60522380D01*
X164147619Y-60522380D01*
X164004761Y-60474761D01*
X163909523Y-60379523D01*
X163861904Y-60284285D01*
X163814285Y-60093809D01*
X163814285Y-59950952D01*
X163861904Y-59760476D01*
X163909523Y-59665238D01*
X164004761Y-59570000D01*
X164147619Y-59522380D01*
X164242857Y-59522380D01*
X164385714Y-59570000D01*
X164433333Y-59617619D01*
X164766666Y-59522380D02*
X165433333Y-59522380D01*
X165004761Y-60522380D01*
X159852380Y-62930357D02*
X159376190Y-63263690D01*
X159852380Y-63501785D02*
X158852380Y-63501785D01*
X158852380Y-63120833D01*
X158900000Y-63025595D01*
X158947619Y-62977976D01*
X159042857Y-62930357D01*
X159185714Y-62930357D01*
X159280952Y-62977976D01*
X159328571Y-63025595D01*
X159376190Y-63120833D01*
X159376190Y-63501785D01*
X159852380Y-61977976D02*
X159852380Y-62549404D01*
X159852380Y-62263690D02*
X158852380Y-62263690D01*
X158995238Y-62358928D01*
X159090476Y-62454166D01*
X159138095Y-62549404D01*
X158852380Y-61358928D02*
X158852380Y-61263690D01*
X158900000Y-61168452D01*
X158947619Y-61120833D01*
X159042857Y-61073214D01*
X159233333Y-61025595D01*
X159471428Y-61025595D01*
X159661904Y-61073214D01*
X159757142Y-61120833D01*
X159804761Y-61168452D01*
X159852380Y-61263690D01*
X159852380Y-61358928D01*
X159804761Y-61454166D01*
X159757142Y-61501785D01*
X159661904Y-61549404D01*
X159471428Y-61597023D01*
X159233333Y-61597023D01*
X159042857Y-61549404D01*
X158947619Y-61501785D01*
X158900000Y-61454166D01*
X158852380Y-61358928D01*
X174157142Y-66252380D02*
X173823809Y-65776190D01*
X173585714Y-66252380D02*
X173585714Y-65252380D01*
X173966666Y-65252380D01*
X174061904Y-65300000D01*
X174109523Y-65347619D01*
X174157142Y-65442857D01*
X174157142Y-65585714D01*
X174109523Y-65680952D01*
X174061904Y-65728571D01*
X173966666Y-65776190D01*
X173585714Y-65776190D01*
X175109523Y-66252380D02*
X174538095Y-66252380D01*
X174823809Y-66252380D02*
X174823809Y-65252380D01*
X174728571Y-65395238D01*
X174633333Y-65490476D01*
X174538095Y-65538095D01*
X175490476Y-65347619D02*
X175538095Y-65300000D01*
X175633333Y-65252380D01*
X175871428Y-65252380D01*
X175966666Y-65300000D01*
X176014285Y-65347619D01*
X176061904Y-65442857D01*
X176061904Y-65538095D01*
X176014285Y-65680952D01*
X175442857Y-66252380D01*
X176061904Y-66252380D01*
X171394642Y-69132380D02*
X171061309Y-68656190D01*
X170823214Y-69132380D02*
X170823214Y-68132380D01*
X171204166Y-68132380D01*
X171299404Y-68180000D01*
X171347023Y-68227619D01*
X171394642Y-68322857D01*
X171394642Y-68465714D01*
X171347023Y-68560952D01*
X171299404Y-68608571D01*
X171204166Y-68656190D01*
X170823214Y-68656190D01*
X172347023Y-69132380D02*
X171775595Y-69132380D01*
X172061309Y-69132380D02*
X172061309Y-68132380D01*
X171966071Y-68275238D01*
X171870833Y-68370476D01*
X171775595Y-68418095D01*
X172680357Y-68132380D02*
X173299404Y-68132380D01*
X172966071Y-68513333D01*
X173108928Y-68513333D01*
X173204166Y-68560952D01*
X173251785Y-68608571D01*
X173299404Y-68703809D01*
X173299404Y-68941904D01*
X173251785Y-69037142D01*
X173204166Y-69084761D01*
X173108928Y-69132380D01*
X172823214Y-69132380D01*
X172727976Y-69084761D01*
X172680357Y-69037142D01*
M02*
