M48
;DRILL file {KiCad 6.0.0-rc1-unknown-3eb3db0~66~ubuntu18.04.1} date Fri Aug 10 12:26:21 2018
;FORMAT={-:-/ absolute / inch / decimal}
FMAT,2
INCH,TZ
T1C0.0120
T2C0.0157
T3C0.0236
T4C0.0315
T5C0.0335
T6C0.0394
T7C0.0551
T8C0.1260
%
G90
G05
M72
T1
X7.2955Y-3.736
X6.9983Y-3.5189
X7.0377Y-3.5189
X7.0771Y-3.5189
X7.1164Y-3.5189
T2
X4.481Y-3.452
X4.523Y-3.459
X4.575Y-3.651
X4.576Y-3.474
X4.651Y-3.4965
X4.824Y-3.6505
X5.014Y-4.0265
X5.2068Y-4.6696
X5.217Y-4.7255
X5.3015Y-4.724
X5.3405Y-3.091
X5.3465Y-4.7285
X5.393Y-4.5855
X5.544Y-4.5615
X5.567Y-4.808
X5.58Y-4.5385
X5.647Y-4.927
X5.705Y-4.8825
X5.745Y-4.8605
X5.7835Y-4.8495
X5.8231Y-4.846
X5.845Y-4.528
X5.8585Y-4.401
X5.9635Y-4.4265
X5.964Y-4.6505
X5.9655Y-5.034
X5.98Y-4.53
X6.018Y-4.6715
X6.0225Y-4.5315
X6.0485Y-4.6425
X6.0575Y-4.49
X6.0945Y-4.4745
X6.35Y-4.5855
X6.382Y-4.561
X7.082Y-3.6883
X7.18Y-3.592
X7.196Y-3.552
X7.306Y-3.682
T3
X4.502Y-2.337
X4.539Y-2.3
X4.55Y-4.574
X4.575Y-4.0285
X4.577Y-2.262
X4.614Y-2.225
X4.639Y-2.474
X4.651Y-2.188
X4.675Y-2.435
X4.704Y-3.834
X4.709Y-2.394
X4.709Y-4.501
X4.742Y-2.352
X4.767Y-2.303
X4.825Y-3.901
X5.3565Y-4.144
X5.5035Y-4.596
X5.5035Y-4.766
X5.752Y-4.7745
X5.786Y-5.069
X5.9055Y-5.122
X6.041Y-2.135
X6.252Y-2.305
X6.307Y-4.611
X6.3075Y-4.5185
X6.3095Y-4.4575
X6.3105Y-4.795
X6.3157Y-4.6736
X6.326Y-4.9655
X6.6386Y-4.2163
X6.664Y-3.724
X6.664Y-3.78
X6.666Y-3.62
X6.666Y-3.672
X6.7055Y-3.319
X6.726Y-3.78
X6.728Y-3.62
X6.7535Y-3.319
X6.8015Y-3.319
X6.8305Y-4.4815
X6.8495Y-3.319
X6.8975Y-3.319
X6.9455Y-3.319
X6.9935Y-3.319
X7.04Y-3.776
X7.0415Y-3.319
X7.0895Y-3.319
X7.159Y-2.592
X7.1836Y-2.6432
X7.23Y-4.576
X7.332Y-3.7745
X7.3621Y-3.735
T4
X5.2194Y-1.9147
X5.2194Y-2.8753
X5.2982Y-1.9147
X5.2982Y-2.8753
X5.3769Y-1.9147
X5.3769Y-2.8753
X5.4557Y-1.9147
X5.4557Y-2.8753
X5.5344Y-1.9147
X5.5344Y-2.8753
X5.6131Y-1.9147
X5.6131Y-2.8753
X5.6919Y-1.9147
X5.6919Y-2.8753
X5.7706Y-1.9147
X5.7706Y-2.8753
X5.8494Y-1.9147
X5.8494Y-2.8753
X5.9281Y-1.9147
X5.9281Y-2.8753
X6.0069Y-1.9147
X6.0069Y-2.8753
X6.0856Y-1.9147
X6.0856Y-2.8753
X6.1643Y-1.9147
X6.1643Y-2.8753
X6.2431Y-1.9147
X6.2431Y-2.8753
X6.3218Y-1.9147
X6.3218Y-2.8753
X6.4006Y-1.9147
X6.4006Y-2.8753
T5
X7.056Y-2.2424
X7.2121Y-2.3623
X4.5394Y-4.7778
X4.6956Y-4.8976
T6
X6.588Y-3.219
X6.588Y-3.319
T7
X7.495Y-3.2235
X7.495Y-3.44
X7.496Y-3.705
X7.496Y-3.9215
X4.26Y-3.706
X4.26Y-3.9225
X4.26Y-3.2235
X4.26Y-3.44
T8
X6.8425Y-2.39
X6.8425Y-4.7525
X4.915Y-2.39
X4.914Y-4.752
T3
X7.0811Y-2.1451G85X7.0978Y-2.1232
G05
X7.3165Y-2.291G85X7.2997Y-2.3128
G05
X4.4351Y-4.8491G85X4.4518Y-4.8272
G05
X4.6705Y-4.995G85X4.6537Y-5.0168
G05
T0
M30
