G04 #@! TF.GenerationSoftware,KiCad,Pcbnew,6.0.0-rc1-unknown-3eb3db0~66~ubuntu18.04.1*
G04 #@! TF.CreationDate,2018-08-09T16:50:38-07:00*
G04 #@! TF.ProjectId,main_board_onion,6D61696E5F626F6172645F6F6E696F6E,rev?*
G04 #@! TF.SameCoordinates,Original*
G04 #@! TF.FileFunction,Copper,L4,Bot,Signal*
G04 #@! TF.FilePolarity,Positive*
%FSLAX46Y46*%
G04 Gerber Fmt 4.6, Leading zero omitted, Abs format (unit mm)*
G04 Created by KiCad (PCBNEW 6.0.0-rc1-unknown-3eb3db0~66~ubuntu18.04.1) date Thu Aug  9 16:50:38 2018*
%MOMM*%
%LPD*%
G01*
G04 APERTURE LIST*
G04 #@! TA.AperFunction,Conductor*
%ADD10C,0.100000*%
G04 #@! TD*
G04 #@! TA.AperFunction,SMDPad,CuDef*
%ADD11C,1.500000*%
G04 #@! TD*
G04 #@! TA.AperFunction,ViaPad*
%ADD12C,0.600000*%
G04 #@! TD*
G04 #@! TA.AperFunction,Conductor*
%ADD13C,0.960000*%
G04 #@! TD*
G04 #@! TA.AperFunction,SMDPad,CuDef*
%ADD14C,0.300000*%
G04 #@! TD*
G04 #@! TA.AperFunction,SMDPad,CuDef*
%ADD15C,0.400000*%
G04 #@! TD*
G04 #@! TA.AperFunction,SMDPad,CuDef*
%ADD16C,0.875000*%
G04 #@! TD*
G04 #@! TA.AperFunction,ComponentPad*
%ADD17O,2.700000X3.300000*%
G04 #@! TD*
G04 #@! TA.AperFunction,ComponentPad*
%ADD18R,2.700000X3.300000*%
G04 #@! TD*
G04 #@! TA.AperFunction,ComponentPad*
%ADD19R,1.700000X1.700000*%
G04 #@! TD*
G04 #@! TA.AperFunction,ComponentPad*
%ADD20O,1.700000X1.700000*%
G04 #@! TD*
G04 #@! TA.AperFunction,ComponentPad*
%ADD21C,6.400000*%
G04 #@! TD*
G04 #@! TA.AperFunction,SMDPad,CuDef*
%ADD22C,0.740000*%
G04 #@! TD*
G04 #@! TA.AperFunction,SMDPad,CuDef*
%ADD23C,1.250000*%
G04 #@! TD*
G04 #@! TA.AperFunction,SMDPad,CuDef*
%ADD24C,0.600000*%
G04 #@! TD*
G04 #@! TA.AperFunction,ComponentPad*
%ADD25C,1.450000*%
G04 #@! TD*
G04 #@! TA.AperFunction,ComponentPad*
%ADD26C,1.200000*%
G04 #@! TD*
G04 #@! TA.AperFunction,Conductor*
%ADD27C,1.200000*%
G04 #@! TD*
G04 #@! TA.AperFunction,SMDPad,CuDef*
%ADD28C,0.975000*%
G04 #@! TD*
G04 #@! TA.AperFunction,ComponentPad*
%ADD29R,1.350000X1.350000*%
G04 #@! TD*
G04 #@! TA.AperFunction,SMDPad,CuDef*
%ADD30R,0.600000X1.500000*%
G04 #@! TD*
G04 #@! TA.AperFunction,SMDPad,CuDef*
%ADD31R,1.000000X1.800000*%
G04 #@! TD*
G04 #@! TA.AperFunction,ViaPad*
%ADD32C,1.200000*%
G04 #@! TD*
G04 #@! TA.AperFunction,ViaPad*
%ADD33C,0.800000*%
G04 #@! TD*
G04 #@! TA.AperFunction,Conductor*
%ADD34C,1.000000*%
G04 #@! TD*
G04 #@! TA.AperFunction,Conductor*
%ADD35C,0.250000*%
G04 #@! TD*
G04 APERTURE END LIST*
D10*
G04 #@! TO.N,N/C*
G04 #@! TO.C,U1*
G36*
X179611611Y-87180617D02*
X179615979Y-87181265D01*
X179620263Y-87182338D01*
X179624421Y-87183825D01*
X179628413Y-87185714D01*
X179632201Y-87187984D01*
X179635748Y-87190615D01*
X179639020Y-87193580D01*
X179641985Y-87196852D01*
X179644616Y-87200399D01*
X179646886Y-87204187D01*
X179648775Y-87208179D01*
X179650262Y-87212337D01*
X179651335Y-87216621D01*
X179651983Y-87220989D01*
X179652200Y-87225400D01*
X179652200Y-88635400D01*
X179651983Y-88639811D01*
X179651335Y-88644179D01*
X179650262Y-88648463D01*
X179648775Y-88652621D01*
X179646886Y-88656613D01*
X179644616Y-88660401D01*
X179641985Y-88663948D01*
X179639020Y-88667220D01*
X179635748Y-88670185D01*
X179632201Y-88672816D01*
X179628413Y-88675086D01*
X179624421Y-88676975D01*
X179620263Y-88678462D01*
X179615979Y-88679535D01*
X179611611Y-88680183D01*
X179607200Y-88680400D01*
X177147200Y-88680400D01*
X177142789Y-88680183D01*
X177138421Y-88679535D01*
X177134137Y-88678462D01*
X177129979Y-88676975D01*
X177125987Y-88675086D01*
X177122199Y-88672816D01*
X177118652Y-88670185D01*
X177115380Y-88667220D01*
X177112415Y-88663948D01*
X177109784Y-88660401D01*
X177107514Y-88656613D01*
X177105625Y-88652621D01*
X177104138Y-88648463D01*
X177103065Y-88644179D01*
X177102417Y-88639811D01*
X177102200Y-88635400D01*
X177102200Y-87225400D01*
X177102417Y-87220989D01*
X177103065Y-87216621D01*
X177104138Y-87212337D01*
X177105625Y-87208179D01*
X177107514Y-87204187D01*
X177109784Y-87200399D01*
X177112415Y-87196852D01*
X177115380Y-87193580D01*
X177118652Y-87190615D01*
X177122199Y-87187984D01*
X177125987Y-87185714D01*
X177129979Y-87183825D01*
X177134137Y-87182338D01*
X177138421Y-87181265D01*
X177142789Y-87180617D01*
X177147200Y-87180400D01*
X179607200Y-87180400D01*
X179611611Y-87180617D01*
X179611611Y-87180617D01*
G37*
D11*
G04 #@! TD*
G04 #@! TO.P,U1,4*
G04 #@! TO.N,N/C*
X178377200Y-87930400D03*
D12*
G04 #@! TO.N,GND*
G04 #@! TO.C,U1*
X177757200Y-89380400D03*
X178757200Y-89380400D03*
X179757200Y-89380400D03*
X180757200Y-89380400D03*
D10*
G04 #@! TO.N,/5v_from_24v*
G36*
X179611611Y-90080617D02*
X179615979Y-90081265D01*
X179620263Y-90082338D01*
X179624421Y-90083825D01*
X179628413Y-90085714D01*
X179632201Y-90087984D01*
X179635748Y-90090615D01*
X179639020Y-90093580D01*
X179641985Y-90096852D01*
X179644616Y-90100399D01*
X179646886Y-90104187D01*
X179648775Y-90108179D01*
X179650262Y-90112337D01*
X179651335Y-90116621D01*
X179651983Y-90120989D01*
X179652200Y-90125400D01*
X179652200Y-91535400D01*
X179651983Y-91539811D01*
X179651335Y-91544179D01*
X179650262Y-91548463D01*
X179648775Y-91552621D01*
X179646886Y-91556613D01*
X179644616Y-91560401D01*
X179641985Y-91563948D01*
X179639020Y-91567220D01*
X179635748Y-91570185D01*
X179632201Y-91572816D01*
X179628413Y-91575086D01*
X179624421Y-91576975D01*
X179620263Y-91578462D01*
X179615979Y-91579535D01*
X179611611Y-91580183D01*
X179607200Y-91580400D01*
X177147200Y-91580400D01*
X177142789Y-91580183D01*
X177138421Y-91579535D01*
X177134137Y-91578462D01*
X177129979Y-91576975D01*
X177125987Y-91575086D01*
X177122199Y-91572816D01*
X177118652Y-91570185D01*
X177115380Y-91567220D01*
X177112415Y-91563948D01*
X177109784Y-91560401D01*
X177107514Y-91556613D01*
X177105625Y-91552621D01*
X177104138Y-91548463D01*
X177103065Y-91544179D01*
X177102417Y-91539811D01*
X177102200Y-91535400D01*
X177102200Y-90125400D01*
X177102417Y-90120989D01*
X177103065Y-90116621D01*
X177104138Y-90112337D01*
X177105625Y-90108179D01*
X177107514Y-90104187D01*
X177109784Y-90100399D01*
X177112415Y-90096852D01*
X177115380Y-90093580D01*
X177118652Y-90090615D01*
X177122199Y-90087984D01*
X177125987Y-90085714D01*
X177129979Y-90083825D01*
X177134137Y-90082338D01*
X177138421Y-90081265D01*
X177142789Y-90080617D01*
X177147200Y-90080400D01*
X179607200Y-90080400D01*
X179611611Y-90080617D01*
X179611611Y-90080617D01*
G37*
D11*
G04 #@! TD*
G04 #@! TO.P,U1,3*
G04 #@! TO.N,/5v_from_24v*
X178377200Y-90830400D03*
D10*
G04 #@! TO.N,GND*
G04 #@! TO.C,U1*
G36*
X181933905Y-88900631D02*
X181938564Y-88901322D01*
X181943134Y-88902467D01*
X181947569Y-88904054D01*
X181951827Y-88906068D01*
X181955867Y-88908489D01*
X181959651Y-88911295D01*
X181963141Y-88914459D01*
X181966305Y-88917949D01*
X181969111Y-88921733D01*
X181971532Y-88925773D01*
X181973546Y-88930031D01*
X181975133Y-88934466D01*
X181976278Y-88939036D01*
X181976969Y-88943695D01*
X181977200Y-88948400D01*
X181977200Y-89812400D01*
X181976969Y-89817105D01*
X181976278Y-89821764D01*
X181975133Y-89826334D01*
X181973546Y-89830769D01*
X181971532Y-89835027D01*
X181969111Y-89839067D01*
X181966305Y-89842851D01*
X181963141Y-89846341D01*
X181959651Y-89849505D01*
X181955867Y-89852311D01*
X181951827Y-89854732D01*
X181947569Y-89856746D01*
X181943134Y-89858333D01*
X181938564Y-89859478D01*
X181933905Y-89860169D01*
X181929200Y-89860400D01*
X177125200Y-89860400D01*
X177120495Y-89860169D01*
X177115836Y-89859478D01*
X177111266Y-89858333D01*
X177106831Y-89856746D01*
X177102573Y-89854732D01*
X177098533Y-89852311D01*
X177094749Y-89849505D01*
X177091259Y-89846341D01*
X177088095Y-89842851D01*
X177085289Y-89839067D01*
X177082868Y-89835027D01*
X177080854Y-89830769D01*
X177079267Y-89826334D01*
X177078122Y-89821764D01*
X177077431Y-89817105D01*
X177077200Y-89812400D01*
X177077200Y-88948400D01*
X177077431Y-88943695D01*
X177078122Y-88939036D01*
X177079267Y-88934466D01*
X177080854Y-88930031D01*
X177082868Y-88925773D01*
X177085289Y-88921733D01*
X177088095Y-88917949D01*
X177091259Y-88914459D01*
X177094749Y-88911295D01*
X177098533Y-88908489D01*
X177102573Y-88906068D01*
X177106831Y-88904054D01*
X177111266Y-88902467D01*
X177115836Y-88901322D01*
X177120495Y-88900631D01*
X177125200Y-88900400D01*
X181929200Y-88900400D01*
X181933905Y-88900631D01*
X181933905Y-88900631D01*
G37*
D13*
X179527200Y-89380400D03*
D10*
G04 #@! TO.N,N/C*
G36*
X181536611Y-87180617D02*
X181540979Y-87181265D01*
X181545263Y-87182338D01*
X181549421Y-87183825D01*
X181553413Y-87185714D01*
X181557201Y-87187984D01*
X181560748Y-87190615D01*
X181564020Y-87193580D01*
X181566985Y-87196852D01*
X181569616Y-87200399D01*
X181571886Y-87204187D01*
X181573775Y-87208179D01*
X181575262Y-87212337D01*
X181576335Y-87216621D01*
X181576983Y-87220989D01*
X181577200Y-87225400D01*
X181577200Y-87835400D01*
X181576983Y-87839811D01*
X181576335Y-87844179D01*
X181575262Y-87848463D01*
X181573775Y-87852621D01*
X181571886Y-87856613D01*
X181569616Y-87860401D01*
X181566985Y-87863948D01*
X181564020Y-87867220D01*
X181560748Y-87870185D01*
X181557201Y-87872816D01*
X181553413Y-87875086D01*
X181549421Y-87876975D01*
X181545263Y-87878462D01*
X181540979Y-87879535D01*
X181536611Y-87880183D01*
X181532200Y-87880400D01*
X181322200Y-87880400D01*
X181317789Y-87880183D01*
X181313421Y-87879535D01*
X181309137Y-87878462D01*
X181304979Y-87876975D01*
X181300987Y-87875086D01*
X181297199Y-87872816D01*
X181293652Y-87870185D01*
X181290380Y-87867220D01*
X181287415Y-87863948D01*
X181284784Y-87860401D01*
X181282514Y-87856613D01*
X181280625Y-87852621D01*
X181279138Y-87848463D01*
X181278065Y-87844179D01*
X181277417Y-87839811D01*
X181277200Y-87835400D01*
X181277200Y-87225400D01*
X181277417Y-87220989D01*
X181278065Y-87216621D01*
X181279138Y-87212337D01*
X181280625Y-87208179D01*
X181282514Y-87204187D01*
X181284784Y-87200399D01*
X181287415Y-87196852D01*
X181290380Y-87193580D01*
X181293652Y-87190615D01*
X181297199Y-87187984D01*
X181300987Y-87185714D01*
X181304979Y-87183825D01*
X181309137Y-87182338D01*
X181313421Y-87181265D01*
X181317789Y-87180617D01*
X181322200Y-87180400D01*
X181532200Y-87180400D01*
X181536611Y-87180617D01*
X181536611Y-87180617D01*
G37*
D14*
G04 #@! TD*
G04 #@! TO.P,U1,6*
G04 #@! TO.N,N/C*
X181427200Y-87530400D03*
D10*
G04 #@! TO.N,N/C*
G04 #@! TO.C,U1*
G36*
X181936611Y-88380617D02*
X181940979Y-88381265D01*
X181945263Y-88382338D01*
X181949421Y-88383825D01*
X181953413Y-88385714D01*
X181957201Y-88387984D01*
X181960748Y-88390615D01*
X181964020Y-88393580D01*
X181966985Y-88396852D01*
X181969616Y-88400399D01*
X181971886Y-88404187D01*
X181973775Y-88408179D01*
X181975262Y-88412337D01*
X181976335Y-88416621D01*
X181976983Y-88420989D01*
X181977200Y-88425400D01*
X181977200Y-88635400D01*
X181976983Y-88639811D01*
X181976335Y-88644179D01*
X181975262Y-88648463D01*
X181973775Y-88652621D01*
X181971886Y-88656613D01*
X181969616Y-88660401D01*
X181966985Y-88663948D01*
X181964020Y-88667220D01*
X181960748Y-88670185D01*
X181957201Y-88672816D01*
X181953413Y-88675086D01*
X181949421Y-88676975D01*
X181945263Y-88678462D01*
X181940979Y-88679535D01*
X181936611Y-88680183D01*
X181932200Y-88680400D01*
X181322200Y-88680400D01*
X181317789Y-88680183D01*
X181313421Y-88679535D01*
X181309137Y-88678462D01*
X181304979Y-88676975D01*
X181300987Y-88675086D01*
X181297199Y-88672816D01*
X181293652Y-88670185D01*
X181290380Y-88667220D01*
X181287415Y-88663948D01*
X181284784Y-88660401D01*
X181282514Y-88656613D01*
X181280625Y-88652621D01*
X181279138Y-88648463D01*
X181278065Y-88644179D01*
X181277417Y-88639811D01*
X181277200Y-88635400D01*
X181277200Y-88425400D01*
X181277417Y-88420989D01*
X181278065Y-88416621D01*
X181279138Y-88412337D01*
X181280625Y-88408179D01*
X181282514Y-88404187D01*
X181284784Y-88400399D01*
X181287415Y-88396852D01*
X181290380Y-88393580D01*
X181293652Y-88390615D01*
X181297199Y-88387984D01*
X181300987Y-88385714D01*
X181304979Y-88383825D01*
X181309137Y-88382338D01*
X181313421Y-88381265D01*
X181317789Y-88380617D01*
X181322200Y-88380400D01*
X181932200Y-88380400D01*
X181936611Y-88380617D01*
X181936611Y-88380617D01*
G37*
D14*
G04 #@! TD*
G04 #@! TO.P,U1,7*
G04 #@! TO.N,N/C*
X181627200Y-88530400D03*
D10*
G04 #@! TO.N,N/C*
G04 #@! TO.C,U1*
G36*
X180733905Y-87180631D02*
X180738564Y-87181322D01*
X180743134Y-87182467D01*
X180747569Y-87184054D01*
X180751827Y-87186068D01*
X180755867Y-87188489D01*
X180759651Y-87191295D01*
X180763141Y-87194459D01*
X180766305Y-87197949D01*
X180769111Y-87201733D01*
X180771532Y-87205773D01*
X180773546Y-87210031D01*
X180775133Y-87214466D01*
X180776278Y-87219036D01*
X180776969Y-87223695D01*
X180777200Y-87228400D01*
X180777200Y-88132400D01*
X180776969Y-88137105D01*
X180776278Y-88141764D01*
X180775133Y-88146334D01*
X180773546Y-88150769D01*
X180771532Y-88155027D01*
X180769111Y-88159067D01*
X180766305Y-88162851D01*
X180763141Y-88166341D01*
X180759651Y-88169505D01*
X180755867Y-88172311D01*
X180751827Y-88174732D01*
X180747569Y-88176746D01*
X180743134Y-88178333D01*
X180738564Y-88179478D01*
X180733905Y-88180169D01*
X180729200Y-88180400D01*
X180425200Y-88180400D01*
X180420495Y-88180169D01*
X180415836Y-88179478D01*
X180411266Y-88178333D01*
X180406831Y-88176746D01*
X180402573Y-88174732D01*
X180398533Y-88172311D01*
X180394749Y-88169505D01*
X180391259Y-88166341D01*
X180388095Y-88162851D01*
X180385289Y-88159067D01*
X180382868Y-88155027D01*
X180380854Y-88150769D01*
X180379267Y-88146334D01*
X180378122Y-88141764D01*
X180377431Y-88137105D01*
X180377200Y-88132400D01*
X180377200Y-87228400D01*
X180377431Y-87223695D01*
X180378122Y-87219036D01*
X180379267Y-87214466D01*
X180380854Y-87210031D01*
X180382868Y-87205773D01*
X180385289Y-87201733D01*
X180388095Y-87197949D01*
X180391259Y-87194459D01*
X180394749Y-87191295D01*
X180398533Y-87188489D01*
X180402573Y-87186068D01*
X180406831Y-87184054D01*
X180411266Y-87182467D01*
X180415836Y-87181322D01*
X180420495Y-87180631D01*
X180425200Y-87180400D01*
X180729200Y-87180400D01*
X180733905Y-87180631D01*
X180733905Y-87180631D01*
G37*
D15*
G04 #@! TD*
G04 #@! TO.P,U1,5*
G04 #@! TO.N,N/C*
X180577200Y-87680400D03*
D10*
G04 #@! TO.N,GND*
G04 #@! TO.C,U1*
G36*
X181933905Y-89180631D02*
X181938564Y-89181322D01*
X181943134Y-89182467D01*
X181947569Y-89184054D01*
X181951827Y-89186068D01*
X181955867Y-89188489D01*
X181959651Y-89191295D01*
X181963141Y-89194459D01*
X181966305Y-89197949D01*
X181969111Y-89201733D01*
X181971532Y-89205773D01*
X181973546Y-89210031D01*
X181975133Y-89214466D01*
X181976278Y-89219036D01*
X181976969Y-89223695D01*
X181977200Y-89228400D01*
X181977200Y-89532400D01*
X181976969Y-89537105D01*
X181976278Y-89541764D01*
X181975133Y-89546334D01*
X181973546Y-89550769D01*
X181971532Y-89555027D01*
X181969111Y-89559067D01*
X181966305Y-89562851D01*
X181963141Y-89566341D01*
X181959651Y-89569505D01*
X181955867Y-89572311D01*
X181951827Y-89574732D01*
X181947569Y-89576746D01*
X181943134Y-89578333D01*
X181938564Y-89579478D01*
X181933905Y-89580169D01*
X181929200Y-89580400D01*
X181025200Y-89580400D01*
X181020495Y-89580169D01*
X181015836Y-89579478D01*
X181011266Y-89578333D01*
X181006831Y-89576746D01*
X181002573Y-89574732D01*
X180998533Y-89572311D01*
X180994749Y-89569505D01*
X180991259Y-89566341D01*
X180988095Y-89562851D01*
X180985289Y-89559067D01*
X180982868Y-89555027D01*
X180980854Y-89550769D01*
X180979267Y-89546334D01*
X180978122Y-89541764D01*
X180977431Y-89537105D01*
X180977200Y-89532400D01*
X180977200Y-89228400D01*
X180977431Y-89223695D01*
X180978122Y-89219036D01*
X180979267Y-89214466D01*
X180980854Y-89210031D01*
X180982868Y-89205773D01*
X180985289Y-89201733D01*
X180988095Y-89197949D01*
X180991259Y-89194459D01*
X180994749Y-89191295D01*
X180998533Y-89188489D01*
X181002573Y-89186068D01*
X181006831Y-89184054D01*
X181011266Y-89182467D01*
X181015836Y-89181322D01*
X181020495Y-89180631D01*
X181025200Y-89180400D01*
X181929200Y-89180400D01*
X181933905Y-89180631D01*
X181933905Y-89180631D01*
G37*
D15*
G04 #@! TD*
G04 #@! TO.P,U1,8*
G04 #@! TO.N,GND*
X181477200Y-89380400D03*
D10*
G04 #@! TO.N,Net-(SW1-Pad1)*
G04 #@! TO.C,U1*
G36*
X181936611Y-90080617D02*
X181940979Y-90081265D01*
X181945263Y-90082338D01*
X181949421Y-90083825D01*
X181953413Y-90085714D01*
X181957201Y-90087984D01*
X181960748Y-90090615D01*
X181964020Y-90093580D01*
X181966985Y-90096852D01*
X181969616Y-90100399D01*
X181971886Y-90104187D01*
X181973775Y-90108179D01*
X181975262Y-90112337D01*
X181976335Y-90116621D01*
X181976983Y-90120989D01*
X181977200Y-90125400D01*
X181977200Y-90335400D01*
X181976983Y-90339811D01*
X181976335Y-90344179D01*
X181975262Y-90348463D01*
X181973775Y-90352621D01*
X181971886Y-90356613D01*
X181969616Y-90360401D01*
X181966985Y-90363948D01*
X181964020Y-90367220D01*
X181960748Y-90370185D01*
X181957201Y-90372816D01*
X181953413Y-90375086D01*
X181949421Y-90376975D01*
X181945263Y-90378462D01*
X181940979Y-90379535D01*
X181936611Y-90380183D01*
X181932200Y-90380400D01*
X181322200Y-90380400D01*
X181317789Y-90380183D01*
X181313421Y-90379535D01*
X181309137Y-90378462D01*
X181304979Y-90376975D01*
X181300987Y-90375086D01*
X181297199Y-90372816D01*
X181293652Y-90370185D01*
X181290380Y-90367220D01*
X181287415Y-90363948D01*
X181284784Y-90360401D01*
X181282514Y-90356613D01*
X181280625Y-90352621D01*
X181279138Y-90348463D01*
X181278065Y-90344179D01*
X181277417Y-90339811D01*
X181277200Y-90335400D01*
X181277200Y-90125400D01*
X181277417Y-90120989D01*
X181278065Y-90116621D01*
X181279138Y-90112337D01*
X181280625Y-90108179D01*
X181282514Y-90104187D01*
X181284784Y-90100399D01*
X181287415Y-90096852D01*
X181290380Y-90093580D01*
X181293652Y-90090615D01*
X181297199Y-90087984D01*
X181300987Y-90085714D01*
X181304979Y-90083825D01*
X181309137Y-90082338D01*
X181313421Y-90081265D01*
X181317789Y-90080617D01*
X181322200Y-90080400D01*
X181932200Y-90080400D01*
X181936611Y-90080617D01*
X181936611Y-90080617D01*
G37*
D14*
G04 #@! TD*
G04 #@! TO.P,U1,9*
G04 #@! TO.N,Net-(SW1-Pad1)*
X181627200Y-90230400D03*
D10*
G04 #@! TO.N,+24V*
G04 #@! TO.C,U1*
G36*
X180733905Y-90580631D02*
X180738564Y-90581322D01*
X180743134Y-90582467D01*
X180747569Y-90584054D01*
X180751827Y-90586068D01*
X180755867Y-90588489D01*
X180759651Y-90591295D01*
X180763141Y-90594459D01*
X180766305Y-90597949D01*
X180769111Y-90601733D01*
X180771532Y-90605773D01*
X180773546Y-90610031D01*
X180775133Y-90614466D01*
X180776278Y-90619036D01*
X180776969Y-90623695D01*
X180777200Y-90628400D01*
X180777200Y-91532400D01*
X180776969Y-91537105D01*
X180776278Y-91541764D01*
X180775133Y-91546334D01*
X180773546Y-91550769D01*
X180771532Y-91555027D01*
X180769111Y-91559067D01*
X180766305Y-91562851D01*
X180763141Y-91566341D01*
X180759651Y-91569505D01*
X180755867Y-91572311D01*
X180751827Y-91574732D01*
X180747569Y-91576746D01*
X180743134Y-91578333D01*
X180738564Y-91579478D01*
X180733905Y-91580169D01*
X180729200Y-91580400D01*
X180425200Y-91580400D01*
X180420495Y-91580169D01*
X180415836Y-91579478D01*
X180411266Y-91578333D01*
X180406831Y-91576746D01*
X180402573Y-91574732D01*
X180398533Y-91572311D01*
X180394749Y-91569505D01*
X180391259Y-91566341D01*
X180388095Y-91562851D01*
X180385289Y-91559067D01*
X180382868Y-91555027D01*
X180380854Y-91550769D01*
X180379267Y-91546334D01*
X180378122Y-91541764D01*
X180377431Y-91537105D01*
X180377200Y-91532400D01*
X180377200Y-90628400D01*
X180377431Y-90623695D01*
X180378122Y-90619036D01*
X180379267Y-90614466D01*
X180380854Y-90610031D01*
X180382868Y-90605773D01*
X180385289Y-90601733D01*
X180388095Y-90597949D01*
X180391259Y-90594459D01*
X180394749Y-90591295D01*
X180398533Y-90588489D01*
X180402573Y-90586068D01*
X180406831Y-90584054D01*
X180411266Y-90582467D01*
X180415836Y-90581322D01*
X180420495Y-90580631D01*
X180425200Y-90580400D01*
X180729200Y-90580400D01*
X180733905Y-90580631D01*
X180733905Y-90580631D01*
G37*
D15*
G04 #@! TD*
G04 #@! TO.P,U1,2*
G04 #@! TO.N,+24V*
X180577200Y-91080400D03*
D10*
G04 #@! TO.N,Net-(R1-Pad2)*
G04 #@! TO.C,U1*
G36*
X181536611Y-90880617D02*
X181540979Y-90881265D01*
X181545263Y-90882338D01*
X181549421Y-90883825D01*
X181553413Y-90885714D01*
X181557201Y-90887984D01*
X181560748Y-90890615D01*
X181564020Y-90893580D01*
X181566985Y-90896852D01*
X181569616Y-90900399D01*
X181571886Y-90904187D01*
X181573775Y-90908179D01*
X181575262Y-90912337D01*
X181576335Y-90916621D01*
X181576983Y-90920989D01*
X181577200Y-90925400D01*
X181577200Y-91535400D01*
X181576983Y-91539811D01*
X181576335Y-91544179D01*
X181575262Y-91548463D01*
X181573775Y-91552621D01*
X181571886Y-91556613D01*
X181569616Y-91560401D01*
X181566985Y-91563948D01*
X181564020Y-91567220D01*
X181560748Y-91570185D01*
X181557201Y-91572816D01*
X181553413Y-91575086D01*
X181549421Y-91576975D01*
X181545263Y-91578462D01*
X181540979Y-91579535D01*
X181536611Y-91580183D01*
X181532200Y-91580400D01*
X181322200Y-91580400D01*
X181317789Y-91580183D01*
X181313421Y-91579535D01*
X181309137Y-91578462D01*
X181304979Y-91576975D01*
X181300987Y-91575086D01*
X181297199Y-91572816D01*
X181293652Y-91570185D01*
X181290380Y-91567220D01*
X181287415Y-91563948D01*
X181284784Y-91560401D01*
X181282514Y-91556613D01*
X181280625Y-91552621D01*
X181279138Y-91548463D01*
X181278065Y-91544179D01*
X181277417Y-91539811D01*
X181277200Y-91535400D01*
X181277200Y-90925400D01*
X181277417Y-90920989D01*
X181278065Y-90916621D01*
X181279138Y-90912337D01*
X181280625Y-90908179D01*
X181282514Y-90904187D01*
X181284784Y-90900399D01*
X181287415Y-90896852D01*
X181290380Y-90893580D01*
X181293652Y-90890615D01*
X181297199Y-90887984D01*
X181300987Y-90885714D01*
X181304979Y-90883825D01*
X181309137Y-90882338D01*
X181313421Y-90881265D01*
X181317789Y-90880617D01*
X181322200Y-90880400D01*
X181532200Y-90880400D01*
X181536611Y-90880617D01*
X181536611Y-90880617D01*
G37*
D14*
G04 #@! TD*
G04 #@! TO.P,U1,1*
G04 #@! TO.N,Net-(R1-Pad2)*
X181427200Y-91230400D03*
D10*
G04 #@! TO.N,/5v_from_24v*
G04 #@! TO.C,C3*
G36*
X175791691Y-90495553D02*
X175812926Y-90498703D01*
X175833750Y-90503919D01*
X175853962Y-90511151D01*
X175873368Y-90520330D01*
X175891781Y-90531366D01*
X175909024Y-90544154D01*
X175924930Y-90558570D01*
X175939346Y-90574476D01*
X175952134Y-90591719D01*
X175963170Y-90610132D01*
X175972349Y-90629538D01*
X175979581Y-90649750D01*
X175984797Y-90670574D01*
X175987947Y-90691809D01*
X175989000Y-90713250D01*
X175989000Y-91150750D01*
X175987947Y-91172191D01*
X175984797Y-91193426D01*
X175979581Y-91214250D01*
X175972349Y-91234462D01*
X175963170Y-91253868D01*
X175952134Y-91272281D01*
X175939346Y-91289524D01*
X175924930Y-91305430D01*
X175909024Y-91319846D01*
X175891781Y-91332634D01*
X175873368Y-91343670D01*
X175853962Y-91352849D01*
X175833750Y-91360081D01*
X175812926Y-91365297D01*
X175791691Y-91368447D01*
X175770250Y-91369500D01*
X175257750Y-91369500D01*
X175236309Y-91368447D01*
X175215074Y-91365297D01*
X175194250Y-91360081D01*
X175174038Y-91352849D01*
X175154632Y-91343670D01*
X175136219Y-91332634D01*
X175118976Y-91319846D01*
X175103070Y-91305430D01*
X175088654Y-91289524D01*
X175075866Y-91272281D01*
X175064830Y-91253868D01*
X175055651Y-91234462D01*
X175048419Y-91214250D01*
X175043203Y-91193426D01*
X175040053Y-91172191D01*
X175039000Y-91150750D01*
X175039000Y-90713250D01*
X175040053Y-90691809D01*
X175043203Y-90670574D01*
X175048419Y-90649750D01*
X175055651Y-90629538D01*
X175064830Y-90610132D01*
X175075866Y-90591719D01*
X175088654Y-90574476D01*
X175103070Y-90558570D01*
X175118976Y-90544154D01*
X175136219Y-90531366D01*
X175154632Y-90520330D01*
X175174038Y-90511151D01*
X175194250Y-90503919D01*
X175215074Y-90498703D01*
X175236309Y-90495553D01*
X175257750Y-90494500D01*
X175770250Y-90494500D01*
X175791691Y-90495553D01*
X175791691Y-90495553D01*
G37*
D16*
G04 #@! TD*
G04 #@! TO.P,C3,1*
G04 #@! TO.N,/5v_from_24v*
X175514000Y-90932000D03*
D10*
G04 #@! TO.N,GND*
G04 #@! TO.C,C3*
G36*
X175791691Y-88920553D02*
X175812926Y-88923703D01*
X175833750Y-88928919D01*
X175853962Y-88936151D01*
X175873368Y-88945330D01*
X175891781Y-88956366D01*
X175909024Y-88969154D01*
X175924930Y-88983570D01*
X175939346Y-88999476D01*
X175952134Y-89016719D01*
X175963170Y-89035132D01*
X175972349Y-89054538D01*
X175979581Y-89074750D01*
X175984797Y-89095574D01*
X175987947Y-89116809D01*
X175989000Y-89138250D01*
X175989000Y-89575750D01*
X175987947Y-89597191D01*
X175984797Y-89618426D01*
X175979581Y-89639250D01*
X175972349Y-89659462D01*
X175963170Y-89678868D01*
X175952134Y-89697281D01*
X175939346Y-89714524D01*
X175924930Y-89730430D01*
X175909024Y-89744846D01*
X175891781Y-89757634D01*
X175873368Y-89768670D01*
X175853962Y-89777849D01*
X175833750Y-89785081D01*
X175812926Y-89790297D01*
X175791691Y-89793447D01*
X175770250Y-89794500D01*
X175257750Y-89794500D01*
X175236309Y-89793447D01*
X175215074Y-89790297D01*
X175194250Y-89785081D01*
X175174038Y-89777849D01*
X175154632Y-89768670D01*
X175136219Y-89757634D01*
X175118976Y-89744846D01*
X175103070Y-89730430D01*
X175088654Y-89714524D01*
X175075866Y-89697281D01*
X175064830Y-89678868D01*
X175055651Y-89659462D01*
X175048419Y-89639250D01*
X175043203Y-89618426D01*
X175040053Y-89597191D01*
X175039000Y-89575750D01*
X175039000Y-89138250D01*
X175040053Y-89116809D01*
X175043203Y-89095574D01*
X175048419Y-89074750D01*
X175055651Y-89054538D01*
X175064830Y-89035132D01*
X175075866Y-89016719D01*
X175088654Y-88999476D01*
X175103070Y-88983570D01*
X175118976Y-88969154D01*
X175136219Y-88956366D01*
X175154632Y-88945330D01*
X175174038Y-88936151D01*
X175194250Y-88928919D01*
X175215074Y-88923703D01*
X175236309Y-88920553D01*
X175257750Y-88919500D01*
X175770250Y-88919500D01*
X175791691Y-88920553D01*
X175791691Y-88920553D01*
G37*
D16*
G04 #@! TD*
G04 #@! TO.P,C3,2*
G04 #@! TO.N,GND*
X175514000Y-89357000D03*
D10*
G04 #@! TO.N,GND*
G04 #@! TO.C,C4*
G36*
X173912091Y-88971553D02*
X173933326Y-88974703D01*
X173954150Y-88979919D01*
X173974362Y-88987151D01*
X173993768Y-88996330D01*
X174012181Y-89007366D01*
X174029424Y-89020154D01*
X174045330Y-89034570D01*
X174059746Y-89050476D01*
X174072534Y-89067719D01*
X174083570Y-89086132D01*
X174092749Y-89105538D01*
X174099981Y-89125750D01*
X174105197Y-89146574D01*
X174108347Y-89167809D01*
X174109400Y-89189250D01*
X174109400Y-89626750D01*
X174108347Y-89648191D01*
X174105197Y-89669426D01*
X174099981Y-89690250D01*
X174092749Y-89710462D01*
X174083570Y-89729868D01*
X174072534Y-89748281D01*
X174059746Y-89765524D01*
X174045330Y-89781430D01*
X174029424Y-89795846D01*
X174012181Y-89808634D01*
X173993768Y-89819670D01*
X173974362Y-89828849D01*
X173954150Y-89836081D01*
X173933326Y-89841297D01*
X173912091Y-89844447D01*
X173890650Y-89845500D01*
X173378150Y-89845500D01*
X173356709Y-89844447D01*
X173335474Y-89841297D01*
X173314650Y-89836081D01*
X173294438Y-89828849D01*
X173275032Y-89819670D01*
X173256619Y-89808634D01*
X173239376Y-89795846D01*
X173223470Y-89781430D01*
X173209054Y-89765524D01*
X173196266Y-89748281D01*
X173185230Y-89729868D01*
X173176051Y-89710462D01*
X173168819Y-89690250D01*
X173163603Y-89669426D01*
X173160453Y-89648191D01*
X173159400Y-89626750D01*
X173159400Y-89189250D01*
X173160453Y-89167809D01*
X173163603Y-89146574D01*
X173168819Y-89125750D01*
X173176051Y-89105538D01*
X173185230Y-89086132D01*
X173196266Y-89067719D01*
X173209054Y-89050476D01*
X173223470Y-89034570D01*
X173239376Y-89020154D01*
X173256619Y-89007366D01*
X173275032Y-88996330D01*
X173294438Y-88987151D01*
X173314650Y-88979919D01*
X173335474Y-88974703D01*
X173356709Y-88971553D01*
X173378150Y-88970500D01*
X173890650Y-88970500D01*
X173912091Y-88971553D01*
X173912091Y-88971553D01*
G37*
D16*
G04 #@! TD*
G04 #@! TO.P,C4,2*
G04 #@! TO.N,GND*
X173634400Y-89408000D03*
D10*
G04 #@! TO.N,/5v_from_24v*
G04 #@! TO.C,C4*
G36*
X173912091Y-90546553D02*
X173933326Y-90549703D01*
X173954150Y-90554919D01*
X173974362Y-90562151D01*
X173993768Y-90571330D01*
X174012181Y-90582366D01*
X174029424Y-90595154D01*
X174045330Y-90609570D01*
X174059746Y-90625476D01*
X174072534Y-90642719D01*
X174083570Y-90661132D01*
X174092749Y-90680538D01*
X174099981Y-90700750D01*
X174105197Y-90721574D01*
X174108347Y-90742809D01*
X174109400Y-90764250D01*
X174109400Y-91201750D01*
X174108347Y-91223191D01*
X174105197Y-91244426D01*
X174099981Y-91265250D01*
X174092749Y-91285462D01*
X174083570Y-91304868D01*
X174072534Y-91323281D01*
X174059746Y-91340524D01*
X174045330Y-91356430D01*
X174029424Y-91370846D01*
X174012181Y-91383634D01*
X173993768Y-91394670D01*
X173974362Y-91403849D01*
X173954150Y-91411081D01*
X173933326Y-91416297D01*
X173912091Y-91419447D01*
X173890650Y-91420500D01*
X173378150Y-91420500D01*
X173356709Y-91419447D01*
X173335474Y-91416297D01*
X173314650Y-91411081D01*
X173294438Y-91403849D01*
X173275032Y-91394670D01*
X173256619Y-91383634D01*
X173239376Y-91370846D01*
X173223470Y-91356430D01*
X173209054Y-91340524D01*
X173196266Y-91323281D01*
X173185230Y-91304868D01*
X173176051Y-91285462D01*
X173168819Y-91265250D01*
X173163603Y-91244426D01*
X173160453Y-91223191D01*
X173159400Y-91201750D01*
X173159400Y-90764250D01*
X173160453Y-90742809D01*
X173163603Y-90721574D01*
X173168819Y-90700750D01*
X173176051Y-90680538D01*
X173185230Y-90661132D01*
X173196266Y-90642719D01*
X173209054Y-90625476D01*
X173223470Y-90609570D01*
X173239376Y-90595154D01*
X173256619Y-90582366D01*
X173275032Y-90571330D01*
X173294438Y-90562151D01*
X173314650Y-90554919D01*
X173335474Y-90549703D01*
X173356709Y-90546553D01*
X173378150Y-90545500D01*
X173890650Y-90545500D01*
X173912091Y-90546553D01*
X173912091Y-90546553D01*
G37*
D16*
G04 #@! TD*
G04 #@! TO.P,C4,1*
G04 #@! TO.N,/5v_from_24v*
X173634400Y-90983000D03*
D10*
G04 #@! TO.N,/5v_from_24v*
G04 #@! TO.C,R1*
G36*
X177112491Y-92374953D02*
X177133726Y-92378103D01*
X177154550Y-92383319D01*
X177174762Y-92390551D01*
X177194168Y-92399730D01*
X177212581Y-92410766D01*
X177229824Y-92423554D01*
X177245730Y-92437970D01*
X177260146Y-92453876D01*
X177272934Y-92471119D01*
X177283970Y-92489532D01*
X177293149Y-92508938D01*
X177300381Y-92529150D01*
X177305597Y-92549974D01*
X177308747Y-92571209D01*
X177309800Y-92592650D01*
X177309800Y-93030150D01*
X177308747Y-93051591D01*
X177305597Y-93072826D01*
X177300381Y-93093650D01*
X177293149Y-93113862D01*
X177283970Y-93133268D01*
X177272934Y-93151681D01*
X177260146Y-93168924D01*
X177245730Y-93184830D01*
X177229824Y-93199246D01*
X177212581Y-93212034D01*
X177194168Y-93223070D01*
X177174762Y-93232249D01*
X177154550Y-93239481D01*
X177133726Y-93244697D01*
X177112491Y-93247847D01*
X177091050Y-93248900D01*
X176578550Y-93248900D01*
X176557109Y-93247847D01*
X176535874Y-93244697D01*
X176515050Y-93239481D01*
X176494838Y-93232249D01*
X176475432Y-93223070D01*
X176457019Y-93212034D01*
X176439776Y-93199246D01*
X176423870Y-93184830D01*
X176409454Y-93168924D01*
X176396666Y-93151681D01*
X176385630Y-93133268D01*
X176376451Y-93113862D01*
X176369219Y-93093650D01*
X176364003Y-93072826D01*
X176360853Y-93051591D01*
X176359800Y-93030150D01*
X176359800Y-92592650D01*
X176360853Y-92571209D01*
X176364003Y-92549974D01*
X176369219Y-92529150D01*
X176376451Y-92508938D01*
X176385630Y-92489532D01*
X176396666Y-92471119D01*
X176409454Y-92453876D01*
X176423870Y-92437970D01*
X176439776Y-92423554D01*
X176457019Y-92410766D01*
X176475432Y-92399730D01*
X176494838Y-92390551D01*
X176515050Y-92383319D01*
X176535874Y-92378103D01*
X176557109Y-92374953D01*
X176578550Y-92373900D01*
X177091050Y-92373900D01*
X177112491Y-92374953D01*
X177112491Y-92374953D01*
G37*
D16*
G04 #@! TD*
G04 #@! TO.P,R1,1*
G04 #@! TO.N,/5v_from_24v*
X176834800Y-92811400D03*
D10*
G04 #@! TO.N,Net-(R1-Pad2)*
G04 #@! TO.C,R1*
G36*
X177112491Y-93949953D02*
X177133726Y-93953103D01*
X177154550Y-93958319D01*
X177174762Y-93965551D01*
X177194168Y-93974730D01*
X177212581Y-93985766D01*
X177229824Y-93998554D01*
X177245730Y-94012970D01*
X177260146Y-94028876D01*
X177272934Y-94046119D01*
X177283970Y-94064532D01*
X177293149Y-94083938D01*
X177300381Y-94104150D01*
X177305597Y-94124974D01*
X177308747Y-94146209D01*
X177309800Y-94167650D01*
X177309800Y-94605150D01*
X177308747Y-94626591D01*
X177305597Y-94647826D01*
X177300381Y-94668650D01*
X177293149Y-94688862D01*
X177283970Y-94708268D01*
X177272934Y-94726681D01*
X177260146Y-94743924D01*
X177245730Y-94759830D01*
X177229824Y-94774246D01*
X177212581Y-94787034D01*
X177194168Y-94798070D01*
X177174762Y-94807249D01*
X177154550Y-94814481D01*
X177133726Y-94819697D01*
X177112491Y-94822847D01*
X177091050Y-94823900D01*
X176578550Y-94823900D01*
X176557109Y-94822847D01*
X176535874Y-94819697D01*
X176515050Y-94814481D01*
X176494838Y-94807249D01*
X176475432Y-94798070D01*
X176457019Y-94787034D01*
X176439776Y-94774246D01*
X176423870Y-94759830D01*
X176409454Y-94743924D01*
X176396666Y-94726681D01*
X176385630Y-94708268D01*
X176376451Y-94688862D01*
X176369219Y-94668650D01*
X176364003Y-94647826D01*
X176360853Y-94626591D01*
X176359800Y-94605150D01*
X176359800Y-94167650D01*
X176360853Y-94146209D01*
X176364003Y-94124974D01*
X176369219Y-94104150D01*
X176376451Y-94083938D01*
X176385630Y-94064532D01*
X176396666Y-94046119D01*
X176409454Y-94028876D01*
X176423870Y-94012970D01*
X176439776Y-93998554D01*
X176457019Y-93985766D01*
X176475432Y-93974730D01*
X176494838Y-93965551D01*
X176515050Y-93958319D01*
X176535874Y-93953103D01*
X176557109Y-93949953D01*
X176578550Y-93948900D01*
X177091050Y-93948900D01*
X177112491Y-93949953D01*
X177112491Y-93949953D01*
G37*
D16*
G04 #@! TD*
G04 #@! TO.P,R1,2*
G04 #@! TO.N,Net-(R1-Pad2)*
X176834800Y-94386400D03*
D17*
G04 #@! TO.P,J2,2*
G04 #@! TO.N,+24V*
X190398400Y-99607000D03*
D18*
G04 #@! TO.P,J2,1*
G04 #@! TO.N,GND*
X190398400Y-94107000D03*
G04 #@! TD*
D17*
G04 #@! TO.P,J3,2*
G04 #@! TO.N,+24V*
X190373000Y-81876000D03*
D18*
G04 #@! TO.P,J3,1*
G04 #@! TO.N,GND*
X190373000Y-87376000D03*
G04 #@! TD*
D17*
G04 #@! TO.P,J4,2*
G04 #@! TO.N,+24V*
X108204000Y-99632400D03*
D18*
G04 #@! TO.P,J4,1*
G04 #@! TO.N,GND*
X108204000Y-94132400D03*
G04 #@! TD*
G04 #@! TO.P,J5,1*
G04 #@! TO.N,GND*
X108204000Y-87376000D03*
D17*
G04 #@! TO.P,J5,2*
G04 #@! TO.N,+24V*
X108204000Y-81876000D03*
G04 #@! TD*
D10*
G04 #@! TO.N,+24V*
G04 #@! TO.C,C1*
G36*
X184072091Y-90521053D02*
X184093326Y-90524203D01*
X184114150Y-90529419D01*
X184134362Y-90536651D01*
X184153768Y-90545830D01*
X184172181Y-90556866D01*
X184189424Y-90569654D01*
X184205330Y-90584070D01*
X184219746Y-90599976D01*
X184232534Y-90617219D01*
X184243570Y-90635632D01*
X184252749Y-90655038D01*
X184259981Y-90675250D01*
X184265197Y-90696074D01*
X184268347Y-90717309D01*
X184269400Y-90738750D01*
X184269400Y-91176250D01*
X184268347Y-91197691D01*
X184265197Y-91218926D01*
X184259981Y-91239750D01*
X184252749Y-91259962D01*
X184243570Y-91279368D01*
X184232534Y-91297781D01*
X184219746Y-91315024D01*
X184205330Y-91330930D01*
X184189424Y-91345346D01*
X184172181Y-91358134D01*
X184153768Y-91369170D01*
X184134362Y-91378349D01*
X184114150Y-91385581D01*
X184093326Y-91390797D01*
X184072091Y-91393947D01*
X184050650Y-91395000D01*
X183538150Y-91395000D01*
X183516709Y-91393947D01*
X183495474Y-91390797D01*
X183474650Y-91385581D01*
X183454438Y-91378349D01*
X183435032Y-91369170D01*
X183416619Y-91358134D01*
X183399376Y-91345346D01*
X183383470Y-91330930D01*
X183369054Y-91315024D01*
X183356266Y-91297781D01*
X183345230Y-91279368D01*
X183336051Y-91259962D01*
X183328819Y-91239750D01*
X183323603Y-91218926D01*
X183320453Y-91197691D01*
X183319400Y-91176250D01*
X183319400Y-90738750D01*
X183320453Y-90717309D01*
X183323603Y-90696074D01*
X183328819Y-90675250D01*
X183336051Y-90655038D01*
X183345230Y-90635632D01*
X183356266Y-90617219D01*
X183369054Y-90599976D01*
X183383470Y-90584070D01*
X183399376Y-90569654D01*
X183416619Y-90556866D01*
X183435032Y-90545830D01*
X183454438Y-90536651D01*
X183474650Y-90529419D01*
X183495474Y-90524203D01*
X183516709Y-90521053D01*
X183538150Y-90520000D01*
X184050650Y-90520000D01*
X184072091Y-90521053D01*
X184072091Y-90521053D01*
G37*
D16*
G04 #@! TD*
G04 #@! TO.P,C1,1*
G04 #@! TO.N,+24V*
X183794400Y-90957500D03*
D10*
G04 #@! TO.N,GND*
G04 #@! TO.C,C1*
G36*
X184072091Y-88946053D02*
X184093326Y-88949203D01*
X184114150Y-88954419D01*
X184134362Y-88961651D01*
X184153768Y-88970830D01*
X184172181Y-88981866D01*
X184189424Y-88994654D01*
X184205330Y-89009070D01*
X184219746Y-89024976D01*
X184232534Y-89042219D01*
X184243570Y-89060632D01*
X184252749Y-89080038D01*
X184259981Y-89100250D01*
X184265197Y-89121074D01*
X184268347Y-89142309D01*
X184269400Y-89163750D01*
X184269400Y-89601250D01*
X184268347Y-89622691D01*
X184265197Y-89643926D01*
X184259981Y-89664750D01*
X184252749Y-89684962D01*
X184243570Y-89704368D01*
X184232534Y-89722781D01*
X184219746Y-89740024D01*
X184205330Y-89755930D01*
X184189424Y-89770346D01*
X184172181Y-89783134D01*
X184153768Y-89794170D01*
X184134362Y-89803349D01*
X184114150Y-89810581D01*
X184093326Y-89815797D01*
X184072091Y-89818947D01*
X184050650Y-89820000D01*
X183538150Y-89820000D01*
X183516709Y-89818947D01*
X183495474Y-89815797D01*
X183474650Y-89810581D01*
X183454438Y-89803349D01*
X183435032Y-89794170D01*
X183416619Y-89783134D01*
X183399376Y-89770346D01*
X183383470Y-89755930D01*
X183369054Y-89740024D01*
X183356266Y-89722781D01*
X183345230Y-89704368D01*
X183336051Y-89684962D01*
X183328819Y-89664750D01*
X183323603Y-89643926D01*
X183320453Y-89622691D01*
X183319400Y-89601250D01*
X183319400Y-89163750D01*
X183320453Y-89142309D01*
X183323603Y-89121074D01*
X183328819Y-89100250D01*
X183336051Y-89080038D01*
X183345230Y-89060632D01*
X183356266Y-89042219D01*
X183369054Y-89024976D01*
X183383470Y-89009070D01*
X183399376Y-88994654D01*
X183416619Y-88981866D01*
X183435032Y-88970830D01*
X183454438Y-88961651D01*
X183474650Y-88954419D01*
X183495474Y-88949203D01*
X183516709Y-88946053D01*
X183538150Y-88945000D01*
X184050650Y-88945000D01*
X184072091Y-88946053D01*
X184072091Y-88946053D01*
G37*
D16*
G04 #@! TD*
G04 #@! TO.P,C1,2*
G04 #@! TO.N,GND*
X183794400Y-89382500D03*
D10*
G04 #@! TO.N,GND*
G04 #@! TO.C,C13*
G36*
X149769491Y-120899453D02*
X149790726Y-120902603D01*
X149811550Y-120907819D01*
X149831762Y-120915051D01*
X149851168Y-120924230D01*
X149869581Y-120935266D01*
X149886824Y-120948054D01*
X149902730Y-120962470D01*
X149917146Y-120978376D01*
X149929934Y-120995619D01*
X149940970Y-121014032D01*
X149950149Y-121033438D01*
X149957381Y-121053650D01*
X149962597Y-121074474D01*
X149965747Y-121095709D01*
X149966800Y-121117150D01*
X149966800Y-121554650D01*
X149965747Y-121576091D01*
X149962597Y-121597326D01*
X149957381Y-121618150D01*
X149950149Y-121638362D01*
X149940970Y-121657768D01*
X149929934Y-121676181D01*
X149917146Y-121693424D01*
X149902730Y-121709330D01*
X149886824Y-121723746D01*
X149869581Y-121736534D01*
X149851168Y-121747570D01*
X149831762Y-121756749D01*
X149811550Y-121763981D01*
X149790726Y-121769197D01*
X149769491Y-121772347D01*
X149748050Y-121773400D01*
X149235550Y-121773400D01*
X149214109Y-121772347D01*
X149192874Y-121769197D01*
X149172050Y-121763981D01*
X149151838Y-121756749D01*
X149132432Y-121747570D01*
X149114019Y-121736534D01*
X149096776Y-121723746D01*
X149080870Y-121709330D01*
X149066454Y-121693424D01*
X149053666Y-121676181D01*
X149042630Y-121657768D01*
X149033451Y-121638362D01*
X149026219Y-121618150D01*
X149021003Y-121597326D01*
X149017853Y-121576091D01*
X149016800Y-121554650D01*
X149016800Y-121117150D01*
X149017853Y-121095709D01*
X149021003Y-121074474D01*
X149026219Y-121053650D01*
X149033451Y-121033438D01*
X149042630Y-121014032D01*
X149053666Y-120995619D01*
X149066454Y-120978376D01*
X149080870Y-120962470D01*
X149096776Y-120948054D01*
X149114019Y-120935266D01*
X149132432Y-120924230D01*
X149151838Y-120915051D01*
X149172050Y-120907819D01*
X149192874Y-120902603D01*
X149214109Y-120899453D01*
X149235550Y-120898400D01*
X149748050Y-120898400D01*
X149769491Y-120899453D01*
X149769491Y-120899453D01*
G37*
D16*
G04 #@! TD*
G04 #@! TO.P,C13,2*
G04 #@! TO.N,GND*
X149491800Y-121335900D03*
D10*
G04 #@! TO.N,/NXP/RTCin*
G04 #@! TO.C,C13*
G36*
X149769491Y-119324453D02*
X149790726Y-119327603D01*
X149811550Y-119332819D01*
X149831762Y-119340051D01*
X149851168Y-119349230D01*
X149869581Y-119360266D01*
X149886824Y-119373054D01*
X149902730Y-119387470D01*
X149917146Y-119403376D01*
X149929934Y-119420619D01*
X149940970Y-119439032D01*
X149950149Y-119458438D01*
X149957381Y-119478650D01*
X149962597Y-119499474D01*
X149965747Y-119520709D01*
X149966800Y-119542150D01*
X149966800Y-119979650D01*
X149965747Y-120001091D01*
X149962597Y-120022326D01*
X149957381Y-120043150D01*
X149950149Y-120063362D01*
X149940970Y-120082768D01*
X149929934Y-120101181D01*
X149917146Y-120118424D01*
X149902730Y-120134330D01*
X149886824Y-120148746D01*
X149869581Y-120161534D01*
X149851168Y-120172570D01*
X149831762Y-120181749D01*
X149811550Y-120188981D01*
X149790726Y-120194197D01*
X149769491Y-120197347D01*
X149748050Y-120198400D01*
X149235550Y-120198400D01*
X149214109Y-120197347D01*
X149192874Y-120194197D01*
X149172050Y-120188981D01*
X149151838Y-120181749D01*
X149132432Y-120172570D01*
X149114019Y-120161534D01*
X149096776Y-120148746D01*
X149080870Y-120134330D01*
X149066454Y-120118424D01*
X149053666Y-120101181D01*
X149042630Y-120082768D01*
X149033451Y-120063362D01*
X149026219Y-120043150D01*
X149021003Y-120022326D01*
X149017853Y-120001091D01*
X149016800Y-119979650D01*
X149016800Y-119542150D01*
X149017853Y-119520709D01*
X149021003Y-119499474D01*
X149026219Y-119478650D01*
X149033451Y-119458438D01*
X149042630Y-119439032D01*
X149053666Y-119420619D01*
X149066454Y-119403376D01*
X149080870Y-119387470D01*
X149096776Y-119373054D01*
X149114019Y-119360266D01*
X149132432Y-119349230D01*
X149151838Y-119340051D01*
X149172050Y-119332819D01*
X149192874Y-119327603D01*
X149214109Y-119324453D01*
X149235550Y-119323400D01*
X149748050Y-119323400D01*
X149769491Y-119324453D01*
X149769491Y-119324453D01*
G37*
D16*
G04 #@! TD*
G04 #@! TO.P,C13,1*
G04 #@! TO.N,/NXP/RTCin*
X149491800Y-119760900D03*
D10*
G04 #@! TO.N,/NXP/RTCout*
G04 #@! TO.C,C14*
G36*
X147673991Y-119260953D02*
X147695226Y-119264103D01*
X147716050Y-119269319D01*
X147736262Y-119276551D01*
X147755668Y-119285730D01*
X147774081Y-119296766D01*
X147791324Y-119309554D01*
X147807230Y-119323970D01*
X147821646Y-119339876D01*
X147834434Y-119357119D01*
X147845470Y-119375532D01*
X147854649Y-119394938D01*
X147861881Y-119415150D01*
X147867097Y-119435974D01*
X147870247Y-119457209D01*
X147871300Y-119478650D01*
X147871300Y-119916150D01*
X147870247Y-119937591D01*
X147867097Y-119958826D01*
X147861881Y-119979650D01*
X147854649Y-119999862D01*
X147845470Y-120019268D01*
X147834434Y-120037681D01*
X147821646Y-120054924D01*
X147807230Y-120070830D01*
X147791324Y-120085246D01*
X147774081Y-120098034D01*
X147755668Y-120109070D01*
X147736262Y-120118249D01*
X147716050Y-120125481D01*
X147695226Y-120130697D01*
X147673991Y-120133847D01*
X147652550Y-120134900D01*
X147140050Y-120134900D01*
X147118609Y-120133847D01*
X147097374Y-120130697D01*
X147076550Y-120125481D01*
X147056338Y-120118249D01*
X147036932Y-120109070D01*
X147018519Y-120098034D01*
X147001276Y-120085246D01*
X146985370Y-120070830D01*
X146970954Y-120054924D01*
X146958166Y-120037681D01*
X146947130Y-120019268D01*
X146937951Y-119999862D01*
X146930719Y-119979650D01*
X146925503Y-119958826D01*
X146922353Y-119937591D01*
X146921300Y-119916150D01*
X146921300Y-119478650D01*
X146922353Y-119457209D01*
X146925503Y-119435974D01*
X146930719Y-119415150D01*
X146937951Y-119394938D01*
X146947130Y-119375532D01*
X146958166Y-119357119D01*
X146970954Y-119339876D01*
X146985370Y-119323970D01*
X147001276Y-119309554D01*
X147018519Y-119296766D01*
X147036932Y-119285730D01*
X147056338Y-119276551D01*
X147076550Y-119269319D01*
X147097374Y-119264103D01*
X147118609Y-119260953D01*
X147140050Y-119259900D01*
X147652550Y-119259900D01*
X147673991Y-119260953D01*
X147673991Y-119260953D01*
G37*
D16*
G04 #@! TD*
G04 #@! TO.P,C14,1*
G04 #@! TO.N,/NXP/RTCout*
X147396300Y-119697400D03*
D10*
G04 #@! TO.N,GND*
G04 #@! TO.C,C14*
G36*
X147673991Y-120835953D02*
X147695226Y-120839103D01*
X147716050Y-120844319D01*
X147736262Y-120851551D01*
X147755668Y-120860730D01*
X147774081Y-120871766D01*
X147791324Y-120884554D01*
X147807230Y-120898970D01*
X147821646Y-120914876D01*
X147834434Y-120932119D01*
X147845470Y-120950532D01*
X147854649Y-120969938D01*
X147861881Y-120990150D01*
X147867097Y-121010974D01*
X147870247Y-121032209D01*
X147871300Y-121053650D01*
X147871300Y-121491150D01*
X147870247Y-121512591D01*
X147867097Y-121533826D01*
X147861881Y-121554650D01*
X147854649Y-121574862D01*
X147845470Y-121594268D01*
X147834434Y-121612681D01*
X147821646Y-121629924D01*
X147807230Y-121645830D01*
X147791324Y-121660246D01*
X147774081Y-121673034D01*
X147755668Y-121684070D01*
X147736262Y-121693249D01*
X147716050Y-121700481D01*
X147695226Y-121705697D01*
X147673991Y-121708847D01*
X147652550Y-121709900D01*
X147140050Y-121709900D01*
X147118609Y-121708847D01*
X147097374Y-121705697D01*
X147076550Y-121700481D01*
X147056338Y-121693249D01*
X147036932Y-121684070D01*
X147018519Y-121673034D01*
X147001276Y-121660246D01*
X146985370Y-121645830D01*
X146970954Y-121629924D01*
X146958166Y-121612681D01*
X146947130Y-121594268D01*
X146937951Y-121574862D01*
X146930719Y-121554650D01*
X146925503Y-121533826D01*
X146922353Y-121512591D01*
X146921300Y-121491150D01*
X146921300Y-121053650D01*
X146922353Y-121032209D01*
X146925503Y-121010974D01*
X146930719Y-120990150D01*
X146937951Y-120969938D01*
X146947130Y-120950532D01*
X146958166Y-120932119D01*
X146970954Y-120914876D01*
X146985370Y-120898970D01*
X147001276Y-120884554D01*
X147018519Y-120871766D01*
X147036932Y-120860730D01*
X147056338Y-120851551D01*
X147076550Y-120844319D01*
X147097374Y-120839103D01*
X147118609Y-120835953D01*
X147140050Y-120834900D01*
X147652550Y-120834900D01*
X147673991Y-120835953D01*
X147673991Y-120835953D01*
G37*
D16*
G04 #@! TD*
G04 #@! TO.P,C14,2*
G04 #@! TO.N,GND*
X147396300Y-121272400D03*
D10*
G04 #@! TO.N,GND*
G04 #@! TO.C,C15*
G36*
X122832691Y-107297653D02*
X122853926Y-107300803D01*
X122874750Y-107306019D01*
X122894962Y-107313251D01*
X122914368Y-107322430D01*
X122932781Y-107333466D01*
X122950024Y-107346254D01*
X122965930Y-107360670D01*
X122980346Y-107376576D01*
X122993134Y-107393819D01*
X123004170Y-107412232D01*
X123013349Y-107431638D01*
X123020581Y-107451850D01*
X123025797Y-107472674D01*
X123028947Y-107493909D01*
X123030000Y-107515350D01*
X123030000Y-107952850D01*
X123028947Y-107974291D01*
X123025797Y-107995526D01*
X123020581Y-108016350D01*
X123013349Y-108036562D01*
X123004170Y-108055968D01*
X122993134Y-108074381D01*
X122980346Y-108091624D01*
X122965930Y-108107530D01*
X122950024Y-108121946D01*
X122932781Y-108134734D01*
X122914368Y-108145770D01*
X122894962Y-108154949D01*
X122874750Y-108162181D01*
X122853926Y-108167397D01*
X122832691Y-108170547D01*
X122811250Y-108171600D01*
X122298750Y-108171600D01*
X122277309Y-108170547D01*
X122256074Y-108167397D01*
X122235250Y-108162181D01*
X122215038Y-108154949D01*
X122195632Y-108145770D01*
X122177219Y-108134734D01*
X122159976Y-108121946D01*
X122144070Y-108107530D01*
X122129654Y-108091624D01*
X122116866Y-108074381D01*
X122105830Y-108055968D01*
X122096651Y-108036562D01*
X122089419Y-108016350D01*
X122084203Y-107995526D01*
X122081053Y-107974291D01*
X122080000Y-107952850D01*
X122080000Y-107515350D01*
X122081053Y-107493909D01*
X122084203Y-107472674D01*
X122089419Y-107451850D01*
X122096651Y-107431638D01*
X122105830Y-107412232D01*
X122116866Y-107393819D01*
X122129654Y-107376576D01*
X122144070Y-107360670D01*
X122159976Y-107346254D01*
X122177219Y-107333466D01*
X122195632Y-107322430D01*
X122215038Y-107313251D01*
X122235250Y-107306019D01*
X122256074Y-107300803D01*
X122277309Y-107297653D01*
X122298750Y-107296600D01*
X122811250Y-107296600D01*
X122832691Y-107297653D01*
X122832691Y-107297653D01*
G37*
D16*
G04 #@! TD*
G04 #@! TO.P,C15,2*
G04 #@! TO.N,GND*
X122555000Y-107734100D03*
D10*
G04 #@! TO.N,Net-(C15-Pad1)*
G04 #@! TO.C,C15*
G36*
X122832691Y-105722653D02*
X122853926Y-105725803D01*
X122874750Y-105731019D01*
X122894962Y-105738251D01*
X122914368Y-105747430D01*
X122932781Y-105758466D01*
X122950024Y-105771254D01*
X122965930Y-105785670D01*
X122980346Y-105801576D01*
X122993134Y-105818819D01*
X123004170Y-105837232D01*
X123013349Y-105856638D01*
X123020581Y-105876850D01*
X123025797Y-105897674D01*
X123028947Y-105918909D01*
X123030000Y-105940350D01*
X123030000Y-106377850D01*
X123028947Y-106399291D01*
X123025797Y-106420526D01*
X123020581Y-106441350D01*
X123013349Y-106461562D01*
X123004170Y-106480968D01*
X122993134Y-106499381D01*
X122980346Y-106516624D01*
X122965930Y-106532530D01*
X122950024Y-106546946D01*
X122932781Y-106559734D01*
X122914368Y-106570770D01*
X122894962Y-106579949D01*
X122874750Y-106587181D01*
X122853926Y-106592397D01*
X122832691Y-106595547D01*
X122811250Y-106596600D01*
X122298750Y-106596600D01*
X122277309Y-106595547D01*
X122256074Y-106592397D01*
X122235250Y-106587181D01*
X122215038Y-106579949D01*
X122195632Y-106570770D01*
X122177219Y-106559734D01*
X122159976Y-106546946D01*
X122144070Y-106532530D01*
X122129654Y-106516624D01*
X122116866Y-106499381D01*
X122105830Y-106480968D01*
X122096651Y-106461562D01*
X122089419Y-106441350D01*
X122084203Y-106420526D01*
X122081053Y-106399291D01*
X122080000Y-106377850D01*
X122080000Y-105940350D01*
X122081053Y-105918909D01*
X122084203Y-105897674D01*
X122089419Y-105876850D01*
X122096651Y-105856638D01*
X122105830Y-105837232D01*
X122116866Y-105818819D01*
X122129654Y-105801576D01*
X122144070Y-105785670D01*
X122159976Y-105771254D01*
X122177219Y-105758466D01*
X122195632Y-105747430D01*
X122215038Y-105738251D01*
X122235250Y-105731019D01*
X122256074Y-105725803D01*
X122277309Y-105722653D01*
X122298750Y-105721600D01*
X122811250Y-105721600D01*
X122832691Y-105722653D01*
X122832691Y-105722653D01*
G37*
D16*
G04 #@! TD*
G04 #@! TO.P,C15,1*
G04 #@! TO.N,Net-(C15-Pad1)*
X122555000Y-106159100D03*
D10*
G04 #@! TO.N,GND*
G04 #@! TO.C,C16*
G36*
X116469991Y-107348553D02*
X116491226Y-107351703D01*
X116512050Y-107356919D01*
X116532262Y-107364151D01*
X116551668Y-107373330D01*
X116570081Y-107384366D01*
X116587324Y-107397154D01*
X116603230Y-107411570D01*
X116617646Y-107427476D01*
X116630434Y-107444719D01*
X116641470Y-107463132D01*
X116650649Y-107482538D01*
X116657881Y-107502750D01*
X116663097Y-107523574D01*
X116666247Y-107544809D01*
X116667300Y-107566250D01*
X116667300Y-108003750D01*
X116666247Y-108025191D01*
X116663097Y-108046426D01*
X116657881Y-108067250D01*
X116650649Y-108087462D01*
X116641470Y-108106868D01*
X116630434Y-108125281D01*
X116617646Y-108142524D01*
X116603230Y-108158430D01*
X116587324Y-108172846D01*
X116570081Y-108185634D01*
X116551668Y-108196670D01*
X116532262Y-108205849D01*
X116512050Y-108213081D01*
X116491226Y-108218297D01*
X116469991Y-108221447D01*
X116448550Y-108222500D01*
X115936050Y-108222500D01*
X115914609Y-108221447D01*
X115893374Y-108218297D01*
X115872550Y-108213081D01*
X115852338Y-108205849D01*
X115832932Y-108196670D01*
X115814519Y-108185634D01*
X115797276Y-108172846D01*
X115781370Y-108158430D01*
X115766954Y-108142524D01*
X115754166Y-108125281D01*
X115743130Y-108106868D01*
X115733951Y-108087462D01*
X115726719Y-108067250D01*
X115721503Y-108046426D01*
X115718353Y-108025191D01*
X115717300Y-108003750D01*
X115717300Y-107566250D01*
X115718353Y-107544809D01*
X115721503Y-107523574D01*
X115726719Y-107502750D01*
X115733951Y-107482538D01*
X115743130Y-107463132D01*
X115754166Y-107444719D01*
X115766954Y-107427476D01*
X115781370Y-107411570D01*
X115797276Y-107397154D01*
X115814519Y-107384366D01*
X115832932Y-107373330D01*
X115852338Y-107364151D01*
X115872550Y-107356919D01*
X115893374Y-107351703D01*
X115914609Y-107348553D01*
X115936050Y-107347500D01*
X116448550Y-107347500D01*
X116469991Y-107348553D01*
X116469991Y-107348553D01*
G37*
D16*
G04 #@! TD*
G04 #@! TO.P,C16,2*
G04 #@! TO.N,GND*
X116192300Y-107785000D03*
D10*
G04 #@! TO.N,Net-(C16-Pad1)*
G04 #@! TO.C,C16*
G36*
X116469991Y-105773553D02*
X116491226Y-105776703D01*
X116512050Y-105781919D01*
X116532262Y-105789151D01*
X116551668Y-105798330D01*
X116570081Y-105809366D01*
X116587324Y-105822154D01*
X116603230Y-105836570D01*
X116617646Y-105852476D01*
X116630434Y-105869719D01*
X116641470Y-105888132D01*
X116650649Y-105907538D01*
X116657881Y-105927750D01*
X116663097Y-105948574D01*
X116666247Y-105969809D01*
X116667300Y-105991250D01*
X116667300Y-106428750D01*
X116666247Y-106450191D01*
X116663097Y-106471426D01*
X116657881Y-106492250D01*
X116650649Y-106512462D01*
X116641470Y-106531868D01*
X116630434Y-106550281D01*
X116617646Y-106567524D01*
X116603230Y-106583430D01*
X116587324Y-106597846D01*
X116570081Y-106610634D01*
X116551668Y-106621670D01*
X116532262Y-106630849D01*
X116512050Y-106638081D01*
X116491226Y-106643297D01*
X116469991Y-106646447D01*
X116448550Y-106647500D01*
X115936050Y-106647500D01*
X115914609Y-106646447D01*
X115893374Y-106643297D01*
X115872550Y-106638081D01*
X115852338Y-106630849D01*
X115832932Y-106621670D01*
X115814519Y-106610634D01*
X115797276Y-106597846D01*
X115781370Y-106583430D01*
X115766954Y-106567524D01*
X115754166Y-106550281D01*
X115743130Y-106531868D01*
X115733951Y-106512462D01*
X115726719Y-106492250D01*
X115721503Y-106471426D01*
X115718353Y-106450191D01*
X115717300Y-106428750D01*
X115717300Y-105991250D01*
X115718353Y-105969809D01*
X115721503Y-105948574D01*
X115726719Y-105927750D01*
X115733951Y-105907538D01*
X115743130Y-105888132D01*
X115754166Y-105869719D01*
X115766954Y-105852476D01*
X115781370Y-105836570D01*
X115797276Y-105822154D01*
X115814519Y-105809366D01*
X115832932Y-105798330D01*
X115852338Y-105789151D01*
X115872550Y-105781919D01*
X115893374Y-105776703D01*
X115914609Y-105773553D01*
X115936050Y-105772500D01*
X116448550Y-105772500D01*
X116469991Y-105773553D01*
X116469991Y-105773553D01*
G37*
D16*
G04 #@! TD*
G04 #@! TO.P,C16,1*
G04 #@! TO.N,Net-(C16-Pad1)*
X116192300Y-106210000D03*
D19*
G04 #@! TO.P,J1,1*
G04 #@! TO.N,GND*
X167335200Y-81762600D03*
D20*
G04 #@! TO.P,J1,2*
G04 #@! TO.N,+3V3*
X167335200Y-84302600D03*
G04 #@! TD*
D21*
G04 #@! TO.P,J6,1*
G04 #@! TO.N,GND*
X173799500Y-60706000D03*
G04 #@! TD*
G04 #@! TO.P,J7,1*
G04 #@! TO.N,GND*
X124841000Y-60706000D03*
G04 #@! TD*
G04 #@! TO.P,J8,1*
G04 #@! TO.N,GND*
X173799500Y-120713500D03*
G04 #@! TD*
G04 #@! TO.P,J9,1*
G04 #@! TO.N,GND*
X124815600Y-120700800D03*
G04 #@! TD*
D22*
G04 #@! TO.P,J11,1*
G04 #@! TO.N,+3V3*
X134544975Y-103721718D03*
D10*
G04 #@! TD*
G04 #@! TO.N,+3V3*
G04 #@! TO.C,J11*
G36*
X135285499Y-104735880D02*
X134585815Y-104976801D01*
X133804451Y-102707556D01*
X134504135Y-102466635D01*
X135285499Y-104735880D01*
X135285499Y-104735880D01*
G37*
D22*
G04 #@! TO.P,J11,2*
G04 #@! TO.N,/NXP/SWDIO*
X133275259Y-100034196D03*
D10*
G04 #@! TD*
G04 #@! TO.N,/NXP/SWDIO*
G04 #@! TO.C,J11*
G36*
X134015783Y-101048358D02*
X133316099Y-101289279D01*
X132534735Y-99020034D01*
X133234419Y-98779113D01*
X134015783Y-101048358D01*
X134015783Y-101048358D01*
G37*
D22*
G04 #@! TO.P,J11,3*
G04 #@! TO.N,GND*
X133344166Y-104135190D03*
D10*
G04 #@! TD*
G04 #@! TO.N,GND*
G04 #@! TO.C,J11*
G36*
X134084690Y-105149352D02*
X133385006Y-105390273D01*
X132603642Y-103121028D01*
X133303326Y-102880107D01*
X134084690Y-105149352D01*
X134084690Y-105149352D01*
G37*
D22*
G04 #@! TO.P,J11,4*
G04 #@! TO.N,/NXP/SWCLK*
X132074451Y-100447667D03*
D10*
G04 #@! TD*
G04 #@! TO.N,/NXP/SWCLK*
G04 #@! TO.C,J11*
G36*
X132814975Y-101461829D02*
X132115291Y-101702750D01*
X131333927Y-99433505D01*
X132033611Y-99192584D01*
X132814975Y-101461829D01*
X132814975Y-101461829D01*
G37*
D22*
G04 #@! TO.P,J11,5*
G04 #@! TO.N,GND*
X132143358Y-104548661D03*
D10*
G04 #@! TD*
G04 #@! TO.N,GND*
G04 #@! TO.C,J11*
G36*
X132883882Y-105562823D02*
X132184198Y-105803744D01*
X131402834Y-103534499D01*
X132102518Y-103293578D01*
X132883882Y-105562823D01*
X132883882Y-105562823D01*
G37*
D22*
G04 #@! TO.P,J11,6*
G04 #@! TO.N,Net-(J11-Pad6)*
X130873642Y-100861139D03*
D10*
G04 #@! TD*
G04 #@! TO.N,Net-(J11-Pad6)*
G04 #@! TO.C,J11*
G36*
X131614166Y-101875301D02*
X130914482Y-102116222D01*
X130133118Y-99846977D01*
X130832802Y-99606056D01*
X131614166Y-101875301D01*
X131614166Y-101875301D01*
G37*
D22*
G04 #@! TO.P,J11,7*
G04 #@! TO.N,Net-(J11-Pad7)*
X130942549Y-104962133D03*
D10*
G04 #@! TD*
G04 #@! TO.N,Net-(J11-Pad7)*
G04 #@! TO.C,J11*
G36*
X131683073Y-105976295D02*
X130983389Y-106217216D01*
X130202025Y-103947971D01*
X130901709Y-103707050D01*
X131683073Y-105976295D01*
X131683073Y-105976295D01*
G37*
D22*
G04 #@! TO.P,J11,8*
G04 #@! TO.N,Net-(J11-Pad8)*
X129672834Y-101274610D03*
D10*
G04 #@! TD*
G04 #@! TO.N,Net-(J11-Pad8)*
G04 #@! TO.C,J11*
G36*
X130413358Y-102288772D02*
X129713674Y-102529693D01*
X128932310Y-100260448D01*
X129631994Y-100019527D01*
X130413358Y-102288772D01*
X130413358Y-102288772D01*
G37*
D22*
G04 #@! TO.P,J11,9*
G04 #@! TO.N,GND*
X129741741Y-105375604D03*
D10*
G04 #@! TD*
G04 #@! TO.N,GND*
G04 #@! TO.C,J11*
G36*
X130482265Y-106389766D02*
X129782581Y-106630687D01*
X129001217Y-104361442D01*
X129700901Y-104120521D01*
X130482265Y-106389766D01*
X130482265Y-106389766D01*
G37*
D22*
G04 #@! TO.P,J11,10*
G04 #@! TO.N,/Reset_NXP*
X128472025Y-101688082D03*
D10*
G04 #@! TD*
G04 #@! TO.N,/Reset_NXP*
G04 #@! TO.C,J11*
G36*
X129212549Y-102702244D02*
X128512865Y-102943165D01*
X127731501Y-100673920D01*
X128431185Y-100432999D01*
X129212549Y-102702244D01*
X129212549Y-102702244D01*
G37*
D23*
G04 #@! TO.P,J12,MP*
G04 #@! TO.N,N/C*
X169522965Y-101279697D03*
D10*
G04 #@! TD*
G04 #@! TO.N,N/C*
G04 #@! TO.C,J12*
G36*
X170406925Y-100632210D02*
X169820903Y-102334144D01*
X168639005Y-101927184D01*
X169225027Y-100225250D01*
X170406925Y-100632210D01*
X170406925Y-100632210D01*
G37*
D23*
G04 #@! TO.P,J12,MP*
G04 #@! TO.N,N/C*
X181540506Y-105417669D03*
D10*
G04 #@! TD*
G04 #@! TO.N,N/C*
G04 #@! TO.C,J12*
G36*
X182424466Y-104770182D02*
X181838444Y-106472116D01*
X180656546Y-106065156D01*
X181242568Y-104363222D01*
X182424466Y-104770182D01*
X182424466Y-104770182D01*
G37*
D24*
G04 #@! TO.P,J12,6*
G04 #@! TO.N,+5V*
X170296342Y-107035044D03*
D10*
G04 #@! TD*
G04 #@! TO.N,+5V*
G04 #@! TO.C,J12*
G36*
X170742782Y-106659955D02*
X170417213Y-107605474D01*
X169849902Y-107410133D01*
X170175471Y-106464614D01*
X170742782Y-106659955D01*
X170742782Y-106659955D01*
G37*
D24*
G04 #@! TO.P,J12,5*
G04 #@! TO.N,/NXP/GPIO26*
X171714620Y-107523396D03*
D10*
G04 #@! TD*
G04 #@! TO.N,/NXP/GPIO26*
G04 #@! TO.C,J12*
G36*
X172161060Y-107148307D02*
X171835491Y-108093826D01*
X171268180Y-107898485D01*
X171593749Y-106952966D01*
X172161060Y-107148307D01*
X172161060Y-107148307D01*
G37*
D24*
G04 #@! TO.P,J12,4*
G04 #@! TO.N,/NXP/GPIO25*
X173132898Y-108011748D03*
D10*
G04 #@! TD*
G04 #@! TO.N,/NXP/GPIO25*
G04 #@! TO.C,J12*
G36*
X173579338Y-107636659D02*
X173253769Y-108582178D01*
X172686458Y-108386837D01*
X173012027Y-107441318D01*
X173579338Y-107636659D01*
X173579338Y-107636659D01*
G37*
D24*
G04 #@! TO.P,J12,3*
G04 #@! TO.N,/NXP/I2C_SDA_Flex1*
X174551176Y-108500101D03*
D10*
G04 #@! TD*
G04 #@! TO.N,/NXP/I2C_SDA_Flex1*
G04 #@! TO.C,J12*
G36*
X174997616Y-108125012D02*
X174672047Y-109070531D01*
X174104736Y-108875190D01*
X174430305Y-107929671D01*
X174997616Y-108125012D01*
X174997616Y-108125012D01*
G37*
D24*
G04 #@! TO.P,J12,2*
G04 #@! TO.N,/NXP/I2C_SCL_Flex1*
X175969454Y-108988453D03*
D10*
G04 #@! TD*
G04 #@! TO.N,/NXP/I2C_SCL_Flex1*
G04 #@! TO.C,J12*
G36*
X176415894Y-108613364D02*
X176090325Y-109558883D01*
X175523014Y-109363542D01*
X175848583Y-108418023D01*
X176415894Y-108613364D01*
X176415894Y-108613364D01*
G37*
D24*
G04 #@! TO.P,J12,1*
G04 #@! TO.N,GND*
X177387732Y-109476805D03*
D10*
G04 #@! TD*
G04 #@! TO.N,GND*
G04 #@! TO.C,J12*
G36*
X177834172Y-109101716D02*
X177508603Y-110047235D01*
X176941292Y-109851894D01*
X177266861Y-108906375D01*
X177834172Y-109101716D01*
X177834172Y-109101716D01*
G37*
D24*
G04 #@! TO.P,J14,1*
G04 #@! TO.N,/NXP/SPI_CS_flex7*
X172121020Y-73527804D03*
D10*
G04 #@! TD*
G04 #@! TO.N,/NXP/SPI_CS_flex7*
G04 #@! TO.C,J14*
G36*
X172000149Y-74098234D02*
X171674580Y-73152715D01*
X172241891Y-72957374D01*
X172567460Y-73902893D01*
X172000149Y-74098234D01*
X172000149Y-74098234D01*
G37*
D24*
G04 #@! TO.P,J14,2*
G04 #@! TO.N,/NXP/SPI_clock_flex7*
X173539298Y-73039452D03*
D10*
G04 #@! TD*
G04 #@! TO.N,/NXP/SPI_clock_flex7*
G04 #@! TO.C,J14*
G36*
X173418427Y-73609882D02*
X173092858Y-72664363D01*
X173660169Y-72469022D01*
X173985738Y-73414541D01*
X173418427Y-73609882D01*
X173418427Y-73609882D01*
G37*
D24*
G04 #@! TO.P,J14,3*
G04 #@! TO.N,/NXP/SPI_MOSI_flex7*
X174957576Y-72551099D03*
D10*
G04 #@! TD*
G04 #@! TO.N,/NXP/SPI_MOSI_flex7*
G04 #@! TO.C,J14*
G36*
X174836705Y-73121529D02*
X174511136Y-72176010D01*
X175078447Y-71980669D01*
X175404016Y-72926188D01*
X174836705Y-73121529D01*
X174836705Y-73121529D01*
G37*
D24*
G04 #@! TO.P,J14,4*
G04 #@! TO.N,/NXP/SPI_MISO_flex7*
X176375854Y-72062747D03*
D10*
G04 #@! TD*
G04 #@! TO.N,/NXP/SPI_MISO_flex7*
G04 #@! TO.C,J14*
G36*
X176254983Y-72633177D02*
X175929414Y-71687658D01*
X176496725Y-71492317D01*
X176822294Y-72437836D01*
X176254983Y-72633177D01*
X176254983Y-72633177D01*
G37*
D23*
G04 #@! TO.P,J14,MP*
G04 #@! TO.N,N/C*
X171347643Y-79283150D03*
D10*
G04 #@! TD*
G04 #@! TO.N,N/C*
G04 #@! TO.C,J14*
G36*
X171049705Y-80337597D02*
X170463683Y-78635663D01*
X171645581Y-78228703D01*
X172231603Y-79930637D01*
X171049705Y-80337597D01*
X171049705Y-80337597D01*
G37*
D23*
G04 #@! TO.P,J14,MP*
G04 #@! TO.N,N/C*
X180528627Y-76121884D03*
D10*
G04 #@! TD*
G04 #@! TO.N,N/C*
G04 #@! TO.C,J14*
G36*
X180230689Y-77176331D02*
X179644667Y-75474397D01*
X180826565Y-75067437D01*
X181412587Y-76769371D01*
X180230689Y-77176331D01*
X180230689Y-77176331D01*
G37*
D25*
G04 #@! TO.P,J15,6*
G04 #@! TO.N,GND*
X115300519Y-121355681D03*
X119267286Y-124399488D03*
D26*
X112863510Y-122888974D03*
D27*
G04 #@! TD*
G04 #@! TO.N,GND*
G04 #@! TO.C,J15*
X112650443Y-123166648D02*
X113076577Y-122611300D01*
D26*
G04 #@! TO.P,J15,6*
G04 #@! TO.N,GND*
X118416983Y-127150304D03*
D27*
G04 #@! TD*
G04 #@! TO.N,GND*
G04 #@! TO.C,J15*
X118630050Y-126872630D02*
X118203916Y-127427978D01*
D26*
G04 #@! TO.P,J17,6*
G04 #@! TO.N,GND*
X180071910Y-54207373D03*
D27*
G04 #@! TD*
G04 #@! TO.N,GND*
G04 #@! TO.C,J17*
X179858843Y-54485047D02*
X180284977Y-53929699D01*
D26*
G04 #@! TO.P,J17,6*
G04 #@! TO.N,GND*
X185625383Y-58468703D03*
D27*
G04 #@! TD*
G04 #@! TO.N,GND*
G04 #@! TO.C,J17*
X185838450Y-58191029D02*
X185412316Y-58746377D01*
D25*
G04 #@! TO.P,J17,6*
G04 #@! TO.N,GND*
X179221607Y-56958189D03*
X183188374Y-60001996D03*
G04 #@! TD*
D10*
G04 #@! TO.N,+5V*
G04 #@! TO.C,JP1*
G36*
X171233904Y-93258604D02*
X171258173Y-93262204D01*
X171281971Y-93268165D01*
X171305071Y-93276430D01*
X171327249Y-93286920D01*
X171348293Y-93299533D01*
X171367998Y-93314147D01*
X171386177Y-93330623D01*
X171402653Y-93348802D01*
X171417267Y-93368507D01*
X171429880Y-93389551D01*
X171440370Y-93411729D01*
X171448635Y-93434829D01*
X171454596Y-93458627D01*
X171458196Y-93482896D01*
X171459400Y-93507400D01*
X171459400Y-94757400D01*
X171458196Y-94781904D01*
X171454596Y-94806173D01*
X171448635Y-94829971D01*
X171440370Y-94853071D01*
X171429880Y-94875249D01*
X171417267Y-94896293D01*
X171402653Y-94915998D01*
X171386177Y-94934177D01*
X171367998Y-94950653D01*
X171348293Y-94965267D01*
X171327249Y-94977880D01*
X171305071Y-94988370D01*
X171281971Y-94996635D01*
X171258173Y-95002596D01*
X171233904Y-95006196D01*
X171209400Y-95007400D01*
X170459400Y-95007400D01*
X170434896Y-95006196D01*
X170410627Y-95002596D01*
X170386829Y-94996635D01*
X170363729Y-94988370D01*
X170341551Y-94977880D01*
X170320507Y-94965267D01*
X170300802Y-94950653D01*
X170282623Y-94934177D01*
X170266147Y-94915998D01*
X170251533Y-94896293D01*
X170238920Y-94875249D01*
X170228430Y-94853071D01*
X170220165Y-94829971D01*
X170214204Y-94806173D01*
X170210604Y-94781904D01*
X170209400Y-94757400D01*
X170209400Y-93507400D01*
X170210604Y-93482896D01*
X170214204Y-93458627D01*
X170220165Y-93434829D01*
X170228430Y-93411729D01*
X170238920Y-93389551D01*
X170251533Y-93368507D01*
X170266147Y-93348802D01*
X170282623Y-93330623D01*
X170300802Y-93314147D01*
X170320507Y-93299533D01*
X170341551Y-93286920D01*
X170363729Y-93276430D01*
X170386829Y-93268165D01*
X170410627Y-93262204D01*
X170434896Y-93258604D01*
X170459400Y-93257400D01*
X171209400Y-93257400D01*
X171233904Y-93258604D01*
X171233904Y-93258604D01*
G37*
D23*
G04 #@! TD*
G04 #@! TO.P,JP1,2*
G04 #@! TO.N,+5V*
X170834400Y-94132400D03*
D10*
G04 #@! TO.N,/5v_from_24v*
G04 #@! TO.C,JP1*
G36*
X174033904Y-93258604D02*
X174058173Y-93262204D01*
X174081971Y-93268165D01*
X174105071Y-93276430D01*
X174127249Y-93286920D01*
X174148293Y-93299533D01*
X174167998Y-93314147D01*
X174186177Y-93330623D01*
X174202653Y-93348802D01*
X174217267Y-93368507D01*
X174229880Y-93389551D01*
X174240370Y-93411729D01*
X174248635Y-93434829D01*
X174254596Y-93458627D01*
X174258196Y-93482896D01*
X174259400Y-93507400D01*
X174259400Y-94757400D01*
X174258196Y-94781904D01*
X174254596Y-94806173D01*
X174248635Y-94829971D01*
X174240370Y-94853071D01*
X174229880Y-94875249D01*
X174217267Y-94896293D01*
X174202653Y-94915998D01*
X174186177Y-94934177D01*
X174167998Y-94950653D01*
X174148293Y-94965267D01*
X174127249Y-94977880D01*
X174105071Y-94988370D01*
X174081971Y-94996635D01*
X174058173Y-95002596D01*
X174033904Y-95006196D01*
X174009400Y-95007400D01*
X173259400Y-95007400D01*
X173234896Y-95006196D01*
X173210627Y-95002596D01*
X173186829Y-94996635D01*
X173163729Y-94988370D01*
X173141551Y-94977880D01*
X173120507Y-94965267D01*
X173100802Y-94950653D01*
X173082623Y-94934177D01*
X173066147Y-94915998D01*
X173051533Y-94896293D01*
X173038920Y-94875249D01*
X173028430Y-94853071D01*
X173020165Y-94829971D01*
X173014204Y-94806173D01*
X173010604Y-94781904D01*
X173009400Y-94757400D01*
X173009400Y-93507400D01*
X173010604Y-93482896D01*
X173014204Y-93458627D01*
X173020165Y-93434829D01*
X173028430Y-93411729D01*
X173038920Y-93389551D01*
X173051533Y-93368507D01*
X173066147Y-93348802D01*
X173082623Y-93330623D01*
X173100802Y-93314147D01*
X173120507Y-93299533D01*
X173141551Y-93286920D01*
X173163729Y-93276430D01*
X173186829Y-93268165D01*
X173210627Y-93262204D01*
X173234896Y-93258604D01*
X173259400Y-93257400D01*
X174009400Y-93257400D01*
X174033904Y-93258604D01*
X174033904Y-93258604D01*
G37*
D23*
G04 #@! TD*
G04 #@! TO.P,JP1,1*
G04 #@! TO.N,/5v_from_24v*
X173634400Y-94132400D03*
D10*
G04 #@! TO.N,/NXP/RTCin*
G04 #@! TO.C,JP3*
G36*
X151811042Y-119111874D02*
X151834703Y-119115384D01*
X151857907Y-119121196D01*
X151880429Y-119129254D01*
X151902053Y-119139482D01*
X151922570Y-119151779D01*
X151941783Y-119166029D01*
X151959507Y-119182093D01*
X151975571Y-119199817D01*
X151989821Y-119219030D01*
X152002118Y-119239547D01*
X152012346Y-119261171D01*
X152020404Y-119283693D01*
X152026216Y-119306897D01*
X152029726Y-119330558D01*
X152030900Y-119354450D01*
X152030900Y-119841950D01*
X152029726Y-119865842D01*
X152026216Y-119889503D01*
X152020404Y-119912707D01*
X152012346Y-119935229D01*
X152002118Y-119956853D01*
X151989821Y-119977370D01*
X151975571Y-119996583D01*
X151959507Y-120014307D01*
X151941783Y-120030371D01*
X151922570Y-120044621D01*
X151902053Y-120056918D01*
X151880429Y-120067146D01*
X151857907Y-120075204D01*
X151834703Y-120081016D01*
X151811042Y-120084526D01*
X151787150Y-120085700D01*
X150874650Y-120085700D01*
X150850758Y-120084526D01*
X150827097Y-120081016D01*
X150803893Y-120075204D01*
X150781371Y-120067146D01*
X150759747Y-120056918D01*
X150739230Y-120044621D01*
X150720017Y-120030371D01*
X150702293Y-120014307D01*
X150686229Y-119996583D01*
X150671979Y-119977370D01*
X150659682Y-119956853D01*
X150649454Y-119935229D01*
X150641396Y-119912707D01*
X150635584Y-119889503D01*
X150632074Y-119865842D01*
X150630900Y-119841950D01*
X150630900Y-119354450D01*
X150632074Y-119330558D01*
X150635584Y-119306897D01*
X150641396Y-119283693D01*
X150649454Y-119261171D01*
X150659682Y-119239547D01*
X150671979Y-119219030D01*
X150686229Y-119199817D01*
X150702293Y-119182093D01*
X150720017Y-119166029D01*
X150739230Y-119151779D01*
X150759747Y-119139482D01*
X150781371Y-119129254D01*
X150803893Y-119121196D01*
X150827097Y-119115384D01*
X150850758Y-119111874D01*
X150874650Y-119110700D01*
X151787150Y-119110700D01*
X151811042Y-119111874D01*
X151811042Y-119111874D01*
G37*
D28*
G04 #@! TD*
G04 #@! TO.P,JP3,1*
G04 #@! TO.N,/NXP/RTCin*
X151330900Y-119598200D03*
D10*
G04 #@! TO.N,GND*
G04 #@! TO.C,JP3*
G36*
X151811042Y-120986874D02*
X151834703Y-120990384D01*
X151857907Y-120996196D01*
X151880429Y-121004254D01*
X151902053Y-121014482D01*
X151922570Y-121026779D01*
X151941783Y-121041029D01*
X151959507Y-121057093D01*
X151975571Y-121074817D01*
X151989821Y-121094030D01*
X152002118Y-121114547D01*
X152012346Y-121136171D01*
X152020404Y-121158693D01*
X152026216Y-121181897D01*
X152029726Y-121205558D01*
X152030900Y-121229450D01*
X152030900Y-121716950D01*
X152029726Y-121740842D01*
X152026216Y-121764503D01*
X152020404Y-121787707D01*
X152012346Y-121810229D01*
X152002118Y-121831853D01*
X151989821Y-121852370D01*
X151975571Y-121871583D01*
X151959507Y-121889307D01*
X151941783Y-121905371D01*
X151922570Y-121919621D01*
X151902053Y-121931918D01*
X151880429Y-121942146D01*
X151857907Y-121950204D01*
X151834703Y-121956016D01*
X151811042Y-121959526D01*
X151787150Y-121960700D01*
X150874650Y-121960700D01*
X150850758Y-121959526D01*
X150827097Y-121956016D01*
X150803893Y-121950204D01*
X150781371Y-121942146D01*
X150759747Y-121931918D01*
X150739230Y-121919621D01*
X150720017Y-121905371D01*
X150702293Y-121889307D01*
X150686229Y-121871583D01*
X150671979Y-121852370D01*
X150659682Y-121831853D01*
X150649454Y-121810229D01*
X150641396Y-121787707D01*
X150635584Y-121764503D01*
X150632074Y-121740842D01*
X150630900Y-121716950D01*
X150630900Y-121229450D01*
X150632074Y-121205558D01*
X150635584Y-121181897D01*
X150641396Y-121158693D01*
X150649454Y-121136171D01*
X150659682Y-121114547D01*
X150671979Y-121094030D01*
X150686229Y-121074817D01*
X150702293Y-121057093D01*
X150720017Y-121041029D01*
X150739230Y-121026779D01*
X150759747Y-121014482D01*
X150781371Y-121004254D01*
X150803893Y-120996196D01*
X150827097Y-120990384D01*
X150850758Y-120986874D01*
X150874650Y-120985700D01*
X151787150Y-120985700D01*
X151811042Y-120986874D01*
X151811042Y-120986874D01*
G37*
D28*
G04 #@! TD*
G04 #@! TO.P,JP3,2*
G04 #@! TO.N,GND*
X151330900Y-121473200D03*
D29*
G04 #@! TO.P,O1,B1*
G04 #@! TO.N,GND*
X162574000Y-73033000D03*
G04 #@! TO.P,O1,B2*
G04 #@! TO.N,+3V3*
X160574000Y-73033000D03*
G04 #@! TO.P,O1,B3*
G04 #@! TO.N,Net-(O1-PadB3)*
X158574000Y-73033000D03*
G04 #@! TO.P,O1,B4*
G04 #@! TO.N,Net-(O1-PadB4)*
X156574000Y-73033000D03*
G04 #@! TO.P,O1,B5*
G04 #@! TO.N,/Omega2/PC_TXD*
X154574000Y-73033000D03*
G04 #@! TO.P,O1,B6*
G04 #@! TO.N,/Omega2/PC_RXD*
X152574000Y-73033000D03*
G04 #@! TO.P,O1,B7*
G04 #@! TO.N,/Reset_Omega*
X150574000Y-73033000D03*
G04 #@! TO.P,O1,B8*
G04 #@! TO.N,Net-(O1-PadB8)*
X148574000Y-73033000D03*
G04 #@! TO.P,O1,B9*
G04 #@! TO.N,/Omega2/TX-*
X146574000Y-73033000D03*
G04 #@! TO.P,O1,B10*
G04 #@! TO.N,/Omega2/TX+*
X144574000Y-73033000D03*
G04 #@! TO.P,O1,B11*
G04 #@! TO.N,/Omega2/RX-*
X142574000Y-73033000D03*
G04 #@! TO.P,O1,B12*
G04 #@! TO.N,/Omega2/RX+*
X140574000Y-73033000D03*
G04 #@! TO.P,O1,B13*
G04 #@! TO.N,/Reset_NXP*
X138574000Y-73033000D03*
G04 #@! TO.P,O1,B14*
G04 #@! TO.N,/NXP_Ready*
X136574000Y-73033000D03*
G04 #@! TO.P,O1,B15*
G04 #@! TO.N,Net-(O1-PadB15)*
X134574000Y-73033000D03*
G04 #@! TO.P,O1,B16*
G04 #@! TO.N,Net-(O1-PadB16)*
X132574000Y-73033000D03*
G04 #@! TO.P,O1,A1*
G04 #@! TO.N,GND*
X162574000Y-48633000D03*
G04 #@! TO.P,O1,A2*
G04 #@! TO.N,/Omega_Ready*
X160574000Y-48633000D03*
G04 #@! TO.P,O1,A3*
G04 #@! TO.N,Net-(O1-PadA3)*
X158574000Y-48633000D03*
G04 #@! TO.P,O1,A4*
G04 #@! TO.N,Net-(O1-PadA4)*
X156574000Y-48633000D03*
G04 #@! TO.P,O1,A5*
G04 #@! TO.N,/Omega2/R_LED*
X154574000Y-48633000D03*
G04 #@! TO.P,O1,A6*
G04 #@! TO.N,/Omega2/G_LED*
X152574000Y-48633000D03*
G04 #@! TO.P,O1,A7*
G04 #@! TO.N,/Omega2/B_LED*
X150574000Y-48633000D03*
G04 #@! TO.P,O1,A8*
G04 #@! TO.N,Net-(O1-PadA8)*
X148574000Y-48633000D03*
G04 #@! TO.P,O1,A9*
G04 #@! TO.N,Net-(O1-PadA9)*
X146574000Y-48633000D03*
G04 #@! TO.P,O1,A10*
G04 #@! TO.N,/NXP_MOSI*
X144574000Y-48633000D03*
G04 #@! TO.P,O1,A11*
G04 #@! TO.N,/NXP_MISO*
X142574000Y-48633000D03*
G04 #@! TO.P,O1,A12*
G04 #@! TO.N,/NXP_SPICLK*
X140574000Y-48633000D03*
G04 #@! TO.P,O1,A13*
G04 #@! TO.N,/NXP_SPICS*
X138574000Y-48633000D03*
G04 #@! TO.P,O1,A14*
G04 #@! TO.N,Net-(O1-PadA14)*
X136574000Y-48633000D03*
G04 #@! TO.P,O1,A15*
G04 #@! TO.N,Net-(O1-PadA15)*
X134574000Y-48633000D03*
G04 #@! TO.P,O1,A16*
G04 #@! TO.N,Net-(O1-PadA16)*
X132574000Y-48633000D03*
G04 #@! TD*
D10*
G04 #@! TO.N,GND*
G04 #@! TO.C,R2*
G36*
X179093691Y-93899153D02*
X179114926Y-93902303D01*
X179135750Y-93907519D01*
X179155962Y-93914751D01*
X179175368Y-93923930D01*
X179193781Y-93934966D01*
X179211024Y-93947754D01*
X179226930Y-93962170D01*
X179241346Y-93978076D01*
X179254134Y-93995319D01*
X179265170Y-94013732D01*
X179274349Y-94033138D01*
X179281581Y-94053350D01*
X179286797Y-94074174D01*
X179289947Y-94095409D01*
X179291000Y-94116850D01*
X179291000Y-94554350D01*
X179289947Y-94575791D01*
X179286797Y-94597026D01*
X179281581Y-94617850D01*
X179274349Y-94638062D01*
X179265170Y-94657468D01*
X179254134Y-94675881D01*
X179241346Y-94693124D01*
X179226930Y-94709030D01*
X179211024Y-94723446D01*
X179193781Y-94736234D01*
X179175368Y-94747270D01*
X179155962Y-94756449D01*
X179135750Y-94763681D01*
X179114926Y-94768897D01*
X179093691Y-94772047D01*
X179072250Y-94773100D01*
X178559750Y-94773100D01*
X178538309Y-94772047D01*
X178517074Y-94768897D01*
X178496250Y-94763681D01*
X178476038Y-94756449D01*
X178456632Y-94747270D01*
X178438219Y-94736234D01*
X178420976Y-94723446D01*
X178405070Y-94709030D01*
X178390654Y-94693124D01*
X178377866Y-94675881D01*
X178366830Y-94657468D01*
X178357651Y-94638062D01*
X178350419Y-94617850D01*
X178345203Y-94597026D01*
X178342053Y-94575791D01*
X178341000Y-94554350D01*
X178341000Y-94116850D01*
X178342053Y-94095409D01*
X178345203Y-94074174D01*
X178350419Y-94053350D01*
X178357651Y-94033138D01*
X178366830Y-94013732D01*
X178377866Y-93995319D01*
X178390654Y-93978076D01*
X178405070Y-93962170D01*
X178420976Y-93947754D01*
X178438219Y-93934966D01*
X178456632Y-93923930D01*
X178476038Y-93914751D01*
X178496250Y-93907519D01*
X178517074Y-93902303D01*
X178538309Y-93899153D01*
X178559750Y-93898100D01*
X179072250Y-93898100D01*
X179093691Y-93899153D01*
X179093691Y-93899153D01*
G37*
D16*
G04 #@! TD*
G04 #@! TO.P,R2,2*
G04 #@! TO.N,GND*
X178816000Y-94335600D03*
D10*
G04 #@! TO.N,Net-(R1-Pad2)*
G04 #@! TO.C,R2*
G36*
X179093691Y-92324153D02*
X179114926Y-92327303D01*
X179135750Y-92332519D01*
X179155962Y-92339751D01*
X179175368Y-92348930D01*
X179193781Y-92359966D01*
X179211024Y-92372754D01*
X179226930Y-92387170D01*
X179241346Y-92403076D01*
X179254134Y-92420319D01*
X179265170Y-92438732D01*
X179274349Y-92458138D01*
X179281581Y-92478350D01*
X179286797Y-92499174D01*
X179289947Y-92520409D01*
X179291000Y-92541850D01*
X179291000Y-92979350D01*
X179289947Y-93000791D01*
X179286797Y-93022026D01*
X179281581Y-93042850D01*
X179274349Y-93063062D01*
X179265170Y-93082468D01*
X179254134Y-93100881D01*
X179241346Y-93118124D01*
X179226930Y-93134030D01*
X179211024Y-93148446D01*
X179193781Y-93161234D01*
X179175368Y-93172270D01*
X179155962Y-93181449D01*
X179135750Y-93188681D01*
X179114926Y-93193897D01*
X179093691Y-93197047D01*
X179072250Y-93198100D01*
X178559750Y-93198100D01*
X178538309Y-93197047D01*
X178517074Y-93193897D01*
X178496250Y-93188681D01*
X178476038Y-93181449D01*
X178456632Y-93172270D01*
X178438219Y-93161234D01*
X178420976Y-93148446D01*
X178405070Y-93134030D01*
X178390654Y-93118124D01*
X178377866Y-93100881D01*
X178366830Y-93082468D01*
X178357651Y-93063062D01*
X178350419Y-93042850D01*
X178345203Y-93022026D01*
X178342053Y-93000791D01*
X178341000Y-92979350D01*
X178341000Y-92541850D01*
X178342053Y-92520409D01*
X178345203Y-92499174D01*
X178350419Y-92478350D01*
X178357651Y-92458138D01*
X178366830Y-92438732D01*
X178377866Y-92420319D01*
X178390654Y-92403076D01*
X178405070Y-92387170D01*
X178420976Y-92372754D01*
X178438219Y-92359966D01*
X178456632Y-92348930D01*
X178476038Y-92339751D01*
X178496250Y-92332519D01*
X178517074Y-92327303D01*
X178538309Y-92324153D01*
X178559750Y-92323100D01*
X179072250Y-92323100D01*
X179093691Y-92324153D01*
X179093691Y-92324153D01*
G37*
D16*
G04 #@! TD*
G04 #@! TO.P,R2,1*
G04 #@! TO.N,Net-(R1-Pad2)*
X178816000Y-92760600D03*
D10*
G04 #@! TO.N,+3V3*
G04 #@! TO.C,R5*
G36*
X172868143Y-111553085D02*
X172889246Y-111557020D01*
X172909862Y-111563005D01*
X173394440Y-111729859D01*
X173414370Y-111737835D01*
X173433423Y-111747727D01*
X173451414Y-111759439D01*
X173468170Y-111772857D01*
X173483531Y-111787853D01*
X173497348Y-111804283D01*
X173509487Y-111821988D01*
X173519833Y-111840797D01*
X173528286Y-111860530D01*
X173534763Y-111880997D01*
X173539204Y-111902000D01*
X173541564Y-111923337D01*
X173541822Y-111944802D01*
X173539974Y-111966190D01*
X173536039Y-111987293D01*
X173530054Y-112007909D01*
X173387618Y-112421573D01*
X173379642Y-112441503D01*
X173369750Y-112460556D01*
X173358039Y-112478547D01*
X173344620Y-112495303D01*
X173329624Y-112510664D01*
X173313194Y-112524480D01*
X173295489Y-112536620D01*
X173276680Y-112546966D01*
X173256947Y-112555419D01*
X173236480Y-112561896D01*
X173215477Y-112566337D01*
X173194140Y-112568697D01*
X173172675Y-112568955D01*
X173151287Y-112567107D01*
X173130184Y-112563172D01*
X173109568Y-112557187D01*
X172624990Y-112390333D01*
X172605060Y-112382357D01*
X172586007Y-112372465D01*
X172568016Y-112360753D01*
X172551260Y-112347335D01*
X172535899Y-112332339D01*
X172522082Y-112315909D01*
X172509943Y-112298204D01*
X172499597Y-112279395D01*
X172491144Y-112259662D01*
X172484667Y-112239195D01*
X172480226Y-112218192D01*
X172477866Y-112196855D01*
X172477608Y-112175390D01*
X172479456Y-112154002D01*
X172483391Y-112132899D01*
X172489376Y-112112283D01*
X172631812Y-111698619D01*
X172639788Y-111678689D01*
X172649680Y-111659636D01*
X172661391Y-111641645D01*
X172674810Y-111624889D01*
X172689806Y-111609528D01*
X172706236Y-111595712D01*
X172723941Y-111583572D01*
X172742750Y-111573226D01*
X172762483Y-111564773D01*
X172782950Y-111558296D01*
X172803953Y-111553855D01*
X172825290Y-111551495D01*
X172846755Y-111551237D01*
X172868143Y-111553085D01*
X172868143Y-111553085D01*
G37*
D16*
G04 #@! TD*
G04 #@! TO.P,R5,1*
G04 #@! TO.N,+3V3*
X173009715Y-112060096D03*
D10*
G04 #@! TO.N,/NXP/I2C_SDA_Flex1*
G04 #@! TO.C,R5*
G36*
X173380913Y-110063893D02*
X173402016Y-110067828D01*
X173422632Y-110073813D01*
X173907210Y-110240667D01*
X173927140Y-110248643D01*
X173946193Y-110258535D01*
X173964184Y-110270247D01*
X173980940Y-110283665D01*
X173996301Y-110298661D01*
X174010118Y-110315091D01*
X174022257Y-110332796D01*
X174032603Y-110351605D01*
X174041056Y-110371338D01*
X174047533Y-110391805D01*
X174051974Y-110412808D01*
X174054334Y-110434145D01*
X174054592Y-110455610D01*
X174052744Y-110476998D01*
X174048809Y-110498101D01*
X174042824Y-110518717D01*
X173900388Y-110932381D01*
X173892412Y-110952311D01*
X173882520Y-110971364D01*
X173870809Y-110989355D01*
X173857390Y-111006111D01*
X173842394Y-111021472D01*
X173825964Y-111035288D01*
X173808259Y-111047428D01*
X173789450Y-111057774D01*
X173769717Y-111066227D01*
X173749250Y-111072704D01*
X173728247Y-111077145D01*
X173706910Y-111079505D01*
X173685445Y-111079763D01*
X173664057Y-111077915D01*
X173642954Y-111073980D01*
X173622338Y-111067995D01*
X173137760Y-110901141D01*
X173117830Y-110893165D01*
X173098777Y-110883273D01*
X173080786Y-110871561D01*
X173064030Y-110858143D01*
X173048669Y-110843147D01*
X173034852Y-110826717D01*
X173022713Y-110809012D01*
X173012367Y-110790203D01*
X173003914Y-110770470D01*
X172997437Y-110750003D01*
X172992996Y-110729000D01*
X172990636Y-110707663D01*
X172990378Y-110686198D01*
X172992226Y-110664810D01*
X172996161Y-110643707D01*
X173002146Y-110623091D01*
X173144582Y-110209427D01*
X173152558Y-110189497D01*
X173162450Y-110170444D01*
X173174161Y-110152453D01*
X173187580Y-110135697D01*
X173202576Y-110120336D01*
X173219006Y-110106520D01*
X173236711Y-110094380D01*
X173255520Y-110084034D01*
X173275253Y-110075581D01*
X173295720Y-110069104D01*
X173316723Y-110064663D01*
X173338060Y-110062303D01*
X173359525Y-110062045D01*
X173380913Y-110063893D01*
X173380913Y-110063893D01*
G37*
D16*
G04 #@! TD*
G04 #@! TO.P,R5,2*
G04 #@! TO.N,/NXP/I2C_SDA_Flex1*
X173522485Y-110570904D03*
D10*
G04 #@! TO.N,/NXP/I2C_SCL_Flex1*
G04 #@! TO.C,R7*
G36*
X175336713Y-110736993D02*
X175357816Y-110740928D01*
X175378432Y-110746913D01*
X175863010Y-110913767D01*
X175882940Y-110921743D01*
X175901993Y-110931635D01*
X175919984Y-110943347D01*
X175936740Y-110956765D01*
X175952101Y-110971761D01*
X175965918Y-110988191D01*
X175978057Y-111005896D01*
X175988403Y-111024705D01*
X175996856Y-111044438D01*
X176003333Y-111064905D01*
X176007774Y-111085908D01*
X176010134Y-111107245D01*
X176010392Y-111128710D01*
X176008544Y-111150098D01*
X176004609Y-111171201D01*
X175998624Y-111191817D01*
X175856188Y-111605481D01*
X175848212Y-111625411D01*
X175838320Y-111644464D01*
X175826609Y-111662455D01*
X175813190Y-111679211D01*
X175798194Y-111694572D01*
X175781764Y-111708388D01*
X175764059Y-111720528D01*
X175745250Y-111730874D01*
X175725517Y-111739327D01*
X175705050Y-111745804D01*
X175684047Y-111750245D01*
X175662710Y-111752605D01*
X175641245Y-111752863D01*
X175619857Y-111751015D01*
X175598754Y-111747080D01*
X175578138Y-111741095D01*
X175093560Y-111574241D01*
X175073630Y-111566265D01*
X175054577Y-111556373D01*
X175036586Y-111544661D01*
X175019830Y-111531243D01*
X175004469Y-111516247D01*
X174990652Y-111499817D01*
X174978513Y-111482112D01*
X174968167Y-111463303D01*
X174959714Y-111443570D01*
X174953237Y-111423103D01*
X174948796Y-111402100D01*
X174946436Y-111380763D01*
X174946178Y-111359298D01*
X174948026Y-111337910D01*
X174951961Y-111316807D01*
X174957946Y-111296191D01*
X175100382Y-110882527D01*
X175108358Y-110862597D01*
X175118250Y-110843544D01*
X175129961Y-110825553D01*
X175143380Y-110808797D01*
X175158376Y-110793436D01*
X175174806Y-110779620D01*
X175192511Y-110767480D01*
X175211320Y-110757134D01*
X175231053Y-110748681D01*
X175251520Y-110742204D01*
X175272523Y-110737763D01*
X175293860Y-110735403D01*
X175315325Y-110735145D01*
X175336713Y-110736993D01*
X175336713Y-110736993D01*
G37*
D16*
G04 #@! TD*
G04 #@! TO.P,R7,2*
G04 #@! TO.N,/NXP/I2C_SCL_Flex1*
X175478285Y-111244004D03*
D10*
G04 #@! TO.N,+3V3*
G04 #@! TO.C,R7*
G36*
X174823943Y-112226185D02*
X174845046Y-112230120D01*
X174865662Y-112236105D01*
X175350240Y-112402959D01*
X175370170Y-112410935D01*
X175389223Y-112420827D01*
X175407214Y-112432539D01*
X175423970Y-112445957D01*
X175439331Y-112460953D01*
X175453148Y-112477383D01*
X175465287Y-112495088D01*
X175475633Y-112513897D01*
X175484086Y-112533630D01*
X175490563Y-112554097D01*
X175495004Y-112575100D01*
X175497364Y-112596437D01*
X175497622Y-112617902D01*
X175495774Y-112639290D01*
X175491839Y-112660393D01*
X175485854Y-112681009D01*
X175343418Y-113094673D01*
X175335442Y-113114603D01*
X175325550Y-113133656D01*
X175313839Y-113151647D01*
X175300420Y-113168403D01*
X175285424Y-113183764D01*
X175268994Y-113197580D01*
X175251289Y-113209720D01*
X175232480Y-113220066D01*
X175212747Y-113228519D01*
X175192280Y-113234996D01*
X175171277Y-113239437D01*
X175149940Y-113241797D01*
X175128475Y-113242055D01*
X175107087Y-113240207D01*
X175085984Y-113236272D01*
X175065368Y-113230287D01*
X174580790Y-113063433D01*
X174560860Y-113055457D01*
X174541807Y-113045565D01*
X174523816Y-113033853D01*
X174507060Y-113020435D01*
X174491699Y-113005439D01*
X174477882Y-112989009D01*
X174465743Y-112971304D01*
X174455397Y-112952495D01*
X174446944Y-112932762D01*
X174440467Y-112912295D01*
X174436026Y-112891292D01*
X174433666Y-112869955D01*
X174433408Y-112848490D01*
X174435256Y-112827102D01*
X174439191Y-112805999D01*
X174445176Y-112785383D01*
X174587612Y-112371719D01*
X174595588Y-112351789D01*
X174605480Y-112332736D01*
X174617191Y-112314745D01*
X174630610Y-112297989D01*
X174645606Y-112282628D01*
X174662036Y-112268812D01*
X174679741Y-112256672D01*
X174698550Y-112246326D01*
X174718283Y-112237873D01*
X174738750Y-112231396D01*
X174759753Y-112226955D01*
X174781090Y-112224595D01*
X174802555Y-112224337D01*
X174823943Y-112226185D01*
X174823943Y-112226185D01*
G37*
D16*
G04 #@! TD*
G04 #@! TO.P,R7,1*
G04 #@! TO.N,+3V3*
X174965515Y-112733196D03*
D10*
G04 #@! TO.N,/Omega2/TX-*
G04 #@! TO.C,R10*
G36*
X124102691Y-102560353D02*
X124123926Y-102563503D01*
X124144750Y-102568719D01*
X124164962Y-102575951D01*
X124184368Y-102585130D01*
X124202781Y-102596166D01*
X124220024Y-102608954D01*
X124235930Y-102623370D01*
X124250346Y-102639276D01*
X124263134Y-102656519D01*
X124274170Y-102674932D01*
X124283349Y-102694338D01*
X124290581Y-102714550D01*
X124295797Y-102735374D01*
X124298947Y-102756609D01*
X124300000Y-102778050D01*
X124300000Y-103215550D01*
X124298947Y-103236991D01*
X124295797Y-103258226D01*
X124290581Y-103279050D01*
X124283349Y-103299262D01*
X124274170Y-103318668D01*
X124263134Y-103337081D01*
X124250346Y-103354324D01*
X124235930Y-103370230D01*
X124220024Y-103384646D01*
X124202781Y-103397434D01*
X124184368Y-103408470D01*
X124164962Y-103417649D01*
X124144750Y-103424881D01*
X124123926Y-103430097D01*
X124102691Y-103433247D01*
X124081250Y-103434300D01*
X123568750Y-103434300D01*
X123547309Y-103433247D01*
X123526074Y-103430097D01*
X123505250Y-103424881D01*
X123485038Y-103417649D01*
X123465632Y-103408470D01*
X123447219Y-103397434D01*
X123429976Y-103384646D01*
X123414070Y-103370230D01*
X123399654Y-103354324D01*
X123386866Y-103337081D01*
X123375830Y-103318668D01*
X123366651Y-103299262D01*
X123359419Y-103279050D01*
X123354203Y-103258226D01*
X123351053Y-103236991D01*
X123350000Y-103215550D01*
X123350000Y-102778050D01*
X123351053Y-102756609D01*
X123354203Y-102735374D01*
X123359419Y-102714550D01*
X123366651Y-102694338D01*
X123375830Y-102674932D01*
X123386866Y-102656519D01*
X123399654Y-102639276D01*
X123414070Y-102623370D01*
X123429976Y-102608954D01*
X123447219Y-102596166D01*
X123465632Y-102585130D01*
X123485038Y-102575951D01*
X123505250Y-102568719D01*
X123526074Y-102563503D01*
X123547309Y-102560353D01*
X123568750Y-102559300D01*
X124081250Y-102559300D01*
X124102691Y-102560353D01*
X124102691Y-102560353D01*
G37*
D16*
G04 #@! TD*
G04 #@! TO.P,R10,2*
G04 #@! TO.N,/Omega2/TX-*
X123825000Y-102996800D03*
D10*
G04 #@! TO.N,Net-(C15-Pad1)*
G04 #@! TO.C,R10*
G36*
X124102691Y-104135353D02*
X124123926Y-104138503D01*
X124144750Y-104143719D01*
X124164962Y-104150951D01*
X124184368Y-104160130D01*
X124202781Y-104171166D01*
X124220024Y-104183954D01*
X124235930Y-104198370D01*
X124250346Y-104214276D01*
X124263134Y-104231519D01*
X124274170Y-104249932D01*
X124283349Y-104269338D01*
X124290581Y-104289550D01*
X124295797Y-104310374D01*
X124298947Y-104331609D01*
X124300000Y-104353050D01*
X124300000Y-104790550D01*
X124298947Y-104811991D01*
X124295797Y-104833226D01*
X124290581Y-104854050D01*
X124283349Y-104874262D01*
X124274170Y-104893668D01*
X124263134Y-104912081D01*
X124250346Y-104929324D01*
X124235930Y-104945230D01*
X124220024Y-104959646D01*
X124202781Y-104972434D01*
X124184368Y-104983470D01*
X124164962Y-104992649D01*
X124144750Y-104999881D01*
X124123926Y-105005097D01*
X124102691Y-105008247D01*
X124081250Y-105009300D01*
X123568750Y-105009300D01*
X123547309Y-105008247D01*
X123526074Y-105005097D01*
X123505250Y-104999881D01*
X123485038Y-104992649D01*
X123465632Y-104983470D01*
X123447219Y-104972434D01*
X123429976Y-104959646D01*
X123414070Y-104945230D01*
X123399654Y-104929324D01*
X123386866Y-104912081D01*
X123375830Y-104893668D01*
X123366651Y-104874262D01*
X123359419Y-104854050D01*
X123354203Y-104833226D01*
X123351053Y-104811991D01*
X123350000Y-104790550D01*
X123350000Y-104353050D01*
X123351053Y-104331609D01*
X123354203Y-104310374D01*
X123359419Y-104289550D01*
X123366651Y-104269338D01*
X123375830Y-104249932D01*
X123386866Y-104231519D01*
X123399654Y-104214276D01*
X123414070Y-104198370D01*
X123429976Y-104183954D01*
X123447219Y-104171166D01*
X123465632Y-104160130D01*
X123485038Y-104150951D01*
X123505250Y-104143719D01*
X123526074Y-104138503D01*
X123547309Y-104135353D01*
X123568750Y-104134300D01*
X124081250Y-104134300D01*
X124102691Y-104135353D01*
X124102691Y-104135353D01*
G37*
D16*
G04 #@! TD*
G04 #@! TO.P,R10,1*
G04 #@! TO.N,Net-(C15-Pad1)*
X123825000Y-104571800D03*
D10*
G04 #@! TO.N,/Omega2/RX+*
G04 #@! TO.C,R11*
G36*
X115212691Y-102598453D02*
X115233926Y-102601603D01*
X115254750Y-102606819D01*
X115274962Y-102614051D01*
X115294368Y-102623230D01*
X115312781Y-102634266D01*
X115330024Y-102647054D01*
X115345930Y-102661470D01*
X115360346Y-102677376D01*
X115373134Y-102694619D01*
X115384170Y-102713032D01*
X115393349Y-102732438D01*
X115400581Y-102752650D01*
X115405797Y-102773474D01*
X115408947Y-102794709D01*
X115410000Y-102816150D01*
X115410000Y-103253650D01*
X115408947Y-103275091D01*
X115405797Y-103296326D01*
X115400581Y-103317150D01*
X115393349Y-103337362D01*
X115384170Y-103356768D01*
X115373134Y-103375181D01*
X115360346Y-103392424D01*
X115345930Y-103408330D01*
X115330024Y-103422746D01*
X115312781Y-103435534D01*
X115294368Y-103446570D01*
X115274962Y-103455749D01*
X115254750Y-103462981D01*
X115233926Y-103468197D01*
X115212691Y-103471347D01*
X115191250Y-103472400D01*
X114678750Y-103472400D01*
X114657309Y-103471347D01*
X114636074Y-103468197D01*
X114615250Y-103462981D01*
X114595038Y-103455749D01*
X114575632Y-103446570D01*
X114557219Y-103435534D01*
X114539976Y-103422746D01*
X114524070Y-103408330D01*
X114509654Y-103392424D01*
X114496866Y-103375181D01*
X114485830Y-103356768D01*
X114476651Y-103337362D01*
X114469419Y-103317150D01*
X114464203Y-103296326D01*
X114461053Y-103275091D01*
X114460000Y-103253650D01*
X114460000Y-102816150D01*
X114461053Y-102794709D01*
X114464203Y-102773474D01*
X114469419Y-102752650D01*
X114476651Y-102732438D01*
X114485830Y-102713032D01*
X114496866Y-102694619D01*
X114509654Y-102677376D01*
X114524070Y-102661470D01*
X114539976Y-102647054D01*
X114557219Y-102634266D01*
X114575632Y-102623230D01*
X114595038Y-102614051D01*
X114615250Y-102606819D01*
X114636074Y-102601603D01*
X114657309Y-102598453D01*
X114678750Y-102597400D01*
X115191250Y-102597400D01*
X115212691Y-102598453D01*
X115212691Y-102598453D01*
G37*
D16*
G04 #@! TD*
G04 #@! TO.P,R11,2*
G04 #@! TO.N,/Omega2/RX+*
X114935000Y-103034900D03*
D10*
G04 #@! TO.N,Net-(C16-Pad1)*
G04 #@! TO.C,R11*
G36*
X115212691Y-104173453D02*
X115233926Y-104176603D01*
X115254750Y-104181819D01*
X115274962Y-104189051D01*
X115294368Y-104198230D01*
X115312781Y-104209266D01*
X115330024Y-104222054D01*
X115345930Y-104236470D01*
X115360346Y-104252376D01*
X115373134Y-104269619D01*
X115384170Y-104288032D01*
X115393349Y-104307438D01*
X115400581Y-104327650D01*
X115405797Y-104348474D01*
X115408947Y-104369709D01*
X115410000Y-104391150D01*
X115410000Y-104828650D01*
X115408947Y-104850091D01*
X115405797Y-104871326D01*
X115400581Y-104892150D01*
X115393349Y-104912362D01*
X115384170Y-104931768D01*
X115373134Y-104950181D01*
X115360346Y-104967424D01*
X115345930Y-104983330D01*
X115330024Y-104997746D01*
X115312781Y-105010534D01*
X115294368Y-105021570D01*
X115274962Y-105030749D01*
X115254750Y-105037981D01*
X115233926Y-105043197D01*
X115212691Y-105046347D01*
X115191250Y-105047400D01*
X114678750Y-105047400D01*
X114657309Y-105046347D01*
X114636074Y-105043197D01*
X114615250Y-105037981D01*
X114595038Y-105030749D01*
X114575632Y-105021570D01*
X114557219Y-105010534D01*
X114539976Y-104997746D01*
X114524070Y-104983330D01*
X114509654Y-104967424D01*
X114496866Y-104950181D01*
X114485830Y-104931768D01*
X114476651Y-104912362D01*
X114469419Y-104892150D01*
X114464203Y-104871326D01*
X114461053Y-104850091D01*
X114460000Y-104828650D01*
X114460000Y-104391150D01*
X114461053Y-104369709D01*
X114464203Y-104348474D01*
X114469419Y-104327650D01*
X114476651Y-104307438D01*
X114485830Y-104288032D01*
X114496866Y-104269619D01*
X114509654Y-104252376D01*
X114524070Y-104236470D01*
X114539976Y-104222054D01*
X114557219Y-104209266D01*
X114575632Y-104198230D01*
X114595038Y-104189051D01*
X114615250Y-104181819D01*
X114636074Y-104176603D01*
X114657309Y-104173453D01*
X114678750Y-104172400D01*
X115191250Y-104172400D01*
X115212691Y-104173453D01*
X115212691Y-104173453D01*
G37*
D16*
G04 #@! TD*
G04 #@! TO.P,R11,1*
G04 #@! TO.N,Net-(C16-Pad1)*
X114935000Y-104609900D03*
D10*
G04 #@! TO.N,Net-(C15-Pad1)*
G04 #@! TO.C,R12*
G36*
X121588091Y-104160753D02*
X121609326Y-104163903D01*
X121630150Y-104169119D01*
X121650362Y-104176351D01*
X121669768Y-104185530D01*
X121688181Y-104196566D01*
X121705424Y-104209354D01*
X121721330Y-104223770D01*
X121735746Y-104239676D01*
X121748534Y-104256919D01*
X121759570Y-104275332D01*
X121768749Y-104294738D01*
X121775981Y-104314950D01*
X121781197Y-104335774D01*
X121784347Y-104357009D01*
X121785400Y-104378450D01*
X121785400Y-104815950D01*
X121784347Y-104837391D01*
X121781197Y-104858626D01*
X121775981Y-104879450D01*
X121768749Y-104899662D01*
X121759570Y-104919068D01*
X121748534Y-104937481D01*
X121735746Y-104954724D01*
X121721330Y-104970630D01*
X121705424Y-104985046D01*
X121688181Y-104997834D01*
X121669768Y-105008870D01*
X121650362Y-105018049D01*
X121630150Y-105025281D01*
X121609326Y-105030497D01*
X121588091Y-105033647D01*
X121566650Y-105034700D01*
X121054150Y-105034700D01*
X121032709Y-105033647D01*
X121011474Y-105030497D01*
X120990650Y-105025281D01*
X120970438Y-105018049D01*
X120951032Y-105008870D01*
X120932619Y-104997834D01*
X120915376Y-104985046D01*
X120899470Y-104970630D01*
X120885054Y-104954724D01*
X120872266Y-104937481D01*
X120861230Y-104919068D01*
X120852051Y-104899662D01*
X120844819Y-104879450D01*
X120839603Y-104858626D01*
X120836453Y-104837391D01*
X120835400Y-104815950D01*
X120835400Y-104378450D01*
X120836453Y-104357009D01*
X120839603Y-104335774D01*
X120844819Y-104314950D01*
X120852051Y-104294738D01*
X120861230Y-104275332D01*
X120872266Y-104256919D01*
X120885054Y-104239676D01*
X120899470Y-104223770D01*
X120915376Y-104209354D01*
X120932619Y-104196566D01*
X120951032Y-104185530D01*
X120970438Y-104176351D01*
X120990650Y-104169119D01*
X121011474Y-104163903D01*
X121032709Y-104160753D01*
X121054150Y-104159700D01*
X121566650Y-104159700D01*
X121588091Y-104160753D01*
X121588091Y-104160753D01*
G37*
D16*
G04 #@! TD*
G04 #@! TO.P,R12,1*
G04 #@! TO.N,Net-(C15-Pad1)*
X121310400Y-104597200D03*
D10*
G04 #@! TO.N,/Omega2/TX+*
G04 #@! TO.C,R12*
G36*
X121588091Y-102585753D02*
X121609326Y-102588903D01*
X121630150Y-102594119D01*
X121650362Y-102601351D01*
X121669768Y-102610530D01*
X121688181Y-102621566D01*
X121705424Y-102634354D01*
X121721330Y-102648770D01*
X121735746Y-102664676D01*
X121748534Y-102681919D01*
X121759570Y-102700332D01*
X121768749Y-102719738D01*
X121775981Y-102739950D01*
X121781197Y-102760774D01*
X121784347Y-102782009D01*
X121785400Y-102803450D01*
X121785400Y-103240950D01*
X121784347Y-103262391D01*
X121781197Y-103283626D01*
X121775981Y-103304450D01*
X121768749Y-103324662D01*
X121759570Y-103344068D01*
X121748534Y-103362481D01*
X121735746Y-103379724D01*
X121721330Y-103395630D01*
X121705424Y-103410046D01*
X121688181Y-103422834D01*
X121669768Y-103433870D01*
X121650362Y-103443049D01*
X121630150Y-103450281D01*
X121609326Y-103455497D01*
X121588091Y-103458647D01*
X121566650Y-103459700D01*
X121054150Y-103459700D01*
X121032709Y-103458647D01*
X121011474Y-103455497D01*
X120990650Y-103450281D01*
X120970438Y-103443049D01*
X120951032Y-103433870D01*
X120932619Y-103422834D01*
X120915376Y-103410046D01*
X120899470Y-103395630D01*
X120885054Y-103379724D01*
X120872266Y-103362481D01*
X120861230Y-103344068D01*
X120852051Y-103324662D01*
X120844819Y-103304450D01*
X120839603Y-103283626D01*
X120836453Y-103262391D01*
X120835400Y-103240950D01*
X120835400Y-102803450D01*
X120836453Y-102782009D01*
X120839603Y-102760774D01*
X120844819Y-102739950D01*
X120852051Y-102719738D01*
X120861230Y-102700332D01*
X120872266Y-102681919D01*
X120885054Y-102664676D01*
X120899470Y-102648770D01*
X120915376Y-102634354D01*
X120932619Y-102621566D01*
X120951032Y-102610530D01*
X120970438Y-102601351D01*
X120990650Y-102594119D01*
X121011474Y-102588903D01*
X121032709Y-102585753D01*
X121054150Y-102584700D01*
X121566650Y-102584700D01*
X121588091Y-102585753D01*
X121588091Y-102585753D01*
G37*
D16*
G04 #@! TD*
G04 #@! TO.P,R12,2*
G04 #@! TO.N,/Omega2/TX+*
X121310400Y-103022200D03*
D10*
G04 #@! TO.N,Net-(C16-Pad1)*
G04 #@! TO.C,R13*
G36*
X117752691Y-104173653D02*
X117773926Y-104176803D01*
X117794750Y-104182019D01*
X117814962Y-104189251D01*
X117834368Y-104198430D01*
X117852781Y-104209466D01*
X117870024Y-104222254D01*
X117885930Y-104236670D01*
X117900346Y-104252576D01*
X117913134Y-104269819D01*
X117924170Y-104288232D01*
X117933349Y-104307638D01*
X117940581Y-104327850D01*
X117945797Y-104348674D01*
X117948947Y-104369909D01*
X117950000Y-104391350D01*
X117950000Y-104828850D01*
X117948947Y-104850291D01*
X117945797Y-104871526D01*
X117940581Y-104892350D01*
X117933349Y-104912562D01*
X117924170Y-104931968D01*
X117913134Y-104950381D01*
X117900346Y-104967624D01*
X117885930Y-104983530D01*
X117870024Y-104997946D01*
X117852781Y-105010734D01*
X117834368Y-105021770D01*
X117814962Y-105030949D01*
X117794750Y-105038181D01*
X117773926Y-105043397D01*
X117752691Y-105046547D01*
X117731250Y-105047600D01*
X117218750Y-105047600D01*
X117197309Y-105046547D01*
X117176074Y-105043397D01*
X117155250Y-105038181D01*
X117135038Y-105030949D01*
X117115632Y-105021770D01*
X117097219Y-105010734D01*
X117079976Y-104997946D01*
X117064070Y-104983530D01*
X117049654Y-104967624D01*
X117036866Y-104950381D01*
X117025830Y-104931968D01*
X117016651Y-104912562D01*
X117009419Y-104892350D01*
X117004203Y-104871526D01*
X117001053Y-104850291D01*
X117000000Y-104828850D01*
X117000000Y-104391350D01*
X117001053Y-104369909D01*
X117004203Y-104348674D01*
X117009419Y-104327850D01*
X117016651Y-104307638D01*
X117025830Y-104288232D01*
X117036866Y-104269819D01*
X117049654Y-104252576D01*
X117064070Y-104236670D01*
X117079976Y-104222254D01*
X117097219Y-104209466D01*
X117115632Y-104198430D01*
X117135038Y-104189251D01*
X117155250Y-104182019D01*
X117176074Y-104176803D01*
X117197309Y-104173653D01*
X117218750Y-104172600D01*
X117731250Y-104172600D01*
X117752691Y-104173653D01*
X117752691Y-104173653D01*
G37*
D16*
G04 #@! TD*
G04 #@! TO.P,R13,1*
G04 #@! TO.N,Net-(C16-Pad1)*
X117475000Y-104610100D03*
D10*
G04 #@! TO.N,/Omega2/RX-*
G04 #@! TO.C,R13*
G36*
X117752691Y-102598653D02*
X117773926Y-102601803D01*
X117794750Y-102607019D01*
X117814962Y-102614251D01*
X117834368Y-102623430D01*
X117852781Y-102634466D01*
X117870024Y-102647254D01*
X117885930Y-102661670D01*
X117900346Y-102677576D01*
X117913134Y-102694819D01*
X117924170Y-102713232D01*
X117933349Y-102732638D01*
X117940581Y-102752850D01*
X117945797Y-102773674D01*
X117948947Y-102794909D01*
X117950000Y-102816350D01*
X117950000Y-103253850D01*
X117948947Y-103275291D01*
X117945797Y-103296526D01*
X117940581Y-103317350D01*
X117933349Y-103337562D01*
X117924170Y-103356968D01*
X117913134Y-103375381D01*
X117900346Y-103392624D01*
X117885930Y-103408530D01*
X117870024Y-103422946D01*
X117852781Y-103435734D01*
X117834368Y-103446770D01*
X117814962Y-103455949D01*
X117794750Y-103463181D01*
X117773926Y-103468397D01*
X117752691Y-103471547D01*
X117731250Y-103472600D01*
X117218750Y-103472600D01*
X117197309Y-103471547D01*
X117176074Y-103468397D01*
X117155250Y-103463181D01*
X117135038Y-103455949D01*
X117115632Y-103446770D01*
X117097219Y-103435734D01*
X117079976Y-103422946D01*
X117064070Y-103408530D01*
X117049654Y-103392624D01*
X117036866Y-103375381D01*
X117025830Y-103356968D01*
X117016651Y-103337562D01*
X117009419Y-103317350D01*
X117004203Y-103296526D01*
X117001053Y-103275291D01*
X117000000Y-103253850D01*
X117000000Y-102816350D01*
X117001053Y-102794909D01*
X117004203Y-102773674D01*
X117009419Y-102752850D01*
X117016651Y-102732638D01*
X117025830Y-102713232D01*
X117036866Y-102694819D01*
X117049654Y-102677576D01*
X117064070Y-102661670D01*
X117079976Y-102647254D01*
X117097219Y-102634466D01*
X117115632Y-102623430D01*
X117135038Y-102614251D01*
X117155250Y-102607019D01*
X117176074Y-102601803D01*
X117197309Y-102598653D01*
X117218750Y-102597600D01*
X117731250Y-102597600D01*
X117752691Y-102598653D01*
X117752691Y-102598653D01*
G37*
D16*
G04 #@! TD*
G04 #@! TO.P,R13,2*
G04 #@! TO.N,/Omega2/RX-*
X117475000Y-103035100D03*
D30*
G04 #@! TO.P,U4,1*
G04 #@! TO.N,/Omega2/TX-*
X123825000Y-100712800D03*
G04 #@! TO.P,U4,2*
G04 #@! TO.N,+3V3*
X122555000Y-100712800D03*
G04 #@! TO.P,U4,3*
G04 #@! TO.N,/Omega2/TX+*
X121285000Y-100712800D03*
G04 #@! TO.P,U4,4*
G04 #@! TO.N,Net-(U4-Pad4)*
X120015000Y-100712800D03*
G04 #@! TO.P,U4,5*
G04 #@! TO.N,Net-(U4-Pad5)*
X118745000Y-100712800D03*
G04 #@! TO.P,U4,6*
G04 #@! TO.N,/Omega2/RX-*
X117475000Y-100712800D03*
G04 #@! TO.P,U4,7*
G04 #@! TO.N,+3V3*
X116205000Y-100712800D03*
G04 #@! TO.P,U4,8*
G04 #@! TO.N,/Omega2/RX+*
X114935000Y-100712800D03*
G04 #@! TO.P,U4,9*
G04 #@! TO.N,Net-(J16-Pad1)*
X114935000Y-91412800D03*
G04 #@! TO.P,U4,10*
G04 #@! TO.N,Net-(R14-Pad1)*
X116205000Y-91412800D03*
G04 #@! TO.P,U4,11*
G04 #@! TO.N,Net-(J16-Pad2)*
X117475000Y-91412800D03*
G04 #@! TO.P,U4,12*
G04 #@! TO.N,Net-(U4-Pad12)*
X118745000Y-91412800D03*
G04 #@! TO.P,U4,13*
G04 #@! TO.N,Net-(U4-Pad13)*
X120015000Y-91412800D03*
G04 #@! TO.P,U4,14*
G04 #@! TO.N,Net-(J16-Pad3)*
X121285000Y-91412800D03*
G04 #@! TO.P,U4,15*
G04 #@! TO.N,Net-(R15-Pad1)*
X122555000Y-91412800D03*
G04 #@! TO.P,U4,16*
G04 #@! TO.N,Net-(J16-Pad6)*
X123825000Y-91412800D03*
G04 #@! TD*
D31*
G04 #@! TO.P,Y1,1*
G04 #@! TO.N,/NXP/RTCout*
X147231100Y-117373400D03*
G04 #@! TO.P,Y1,2*
G04 #@! TO.N,/NXP/RTCin*
X149731100Y-117373400D03*
G04 #@! TD*
D32*
G04 #@! TO.N,GND*
X178816000Y-95910400D03*
X183642000Y-116230400D03*
D33*
X185572400Y-93522800D03*
D32*
X181838600Y-65836800D03*
X115570000Y-116179600D03*
X153441400Y-54229000D03*
X119481600Y-97383600D03*
X139788900Y-116738400D03*
X160210500Y-114769900D03*
X168620854Y-107093219D03*
X160197800Y-117119400D03*
X160286700Y-121793000D03*
X160680400Y-126123700D03*
X146100800Y-121272300D03*
X149999700Y-130098800D03*
X186232800Y-95872300D03*
X186996410Y-94869000D03*
G04 #@! TO.N,+5V*
X169265600Y-96012000D03*
X169265600Y-94589600D03*
X169316400Y-93268800D03*
X170840400Y-96012000D03*
X170891200Y-91948000D03*
X169316400Y-91948000D03*
X182462601Y-67136801D03*
X119608600Y-114325400D03*
D12*
X185305700Y-94894400D03*
D32*
G04 #@! TO.N,+3V3*
X118135400Y-55575200D03*
X117195600Y-56515000D03*
X116255800Y-57454800D03*
X115290600Y-58420000D03*
X114350800Y-59359800D03*
X117830600Y-62839600D03*
X118745000Y-61849000D03*
X119608600Y-60807600D03*
X120446800Y-59740800D03*
X121081800Y-58496200D03*
X158800800Y-58547000D03*
X122555000Y-99085400D03*
X116205000Y-102323900D03*
X180073300Y-84302600D03*
X178854100Y-84302600D03*
X177634900Y-84302600D03*
X176415700Y-84302600D03*
X175196500Y-84302600D03*
X173977300Y-84302600D03*
X172758100Y-84302600D03*
X171538900Y-84302600D03*
X170319700Y-84302600D03*
X146964400Y-128752600D03*
X139788900Y-121056400D03*
D33*
X148463000Y-115011200D03*
D32*
X160261300Y-113220500D03*
X173494700Y-113830100D03*
X160419560Y-118709817D03*
X136055100Y-105257600D03*
D33*
G04 #@! TO.N,/NXP/RTCin*
X152971500Y-115100100D03*
G04 #@! TO.N,/NXP/RTCout*
X151892000Y-115062000D03*
G04 #@! TO.N,/NXP/SWDIO*
X140817600Y-115862100D03*
G04 #@! TO.N,/NXP/SWCLK*
X141732000Y-115277900D03*
G04 #@! TO.N,/Reset_NXP*
X127355600Y-102273100D03*
G04 #@! TO.N,/NXP/I2C_SCL_Flex1*
X144907000Y-124015500D03*
G04 #@! TO.N,/NXP/I2C_SDA_Flex1*
X145923000Y-123456700D03*
G04 #@! TO.N,/NXP/GPIO25*
X146900900Y-123177300D03*
G04 #@! TO.N,/NXP/GPIO26*
X147906156Y-123087290D03*
G04 #@! TO.N,/NXP/SPI_MISO_flex7*
X162102800Y-115849400D03*
G04 #@! TO.N,/NXP/SPI_MOSI_flex7*
X161290000Y-116471700D03*
G04 #@! TO.N,/NXP/SPI_clock_flex7*
X153631900Y-117919500D03*
G04 #@! TO.N,/NXP/SPI_CS_flex7*
X152857200Y-118656100D03*
G04 #@! TO.N,Net-(J16-Pad1)*
X113817400Y-87680800D03*
G04 #@! TO.N,Net-(J16-Pad2)*
X114884200Y-87858600D03*
G04 #@! TO.N,Net-(J16-Pad3)*
X116230400Y-88239600D03*
G04 #@! TO.N,Net-(J16-Pad6)*
X118135400Y-88810000D03*
G04 #@! TO.N,/Reset_Omega*
X141401800Y-122123200D03*
X136982200Y-116471700D03*
G04 #@! TO.N,/NXP_Ready*
X143433800Y-125145800D03*
X151523700Y-127863600D03*
G04 #@! TO.N,/Omega_Ready*
X151485600Y-118122700D03*
G04 #@! TO.N,/NXP_MOSI*
X135648700Y-78511400D03*
X153860500Y-114046000D03*
X135801100Y-120103900D03*
G04 #@! TO.N,/NXP_MISO*
X154800300Y-113652300D03*
X134658100Y-119989600D03*
G04 #@! TO.N,/NXP_SPICLK*
X132253943Y-118609075D03*
X148805900Y-111785400D03*
G04 #@! TO.N,/NXP_SPICS*
X151472900Y-112433100D03*
X132511800Y-120027700D03*
G04 #@! TO.N,Net-(R1-Pad2)*
X182372000Y-91236800D03*
X179882800Y-93682900D03*
G04 #@! TO.N,Net-(R14-Pad1)*
X116205000Y-92735400D03*
G04 #@! TO.N,Net-(R15-Pad1)*
X122529600Y-92722700D03*
G04 #@! TO.N,Net-(SW1-Pad1)*
X182778400Y-90220800D03*
G04 #@! TD*
D34*
G04 #@! TO.N,GND*
X175537400Y-89380400D02*
X179527200Y-89380400D01*
X175514000Y-89357000D02*
X175537400Y-89380400D01*
X175463000Y-89408000D02*
X175514000Y-89357000D01*
X173634400Y-89408000D02*
X175463000Y-89408000D01*
X185800900Y-87376000D02*
X183794400Y-89382500D01*
X190373000Y-87376000D02*
X185800900Y-87376000D01*
X190373000Y-94081600D02*
X190398400Y-94107000D01*
X190373000Y-87376000D02*
X190373000Y-94081600D01*
X108204000Y-94132400D02*
X108204000Y-87376000D01*
X178816000Y-94335600D02*
X178816000Y-95910400D01*
X183642000Y-115731073D02*
X177387732Y-109476805D01*
X183642000Y-116230400D02*
X183642000Y-115731073D01*
X122504100Y-107785000D02*
X122555000Y-107734100D01*
X116192300Y-107785000D02*
X122504100Y-107785000D01*
X122555000Y-118440200D02*
X124815600Y-120700800D01*
X122555000Y-107734100D02*
X122555000Y-118440200D01*
X149428300Y-121272400D02*
X149491800Y-121335900D01*
X147396300Y-121272400D02*
X149428300Y-121272400D01*
X149629100Y-121473200D02*
X149491800Y-121335900D01*
X151330900Y-121473200D02*
X149629100Y-121473200D01*
X132556829Y-104135190D02*
X132143358Y-104548661D01*
X133344166Y-104135190D02*
X132556829Y-104135190D01*
X132982367Y-112534033D02*
X124815600Y-120700800D01*
X133344166Y-104135190D02*
X132982367Y-104496989D01*
X132982367Y-104496989D02*
X132982367Y-112534033D01*
X132982367Y-109852705D02*
X132982367Y-112534033D01*
X129741741Y-106612079D02*
X132982367Y-109852705D01*
X129741741Y-105375604D02*
X129741741Y-106612079D01*
X146100900Y-121272400D02*
X146100800Y-121272300D01*
X147396300Y-121272400D02*
X146100900Y-121272400D01*
G04 #@! TO.N,+24V*
X190373000Y-82176000D02*
X190373000Y-81876000D01*
X192723000Y-84526000D02*
X190373000Y-82176000D01*
X192723000Y-96982400D02*
X192723000Y-84526000D01*
X190398400Y-99307000D02*
X192723000Y-96982400D01*
X190398400Y-99607000D02*
X190398400Y-99307000D01*
X183794400Y-95353000D02*
X183794400Y-90957500D01*
X190398400Y-99607000D02*
X188048400Y-99607000D01*
X188048400Y-99607000D02*
X183794400Y-95353000D01*
X183794400Y-95353000D02*
X183794400Y-95351600D01*
X180577200Y-92134400D02*
X180577200Y-91080400D01*
X183794400Y-95351600D02*
X180577200Y-92134400D01*
X105854000Y-84526000D02*
X108204000Y-82176000D01*
X105854000Y-96982400D02*
X105854000Y-84526000D01*
X108204000Y-82176000D02*
X108204000Y-81876000D01*
X108204000Y-99332400D02*
X105854000Y-96982400D01*
X108204000Y-99632400D02*
X108204000Y-99332400D01*
G04 #@! TO.N,+5V*
X170834400Y-94132400D02*
X170834400Y-94443200D01*
X170834400Y-94443200D02*
X169265600Y-96012000D01*
X170834400Y-94132400D02*
X169722800Y-94132400D01*
X169722800Y-94132400D02*
X169265600Y-94589600D01*
X170834400Y-94132400D02*
X170180000Y-94132400D01*
X170180000Y-94132400D02*
X169316400Y-93268800D01*
X170834400Y-94132400D02*
X170834400Y-96006000D01*
X170834400Y-96006000D02*
X170840400Y-96012000D01*
X170834400Y-94132400D02*
X170834400Y-93466000D01*
X170834400Y-93466000D02*
X169316400Y-91948000D01*
X170834400Y-92004800D02*
X170891200Y-91948000D01*
X170834400Y-94132400D02*
X170834400Y-92004800D01*
X170840400Y-96012000D02*
X171805600Y-96977200D01*
X171805600Y-105525786D02*
X170296342Y-107035044D01*
X171805600Y-96977200D02*
X171805600Y-105525786D01*
G04 #@! TO.N,/5v_from_24v*
X178275600Y-90932000D02*
X178377200Y-90830400D01*
X175463000Y-90983000D02*
X175514000Y-90932000D01*
X173634400Y-90983000D02*
X175463000Y-90983000D01*
X173634400Y-90983000D02*
X173634400Y-94132400D01*
X176834800Y-90982800D02*
X176885600Y-90932000D01*
X176834800Y-92811400D02*
X176834800Y-90982800D01*
X175514000Y-90932000D02*
X176885600Y-90932000D01*
X176885600Y-90932000D02*
X178275600Y-90932000D01*
G04 #@! TO.N,+3V3*
X122555000Y-100712800D02*
X122555000Y-99085400D01*
X116205000Y-102323900D02*
X116205000Y-100712800D01*
X173009715Y-112060096D02*
X173009715Y-113345115D01*
X173009715Y-113345115D02*
X173494700Y-113830100D01*
X173868611Y-113830100D02*
X174965515Y-112733196D01*
X173494700Y-113830100D02*
X173868611Y-113830100D01*
X134544975Y-103721718D02*
X134544975Y-103747475D01*
X134544975Y-103747475D02*
X136055100Y-105257600D01*
D35*
G04 #@! TO.N,/NXP/RTCin*
X149491800Y-117612700D02*
X149731100Y-117373400D01*
X149491800Y-119760900D02*
X149491800Y-117612700D01*
X151168200Y-119760900D02*
X151330900Y-119598200D01*
X149491800Y-119760900D02*
X151168200Y-119760900D01*
X152926902Y-115100100D02*
X152971500Y-115100100D01*
X149731100Y-117373400D02*
X150653602Y-117373400D01*
X150653602Y-117373400D02*
X152926902Y-115100100D01*
G04 #@! TO.N,/NXP/RTCout*
X147396300Y-117538600D02*
X147231100Y-117373400D01*
X147396300Y-119697400D02*
X147396300Y-117538600D01*
X151492001Y-115461999D02*
X151892000Y-115062000D01*
X150805601Y-116148399D02*
X151492001Y-115461999D01*
X148056101Y-116148399D02*
X150805601Y-116148399D01*
X147231100Y-116973400D02*
X148056101Y-116148399D01*
X147231100Y-117373400D02*
X147231100Y-116973400D01*
G04 #@! TO.N,Net-(C15-Pad1)*
X121310400Y-104914500D02*
X122555000Y-106159100D01*
X121310400Y-104597200D02*
X121310400Y-104914500D01*
X123825000Y-104889100D02*
X122555000Y-106159100D01*
X123825000Y-104571800D02*
X123825000Y-104889100D01*
G04 #@! TO.N,Net-(C16-Pad1)*
X114935000Y-104952700D02*
X116192300Y-106210000D01*
X114935000Y-104609900D02*
X114935000Y-104952700D01*
X117475000Y-104927300D02*
X116192300Y-106210000D01*
X117475000Y-104610100D02*
X117475000Y-104927300D01*
G04 #@! TO.N,/NXP/SWDIO*
X140817600Y-107576537D02*
X133275259Y-100034196D01*
X140817600Y-115862100D02*
X140817600Y-107576537D01*
G04 #@! TO.N,/NXP/SWCLK*
X141732000Y-115277900D02*
X141732000Y-105879900D01*
X132074451Y-99211192D02*
X132074451Y-100447667D01*
X132074451Y-99020683D02*
X132074451Y-99211192D01*
X132641031Y-98454103D02*
X132074451Y-99020683D01*
X134306203Y-98454103D02*
X132641031Y-98454103D01*
X141732000Y-105879900D02*
X134306203Y-98454103D01*
G04 #@! TO.N,/Reset_NXP*
X127887007Y-102273100D02*
X128472025Y-101688082D01*
X127355600Y-102273100D02*
X127887007Y-102273100D01*
G04 #@! TO.N,/NXP/I2C_SCL_Flex1*
X175969454Y-110752835D02*
X175478285Y-111244004D01*
X175969454Y-108988453D02*
X175969454Y-110752835D01*
X145603822Y-124712322D02*
X164216137Y-124712322D01*
X144907000Y-124015500D02*
X145603822Y-124712322D01*
X175478285Y-111244004D02*
X176314100Y-112079819D01*
X176314100Y-112079819D02*
X176314100Y-113080800D01*
X172935900Y-116459000D02*
X172469459Y-116459000D01*
X176314100Y-113080800D02*
X172935900Y-116459000D01*
X164216137Y-124712322D02*
X172469459Y-116459000D01*
G04 #@! TO.N,/NXP/I2C_SDA_Flex1*
X174551176Y-109542213D02*
X173522485Y-110570904D01*
X174551176Y-108500101D02*
X174551176Y-109542213D01*
X172920116Y-110570904D02*
X173522485Y-110570904D01*
X145923000Y-123456700D02*
X146728611Y-124262311D01*
X146728611Y-124262311D02*
X163710189Y-124262311D01*
X163710189Y-124262311D02*
X172046900Y-115925600D01*
X172046900Y-115925600D02*
X172046900Y-111270902D01*
X172046900Y-111270902D02*
X172746898Y-110570904D01*
X172746898Y-110570904D02*
X172920116Y-110570904D01*
G04 #@! TO.N,/NXP/GPIO25*
X146900900Y-123177300D02*
X147535900Y-123812300D01*
X173132898Y-108640558D02*
X173132898Y-108011748D01*
X173132898Y-109492712D02*
X173132898Y-108640558D01*
X163501210Y-123812300D02*
X171596890Y-115716620D01*
X147535900Y-123812300D02*
X163501210Y-123812300D01*
X171596890Y-111028720D02*
X173132898Y-109492712D01*
X171596890Y-115716620D02*
X171596890Y-111028720D01*
G04 #@! TO.N,/NXP/GPIO26*
X171714620Y-108152206D02*
X171714620Y-107523396D01*
X171714620Y-110274580D02*
X171714620Y-108152206D01*
X148471841Y-123087290D02*
X148714251Y-123329700D01*
X163347400Y-123329700D02*
X171081700Y-115595400D01*
X147906156Y-123087290D02*
X148471841Y-123087290D01*
X171081700Y-115595400D02*
X171081700Y-110907500D01*
X148714251Y-123329700D02*
X163347400Y-123329700D01*
X171081700Y-110907500D02*
X171714620Y-110274580D01*
G04 #@! TO.N,/NXP/SPI_MISO_flex7*
X162102800Y-115849400D02*
X167690800Y-110261400D01*
X169394699Y-83227177D02*
X176375854Y-76246022D01*
X176375854Y-76246022D02*
X176375854Y-72691557D01*
X169394699Y-90500699D02*
X169394699Y-83227177D01*
X167690800Y-92204598D02*
X169394699Y-90500699D01*
X176375854Y-72691557D02*
X176375854Y-72062747D01*
X167690800Y-110261400D02*
X167690800Y-92204598D01*
G04 #@! TO.N,/NXP/SPI_MOSI_flex7*
X161290000Y-115589198D02*
X167233600Y-109645598D01*
X161290000Y-116471700D02*
X161290000Y-115589198D01*
X168944689Y-79695021D02*
X170736017Y-77903693D01*
X168944689Y-90314299D02*
X168944689Y-79695021D01*
X167233600Y-109645598D02*
X167233600Y-92025388D01*
X170736017Y-77903693D02*
X173801393Y-77903693D01*
X167233600Y-92025388D02*
X168944689Y-90314299D01*
X174957576Y-76747510D02*
X174957576Y-72551099D01*
X173801393Y-77903693D02*
X174957576Y-76747510D01*
G04 #@! TO.N,/NXP/SPI_clock_flex7*
X173539298Y-76625302D02*
X173539298Y-73039452D01*
X172732700Y-77431900D02*
X173539298Y-76625302D01*
X168452800Y-87115901D02*
X166160199Y-84823300D01*
X153631900Y-117919500D02*
X159255901Y-112295499D01*
X166160199Y-84823300D02*
X166160199Y-80652599D01*
X159255901Y-112295499D02*
X163916801Y-112295499D01*
X168452800Y-90169778D02*
X168452800Y-87115901D01*
X166160199Y-80652599D02*
X169380898Y-77431900D01*
X163916801Y-112295499D02*
X166776400Y-109435900D01*
X169380898Y-77431900D02*
X172732700Y-77431900D01*
X166776400Y-109435900D02*
X166776400Y-91846178D01*
X166776400Y-91846178D02*
X168452800Y-90169778D01*
G04 #@! TO.N,/NXP/SPI_CS_flex7*
X171386500Y-76949300D02*
X172121020Y-76214780D01*
X165684200Y-80492188D02*
X169227088Y-76949300D01*
X165684200Y-85051900D02*
X165684200Y-80492188D01*
X167982900Y-87350600D02*
X165684200Y-85051900D01*
X167982900Y-90003268D02*
X167982900Y-87350600D01*
X152857200Y-118656100D02*
X152857200Y-117621198D01*
X152857200Y-117621198D02*
X158654898Y-111823500D01*
X172121020Y-76214780D02*
X172121020Y-73527804D01*
X163728400Y-111823500D02*
X166306500Y-109245400D01*
X158654898Y-111823500D02*
X163728400Y-111823500D01*
X169227088Y-76949300D02*
X171386500Y-76949300D01*
X166306500Y-109245400D02*
X166306500Y-91679668D01*
X166306500Y-91679668D02*
X167982900Y-90003268D01*
G04 #@! TO.N,Net-(J16-Pad1)*
X114385000Y-91412800D02*
X113868200Y-90896000D01*
X114935000Y-91412800D02*
X114385000Y-91412800D01*
X113868200Y-90896000D02*
X113868200Y-87731600D01*
X113868200Y-87731600D02*
X113817400Y-87680800D01*
G04 #@! TO.N,Net-(J16-Pad2)*
X117475000Y-90412800D02*
X117156000Y-90093800D01*
X117475000Y-91412800D02*
X117475000Y-90412800D01*
X117156000Y-90093800D02*
X115417600Y-90093800D01*
X115417600Y-90093800D02*
X114884200Y-89560400D01*
X114884200Y-89560400D02*
X114884200Y-87858600D01*
G04 #@! TO.N,Net-(J16-Pad3)*
X121285000Y-90412800D02*
X121118400Y-90246200D01*
X121285000Y-91412800D02*
X121285000Y-90412800D01*
X121118400Y-90246200D02*
X120407200Y-89535000D01*
X120407200Y-89535000D02*
X117525800Y-89535000D01*
X117525800Y-89535000D02*
X116230400Y-88239600D01*
G04 #@! TO.N,Net-(J16-Pad6)*
X121672200Y-88810000D02*
X118135400Y-88810000D01*
X123825000Y-91412800D02*
X123825000Y-90962800D01*
X123825000Y-90962800D02*
X121672200Y-88810000D01*
G04 #@! TO.N,/Reset_Omega*
X133318316Y-116471700D02*
X136982200Y-116471700D01*
X131528942Y-118261074D02*
X133318316Y-116471700D01*
X131528942Y-120117844D02*
X131528942Y-118261074D01*
X141401800Y-122123200D02*
X133534298Y-122123200D01*
X133534298Y-122123200D02*
X131528942Y-120117844D01*
G04 #@! TO.N,/Omega2/TX-*
X123825000Y-100712800D02*
X123825000Y-102996800D01*
X123825000Y-100262800D02*
X123825000Y-100712800D01*
X133223000Y-84319529D02*
X133223000Y-90864800D01*
X133223000Y-90864800D02*
X123825000Y-100262800D01*
X143652949Y-75866257D02*
X141676272Y-75866257D01*
X141676272Y-75866257D02*
X133223000Y-84319529D01*
X145436205Y-74083001D02*
X143652949Y-75866257D01*
X146448999Y-74083001D02*
X145436205Y-74083001D01*
X146574000Y-73958000D02*
X146448999Y-74083001D01*
X146574000Y-73033000D02*
X146574000Y-73958000D01*
G04 #@! TO.N,/Omega2/TX+*
X121285000Y-102996800D02*
X121310400Y-103022200D01*
X121285000Y-100712800D02*
X121285000Y-102996800D01*
X144574000Y-73958000D02*
X144574000Y-73033000D01*
X143233700Y-75298300D02*
X144574000Y-73958000D01*
X141537109Y-75298300D02*
X143233700Y-75298300D01*
X121285000Y-100712800D02*
X121285000Y-98986398D01*
X122138498Y-98132900D02*
X125196600Y-98132900D01*
X125196600Y-98132900D02*
X132702300Y-90627200D01*
X132702300Y-90627200D02*
X132702300Y-84133109D01*
X132702300Y-84133109D02*
X141537109Y-75298300D01*
X121285000Y-98986398D02*
X122138498Y-98132900D01*
G04 #@! TO.N,/Omega2/RX-*
X117475000Y-100712800D02*
X117475000Y-103035100D01*
X142574000Y-73624999D02*
X142574000Y-73033000D01*
X132232400Y-83966599D02*
X142574000Y-73624999D01*
X132232400Y-90449400D02*
X132232400Y-83966599D01*
X117475000Y-100262800D02*
X118652400Y-99085400D01*
X118652400Y-99085400D02*
X120549588Y-99085400D01*
X121970800Y-97664188D02*
X125017612Y-97664188D01*
X125017612Y-97664188D02*
X132232400Y-90449400D01*
X117475000Y-100712800D02*
X117475000Y-100262800D01*
X120549588Y-99085400D02*
X121970800Y-97664188D01*
G04 #@! TO.N,/Omega2/RX+*
X114935000Y-100712800D02*
X114935000Y-103034900D01*
X140574000Y-74917879D02*
X140574000Y-73033000D01*
X131711700Y-83780179D02*
X140574000Y-74917879D01*
X131711700Y-90220800D02*
X131711700Y-83780179D01*
X114935000Y-99712800D02*
X116121200Y-98526600D01*
X114935000Y-100712800D02*
X114935000Y-99712800D01*
X120332500Y-98526600D02*
X121729500Y-97129600D01*
X121729500Y-97129600D02*
X124802900Y-97129600D01*
X116121200Y-98526600D02*
X120332500Y-98526600D01*
X124802900Y-97129600D02*
X131711700Y-90220800D01*
G04 #@! TO.N,/NXP_Ready*
X149205899Y-125545799D02*
X151523700Y-127863600D01*
X143433800Y-125145800D02*
X143833799Y-125545799D01*
X143833799Y-125545799D02*
X149205899Y-125545799D01*
G04 #@! TO.N,/Omega_Ready*
X158318200Y-111290100D02*
X163372800Y-111290100D01*
X151485600Y-118122700D02*
X158318200Y-111290100D01*
X163372800Y-111290100D02*
X165849300Y-108813600D01*
X165849300Y-91500458D02*
X166700200Y-90649558D01*
X165849300Y-108813600D02*
X165849300Y-91500458D01*
X166700200Y-90649558D02*
X166700200Y-86791800D01*
X166700200Y-86791800D02*
X165125400Y-85217000D01*
X165125400Y-54109400D02*
X160574000Y-49558000D01*
X160574000Y-49558000D02*
X160574000Y-48633000D01*
X165125400Y-85217000D02*
X165125400Y-54109400D01*
G04 #@! TO.N,/NXP_MOSI*
X144574000Y-48633000D02*
X144574000Y-63896500D01*
X137574000Y-72097998D02*
X137574000Y-76001900D01*
X144574000Y-63896500D02*
X137574001Y-70896499D01*
X137574001Y-70896499D02*
X137574000Y-72097998D01*
X137574000Y-76001900D02*
X137574000Y-76586100D01*
X137574000Y-76586100D02*
X135648700Y-78511400D01*
X153466800Y-113652300D02*
X153860500Y-114046000D01*
X135801100Y-120103900D02*
X135818382Y-120116600D01*
X148475700Y-113652300D02*
X153466800Y-113652300D01*
X142011400Y-120116600D02*
X148475700Y-113652300D01*
X135818382Y-120116600D02*
X142011400Y-120116600D01*
G04 #@! TO.N,/NXP_MISO*
X148285200Y-113182400D02*
X154330400Y-113182400D01*
X141808200Y-119659400D02*
X148285200Y-113182400D01*
X154330400Y-113182400D02*
X154800300Y-113652300D01*
X136434184Y-119659400D02*
X141808200Y-119659400D01*
X136153683Y-119378899D02*
X136434184Y-119659400D01*
X135268801Y-119378899D02*
X136153683Y-119378899D01*
X134658100Y-119989600D02*
X135268801Y-119378899D01*
G04 #@! TO.N,/NXP_SPICLK*
X133199617Y-117663401D02*
X132253943Y-118609075D01*
X146265900Y-111785400D02*
X140387899Y-117663401D01*
X140387899Y-117663401D02*
X133199617Y-117663401D01*
X148805900Y-111785400D02*
X146265900Y-111785400D01*
G04 #@! TO.N,/NXP_SPICS*
X150607925Y-112732390D02*
X146957210Y-112732390D01*
X151472900Y-112433100D02*
X150907215Y-112433100D01*
X150907215Y-112433100D02*
X150607925Y-112732390D01*
X146957210Y-112732390D02*
X140919200Y-118770400D01*
X140919200Y-118770400D02*
X133769100Y-118770400D01*
X133769100Y-118770400D02*
X132511800Y-120027700D01*
G04 #@! TO.N,Net-(R1-Pad2)*
X178460600Y-92760600D02*
X178816000Y-92760600D01*
X176834800Y-94386400D02*
X178460600Y-92760600D01*
X178816000Y-92760600D02*
X179069800Y-92760600D01*
X181427200Y-91230400D02*
X182365600Y-91230400D01*
X182365600Y-91230400D02*
X182372000Y-91236800D01*
X178816000Y-92760600D02*
X178960500Y-92760600D01*
X178960500Y-92760600D02*
X179882800Y-93682900D01*
G04 #@! TO.N,Net-(R14-Pad1)*
X116205000Y-91412800D02*
X116205000Y-92735400D01*
G04 #@! TO.N,Net-(R15-Pad1)*
X122555000Y-91412800D02*
X122555000Y-92697300D01*
X122555000Y-92697300D02*
X122529600Y-92722700D01*
G04 #@! TO.N,Net-(SW1-Pad1)*
X181627200Y-90230400D02*
X182768800Y-90230400D01*
X182768800Y-90230400D02*
X182778400Y-90220800D01*
G04 #@! TD*
M02*
