G04 #@! TF.GenerationSoftware,KiCad,Pcbnew,5.1.4-e60b266~84~ubuntu18.04.1*
G04 #@! TF.CreationDate,2019-09-10T17:15:46-06:00*
G04 #@! TF.ProjectId,main_board_onion,6d61696e-5f62-46f6-9172-645f6f6e696f,rev?*
G04 #@! TF.SameCoordinates,Original*
G04 #@! TF.FileFunction,Soldermask,Top*
G04 #@! TF.FilePolarity,Negative*
%FSLAX46Y46*%
G04 Gerber Fmt 4.6, Leading zero omitted, Abs format (unit mm)*
G04 Created by KiCad (PCBNEW 5.1.4-e60b266~84~ubuntu18.04.1) date 2019-09-10 17:15:46*
%MOMM*%
%LPD*%
G04 APERTURE LIST*
%ADD10C,0.100000*%
G04 APERTURE END LIST*
D10*
G36*
X158664921Y-135399278D02*
G01*
X157517767Y-137037582D01*
X155879463Y-135890428D01*
X157026617Y-134252124D01*
X158664921Y-135399278D01*
X158664921Y-135399278D01*
G37*
G36*
X158956366Y-132589826D02*
G01*
X159020765Y-132602636D01*
X159202754Y-132678018D01*
X159366539Y-132787456D01*
X159505827Y-132926744D01*
X159615265Y-133090529D01*
X159690647Y-133272518D01*
X159729076Y-133465716D01*
X159729076Y-133662698D01*
X159690647Y-133855896D01*
X159615265Y-134037885D01*
X159505827Y-134201670D01*
X159366539Y-134340958D01*
X159202754Y-134450396D01*
X159020765Y-134525778D01*
X158956366Y-134538588D01*
X158827569Y-134564207D01*
X158630583Y-134564207D01*
X158501786Y-134538588D01*
X158437387Y-134525778D01*
X158255398Y-134450396D01*
X158091613Y-134340958D01*
X157952325Y-134201670D01*
X157842887Y-134037885D01*
X157767505Y-133855896D01*
X157729076Y-133662698D01*
X157729076Y-133465716D01*
X157767505Y-133272518D01*
X157842887Y-133090529D01*
X157952325Y-132926744D01*
X158091613Y-132787456D01*
X158255398Y-132678018D01*
X158437387Y-132602636D01*
X158501786Y-132589826D01*
X158630583Y-132564207D01*
X158827569Y-132564207D01*
X158956366Y-132589826D01*
X158956366Y-132589826D01*
G37*
G36*
X126360596Y-128515629D02*
G01*
X128441306Y-129530459D01*
X128441306Y-129530460D01*
X127650046Y-131152783D01*
X127617592Y-131219324D01*
X127595250Y-131265132D01*
X127590866Y-131274120D01*
X126744810Y-133008792D01*
X124439404Y-131884371D01*
X122358694Y-130869541D01*
X122438064Y-130706809D01*
X123209134Y-129125880D01*
X123216282Y-129111225D01*
X124055190Y-127391208D01*
X126360596Y-128515629D01*
X126360596Y-128515629D01*
G37*
G36*
X160413250Y-130509179D02*
G01*
X160477649Y-130521989D01*
X160659638Y-130597371D01*
X160823423Y-130706809D01*
X160962711Y-130846097D01*
X161072149Y-131009882D01*
X161147531Y-131191871D01*
X161185960Y-131385069D01*
X161185960Y-131582051D01*
X161147531Y-131775249D01*
X161072149Y-131957238D01*
X160962711Y-132121023D01*
X160823423Y-132260311D01*
X160659638Y-132369749D01*
X160477649Y-132445131D01*
X160413250Y-132457941D01*
X160284453Y-132483560D01*
X160087467Y-132483560D01*
X159958670Y-132457941D01*
X159894271Y-132445131D01*
X159712282Y-132369749D01*
X159548497Y-132260311D01*
X159409209Y-132121023D01*
X159299771Y-131957238D01*
X159224389Y-131775249D01*
X159185960Y-131582051D01*
X159185960Y-131385069D01*
X159224389Y-131191871D01*
X159299771Y-131009882D01*
X159409209Y-130846097D01*
X159548497Y-130706809D01*
X159712282Y-130597371D01*
X159894271Y-130521989D01*
X159958670Y-130509179D01*
X160087467Y-130483560D01*
X160284453Y-130483560D01*
X160413250Y-130509179D01*
X160413250Y-130509179D01*
G37*
G36*
X176615038Y-128276433D02*
G01*
X177552528Y-130116360D01*
X177552528Y-130116361D01*
X173204416Y-132331835D01*
X172665483Y-131274120D01*
X172294759Y-130546534D01*
X171447472Y-128883640D01*
X171447472Y-128883639D01*
X175795584Y-126668165D01*
X176615038Y-128276433D01*
X176615038Y-128276433D01*
G37*
G36*
X161870134Y-128428533D02*
G01*
X161934533Y-128441343D01*
X162116522Y-128516725D01*
X162280307Y-128626163D01*
X162419595Y-128765451D01*
X162529033Y-128929236D01*
X162604415Y-129111225D01*
X162604415Y-129111226D01*
X162642844Y-129304421D01*
X162642844Y-129501407D01*
X162637065Y-129530459D01*
X162604415Y-129694603D01*
X162529033Y-129876592D01*
X162419595Y-130040377D01*
X162280307Y-130179665D01*
X162116522Y-130289103D01*
X161934533Y-130364485D01*
X161870134Y-130377295D01*
X161741337Y-130402914D01*
X161544351Y-130402914D01*
X161415554Y-130377295D01*
X161351155Y-130364485D01*
X161169166Y-130289103D01*
X161005381Y-130179665D01*
X160866093Y-130040377D01*
X160756655Y-129876592D01*
X160681273Y-129694603D01*
X160648623Y-129530459D01*
X160642844Y-129501407D01*
X160642844Y-129304421D01*
X160681273Y-129111226D01*
X160681273Y-129111225D01*
X160756655Y-128929236D01*
X160866093Y-128765451D01*
X161005381Y-128626163D01*
X161169166Y-128516725D01*
X161351155Y-128441343D01*
X161415554Y-128428533D01*
X161544351Y-128402914D01*
X161741337Y-128402914D01*
X161870134Y-128428533D01*
X161870134Y-128428533D01*
G37*
G36*
X163327018Y-126347887D02*
G01*
X163391417Y-126360697D01*
X163573406Y-126436079D01*
X163737191Y-126545517D01*
X163876479Y-126684805D01*
X163985917Y-126848590D01*
X164061299Y-127030579D01*
X164099728Y-127223777D01*
X164099728Y-127420759D01*
X164061299Y-127613957D01*
X163985917Y-127795946D01*
X163876479Y-127959731D01*
X163737191Y-128099019D01*
X163573406Y-128208457D01*
X163391417Y-128283839D01*
X163327018Y-128296649D01*
X163198221Y-128322268D01*
X163001235Y-128322268D01*
X162872438Y-128296649D01*
X162808039Y-128283839D01*
X162626050Y-128208457D01*
X162462265Y-128099019D01*
X162322977Y-127959731D01*
X162213539Y-127795946D01*
X162138157Y-127613957D01*
X162099728Y-127420759D01*
X162099728Y-127223777D01*
X162138157Y-127030579D01*
X162213539Y-126848590D01*
X162322977Y-126684805D01*
X162462265Y-126545517D01*
X162626050Y-126436079D01*
X162808039Y-126360697D01*
X162872438Y-126347887D01*
X163001235Y-126322268D01*
X163198221Y-126322268D01*
X163327018Y-126347887D01*
X163327018Y-126347887D01*
G37*
G36*
X145015604Y-125929167D02*
G01*
X145080003Y-125941977D01*
X145261992Y-126017359D01*
X145425777Y-126126797D01*
X145565065Y-126266085D01*
X145674503Y-126429870D01*
X145749885Y-126611859D01*
X145788314Y-126805057D01*
X145788314Y-127002039D01*
X145749885Y-127195237D01*
X145674503Y-127377226D01*
X145565065Y-127541011D01*
X145425777Y-127680299D01*
X145261992Y-127789737D01*
X145080003Y-127865119D01*
X145015604Y-127877929D01*
X144886807Y-127903548D01*
X144689821Y-127903548D01*
X144561024Y-127877929D01*
X144496625Y-127865119D01*
X144314636Y-127789737D01*
X144150851Y-127680299D01*
X144011563Y-127541011D01*
X143902125Y-127377226D01*
X143826743Y-127195237D01*
X143788314Y-127002039D01*
X143788314Y-126805057D01*
X143826743Y-126611859D01*
X143902125Y-126429870D01*
X144011563Y-126266085D01*
X144150851Y-126126797D01*
X144314636Y-126017359D01*
X144496625Y-125941977D01*
X144561024Y-125929167D01*
X144689821Y-125903548D01*
X144886807Y-125903548D01*
X145015604Y-125929167D01*
X145015604Y-125929167D01*
G37*
G36*
X140700000Y-127400000D02*
G01*
X139400000Y-127400000D01*
X139400000Y-125800000D01*
X140700000Y-125800000D01*
X140700000Y-127400000D01*
X140700000Y-127400000D01*
G37*
G36*
X137400000Y-127400000D02*
G01*
X136100000Y-127400000D01*
X136100000Y-125800000D01*
X137400000Y-125800000D01*
X137400000Y-127400000D01*
X137400000Y-127400000D01*
G37*
G36*
X164783902Y-124267241D02*
G01*
X164848301Y-124280051D01*
X165030290Y-124355433D01*
X165194075Y-124464871D01*
X165333363Y-124604159D01*
X165442801Y-124767944D01*
X165518183Y-124949933D01*
X165556612Y-125143131D01*
X165556612Y-125340113D01*
X165518183Y-125533311D01*
X165442801Y-125715300D01*
X165333363Y-125879085D01*
X165194075Y-126018373D01*
X165030290Y-126127811D01*
X164848301Y-126203193D01*
X164783902Y-126216003D01*
X164655105Y-126241622D01*
X164458119Y-126241622D01*
X164329322Y-126216003D01*
X164264923Y-126203193D01*
X164082934Y-126127811D01*
X163919149Y-126018373D01*
X163779861Y-125879085D01*
X163670423Y-125715300D01*
X163595041Y-125533311D01*
X163556612Y-125340113D01*
X163556612Y-125143131D01*
X163595041Y-124949933D01*
X163670423Y-124767944D01*
X163779861Y-124604159D01*
X163919149Y-124464871D01*
X164082934Y-124355433D01*
X164264923Y-124280051D01*
X164329322Y-124267241D01*
X164458119Y-124241622D01*
X164655105Y-124241622D01*
X164783902Y-124267241D01*
X164783902Y-124267241D01*
G37*
G36*
X146472489Y-123848521D02*
G01*
X146536888Y-123861331D01*
X146718877Y-123936713D01*
X146882662Y-124046151D01*
X147021950Y-124185439D01*
X147131388Y-124349224D01*
X147206770Y-124531213D01*
X147245199Y-124724411D01*
X147245199Y-124921393D01*
X147206770Y-125114591D01*
X147131388Y-125296580D01*
X147021950Y-125460365D01*
X146882662Y-125599653D01*
X146718877Y-125709091D01*
X146536888Y-125784473D01*
X146472489Y-125797283D01*
X146343692Y-125822902D01*
X146146706Y-125822902D01*
X146017909Y-125797283D01*
X145953510Y-125784473D01*
X145771521Y-125709091D01*
X145607736Y-125599653D01*
X145468448Y-125460365D01*
X145359010Y-125296580D01*
X145283628Y-125114591D01*
X145245199Y-124921393D01*
X145245199Y-124724411D01*
X145283628Y-124531213D01*
X145359010Y-124349224D01*
X145468448Y-124185439D01*
X145607736Y-124046151D01*
X145771521Y-123936713D01*
X145953510Y-123861331D01*
X146017909Y-123848521D01*
X146146706Y-123822902D01*
X146343692Y-123822902D01*
X146472489Y-123848521D01*
X146472489Y-123848521D01*
G37*
G36*
X141550000Y-124550000D02*
G01*
X138650000Y-124550000D01*
X138650000Y-121650000D01*
X141550000Y-121650000D01*
X141550000Y-124550000D01*
X141550000Y-124550000D01*
G37*
G36*
X134550000Y-124550000D02*
G01*
X131650000Y-124550000D01*
X131650000Y-121650000D01*
X134550000Y-121650000D01*
X134550000Y-124550000D01*
X134550000Y-124550000D01*
G37*
G36*
X166240787Y-122186595D02*
G01*
X166305186Y-122199405D01*
X166487175Y-122274787D01*
X166650960Y-122384225D01*
X166790248Y-122523513D01*
X166899686Y-122687298D01*
X166975068Y-122869287D01*
X166977373Y-122880874D01*
X167013497Y-123062483D01*
X167013497Y-123259469D01*
X166994604Y-123354452D01*
X166975068Y-123452665D01*
X166899686Y-123634654D01*
X166790248Y-123798439D01*
X166650960Y-123937727D01*
X166487175Y-124047165D01*
X166305186Y-124122547D01*
X166240787Y-124135357D01*
X166111990Y-124160976D01*
X165915004Y-124160976D01*
X165786207Y-124135357D01*
X165721808Y-124122547D01*
X165539819Y-124047165D01*
X165376034Y-123937727D01*
X165236746Y-123798439D01*
X165127308Y-123634654D01*
X165051926Y-123452665D01*
X165032390Y-123354452D01*
X165013497Y-123259469D01*
X165013497Y-123062483D01*
X165049621Y-122880874D01*
X165051926Y-122869287D01*
X165127308Y-122687298D01*
X165236746Y-122523513D01*
X165376034Y-122384225D01*
X165539819Y-122274787D01*
X165721808Y-122199405D01*
X165786207Y-122186595D01*
X165915004Y-122160976D01*
X166111990Y-122160976D01*
X166240787Y-122186595D01*
X166240787Y-122186595D01*
G37*
G36*
X143775974Y-123084148D02*
G01*
X143810567Y-123094642D01*
X143850127Y-123115787D01*
X143856066Y-123119756D01*
X143878703Y-123129135D01*
X143902736Y-123133918D01*
X143927240Y-123133920D01*
X143951274Y-123129142D01*
X143973914Y-123119767D01*
X143979861Y-123115794D01*
X144019433Y-123094642D01*
X144054026Y-123084148D01*
X144096141Y-123080000D01*
X144703859Y-123080000D01*
X144745974Y-123084148D01*
X144780567Y-123094642D01*
X144812440Y-123111678D01*
X144840386Y-123134614D01*
X144863322Y-123162560D01*
X144880358Y-123194433D01*
X144890852Y-123229026D01*
X144895000Y-123271141D01*
X144895000Y-123928859D01*
X144890852Y-123970974D01*
X144880358Y-124005567D01*
X144863322Y-124037440D01*
X144840386Y-124065386D01*
X144812440Y-124088322D01*
X144780567Y-124105358D01*
X144745974Y-124115852D01*
X144703859Y-124120000D01*
X144096141Y-124120000D01*
X144054026Y-124115852D01*
X144019433Y-124105358D01*
X143979873Y-124084213D01*
X143973934Y-124080244D01*
X143951297Y-124070865D01*
X143927264Y-124066082D01*
X143902760Y-124066080D01*
X143878726Y-124070858D01*
X143856086Y-124080233D01*
X143850139Y-124084206D01*
X143810567Y-124105358D01*
X143775974Y-124115852D01*
X143733859Y-124120000D01*
X143126141Y-124120000D01*
X143084026Y-124115852D01*
X143049433Y-124105358D01*
X143017560Y-124088322D01*
X142989614Y-124065386D01*
X142966678Y-124037440D01*
X142949642Y-124005567D01*
X142939148Y-123970974D01*
X142935000Y-123928859D01*
X142935000Y-123271141D01*
X142939148Y-123229026D01*
X142949642Y-123194433D01*
X142966678Y-123162560D01*
X142989614Y-123134614D01*
X143017560Y-123111678D01*
X143049433Y-123094642D01*
X143084026Y-123084148D01*
X143126141Y-123080000D01*
X143733859Y-123080000D01*
X143775974Y-123084148D01*
X143775974Y-123084148D01*
G37*
G36*
X174462807Y-117378830D02*
G01*
X174791243Y-117444160D01*
X175062451Y-117556498D01*
X175398728Y-117695788D01*
X175410004Y-117700459D01*
X175648048Y-117859515D01*
X175966873Y-118072547D01*
X176440453Y-118546127D01*
X176812542Y-119102998D01*
X176873178Y-119249387D01*
X177068840Y-119721757D01*
X177124123Y-119999683D01*
X177199500Y-120378628D01*
X177199500Y-121048372D01*
X177135123Y-121372017D01*
X177068840Y-121705243D01*
X176812541Y-122324004D01*
X176761762Y-122400000D01*
X176440453Y-122880873D01*
X175966873Y-123354453D01*
X175819888Y-123452665D01*
X175410004Y-123726541D01*
X174791243Y-123982840D01*
X174654680Y-124010004D01*
X174134372Y-124113500D01*
X173464628Y-124113500D01*
X172944320Y-124010004D01*
X172807757Y-123982840D01*
X172188996Y-123726541D01*
X171779112Y-123452665D01*
X171632127Y-123354453D01*
X171158547Y-122880873D01*
X170837238Y-122400000D01*
X170786459Y-122324004D01*
X170530160Y-121705243D01*
X170463877Y-121372017D01*
X170399500Y-121048372D01*
X170399500Y-120378628D01*
X170474877Y-119999683D01*
X170530160Y-119721757D01*
X170725822Y-119249387D01*
X170786458Y-119102998D01*
X171158547Y-118546127D01*
X171632127Y-118072547D01*
X171950952Y-117859515D01*
X172188996Y-117700459D01*
X172200273Y-117695788D01*
X172536549Y-117556498D01*
X172807757Y-117444160D01*
X173136193Y-117378830D01*
X173464628Y-117313500D01*
X174134372Y-117313500D01*
X174462807Y-117378830D01*
X174462807Y-117378830D01*
G37*
G36*
X125478907Y-117366130D02*
G01*
X125807343Y-117431460D01*
X126109216Y-117556500D01*
X126389266Y-117672500D01*
X126426104Y-117687759D01*
X126668915Y-117850000D01*
X126982973Y-118059847D01*
X127456553Y-118533427D01*
X127602933Y-118752500D01*
X127828641Y-119090296D01*
X128084940Y-119709057D01*
X128139784Y-119984776D01*
X128215600Y-120365928D01*
X128215600Y-121035672D01*
X128182913Y-121200000D01*
X128084940Y-121692543D01*
X127828641Y-122311304D01*
X127769376Y-122400000D01*
X127456553Y-122868173D01*
X126982973Y-123341753D01*
X126963966Y-123354453D01*
X126426104Y-123713841D01*
X126426103Y-123713842D01*
X126426102Y-123713842D01*
X126244871Y-123788910D01*
X125807343Y-123970140D01*
X125629239Y-124005567D01*
X125150472Y-124100800D01*
X124480728Y-124100800D01*
X124001961Y-124005567D01*
X123823857Y-123970140D01*
X123386329Y-123788910D01*
X123205098Y-123713842D01*
X123205097Y-123713842D01*
X123205096Y-123713841D01*
X122667234Y-123354453D01*
X122648227Y-123341753D01*
X122174647Y-122868173D01*
X121861824Y-122400000D01*
X121802559Y-122311304D01*
X121546260Y-121692543D01*
X121448287Y-121200000D01*
X121415600Y-121035672D01*
X121415600Y-120365928D01*
X121491416Y-119984776D01*
X121546260Y-119709057D01*
X121802559Y-119090296D01*
X122028267Y-118752500D01*
X122174647Y-118533427D01*
X122648227Y-118059847D01*
X122962285Y-117850000D01*
X123205096Y-117687759D01*
X123241935Y-117672500D01*
X123521984Y-117556500D01*
X123823857Y-117431460D01*
X124152293Y-117366130D01*
X124480728Y-117300800D01*
X125150472Y-117300800D01*
X125478907Y-117366130D01*
X125478907Y-117366130D01*
G37*
G36*
X147929373Y-121767874D02*
G01*
X147993772Y-121780684D01*
X148175761Y-121856066D01*
X148339546Y-121965504D01*
X148478834Y-122104792D01*
X148588272Y-122268577D01*
X148663654Y-122450566D01*
X148663654Y-122450567D01*
X148702083Y-122643762D01*
X148702083Y-122840748D01*
X148694101Y-122880874D01*
X148663654Y-123033944D01*
X148588272Y-123215933D01*
X148478834Y-123379718D01*
X148339546Y-123519006D01*
X148175761Y-123628444D01*
X147993772Y-123703826D01*
X147929373Y-123716636D01*
X147800576Y-123742255D01*
X147603590Y-123742255D01*
X147474793Y-123716636D01*
X147410394Y-123703826D01*
X147228405Y-123628444D01*
X147064620Y-123519006D01*
X146925332Y-123379718D01*
X146815894Y-123215933D01*
X146740512Y-123033944D01*
X146710065Y-122880874D01*
X146702083Y-122840748D01*
X146702083Y-122643762D01*
X146740512Y-122450567D01*
X146740512Y-122450566D01*
X146815894Y-122268577D01*
X146925332Y-122104792D01*
X147064620Y-121965504D01*
X147228405Y-121856066D01*
X147410394Y-121780684D01*
X147474793Y-121767874D01*
X147603590Y-121742255D01*
X147800576Y-121742255D01*
X147929373Y-121767874D01*
X147929373Y-121767874D01*
G37*
G36*
X145850000Y-122400000D02*
G01*
X144550000Y-122400000D01*
X144550000Y-121200000D01*
X145850000Y-121200000D01*
X145850000Y-122400000D01*
X145850000Y-122400000D01*
G37*
G36*
X167697671Y-120105948D02*
G01*
X167762070Y-120118758D01*
X167944059Y-120194140D01*
X168107844Y-120303578D01*
X168247132Y-120442866D01*
X168356570Y-120606651D01*
X168431952Y-120788640D01*
X168470381Y-120981838D01*
X168470381Y-121178820D01*
X168431952Y-121372018D01*
X168356570Y-121554007D01*
X168247132Y-121717792D01*
X168107844Y-121857080D01*
X167944059Y-121966518D01*
X167762070Y-122041900D01*
X167697671Y-122054710D01*
X167568874Y-122080329D01*
X167371888Y-122080329D01*
X167243091Y-122054710D01*
X167178692Y-122041900D01*
X166996703Y-121966518D01*
X166832918Y-121857080D01*
X166693630Y-121717792D01*
X166584192Y-121554007D01*
X166508810Y-121372018D01*
X166470381Y-121178820D01*
X166470381Y-120981838D01*
X166508810Y-120788640D01*
X166584192Y-120606651D01*
X166693630Y-120442866D01*
X166832918Y-120303578D01*
X166996703Y-120194140D01*
X167178692Y-120118758D01*
X167243091Y-120105948D01*
X167371888Y-120080329D01*
X167568874Y-120080329D01*
X167697671Y-120105948D01*
X167697671Y-120105948D01*
G37*
G36*
X149386257Y-119687228D02*
G01*
X149450656Y-119700038D01*
X149632645Y-119775420D01*
X149796430Y-119884858D01*
X149935718Y-120024146D01*
X150045156Y-120187931D01*
X150120538Y-120369920D01*
X150120538Y-120369921D01*
X150158967Y-120563116D01*
X150158967Y-120760102D01*
X150133348Y-120888899D01*
X150120538Y-120953298D01*
X150045156Y-121135287D01*
X149935718Y-121299072D01*
X149796430Y-121438360D01*
X149632645Y-121547798D01*
X149450656Y-121623180D01*
X149386257Y-121635990D01*
X149257460Y-121661609D01*
X149060474Y-121661609D01*
X148931677Y-121635990D01*
X148867278Y-121623180D01*
X148685289Y-121547798D01*
X148521504Y-121438360D01*
X148382216Y-121299072D01*
X148272778Y-121135287D01*
X148197396Y-120953298D01*
X148184586Y-120888899D01*
X148158967Y-120760102D01*
X148158967Y-120563116D01*
X148197396Y-120369921D01*
X148197396Y-120369920D01*
X148272778Y-120187931D01*
X148382216Y-120024146D01*
X148521504Y-119884858D01*
X148685289Y-119775420D01*
X148867278Y-119700038D01*
X148931677Y-119687228D01*
X149060474Y-119661609D01*
X149257460Y-119661609D01*
X149386257Y-119687228D01*
X149386257Y-119687228D01*
G37*
G36*
X143850000Y-121450000D02*
G01*
X142550000Y-121450000D01*
X142550000Y-120250000D01*
X143850000Y-120250000D01*
X143850000Y-121450000D01*
X143850000Y-121450000D01*
G37*
G36*
X181700000Y-117775001D02*
G01*
X181702402Y-117799387D01*
X181709515Y-117822836D01*
X181721066Y-117844447D01*
X181736611Y-117863389D01*
X181755553Y-117878934D01*
X181777164Y-117890485D01*
X181800613Y-117897598D01*
X181824999Y-117900000D01*
X182650000Y-117900000D01*
X182650000Y-119300000D01*
X181824999Y-119300000D01*
X181800613Y-119302402D01*
X181777164Y-119309515D01*
X181755553Y-119321066D01*
X181736611Y-119336611D01*
X181721066Y-119355553D01*
X181709515Y-119377164D01*
X181702402Y-119400613D01*
X181700000Y-119424999D01*
X181700000Y-120800000D01*
X179100000Y-120800000D01*
X179100000Y-119350000D01*
X181075001Y-119350000D01*
X181099387Y-119347598D01*
X181122836Y-119340485D01*
X181144447Y-119328934D01*
X181163389Y-119313389D01*
X181178934Y-119294447D01*
X181190485Y-119272836D01*
X181197598Y-119249387D01*
X181200000Y-119225001D01*
X181200000Y-117974999D01*
X181197598Y-117950613D01*
X181190485Y-117927164D01*
X181178934Y-117905553D01*
X181163389Y-117886611D01*
X181144447Y-117871066D01*
X181122836Y-117859515D01*
X181099387Y-117852402D01*
X181075001Y-117850000D01*
X179100000Y-117850000D01*
X179100000Y-116400000D01*
X181700000Y-116400000D01*
X181700000Y-117775001D01*
X181700000Y-117775001D01*
G37*
G36*
X145850000Y-120500000D02*
G01*
X144550000Y-120500000D01*
X144550000Y-119300000D01*
X145850000Y-119300000D01*
X145850000Y-120500000D01*
X145850000Y-120500000D01*
G37*
G36*
X185570974Y-118509148D02*
G01*
X185605567Y-118519642D01*
X185637440Y-118536678D01*
X185665386Y-118559614D01*
X185688322Y-118587560D01*
X185705358Y-118619433D01*
X185715852Y-118654026D01*
X185720000Y-118696141D01*
X185720000Y-119303859D01*
X185715852Y-119345974D01*
X185705358Y-119380567D01*
X185684213Y-119420127D01*
X185680244Y-119426066D01*
X185670865Y-119448703D01*
X185666082Y-119472736D01*
X185666080Y-119497240D01*
X185670858Y-119521274D01*
X185680233Y-119543914D01*
X185684206Y-119549861D01*
X185705358Y-119589433D01*
X185715852Y-119624026D01*
X185720000Y-119666141D01*
X185720000Y-120273859D01*
X185715852Y-120315974D01*
X185705358Y-120350567D01*
X185688322Y-120382440D01*
X185665386Y-120410386D01*
X185637440Y-120433322D01*
X185605567Y-120450358D01*
X185570974Y-120460852D01*
X185528859Y-120465000D01*
X184871141Y-120465000D01*
X184829026Y-120460852D01*
X184794433Y-120450358D01*
X184762560Y-120433322D01*
X184734614Y-120410386D01*
X184711678Y-120382440D01*
X184694642Y-120350567D01*
X184684148Y-120315974D01*
X184680000Y-120273859D01*
X184680000Y-119666141D01*
X184684148Y-119624026D01*
X184694642Y-119589433D01*
X184715787Y-119549873D01*
X184719756Y-119543934D01*
X184729135Y-119521297D01*
X184733918Y-119497264D01*
X184733920Y-119472760D01*
X184729142Y-119448726D01*
X184719767Y-119426086D01*
X184715794Y-119420139D01*
X184694642Y-119380567D01*
X184684148Y-119345974D01*
X184680000Y-119303859D01*
X184680000Y-118696141D01*
X184684148Y-118654026D01*
X184694642Y-118619433D01*
X184711678Y-118587560D01*
X184734614Y-118559614D01*
X184762560Y-118536678D01*
X184794433Y-118519642D01*
X184829026Y-118509148D01*
X184871141Y-118505000D01*
X185528859Y-118505000D01*
X185570974Y-118509148D01*
X185570974Y-118509148D01*
G37*
G36*
X184039208Y-118503235D02*
G01*
X184064886Y-118511025D01*
X184088557Y-118523677D01*
X184109300Y-118540700D01*
X184126323Y-118561443D01*
X184138975Y-118585114D01*
X184146765Y-118610792D01*
X184150000Y-118643640D01*
X184150000Y-119216357D01*
X184147893Y-119237746D01*
X184147893Y-119262254D01*
X184150000Y-119283643D01*
X184150000Y-119856360D01*
X184146765Y-119889208D01*
X184138975Y-119914886D01*
X184126323Y-119938557D01*
X184109300Y-119959300D01*
X184088557Y-119976323D01*
X184064886Y-119988975D01*
X184039208Y-119996765D01*
X184006360Y-120000000D01*
X183493640Y-120000000D01*
X183460792Y-119996765D01*
X183435114Y-119988975D01*
X183411443Y-119976323D01*
X183390700Y-119959300D01*
X183373677Y-119938557D01*
X183361025Y-119914886D01*
X183353235Y-119889208D01*
X183350000Y-119856360D01*
X183350000Y-119283643D01*
X183352107Y-119262254D01*
X183352107Y-119237746D01*
X183350000Y-119216357D01*
X183350000Y-118643640D01*
X183353235Y-118610792D01*
X183361025Y-118585114D01*
X183373677Y-118561443D01*
X183390700Y-118540700D01*
X183411443Y-118523677D01*
X183435114Y-118511025D01*
X183460792Y-118503235D01*
X183493640Y-118500000D01*
X184006360Y-118500000D01*
X184039208Y-118503235D01*
X184039208Y-118503235D01*
G37*
G36*
X169154555Y-118025302D02*
G01*
X169218954Y-118038112D01*
X169400943Y-118113494D01*
X169564728Y-118222932D01*
X169704016Y-118362220D01*
X169813454Y-118526005D01*
X169888836Y-118707994D01*
X169888836Y-118707995D01*
X169927265Y-118901190D01*
X169927265Y-119098176D01*
X169907206Y-119199018D01*
X169888836Y-119291372D01*
X169813454Y-119473361D01*
X169704016Y-119637146D01*
X169564728Y-119776434D01*
X169400943Y-119885872D01*
X169218954Y-119961254D01*
X169154555Y-119974064D01*
X169025758Y-119999683D01*
X168828772Y-119999683D01*
X168699975Y-119974064D01*
X168635576Y-119961254D01*
X168453587Y-119885872D01*
X168289802Y-119776434D01*
X168150514Y-119637146D01*
X168041076Y-119473361D01*
X167965694Y-119291372D01*
X167947324Y-119199018D01*
X167927265Y-119098176D01*
X167927265Y-118901190D01*
X167965694Y-118707995D01*
X167965694Y-118707994D01*
X168041076Y-118526005D01*
X168150514Y-118362220D01*
X168289802Y-118222932D01*
X168453587Y-118113494D01*
X168635576Y-118038112D01*
X168699975Y-118025302D01*
X168828772Y-117999683D01*
X169025758Y-117999683D01*
X169154555Y-118025302D01*
X169154555Y-118025302D01*
G37*
G36*
X150843141Y-117606582D02*
G01*
X150907540Y-117619392D01*
X151089529Y-117694774D01*
X151253314Y-117804212D01*
X151392602Y-117943500D01*
X151502040Y-118107285D01*
X151549942Y-118222932D01*
X151577422Y-118289275D01*
X151615851Y-118482470D01*
X151615851Y-118679456D01*
X151590232Y-118808253D01*
X151577422Y-118872652D01*
X151502040Y-119054641D01*
X151392602Y-119218426D01*
X151253314Y-119357714D01*
X151089529Y-119467152D01*
X150907540Y-119542534D01*
X150843141Y-119555344D01*
X150714344Y-119580963D01*
X150517358Y-119580963D01*
X150388561Y-119555344D01*
X150324162Y-119542534D01*
X150142173Y-119467152D01*
X149978388Y-119357714D01*
X149839100Y-119218426D01*
X149729662Y-119054641D01*
X149654280Y-118872652D01*
X149641470Y-118808253D01*
X149615851Y-118679456D01*
X149615851Y-118482470D01*
X149654280Y-118289275D01*
X149681760Y-118222932D01*
X149729662Y-118107285D01*
X149839100Y-117943500D01*
X149978388Y-117804212D01*
X150142173Y-117694774D01*
X150324162Y-117619392D01*
X150388561Y-117606582D01*
X150517358Y-117580963D01*
X150714344Y-117580963D01*
X150843141Y-117606582D01*
X150843141Y-117606582D01*
G37*
G36*
X119870974Y-114809148D02*
G01*
X119905567Y-114819642D01*
X119937440Y-114836678D01*
X119965386Y-114859614D01*
X119988322Y-114887560D01*
X120005358Y-114919433D01*
X120015852Y-114954026D01*
X120020000Y-114996141D01*
X120020000Y-115603859D01*
X120015852Y-115645974D01*
X120005358Y-115680567D01*
X119984213Y-115720127D01*
X119980244Y-115726066D01*
X119970865Y-115748703D01*
X119966082Y-115772736D01*
X119966080Y-115797240D01*
X119970858Y-115821274D01*
X119980233Y-115843914D01*
X119984206Y-115849861D01*
X120005358Y-115889433D01*
X120015852Y-115924026D01*
X120020000Y-115966141D01*
X120020000Y-116573859D01*
X120015852Y-116615974D01*
X120005358Y-116650567D01*
X119988322Y-116682440D01*
X119979373Y-116693344D01*
X119965759Y-116713719D01*
X119956382Y-116736357D01*
X119951601Y-116760391D01*
X119951601Y-116784895D01*
X119956381Y-116808928D01*
X119965758Y-116831567D01*
X119979372Y-116851941D01*
X119996698Y-116869269D01*
X120017073Y-116882883D01*
X120039711Y-116892260D01*
X120063745Y-116897041D01*
X120088249Y-116897041D01*
X120112283Y-116892261D01*
X120139028Y-116884148D01*
X120181141Y-116880000D01*
X120788859Y-116880000D01*
X120830974Y-116884148D01*
X120865567Y-116894642D01*
X120897440Y-116911678D01*
X120925386Y-116934614D01*
X120948322Y-116962560D01*
X120965358Y-116994433D01*
X120975852Y-117029026D01*
X120980000Y-117071141D01*
X120980000Y-117728859D01*
X120975852Y-117770974D01*
X120965358Y-117805567D01*
X120948322Y-117837440D01*
X120925386Y-117865386D01*
X120897440Y-117888322D01*
X120865567Y-117905358D01*
X120830974Y-117915852D01*
X120788859Y-117920000D01*
X120181141Y-117920000D01*
X120139026Y-117915852D01*
X120104433Y-117905358D01*
X120064873Y-117884213D01*
X120058934Y-117880244D01*
X120036297Y-117870865D01*
X120012264Y-117866082D01*
X119987760Y-117866080D01*
X119963726Y-117870858D01*
X119941086Y-117880233D01*
X119935139Y-117884206D01*
X119895567Y-117905358D01*
X119860974Y-117915852D01*
X119818859Y-117920000D01*
X119211141Y-117920000D01*
X119169026Y-117915852D01*
X119134433Y-117905358D01*
X119102560Y-117888322D01*
X119074614Y-117865386D01*
X119051678Y-117837440D01*
X119034642Y-117805567D01*
X119024148Y-117770974D01*
X119020000Y-117728859D01*
X119020000Y-117071141D01*
X119024148Y-117029026D01*
X119034642Y-116994433D01*
X119051678Y-116962560D01*
X119075301Y-116933776D01*
X119091113Y-116917964D01*
X119104726Y-116897589D01*
X119114102Y-116874949D01*
X119118882Y-116850916D01*
X119118881Y-116826412D01*
X119114099Y-116802379D01*
X119104721Y-116779740D01*
X119091106Y-116759367D01*
X119073779Y-116742040D01*
X119070572Y-116739897D01*
X119034614Y-116710386D01*
X119011678Y-116682440D01*
X118994642Y-116650567D01*
X118984148Y-116615974D01*
X118980000Y-116573859D01*
X118980000Y-115966141D01*
X118984148Y-115924026D01*
X118994642Y-115889433D01*
X119015787Y-115849873D01*
X119019756Y-115843934D01*
X119029135Y-115821297D01*
X119033918Y-115797264D01*
X119033920Y-115772760D01*
X119029142Y-115748726D01*
X119019767Y-115726086D01*
X119015794Y-115720139D01*
X118994642Y-115680567D01*
X118984148Y-115645974D01*
X118980000Y-115603859D01*
X118980000Y-114996141D01*
X118984148Y-114954026D01*
X118994642Y-114919433D01*
X119011678Y-114887560D01*
X119034614Y-114859614D01*
X119062560Y-114836678D01*
X119094433Y-114819642D01*
X119129026Y-114809148D01*
X119171141Y-114805000D01*
X119828859Y-114805000D01*
X119870974Y-114809148D01*
X119870974Y-114809148D01*
G37*
G36*
X170611439Y-115944656D02*
G01*
X170675838Y-115957466D01*
X170857827Y-116032848D01*
X171021612Y-116142286D01*
X171160900Y-116281574D01*
X171270338Y-116445359D01*
X171345720Y-116627348D01*
X171345720Y-116627349D01*
X171384149Y-116820544D01*
X171384149Y-117017530D01*
X171360230Y-117137778D01*
X171345720Y-117210726D01*
X171270338Y-117392715D01*
X171160900Y-117556500D01*
X171021612Y-117695788D01*
X170857827Y-117805226D01*
X170675838Y-117880608D01*
X170626182Y-117890485D01*
X170482642Y-117919037D01*
X170285656Y-117919037D01*
X170142116Y-117890485D01*
X170092460Y-117880608D01*
X169910471Y-117805226D01*
X169746686Y-117695788D01*
X169607398Y-117556500D01*
X169497960Y-117392715D01*
X169422578Y-117210726D01*
X169408068Y-117137778D01*
X169384149Y-117017530D01*
X169384149Y-116820544D01*
X169422578Y-116627349D01*
X169422578Y-116627348D01*
X169497960Y-116445359D01*
X169607398Y-116281574D01*
X169746686Y-116142286D01*
X169910471Y-116032848D01*
X170092460Y-115957466D01*
X170156859Y-115944656D01*
X170285656Y-115919037D01*
X170482642Y-115919037D01*
X170611439Y-115944656D01*
X170611439Y-115944656D01*
G37*
G36*
X134550000Y-117550000D02*
G01*
X131650000Y-117550000D01*
X131650000Y-114650000D01*
X134550000Y-114650000D01*
X134550000Y-117550000D01*
X134550000Y-117550000D01*
G37*
G36*
X141550000Y-117550000D02*
G01*
X138650000Y-117550000D01*
X138650000Y-114650000D01*
X141550000Y-114650000D01*
X141550000Y-117550000D01*
X141550000Y-117550000D01*
G37*
G36*
X152300025Y-115525936D02*
G01*
X152364424Y-115538746D01*
X152546413Y-115614128D01*
X152710198Y-115723566D01*
X152849486Y-115862854D01*
X152958924Y-116026639D01*
X153034306Y-116208628D01*
X153034306Y-116208629D01*
X153072735Y-116401824D01*
X153072735Y-116598810D01*
X153047116Y-116727607D01*
X153034306Y-116792006D01*
X152958924Y-116973995D01*
X152849486Y-117137780D01*
X152710198Y-117277068D01*
X152546413Y-117386506D01*
X152364424Y-117461888D01*
X152300025Y-117474698D01*
X152171228Y-117500317D01*
X151974242Y-117500317D01*
X151845445Y-117474698D01*
X151781046Y-117461888D01*
X151599057Y-117386506D01*
X151435272Y-117277068D01*
X151295984Y-117137780D01*
X151186546Y-116973995D01*
X151111164Y-116792006D01*
X151098354Y-116727607D01*
X151072735Y-116598810D01*
X151072735Y-116401824D01*
X151111164Y-116208629D01*
X151111164Y-116208628D01*
X151186546Y-116026639D01*
X151295984Y-115862854D01*
X151435272Y-115723566D01*
X151599057Y-115614128D01*
X151781046Y-115538746D01*
X151845445Y-115525936D01*
X151974242Y-115500317D01*
X152171228Y-115500317D01*
X152300025Y-115525936D01*
X152300025Y-115525936D01*
G37*
G36*
X116270974Y-110024148D02*
G01*
X116305567Y-110034642D01*
X116337443Y-110051680D01*
X116370701Y-110078974D01*
X116391075Y-110092588D01*
X116413714Y-110101965D01*
X116437747Y-110106746D01*
X116462252Y-110106746D01*
X116486285Y-110101966D01*
X116508924Y-110092589D01*
X116529299Y-110078974D01*
X116562557Y-110051680D01*
X116594433Y-110034642D01*
X116629026Y-110024148D01*
X116671141Y-110020000D01*
X117328859Y-110020000D01*
X117370974Y-110024148D01*
X117405567Y-110034642D01*
X117437440Y-110051678D01*
X117465386Y-110074614D01*
X117488322Y-110102560D01*
X117505358Y-110134433D01*
X117515852Y-110169026D01*
X117520000Y-110211141D01*
X117520000Y-110818859D01*
X117515852Y-110860975D01*
X117506017Y-110893395D01*
X117501236Y-110917429D01*
X117501236Y-110941933D01*
X117506016Y-110965966D01*
X117515394Y-110988605D01*
X117529007Y-111008979D01*
X117546334Y-111026306D01*
X117566708Y-111039920D01*
X117589347Y-111049297D01*
X117613381Y-111054078D01*
X117637885Y-111054078D01*
X117661918Y-111049298D01*
X117684555Y-111039922D01*
X117694436Y-111034641D01*
X117729026Y-111024148D01*
X117771141Y-111020000D01*
X118428859Y-111020000D01*
X118470974Y-111024148D01*
X118505567Y-111034642D01*
X118537440Y-111051678D01*
X118565386Y-111074614D01*
X118588322Y-111102560D01*
X118605358Y-111134433D01*
X118615852Y-111169026D01*
X118620000Y-111211141D01*
X118620000Y-111818859D01*
X118615852Y-111860974D01*
X118605358Y-111895567D01*
X118584213Y-111935127D01*
X118580244Y-111941066D01*
X118570865Y-111963703D01*
X118566082Y-111987736D01*
X118566080Y-112012240D01*
X118570858Y-112036274D01*
X118580233Y-112058914D01*
X118584206Y-112064861D01*
X118597942Y-112090558D01*
X118611555Y-112110933D01*
X118628882Y-112128260D01*
X118649257Y-112141873D01*
X118671896Y-112151251D01*
X118695929Y-112156031D01*
X118720433Y-112156031D01*
X118744466Y-112151251D01*
X118767105Y-112141873D01*
X118787480Y-112128260D01*
X118804806Y-112110933D01*
X118834611Y-112074615D01*
X118862560Y-112051678D01*
X118894433Y-112034642D01*
X118929026Y-112024148D01*
X118971141Y-112020000D01*
X119628859Y-112020000D01*
X119670974Y-112024148D01*
X119705567Y-112034642D01*
X119737440Y-112051678D01*
X119765386Y-112074614D01*
X119788322Y-112102560D01*
X119805358Y-112134433D01*
X119815852Y-112169026D01*
X119820000Y-112211141D01*
X119820000Y-112818859D01*
X119815852Y-112860974D01*
X119805358Y-112895567D01*
X119784213Y-112935127D01*
X119780244Y-112941066D01*
X119770865Y-112963703D01*
X119766082Y-112987736D01*
X119766080Y-113012240D01*
X119770858Y-113036274D01*
X119780233Y-113058914D01*
X119784206Y-113064861D01*
X119805358Y-113104433D01*
X119815852Y-113139026D01*
X119820000Y-113181141D01*
X119820000Y-113788859D01*
X119815852Y-113830974D01*
X119805358Y-113865567D01*
X119788322Y-113897440D01*
X119765386Y-113925386D01*
X119737440Y-113948322D01*
X119705567Y-113965358D01*
X119670974Y-113975852D01*
X119628859Y-113980000D01*
X118971141Y-113980000D01*
X118929026Y-113975852D01*
X118894433Y-113965358D01*
X118862560Y-113948322D01*
X118834611Y-113925385D01*
X118804806Y-113889067D01*
X118787479Y-113871740D01*
X118767105Y-113858126D01*
X118744466Y-113848749D01*
X118720432Y-113843969D01*
X118695928Y-113843969D01*
X118671895Y-113848750D01*
X118649256Y-113858127D01*
X118628882Y-113871741D01*
X118611555Y-113889068D01*
X118597942Y-113909442D01*
X118584213Y-113935127D01*
X118580244Y-113941066D01*
X118570865Y-113963703D01*
X118566082Y-113987736D01*
X118566080Y-114012240D01*
X118570858Y-114036274D01*
X118580233Y-114058914D01*
X118584206Y-114064861D01*
X118605358Y-114104433D01*
X118615852Y-114139026D01*
X118620000Y-114181141D01*
X118620000Y-114788859D01*
X118615852Y-114830974D01*
X118605358Y-114865567D01*
X118588322Y-114897440D01*
X118565386Y-114925386D01*
X118537440Y-114948322D01*
X118505567Y-114965358D01*
X118470974Y-114975852D01*
X118428859Y-114980000D01*
X117771141Y-114980000D01*
X117729026Y-114975852D01*
X117694433Y-114965358D01*
X117661847Y-114947941D01*
X117642803Y-114935217D01*
X117620164Y-114925840D01*
X117596131Y-114921060D01*
X117571626Y-114921060D01*
X117547593Y-114925841D01*
X117524955Y-114935219D01*
X117504581Y-114948833D01*
X117487254Y-114966160D01*
X117473641Y-114986535D01*
X117467135Y-115002244D01*
X117448320Y-115037443D01*
X117421026Y-115070701D01*
X117407412Y-115091075D01*
X117398035Y-115113714D01*
X117393254Y-115137747D01*
X117393254Y-115162252D01*
X117398034Y-115186285D01*
X117407411Y-115208924D01*
X117421026Y-115229299D01*
X117448320Y-115262557D01*
X117465358Y-115294433D01*
X117475852Y-115329026D01*
X117480000Y-115371141D01*
X117480000Y-116028859D01*
X117475852Y-116070974D01*
X117465358Y-116105567D01*
X117448322Y-116137440D01*
X117425386Y-116165386D01*
X117397440Y-116188322D01*
X117365567Y-116205358D01*
X117330974Y-116215852D01*
X117288859Y-116220000D01*
X116681141Y-116220000D01*
X116639026Y-116215852D01*
X116604433Y-116205358D01*
X116564873Y-116184213D01*
X116558934Y-116180244D01*
X116536297Y-116170865D01*
X116512264Y-116166082D01*
X116487760Y-116166080D01*
X116463726Y-116170858D01*
X116441086Y-116180233D01*
X116435139Y-116184206D01*
X116395567Y-116205358D01*
X116360974Y-116215852D01*
X116318859Y-116220000D01*
X115711141Y-116220000D01*
X115669026Y-116215852D01*
X115634433Y-116205358D01*
X115602560Y-116188322D01*
X115574614Y-116165386D01*
X115551678Y-116137440D01*
X115534642Y-116105567D01*
X115524148Y-116070974D01*
X115520000Y-116028859D01*
X115520000Y-115371141D01*
X115524148Y-115329026D01*
X115534642Y-115294433D01*
X115551680Y-115262557D01*
X115578974Y-115229299D01*
X115592588Y-115208925D01*
X115601965Y-115186286D01*
X115606746Y-115162253D01*
X115606746Y-115137748D01*
X115601966Y-115113715D01*
X115592589Y-115091076D01*
X115578974Y-115070701D01*
X115551680Y-115037443D01*
X115534642Y-115005567D01*
X115524148Y-114970974D01*
X115520000Y-114928859D01*
X115520000Y-114271141D01*
X115524148Y-114229026D01*
X115534642Y-114194433D01*
X115551678Y-114162560D01*
X115574614Y-114134614D01*
X115602560Y-114111678D01*
X115634433Y-114094642D01*
X115669026Y-114084148D01*
X115711141Y-114080000D01*
X116318859Y-114080000D01*
X116360974Y-114084148D01*
X116395567Y-114094642D01*
X116435127Y-114115787D01*
X116441066Y-114119756D01*
X116463703Y-114129135D01*
X116487736Y-114133918D01*
X116512240Y-114133920D01*
X116536274Y-114129142D01*
X116558914Y-114119767D01*
X116564861Y-114115794D01*
X116604433Y-114094642D01*
X116639026Y-114084148D01*
X116681141Y-114080000D01*
X117288859Y-114080000D01*
X117330974Y-114084148D01*
X117365567Y-114094642D01*
X117397443Y-114111680D01*
X117414083Y-114125336D01*
X117434457Y-114138950D01*
X117457096Y-114148327D01*
X117481129Y-114153108D01*
X117505633Y-114153108D01*
X117529666Y-114148328D01*
X117552305Y-114138951D01*
X117572680Y-114125337D01*
X117590007Y-114108010D01*
X117603622Y-114087633D01*
X117615787Y-114064873D01*
X117619756Y-114058934D01*
X117629135Y-114036297D01*
X117633918Y-114012264D01*
X117633920Y-113987760D01*
X117629142Y-113963726D01*
X117619767Y-113941086D01*
X117615794Y-113935139D01*
X117594642Y-113895567D01*
X117584148Y-113860974D01*
X117580000Y-113818859D01*
X117580000Y-113211141D01*
X117584148Y-113169026D01*
X117594642Y-113134433D01*
X117611680Y-113102556D01*
X117630767Y-113079299D01*
X117644381Y-113058924D01*
X117653759Y-113036285D01*
X117658539Y-113012252D01*
X117658539Y-112987749D01*
X118541461Y-112987749D01*
X118541461Y-113012253D01*
X118546242Y-113036286D01*
X118555619Y-113058925D01*
X118569232Y-113079298D01*
X118595193Y-113110932D01*
X118612520Y-113128259D01*
X118632894Y-113141873D01*
X118655533Y-113151250D01*
X118679566Y-113156031D01*
X118704070Y-113156031D01*
X118728103Y-113151251D01*
X118750742Y-113141874D01*
X118771117Y-113128260D01*
X118788444Y-113110933D01*
X118802058Y-113090558D01*
X118815787Y-113064873D01*
X118819756Y-113058934D01*
X118829135Y-113036297D01*
X118833918Y-113012264D01*
X118833920Y-112987760D01*
X118829142Y-112963726D01*
X118819767Y-112941086D01*
X118815794Y-112935139D01*
X118802058Y-112909442D01*
X118788445Y-112889067D01*
X118771118Y-112871740D01*
X118750743Y-112858127D01*
X118728104Y-112848749D01*
X118704071Y-112843969D01*
X118679567Y-112843969D01*
X118655534Y-112848749D01*
X118632895Y-112858127D01*
X118612520Y-112871740D01*
X118595193Y-112889068D01*
X118569232Y-112920702D01*
X118555618Y-112941077D01*
X118546241Y-112963716D01*
X118541461Y-112987749D01*
X117658539Y-112987749D01*
X117658539Y-112987748D01*
X117653759Y-112963715D01*
X117644381Y-112941076D01*
X117630767Y-112920701D01*
X117611680Y-112897444D01*
X117594642Y-112865567D01*
X117584148Y-112830974D01*
X117580000Y-112788859D01*
X117580000Y-112181141D01*
X117584148Y-112139025D01*
X117593983Y-112106605D01*
X117598764Y-112082571D01*
X117598764Y-112058067D01*
X117593984Y-112034034D01*
X117584606Y-112011395D01*
X117570993Y-111991021D01*
X117553666Y-111973694D01*
X117533292Y-111960080D01*
X117510653Y-111950703D01*
X117486619Y-111945922D01*
X117462115Y-111945922D01*
X117438082Y-111950702D01*
X117415445Y-111960078D01*
X117405564Y-111965359D01*
X117370974Y-111975852D01*
X117328859Y-111980000D01*
X116671141Y-111980000D01*
X116629026Y-111975852D01*
X116594433Y-111965358D01*
X116562557Y-111948320D01*
X116529299Y-111921026D01*
X116508925Y-111907412D01*
X116486286Y-111898035D01*
X116462253Y-111893254D01*
X116437748Y-111893254D01*
X116413715Y-111898034D01*
X116391076Y-111907411D01*
X116370701Y-111921026D01*
X116337443Y-111948320D01*
X116305567Y-111965358D01*
X116270974Y-111975852D01*
X116228859Y-111980000D01*
X115571141Y-111980000D01*
X115529026Y-111975852D01*
X115494433Y-111965358D01*
X115462560Y-111948322D01*
X115434614Y-111925386D01*
X115411678Y-111897440D01*
X115394642Y-111865567D01*
X115384148Y-111830974D01*
X115380000Y-111788859D01*
X115380000Y-111181141D01*
X115384148Y-111139026D01*
X115394642Y-111104433D01*
X115415787Y-111064873D01*
X115419756Y-111058934D01*
X115429135Y-111036297D01*
X115433918Y-111012264D01*
X115433920Y-110987760D01*
X115429142Y-110963726D01*
X115419767Y-110941086D01*
X115415794Y-110935139D01*
X115394642Y-110895567D01*
X115384148Y-110860974D01*
X115380000Y-110818859D01*
X115380000Y-110211141D01*
X115384148Y-110169026D01*
X115394642Y-110134433D01*
X115411678Y-110102560D01*
X115434614Y-110074614D01*
X115462560Y-110051678D01*
X115494433Y-110034642D01*
X115529026Y-110024148D01*
X115571141Y-110020000D01*
X116228859Y-110020000D01*
X116270974Y-110024148D01*
X116270974Y-110024148D01*
G37*
G36*
X121760974Y-109484148D02*
G01*
X121795567Y-109494642D01*
X121835127Y-109515787D01*
X121841066Y-109519756D01*
X121863703Y-109529135D01*
X121887736Y-109533918D01*
X121912240Y-109533920D01*
X121936274Y-109529142D01*
X121958914Y-109519767D01*
X121964861Y-109515794D01*
X122004433Y-109494642D01*
X122039026Y-109484148D01*
X122081141Y-109480000D01*
X122688859Y-109480000D01*
X122730974Y-109484148D01*
X122765567Y-109494642D01*
X122797440Y-109511678D01*
X122825386Y-109534614D01*
X122848322Y-109562560D01*
X122865358Y-109594433D01*
X122875852Y-109629026D01*
X122880000Y-109671141D01*
X122880000Y-110328859D01*
X122875852Y-110370974D01*
X122865358Y-110405567D01*
X122848322Y-110437440D01*
X122825386Y-110465386D01*
X122797440Y-110488322D01*
X122765566Y-110505359D01*
X122765483Y-110505384D01*
X122742844Y-110514761D01*
X122722469Y-110528374D01*
X122705142Y-110545701D01*
X122691528Y-110566075D01*
X122682150Y-110588714D01*
X122677369Y-110612747D01*
X122677369Y-110637251D01*
X122682149Y-110661284D01*
X122691526Y-110683923D01*
X122705139Y-110704298D01*
X122722466Y-110721625D01*
X122742840Y-110735239D01*
X122765479Y-110744617D01*
X122789512Y-110749398D01*
X122801766Y-110750000D01*
X122918862Y-110750000D01*
X122937749Y-110751860D01*
X122962251Y-110751860D01*
X122981138Y-110750000D01*
X123418862Y-110750000D01*
X123437749Y-110751860D01*
X123462251Y-110751860D01*
X123481138Y-110750000D01*
X123918862Y-110750000D01*
X123944392Y-110752514D01*
X123963035Y-110758170D01*
X123980222Y-110767357D01*
X123995283Y-110779717D01*
X124007643Y-110794778D01*
X124016830Y-110811965D01*
X124022486Y-110830608D01*
X124025000Y-110856138D01*
X124025000Y-111790394D01*
X124027402Y-111814780D01*
X124034515Y-111838229D01*
X124046066Y-111859840D01*
X124061611Y-111878782D01*
X124070701Y-111887020D01*
X124093923Y-111906077D01*
X124112980Y-111929299D01*
X124130307Y-111946626D01*
X124150681Y-111960240D01*
X124173320Y-111969617D01*
X124197353Y-111974398D01*
X124209606Y-111975000D01*
X125143862Y-111975000D01*
X125169392Y-111977514D01*
X125188035Y-111983170D01*
X125205222Y-111992357D01*
X125220283Y-112004717D01*
X125232643Y-112019778D01*
X125241830Y-112036965D01*
X125247486Y-112055608D01*
X125250000Y-112081138D01*
X125250000Y-112518862D01*
X125248140Y-112537749D01*
X125248140Y-112562251D01*
X125250000Y-112581138D01*
X125250000Y-113018862D01*
X125248140Y-113037749D01*
X125248140Y-113062251D01*
X125250000Y-113081138D01*
X125250000Y-113518862D01*
X125248140Y-113537749D01*
X125248140Y-113562251D01*
X125250000Y-113581138D01*
X125250000Y-114018862D01*
X125248140Y-114037749D01*
X125248140Y-114062251D01*
X125250000Y-114081138D01*
X125250000Y-114518862D01*
X125247486Y-114544392D01*
X125241830Y-114563035D01*
X125232643Y-114580222D01*
X125220283Y-114595283D01*
X125205222Y-114607643D01*
X125188035Y-114616830D01*
X125169392Y-114622486D01*
X125143862Y-114625000D01*
X124209606Y-114625000D01*
X124185220Y-114627402D01*
X124161771Y-114634515D01*
X124140160Y-114646066D01*
X124121218Y-114661611D01*
X124112980Y-114670701D01*
X124093923Y-114693923D01*
X124070701Y-114712980D01*
X124053374Y-114730307D01*
X124039760Y-114750681D01*
X124030383Y-114773320D01*
X124025602Y-114797353D01*
X124025000Y-114809606D01*
X124025000Y-115743862D01*
X124022486Y-115769392D01*
X124016830Y-115788035D01*
X124007643Y-115805222D01*
X123995283Y-115820283D01*
X123980222Y-115832643D01*
X123963035Y-115841830D01*
X123944392Y-115847486D01*
X123918862Y-115850000D01*
X123481138Y-115850000D01*
X123462251Y-115848140D01*
X123437749Y-115848140D01*
X123418862Y-115850000D01*
X122981138Y-115850000D01*
X122962251Y-115848140D01*
X122937749Y-115848140D01*
X122918862Y-115850000D01*
X122481138Y-115850000D01*
X122462251Y-115848140D01*
X122437749Y-115848140D01*
X122418862Y-115850000D01*
X121981138Y-115850000D01*
X121962251Y-115848140D01*
X121937749Y-115848140D01*
X121918862Y-115850000D01*
X121481138Y-115850000D01*
X121455608Y-115847486D01*
X121436965Y-115841830D01*
X121419778Y-115832643D01*
X121404717Y-115820283D01*
X121392357Y-115805222D01*
X121383170Y-115788035D01*
X121377514Y-115769392D01*
X121375000Y-115743862D01*
X121375000Y-114809606D01*
X121372598Y-114785220D01*
X121365485Y-114761771D01*
X121353934Y-114740160D01*
X121338389Y-114721218D01*
X121329299Y-114712980D01*
X121306077Y-114693923D01*
X121287020Y-114670701D01*
X121269693Y-114653374D01*
X121249319Y-114639760D01*
X121226680Y-114630383D01*
X121202647Y-114625602D01*
X121190394Y-114625000D01*
X120256138Y-114625000D01*
X120230608Y-114622486D01*
X120211965Y-114616830D01*
X120194778Y-114607643D01*
X120179717Y-114595283D01*
X120167357Y-114580222D01*
X120158170Y-114563035D01*
X120152514Y-114544392D01*
X120150000Y-114518862D01*
X120150000Y-114081138D01*
X120151860Y-114062251D01*
X120151860Y-114037749D01*
X120150000Y-114018862D01*
X120150000Y-113581138D01*
X120151860Y-113562251D01*
X120151860Y-113537749D01*
X120150000Y-113518862D01*
X120150000Y-113081138D01*
X120151860Y-113062251D01*
X120151860Y-113037749D01*
X120150000Y-113018862D01*
X120150000Y-112581138D01*
X120151860Y-112562251D01*
X120151860Y-112537749D01*
X120150000Y-112518862D01*
X120150000Y-112081138D01*
X120152514Y-112055608D01*
X120158170Y-112036965D01*
X120167357Y-112019778D01*
X120179717Y-112004717D01*
X120194778Y-111992357D01*
X120211965Y-111983170D01*
X120230608Y-111977514D01*
X120256138Y-111975000D01*
X121190394Y-111975000D01*
X121214780Y-111972598D01*
X121238229Y-111965485D01*
X121259840Y-111953934D01*
X121278782Y-111938389D01*
X121287020Y-111929299D01*
X121306077Y-111906077D01*
X121329299Y-111887020D01*
X121346626Y-111869693D01*
X121360240Y-111849319D01*
X121369617Y-111826680D01*
X121374398Y-111802647D01*
X121375000Y-111790394D01*
X121375000Y-110856138D01*
X121377514Y-110830608D01*
X121383170Y-110811965D01*
X121392357Y-110794778D01*
X121404717Y-110779717D01*
X121419777Y-110767357D01*
X121442449Y-110755239D01*
X121462823Y-110741626D01*
X121480150Y-110724299D01*
X121493764Y-110703925D01*
X121503142Y-110681286D01*
X121507923Y-110657253D01*
X121507923Y-110632749D01*
X121503945Y-110612747D01*
X121707369Y-110612747D01*
X121707369Y-110637251D01*
X121712149Y-110661284D01*
X121721526Y-110683923D01*
X121735139Y-110704298D01*
X121752466Y-110721625D01*
X121772840Y-110735239D01*
X121795479Y-110744617D01*
X121819512Y-110749398D01*
X121831766Y-110750000D01*
X121918862Y-110750000D01*
X121937749Y-110751860D01*
X121962251Y-110751860D01*
X121982143Y-110749901D01*
X122006176Y-110745121D01*
X122028815Y-110735744D01*
X122049190Y-110722130D01*
X122066517Y-110704803D01*
X122080131Y-110684429D01*
X122089508Y-110661790D01*
X122094289Y-110637757D01*
X122094289Y-110613253D01*
X122089509Y-110589220D01*
X122080132Y-110566581D01*
X122066518Y-110546206D01*
X122049191Y-110528879D01*
X122028817Y-110515265D01*
X122006176Y-110505887D01*
X122004433Y-110505358D01*
X121964873Y-110484213D01*
X121958934Y-110480244D01*
X121936297Y-110470865D01*
X121912264Y-110466082D01*
X121887760Y-110466080D01*
X121863726Y-110470858D01*
X121841086Y-110480233D01*
X121835139Y-110484206D01*
X121795566Y-110505359D01*
X121795483Y-110505384D01*
X121772844Y-110514761D01*
X121752469Y-110528374D01*
X121735142Y-110545701D01*
X121721528Y-110566075D01*
X121712150Y-110588714D01*
X121707369Y-110612747D01*
X121503945Y-110612747D01*
X121503143Y-110608715D01*
X121493766Y-110586076D01*
X121480153Y-110565702D01*
X121462826Y-110548375D01*
X121442452Y-110534761D01*
X121419813Y-110525383D01*
X121395780Y-110520602D01*
X121383526Y-110520000D01*
X121111141Y-110520000D01*
X121069026Y-110515852D01*
X121034433Y-110505358D01*
X121002560Y-110488322D01*
X120974614Y-110465386D01*
X120951678Y-110437440D01*
X120934642Y-110405567D01*
X120924148Y-110370974D01*
X120920000Y-110328859D01*
X120920000Y-109671141D01*
X120924148Y-109629026D01*
X120934642Y-109594433D01*
X120951678Y-109562560D01*
X120974614Y-109534614D01*
X121002560Y-109511678D01*
X121034433Y-109494642D01*
X121069026Y-109484148D01*
X121111141Y-109480000D01*
X121718859Y-109480000D01*
X121760974Y-109484148D01*
X121760974Y-109484148D01*
G37*
G36*
X172034155Y-113857214D02*
G01*
X172132722Y-113876820D01*
X172314711Y-113952202D01*
X172478496Y-114061640D01*
X172617784Y-114200928D01*
X172727222Y-114364713D01*
X172801647Y-114544392D01*
X172802604Y-114546703D01*
X172841033Y-114739898D01*
X172841033Y-114936884D01*
X172819028Y-115047509D01*
X172802604Y-115130080D01*
X172727222Y-115312069D01*
X172617784Y-115475854D01*
X172478496Y-115615142D01*
X172314711Y-115724580D01*
X172132722Y-115799962D01*
X172068323Y-115812772D01*
X171939526Y-115838391D01*
X171742540Y-115838391D01*
X171613743Y-115812772D01*
X171549344Y-115799962D01*
X171367355Y-115724580D01*
X171203570Y-115615142D01*
X171064282Y-115475854D01*
X170954844Y-115312069D01*
X170879462Y-115130080D01*
X170863038Y-115047509D01*
X170841033Y-114936884D01*
X170841033Y-114739898D01*
X170879462Y-114546703D01*
X170880419Y-114544392D01*
X170954844Y-114364713D01*
X171064282Y-114200928D01*
X171203570Y-114061640D01*
X171367355Y-113952202D01*
X171549344Y-113876820D01*
X171647911Y-113857214D01*
X171742540Y-113838391D01*
X171939526Y-113838391D01*
X172034155Y-113857214D01*
X172034155Y-113857214D01*
G37*
G36*
X153756909Y-113445290D02*
G01*
X153821308Y-113458100D01*
X154003297Y-113533482D01*
X154167082Y-113642920D01*
X154306370Y-113782208D01*
X154415808Y-113945993D01*
X154491190Y-114127982D01*
X154493372Y-114138951D01*
X154529619Y-114321178D01*
X154529619Y-114518164D01*
X154517835Y-114577405D01*
X154491190Y-114711360D01*
X154415808Y-114893349D01*
X154306370Y-115057134D01*
X154167082Y-115196422D01*
X154003297Y-115305860D01*
X153821308Y-115381242D01*
X153756909Y-115394052D01*
X153628112Y-115419671D01*
X153431126Y-115419671D01*
X153302329Y-115394052D01*
X153237930Y-115381242D01*
X153055941Y-115305860D01*
X152892156Y-115196422D01*
X152752868Y-115057134D01*
X152643430Y-114893349D01*
X152568048Y-114711360D01*
X152541403Y-114577405D01*
X152529619Y-114518164D01*
X152529619Y-114321178D01*
X152565866Y-114138951D01*
X152568048Y-114127982D01*
X152643430Y-113945993D01*
X152752868Y-113782208D01*
X152892156Y-113642920D01*
X153055941Y-113533482D01*
X153237930Y-113458100D01*
X153302329Y-113445290D01*
X153431126Y-113419671D01*
X153628112Y-113419671D01*
X153756909Y-113445290D01*
X153756909Y-113445290D01*
G37*
G36*
X173525207Y-111783364D02*
G01*
X173589606Y-111796174D01*
X173771595Y-111871556D01*
X173935380Y-111980994D01*
X174074668Y-112120282D01*
X174184106Y-112284067D01*
X174259488Y-112466056D01*
X174266714Y-112502386D01*
X174297917Y-112659252D01*
X174297917Y-112856238D01*
X174277047Y-112961160D01*
X174259488Y-113049434D01*
X174184106Y-113231423D01*
X174074668Y-113395208D01*
X173935380Y-113534496D01*
X173771595Y-113643934D01*
X173589606Y-113719316D01*
X173525207Y-113732126D01*
X173396410Y-113757745D01*
X173199424Y-113757745D01*
X173070627Y-113732126D01*
X173006228Y-113719316D01*
X172824239Y-113643934D01*
X172660454Y-113534496D01*
X172521166Y-113395208D01*
X172411728Y-113231423D01*
X172336346Y-113049434D01*
X172318787Y-112961160D01*
X172297917Y-112856238D01*
X172297917Y-112659252D01*
X172329120Y-112502386D01*
X172336346Y-112466056D01*
X172411728Y-112284067D01*
X172521166Y-112120282D01*
X172660454Y-111980994D01*
X172824239Y-111871556D01*
X173006228Y-111796174D01*
X173070627Y-111783364D01*
X173199424Y-111757745D01*
X173396410Y-111757745D01*
X173525207Y-111783364D01*
X173525207Y-111783364D01*
G37*
G36*
X155213793Y-111364643D02*
G01*
X155278192Y-111377453D01*
X155460181Y-111452835D01*
X155623966Y-111562273D01*
X155763254Y-111701561D01*
X155872692Y-111865346D01*
X155948074Y-112047335D01*
X155951089Y-112062491D01*
X155986503Y-112240531D01*
X155986503Y-112437517D01*
X155964682Y-112547220D01*
X155948074Y-112630713D01*
X155872692Y-112812702D01*
X155763254Y-112976487D01*
X155623966Y-113115775D01*
X155460181Y-113225213D01*
X155278192Y-113300595D01*
X155213793Y-113313405D01*
X155084996Y-113339024D01*
X154888010Y-113339024D01*
X154759213Y-113313405D01*
X154694814Y-113300595D01*
X154512825Y-113225213D01*
X154349040Y-113115775D01*
X154209752Y-112976487D01*
X154100314Y-112812702D01*
X154024932Y-112630713D01*
X154008324Y-112547220D01*
X153986503Y-112437517D01*
X153986503Y-112240531D01*
X154021917Y-112062491D01*
X154024932Y-112047335D01*
X154100314Y-111865346D01*
X154209752Y-111701561D01*
X154349040Y-111562273D01*
X154512825Y-111452835D01*
X154694814Y-111377453D01*
X154759213Y-111364643D01*
X154888010Y-111339024D01*
X155084996Y-111339024D01*
X155213793Y-111364643D01*
X155213793Y-111364643D01*
G37*
G36*
X151143622Y-110830517D02*
G01*
X151191585Y-110845066D01*
X151235778Y-110868688D01*
X151274519Y-110900481D01*
X151306312Y-110939222D01*
X151329934Y-110983415D01*
X151344483Y-111031378D01*
X151350000Y-111087391D01*
X151350000Y-111912609D01*
X151344483Y-111968622D01*
X151329934Y-112016585D01*
X151306312Y-112060778D01*
X151274519Y-112099519D01*
X151235778Y-112131312D01*
X151191585Y-112154934D01*
X151143622Y-112169483D01*
X151087609Y-112175000D01*
X150337391Y-112175000D01*
X150281378Y-112169483D01*
X150233415Y-112154934D01*
X150189222Y-112131312D01*
X150150481Y-112099519D01*
X150118688Y-112060778D01*
X150095066Y-112016585D01*
X150080517Y-111968622D01*
X150075000Y-111912609D01*
X150075000Y-111087391D01*
X150080517Y-111031378D01*
X150095066Y-110983415D01*
X150118688Y-110939222D01*
X150150481Y-110900481D01*
X150189222Y-110868688D01*
X150233415Y-110845066D01*
X150281378Y-110830517D01*
X150337391Y-110825000D01*
X151087609Y-110825000D01*
X151143622Y-110830517D01*
X151143622Y-110830517D01*
G37*
G36*
X152718622Y-110830517D02*
G01*
X152766585Y-110845066D01*
X152810778Y-110868688D01*
X152849519Y-110900481D01*
X152881312Y-110939222D01*
X152904934Y-110983415D01*
X152919483Y-111031378D01*
X152925000Y-111087391D01*
X152925000Y-111912609D01*
X152919483Y-111968622D01*
X152904934Y-112016585D01*
X152881312Y-112060778D01*
X152849519Y-112099519D01*
X152810778Y-112131312D01*
X152766585Y-112154934D01*
X152718622Y-112169483D01*
X152662609Y-112175000D01*
X151912391Y-112175000D01*
X151856378Y-112169483D01*
X151808415Y-112154934D01*
X151764222Y-112131312D01*
X151725481Y-112099519D01*
X151693688Y-112060778D01*
X151670066Y-112016585D01*
X151655517Y-111968622D01*
X151650000Y-111912609D01*
X151650000Y-111087391D01*
X151655517Y-111031378D01*
X151670066Y-110983415D01*
X151693688Y-110939222D01*
X151725481Y-110900481D01*
X151764222Y-110868688D01*
X151808415Y-110845066D01*
X151856378Y-110830517D01*
X151912391Y-110825000D01*
X152662609Y-110825000D01*
X152718622Y-110830517D01*
X152718622Y-110830517D01*
G37*
G36*
X174982091Y-109702717D02*
G01*
X175046490Y-109715527D01*
X175228479Y-109790909D01*
X175392264Y-109900347D01*
X175531552Y-110039635D01*
X175640990Y-110203420D01*
X175716372Y-110385409D01*
X175721264Y-110410004D01*
X175754801Y-110578605D01*
X175754801Y-110775591D01*
X175738779Y-110856138D01*
X175716372Y-110968787D01*
X175640990Y-111150776D01*
X175531552Y-111314561D01*
X175392264Y-111453849D01*
X175228479Y-111563287D01*
X175046490Y-111638669D01*
X174982091Y-111651479D01*
X174853294Y-111677098D01*
X174656308Y-111677098D01*
X174527511Y-111651479D01*
X174463112Y-111638669D01*
X174281123Y-111563287D01*
X174117338Y-111453849D01*
X173978050Y-111314561D01*
X173868612Y-111150776D01*
X173793230Y-110968787D01*
X173770823Y-110856138D01*
X173754801Y-110775591D01*
X173754801Y-110578605D01*
X173788338Y-110410004D01*
X173793230Y-110385409D01*
X173868612Y-110203420D01*
X173978050Y-110039635D01*
X174117338Y-109900347D01*
X174281123Y-109790909D01*
X174463112Y-109715527D01*
X174527511Y-109702717D01*
X174656308Y-109677098D01*
X174853294Y-109677098D01*
X174982091Y-109702717D01*
X174982091Y-109702717D01*
G37*
G36*
X156637038Y-109277306D02*
G01*
X156735077Y-109296807D01*
X156917066Y-109372189D01*
X157080851Y-109481627D01*
X157220139Y-109620915D01*
X157329577Y-109784700D01*
X157377479Y-109900347D01*
X157404959Y-109966690D01*
X157443388Y-110159885D01*
X157443388Y-110356871D01*
X157418059Y-110484206D01*
X157404959Y-110550067D01*
X157329577Y-110732056D01*
X157220139Y-110895841D01*
X157080851Y-111035129D01*
X156917066Y-111144567D01*
X156735077Y-111219949D01*
X156670678Y-111232759D01*
X156541881Y-111258378D01*
X156344895Y-111258378D01*
X156216098Y-111232759D01*
X156151699Y-111219949D01*
X155969710Y-111144567D01*
X155805925Y-111035129D01*
X155666637Y-110895841D01*
X155557199Y-110732056D01*
X155481817Y-110550067D01*
X155468717Y-110484206D01*
X155443388Y-110356871D01*
X155443388Y-110159885D01*
X155481817Y-109966690D01*
X155509297Y-109900347D01*
X155557199Y-109784700D01*
X155666637Y-109620915D01*
X155805925Y-109481627D01*
X155969710Y-109372189D01*
X156151699Y-109296807D01*
X156249738Y-109277306D01*
X156344895Y-109258378D01*
X156541881Y-109258378D01*
X156637038Y-109277306D01*
X156637038Y-109277306D01*
G37*
G36*
X152718622Y-109080517D02*
G01*
X152766585Y-109095066D01*
X152810778Y-109118688D01*
X152849519Y-109150481D01*
X152881312Y-109189222D01*
X152904934Y-109233415D01*
X152919483Y-109281378D01*
X152925000Y-109337391D01*
X152925000Y-110162609D01*
X152919483Y-110218622D01*
X152904934Y-110266585D01*
X152881312Y-110310778D01*
X152849519Y-110349519D01*
X152810778Y-110381312D01*
X152766585Y-110404934D01*
X152718622Y-110419483D01*
X152662609Y-110425000D01*
X151912391Y-110425000D01*
X151856378Y-110419483D01*
X151808415Y-110404934D01*
X151764222Y-110381312D01*
X151725481Y-110349519D01*
X151693688Y-110310778D01*
X151670066Y-110266585D01*
X151655517Y-110218622D01*
X151650000Y-110162609D01*
X151650000Y-109337391D01*
X151655517Y-109281378D01*
X151670066Y-109233415D01*
X151693688Y-109189222D01*
X151725481Y-109150481D01*
X151764222Y-109118688D01*
X151808415Y-109095066D01*
X151856378Y-109080517D01*
X151912391Y-109075000D01*
X152662609Y-109075000D01*
X152718622Y-109080517D01*
X152718622Y-109080517D01*
G37*
G36*
X151143622Y-109080517D02*
G01*
X151191585Y-109095066D01*
X151235778Y-109118688D01*
X151274519Y-109150481D01*
X151306312Y-109189222D01*
X151329934Y-109233415D01*
X151344483Y-109281378D01*
X151350000Y-109337391D01*
X151350000Y-110162609D01*
X151344483Y-110218622D01*
X151329934Y-110266585D01*
X151306312Y-110310778D01*
X151274519Y-110349519D01*
X151235778Y-110381312D01*
X151191585Y-110404934D01*
X151143622Y-110419483D01*
X151087609Y-110425000D01*
X150337391Y-110425000D01*
X150281378Y-110419483D01*
X150233415Y-110404934D01*
X150189222Y-110381312D01*
X150150481Y-110349519D01*
X150118688Y-110310778D01*
X150095066Y-110266585D01*
X150080517Y-110218622D01*
X150075000Y-110162609D01*
X150075000Y-109337391D01*
X150080517Y-109281378D01*
X150095066Y-109233415D01*
X150118688Y-109189222D01*
X150150481Y-109150481D01*
X150189222Y-109118688D01*
X150233415Y-109095066D01*
X150281378Y-109080517D01*
X150337391Y-109075000D01*
X151087609Y-109075000D01*
X151143622Y-109080517D01*
X151143622Y-109080517D01*
G37*
G36*
X176428562Y-107620000D02*
G01*
X176503375Y-107634881D01*
X176685364Y-107710263D01*
X176849149Y-107819701D01*
X176988437Y-107958989D01*
X177097875Y-108122774D01*
X177173257Y-108304763D01*
X177184741Y-108362500D01*
X177211686Y-108497959D01*
X177211686Y-108694945D01*
X177202170Y-108742786D01*
X177173257Y-108888141D01*
X177097875Y-109070130D01*
X176988437Y-109233915D01*
X176849149Y-109373203D01*
X176685364Y-109482641D01*
X176503375Y-109558023D01*
X176466499Y-109565358D01*
X176310179Y-109596452D01*
X176113193Y-109596452D01*
X175956873Y-109565358D01*
X175919997Y-109558023D01*
X175738008Y-109482641D01*
X175574223Y-109373203D01*
X175434935Y-109233915D01*
X175325497Y-109070130D01*
X175250115Y-108888141D01*
X175221202Y-108742786D01*
X175211686Y-108694945D01*
X175211686Y-108497959D01*
X175238631Y-108362500D01*
X175250115Y-108304763D01*
X175325497Y-108122774D01*
X175434935Y-107958989D01*
X175574223Y-107819701D01*
X175738008Y-107710263D01*
X175919997Y-107634881D01*
X175994810Y-107620000D01*
X176113193Y-107596452D01*
X176310179Y-107596452D01*
X176428562Y-107620000D01*
X176428562Y-107620000D01*
G37*
G36*
X124200000Y-106626141D02*
G01*
X124202402Y-106650527D01*
X124209515Y-106673976D01*
X124221066Y-106695587D01*
X124236611Y-106714529D01*
X124255553Y-106730074D01*
X124277164Y-106741625D01*
X124300613Y-106748738D01*
X124324999Y-106751140D01*
X124349385Y-106748738D01*
X124372834Y-106741625D01*
X124394445Y-106730074D01*
X124421624Y-106705441D01*
X124434613Y-106689614D01*
X124462560Y-106666678D01*
X124494433Y-106649642D01*
X124529026Y-106639148D01*
X124571141Y-106635000D01*
X125228859Y-106635000D01*
X125270974Y-106639148D01*
X125305567Y-106649642D01*
X125337440Y-106666678D01*
X125365386Y-106689614D01*
X125388322Y-106717560D01*
X125405358Y-106749433D01*
X125415852Y-106784026D01*
X125420000Y-106826141D01*
X125420000Y-107433859D01*
X125415852Y-107475974D01*
X125411447Y-107490495D01*
X125406667Y-107514528D01*
X125406667Y-107539032D01*
X125411448Y-107563066D01*
X125420825Y-107585704D01*
X125434439Y-107606079D01*
X125451767Y-107623405D01*
X125472141Y-107637019D01*
X125494780Y-107646396D01*
X125518813Y-107651176D01*
X125543317Y-107651176D01*
X125567351Y-107646395D01*
X125589990Y-107637017D01*
X125594435Y-107634641D01*
X125629026Y-107624148D01*
X125671141Y-107620000D01*
X126328859Y-107620000D01*
X126370974Y-107624148D01*
X126405567Y-107634642D01*
X126437443Y-107651680D01*
X126470701Y-107678974D01*
X126491075Y-107692588D01*
X126513714Y-107701965D01*
X126537747Y-107706746D01*
X126562252Y-107706746D01*
X126586285Y-107701966D01*
X126608924Y-107692589D01*
X126629299Y-107678974D01*
X126662557Y-107651680D01*
X126694433Y-107634642D01*
X126729026Y-107624148D01*
X126771141Y-107620000D01*
X127428859Y-107620000D01*
X127470974Y-107624148D01*
X127505567Y-107634642D01*
X127537440Y-107651678D01*
X127565386Y-107674614D01*
X127588322Y-107702560D01*
X127605358Y-107734433D01*
X127615852Y-107769026D01*
X127620000Y-107811141D01*
X127620000Y-108418859D01*
X127615852Y-108460974D01*
X127605358Y-108495567D01*
X127584213Y-108535127D01*
X127580244Y-108541066D01*
X127570865Y-108563703D01*
X127566082Y-108587736D01*
X127566080Y-108612240D01*
X127570858Y-108636274D01*
X127580233Y-108658914D01*
X127584206Y-108664861D01*
X127605358Y-108704433D01*
X127615852Y-108739026D01*
X127620000Y-108781141D01*
X127620000Y-109388859D01*
X127615852Y-109430974D01*
X127605358Y-109465567D01*
X127588322Y-109497440D01*
X127565386Y-109525386D01*
X127537440Y-109548322D01*
X127505567Y-109565358D01*
X127470974Y-109575852D01*
X127428859Y-109580000D01*
X126771141Y-109580000D01*
X126729026Y-109575852D01*
X126694433Y-109565358D01*
X126662557Y-109548320D01*
X126629299Y-109521026D01*
X126608925Y-109507412D01*
X126586286Y-109498035D01*
X126562253Y-109493254D01*
X126537748Y-109493254D01*
X126513715Y-109498034D01*
X126491076Y-109507411D01*
X126470701Y-109521026D01*
X126437443Y-109548320D01*
X126405567Y-109565358D01*
X126370974Y-109575852D01*
X126328859Y-109580000D01*
X125671141Y-109580000D01*
X125629026Y-109575852D01*
X125594433Y-109565358D01*
X125562560Y-109548322D01*
X125534614Y-109525386D01*
X125511678Y-109497440D01*
X125494642Y-109465567D01*
X125484148Y-109430974D01*
X125480000Y-109388859D01*
X125480000Y-108781141D01*
X125484148Y-108739026D01*
X125488553Y-108724505D01*
X125493333Y-108700472D01*
X125493333Y-108675968D01*
X125488552Y-108651934D01*
X125479175Y-108629296D01*
X125465561Y-108608921D01*
X125448233Y-108591595D01*
X125427859Y-108577981D01*
X125405220Y-108568604D01*
X125381187Y-108563824D01*
X125356683Y-108563824D01*
X125332649Y-108568605D01*
X125310010Y-108577983D01*
X125305565Y-108580359D01*
X125270974Y-108590852D01*
X125228859Y-108595000D01*
X124571141Y-108595000D01*
X124529026Y-108590852D01*
X124494433Y-108580358D01*
X124462560Y-108563322D01*
X124434613Y-108540386D01*
X124421624Y-108524559D01*
X124404296Y-108507232D01*
X124383922Y-108493619D01*
X124361283Y-108484242D01*
X124337249Y-108479462D01*
X124312745Y-108479462D01*
X124288712Y-108484243D01*
X124266073Y-108493620D01*
X124245699Y-108507234D01*
X124228372Y-108524562D01*
X124214759Y-108544936D01*
X124205382Y-108567575D01*
X124200000Y-108603859D01*
X124200000Y-109200000D01*
X122400000Y-109200000D01*
X122400000Y-105900000D01*
X124200000Y-105900000D01*
X124200000Y-106626141D01*
X124200000Y-106626141D01*
G37*
G36*
X163233213Y-107688718D02*
G01*
X163280844Y-107704309D01*
X163329895Y-107731920D01*
X163944433Y-108162224D01*
X163987156Y-108198874D01*
X164018097Y-108238299D01*
X164040749Y-108282997D01*
X164054248Y-108331264D01*
X164058071Y-108381236D01*
X164052073Y-108430986D01*
X164036482Y-108478617D01*
X164008871Y-108527668D01*
X163976546Y-108573832D01*
X163976546Y-108573833D01*
X163954552Y-108605244D01*
X163535549Y-109203642D01*
X163498899Y-109246365D01*
X163459474Y-109277306D01*
X163414776Y-109299958D01*
X163366509Y-109313457D01*
X163316537Y-109317280D01*
X163266787Y-109311282D01*
X163219156Y-109295691D01*
X163170105Y-109268080D01*
X162555567Y-108837776D01*
X162512844Y-108801126D01*
X162481903Y-108761701D01*
X162459251Y-108717003D01*
X162445752Y-108668736D01*
X162441929Y-108618764D01*
X162447927Y-108569014D01*
X162463518Y-108521383D01*
X162491129Y-108472332D01*
X162543206Y-108397959D01*
X162628968Y-108275478D01*
X162964451Y-107796358D01*
X163001101Y-107753635D01*
X163040526Y-107722694D01*
X163085224Y-107700042D01*
X163133491Y-107686543D01*
X163183463Y-107682720D01*
X163233213Y-107688718D01*
X163233213Y-107688718D01*
G37*
G36*
X122000000Y-109200000D02*
G01*
X120200000Y-109200000D01*
X120200000Y-108573859D01*
X120197598Y-108549473D01*
X120190485Y-108526024D01*
X120178934Y-108504413D01*
X120163389Y-108485471D01*
X120144447Y-108469926D01*
X120122836Y-108458375D01*
X120099387Y-108451262D01*
X120075001Y-108448860D01*
X120050615Y-108451262D01*
X120027166Y-108458375D01*
X120005555Y-108469926D01*
X119978376Y-108494559D01*
X119965387Y-108510386D01*
X119937440Y-108533322D01*
X119905567Y-108550358D01*
X119870974Y-108560852D01*
X119828859Y-108565000D01*
X119171141Y-108565000D01*
X119129026Y-108560852D01*
X119094433Y-108550358D01*
X119062560Y-108533322D01*
X119034614Y-108510386D01*
X119011678Y-108482440D01*
X118994642Y-108450567D01*
X118984148Y-108415974D01*
X118980000Y-108373859D01*
X118980000Y-107766141D01*
X118984148Y-107724026D01*
X118994642Y-107689433D01*
X119015787Y-107649873D01*
X119019756Y-107643934D01*
X119029135Y-107621297D01*
X119033918Y-107597264D01*
X119033920Y-107572760D01*
X119029142Y-107548726D01*
X119019767Y-107526086D01*
X119015794Y-107520139D01*
X118994642Y-107480567D01*
X118984148Y-107445974D01*
X118980000Y-107403859D01*
X118980000Y-106796141D01*
X118984148Y-106754026D01*
X118994642Y-106719433D01*
X119011678Y-106687560D01*
X119034614Y-106659614D01*
X119062560Y-106636678D01*
X119094433Y-106619642D01*
X119129026Y-106609148D01*
X119171141Y-106605000D01*
X119828859Y-106605000D01*
X119870974Y-106609148D01*
X119905567Y-106619642D01*
X119937440Y-106636678D01*
X119965387Y-106659614D01*
X119978376Y-106675441D01*
X119995704Y-106692768D01*
X120016078Y-106706381D01*
X120038717Y-106715758D01*
X120062751Y-106720538D01*
X120087255Y-106720538D01*
X120111288Y-106715757D01*
X120133927Y-106706380D01*
X120154301Y-106692766D01*
X120171628Y-106675438D01*
X120185241Y-106655064D01*
X120194618Y-106632425D01*
X120200000Y-106596141D01*
X120200000Y-105900000D01*
X122000000Y-105900000D01*
X122000000Y-109200000D01*
X122000000Y-109200000D01*
G37*
G36*
X158127562Y-107203351D02*
G01*
X158191961Y-107216161D01*
X158373950Y-107291543D01*
X158537735Y-107400981D01*
X158677023Y-107540269D01*
X158786461Y-107704054D01*
X158861843Y-107886043D01*
X158861843Y-107886044D01*
X158900272Y-108079239D01*
X158900272Y-108276225D01*
X158882457Y-108365785D01*
X158861843Y-108469421D01*
X158786461Y-108651410D01*
X158677023Y-108815195D01*
X158537735Y-108954483D01*
X158373950Y-109063921D01*
X158191961Y-109139303D01*
X158135765Y-109150481D01*
X157998765Y-109177732D01*
X157801779Y-109177732D01*
X157664779Y-109150481D01*
X157608583Y-109139303D01*
X157426594Y-109063921D01*
X157262809Y-108954483D01*
X157123521Y-108815195D01*
X157014083Y-108651410D01*
X156938701Y-108469421D01*
X156918087Y-108365785D01*
X156900272Y-108276225D01*
X156900272Y-108079239D01*
X156938701Y-107886044D01*
X156938701Y-107886043D01*
X157014083Y-107704054D01*
X157123521Y-107540269D01*
X157262809Y-107400981D01*
X157426594Y-107291543D01*
X157608583Y-107216161D01*
X157672982Y-107203351D01*
X157801779Y-107177732D01*
X157998765Y-107177732D01*
X158127562Y-107203351D01*
X158127562Y-107203351D01*
G37*
G36*
X173066964Y-107073872D02*
G01*
X173120378Y-107087066D01*
X173170187Y-107110425D01*
X173219453Y-107146713D01*
X173814128Y-107682160D01*
X173855369Y-107727365D01*
X173883807Y-107774461D01*
X173902510Y-107826199D01*
X173910760Y-107880590D01*
X173908241Y-107935550D01*
X173895047Y-107988964D01*
X173871688Y-108038773D01*
X173835400Y-108088039D01*
X173015571Y-108998552D01*
X172970368Y-109039791D01*
X172923270Y-109068230D01*
X172871533Y-109086933D01*
X172817142Y-109095183D01*
X172762182Y-109092664D01*
X172708768Y-109079470D01*
X172658959Y-109056111D01*
X172609693Y-109019823D01*
X172015018Y-108484376D01*
X171973777Y-108439171D01*
X171945339Y-108392075D01*
X171926636Y-108340337D01*
X171918386Y-108285946D01*
X171920905Y-108230986D01*
X171934099Y-108177572D01*
X171957458Y-108127763D01*
X171993746Y-108078497D01*
X172813575Y-107167984D01*
X172858778Y-107126745D01*
X172905876Y-107098306D01*
X172957613Y-107079603D01*
X173012004Y-107071353D01*
X173066964Y-107073872D01*
X173066964Y-107073872D01*
G37*
G36*
X161943049Y-106785336D02*
G01*
X161990680Y-106800927D01*
X162039731Y-106828538D01*
X162085895Y-106860863D01*
X162085896Y-106860863D01*
X162096923Y-106868584D01*
X162654269Y-107258842D01*
X162696992Y-107295492D01*
X162727933Y-107334917D01*
X162750585Y-107379615D01*
X162764084Y-107427882D01*
X162767907Y-107477854D01*
X162761909Y-107527604D01*
X162746318Y-107575235D01*
X162718707Y-107624286D01*
X162686382Y-107670450D01*
X162686382Y-107670451D01*
X162662674Y-107704309D01*
X162245385Y-108300260D01*
X162208735Y-108342983D01*
X162169310Y-108373924D01*
X162124612Y-108396576D01*
X162076345Y-108410075D01*
X162026373Y-108413898D01*
X161976623Y-108407900D01*
X161928992Y-108392309D01*
X161879941Y-108364698D01*
X161265403Y-107934394D01*
X161222680Y-107897744D01*
X161191739Y-107858319D01*
X161169087Y-107813621D01*
X161155588Y-107765354D01*
X161151765Y-107715382D01*
X161157763Y-107665632D01*
X161173354Y-107618001D01*
X161200965Y-107568950D01*
X161253042Y-107494577D01*
X161377831Y-107316359D01*
X161674287Y-106892976D01*
X161710937Y-106850253D01*
X161750362Y-106819312D01*
X161795060Y-106796660D01*
X161843327Y-106783161D01*
X161893299Y-106779338D01*
X161943049Y-106785336D01*
X161943049Y-106785336D01*
G37*
G36*
X165318934Y-106925746D02*
G01*
X165318934Y-106925747D01*
X164573285Y-107990645D01*
X164573284Y-107990645D01*
X163590302Y-107302354D01*
X163590302Y-107302353D01*
X164335951Y-106237455D01*
X164335952Y-106237455D01*
X165318934Y-106925746D01*
X165318934Y-106925746D01*
G37*
G36*
X183222183Y-105874996D02*
G01*
X183414136Y-105913177D01*
X183605224Y-105992329D01*
X183777198Y-106107238D01*
X183923451Y-106253491D01*
X184038360Y-106425465D01*
X184117512Y-106616553D01*
X184151658Y-106788222D01*
X184157843Y-106819312D01*
X184157862Y-106819411D01*
X184157862Y-107026243D01*
X184117512Y-107229101D01*
X184038360Y-107420189D01*
X183923451Y-107592163D01*
X183777198Y-107738416D01*
X183605224Y-107853325D01*
X183414136Y-107932477D01*
X183241991Y-107966718D01*
X183211279Y-107972827D01*
X183004445Y-107972827D01*
X182973733Y-107966718D01*
X182801588Y-107932477D01*
X182610500Y-107853325D01*
X182438526Y-107738416D01*
X182292273Y-107592163D01*
X182177364Y-107420189D01*
X182098212Y-107229101D01*
X182057862Y-107026243D01*
X182057862Y-106819411D01*
X182057882Y-106819312D01*
X182064066Y-106788222D01*
X182098212Y-106616553D01*
X182177364Y-106425465D01*
X182292273Y-106253491D01*
X182438526Y-106107238D01*
X182610500Y-105992329D01*
X182801588Y-105913177D01*
X182993541Y-105874996D01*
X183004445Y-105872827D01*
X183211279Y-105872827D01*
X183222183Y-105874996D01*
X183222183Y-105874996D01*
G37*
G36*
X171673568Y-105819252D02*
G01*
X171726982Y-105832446D01*
X171776791Y-105855805D01*
X171826057Y-105892093D01*
X172420732Y-106427540D01*
X172461973Y-106472745D01*
X172490411Y-106519841D01*
X172509114Y-106571579D01*
X172517364Y-106625970D01*
X172514845Y-106680930D01*
X172501651Y-106734344D01*
X172478292Y-106784153D01*
X172442004Y-106833419D01*
X171622175Y-107743932D01*
X171576972Y-107785171D01*
X171529874Y-107813610D01*
X171478137Y-107832313D01*
X171423746Y-107840563D01*
X171368786Y-107838044D01*
X171315372Y-107824850D01*
X171265563Y-107801491D01*
X171216297Y-107765203D01*
X170621622Y-107229756D01*
X170580381Y-107184551D01*
X170551943Y-107137455D01*
X170533240Y-107085717D01*
X170524990Y-107031326D01*
X170527509Y-106976366D01*
X170540703Y-106922952D01*
X170564062Y-106873143D01*
X170600350Y-106823877D01*
X171420179Y-105913364D01*
X171465382Y-105872125D01*
X171512480Y-105843686D01*
X171564217Y-105824983D01*
X171618608Y-105816733D01*
X171673568Y-105819252D01*
X171673568Y-105819252D01*
G37*
G36*
X172438799Y-104359134D02*
G01*
X172467238Y-104366159D01*
X172493748Y-104378591D01*
X172522296Y-104399619D01*
X172564178Y-104437330D01*
X172564181Y-104437332D01*
X172690788Y-104551330D01*
X172921901Y-104759425D01*
X172934694Y-104773447D01*
X172952900Y-104789840D01*
X172968185Y-104801099D01*
X173010064Y-104838807D01*
X173010068Y-104838810D01*
X173225012Y-105032347D01*
X173367791Y-105160906D01*
X173380582Y-105174926D01*
X173398791Y-105191322D01*
X173414070Y-105202576D01*
X173455952Y-105240287D01*
X173455955Y-105240289D01*
X173547703Y-105322900D01*
X173813675Y-105562382D01*
X173826468Y-105576404D01*
X173844674Y-105592797D01*
X173859959Y-105604056D01*
X173901838Y-105641764D01*
X173901842Y-105641767D01*
X174004610Y-105734300D01*
X174259565Y-105963863D01*
X174272356Y-105977883D01*
X174290565Y-105994279D01*
X174305844Y-106005533D01*
X174347726Y-106043244D01*
X174347729Y-106043246D01*
X174516909Y-106195577D01*
X174705447Y-106365338D01*
X174729345Y-106391532D01*
X174744485Y-106416605D01*
X174754440Y-106444142D01*
X174758832Y-106473101D01*
X174757491Y-106502354D01*
X174750466Y-106530793D01*
X174738034Y-106557303D01*
X174717006Y-106585851D01*
X174255588Y-107098306D01*
X174196033Y-107164449D01*
X174123005Y-107245554D01*
X174096811Y-107269452D01*
X174071738Y-107284592D01*
X174044201Y-107294547D01*
X174015242Y-107298939D01*
X173985989Y-107297598D01*
X173957550Y-107290573D01*
X173931040Y-107278141D01*
X173902492Y-107257113D01*
X173860610Y-107219402D01*
X173860607Y-107219400D01*
X173646085Y-107026243D01*
X173502884Y-106897304D01*
X173490093Y-106883284D01*
X173471884Y-106866888D01*
X173456605Y-106855634D01*
X173406783Y-106810774D01*
X173238903Y-106659614D01*
X173057000Y-106495828D01*
X173044207Y-106481806D01*
X173026001Y-106465413D01*
X173010716Y-106454154D01*
X172968837Y-106416446D01*
X172968833Y-106416443D01*
X172739135Y-106209621D01*
X172611110Y-106094347D01*
X172598319Y-106080327D01*
X172580110Y-106063931D01*
X172564831Y-106052677D01*
X172507275Y-106000853D01*
X172332723Y-105843686D01*
X172165226Y-105692871D01*
X172152433Y-105678849D01*
X172134227Y-105662456D01*
X172118942Y-105651197D01*
X172077063Y-105613489D01*
X172077059Y-105613486D01*
X171761223Y-105329105D01*
X171761222Y-105329104D01*
X171719341Y-105291394D01*
X171695443Y-105265200D01*
X171680303Y-105240127D01*
X171670348Y-105212590D01*
X171665956Y-105183631D01*
X171667297Y-105154378D01*
X171674322Y-105125939D01*
X171686754Y-105099429D01*
X171707782Y-105070881D01*
X172301783Y-104411178D01*
X172327977Y-104387280D01*
X172353050Y-104372140D01*
X172380587Y-104362185D01*
X172409546Y-104357793D01*
X172438799Y-104359134D01*
X172438799Y-104359134D01*
G37*
G36*
X159536684Y-105113205D02*
G01*
X159648845Y-105135515D01*
X159830834Y-105210897D01*
X159994619Y-105320335D01*
X160133907Y-105459623D01*
X160243345Y-105623408D01*
X160312862Y-105791238D01*
X160318727Y-105805398D01*
X160357156Y-105998593D01*
X160357156Y-106195579D01*
X160345636Y-106253492D01*
X160318727Y-106388775D01*
X160243345Y-106570764D01*
X160133907Y-106734549D01*
X159994619Y-106873837D01*
X159830834Y-106983275D01*
X159648845Y-107058657D01*
X159585017Y-107071353D01*
X159455649Y-107097086D01*
X159258663Y-107097086D01*
X159129295Y-107071353D01*
X159065467Y-107058657D01*
X158883478Y-106983275D01*
X158719693Y-106873837D01*
X158580405Y-106734549D01*
X158470967Y-106570764D01*
X158395585Y-106388775D01*
X158368676Y-106253492D01*
X158357156Y-106195579D01*
X158357156Y-105998593D01*
X158395585Y-105805398D01*
X158401450Y-105791238D01*
X158470967Y-105623408D01*
X158580405Y-105459623D01*
X158719693Y-105320335D01*
X158883478Y-105210897D01*
X159065467Y-105135515D01*
X159177628Y-105113205D01*
X159258663Y-105097086D01*
X159455649Y-105097086D01*
X159536684Y-105113205D01*
X159536684Y-105113205D01*
G37*
G36*
X163762545Y-105835950D02*
G01*
X163762545Y-105835951D01*
X163016896Y-106900849D01*
X163016895Y-106900849D01*
X162033913Y-106212558D01*
X162033913Y-106212557D01*
X162779562Y-105147659D01*
X162779563Y-105147659D01*
X163762545Y-105835950D01*
X163762545Y-105835950D01*
G37*
G36*
X181220178Y-103860935D02*
G01*
X181262046Y-103871277D01*
X181301089Y-103889587D01*
X181340778Y-103918822D01*
X182564395Y-105020572D01*
X182597620Y-105056990D01*
X182619914Y-105093910D01*
X182634572Y-105134457D01*
X182641039Y-105177100D01*
X182639065Y-105220178D01*
X182628723Y-105262046D01*
X182610413Y-105301089D01*
X182581178Y-105340778D01*
X181479428Y-106564395D01*
X181443010Y-106597620D01*
X181406090Y-106619914D01*
X181365543Y-106634572D01*
X181322900Y-106641039D01*
X181279822Y-106639065D01*
X181237954Y-106628723D01*
X181198911Y-106610413D01*
X181159222Y-106581178D01*
X179935605Y-105479428D01*
X179902380Y-105443010D01*
X179880086Y-105406090D01*
X179865428Y-105365543D01*
X179858961Y-105322900D01*
X179860935Y-105279822D01*
X179871277Y-105237954D01*
X179889587Y-105198911D01*
X179918822Y-105159222D01*
X181020572Y-103935605D01*
X181056990Y-103902380D01*
X181093910Y-103880086D01*
X181134457Y-103865428D01*
X181177100Y-103858961D01*
X181220178Y-103860935D01*
X181220178Y-103860935D01*
G37*
G36*
X184909376Y-104019991D02*
G01*
X185086963Y-104055314D01*
X185278051Y-104134466D01*
X185450025Y-104249375D01*
X185596278Y-104395628D01*
X185711187Y-104567602D01*
X185790339Y-104758690D01*
X185820460Y-104910124D01*
X185830689Y-104961547D01*
X185830689Y-105168381D01*
X185827518Y-105184324D01*
X185790339Y-105371238D01*
X185711187Y-105562326D01*
X185596278Y-105734300D01*
X185450025Y-105880553D01*
X185278051Y-105995462D01*
X185086963Y-106074614D01*
X184922947Y-106107238D01*
X184884106Y-106114964D01*
X184677272Y-106114964D01*
X184638431Y-106107238D01*
X184474415Y-106074614D01*
X184283327Y-105995462D01*
X184111353Y-105880553D01*
X183965100Y-105734300D01*
X183850191Y-105562326D01*
X183771039Y-105371238D01*
X183733860Y-105184324D01*
X183730689Y-105168381D01*
X183730689Y-104961547D01*
X183740918Y-104910124D01*
X183771039Y-104758690D01*
X183850191Y-104567602D01*
X183965100Y-104395628D01*
X184111353Y-104249375D01*
X184283327Y-104134466D01*
X184474415Y-104055314D01*
X184652002Y-104019991D01*
X184677272Y-104014964D01*
X184884106Y-104014964D01*
X184909376Y-104019991D01*
X184909376Y-104019991D01*
G37*
G36*
X174479647Y-102092542D02*
G01*
X174508086Y-102099567D01*
X174534596Y-102111999D01*
X174563144Y-102133027D01*
X174605026Y-102170738D01*
X174605029Y-102170740D01*
X174781967Y-102330056D01*
X174962752Y-102492836D01*
X174975543Y-102506856D01*
X174993752Y-102523252D01*
X175009031Y-102534506D01*
X175050913Y-102572217D01*
X175050916Y-102572219D01*
X175083900Y-102601918D01*
X175408636Y-102894312D01*
X175421429Y-102908334D01*
X175439635Y-102924727D01*
X175454920Y-102935986D01*
X175496799Y-102973694D01*
X175496803Y-102973697D01*
X175689227Y-103146957D01*
X175854526Y-103295793D01*
X175867317Y-103309813D01*
X175885526Y-103326209D01*
X175900805Y-103337463D01*
X175942687Y-103375174D01*
X175942690Y-103375176D01*
X175975674Y-103404875D01*
X176300410Y-103697269D01*
X176313203Y-103711291D01*
X176331409Y-103727684D01*
X176346694Y-103738943D01*
X176388573Y-103776651D01*
X176388577Y-103776654D01*
X176661828Y-104022691D01*
X176746295Y-104098746D01*
X176770193Y-104124940D01*
X176785333Y-104150013D01*
X176795288Y-104177550D01*
X176799680Y-104206509D01*
X176798339Y-104235762D01*
X176791314Y-104264201D01*
X176778882Y-104290711D01*
X176757854Y-104319259D01*
X176163853Y-104978962D01*
X176137659Y-105002860D01*
X176112586Y-105018000D01*
X176085049Y-105027955D01*
X176056090Y-105032347D01*
X176026837Y-105031006D01*
X175991147Y-105022190D01*
X175982055Y-105018971D01*
X175957805Y-105015457D01*
X175933334Y-105016741D01*
X175909584Y-105022774D01*
X175887468Y-105033325D01*
X175867835Y-105047988D01*
X175851440Y-105066199D01*
X175838912Y-105087259D01*
X175830734Y-105110358D01*
X175827220Y-105134608D01*
X175828504Y-105159079D01*
X175834534Y-105182819D01*
X175849393Y-105223925D01*
X175855622Y-105264992D01*
X175853720Y-105306492D01*
X175843760Y-105346815D01*
X175826121Y-105384427D01*
X175797828Y-105422837D01*
X175760118Y-105464719D01*
X175760116Y-105464721D01*
X175697414Y-105534358D01*
X175354385Y-105915332D01*
X175319137Y-105947488D01*
X175283577Y-105968961D01*
X175244512Y-105983083D01*
X175203448Y-105989311D01*
X175161949Y-105987409D01*
X175121623Y-105977448D01*
X175084014Y-105959811D01*
X175045602Y-105931517D01*
X172918189Y-104015986D01*
X172886033Y-103980738D01*
X172864559Y-103945177D01*
X172850439Y-103906115D01*
X172844210Y-103865048D01*
X172846112Y-103823548D01*
X172856072Y-103783225D01*
X172873711Y-103745613D01*
X172902004Y-103707203D01*
X172944905Y-103659557D01*
X173076528Y-103513374D01*
X173345447Y-103214708D01*
X173380695Y-103182552D01*
X173416255Y-103161079D01*
X173455320Y-103146957D01*
X173496384Y-103140729D01*
X173537883Y-103142631D01*
X173580315Y-103153112D01*
X173604565Y-103156628D01*
X173629036Y-103155345D01*
X173652786Y-103149313D01*
X173674903Y-103138764D01*
X173694537Y-103124102D01*
X173710933Y-103105892D01*
X173723462Y-103084833D01*
X173731641Y-103061734D01*
X173735157Y-103037484D01*
X173733874Y-103013013D01*
X173727842Y-102989263D01*
X173723689Y-102980555D01*
X173711196Y-102945998D01*
X173706804Y-102917039D01*
X173708145Y-102887786D01*
X173715170Y-102859347D01*
X173727602Y-102832837D01*
X173748630Y-102804289D01*
X174268596Y-102226810D01*
X174304920Y-102186468D01*
X174304921Y-102186467D01*
X174342631Y-102144586D01*
X174368825Y-102120688D01*
X174393898Y-102105548D01*
X174421435Y-102095593D01*
X174450394Y-102091201D01*
X174479647Y-102092542D01*
X174479647Y-102092542D01*
G37*
G36*
X165687892Y-104742544D02*
G01*
X165687892Y-104742545D01*
X164942243Y-105807443D01*
X164942242Y-105807443D01*
X163959260Y-105119152D01*
X163959260Y-105119151D01*
X164704909Y-104054253D01*
X164704910Y-104054253D01*
X165687892Y-104742544D01*
X165687892Y-104742544D01*
G37*
G36*
X179490009Y-102052552D02*
G01*
X179538430Y-102064513D01*
X179583574Y-102085683D01*
X179628702Y-102118925D01*
X179679866Y-102164993D01*
X179679871Y-102164997D01*
X180415585Y-102827437D01*
X180415592Y-102827445D01*
X180466756Y-102873513D01*
X180504529Y-102914915D01*
X180530305Y-102957602D01*
X180547261Y-103004506D01*
X180554738Y-103053807D01*
X180552455Y-103103626D01*
X180540494Y-103152047D01*
X180519324Y-103197191D01*
X180486082Y-103242319D01*
X180440014Y-103293483D01*
X180440010Y-103293488D01*
X178840788Y-105069604D01*
X178840780Y-105069611D01*
X178794712Y-105120775D01*
X178753310Y-105158548D01*
X178710623Y-105184324D01*
X178663719Y-105201280D01*
X178614418Y-105208757D01*
X178564599Y-105206474D01*
X178516178Y-105194513D01*
X178471034Y-105173343D01*
X178425906Y-105140101D01*
X178374742Y-105094033D01*
X178374737Y-105094029D01*
X177639023Y-104431589D01*
X177639016Y-104431581D01*
X177587852Y-104385513D01*
X177550079Y-104344111D01*
X177524303Y-104301424D01*
X177507347Y-104254520D01*
X177499870Y-104205219D01*
X177502153Y-104155400D01*
X177514114Y-104106979D01*
X177535284Y-104061835D01*
X177568526Y-104016707D01*
X177614594Y-103965543D01*
X177614598Y-103965538D01*
X179213820Y-102189422D01*
X179213828Y-102189415D01*
X179259896Y-102138251D01*
X179301298Y-102100478D01*
X179343985Y-102074702D01*
X179390889Y-102057746D01*
X179440190Y-102050269D01*
X179490009Y-102052552D01*
X179490009Y-102052552D01*
G37*
G36*
X161018328Y-103037484D02*
G01*
X161105729Y-103054869D01*
X161287718Y-103130251D01*
X161451503Y-103239689D01*
X161590791Y-103378977D01*
X161700229Y-103542762D01*
X161775611Y-103724751D01*
X161778434Y-103738943D01*
X161814040Y-103917947D01*
X161814040Y-104114933D01*
X161796295Y-104204142D01*
X161775611Y-104308129D01*
X161700229Y-104490118D01*
X161590791Y-104653903D01*
X161451503Y-104793191D01*
X161287718Y-104902629D01*
X161105729Y-104978011D01*
X161041330Y-104990821D01*
X160912533Y-105016440D01*
X160715547Y-105016440D01*
X160586750Y-104990821D01*
X160522351Y-104978011D01*
X160340362Y-104902629D01*
X160176577Y-104793191D01*
X160037289Y-104653903D01*
X159927851Y-104490118D01*
X159852469Y-104308129D01*
X159831785Y-104204142D01*
X159814040Y-104114933D01*
X159814040Y-103917947D01*
X159849646Y-103738943D01*
X159852469Y-103724751D01*
X159927851Y-103542762D01*
X160037289Y-103378977D01*
X160176577Y-103239689D01*
X160340362Y-103130251D01*
X160522351Y-103054869D01*
X160609752Y-103037484D01*
X160715547Y-103016440D01*
X160912533Y-103016440D01*
X161018328Y-103037484D01*
X161018328Y-103037484D01*
G37*
G36*
X184724340Y-100489303D02*
G01*
X184901927Y-100524626D01*
X185093015Y-100603778D01*
X185264989Y-100718687D01*
X185411242Y-100864940D01*
X185526151Y-101036914D01*
X185605303Y-101228002D01*
X185633117Y-101367836D01*
X185645653Y-101430859D01*
X185645653Y-101637693D01*
X185642108Y-101655514D01*
X185605303Y-101840550D01*
X185526151Y-102031638D01*
X185411242Y-102203612D01*
X185264989Y-102349865D01*
X185093015Y-102464774D01*
X184901927Y-102543926D01*
X184737916Y-102576549D01*
X184699070Y-102584276D01*
X184492236Y-102584276D01*
X184453390Y-102576549D01*
X184289379Y-102543926D01*
X184098291Y-102464774D01*
X183926317Y-102349865D01*
X183780064Y-102203612D01*
X183673989Y-102044859D01*
X183658447Y-102025922D01*
X183639506Y-102010377D01*
X183617895Y-101998826D01*
X183594446Y-101991713D01*
X183570060Y-101989311D01*
X183545674Y-101991713D01*
X183522225Y-101998826D01*
X183500614Y-102010377D01*
X183481672Y-102025923D01*
X183466128Y-102044864D01*
X183423664Y-102108416D01*
X183305270Y-102226810D01*
X183305267Y-102226812D01*
X183305159Y-102226920D01*
X183289614Y-102245862D01*
X183278063Y-102267473D01*
X183270950Y-102290922D01*
X183268548Y-102315308D01*
X183270950Y-102339694D01*
X183278063Y-102363143D01*
X183289614Y-102384754D01*
X183305159Y-102403696D01*
X183324101Y-102419241D01*
X183345702Y-102430786D01*
X183420189Y-102461640D01*
X183592163Y-102576549D01*
X183738416Y-102722802D01*
X183853325Y-102894776D01*
X183932477Y-103085864D01*
X183962169Y-103235140D01*
X183972827Y-103288721D01*
X183972827Y-103495555D01*
X183969282Y-103513376D01*
X183932477Y-103698412D01*
X183853325Y-103889500D01*
X183738416Y-104061474D01*
X183592163Y-104207727D01*
X183420189Y-104322636D01*
X183229101Y-104401788D01*
X183051514Y-104437111D01*
X183026244Y-104442138D01*
X182819410Y-104442138D01*
X182794140Y-104437111D01*
X182616553Y-104401788D01*
X182425465Y-104322636D01*
X182253491Y-104207727D01*
X182107238Y-104061474D01*
X181992329Y-103889500D01*
X181913177Y-103698412D01*
X181876372Y-103513376D01*
X181872827Y-103495555D01*
X181872827Y-103288721D01*
X181883485Y-103235140D01*
X181913177Y-103085864D01*
X181992329Y-102894776D01*
X182107238Y-102722802D01*
X182253491Y-102576549D01*
X182343708Y-102516268D01*
X182362644Y-102500727D01*
X182378189Y-102481785D01*
X182389740Y-102460175D01*
X182396853Y-102436726D01*
X182399255Y-102412340D01*
X182396853Y-102387954D01*
X182389740Y-102364505D01*
X182378189Y-102342894D01*
X182362643Y-102323952D01*
X182343701Y-102308407D01*
X182221585Y-102226812D01*
X182221582Y-102226810D01*
X182103188Y-102108416D01*
X182010166Y-101969198D01*
X181974348Y-101882727D01*
X181946090Y-101814507D01*
X181913426Y-101650291D01*
X181913426Y-101482853D01*
X181946090Y-101318637D01*
X182010165Y-101163948D01*
X182013443Y-101159042D01*
X182103188Y-101024728D01*
X182221582Y-100906334D01*
X182360800Y-100813312D01*
X182382914Y-100804152D01*
X182515491Y-100749236D01*
X182679707Y-100716572D01*
X182847145Y-100716572D01*
X183011361Y-100749236D01*
X183143938Y-100804152D01*
X183166052Y-100813312D01*
X183305270Y-100906334D01*
X183423664Y-101024728D01*
X183423666Y-101024731D01*
X183423668Y-101024733D01*
X183445934Y-101058056D01*
X183461479Y-101076998D01*
X183480421Y-101092543D01*
X183502032Y-101104094D01*
X183525481Y-101111207D01*
X183549867Y-101113609D01*
X183574253Y-101111207D01*
X183597702Y-101104094D01*
X183619312Y-101092542D01*
X183638254Y-101076997D01*
X183653799Y-101058055D01*
X183664872Y-101037339D01*
X183665153Y-101036918D01*
X183665155Y-101036914D01*
X183780064Y-100864940D01*
X183926317Y-100718687D01*
X184098291Y-100603778D01*
X184289379Y-100524626D01*
X184466966Y-100489303D01*
X184492236Y-100484276D01*
X184699070Y-100484276D01*
X184724340Y-100489303D01*
X184724340Y-100489303D01*
G37*
G36*
X186582202Y-102162129D02*
G01*
X186759789Y-102197452D01*
X186950877Y-102276604D01*
X187122851Y-102391513D01*
X187269104Y-102537766D01*
X187384013Y-102709740D01*
X187463165Y-102900828D01*
X187493805Y-103054869D01*
X187503515Y-103103685D01*
X187503515Y-103310519D01*
X187500731Y-103324513D01*
X187463165Y-103513376D01*
X187384013Y-103704464D01*
X187269104Y-103876438D01*
X187122851Y-104022691D01*
X186950877Y-104137600D01*
X186759789Y-104216752D01*
X186595778Y-104249375D01*
X186556932Y-104257102D01*
X186350098Y-104257102D01*
X186311252Y-104249375D01*
X186147241Y-104216752D01*
X185956153Y-104137600D01*
X185784179Y-104022691D01*
X185637926Y-103876438D01*
X185523017Y-103704464D01*
X185443865Y-103513376D01*
X185406299Y-103324513D01*
X185403515Y-103310519D01*
X185403515Y-103103685D01*
X185413225Y-103054869D01*
X185443865Y-102900828D01*
X185523017Y-102709740D01*
X185637926Y-102537766D01*
X185784179Y-102391513D01*
X185956153Y-102276604D01*
X186147241Y-102197452D01*
X186324828Y-102162129D01*
X186350098Y-102157102D01*
X186556932Y-102157102D01*
X186582202Y-102162129D01*
X186582202Y-102162129D01*
G37*
G36*
X168116391Y-101794535D02*
G01*
X168180790Y-101807345D01*
X168362779Y-101882727D01*
X168526564Y-101992165D01*
X168665852Y-102131453D01*
X168775290Y-102295238D01*
X168850672Y-102477227D01*
X168857237Y-102510232D01*
X168889101Y-102670423D01*
X168889101Y-102867409D01*
X168872873Y-102948991D01*
X168850672Y-103060605D01*
X168775290Y-103242594D01*
X168665852Y-103406379D01*
X168526564Y-103545667D01*
X168362779Y-103655105D01*
X168180790Y-103730487D01*
X168138278Y-103738943D01*
X167987594Y-103768916D01*
X167790608Y-103768916D01*
X167639924Y-103738943D01*
X167597412Y-103730487D01*
X167415423Y-103655105D01*
X167251638Y-103545667D01*
X167112350Y-103406379D01*
X167002912Y-103242594D01*
X166927530Y-103060605D01*
X166905329Y-102948991D01*
X166889101Y-102867409D01*
X166889101Y-102670423D01*
X166920965Y-102510232D01*
X166927530Y-102477227D01*
X167002912Y-102295238D01*
X167112350Y-102131453D01*
X167251638Y-101992165D01*
X167415423Y-101882727D01*
X167597412Y-101807345D01*
X167661811Y-101794535D01*
X167790608Y-101768916D01*
X167987594Y-101768916D01*
X168116391Y-101794535D01*
X168116391Y-101794535D01*
G37*
G36*
X177409203Y-100178986D02*
G01*
X177457624Y-100190947D01*
X177502768Y-100212117D01*
X177547896Y-100245359D01*
X177599060Y-100291427D01*
X177599065Y-100291431D01*
X178334779Y-100953871D01*
X178334786Y-100953879D01*
X178385950Y-100999947D01*
X178423723Y-101041349D01*
X178449499Y-101084036D01*
X178466455Y-101130940D01*
X178473932Y-101180241D01*
X178471649Y-101230060D01*
X178459688Y-101278481D01*
X178438518Y-101323625D01*
X178405276Y-101368753D01*
X178359208Y-101419917D01*
X178359204Y-101419922D01*
X176759982Y-103196038D01*
X176759974Y-103196045D01*
X176713906Y-103247209D01*
X176672504Y-103284982D01*
X176629817Y-103310758D01*
X176582913Y-103327714D01*
X176533612Y-103335191D01*
X176483793Y-103332908D01*
X176435372Y-103320947D01*
X176390228Y-103299777D01*
X176345100Y-103266535D01*
X176293936Y-103220467D01*
X176293931Y-103220463D01*
X175558217Y-102558023D01*
X175558210Y-102558015D01*
X175507046Y-102511947D01*
X175469273Y-102470545D01*
X175443497Y-102427858D01*
X175426541Y-102380954D01*
X175419064Y-102331653D01*
X175421347Y-102281834D01*
X175433308Y-102233413D01*
X175454478Y-102188269D01*
X175487720Y-102143141D01*
X175533788Y-102091977D01*
X175533792Y-102091972D01*
X177133014Y-100315856D01*
X177133022Y-100315849D01*
X177179090Y-100264685D01*
X177220492Y-100226912D01*
X177263179Y-100201136D01*
X177310083Y-100184180D01*
X177359384Y-100176703D01*
X177409203Y-100178986D01*
X177409203Y-100178986D01*
G37*
G36*
X162498214Y-100961412D02*
G01*
X162562613Y-100974222D01*
X162744602Y-101049604D01*
X162908387Y-101159042D01*
X163047675Y-101298330D01*
X163157113Y-101462115D01*
X163232495Y-101644104D01*
X163245305Y-101708503D01*
X163270924Y-101837300D01*
X163270924Y-102034286D01*
X163253338Y-102122696D01*
X163232495Y-102227482D01*
X163157113Y-102409471D01*
X163047675Y-102573256D01*
X162908387Y-102712544D01*
X162744602Y-102821982D01*
X162562613Y-102897364D01*
X162507462Y-102908334D01*
X162369417Y-102935793D01*
X162172431Y-102935793D01*
X162034386Y-102908334D01*
X161979235Y-102897364D01*
X161797246Y-102821982D01*
X161633461Y-102712544D01*
X161494173Y-102573256D01*
X161384735Y-102409471D01*
X161309353Y-102227482D01*
X161288510Y-102122696D01*
X161270924Y-102034286D01*
X161270924Y-101837300D01*
X161296543Y-101708503D01*
X161309353Y-101644104D01*
X161384735Y-101462115D01*
X161494173Y-101298330D01*
X161633461Y-101159042D01*
X161797246Y-101049604D01*
X161979235Y-100974222D01*
X162043634Y-100961412D01*
X162172431Y-100935793D01*
X162369417Y-100935793D01*
X162498214Y-100961412D01*
X162498214Y-100961412D01*
G37*
G36*
X188255029Y-100304267D02*
G01*
X188432616Y-100339590D01*
X188623704Y-100418742D01*
X188795678Y-100533651D01*
X188941931Y-100679904D01*
X189056840Y-100851878D01*
X189135992Y-101042966D01*
X189169920Y-101213538D01*
X189172798Y-101228004D01*
X189176342Y-101245824D01*
X189176342Y-101452656D01*
X189135992Y-101655514D01*
X189056840Y-101846602D01*
X188941931Y-102018576D01*
X188795678Y-102164829D01*
X188623704Y-102279738D01*
X188432616Y-102358890D01*
X188268605Y-102391513D01*
X188229759Y-102399240D01*
X188022925Y-102399240D01*
X187984079Y-102391513D01*
X187820068Y-102358890D01*
X187628980Y-102279738D01*
X187457006Y-102164829D01*
X187310753Y-102018576D01*
X187195844Y-101846602D01*
X187116692Y-101655514D01*
X187076342Y-101452656D01*
X187076342Y-101245824D01*
X187079887Y-101228004D01*
X187082764Y-101213538D01*
X187116692Y-101042966D01*
X187195844Y-100851878D01*
X187310753Y-100679904D01*
X187457006Y-100533651D01*
X187628980Y-100418742D01*
X187820068Y-100339590D01*
X187997655Y-100304267D01*
X188022925Y-100299240D01*
X188229759Y-100299240D01*
X188255029Y-100304267D01*
X188255029Y-100304267D01*
G37*
G36*
X166035745Y-100337650D02*
G01*
X166100144Y-100350460D01*
X166282133Y-100425842D01*
X166445918Y-100535280D01*
X166585206Y-100674568D01*
X166694644Y-100838353D01*
X166770026Y-101020342D01*
X166777326Y-101057040D01*
X166808455Y-101213538D01*
X166808455Y-101410524D01*
X166792188Y-101492301D01*
X166770026Y-101603720D01*
X166694644Y-101785709D01*
X166585206Y-101949494D01*
X166445918Y-102088782D01*
X166282133Y-102198220D01*
X166100144Y-102273602D01*
X166058758Y-102281834D01*
X165906948Y-102312031D01*
X165709962Y-102312031D01*
X165558152Y-102281834D01*
X165516766Y-102273602D01*
X165334777Y-102198220D01*
X165170992Y-102088782D01*
X165031704Y-101949494D01*
X164922266Y-101785709D01*
X164846884Y-101603720D01*
X164824722Y-101492301D01*
X164808455Y-101410524D01*
X164808455Y-101213538D01*
X164839584Y-101057040D01*
X164846884Y-101020342D01*
X164922266Y-100838353D01*
X165031704Y-100674568D01*
X165170992Y-100535280D01*
X165334777Y-100425842D01*
X165516766Y-100350460D01*
X165581165Y-100337650D01*
X165709962Y-100312031D01*
X165906948Y-100312031D01*
X166035745Y-100337650D01*
X166035745Y-100337650D01*
G37*
G36*
X176009464Y-99602554D02*
G01*
X176044556Y-99611222D01*
X176077286Y-99626572D01*
X176111359Y-99651669D01*
X176600136Y-100091767D01*
X176628661Y-100123033D01*
X176647343Y-100153972D01*
X176659633Y-100187969D01*
X176665054Y-100223710D01*
X176663399Y-100259818D01*
X176654730Y-100294913D01*
X176639382Y-100327640D01*
X176614286Y-100361711D01*
X176207643Y-100813334D01*
X176176377Y-100841858D01*
X176145438Y-100860540D01*
X176103232Y-100875798D01*
X176096316Y-100877554D01*
X176074199Y-100888103D01*
X176054565Y-100902765D01*
X176038168Y-100920975D01*
X176025639Y-100942034D01*
X176017459Y-100965132D01*
X176016435Y-100972199D01*
X176005674Y-101015763D01*
X175990326Y-101048490D01*
X175965230Y-101082561D01*
X175558587Y-101534184D01*
X175527321Y-101562708D01*
X175496382Y-101581390D01*
X175462385Y-101593680D01*
X175426644Y-101599101D01*
X175390536Y-101597446D01*
X175355444Y-101588778D01*
X175322714Y-101573428D01*
X175288641Y-101548331D01*
X174799864Y-101108233D01*
X174771339Y-101076967D01*
X174752657Y-101046028D01*
X174740367Y-101012031D01*
X174734946Y-100976290D01*
X174736601Y-100940182D01*
X174745270Y-100905087D01*
X174760618Y-100872360D01*
X174785714Y-100838289D01*
X175192357Y-100386666D01*
X175223623Y-100358142D01*
X175254562Y-100339460D01*
X175296768Y-100324202D01*
X175303684Y-100322446D01*
X175325801Y-100311897D01*
X175345435Y-100297235D01*
X175361832Y-100279025D01*
X175374361Y-100257966D01*
X175382541Y-100234868D01*
X175383565Y-100227801D01*
X175394326Y-100184237D01*
X175409674Y-100151510D01*
X175434770Y-100117439D01*
X175841413Y-99665816D01*
X175872679Y-99637292D01*
X175903618Y-99618610D01*
X175937615Y-99606320D01*
X175973356Y-99600899D01*
X176009464Y-99602554D01*
X176009464Y-99602554D01*
G37*
G36*
X163955098Y-98880766D02*
G01*
X164019497Y-98893576D01*
X164201486Y-98968958D01*
X164365271Y-99078396D01*
X164504559Y-99217684D01*
X164613997Y-99381469D01*
X164689379Y-99563458D01*
X164695612Y-99594794D01*
X164727808Y-99756654D01*
X164727808Y-99953640D01*
X164702189Y-100082437D01*
X164689379Y-100146836D01*
X164613997Y-100328825D01*
X164504559Y-100492610D01*
X164365271Y-100631898D01*
X164201486Y-100741336D01*
X164019497Y-100816718D01*
X163956589Y-100829231D01*
X163826301Y-100855147D01*
X163629315Y-100855147D01*
X163499027Y-100829231D01*
X163436119Y-100816718D01*
X163254130Y-100741336D01*
X163090345Y-100631898D01*
X162951057Y-100492610D01*
X162841619Y-100328825D01*
X162766237Y-100146836D01*
X162753427Y-100082437D01*
X162727808Y-99953640D01*
X162727808Y-99756654D01*
X162760004Y-99594794D01*
X162766237Y-99563458D01*
X162841619Y-99381469D01*
X162951057Y-99217684D01*
X163090345Y-99078396D01*
X163254130Y-98968958D01*
X163436119Y-98893576D01*
X163500518Y-98880766D01*
X163629315Y-98855147D01*
X163826301Y-98855147D01*
X163955098Y-98880766D01*
X163955098Y-98880766D01*
G37*
G36*
X186397167Y-98631441D02*
G01*
X186574754Y-98666764D01*
X186765842Y-98745916D01*
X186937816Y-98860825D01*
X187084069Y-99007078D01*
X187198978Y-99179052D01*
X187278130Y-99370140D01*
X187304184Y-99501126D01*
X187318480Y-99572997D01*
X187318480Y-99779831D01*
X187314935Y-99797652D01*
X187278130Y-99982688D01*
X187198978Y-100173776D01*
X187084069Y-100345750D01*
X186937816Y-100492003D01*
X186765842Y-100606912D01*
X186574754Y-100686064D01*
X186410743Y-100718687D01*
X186371897Y-100726414D01*
X186165063Y-100726414D01*
X186126217Y-100718687D01*
X185962206Y-100686064D01*
X185771118Y-100606912D01*
X185599144Y-100492003D01*
X185452891Y-100345750D01*
X185337982Y-100173776D01*
X185258830Y-99982688D01*
X185222025Y-99797652D01*
X185218480Y-99779831D01*
X185218480Y-99572997D01*
X185232776Y-99501126D01*
X185258830Y-99370140D01*
X185337982Y-99179052D01*
X185452891Y-99007078D01*
X185599144Y-98860825D01*
X185771118Y-98745916D01*
X185962206Y-98666764D01*
X186139793Y-98631441D01*
X186165063Y-98626414D01*
X186371897Y-98626414D01*
X186397167Y-98631441D01*
X186397167Y-98631441D01*
G37*
G36*
X189927855Y-98446405D02*
G01*
X190105442Y-98481728D01*
X190296530Y-98560880D01*
X190468504Y-98675789D01*
X190614757Y-98822042D01*
X190729666Y-98994016D01*
X190808818Y-99185104D01*
X190835404Y-99318764D01*
X190849168Y-99387961D01*
X190849168Y-99594795D01*
X190846875Y-99606320D01*
X190808818Y-99797652D01*
X190729666Y-99988740D01*
X190614757Y-100160714D01*
X190468504Y-100306967D01*
X190296530Y-100421876D01*
X190105442Y-100501028D01*
X189941431Y-100533651D01*
X189902585Y-100541378D01*
X189695751Y-100541378D01*
X189656905Y-100533651D01*
X189492894Y-100501028D01*
X189301806Y-100421876D01*
X189129832Y-100306967D01*
X188983579Y-100160714D01*
X188868670Y-99988740D01*
X188789518Y-99797652D01*
X188751461Y-99606320D01*
X188749168Y-99594795D01*
X188749168Y-99387961D01*
X188762932Y-99318764D01*
X188789518Y-99185104D01*
X188868670Y-98994016D01*
X188983579Y-98822042D01*
X189129832Y-98675789D01*
X189301806Y-98560880D01*
X189492894Y-98481728D01*
X189670481Y-98446405D01*
X189695751Y-98441378D01*
X189902585Y-98441378D01*
X189927855Y-98446405D01*
X189927855Y-98446405D01*
G37*
G36*
X108507849Y-96804827D02*
G01*
X108507852Y-96804828D01*
X108507853Y-96804828D01*
X108800029Y-96893459D01*
X108800031Y-96893460D01*
X108800034Y-96893461D01*
X109069299Y-97037386D01*
X109305319Y-97231081D01*
X109499014Y-97467101D01*
X109642940Y-97736368D01*
X109731573Y-98028550D01*
X109754000Y-98256259D01*
X109754000Y-99008542D01*
X109731573Y-99236249D01*
X109731572Y-99236252D01*
X109731572Y-99236253D01*
X109663183Y-99461701D01*
X109642939Y-99528434D01*
X109499014Y-99797699D01*
X109305319Y-100033719D01*
X109069298Y-100227414D01*
X108800033Y-100371339D01*
X108800030Y-100371340D01*
X108800028Y-100371341D01*
X108507852Y-100459972D01*
X108507851Y-100459972D01*
X108507848Y-100459973D01*
X108204000Y-100489899D01*
X107900151Y-100459973D01*
X107900148Y-100459972D01*
X107900147Y-100459972D01*
X107607971Y-100371341D01*
X107607969Y-100371340D01*
X107607966Y-100371339D01*
X107338701Y-100227414D01*
X107102681Y-100033719D01*
X106908986Y-99797698D01*
X106765061Y-99528433D01*
X106744818Y-99461701D01*
X106676428Y-99236252D01*
X106676428Y-99236251D01*
X106676427Y-99236248D01*
X106654000Y-99008541D01*
X106654000Y-98256258D01*
X106676427Y-98028551D01*
X106697573Y-97958842D01*
X106765059Y-97736371D01*
X106765060Y-97736369D01*
X106765061Y-97736366D01*
X106908986Y-97467101D01*
X107102681Y-97231081D01*
X107338702Y-97037386D01*
X107607967Y-96893461D01*
X107607970Y-96893460D01*
X107607972Y-96893459D01*
X107900148Y-96804828D01*
X107900149Y-96804828D01*
X107900152Y-96804827D01*
X108204000Y-96774901D01*
X108507849Y-96804827D01*
X108507849Y-96804827D01*
G37*
G36*
X168783213Y-98388718D02*
G01*
X168830844Y-98404309D01*
X168879895Y-98431920D01*
X169494433Y-98862224D01*
X169537156Y-98898874D01*
X169568097Y-98938299D01*
X169590749Y-98982997D01*
X169604248Y-99031264D01*
X169608071Y-99081236D01*
X169602073Y-99130986D01*
X169586482Y-99178617D01*
X169558871Y-99227668D01*
X169526546Y-99273832D01*
X169526546Y-99273833D01*
X169495085Y-99318764D01*
X169085549Y-99903642D01*
X169048899Y-99946365D01*
X169009474Y-99977306D01*
X168964776Y-99999958D01*
X168916509Y-100013457D01*
X168866537Y-100017280D01*
X168816787Y-100011282D01*
X168769156Y-99995691D01*
X168720105Y-99968080D01*
X168105567Y-99537776D01*
X168062844Y-99501126D01*
X168031903Y-99461701D01*
X168009251Y-99417003D01*
X167995752Y-99368736D01*
X167991929Y-99318764D01*
X167997927Y-99269014D01*
X168013518Y-99221383D01*
X168041129Y-99172332D01*
X168093206Y-99097959D01*
X168183533Y-98968958D01*
X168514451Y-98496358D01*
X168551101Y-98453635D01*
X168590526Y-98422694D01*
X168635224Y-98400042D01*
X168683491Y-98386543D01*
X168733463Y-98382720D01*
X168783213Y-98388718D01*
X168783213Y-98388718D01*
G37*
G36*
X167493049Y-97485336D02*
G01*
X167540680Y-97500927D01*
X167589731Y-97528538D01*
X168204269Y-97958842D01*
X168246992Y-97995492D01*
X168277933Y-98034917D01*
X168300585Y-98079615D01*
X168314084Y-98127882D01*
X168317907Y-98177854D01*
X168311909Y-98227604D01*
X168296318Y-98275235D01*
X168268707Y-98324286D01*
X168236382Y-98370450D01*
X168236382Y-98370451D01*
X168215662Y-98400042D01*
X167795385Y-99000260D01*
X167758735Y-99042983D01*
X167719310Y-99073924D01*
X167674612Y-99096576D01*
X167626345Y-99110075D01*
X167576373Y-99113898D01*
X167526623Y-99107900D01*
X167478992Y-99092309D01*
X167429941Y-99064698D01*
X167347653Y-99007079D01*
X167271985Y-98954096D01*
X166815403Y-98634394D01*
X166772680Y-98597744D01*
X166741739Y-98558319D01*
X166719087Y-98513621D01*
X166705588Y-98465354D01*
X166701765Y-98415382D01*
X166707763Y-98365632D01*
X166723354Y-98318001D01*
X166750965Y-98268950D01*
X166803042Y-98194577D01*
X166942442Y-97995492D01*
X167224287Y-97592976D01*
X167260937Y-97550253D01*
X167300362Y-97519312D01*
X167345060Y-97496660D01*
X167393327Y-97483161D01*
X167443299Y-97479338D01*
X167493049Y-97485336D01*
X167493049Y-97485336D01*
G37*
G36*
X188069993Y-96773579D02*
G01*
X188247580Y-96808902D01*
X188438668Y-96888054D01*
X188610642Y-97002963D01*
X188756895Y-97149216D01*
X188871804Y-97321190D01*
X188950956Y-97512278D01*
X188991306Y-97715136D01*
X188991306Y-97921968D01*
X188950956Y-98124826D01*
X188871804Y-98315914D01*
X188756895Y-98487888D01*
X188610642Y-98634141D01*
X188438668Y-98749050D01*
X188247580Y-98828202D01*
X188083569Y-98860825D01*
X188044723Y-98868552D01*
X187837889Y-98868552D01*
X187799043Y-98860825D01*
X187635032Y-98828202D01*
X187443944Y-98749050D01*
X187271970Y-98634141D01*
X187125717Y-98487888D01*
X187010808Y-98315914D01*
X186931656Y-98124826D01*
X186891306Y-97921968D01*
X186891306Y-97715136D01*
X186931656Y-97512278D01*
X187010808Y-97321190D01*
X187125717Y-97149216D01*
X187271970Y-97002963D01*
X187443944Y-96888054D01*
X187635032Y-96808902D01*
X187812619Y-96773579D01*
X187837889Y-96768552D01*
X188044723Y-96768552D01*
X188069993Y-96773579D01*
X188069993Y-96773579D01*
G37*
G36*
X116120974Y-94024148D02*
G01*
X116155567Y-94034642D01*
X116187440Y-94051678D01*
X116215386Y-94074614D01*
X116238322Y-94102560D01*
X116255358Y-94134433D01*
X116265852Y-94169026D01*
X116270000Y-94211141D01*
X116270000Y-94818859D01*
X116265852Y-94860974D01*
X116255358Y-94895567D01*
X116234213Y-94935127D01*
X116230244Y-94941066D01*
X116220865Y-94963703D01*
X116216082Y-94987736D01*
X116216080Y-95012240D01*
X116220858Y-95036274D01*
X116230233Y-95058914D01*
X116234206Y-95064861D01*
X116255358Y-95104433D01*
X116265852Y-95139026D01*
X116270000Y-95181141D01*
X116270000Y-95788859D01*
X116265852Y-95830974D01*
X116255358Y-95865567D01*
X116238322Y-95897440D01*
X116215386Y-95925386D01*
X116187440Y-95948322D01*
X116155567Y-95965358D01*
X116120974Y-95975852D01*
X116078859Y-95980000D01*
X115421141Y-95980000D01*
X115379026Y-95975852D01*
X115344433Y-95965358D01*
X115312560Y-95948322D01*
X115284614Y-95925386D01*
X115261678Y-95897440D01*
X115244642Y-95865567D01*
X115234148Y-95830974D01*
X115230000Y-95788859D01*
X115230000Y-95181141D01*
X115234148Y-95139026D01*
X115244642Y-95104433D01*
X115265787Y-95064873D01*
X115269756Y-95058934D01*
X115279135Y-95036297D01*
X115283918Y-95012264D01*
X115283920Y-94987760D01*
X115279142Y-94963726D01*
X115269767Y-94941086D01*
X115265794Y-94935139D01*
X115244642Y-94895567D01*
X115234148Y-94860974D01*
X115230000Y-94818859D01*
X115230000Y-94211141D01*
X115234148Y-94169026D01*
X115244642Y-94134433D01*
X115261678Y-94102560D01*
X115284614Y-94074614D01*
X115312560Y-94051678D01*
X115344433Y-94034642D01*
X115379026Y-94024148D01*
X115421141Y-94020000D01*
X116078859Y-94020000D01*
X116120974Y-94024148D01*
X116120974Y-94024148D01*
G37*
G36*
X109754000Y-94982400D02*
G01*
X106654000Y-94982400D01*
X106654000Y-91282400D01*
X109754000Y-91282400D01*
X109754000Y-94982400D01*
X109754000Y-94982400D01*
G37*
G36*
X172765269Y-92719497D02*
G01*
X172814013Y-92734283D01*
X172858926Y-92758290D01*
X172898299Y-92790601D01*
X172930610Y-92829974D01*
X172954617Y-92874887D01*
X172969403Y-92923631D01*
X172975000Y-92980457D01*
X172975000Y-94047343D01*
X172969403Y-94104169D01*
X172954617Y-94152913D01*
X172930610Y-94197826D01*
X172898299Y-94237199D01*
X172858926Y-94269510D01*
X172814013Y-94293517D01*
X172765269Y-94308303D01*
X172708443Y-94313900D01*
X171041557Y-94313900D01*
X170984731Y-94308303D01*
X170935987Y-94293517D01*
X170891074Y-94269510D01*
X170851701Y-94237199D01*
X170819390Y-94197826D01*
X170795383Y-94152913D01*
X170780597Y-94104169D01*
X170775000Y-94047343D01*
X170775000Y-92980457D01*
X170780597Y-92923631D01*
X170795383Y-92874887D01*
X170819390Y-92829974D01*
X170851701Y-92790601D01*
X170891074Y-92758290D01*
X170935987Y-92734283D01*
X170984731Y-92719497D01*
X171041557Y-92713900D01*
X172708443Y-92713900D01*
X172765269Y-92719497D01*
X172765269Y-92719497D01*
G37*
G36*
X118975974Y-90884148D02*
G01*
X119010567Y-90894642D01*
X119050127Y-90915787D01*
X119056066Y-90919756D01*
X119078703Y-90929135D01*
X119102736Y-90933918D01*
X119127240Y-90933920D01*
X119151274Y-90929142D01*
X119173914Y-90919767D01*
X119179861Y-90915794D01*
X119219433Y-90894642D01*
X119254026Y-90884148D01*
X119296141Y-90880000D01*
X119903859Y-90880000D01*
X119945974Y-90884148D01*
X119980567Y-90894642D01*
X120012440Y-90911678D01*
X120040389Y-90934615D01*
X120060875Y-90959578D01*
X120078202Y-90976905D01*
X120098576Y-90990518D01*
X120121215Y-90999896D01*
X120145248Y-91004676D01*
X120169752Y-91004676D01*
X120193786Y-90999895D01*
X120216424Y-90990518D01*
X120236799Y-90976904D01*
X120254125Y-90959578D01*
X120274611Y-90934615D01*
X120302560Y-90911678D01*
X120334433Y-90894642D01*
X120369026Y-90884148D01*
X120411141Y-90880000D01*
X121018859Y-90880000D01*
X121060974Y-90884148D01*
X121095567Y-90894642D01*
X121135127Y-90915787D01*
X121141066Y-90919756D01*
X121163703Y-90929135D01*
X121187736Y-90933918D01*
X121212240Y-90933920D01*
X121236274Y-90929142D01*
X121258914Y-90919767D01*
X121264861Y-90915794D01*
X121304433Y-90894642D01*
X121339026Y-90884148D01*
X121381141Y-90880000D01*
X121988859Y-90880000D01*
X122030974Y-90884148D01*
X122065567Y-90894642D01*
X122097440Y-90911678D01*
X122125386Y-90934614D01*
X122148322Y-90962560D01*
X122165358Y-90994433D01*
X122175852Y-91029026D01*
X122180000Y-91071141D01*
X122180000Y-91728859D01*
X122175852Y-91770974D01*
X122165358Y-91805567D01*
X122148322Y-91837440D01*
X122125386Y-91865386D01*
X122097440Y-91888322D01*
X122065567Y-91905358D01*
X122030974Y-91915852D01*
X121988859Y-91920000D01*
X121381141Y-91920000D01*
X121339026Y-91915852D01*
X121304433Y-91905358D01*
X121264873Y-91884213D01*
X121258934Y-91880244D01*
X121236297Y-91870865D01*
X121212264Y-91866082D01*
X121187760Y-91866080D01*
X121163726Y-91870858D01*
X121141086Y-91880233D01*
X121135139Y-91884206D01*
X121095567Y-91905358D01*
X121060974Y-91915852D01*
X121018859Y-91920000D01*
X120411141Y-91920000D01*
X120369026Y-91915852D01*
X120334433Y-91905358D01*
X120302560Y-91888322D01*
X120274611Y-91865385D01*
X120254125Y-91840422D01*
X120236798Y-91823095D01*
X120216424Y-91809482D01*
X120193785Y-91800104D01*
X120169752Y-91795324D01*
X120145248Y-91795324D01*
X120121214Y-91800105D01*
X120098576Y-91809482D01*
X120078201Y-91823096D01*
X120060875Y-91840422D01*
X120040389Y-91865385D01*
X120012441Y-91888321D01*
X120009749Y-91889760D01*
X119989374Y-91903373D01*
X119972047Y-91920700D01*
X119958433Y-91941074D01*
X119949055Y-91963713D01*
X119944274Y-91987746D01*
X119944274Y-92012250D01*
X119949054Y-92036283D01*
X119958431Y-92058922D01*
X119972044Y-92079297D01*
X119989371Y-92096624D01*
X120009749Y-92110240D01*
X120012441Y-92111679D01*
X120040386Y-92134614D01*
X120063322Y-92162560D01*
X120080358Y-92194433D01*
X120090852Y-92229026D01*
X120095000Y-92271141D01*
X120095000Y-92928859D01*
X120090852Y-92970974D01*
X120080358Y-93005567D01*
X120063322Y-93037440D01*
X120040386Y-93065386D01*
X120012440Y-93088322D01*
X119980567Y-93105358D01*
X119945974Y-93115852D01*
X119903859Y-93120000D01*
X119296141Y-93120000D01*
X119254026Y-93115852D01*
X119219433Y-93105358D01*
X119179873Y-93084213D01*
X119173934Y-93080244D01*
X119151297Y-93070865D01*
X119127264Y-93066082D01*
X119102760Y-93066080D01*
X119078726Y-93070858D01*
X119056086Y-93080233D01*
X119050139Y-93084206D01*
X119010567Y-93105358D01*
X118975974Y-93115852D01*
X118933859Y-93120000D01*
X118326141Y-93120000D01*
X118284026Y-93115852D01*
X118249433Y-93105358D01*
X118217560Y-93088322D01*
X118189614Y-93065386D01*
X118166678Y-93037440D01*
X118149642Y-93005567D01*
X118139148Y-92970974D01*
X118135000Y-92928859D01*
X118135000Y-92271141D01*
X118139148Y-92229026D01*
X118149642Y-92194433D01*
X118166678Y-92162560D01*
X118189614Y-92134614D01*
X118217559Y-92111679D01*
X118220251Y-92110240D01*
X118240626Y-92096627D01*
X118257953Y-92079300D01*
X118271567Y-92058926D01*
X118280945Y-92036287D01*
X118285726Y-92012254D01*
X118285726Y-91987750D01*
X118285726Y-91987746D01*
X118974274Y-91987746D01*
X118974274Y-92012250D01*
X118979054Y-92036283D01*
X118988431Y-92058922D01*
X119002044Y-92079297D01*
X119019371Y-92096624D01*
X119039749Y-92110240D01*
X119050127Y-92115787D01*
X119056066Y-92119756D01*
X119078703Y-92129135D01*
X119102736Y-92133918D01*
X119127240Y-92133920D01*
X119151274Y-92129142D01*
X119173914Y-92119767D01*
X119179861Y-92115794D01*
X119190251Y-92110240D01*
X119210626Y-92096627D01*
X119227953Y-92079300D01*
X119241567Y-92058926D01*
X119250945Y-92036287D01*
X119255726Y-92012254D01*
X119255726Y-91987750D01*
X119250946Y-91963717D01*
X119241569Y-91941078D01*
X119227956Y-91920703D01*
X119210629Y-91903376D01*
X119190251Y-91889760D01*
X119179873Y-91884213D01*
X119173934Y-91880244D01*
X119151297Y-91870865D01*
X119127264Y-91866082D01*
X119102760Y-91866080D01*
X119078726Y-91870858D01*
X119056086Y-91880233D01*
X119050139Y-91884206D01*
X119039749Y-91889760D01*
X119019374Y-91903373D01*
X119002047Y-91920700D01*
X118988433Y-91941074D01*
X118979055Y-91963713D01*
X118974274Y-91987746D01*
X118285726Y-91987746D01*
X118280946Y-91963717D01*
X118271569Y-91941078D01*
X118257956Y-91920703D01*
X118240629Y-91903376D01*
X118220251Y-91889760D01*
X118217559Y-91888321D01*
X118189614Y-91865386D01*
X118166678Y-91837440D01*
X118149642Y-91805567D01*
X118139148Y-91770974D01*
X118135000Y-91728859D01*
X118135000Y-91071141D01*
X118139148Y-91029026D01*
X118149642Y-90994433D01*
X118166678Y-90962560D01*
X118189614Y-90934614D01*
X118217560Y-90911678D01*
X118249433Y-90894642D01*
X118284026Y-90884148D01*
X118326141Y-90880000D01*
X118933859Y-90880000D01*
X118975974Y-90884148D01*
X118975974Y-90884148D01*
G37*
G36*
X168773963Y-88718096D02*
G01*
X168809021Y-88728731D01*
X168841332Y-88746002D01*
X168869655Y-88769245D01*
X168892898Y-88797568D01*
X168910169Y-88829879D01*
X168920804Y-88864937D01*
X168925000Y-88907541D01*
X168925000Y-89520259D01*
X168920804Y-89562863D01*
X168910169Y-89597921D01*
X168892898Y-89630232D01*
X168889312Y-89634602D01*
X168875698Y-89654976D01*
X168866321Y-89677615D01*
X168861541Y-89701649D01*
X168861541Y-89726153D01*
X168866322Y-89750186D01*
X168875699Y-89772825D01*
X168889312Y-89793198D01*
X168892898Y-89797568D01*
X168910169Y-89829879D01*
X168920804Y-89864937D01*
X168925000Y-89907541D01*
X168925000Y-90520259D01*
X168920804Y-90562863D01*
X168910169Y-90597921D01*
X168892898Y-90630232D01*
X168889312Y-90634602D01*
X168875698Y-90654976D01*
X168866321Y-90677615D01*
X168861541Y-90701649D01*
X168861541Y-90726153D01*
X168866322Y-90750186D01*
X168875699Y-90772825D01*
X168889312Y-90793198D01*
X168892898Y-90797568D01*
X168910169Y-90829879D01*
X168920804Y-90864937D01*
X168925000Y-90907541D01*
X168925000Y-91520259D01*
X168920804Y-91562863D01*
X168910169Y-91597921D01*
X168892898Y-91630232D01*
X168889312Y-91634602D01*
X168875698Y-91654976D01*
X168866321Y-91677615D01*
X168861541Y-91701649D01*
X168861541Y-91726153D01*
X168866322Y-91750186D01*
X168875699Y-91772825D01*
X168889312Y-91793198D01*
X168892898Y-91797568D01*
X168910169Y-91829879D01*
X168920804Y-91864937D01*
X168925000Y-91907541D01*
X168925000Y-92520259D01*
X168920804Y-92562863D01*
X168910169Y-92597921D01*
X168892898Y-92630232D01*
X168869655Y-92658555D01*
X168841332Y-92681798D01*
X168809021Y-92699069D01*
X168773963Y-92709704D01*
X168731359Y-92713900D01*
X167218641Y-92713900D01*
X167176037Y-92709704D01*
X167140979Y-92699069D01*
X167108668Y-92681798D01*
X167080345Y-92658555D01*
X167057102Y-92630232D01*
X167039831Y-92597921D01*
X167029196Y-92562863D01*
X167025000Y-92520259D01*
X167025000Y-91907541D01*
X167029196Y-91864937D01*
X167039831Y-91829879D01*
X167057102Y-91797568D01*
X167060688Y-91793198D01*
X167074302Y-91772824D01*
X167083679Y-91750185D01*
X167088459Y-91726151D01*
X167088459Y-91701647D01*
X167083678Y-91677614D01*
X167074301Y-91654975D01*
X167060688Y-91634602D01*
X167057102Y-91630232D01*
X167039831Y-91597921D01*
X167029196Y-91562863D01*
X167025000Y-91520259D01*
X167025000Y-90907541D01*
X167029196Y-90864937D01*
X167039831Y-90829879D01*
X167057102Y-90797568D01*
X167060688Y-90793198D01*
X167074302Y-90772824D01*
X167083679Y-90750185D01*
X167088459Y-90726151D01*
X167088459Y-90701647D01*
X167083678Y-90677614D01*
X167074301Y-90654975D01*
X167060688Y-90634602D01*
X167057102Y-90630232D01*
X167039831Y-90597921D01*
X167029196Y-90562863D01*
X167025000Y-90520259D01*
X167025000Y-89907541D01*
X167029196Y-89864937D01*
X167039831Y-89829879D01*
X167057102Y-89797568D01*
X167060688Y-89793198D01*
X167074302Y-89772824D01*
X167083679Y-89750185D01*
X167088459Y-89726151D01*
X167088459Y-89701647D01*
X167083678Y-89677614D01*
X167074301Y-89654975D01*
X167060688Y-89634602D01*
X167057102Y-89630232D01*
X167039831Y-89597921D01*
X167029196Y-89562863D01*
X167025000Y-89520259D01*
X167025000Y-88907541D01*
X167029196Y-88864937D01*
X167039831Y-88829879D01*
X167057102Y-88797568D01*
X167080345Y-88769245D01*
X167108668Y-88746002D01*
X167140979Y-88728731D01*
X167176037Y-88718096D01*
X167218641Y-88713900D01*
X168731359Y-88713900D01*
X168773963Y-88718096D01*
X168773963Y-88718096D01*
G37*
G36*
X115538808Y-84586654D02*
G01*
X115538815Y-84586658D01*
X115581102Y-84602049D01*
X115603142Y-84610071D01*
X116657051Y-84993662D01*
X117925627Y-85455385D01*
X117925634Y-85455389D01*
X117967921Y-85470780D01*
X118419427Y-85635115D01*
X119119044Y-85889754D01*
X120312455Y-86324120D01*
X121505856Y-86758482D01*
X121505863Y-86758486D01*
X121548150Y-86773877D01*
X121659920Y-86814558D01*
X122624100Y-87165490D01*
X123398180Y-87447232D01*
X123775222Y-87584464D01*
X122954374Y-89839726D01*
X122954373Y-89839726D01*
X121878424Y-89448113D01*
X120609848Y-88986390D01*
X120609841Y-88986386D01*
X120567554Y-88970995D01*
X119739230Y-88669510D01*
X119416431Y-88552021D01*
X118223023Y-88117656D01*
X117029619Y-87683293D01*
X117029612Y-87683289D01*
X116987325Y-87667898D01*
X116197587Y-87380457D01*
X115836202Y-87248924D01*
X114642800Y-86814562D01*
X114642793Y-86814558D01*
X114600506Y-86799167D01*
X113566844Y-86422945D01*
X114387692Y-84167683D01*
X114387693Y-84167683D01*
X115538808Y-84586654D01*
X115538808Y-84586654D01*
G37*
G36*
X172765269Y-87119497D02*
G01*
X172814013Y-87134283D01*
X172858926Y-87158290D01*
X172898299Y-87190601D01*
X172930610Y-87229974D01*
X172954617Y-87274887D01*
X172969403Y-87323631D01*
X172975000Y-87380457D01*
X172975000Y-88447343D01*
X172969403Y-88504169D01*
X172954617Y-88552913D01*
X172930610Y-88597826D01*
X172898299Y-88637199D01*
X172858926Y-88669510D01*
X172814013Y-88693517D01*
X172765269Y-88708303D01*
X172708443Y-88713900D01*
X171041557Y-88713900D01*
X170984731Y-88708303D01*
X170935987Y-88693517D01*
X170891074Y-88669510D01*
X170851701Y-88637199D01*
X170819390Y-88597826D01*
X170795383Y-88552913D01*
X170780597Y-88504169D01*
X170775000Y-88447343D01*
X170775000Y-87380457D01*
X170780597Y-87323631D01*
X170795383Y-87274887D01*
X170819390Y-87229974D01*
X170851701Y-87190601D01*
X170891074Y-87158290D01*
X170935987Y-87134283D01*
X170984731Y-87119497D01*
X171041557Y-87113900D01*
X172708443Y-87113900D01*
X172765269Y-87119497D01*
X172765269Y-87119497D01*
G37*
G36*
X109604824Y-84530151D02*
G01*
X109639449Y-84540655D01*
X109671360Y-84557712D01*
X109699332Y-84580668D01*
X109722288Y-84608640D01*
X109739345Y-84640551D01*
X109749849Y-84675176D01*
X109754000Y-84717327D01*
X109754000Y-88034673D01*
X109749849Y-88076824D01*
X109739345Y-88111449D01*
X109722288Y-88143360D01*
X109699332Y-88171332D01*
X109671360Y-88194288D01*
X109639449Y-88211345D01*
X109604824Y-88221849D01*
X109562673Y-88226000D01*
X106845327Y-88226000D01*
X106803176Y-88221849D01*
X106768551Y-88211345D01*
X106736640Y-88194288D01*
X106708668Y-88171332D01*
X106685712Y-88143360D01*
X106668655Y-88111449D01*
X106658151Y-88076824D01*
X106654000Y-88034673D01*
X106654000Y-84717327D01*
X106658151Y-84675176D01*
X106668655Y-84640551D01*
X106685712Y-84608640D01*
X106708668Y-84580668D01*
X106736640Y-84557712D01*
X106768551Y-84540655D01*
X106803176Y-84530151D01*
X106845327Y-84526000D01*
X109562673Y-84526000D01*
X109604824Y-84530151D01*
X109604824Y-84530151D01*
G37*
G36*
X180218622Y-84143017D02*
G01*
X180266585Y-84157566D01*
X180310778Y-84181188D01*
X180349519Y-84212981D01*
X180381312Y-84251722D01*
X180404934Y-84295915D01*
X180419483Y-84343878D01*
X180425000Y-84399891D01*
X180425000Y-85150109D01*
X180419483Y-85206122D01*
X180404934Y-85254085D01*
X180381312Y-85298278D01*
X180349519Y-85337019D01*
X180310778Y-85368812D01*
X180266585Y-85392434D01*
X180218622Y-85406983D01*
X180162609Y-85412500D01*
X179337391Y-85412500D01*
X179281378Y-85406983D01*
X179233415Y-85392434D01*
X179189222Y-85368812D01*
X179150481Y-85337019D01*
X179118688Y-85298278D01*
X179095066Y-85254085D01*
X179080517Y-85206122D01*
X179075000Y-85150109D01*
X179075000Y-84399891D01*
X179080517Y-84343878D01*
X179095066Y-84295915D01*
X179118688Y-84251722D01*
X179150481Y-84212981D01*
X179189222Y-84181188D01*
X179233415Y-84157566D01*
X179281378Y-84143017D01*
X179337391Y-84137500D01*
X180162609Y-84137500D01*
X180218622Y-84143017D01*
X180218622Y-84143017D01*
G37*
G36*
X178468622Y-84143017D02*
G01*
X178516585Y-84157566D01*
X178560778Y-84181188D01*
X178599519Y-84212981D01*
X178631312Y-84251722D01*
X178654934Y-84295915D01*
X178669483Y-84343878D01*
X178675000Y-84399891D01*
X178675000Y-85150109D01*
X178669483Y-85206122D01*
X178654934Y-85254085D01*
X178631312Y-85298278D01*
X178599519Y-85337019D01*
X178560778Y-85368812D01*
X178516585Y-85392434D01*
X178468622Y-85406983D01*
X178412609Y-85412500D01*
X177587391Y-85412500D01*
X177531378Y-85406983D01*
X177483415Y-85392434D01*
X177439222Y-85368812D01*
X177400481Y-85337019D01*
X177368688Y-85298278D01*
X177345066Y-85254085D01*
X177330517Y-85206122D01*
X177325000Y-85150109D01*
X177325000Y-84399891D01*
X177330517Y-84343878D01*
X177345066Y-84295915D01*
X177368688Y-84251722D01*
X177400481Y-84212981D01*
X177439222Y-84181188D01*
X177483415Y-84157566D01*
X177531378Y-84143017D01*
X177587391Y-84137500D01*
X178412609Y-84137500D01*
X178468622Y-84143017D01*
X178468622Y-84143017D01*
G37*
G36*
X180800000Y-82350000D02*
G01*
X180330507Y-82350000D01*
X180306121Y-82352402D01*
X180282672Y-82359515D01*
X180261061Y-82371066D01*
X180242119Y-82386611D01*
X180226574Y-82405553D01*
X180215023Y-82427164D01*
X180207910Y-82450613D01*
X180205508Y-82474999D01*
X180207910Y-82499385D01*
X180215023Y-82522834D01*
X180226574Y-82544445D01*
X180242119Y-82563387D01*
X180261061Y-82578932D01*
X180271584Y-82585239D01*
X180310780Y-82606189D01*
X180349519Y-82637981D01*
X180381312Y-82676722D01*
X180404934Y-82720915D01*
X180419483Y-82768878D01*
X180425000Y-82824891D01*
X180425000Y-83575109D01*
X180419483Y-83631122D01*
X180404934Y-83679085D01*
X180381312Y-83723278D01*
X180349519Y-83762019D01*
X180310778Y-83793812D01*
X180266585Y-83817434D01*
X180218622Y-83831983D01*
X180162609Y-83837500D01*
X179337391Y-83837500D01*
X179281378Y-83831983D01*
X179233415Y-83817434D01*
X179189222Y-83793812D01*
X179150481Y-83762019D01*
X179118688Y-83723278D01*
X179095066Y-83679085D01*
X179080517Y-83631122D01*
X179075000Y-83575109D01*
X179075000Y-82824891D01*
X179080517Y-82768878D01*
X179095066Y-82720915D01*
X179118688Y-82676722D01*
X179150481Y-82637981D01*
X179189220Y-82606189D01*
X179228416Y-82585239D01*
X179248791Y-82571625D01*
X179266118Y-82554298D01*
X179279732Y-82533924D01*
X179289109Y-82511285D01*
X179293890Y-82487252D01*
X179293890Y-82462748D01*
X179289110Y-82438714D01*
X179279733Y-82416076D01*
X179266119Y-82395701D01*
X179248792Y-82378374D01*
X179228418Y-82364760D01*
X179205779Y-82355383D01*
X179181746Y-82350602D01*
X179169493Y-82350000D01*
X178580507Y-82350000D01*
X178556121Y-82352402D01*
X178532672Y-82359515D01*
X178511061Y-82371066D01*
X178492119Y-82386611D01*
X178476574Y-82405553D01*
X178465023Y-82427164D01*
X178457910Y-82450613D01*
X178455508Y-82474999D01*
X178457910Y-82499385D01*
X178465023Y-82522834D01*
X178476574Y-82544445D01*
X178492119Y-82563387D01*
X178511061Y-82578932D01*
X178521584Y-82585239D01*
X178560780Y-82606189D01*
X178599519Y-82637981D01*
X178631312Y-82676722D01*
X178654934Y-82720915D01*
X178669483Y-82768878D01*
X178675000Y-82824891D01*
X178675000Y-83575109D01*
X178669483Y-83631122D01*
X178654934Y-83679085D01*
X178631312Y-83723278D01*
X178599519Y-83762019D01*
X178560778Y-83793812D01*
X178516585Y-83817434D01*
X178468622Y-83831983D01*
X178412609Y-83837500D01*
X177587391Y-83837500D01*
X177531378Y-83831983D01*
X177483415Y-83817434D01*
X177439222Y-83793812D01*
X177400481Y-83762019D01*
X177368688Y-83723278D01*
X177345066Y-83679085D01*
X177330517Y-83631122D01*
X177325000Y-83575109D01*
X177325000Y-82824891D01*
X177330517Y-82768878D01*
X177345066Y-82720915D01*
X177368688Y-82676722D01*
X177400481Y-82637981D01*
X177439220Y-82606189D01*
X177478416Y-82585239D01*
X177498791Y-82571625D01*
X177516118Y-82554298D01*
X177529732Y-82533924D01*
X177539109Y-82511285D01*
X177543890Y-82487252D01*
X177543890Y-82462748D01*
X177539110Y-82438714D01*
X177529733Y-82416076D01*
X177516119Y-82395701D01*
X177498792Y-82378374D01*
X177478418Y-82364760D01*
X177455779Y-82355383D01*
X177431746Y-82350602D01*
X177419493Y-82350000D01*
X177000000Y-82350000D01*
X177000000Y-80150000D01*
X180800000Y-80150000D01*
X180800000Y-82350000D01*
X180800000Y-82350000D01*
G37*
G36*
X108507848Y-79048427D02*
G01*
X108507851Y-79048428D01*
X108507852Y-79048428D01*
X108800028Y-79137059D01*
X108800030Y-79137060D01*
X108800033Y-79137061D01*
X109069298Y-79280986D01*
X109305319Y-79474681D01*
X109499014Y-79710701D01*
X109642939Y-79979966D01*
X109731573Y-80272151D01*
X109754000Y-80499858D01*
X109754000Y-81252141D01*
X109731573Y-81479850D01*
X109642940Y-81772032D01*
X109499014Y-82041299D01*
X109305319Y-82277319D01*
X109069299Y-82471014D01*
X108800034Y-82614939D01*
X108800031Y-82614940D01*
X108800029Y-82614941D01*
X108507853Y-82703572D01*
X108507852Y-82703572D01*
X108507849Y-82703573D01*
X108204000Y-82733499D01*
X107900152Y-82703573D01*
X107900149Y-82703572D01*
X107900148Y-82703572D01*
X107607972Y-82614941D01*
X107607970Y-82614940D01*
X107607967Y-82614939D01*
X107338702Y-82471014D01*
X107102681Y-82277319D01*
X106908986Y-82041299D01*
X106765061Y-81772034D01*
X106676427Y-81479849D01*
X106654000Y-81252142D01*
X106654000Y-80499859D01*
X106676427Y-80272152D01*
X106676428Y-80272148D01*
X106765059Y-79979972D01*
X106765060Y-79979970D01*
X106765061Y-79979967D01*
X106908986Y-79710702D01*
X107102681Y-79474681D01*
X107338701Y-79280986D01*
X107607966Y-79137061D01*
X107607969Y-79137060D01*
X107607971Y-79137059D01*
X107900147Y-79048428D01*
X107900148Y-79048428D01*
X107900151Y-79048427D01*
X108204000Y-79018501D01*
X108507848Y-79048427D01*
X108507848Y-79048427D01*
G37*
G36*
X184268622Y-75968017D02*
G01*
X184316585Y-75982566D01*
X184360778Y-76006188D01*
X184399519Y-76037981D01*
X184431312Y-76076722D01*
X184454934Y-76120915D01*
X184469483Y-76168878D01*
X184475000Y-76224891D01*
X184475000Y-76975109D01*
X184469483Y-77031122D01*
X184454934Y-77079085D01*
X184431312Y-77123278D01*
X184399519Y-77162019D01*
X184360778Y-77193812D01*
X184316585Y-77217434D01*
X184268622Y-77231983D01*
X184212609Y-77237500D01*
X183387391Y-77237500D01*
X183331378Y-77231983D01*
X183283415Y-77217434D01*
X183239222Y-77193812D01*
X183200481Y-77162019D01*
X183168688Y-77123278D01*
X183145066Y-77079085D01*
X183130517Y-77031122D01*
X183125000Y-76975109D01*
X183125000Y-76224891D01*
X183130517Y-76168878D01*
X183145066Y-76120915D01*
X183168688Y-76076722D01*
X183200481Y-76037981D01*
X183239222Y-76006188D01*
X183283415Y-75982566D01*
X183331378Y-75968017D01*
X183387391Y-75962500D01*
X184212609Y-75962500D01*
X184268622Y-75968017D01*
X184268622Y-75968017D01*
G37*
G36*
X180269628Y-67180493D02*
G01*
X180317354Y-67194971D01*
X180361332Y-67218477D01*
X180399884Y-67250116D01*
X180431523Y-67288668D01*
X180455029Y-67332646D01*
X180469507Y-67380372D01*
X180475000Y-67436141D01*
X180475000Y-69963859D01*
X180469507Y-70019628D01*
X180455029Y-70067354D01*
X180431523Y-70111332D01*
X180399884Y-70149884D01*
X180361332Y-70181523D01*
X180317353Y-70205030D01*
X180316189Y-70205383D01*
X180293550Y-70214760D01*
X180273175Y-70228374D01*
X180255848Y-70245701D01*
X180242234Y-70266075D01*
X180232857Y-70288714D01*
X180228076Y-70312747D01*
X180228076Y-70337251D01*
X180232856Y-70361284D01*
X180242233Y-70383923D01*
X180255847Y-70404298D01*
X180273174Y-70421625D01*
X180293548Y-70435239D01*
X180316189Y-70444617D01*
X180317353Y-70444970D01*
X180361332Y-70468477D01*
X180399884Y-70500116D01*
X180431523Y-70538668D01*
X180455029Y-70582646D01*
X180469507Y-70630372D01*
X180475000Y-70686141D01*
X180475000Y-73213859D01*
X180469507Y-73269628D01*
X180455029Y-73317354D01*
X180431523Y-73361332D01*
X180399882Y-73399887D01*
X180365169Y-73428375D01*
X180347842Y-73445702D01*
X180334228Y-73466077D01*
X180324850Y-73488716D01*
X180320070Y-73512749D01*
X180320070Y-73537253D01*
X180324850Y-73561286D01*
X180334228Y-73583925D01*
X180347841Y-73604299D01*
X180365168Y-73621626D01*
X180385543Y-73635240D01*
X180408182Y-73644618D01*
X180432215Y-73649398D01*
X180444467Y-73650000D01*
X181655533Y-73650000D01*
X181679919Y-73647598D01*
X181703368Y-73640485D01*
X181724979Y-73628934D01*
X181743921Y-73613389D01*
X181759466Y-73594447D01*
X181771017Y-73572836D01*
X181778130Y-73549387D01*
X181780532Y-73525001D01*
X181778130Y-73500615D01*
X181771017Y-73477166D01*
X181759466Y-73455555D01*
X181743921Y-73436613D01*
X181734831Y-73428375D01*
X181700118Y-73399887D01*
X181668477Y-73361332D01*
X181644971Y-73317354D01*
X181630493Y-73269628D01*
X181625000Y-73213859D01*
X181625000Y-70686141D01*
X181630493Y-70630372D01*
X181644971Y-70582646D01*
X181668477Y-70538668D01*
X181700116Y-70500116D01*
X181738668Y-70468477D01*
X181782647Y-70444970D01*
X181783811Y-70444617D01*
X181806450Y-70435240D01*
X181826825Y-70421626D01*
X181844152Y-70404299D01*
X181857766Y-70383925D01*
X181867143Y-70361286D01*
X181871924Y-70337253D01*
X181871924Y-70312749D01*
X181867144Y-70288716D01*
X181857767Y-70266077D01*
X181844153Y-70245702D01*
X181826826Y-70228375D01*
X181806452Y-70214761D01*
X181783811Y-70205383D01*
X181782647Y-70205030D01*
X181738668Y-70181523D01*
X181700116Y-70149884D01*
X181668477Y-70111332D01*
X181644971Y-70067354D01*
X181630493Y-70019628D01*
X181625000Y-69963859D01*
X181625000Y-67436141D01*
X181630493Y-67380372D01*
X181644971Y-67332646D01*
X181668477Y-67288668D01*
X181700116Y-67250116D01*
X181738668Y-67218477D01*
X181782646Y-67194971D01*
X181830372Y-67180493D01*
X181886141Y-67175000D01*
X183013859Y-67175000D01*
X183069628Y-67180493D01*
X183117354Y-67194971D01*
X183161332Y-67218477D01*
X183199884Y-67250116D01*
X183231523Y-67288668D01*
X183255029Y-67332646D01*
X183269507Y-67380372D01*
X183275000Y-67436141D01*
X183275000Y-69963859D01*
X183269507Y-70019628D01*
X183255029Y-70067354D01*
X183231523Y-70111332D01*
X183199884Y-70149884D01*
X183161332Y-70181523D01*
X183117353Y-70205030D01*
X183116189Y-70205383D01*
X183093550Y-70214760D01*
X183073175Y-70228374D01*
X183055848Y-70245701D01*
X183042234Y-70266075D01*
X183032857Y-70288714D01*
X183028076Y-70312747D01*
X183028076Y-70337251D01*
X183032856Y-70361284D01*
X183042233Y-70383923D01*
X183055847Y-70404298D01*
X183073174Y-70421625D01*
X183093548Y-70435239D01*
X183116189Y-70444617D01*
X183117353Y-70444970D01*
X183161332Y-70468477D01*
X183199884Y-70500116D01*
X183231523Y-70538668D01*
X183255029Y-70582646D01*
X183269507Y-70630372D01*
X183275000Y-70686141D01*
X183275000Y-73213859D01*
X183269507Y-73269628D01*
X183255029Y-73317354D01*
X183231523Y-73361332D01*
X183199884Y-73399884D01*
X183161332Y-73431523D01*
X183117354Y-73455029D01*
X183069628Y-73469507D01*
X183013859Y-73475000D01*
X181974999Y-73475000D01*
X181950613Y-73477402D01*
X181927164Y-73484515D01*
X181905553Y-73496066D01*
X181886611Y-73511611D01*
X181871066Y-73530553D01*
X181859515Y-73552164D01*
X181852402Y-73575613D01*
X181850000Y-73599999D01*
X181850000Y-76250000D01*
X175950000Y-76250000D01*
X175950000Y-73650000D01*
X177005533Y-73650000D01*
X177029919Y-73647598D01*
X177053368Y-73640485D01*
X177074979Y-73628934D01*
X177093921Y-73613389D01*
X177109466Y-73594447D01*
X177121017Y-73572836D01*
X177128130Y-73549387D01*
X177130532Y-73525001D01*
X177129326Y-73512749D01*
X178470070Y-73512749D01*
X178470070Y-73537253D01*
X178474850Y-73561286D01*
X178484228Y-73583925D01*
X178497841Y-73604299D01*
X178515168Y-73621626D01*
X178535543Y-73635240D01*
X178558182Y-73644618D01*
X178582215Y-73649398D01*
X178594467Y-73650000D01*
X178855533Y-73650000D01*
X178879919Y-73647598D01*
X178903368Y-73640485D01*
X178924979Y-73628934D01*
X178943921Y-73613389D01*
X178959466Y-73594447D01*
X178971017Y-73572836D01*
X178978130Y-73549387D01*
X178980532Y-73525001D01*
X178978130Y-73500615D01*
X178971017Y-73477166D01*
X178959466Y-73455555D01*
X178943921Y-73436613D01*
X178934831Y-73428375D01*
X178900118Y-73399887D01*
X178868477Y-73361332D01*
X178844970Y-73317353D01*
X178844617Y-73316189D01*
X178835240Y-73293550D01*
X178821626Y-73273175D01*
X178804299Y-73255848D01*
X178783925Y-73242234D01*
X178761286Y-73232857D01*
X178737253Y-73228076D01*
X178712749Y-73228076D01*
X178688716Y-73232856D01*
X178666077Y-73242233D01*
X178645702Y-73255847D01*
X178628375Y-73273174D01*
X178614761Y-73293548D01*
X178605383Y-73316189D01*
X178605030Y-73317353D01*
X178581523Y-73361332D01*
X178549882Y-73399887D01*
X178515169Y-73428375D01*
X178497842Y-73445702D01*
X178484228Y-73466077D01*
X178474850Y-73488716D01*
X178470070Y-73512749D01*
X177129326Y-73512749D01*
X177128130Y-73500615D01*
X177121017Y-73477166D01*
X177109466Y-73455555D01*
X177093921Y-73436613D01*
X177084831Y-73428375D01*
X177050118Y-73399887D01*
X177018477Y-73361332D01*
X176994971Y-73317354D01*
X176980493Y-73269628D01*
X176975000Y-73213859D01*
X176975000Y-71586141D01*
X176980493Y-71530372D01*
X176994971Y-71482646D01*
X177018477Y-71438668D01*
X177050116Y-71400116D01*
X177088668Y-71368477D01*
X177132646Y-71344971D01*
X177180372Y-71330493D01*
X177236141Y-71325000D01*
X178363859Y-71325000D01*
X178419628Y-71330493D01*
X178467354Y-71344971D01*
X178511332Y-71368477D01*
X178549884Y-71400116D01*
X178581523Y-71438668D01*
X178589761Y-71454080D01*
X178603375Y-71474455D01*
X178620702Y-71491782D01*
X178641076Y-71505396D01*
X178663715Y-71514773D01*
X178687748Y-71519554D01*
X178712252Y-71519554D01*
X178736286Y-71514774D01*
X178758924Y-71505397D01*
X178779299Y-71491783D01*
X178796626Y-71474456D01*
X178810240Y-71454082D01*
X178819617Y-71431443D01*
X178824398Y-71407410D01*
X178825000Y-71395157D01*
X178825000Y-70686141D01*
X178830493Y-70630372D01*
X178844971Y-70582646D01*
X178868477Y-70538668D01*
X178900116Y-70500116D01*
X178938668Y-70468477D01*
X178982647Y-70444970D01*
X178983811Y-70444617D01*
X179006450Y-70435240D01*
X179026825Y-70421626D01*
X179044152Y-70404299D01*
X179057766Y-70383925D01*
X179067143Y-70361286D01*
X179071924Y-70337253D01*
X179071924Y-70312749D01*
X179067144Y-70288716D01*
X179057767Y-70266077D01*
X179044153Y-70245702D01*
X179026826Y-70228375D01*
X179006452Y-70214761D01*
X178983811Y-70205383D01*
X178982647Y-70205030D01*
X178938668Y-70181523D01*
X178900116Y-70149884D01*
X178868477Y-70111332D01*
X178844971Y-70067354D01*
X178830493Y-70019628D01*
X178825000Y-69963859D01*
X178825000Y-67436141D01*
X178830493Y-67380372D01*
X178844971Y-67332646D01*
X178868477Y-67288668D01*
X178900116Y-67250116D01*
X178938668Y-67218477D01*
X178982646Y-67194971D01*
X179030372Y-67180493D01*
X179086141Y-67175000D01*
X180213859Y-67175000D01*
X180269628Y-67180493D01*
X180269628Y-67180493D01*
G37*
G36*
X184268622Y-74393017D02*
G01*
X184316585Y-74407566D01*
X184360778Y-74431188D01*
X184399519Y-74462981D01*
X184431312Y-74501722D01*
X184454934Y-74545915D01*
X184469483Y-74593878D01*
X184475000Y-74649891D01*
X184475000Y-75400109D01*
X184469483Y-75456122D01*
X184454934Y-75504085D01*
X184431312Y-75548278D01*
X184399519Y-75587019D01*
X184360778Y-75618812D01*
X184316585Y-75642434D01*
X184268622Y-75656983D01*
X184212609Y-75662500D01*
X183387391Y-75662500D01*
X183331378Y-75656983D01*
X183283415Y-75642434D01*
X183239222Y-75618812D01*
X183200481Y-75587019D01*
X183168688Y-75548278D01*
X183145066Y-75504085D01*
X183130517Y-75456122D01*
X183125000Y-75400109D01*
X183125000Y-74649891D01*
X183130517Y-74593878D01*
X183145066Y-74545915D01*
X183168688Y-74501722D01*
X183200481Y-74462981D01*
X183239222Y-74431188D01*
X183283415Y-74407566D01*
X183331378Y-74393017D01*
X183387391Y-74387500D01*
X184212609Y-74387500D01*
X184268622Y-74393017D01*
X184268622Y-74393017D01*
G37*
G36*
X129355194Y-71098715D02*
G01*
X128260729Y-74105731D01*
X124924820Y-72891559D01*
X126019285Y-69884543D01*
X129355194Y-71098715D01*
X129355194Y-71098715D01*
G37*
G36*
X138449000Y-73908000D02*
G01*
X136699000Y-73908000D01*
X136699000Y-72158000D01*
X138449000Y-72158000D01*
X138449000Y-73908000D01*
X138449000Y-73908000D01*
G37*
G36*
X146449000Y-73908000D02*
G01*
X144699000Y-73908000D01*
X144699000Y-72158000D01*
X146449000Y-72158000D01*
X146449000Y-73908000D01*
X146449000Y-73908000D01*
G37*
G36*
X148449000Y-73908000D02*
G01*
X146699000Y-73908000D01*
X146699000Y-72158000D01*
X148449000Y-72158000D01*
X148449000Y-73908000D01*
X148449000Y-73908000D01*
G37*
G36*
X150449000Y-73908000D02*
G01*
X148699000Y-73908000D01*
X148699000Y-72158000D01*
X150449000Y-72158000D01*
X150449000Y-73908000D01*
X150449000Y-73908000D01*
G37*
G36*
X154449000Y-73908000D02*
G01*
X152699000Y-73908000D01*
X152699000Y-72158000D01*
X154449000Y-72158000D01*
X154449000Y-73908000D01*
X154449000Y-73908000D01*
G37*
G36*
X156449000Y-73908000D02*
G01*
X154699000Y-73908000D01*
X154699000Y-72158000D01*
X156449000Y-72158000D01*
X156449000Y-73908000D01*
X156449000Y-73908000D01*
G37*
G36*
X160449000Y-73908000D02*
G01*
X158699000Y-73908000D01*
X158699000Y-72158000D01*
X160449000Y-72158000D01*
X160449000Y-73908000D01*
X160449000Y-73908000D01*
G37*
G36*
X162449000Y-73908000D02*
G01*
X160699000Y-73908000D01*
X160699000Y-72158000D01*
X162449000Y-72158000D01*
X162449000Y-73908000D01*
X162449000Y-73908000D01*
G37*
G36*
X164449000Y-73908000D02*
G01*
X162699000Y-73908000D01*
X162699000Y-72158000D01*
X164449000Y-72158000D01*
X164449000Y-73908000D01*
X164449000Y-73908000D01*
G37*
G36*
X140449000Y-73908000D02*
G01*
X138699000Y-73908000D01*
X138699000Y-72158000D01*
X140449000Y-72158000D01*
X140449000Y-73908000D01*
X140449000Y-73908000D01*
G37*
G36*
X136449000Y-73908000D02*
G01*
X134699000Y-73908000D01*
X134699000Y-72158000D01*
X136449000Y-72158000D01*
X136449000Y-73908000D01*
X136449000Y-73908000D01*
G37*
G36*
X134449000Y-73908000D02*
G01*
X132699000Y-73908000D01*
X132699000Y-72158000D01*
X134449000Y-72158000D01*
X134449000Y-73908000D01*
X134449000Y-73908000D01*
G37*
G36*
X158449000Y-73908000D02*
G01*
X156699000Y-73908000D01*
X156699000Y-72158000D01*
X158449000Y-72158000D01*
X158449000Y-73908000D01*
X158449000Y-73908000D01*
G37*
G36*
X152449000Y-73908000D02*
G01*
X150699000Y-73908000D01*
X150699000Y-72158000D01*
X152449000Y-72158000D01*
X152449000Y-73908000D01*
X152449000Y-73908000D01*
G37*
G36*
X144449000Y-73908000D02*
G01*
X142699000Y-73908000D01*
X142699000Y-72158000D01*
X144449000Y-72158000D01*
X144449000Y-73908000D01*
X144449000Y-73908000D01*
G37*
G36*
X142449000Y-73908000D02*
G01*
X140699000Y-73908000D01*
X140699000Y-72158000D01*
X142449000Y-72158000D01*
X142449000Y-73908000D01*
X142449000Y-73908000D01*
G37*
G36*
X175619628Y-71330493D02*
G01*
X175667354Y-71344971D01*
X175711332Y-71368477D01*
X175749884Y-71400116D01*
X175781523Y-71438668D01*
X175805029Y-71482646D01*
X175819507Y-71530372D01*
X175825000Y-71586141D01*
X175825000Y-73213859D01*
X175819507Y-73269628D01*
X175805029Y-73317354D01*
X175781523Y-73361332D01*
X175749884Y-73399884D01*
X175711332Y-73431523D01*
X175667354Y-73455029D01*
X175619628Y-73469507D01*
X175563859Y-73475000D01*
X174436141Y-73475000D01*
X174380372Y-73469507D01*
X174332646Y-73455029D01*
X174288668Y-73431523D01*
X174250116Y-73399884D01*
X174218477Y-73361332D01*
X174194971Y-73317354D01*
X174180493Y-73269628D01*
X174175000Y-73213859D01*
X174175000Y-71586141D01*
X174180493Y-71530372D01*
X174194971Y-71482646D01*
X174218477Y-71438668D01*
X174250116Y-71400116D01*
X174288668Y-71368477D01*
X174332646Y-71344971D01*
X174380372Y-71330493D01*
X174436141Y-71325000D01*
X175563859Y-71325000D01*
X175619628Y-71330493D01*
X175619628Y-71330493D01*
G37*
G36*
X124045931Y-69166301D02*
G01*
X122951466Y-72173317D01*
X119615557Y-70959145D01*
X120710022Y-67952129D01*
X124045931Y-69166301D01*
X124045931Y-69166301D01*
G37*
G36*
X161418622Y-62443017D02*
G01*
X161466585Y-62457566D01*
X161510778Y-62481188D01*
X161549519Y-62512981D01*
X161581312Y-62551722D01*
X161604934Y-62595915D01*
X161619483Y-62643878D01*
X161625000Y-62699891D01*
X161625000Y-63450109D01*
X161619483Y-63506122D01*
X161604934Y-63554085D01*
X161581312Y-63598278D01*
X161549519Y-63637019D01*
X161510778Y-63668812D01*
X161466585Y-63692434D01*
X161416767Y-63707546D01*
X161394128Y-63716924D01*
X161373753Y-63730538D01*
X161356426Y-63747865D01*
X161342813Y-63768239D01*
X161333435Y-63790878D01*
X161328655Y-63814911D01*
X161328655Y-63839415D01*
X161333435Y-63863448D01*
X161342813Y-63886087D01*
X161356427Y-63906462D01*
X161373754Y-63923789D01*
X161394128Y-63937402D01*
X161416767Y-63946780D01*
X161440800Y-63951560D01*
X161465306Y-63951560D01*
X161481143Y-63950000D01*
X161918862Y-63950000D01*
X161937749Y-63951860D01*
X161962251Y-63951860D01*
X161981138Y-63950000D01*
X162418862Y-63950000D01*
X162437749Y-63951860D01*
X162462251Y-63951860D01*
X162481138Y-63950000D01*
X162918862Y-63950000D01*
X162944392Y-63952514D01*
X162963035Y-63958170D01*
X162980222Y-63967357D01*
X162995283Y-63979717D01*
X163007643Y-63994778D01*
X163016830Y-64011965D01*
X163022486Y-64030608D01*
X163025000Y-64056138D01*
X163025000Y-64800001D01*
X163027402Y-64824387D01*
X163034515Y-64847836D01*
X163046066Y-64869447D01*
X163061611Y-64888389D01*
X163080553Y-64903934D01*
X163102164Y-64915485D01*
X163125613Y-64922598D01*
X163149999Y-64925000D01*
X163893862Y-64925000D01*
X163919392Y-64927514D01*
X163938035Y-64933170D01*
X163955222Y-64942357D01*
X163970283Y-64954717D01*
X163982643Y-64969778D01*
X163991830Y-64986965D01*
X163997486Y-65005608D01*
X164000000Y-65031138D01*
X164000000Y-65468862D01*
X163998140Y-65487749D01*
X163998140Y-65512251D01*
X164000000Y-65531138D01*
X164000000Y-65968862D01*
X163998140Y-65987749D01*
X163998140Y-66012251D01*
X164000000Y-66031138D01*
X164000000Y-66468862D01*
X163998140Y-66487749D01*
X163998140Y-66512251D01*
X164000000Y-66531138D01*
X164000000Y-66968862D01*
X163998140Y-66987749D01*
X163998140Y-67012251D01*
X164000000Y-67031138D01*
X164000000Y-67468862D01*
X163998140Y-67487749D01*
X163998140Y-67512251D01*
X164000000Y-67531138D01*
X164000000Y-67968862D01*
X163997486Y-67994392D01*
X163991830Y-68013035D01*
X163982643Y-68030222D01*
X163970283Y-68045283D01*
X163955222Y-68057643D01*
X163938035Y-68066830D01*
X163919392Y-68072486D01*
X163893862Y-68075000D01*
X163149999Y-68075000D01*
X163125613Y-68077402D01*
X163102164Y-68084515D01*
X163080553Y-68096066D01*
X163061611Y-68111611D01*
X163046066Y-68130553D01*
X163034515Y-68152164D01*
X163027402Y-68175613D01*
X163025000Y-68199999D01*
X163025000Y-68943862D01*
X163022486Y-68969392D01*
X163016830Y-68988035D01*
X163007643Y-69005222D01*
X162995283Y-69020283D01*
X162980222Y-69032643D01*
X162963035Y-69041830D01*
X162944392Y-69047486D01*
X162918862Y-69050000D01*
X162481138Y-69050000D01*
X162462251Y-69048140D01*
X162437749Y-69048140D01*
X162418862Y-69050000D01*
X161981138Y-69050000D01*
X161962251Y-69048140D01*
X161937749Y-69048140D01*
X161918862Y-69050000D01*
X161481138Y-69050000D01*
X161462251Y-69048140D01*
X161437749Y-69048140D01*
X161418862Y-69050000D01*
X160981138Y-69050000D01*
X160962251Y-69048140D01*
X160937749Y-69048140D01*
X160918862Y-69050000D01*
X160481138Y-69050000D01*
X160462251Y-69048140D01*
X160437749Y-69048140D01*
X160418862Y-69050000D01*
X159981138Y-69050000D01*
X159955608Y-69047486D01*
X159936965Y-69041830D01*
X159919778Y-69032643D01*
X159904717Y-69020283D01*
X159892357Y-69005222D01*
X159883170Y-68988035D01*
X159877514Y-68969392D01*
X159875000Y-68943862D01*
X159875000Y-68199999D01*
X159872598Y-68175613D01*
X159865485Y-68152164D01*
X159853934Y-68130553D01*
X159838389Y-68111611D01*
X159819447Y-68096066D01*
X159797836Y-68084515D01*
X159774387Y-68077402D01*
X159750001Y-68075000D01*
X159006138Y-68075000D01*
X158980608Y-68072486D01*
X158961965Y-68066830D01*
X158944778Y-68057643D01*
X158929717Y-68045283D01*
X158917357Y-68030222D01*
X158908170Y-68013035D01*
X158902514Y-67994392D01*
X158900000Y-67968862D01*
X158900000Y-67531138D01*
X158901860Y-67512251D01*
X158901860Y-67487749D01*
X158900000Y-67468862D01*
X158900000Y-67031138D01*
X158901860Y-67012251D01*
X158901860Y-66987749D01*
X158900000Y-66968862D01*
X158900000Y-66531138D01*
X158901860Y-66512251D01*
X158901860Y-66487749D01*
X158900000Y-66468862D01*
X158900000Y-66031138D01*
X158901860Y-66012251D01*
X158901860Y-65987749D01*
X158900000Y-65968862D01*
X158900000Y-65531138D01*
X158901860Y-65512251D01*
X158901860Y-65487749D01*
X158900000Y-65468862D01*
X158900000Y-65031138D01*
X158902514Y-65005608D01*
X158908170Y-64986965D01*
X158917357Y-64969778D01*
X158929717Y-64954717D01*
X158944778Y-64942357D01*
X158961965Y-64933170D01*
X158980608Y-64927514D01*
X159006138Y-64925000D01*
X159750001Y-64925000D01*
X159774387Y-64922598D01*
X159797836Y-64915485D01*
X159819447Y-64903934D01*
X159838389Y-64888389D01*
X159853934Y-64869447D01*
X159865485Y-64847836D01*
X159872598Y-64824387D01*
X159875000Y-64800001D01*
X159875000Y-64056138D01*
X159877514Y-64030608D01*
X159883170Y-64011965D01*
X159892357Y-63994778D01*
X159904717Y-63979717D01*
X159919778Y-63967357D01*
X159936965Y-63958170D01*
X159955608Y-63952514D01*
X159981138Y-63950000D01*
X160418857Y-63950000D01*
X160434694Y-63951560D01*
X160459198Y-63951560D01*
X160483232Y-63946780D01*
X160505871Y-63937403D01*
X160526245Y-63923790D01*
X160543572Y-63906463D01*
X160557186Y-63886089D01*
X160566564Y-63863450D01*
X160571345Y-63839417D01*
X160571345Y-63814913D01*
X160566565Y-63790879D01*
X160557188Y-63768240D01*
X160543575Y-63747866D01*
X160526248Y-63730539D01*
X160505874Y-63716925D01*
X160483233Y-63707546D01*
X160433415Y-63692434D01*
X160389222Y-63668812D01*
X160350481Y-63637019D01*
X160318688Y-63598278D01*
X160295066Y-63554085D01*
X160280517Y-63506122D01*
X160275000Y-63450109D01*
X160275000Y-62699891D01*
X160280517Y-62643878D01*
X160295066Y-62595915D01*
X160318688Y-62551722D01*
X160350481Y-62512981D01*
X160389222Y-62481188D01*
X160433415Y-62457566D01*
X160481378Y-62443017D01*
X160537391Y-62437500D01*
X161362609Y-62437500D01*
X161418622Y-62443017D01*
X161418622Y-62443017D01*
G37*
G36*
X173218622Y-65080517D02*
G01*
X173266585Y-65095066D01*
X173310778Y-65118688D01*
X173349519Y-65150481D01*
X173381312Y-65189222D01*
X173404934Y-65233415D01*
X173419483Y-65281378D01*
X173425000Y-65337391D01*
X173425000Y-66162609D01*
X173419483Y-66218622D01*
X173404934Y-66266585D01*
X173381312Y-66310778D01*
X173349519Y-66349519D01*
X173308199Y-66383428D01*
X173293348Y-66393351D01*
X173276021Y-66410678D01*
X173262407Y-66431052D01*
X173253029Y-66453690D01*
X173248248Y-66477724D01*
X173248248Y-66502228D01*
X173253028Y-66526261D01*
X173262405Y-66548900D01*
X173276018Y-66569275D01*
X173293345Y-66586602D01*
X173313722Y-66600218D01*
X173348280Y-66618689D01*
X173387019Y-66650481D01*
X173418812Y-66689222D01*
X173442434Y-66733415D01*
X173456983Y-66781378D01*
X173462500Y-66837391D01*
X173462500Y-67662609D01*
X173456983Y-67718622D01*
X173442434Y-67766585D01*
X173418812Y-67810778D01*
X173387019Y-67849519D01*
X173348278Y-67881312D01*
X173304085Y-67904934D01*
X173256122Y-67919483D01*
X173200109Y-67925000D01*
X172449891Y-67925000D01*
X172393878Y-67919483D01*
X172345915Y-67904934D01*
X172301722Y-67881312D01*
X172262981Y-67849519D01*
X172231188Y-67810778D01*
X172207566Y-67766585D01*
X172193017Y-67718622D01*
X172187500Y-67662609D01*
X172187500Y-66837391D01*
X172193017Y-66781378D01*
X172207566Y-66733415D01*
X172231188Y-66689222D01*
X172262981Y-66650481D01*
X172304301Y-66616572D01*
X172319152Y-66606649D01*
X172336479Y-66589322D01*
X172350093Y-66568948D01*
X172359471Y-66546310D01*
X172364252Y-66522276D01*
X172364252Y-66497772D01*
X172359472Y-66473739D01*
X172350095Y-66451100D01*
X172336482Y-66430725D01*
X172319155Y-66413398D01*
X172298778Y-66399782D01*
X172264220Y-66381311D01*
X172225481Y-66349519D01*
X172193688Y-66310778D01*
X172170066Y-66266585D01*
X172155517Y-66218622D01*
X172150000Y-66162609D01*
X172150000Y-65337391D01*
X172155517Y-65281378D01*
X172170066Y-65233415D01*
X172193688Y-65189222D01*
X172225481Y-65150481D01*
X172264222Y-65118688D01*
X172308415Y-65095066D01*
X172356378Y-65080517D01*
X172412391Y-65075000D01*
X173162609Y-65075000D01*
X173218622Y-65080517D01*
X173218622Y-65080517D01*
G37*
G36*
X171643622Y-65080517D02*
G01*
X171691585Y-65095066D01*
X171735778Y-65118688D01*
X171774519Y-65150481D01*
X171806312Y-65189222D01*
X171829934Y-65233415D01*
X171844483Y-65281378D01*
X171850000Y-65337391D01*
X171850000Y-66162609D01*
X171844483Y-66218622D01*
X171829934Y-66266585D01*
X171806312Y-66310778D01*
X171774519Y-66349519D01*
X171733199Y-66383428D01*
X171718348Y-66393351D01*
X171701021Y-66410678D01*
X171687407Y-66431052D01*
X171678029Y-66453690D01*
X171673248Y-66477724D01*
X171673248Y-66502228D01*
X171678028Y-66526261D01*
X171687405Y-66548900D01*
X171701018Y-66569275D01*
X171718345Y-66586602D01*
X171738722Y-66600218D01*
X171773280Y-66618689D01*
X171812019Y-66650481D01*
X171843812Y-66689222D01*
X171867434Y-66733415D01*
X171881983Y-66781378D01*
X171887500Y-66837391D01*
X171887500Y-67662609D01*
X171881983Y-67718622D01*
X171867434Y-67766585D01*
X171843812Y-67810778D01*
X171812019Y-67849519D01*
X171773278Y-67881312D01*
X171729085Y-67904934D01*
X171681122Y-67919483D01*
X171625109Y-67925000D01*
X170874891Y-67925000D01*
X170818878Y-67919483D01*
X170770915Y-67904934D01*
X170726722Y-67881312D01*
X170687981Y-67849519D01*
X170656188Y-67810778D01*
X170632566Y-67766585D01*
X170618017Y-67718622D01*
X170612500Y-67662609D01*
X170612500Y-66837391D01*
X170618017Y-66781378D01*
X170632566Y-66733415D01*
X170656188Y-66689222D01*
X170687981Y-66650481D01*
X170729301Y-66616572D01*
X170744152Y-66606649D01*
X170761479Y-66589322D01*
X170775093Y-66568948D01*
X170784471Y-66546310D01*
X170789252Y-66522276D01*
X170789252Y-66497772D01*
X170784472Y-66473739D01*
X170775095Y-66451100D01*
X170761482Y-66430725D01*
X170744155Y-66413398D01*
X170723778Y-66399782D01*
X170689220Y-66381311D01*
X170650481Y-66349519D01*
X170618688Y-66310778D01*
X170595066Y-66266585D01*
X170580517Y-66218622D01*
X170575000Y-66162609D01*
X170575000Y-65337391D01*
X170580517Y-65281378D01*
X170595066Y-65233415D01*
X170618688Y-65189222D01*
X170650481Y-65150481D01*
X170689222Y-65118688D01*
X170733415Y-65095066D01*
X170781378Y-65080517D01*
X170837391Y-65075000D01*
X171587609Y-65075000D01*
X171643622Y-65080517D01*
X171643622Y-65080517D01*
G37*
G36*
X118400000Y-67230000D02*
G01*
X115180000Y-67230000D01*
X115180000Y-65430000D01*
X118400000Y-65430000D01*
X118400000Y-67230000D01*
X118400000Y-67230000D01*
G37*
G36*
X178550000Y-66850000D02*
G01*
X176750000Y-66850000D01*
X176750000Y-65450000D01*
X178550000Y-65450000D01*
X178550000Y-66850000D01*
X178550000Y-66850000D01*
G37*
G36*
X180750000Y-66770000D02*
G01*
X178950000Y-66770000D01*
X178950000Y-63550000D01*
X180750000Y-63550000D01*
X180750000Y-66770000D01*
X180750000Y-66770000D01*
G37*
G36*
X120143622Y-63330517D02*
G01*
X120191585Y-63345066D01*
X120235778Y-63368688D01*
X120274519Y-63400481D01*
X120306312Y-63439222D01*
X120329934Y-63483415D01*
X120344483Y-63531378D01*
X120350000Y-63587391D01*
X120350000Y-64412609D01*
X120344483Y-64468622D01*
X120329934Y-64516585D01*
X120306312Y-64560778D01*
X120274519Y-64599519D01*
X120235780Y-64631311D01*
X120219972Y-64639760D01*
X120199597Y-64653374D01*
X120182270Y-64670701D01*
X120168656Y-64691075D01*
X120159279Y-64713714D01*
X120154498Y-64737747D01*
X120154498Y-64762251D01*
X120159278Y-64786284D01*
X120168655Y-64808923D01*
X120182269Y-64829298D01*
X120199596Y-64846625D01*
X120219972Y-64860240D01*
X120235780Y-64868689D01*
X120274519Y-64900481D01*
X120306312Y-64939222D01*
X120329934Y-64983415D01*
X120344483Y-65031378D01*
X120350000Y-65087391D01*
X120350000Y-65912609D01*
X120344483Y-65968622D01*
X120329934Y-66016585D01*
X120306312Y-66060778D01*
X120274519Y-66099519D01*
X120235778Y-66131312D01*
X120191585Y-66154934D01*
X120143622Y-66169483D01*
X120087609Y-66175000D01*
X119337391Y-66175000D01*
X119281378Y-66169483D01*
X119233415Y-66154934D01*
X119189222Y-66131312D01*
X119150481Y-66099519D01*
X119118688Y-66060778D01*
X119095066Y-66016585D01*
X119080517Y-65968622D01*
X119075000Y-65912609D01*
X119075000Y-65087391D01*
X119080517Y-65031378D01*
X119095066Y-64983415D01*
X119118688Y-64939222D01*
X119150481Y-64900481D01*
X119189220Y-64868689D01*
X119205028Y-64860240D01*
X119225403Y-64846626D01*
X119242730Y-64829299D01*
X119256344Y-64808925D01*
X119265721Y-64786286D01*
X119270502Y-64762253D01*
X119270502Y-64737749D01*
X119265722Y-64713716D01*
X119256345Y-64691077D01*
X119242731Y-64670702D01*
X119225404Y-64653375D01*
X119205028Y-64639760D01*
X119189220Y-64631311D01*
X119150481Y-64599519D01*
X119118688Y-64560778D01*
X119095066Y-64516585D01*
X119080517Y-64468622D01*
X119075000Y-64412609D01*
X119075000Y-63587391D01*
X119080517Y-63531378D01*
X119095066Y-63483415D01*
X119118688Y-63439222D01*
X119150481Y-63400481D01*
X119189222Y-63368688D01*
X119233415Y-63345066D01*
X119281378Y-63330517D01*
X119337391Y-63325000D01*
X120087609Y-63325000D01*
X120143622Y-63330517D01*
X120143622Y-63330517D01*
G37*
G36*
X121718622Y-63330517D02*
G01*
X121766585Y-63345066D01*
X121810778Y-63368688D01*
X121849519Y-63400481D01*
X121881312Y-63439222D01*
X121904934Y-63483415D01*
X121919483Y-63531378D01*
X121925000Y-63587391D01*
X121925000Y-64412609D01*
X121919483Y-64468622D01*
X121904934Y-64516585D01*
X121881312Y-64560778D01*
X121849519Y-64599519D01*
X121810780Y-64631311D01*
X121794972Y-64639760D01*
X121774597Y-64653374D01*
X121757270Y-64670701D01*
X121743656Y-64691075D01*
X121734279Y-64713714D01*
X121729498Y-64737747D01*
X121729498Y-64762251D01*
X121734278Y-64786284D01*
X121743655Y-64808923D01*
X121757269Y-64829298D01*
X121774596Y-64846625D01*
X121794972Y-64860240D01*
X121810780Y-64868689D01*
X121849519Y-64900481D01*
X121881312Y-64939222D01*
X121904934Y-64983415D01*
X121919483Y-65031378D01*
X121925000Y-65087391D01*
X121925000Y-65912609D01*
X121919483Y-65968622D01*
X121904934Y-66016585D01*
X121881312Y-66060778D01*
X121849519Y-66099519D01*
X121810778Y-66131312D01*
X121766585Y-66154934D01*
X121718622Y-66169483D01*
X121662609Y-66175000D01*
X120912391Y-66175000D01*
X120856378Y-66169483D01*
X120808415Y-66154934D01*
X120764222Y-66131312D01*
X120725481Y-66099519D01*
X120693688Y-66060778D01*
X120670066Y-66016585D01*
X120655517Y-65968622D01*
X120650000Y-65912609D01*
X120650000Y-65087391D01*
X120655517Y-65031378D01*
X120670066Y-64983415D01*
X120693688Y-64939222D01*
X120725481Y-64900481D01*
X120764220Y-64868689D01*
X120780028Y-64860240D01*
X120800403Y-64846626D01*
X120817730Y-64829299D01*
X120831344Y-64808925D01*
X120840721Y-64786286D01*
X120845502Y-64762253D01*
X120845502Y-64737749D01*
X120840722Y-64713716D01*
X120831345Y-64691077D01*
X120817731Y-64670702D01*
X120800404Y-64653375D01*
X120780028Y-64639760D01*
X120764220Y-64631311D01*
X120725481Y-64599519D01*
X120693688Y-64560778D01*
X120670066Y-64516585D01*
X120655517Y-64468622D01*
X120650000Y-64412609D01*
X120650000Y-63587391D01*
X120655517Y-63531378D01*
X120670066Y-63483415D01*
X120693688Y-63439222D01*
X120725481Y-63400481D01*
X120764222Y-63368688D01*
X120808415Y-63345066D01*
X120856378Y-63330517D01*
X120912391Y-63325000D01*
X121662609Y-63325000D01*
X121718622Y-63330517D01*
X121718622Y-63330517D01*
G37*
G36*
X118400000Y-65030000D02*
G01*
X117000000Y-65030000D01*
X117000000Y-63230000D01*
X118400000Y-63230000D01*
X118400000Y-65030000D01*
X118400000Y-65030000D01*
G37*
G36*
X116500000Y-65030000D02*
G01*
X115100000Y-65030000D01*
X115100000Y-63230000D01*
X116500000Y-63230000D01*
X116500000Y-65030000D01*
X116500000Y-65030000D01*
G37*
G36*
X178550000Y-64950000D02*
G01*
X176750000Y-64950000D01*
X176750000Y-63550000D01*
X178550000Y-63550000D01*
X178550000Y-64950000D01*
X178550000Y-64950000D01*
G37*
G36*
X174462807Y-57371330D02*
G01*
X174791243Y-57436660D01*
X175127806Y-57576069D01*
X175407798Y-57692045D01*
X175410004Y-57692959D01*
X175641503Y-57847642D01*
X175966873Y-58065047D01*
X176440453Y-58538627D01*
X176625234Y-58815172D01*
X176800180Y-59076996D01*
X176812542Y-59095498D01*
X176848484Y-59182271D01*
X177047624Y-59663036D01*
X177068840Y-59714258D01*
X177199500Y-60371128D01*
X177199500Y-61040872D01*
X177179036Y-61143750D01*
X177068840Y-61697743D01*
X176952304Y-61979085D01*
X176835013Y-62262253D01*
X176812541Y-62316504D01*
X176669313Y-62530860D01*
X176440453Y-62873373D01*
X175966873Y-63346953D01*
X175714280Y-63515730D01*
X175410004Y-63719041D01*
X175410003Y-63719042D01*
X175410002Y-63719042D01*
X175291227Y-63768240D01*
X174791243Y-63975340D01*
X174555561Y-64022220D01*
X174134372Y-64106000D01*
X173464628Y-64106000D01*
X173043439Y-64022220D01*
X172807757Y-63975340D01*
X172307773Y-63768240D01*
X172188998Y-63719042D01*
X172188997Y-63719042D01*
X172188996Y-63719041D01*
X171884720Y-63515730D01*
X171632127Y-63346953D01*
X171158547Y-62873373D01*
X170929687Y-62530860D01*
X170786459Y-62316504D01*
X170763988Y-62262253D01*
X170646696Y-61979085D01*
X170530160Y-61697743D01*
X170419964Y-61143750D01*
X170399500Y-61040872D01*
X170399500Y-60371128D01*
X170530160Y-59714258D01*
X170551377Y-59663036D01*
X170750516Y-59182271D01*
X170786458Y-59095498D01*
X170798821Y-59076996D01*
X170973766Y-58815172D01*
X171158547Y-58538627D01*
X171632127Y-58065047D01*
X171957497Y-57847642D01*
X172188996Y-57692959D01*
X172191203Y-57692045D01*
X172471194Y-57576069D01*
X172807757Y-57436660D01*
X173136193Y-57371330D01*
X173464628Y-57306000D01*
X174134372Y-57306000D01*
X174462807Y-57371330D01*
X174462807Y-57371330D01*
G37*
G36*
X125504307Y-57371330D02*
G01*
X125832743Y-57436660D01*
X126169306Y-57576069D01*
X126449298Y-57692045D01*
X126451504Y-57692959D01*
X126683003Y-57847642D01*
X127008373Y-58065047D01*
X127481953Y-58538627D01*
X127666734Y-58815172D01*
X127841680Y-59076996D01*
X127854042Y-59095498D01*
X127889984Y-59182271D01*
X128089124Y-59663036D01*
X128110340Y-59714258D01*
X128241000Y-60371128D01*
X128241000Y-61040872D01*
X128220536Y-61143750D01*
X128110340Y-61697743D01*
X127993804Y-61979085D01*
X127876513Y-62262253D01*
X127854041Y-62316504D01*
X127710813Y-62530860D01*
X127481953Y-62873373D01*
X127008373Y-63346953D01*
X126755780Y-63515730D01*
X126451504Y-63719041D01*
X126451503Y-63719042D01*
X126451502Y-63719042D01*
X126332727Y-63768240D01*
X125832743Y-63975340D01*
X125597061Y-64022220D01*
X125175872Y-64106000D01*
X124506128Y-64106000D01*
X124084939Y-64022220D01*
X123849257Y-63975340D01*
X123349273Y-63768240D01*
X123230498Y-63719042D01*
X123230497Y-63719042D01*
X123230496Y-63719041D01*
X122926220Y-63515730D01*
X122673627Y-63346953D01*
X122200047Y-62873373D01*
X121971187Y-62530860D01*
X121827959Y-62316504D01*
X121805488Y-62262253D01*
X121688196Y-61979085D01*
X121571660Y-61697743D01*
X121461464Y-61143750D01*
X121441000Y-61040872D01*
X121441000Y-60371128D01*
X121571660Y-59714258D01*
X121592877Y-59663036D01*
X121792016Y-59182271D01*
X121827958Y-59095498D01*
X121840321Y-59076996D01*
X122015266Y-58815172D01*
X122200047Y-58538627D01*
X122673627Y-58065047D01*
X122998997Y-57847642D01*
X123230496Y-57692959D01*
X123232703Y-57692045D01*
X123512694Y-57576069D01*
X123849257Y-57436660D01*
X124177693Y-57371330D01*
X124506128Y-57306000D01*
X125175872Y-57306000D01*
X125504307Y-57371330D01*
X125504307Y-57371330D01*
G37*
G36*
X164956122Y-60830517D02*
G01*
X165004085Y-60845066D01*
X165048278Y-60868688D01*
X165087019Y-60900481D01*
X165118812Y-60939222D01*
X165142434Y-60983415D01*
X165156983Y-61031378D01*
X165162500Y-61087391D01*
X165162500Y-61912609D01*
X165156983Y-61968622D01*
X165142434Y-62016585D01*
X165118812Y-62060778D01*
X165087019Y-62099519D01*
X165048280Y-62131311D01*
X165032472Y-62139760D01*
X165012097Y-62153374D01*
X164994770Y-62170701D01*
X164981156Y-62191075D01*
X164971779Y-62213714D01*
X164966998Y-62237747D01*
X164966998Y-62262251D01*
X164971778Y-62286284D01*
X164981155Y-62308923D01*
X164994769Y-62329298D01*
X165012096Y-62346625D01*
X165032472Y-62360240D01*
X165048280Y-62368689D01*
X165087019Y-62400481D01*
X165118812Y-62439222D01*
X165142434Y-62483415D01*
X165156983Y-62531378D01*
X165162500Y-62587391D01*
X165162500Y-63412609D01*
X165156983Y-63468622D01*
X165142434Y-63516585D01*
X165118812Y-63560778D01*
X165087019Y-63599519D01*
X165048278Y-63631312D01*
X165004085Y-63654934D01*
X164956122Y-63669483D01*
X164900109Y-63675000D01*
X164149891Y-63675000D01*
X164093878Y-63669483D01*
X164045915Y-63654934D01*
X164001722Y-63631312D01*
X163962981Y-63599519D01*
X163931188Y-63560778D01*
X163907566Y-63516585D01*
X163893017Y-63468622D01*
X163887500Y-63412609D01*
X163887500Y-62587391D01*
X163893017Y-62531378D01*
X163907566Y-62483415D01*
X163931188Y-62439222D01*
X163962981Y-62400481D01*
X164001720Y-62368689D01*
X164017528Y-62360240D01*
X164037903Y-62346626D01*
X164055230Y-62329299D01*
X164068844Y-62308925D01*
X164078221Y-62286286D01*
X164083002Y-62262253D01*
X164083002Y-62237749D01*
X164078222Y-62213716D01*
X164068845Y-62191077D01*
X164055231Y-62170702D01*
X164037904Y-62153375D01*
X164017528Y-62139760D01*
X164001720Y-62131311D01*
X163962981Y-62099519D01*
X163931188Y-62060778D01*
X163907566Y-62016585D01*
X163893017Y-61968622D01*
X163887500Y-61912609D01*
X163887500Y-61087391D01*
X163893017Y-61031378D01*
X163907566Y-60983415D01*
X163931188Y-60939222D01*
X163962981Y-60900481D01*
X164001722Y-60868688D01*
X164045915Y-60845066D01*
X164093878Y-60830517D01*
X164149891Y-60825000D01*
X164900109Y-60825000D01*
X164956122Y-60830517D01*
X164956122Y-60830517D01*
G37*
G36*
X163381122Y-60830517D02*
G01*
X163429085Y-60845066D01*
X163473278Y-60868688D01*
X163512019Y-60900481D01*
X163543812Y-60939222D01*
X163567434Y-60983415D01*
X163581983Y-61031378D01*
X163587500Y-61087391D01*
X163587500Y-61912609D01*
X163581983Y-61968622D01*
X163567434Y-62016585D01*
X163543812Y-62060778D01*
X163512019Y-62099519D01*
X163473280Y-62131311D01*
X163457472Y-62139760D01*
X163437097Y-62153374D01*
X163419770Y-62170701D01*
X163406156Y-62191075D01*
X163396779Y-62213714D01*
X163391998Y-62237747D01*
X163391998Y-62262251D01*
X163396778Y-62286284D01*
X163406155Y-62308923D01*
X163419769Y-62329298D01*
X163437096Y-62346625D01*
X163457472Y-62360240D01*
X163473280Y-62368689D01*
X163512019Y-62400481D01*
X163543812Y-62439222D01*
X163567434Y-62483415D01*
X163581983Y-62531378D01*
X163587500Y-62587391D01*
X163587500Y-63412609D01*
X163581983Y-63468622D01*
X163567434Y-63516585D01*
X163543812Y-63560778D01*
X163512019Y-63599519D01*
X163473278Y-63631312D01*
X163429085Y-63654934D01*
X163381122Y-63669483D01*
X163325109Y-63675000D01*
X162574891Y-63675000D01*
X162518878Y-63669483D01*
X162470915Y-63654934D01*
X162426722Y-63631312D01*
X162387981Y-63599519D01*
X162356188Y-63560778D01*
X162332566Y-63516585D01*
X162318017Y-63468622D01*
X162312500Y-63412609D01*
X162312500Y-62587391D01*
X162318017Y-62531378D01*
X162332566Y-62483415D01*
X162356188Y-62439222D01*
X162387981Y-62400481D01*
X162426720Y-62368689D01*
X162442528Y-62360240D01*
X162462903Y-62346626D01*
X162480230Y-62329299D01*
X162493844Y-62308925D01*
X162503221Y-62286286D01*
X162508002Y-62262253D01*
X162508002Y-62237749D01*
X162503222Y-62213716D01*
X162493845Y-62191077D01*
X162480231Y-62170702D01*
X162462904Y-62153375D01*
X162442528Y-62139760D01*
X162426720Y-62131311D01*
X162387981Y-62099519D01*
X162356188Y-62060778D01*
X162332566Y-62016585D01*
X162318017Y-61968622D01*
X162312500Y-61912609D01*
X162312500Y-61087391D01*
X162318017Y-61031378D01*
X162332566Y-60983415D01*
X162356188Y-60939222D01*
X162387981Y-60900481D01*
X162426722Y-60868688D01*
X162470915Y-60845066D01*
X162518878Y-60830517D01*
X162574891Y-60825000D01*
X163325109Y-60825000D01*
X163381122Y-60830517D01*
X163381122Y-60830517D01*
G37*
G36*
X161418622Y-60868017D02*
G01*
X161466585Y-60882566D01*
X161510778Y-60906188D01*
X161549519Y-60937981D01*
X161581312Y-60976722D01*
X161604934Y-61020915D01*
X161619483Y-61068878D01*
X161625000Y-61124891D01*
X161625000Y-61875109D01*
X161619483Y-61931122D01*
X161604934Y-61979085D01*
X161581312Y-62023278D01*
X161549519Y-62062019D01*
X161510778Y-62093812D01*
X161466585Y-62117434D01*
X161418622Y-62131983D01*
X161362609Y-62137500D01*
X160537391Y-62137500D01*
X160481378Y-62131983D01*
X160433415Y-62117434D01*
X160389222Y-62093812D01*
X160350481Y-62062019D01*
X160318688Y-62023278D01*
X160295066Y-61979085D01*
X160280517Y-61931122D01*
X160275000Y-61875109D01*
X160275000Y-61124891D01*
X160280517Y-61068878D01*
X160295066Y-61020915D01*
X160318688Y-60976722D01*
X160350481Y-60937981D01*
X160389222Y-60906188D01*
X160433415Y-60882566D01*
X160481378Y-60868017D01*
X160537391Y-60862500D01*
X161362609Y-60862500D01*
X161418622Y-60868017D01*
X161418622Y-60868017D01*
G37*
G36*
X118126600Y-62001600D02*
G01*
X114873400Y-62001600D01*
X114873400Y-60298400D01*
X118126600Y-60298400D01*
X118126600Y-62001600D01*
X118126600Y-62001600D01*
G37*
G36*
X114099656Y-60986964D02*
G01*
X114178659Y-61010929D01*
X114251466Y-61049846D01*
X114315282Y-61102218D01*
X114367654Y-61166034D01*
X114406571Y-61238841D01*
X114430536Y-61317844D01*
X114438627Y-61400000D01*
X114430536Y-61482156D01*
X114406571Y-61561159D01*
X114367654Y-61633966D01*
X114315282Y-61697782D01*
X114251466Y-61750154D01*
X114178659Y-61789071D01*
X114099656Y-61813036D01*
X114038084Y-61819100D01*
X113361916Y-61819100D01*
X113300344Y-61813036D01*
X113221341Y-61789071D01*
X113148534Y-61750154D01*
X113084718Y-61697782D01*
X113032346Y-61633966D01*
X112993429Y-61561159D01*
X112969464Y-61482156D01*
X112961373Y-61400000D01*
X112969464Y-61317844D01*
X112993429Y-61238841D01*
X113032346Y-61166034D01*
X113084718Y-61102218D01*
X113148534Y-61049846D01*
X113221341Y-61010929D01*
X113300344Y-60986964D01*
X113361916Y-60980900D01*
X114038084Y-60980900D01*
X114099656Y-60986964D01*
X114099656Y-60986964D01*
G37*
G36*
X119674656Y-60986964D02*
G01*
X119753659Y-61010929D01*
X119826466Y-61049846D01*
X119890282Y-61102218D01*
X119942654Y-61166034D01*
X119981571Y-61238841D01*
X120005536Y-61317844D01*
X120013627Y-61400000D01*
X120005536Y-61482156D01*
X119981571Y-61561159D01*
X119942654Y-61633966D01*
X119890282Y-61697782D01*
X119826466Y-61750154D01*
X119753659Y-61789071D01*
X119674656Y-61813036D01*
X119613084Y-61819100D01*
X118936916Y-61819100D01*
X118875344Y-61813036D01*
X118796341Y-61789071D01*
X118723534Y-61750154D01*
X118659718Y-61697782D01*
X118607346Y-61633966D01*
X118568429Y-61561159D01*
X118544464Y-61482156D01*
X118536373Y-61400000D01*
X118544464Y-61317844D01*
X118568429Y-61238841D01*
X118607346Y-61166034D01*
X118659718Y-61102218D01*
X118723534Y-61049846D01*
X118796341Y-61010929D01*
X118875344Y-60986964D01*
X118936916Y-60980900D01*
X119613084Y-60980900D01*
X119674656Y-60986964D01*
X119674656Y-60986964D01*
G37*
G36*
X179372281Y-56045038D02*
G01*
X179491420Y-56068736D01*
X179659759Y-56138464D01*
X179811260Y-56239694D01*
X179940102Y-56368536D01*
X180041332Y-56520037D01*
X180111060Y-56688376D01*
X180111060Y-56688378D01*
X180124341Y-56755146D01*
X180131454Y-56778595D01*
X180143005Y-56800206D01*
X180158550Y-56819148D01*
X180177492Y-56834693D01*
X180199103Y-56846244D01*
X180222552Y-56853357D01*
X180246938Y-56855759D01*
X180271324Y-56853357D01*
X180294773Y-56846244D01*
X180316384Y-56834693D01*
X180335326Y-56819148D01*
X180346106Y-56806855D01*
X180388956Y-56751013D01*
X181023639Y-57238022D01*
X181539319Y-57633717D01*
X181616522Y-57692958D01*
X181974975Y-57968008D01*
X182536768Y-58399087D01*
X183086358Y-58820802D01*
X183086358Y-58820803D01*
X183044079Y-58875902D01*
X183031139Y-58896711D01*
X183022507Y-58919645D01*
X183018516Y-58943822D01*
X183019317Y-58968313D01*
X183024882Y-58992177D01*
X183034995Y-59014496D01*
X183049268Y-59034415D01*
X183067152Y-59051165D01*
X183087961Y-59064105D01*
X183110895Y-59072737D01*
X183143247Y-59076996D01*
X183279480Y-59076996D01*
X183339028Y-59088841D01*
X183458187Y-59112543D01*
X183626526Y-59182271D01*
X183778027Y-59283501D01*
X183906869Y-59412343D01*
X184008099Y-59563844D01*
X184077827Y-59732183D01*
X184113374Y-59910891D01*
X184113374Y-60093101D01*
X184077827Y-60271809D01*
X184008099Y-60440148D01*
X183906869Y-60591649D01*
X183778027Y-60720491D01*
X183626526Y-60821721D01*
X183458187Y-60891449D01*
X183339048Y-60915147D01*
X183279480Y-60926996D01*
X183097268Y-60926996D01*
X183037700Y-60915147D01*
X182918561Y-60891449D01*
X182750222Y-60821721D01*
X182598721Y-60720491D01*
X182469879Y-60591649D01*
X182368649Y-60440148D01*
X182298921Y-60271809D01*
X182285639Y-60205033D01*
X182278527Y-60181589D01*
X182266976Y-60159979D01*
X182251431Y-60141037D01*
X182232489Y-60125491D01*
X182210878Y-60113940D01*
X182187429Y-60106827D01*
X182163043Y-60104425D01*
X182138657Y-60106827D01*
X182115208Y-60113940D01*
X182093598Y-60125491D01*
X182074656Y-60141036D01*
X182063875Y-60153329D01*
X182021025Y-60209171D01*
X181386342Y-59722162D01*
X180354982Y-58930772D01*
X180255814Y-58854677D01*
X179984996Y-58646871D01*
X179839303Y-58535077D01*
X179323623Y-58139382D01*
X179323622Y-58139381D01*
X179365901Y-58084282D01*
X179378841Y-58063474D01*
X179387473Y-58040540D01*
X179391464Y-58016363D01*
X179390663Y-57991872D01*
X179385098Y-57968008D01*
X179374985Y-57945688D01*
X179360712Y-57925770D01*
X179342827Y-57909020D01*
X179322019Y-57896080D01*
X179299085Y-57887448D01*
X179266733Y-57883189D01*
X179130501Y-57883189D01*
X179070933Y-57871340D01*
X178951794Y-57847642D01*
X178783455Y-57777914D01*
X178631954Y-57676684D01*
X178503112Y-57547842D01*
X178401882Y-57396341D01*
X178332154Y-57228002D01*
X178308456Y-57108863D01*
X178296607Y-57049295D01*
X178296607Y-56867083D01*
X178309910Y-56800206D01*
X178332154Y-56688376D01*
X178401882Y-56520037D01*
X178503112Y-56368536D01*
X178631954Y-56239694D01*
X178783455Y-56138464D01*
X178951794Y-56068736D01*
X179070933Y-56045038D01*
X179130501Y-56033189D01*
X179312713Y-56033189D01*
X179372281Y-56045038D01*
X179372281Y-56045038D01*
G37*
G36*
X116899656Y-58836964D02*
G01*
X116978659Y-58860929D01*
X117051466Y-58899846D01*
X117115282Y-58952218D01*
X117167654Y-59016034D01*
X117206571Y-59088841D01*
X117230536Y-59167844D01*
X117238627Y-59250000D01*
X117230536Y-59332156D01*
X117206571Y-59411159D01*
X117167654Y-59483966D01*
X117115282Y-59547782D01*
X117051466Y-59600154D01*
X116978659Y-59639071D01*
X116899656Y-59663036D01*
X116838084Y-59669100D01*
X116161916Y-59669100D01*
X116100344Y-59663036D01*
X116021341Y-59639071D01*
X115948534Y-59600154D01*
X115884718Y-59547782D01*
X115832346Y-59483966D01*
X115793429Y-59411159D01*
X115769464Y-59332156D01*
X115761373Y-59250000D01*
X115769464Y-59167844D01*
X115793429Y-59088841D01*
X115832346Y-59016034D01*
X115884718Y-58952218D01*
X115948534Y-58899846D01*
X116021341Y-58860929D01*
X116100344Y-58836964D01*
X116161916Y-58830900D01*
X116838084Y-58830900D01*
X116899656Y-58836964D01*
X116899656Y-58836964D01*
G37*
G36*
X180493032Y-53153220D02*
G01*
X180511531Y-53160183D01*
X180535200Y-53166525D01*
X180559652Y-53168128D01*
X180583946Y-53164930D01*
X180596777Y-53160574D01*
X180735941Y-53267358D01*
X180746027Y-53274339D01*
X180774340Y-53291945D01*
X180798680Y-53314742D01*
X180808033Y-53322677D01*
X181902514Y-54162502D01*
X183489221Y-55380025D01*
X185115595Y-56627986D01*
X186289416Y-57528690D01*
X186299503Y-57535671D01*
X186327813Y-57553275D01*
X186352150Y-57576069D01*
X186361503Y-57584004D01*
X186500244Y-57690464D01*
X186499983Y-57692045D01*
X186500785Y-57716536D01*
X186506349Y-57740400D01*
X186523108Y-57773027D01*
X186534623Y-57789097D01*
X186599657Y-57932631D01*
X186599658Y-57932635D01*
X186619181Y-58016363D01*
X186635442Y-58086105D01*
X186640598Y-58243607D01*
X186614929Y-58399087D01*
X186559420Y-58546569D01*
X186497049Y-58646871D01*
X186034250Y-59250000D01*
X186023078Y-59264559D01*
X185942344Y-59350758D01*
X185938658Y-59353399D01*
X185814249Y-59442550D01*
X185670714Y-59507584D01*
X185670710Y-59507585D01*
X185517241Y-59543369D01*
X185359741Y-59548525D01*
X185359739Y-59548525D01*
X185204261Y-59522856D01*
X185193966Y-59518981D01*
X185185760Y-59515893D01*
X185162093Y-59509551D01*
X185137641Y-59507948D01*
X185113347Y-59511146D01*
X185100517Y-59515501D01*
X185083978Y-59502811D01*
X184961354Y-59408718D01*
X184951268Y-59401738D01*
X184922953Y-59384131D01*
X184898613Y-59361334D01*
X184889260Y-59353399D01*
X183794779Y-58513574D01*
X183794772Y-58513570D01*
X182208072Y-57296052D01*
X180502381Y-55987229D01*
X180502365Y-55987215D01*
X180482529Y-55971995D01*
X179407878Y-55147386D01*
X179397803Y-55140413D01*
X179369478Y-55122799D01*
X179345143Y-55100007D01*
X179335790Y-55092072D01*
X179197049Y-54985612D01*
X179197310Y-54984031D01*
X179196508Y-54959540D01*
X179190944Y-54935676D01*
X179174185Y-54903049D01*
X179162670Y-54886979D01*
X179097636Y-54743445D01*
X179061851Y-54589971D01*
X179056695Y-54432470D01*
X179082364Y-54276990D01*
X179137875Y-54129504D01*
X179200239Y-54029214D01*
X179674213Y-53411519D01*
X179702198Y-53381640D01*
X179754949Y-53325318D01*
X179883042Y-53233527D01*
X180026582Y-53168491D01*
X180180051Y-53132707D01*
X180337552Y-53127551D01*
X180337554Y-53127551D01*
X180493032Y-53153220D01*
X180493032Y-53153220D01*
G37*
G36*
X174831122Y-53830517D02*
G01*
X174879085Y-53845066D01*
X174923278Y-53868688D01*
X174962019Y-53900481D01*
X174993812Y-53939222D01*
X175017434Y-53983415D01*
X175031983Y-54031378D01*
X175037500Y-54087391D01*
X175037500Y-54912609D01*
X175031983Y-54968622D01*
X175017434Y-55016585D01*
X174993812Y-55060778D01*
X174962019Y-55099519D01*
X174923278Y-55131312D01*
X174879085Y-55154934D01*
X174831122Y-55169483D01*
X174775109Y-55175000D01*
X174024891Y-55175000D01*
X173968878Y-55169483D01*
X173920915Y-55154934D01*
X173876722Y-55131312D01*
X173837981Y-55099519D01*
X173806188Y-55060778D01*
X173782566Y-55016585D01*
X173768017Y-54968622D01*
X173762500Y-54912609D01*
X173762500Y-54087391D01*
X173768017Y-54031378D01*
X173782566Y-53983415D01*
X173806188Y-53939222D01*
X173837981Y-53900481D01*
X173876722Y-53868688D01*
X173920915Y-53845066D01*
X173968878Y-53830517D01*
X174024891Y-53825000D01*
X174775109Y-53825000D01*
X174831122Y-53830517D01*
X174831122Y-53830517D01*
G37*
G36*
X173256122Y-53830517D02*
G01*
X173304085Y-53845066D01*
X173348278Y-53868688D01*
X173387019Y-53900481D01*
X173418812Y-53939222D01*
X173442434Y-53983415D01*
X173456983Y-54031378D01*
X173462500Y-54087391D01*
X173462500Y-54912609D01*
X173456983Y-54968622D01*
X173442434Y-55016585D01*
X173418812Y-55060778D01*
X173387019Y-55099519D01*
X173348278Y-55131312D01*
X173304085Y-55154934D01*
X173256122Y-55169483D01*
X173200109Y-55175000D01*
X172449891Y-55175000D01*
X172393878Y-55169483D01*
X172345915Y-55154934D01*
X172301722Y-55131312D01*
X172262981Y-55099519D01*
X172231188Y-55060778D01*
X172207566Y-55016585D01*
X172193017Y-54968622D01*
X172187500Y-54912609D01*
X172187500Y-54087391D01*
X172193017Y-54031378D01*
X172207566Y-53983415D01*
X172231188Y-53939222D01*
X172262981Y-53900481D01*
X172301722Y-53868688D01*
X172345915Y-53845066D01*
X172393878Y-53830517D01*
X172449891Y-53825000D01*
X173200109Y-53825000D01*
X173256122Y-53830517D01*
X173256122Y-53830517D01*
G37*
G36*
X173243622Y-52130517D02*
G01*
X173291585Y-52145066D01*
X173335778Y-52168688D01*
X173374519Y-52200481D01*
X173406312Y-52239222D01*
X173429934Y-52283415D01*
X173444483Y-52331378D01*
X173450000Y-52387391D01*
X173450000Y-53212609D01*
X173444483Y-53268622D01*
X173429934Y-53316585D01*
X173406312Y-53360778D01*
X173374519Y-53399519D01*
X173335778Y-53431312D01*
X173291585Y-53454934D01*
X173243622Y-53469483D01*
X173187609Y-53475000D01*
X172437391Y-53475000D01*
X172381378Y-53469483D01*
X172333415Y-53454934D01*
X172289222Y-53431312D01*
X172250481Y-53399519D01*
X172218688Y-53360778D01*
X172195066Y-53316585D01*
X172180517Y-53268622D01*
X172175000Y-53212609D01*
X172175000Y-52387391D01*
X172180517Y-52331378D01*
X172195066Y-52283415D01*
X172218688Y-52239222D01*
X172250481Y-52200481D01*
X172289222Y-52168688D01*
X172333415Y-52145066D01*
X172381378Y-52130517D01*
X172437391Y-52125000D01*
X173187609Y-52125000D01*
X173243622Y-52130517D01*
X173243622Y-52130517D01*
G37*
G36*
X174818622Y-52130517D02*
G01*
X174866585Y-52145066D01*
X174910778Y-52168688D01*
X174949519Y-52200481D01*
X174981312Y-52239222D01*
X175004934Y-52283415D01*
X175019483Y-52331378D01*
X175025000Y-52387391D01*
X175025000Y-53212609D01*
X175019483Y-53268622D01*
X175004934Y-53316585D01*
X174981312Y-53360778D01*
X174949519Y-53399519D01*
X174910778Y-53431312D01*
X174866585Y-53454934D01*
X174818622Y-53469483D01*
X174762609Y-53475000D01*
X174012391Y-53475000D01*
X173956378Y-53469483D01*
X173908415Y-53454934D01*
X173864222Y-53431312D01*
X173825481Y-53399519D01*
X173793688Y-53360778D01*
X173770066Y-53316585D01*
X173755517Y-53268622D01*
X173750000Y-53212609D01*
X173750000Y-52387391D01*
X173755517Y-52331378D01*
X173770066Y-52283415D01*
X173793688Y-52239222D01*
X173825481Y-52200481D01*
X173864222Y-52168688D01*
X173908415Y-52145066D01*
X173956378Y-52130517D01*
X174012391Y-52125000D01*
X174762609Y-52125000D01*
X174818622Y-52130517D01*
X174818622Y-52130517D01*
G37*
G36*
X134449000Y-49508000D02*
G01*
X132699000Y-49508000D01*
X132699000Y-47758000D01*
X134449000Y-47758000D01*
X134449000Y-49508000D01*
X134449000Y-49508000D01*
G37*
G36*
X136449000Y-49508000D02*
G01*
X134699000Y-49508000D01*
X134699000Y-47758000D01*
X136449000Y-47758000D01*
X136449000Y-49508000D01*
X136449000Y-49508000D01*
G37*
G36*
X138449000Y-49508000D02*
G01*
X136699000Y-49508000D01*
X136699000Y-47758000D01*
X138449000Y-47758000D01*
X138449000Y-49508000D01*
X138449000Y-49508000D01*
G37*
G36*
X140449000Y-49508000D02*
G01*
X138699000Y-49508000D01*
X138699000Y-47758000D01*
X140449000Y-47758000D01*
X140449000Y-49508000D01*
X140449000Y-49508000D01*
G37*
G36*
X142449000Y-49508000D02*
G01*
X140699000Y-49508000D01*
X140699000Y-47758000D01*
X142449000Y-47758000D01*
X142449000Y-49508000D01*
X142449000Y-49508000D01*
G37*
G36*
X144449000Y-49508000D02*
G01*
X142699000Y-49508000D01*
X142699000Y-47758000D01*
X144449000Y-47758000D01*
X144449000Y-49508000D01*
X144449000Y-49508000D01*
G37*
G36*
X146449000Y-49508000D02*
G01*
X144699000Y-49508000D01*
X144699000Y-47758000D01*
X146449000Y-47758000D01*
X146449000Y-49508000D01*
X146449000Y-49508000D01*
G37*
G36*
X148449000Y-49508000D02*
G01*
X146699000Y-49508000D01*
X146699000Y-47758000D01*
X148449000Y-47758000D01*
X148449000Y-49508000D01*
X148449000Y-49508000D01*
G37*
G36*
X150449000Y-49508000D02*
G01*
X148699000Y-49508000D01*
X148699000Y-47758000D01*
X150449000Y-47758000D01*
X150449000Y-49508000D01*
X150449000Y-49508000D01*
G37*
G36*
X152449000Y-49508000D02*
G01*
X150699000Y-49508000D01*
X150699000Y-47758000D01*
X152449000Y-47758000D01*
X152449000Y-49508000D01*
X152449000Y-49508000D01*
G37*
G36*
X154449000Y-49508000D02*
G01*
X152699000Y-49508000D01*
X152699000Y-47758000D01*
X154449000Y-47758000D01*
X154449000Y-49508000D01*
X154449000Y-49508000D01*
G37*
G36*
X156449000Y-49508000D02*
G01*
X154699000Y-49508000D01*
X154699000Y-47758000D01*
X156449000Y-47758000D01*
X156449000Y-49508000D01*
X156449000Y-49508000D01*
G37*
G36*
X158449000Y-49508000D02*
G01*
X156699000Y-49508000D01*
X156699000Y-47758000D01*
X158449000Y-47758000D01*
X158449000Y-49508000D01*
X158449000Y-49508000D01*
G37*
G36*
X160449000Y-49508000D02*
G01*
X158699000Y-49508000D01*
X158699000Y-47758000D01*
X160449000Y-47758000D01*
X160449000Y-49508000D01*
X160449000Y-49508000D01*
G37*
G36*
X162449000Y-49508000D02*
G01*
X160699000Y-49508000D01*
X160699000Y-47758000D01*
X162449000Y-47758000D01*
X162449000Y-49508000D01*
X162449000Y-49508000D01*
G37*
G36*
X164449000Y-49508000D02*
G01*
X162699000Y-49508000D01*
X162699000Y-47758000D01*
X164449000Y-47758000D01*
X164449000Y-49508000D01*
X164449000Y-49508000D01*
G37*
M02*
