G04 #@! TF.GenerationSoftware,KiCad,Pcbnew,6.0.0-rc1-unknown-3eb3db0~66~ubuntu18.04.1*
G04 #@! TF.CreationDate,2018-08-10T16:09:31-07:00*
G04 #@! TF.ProjectId,main_board_onion,6D61696E5F626F6172645F6F6E696F6E,rev?*
G04 #@! TF.SameCoordinates,Original*
G04 #@! TF.FileFunction,Copper,L3,Inr,Signal*
G04 #@! TF.FilePolarity,Positive*
%FSLAX46Y46*%
G04 Gerber Fmt 4.6, Leading zero omitted, Abs format (unit mm)*
G04 Created by KiCad (PCBNEW 6.0.0-rc1-unknown-3eb3db0~66~ubuntu18.04.1) date Fri Aug 10 16:09:31 2018*
%MOMM*%
%LPD*%
G01*
G04 APERTURE LIST*
G04 #@! TA.AperFunction,ViaPad*
%ADD10O,2.700000X3.300000*%
G04 #@! TD*
G04 #@! TA.AperFunction,ViaPad*
%ADD11R,2.700000X3.300000*%
G04 #@! TD*
G04 #@! TA.AperFunction,ViaPad*
%ADD12R,1.700000X1.700000*%
G04 #@! TD*
G04 #@! TA.AperFunction,ViaPad*
%ADD13O,1.700000X1.700000*%
G04 #@! TD*
G04 #@! TA.AperFunction,ViaPad*
%ADD14C,6.400000*%
G04 #@! TD*
G04 #@! TA.AperFunction,ViaPad*
%ADD15C,1.450000*%
G04 #@! TD*
G04 #@! TA.AperFunction,ViaPad*
%ADD16C,1.200000*%
G04 #@! TD*
G04 #@! TA.AperFunction,Conductor*
%ADD17C,1.200000*%
G04 #@! TD*
G04 #@! TA.AperFunction,ViaPad*
%ADD18R,1.350000X1.350000*%
G04 #@! TD*
G04 #@! TA.AperFunction,ViaPad*
%ADD19C,0.800000*%
G04 #@! TD*
G04 #@! TA.AperFunction,Conductor*
%ADD20C,0.254000*%
G04 #@! TD*
G04 APERTURE END LIST*
D10*
G04 #@! TO.N,+24V*
G04 #@! TO.C,J2*
X190398400Y-99607000D03*
D11*
G04 #@! TO.N,GND*
X190398400Y-94107000D03*
G04 #@! TD*
D10*
G04 #@! TO.N,+24V*
G04 #@! TO.C,J3*
X190373000Y-81876000D03*
D11*
G04 #@! TO.N,GND*
X190373000Y-87376000D03*
G04 #@! TD*
D10*
G04 #@! TO.N,+24V*
G04 #@! TO.C,J4*
X108204000Y-99632400D03*
D11*
G04 #@! TO.N,GND*
X108204000Y-94132400D03*
G04 #@! TD*
G04 #@! TO.N,GND*
G04 #@! TO.C,J5*
X108204000Y-87376000D03*
D10*
G04 #@! TO.N,+24V*
X108204000Y-81876000D03*
G04 #@! TD*
D12*
G04 #@! TO.N,GND*
G04 #@! TO.C,J1*
X167386000Y-83794600D03*
D13*
G04 #@! TO.N,+3V3*
X167386000Y-81254600D03*
G04 #@! TD*
D14*
G04 #@! TO.N,GND*
G04 #@! TO.C,J6*
X173799500Y-60706000D03*
G04 #@! TD*
G04 #@! TO.N,GND*
G04 #@! TO.C,J7*
X124841000Y-60706000D03*
G04 #@! TD*
G04 #@! TO.N,GND*
G04 #@! TO.C,J8*
X173799500Y-120713500D03*
G04 #@! TD*
G04 #@! TO.N,GND*
G04 #@! TO.C,J9*
X124815600Y-120700800D03*
G04 #@! TD*
D15*
G04 #@! TO.N,GND*
G04 #@! TO.C,J15*
X115300519Y-121355681D03*
X119267286Y-124399488D03*
D16*
X112863510Y-122888974D03*
D17*
X112650443Y-123166648D02*
X113076577Y-122611300D01*
D16*
X118416983Y-127150304D03*
D17*
X118630050Y-126872630D02*
X118203916Y-127427978D01*
G04 #@! TD*
D16*
G04 #@! TO.N,GND*
G04 #@! TO.C,J17*
X180071910Y-54207373D03*
D17*
X179858843Y-54485047D02*
X180284977Y-53929699D01*
D16*
X185625383Y-58468703D03*
D17*
X185838450Y-58191029D02*
X185412316Y-58746377D01*
D15*
X179221607Y-56958189D03*
X183188374Y-60001996D03*
G04 #@! TD*
D18*
G04 #@! TO.N,GND*
G04 #@! TO.C,O1*
X162574000Y-73033000D03*
G04 #@! TO.N,+3V3*
X160574000Y-73033000D03*
G04 #@! TO.N,Net-(O1-PadB3)*
X158574000Y-73033000D03*
G04 #@! TO.N,Net-(O1-PadB4)*
X156574000Y-73033000D03*
G04 #@! TO.N,/Omega2/PC_TXD*
X154574000Y-73033000D03*
G04 #@! TO.N,/Omega2/PC_RXD*
X152574000Y-73033000D03*
G04 #@! TO.N,/Reset_Omega*
X150574000Y-73033000D03*
G04 #@! TO.N,Net-(O1-PadB8)*
X148574000Y-73033000D03*
G04 #@! TO.N,/Omega2/TX-*
X146574000Y-73033000D03*
G04 #@! TO.N,/Omega2/TX+*
X144574000Y-73033000D03*
G04 #@! TO.N,/Omega2/RX-*
X142574000Y-73033000D03*
G04 #@! TO.N,/Omega2/RX+*
X140574000Y-73033000D03*
G04 #@! TO.N,/Reset_NXP*
X138574000Y-73033000D03*
G04 #@! TO.N,/NXP_Ready*
X136574000Y-73033000D03*
G04 #@! TO.N,Net-(O1-PadB15)*
X134574000Y-73033000D03*
G04 #@! TO.N,Net-(O1-PadB16)*
X132574000Y-73033000D03*
G04 #@! TO.N,GND*
X162574000Y-48633000D03*
G04 #@! TO.N,/Omega_Ready*
X160574000Y-48633000D03*
G04 #@! TO.N,Net-(O1-PadA3)*
X158574000Y-48633000D03*
G04 #@! TO.N,Net-(O1-PadA4)*
X156574000Y-48633000D03*
G04 #@! TO.N,/Omega2/R_LED*
X154574000Y-48633000D03*
G04 #@! TO.N,/Omega2/G_LED*
X152574000Y-48633000D03*
G04 #@! TO.N,/Omega2/B_LED*
X150574000Y-48633000D03*
G04 #@! TO.N,Net-(O1-PadA8)*
X148574000Y-48633000D03*
G04 #@! TO.N,Net-(O1-PadA9)*
X146574000Y-48633000D03*
G04 #@! TO.N,/NXP_MOSI*
X144574000Y-48633000D03*
G04 #@! TO.N,/NXP_MISO*
X142574000Y-48633000D03*
G04 #@! TO.N,/NXP_SPICLK*
X140574000Y-48633000D03*
G04 #@! TO.N,/NXP_SPICS*
X138574000Y-48633000D03*
G04 #@! TO.N,Net-(O1-PadA14)*
X136574000Y-48633000D03*
G04 #@! TO.N,Net-(O1-PadA15)*
X134574000Y-48633000D03*
G04 #@! TO.N,Net-(O1-PadA16)*
X132574000Y-48633000D03*
G04 #@! TD*
D16*
G04 #@! TO.N,GND*
X183642000Y-116230400D03*
D19*
X185572400Y-93522800D03*
D16*
X181838600Y-65836800D03*
X115570000Y-116179600D03*
X153441400Y-54229000D03*
X119481600Y-97383600D03*
X139788900Y-116738400D03*
X160210500Y-114769900D03*
X168620854Y-107093219D03*
X160197800Y-117119400D03*
X160286700Y-121793000D03*
X160680400Y-126123700D03*
X146100800Y-121272300D03*
X149999700Y-130098800D03*
X186232800Y-95872300D03*
X186996410Y-94869000D03*
X173634400Y-96723200D03*
G04 #@! TO.N,+5V*
X119608600Y-114325400D03*
X179273200Y-84480400D03*
X179197000Y-85852000D03*
X179324000Y-83108800D03*
X179324000Y-81711800D03*
X179019200Y-87249000D03*
X177342800Y-87249000D03*
X177342800Y-81788000D03*
X179120800Y-68199000D03*
X182829200Y-110896400D03*
D19*
X184988200Y-94716600D03*
D16*
G04 #@! TO.N,+3V3*
X118135400Y-55575200D03*
X117195600Y-56515000D03*
X116255800Y-57454800D03*
X115290600Y-58420000D03*
X114350800Y-59359800D03*
X117830600Y-62839600D03*
X118745000Y-61849000D03*
X119608600Y-60807600D03*
X120446800Y-59740800D03*
X121081800Y-58496200D03*
X158800800Y-58547000D03*
X122555000Y-99085400D03*
X116205000Y-102323900D03*
X146964400Y-128752600D03*
X139788900Y-121056400D03*
D19*
X148463000Y-115011200D03*
D16*
X160261300Y-113220500D03*
X173494700Y-113830100D03*
X160419560Y-118709817D03*
X136055100Y-105257600D03*
X182499000Y-78968600D03*
X183896000Y-78994000D03*
X184988200Y-78130400D03*
X183896000Y-77343000D03*
X182499000Y-77393800D03*
X182499000Y-75971400D03*
X181152800Y-78968600D03*
X181178200Y-77698600D03*
D19*
G04 #@! TO.N,/NXP/RTCin*
X152971500Y-115100100D03*
G04 #@! TO.N,/NXP/RTCout*
X151892000Y-115062000D03*
G04 #@! TO.N,/NXP/SWDIO*
X140817600Y-115862100D03*
G04 #@! TO.N,/NXP/SWCLK*
X141732000Y-115277900D03*
G04 #@! TO.N,/Reset_NXP*
X127355600Y-102273100D03*
G04 #@! TO.N,/NXP/I2C_SCL_Flex1*
X144907000Y-124015500D03*
G04 #@! TO.N,/NXP/I2C_SDA_Flex1*
X145923000Y-123456700D03*
G04 #@! TO.N,/NXP/GPIO25*
X146900900Y-123177300D03*
G04 #@! TO.N,/NXP/GPIO26*
X147906156Y-123087290D03*
G04 #@! TO.N,/NXP/SPI_MISO_flex7*
X162102800Y-115849400D03*
G04 #@! TO.N,/NXP/SPI_MOSI_flex7*
X161290000Y-116471700D03*
G04 #@! TO.N,/NXP/SPI_clock_flex7*
X153631900Y-117919500D03*
G04 #@! TO.N,/NXP/SPI_CS_flex7*
X152857200Y-118656100D03*
G04 #@! TO.N,Net-(J16-Pad1)*
X113817400Y-87680800D03*
G04 #@! TO.N,Net-(J16-Pad2)*
X114884200Y-87858600D03*
G04 #@! TO.N,Net-(J16-Pad3)*
X116230400Y-88239600D03*
G04 #@! TO.N,Net-(J16-Pad6)*
X118135400Y-88810000D03*
G04 #@! TO.N,/Reset_Omega*
X141401800Y-122123200D03*
X136982200Y-116471700D03*
G04 #@! TO.N,/NXP_Ready*
X143433800Y-125145800D03*
X151523700Y-127863600D03*
G04 #@! TO.N,/Omega_Ready*
X151485600Y-118122700D03*
G04 #@! TO.N,/NXP_MOSI*
X135648700Y-78511400D03*
X153860500Y-114046000D03*
X135801100Y-120103900D03*
G04 #@! TO.N,/NXP_MISO*
X154800300Y-113652300D03*
X134658100Y-119989600D03*
G04 #@! TO.N,/NXP_SPICLK*
X132253943Y-118609075D03*
X148805900Y-111785400D03*
G04 #@! TO.N,/NXP_SPICS*
X151472900Y-112433100D03*
X132511800Y-120027700D03*
G04 #@! TO.N,Net-(R14-Pad1)*
X116205000Y-92735400D03*
G04 #@! TO.N,Net-(R15-Pad1)*
X122529600Y-92722700D03*
G04 #@! TO.N,Net-(SW1-Pad1)*
X172508935Y-93181087D03*
G04 #@! TD*
D20*
G04 #@! TO.N,GND*
G36*
X152361315Y-43807480D02*
X155308949Y-44044297D01*
X158240795Y-44435210D01*
X161147957Y-44978934D01*
X164022539Y-45674085D01*
X166856673Y-46518700D01*
X169643411Y-47510495D01*
X172373843Y-48646793D01*
X175041110Y-49924357D01*
X177637323Y-51339837D01*
X179944141Y-52758549D01*
X179777462Y-52796658D01*
X179382498Y-53077123D01*
X179169431Y-53354797D01*
X180048467Y-54029304D01*
X180060642Y-54013437D01*
X180262154Y-54168063D01*
X180249979Y-54183930D01*
X181129014Y-54858437D01*
X181342081Y-54580764D01*
X181510765Y-54126668D01*
X181499233Y-53815340D01*
X182590848Y-54568315D01*
X184934850Y-56373020D01*
X185651145Y-56984776D01*
X185330935Y-57057988D01*
X184935971Y-57338453D01*
X184722904Y-57616127D01*
X185601940Y-58290634D01*
X185614115Y-58274767D01*
X185815627Y-58429393D01*
X185803452Y-58445260D01*
X186682487Y-59119767D01*
X186895554Y-58842094D01*
X187064238Y-58387998D01*
X187057181Y-58197487D01*
X187377307Y-58559779D01*
X187618446Y-59010904D01*
X187749519Y-59505536D01*
X187763006Y-60017223D01*
X187658797Y-60518628D01*
X187441676Y-60983670D01*
X187105560Y-61412115D01*
X186895562Y-61638332D01*
X186888641Y-61641675D01*
X186850869Y-61684046D01*
X186807095Y-61713295D01*
X186758604Y-61785867D01*
X186752077Y-61792898D01*
X186748156Y-61799266D01*
X186743181Y-61804847D01*
X186738366Y-61813032D01*
X186680550Y-61881715D01*
X186674875Y-61899615D01*
X186113095Y-62635231D01*
X186093095Y-62648595D01*
X186035579Y-62734674D01*
X186019372Y-62753444D01*
X186010124Y-62769750D01*
X185996286Y-62787740D01*
X185985355Y-62809840D01*
X185930646Y-62891717D01*
X185925078Y-62919709D01*
X185425594Y-63800428D01*
X185403832Y-63830895D01*
X185397127Y-63845753D01*
X185350646Y-63915317D01*
X185338751Y-63975116D01*
X185313920Y-64030143D01*
X185313369Y-64047782D01*
X184952158Y-64951976D01*
X184914646Y-65008117D01*
X184899686Y-65083327D01*
X184899595Y-65083554D01*
X184898949Y-65087032D01*
X184895915Y-65102284D01*
X184889554Y-65120731D01*
X184889037Y-65124515D01*
X184886827Y-65131146D01*
X184883116Y-65160581D01*
X184641775Y-66128758D01*
X184631646Y-66143917D01*
X184609128Y-66257123D01*
X184599866Y-66286761D01*
X184597970Y-66304487D01*
X184593315Y-66323163D01*
X184592464Y-66340897D01*
X184589000Y-66358312D01*
X184589000Y-66359485D01*
X184588000Y-66364512D01*
X184588000Y-66397709D01*
X184469777Y-67489013D01*
X184462000Y-67528112D01*
X184462000Y-67545370D01*
X184460251Y-67555674D01*
X184460727Y-67572553D01*
X184458479Y-67593307D01*
X184462000Y-67633014D01*
X184462000Y-67679687D01*
X184464040Y-67689943D01*
X184492104Y-68684433D01*
X184483038Y-68716321D01*
X184494612Y-68815917D01*
X184494086Y-68832612D01*
X184496000Y-68844117D01*
X184496000Y-68855787D01*
X184497095Y-68861293D01*
X184497335Y-68869792D01*
X184504537Y-68901322D01*
X184508271Y-68933454D01*
X184513622Y-68950042D01*
X184688000Y-69998217D01*
X184688000Y-70012987D01*
X184696892Y-70057691D01*
X184700599Y-70092948D01*
X184701929Y-70097231D01*
X184702827Y-70104354D01*
X184708477Y-70121305D01*
X184709845Y-70129526D01*
X184712667Y-70136996D01*
X184730646Y-70227382D01*
X184731079Y-70228029D01*
X184731646Y-70230882D01*
X184753669Y-70263842D01*
X185050937Y-71221095D01*
X185051827Y-71228154D01*
X185052014Y-71228715D01*
X185052554Y-71232669D01*
X185061633Y-71259000D01*
X185080646Y-71354582D01*
X185130736Y-71429547D01*
X185567632Y-72365213D01*
X185578646Y-72420582D01*
X185624364Y-72489005D01*
X185628832Y-72498905D01*
X185632373Y-72503862D01*
X185632651Y-72504458D01*
X185638131Y-72511924D01*
X185656123Y-72537113D01*
X185719350Y-72639994D01*
X185725934Y-72644765D01*
X186218329Y-73408287D01*
X186220194Y-73417102D01*
X186271557Y-73491980D01*
X186285841Y-73519525D01*
X186287841Y-73522025D01*
X186300286Y-73537581D01*
X186304822Y-73545648D01*
X186313266Y-73555501D01*
X186326540Y-73576083D01*
X186335836Y-73585686D01*
X186385595Y-73658226D01*
X186421124Y-73681344D01*
X187022789Y-74383340D01*
X187024158Y-74387368D01*
X187074963Y-74445252D01*
X187078451Y-74451051D01*
X187097066Y-74471527D01*
X187146095Y-74544905D01*
X187225837Y-74598187D01*
X188027231Y-75309184D01*
X188082366Y-75375948D01*
X188178616Y-75427016D01*
X188269218Y-75487554D01*
X188269781Y-75487666D01*
X189065429Y-76019982D01*
X189117005Y-76071666D01*
X189223277Y-76115816D01*
X189227916Y-76118221D01*
X189249990Y-76129994D01*
X189251497Y-76130450D01*
X189325430Y-76168789D01*
X189335688Y-76169670D01*
X190159301Y-76570829D01*
X190175005Y-76586566D01*
X190253778Y-76619291D01*
X190266010Y-76626754D01*
X190271576Y-76628795D01*
X190275918Y-76631400D01*
X190287035Y-76635383D01*
X190294915Y-76639829D01*
X190313479Y-76645925D01*
X190330228Y-76654083D01*
X190350074Y-76659297D01*
X190376873Y-76670430D01*
X190394908Y-76674037D01*
X190397411Y-76674934D01*
X190404936Y-76677693D01*
X190405247Y-76677742D01*
X190481701Y-76705137D01*
X190492234Y-76704624D01*
X191457089Y-77021462D01*
X192003623Y-77230216D01*
X192426682Y-77517897D01*
X192771944Y-77895289D01*
X193021438Y-78342205D01*
X193165151Y-78847891D01*
X193195001Y-79220309D01*
X193195000Y-102241713D01*
X193130794Y-102795189D01*
X192956334Y-103275890D01*
X192675497Y-103704260D01*
X192303788Y-104055736D01*
X191849857Y-104319953D01*
X191472640Y-104448126D01*
X190979995Y-104587432D01*
X190949167Y-104593043D01*
X190943542Y-104595266D01*
X190865217Y-104610846D01*
X190808887Y-104648485D01*
X189855541Y-105025267D01*
X189777218Y-105040846D01*
X189773369Y-105043418D01*
X189771217Y-105043846D01*
X189672915Y-105109530D01*
X188776663Y-105614387D01*
X188749218Y-105619846D01*
X188746228Y-105621844D01*
X188746217Y-105621846D01*
X188666407Y-105675174D01*
X188646461Y-105684873D01*
X188631835Y-105695968D01*
X188615201Y-105705338D01*
X188594154Y-105723405D01*
X188568065Y-105740797D01*
X188567803Y-105741059D01*
X188503095Y-105784295D01*
X188490449Y-105803221D01*
X187674330Y-106422316D01*
X187632463Y-106450291D01*
X187630741Y-106452013D01*
X187628065Y-106453797D01*
X187627789Y-106454073D01*
X187566095Y-106495295D01*
X187525302Y-106556346D01*
X187473334Y-106608206D01*
X187472472Y-106610281D01*
X186850374Y-107232380D01*
X186850006Y-107232533D01*
X186795163Y-107287490D01*
X186734095Y-107328295D01*
X186665116Y-107431529D01*
X186042442Y-108252367D01*
X186023095Y-108265295D01*
X185984102Y-108323652D01*
X185984091Y-108323663D01*
X185983875Y-108323987D01*
X185983597Y-108324265D01*
X185966121Y-108350478D01*
X185947960Y-108371654D01*
X185936484Y-108392047D01*
X185927673Y-108403662D01*
X185919748Y-108419959D01*
X185862646Y-108505418D01*
X185862644Y-108505426D01*
X185860646Y-108508417D01*
X185854987Y-108536868D01*
X185405733Y-109335194D01*
X185351378Y-109430547D01*
X185284646Y-109530418D01*
X185284220Y-109532557D01*
X185283646Y-109533417D01*
X185267747Y-109613346D01*
X184887581Y-110572140D01*
X184850646Y-110627417D01*
X184835528Y-110703420D01*
X184835068Y-110704580D01*
X184832405Y-110719122D01*
X184831127Y-110725547D01*
X184822827Y-110750446D01*
X184818825Y-110782190D01*
X184579879Y-111755102D01*
X184569646Y-111770417D01*
X184550127Y-111868547D01*
X184541827Y-111893446D01*
X184540646Y-111902817D01*
X184538564Y-111909526D01*
X184536037Y-111933610D01*
X184532947Y-111946194D01*
X184532447Y-111957428D01*
X184527000Y-111984812D01*
X184527000Y-112011063D01*
X184514487Y-112110324D01*
X184516665Y-112118279D01*
X184412534Y-113110935D01*
X184405000Y-113148812D01*
X184405000Y-113167226D01*
X184403121Y-113178471D01*
X184403649Y-113195631D01*
X184401459Y-113216512D01*
X184405000Y-113254963D01*
X184405000Y-113300587D01*
X184407226Y-113311779D01*
X184437952Y-114309514D01*
X184428487Y-114344076D01*
X184440649Y-114440550D01*
X184440221Y-114455391D01*
X184442000Y-114465910D01*
X184442000Y-114476587D01*
X184443298Y-114483112D01*
X184443577Y-114492177D01*
X184451452Y-114526251D01*
X184455827Y-114560954D01*
X184460389Y-114574639D01*
X184638000Y-115624823D01*
X184638000Y-115636587D01*
X184645755Y-115675572D01*
X184650020Y-115715076D01*
X184651802Y-115720760D01*
X184651827Y-115720954D01*
X184652443Y-115722803D01*
X184657061Y-115737526D01*
X184659363Y-115751139D01*
X184662342Y-115758960D01*
X184680646Y-115850982D01*
X184703255Y-115884818D01*
X185001999Y-116837387D01*
X185002827Y-116843954D01*
X185003827Y-116846954D01*
X185013128Y-116874856D01*
X185032646Y-116972982D01*
X185084993Y-117051325D01*
X185522751Y-117983212D01*
X185533646Y-118037983D01*
X185583599Y-118112743D01*
X185588523Y-118123225D01*
X185604002Y-118144212D01*
X185659864Y-118242207D01*
X185679232Y-118257238D01*
X186173560Y-119018520D01*
X186174646Y-119023982D01*
X186230231Y-119107170D01*
X186241969Y-119130647D01*
X186255265Y-119147779D01*
X186264058Y-119163310D01*
X186278314Y-119179845D01*
X186286979Y-119193190D01*
X186289298Y-119195571D01*
X186296091Y-119205737D01*
X186314650Y-119224296D01*
X186375993Y-119303336D01*
X186393274Y-119313187D01*
X187063106Y-120090123D01*
X187423405Y-120549844D01*
X187637723Y-121015197D01*
X187739507Y-121515883D01*
X187722272Y-122027696D01*
X187588879Y-122522300D01*
X187344796Y-122971532D01*
X186983003Y-123377251D01*
X184750414Y-125263287D01*
X182394121Y-127050991D01*
X179948056Y-128712303D01*
X177416950Y-130243407D01*
X174810913Y-131640203D01*
X172133808Y-132897812D01*
X169395244Y-134014364D01*
X166602603Y-134986705D01*
X163761688Y-135810946D01*
X161321955Y-136382196D01*
X161366194Y-131471544D01*
X161356532Y-131421799D01*
X161329002Y-131380597D01*
X161287800Y-131353067D01*
X161239199Y-131343400D01*
X137312399Y-131343400D01*
X137264857Y-131352634D01*
X137223409Y-131379792D01*
X137195509Y-131420744D01*
X137185404Y-131469256D01*
X137141456Y-136347599D01*
X134685677Y-135763572D01*
X131847511Y-134930386D01*
X129057839Y-133950151D01*
X126322539Y-132824839D01*
X123650321Y-131557339D01*
X121048183Y-130152620D01*
X118523061Y-128612671D01*
X118513654Y-128606239D01*
X118711431Y-128561019D01*
X118787583Y-128506943D01*
X145729400Y-128506943D01*
X145729400Y-128998257D01*
X145917418Y-129452171D01*
X146264829Y-129799582D01*
X146718743Y-129987600D01*
X147210057Y-129987600D01*
X147663971Y-129799582D01*
X148011382Y-129452171D01*
X148199400Y-128998257D01*
X148199400Y-128506943D01*
X148011382Y-128053029D01*
X147663971Y-127705618D01*
X147548350Y-127657726D01*
X150488700Y-127657726D01*
X150488700Y-128069474D01*
X150646269Y-128449880D01*
X150937420Y-128741031D01*
X151317826Y-128898600D01*
X151729574Y-128898600D01*
X152109980Y-128741031D01*
X152401131Y-128449880D01*
X152558700Y-128069474D01*
X152558700Y-127657726D01*
X152401131Y-127277320D01*
X152109980Y-126986169D01*
X151729574Y-126828600D01*
X151317826Y-126828600D01*
X150937420Y-126986169D01*
X150646269Y-127277320D01*
X150488700Y-127657726D01*
X147548350Y-127657726D01*
X147210057Y-127517600D01*
X146718743Y-127517600D01*
X146264829Y-127705618D01*
X145917418Y-128053029D01*
X145729400Y-128506943D01*
X118787583Y-128506943D01*
X119106395Y-128280554D01*
X119319462Y-128002880D01*
X118440426Y-127328373D01*
X118428251Y-127344240D01*
X118226739Y-127189614D01*
X118238914Y-127173747D01*
X118177811Y-127126861D01*
X118595052Y-127126861D01*
X119474087Y-127801368D01*
X119687154Y-127523695D01*
X119855838Y-127069599D01*
X119837907Y-126585516D01*
X119636091Y-126145145D01*
X119608559Y-126119141D01*
X119381408Y-126102062D01*
X118595052Y-127126861D01*
X118177811Y-127126861D01*
X117359879Y-126499240D01*
X117146812Y-126776913D01*
X116978128Y-127231009D01*
X116990489Y-127564722D01*
X116081760Y-126943347D01*
X115236205Y-126297728D01*
X117514504Y-126297728D01*
X118393540Y-126972235D01*
X119179896Y-125947436D01*
X119116702Y-125766983D01*
X119300785Y-125626925D01*
X119157949Y-124541978D01*
X118073002Y-124684814D01*
X117979402Y-124913431D01*
X118274114Y-125367162D01*
X118680001Y-125646068D01*
X118594764Y-125631619D01*
X118122535Y-125739589D01*
X117727571Y-126020054D01*
X117514504Y-126297728D01*
X115236205Y-126297728D01*
X113730915Y-125148372D01*
X112976207Y-124508825D01*
X119409776Y-124508825D01*
X119552612Y-125593772D01*
X119781229Y-125687372D01*
X120234960Y-125392660D01*
X120541371Y-124946746D01*
X120543198Y-124939926D01*
X142398800Y-124939926D01*
X142398800Y-125351674D01*
X142556369Y-125732080D01*
X142847520Y-126023231D01*
X143227926Y-126180800D01*
X143639674Y-126180800D01*
X144020080Y-126023231D01*
X144311231Y-125732080D01*
X144468800Y-125351674D01*
X144468800Y-124954268D01*
X144701126Y-125050500D01*
X145112874Y-125050500D01*
X145493280Y-124892931D01*
X145784431Y-124601780D01*
X145830028Y-124491700D01*
X146128874Y-124491700D01*
X146509280Y-124334131D01*
X146649831Y-124193580D01*
X146695026Y-124212300D01*
X147106774Y-124212300D01*
X147487180Y-124054731D01*
X147501825Y-124040086D01*
X147700282Y-124122290D01*
X148112030Y-124122290D01*
X148492436Y-123964721D01*
X148783587Y-123673570D01*
X148874365Y-123454410D01*
X171238195Y-123454410D01*
X171605140Y-123949843D01*
X173010671Y-124543236D01*
X174536293Y-124553587D01*
X175830003Y-124027969D01*
X179046799Y-124027969D01*
X179046799Y-124459609D01*
X179211981Y-124858392D01*
X179517196Y-125163607D01*
X179915979Y-125328789D01*
X180347619Y-125328789D01*
X180746402Y-125163607D01*
X181051617Y-124858392D01*
X181216799Y-124459609D01*
X181216799Y-124027969D01*
X181051617Y-123629186D01*
X180746402Y-123323971D01*
X180347619Y-123158789D01*
X179915979Y-123158789D01*
X179517196Y-123323971D01*
X179211981Y-123629186D01*
X179046799Y-124027969D01*
X175830003Y-124027969D01*
X175949746Y-123979319D01*
X175993860Y-123949843D01*
X176360805Y-123454410D01*
X173799500Y-120893105D01*
X171238195Y-123454410D01*
X148874365Y-123454410D01*
X148941156Y-123293164D01*
X148941156Y-122881416D01*
X148783587Y-122501010D01*
X148492436Y-122209859D01*
X148112030Y-122052290D01*
X147700282Y-122052290D01*
X147319876Y-122209859D01*
X147305231Y-122224504D01*
X147106774Y-122142300D01*
X146695026Y-122142300D01*
X146314620Y-122299869D01*
X146174069Y-122440420D01*
X146128874Y-122421700D01*
X145717126Y-122421700D01*
X145336720Y-122579269D01*
X145045569Y-122870420D01*
X144999972Y-122980500D01*
X144701126Y-122980500D01*
X144320720Y-123138069D01*
X144029569Y-123429220D01*
X143872000Y-123809626D01*
X143872000Y-124207032D01*
X143639674Y-124110800D01*
X143227926Y-124110800D01*
X142847520Y-124268369D01*
X142556369Y-124559520D01*
X142398800Y-124939926D01*
X120543198Y-124939926D01*
X120644305Y-124562590D01*
X120494723Y-124365989D01*
X119409776Y-124508825D01*
X112976207Y-124508825D01*
X112820470Y-124376852D01*
X113157958Y-124299689D01*
X113247104Y-124236386D01*
X117890267Y-124236386D01*
X118039849Y-124432987D01*
X119124796Y-124290151D01*
X118981960Y-123205204D01*
X118900985Y-123172051D01*
X119233787Y-123172051D01*
X119376623Y-124256998D01*
X120461570Y-124114162D01*
X120555170Y-123885545D01*
X120266886Y-123441710D01*
X122254295Y-123441710D01*
X122621240Y-123937143D01*
X124026771Y-124530536D01*
X125552393Y-124540887D01*
X126965846Y-123966619D01*
X127009960Y-123937143D01*
X127376905Y-123441710D01*
X124815600Y-120880405D01*
X122254295Y-123441710D01*
X120266886Y-123441710D01*
X120260458Y-123431814D01*
X119814544Y-123125403D01*
X119430388Y-123022469D01*
X119233787Y-123172051D01*
X118900985Y-123172051D01*
X118753343Y-123111604D01*
X118299612Y-123406316D01*
X117993201Y-123852230D01*
X117890267Y-124236386D01*
X113247104Y-124236386D01*
X113552922Y-124019224D01*
X113765989Y-123741550D01*
X112886953Y-123067043D01*
X112874778Y-123082910D01*
X112673266Y-122928284D01*
X112685441Y-122912417D01*
X112624338Y-122865531D01*
X113041579Y-122865531D01*
X113920614Y-123540038D01*
X114133681Y-123262365D01*
X114302365Y-122808269D01*
X114284434Y-122324186D01*
X114228233Y-122201553D01*
X114307347Y-122323355D01*
X114753261Y-122629766D01*
X115137417Y-122732700D01*
X115334018Y-122583118D01*
X115191182Y-121498171D01*
X114106235Y-121641007D01*
X114018595Y-121855067D01*
X113827935Y-121840732D01*
X113041579Y-122865531D01*
X112624338Y-122865531D01*
X111806406Y-122237910D01*
X111593339Y-122515583D01*
X111424655Y-122969679D01*
X111431017Y-123141436D01*
X111277125Y-122968644D01*
X111034372Y-122518355D01*
X110904193Y-122036398D01*
X111961031Y-122036398D01*
X112840067Y-122710905D01*
X113626423Y-121686106D01*
X113551134Y-121471115D01*
X113541237Y-121465018D01*
X115443009Y-121465018D01*
X115585845Y-122549965D01*
X115814462Y-122643565D01*
X116268193Y-122348853D01*
X116574604Y-121902939D01*
X116677538Y-121518783D01*
X116615766Y-121437593D01*
X120975513Y-121437593D01*
X121549781Y-122851046D01*
X121579257Y-122895160D01*
X122074690Y-123262105D01*
X124635995Y-120700800D01*
X124995205Y-120700800D01*
X127556510Y-123262105D01*
X128051943Y-122895160D01*
X128645336Y-121489629D01*
X128655687Y-119964007D01*
X128081419Y-118550554D01*
X128051943Y-118506440D01*
X127912555Y-118403201D01*
X131218943Y-118403201D01*
X131218943Y-118814949D01*
X131376512Y-119195355D01*
X131630915Y-119449758D01*
X131476800Y-119821826D01*
X131476800Y-120233574D01*
X131634369Y-120613980D01*
X131925520Y-120905131D01*
X132305926Y-121062700D01*
X132717674Y-121062700D01*
X133098080Y-120905131D01*
X133389231Y-120613980D01*
X133546800Y-120233574D01*
X133546800Y-119821826D01*
X133531019Y-119783726D01*
X133623100Y-119783726D01*
X133623100Y-120195474D01*
X133780669Y-120575880D01*
X134071820Y-120867031D01*
X134452226Y-121024600D01*
X134863974Y-121024600D01*
X135142656Y-120909167D01*
X135214820Y-120981331D01*
X135595226Y-121138900D01*
X136006974Y-121138900D01*
X136387380Y-120981331D01*
X136557968Y-120810743D01*
X138553900Y-120810743D01*
X138553900Y-121302057D01*
X138741918Y-121755971D01*
X139089329Y-122103382D01*
X139543243Y-122291400D01*
X140034557Y-122291400D01*
X140366800Y-122153780D01*
X140366800Y-122329074D01*
X140524369Y-122709480D01*
X140815520Y-123000631D01*
X141195926Y-123158200D01*
X141607674Y-123158200D01*
X141988080Y-123000631D01*
X142279231Y-122709480D01*
X142436800Y-122329074D01*
X142436800Y-121917326D01*
X142279231Y-121536920D01*
X142192604Y-121450293D01*
X169959413Y-121450293D01*
X170533681Y-122863746D01*
X170563157Y-122907860D01*
X171058590Y-123274805D01*
X173619895Y-120713500D01*
X173979105Y-120713500D01*
X176540410Y-123274805D01*
X177035843Y-122907860D01*
X177629236Y-121502329D01*
X177639587Y-119976707D01*
X177603706Y-119888391D01*
X184441601Y-119888391D01*
X184441601Y-120320031D01*
X184606783Y-120718814D01*
X184911998Y-121024029D01*
X185310781Y-121189211D01*
X185742421Y-121189211D01*
X186141204Y-121024029D01*
X186446419Y-120718814D01*
X186611601Y-120320031D01*
X186611601Y-119888391D01*
X186446419Y-119489608D01*
X186141204Y-119184393D01*
X185742421Y-119019211D01*
X185310781Y-119019211D01*
X184911998Y-119184393D01*
X184606783Y-119489608D01*
X184441601Y-119888391D01*
X177603706Y-119888391D01*
X177065319Y-118563254D01*
X177035843Y-118519140D01*
X176540410Y-118152195D01*
X173979105Y-120713500D01*
X173619895Y-120713500D01*
X171058590Y-118152195D01*
X170563157Y-118519140D01*
X169969764Y-119924671D01*
X169959413Y-121450293D01*
X142192604Y-121450293D01*
X141988080Y-121245769D01*
X141607674Y-121088200D01*
X141195926Y-121088200D01*
X141023900Y-121159455D01*
X141023900Y-120810743D01*
X140835882Y-120356829D01*
X140488471Y-120009418D01*
X140034557Y-119821400D01*
X139543243Y-119821400D01*
X139089329Y-120009418D01*
X138741918Y-120356829D01*
X138553900Y-120810743D01*
X136557968Y-120810743D01*
X136678531Y-120690180D01*
X136836100Y-120309774D01*
X136836100Y-119898026D01*
X136678531Y-119517620D01*
X136387380Y-119226469D01*
X136006974Y-119068900D01*
X135595226Y-119068900D01*
X135316544Y-119184333D01*
X135244380Y-119112169D01*
X134863974Y-118954600D01*
X134452226Y-118954600D01*
X134071820Y-119112169D01*
X133780669Y-119403320D01*
X133623100Y-119783726D01*
X133531019Y-119783726D01*
X133389231Y-119441420D01*
X133134828Y-119187017D01*
X133288943Y-118814949D01*
X133288943Y-118403201D01*
X133131374Y-118022795D01*
X133025405Y-117916826D01*
X150450600Y-117916826D01*
X150450600Y-118328574D01*
X150608169Y-118708980D01*
X150899320Y-119000131D01*
X151279726Y-119157700D01*
X151691474Y-119157700D01*
X151907610Y-119068174D01*
X151979769Y-119242380D01*
X152270920Y-119533531D01*
X152651326Y-119691100D01*
X153063074Y-119691100D01*
X153443480Y-119533531D01*
X153734631Y-119242380D01*
X153857209Y-118946450D01*
X154218180Y-118796931D01*
X154509331Y-118505780D01*
X154526570Y-118464160D01*
X159184560Y-118464160D01*
X159184560Y-118955474D01*
X159372578Y-119409388D01*
X159719989Y-119756799D01*
X160173903Y-119944817D01*
X160665217Y-119944817D01*
X161119131Y-119756799D01*
X161466542Y-119409388D01*
X161654560Y-118955474D01*
X161654560Y-118464160D01*
X161466542Y-118010246D01*
X161428886Y-117972590D01*
X171238195Y-117972590D01*
X173799500Y-120533895D01*
X176360805Y-117972590D01*
X175993860Y-117477157D01*
X174588329Y-116883764D01*
X173062707Y-116873413D01*
X171649254Y-117447681D01*
X171605140Y-117477157D01*
X171238195Y-117972590D01*
X161428886Y-117972590D01*
X161119131Y-117662835D01*
X160665217Y-117474817D01*
X160173903Y-117474817D01*
X159719989Y-117662835D01*
X159372578Y-118010246D01*
X159184560Y-118464160D01*
X154526570Y-118464160D01*
X154666900Y-118125374D01*
X154666900Y-117713626D01*
X154509331Y-117333220D01*
X154218180Y-117042069D01*
X153837774Y-116884500D01*
X153426026Y-116884500D01*
X153045620Y-117042069D01*
X152754469Y-117333220D01*
X152631891Y-117629150D01*
X152435190Y-117710626D01*
X152363031Y-117536420D01*
X152071880Y-117245269D01*
X151691474Y-117087700D01*
X151279726Y-117087700D01*
X150899320Y-117245269D01*
X150608169Y-117536420D01*
X150450600Y-117916826D01*
X133025405Y-117916826D01*
X132840223Y-117731644D01*
X132459817Y-117574075D01*
X132048069Y-117574075D01*
X131667663Y-117731644D01*
X131376512Y-118022795D01*
X131218943Y-118403201D01*
X127912555Y-118403201D01*
X127556510Y-118139495D01*
X124995205Y-120700800D01*
X124635995Y-120700800D01*
X122074690Y-118139495D01*
X121579257Y-118506440D01*
X120985864Y-119911971D01*
X120975513Y-121437593D01*
X116615766Y-121437593D01*
X116527956Y-121322182D01*
X115443009Y-121465018D01*
X113541237Y-121465018D01*
X113518891Y-121451252D01*
X113041291Y-121370289D01*
X112569062Y-121478259D01*
X112174098Y-121758724D01*
X111961031Y-122036398D01*
X110904193Y-122036398D01*
X110901008Y-122024608D01*
X110885290Y-121513376D01*
X110950885Y-121192579D01*
X113923500Y-121192579D01*
X114073082Y-121389180D01*
X115158029Y-121246344D01*
X115015193Y-120161397D01*
X114934218Y-120128244D01*
X115267020Y-120128244D01*
X115409856Y-121213191D01*
X116494803Y-121070355D01*
X116588403Y-120841738D01*
X116293691Y-120388007D01*
X115847777Y-120081596D01*
X115463621Y-119978662D01*
X115267020Y-120128244D01*
X114934218Y-120128244D01*
X114786576Y-120067797D01*
X114332845Y-120362509D01*
X114026434Y-120808423D01*
X113923500Y-121192579D01*
X110950885Y-121192579D01*
X110988054Y-121010806D01*
X111202432Y-120546073D01*
X111551494Y-120100833D01*
X111830913Y-119799920D01*
X111860006Y-119783336D01*
X111878118Y-119759999D01*
X111901905Y-119744105D01*
X111916865Y-119721715D01*
X111938136Y-119705207D01*
X111986529Y-119620313D01*
X111994031Y-119610647D01*
X111996108Y-119606494D01*
X112593941Y-118816440D01*
X112610905Y-118805105D01*
X112622158Y-118788263D01*
X112644135Y-118771207D01*
X112686096Y-118697598D01*
X112686355Y-118697295D01*
X112692233Y-118686832D01*
X112692898Y-118685666D01*
X112707790Y-118665985D01*
X112718176Y-118644562D01*
X112773354Y-118561982D01*
X112779376Y-118531708D01*
X113100603Y-117959890D01*
X122254295Y-117959890D01*
X124815600Y-120521195D01*
X127376905Y-117959890D01*
X127009960Y-117464457D01*
X125604429Y-116871064D01*
X124078807Y-116860713D01*
X122665354Y-117434981D01*
X122621240Y-117464457D01*
X122254295Y-117959890D01*
X113100603Y-117959890D01*
X113286235Y-117629447D01*
X113349354Y-117534983D01*
X113365072Y-117455965D01*
X113742978Y-116494424D01*
X113779354Y-116439983D01*
X113794705Y-116362811D01*
X113795542Y-116360680D01*
X113799000Y-116341473D01*
X113807173Y-116316954D01*
X113811002Y-116286580D01*
X113816058Y-116265826D01*
X135947200Y-116265826D01*
X135947200Y-116677574D01*
X136104769Y-117057980D01*
X136395920Y-117349131D01*
X136776326Y-117506700D01*
X137188074Y-117506700D01*
X137568480Y-117349131D01*
X137859631Y-117057980D01*
X138017200Y-116677574D01*
X138017200Y-116265826D01*
X137859631Y-115885420D01*
X137630437Y-115656226D01*
X139782600Y-115656226D01*
X139782600Y-116067974D01*
X139940169Y-116448380D01*
X140231320Y-116739531D01*
X140611726Y-116897100D01*
X141023474Y-116897100D01*
X141403880Y-116739531D01*
X141695031Y-116448380D01*
X141751149Y-116312900D01*
X141937874Y-116312900D01*
X142051520Y-116265826D01*
X160255000Y-116265826D01*
X160255000Y-116677574D01*
X160412569Y-117057980D01*
X160703720Y-117349131D01*
X161084126Y-117506700D01*
X161495874Y-117506700D01*
X161876280Y-117349131D01*
X162167431Y-117057980D01*
X162239330Y-116884400D01*
X162308674Y-116884400D01*
X162689080Y-116726831D01*
X162980231Y-116435680D01*
X163137800Y-116055274D01*
X163137800Y-115643526D01*
X162980231Y-115263120D01*
X162689080Y-114971969D01*
X162308674Y-114814400D01*
X161896926Y-114814400D01*
X161516520Y-114971969D01*
X161225369Y-115263120D01*
X161153470Y-115436700D01*
X161084126Y-115436700D01*
X160703720Y-115594269D01*
X160412569Y-115885420D01*
X160255000Y-116265826D01*
X142051520Y-116265826D01*
X142318280Y-116155331D01*
X142609431Y-115864180D01*
X142767000Y-115483774D01*
X142767000Y-115072026D01*
X142656530Y-114805326D01*
X147428000Y-114805326D01*
X147428000Y-115217074D01*
X147585569Y-115597480D01*
X147876720Y-115888631D01*
X148257126Y-116046200D01*
X148668874Y-116046200D01*
X149049280Y-115888631D01*
X149340431Y-115597480D01*
X149498000Y-115217074D01*
X149498000Y-114856126D01*
X150857000Y-114856126D01*
X150857000Y-115267874D01*
X151014569Y-115648280D01*
X151305720Y-115939431D01*
X151686126Y-116097000D01*
X152097874Y-116097000D01*
X152385759Y-115977754D01*
X152765626Y-116135100D01*
X153177374Y-116135100D01*
X153557780Y-115977531D01*
X153848931Y-115686380D01*
X154006500Y-115305974D01*
X154006500Y-115081000D01*
X154066374Y-115081000D01*
X154446780Y-114923431D01*
X154682911Y-114687300D01*
X155006174Y-114687300D01*
X155386580Y-114529731D01*
X155677731Y-114238580D01*
X155835300Y-113858174D01*
X155835300Y-113446426D01*
X155677731Y-113066020D01*
X155586554Y-112974843D01*
X159026300Y-112974843D01*
X159026300Y-113466157D01*
X159214318Y-113920071D01*
X159561729Y-114267482D01*
X160015643Y-114455500D01*
X160506957Y-114455500D01*
X160960871Y-114267482D01*
X161308282Y-113920071D01*
X161447304Y-113584443D01*
X172259700Y-113584443D01*
X172259700Y-114075757D01*
X172447718Y-114529671D01*
X172795129Y-114877082D01*
X173249043Y-115065100D01*
X173740357Y-115065100D01*
X174194271Y-114877082D01*
X174541682Y-114529671D01*
X174729700Y-114075757D01*
X174729700Y-113584443D01*
X174541682Y-113130529D01*
X174194271Y-112783118D01*
X173740357Y-112595100D01*
X173249043Y-112595100D01*
X172795129Y-112783118D01*
X172447718Y-113130529D01*
X172259700Y-113584443D01*
X161447304Y-113584443D01*
X161496300Y-113466157D01*
X161496300Y-112974843D01*
X161308282Y-112520929D01*
X160960871Y-112173518D01*
X160506957Y-111985500D01*
X160015643Y-111985500D01*
X159561729Y-112173518D01*
X159214318Y-112520929D01*
X159026300Y-112974843D01*
X155586554Y-112974843D01*
X155386580Y-112774869D01*
X155006174Y-112617300D01*
X154594426Y-112617300D01*
X154214020Y-112774869D01*
X153977889Y-113011000D01*
X153654626Y-113011000D01*
X153274220Y-113168569D01*
X152983069Y-113459720D01*
X152825500Y-113840126D01*
X152825500Y-114065100D01*
X152765626Y-114065100D01*
X152477741Y-114184346D01*
X152097874Y-114027000D01*
X151686126Y-114027000D01*
X151305720Y-114184569D01*
X151014569Y-114475720D01*
X150857000Y-114856126D01*
X149498000Y-114856126D01*
X149498000Y-114805326D01*
X149340431Y-114424920D01*
X149049280Y-114133769D01*
X148668874Y-113976200D01*
X148257126Y-113976200D01*
X147876720Y-114133769D01*
X147585569Y-114424920D01*
X147428000Y-114805326D01*
X142656530Y-114805326D01*
X142609431Y-114691620D01*
X142318280Y-114400469D01*
X141937874Y-114242900D01*
X141526126Y-114242900D01*
X141145720Y-114400469D01*
X140854569Y-114691620D01*
X140798451Y-114827100D01*
X140611726Y-114827100D01*
X140231320Y-114984669D01*
X139940169Y-115275820D01*
X139782600Y-115656226D01*
X137630437Y-115656226D01*
X137568480Y-115594269D01*
X137188074Y-115436700D01*
X136776326Y-115436700D01*
X136395920Y-115594269D01*
X136104769Y-115885420D01*
X135947200Y-116265826D01*
X113816058Y-116265826D01*
X114047346Y-115316464D01*
X114056354Y-115302982D01*
X114077353Y-115197415D01*
X114085173Y-115173954D01*
X114086434Y-115163951D01*
X114088688Y-115156643D01*
X114090456Y-115139510D01*
X114095247Y-115119844D01*
X114095919Y-115104074D01*
X114099000Y-115088587D01*
X114099000Y-115087614D01*
X114100000Y-115082587D01*
X114100000Y-115056337D01*
X114112513Y-114957076D01*
X114110165Y-114948500D01*
X114199805Y-114079743D01*
X118373600Y-114079743D01*
X118373600Y-114571057D01*
X118561618Y-115024971D01*
X118909029Y-115372382D01*
X119362943Y-115560400D01*
X119854257Y-115560400D01*
X120308171Y-115372382D01*
X120655582Y-115024971D01*
X120843600Y-114571057D01*
X120843600Y-114079743D01*
X120655582Y-113625829D01*
X120308171Y-113278418D01*
X119854257Y-113090400D01*
X119362943Y-113090400D01*
X118909029Y-113278418D01*
X118561618Y-113625829D01*
X118373600Y-114079743D01*
X114199805Y-114079743D01*
X114212589Y-113955846D01*
X114220000Y-113918587D01*
X114220000Y-113899226D01*
X114222004Y-113887040D01*
X114221438Y-113870080D01*
X114223548Y-113849633D01*
X114220000Y-113811812D01*
X114220000Y-113766812D01*
X114217589Y-113754689D01*
X114184213Y-112754283D01*
X114193513Y-112720324D01*
X114181340Y-112623757D01*
X114181692Y-112610767D01*
X114181000Y-112606717D01*
X114181000Y-112594812D01*
X114178469Y-112582086D01*
X114178177Y-112573345D01*
X114171250Y-112543722D01*
X114166173Y-112503446D01*
X114160392Y-112486103D01*
X114005496Y-111579526D01*
X147770900Y-111579526D01*
X147770900Y-111991274D01*
X147928469Y-112371680D01*
X148219620Y-112662831D01*
X148600026Y-112820400D01*
X149011774Y-112820400D01*
X149392180Y-112662831D01*
X149683331Y-112371680D01*
X149743165Y-112227226D01*
X150437900Y-112227226D01*
X150437900Y-112638974D01*
X150595469Y-113019380D01*
X150886620Y-113310531D01*
X151267026Y-113468100D01*
X151678774Y-113468100D01*
X152059180Y-113310531D01*
X152350331Y-113019380D01*
X152507900Y-112638974D01*
X152507900Y-112227226D01*
X152350331Y-111846820D01*
X152059180Y-111555669D01*
X151678774Y-111398100D01*
X151267026Y-111398100D01*
X150886620Y-111555669D01*
X150595469Y-111846820D01*
X150437900Y-112227226D01*
X149743165Y-112227226D01*
X149840900Y-111991274D01*
X149840900Y-111579526D01*
X149683331Y-111199120D01*
X149392180Y-110907969D01*
X149011774Y-110750400D01*
X148600026Y-110750400D01*
X148219620Y-110907969D01*
X147928469Y-111199120D01*
X147770900Y-111579526D01*
X114005496Y-111579526D01*
X113994369Y-111514402D01*
X113996398Y-111504199D01*
X113982000Y-111431813D01*
X113982000Y-111431812D01*
X113973630Y-111389732D01*
X113968173Y-111346446D01*
X113963041Y-111331051D01*
X113960309Y-111315059D01*
X113957118Y-111306723D01*
X113939354Y-111217417D01*
X113915055Y-111181051D01*
X113747640Y-110650743D01*
X181594200Y-110650743D01*
X181594200Y-111142057D01*
X181782218Y-111595971D01*
X182129629Y-111943382D01*
X182583543Y-112131400D01*
X183074857Y-112131400D01*
X183528771Y-111943382D01*
X183876182Y-111595971D01*
X184064200Y-111142057D01*
X184064200Y-110650743D01*
X183876182Y-110196829D01*
X183528771Y-109849418D01*
X183074857Y-109661400D01*
X182583543Y-109661400D01*
X182129629Y-109849418D01*
X181782218Y-110196829D01*
X181594200Y-110650743D01*
X113747640Y-110650743D01*
X113614913Y-110230319D01*
X113614173Y-110224446D01*
X113604367Y-110195027D01*
X113584354Y-110094417D01*
X113533241Y-110017921D01*
X113092069Y-109085286D01*
X113081354Y-109031417D01*
X113030792Y-108955745D01*
X113025459Y-108944472D01*
X113010471Y-108924265D01*
X112955135Y-108827193D01*
X112935196Y-108811718D01*
X112442191Y-108055624D01*
X112441354Y-108051418D01*
X112366915Y-107940012D01*
X112347877Y-107906580D01*
X112336284Y-107893201D01*
X112325143Y-107876115D01*
X112322228Y-107873134D01*
X112319909Y-107869663D01*
X112318187Y-107867941D01*
X112316403Y-107865265D01*
X112316128Y-107864989D01*
X112274905Y-107803295D01*
X112235652Y-107777067D01*
X111564836Y-107002915D01*
X111548403Y-106978265D01*
X111548125Y-106977987D01*
X111547909Y-106977663D01*
X111545911Y-106975665D01*
X111504905Y-106914295D01*
X111443866Y-106873510D01*
X111393994Y-106823534D01*
X111369567Y-106813386D01*
X110646889Y-106178680D01*
X110619905Y-106138295D01*
X110561548Y-106099302D01*
X110561537Y-106099291D01*
X110561213Y-106099075D01*
X110560935Y-106098797D01*
X110556914Y-106096116D01*
X110556037Y-106095247D01*
X110539216Y-106084113D01*
X110525633Y-106072184D01*
X110490947Y-106052124D01*
X110379782Y-105977846D01*
X110379774Y-105977844D01*
X110376783Y-105975846D01*
X110375151Y-105975521D01*
X109620505Y-105476034D01*
X109605007Y-105456064D01*
X109510153Y-105401993D01*
X109491841Y-105388225D01*
X109477201Y-105381183D01*
X109466871Y-105374346D01*
X109395783Y-105326846D01*
X109342001Y-105316148D01*
X108709591Y-105011943D01*
X134820100Y-105011943D01*
X134820100Y-105503257D01*
X135008118Y-105957171D01*
X135355529Y-106304582D01*
X135809443Y-106492600D01*
X136300757Y-106492600D01*
X136754671Y-106304582D01*
X137102082Y-105957171D01*
X137290100Y-105503257D01*
X137290100Y-105011943D01*
X137102082Y-104558029D01*
X136754671Y-104210618D01*
X136300757Y-104022600D01*
X135809443Y-104022600D01*
X135355529Y-104210618D01*
X135008118Y-104558029D01*
X134820100Y-105011943D01*
X108709591Y-105011943D01*
X108410315Y-104867984D01*
X108333782Y-104816846D01*
X108232226Y-104796645D01*
X108212636Y-104790321D01*
X108211754Y-104790027D01*
X108211707Y-104790021D01*
X107177477Y-104456128D01*
X106630946Y-104250435D01*
X106206350Y-103965125D01*
X105858888Y-103589206D01*
X105606960Y-103143083D01*
X105460483Y-102639236D01*
X105429000Y-102255136D01*
X105429000Y-102078243D01*
X114970000Y-102078243D01*
X114970000Y-102569557D01*
X115158018Y-103023471D01*
X115505429Y-103370882D01*
X115959343Y-103558900D01*
X116450657Y-103558900D01*
X116904571Y-103370882D01*
X117251982Y-103023471D01*
X117440000Y-102569557D01*
X117440000Y-102078243D01*
X117435437Y-102067226D01*
X126320600Y-102067226D01*
X126320600Y-102478974D01*
X126478169Y-102859380D01*
X126769320Y-103150531D01*
X127149726Y-103308100D01*
X127561474Y-103308100D01*
X127941880Y-103150531D01*
X128233031Y-102859380D01*
X128390600Y-102478974D01*
X128390600Y-102067226D01*
X128233031Y-101686820D01*
X127941880Y-101395669D01*
X127561474Y-101238100D01*
X127149726Y-101238100D01*
X126769320Y-101395669D01*
X126478169Y-101686820D01*
X126320600Y-102067226D01*
X117435437Y-102067226D01*
X117251982Y-101624329D01*
X116904571Y-101276918D01*
X116450657Y-101088900D01*
X115959343Y-101088900D01*
X115505429Y-101276918D01*
X115158018Y-101624329D01*
X114970000Y-102078243D01*
X105429000Y-102078243D01*
X105429000Y-99136897D01*
X106219000Y-99136897D01*
X106219000Y-100127902D01*
X106334171Y-100706907D01*
X106772895Y-101363505D01*
X107429492Y-101802229D01*
X108204000Y-101956288D01*
X108978507Y-101802229D01*
X109635105Y-101363505D01*
X110073829Y-100706908D01*
X110189000Y-100127903D01*
X110189000Y-99136898D01*
X110129893Y-98839743D01*
X121320000Y-98839743D01*
X121320000Y-99331057D01*
X121508018Y-99784971D01*
X121855429Y-100132382D01*
X122309343Y-100320400D01*
X122800657Y-100320400D01*
X123254571Y-100132382D01*
X123601982Y-99784971D01*
X123790000Y-99331057D01*
X123790000Y-98839743D01*
X123601982Y-98385829D01*
X123254571Y-98038418D01*
X122800657Y-97850400D01*
X122309343Y-97850400D01*
X121855429Y-98038418D01*
X121508018Y-98385829D01*
X121320000Y-98839743D01*
X110129893Y-98839743D01*
X110073829Y-98557892D01*
X109635105Y-97901295D01*
X108978508Y-97462571D01*
X108204000Y-97308512D01*
X107429493Y-97462571D01*
X106772896Y-97901295D01*
X106334171Y-98557892D01*
X106219000Y-99136897D01*
X105429000Y-99136897D01*
X105429000Y-94418150D01*
X106219000Y-94418150D01*
X106219000Y-95908710D01*
X106315673Y-96142099D01*
X106494302Y-96320727D01*
X106727691Y-96417400D01*
X107918250Y-96417400D01*
X108077000Y-96258650D01*
X108077000Y-94259400D01*
X108331000Y-94259400D01*
X108331000Y-96258650D01*
X108489750Y-96417400D01*
X109680309Y-96417400D01*
X109913698Y-96320727D01*
X110092327Y-96142099D01*
X110189000Y-95908710D01*
X110189000Y-94418150D01*
X110030250Y-94259400D01*
X108331000Y-94259400D01*
X108077000Y-94259400D01*
X106377750Y-94259400D01*
X106219000Y-94418150D01*
X105429000Y-94418150D01*
X105429000Y-92356090D01*
X106219000Y-92356090D01*
X106219000Y-93846650D01*
X106377750Y-94005400D01*
X108077000Y-94005400D01*
X108077000Y-92006150D01*
X108331000Y-92006150D01*
X108331000Y-94005400D01*
X110030250Y-94005400D01*
X110189000Y-93846650D01*
X110189000Y-92529526D01*
X115170000Y-92529526D01*
X115170000Y-92941274D01*
X115327569Y-93321680D01*
X115618720Y-93612831D01*
X115999126Y-93770400D01*
X116410874Y-93770400D01*
X116791280Y-93612831D01*
X117082431Y-93321680D01*
X117240000Y-92941274D01*
X117240000Y-92529526D01*
X117234740Y-92516826D01*
X121494600Y-92516826D01*
X121494600Y-92928574D01*
X121652169Y-93308980D01*
X121943320Y-93600131D01*
X122323726Y-93757700D01*
X122735474Y-93757700D01*
X123115880Y-93600131D01*
X123407031Y-93308980D01*
X123564600Y-92928574D01*
X123564600Y-92516826D01*
X123407031Y-92136420D01*
X123115880Y-91845269D01*
X122735474Y-91687700D01*
X122323726Y-91687700D01*
X121943320Y-91845269D01*
X121652169Y-92136420D01*
X121494600Y-92516826D01*
X117234740Y-92516826D01*
X117082431Y-92149120D01*
X116791280Y-91857969D01*
X116410874Y-91700400D01*
X115999126Y-91700400D01*
X115618720Y-91857969D01*
X115327569Y-92149120D01*
X115170000Y-92529526D01*
X110189000Y-92529526D01*
X110189000Y-92356090D01*
X110092327Y-92122701D01*
X109913698Y-91944073D01*
X109680309Y-91847400D01*
X108489750Y-91847400D01*
X108331000Y-92006150D01*
X108077000Y-92006150D01*
X107918250Y-91847400D01*
X106727691Y-91847400D01*
X106494302Y-91944073D01*
X106315673Y-92122701D01*
X106219000Y-92356090D01*
X105429000Y-92356090D01*
X105429000Y-90668517D01*
X133124152Y-90668517D01*
X133129471Y-90705737D01*
X133200164Y-92196961D01*
X133198373Y-92234223D01*
X133203584Y-92269096D01*
X133205253Y-92304310D01*
X133214254Y-92340506D01*
X133434898Y-93817198D01*
X133436883Y-93854522D01*
X133445569Y-93888613D01*
X133450768Y-93923409D01*
X133463398Y-93958590D01*
X133832118Y-95405771D01*
X133837866Y-95442719D01*
X133849944Y-95475738D01*
X133858627Y-95509816D01*
X133874754Y-95543559D01*
X134387722Y-96945865D01*
X134397177Y-96982051D01*
X134412524Y-97013666D01*
X134424602Y-97046684D01*
X134444064Y-97078639D01*
X135096584Y-98422852D01*
X135109718Y-98458040D01*
X135128115Y-98487806D01*
X135143399Y-98519292D01*
X135166082Y-98549238D01*
X135951283Y-99819698D01*
X135967723Y-99853055D01*
X135989236Y-99881106D01*
X136007832Y-99911194D01*
X136033193Y-99938421D01*
X136941508Y-101122765D01*
X136961359Y-101154486D01*
X136985444Y-101180054D01*
X137006827Y-101207935D01*
X137034965Y-101232624D01*
X138059172Y-102319889D01*
X138082268Y-102349585D01*
X138108673Y-102372438D01*
X138132629Y-102397869D01*
X138163285Y-102419704D01*
X139292425Y-103396955D01*
X139318117Y-103423890D01*
X139347019Y-103444205D01*
X139373737Y-103467329D01*
X139406102Y-103485734D01*
X140627719Y-104344400D01*
X140656136Y-104368717D01*
X140686798Y-104385927D01*
X140715560Y-104406143D01*
X140749762Y-104421266D01*
X142051700Y-105151994D01*
X142082355Y-105173273D01*
X142114654Y-105187328D01*
X142145385Y-105204576D01*
X142180880Y-105216146D01*
X143550802Y-105812263D01*
X143583658Y-105830433D01*
X143617001Y-105841070D01*
X143649106Y-105855040D01*
X143685809Y-105863020D01*
X145108349Y-106316819D01*
X145142794Y-106331536D01*
X145177145Y-106338765D01*
X145210585Y-106349433D01*
X145247802Y-106353636D01*
X146709129Y-106661183D01*
X146744542Y-106672267D01*
X146779774Y-106676051D01*
X146814466Y-106683352D01*
X146851588Y-106683763D01*
X148336979Y-106843288D01*
X148373852Y-106850819D01*
X148408764Y-106850998D01*
X148443489Y-106854727D01*
X148480983Y-106851367D01*
X149974256Y-106859010D01*
X150011474Y-106862754D01*
X150046473Y-106859380D01*
X150081624Y-106859560D01*
X150118339Y-106852452D01*
X151604602Y-106709175D01*
X151641886Y-106709150D01*
X151676470Y-106702247D01*
X151711581Y-106698862D01*
X151747289Y-106688111D01*
X153211731Y-106395796D01*
X153249102Y-106391958D01*
X153282547Y-106381660D01*
X153316861Y-106374811D01*
X153351557Y-106360412D01*
X154778711Y-105920993D01*
X154815207Y-105913475D01*
X154847734Y-105899741D01*
X154881467Y-105889355D01*
X154914245Y-105871659D01*
X156289702Y-105290910D01*
X156325412Y-105279688D01*
X156356219Y-105262825D01*
X156388581Y-105249161D01*
X156419568Y-105228149D01*
X157730397Y-104510634D01*
X157764918Y-104495786D01*
X157793724Y-104475970D01*
X157824408Y-104459175D01*
X157853230Y-104435037D01*
X159083639Y-103588654D01*
X159116215Y-103570558D01*
X159143120Y-103547738D01*
X159172198Y-103527736D01*
X159198199Y-103501023D01*
X160336684Y-102535413D01*
X160367300Y-102514103D01*
X160391738Y-102488718D01*
X160418626Y-102465913D01*
X160441833Y-102436683D01*
X161477339Y-101361057D01*
X161505789Y-101336624D01*
X161527397Y-101309060D01*
X161551709Y-101283806D01*
X161571965Y-101252207D01*
X162493863Y-100076191D01*
X162519611Y-100049103D01*
X162538401Y-100019376D01*
X162560108Y-99991686D01*
X162576992Y-99958325D01*
X163112270Y-99111497D01*
X188413400Y-99111497D01*
X188413400Y-100102502D01*
X188528571Y-100681507D01*
X188967295Y-101338105D01*
X189623892Y-101776829D01*
X190398400Y-101930888D01*
X191172907Y-101776829D01*
X191829505Y-101338105D01*
X192268229Y-100681508D01*
X192383400Y-100102503D01*
X192383400Y-99111498D01*
X192268229Y-98532492D01*
X191829505Y-97875895D01*
X191172908Y-97437171D01*
X190398400Y-97283112D01*
X189623893Y-97437171D01*
X188967296Y-97875895D01*
X188528571Y-98532492D01*
X188413400Y-99111497D01*
X163112270Y-99111497D01*
X163374540Y-98696577D01*
X163397368Y-98667111D01*
X163413114Y-98635552D01*
X163431966Y-98605727D01*
X163445357Y-98570926D01*
X164112157Y-97234461D01*
X164132051Y-97202543D01*
X164144400Y-97169836D01*
X164160002Y-97138565D01*
X164169901Y-97102294D01*
X164697236Y-95705621D01*
X164713680Y-95672126D01*
X164722740Y-95638071D01*
X164735189Y-95605100D01*
X164741306Y-95568287D01*
X165022669Y-94510726D01*
X183953200Y-94510726D01*
X183953200Y-94922474D01*
X184110769Y-95302880D01*
X184401920Y-95594031D01*
X184782326Y-95751600D01*
X185194074Y-95751600D01*
X185574480Y-95594031D01*
X185865631Y-95302880D01*
X186023200Y-94922474D01*
X186023200Y-94510726D01*
X185974333Y-94392750D01*
X188413400Y-94392750D01*
X188413400Y-95883310D01*
X188510073Y-96116699D01*
X188688702Y-96295327D01*
X188922091Y-96392000D01*
X190112650Y-96392000D01*
X190271400Y-96233250D01*
X190271400Y-94234000D01*
X190525400Y-94234000D01*
X190525400Y-96233250D01*
X190684150Y-96392000D01*
X191874709Y-96392000D01*
X192108098Y-96295327D01*
X192286727Y-96116699D01*
X192383400Y-95883310D01*
X192383400Y-94392750D01*
X192224650Y-94234000D01*
X190525400Y-94234000D01*
X190271400Y-94234000D01*
X188572150Y-94234000D01*
X188413400Y-94392750D01*
X185974333Y-94392750D01*
X185865631Y-94130320D01*
X185574480Y-93839169D01*
X185194074Y-93681600D01*
X184782326Y-93681600D01*
X184401920Y-93839169D01*
X184110769Y-94130320D01*
X183953200Y-94510726D01*
X165022669Y-94510726D01*
X165125256Y-94125133D01*
X165138218Y-94090234D01*
X165143820Y-94055360D01*
X165152903Y-94021218D01*
X165155272Y-93984057D01*
X165317314Y-92975213D01*
X171473935Y-92975213D01*
X171473935Y-93386961D01*
X171631504Y-93767367D01*
X171922655Y-94058518D01*
X172303061Y-94216087D01*
X172714809Y-94216087D01*
X173095215Y-94058518D01*
X173386366Y-93767367D01*
X173543935Y-93386961D01*
X173543935Y-92975213D01*
X173386366Y-92594807D01*
X173122249Y-92330690D01*
X188413400Y-92330690D01*
X188413400Y-93821250D01*
X188572150Y-93980000D01*
X190271400Y-93980000D01*
X190271400Y-91980750D01*
X190525400Y-91980750D01*
X190525400Y-93980000D01*
X192224650Y-93980000D01*
X192383400Y-93821250D01*
X192383400Y-92330690D01*
X192286727Y-92097301D01*
X192108098Y-91918673D01*
X191874709Y-91822000D01*
X190684150Y-91822000D01*
X190525400Y-91980750D01*
X190271400Y-91980750D01*
X190112650Y-91822000D01*
X188922091Y-91822000D01*
X188688702Y-91918673D01*
X188510073Y-92097301D01*
X188413400Y-92330690D01*
X173122249Y-92330690D01*
X173095215Y-92303656D01*
X172714809Y-92146087D01*
X172303061Y-92146087D01*
X171922655Y-92303656D01*
X171631504Y-92594807D01*
X171473935Y-92975213D01*
X165317314Y-92975213D01*
X165392178Y-92509129D01*
X165401614Y-92472774D01*
X165403628Y-92437847D01*
X165409178Y-92403292D01*
X165407785Y-92365746D01*
X165492842Y-90890493D01*
X165497000Y-90869588D01*
X165497000Y-90818370D01*
X165499948Y-90767239D01*
X165497000Y-90746130D01*
X165497000Y-90743877D01*
X165499718Y-90725369D01*
X165497000Y-90671628D01*
X165497000Y-90617813D01*
X165493350Y-90599464D01*
X165418831Y-89126068D01*
X165420502Y-89088773D01*
X165415184Y-89053960D01*
X165413405Y-89018779D01*
X165404279Y-88982570D01*
X165178824Y-87506600D01*
X165176681Y-87469048D01*
X165167918Y-87435201D01*
X165162641Y-87400658D01*
X165149823Y-87365315D01*
X164775341Y-85918978D01*
X164769486Y-85882187D01*
X164757241Y-85849072D01*
X164748392Y-85814894D01*
X164732199Y-85781346D01*
X164214477Y-84381205D01*
X164204861Y-84344957D01*
X164189434Y-84313477D01*
X164177276Y-84280597D01*
X164157658Y-84248637D01*
X164075187Y-84080350D01*
X165901000Y-84080350D01*
X165901000Y-84770910D01*
X165997673Y-85004299D01*
X166176302Y-85182927D01*
X166409691Y-85279600D01*
X167100250Y-85279600D01*
X167259000Y-85120850D01*
X167259000Y-83921600D01*
X167513000Y-83921600D01*
X167513000Y-85120850D01*
X167671750Y-85279600D01*
X168362309Y-85279600D01*
X168595698Y-85182927D01*
X168774327Y-85004299D01*
X168871000Y-84770910D01*
X168871000Y-84080350D01*
X168712250Y-83921600D01*
X167513000Y-83921600D01*
X167259000Y-83921600D01*
X166059750Y-83921600D01*
X165901000Y-84080350D01*
X164075187Y-84080350D01*
X163500430Y-82907529D01*
X163487266Y-82872592D01*
X163468652Y-82842683D01*
X163453151Y-82811053D01*
X163430500Y-82781381D01*
X162641493Y-81513622D01*
X162624828Y-81480122D01*
X162603336Y-81452313D01*
X162584768Y-81422478D01*
X162559183Y-81395182D01*
X162450537Y-81254600D01*
X165871908Y-81254600D01*
X165987161Y-81834018D01*
X166315375Y-82325225D01*
X166337033Y-82339696D01*
X166176302Y-82406273D01*
X165997673Y-82584901D01*
X165901000Y-82818290D01*
X165901000Y-83508850D01*
X166059750Y-83667600D01*
X167259000Y-83667600D01*
X167259000Y-83647600D01*
X167513000Y-83647600D01*
X167513000Y-83667600D01*
X168712250Y-83667600D01*
X168871000Y-83508850D01*
X168871000Y-82818290D01*
X168774327Y-82584901D01*
X168595698Y-82406273D01*
X168434967Y-82339696D01*
X168456625Y-82325225D01*
X168784839Y-81834018D01*
X168842856Y-81542343D01*
X176107800Y-81542343D01*
X176107800Y-82033657D01*
X176295818Y-82487571D01*
X176643229Y-82834982D01*
X177097143Y-83023000D01*
X177588457Y-83023000D01*
X178042371Y-82834982D01*
X178141885Y-82735468D01*
X178089000Y-82863143D01*
X178089000Y-83354457D01*
X178254072Y-83752975D01*
X178226218Y-83780829D01*
X178038200Y-84234743D01*
X178038200Y-84726057D01*
X178195833Y-85106614D01*
X178150018Y-85152429D01*
X177962000Y-85606343D01*
X177962000Y-86097657D01*
X177997535Y-86183446D01*
X177588457Y-86014000D01*
X177097143Y-86014000D01*
X176643229Y-86202018D01*
X176295818Y-86549429D01*
X176107800Y-87003343D01*
X176107800Y-87494657D01*
X176295818Y-87948571D01*
X176643229Y-88295982D01*
X177097143Y-88484000D01*
X177588457Y-88484000D01*
X178042371Y-88295982D01*
X178181000Y-88157353D01*
X178319629Y-88295982D01*
X178773543Y-88484000D01*
X179264857Y-88484000D01*
X179718771Y-88295982D01*
X180066182Y-87948571D01*
X180184987Y-87661750D01*
X188388000Y-87661750D01*
X188388000Y-89152310D01*
X188484673Y-89385699D01*
X188663302Y-89564327D01*
X188896691Y-89661000D01*
X190087250Y-89661000D01*
X190246000Y-89502250D01*
X190246000Y-87503000D01*
X190500000Y-87503000D01*
X190500000Y-89502250D01*
X190658750Y-89661000D01*
X191849309Y-89661000D01*
X192082698Y-89564327D01*
X192261327Y-89385699D01*
X192358000Y-89152310D01*
X192358000Y-87661750D01*
X192199250Y-87503000D01*
X190500000Y-87503000D01*
X190246000Y-87503000D01*
X188546750Y-87503000D01*
X188388000Y-87661750D01*
X180184987Y-87661750D01*
X180254200Y-87494657D01*
X180254200Y-87003343D01*
X180118886Y-86676667D01*
X180243982Y-86551571D01*
X180432000Y-86097657D01*
X180432000Y-85606343D01*
X180429245Y-85599690D01*
X188388000Y-85599690D01*
X188388000Y-87090250D01*
X188546750Y-87249000D01*
X190246000Y-87249000D01*
X190246000Y-85249750D01*
X190500000Y-85249750D01*
X190500000Y-87249000D01*
X192199250Y-87249000D01*
X192358000Y-87090250D01*
X192358000Y-85599690D01*
X192261327Y-85366301D01*
X192082698Y-85187673D01*
X191849309Y-85091000D01*
X190658750Y-85091000D01*
X190500000Y-85249750D01*
X190246000Y-85249750D01*
X190087250Y-85091000D01*
X188896691Y-85091000D01*
X188663302Y-85187673D01*
X188484673Y-85366301D01*
X188388000Y-85599690D01*
X180429245Y-85599690D01*
X180274367Y-85225786D01*
X180320182Y-85179971D01*
X180508200Y-84726057D01*
X180508200Y-84234743D01*
X180343128Y-83836225D01*
X180370982Y-83808371D01*
X180559000Y-83354457D01*
X180559000Y-82863143D01*
X180371426Y-82410300D01*
X180559000Y-81957457D01*
X180559000Y-81466143D01*
X180523525Y-81380498D01*
X188388000Y-81380498D01*
X188388000Y-82371503D01*
X188503171Y-82950508D01*
X188941896Y-83607105D01*
X189598493Y-84045829D01*
X190373000Y-84199888D01*
X191147508Y-84045829D01*
X191804105Y-83607105D01*
X192242829Y-82950508D01*
X192358000Y-82371502D01*
X192358000Y-81380497D01*
X192242829Y-80801492D01*
X191804105Y-80144895D01*
X191147507Y-79706171D01*
X190373000Y-79552112D01*
X189598492Y-79706171D01*
X188941895Y-80144895D01*
X188503171Y-80801493D01*
X188388000Y-81380498D01*
X180523525Y-81380498D01*
X180370982Y-81012229D01*
X180023571Y-80664818D01*
X179569657Y-80476800D01*
X179078343Y-80476800D01*
X178624429Y-80664818D01*
X178295300Y-80993947D01*
X178042371Y-80741018D01*
X177588457Y-80553000D01*
X177097143Y-80553000D01*
X176643229Y-80741018D01*
X176295818Y-81088429D01*
X176107800Y-81542343D01*
X168842856Y-81542343D01*
X168900092Y-81254600D01*
X168784839Y-80675182D01*
X168456625Y-80183975D01*
X167965418Y-79855761D01*
X167532256Y-79769600D01*
X167239744Y-79769600D01*
X166806582Y-79855761D01*
X166315375Y-80183975D01*
X165987161Y-80675182D01*
X165871908Y-81254600D01*
X162450537Y-81254600D01*
X161645961Y-80213533D01*
X161626005Y-80181901D01*
X161601796Y-80156388D01*
X161580298Y-80128570D01*
X161552105Y-80104018D01*
X160524259Y-79020769D01*
X160501206Y-78991311D01*
X160474549Y-78968380D01*
X160450354Y-78942880D01*
X160419817Y-78921296D01*
X160189242Y-78722943D01*
X179917800Y-78722943D01*
X179917800Y-79214257D01*
X180105818Y-79668171D01*
X180453229Y-80015582D01*
X180907143Y-80203600D01*
X181398457Y-80203600D01*
X181825900Y-80026547D01*
X182253343Y-80203600D01*
X182744657Y-80203600D01*
X183179096Y-80023649D01*
X183196429Y-80040982D01*
X183650343Y-80229000D01*
X184141657Y-80229000D01*
X184595571Y-80040982D01*
X184942982Y-79693571D01*
X185078915Y-79365400D01*
X185233857Y-79365400D01*
X185687771Y-79177382D01*
X186035182Y-78829971D01*
X186223200Y-78376057D01*
X186223200Y-77884743D01*
X186035182Y-77430829D01*
X185687771Y-77083418D01*
X185233857Y-76895400D01*
X185047352Y-76895400D01*
X184942982Y-76643429D01*
X184595571Y-76296018D01*
X184141657Y-76108000D01*
X183734000Y-76108000D01*
X183734000Y-75725743D01*
X183545982Y-75271829D01*
X183198571Y-74924418D01*
X182744657Y-74736400D01*
X182253343Y-74736400D01*
X181799429Y-74924418D01*
X181452018Y-75271829D01*
X181264000Y-75725743D01*
X181264000Y-76217057D01*
X181366122Y-76463600D01*
X180932543Y-76463600D01*
X180478629Y-76651618D01*
X180131218Y-76999029D01*
X179943200Y-77452943D01*
X179943200Y-77944257D01*
X180091772Y-78302940D01*
X179917800Y-78722943D01*
X160189242Y-78722943D01*
X159287734Y-77947418D01*
X159261709Y-77920345D01*
X159232990Y-77900324D01*
X159206453Y-77877496D01*
X159173758Y-77859033D01*
X157948119Y-77004620D01*
X157919705Y-76980481D01*
X157888883Y-76963326D01*
X157859944Y-76943152D01*
X157825787Y-76928207D01*
X156521095Y-76202031D01*
X156490359Y-76180857D01*
X156457992Y-76166909D01*
X156427203Y-76149772D01*
X156391686Y-76138335D01*
X155020922Y-75547617D01*
X154988052Y-75529584D01*
X154954608Y-75519039D01*
X154922403Y-75505161D01*
X154885739Y-75497326D01*
X153461358Y-75048230D01*
X153426908Y-75033644D01*
X153392499Y-75026519D01*
X153358976Y-75015950D01*
X153321779Y-75011877D01*
X151859287Y-74709061D01*
X151823560Y-74698036D01*
X151788579Y-74694421D01*
X151754139Y-74687290D01*
X151716749Y-74686998D01*
X150231366Y-74533492D01*
X150194704Y-74526131D01*
X150159530Y-74526068D01*
X150124550Y-74522453D01*
X150087327Y-74525939D01*
X148593254Y-74523264D01*
X148555987Y-74519645D01*
X148521044Y-74523135D01*
X148485928Y-74523072D01*
X148449193Y-74530311D01*
X146963790Y-74678661D01*
X146926394Y-74678824D01*
X146891917Y-74685839D01*
X146856929Y-74689333D01*
X146821178Y-74700231D01*
X145357762Y-74997977D01*
X145320594Y-75001914D01*
X145287000Y-75012375D01*
X145252525Y-75019389D01*
X145218060Y-75033842D01*
X143791868Y-75477939D01*
X143755241Y-75485623D01*
X143722912Y-75499411D01*
X143689366Y-75509857D01*
X143656503Y-75527734D01*
X142282743Y-76113637D01*
X142246999Y-76125019D01*
X142216306Y-76141972D01*
X142184071Y-76155720D01*
X142153114Y-76176876D01*
X140846432Y-76898608D01*
X140812285Y-76913408D01*
X140783206Y-76933530D01*
X140752271Y-76950617D01*
X140723846Y-76974607D01*
X139495341Y-77824722D01*
X139462507Y-77843124D01*
X139435950Y-77865821D01*
X139407235Y-77885691D01*
X139381068Y-77912724D01*
X138246144Y-78882665D01*
X138215595Y-78904098D01*
X138191239Y-78929588D01*
X138164450Y-78952483D01*
X138141365Y-78981785D01*
X137109866Y-80061326D01*
X137081681Y-80085679D01*
X137059972Y-80113544D01*
X137035579Y-80139073D01*
X137015603Y-80170494D01*
X136097632Y-81348765D01*
X136071882Y-81376036D01*
X136053247Y-81405736D01*
X136031705Y-81433386D01*
X136014874Y-81466893D01*
X135220908Y-82732271D01*
X135198006Y-82762087D01*
X135182517Y-82793456D01*
X135163936Y-82823070D01*
X135150559Y-82858181D01*
X134489558Y-84196902D01*
X134469999Y-84228487D01*
X134457588Y-84261651D01*
X134441911Y-84293401D01*
X134432278Y-84329280D01*
X133908793Y-85728074D01*
X133892322Y-85761955D01*
X133883482Y-85795707D01*
X133871255Y-85828379D01*
X133865188Y-85865556D01*
X133486886Y-87309984D01*
X133474056Y-87344945D01*
X133468590Y-87379842D01*
X133459642Y-87414007D01*
X133457416Y-87451177D01*
X133226280Y-88926820D01*
X133217024Y-88962956D01*
X133215108Y-88998145D01*
X133209652Y-89032977D01*
X133211181Y-89070262D01*
X133129979Y-90561508D01*
X133124397Y-90598698D01*
X133126052Y-90633617D01*
X133124152Y-90668517D01*
X105429000Y-90668517D01*
X105429000Y-87661750D01*
X106219000Y-87661750D01*
X106219000Y-89152310D01*
X106315673Y-89385699D01*
X106494302Y-89564327D01*
X106727691Y-89661000D01*
X107918250Y-89661000D01*
X108077000Y-89502250D01*
X108077000Y-87503000D01*
X108331000Y-87503000D01*
X108331000Y-89502250D01*
X108489750Y-89661000D01*
X109680309Y-89661000D01*
X109913698Y-89564327D01*
X110092327Y-89385699D01*
X110189000Y-89152310D01*
X110189000Y-87661750D01*
X110030250Y-87503000D01*
X108331000Y-87503000D01*
X108077000Y-87503000D01*
X106377750Y-87503000D01*
X106219000Y-87661750D01*
X105429000Y-87661750D01*
X105429000Y-87474926D01*
X112782400Y-87474926D01*
X112782400Y-87886674D01*
X112939969Y-88267080D01*
X113231120Y-88558231D01*
X113611526Y-88715800D01*
X114023274Y-88715800D01*
X114203173Y-88641284D01*
X114297920Y-88736031D01*
X114678326Y-88893600D01*
X115090074Y-88893600D01*
X115338412Y-88790735D01*
X115352969Y-88825880D01*
X115644120Y-89117031D01*
X116024526Y-89274600D01*
X116436274Y-89274600D01*
X116816680Y-89117031D01*
X117100400Y-88833311D01*
X117100400Y-89015874D01*
X117257969Y-89396280D01*
X117549120Y-89687431D01*
X117929526Y-89845000D01*
X118341274Y-89845000D01*
X118721680Y-89687431D01*
X119012831Y-89396280D01*
X119170400Y-89015874D01*
X119170400Y-88604126D01*
X119012831Y-88223720D01*
X118721680Y-87932569D01*
X118341274Y-87775000D01*
X117929526Y-87775000D01*
X117549120Y-87932569D01*
X117265400Y-88216289D01*
X117265400Y-88033726D01*
X117107831Y-87653320D01*
X116816680Y-87362169D01*
X116436274Y-87204600D01*
X116024526Y-87204600D01*
X115776188Y-87307465D01*
X115761631Y-87272320D01*
X115470480Y-86981169D01*
X115090074Y-86823600D01*
X114678326Y-86823600D01*
X114498427Y-86898116D01*
X114403680Y-86803369D01*
X114023274Y-86645800D01*
X113611526Y-86645800D01*
X113231120Y-86803369D01*
X112939969Y-87094520D01*
X112782400Y-87474926D01*
X105429000Y-87474926D01*
X105429000Y-85599690D01*
X106219000Y-85599690D01*
X106219000Y-87090250D01*
X106377750Y-87249000D01*
X108077000Y-87249000D01*
X108077000Y-85249750D01*
X108331000Y-85249750D01*
X108331000Y-87249000D01*
X110030250Y-87249000D01*
X110189000Y-87090250D01*
X110189000Y-85599690D01*
X110092327Y-85366301D01*
X109913698Y-85187673D01*
X109680309Y-85091000D01*
X108489750Y-85091000D01*
X108331000Y-85249750D01*
X108077000Y-85249750D01*
X107918250Y-85091000D01*
X106727691Y-85091000D01*
X106494302Y-85187673D01*
X106315673Y-85366301D01*
X106219000Y-85599690D01*
X105429000Y-85599690D01*
X105429000Y-81380498D01*
X106219000Y-81380498D01*
X106219000Y-82371503D01*
X106334171Y-82950508D01*
X106772896Y-83607105D01*
X107429493Y-84045829D01*
X108204000Y-84199888D01*
X108978508Y-84045829D01*
X109635105Y-83607105D01*
X109792382Y-83371722D01*
X110650357Y-83371722D01*
X110719857Y-83655743D01*
X110892756Y-83891548D01*
X111142733Y-84043238D01*
X111215681Y-84054466D01*
X126302659Y-89545677D01*
X126365753Y-89583964D01*
X126438697Y-89595191D01*
X126438699Y-89595192D01*
X126654750Y-89628445D01*
X126938771Y-89558945D01*
X127065985Y-89465668D01*
X127174576Y-89386046D01*
X127287977Y-89199167D01*
X127326266Y-89136069D01*
X127337494Y-89063121D01*
X131252938Y-78305526D01*
X134613700Y-78305526D01*
X134613700Y-78717274D01*
X134771269Y-79097680D01*
X135062420Y-79388831D01*
X135442826Y-79546400D01*
X135854574Y-79546400D01*
X136234980Y-79388831D01*
X136526131Y-79097680D01*
X136683700Y-78717274D01*
X136683700Y-78305526D01*
X136526131Y-77925120D01*
X136234980Y-77633969D01*
X135854574Y-77476400D01*
X135442826Y-77476400D01*
X135062420Y-77633969D01*
X134771269Y-77925120D01*
X134613700Y-78305526D01*
X131252938Y-78305526D01*
X132315676Y-75385680D01*
X132353962Y-75322587D01*
X132365189Y-75249644D01*
X132365190Y-75249641D01*
X132398443Y-75033590D01*
X132398424Y-75033509D01*
X132328943Y-74749568D01*
X132156044Y-74513763D01*
X131969164Y-74400361D01*
X131969159Y-74400359D01*
X131906067Y-74362074D01*
X131833127Y-74350847D01*
X131781567Y-74332081D01*
X131899000Y-74355440D01*
X133249000Y-74355440D01*
X133496765Y-74306157D01*
X133574000Y-74254550D01*
X133651235Y-74306157D01*
X133899000Y-74355440D01*
X135249000Y-74355440D01*
X135496765Y-74306157D01*
X135574000Y-74254550D01*
X135651235Y-74306157D01*
X135899000Y-74355440D01*
X137249000Y-74355440D01*
X137496765Y-74306157D01*
X137574000Y-74254550D01*
X137651235Y-74306157D01*
X137899000Y-74355440D01*
X139249000Y-74355440D01*
X139496765Y-74306157D01*
X139574000Y-74254550D01*
X139651235Y-74306157D01*
X139899000Y-74355440D01*
X141249000Y-74355440D01*
X141496765Y-74306157D01*
X141574000Y-74254550D01*
X141651235Y-74306157D01*
X141899000Y-74355440D01*
X143249000Y-74355440D01*
X143496765Y-74306157D01*
X143574000Y-74254550D01*
X143651235Y-74306157D01*
X143899000Y-74355440D01*
X145249000Y-74355440D01*
X145496765Y-74306157D01*
X145574000Y-74254550D01*
X145651235Y-74306157D01*
X145899000Y-74355440D01*
X147249000Y-74355440D01*
X147496765Y-74306157D01*
X147574000Y-74254550D01*
X147651235Y-74306157D01*
X147899000Y-74355440D01*
X149249000Y-74355440D01*
X149496765Y-74306157D01*
X149574000Y-74254550D01*
X149651235Y-74306157D01*
X149899000Y-74355440D01*
X151249000Y-74355440D01*
X151496765Y-74306157D01*
X151574000Y-74254550D01*
X151651235Y-74306157D01*
X151899000Y-74355440D01*
X153249000Y-74355440D01*
X153496765Y-74306157D01*
X153574000Y-74254550D01*
X153651235Y-74306157D01*
X153899000Y-74355440D01*
X155249000Y-74355440D01*
X155496765Y-74306157D01*
X155574000Y-74254550D01*
X155651235Y-74306157D01*
X155899000Y-74355440D01*
X157249000Y-74355440D01*
X157496765Y-74306157D01*
X157574000Y-74254550D01*
X157651235Y-74306157D01*
X157899000Y-74355440D01*
X159249000Y-74355440D01*
X159496765Y-74306157D01*
X159574000Y-74254550D01*
X159651235Y-74306157D01*
X159899000Y-74355440D01*
X161249000Y-74355440D01*
X161496765Y-74306157D01*
X161568318Y-74258346D01*
X161772690Y-74343000D01*
X162288250Y-74343000D01*
X162447000Y-74184250D01*
X162447000Y-73160000D01*
X162701000Y-73160000D01*
X162701000Y-74184250D01*
X162859750Y-74343000D01*
X163375310Y-74343000D01*
X163608699Y-74246327D01*
X163787327Y-74067698D01*
X163884000Y-73834309D01*
X163884000Y-73318750D01*
X163725250Y-73160000D01*
X162701000Y-73160000D01*
X162447000Y-73160000D01*
X162427000Y-73160000D01*
X162427000Y-72906000D01*
X162447000Y-72906000D01*
X162447000Y-71881750D01*
X162701000Y-71881750D01*
X162701000Y-72906000D01*
X163725250Y-72906000D01*
X163884000Y-72747250D01*
X163884000Y-72231691D01*
X163787327Y-71998302D01*
X163608699Y-71819673D01*
X163375310Y-71723000D01*
X162859750Y-71723000D01*
X162701000Y-71881750D01*
X162447000Y-71881750D01*
X162288250Y-71723000D01*
X161772690Y-71723000D01*
X161568318Y-71807654D01*
X161496765Y-71759843D01*
X161249000Y-71710560D01*
X159899000Y-71710560D01*
X159651235Y-71759843D01*
X159574000Y-71811450D01*
X159496765Y-71759843D01*
X159249000Y-71710560D01*
X157899000Y-71710560D01*
X157651235Y-71759843D01*
X157574000Y-71811450D01*
X157496765Y-71759843D01*
X157249000Y-71710560D01*
X155899000Y-71710560D01*
X155651235Y-71759843D01*
X155574000Y-71811450D01*
X155496765Y-71759843D01*
X155249000Y-71710560D01*
X153899000Y-71710560D01*
X153651235Y-71759843D01*
X153574000Y-71811450D01*
X153496765Y-71759843D01*
X153249000Y-71710560D01*
X151899000Y-71710560D01*
X151651235Y-71759843D01*
X151574000Y-71811450D01*
X151496765Y-71759843D01*
X151249000Y-71710560D01*
X149899000Y-71710560D01*
X149651235Y-71759843D01*
X149574000Y-71811450D01*
X149496765Y-71759843D01*
X149249000Y-71710560D01*
X147899000Y-71710560D01*
X147651235Y-71759843D01*
X147574000Y-71811450D01*
X147496765Y-71759843D01*
X147249000Y-71710560D01*
X145899000Y-71710560D01*
X145651235Y-71759843D01*
X145574000Y-71811450D01*
X145496765Y-71759843D01*
X145249000Y-71710560D01*
X143899000Y-71710560D01*
X143651235Y-71759843D01*
X143574000Y-71811450D01*
X143496765Y-71759843D01*
X143249000Y-71710560D01*
X141899000Y-71710560D01*
X141651235Y-71759843D01*
X141574000Y-71811450D01*
X141496765Y-71759843D01*
X141249000Y-71710560D01*
X139899000Y-71710560D01*
X139651235Y-71759843D01*
X139574000Y-71811450D01*
X139496765Y-71759843D01*
X139249000Y-71710560D01*
X137899000Y-71710560D01*
X137651235Y-71759843D01*
X137574000Y-71811450D01*
X137496765Y-71759843D01*
X137249000Y-71710560D01*
X135899000Y-71710560D01*
X135651235Y-71759843D01*
X135574000Y-71811450D01*
X135496765Y-71759843D01*
X135249000Y-71710560D01*
X133899000Y-71710560D01*
X133651235Y-71759843D01*
X133574000Y-71811450D01*
X133496765Y-71759843D01*
X133249000Y-71710560D01*
X131899000Y-71710560D01*
X131651235Y-71759843D01*
X131441191Y-71900191D01*
X131300843Y-72110235D01*
X131251560Y-72358000D01*
X131251560Y-73708000D01*
X131300843Y-73955765D01*
X131441191Y-74165809D01*
X131580519Y-74258906D01*
X116746143Y-68859636D01*
X116683047Y-68821348D01*
X116610102Y-68810121D01*
X116610100Y-68810120D01*
X116394050Y-68776867D01*
X116394048Y-68776867D01*
X116110028Y-68846367D01*
X115874223Y-69019266D01*
X115760821Y-69206146D01*
X115760819Y-69206151D01*
X115722534Y-69269243D01*
X115711307Y-69342184D01*
X110733125Y-83019629D01*
X110694838Y-83082725D01*
X110683611Y-83155670D01*
X110683610Y-83155672D01*
X110650357Y-83371722D01*
X109792382Y-83371722D01*
X110073829Y-82950508D01*
X110189000Y-82371502D01*
X110189000Y-81380497D01*
X110073829Y-80801492D01*
X109635105Y-80144895D01*
X108978507Y-79706171D01*
X108204000Y-79552112D01*
X107429492Y-79706171D01*
X106772895Y-80144895D01*
X106334171Y-80801493D01*
X106219000Y-81380498D01*
X105429000Y-81380498D01*
X105429000Y-79234255D01*
X105493221Y-78680246D01*
X105667618Y-78199572D01*
X105948527Y-77771617D01*
X106320349Y-77419434D01*
X106774575Y-77155353D01*
X107138627Y-77030881D01*
X107518308Y-76922837D01*
X107522865Y-76922402D01*
X107536271Y-76918380D01*
X107553483Y-76915949D01*
X107569770Y-76910249D01*
X107584518Y-76907614D01*
X107591633Y-76904829D01*
X107599127Y-76903330D01*
X107625805Y-76892247D01*
X107649792Y-76885421D01*
X107654955Y-76882775D01*
X107663535Y-76880201D01*
X107678877Y-76872061D01*
X107692131Y-76867422D01*
X107701874Y-76861674D01*
X108685861Y-76476482D01*
X108698821Y-76473685D01*
X108699296Y-76473479D01*
X108765783Y-76460254D01*
X108832149Y-76415909D01*
X108834661Y-76414821D01*
X108837661Y-76413521D01*
X108870292Y-76390944D01*
X109798045Y-75873327D01*
X109800385Y-75872554D01*
X109851701Y-75843475D01*
X109891384Y-75824345D01*
X109902808Y-75815740D01*
X109980634Y-75774448D01*
X110018491Y-75728607D01*
X110867756Y-75088931D01*
X110912537Y-75059009D01*
X110914535Y-75057011D01*
X110975905Y-75016005D01*
X111016818Y-74954774D01*
X111750486Y-74227376D01*
X111810905Y-74187005D01*
X111865940Y-74104640D01*
X111881134Y-74087166D01*
X111884998Y-74080409D01*
X111891984Y-74072025D01*
X111899960Y-74057369D01*
X112507443Y-73264741D01*
X112525905Y-73252405D01*
X112527412Y-73250150D01*
X112536256Y-73243908D01*
X112589756Y-73159238D01*
X112598905Y-73148679D01*
X112606159Y-73135939D01*
X112620405Y-73117351D01*
X112621894Y-73114327D01*
X112622714Y-73113261D01*
X112633648Y-73091156D01*
X112688354Y-73009282D01*
X112693766Y-72982075D01*
X113209788Y-72075784D01*
X113210250Y-72075013D01*
X113233373Y-72039515D01*
X113237167Y-72030043D01*
X113242833Y-72020578D01*
X113245201Y-72013948D01*
X113247251Y-72010436D01*
X113247643Y-72009299D01*
X113249539Y-72005969D01*
X113250231Y-72003888D01*
X113288942Y-71935980D01*
X113295414Y-71884641D01*
X113669768Y-70950133D01*
X113707354Y-70893882D01*
X113722200Y-70819247D01*
X113722210Y-70819222D01*
X113722289Y-70818798D01*
X113726036Y-70799959D01*
X113732447Y-70781369D01*
X113733451Y-70774017D01*
X113736729Y-70763855D01*
X113739729Y-70738042D01*
X113980810Y-69771162D01*
X113991354Y-69755382D01*
X114002768Y-69697999D01*
X114027023Y-69646656D01*
X114031572Y-69553195D01*
X114034000Y-69540987D01*
X114034000Y-69514737D01*
X114046513Y-69415476D01*
X114045182Y-69410618D01*
X114148614Y-68456012D01*
X114148729Y-68455655D01*
X114153662Y-68413203D01*
X114162000Y-68371287D01*
X114162000Y-68357448D01*
X114163705Y-68347455D01*
X114163247Y-68330724D01*
X114173962Y-68238522D01*
X114159314Y-68187003D01*
X114152921Y-67953343D01*
X177885800Y-67953343D01*
X177885800Y-68444657D01*
X178073818Y-68898571D01*
X178421229Y-69245982D01*
X178875143Y-69434000D01*
X179366457Y-69434000D01*
X179820371Y-69245982D01*
X180167782Y-68898571D01*
X180355800Y-68444657D01*
X180355800Y-67953343D01*
X180167782Y-67499429D01*
X179820371Y-67152018D01*
X179366457Y-66964000D01*
X178875143Y-66964000D01*
X178421229Y-67152018D01*
X178073818Y-67499429D01*
X177885800Y-67953343D01*
X114152921Y-67953343D01*
X114132808Y-67218376D01*
X114141962Y-67186178D01*
X114130460Y-67087205D01*
X114130997Y-67071051D01*
X114129000Y-67058919D01*
X114129000Y-67046612D01*
X114127965Y-67041409D01*
X114127744Y-67033334D01*
X114120500Y-67001493D01*
X114116729Y-66969045D01*
X114111579Y-66953079D01*
X113937000Y-65892469D01*
X113937000Y-65885712D01*
X113931154Y-65856320D01*
X113926924Y-65822768D01*
X113925654Y-65810487D01*
X113925203Y-65809027D01*
X113924729Y-65804945D01*
X113924644Y-65804681D01*
X113924173Y-65800946D01*
X113919752Y-65787683D01*
X113917483Y-65773898D01*
X113911696Y-65758498D01*
X113894354Y-65671317D01*
X113872687Y-65638891D01*
X113591116Y-64726682D01*
X113591152Y-64692070D01*
X113560315Y-64617402D01*
X113546354Y-64547217D01*
X113496456Y-64472539D01*
X113060429Y-63536494D01*
X113049354Y-63480817D01*
X113003635Y-63412393D01*
X112999168Y-63402495D01*
X112995838Y-63397833D01*
X112995695Y-63397526D01*
X112992647Y-63393365D01*
X112971873Y-63364281D01*
X112908650Y-63261406D01*
X112902364Y-63256851D01*
X112475790Y-62593943D01*
X116595600Y-62593943D01*
X116595600Y-63085257D01*
X116783618Y-63539171D01*
X117131029Y-63886582D01*
X117584943Y-64074600D01*
X118076257Y-64074600D01*
X118530171Y-63886582D01*
X118877582Y-63539171D01*
X118915797Y-63446910D01*
X122279695Y-63446910D01*
X122646640Y-63942343D01*
X124052171Y-64535736D01*
X125577793Y-64546087D01*
X126991246Y-63971819D01*
X127035360Y-63942343D01*
X127402305Y-63446910D01*
X171238195Y-63446910D01*
X171605140Y-63942343D01*
X173010671Y-64535736D01*
X174536293Y-64546087D01*
X175949746Y-63971819D01*
X175993860Y-63942343D01*
X176360805Y-63446910D01*
X173799500Y-60885605D01*
X171238195Y-63446910D01*
X127402305Y-63446910D01*
X124841000Y-60885605D01*
X122279695Y-63446910D01*
X118915797Y-63446910D01*
X119065600Y-63085257D01*
X119065600Y-63052957D01*
X119444571Y-62895982D01*
X119791982Y-62548571D01*
X119980000Y-62094657D01*
X119980000Y-61990515D01*
X120308171Y-61854582D01*
X120655582Y-61507171D01*
X120843600Y-61053257D01*
X120843600Y-60913194D01*
X121004960Y-60846357D01*
X121000913Y-61442793D01*
X121575181Y-62856246D01*
X121604657Y-62900360D01*
X122100090Y-63267305D01*
X124661395Y-60706000D01*
X125020605Y-60706000D01*
X127581910Y-63267305D01*
X128077343Y-62900360D01*
X128670736Y-61494829D01*
X128671089Y-61442793D01*
X169959413Y-61442793D01*
X170533681Y-62856246D01*
X170563157Y-62900360D01*
X171058590Y-63267305D01*
X173619895Y-60706000D01*
X173979105Y-60706000D01*
X176540410Y-63267305D01*
X177035843Y-62900360D01*
X177629236Y-61494829D01*
X177635877Y-60515939D01*
X181900490Y-60515939D01*
X182195202Y-60969670D01*
X182641116Y-61276081D01*
X183025272Y-61379015D01*
X183221873Y-61229433D01*
X183079037Y-60144486D01*
X181994090Y-60287322D01*
X181900490Y-60515939D01*
X177635877Y-60515939D01*
X177638622Y-60111333D01*
X183330864Y-60111333D01*
X183473700Y-61196280D01*
X183702317Y-61289880D01*
X184156048Y-60995168D01*
X184462459Y-60549254D01*
X184565393Y-60165098D01*
X184415811Y-59968497D01*
X183330864Y-60111333D01*
X177638622Y-60111333D01*
X177639587Y-59969207D01*
X177586643Y-59838894D01*
X181811355Y-59838894D01*
X181960937Y-60035495D01*
X183045884Y-59892659D01*
X182903048Y-58807712D01*
X182822073Y-58774559D01*
X183154875Y-58774559D01*
X183297711Y-59859506D01*
X184382658Y-59716670D01*
X184401122Y-59671571D01*
X184862470Y-59671571D01*
X184937759Y-59886562D01*
X184970002Y-59906425D01*
X185447602Y-59987388D01*
X185919831Y-59879418D01*
X186314795Y-59598953D01*
X186527862Y-59321279D01*
X185648826Y-58646772D01*
X184862470Y-59671571D01*
X184401122Y-59671571D01*
X184470298Y-59502610D01*
X184660958Y-59516945D01*
X185447314Y-58492146D01*
X184568279Y-57817639D01*
X184355212Y-58095312D01*
X184186528Y-58549408D01*
X184204459Y-59033491D01*
X184260660Y-59156124D01*
X184181546Y-59034322D01*
X183735632Y-58727911D01*
X183351476Y-58624977D01*
X183154875Y-58774559D01*
X182822073Y-58774559D01*
X182674431Y-58714112D01*
X182220700Y-59008824D01*
X181914289Y-59454738D01*
X181811355Y-59838894D01*
X177586643Y-59838894D01*
X177065319Y-58555754D01*
X177035843Y-58511640D01*
X176540410Y-58144695D01*
X173979105Y-60706000D01*
X173619895Y-60706000D01*
X171058590Y-58144695D01*
X170563157Y-58511640D01*
X169969764Y-59917171D01*
X169959413Y-61442793D01*
X128671089Y-61442793D01*
X128681087Y-59969207D01*
X128106819Y-58555754D01*
X128077343Y-58511640D01*
X127793410Y-58301343D01*
X157565800Y-58301343D01*
X157565800Y-58792657D01*
X157753818Y-59246571D01*
X158101229Y-59593982D01*
X158555143Y-59782000D01*
X159046457Y-59782000D01*
X159500371Y-59593982D01*
X159847782Y-59246571D01*
X160035800Y-58792657D01*
X160035800Y-58301343D01*
X159896519Y-57965090D01*
X171238195Y-57965090D01*
X173799500Y-60526395D01*
X176360805Y-57965090D01*
X175995694Y-57472132D01*
X177933723Y-57472132D01*
X178228435Y-57925863D01*
X178674349Y-58232274D01*
X179058505Y-58335208D01*
X179255106Y-58185626D01*
X179112270Y-57100679D01*
X178027323Y-57243515D01*
X177933723Y-57472132D01*
X175995694Y-57472132D01*
X175993860Y-57469657D01*
X175041359Y-57067526D01*
X179364097Y-57067526D01*
X179506933Y-58152473D01*
X179735550Y-58246073D01*
X180189281Y-57951361D01*
X180495692Y-57505447D01*
X180598626Y-57121291D01*
X180449044Y-56924690D01*
X179364097Y-57067526D01*
X175041359Y-57067526D01*
X174588329Y-56876264D01*
X173062707Y-56865913D01*
X171649254Y-57440181D01*
X171605140Y-57469657D01*
X171238195Y-57965090D01*
X159896519Y-57965090D01*
X159847782Y-57847429D01*
X159500371Y-57500018D01*
X159046457Y-57312000D01*
X158555143Y-57312000D01*
X158101229Y-57500018D01*
X157753818Y-57847429D01*
X157565800Y-58301343D01*
X127793410Y-58301343D01*
X127581910Y-58144695D01*
X125020605Y-60706000D01*
X124661395Y-60706000D01*
X124647253Y-60691858D01*
X124826858Y-60512253D01*
X124841000Y-60526395D01*
X127402305Y-57965090D01*
X127035360Y-57469657D01*
X125629829Y-56876264D01*
X124104207Y-56865913D01*
X122690754Y-57440181D01*
X122646640Y-57469657D01*
X122279696Y-57965088D01*
X122167682Y-57853074D01*
X122156708Y-57864048D01*
X122128782Y-57796629D01*
X121781371Y-57449218D01*
X121327457Y-57261200D01*
X120836143Y-57261200D01*
X120382229Y-57449218D01*
X120034818Y-57796629D01*
X119846800Y-58250543D01*
X119846800Y-58652574D01*
X119747229Y-58693818D01*
X119399818Y-59041229D01*
X119211800Y-59495143D01*
X119211800Y-59635206D01*
X118909029Y-59760618D01*
X118561618Y-60108029D01*
X118373600Y-60561943D01*
X118373600Y-60666085D01*
X118045429Y-60802018D01*
X117698018Y-61149429D01*
X117510000Y-61603343D01*
X117510000Y-61635643D01*
X117131029Y-61792618D01*
X116783618Y-62140029D01*
X116595600Y-62593943D01*
X112475790Y-62593943D01*
X112413433Y-62497040D01*
X112412354Y-62491617D01*
X112359634Y-62412715D01*
X112348714Y-62390639D01*
X112346567Y-62387848D01*
X112343159Y-62381276D01*
X112332393Y-62367818D01*
X112325406Y-62355377D01*
X112312797Y-62340650D01*
X112302916Y-62325294D01*
X112297417Y-62319602D01*
X112249905Y-62248495D01*
X112212504Y-62223504D01*
X111529728Y-61426006D01*
X111170964Y-60964118D01*
X110958440Y-60498962D01*
X110859524Y-59996812D01*
X110877505Y-59485321D01*
X110980062Y-59114143D01*
X113115800Y-59114143D01*
X113115800Y-59605457D01*
X113303818Y-60059371D01*
X113651229Y-60406782D01*
X114105143Y-60594800D01*
X114596457Y-60594800D01*
X115050371Y-60406782D01*
X115397782Y-60059371D01*
X115571289Y-59640489D01*
X115990171Y-59466982D01*
X116337582Y-59119571D01*
X116518529Y-58682729D01*
X116955371Y-58501782D01*
X117302782Y-58154371D01*
X117476289Y-57735489D01*
X117895171Y-57561982D01*
X118242582Y-57214571D01*
X118416089Y-56795689D01*
X118417542Y-56795087D01*
X177844588Y-56795087D01*
X177994170Y-56991688D01*
X179079117Y-56848852D01*
X178936281Y-55763905D01*
X178855306Y-55730752D01*
X179188108Y-55730752D01*
X179330944Y-56815699D01*
X180415891Y-56672863D01*
X180509491Y-56444246D01*
X180214779Y-55990515D01*
X179808892Y-55711609D01*
X179894129Y-55726058D01*
X180366358Y-55618088D01*
X180761322Y-55337623D01*
X180974389Y-55059949D01*
X180095353Y-54385442D01*
X179308997Y-55410241D01*
X179372191Y-55590694D01*
X179188108Y-55730752D01*
X178855306Y-55730752D01*
X178707664Y-55670305D01*
X178253933Y-55965017D01*
X177947522Y-56410931D01*
X177844588Y-56795087D01*
X118417542Y-56795087D01*
X118834971Y-56622182D01*
X119182382Y-56274771D01*
X119370400Y-55820857D01*
X119370400Y-55329543D01*
X119182382Y-54875629D01*
X118834971Y-54528218D01*
X118381057Y-54340200D01*
X117889743Y-54340200D01*
X117435829Y-54528218D01*
X117088418Y-54875629D01*
X116914911Y-55294511D01*
X116496029Y-55468018D01*
X116148618Y-55815429D01*
X115975111Y-56234311D01*
X115556229Y-56407818D01*
X115208818Y-56755229D01*
X115027871Y-57192071D01*
X114591029Y-57373018D01*
X114243618Y-57720429D01*
X114070111Y-58139311D01*
X113651229Y-58312818D01*
X113303818Y-58660229D01*
X113115800Y-59114143D01*
X110980062Y-59114143D01*
X111013860Y-58991821D01*
X111259768Y-58541067D01*
X111607881Y-58150752D01*
X113834746Y-56255476D01*
X116184240Y-54458903D01*
X116433580Y-54288078D01*
X178633055Y-54288078D01*
X178650986Y-54772161D01*
X178852802Y-55212532D01*
X178880334Y-55238536D01*
X179107485Y-55255615D01*
X179893841Y-54230816D01*
X179014806Y-53556309D01*
X178801739Y-53833982D01*
X178633055Y-54288078D01*
X116433580Y-54288078D01*
X118623435Y-52787794D01*
X121148545Y-51246767D01*
X123749769Y-49839837D01*
X126420976Y-48570965D01*
X127907898Y-47958000D01*
X131251560Y-47958000D01*
X131251560Y-49308000D01*
X131300843Y-49555765D01*
X131441191Y-49765809D01*
X131651235Y-49906157D01*
X131899000Y-49955440D01*
X133249000Y-49955440D01*
X133496765Y-49906157D01*
X133574000Y-49854550D01*
X133651235Y-49906157D01*
X133899000Y-49955440D01*
X135249000Y-49955440D01*
X135496765Y-49906157D01*
X135574000Y-49854550D01*
X135651235Y-49906157D01*
X135899000Y-49955440D01*
X137249000Y-49955440D01*
X137496765Y-49906157D01*
X137574000Y-49854550D01*
X137651235Y-49906157D01*
X137899000Y-49955440D01*
X139249000Y-49955440D01*
X139496765Y-49906157D01*
X139574000Y-49854550D01*
X139651235Y-49906157D01*
X139899000Y-49955440D01*
X141249000Y-49955440D01*
X141496765Y-49906157D01*
X141574000Y-49854550D01*
X141651235Y-49906157D01*
X141899000Y-49955440D01*
X143249000Y-49955440D01*
X143496765Y-49906157D01*
X143574000Y-49854550D01*
X143651235Y-49906157D01*
X143899000Y-49955440D01*
X145249000Y-49955440D01*
X145496765Y-49906157D01*
X145574000Y-49854550D01*
X145651235Y-49906157D01*
X145899000Y-49955440D01*
X147249000Y-49955440D01*
X147496765Y-49906157D01*
X147574000Y-49854550D01*
X147651235Y-49906157D01*
X147899000Y-49955440D01*
X149249000Y-49955440D01*
X149496765Y-49906157D01*
X149574000Y-49854550D01*
X149651235Y-49906157D01*
X149899000Y-49955440D01*
X151249000Y-49955440D01*
X151496765Y-49906157D01*
X151574000Y-49854550D01*
X151651235Y-49906157D01*
X151899000Y-49955440D01*
X153249000Y-49955440D01*
X153496765Y-49906157D01*
X153574000Y-49854550D01*
X153651235Y-49906157D01*
X153899000Y-49955440D01*
X155249000Y-49955440D01*
X155496765Y-49906157D01*
X155574000Y-49854550D01*
X155651235Y-49906157D01*
X155899000Y-49955440D01*
X157249000Y-49955440D01*
X157496765Y-49906157D01*
X157574000Y-49854550D01*
X157651235Y-49906157D01*
X157899000Y-49955440D01*
X159249000Y-49955440D01*
X159496765Y-49906157D01*
X159574000Y-49854550D01*
X159651235Y-49906157D01*
X159899000Y-49955440D01*
X161249000Y-49955440D01*
X161496765Y-49906157D01*
X161568318Y-49858346D01*
X161772690Y-49943000D01*
X162288250Y-49943000D01*
X162447000Y-49784250D01*
X162447000Y-48760000D01*
X162701000Y-48760000D01*
X162701000Y-49784250D01*
X162859750Y-49943000D01*
X163375310Y-49943000D01*
X163608699Y-49846327D01*
X163787327Y-49667698D01*
X163884000Y-49434309D01*
X163884000Y-48918750D01*
X163725250Y-48760000D01*
X162701000Y-48760000D01*
X162447000Y-48760000D01*
X162427000Y-48760000D01*
X162427000Y-48506000D01*
X162447000Y-48506000D01*
X162447000Y-47481750D01*
X162701000Y-47481750D01*
X162701000Y-48506000D01*
X163725250Y-48506000D01*
X163884000Y-48347250D01*
X163884000Y-47831691D01*
X163787327Y-47598302D01*
X163608699Y-47419673D01*
X163375310Y-47323000D01*
X162859750Y-47323000D01*
X162701000Y-47481750D01*
X162447000Y-47481750D01*
X162288250Y-47323000D01*
X161772690Y-47323000D01*
X161568318Y-47407654D01*
X161496765Y-47359843D01*
X161249000Y-47310560D01*
X159899000Y-47310560D01*
X159651235Y-47359843D01*
X159574000Y-47411450D01*
X159496765Y-47359843D01*
X159249000Y-47310560D01*
X157899000Y-47310560D01*
X157651235Y-47359843D01*
X157574000Y-47411450D01*
X157496765Y-47359843D01*
X157249000Y-47310560D01*
X155899000Y-47310560D01*
X155651235Y-47359843D01*
X155574000Y-47411450D01*
X155496765Y-47359843D01*
X155249000Y-47310560D01*
X153899000Y-47310560D01*
X153651235Y-47359843D01*
X153574000Y-47411450D01*
X153496765Y-47359843D01*
X153249000Y-47310560D01*
X151899000Y-47310560D01*
X151651235Y-47359843D01*
X151574000Y-47411450D01*
X151496765Y-47359843D01*
X151249000Y-47310560D01*
X149899000Y-47310560D01*
X149651235Y-47359843D01*
X149574000Y-47411450D01*
X149496765Y-47359843D01*
X149249000Y-47310560D01*
X147899000Y-47310560D01*
X147651235Y-47359843D01*
X147574000Y-47411450D01*
X147496765Y-47359843D01*
X147249000Y-47310560D01*
X145899000Y-47310560D01*
X145651235Y-47359843D01*
X145574000Y-47411450D01*
X145496765Y-47359843D01*
X145249000Y-47310560D01*
X143899000Y-47310560D01*
X143651235Y-47359843D01*
X143574000Y-47411450D01*
X143496765Y-47359843D01*
X143249000Y-47310560D01*
X141899000Y-47310560D01*
X141651235Y-47359843D01*
X141574000Y-47411450D01*
X141496765Y-47359843D01*
X141249000Y-47310560D01*
X139899000Y-47310560D01*
X139651235Y-47359843D01*
X139574000Y-47411450D01*
X139496765Y-47359843D01*
X139249000Y-47310560D01*
X137899000Y-47310560D01*
X137651235Y-47359843D01*
X137574000Y-47411450D01*
X137496765Y-47359843D01*
X137249000Y-47310560D01*
X135899000Y-47310560D01*
X135651235Y-47359843D01*
X135574000Y-47411450D01*
X135496765Y-47359843D01*
X135249000Y-47310560D01*
X133899000Y-47310560D01*
X133651235Y-47359843D01*
X133574000Y-47411450D01*
X133496765Y-47359843D01*
X133249000Y-47310560D01*
X131899000Y-47310560D01*
X131651235Y-47359843D01*
X131441191Y-47500191D01*
X131300843Y-47710235D01*
X131251560Y-47958000D01*
X127907898Y-47958000D01*
X129155381Y-47443741D01*
X131944099Y-46461126D01*
X134781111Y-45625916D01*
X137658668Y-44940237D01*
X140566831Y-44406087D01*
X143499651Y-44024849D01*
X146448263Y-43797706D01*
X149404774Y-43725151D01*
X152361315Y-43807480D01*
X152361315Y-43807480D01*
G37*
X152361315Y-43807480D02*
X155308949Y-44044297D01*
X158240795Y-44435210D01*
X161147957Y-44978934D01*
X164022539Y-45674085D01*
X166856673Y-46518700D01*
X169643411Y-47510495D01*
X172373843Y-48646793D01*
X175041110Y-49924357D01*
X177637323Y-51339837D01*
X179944141Y-52758549D01*
X179777462Y-52796658D01*
X179382498Y-53077123D01*
X179169431Y-53354797D01*
X180048467Y-54029304D01*
X180060642Y-54013437D01*
X180262154Y-54168063D01*
X180249979Y-54183930D01*
X181129014Y-54858437D01*
X181342081Y-54580764D01*
X181510765Y-54126668D01*
X181499233Y-53815340D01*
X182590848Y-54568315D01*
X184934850Y-56373020D01*
X185651145Y-56984776D01*
X185330935Y-57057988D01*
X184935971Y-57338453D01*
X184722904Y-57616127D01*
X185601940Y-58290634D01*
X185614115Y-58274767D01*
X185815627Y-58429393D01*
X185803452Y-58445260D01*
X186682487Y-59119767D01*
X186895554Y-58842094D01*
X187064238Y-58387998D01*
X187057181Y-58197487D01*
X187377307Y-58559779D01*
X187618446Y-59010904D01*
X187749519Y-59505536D01*
X187763006Y-60017223D01*
X187658797Y-60518628D01*
X187441676Y-60983670D01*
X187105560Y-61412115D01*
X186895562Y-61638332D01*
X186888641Y-61641675D01*
X186850869Y-61684046D01*
X186807095Y-61713295D01*
X186758604Y-61785867D01*
X186752077Y-61792898D01*
X186748156Y-61799266D01*
X186743181Y-61804847D01*
X186738366Y-61813032D01*
X186680550Y-61881715D01*
X186674875Y-61899615D01*
X186113095Y-62635231D01*
X186093095Y-62648595D01*
X186035579Y-62734674D01*
X186019372Y-62753444D01*
X186010124Y-62769750D01*
X185996286Y-62787740D01*
X185985355Y-62809840D01*
X185930646Y-62891717D01*
X185925078Y-62919709D01*
X185425594Y-63800428D01*
X185403832Y-63830895D01*
X185397127Y-63845753D01*
X185350646Y-63915317D01*
X185338751Y-63975116D01*
X185313920Y-64030143D01*
X185313369Y-64047782D01*
X184952158Y-64951976D01*
X184914646Y-65008117D01*
X184899686Y-65083327D01*
X184899595Y-65083554D01*
X184898949Y-65087032D01*
X184895915Y-65102284D01*
X184889554Y-65120731D01*
X184889037Y-65124515D01*
X184886827Y-65131146D01*
X184883116Y-65160581D01*
X184641775Y-66128758D01*
X184631646Y-66143917D01*
X184609128Y-66257123D01*
X184599866Y-66286761D01*
X184597970Y-66304487D01*
X184593315Y-66323163D01*
X184592464Y-66340897D01*
X184589000Y-66358312D01*
X184589000Y-66359485D01*
X184588000Y-66364512D01*
X184588000Y-66397709D01*
X184469777Y-67489013D01*
X184462000Y-67528112D01*
X184462000Y-67545370D01*
X184460251Y-67555674D01*
X184460727Y-67572553D01*
X184458479Y-67593307D01*
X184462000Y-67633014D01*
X184462000Y-67679687D01*
X184464040Y-67689943D01*
X184492104Y-68684433D01*
X184483038Y-68716321D01*
X184494612Y-68815917D01*
X184494086Y-68832612D01*
X184496000Y-68844117D01*
X184496000Y-68855787D01*
X184497095Y-68861293D01*
X184497335Y-68869792D01*
X184504537Y-68901322D01*
X184508271Y-68933454D01*
X184513622Y-68950042D01*
X184688000Y-69998217D01*
X184688000Y-70012987D01*
X184696892Y-70057691D01*
X184700599Y-70092948D01*
X184701929Y-70097231D01*
X184702827Y-70104354D01*
X184708477Y-70121305D01*
X184709845Y-70129526D01*
X184712667Y-70136996D01*
X184730646Y-70227382D01*
X184731079Y-70228029D01*
X184731646Y-70230882D01*
X184753669Y-70263842D01*
X185050937Y-71221095D01*
X185051827Y-71228154D01*
X185052014Y-71228715D01*
X185052554Y-71232669D01*
X185061633Y-71259000D01*
X185080646Y-71354582D01*
X185130736Y-71429547D01*
X185567632Y-72365213D01*
X185578646Y-72420582D01*
X185624364Y-72489005D01*
X185628832Y-72498905D01*
X185632373Y-72503862D01*
X185632651Y-72504458D01*
X185638131Y-72511924D01*
X185656123Y-72537113D01*
X185719350Y-72639994D01*
X185725934Y-72644765D01*
X186218329Y-73408287D01*
X186220194Y-73417102D01*
X186271557Y-73491980D01*
X186285841Y-73519525D01*
X186287841Y-73522025D01*
X186300286Y-73537581D01*
X186304822Y-73545648D01*
X186313266Y-73555501D01*
X186326540Y-73576083D01*
X186335836Y-73585686D01*
X186385595Y-73658226D01*
X186421124Y-73681344D01*
X187022789Y-74383340D01*
X187024158Y-74387368D01*
X187074963Y-74445252D01*
X187078451Y-74451051D01*
X187097066Y-74471527D01*
X187146095Y-74544905D01*
X187225837Y-74598187D01*
X188027231Y-75309184D01*
X188082366Y-75375948D01*
X188178616Y-75427016D01*
X188269218Y-75487554D01*
X188269781Y-75487666D01*
X189065429Y-76019982D01*
X189117005Y-76071666D01*
X189223277Y-76115816D01*
X189227916Y-76118221D01*
X189249990Y-76129994D01*
X189251497Y-76130450D01*
X189325430Y-76168789D01*
X189335688Y-76169670D01*
X190159301Y-76570829D01*
X190175005Y-76586566D01*
X190253778Y-76619291D01*
X190266010Y-76626754D01*
X190271576Y-76628795D01*
X190275918Y-76631400D01*
X190287035Y-76635383D01*
X190294915Y-76639829D01*
X190313479Y-76645925D01*
X190330228Y-76654083D01*
X190350074Y-76659297D01*
X190376873Y-76670430D01*
X190394908Y-76674037D01*
X190397411Y-76674934D01*
X190404936Y-76677693D01*
X190405247Y-76677742D01*
X190481701Y-76705137D01*
X190492234Y-76704624D01*
X191457089Y-77021462D01*
X192003623Y-77230216D01*
X192426682Y-77517897D01*
X192771944Y-77895289D01*
X193021438Y-78342205D01*
X193165151Y-78847891D01*
X193195001Y-79220309D01*
X193195000Y-102241713D01*
X193130794Y-102795189D01*
X192956334Y-103275890D01*
X192675497Y-103704260D01*
X192303788Y-104055736D01*
X191849857Y-104319953D01*
X191472640Y-104448126D01*
X190979995Y-104587432D01*
X190949167Y-104593043D01*
X190943542Y-104595266D01*
X190865217Y-104610846D01*
X190808887Y-104648485D01*
X189855541Y-105025267D01*
X189777218Y-105040846D01*
X189773369Y-105043418D01*
X189771217Y-105043846D01*
X189672915Y-105109530D01*
X188776663Y-105614387D01*
X188749218Y-105619846D01*
X188746228Y-105621844D01*
X188746217Y-105621846D01*
X188666407Y-105675174D01*
X188646461Y-105684873D01*
X188631835Y-105695968D01*
X188615201Y-105705338D01*
X188594154Y-105723405D01*
X188568065Y-105740797D01*
X188567803Y-105741059D01*
X188503095Y-105784295D01*
X188490449Y-105803221D01*
X187674330Y-106422316D01*
X187632463Y-106450291D01*
X187630741Y-106452013D01*
X187628065Y-106453797D01*
X187627789Y-106454073D01*
X187566095Y-106495295D01*
X187525302Y-106556346D01*
X187473334Y-106608206D01*
X187472472Y-106610281D01*
X186850374Y-107232380D01*
X186850006Y-107232533D01*
X186795163Y-107287490D01*
X186734095Y-107328295D01*
X186665116Y-107431529D01*
X186042442Y-108252367D01*
X186023095Y-108265295D01*
X185984102Y-108323652D01*
X185984091Y-108323663D01*
X185983875Y-108323987D01*
X185983597Y-108324265D01*
X185966121Y-108350478D01*
X185947960Y-108371654D01*
X185936484Y-108392047D01*
X185927673Y-108403662D01*
X185919748Y-108419959D01*
X185862646Y-108505418D01*
X185862644Y-108505426D01*
X185860646Y-108508417D01*
X185854987Y-108536868D01*
X185405733Y-109335194D01*
X185351378Y-109430547D01*
X185284646Y-109530418D01*
X185284220Y-109532557D01*
X185283646Y-109533417D01*
X185267747Y-109613346D01*
X184887581Y-110572140D01*
X184850646Y-110627417D01*
X184835528Y-110703420D01*
X184835068Y-110704580D01*
X184832405Y-110719122D01*
X184831127Y-110725547D01*
X184822827Y-110750446D01*
X184818825Y-110782190D01*
X184579879Y-111755102D01*
X184569646Y-111770417D01*
X184550127Y-111868547D01*
X184541827Y-111893446D01*
X184540646Y-111902817D01*
X184538564Y-111909526D01*
X184536037Y-111933610D01*
X184532947Y-111946194D01*
X184532447Y-111957428D01*
X184527000Y-111984812D01*
X184527000Y-112011063D01*
X184514487Y-112110324D01*
X184516665Y-112118279D01*
X184412534Y-113110935D01*
X184405000Y-113148812D01*
X184405000Y-113167226D01*
X184403121Y-113178471D01*
X184403649Y-113195631D01*
X184401459Y-113216512D01*
X184405000Y-113254963D01*
X184405000Y-113300587D01*
X184407226Y-113311779D01*
X184437952Y-114309514D01*
X184428487Y-114344076D01*
X184440649Y-114440550D01*
X184440221Y-114455391D01*
X184442000Y-114465910D01*
X184442000Y-114476587D01*
X184443298Y-114483112D01*
X184443577Y-114492177D01*
X184451452Y-114526251D01*
X184455827Y-114560954D01*
X184460389Y-114574639D01*
X184638000Y-115624823D01*
X184638000Y-115636587D01*
X184645755Y-115675572D01*
X184650020Y-115715076D01*
X184651802Y-115720760D01*
X184651827Y-115720954D01*
X184652443Y-115722803D01*
X184657061Y-115737526D01*
X184659363Y-115751139D01*
X184662342Y-115758960D01*
X184680646Y-115850982D01*
X184703255Y-115884818D01*
X185001999Y-116837387D01*
X185002827Y-116843954D01*
X185003827Y-116846954D01*
X185013128Y-116874856D01*
X185032646Y-116972982D01*
X185084993Y-117051325D01*
X185522751Y-117983212D01*
X185533646Y-118037983D01*
X185583599Y-118112743D01*
X185588523Y-118123225D01*
X185604002Y-118144212D01*
X185659864Y-118242207D01*
X185679232Y-118257238D01*
X186173560Y-119018520D01*
X186174646Y-119023982D01*
X186230231Y-119107170D01*
X186241969Y-119130647D01*
X186255265Y-119147779D01*
X186264058Y-119163310D01*
X186278314Y-119179845D01*
X186286979Y-119193190D01*
X186289298Y-119195571D01*
X186296091Y-119205737D01*
X186314650Y-119224296D01*
X186375993Y-119303336D01*
X186393274Y-119313187D01*
X187063106Y-120090123D01*
X187423405Y-120549844D01*
X187637723Y-121015197D01*
X187739507Y-121515883D01*
X187722272Y-122027696D01*
X187588879Y-122522300D01*
X187344796Y-122971532D01*
X186983003Y-123377251D01*
X184750414Y-125263287D01*
X182394121Y-127050991D01*
X179948056Y-128712303D01*
X177416950Y-130243407D01*
X174810913Y-131640203D01*
X172133808Y-132897812D01*
X169395244Y-134014364D01*
X166602603Y-134986705D01*
X163761688Y-135810946D01*
X161321955Y-136382196D01*
X161366194Y-131471544D01*
X161356532Y-131421799D01*
X161329002Y-131380597D01*
X161287800Y-131353067D01*
X161239199Y-131343400D01*
X137312399Y-131343400D01*
X137264857Y-131352634D01*
X137223409Y-131379792D01*
X137195509Y-131420744D01*
X137185404Y-131469256D01*
X137141456Y-136347599D01*
X134685677Y-135763572D01*
X131847511Y-134930386D01*
X129057839Y-133950151D01*
X126322539Y-132824839D01*
X123650321Y-131557339D01*
X121048183Y-130152620D01*
X118523061Y-128612671D01*
X118513654Y-128606239D01*
X118711431Y-128561019D01*
X118787583Y-128506943D01*
X145729400Y-128506943D01*
X145729400Y-128998257D01*
X145917418Y-129452171D01*
X146264829Y-129799582D01*
X146718743Y-129987600D01*
X147210057Y-129987600D01*
X147663971Y-129799582D01*
X148011382Y-129452171D01*
X148199400Y-128998257D01*
X148199400Y-128506943D01*
X148011382Y-128053029D01*
X147663971Y-127705618D01*
X147548350Y-127657726D01*
X150488700Y-127657726D01*
X150488700Y-128069474D01*
X150646269Y-128449880D01*
X150937420Y-128741031D01*
X151317826Y-128898600D01*
X151729574Y-128898600D01*
X152109980Y-128741031D01*
X152401131Y-128449880D01*
X152558700Y-128069474D01*
X152558700Y-127657726D01*
X152401131Y-127277320D01*
X152109980Y-126986169D01*
X151729574Y-126828600D01*
X151317826Y-126828600D01*
X150937420Y-126986169D01*
X150646269Y-127277320D01*
X150488700Y-127657726D01*
X147548350Y-127657726D01*
X147210057Y-127517600D01*
X146718743Y-127517600D01*
X146264829Y-127705618D01*
X145917418Y-128053029D01*
X145729400Y-128506943D01*
X118787583Y-128506943D01*
X119106395Y-128280554D01*
X119319462Y-128002880D01*
X118440426Y-127328373D01*
X118428251Y-127344240D01*
X118226739Y-127189614D01*
X118238914Y-127173747D01*
X118177811Y-127126861D01*
X118595052Y-127126861D01*
X119474087Y-127801368D01*
X119687154Y-127523695D01*
X119855838Y-127069599D01*
X119837907Y-126585516D01*
X119636091Y-126145145D01*
X119608559Y-126119141D01*
X119381408Y-126102062D01*
X118595052Y-127126861D01*
X118177811Y-127126861D01*
X117359879Y-126499240D01*
X117146812Y-126776913D01*
X116978128Y-127231009D01*
X116990489Y-127564722D01*
X116081760Y-126943347D01*
X115236205Y-126297728D01*
X117514504Y-126297728D01*
X118393540Y-126972235D01*
X119179896Y-125947436D01*
X119116702Y-125766983D01*
X119300785Y-125626925D01*
X119157949Y-124541978D01*
X118073002Y-124684814D01*
X117979402Y-124913431D01*
X118274114Y-125367162D01*
X118680001Y-125646068D01*
X118594764Y-125631619D01*
X118122535Y-125739589D01*
X117727571Y-126020054D01*
X117514504Y-126297728D01*
X115236205Y-126297728D01*
X113730915Y-125148372D01*
X112976207Y-124508825D01*
X119409776Y-124508825D01*
X119552612Y-125593772D01*
X119781229Y-125687372D01*
X120234960Y-125392660D01*
X120541371Y-124946746D01*
X120543198Y-124939926D01*
X142398800Y-124939926D01*
X142398800Y-125351674D01*
X142556369Y-125732080D01*
X142847520Y-126023231D01*
X143227926Y-126180800D01*
X143639674Y-126180800D01*
X144020080Y-126023231D01*
X144311231Y-125732080D01*
X144468800Y-125351674D01*
X144468800Y-124954268D01*
X144701126Y-125050500D01*
X145112874Y-125050500D01*
X145493280Y-124892931D01*
X145784431Y-124601780D01*
X145830028Y-124491700D01*
X146128874Y-124491700D01*
X146509280Y-124334131D01*
X146649831Y-124193580D01*
X146695026Y-124212300D01*
X147106774Y-124212300D01*
X147487180Y-124054731D01*
X147501825Y-124040086D01*
X147700282Y-124122290D01*
X148112030Y-124122290D01*
X148492436Y-123964721D01*
X148783587Y-123673570D01*
X148874365Y-123454410D01*
X171238195Y-123454410D01*
X171605140Y-123949843D01*
X173010671Y-124543236D01*
X174536293Y-124553587D01*
X175830003Y-124027969D01*
X179046799Y-124027969D01*
X179046799Y-124459609D01*
X179211981Y-124858392D01*
X179517196Y-125163607D01*
X179915979Y-125328789D01*
X180347619Y-125328789D01*
X180746402Y-125163607D01*
X181051617Y-124858392D01*
X181216799Y-124459609D01*
X181216799Y-124027969D01*
X181051617Y-123629186D01*
X180746402Y-123323971D01*
X180347619Y-123158789D01*
X179915979Y-123158789D01*
X179517196Y-123323971D01*
X179211981Y-123629186D01*
X179046799Y-124027969D01*
X175830003Y-124027969D01*
X175949746Y-123979319D01*
X175993860Y-123949843D01*
X176360805Y-123454410D01*
X173799500Y-120893105D01*
X171238195Y-123454410D01*
X148874365Y-123454410D01*
X148941156Y-123293164D01*
X148941156Y-122881416D01*
X148783587Y-122501010D01*
X148492436Y-122209859D01*
X148112030Y-122052290D01*
X147700282Y-122052290D01*
X147319876Y-122209859D01*
X147305231Y-122224504D01*
X147106774Y-122142300D01*
X146695026Y-122142300D01*
X146314620Y-122299869D01*
X146174069Y-122440420D01*
X146128874Y-122421700D01*
X145717126Y-122421700D01*
X145336720Y-122579269D01*
X145045569Y-122870420D01*
X144999972Y-122980500D01*
X144701126Y-122980500D01*
X144320720Y-123138069D01*
X144029569Y-123429220D01*
X143872000Y-123809626D01*
X143872000Y-124207032D01*
X143639674Y-124110800D01*
X143227926Y-124110800D01*
X142847520Y-124268369D01*
X142556369Y-124559520D01*
X142398800Y-124939926D01*
X120543198Y-124939926D01*
X120644305Y-124562590D01*
X120494723Y-124365989D01*
X119409776Y-124508825D01*
X112976207Y-124508825D01*
X112820470Y-124376852D01*
X113157958Y-124299689D01*
X113247104Y-124236386D01*
X117890267Y-124236386D01*
X118039849Y-124432987D01*
X119124796Y-124290151D01*
X118981960Y-123205204D01*
X118900985Y-123172051D01*
X119233787Y-123172051D01*
X119376623Y-124256998D01*
X120461570Y-124114162D01*
X120555170Y-123885545D01*
X120266886Y-123441710D01*
X122254295Y-123441710D01*
X122621240Y-123937143D01*
X124026771Y-124530536D01*
X125552393Y-124540887D01*
X126965846Y-123966619D01*
X127009960Y-123937143D01*
X127376905Y-123441710D01*
X124815600Y-120880405D01*
X122254295Y-123441710D01*
X120266886Y-123441710D01*
X120260458Y-123431814D01*
X119814544Y-123125403D01*
X119430388Y-123022469D01*
X119233787Y-123172051D01*
X118900985Y-123172051D01*
X118753343Y-123111604D01*
X118299612Y-123406316D01*
X117993201Y-123852230D01*
X117890267Y-124236386D01*
X113247104Y-124236386D01*
X113552922Y-124019224D01*
X113765989Y-123741550D01*
X112886953Y-123067043D01*
X112874778Y-123082910D01*
X112673266Y-122928284D01*
X112685441Y-122912417D01*
X112624338Y-122865531D01*
X113041579Y-122865531D01*
X113920614Y-123540038D01*
X114133681Y-123262365D01*
X114302365Y-122808269D01*
X114284434Y-122324186D01*
X114228233Y-122201553D01*
X114307347Y-122323355D01*
X114753261Y-122629766D01*
X115137417Y-122732700D01*
X115334018Y-122583118D01*
X115191182Y-121498171D01*
X114106235Y-121641007D01*
X114018595Y-121855067D01*
X113827935Y-121840732D01*
X113041579Y-122865531D01*
X112624338Y-122865531D01*
X111806406Y-122237910D01*
X111593339Y-122515583D01*
X111424655Y-122969679D01*
X111431017Y-123141436D01*
X111277125Y-122968644D01*
X111034372Y-122518355D01*
X110904193Y-122036398D01*
X111961031Y-122036398D01*
X112840067Y-122710905D01*
X113626423Y-121686106D01*
X113551134Y-121471115D01*
X113541237Y-121465018D01*
X115443009Y-121465018D01*
X115585845Y-122549965D01*
X115814462Y-122643565D01*
X116268193Y-122348853D01*
X116574604Y-121902939D01*
X116677538Y-121518783D01*
X116615766Y-121437593D01*
X120975513Y-121437593D01*
X121549781Y-122851046D01*
X121579257Y-122895160D01*
X122074690Y-123262105D01*
X124635995Y-120700800D01*
X124995205Y-120700800D01*
X127556510Y-123262105D01*
X128051943Y-122895160D01*
X128645336Y-121489629D01*
X128655687Y-119964007D01*
X128081419Y-118550554D01*
X128051943Y-118506440D01*
X127912555Y-118403201D01*
X131218943Y-118403201D01*
X131218943Y-118814949D01*
X131376512Y-119195355D01*
X131630915Y-119449758D01*
X131476800Y-119821826D01*
X131476800Y-120233574D01*
X131634369Y-120613980D01*
X131925520Y-120905131D01*
X132305926Y-121062700D01*
X132717674Y-121062700D01*
X133098080Y-120905131D01*
X133389231Y-120613980D01*
X133546800Y-120233574D01*
X133546800Y-119821826D01*
X133531019Y-119783726D01*
X133623100Y-119783726D01*
X133623100Y-120195474D01*
X133780669Y-120575880D01*
X134071820Y-120867031D01*
X134452226Y-121024600D01*
X134863974Y-121024600D01*
X135142656Y-120909167D01*
X135214820Y-120981331D01*
X135595226Y-121138900D01*
X136006974Y-121138900D01*
X136387380Y-120981331D01*
X136557968Y-120810743D01*
X138553900Y-120810743D01*
X138553900Y-121302057D01*
X138741918Y-121755971D01*
X139089329Y-122103382D01*
X139543243Y-122291400D01*
X140034557Y-122291400D01*
X140366800Y-122153780D01*
X140366800Y-122329074D01*
X140524369Y-122709480D01*
X140815520Y-123000631D01*
X141195926Y-123158200D01*
X141607674Y-123158200D01*
X141988080Y-123000631D01*
X142279231Y-122709480D01*
X142436800Y-122329074D01*
X142436800Y-121917326D01*
X142279231Y-121536920D01*
X142192604Y-121450293D01*
X169959413Y-121450293D01*
X170533681Y-122863746D01*
X170563157Y-122907860D01*
X171058590Y-123274805D01*
X173619895Y-120713500D01*
X173979105Y-120713500D01*
X176540410Y-123274805D01*
X177035843Y-122907860D01*
X177629236Y-121502329D01*
X177639587Y-119976707D01*
X177603706Y-119888391D01*
X184441601Y-119888391D01*
X184441601Y-120320031D01*
X184606783Y-120718814D01*
X184911998Y-121024029D01*
X185310781Y-121189211D01*
X185742421Y-121189211D01*
X186141204Y-121024029D01*
X186446419Y-120718814D01*
X186611601Y-120320031D01*
X186611601Y-119888391D01*
X186446419Y-119489608D01*
X186141204Y-119184393D01*
X185742421Y-119019211D01*
X185310781Y-119019211D01*
X184911998Y-119184393D01*
X184606783Y-119489608D01*
X184441601Y-119888391D01*
X177603706Y-119888391D01*
X177065319Y-118563254D01*
X177035843Y-118519140D01*
X176540410Y-118152195D01*
X173979105Y-120713500D01*
X173619895Y-120713500D01*
X171058590Y-118152195D01*
X170563157Y-118519140D01*
X169969764Y-119924671D01*
X169959413Y-121450293D01*
X142192604Y-121450293D01*
X141988080Y-121245769D01*
X141607674Y-121088200D01*
X141195926Y-121088200D01*
X141023900Y-121159455D01*
X141023900Y-120810743D01*
X140835882Y-120356829D01*
X140488471Y-120009418D01*
X140034557Y-119821400D01*
X139543243Y-119821400D01*
X139089329Y-120009418D01*
X138741918Y-120356829D01*
X138553900Y-120810743D01*
X136557968Y-120810743D01*
X136678531Y-120690180D01*
X136836100Y-120309774D01*
X136836100Y-119898026D01*
X136678531Y-119517620D01*
X136387380Y-119226469D01*
X136006974Y-119068900D01*
X135595226Y-119068900D01*
X135316544Y-119184333D01*
X135244380Y-119112169D01*
X134863974Y-118954600D01*
X134452226Y-118954600D01*
X134071820Y-119112169D01*
X133780669Y-119403320D01*
X133623100Y-119783726D01*
X133531019Y-119783726D01*
X133389231Y-119441420D01*
X133134828Y-119187017D01*
X133288943Y-118814949D01*
X133288943Y-118403201D01*
X133131374Y-118022795D01*
X133025405Y-117916826D01*
X150450600Y-117916826D01*
X150450600Y-118328574D01*
X150608169Y-118708980D01*
X150899320Y-119000131D01*
X151279726Y-119157700D01*
X151691474Y-119157700D01*
X151907610Y-119068174D01*
X151979769Y-119242380D01*
X152270920Y-119533531D01*
X152651326Y-119691100D01*
X153063074Y-119691100D01*
X153443480Y-119533531D01*
X153734631Y-119242380D01*
X153857209Y-118946450D01*
X154218180Y-118796931D01*
X154509331Y-118505780D01*
X154526570Y-118464160D01*
X159184560Y-118464160D01*
X159184560Y-118955474D01*
X159372578Y-119409388D01*
X159719989Y-119756799D01*
X160173903Y-119944817D01*
X160665217Y-119944817D01*
X161119131Y-119756799D01*
X161466542Y-119409388D01*
X161654560Y-118955474D01*
X161654560Y-118464160D01*
X161466542Y-118010246D01*
X161428886Y-117972590D01*
X171238195Y-117972590D01*
X173799500Y-120533895D01*
X176360805Y-117972590D01*
X175993860Y-117477157D01*
X174588329Y-116883764D01*
X173062707Y-116873413D01*
X171649254Y-117447681D01*
X171605140Y-117477157D01*
X171238195Y-117972590D01*
X161428886Y-117972590D01*
X161119131Y-117662835D01*
X160665217Y-117474817D01*
X160173903Y-117474817D01*
X159719989Y-117662835D01*
X159372578Y-118010246D01*
X159184560Y-118464160D01*
X154526570Y-118464160D01*
X154666900Y-118125374D01*
X154666900Y-117713626D01*
X154509331Y-117333220D01*
X154218180Y-117042069D01*
X153837774Y-116884500D01*
X153426026Y-116884500D01*
X153045620Y-117042069D01*
X152754469Y-117333220D01*
X152631891Y-117629150D01*
X152435190Y-117710626D01*
X152363031Y-117536420D01*
X152071880Y-117245269D01*
X151691474Y-117087700D01*
X151279726Y-117087700D01*
X150899320Y-117245269D01*
X150608169Y-117536420D01*
X150450600Y-117916826D01*
X133025405Y-117916826D01*
X132840223Y-117731644D01*
X132459817Y-117574075D01*
X132048069Y-117574075D01*
X131667663Y-117731644D01*
X131376512Y-118022795D01*
X131218943Y-118403201D01*
X127912555Y-118403201D01*
X127556510Y-118139495D01*
X124995205Y-120700800D01*
X124635995Y-120700800D01*
X122074690Y-118139495D01*
X121579257Y-118506440D01*
X120985864Y-119911971D01*
X120975513Y-121437593D01*
X116615766Y-121437593D01*
X116527956Y-121322182D01*
X115443009Y-121465018D01*
X113541237Y-121465018D01*
X113518891Y-121451252D01*
X113041291Y-121370289D01*
X112569062Y-121478259D01*
X112174098Y-121758724D01*
X111961031Y-122036398D01*
X110904193Y-122036398D01*
X110901008Y-122024608D01*
X110885290Y-121513376D01*
X110950885Y-121192579D01*
X113923500Y-121192579D01*
X114073082Y-121389180D01*
X115158029Y-121246344D01*
X115015193Y-120161397D01*
X114934218Y-120128244D01*
X115267020Y-120128244D01*
X115409856Y-121213191D01*
X116494803Y-121070355D01*
X116588403Y-120841738D01*
X116293691Y-120388007D01*
X115847777Y-120081596D01*
X115463621Y-119978662D01*
X115267020Y-120128244D01*
X114934218Y-120128244D01*
X114786576Y-120067797D01*
X114332845Y-120362509D01*
X114026434Y-120808423D01*
X113923500Y-121192579D01*
X110950885Y-121192579D01*
X110988054Y-121010806D01*
X111202432Y-120546073D01*
X111551494Y-120100833D01*
X111830913Y-119799920D01*
X111860006Y-119783336D01*
X111878118Y-119759999D01*
X111901905Y-119744105D01*
X111916865Y-119721715D01*
X111938136Y-119705207D01*
X111986529Y-119620313D01*
X111994031Y-119610647D01*
X111996108Y-119606494D01*
X112593941Y-118816440D01*
X112610905Y-118805105D01*
X112622158Y-118788263D01*
X112644135Y-118771207D01*
X112686096Y-118697598D01*
X112686355Y-118697295D01*
X112692233Y-118686832D01*
X112692898Y-118685666D01*
X112707790Y-118665985D01*
X112718176Y-118644562D01*
X112773354Y-118561982D01*
X112779376Y-118531708D01*
X113100603Y-117959890D01*
X122254295Y-117959890D01*
X124815600Y-120521195D01*
X127376905Y-117959890D01*
X127009960Y-117464457D01*
X125604429Y-116871064D01*
X124078807Y-116860713D01*
X122665354Y-117434981D01*
X122621240Y-117464457D01*
X122254295Y-117959890D01*
X113100603Y-117959890D01*
X113286235Y-117629447D01*
X113349354Y-117534983D01*
X113365072Y-117455965D01*
X113742978Y-116494424D01*
X113779354Y-116439983D01*
X113794705Y-116362811D01*
X113795542Y-116360680D01*
X113799000Y-116341473D01*
X113807173Y-116316954D01*
X113811002Y-116286580D01*
X113816058Y-116265826D01*
X135947200Y-116265826D01*
X135947200Y-116677574D01*
X136104769Y-117057980D01*
X136395920Y-117349131D01*
X136776326Y-117506700D01*
X137188074Y-117506700D01*
X137568480Y-117349131D01*
X137859631Y-117057980D01*
X138017200Y-116677574D01*
X138017200Y-116265826D01*
X137859631Y-115885420D01*
X137630437Y-115656226D01*
X139782600Y-115656226D01*
X139782600Y-116067974D01*
X139940169Y-116448380D01*
X140231320Y-116739531D01*
X140611726Y-116897100D01*
X141023474Y-116897100D01*
X141403880Y-116739531D01*
X141695031Y-116448380D01*
X141751149Y-116312900D01*
X141937874Y-116312900D01*
X142051520Y-116265826D01*
X160255000Y-116265826D01*
X160255000Y-116677574D01*
X160412569Y-117057980D01*
X160703720Y-117349131D01*
X161084126Y-117506700D01*
X161495874Y-117506700D01*
X161876280Y-117349131D01*
X162167431Y-117057980D01*
X162239330Y-116884400D01*
X162308674Y-116884400D01*
X162689080Y-116726831D01*
X162980231Y-116435680D01*
X163137800Y-116055274D01*
X163137800Y-115643526D01*
X162980231Y-115263120D01*
X162689080Y-114971969D01*
X162308674Y-114814400D01*
X161896926Y-114814400D01*
X161516520Y-114971969D01*
X161225369Y-115263120D01*
X161153470Y-115436700D01*
X161084126Y-115436700D01*
X160703720Y-115594269D01*
X160412569Y-115885420D01*
X160255000Y-116265826D01*
X142051520Y-116265826D01*
X142318280Y-116155331D01*
X142609431Y-115864180D01*
X142767000Y-115483774D01*
X142767000Y-115072026D01*
X142656530Y-114805326D01*
X147428000Y-114805326D01*
X147428000Y-115217074D01*
X147585569Y-115597480D01*
X147876720Y-115888631D01*
X148257126Y-116046200D01*
X148668874Y-116046200D01*
X149049280Y-115888631D01*
X149340431Y-115597480D01*
X149498000Y-115217074D01*
X149498000Y-114856126D01*
X150857000Y-114856126D01*
X150857000Y-115267874D01*
X151014569Y-115648280D01*
X151305720Y-115939431D01*
X151686126Y-116097000D01*
X152097874Y-116097000D01*
X152385759Y-115977754D01*
X152765626Y-116135100D01*
X153177374Y-116135100D01*
X153557780Y-115977531D01*
X153848931Y-115686380D01*
X154006500Y-115305974D01*
X154006500Y-115081000D01*
X154066374Y-115081000D01*
X154446780Y-114923431D01*
X154682911Y-114687300D01*
X155006174Y-114687300D01*
X155386580Y-114529731D01*
X155677731Y-114238580D01*
X155835300Y-113858174D01*
X155835300Y-113446426D01*
X155677731Y-113066020D01*
X155586554Y-112974843D01*
X159026300Y-112974843D01*
X159026300Y-113466157D01*
X159214318Y-113920071D01*
X159561729Y-114267482D01*
X160015643Y-114455500D01*
X160506957Y-114455500D01*
X160960871Y-114267482D01*
X161308282Y-113920071D01*
X161447304Y-113584443D01*
X172259700Y-113584443D01*
X172259700Y-114075757D01*
X172447718Y-114529671D01*
X172795129Y-114877082D01*
X173249043Y-115065100D01*
X173740357Y-115065100D01*
X174194271Y-114877082D01*
X174541682Y-114529671D01*
X174729700Y-114075757D01*
X174729700Y-113584443D01*
X174541682Y-113130529D01*
X174194271Y-112783118D01*
X173740357Y-112595100D01*
X173249043Y-112595100D01*
X172795129Y-112783118D01*
X172447718Y-113130529D01*
X172259700Y-113584443D01*
X161447304Y-113584443D01*
X161496300Y-113466157D01*
X161496300Y-112974843D01*
X161308282Y-112520929D01*
X160960871Y-112173518D01*
X160506957Y-111985500D01*
X160015643Y-111985500D01*
X159561729Y-112173518D01*
X159214318Y-112520929D01*
X159026300Y-112974843D01*
X155586554Y-112974843D01*
X155386580Y-112774869D01*
X155006174Y-112617300D01*
X154594426Y-112617300D01*
X154214020Y-112774869D01*
X153977889Y-113011000D01*
X153654626Y-113011000D01*
X153274220Y-113168569D01*
X152983069Y-113459720D01*
X152825500Y-113840126D01*
X152825500Y-114065100D01*
X152765626Y-114065100D01*
X152477741Y-114184346D01*
X152097874Y-114027000D01*
X151686126Y-114027000D01*
X151305720Y-114184569D01*
X151014569Y-114475720D01*
X150857000Y-114856126D01*
X149498000Y-114856126D01*
X149498000Y-114805326D01*
X149340431Y-114424920D01*
X149049280Y-114133769D01*
X148668874Y-113976200D01*
X148257126Y-113976200D01*
X147876720Y-114133769D01*
X147585569Y-114424920D01*
X147428000Y-114805326D01*
X142656530Y-114805326D01*
X142609431Y-114691620D01*
X142318280Y-114400469D01*
X141937874Y-114242900D01*
X141526126Y-114242900D01*
X141145720Y-114400469D01*
X140854569Y-114691620D01*
X140798451Y-114827100D01*
X140611726Y-114827100D01*
X140231320Y-114984669D01*
X139940169Y-115275820D01*
X139782600Y-115656226D01*
X137630437Y-115656226D01*
X137568480Y-115594269D01*
X137188074Y-115436700D01*
X136776326Y-115436700D01*
X136395920Y-115594269D01*
X136104769Y-115885420D01*
X135947200Y-116265826D01*
X113816058Y-116265826D01*
X114047346Y-115316464D01*
X114056354Y-115302982D01*
X114077353Y-115197415D01*
X114085173Y-115173954D01*
X114086434Y-115163951D01*
X114088688Y-115156643D01*
X114090456Y-115139510D01*
X114095247Y-115119844D01*
X114095919Y-115104074D01*
X114099000Y-115088587D01*
X114099000Y-115087614D01*
X114100000Y-115082587D01*
X114100000Y-115056337D01*
X114112513Y-114957076D01*
X114110165Y-114948500D01*
X114199805Y-114079743D01*
X118373600Y-114079743D01*
X118373600Y-114571057D01*
X118561618Y-115024971D01*
X118909029Y-115372382D01*
X119362943Y-115560400D01*
X119854257Y-115560400D01*
X120308171Y-115372382D01*
X120655582Y-115024971D01*
X120843600Y-114571057D01*
X120843600Y-114079743D01*
X120655582Y-113625829D01*
X120308171Y-113278418D01*
X119854257Y-113090400D01*
X119362943Y-113090400D01*
X118909029Y-113278418D01*
X118561618Y-113625829D01*
X118373600Y-114079743D01*
X114199805Y-114079743D01*
X114212589Y-113955846D01*
X114220000Y-113918587D01*
X114220000Y-113899226D01*
X114222004Y-113887040D01*
X114221438Y-113870080D01*
X114223548Y-113849633D01*
X114220000Y-113811812D01*
X114220000Y-113766812D01*
X114217589Y-113754689D01*
X114184213Y-112754283D01*
X114193513Y-112720324D01*
X114181340Y-112623757D01*
X114181692Y-112610767D01*
X114181000Y-112606717D01*
X114181000Y-112594812D01*
X114178469Y-112582086D01*
X114178177Y-112573345D01*
X114171250Y-112543722D01*
X114166173Y-112503446D01*
X114160392Y-112486103D01*
X114005496Y-111579526D01*
X147770900Y-111579526D01*
X147770900Y-111991274D01*
X147928469Y-112371680D01*
X148219620Y-112662831D01*
X148600026Y-112820400D01*
X149011774Y-112820400D01*
X149392180Y-112662831D01*
X149683331Y-112371680D01*
X149743165Y-112227226D01*
X150437900Y-112227226D01*
X150437900Y-112638974D01*
X150595469Y-113019380D01*
X150886620Y-113310531D01*
X151267026Y-113468100D01*
X151678774Y-113468100D01*
X152059180Y-113310531D01*
X152350331Y-113019380D01*
X152507900Y-112638974D01*
X152507900Y-112227226D01*
X152350331Y-111846820D01*
X152059180Y-111555669D01*
X151678774Y-111398100D01*
X151267026Y-111398100D01*
X150886620Y-111555669D01*
X150595469Y-111846820D01*
X150437900Y-112227226D01*
X149743165Y-112227226D01*
X149840900Y-111991274D01*
X149840900Y-111579526D01*
X149683331Y-111199120D01*
X149392180Y-110907969D01*
X149011774Y-110750400D01*
X148600026Y-110750400D01*
X148219620Y-110907969D01*
X147928469Y-111199120D01*
X147770900Y-111579526D01*
X114005496Y-111579526D01*
X113994369Y-111514402D01*
X113996398Y-111504199D01*
X113982000Y-111431813D01*
X113982000Y-111431812D01*
X113973630Y-111389732D01*
X113968173Y-111346446D01*
X113963041Y-111331051D01*
X113960309Y-111315059D01*
X113957118Y-111306723D01*
X113939354Y-111217417D01*
X113915055Y-111181051D01*
X113747640Y-110650743D01*
X181594200Y-110650743D01*
X181594200Y-111142057D01*
X181782218Y-111595971D01*
X182129629Y-111943382D01*
X182583543Y-112131400D01*
X183074857Y-112131400D01*
X183528771Y-111943382D01*
X183876182Y-111595971D01*
X184064200Y-111142057D01*
X184064200Y-110650743D01*
X183876182Y-110196829D01*
X183528771Y-109849418D01*
X183074857Y-109661400D01*
X182583543Y-109661400D01*
X182129629Y-109849418D01*
X181782218Y-110196829D01*
X181594200Y-110650743D01*
X113747640Y-110650743D01*
X113614913Y-110230319D01*
X113614173Y-110224446D01*
X113604367Y-110195027D01*
X113584354Y-110094417D01*
X113533241Y-110017921D01*
X113092069Y-109085286D01*
X113081354Y-109031417D01*
X113030792Y-108955745D01*
X113025459Y-108944472D01*
X113010471Y-108924265D01*
X112955135Y-108827193D01*
X112935196Y-108811718D01*
X112442191Y-108055624D01*
X112441354Y-108051418D01*
X112366915Y-107940012D01*
X112347877Y-107906580D01*
X112336284Y-107893201D01*
X112325143Y-107876115D01*
X112322228Y-107873134D01*
X112319909Y-107869663D01*
X112318187Y-107867941D01*
X112316403Y-107865265D01*
X112316128Y-107864989D01*
X112274905Y-107803295D01*
X112235652Y-107777067D01*
X111564836Y-107002915D01*
X111548403Y-106978265D01*
X111548125Y-106977987D01*
X111547909Y-106977663D01*
X111545911Y-106975665D01*
X111504905Y-106914295D01*
X111443866Y-106873510D01*
X111393994Y-106823534D01*
X111369567Y-106813386D01*
X110646889Y-106178680D01*
X110619905Y-106138295D01*
X110561548Y-106099302D01*
X110561537Y-106099291D01*
X110561213Y-106099075D01*
X110560935Y-106098797D01*
X110556914Y-106096116D01*
X110556037Y-106095247D01*
X110539216Y-106084113D01*
X110525633Y-106072184D01*
X110490947Y-106052124D01*
X110379782Y-105977846D01*
X110379774Y-105977844D01*
X110376783Y-105975846D01*
X110375151Y-105975521D01*
X109620505Y-105476034D01*
X109605007Y-105456064D01*
X109510153Y-105401993D01*
X109491841Y-105388225D01*
X109477201Y-105381183D01*
X109466871Y-105374346D01*
X109395783Y-105326846D01*
X109342001Y-105316148D01*
X108709591Y-105011943D01*
X134820100Y-105011943D01*
X134820100Y-105503257D01*
X135008118Y-105957171D01*
X135355529Y-106304582D01*
X135809443Y-106492600D01*
X136300757Y-106492600D01*
X136754671Y-106304582D01*
X137102082Y-105957171D01*
X137290100Y-105503257D01*
X137290100Y-105011943D01*
X137102082Y-104558029D01*
X136754671Y-104210618D01*
X136300757Y-104022600D01*
X135809443Y-104022600D01*
X135355529Y-104210618D01*
X135008118Y-104558029D01*
X134820100Y-105011943D01*
X108709591Y-105011943D01*
X108410315Y-104867984D01*
X108333782Y-104816846D01*
X108232226Y-104796645D01*
X108212636Y-104790321D01*
X108211754Y-104790027D01*
X108211707Y-104790021D01*
X107177477Y-104456128D01*
X106630946Y-104250435D01*
X106206350Y-103965125D01*
X105858888Y-103589206D01*
X105606960Y-103143083D01*
X105460483Y-102639236D01*
X105429000Y-102255136D01*
X105429000Y-102078243D01*
X114970000Y-102078243D01*
X114970000Y-102569557D01*
X115158018Y-103023471D01*
X115505429Y-103370882D01*
X115959343Y-103558900D01*
X116450657Y-103558900D01*
X116904571Y-103370882D01*
X117251982Y-103023471D01*
X117440000Y-102569557D01*
X117440000Y-102078243D01*
X117435437Y-102067226D01*
X126320600Y-102067226D01*
X126320600Y-102478974D01*
X126478169Y-102859380D01*
X126769320Y-103150531D01*
X127149726Y-103308100D01*
X127561474Y-103308100D01*
X127941880Y-103150531D01*
X128233031Y-102859380D01*
X128390600Y-102478974D01*
X128390600Y-102067226D01*
X128233031Y-101686820D01*
X127941880Y-101395669D01*
X127561474Y-101238100D01*
X127149726Y-101238100D01*
X126769320Y-101395669D01*
X126478169Y-101686820D01*
X126320600Y-102067226D01*
X117435437Y-102067226D01*
X117251982Y-101624329D01*
X116904571Y-101276918D01*
X116450657Y-101088900D01*
X115959343Y-101088900D01*
X115505429Y-101276918D01*
X115158018Y-101624329D01*
X114970000Y-102078243D01*
X105429000Y-102078243D01*
X105429000Y-99136897D01*
X106219000Y-99136897D01*
X106219000Y-100127902D01*
X106334171Y-100706907D01*
X106772895Y-101363505D01*
X107429492Y-101802229D01*
X108204000Y-101956288D01*
X108978507Y-101802229D01*
X109635105Y-101363505D01*
X110073829Y-100706908D01*
X110189000Y-100127903D01*
X110189000Y-99136898D01*
X110129893Y-98839743D01*
X121320000Y-98839743D01*
X121320000Y-99331057D01*
X121508018Y-99784971D01*
X121855429Y-100132382D01*
X122309343Y-100320400D01*
X122800657Y-100320400D01*
X123254571Y-100132382D01*
X123601982Y-99784971D01*
X123790000Y-99331057D01*
X123790000Y-98839743D01*
X123601982Y-98385829D01*
X123254571Y-98038418D01*
X122800657Y-97850400D01*
X122309343Y-97850400D01*
X121855429Y-98038418D01*
X121508018Y-98385829D01*
X121320000Y-98839743D01*
X110129893Y-98839743D01*
X110073829Y-98557892D01*
X109635105Y-97901295D01*
X108978508Y-97462571D01*
X108204000Y-97308512D01*
X107429493Y-97462571D01*
X106772896Y-97901295D01*
X106334171Y-98557892D01*
X106219000Y-99136897D01*
X105429000Y-99136897D01*
X105429000Y-94418150D01*
X106219000Y-94418150D01*
X106219000Y-95908710D01*
X106315673Y-96142099D01*
X106494302Y-96320727D01*
X106727691Y-96417400D01*
X107918250Y-96417400D01*
X108077000Y-96258650D01*
X108077000Y-94259400D01*
X108331000Y-94259400D01*
X108331000Y-96258650D01*
X108489750Y-96417400D01*
X109680309Y-96417400D01*
X109913698Y-96320727D01*
X110092327Y-96142099D01*
X110189000Y-95908710D01*
X110189000Y-94418150D01*
X110030250Y-94259400D01*
X108331000Y-94259400D01*
X108077000Y-94259400D01*
X106377750Y-94259400D01*
X106219000Y-94418150D01*
X105429000Y-94418150D01*
X105429000Y-92356090D01*
X106219000Y-92356090D01*
X106219000Y-93846650D01*
X106377750Y-94005400D01*
X108077000Y-94005400D01*
X108077000Y-92006150D01*
X108331000Y-92006150D01*
X108331000Y-94005400D01*
X110030250Y-94005400D01*
X110189000Y-93846650D01*
X110189000Y-92529526D01*
X115170000Y-92529526D01*
X115170000Y-92941274D01*
X115327569Y-93321680D01*
X115618720Y-93612831D01*
X115999126Y-93770400D01*
X116410874Y-93770400D01*
X116791280Y-93612831D01*
X117082431Y-93321680D01*
X117240000Y-92941274D01*
X117240000Y-92529526D01*
X117234740Y-92516826D01*
X121494600Y-92516826D01*
X121494600Y-92928574D01*
X121652169Y-93308980D01*
X121943320Y-93600131D01*
X122323726Y-93757700D01*
X122735474Y-93757700D01*
X123115880Y-93600131D01*
X123407031Y-93308980D01*
X123564600Y-92928574D01*
X123564600Y-92516826D01*
X123407031Y-92136420D01*
X123115880Y-91845269D01*
X122735474Y-91687700D01*
X122323726Y-91687700D01*
X121943320Y-91845269D01*
X121652169Y-92136420D01*
X121494600Y-92516826D01*
X117234740Y-92516826D01*
X117082431Y-92149120D01*
X116791280Y-91857969D01*
X116410874Y-91700400D01*
X115999126Y-91700400D01*
X115618720Y-91857969D01*
X115327569Y-92149120D01*
X115170000Y-92529526D01*
X110189000Y-92529526D01*
X110189000Y-92356090D01*
X110092327Y-92122701D01*
X109913698Y-91944073D01*
X109680309Y-91847400D01*
X108489750Y-91847400D01*
X108331000Y-92006150D01*
X108077000Y-92006150D01*
X107918250Y-91847400D01*
X106727691Y-91847400D01*
X106494302Y-91944073D01*
X106315673Y-92122701D01*
X106219000Y-92356090D01*
X105429000Y-92356090D01*
X105429000Y-90668517D01*
X133124152Y-90668517D01*
X133129471Y-90705737D01*
X133200164Y-92196961D01*
X133198373Y-92234223D01*
X133203584Y-92269096D01*
X133205253Y-92304310D01*
X133214254Y-92340506D01*
X133434898Y-93817198D01*
X133436883Y-93854522D01*
X133445569Y-93888613D01*
X133450768Y-93923409D01*
X133463398Y-93958590D01*
X133832118Y-95405771D01*
X133837866Y-95442719D01*
X133849944Y-95475738D01*
X133858627Y-95509816D01*
X133874754Y-95543559D01*
X134387722Y-96945865D01*
X134397177Y-96982051D01*
X134412524Y-97013666D01*
X134424602Y-97046684D01*
X134444064Y-97078639D01*
X135096584Y-98422852D01*
X135109718Y-98458040D01*
X135128115Y-98487806D01*
X135143399Y-98519292D01*
X135166082Y-98549238D01*
X135951283Y-99819698D01*
X135967723Y-99853055D01*
X135989236Y-99881106D01*
X136007832Y-99911194D01*
X136033193Y-99938421D01*
X136941508Y-101122765D01*
X136961359Y-101154486D01*
X136985444Y-101180054D01*
X137006827Y-101207935D01*
X137034965Y-101232624D01*
X138059172Y-102319889D01*
X138082268Y-102349585D01*
X138108673Y-102372438D01*
X138132629Y-102397869D01*
X138163285Y-102419704D01*
X139292425Y-103396955D01*
X139318117Y-103423890D01*
X139347019Y-103444205D01*
X139373737Y-103467329D01*
X139406102Y-103485734D01*
X140627719Y-104344400D01*
X140656136Y-104368717D01*
X140686798Y-104385927D01*
X140715560Y-104406143D01*
X140749762Y-104421266D01*
X142051700Y-105151994D01*
X142082355Y-105173273D01*
X142114654Y-105187328D01*
X142145385Y-105204576D01*
X142180880Y-105216146D01*
X143550802Y-105812263D01*
X143583658Y-105830433D01*
X143617001Y-105841070D01*
X143649106Y-105855040D01*
X143685809Y-105863020D01*
X145108349Y-106316819D01*
X145142794Y-106331536D01*
X145177145Y-106338765D01*
X145210585Y-106349433D01*
X145247802Y-106353636D01*
X146709129Y-106661183D01*
X146744542Y-106672267D01*
X146779774Y-106676051D01*
X146814466Y-106683352D01*
X146851588Y-106683763D01*
X148336979Y-106843288D01*
X148373852Y-106850819D01*
X148408764Y-106850998D01*
X148443489Y-106854727D01*
X148480983Y-106851367D01*
X149974256Y-106859010D01*
X150011474Y-106862754D01*
X150046473Y-106859380D01*
X150081624Y-106859560D01*
X150118339Y-106852452D01*
X151604602Y-106709175D01*
X151641886Y-106709150D01*
X151676470Y-106702247D01*
X151711581Y-106698862D01*
X151747289Y-106688111D01*
X153211731Y-106395796D01*
X153249102Y-106391958D01*
X153282547Y-106381660D01*
X153316861Y-106374811D01*
X153351557Y-106360412D01*
X154778711Y-105920993D01*
X154815207Y-105913475D01*
X154847734Y-105899741D01*
X154881467Y-105889355D01*
X154914245Y-105871659D01*
X156289702Y-105290910D01*
X156325412Y-105279688D01*
X156356219Y-105262825D01*
X156388581Y-105249161D01*
X156419568Y-105228149D01*
X157730397Y-104510634D01*
X157764918Y-104495786D01*
X157793724Y-104475970D01*
X157824408Y-104459175D01*
X157853230Y-104435037D01*
X159083639Y-103588654D01*
X159116215Y-103570558D01*
X159143120Y-103547738D01*
X159172198Y-103527736D01*
X159198199Y-103501023D01*
X160336684Y-102535413D01*
X160367300Y-102514103D01*
X160391738Y-102488718D01*
X160418626Y-102465913D01*
X160441833Y-102436683D01*
X161477339Y-101361057D01*
X161505789Y-101336624D01*
X161527397Y-101309060D01*
X161551709Y-101283806D01*
X161571965Y-101252207D01*
X162493863Y-100076191D01*
X162519611Y-100049103D01*
X162538401Y-100019376D01*
X162560108Y-99991686D01*
X162576992Y-99958325D01*
X163112270Y-99111497D01*
X188413400Y-99111497D01*
X188413400Y-100102502D01*
X188528571Y-100681507D01*
X188967295Y-101338105D01*
X189623892Y-101776829D01*
X190398400Y-101930888D01*
X191172907Y-101776829D01*
X191829505Y-101338105D01*
X192268229Y-100681508D01*
X192383400Y-100102503D01*
X192383400Y-99111498D01*
X192268229Y-98532492D01*
X191829505Y-97875895D01*
X191172908Y-97437171D01*
X190398400Y-97283112D01*
X189623893Y-97437171D01*
X188967296Y-97875895D01*
X188528571Y-98532492D01*
X188413400Y-99111497D01*
X163112270Y-99111497D01*
X163374540Y-98696577D01*
X163397368Y-98667111D01*
X163413114Y-98635552D01*
X163431966Y-98605727D01*
X163445357Y-98570926D01*
X164112157Y-97234461D01*
X164132051Y-97202543D01*
X164144400Y-97169836D01*
X164160002Y-97138565D01*
X164169901Y-97102294D01*
X164697236Y-95705621D01*
X164713680Y-95672126D01*
X164722740Y-95638071D01*
X164735189Y-95605100D01*
X164741306Y-95568287D01*
X165022669Y-94510726D01*
X183953200Y-94510726D01*
X183953200Y-94922474D01*
X184110769Y-95302880D01*
X184401920Y-95594031D01*
X184782326Y-95751600D01*
X185194074Y-95751600D01*
X185574480Y-95594031D01*
X185865631Y-95302880D01*
X186023200Y-94922474D01*
X186023200Y-94510726D01*
X185974333Y-94392750D01*
X188413400Y-94392750D01*
X188413400Y-95883310D01*
X188510073Y-96116699D01*
X188688702Y-96295327D01*
X188922091Y-96392000D01*
X190112650Y-96392000D01*
X190271400Y-96233250D01*
X190271400Y-94234000D01*
X190525400Y-94234000D01*
X190525400Y-96233250D01*
X190684150Y-96392000D01*
X191874709Y-96392000D01*
X192108098Y-96295327D01*
X192286727Y-96116699D01*
X192383400Y-95883310D01*
X192383400Y-94392750D01*
X192224650Y-94234000D01*
X190525400Y-94234000D01*
X190271400Y-94234000D01*
X188572150Y-94234000D01*
X188413400Y-94392750D01*
X185974333Y-94392750D01*
X185865631Y-94130320D01*
X185574480Y-93839169D01*
X185194074Y-93681600D01*
X184782326Y-93681600D01*
X184401920Y-93839169D01*
X184110769Y-94130320D01*
X183953200Y-94510726D01*
X165022669Y-94510726D01*
X165125256Y-94125133D01*
X165138218Y-94090234D01*
X165143820Y-94055360D01*
X165152903Y-94021218D01*
X165155272Y-93984057D01*
X165317314Y-92975213D01*
X171473935Y-92975213D01*
X171473935Y-93386961D01*
X171631504Y-93767367D01*
X171922655Y-94058518D01*
X172303061Y-94216087D01*
X172714809Y-94216087D01*
X173095215Y-94058518D01*
X173386366Y-93767367D01*
X173543935Y-93386961D01*
X173543935Y-92975213D01*
X173386366Y-92594807D01*
X173122249Y-92330690D01*
X188413400Y-92330690D01*
X188413400Y-93821250D01*
X188572150Y-93980000D01*
X190271400Y-93980000D01*
X190271400Y-91980750D01*
X190525400Y-91980750D01*
X190525400Y-93980000D01*
X192224650Y-93980000D01*
X192383400Y-93821250D01*
X192383400Y-92330690D01*
X192286727Y-92097301D01*
X192108098Y-91918673D01*
X191874709Y-91822000D01*
X190684150Y-91822000D01*
X190525400Y-91980750D01*
X190271400Y-91980750D01*
X190112650Y-91822000D01*
X188922091Y-91822000D01*
X188688702Y-91918673D01*
X188510073Y-92097301D01*
X188413400Y-92330690D01*
X173122249Y-92330690D01*
X173095215Y-92303656D01*
X172714809Y-92146087D01*
X172303061Y-92146087D01*
X171922655Y-92303656D01*
X171631504Y-92594807D01*
X171473935Y-92975213D01*
X165317314Y-92975213D01*
X165392178Y-92509129D01*
X165401614Y-92472774D01*
X165403628Y-92437847D01*
X165409178Y-92403292D01*
X165407785Y-92365746D01*
X165492842Y-90890493D01*
X165497000Y-90869588D01*
X165497000Y-90818370D01*
X165499948Y-90767239D01*
X165497000Y-90746130D01*
X165497000Y-90743877D01*
X165499718Y-90725369D01*
X165497000Y-90671628D01*
X165497000Y-90617813D01*
X165493350Y-90599464D01*
X165418831Y-89126068D01*
X165420502Y-89088773D01*
X165415184Y-89053960D01*
X165413405Y-89018779D01*
X165404279Y-88982570D01*
X165178824Y-87506600D01*
X165176681Y-87469048D01*
X165167918Y-87435201D01*
X165162641Y-87400658D01*
X165149823Y-87365315D01*
X164775341Y-85918978D01*
X164769486Y-85882187D01*
X164757241Y-85849072D01*
X164748392Y-85814894D01*
X164732199Y-85781346D01*
X164214477Y-84381205D01*
X164204861Y-84344957D01*
X164189434Y-84313477D01*
X164177276Y-84280597D01*
X164157658Y-84248637D01*
X164075187Y-84080350D01*
X165901000Y-84080350D01*
X165901000Y-84770910D01*
X165997673Y-85004299D01*
X166176302Y-85182927D01*
X166409691Y-85279600D01*
X167100250Y-85279600D01*
X167259000Y-85120850D01*
X167259000Y-83921600D01*
X167513000Y-83921600D01*
X167513000Y-85120850D01*
X167671750Y-85279600D01*
X168362309Y-85279600D01*
X168595698Y-85182927D01*
X168774327Y-85004299D01*
X168871000Y-84770910D01*
X168871000Y-84080350D01*
X168712250Y-83921600D01*
X167513000Y-83921600D01*
X167259000Y-83921600D01*
X166059750Y-83921600D01*
X165901000Y-84080350D01*
X164075187Y-84080350D01*
X163500430Y-82907529D01*
X163487266Y-82872592D01*
X163468652Y-82842683D01*
X163453151Y-82811053D01*
X163430500Y-82781381D01*
X162641493Y-81513622D01*
X162624828Y-81480122D01*
X162603336Y-81452313D01*
X162584768Y-81422478D01*
X162559183Y-81395182D01*
X162450537Y-81254600D01*
X165871908Y-81254600D01*
X165987161Y-81834018D01*
X166315375Y-82325225D01*
X166337033Y-82339696D01*
X166176302Y-82406273D01*
X165997673Y-82584901D01*
X165901000Y-82818290D01*
X165901000Y-83508850D01*
X166059750Y-83667600D01*
X167259000Y-83667600D01*
X167259000Y-83647600D01*
X167513000Y-83647600D01*
X167513000Y-83667600D01*
X168712250Y-83667600D01*
X168871000Y-83508850D01*
X168871000Y-82818290D01*
X168774327Y-82584901D01*
X168595698Y-82406273D01*
X168434967Y-82339696D01*
X168456625Y-82325225D01*
X168784839Y-81834018D01*
X168842856Y-81542343D01*
X176107800Y-81542343D01*
X176107800Y-82033657D01*
X176295818Y-82487571D01*
X176643229Y-82834982D01*
X177097143Y-83023000D01*
X177588457Y-83023000D01*
X178042371Y-82834982D01*
X178141885Y-82735468D01*
X178089000Y-82863143D01*
X178089000Y-83354457D01*
X178254072Y-83752975D01*
X178226218Y-83780829D01*
X178038200Y-84234743D01*
X178038200Y-84726057D01*
X178195833Y-85106614D01*
X178150018Y-85152429D01*
X177962000Y-85606343D01*
X177962000Y-86097657D01*
X177997535Y-86183446D01*
X177588457Y-86014000D01*
X177097143Y-86014000D01*
X176643229Y-86202018D01*
X176295818Y-86549429D01*
X176107800Y-87003343D01*
X176107800Y-87494657D01*
X176295818Y-87948571D01*
X176643229Y-88295982D01*
X177097143Y-88484000D01*
X177588457Y-88484000D01*
X178042371Y-88295982D01*
X178181000Y-88157353D01*
X178319629Y-88295982D01*
X178773543Y-88484000D01*
X179264857Y-88484000D01*
X179718771Y-88295982D01*
X180066182Y-87948571D01*
X180184987Y-87661750D01*
X188388000Y-87661750D01*
X188388000Y-89152310D01*
X188484673Y-89385699D01*
X188663302Y-89564327D01*
X188896691Y-89661000D01*
X190087250Y-89661000D01*
X190246000Y-89502250D01*
X190246000Y-87503000D01*
X190500000Y-87503000D01*
X190500000Y-89502250D01*
X190658750Y-89661000D01*
X191849309Y-89661000D01*
X192082698Y-89564327D01*
X192261327Y-89385699D01*
X192358000Y-89152310D01*
X192358000Y-87661750D01*
X192199250Y-87503000D01*
X190500000Y-87503000D01*
X190246000Y-87503000D01*
X188546750Y-87503000D01*
X188388000Y-87661750D01*
X180184987Y-87661750D01*
X180254200Y-87494657D01*
X180254200Y-87003343D01*
X180118886Y-86676667D01*
X180243982Y-86551571D01*
X180432000Y-86097657D01*
X180432000Y-85606343D01*
X180429245Y-85599690D01*
X188388000Y-85599690D01*
X188388000Y-87090250D01*
X188546750Y-87249000D01*
X190246000Y-87249000D01*
X190246000Y-85249750D01*
X190500000Y-85249750D01*
X190500000Y-87249000D01*
X192199250Y-87249000D01*
X192358000Y-87090250D01*
X192358000Y-85599690D01*
X192261327Y-85366301D01*
X192082698Y-85187673D01*
X191849309Y-85091000D01*
X190658750Y-85091000D01*
X190500000Y-85249750D01*
X190246000Y-85249750D01*
X190087250Y-85091000D01*
X188896691Y-85091000D01*
X188663302Y-85187673D01*
X188484673Y-85366301D01*
X188388000Y-85599690D01*
X180429245Y-85599690D01*
X180274367Y-85225786D01*
X180320182Y-85179971D01*
X180508200Y-84726057D01*
X180508200Y-84234743D01*
X180343128Y-83836225D01*
X180370982Y-83808371D01*
X180559000Y-83354457D01*
X180559000Y-82863143D01*
X180371426Y-82410300D01*
X180559000Y-81957457D01*
X180559000Y-81466143D01*
X180523525Y-81380498D01*
X188388000Y-81380498D01*
X188388000Y-82371503D01*
X188503171Y-82950508D01*
X188941896Y-83607105D01*
X189598493Y-84045829D01*
X190373000Y-84199888D01*
X191147508Y-84045829D01*
X191804105Y-83607105D01*
X192242829Y-82950508D01*
X192358000Y-82371502D01*
X192358000Y-81380497D01*
X192242829Y-80801492D01*
X191804105Y-80144895D01*
X191147507Y-79706171D01*
X190373000Y-79552112D01*
X189598492Y-79706171D01*
X188941895Y-80144895D01*
X188503171Y-80801493D01*
X188388000Y-81380498D01*
X180523525Y-81380498D01*
X180370982Y-81012229D01*
X180023571Y-80664818D01*
X179569657Y-80476800D01*
X179078343Y-80476800D01*
X178624429Y-80664818D01*
X178295300Y-80993947D01*
X178042371Y-80741018D01*
X177588457Y-80553000D01*
X177097143Y-80553000D01*
X176643229Y-80741018D01*
X176295818Y-81088429D01*
X176107800Y-81542343D01*
X168842856Y-81542343D01*
X168900092Y-81254600D01*
X168784839Y-80675182D01*
X168456625Y-80183975D01*
X167965418Y-79855761D01*
X167532256Y-79769600D01*
X167239744Y-79769600D01*
X166806582Y-79855761D01*
X166315375Y-80183975D01*
X165987161Y-80675182D01*
X165871908Y-81254600D01*
X162450537Y-81254600D01*
X161645961Y-80213533D01*
X161626005Y-80181901D01*
X161601796Y-80156388D01*
X161580298Y-80128570D01*
X161552105Y-80104018D01*
X160524259Y-79020769D01*
X160501206Y-78991311D01*
X160474549Y-78968380D01*
X160450354Y-78942880D01*
X160419817Y-78921296D01*
X160189242Y-78722943D01*
X179917800Y-78722943D01*
X179917800Y-79214257D01*
X180105818Y-79668171D01*
X180453229Y-80015582D01*
X180907143Y-80203600D01*
X181398457Y-80203600D01*
X181825900Y-80026547D01*
X182253343Y-80203600D01*
X182744657Y-80203600D01*
X183179096Y-80023649D01*
X183196429Y-80040982D01*
X183650343Y-80229000D01*
X184141657Y-80229000D01*
X184595571Y-80040982D01*
X184942982Y-79693571D01*
X185078915Y-79365400D01*
X185233857Y-79365400D01*
X185687771Y-79177382D01*
X186035182Y-78829971D01*
X186223200Y-78376057D01*
X186223200Y-77884743D01*
X186035182Y-77430829D01*
X185687771Y-77083418D01*
X185233857Y-76895400D01*
X185047352Y-76895400D01*
X184942982Y-76643429D01*
X184595571Y-76296018D01*
X184141657Y-76108000D01*
X183734000Y-76108000D01*
X183734000Y-75725743D01*
X183545982Y-75271829D01*
X183198571Y-74924418D01*
X182744657Y-74736400D01*
X182253343Y-74736400D01*
X181799429Y-74924418D01*
X181452018Y-75271829D01*
X181264000Y-75725743D01*
X181264000Y-76217057D01*
X181366122Y-76463600D01*
X180932543Y-76463600D01*
X180478629Y-76651618D01*
X180131218Y-76999029D01*
X179943200Y-77452943D01*
X179943200Y-77944257D01*
X180091772Y-78302940D01*
X179917800Y-78722943D01*
X160189242Y-78722943D01*
X159287734Y-77947418D01*
X159261709Y-77920345D01*
X159232990Y-77900324D01*
X159206453Y-77877496D01*
X159173758Y-77859033D01*
X157948119Y-77004620D01*
X157919705Y-76980481D01*
X157888883Y-76963326D01*
X157859944Y-76943152D01*
X157825787Y-76928207D01*
X156521095Y-76202031D01*
X156490359Y-76180857D01*
X156457992Y-76166909D01*
X156427203Y-76149772D01*
X156391686Y-76138335D01*
X155020922Y-75547617D01*
X154988052Y-75529584D01*
X154954608Y-75519039D01*
X154922403Y-75505161D01*
X154885739Y-75497326D01*
X153461358Y-75048230D01*
X153426908Y-75033644D01*
X153392499Y-75026519D01*
X153358976Y-75015950D01*
X153321779Y-75011877D01*
X151859287Y-74709061D01*
X151823560Y-74698036D01*
X151788579Y-74694421D01*
X151754139Y-74687290D01*
X151716749Y-74686998D01*
X150231366Y-74533492D01*
X150194704Y-74526131D01*
X150159530Y-74526068D01*
X150124550Y-74522453D01*
X150087327Y-74525939D01*
X148593254Y-74523264D01*
X148555987Y-74519645D01*
X148521044Y-74523135D01*
X148485928Y-74523072D01*
X148449193Y-74530311D01*
X146963790Y-74678661D01*
X146926394Y-74678824D01*
X146891917Y-74685839D01*
X146856929Y-74689333D01*
X146821178Y-74700231D01*
X145357762Y-74997977D01*
X145320594Y-75001914D01*
X145287000Y-75012375D01*
X145252525Y-75019389D01*
X145218060Y-75033842D01*
X143791868Y-75477939D01*
X143755241Y-75485623D01*
X143722912Y-75499411D01*
X143689366Y-75509857D01*
X143656503Y-75527734D01*
X142282743Y-76113637D01*
X142246999Y-76125019D01*
X142216306Y-76141972D01*
X142184071Y-76155720D01*
X142153114Y-76176876D01*
X140846432Y-76898608D01*
X140812285Y-76913408D01*
X140783206Y-76933530D01*
X140752271Y-76950617D01*
X140723846Y-76974607D01*
X139495341Y-77824722D01*
X139462507Y-77843124D01*
X139435950Y-77865821D01*
X139407235Y-77885691D01*
X139381068Y-77912724D01*
X138246144Y-78882665D01*
X138215595Y-78904098D01*
X138191239Y-78929588D01*
X138164450Y-78952483D01*
X138141365Y-78981785D01*
X137109866Y-80061326D01*
X137081681Y-80085679D01*
X137059972Y-80113544D01*
X137035579Y-80139073D01*
X137015603Y-80170494D01*
X136097632Y-81348765D01*
X136071882Y-81376036D01*
X136053247Y-81405736D01*
X136031705Y-81433386D01*
X136014874Y-81466893D01*
X135220908Y-82732271D01*
X135198006Y-82762087D01*
X135182517Y-82793456D01*
X135163936Y-82823070D01*
X135150559Y-82858181D01*
X134489558Y-84196902D01*
X134469999Y-84228487D01*
X134457588Y-84261651D01*
X134441911Y-84293401D01*
X134432278Y-84329280D01*
X133908793Y-85728074D01*
X133892322Y-85761955D01*
X133883482Y-85795707D01*
X133871255Y-85828379D01*
X133865188Y-85865556D01*
X133486886Y-87309984D01*
X133474056Y-87344945D01*
X133468590Y-87379842D01*
X133459642Y-87414007D01*
X133457416Y-87451177D01*
X133226280Y-88926820D01*
X133217024Y-88962956D01*
X133215108Y-88998145D01*
X133209652Y-89032977D01*
X133211181Y-89070262D01*
X133129979Y-90561508D01*
X133124397Y-90598698D01*
X133126052Y-90633617D01*
X133124152Y-90668517D01*
X105429000Y-90668517D01*
X105429000Y-87661750D01*
X106219000Y-87661750D01*
X106219000Y-89152310D01*
X106315673Y-89385699D01*
X106494302Y-89564327D01*
X106727691Y-89661000D01*
X107918250Y-89661000D01*
X108077000Y-89502250D01*
X108077000Y-87503000D01*
X108331000Y-87503000D01*
X108331000Y-89502250D01*
X108489750Y-89661000D01*
X109680309Y-89661000D01*
X109913698Y-89564327D01*
X110092327Y-89385699D01*
X110189000Y-89152310D01*
X110189000Y-87661750D01*
X110030250Y-87503000D01*
X108331000Y-87503000D01*
X108077000Y-87503000D01*
X106377750Y-87503000D01*
X106219000Y-87661750D01*
X105429000Y-87661750D01*
X105429000Y-87474926D01*
X112782400Y-87474926D01*
X112782400Y-87886674D01*
X112939969Y-88267080D01*
X113231120Y-88558231D01*
X113611526Y-88715800D01*
X114023274Y-88715800D01*
X114203173Y-88641284D01*
X114297920Y-88736031D01*
X114678326Y-88893600D01*
X115090074Y-88893600D01*
X115338412Y-88790735D01*
X115352969Y-88825880D01*
X115644120Y-89117031D01*
X116024526Y-89274600D01*
X116436274Y-89274600D01*
X116816680Y-89117031D01*
X117100400Y-88833311D01*
X117100400Y-89015874D01*
X117257969Y-89396280D01*
X117549120Y-89687431D01*
X117929526Y-89845000D01*
X118341274Y-89845000D01*
X118721680Y-89687431D01*
X119012831Y-89396280D01*
X119170400Y-89015874D01*
X119170400Y-88604126D01*
X119012831Y-88223720D01*
X118721680Y-87932569D01*
X118341274Y-87775000D01*
X117929526Y-87775000D01*
X117549120Y-87932569D01*
X117265400Y-88216289D01*
X117265400Y-88033726D01*
X117107831Y-87653320D01*
X116816680Y-87362169D01*
X116436274Y-87204600D01*
X116024526Y-87204600D01*
X115776188Y-87307465D01*
X115761631Y-87272320D01*
X115470480Y-86981169D01*
X115090074Y-86823600D01*
X114678326Y-86823600D01*
X114498427Y-86898116D01*
X114403680Y-86803369D01*
X114023274Y-86645800D01*
X113611526Y-86645800D01*
X113231120Y-86803369D01*
X112939969Y-87094520D01*
X112782400Y-87474926D01*
X105429000Y-87474926D01*
X105429000Y-85599690D01*
X106219000Y-85599690D01*
X106219000Y-87090250D01*
X106377750Y-87249000D01*
X108077000Y-87249000D01*
X108077000Y-85249750D01*
X108331000Y-85249750D01*
X108331000Y-87249000D01*
X110030250Y-87249000D01*
X110189000Y-87090250D01*
X110189000Y-85599690D01*
X110092327Y-85366301D01*
X109913698Y-85187673D01*
X109680309Y-85091000D01*
X108489750Y-85091000D01*
X108331000Y-85249750D01*
X108077000Y-85249750D01*
X107918250Y-85091000D01*
X106727691Y-85091000D01*
X106494302Y-85187673D01*
X106315673Y-85366301D01*
X106219000Y-85599690D01*
X105429000Y-85599690D01*
X105429000Y-81380498D01*
X106219000Y-81380498D01*
X106219000Y-82371503D01*
X106334171Y-82950508D01*
X106772896Y-83607105D01*
X107429493Y-84045829D01*
X108204000Y-84199888D01*
X108978508Y-84045829D01*
X109635105Y-83607105D01*
X109792382Y-83371722D01*
X110650357Y-83371722D01*
X110719857Y-83655743D01*
X110892756Y-83891548D01*
X111142733Y-84043238D01*
X111215681Y-84054466D01*
X126302659Y-89545677D01*
X126365753Y-89583964D01*
X126438697Y-89595191D01*
X126438699Y-89595192D01*
X126654750Y-89628445D01*
X126938771Y-89558945D01*
X127065985Y-89465668D01*
X127174576Y-89386046D01*
X127287977Y-89199167D01*
X127326266Y-89136069D01*
X127337494Y-89063121D01*
X131252938Y-78305526D01*
X134613700Y-78305526D01*
X134613700Y-78717274D01*
X134771269Y-79097680D01*
X135062420Y-79388831D01*
X135442826Y-79546400D01*
X135854574Y-79546400D01*
X136234980Y-79388831D01*
X136526131Y-79097680D01*
X136683700Y-78717274D01*
X136683700Y-78305526D01*
X136526131Y-77925120D01*
X136234980Y-77633969D01*
X135854574Y-77476400D01*
X135442826Y-77476400D01*
X135062420Y-77633969D01*
X134771269Y-77925120D01*
X134613700Y-78305526D01*
X131252938Y-78305526D01*
X132315676Y-75385680D01*
X132353962Y-75322587D01*
X132365189Y-75249644D01*
X132365190Y-75249641D01*
X132398443Y-75033590D01*
X132398424Y-75033509D01*
X132328943Y-74749568D01*
X132156044Y-74513763D01*
X131969164Y-74400361D01*
X131969159Y-74400359D01*
X131906067Y-74362074D01*
X131833127Y-74350847D01*
X131781567Y-74332081D01*
X131899000Y-74355440D01*
X133249000Y-74355440D01*
X133496765Y-74306157D01*
X133574000Y-74254550D01*
X133651235Y-74306157D01*
X133899000Y-74355440D01*
X135249000Y-74355440D01*
X135496765Y-74306157D01*
X135574000Y-74254550D01*
X135651235Y-74306157D01*
X135899000Y-74355440D01*
X137249000Y-74355440D01*
X137496765Y-74306157D01*
X137574000Y-74254550D01*
X137651235Y-74306157D01*
X137899000Y-74355440D01*
X139249000Y-74355440D01*
X139496765Y-74306157D01*
X139574000Y-74254550D01*
X139651235Y-74306157D01*
X139899000Y-74355440D01*
X141249000Y-74355440D01*
X141496765Y-74306157D01*
X141574000Y-74254550D01*
X141651235Y-74306157D01*
X141899000Y-74355440D01*
X143249000Y-74355440D01*
X143496765Y-74306157D01*
X143574000Y-74254550D01*
X143651235Y-74306157D01*
X143899000Y-74355440D01*
X145249000Y-74355440D01*
X145496765Y-74306157D01*
X145574000Y-74254550D01*
X145651235Y-74306157D01*
X145899000Y-74355440D01*
X147249000Y-74355440D01*
X147496765Y-74306157D01*
X147574000Y-74254550D01*
X147651235Y-74306157D01*
X147899000Y-74355440D01*
X149249000Y-74355440D01*
X149496765Y-74306157D01*
X149574000Y-74254550D01*
X149651235Y-74306157D01*
X149899000Y-74355440D01*
X151249000Y-74355440D01*
X151496765Y-74306157D01*
X151574000Y-74254550D01*
X151651235Y-74306157D01*
X151899000Y-74355440D01*
X153249000Y-74355440D01*
X153496765Y-74306157D01*
X153574000Y-74254550D01*
X153651235Y-74306157D01*
X153899000Y-74355440D01*
X155249000Y-74355440D01*
X155496765Y-74306157D01*
X155574000Y-74254550D01*
X155651235Y-74306157D01*
X155899000Y-74355440D01*
X157249000Y-74355440D01*
X157496765Y-74306157D01*
X157574000Y-74254550D01*
X157651235Y-74306157D01*
X157899000Y-74355440D01*
X159249000Y-74355440D01*
X159496765Y-74306157D01*
X159574000Y-74254550D01*
X159651235Y-74306157D01*
X159899000Y-74355440D01*
X161249000Y-74355440D01*
X161496765Y-74306157D01*
X161568318Y-74258346D01*
X161772690Y-74343000D01*
X162288250Y-74343000D01*
X162447000Y-74184250D01*
X162447000Y-73160000D01*
X162701000Y-73160000D01*
X162701000Y-74184250D01*
X162859750Y-74343000D01*
X163375310Y-74343000D01*
X163608699Y-74246327D01*
X163787327Y-74067698D01*
X163884000Y-73834309D01*
X163884000Y-73318750D01*
X163725250Y-73160000D01*
X162701000Y-73160000D01*
X162447000Y-73160000D01*
X162427000Y-73160000D01*
X162427000Y-72906000D01*
X162447000Y-72906000D01*
X162447000Y-71881750D01*
X162701000Y-71881750D01*
X162701000Y-72906000D01*
X163725250Y-72906000D01*
X163884000Y-72747250D01*
X163884000Y-72231691D01*
X163787327Y-71998302D01*
X163608699Y-71819673D01*
X163375310Y-71723000D01*
X162859750Y-71723000D01*
X162701000Y-71881750D01*
X162447000Y-71881750D01*
X162288250Y-71723000D01*
X161772690Y-71723000D01*
X161568318Y-71807654D01*
X161496765Y-71759843D01*
X161249000Y-71710560D01*
X159899000Y-71710560D01*
X159651235Y-71759843D01*
X159574000Y-71811450D01*
X159496765Y-71759843D01*
X159249000Y-71710560D01*
X157899000Y-71710560D01*
X157651235Y-71759843D01*
X157574000Y-71811450D01*
X157496765Y-71759843D01*
X157249000Y-71710560D01*
X155899000Y-71710560D01*
X155651235Y-71759843D01*
X155574000Y-71811450D01*
X155496765Y-71759843D01*
X155249000Y-71710560D01*
X153899000Y-71710560D01*
X153651235Y-71759843D01*
X153574000Y-71811450D01*
X153496765Y-71759843D01*
X153249000Y-71710560D01*
X151899000Y-71710560D01*
X151651235Y-71759843D01*
X151574000Y-71811450D01*
X151496765Y-71759843D01*
X151249000Y-71710560D01*
X149899000Y-71710560D01*
X149651235Y-71759843D01*
X149574000Y-71811450D01*
X149496765Y-71759843D01*
X149249000Y-71710560D01*
X147899000Y-71710560D01*
X147651235Y-71759843D01*
X147574000Y-71811450D01*
X147496765Y-71759843D01*
X147249000Y-71710560D01*
X145899000Y-71710560D01*
X145651235Y-71759843D01*
X145574000Y-71811450D01*
X145496765Y-71759843D01*
X145249000Y-71710560D01*
X143899000Y-71710560D01*
X143651235Y-71759843D01*
X143574000Y-71811450D01*
X143496765Y-71759843D01*
X143249000Y-71710560D01*
X141899000Y-71710560D01*
X141651235Y-71759843D01*
X141574000Y-71811450D01*
X141496765Y-71759843D01*
X141249000Y-71710560D01*
X139899000Y-71710560D01*
X139651235Y-71759843D01*
X139574000Y-71811450D01*
X139496765Y-71759843D01*
X139249000Y-71710560D01*
X137899000Y-71710560D01*
X137651235Y-71759843D01*
X137574000Y-71811450D01*
X137496765Y-71759843D01*
X137249000Y-71710560D01*
X135899000Y-71710560D01*
X135651235Y-71759843D01*
X135574000Y-71811450D01*
X135496765Y-71759843D01*
X135249000Y-71710560D01*
X133899000Y-71710560D01*
X133651235Y-71759843D01*
X133574000Y-71811450D01*
X133496765Y-71759843D01*
X133249000Y-71710560D01*
X131899000Y-71710560D01*
X131651235Y-71759843D01*
X131441191Y-71900191D01*
X131300843Y-72110235D01*
X131251560Y-72358000D01*
X131251560Y-73708000D01*
X131300843Y-73955765D01*
X131441191Y-74165809D01*
X131580519Y-74258906D01*
X116746143Y-68859636D01*
X116683047Y-68821348D01*
X116610102Y-68810121D01*
X116610100Y-68810120D01*
X116394050Y-68776867D01*
X116394048Y-68776867D01*
X116110028Y-68846367D01*
X115874223Y-69019266D01*
X115760821Y-69206146D01*
X115760819Y-69206151D01*
X115722534Y-69269243D01*
X115711307Y-69342184D01*
X110733125Y-83019629D01*
X110694838Y-83082725D01*
X110683611Y-83155670D01*
X110683610Y-83155672D01*
X110650357Y-83371722D01*
X109792382Y-83371722D01*
X110073829Y-82950508D01*
X110189000Y-82371502D01*
X110189000Y-81380497D01*
X110073829Y-80801492D01*
X109635105Y-80144895D01*
X108978507Y-79706171D01*
X108204000Y-79552112D01*
X107429492Y-79706171D01*
X106772895Y-80144895D01*
X106334171Y-80801493D01*
X106219000Y-81380498D01*
X105429000Y-81380498D01*
X105429000Y-79234255D01*
X105493221Y-78680246D01*
X105667618Y-78199572D01*
X105948527Y-77771617D01*
X106320349Y-77419434D01*
X106774575Y-77155353D01*
X107138627Y-77030881D01*
X107518308Y-76922837D01*
X107522865Y-76922402D01*
X107536271Y-76918380D01*
X107553483Y-76915949D01*
X107569770Y-76910249D01*
X107584518Y-76907614D01*
X107591633Y-76904829D01*
X107599127Y-76903330D01*
X107625805Y-76892247D01*
X107649792Y-76885421D01*
X107654955Y-76882775D01*
X107663535Y-76880201D01*
X107678877Y-76872061D01*
X107692131Y-76867422D01*
X107701874Y-76861674D01*
X108685861Y-76476482D01*
X108698821Y-76473685D01*
X108699296Y-76473479D01*
X108765783Y-76460254D01*
X108832149Y-76415909D01*
X108834661Y-76414821D01*
X108837661Y-76413521D01*
X108870292Y-76390944D01*
X109798045Y-75873327D01*
X109800385Y-75872554D01*
X109851701Y-75843475D01*
X109891384Y-75824345D01*
X109902808Y-75815740D01*
X109980634Y-75774448D01*
X110018491Y-75728607D01*
X110867756Y-75088931D01*
X110912537Y-75059009D01*
X110914535Y-75057011D01*
X110975905Y-75016005D01*
X111016818Y-74954774D01*
X111750486Y-74227376D01*
X111810905Y-74187005D01*
X111865940Y-74104640D01*
X111881134Y-74087166D01*
X111884998Y-74080409D01*
X111891984Y-74072025D01*
X111899960Y-74057369D01*
X112507443Y-73264741D01*
X112525905Y-73252405D01*
X112527412Y-73250150D01*
X112536256Y-73243908D01*
X112589756Y-73159238D01*
X112598905Y-73148679D01*
X112606159Y-73135939D01*
X112620405Y-73117351D01*
X112621894Y-73114327D01*
X112622714Y-73113261D01*
X112633648Y-73091156D01*
X112688354Y-73009282D01*
X112693766Y-72982075D01*
X113209788Y-72075784D01*
X113210250Y-72075013D01*
X113233373Y-72039515D01*
X113237167Y-72030043D01*
X113242833Y-72020578D01*
X113245201Y-72013948D01*
X113247251Y-72010436D01*
X113247643Y-72009299D01*
X113249539Y-72005969D01*
X113250231Y-72003888D01*
X113288942Y-71935980D01*
X113295414Y-71884641D01*
X113669768Y-70950133D01*
X113707354Y-70893882D01*
X113722200Y-70819247D01*
X113722210Y-70819222D01*
X113722289Y-70818798D01*
X113726036Y-70799959D01*
X113732447Y-70781369D01*
X113733451Y-70774017D01*
X113736729Y-70763855D01*
X113739729Y-70738042D01*
X113980810Y-69771162D01*
X113991354Y-69755382D01*
X114002768Y-69697999D01*
X114027023Y-69646656D01*
X114031572Y-69553195D01*
X114034000Y-69540987D01*
X114034000Y-69514737D01*
X114046513Y-69415476D01*
X114045182Y-69410618D01*
X114148614Y-68456012D01*
X114148729Y-68455655D01*
X114153662Y-68413203D01*
X114162000Y-68371287D01*
X114162000Y-68357448D01*
X114163705Y-68347455D01*
X114163247Y-68330724D01*
X114173962Y-68238522D01*
X114159314Y-68187003D01*
X114152921Y-67953343D01*
X177885800Y-67953343D01*
X177885800Y-68444657D01*
X178073818Y-68898571D01*
X178421229Y-69245982D01*
X178875143Y-69434000D01*
X179366457Y-69434000D01*
X179820371Y-69245982D01*
X180167782Y-68898571D01*
X180355800Y-68444657D01*
X180355800Y-67953343D01*
X180167782Y-67499429D01*
X179820371Y-67152018D01*
X179366457Y-66964000D01*
X178875143Y-66964000D01*
X178421229Y-67152018D01*
X178073818Y-67499429D01*
X177885800Y-67953343D01*
X114152921Y-67953343D01*
X114132808Y-67218376D01*
X114141962Y-67186178D01*
X114130460Y-67087205D01*
X114130997Y-67071051D01*
X114129000Y-67058919D01*
X114129000Y-67046612D01*
X114127965Y-67041409D01*
X114127744Y-67033334D01*
X114120500Y-67001493D01*
X114116729Y-66969045D01*
X114111579Y-66953079D01*
X113937000Y-65892469D01*
X113937000Y-65885712D01*
X113931154Y-65856320D01*
X113926924Y-65822768D01*
X113925654Y-65810487D01*
X113925203Y-65809027D01*
X113924729Y-65804945D01*
X113924644Y-65804681D01*
X113924173Y-65800946D01*
X113919752Y-65787683D01*
X113917483Y-65773898D01*
X113911696Y-65758498D01*
X113894354Y-65671317D01*
X113872687Y-65638891D01*
X113591116Y-64726682D01*
X113591152Y-64692070D01*
X113560315Y-64617402D01*
X113546354Y-64547217D01*
X113496456Y-64472539D01*
X113060429Y-63536494D01*
X113049354Y-63480817D01*
X113003635Y-63412393D01*
X112999168Y-63402495D01*
X112995838Y-63397833D01*
X112995695Y-63397526D01*
X112992647Y-63393365D01*
X112971873Y-63364281D01*
X112908650Y-63261406D01*
X112902364Y-63256851D01*
X112475790Y-62593943D01*
X116595600Y-62593943D01*
X116595600Y-63085257D01*
X116783618Y-63539171D01*
X117131029Y-63886582D01*
X117584943Y-64074600D01*
X118076257Y-64074600D01*
X118530171Y-63886582D01*
X118877582Y-63539171D01*
X118915797Y-63446910D01*
X122279695Y-63446910D01*
X122646640Y-63942343D01*
X124052171Y-64535736D01*
X125577793Y-64546087D01*
X126991246Y-63971819D01*
X127035360Y-63942343D01*
X127402305Y-63446910D01*
X171238195Y-63446910D01*
X171605140Y-63942343D01*
X173010671Y-64535736D01*
X174536293Y-64546087D01*
X175949746Y-63971819D01*
X175993860Y-63942343D01*
X176360805Y-63446910D01*
X173799500Y-60885605D01*
X171238195Y-63446910D01*
X127402305Y-63446910D01*
X124841000Y-60885605D01*
X122279695Y-63446910D01*
X118915797Y-63446910D01*
X119065600Y-63085257D01*
X119065600Y-63052957D01*
X119444571Y-62895982D01*
X119791982Y-62548571D01*
X119980000Y-62094657D01*
X119980000Y-61990515D01*
X120308171Y-61854582D01*
X120655582Y-61507171D01*
X120843600Y-61053257D01*
X120843600Y-60913194D01*
X121004960Y-60846357D01*
X121000913Y-61442793D01*
X121575181Y-62856246D01*
X121604657Y-62900360D01*
X122100090Y-63267305D01*
X124661395Y-60706000D01*
X125020605Y-60706000D01*
X127581910Y-63267305D01*
X128077343Y-62900360D01*
X128670736Y-61494829D01*
X128671089Y-61442793D01*
X169959413Y-61442793D01*
X170533681Y-62856246D01*
X170563157Y-62900360D01*
X171058590Y-63267305D01*
X173619895Y-60706000D01*
X173979105Y-60706000D01*
X176540410Y-63267305D01*
X177035843Y-62900360D01*
X177629236Y-61494829D01*
X177635877Y-60515939D01*
X181900490Y-60515939D01*
X182195202Y-60969670D01*
X182641116Y-61276081D01*
X183025272Y-61379015D01*
X183221873Y-61229433D01*
X183079037Y-60144486D01*
X181994090Y-60287322D01*
X181900490Y-60515939D01*
X177635877Y-60515939D01*
X177638622Y-60111333D01*
X183330864Y-60111333D01*
X183473700Y-61196280D01*
X183702317Y-61289880D01*
X184156048Y-60995168D01*
X184462459Y-60549254D01*
X184565393Y-60165098D01*
X184415811Y-59968497D01*
X183330864Y-60111333D01*
X177638622Y-60111333D01*
X177639587Y-59969207D01*
X177586643Y-59838894D01*
X181811355Y-59838894D01*
X181960937Y-60035495D01*
X183045884Y-59892659D01*
X182903048Y-58807712D01*
X182822073Y-58774559D01*
X183154875Y-58774559D01*
X183297711Y-59859506D01*
X184382658Y-59716670D01*
X184401122Y-59671571D01*
X184862470Y-59671571D01*
X184937759Y-59886562D01*
X184970002Y-59906425D01*
X185447602Y-59987388D01*
X185919831Y-59879418D01*
X186314795Y-59598953D01*
X186527862Y-59321279D01*
X185648826Y-58646772D01*
X184862470Y-59671571D01*
X184401122Y-59671571D01*
X184470298Y-59502610D01*
X184660958Y-59516945D01*
X185447314Y-58492146D01*
X184568279Y-57817639D01*
X184355212Y-58095312D01*
X184186528Y-58549408D01*
X184204459Y-59033491D01*
X184260660Y-59156124D01*
X184181546Y-59034322D01*
X183735632Y-58727911D01*
X183351476Y-58624977D01*
X183154875Y-58774559D01*
X182822073Y-58774559D01*
X182674431Y-58714112D01*
X182220700Y-59008824D01*
X181914289Y-59454738D01*
X181811355Y-59838894D01*
X177586643Y-59838894D01*
X177065319Y-58555754D01*
X177035843Y-58511640D01*
X176540410Y-58144695D01*
X173979105Y-60706000D01*
X173619895Y-60706000D01*
X171058590Y-58144695D01*
X170563157Y-58511640D01*
X169969764Y-59917171D01*
X169959413Y-61442793D01*
X128671089Y-61442793D01*
X128681087Y-59969207D01*
X128106819Y-58555754D01*
X128077343Y-58511640D01*
X127793410Y-58301343D01*
X157565800Y-58301343D01*
X157565800Y-58792657D01*
X157753818Y-59246571D01*
X158101229Y-59593982D01*
X158555143Y-59782000D01*
X159046457Y-59782000D01*
X159500371Y-59593982D01*
X159847782Y-59246571D01*
X160035800Y-58792657D01*
X160035800Y-58301343D01*
X159896519Y-57965090D01*
X171238195Y-57965090D01*
X173799500Y-60526395D01*
X176360805Y-57965090D01*
X175995694Y-57472132D01*
X177933723Y-57472132D01*
X178228435Y-57925863D01*
X178674349Y-58232274D01*
X179058505Y-58335208D01*
X179255106Y-58185626D01*
X179112270Y-57100679D01*
X178027323Y-57243515D01*
X177933723Y-57472132D01*
X175995694Y-57472132D01*
X175993860Y-57469657D01*
X175041359Y-57067526D01*
X179364097Y-57067526D01*
X179506933Y-58152473D01*
X179735550Y-58246073D01*
X180189281Y-57951361D01*
X180495692Y-57505447D01*
X180598626Y-57121291D01*
X180449044Y-56924690D01*
X179364097Y-57067526D01*
X175041359Y-57067526D01*
X174588329Y-56876264D01*
X173062707Y-56865913D01*
X171649254Y-57440181D01*
X171605140Y-57469657D01*
X171238195Y-57965090D01*
X159896519Y-57965090D01*
X159847782Y-57847429D01*
X159500371Y-57500018D01*
X159046457Y-57312000D01*
X158555143Y-57312000D01*
X158101229Y-57500018D01*
X157753818Y-57847429D01*
X157565800Y-58301343D01*
X127793410Y-58301343D01*
X127581910Y-58144695D01*
X125020605Y-60706000D01*
X124661395Y-60706000D01*
X124647253Y-60691858D01*
X124826858Y-60512253D01*
X124841000Y-60526395D01*
X127402305Y-57965090D01*
X127035360Y-57469657D01*
X125629829Y-56876264D01*
X124104207Y-56865913D01*
X122690754Y-57440181D01*
X122646640Y-57469657D01*
X122279696Y-57965088D01*
X122167682Y-57853074D01*
X122156708Y-57864048D01*
X122128782Y-57796629D01*
X121781371Y-57449218D01*
X121327457Y-57261200D01*
X120836143Y-57261200D01*
X120382229Y-57449218D01*
X120034818Y-57796629D01*
X119846800Y-58250543D01*
X119846800Y-58652574D01*
X119747229Y-58693818D01*
X119399818Y-59041229D01*
X119211800Y-59495143D01*
X119211800Y-59635206D01*
X118909029Y-59760618D01*
X118561618Y-60108029D01*
X118373600Y-60561943D01*
X118373600Y-60666085D01*
X118045429Y-60802018D01*
X117698018Y-61149429D01*
X117510000Y-61603343D01*
X117510000Y-61635643D01*
X117131029Y-61792618D01*
X116783618Y-62140029D01*
X116595600Y-62593943D01*
X112475790Y-62593943D01*
X112413433Y-62497040D01*
X112412354Y-62491617D01*
X112359634Y-62412715D01*
X112348714Y-62390639D01*
X112346567Y-62387848D01*
X112343159Y-62381276D01*
X112332393Y-62367818D01*
X112325406Y-62355377D01*
X112312797Y-62340650D01*
X112302916Y-62325294D01*
X112297417Y-62319602D01*
X112249905Y-62248495D01*
X112212504Y-62223504D01*
X111529728Y-61426006D01*
X111170964Y-60964118D01*
X110958440Y-60498962D01*
X110859524Y-59996812D01*
X110877505Y-59485321D01*
X110980062Y-59114143D01*
X113115800Y-59114143D01*
X113115800Y-59605457D01*
X113303818Y-60059371D01*
X113651229Y-60406782D01*
X114105143Y-60594800D01*
X114596457Y-60594800D01*
X115050371Y-60406782D01*
X115397782Y-60059371D01*
X115571289Y-59640489D01*
X115990171Y-59466982D01*
X116337582Y-59119571D01*
X116518529Y-58682729D01*
X116955371Y-58501782D01*
X117302782Y-58154371D01*
X117476289Y-57735489D01*
X117895171Y-57561982D01*
X118242582Y-57214571D01*
X118416089Y-56795689D01*
X118417542Y-56795087D01*
X177844588Y-56795087D01*
X177994170Y-56991688D01*
X179079117Y-56848852D01*
X178936281Y-55763905D01*
X178855306Y-55730752D01*
X179188108Y-55730752D01*
X179330944Y-56815699D01*
X180415891Y-56672863D01*
X180509491Y-56444246D01*
X180214779Y-55990515D01*
X179808892Y-55711609D01*
X179894129Y-55726058D01*
X180366358Y-55618088D01*
X180761322Y-55337623D01*
X180974389Y-55059949D01*
X180095353Y-54385442D01*
X179308997Y-55410241D01*
X179372191Y-55590694D01*
X179188108Y-55730752D01*
X178855306Y-55730752D01*
X178707664Y-55670305D01*
X178253933Y-55965017D01*
X177947522Y-56410931D01*
X177844588Y-56795087D01*
X118417542Y-56795087D01*
X118834971Y-56622182D01*
X119182382Y-56274771D01*
X119370400Y-55820857D01*
X119370400Y-55329543D01*
X119182382Y-54875629D01*
X118834971Y-54528218D01*
X118381057Y-54340200D01*
X117889743Y-54340200D01*
X117435829Y-54528218D01*
X117088418Y-54875629D01*
X116914911Y-55294511D01*
X116496029Y-55468018D01*
X116148618Y-55815429D01*
X115975111Y-56234311D01*
X115556229Y-56407818D01*
X115208818Y-56755229D01*
X115027871Y-57192071D01*
X114591029Y-57373018D01*
X114243618Y-57720429D01*
X114070111Y-58139311D01*
X113651229Y-58312818D01*
X113303818Y-58660229D01*
X113115800Y-59114143D01*
X110980062Y-59114143D01*
X111013860Y-58991821D01*
X111259768Y-58541067D01*
X111607881Y-58150752D01*
X113834746Y-56255476D01*
X116184240Y-54458903D01*
X116433580Y-54288078D01*
X178633055Y-54288078D01*
X178650986Y-54772161D01*
X178852802Y-55212532D01*
X178880334Y-55238536D01*
X179107485Y-55255615D01*
X179893841Y-54230816D01*
X179014806Y-53556309D01*
X178801739Y-53833982D01*
X178633055Y-54288078D01*
X116433580Y-54288078D01*
X118623435Y-52787794D01*
X121148545Y-51246767D01*
X123749769Y-49839837D01*
X126420976Y-48570965D01*
X127907898Y-47958000D01*
X131251560Y-47958000D01*
X131251560Y-49308000D01*
X131300843Y-49555765D01*
X131441191Y-49765809D01*
X131651235Y-49906157D01*
X131899000Y-49955440D01*
X133249000Y-49955440D01*
X133496765Y-49906157D01*
X133574000Y-49854550D01*
X133651235Y-49906157D01*
X133899000Y-49955440D01*
X135249000Y-49955440D01*
X135496765Y-49906157D01*
X135574000Y-49854550D01*
X135651235Y-49906157D01*
X135899000Y-49955440D01*
X137249000Y-49955440D01*
X137496765Y-49906157D01*
X137574000Y-49854550D01*
X137651235Y-49906157D01*
X137899000Y-49955440D01*
X139249000Y-49955440D01*
X139496765Y-49906157D01*
X139574000Y-49854550D01*
X139651235Y-49906157D01*
X139899000Y-49955440D01*
X141249000Y-49955440D01*
X141496765Y-49906157D01*
X141574000Y-49854550D01*
X141651235Y-49906157D01*
X141899000Y-49955440D01*
X143249000Y-49955440D01*
X143496765Y-49906157D01*
X143574000Y-49854550D01*
X143651235Y-49906157D01*
X143899000Y-49955440D01*
X145249000Y-49955440D01*
X145496765Y-49906157D01*
X145574000Y-49854550D01*
X145651235Y-49906157D01*
X145899000Y-49955440D01*
X147249000Y-49955440D01*
X147496765Y-49906157D01*
X147574000Y-49854550D01*
X147651235Y-49906157D01*
X147899000Y-49955440D01*
X149249000Y-49955440D01*
X149496765Y-49906157D01*
X149574000Y-49854550D01*
X149651235Y-49906157D01*
X149899000Y-49955440D01*
X151249000Y-49955440D01*
X151496765Y-49906157D01*
X151574000Y-49854550D01*
X151651235Y-49906157D01*
X151899000Y-49955440D01*
X153249000Y-49955440D01*
X153496765Y-49906157D01*
X153574000Y-49854550D01*
X153651235Y-49906157D01*
X153899000Y-49955440D01*
X155249000Y-49955440D01*
X155496765Y-49906157D01*
X155574000Y-49854550D01*
X155651235Y-49906157D01*
X155899000Y-49955440D01*
X157249000Y-49955440D01*
X157496765Y-49906157D01*
X157574000Y-49854550D01*
X157651235Y-49906157D01*
X157899000Y-49955440D01*
X159249000Y-49955440D01*
X159496765Y-49906157D01*
X159574000Y-49854550D01*
X159651235Y-49906157D01*
X159899000Y-49955440D01*
X161249000Y-49955440D01*
X161496765Y-49906157D01*
X161568318Y-49858346D01*
X161772690Y-49943000D01*
X162288250Y-49943000D01*
X162447000Y-49784250D01*
X162447000Y-48760000D01*
X162701000Y-48760000D01*
X162701000Y-49784250D01*
X162859750Y-49943000D01*
X163375310Y-49943000D01*
X163608699Y-49846327D01*
X163787327Y-49667698D01*
X163884000Y-49434309D01*
X163884000Y-48918750D01*
X163725250Y-48760000D01*
X162701000Y-48760000D01*
X162447000Y-48760000D01*
X162427000Y-48760000D01*
X162427000Y-48506000D01*
X162447000Y-48506000D01*
X162447000Y-47481750D01*
X162701000Y-47481750D01*
X162701000Y-48506000D01*
X163725250Y-48506000D01*
X163884000Y-48347250D01*
X163884000Y-47831691D01*
X163787327Y-47598302D01*
X163608699Y-47419673D01*
X163375310Y-47323000D01*
X162859750Y-47323000D01*
X162701000Y-47481750D01*
X162447000Y-47481750D01*
X162288250Y-47323000D01*
X161772690Y-47323000D01*
X161568318Y-47407654D01*
X161496765Y-47359843D01*
X161249000Y-47310560D01*
X159899000Y-47310560D01*
X159651235Y-47359843D01*
X159574000Y-47411450D01*
X159496765Y-47359843D01*
X159249000Y-47310560D01*
X157899000Y-47310560D01*
X157651235Y-47359843D01*
X157574000Y-47411450D01*
X157496765Y-47359843D01*
X157249000Y-47310560D01*
X155899000Y-47310560D01*
X155651235Y-47359843D01*
X155574000Y-47411450D01*
X155496765Y-47359843D01*
X155249000Y-47310560D01*
X153899000Y-47310560D01*
X153651235Y-47359843D01*
X153574000Y-47411450D01*
X153496765Y-47359843D01*
X153249000Y-47310560D01*
X151899000Y-47310560D01*
X151651235Y-47359843D01*
X151574000Y-47411450D01*
X151496765Y-47359843D01*
X151249000Y-47310560D01*
X149899000Y-47310560D01*
X149651235Y-47359843D01*
X149574000Y-47411450D01*
X149496765Y-47359843D01*
X149249000Y-47310560D01*
X147899000Y-47310560D01*
X147651235Y-47359843D01*
X147574000Y-47411450D01*
X147496765Y-47359843D01*
X147249000Y-47310560D01*
X145899000Y-47310560D01*
X145651235Y-47359843D01*
X145574000Y-47411450D01*
X145496765Y-47359843D01*
X145249000Y-47310560D01*
X143899000Y-47310560D01*
X143651235Y-47359843D01*
X143574000Y-47411450D01*
X143496765Y-47359843D01*
X143249000Y-47310560D01*
X141899000Y-47310560D01*
X141651235Y-47359843D01*
X141574000Y-47411450D01*
X141496765Y-47359843D01*
X141249000Y-47310560D01*
X139899000Y-47310560D01*
X139651235Y-47359843D01*
X139574000Y-47411450D01*
X139496765Y-47359843D01*
X139249000Y-47310560D01*
X137899000Y-47310560D01*
X137651235Y-47359843D01*
X137574000Y-47411450D01*
X137496765Y-47359843D01*
X137249000Y-47310560D01*
X135899000Y-47310560D01*
X135651235Y-47359843D01*
X135574000Y-47411450D01*
X135496765Y-47359843D01*
X135249000Y-47310560D01*
X133899000Y-47310560D01*
X133651235Y-47359843D01*
X133574000Y-47411450D01*
X133496765Y-47359843D01*
X133249000Y-47310560D01*
X131899000Y-47310560D01*
X131651235Y-47359843D01*
X131441191Y-47500191D01*
X131300843Y-47710235D01*
X131251560Y-47958000D01*
X127907898Y-47958000D01*
X129155381Y-47443741D01*
X131944099Y-46461126D01*
X134781111Y-45625916D01*
X137658668Y-44940237D01*
X140566831Y-44406087D01*
X143499651Y-44024849D01*
X146448263Y-43797706D01*
X149404774Y-43725151D01*
X152361315Y-43807480D01*
G04 #@! TD*
M02*
