G04 #@! TF.GenerationSoftware,KiCad,Pcbnew,6.0.0-rc1-unknown-3eb3db0~66~ubuntu18.04.1*
G04 #@! TF.CreationDate,2018-08-10T16:09:31-07:00*
G04 #@! TF.ProjectId,main_board_onion,6D61696E5F626F6172645F6F6E696F6E,rev?*
G04 #@! TF.SameCoordinates,Original*
G04 #@! TF.FileFunction,Profile,NP*
%FSLAX46Y46*%
G04 Gerber Fmt 4.6, Leading zero omitted, Abs format (unit mm)*
G04 Created by KiCad (PCBNEW 6.0.0-rc1-unknown-3eb3db0~66~ubuntu18.04.1) date Fri Aug 10 16:09:31 2018*
%MOMM*%
%LPD*%
G01*
G04 APERTURE LIST*
%ADD10C,0.200000*%
G04 APERTURE END LIST*
D10*
X116426738Y-69525552D02*
X131649758Y-75066278D01*
X111399042Y-83339034D02*
X116426738Y-69525552D01*
X126622062Y-88879760D02*
X111399042Y-83339034D01*
X131649758Y-75066278D02*
X126622062Y-88879760D01*
X131718000Y-45761500D02*
X128893000Y-46756900D01*
X192747000Y-104648200D02*
X193243000Y-104179200D01*
X185210000Y-125837200D02*
X187497000Y-123905200D01*
X172429000Y-133571200D02*
X175141000Y-132297200D01*
X155110000Y-138109200D02*
X158083000Y-137734200D01*
X104694000Y-79191800D02*
X104694000Y-102285200D01*
X164683000Y-89128200D02*
X164447000Y-87583200D01*
X143977000Y-76190100D02*
X142539000Y-76803400D01*
X157408000Y-103849200D02*
X158696000Y-102963200D01*
X189034000Y-106314200D02*
X189036000Y-106312200D01*
X189033000Y-106314200D02*
X189034000Y-106314200D01*
X188101000Y-107021200D02*
X189033000Y-106314200D01*
X188099000Y-107023200D02*
X188101000Y-107021200D01*
X188096000Y-107025200D02*
X188099000Y-107023200D01*
X193705000Y-78058800D02*
X193372000Y-77462300D01*
X193892000Y-78716800D02*
X193705000Y-78058800D01*
X193930000Y-79190900D02*
X193892000Y-78716800D01*
X193930000Y-102284200D02*
X193930000Y-79190900D01*
X193851000Y-102965200D02*
X193930000Y-102284200D01*
X161043000Y-80635300D02*
X159967000Y-79501300D01*
X161999000Y-81872300D02*
X161043000Y-80635300D01*
X162825000Y-83199500D02*
X161999000Y-81872300D01*
X163513000Y-84603400D02*
X162825000Y-83199500D01*
X164055000Y-86069200D02*
X163513000Y-84603400D01*
X111281000Y-73657100D02*
X111279000Y-73659500D01*
X111281000Y-73656700D02*
X111281000Y-73657100D01*
X111993000Y-72727700D02*
X111281000Y-73656700D01*
X111994000Y-72725100D02*
X111993000Y-72727700D01*
X111996000Y-72722500D02*
X111994000Y-72725100D01*
X188276000Y-122797200D02*
X188454000Y-122137200D01*
X187950000Y-123397200D02*
X188276000Y-122797200D01*
X187497000Y-123905200D02*
X187950000Y-123397200D01*
X182823000Y-127648200D02*
X185210000Y-125837200D01*
X190062000Y-105735200D02*
X190064000Y-105733200D01*
X190059000Y-105736200D02*
X190062000Y-105735200D01*
X190058000Y-105736200D02*
X190059000Y-105736200D01*
X189039000Y-106310200D02*
X190058000Y-105736200D01*
X189036000Y-106312200D02*
X189039000Y-106310200D01*
X134592000Y-44915400D02*
X131718000Y-45761500D01*
X137507000Y-44220800D02*
X134592000Y-44915400D01*
X140453000Y-43679700D02*
X137507000Y-44220800D01*
X143424000Y-43293500D02*
X140453000Y-43679700D01*
X186557000Y-108790200D02*
X187264000Y-107858200D01*
X186555000Y-108792200D02*
X186557000Y-108790200D01*
X186553000Y-108795200D02*
X186555000Y-108792200D01*
X186553000Y-108795200D02*
X186553000Y-108795200D01*
X185979000Y-109815200D02*
X186553000Y-108795200D01*
X111127000Y-123905200D02*
X113270000Y-125721200D01*
X110671000Y-123393200D02*
X111127000Y-123905200D01*
X110347000Y-122792200D02*
X110671000Y-123393200D01*
X110169000Y-122133200D02*
X110347000Y-122792200D01*
X110148000Y-121450200D02*
X110169000Y-122133200D01*
X109501000Y-75197400D02*
X108479000Y-75767600D01*
X109504000Y-75195700D02*
X109501000Y-75197400D01*
X109506000Y-75194000D02*
X109504000Y-75195700D01*
X109507000Y-75193700D02*
X109506000Y-75194000D01*
X110441000Y-74490200D02*
X109507000Y-75193700D01*
X164762000Y-90690200D02*
X164683000Y-89128200D01*
X164762000Y-90797200D02*
X164762000Y-90690200D01*
X164672000Y-92358200D02*
X164762000Y-90797200D01*
X164424000Y-93902200D02*
X164672000Y-92358200D01*
X164022000Y-95413200D02*
X164424000Y-93902200D01*
X163470000Y-96875200D02*
X164022000Y-95413200D01*
X162772000Y-98274200D02*
X163470000Y-96875200D01*
X161937000Y-99595200D02*
X162772000Y-98274200D01*
X160972000Y-100826200D02*
X161937000Y-99595200D01*
X159888000Y-101952200D02*
X160972000Y-100826200D01*
X158696000Y-102963200D02*
X159888000Y-101952200D01*
X156036000Y-104600200D02*
X157408000Y-103849200D01*
X154596000Y-105208200D02*
X156036000Y-104600200D01*
X153102000Y-105668200D02*
X154596000Y-105208200D01*
X151569000Y-105974200D02*
X153102000Y-105668200D01*
X113427000Y-68295700D02*
X113427000Y-68298900D01*
X113427000Y-68295200D02*
X113427000Y-68295700D01*
X113395000Y-67125800D02*
X113427000Y-68295200D01*
X113394000Y-67122700D02*
X113395000Y-67125800D01*
X113394000Y-67119500D02*
X113394000Y-67122700D01*
X185323000Y-66437400D02*
X185323000Y-66436900D01*
X185197000Y-67600500D02*
X185323000Y-66437400D01*
X185197000Y-67603600D02*
X185197000Y-67600500D01*
X185197000Y-67606700D02*
X185197000Y-67603600D01*
X185197000Y-67607300D02*
X185197000Y-67606700D01*
X185543000Y-110914200D02*
X185544000Y-110911200D01*
X185543000Y-110915200D02*
X185543000Y-110914200D01*
X185264000Y-112051200D02*
X185543000Y-110915200D01*
X185263000Y-112054200D02*
X185264000Y-112051200D01*
X185262000Y-112057200D02*
X185263000Y-112054200D01*
X142442000Y-104528200D02*
X143876000Y-105152200D01*
X141079000Y-103763200D02*
X142442000Y-104528200D01*
X139800000Y-102864200D02*
X141079000Y-103763200D01*
X138618000Y-101841200D02*
X139800000Y-102864200D01*
X137546000Y-100703200D02*
X138618000Y-101841200D01*
X187665000Y-61889800D02*
X188072000Y-61371000D01*
X187340000Y-62239900D02*
X187665000Y-61889800D01*
X187339000Y-62241600D02*
X187340000Y-62239900D01*
X187337000Y-62243200D02*
X187339000Y-62241600D01*
X187337000Y-62243600D02*
X187337000Y-62243200D01*
X147002000Y-75413500D02*
X145470000Y-75725200D01*
X148557000Y-75258200D02*
X147002000Y-75413500D01*
X150121000Y-75261000D02*
X148557000Y-75258200D01*
X151676000Y-75421700D02*
X150121000Y-75261000D01*
X153207000Y-75738700D02*
X151676000Y-75421700D01*
X105725000Y-104527200D02*
X106292000Y-104908200D01*
X105261000Y-104025200D02*
X105725000Y-104527200D01*
X104925000Y-103430200D02*
X105261000Y-104025200D01*
X104734000Y-102773200D02*
X104925000Y-103430200D01*
X104694000Y-102285200D02*
X104734000Y-102773200D01*
X185176000Y-114397200D02*
X185140000Y-113228200D01*
X185177000Y-114400200D02*
X185176000Y-114397200D01*
X185177000Y-114403200D02*
X185177000Y-114400200D01*
X185177000Y-114404200D02*
X185177000Y-114403200D01*
X185372000Y-115557200D02*
X185177000Y-114404200D01*
X113394000Y-67119000D02*
X113394000Y-67119500D01*
X113204000Y-65964700D02*
X113394000Y-67119000D01*
X113203000Y-65961700D02*
X113204000Y-65964700D01*
X113202000Y-65958600D02*
X113203000Y-65961700D01*
X113202000Y-65958100D02*
X113202000Y-65958600D01*
X164447000Y-87583200D02*
X164055000Y-86069200D01*
X136595000Y-99463200D02*
X137546000Y-100703200D01*
X135773000Y-98133200D02*
X136595000Y-99463200D01*
X135090000Y-96726200D02*
X135773000Y-98133200D01*
X134553000Y-95258200D02*
X135090000Y-96726200D01*
X134167000Y-93743200D02*
X134553000Y-95258200D01*
X167085000Y-45819800D02*
X164214000Y-44964200D01*
X169908000Y-46824500D02*
X167085000Y-45819800D01*
X172674000Y-47975600D02*
X169908000Y-46824500D01*
X175376000Y-49269800D02*
X172674000Y-47975600D01*
X178006000Y-50703700D02*
X175376000Y-49269800D01*
X133936000Y-92197200D02*
X134167000Y-93743200D01*
X133862000Y-90636200D02*
X133936000Y-92197200D01*
X133947000Y-89075200D02*
X133862000Y-90636200D01*
X134189000Y-87530200D02*
X133947000Y-89075200D01*
X134585000Y-86018200D02*
X134189000Y-87530200D01*
X188554000Y-74793200D02*
X188551000Y-74791300D01*
X188556000Y-74795200D02*
X188554000Y-74793200D01*
X188557000Y-74795500D02*
X188556000Y-74795200D01*
X189529000Y-75445800D02*
X188557000Y-74795500D01*
X189532000Y-75447400D02*
X189529000Y-75445800D01*
X135133000Y-84553900D02*
X134585000Y-86018200D01*
X135825000Y-83152400D02*
X135133000Y-84553900D01*
X136656000Y-81828000D02*
X135825000Y-83152400D01*
X137617000Y-80594500D02*
X136656000Y-81828000D01*
X138697000Y-79464200D02*
X137617000Y-80594500D01*
X185373000Y-115560200D02*
X185372000Y-115557200D01*
X185373000Y-115563200D02*
X185373000Y-115560200D01*
X185373000Y-115564200D02*
X185373000Y-115563200D01*
X185723000Y-116680200D02*
X185373000Y-115564200D01*
X185724000Y-116683200D02*
X185723000Y-116680200D01*
X111372000Y-119214200D02*
X111370000Y-119215200D01*
X111372000Y-119213200D02*
X111372000Y-119214200D01*
X112078000Y-118280200D02*
X111372000Y-119213200D01*
X112079000Y-118277200D02*
X112078000Y-118280200D01*
X112081000Y-118275200D02*
X112079000Y-118277200D01*
X110285000Y-120780200D02*
X110148000Y-121450200D01*
X110571000Y-120160200D02*
X110285000Y-120780200D01*
X110992000Y-119623200D02*
X110571000Y-120160200D01*
X111369000Y-119217200D02*
X110992000Y-119623200D01*
X111370000Y-119215200D02*
X111369000Y-119217200D01*
X188096000Y-107026200D02*
X188096000Y-107025200D01*
X187269000Y-107853200D02*
X188096000Y-107026200D01*
X187267000Y-107855200D02*
X187269000Y-107853200D01*
X187265000Y-107858200D02*
X187267000Y-107855200D01*
X187264000Y-107858200D02*
X187265000Y-107858200D01*
X123417000Y-49184200D02*
X120782000Y-50609400D01*
X126123000Y-47898800D02*
X123417000Y-49184200D01*
X128893000Y-46756900D02*
X126123000Y-47898800D01*
X107384000Y-76196800D02*
X107383000Y-76197000D01*
X108473000Y-75770500D02*
X107384000Y-76196800D01*
X108476000Y-75769200D02*
X108473000Y-75770500D01*
X108479000Y-75767900D02*
X108476000Y-75769200D01*
X108479000Y-75767600D02*
X108479000Y-75767900D01*
X139885000Y-78448900D02*
X138697000Y-79464200D01*
X141171000Y-77559000D02*
X139885000Y-78448900D01*
X142539000Y-76803400D02*
X141171000Y-77559000D01*
X145470000Y-75725200D02*
X143977000Y-76190100D01*
X108051000Y-105511200D02*
X108054000Y-105512200D01*
X108048000Y-105510200D02*
X108051000Y-105511200D01*
X108047000Y-105509200D02*
X108048000Y-105510200D01*
X106935000Y-105150200D02*
X108047000Y-105509200D01*
X106292000Y-104908200D02*
X106935000Y-105150200D01*
X186227000Y-117751200D02*
X186226000Y-117751200D01*
X186864000Y-118732200D02*
X186227000Y-117751200D01*
X186866000Y-118735200D02*
X186864000Y-118732200D01*
X186867000Y-118737200D02*
X186866000Y-118735200D01*
X186868000Y-118738200D02*
X186867000Y-118737200D01*
X110974000Y-107444200D02*
X110975000Y-107444200D01*
X110095000Y-106672200D02*
X110974000Y-107444200D01*
X110093000Y-106670200D02*
X110095000Y-106672200D01*
X110090000Y-106668200D02*
X110093000Y-106670200D01*
X110090000Y-106668200D02*
X110090000Y-106668200D01*
X186271000Y-72133800D02*
X186271000Y-72133400D01*
X186905000Y-73116900D02*
X186271000Y-72133800D01*
X186907000Y-73119400D02*
X186905000Y-73116900D01*
X186909000Y-73121900D02*
X186907000Y-73119400D01*
X186910000Y-73122300D02*
X186909000Y-73121900D01*
X109114000Y-106022200D02*
X110090000Y-106668200D01*
X109111000Y-106021200D02*
X109114000Y-106022200D01*
X109109000Y-106019200D02*
X109111000Y-106021200D01*
X109108000Y-106019200D02*
X109109000Y-106019200D01*
X108054000Y-105512200D02*
X109108000Y-106019200D01*
X193618000Y-103607200D02*
X193851000Y-102965200D01*
X193243000Y-104179200D02*
X193618000Y-103607200D01*
X192156000Y-104992200D02*
X192747000Y-104648200D01*
X191691000Y-105150200D02*
X192156000Y-104992200D01*
X110122000Y-60055700D02*
X110254000Y-60725800D01*
X110146000Y-59373000D02*
X110122000Y-60055700D01*
X110328000Y-58714300D02*
X110146000Y-59373000D01*
X110655000Y-58114900D02*
X110328000Y-58714300D01*
X111093000Y-57623800D02*
X110655000Y-58114900D01*
X137411000Y-137167200D02*
X140358000Y-137706200D01*
X134497000Y-136474200D02*
X137411000Y-137167200D01*
X131622000Y-135630200D02*
X134497000Y-136474200D01*
X128796000Y-134637200D02*
X131622000Y-135630200D01*
X126025000Y-133497200D02*
X128796000Y-134637200D01*
X186044000Y-64199200D02*
X186046000Y-64196400D01*
X186043000Y-64202100D02*
X186044000Y-64199200D01*
X186043000Y-64202600D02*
X186043000Y-64202100D01*
X185609000Y-65289000D02*
X186043000Y-64202600D01*
X185608000Y-65291900D02*
X185609000Y-65289000D01*
X180558000Y-52273200D02*
X178006000Y-50703700D01*
X183024000Y-53974200D02*
X180558000Y-52273200D01*
X185398000Y-55802000D02*
X183024000Y-53974200D01*
X187531000Y-57623700D02*
X185398000Y-55802000D01*
X187985000Y-58137500D02*
X187531000Y-57623700D01*
X111996000Y-72722100D02*
X111996000Y-72722500D01*
X112575000Y-71705200D02*
X111996000Y-72722100D01*
X112576000Y-71702400D02*
X112575000Y-71705200D01*
X112577000Y-71699500D02*
X112576000Y-71702400D01*
X112578000Y-71699000D02*
X112577000Y-71699500D01*
X185773000Y-71067400D02*
X185772000Y-71064400D01*
X185773000Y-71067800D02*
X185773000Y-71067400D01*
X186268000Y-72127900D02*
X185773000Y-71067800D01*
X186269000Y-72130600D02*
X186268000Y-72127900D01*
X186271000Y-72133400D02*
X186269000Y-72130600D01*
X113485000Y-113840200D02*
X113485000Y-113843200D01*
X113485000Y-113839200D02*
X113485000Y-113840200D01*
X113446000Y-112670200D02*
X113485000Y-113839200D01*
X113446000Y-112667200D02*
X113446000Y-112670200D01*
X113445000Y-112664200D02*
X113446000Y-112667200D01*
X187671000Y-74010200D02*
X186910000Y-73122300D01*
X187673000Y-74012400D02*
X187671000Y-74010200D01*
X187676000Y-74014700D02*
X187673000Y-74012400D01*
X187676000Y-74015000D02*
X187676000Y-74014700D01*
X188551000Y-74791300D02*
X187676000Y-74015000D01*
X185423000Y-69940600D02*
X185423000Y-69937500D01*
X185424000Y-69943600D02*
X185423000Y-69940600D01*
X185424000Y-69944100D02*
X185424000Y-69943600D01*
X185771000Y-71061500D02*
X185424000Y-69944100D01*
X185772000Y-71064400D02*
X185771000Y-71061500D01*
X152122000Y-138327200D02*
X155110000Y-138109200D01*
X149312000Y-138390200D02*
X152122000Y-138327200D01*
X146317000Y-138318200D02*
X149312000Y-138390200D01*
X143330000Y-138090200D02*
X146317000Y-138318200D01*
X140358000Y-137706200D02*
X143330000Y-138090200D01*
X166826000Y-135687200D02*
X169655000Y-134702200D01*
X163948000Y-136522200D02*
X166826000Y-135687200D01*
X161031000Y-137205200D02*
X163948000Y-136522200D01*
X158083000Y-137734200D02*
X161031000Y-137205200D01*
X180345000Y-129331200D02*
X182823000Y-127648200D01*
X177781000Y-130882200D02*
X180345000Y-129331200D01*
X175141000Y-132297200D02*
X177781000Y-130882200D01*
X169655000Y-134702200D02*
X172429000Y-133571200D01*
X113445000Y-112663200D02*
X113445000Y-112664200D01*
X113248000Y-111510200D02*
X113445000Y-112663200D01*
X113247000Y-111507200D02*
X113248000Y-111510200D01*
X113247000Y-111504200D02*
X113247000Y-111507200D01*
X113246000Y-111503200D02*
X113247000Y-111504200D01*
X189534000Y-75449000D02*
X189532000Y-75447400D01*
X189535000Y-75449200D02*
X189534000Y-75449000D01*
X190587000Y-75961600D02*
X189535000Y-75449200D01*
X190590000Y-75962700D02*
X190587000Y-75961600D01*
X190592000Y-75963900D02*
X190590000Y-75962700D01*
X185607000Y-65294900D02*
X185608000Y-65291900D01*
X185607000Y-65295400D02*
X185607000Y-65294900D01*
X185324000Y-66430700D02*
X185607000Y-65295400D01*
X185324000Y-66433700D02*
X185324000Y-66430700D01*
X185323000Y-66436900D02*
X185324000Y-66433700D01*
X185262000Y-112058200D02*
X185262000Y-112057200D01*
X185140000Y-113221200D02*
X185262000Y-112058200D01*
X185140000Y-113224200D02*
X185140000Y-113221200D01*
X185140000Y-113227200D02*
X185140000Y-113224200D01*
X185140000Y-113228200D02*
X185140000Y-113227200D01*
X113364000Y-115013200D02*
X113364000Y-115016200D01*
X113365000Y-115010200D02*
X113364000Y-115013200D01*
X113365000Y-115009200D02*
X113365000Y-115010200D01*
X113485000Y-113846200D02*
X113365000Y-115009200D01*
X113485000Y-113843200D02*
X113485000Y-113846200D01*
X111720000Y-62778800D02*
X111722000Y-62781400D01*
X111720000Y-62778400D02*
X111720000Y-62778800D01*
X110960000Y-61890700D02*
X111720000Y-62778400D01*
X110538000Y-61347400D02*
X110960000Y-61890700D01*
X110254000Y-60725800D02*
X110538000Y-61347400D01*
X188307000Y-58739900D02*
X187985000Y-58137500D01*
X188482000Y-59400300D02*
X188307000Y-58739900D01*
X188500000Y-60083200D02*
X188482000Y-59400300D01*
X188361000Y-60752000D02*
X188500000Y-60083200D01*
X188072000Y-61371000D02*
X188361000Y-60752000D01*
X113013000Y-70613100D02*
X112578000Y-71699000D01*
X113014000Y-70610200D02*
X113013000Y-70613100D01*
X113015000Y-70607100D02*
X113014000Y-70610200D01*
X113015000Y-70606600D02*
X113015000Y-70607100D01*
X113298000Y-69471600D02*
X113015000Y-70606600D01*
X146411000Y-43063400D02*
X143424000Y-43293500D01*
X154698000Y-76208800D02*
X153207000Y-75738700D01*
X156133000Y-76827200D02*
X154698000Y-76208800D01*
X157499000Y-77587500D02*
X156133000Y-76827200D01*
X158782000Y-78481900D02*
X157499000Y-77587500D01*
X159967000Y-79501300D02*
X158782000Y-78481900D01*
X190593000Y-75964100D02*
X190592000Y-75963900D01*
X191703000Y-76328600D02*
X190593000Y-75964100D01*
X192346000Y-76574200D02*
X191703000Y-76328600D01*
X192911000Y-76958400D02*
X192346000Y-76574200D01*
X193372000Y-77462300D02*
X192911000Y-76958400D01*
X185977000Y-109817200D02*
X185979000Y-109815200D01*
X185976000Y-109820200D02*
X185977000Y-109817200D01*
X185976000Y-109821200D02*
X185976000Y-109820200D01*
X185545000Y-110908200D02*
X185976000Y-109821200D01*
X185544000Y-110911200D02*
X185545000Y-110908200D01*
X106468000Y-76483400D02*
X105877000Y-76827000D01*
X106919000Y-76329200D02*
X106468000Y-76483400D01*
X107379000Y-76198300D02*
X106919000Y-76329200D01*
X107381000Y-76197600D02*
X107379000Y-76198300D01*
X107383000Y-76197000D02*
X107381000Y-76197600D01*
X152401000Y-43073300D02*
X149406000Y-42989900D01*
X155387000Y-43313200D02*
X152401000Y-43073300D01*
X158357000Y-43709200D02*
X155387000Y-43313200D01*
X161302000Y-44260000D02*
X158357000Y-43709200D01*
X164214000Y-44964200D02*
X161302000Y-44260000D01*
X104773000Y-78510300D02*
X104694000Y-79191800D01*
X105006000Y-77868100D02*
X104773000Y-78510300D01*
X105381000Y-77296800D02*
X105006000Y-77868100D01*
X105877000Y-76827000D02*
X105381000Y-77296800D01*
X113085000Y-116159200D02*
X112657000Y-117248200D01*
X113086000Y-116156200D02*
X113085000Y-116159200D01*
X113087000Y-116153200D02*
X113086000Y-116156200D01*
X113087000Y-116153200D02*
X113087000Y-116153200D01*
X113364000Y-115016200D02*
X113087000Y-116153200D01*
X187631000Y-119623200D02*
X186868000Y-118738200D01*
X188055000Y-120164200D02*
X187631000Y-119623200D01*
X188341000Y-120785200D02*
X188055000Y-120164200D01*
X188477000Y-121454200D02*
X188341000Y-120785200D01*
X188454000Y-122137200D02*
X188477000Y-121454200D01*
X185725000Y-116686200D02*
X185724000Y-116683200D01*
X185726000Y-116687200D02*
X185725000Y-116686200D01*
X186223000Y-117745200D02*
X185726000Y-116687200D01*
X186225000Y-117748200D02*
X186223000Y-117745200D01*
X186226000Y-117751200D02*
X186225000Y-117748200D01*
X111745000Y-108333200D02*
X111747000Y-108336200D01*
X111745000Y-108333200D02*
X111745000Y-108333200D01*
X110979000Y-107449200D02*
X111745000Y-108333200D01*
X110977000Y-107446200D02*
X110979000Y-107449200D01*
X110975000Y-107444200D02*
X110977000Y-107446200D01*
X113299000Y-69468600D02*
X113298000Y-69471600D01*
X113299000Y-69465500D02*
X113299000Y-69468600D01*
X113300000Y-69464900D02*
X113299000Y-69465500D01*
X113426000Y-68302000D02*
X113300000Y-69464900D01*
X113427000Y-68298900D02*
X113426000Y-68302000D01*
X185230000Y-68776700D02*
X185197000Y-67607300D01*
X185231000Y-68779800D02*
X185230000Y-68776700D01*
X185231000Y-68782900D02*
X185231000Y-68779800D01*
X185231000Y-68783400D02*
X185231000Y-68782900D01*
X185423000Y-69937500D02*
X185231000Y-68783400D01*
X150013000Y-106124200D02*
X151569000Y-105974200D01*
X148450000Y-106116200D02*
X150013000Y-106124200D01*
X146895000Y-105949200D02*
X148450000Y-106116200D01*
X145365000Y-105627200D02*
X146895000Y-105949200D01*
X143876000Y-105152200D02*
X145365000Y-105627200D01*
X191157000Y-105301200D02*
X191691000Y-105150200D01*
X191155000Y-105302200D02*
X191157000Y-105301200D01*
X191153000Y-105303200D02*
X191155000Y-105302200D01*
X191152000Y-105303200D02*
X191153000Y-105303200D01*
X190064000Y-105733200D02*
X191152000Y-105303200D01*
X112359000Y-63770800D02*
X112360000Y-63773500D01*
X112357000Y-63768000D02*
X112359000Y-63770800D01*
X112357000Y-63767600D02*
X112357000Y-63768000D01*
X111724000Y-62783900D02*
X112357000Y-63767600D01*
X111722000Y-62781400D02*
X111724000Y-62783900D01*
X123318000Y-132213200D02*
X126025000Y-133497200D01*
X120682000Y-130790200D02*
X123318000Y-132213200D01*
X118124000Y-129230200D02*
X120682000Y-130790200D01*
X115651000Y-127539200D02*
X118124000Y-129230200D01*
X113270000Y-125721200D02*
X115651000Y-127539200D01*
X113373000Y-55683300D02*
X111093000Y-57623800D01*
X115753000Y-53863400D02*
X113373000Y-55683300D01*
X118224000Y-52170500D02*
X115753000Y-53863400D01*
X120782000Y-50609400D02*
X118224000Y-52170500D01*
X186627000Y-63173300D02*
X187337000Y-62243600D01*
X186625000Y-63175900D02*
X186627000Y-63173300D01*
X186623000Y-63178500D02*
X186625000Y-63175900D01*
X186623000Y-63179000D02*
X186623000Y-63178500D01*
X186046000Y-64196400D02*
X186623000Y-63179000D01*
X112081000Y-118274200D02*
X112081000Y-118275200D01*
X112654000Y-117254200D02*
X112081000Y-118274200D01*
X112655000Y-117251200D02*
X112654000Y-117254200D01*
X112656000Y-117248200D02*
X112655000Y-117251200D01*
X112657000Y-117248200D02*
X112656000Y-117248200D01*
X112390000Y-109321200D02*
X112392000Y-109324200D01*
X112389000Y-109318200D02*
X112390000Y-109321200D01*
X112388000Y-109318200D02*
X112389000Y-109318200D01*
X111749000Y-108338200D02*
X112388000Y-109318200D01*
X111747000Y-108336200D02*
X111749000Y-108338200D01*
X110444000Y-74488100D02*
X110441000Y-74490200D01*
X110446000Y-74486100D02*
X110444000Y-74488100D01*
X110446000Y-74485700D02*
X110446000Y-74486100D01*
X111277000Y-73661800D02*
X110446000Y-74485700D01*
X111279000Y-73659500D02*
X111277000Y-73661800D01*
X112857000Y-64840400D02*
X113202000Y-65958100D01*
X112856000Y-64837500D02*
X112857000Y-64840400D01*
X112854000Y-64834500D02*
X112856000Y-64837500D01*
X112854000Y-64834000D02*
X112854000Y-64834500D01*
X112360000Y-63773500D02*
X112854000Y-64834000D01*
X149406000Y-42989900D02*
X146411000Y-43063400D01*
X112894000Y-110388200D02*
X113246000Y-111503200D01*
X112893000Y-110385200D02*
X112894000Y-110388200D01*
X112892000Y-110382200D02*
X112893000Y-110385200D01*
X112892000Y-110381200D02*
X112892000Y-110382200D01*
X112392000Y-109324200D02*
X112892000Y-110381200D01*
M02*
