G04 #@! TF.GenerationSoftware,KiCad,Pcbnew,6.0.0-rc1-unknown-3eb3db0~66~ubuntu18.04.1*
G04 #@! TF.CreationDate,2018-08-09T16:50:38-07:00*
G04 #@! TF.ProjectId,main_board_onion,6D61696E5F626F6172645F6F6E696F6E,rev?*
G04 #@! TF.SameCoordinates,Original*
G04 #@! TF.FileFunction,Legend,Top*
G04 #@! TF.FilePolarity,Positive*
%FSLAX46Y46*%
G04 Gerber Fmt 4.6, Leading zero omitted, Abs format (unit mm)*
G04 Created by KiCad (PCBNEW 6.0.0-rc1-unknown-3eb3db0~66~ubuntu18.04.1) date Thu Aug  9 16:50:38 2018*
%MOMM*%
%LPD*%
G01*
G04 APERTURE LIST*
%ADD10C,0.120000*%
%ADD11C,0.150000*%
G04 APERTURE END LIST*
D10*
G04 #@! TO.C,U5*
X152085800Y-63298600D02*
X151610800Y-63298600D01*
X151610800Y-63298600D02*
X151610800Y-62823600D01*
X155355800Y-59078600D02*
X155830800Y-59078600D01*
X155830800Y-59078600D02*
X155830800Y-59553600D01*
X152085800Y-59078600D02*
X151610800Y-59078600D01*
X151610800Y-59078600D02*
X151610800Y-59553600D01*
X155355800Y-63298600D02*
X155830800Y-63298600D01*
D11*
G04 #@! TO.C,J16*
X116442021Y-69591238D02*
X131571073Y-75097762D01*
X111448527Y-83310750D02*
X116442021Y-69591238D01*
X126577579Y-88817274D02*
X111448527Y-83310750D01*
X131571073Y-75097762D02*
X126577579Y-88817274D01*
D10*
G04 #@! TO.C,C2*
X178153600Y-93207621D02*
X178153600Y-93533179D01*
X179173600Y-93207621D02*
X179173600Y-93533179D01*
G04 #@! TO.C,C5*
X187606400Y-92572521D02*
X187606400Y-92898079D01*
X186586400Y-92572521D02*
X186586400Y-92898079D01*
G04 #@! TO.C,C6*
X149387679Y-127725900D02*
X149062121Y-127725900D01*
X149387679Y-126705900D02*
X149062121Y-126705900D01*
G04 #@! TO.C,C7*
X149387779Y-128255200D02*
X149062221Y-128255200D01*
X149387779Y-129275200D02*
X149062221Y-129275200D01*
G04 #@! TO.C,C8*
X159374200Y-121142979D02*
X159374200Y-120817421D01*
X158354200Y-121142979D02*
X158354200Y-120817421D01*
G04 #@! TO.C,C9*
X156779400Y-121142979D02*
X156779400Y-120817421D01*
X157799400Y-121142979D02*
X157799400Y-120817421D01*
G04 #@! TO.C,C10*
X157774000Y-123878121D02*
X157774000Y-124203679D01*
X156754000Y-123878121D02*
X156754000Y-124203679D01*
G04 #@! TO.C,C11*
X158354200Y-123903521D02*
X158354200Y-124229079D01*
X159374200Y-123903521D02*
X159374200Y-124229079D01*
G04 #@! TO.C,C12*
X161177800Y-123890821D02*
X161177800Y-124216379D01*
X160157800Y-123890821D02*
X160157800Y-124216379D01*
G04 #@! TO.C,C17*
X121617421Y-96886300D02*
X121942979Y-96886300D01*
X121617421Y-97906300D02*
X121942979Y-97906300D01*
G04 #@! TO.C,C18*
X119978900Y-94866679D02*
X119978900Y-94541121D01*
X118958900Y-94866679D02*
X118958900Y-94541121D01*
G04 #@! TO.C,C19*
X154366079Y-57675401D02*
X154040521Y-57675401D01*
X154366079Y-56655401D02*
X154040521Y-56655401D01*
G04 #@! TO.C,C20*
X154366079Y-55090600D02*
X154040521Y-55090600D01*
X154366079Y-56110600D02*
X154040521Y-56110600D01*
G04 #@! TO.C,D1*
X119462400Y-115391600D02*
X116512400Y-115391600D01*
X117062400Y-118491600D02*
X119462400Y-118491600D01*
G04 #@! TO.C,D2*
X146284400Y-44766000D02*
X146284400Y-43966000D01*
X146284400Y-43966000D02*
X150184400Y-43966000D01*
X146284400Y-46966000D02*
X150184400Y-46966000D01*
G04 #@! TO.C,D3*
X180313000Y-63516800D02*
X177913000Y-63516800D01*
X177913000Y-66616800D02*
X180863000Y-66616800D01*
G04 #@! TO.C,J1*
X166005200Y-85632600D02*
X168665200Y-85632600D01*
X166005200Y-83032600D02*
X166005200Y-85632600D01*
X168665200Y-83032600D02*
X168665200Y-85632600D01*
X166005200Y-83032600D02*
X168665200Y-83032600D01*
X166005200Y-81762600D02*
X166005200Y-80432600D01*
X166005200Y-80432600D02*
X167335200Y-80432600D01*
G04 #@! TO.C,J10*
X169022389Y-102334175D02*
X167677792Y-106239167D01*
X167677792Y-106239167D02*
X169734295Y-106947278D01*
X169734295Y-106947278D02*
X169604068Y-107325485D01*
X181285765Y-106556794D02*
X179941168Y-110461786D01*
X179941168Y-110461786D02*
X177884665Y-109753675D01*
X170695084Y-100593941D02*
X171787158Y-100969972D01*
X171787158Y-100969972D02*
X171136022Y-102861009D01*
X171136022Y-102861009D02*
X179295847Y-105670663D01*
X179295847Y-105670663D02*
X179946984Y-103779625D01*
X179946984Y-103779625D02*
X181039058Y-104155657D01*
G04 #@! TO.C,J13*
X173611836Y-79592875D02*
X172519762Y-79968907D01*
X172960700Y-77701838D02*
X173611836Y-79592875D01*
X178283969Y-75868890D02*
X172960700Y-77701838D01*
X178935106Y-77759927D02*
X178283969Y-75868890D01*
X180027180Y-77383896D02*
X178935106Y-77759927D01*
X169502470Y-74323681D02*
X171558973Y-73615570D01*
X170847067Y-78228673D02*
X169502470Y-74323681D01*
X176872787Y-71785877D02*
X176742560Y-71407670D01*
X178929290Y-71077766D02*
X176872787Y-71785877D01*
X180273887Y-74982758D02*
X178929290Y-71077766D01*
G04 #@! TO.C,J15*
X114372453Y-120265409D02*
X114729462Y-120539352D01*
X113246244Y-121733113D02*
X114372453Y-120265409D01*
X117882059Y-128504503D02*
X118034249Y-128306165D01*
X111693903Y-123756164D02*
X111846093Y-123557826D01*
X119434400Y-126481452D02*
X120560609Y-125013748D01*
X120560609Y-125013748D02*
X120203600Y-124739806D01*
X116452649Y-121168340D02*
X116809658Y-121442283D01*
X116452649Y-121168340D02*
X116178706Y-121525349D01*
G04 #@! TO.C,J17*
X182036244Y-60189337D02*
X182310187Y-59832328D01*
X182036244Y-60189337D02*
X181679235Y-59915394D01*
X177928284Y-56343929D02*
X178285293Y-56617871D01*
X179054493Y-54876225D02*
X177928284Y-56343929D01*
X186794990Y-57601513D02*
X186642800Y-57799851D01*
X180606834Y-52853174D02*
X180454644Y-53051512D01*
X185242649Y-59624564D02*
X184116440Y-61092268D01*
X184116440Y-61092268D02*
X183759431Y-60818325D01*
G04 #@! TO.C,JP2*
X184193264Y-83990400D02*
X182989136Y-83990400D01*
X184193264Y-82170400D02*
X182989136Y-82170400D01*
G04 #@! TO.C,L1*
X188065400Y-90596800D02*
X183757400Y-90596800D01*
X183757400Y-86288800D02*
X188065400Y-86288800D01*
D11*
G04 #@! TO.C,O1*
X169024000Y-47633000D02*
X169024000Y-69363000D01*
X169024000Y-69363000D02*
X164354000Y-74033000D01*
X164354000Y-74033000D02*
X130424000Y-74033000D01*
X130424000Y-74033000D02*
X126124000Y-69613000D01*
X126124000Y-69613000D02*
X126124000Y-49613000D01*
X126124000Y-49613000D02*
X128104000Y-47633000D01*
X128104000Y-47633000D02*
X169024000Y-47633000D01*
X164574000Y-73833000D02*
X164574000Y-47833000D01*
X164574000Y-47833000D02*
X168574000Y-51833000D01*
X164574000Y-50833000D02*
X168574000Y-54833000D01*
X164574000Y-53833000D02*
X168574000Y-57833000D01*
X164574000Y-56833000D02*
X168574000Y-60833000D01*
X164574000Y-59833000D02*
X168574000Y-63833000D01*
X164574000Y-62833000D02*
X168574000Y-66833000D01*
X164574000Y-66833000D02*
X164574000Y-65833000D01*
X164574000Y-65833000D02*
X167574000Y-68833000D01*
X164574000Y-68833000D02*
X166574000Y-70833000D01*
D10*
G04 #@! TO.C,R3*
X182534779Y-98503200D02*
X182209221Y-98503200D01*
X182534779Y-97483200D02*
X182209221Y-97483200D01*
G04 #@! TO.C,R4*
X182234521Y-96877600D02*
X182560079Y-96877600D01*
X182234521Y-95857600D02*
X182560079Y-95857600D01*
G04 #@! TO.C,R6*
X164530821Y-77036200D02*
X164856379Y-77036200D01*
X164530821Y-78056200D02*
X164856379Y-78056200D01*
G04 #@! TO.C,R8*
X124424221Y-114568700D02*
X124749779Y-114568700D01*
X124424221Y-113548700D02*
X124749779Y-113548700D01*
G04 #@! TO.C,R9*
X124749679Y-116143500D02*
X124424121Y-116143500D01*
X124749679Y-115123500D02*
X124424121Y-115123500D01*
G04 #@! TO.C,R14*
X115695000Y-94528521D02*
X115695000Y-94854079D01*
X116715000Y-94528521D02*
X116715000Y-94854079D01*
G04 #@! TO.C,R15*
X122032300Y-94528321D02*
X122032300Y-94853879D01*
X123052300Y-94528321D02*
X123052300Y-94853879D01*
G04 #@! TO.C,R16*
X144282279Y-45692600D02*
X143956721Y-45692600D01*
X144282279Y-46712600D02*
X143956721Y-46712600D01*
G04 #@! TO.C,R17*
X152288121Y-46661800D02*
X152613679Y-46661800D01*
X152288121Y-45641800D02*
X152613679Y-45641800D01*
G04 #@! TO.C,R18*
X155788479Y-45641800D02*
X155462921Y-45641800D01*
X155788479Y-46661800D02*
X155462921Y-46661800D01*
G04 #@! TO.C,R19*
X156919100Y-57947779D02*
X156919100Y-57622221D01*
X157939100Y-57947779D02*
X157939100Y-57622221D01*
G04 #@! TO.C,R20*
X173085879Y-66219800D02*
X172760321Y-66219800D01*
X173085879Y-65199800D02*
X172760321Y-65199800D01*
G04 #@! TO.C,R21*
X173085879Y-66825400D02*
X172760321Y-66825400D01*
X173085879Y-67845400D02*
X172760321Y-67845400D01*
G04 #@! TO.C,SW1*
X184211284Y-118718592D02*
X185321979Y-117866326D01*
X185321979Y-117866326D02*
X187635272Y-120881069D01*
X180336421Y-126481674D02*
X178023128Y-123466931D01*
X178023128Y-123466931D02*
X179133823Y-122614665D01*
X183100589Y-119570858D02*
X182227901Y-120240496D01*
X182227901Y-120240496D02*
X182227901Y-120240496D01*
X181117206Y-121092762D02*
X180244517Y-121762399D01*
X180244517Y-121762399D02*
X180244517Y-121762399D01*
X187635272Y-120881069D02*
X186286571Y-121915963D01*
X186286571Y-121915963D02*
X186469200Y-122153969D01*
X186469200Y-122153969D02*
X185834517Y-122640978D01*
X185834517Y-122640978D02*
X185651889Y-122402972D01*
X185651889Y-122402972D02*
X184303188Y-123437867D01*
X184303188Y-123437867D02*
X184485816Y-123675873D01*
X184485816Y-123675873D02*
X183851134Y-124162882D01*
X183851134Y-124162882D02*
X183668505Y-123924876D01*
X183668505Y-123924876D02*
X182319805Y-124959770D01*
X182319805Y-124959770D02*
X182502433Y-125197776D01*
X182502433Y-125197776D02*
X181867750Y-125684785D01*
X181867750Y-125684785D02*
X181685122Y-125446779D01*
X181685122Y-125446779D02*
X180336421Y-126481674D01*
X180336421Y-126481674D02*
X180336421Y-126481674D01*
X183555787Y-126406266D02*
X183251406Y-126009589D01*
X183251406Y-126009589D02*
X183251406Y-126009589D01*
X183555787Y-126406266D02*
X183952463Y-126101885D01*
X183952463Y-126101885D02*
X183952463Y-126101885D01*
X186729200Y-123971220D02*
X186332523Y-124275601D01*
X186332523Y-124275601D02*
X186332523Y-124275601D01*
X186729200Y-123971220D02*
X186424819Y-123574543D01*
X186424819Y-123574543D02*
X186424819Y-123574543D01*
X186242191Y-123336537D02*
X185937810Y-122939860D01*
X185937810Y-122939860D02*
X185937810Y-122939860D01*
X183068778Y-125771583D02*
X182764397Y-125374906D01*
X182764397Y-125374906D02*
X182764397Y-125374906D01*
X184190469Y-125919256D02*
X184587146Y-125614876D01*
X184587146Y-125614876D02*
X184587146Y-125614876D01*
X186094517Y-124458229D02*
X185697841Y-124762610D01*
X185697841Y-124762610D02*
X185697841Y-124762610D01*
X185459835Y-124945238D02*
X184825152Y-125432247D01*
X184825152Y-125432247D02*
X184825152Y-125432247D01*
G04 #@! TO.C,U2*
X183627600Y-91912800D02*
X181827600Y-91912800D01*
X181827600Y-95132800D02*
X184277600Y-95132800D01*
D11*
G04 #@! TO.C,U3*
X144050000Y-124605800D02*
X145050000Y-124605800D01*
X144050000Y-114255800D02*
X145125000Y-114255800D01*
X154400000Y-114255800D02*
X153325000Y-114255800D01*
X154400000Y-124605800D02*
X153325000Y-124605800D01*
X144050000Y-124605800D02*
X144050000Y-123530800D01*
X154400000Y-124605800D02*
X154400000Y-123530800D01*
X154400000Y-114255800D02*
X154400000Y-115330800D01*
X144050000Y-114255800D02*
X144050000Y-115330800D01*
X145050000Y-124605800D02*
X145050000Y-125630800D01*
D10*
G04 #@! TO.C,R22*
X189799179Y-103735600D02*
X189473621Y-103735600D01*
X189799179Y-102715600D02*
X189473621Y-102715600D01*
G04 #@! TO.C,R23*
X187454000Y-102626379D02*
X187454000Y-102300821D01*
X186434000Y-102626379D02*
X186434000Y-102300821D01*
G04 #@! TO.C,C21*
X156754200Y-117756721D02*
X156754200Y-118082279D01*
X157774200Y-117756721D02*
X157774200Y-118082279D01*
G04 #@! TO.C,C22*
X159348800Y-117744021D02*
X159348800Y-118069579D01*
X158328800Y-117744021D02*
X158328800Y-118069579D01*
G04 #@! TO.C,C23*
X156830300Y-114145179D02*
X156830300Y-113819621D01*
X157850300Y-114145179D02*
X157850300Y-113819621D01*
G04 #@! TO.C,C24*
X159399700Y-114145379D02*
X159399700Y-113819821D01*
X158379700Y-114145379D02*
X158379700Y-113819821D01*
G04 #@! TO.C,C25*
X141899000Y-118721921D02*
X141899000Y-119047479D01*
X140879000Y-118721921D02*
X140879000Y-119047479D01*
G04 #@! TO.C,C26*
X139266100Y-118734621D02*
X139266100Y-119060179D01*
X140286100Y-118734621D02*
X140286100Y-119060179D01*
G04 #@! TO.C,U5*
D11*
X152958895Y-63940980D02*
X152958895Y-64750504D01*
X153006514Y-64845742D01*
X153054133Y-64893361D01*
X153149371Y-64940980D01*
X153339847Y-64940980D01*
X153435085Y-64893361D01*
X153482704Y-64845742D01*
X153530323Y-64750504D01*
X153530323Y-63940980D01*
X154482704Y-63940980D02*
X154006514Y-63940980D01*
X153958895Y-64417171D01*
X154006514Y-64369552D01*
X154101752Y-64321933D01*
X154339847Y-64321933D01*
X154435085Y-64369552D01*
X154482704Y-64417171D01*
X154530323Y-64512409D01*
X154530323Y-64750504D01*
X154482704Y-64845742D01*
X154435085Y-64893361D01*
X154339847Y-64940980D01*
X154101752Y-64940980D01*
X154006514Y-64893361D01*
X153958895Y-64845742D01*
G04 #@! TO.C,J16*
X111321406Y-76357461D02*
X111992615Y-76601761D01*
X112110571Y-76695369D01*
X112167492Y-76817437D01*
X112163379Y-76967965D01*
X112130806Y-77057460D01*
X112603119Y-75759789D02*
X112407679Y-76296756D01*
X112505399Y-76028272D02*
X111565707Y-75686252D01*
X111667375Y-75824607D01*
X111724296Y-75946675D01*
X111736470Y-76052456D01*
X111956587Y-74612318D02*
X111891440Y-74791307D01*
X111903614Y-74897088D01*
X111932075Y-74958122D01*
X112033743Y-75096477D01*
X112196445Y-75206371D01*
X112554424Y-75336664D01*
X112660205Y-75324490D01*
X112721239Y-75296029D01*
X112798559Y-75222822D01*
X112863706Y-75043833D01*
X112851532Y-74938051D01*
X112823071Y-74877017D01*
X112749864Y-74799697D01*
X112526127Y-74718263D01*
X112420346Y-74730437D01*
X112359312Y-74758898D01*
X112281992Y-74832106D01*
X112216845Y-75011095D01*
X112229019Y-75116876D01*
X112257479Y-75177910D01*
X112330687Y-75255231D01*
X120632047Y-82660077D02*
X120693081Y-82631616D01*
X120721541Y-82692650D01*
X120660507Y-82721111D01*
X120632047Y-82660077D01*
X120721541Y-82692650D01*
X120363563Y-82562357D02*
X119810309Y-82411664D01*
X119781849Y-82350630D01*
X119842883Y-82322170D01*
X120363563Y-82562357D01*
X119781849Y-82350630D01*
X120794914Y-82212604D02*
X120855948Y-82184144D01*
X120884408Y-82245178D01*
X120823374Y-82273638D01*
X120794914Y-82212604D01*
X120884408Y-82245178D01*
X120526430Y-82114884D02*
X119973176Y-81964191D01*
X119944715Y-81903158D01*
X120005749Y-81874697D01*
X120526430Y-82114884D01*
X119944715Y-81903158D01*
X121153220Y-81228164D02*
X121181681Y-81289198D01*
X121177568Y-81439727D01*
X121144995Y-81529221D01*
X121051388Y-81647177D01*
X120929320Y-81704098D01*
X120823538Y-81716272D01*
X120628263Y-81695872D01*
X120494021Y-81647012D01*
X120331319Y-81537118D01*
X120258111Y-81459798D01*
X120201190Y-81337730D01*
X120205302Y-81187201D01*
X120237876Y-81097707D01*
X120331483Y-80979752D01*
X120392517Y-80951291D01*
X120449602Y-80515992D02*
X121210306Y-80792866D01*
X121316087Y-80780692D01*
X121377121Y-80752231D01*
X121454442Y-80679023D01*
X121519588Y-80500034D01*
X121507414Y-80394253D01*
X121478954Y-80333219D01*
X121405746Y-80255898D01*
X120645042Y-79979025D01*
X120759049Y-79665794D02*
X120954489Y-79128827D01*
X121796462Y-79739331D02*
X120856769Y-79397311D01*
X121133643Y-78636607D02*
X121198789Y-78457618D01*
X121276110Y-78384410D01*
X121398178Y-78327489D01*
X121593454Y-78347888D01*
X121906684Y-78461895D01*
X122069387Y-78571789D01*
X122126308Y-78693857D01*
X122138482Y-78799638D01*
X122073335Y-78978627D01*
X121996015Y-79051835D01*
X121873947Y-79108756D01*
X121678671Y-79088357D01*
X121365440Y-78974350D01*
X121202738Y-78864456D01*
X121145817Y-78742388D01*
X121133643Y-78636607D01*
X121426803Y-77831156D02*
X122187506Y-78108030D01*
X122293288Y-78095856D01*
X122354321Y-78067395D01*
X122431642Y-77994187D01*
X122496789Y-77815198D01*
X122484615Y-77709417D01*
X122456154Y-77648383D01*
X122382946Y-77571062D01*
X121622243Y-77294189D01*
X121736250Y-76980958D02*
X121931690Y-76443991D01*
X122773662Y-77054495D02*
X121833970Y-76712474D01*
X122895894Y-76440207D02*
X122956928Y-76411746D01*
X122985389Y-76472780D01*
X122924355Y-76501241D01*
X122895894Y-76440207D01*
X122985389Y-76472780D01*
X122627411Y-76342487D02*
X122074157Y-76191794D01*
X122045696Y-76130760D01*
X122106730Y-76102299D01*
X122627411Y-76342487D01*
X122045696Y-76130760D01*
X123058761Y-75992734D02*
X123119795Y-75964274D01*
X123148256Y-76025307D01*
X123087222Y-76053768D01*
X123058761Y-75992734D01*
X123148256Y-76025307D01*
X122790278Y-75895014D02*
X122237024Y-75744321D01*
X122208563Y-75683287D01*
X122269597Y-75654827D01*
X122790278Y-75895014D01*
X122208563Y-75683287D01*
X120632047Y-82660077D02*
X120693081Y-82631616D01*
X120721541Y-82692650D01*
X120660507Y-82721111D01*
X120632047Y-82660077D01*
X120721541Y-82692650D01*
X120363563Y-82562357D02*
X119810309Y-82411664D01*
X119781849Y-82350630D01*
X119842883Y-82322170D01*
X120363563Y-82562357D01*
X119781849Y-82350630D01*
X120794914Y-82212604D02*
X120855948Y-82184144D01*
X120884408Y-82245178D01*
X120823374Y-82273638D01*
X120794914Y-82212604D01*
X120884408Y-82245178D01*
X120526430Y-82114884D02*
X119973176Y-81964191D01*
X119944715Y-81903158D01*
X120005749Y-81874697D01*
X120526430Y-82114884D01*
X119944715Y-81903158D01*
X121153220Y-81228164D02*
X121181681Y-81289198D01*
X121177568Y-81439727D01*
X121144995Y-81529221D01*
X121051388Y-81647177D01*
X120929320Y-81704098D01*
X120823538Y-81716272D01*
X120628263Y-81695872D01*
X120494021Y-81647012D01*
X120331319Y-81537118D01*
X120258111Y-81459798D01*
X120201190Y-81337730D01*
X120205302Y-81187201D01*
X120237876Y-81097707D01*
X120331483Y-80979752D01*
X120392517Y-80951291D01*
X120449602Y-80515992D02*
X121210306Y-80792866D01*
X121316087Y-80780692D01*
X121377121Y-80752231D01*
X121454442Y-80679023D01*
X121519588Y-80500034D01*
X121507414Y-80394253D01*
X121478954Y-80333219D01*
X121405746Y-80255898D01*
X120645042Y-79979025D01*
X120759049Y-79665794D02*
X120954489Y-79128827D01*
X121796462Y-79739331D02*
X120856769Y-79397311D01*
X121133643Y-78636607D02*
X121198789Y-78457618D01*
X121276110Y-78384410D01*
X121398178Y-78327489D01*
X121593454Y-78347888D01*
X121906684Y-78461895D01*
X122069387Y-78571789D01*
X122126308Y-78693857D01*
X122138482Y-78799638D01*
X122073335Y-78978627D01*
X121996015Y-79051835D01*
X121873947Y-79108756D01*
X121678671Y-79088357D01*
X121365440Y-78974350D01*
X121202738Y-78864456D01*
X121145817Y-78742388D01*
X121133643Y-78636607D01*
X121426803Y-77831156D02*
X122187506Y-78108030D01*
X122293288Y-78095856D01*
X122354321Y-78067395D01*
X122431642Y-77994187D01*
X122496789Y-77815198D01*
X122484615Y-77709417D01*
X122456154Y-77648383D01*
X122382946Y-77571062D01*
X121622243Y-77294189D01*
X121736250Y-76980958D02*
X121931690Y-76443991D01*
X122773662Y-77054495D02*
X121833970Y-76712474D01*
X122895894Y-76440207D02*
X122956928Y-76411746D01*
X122985389Y-76472780D01*
X122924355Y-76501241D01*
X122895894Y-76440207D01*
X122985389Y-76472780D01*
X122627411Y-76342487D02*
X122074157Y-76191794D01*
X122045696Y-76130760D01*
X122106730Y-76102299D01*
X122627411Y-76342487D01*
X122045696Y-76130760D01*
X123058761Y-75992734D02*
X123119795Y-75964274D01*
X123148256Y-76025307D01*
X123087222Y-76053768D01*
X123058761Y-75992734D01*
X123148256Y-76025307D01*
X122790278Y-75895014D02*
X122237024Y-75744321D01*
X122208563Y-75683287D01*
X122269597Y-75654827D01*
X122790278Y-75895014D01*
X122208563Y-75683287D01*
G04 #@! TO.C,C2*
X180450742Y-93537066D02*
X180498361Y-93584685D01*
X180545980Y-93727542D01*
X180545980Y-93822780D01*
X180498361Y-93965638D01*
X180403123Y-94060876D01*
X180307885Y-94108495D01*
X180117409Y-94156114D01*
X179974552Y-94156114D01*
X179784076Y-94108495D01*
X179688838Y-94060876D01*
X179593600Y-93965638D01*
X179545980Y-93822780D01*
X179545980Y-93727542D01*
X179593600Y-93584685D01*
X179641219Y-93537066D01*
X179641219Y-93156114D02*
X179593600Y-93108495D01*
X179545980Y-93013257D01*
X179545980Y-92775161D01*
X179593600Y-92679923D01*
X179641219Y-92632304D01*
X179736457Y-92584685D01*
X179831695Y-92584685D01*
X179974552Y-92632304D01*
X180545980Y-93203733D01*
X180545980Y-92584685D01*
G04 #@! TO.C,C5*
X188883542Y-92901966D02*
X188931161Y-92949585D01*
X188978780Y-93092442D01*
X188978780Y-93187680D01*
X188931161Y-93330538D01*
X188835923Y-93425776D01*
X188740685Y-93473395D01*
X188550209Y-93521014D01*
X188407352Y-93521014D01*
X188216876Y-93473395D01*
X188121638Y-93425776D01*
X188026400Y-93330538D01*
X187978780Y-93187680D01*
X187978780Y-93092442D01*
X188026400Y-92949585D01*
X188074019Y-92901966D01*
X187978780Y-91997204D02*
X187978780Y-92473395D01*
X188454971Y-92521014D01*
X188407352Y-92473395D01*
X188359733Y-92378157D01*
X188359733Y-92140061D01*
X188407352Y-92044823D01*
X188454971Y-91997204D01*
X188550209Y-91949585D01*
X188788304Y-91949585D01*
X188883542Y-91997204D01*
X188931161Y-92044823D01*
X188978780Y-92140061D01*
X188978780Y-92378157D01*
X188931161Y-92473395D01*
X188883542Y-92521014D01*
G04 #@! TO.C,C6*
X149058233Y-129003042D02*
X149010614Y-129050661D01*
X148867757Y-129098280D01*
X148772519Y-129098280D01*
X148629661Y-129050661D01*
X148534423Y-128955423D01*
X148486804Y-128860185D01*
X148439185Y-128669709D01*
X148439185Y-128526852D01*
X148486804Y-128336376D01*
X148534423Y-128241138D01*
X148629661Y-128145900D01*
X148772519Y-128098280D01*
X148867757Y-128098280D01*
X149010614Y-128145900D01*
X149058233Y-128193519D01*
X149915376Y-128098280D02*
X149724900Y-128098280D01*
X149629661Y-128145900D01*
X149582042Y-128193519D01*
X149486804Y-128336376D01*
X149439185Y-128526852D01*
X149439185Y-128907804D01*
X149486804Y-129003042D01*
X149534423Y-129050661D01*
X149629661Y-129098280D01*
X149820138Y-129098280D01*
X149915376Y-129050661D01*
X149962995Y-129003042D01*
X150010614Y-128907804D01*
X150010614Y-128669709D01*
X149962995Y-128574471D01*
X149915376Y-128526852D01*
X149820138Y-128479233D01*
X149629661Y-128479233D01*
X149534423Y-128526852D01*
X149486804Y-128574471D01*
X149439185Y-128669709D01*
G04 #@! TO.C,C7*
X149058333Y-130552342D02*
X149010714Y-130599961D01*
X148867857Y-130647580D01*
X148772619Y-130647580D01*
X148629761Y-130599961D01*
X148534523Y-130504723D01*
X148486904Y-130409485D01*
X148439285Y-130219009D01*
X148439285Y-130076152D01*
X148486904Y-129885676D01*
X148534523Y-129790438D01*
X148629761Y-129695200D01*
X148772619Y-129647580D01*
X148867857Y-129647580D01*
X149010714Y-129695200D01*
X149058333Y-129742819D01*
X149391666Y-129647580D02*
X150058333Y-129647580D01*
X149629761Y-130647580D01*
G04 #@! TO.C,C8*
X157791342Y-121146866D02*
X157838961Y-121194485D01*
X157886580Y-121337342D01*
X157886580Y-121432580D01*
X157838961Y-121575438D01*
X157743723Y-121670676D01*
X157648485Y-121718295D01*
X157458009Y-121765914D01*
X157315152Y-121765914D01*
X157124676Y-121718295D01*
X157029438Y-121670676D01*
X156934200Y-121575438D01*
X156886580Y-121432580D01*
X156886580Y-121337342D01*
X156934200Y-121194485D01*
X156981819Y-121146866D01*
X157315152Y-120575438D02*
X157267533Y-120670676D01*
X157219914Y-120718295D01*
X157124676Y-120765914D01*
X157077057Y-120765914D01*
X156981819Y-120718295D01*
X156934200Y-120670676D01*
X156886580Y-120575438D01*
X156886580Y-120384961D01*
X156934200Y-120289723D01*
X156981819Y-120242104D01*
X157077057Y-120194485D01*
X157124676Y-120194485D01*
X157219914Y-120242104D01*
X157267533Y-120289723D01*
X157315152Y-120384961D01*
X157315152Y-120575438D01*
X157362771Y-120670676D01*
X157410390Y-120718295D01*
X157505628Y-120765914D01*
X157696104Y-120765914D01*
X157791342Y-120718295D01*
X157838961Y-120670676D01*
X157886580Y-120575438D01*
X157886580Y-120384961D01*
X157838961Y-120289723D01*
X157791342Y-120242104D01*
X157696104Y-120194485D01*
X157505628Y-120194485D01*
X157410390Y-120242104D01*
X157362771Y-120289723D01*
X157315152Y-120384961D01*
G04 #@! TO.C,C9*
X156216542Y-121146866D02*
X156264161Y-121194485D01*
X156311780Y-121337342D01*
X156311780Y-121432580D01*
X156264161Y-121575438D01*
X156168923Y-121670676D01*
X156073685Y-121718295D01*
X155883209Y-121765914D01*
X155740352Y-121765914D01*
X155549876Y-121718295D01*
X155454638Y-121670676D01*
X155359400Y-121575438D01*
X155311780Y-121432580D01*
X155311780Y-121337342D01*
X155359400Y-121194485D01*
X155407019Y-121146866D01*
X156311780Y-120670676D02*
X156311780Y-120480200D01*
X156264161Y-120384961D01*
X156216542Y-120337342D01*
X156073685Y-120242104D01*
X155883209Y-120194485D01*
X155502257Y-120194485D01*
X155407019Y-120242104D01*
X155359400Y-120289723D01*
X155311780Y-120384961D01*
X155311780Y-120575438D01*
X155359400Y-120670676D01*
X155407019Y-120718295D01*
X155502257Y-120765914D01*
X155740352Y-120765914D01*
X155835590Y-120718295D01*
X155883209Y-120670676D01*
X155930828Y-120575438D01*
X155930828Y-120384961D01*
X155883209Y-120289723D01*
X155835590Y-120242104D01*
X155740352Y-120194485D01*
G04 #@! TO.C,C10*
X159051142Y-124683757D02*
X159098761Y-124731376D01*
X159146380Y-124874233D01*
X159146380Y-124969471D01*
X159098761Y-125112328D01*
X159003523Y-125207566D01*
X158908285Y-125255185D01*
X158717809Y-125302804D01*
X158574952Y-125302804D01*
X158384476Y-125255185D01*
X158289238Y-125207566D01*
X158194000Y-125112328D01*
X158146380Y-124969471D01*
X158146380Y-124874233D01*
X158194000Y-124731376D01*
X158241619Y-124683757D01*
X159146380Y-123731376D02*
X159146380Y-124302804D01*
X159146380Y-124017090D02*
X158146380Y-124017090D01*
X158289238Y-124112328D01*
X158384476Y-124207566D01*
X158432095Y-124302804D01*
X158146380Y-123112328D02*
X158146380Y-123017090D01*
X158194000Y-122921852D01*
X158241619Y-122874233D01*
X158336857Y-122826614D01*
X158527333Y-122778995D01*
X158765428Y-122778995D01*
X158955904Y-122826614D01*
X159051142Y-122874233D01*
X159098761Y-122921852D01*
X159146380Y-123017090D01*
X159146380Y-123112328D01*
X159098761Y-123207566D01*
X159051142Y-123255185D01*
X158955904Y-123302804D01*
X158765428Y-123350423D01*
X158527333Y-123350423D01*
X158336857Y-123302804D01*
X158241619Y-123255185D01*
X158194000Y-123207566D01*
X158146380Y-123112328D01*
G04 #@! TO.C,C11*
X160651342Y-124709157D02*
X160698961Y-124756776D01*
X160746580Y-124899633D01*
X160746580Y-124994871D01*
X160698961Y-125137728D01*
X160603723Y-125232966D01*
X160508485Y-125280585D01*
X160318009Y-125328204D01*
X160175152Y-125328204D01*
X159984676Y-125280585D01*
X159889438Y-125232966D01*
X159794200Y-125137728D01*
X159746580Y-124994871D01*
X159746580Y-124899633D01*
X159794200Y-124756776D01*
X159841819Y-124709157D01*
X160746580Y-123756776D02*
X160746580Y-124328204D01*
X160746580Y-124042490D02*
X159746580Y-124042490D01*
X159889438Y-124137728D01*
X159984676Y-124232966D01*
X160032295Y-124328204D01*
X160746580Y-122804395D02*
X160746580Y-123375823D01*
X160746580Y-123090109D02*
X159746580Y-123090109D01*
X159889438Y-123185347D01*
X159984676Y-123280585D01*
X160032295Y-123375823D01*
G04 #@! TO.C,C12*
X162454942Y-124696457D02*
X162502561Y-124744076D01*
X162550180Y-124886933D01*
X162550180Y-124982171D01*
X162502561Y-125125028D01*
X162407323Y-125220266D01*
X162312085Y-125267885D01*
X162121609Y-125315504D01*
X161978752Y-125315504D01*
X161788276Y-125267885D01*
X161693038Y-125220266D01*
X161597800Y-125125028D01*
X161550180Y-124982171D01*
X161550180Y-124886933D01*
X161597800Y-124744076D01*
X161645419Y-124696457D01*
X162550180Y-123744076D02*
X162550180Y-124315504D01*
X162550180Y-124029790D02*
X161550180Y-124029790D01*
X161693038Y-124125028D01*
X161788276Y-124220266D01*
X161835895Y-124315504D01*
X161645419Y-123363123D02*
X161597800Y-123315504D01*
X161550180Y-123220266D01*
X161550180Y-122982171D01*
X161597800Y-122886933D01*
X161645419Y-122839314D01*
X161740657Y-122791695D01*
X161835895Y-122791695D01*
X161978752Y-122839314D01*
X162550180Y-123410742D01*
X162550180Y-122791695D01*
G04 #@! TO.C,C17*
X121137342Y-96323442D02*
X121089723Y-96371061D01*
X120946866Y-96418680D01*
X120851628Y-96418680D01*
X120708771Y-96371061D01*
X120613533Y-96275823D01*
X120565914Y-96180585D01*
X120518295Y-95990109D01*
X120518295Y-95847252D01*
X120565914Y-95656776D01*
X120613533Y-95561538D01*
X120708771Y-95466300D01*
X120851628Y-95418680D01*
X120946866Y-95418680D01*
X121089723Y-95466300D01*
X121137342Y-95513919D01*
X122089723Y-96418680D02*
X121518295Y-96418680D01*
X121804009Y-96418680D02*
X121804009Y-95418680D01*
X121708771Y-95561538D01*
X121613533Y-95656776D01*
X121518295Y-95704395D01*
X122423057Y-95418680D02*
X123089723Y-95418680D01*
X122661152Y-96418680D01*
G04 #@! TO.C,C18*
X118396042Y-95346757D02*
X118443661Y-95394376D01*
X118491280Y-95537233D01*
X118491280Y-95632471D01*
X118443661Y-95775328D01*
X118348423Y-95870566D01*
X118253185Y-95918185D01*
X118062709Y-95965804D01*
X117919852Y-95965804D01*
X117729376Y-95918185D01*
X117634138Y-95870566D01*
X117538900Y-95775328D01*
X117491280Y-95632471D01*
X117491280Y-95537233D01*
X117538900Y-95394376D01*
X117586519Y-95346757D01*
X118491280Y-94394376D02*
X118491280Y-94965804D01*
X118491280Y-94680090D02*
X117491280Y-94680090D01*
X117634138Y-94775328D01*
X117729376Y-94870566D01*
X117776995Y-94965804D01*
X117919852Y-93822947D02*
X117872233Y-93918185D01*
X117824614Y-93965804D01*
X117729376Y-94013423D01*
X117681757Y-94013423D01*
X117586519Y-93965804D01*
X117538900Y-93918185D01*
X117491280Y-93822947D01*
X117491280Y-93632471D01*
X117538900Y-93537233D01*
X117586519Y-93489614D01*
X117681757Y-93441995D01*
X117729376Y-93441995D01*
X117824614Y-93489614D01*
X117872233Y-93537233D01*
X117919852Y-93632471D01*
X117919852Y-93822947D01*
X117967471Y-93918185D01*
X118015090Y-93965804D01*
X118110328Y-94013423D01*
X118300804Y-94013423D01*
X118396042Y-93965804D01*
X118443661Y-93918185D01*
X118491280Y-93822947D01*
X118491280Y-93632471D01*
X118443661Y-93537233D01*
X118396042Y-93489614D01*
X118300804Y-93441995D01*
X118110328Y-93441995D01*
X118015090Y-93489614D01*
X117967471Y-93537233D01*
X117919852Y-93632471D01*
G04 #@! TO.C,C19*
X153560442Y-58952543D02*
X153512823Y-59000162D01*
X153369966Y-59047781D01*
X153274728Y-59047781D01*
X153131871Y-59000162D01*
X153036633Y-58904924D01*
X152989014Y-58809686D01*
X152941395Y-58619210D01*
X152941395Y-58476353D01*
X152989014Y-58285877D01*
X153036633Y-58190639D01*
X153131871Y-58095401D01*
X153274728Y-58047781D01*
X153369966Y-58047781D01*
X153512823Y-58095401D01*
X153560442Y-58143020D01*
X154512823Y-59047781D02*
X153941395Y-59047781D01*
X154227109Y-59047781D02*
X154227109Y-58047781D01*
X154131871Y-58190639D01*
X154036633Y-58285877D01*
X153941395Y-58333496D01*
X154989014Y-59047781D02*
X155179490Y-59047781D01*
X155274728Y-59000162D01*
X155322347Y-58952543D01*
X155417585Y-58809686D01*
X155465204Y-58619210D01*
X155465204Y-58238258D01*
X155417585Y-58143020D01*
X155369966Y-58095401D01*
X155274728Y-58047781D01*
X155084252Y-58047781D01*
X154989014Y-58095401D01*
X154941395Y-58143020D01*
X154893776Y-58238258D01*
X154893776Y-58476353D01*
X154941395Y-58571591D01*
X154989014Y-58619210D01*
X155084252Y-58666829D01*
X155274728Y-58666829D01*
X155369966Y-58619210D01*
X155417585Y-58571591D01*
X155465204Y-58476353D01*
G04 #@! TO.C,C20*
X153560442Y-57387742D02*
X153512823Y-57435361D01*
X153369966Y-57482980D01*
X153274728Y-57482980D01*
X153131871Y-57435361D01*
X153036633Y-57340123D01*
X152989014Y-57244885D01*
X152941395Y-57054409D01*
X152941395Y-56911552D01*
X152989014Y-56721076D01*
X153036633Y-56625838D01*
X153131871Y-56530600D01*
X153274728Y-56482980D01*
X153369966Y-56482980D01*
X153512823Y-56530600D01*
X153560442Y-56578219D01*
X153941395Y-56578219D02*
X153989014Y-56530600D01*
X154084252Y-56482980D01*
X154322347Y-56482980D01*
X154417585Y-56530600D01*
X154465204Y-56578219D01*
X154512823Y-56673457D01*
X154512823Y-56768695D01*
X154465204Y-56911552D01*
X153893776Y-57482980D01*
X154512823Y-57482980D01*
X155131871Y-56482980D02*
X155227109Y-56482980D01*
X155322347Y-56530600D01*
X155369966Y-56578219D01*
X155417585Y-56673457D01*
X155465204Y-56863933D01*
X155465204Y-57102028D01*
X155417585Y-57292504D01*
X155369966Y-57387742D01*
X155322347Y-57435361D01*
X155227109Y-57482980D01*
X155131871Y-57482980D01*
X155036633Y-57435361D01*
X154989014Y-57387742D01*
X154941395Y-57292504D01*
X154893776Y-57102028D01*
X154893776Y-56863933D01*
X154941395Y-56673457D01*
X154989014Y-56578219D01*
X155036633Y-56530600D01*
X155131871Y-56482980D01*
G04 #@! TO.C,D1*
X117544304Y-115013980D02*
X117544304Y-114013980D01*
X117782400Y-114013980D01*
X117925257Y-114061600D01*
X118020495Y-114156838D01*
X118068114Y-114252076D01*
X118115733Y-114442552D01*
X118115733Y-114585409D01*
X118068114Y-114775885D01*
X118020495Y-114871123D01*
X117925257Y-114966361D01*
X117782400Y-115013980D01*
X117544304Y-115013980D01*
X119068114Y-115013980D02*
X118496685Y-115013980D01*
X118782400Y-115013980D02*
X118782400Y-114013980D01*
X118687161Y-114156838D01*
X118591923Y-114252076D01*
X118496685Y-114299695D01*
G04 #@! TO.C,D2*
X147496304Y-43268380D02*
X147496304Y-42268380D01*
X147734400Y-42268380D01*
X147877257Y-42316000D01*
X147972495Y-42411238D01*
X148020114Y-42506476D01*
X148067733Y-42696952D01*
X148067733Y-42839809D01*
X148020114Y-43030285D01*
X147972495Y-43125523D01*
X147877257Y-43220761D01*
X147734400Y-43268380D01*
X147496304Y-43268380D01*
X148448685Y-42363619D02*
X148496304Y-42316000D01*
X148591542Y-42268380D01*
X148829638Y-42268380D01*
X148924876Y-42316000D01*
X148972495Y-42363619D01*
X149020114Y-42458857D01*
X149020114Y-42554095D01*
X148972495Y-42696952D01*
X148401066Y-43268380D01*
X149020114Y-43268380D01*
G04 #@! TO.C,D3*
X178354904Y-67899180D02*
X178354904Y-66899180D01*
X178593000Y-66899180D01*
X178735857Y-66946800D01*
X178831095Y-67042038D01*
X178878714Y-67137276D01*
X178926333Y-67327752D01*
X178926333Y-67470609D01*
X178878714Y-67661085D01*
X178831095Y-67756323D01*
X178735857Y-67851561D01*
X178593000Y-67899180D01*
X178354904Y-67899180D01*
X179259666Y-66899180D02*
X179878714Y-66899180D01*
X179545380Y-67280133D01*
X179688238Y-67280133D01*
X179783476Y-67327752D01*
X179831095Y-67375371D01*
X179878714Y-67470609D01*
X179878714Y-67708704D01*
X179831095Y-67803942D01*
X179783476Y-67851561D01*
X179688238Y-67899180D01*
X179402523Y-67899180D01*
X179307285Y-67851561D01*
X179259666Y-67803942D01*
G04 #@! TO.C,J1*
X167001866Y-78884980D02*
X167001866Y-79599266D01*
X166954247Y-79742123D01*
X166859009Y-79837361D01*
X166716152Y-79884980D01*
X166620914Y-79884980D01*
X168001866Y-79884980D02*
X167430438Y-79884980D01*
X167716152Y-79884980D02*
X167716152Y-78884980D01*
X167620914Y-79027838D01*
X167525676Y-79123076D01*
X167430438Y-79170695D01*
G04 #@! TO.C,J6*
X173466166Y-55958380D02*
X173466166Y-56672666D01*
X173418547Y-56815523D01*
X173323309Y-56910761D01*
X173180452Y-56958380D01*
X173085214Y-56958380D01*
X174370928Y-55958380D02*
X174180452Y-55958380D01*
X174085214Y-56006000D01*
X174037595Y-56053619D01*
X173942357Y-56196476D01*
X173894738Y-56386952D01*
X173894738Y-56767904D01*
X173942357Y-56863142D01*
X173989976Y-56910761D01*
X174085214Y-56958380D01*
X174275690Y-56958380D01*
X174370928Y-56910761D01*
X174418547Y-56863142D01*
X174466166Y-56767904D01*
X174466166Y-56529809D01*
X174418547Y-56434571D01*
X174370928Y-56386952D01*
X174275690Y-56339333D01*
X174085214Y-56339333D01*
X173989976Y-56386952D01*
X173942357Y-56434571D01*
X173894738Y-56529809D01*
G04 #@! TO.C,J7*
X124507666Y-55958380D02*
X124507666Y-56672666D01*
X124460047Y-56815523D01*
X124364809Y-56910761D01*
X124221952Y-56958380D01*
X124126714Y-56958380D01*
X124888619Y-55958380D02*
X125555285Y-55958380D01*
X125126714Y-56958380D01*
G04 #@! TO.C,J8*
X173466166Y-115965880D02*
X173466166Y-116680166D01*
X173418547Y-116823023D01*
X173323309Y-116918261D01*
X173180452Y-116965880D01*
X173085214Y-116965880D01*
X174085214Y-116394452D02*
X173989976Y-116346833D01*
X173942357Y-116299214D01*
X173894738Y-116203976D01*
X173894738Y-116156357D01*
X173942357Y-116061119D01*
X173989976Y-116013500D01*
X174085214Y-115965880D01*
X174275690Y-115965880D01*
X174370928Y-116013500D01*
X174418547Y-116061119D01*
X174466166Y-116156357D01*
X174466166Y-116203976D01*
X174418547Y-116299214D01*
X174370928Y-116346833D01*
X174275690Y-116394452D01*
X174085214Y-116394452D01*
X173989976Y-116442071D01*
X173942357Y-116489690D01*
X173894738Y-116584928D01*
X173894738Y-116775404D01*
X173942357Y-116870642D01*
X173989976Y-116918261D01*
X174085214Y-116965880D01*
X174275690Y-116965880D01*
X174370928Y-116918261D01*
X174418547Y-116870642D01*
X174466166Y-116775404D01*
X174466166Y-116584928D01*
X174418547Y-116489690D01*
X174370928Y-116442071D01*
X174275690Y-116394452D01*
G04 #@! TO.C,J9*
X124482266Y-115953180D02*
X124482266Y-116667466D01*
X124434647Y-116810323D01*
X124339409Y-116905561D01*
X124196552Y-116953180D01*
X124101314Y-116953180D01*
X125006076Y-116953180D02*
X125196552Y-116953180D01*
X125291790Y-116905561D01*
X125339409Y-116857942D01*
X125434647Y-116715085D01*
X125482266Y-116524609D01*
X125482266Y-116143657D01*
X125434647Y-116048419D01*
X125387028Y-116000800D01*
X125291790Y-115953180D01*
X125101314Y-115953180D01*
X125006076Y-116000800D01*
X124958457Y-116048419D01*
X124910838Y-116143657D01*
X124910838Y-116381752D01*
X124958457Y-116476990D01*
X125006076Y-116524609D01*
X125101314Y-116572228D01*
X125291790Y-116572228D01*
X125387028Y-116524609D01*
X125434647Y-116476990D01*
X125482266Y-116381752D01*
G04 #@! TO.C,J10*
X175636435Y-100558116D02*
X175403886Y-101233487D01*
X175312352Y-101353058D01*
X175191296Y-101412100D01*
X175040719Y-101410615D01*
X174950669Y-101379609D01*
X176256385Y-101829203D02*
X175716089Y-101643164D01*
X175986237Y-101736184D02*
X176311805Y-100790665D01*
X176175246Y-100894733D01*
X176054190Y-100953776D01*
X175948638Y-100967794D01*
X177167275Y-101085227D02*
X177257324Y-101116233D01*
X177331870Y-101192264D01*
X177361392Y-101252792D01*
X177375410Y-101358345D01*
X177358422Y-101553947D01*
X177280905Y-101779070D01*
X177173868Y-101943666D01*
X177097836Y-102018212D01*
X177037308Y-102047734D01*
X176931756Y-102061752D01*
X176841706Y-102030745D01*
X176767160Y-101954714D01*
X176737639Y-101894186D01*
X176723621Y-101788634D01*
X176740609Y-101593031D01*
X176818125Y-101367908D01*
X176925163Y-101203312D01*
X177001194Y-101128766D01*
X177061722Y-101099245D01*
X177167275Y-101085227D01*
G04 #@! TO.C,J13*
X175686260Y-79457515D02*
X175918809Y-80132885D01*
X175920294Y-80283462D01*
X175861251Y-80404518D01*
X175741680Y-80496053D01*
X175651631Y-80527059D01*
X176957347Y-80077465D02*
X176417051Y-80263504D01*
X176687199Y-80170485D02*
X176361631Y-79224966D01*
X176318091Y-79391047D01*
X176259048Y-79512102D01*
X176184502Y-79588134D01*
X176946952Y-79023424D02*
X177532273Y-78821882D01*
X177341126Y-79290602D01*
X177476200Y-79244092D01*
X177581753Y-79258110D01*
X177642281Y-79287632D01*
X177718312Y-79362178D01*
X177795828Y-79587301D01*
X177781810Y-79692854D01*
X177752288Y-79753382D01*
X177677742Y-79829413D01*
X177407594Y-79922433D01*
X177302041Y-79908414D01*
X177241513Y-79878893D01*
G04 #@! TO.C,J15*
X117979489Y-120641289D02*
X117544660Y-121207970D01*
X117419915Y-121292318D01*
X117286380Y-121309898D01*
X117144056Y-121260711D01*
X117068498Y-121202733D01*
X118164081Y-122043404D02*
X117710737Y-121695540D01*
X117937409Y-121869472D02*
X118546170Y-121076119D01*
X118383647Y-121131478D01*
X118250112Y-121149058D01*
X118145566Y-121128859D01*
X119490639Y-121800835D02*
X119112851Y-121510948D01*
X118785186Y-121859747D01*
X118851954Y-121850957D01*
X118956500Y-121871156D01*
X119145393Y-122016099D01*
X119191962Y-122111855D01*
X119200752Y-122178622D01*
X119180554Y-122283168D01*
X119035611Y-122472062D01*
X118939855Y-122518631D01*
X118873087Y-122527421D01*
X118768541Y-122507222D01*
X118579647Y-122362279D01*
X118533079Y-122266523D01*
X118524288Y-122199756D01*
G04 #@! TO.C,J17*
X179891664Y-58861862D02*
X179456835Y-59428543D01*
X179332090Y-59512891D01*
X179198555Y-59530471D01*
X179056231Y-59481284D01*
X178980673Y-59423306D01*
X180076256Y-60263977D02*
X179622912Y-59916113D01*
X179849584Y-60090045D02*
X180458345Y-59296692D01*
X180295822Y-59352051D01*
X180162287Y-59369631D01*
X180057741Y-59349432D01*
X180949469Y-59673544D02*
X181478371Y-60079385D01*
X180529601Y-60611841D01*
G04 #@! TO.C,JP2*
X182757866Y-84352780D02*
X182757866Y-85067066D01*
X182710247Y-85209923D01*
X182615009Y-85305161D01*
X182472152Y-85352780D01*
X182376914Y-85352780D01*
X183234057Y-85352780D02*
X183234057Y-84352780D01*
X183615009Y-84352780D01*
X183710247Y-84400400D01*
X183757866Y-84448019D01*
X183805485Y-84543257D01*
X183805485Y-84686114D01*
X183757866Y-84781352D01*
X183710247Y-84828971D01*
X183615009Y-84876590D01*
X183234057Y-84876590D01*
X184186438Y-84448019D02*
X184234057Y-84400400D01*
X184329295Y-84352780D01*
X184567390Y-84352780D01*
X184662628Y-84400400D01*
X184710247Y-84448019D01*
X184757866Y-84543257D01*
X184757866Y-84638495D01*
X184710247Y-84781352D01*
X184138819Y-85352780D01*
X184757866Y-85352780D01*
G04 #@! TO.C,L1*
X185744733Y-85895180D02*
X185268542Y-85895180D01*
X185268542Y-84895180D01*
X186601876Y-85895180D02*
X186030447Y-85895180D01*
X186316161Y-85895180D02*
X186316161Y-84895180D01*
X186220923Y-85038038D01*
X186125685Y-85133276D01*
X186030447Y-85180895D01*
G04 #@! TO.C,O1*
X128026380Y-61404428D02*
X128026380Y-61213952D01*
X128074000Y-61118714D01*
X128169238Y-61023476D01*
X128359714Y-60975857D01*
X128693047Y-60975857D01*
X128883523Y-61023476D01*
X128978761Y-61118714D01*
X129026380Y-61213952D01*
X129026380Y-61404428D01*
X128978761Y-61499666D01*
X128883523Y-61594904D01*
X128693047Y-61642523D01*
X128359714Y-61642523D01*
X128169238Y-61594904D01*
X128074000Y-61499666D01*
X128026380Y-61404428D01*
X129026380Y-60023476D02*
X129026380Y-60594904D01*
X129026380Y-60309190D02*
X128026380Y-60309190D01*
X128169238Y-60404428D01*
X128264476Y-60499666D01*
X128312095Y-60594904D01*
X166026380Y-64547285D02*
X165026380Y-64547285D01*
X166026380Y-63975857D01*
X165026380Y-63975857D01*
X166026380Y-63356809D02*
X165978761Y-63452047D01*
X165931142Y-63499666D01*
X165835904Y-63547285D01*
X165550190Y-63547285D01*
X165454952Y-63499666D01*
X165407333Y-63452047D01*
X165359714Y-63356809D01*
X165359714Y-63213952D01*
X165407333Y-63118714D01*
X165454952Y-63071095D01*
X165550190Y-63023476D01*
X165835904Y-63023476D01*
X165931142Y-63071095D01*
X165978761Y-63118714D01*
X166026380Y-63213952D01*
X166026380Y-63356809D01*
X165931142Y-61261571D02*
X165978761Y-61309190D01*
X166026380Y-61452047D01*
X166026380Y-61547285D01*
X165978761Y-61690142D01*
X165883523Y-61785380D01*
X165788285Y-61833000D01*
X165597809Y-61880619D01*
X165454952Y-61880619D01*
X165264476Y-61833000D01*
X165169238Y-61785380D01*
X165074000Y-61690142D01*
X165026380Y-61547285D01*
X165026380Y-61452047D01*
X165074000Y-61309190D01*
X165121619Y-61261571D01*
X166026380Y-60690142D02*
X165978761Y-60785380D01*
X165931142Y-60833000D01*
X165835904Y-60880619D01*
X165550190Y-60880619D01*
X165454952Y-60833000D01*
X165407333Y-60785380D01*
X165359714Y-60690142D01*
X165359714Y-60547285D01*
X165407333Y-60452047D01*
X165454952Y-60404428D01*
X165550190Y-60356809D01*
X165835904Y-60356809D01*
X165931142Y-60404428D01*
X165978761Y-60452047D01*
X166026380Y-60547285D01*
X166026380Y-60690142D01*
X165359714Y-59928238D02*
X166359714Y-59928238D01*
X165407333Y-59928238D02*
X165359714Y-59833000D01*
X165359714Y-59642523D01*
X165407333Y-59547285D01*
X165454952Y-59499666D01*
X165550190Y-59452047D01*
X165835904Y-59452047D01*
X165931142Y-59499666D01*
X165978761Y-59547285D01*
X166026380Y-59642523D01*
X166026380Y-59833000D01*
X165978761Y-59928238D01*
X165359714Y-59023476D02*
X166359714Y-59023476D01*
X165407333Y-59023476D02*
X165359714Y-58928238D01*
X165359714Y-58737761D01*
X165407333Y-58642523D01*
X165454952Y-58594904D01*
X165550190Y-58547285D01*
X165835904Y-58547285D01*
X165931142Y-58594904D01*
X165978761Y-58642523D01*
X166026380Y-58737761D01*
X166026380Y-58928238D01*
X165978761Y-59023476D01*
X165978761Y-57737761D02*
X166026380Y-57833000D01*
X166026380Y-58023476D01*
X165978761Y-58118714D01*
X165883523Y-58166333D01*
X165502571Y-58166333D01*
X165407333Y-58118714D01*
X165359714Y-58023476D01*
X165359714Y-57833000D01*
X165407333Y-57737761D01*
X165502571Y-57690142D01*
X165597809Y-57690142D01*
X165693047Y-58166333D01*
X166026380Y-57261571D02*
X165359714Y-57261571D01*
X165550190Y-57261571D02*
X165454952Y-57213952D01*
X165407333Y-57166333D01*
X165359714Y-57071095D01*
X165359714Y-56975857D01*
G04 #@! TO.C,R3*
X182205333Y-99875580D02*
X181872000Y-99399390D01*
X181633904Y-99875580D02*
X181633904Y-98875580D01*
X182014857Y-98875580D01*
X182110095Y-98923200D01*
X182157714Y-98970819D01*
X182205333Y-99066057D01*
X182205333Y-99208914D01*
X182157714Y-99304152D01*
X182110095Y-99351771D01*
X182014857Y-99399390D01*
X181633904Y-99399390D01*
X182538666Y-98875580D02*
X183157714Y-98875580D01*
X182824380Y-99256533D01*
X182967238Y-99256533D01*
X183062476Y-99304152D01*
X183110095Y-99351771D01*
X183157714Y-99447009D01*
X183157714Y-99685104D01*
X183110095Y-99780342D01*
X183062476Y-99827961D01*
X182967238Y-99875580D01*
X182681523Y-99875580D01*
X182586285Y-99827961D01*
X182538666Y-99780342D01*
G04 #@! TO.C,R4*
X182230633Y-95389980D02*
X181897300Y-94913790D01*
X181659204Y-95389980D02*
X181659204Y-94389980D01*
X182040157Y-94389980D01*
X182135395Y-94437600D01*
X182183014Y-94485219D01*
X182230633Y-94580457D01*
X182230633Y-94723314D01*
X182183014Y-94818552D01*
X182135395Y-94866171D01*
X182040157Y-94913790D01*
X181659204Y-94913790D01*
X183087776Y-94723314D02*
X183087776Y-95389980D01*
X182849680Y-94342361D02*
X182611585Y-95056647D01*
X183230633Y-95056647D01*
G04 #@! TO.C,R6*
X164526933Y-76568580D02*
X164193600Y-76092390D01*
X163955504Y-76568580D02*
X163955504Y-75568580D01*
X164336457Y-75568580D01*
X164431695Y-75616200D01*
X164479314Y-75663819D01*
X164526933Y-75759057D01*
X164526933Y-75901914D01*
X164479314Y-75997152D01*
X164431695Y-76044771D01*
X164336457Y-76092390D01*
X163955504Y-76092390D01*
X165384076Y-75568580D02*
X165193600Y-75568580D01*
X165098361Y-75616200D01*
X165050742Y-75663819D01*
X164955504Y-75806676D01*
X164907885Y-75997152D01*
X164907885Y-76378104D01*
X164955504Y-76473342D01*
X165003123Y-76520961D01*
X165098361Y-76568580D01*
X165288838Y-76568580D01*
X165384076Y-76520961D01*
X165431695Y-76473342D01*
X165479314Y-76378104D01*
X165479314Y-76140009D01*
X165431695Y-76044771D01*
X165384076Y-75997152D01*
X165288838Y-75949533D01*
X165098361Y-75949533D01*
X165003123Y-75997152D01*
X164955504Y-76044771D01*
X164907885Y-76140009D01*
G04 #@! TO.C,R8*
X124420333Y-113081080D02*
X124087000Y-112604890D01*
X123848904Y-113081080D02*
X123848904Y-112081080D01*
X124229857Y-112081080D01*
X124325095Y-112128700D01*
X124372714Y-112176319D01*
X124420333Y-112271557D01*
X124420333Y-112414414D01*
X124372714Y-112509652D01*
X124325095Y-112557271D01*
X124229857Y-112604890D01*
X123848904Y-112604890D01*
X124991761Y-112509652D02*
X124896523Y-112462033D01*
X124848904Y-112414414D01*
X124801285Y-112319176D01*
X124801285Y-112271557D01*
X124848904Y-112176319D01*
X124896523Y-112128700D01*
X124991761Y-112081080D01*
X125182238Y-112081080D01*
X125277476Y-112128700D01*
X125325095Y-112176319D01*
X125372714Y-112271557D01*
X125372714Y-112319176D01*
X125325095Y-112414414D01*
X125277476Y-112462033D01*
X125182238Y-112509652D01*
X124991761Y-112509652D01*
X124896523Y-112557271D01*
X124848904Y-112604890D01*
X124801285Y-112700128D01*
X124801285Y-112890604D01*
X124848904Y-112985842D01*
X124896523Y-113033461D01*
X124991761Y-113081080D01*
X125182238Y-113081080D01*
X125277476Y-113033461D01*
X125325095Y-112985842D01*
X125372714Y-112890604D01*
X125372714Y-112700128D01*
X125325095Y-112604890D01*
X125277476Y-112557271D01*
X125182238Y-112509652D01*
G04 #@! TO.C,R9*
X124420233Y-117515880D02*
X124086900Y-117039690D01*
X123848804Y-117515880D02*
X123848804Y-116515880D01*
X124229757Y-116515880D01*
X124324995Y-116563500D01*
X124372614Y-116611119D01*
X124420233Y-116706357D01*
X124420233Y-116849214D01*
X124372614Y-116944452D01*
X124324995Y-116992071D01*
X124229757Y-117039690D01*
X123848804Y-117039690D01*
X124896423Y-117515880D02*
X125086900Y-117515880D01*
X125182138Y-117468261D01*
X125229757Y-117420642D01*
X125324995Y-117277785D01*
X125372614Y-117087309D01*
X125372614Y-116706357D01*
X125324995Y-116611119D01*
X125277376Y-116563500D01*
X125182138Y-116515880D01*
X124991661Y-116515880D01*
X124896423Y-116563500D01*
X124848804Y-116611119D01*
X124801185Y-116706357D01*
X124801185Y-116944452D01*
X124848804Y-117039690D01*
X124896423Y-117087309D01*
X124991661Y-117134928D01*
X125182138Y-117134928D01*
X125277376Y-117087309D01*
X125324995Y-117039690D01*
X125372614Y-116944452D01*
G04 #@! TO.C,R14*
X118087380Y-95334157D02*
X117611190Y-95667490D01*
X118087380Y-95905585D02*
X117087380Y-95905585D01*
X117087380Y-95524633D01*
X117135000Y-95429395D01*
X117182619Y-95381776D01*
X117277857Y-95334157D01*
X117420714Y-95334157D01*
X117515952Y-95381776D01*
X117563571Y-95429395D01*
X117611190Y-95524633D01*
X117611190Y-95905585D01*
X118087380Y-94381776D02*
X118087380Y-94953204D01*
X118087380Y-94667490D02*
X117087380Y-94667490D01*
X117230238Y-94762728D01*
X117325476Y-94857966D01*
X117373095Y-94953204D01*
X117420714Y-93524633D02*
X118087380Y-93524633D01*
X117039761Y-93762728D02*
X117754047Y-94000823D01*
X117754047Y-93381776D01*
G04 #@! TO.C,R15*
X124424680Y-95333957D02*
X123948490Y-95667290D01*
X124424680Y-95905385D02*
X123424680Y-95905385D01*
X123424680Y-95524433D01*
X123472300Y-95429195D01*
X123519919Y-95381576D01*
X123615157Y-95333957D01*
X123758014Y-95333957D01*
X123853252Y-95381576D01*
X123900871Y-95429195D01*
X123948490Y-95524433D01*
X123948490Y-95905385D01*
X124424680Y-94381576D02*
X124424680Y-94953004D01*
X124424680Y-94667290D02*
X123424680Y-94667290D01*
X123567538Y-94762528D01*
X123662776Y-94857766D01*
X123710395Y-94953004D01*
X123424680Y-93476814D02*
X123424680Y-93953004D01*
X123900871Y-94000623D01*
X123853252Y-93953004D01*
X123805633Y-93857766D01*
X123805633Y-93619671D01*
X123853252Y-93524433D01*
X123900871Y-93476814D01*
X123996109Y-93429195D01*
X124234204Y-93429195D01*
X124329442Y-93476814D01*
X124377061Y-93524433D01*
X124424680Y-93619671D01*
X124424680Y-93857766D01*
X124377061Y-93953004D01*
X124329442Y-94000623D01*
G04 #@! TO.C,R16*
X143476642Y-48084980D02*
X143143309Y-47608790D01*
X142905214Y-48084980D02*
X142905214Y-47084980D01*
X143286166Y-47084980D01*
X143381404Y-47132600D01*
X143429023Y-47180219D01*
X143476642Y-47275457D01*
X143476642Y-47418314D01*
X143429023Y-47513552D01*
X143381404Y-47561171D01*
X143286166Y-47608790D01*
X142905214Y-47608790D01*
X144429023Y-48084980D02*
X143857595Y-48084980D01*
X144143309Y-48084980D02*
X144143309Y-47084980D01*
X144048071Y-47227838D01*
X143952833Y-47323076D01*
X143857595Y-47370695D01*
X145286166Y-47084980D02*
X145095690Y-47084980D01*
X145000452Y-47132600D01*
X144952833Y-47180219D01*
X144857595Y-47323076D01*
X144809976Y-47513552D01*
X144809976Y-47894504D01*
X144857595Y-47989742D01*
X144905214Y-48037361D01*
X145000452Y-48084980D01*
X145190928Y-48084980D01*
X145286166Y-48037361D01*
X145333785Y-47989742D01*
X145381404Y-47894504D01*
X145381404Y-47656409D01*
X145333785Y-47561171D01*
X145286166Y-47513552D01*
X145190928Y-47465933D01*
X145000452Y-47465933D01*
X144905214Y-47513552D01*
X144857595Y-47561171D01*
X144809976Y-47656409D01*
G04 #@! TO.C,R17*
X151808042Y-45174180D02*
X151474709Y-44697990D01*
X151236614Y-45174180D02*
X151236614Y-44174180D01*
X151617566Y-44174180D01*
X151712804Y-44221800D01*
X151760423Y-44269419D01*
X151808042Y-44364657D01*
X151808042Y-44507514D01*
X151760423Y-44602752D01*
X151712804Y-44650371D01*
X151617566Y-44697990D01*
X151236614Y-44697990D01*
X152760423Y-45174180D02*
X152188995Y-45174180D01*
X152474709Y-45174180D02*
X152474709Y-44174180D01*
X152379471Y-44317038D01*
X152284233Y-44412276D01*
X152188995Y-44459895D01*
X153093757Y-44174180D02*
X153760423Y-44174180D01*
X153331852Y-45174180D01*
G04 #@! TO.C,R18*
X154982842Y-48034180D02*
X154649509Y-47557990D01*
X154411414Y-48034180D02*
X154411414Y-47034180D01*
X154792366Y-47034180D01*
X154887604Y-47081800D01*
X154935223Y-47129419D01*
X154982842Y-47224657D01*
X154982842Y-47367514D01*
X154935223Y-47462752D01*
X154887604Y-47510371D01*
X154792366Y-47557990D01*
X154411414Y-47557990D01*
X155935223Y-48034180D02*
X155363795Y-48034180D01*
X155649509Y-48034180D02*
X155649509Y-47034180D01*
X155554271Y-47177038D01*
X155459033Y-47272276D01*
X155363795Y-47319895D01*
X156506652Y-47462752D02*
X156411414Y-47415133D01*
X156363795Y-47367514D01*
X156316176Y-47272276D01*
X156316176Y-47224657D01*
X156363795Y-47129419D01*
X156411414Y-47081800D01*
X156506652Y-47034180D01*
X156697128Y-47034180D01*
X156792366Y-47081800D01*
X156839985Y-47129419D01*
X156887604Y-47224657D01*
X156887604Y-47272276D01*
X156839985Y-47367514D01*
X156792366Y-47415133D01*
X156697128Y-47462752D01*
X156506652Y-47462752D01*
X156411414Y-47510371D01*
X156363795Y-47557990D01*
X156316176Y-47653228D01*
X156316176Y-47843704D01*
X156363795Y-47938942D01*
X156411414Y-47986561D01*
X156506652Y-48034180D01*
X156697128Y-48034180D01*
X156792366Y-47986561D01*
X156839985Y-47938942D01*
X156887604Y-47843704D01*
X156887604Y-47653228D01*
X156839985Y-47557990D01*
X156792366Y-47510371D01*
X156697128Y-47462752D01*
G04 #@! TO.C,R19*
X156451480Y-58427857D02*
X155975290Y-58761190D01*
X156451480Y-58999285D02*
X155451480Y-58999285D01*
X155451480Y-58618333D01*
X155499100Y-58523095D01*
X155546719Y-58475476D01*
X155641957Y-58427857D01*
X155784814Y-58427857D01*
X155880052Y-58475476D01*
X155927671Y-58523095D01*
X155975290Y-58618333D01*
X155975290Y-58999285D01*
X156451480Y-57475476D02*
X156451480Y-58046904D01*
X156451480Y-57761190D02*
X155451480Y-57761190D01*
X155594338Y-57856428D01*
X155689576Y-57951666D01*
X155737195Y-58046904D01*
X156451480Y-56999285D02*
X156451480Y-56808809D01*
X156403861Y-56713571D01*
X156356242Y-56665952D01*
X156213385Y-56570714D01*
X156022909Y-56523095D01*
X155641957Y-56523095D01*
X155546719Y-56570714D01*
X155499100Y-56618333D01*
X155451480Y-56713571D01*
X155451480Y-56904047D01*
X155499100Y-56999285D01*
X155546719Y-57046904D01*
X155641957Y-57094523D01*
X155880052Y-57094523D01*
X155975290Y-57046904D01*
X156022909Y-56999285D01*
X156070528Y-56904047D01*
X156070528Y-56713571D01*
X156022909Y-56618333D01*
X155975290Y-56570714D01*
X155880052Y-56523095D01*
G04 #@! TO.C,R20*
X172280242Y-67592180D02*
X171946909Y-67115990D01*
X171708814Y-67592180D02*
X171708814Y-66592180D01*
X172089766Y-66592180D01*
X172185004Y-66639800D01*
X172232623Y-66687419D01*
X172280242Y-66782657D01*
X172280242Y-66925514D01*
X172232623Y-67020752D01*
X172185004Y-67068371D01*
X172089766Y-67115990D01*
X171708814Y-67115990D01*
X172661195Y-66687419D02*
X172708814Y-66639800D01*
X172804052Y-66592180D01*
X173042147Y-66592180D01*
X173137385Y-66639800D01*
X173185004Y-66687419D01*
X173232623Y-66782657D01*
X173232623Y-66877895D01*
X173185004Y-67020752D01*
X172613576Y-67592180D01*
X173232623Y-67592180D01*
X173851671Y-66592180D02*
X173946909Y-66592180D01*
X174042147Y-66639800D01*
X174089766Y-66687419D01*
X174137385Y-66782657D01*
X174185004Y-66973133D01*
X174185004Y-67211228D01*
X174137385Y-67401704D01*
X174089766Y-67496942D01*
X174042147Y-67544561D01*
X173946909Y-67592180D01*
X173851671Y-67592180D01*
X173756433Y-67544561D01*
X173708814Y-67496942D01*
X173661195Y-67401704D01*
X173613576Y-67211228D01*
X173613576Y-66973133D01*
X173661195Y-66782657D01*
X173708814Y-66687419D01*
X173756433Y-66639800D01*
X173851671Y-66592180D01*
G04 #@! TO.C,R21*
X172280242Y-69217780D02*
X171946909Y-68741590D01*
X171708814Y-69217780D02*
X171708814Y-68217780D01*
X172089766Y-68217780D01*
X172185004Y-68265400D01*
X172232623Y-68313019D01*
X172280242Y-68408257D01*
X172280242Y-68551114D01*
X172232623Y-68646352D01*
X172185004Y-68693971D01*
X172089766Y-68741590D01*
X171708814Y-68741590D01*
X172661195Y-68313019D02*
X172708814Y-68265400D01*
X172804052Y-68217780D01*
X173042147Y-68217780D01*
X173137385Y-68265400D01*
X173185004Y-68313019D01*
X173232623Y-68408257D01*
X173232623Y-68503495D01*
X173185004Y-68646352D01*
X172613576Y-69217780D01*
X173232623Y-69217780D01*
X174185004Y-69217780D02*
X173613576Y-69217780D01*
X173899290Y-69217780D02*
X173899290Y-68217780D01*
X173804052Y-68360638D01*
X173708814Y-68455876D01*
X173613576Y-68503495D01*
G04 #@! TO.C,SW1*
X179095743Y-119498705D02*
X179238068Y-119449517D01*
X179426962Y-119304574D01*
X179473531Y-119208818D01*
X179482321Y-119142051D01*
X179462122Y-119037505D01*
X179404145Y-118961947D01*
X179308389Y-118915378D01*
X179241622Y-118906588D01*
X179137076Y-118926787D01*
X178956972Y-119004963D01*
X178852426Y-119025161D01*
X178785659Y-119016371D01*
X178689903Y-118969802D01*
X178631925Y-118894245D01*
X178611727Y-118789699D01*
X178620517Y-118722931D01*
X178667086Y-118627175D01*
X178855979Y-118482232D01*
X178998304Y-118433045D01*
X179233767Y-118192346D02*
X180031422Y-118840756D01*
X179747707Y-118158120D01*
X180333651Y-118608847D01*
X179913784Y-117670550D01*
X181240341Y-117913120D02*
X180786996Y-118260983D01*
X181013669Y-118087051D02*
X180404907Y-117293698D01*
X180416316Y-117465012D01*
X180398735Y-117598546D01*
X180352167Y-117694302D01*
G04 #@! TO.C,U2*
X181965695Y-95875180D02*
X181965695Y-96684704D01*
X182013314Y-96779942D01*
X182060933Y-96827561D01*
X182156171Y-96875180D01*
X182346647Y-96875180D01*
X182441885Y-96827561D01*
X182489504Y-96779942D01*
X182537123Y-96684704D01*
X182537123Y-95875180D01*
X182965695Y-95970419D02*
X183013314Y-95922800D01*
X183108552Y-95875180D01*
X183346647Y-95875180D01*
X183441885Y-95922800D01*
X183489504Y-95970419D01*
X183537123Y-96065657D01*
X183537123Y-96160895D01*
X183489504Y-96303752D01*
X182918076Y-96875180D01*
X183537123Y-96875180D01*
G04 #@! TO.C,U3*
X141477380Y-120192704D02*
X142286904Y-120192704D01*
X142382142Y-120145085D01*
X142429761Y-120097466D01*
X142477380Y-120002228D01*
X142477380Y-119811752D01*
X142429761Y-119716514D01*
X142382142Y-119668895D01*
X142286904Y-119621276D01*
X141477380Y-119621276D01*
X141477380Y-119240323D02*
X141477380Y-118621276D01*
X141858333Y-118954609D01*
X141858333Y-118811752D01*
X141905952Y-118716514D01*
X141953571Y-118668895D01*
X142048809Y-118621276D01*
X142286904Y-118621276D01*
X142382142Y-118668895D01*
X142429761Y-118716514D01*
X142477380Y-118811752D01*
X142477380Y-119097466D01*
X142429761Y-119192704D01*
X142382142Y-119240323D01*
G04 #@! TO.C,R22*
X188993542Y-105107980D02*
X188660209Y-104631790D01*
X188422114Y-105107980D02*
X188422114Y-104107980D01*
X188803066Y-104107980D01*
X188898304Y-104155600D01*
X188945923Y-104203219D01*
X188993542Y-104298457D01*
X188993542Y-104441314D01*
X188945923Y-104536552D01*
X188898304Y-104584171D01*
X188803066Y-104631790D01*
X188422114Y-104631790D01*
X189374495Y-104203219D02*
X189422114Y-104155600D01*
X189517352Y-104107980D01*
X189755447Y-104107980D01*
X189850685Y-104155600D01*
X189898304Y-104203219D01*
X189945923Y-104298457D01*
X189945923Y-104393695D01*
X189898304Y-104536552D01*
X189326876Y-105107980D01*
X189945923Y-105107980D01*
X190326876Y-104203219D02*
X190374495Y-104155600D01*
X190469733Y-104107980D01*
X190707828Y-104107980D01*
X190803066Y-104155600D01*
X190850685Y-104203219D01*
X190898304Y-104298457D01*
X190898304Y-104393695D01*
X190850685Y-104536552D01*
X190279257Y-105107980D01*
X190898304Y-105107980D01*
G04 #@! TO.C,R23*
X185966380Y-103106457D02*
X185490190Y-103439790D01*
X185966380Y-103677885D02*
X184966380Y-103677885D01*
X184966380Y-103296933D01*
X185014000Y-103201695D01*
X185061619Y-103154076D01*
X185156857Y-103106457D01*
X185299714Y-103106457D01*
X185394952Y-103154076D01*
X185442571Y-103201695D01*
X185490190Y-103296933D01*
X185490190Y-103677885D01*
X185061619Y-102725504D02*
X185014000Y-102677885D01*
X184966380Y-102582647D01*
X184966380Y-102344552D01*
X185014000Y-102249314D01*
X185061619Y-102201695D01*
X185156857Y-102154076D01*
X185252095Y-102154076D01*
X185394952Y-102201695D01*
X185966380Y-102773123D01*
X185966380Y-102154076D01*
X184966380Y-101820742D02*
X184966380Y-101201695D01*
X185347333Y-101535028D01*
X185347333Y-101392171D01*
X185394952Y-101296933D01*
X185442571Y-101249314D01*
X185537809Y-101201695D01*
X185775904Y-101201695D01*
X185871142Y-101249314D01*
X185918761Y-101296933D01*
X185966380Y-101392171D01*
X185966380Y-101677885D01*
X185918761Y-101773123D01*
X185871142Y-101820742D01*
G04 #@! TO.C,C21*
X159051342Y-118562357D02*
X159098961Y-118609976D01*
X159146580Y-118752833D01*
X159146580Y-118848071D01*
X159098961Y-118990928D01*
X159003723Y-119086166D01*
X158908485Y-119133785D01*
X158718009Y-119181404D01*
X158575152Y-119181404D01*
X158384676Y-119133785D01*
X158289438Y-119086166D01*
X158194200Y-118990928D01*
X158146580Y-118848071D01*
X158146580Y-118752833D01*
X158194200Y-118609976D01*
X158241819Y-118562357D01*
X158241819Y-118181404D02*
X158194200Y-118133785D01*
X158146580Y-118038547D01*
X158146580Y-117800452D01*
X158194200Y-117705214D01*
X158241819Y-117657595D01*
X158337057Y-117609976D01*
X158432295Y-117609976D01*
X158575152Y-117657595D01*
X159146580Y-118229023D01*
X159146580Y-117609976D01*
X159146580Y-116657595D02*
X159146580Y-117229023D01*
X159146580Y-116943309D02*
X158146580Y-116943309D01*
X158289438Y-117038547D01*
X158384676Y-117133785D01*
X158432295Y-117229023D01*
G04 #@! TO.C,C22*
X160625942Y-118549657D02*
X160673561Y-118597276D01*
X160721180Y-118740133D01*
X160721180Y-118835371D01*
X160673561Y-118978228D01*
X160578323Y-119073466D01*
X160483085Y-119121085D01*
X160292609Y-119168704D01*
X160149752Y-119168704D01*
X159959276Y-119121085D01*
X159864038Y-119073466D01*
X159768800Y-118978228D01*
X159721180Y-118835371D01*
X159721180Y-118740133D01*
X159768800Y-118597276D01*
X159816419Y-118549657D01*
X159816419Y-118168704D02*
X159768800Y-118121085D01*
X159721180Y-118025847D01*
X159721180Y-117787752D01*
X159768800Y-117692514D01*
X159816419Y-117644895D01*
X159911657Y-117597276D01*
X160006895Y-117597276D01*
X160149752Y-117644895D01*
X160721180Y-118216323D01*
X160721180Y-117597276D01*
X159816419Y-117216323D02*
X159768800Y-117168704D01*
X159721180Y-117073466D01*
X159721180Y-116835371D01*
X159768800Y-116740133D01*
X159816419Y-116692514D01*
X159911657Y-116644895D01*
X160006895Y-116644895D01*
X160149752Y-116692514D01*
X160721180Y-117263942D01*
X160721180Y-116644895D01*
G04 #@! TO.C,C23*
X156267442Y-114625257D02*
X156315061Y-114672876D01*
X156362680Y-114815733D01*
X156362680Y-114910971D01*
X156315061Y-115053828D01*
X156219823Y-115149066D01*
X156124585Y-115196685D01*
X155934109Y-115244304D01*
X155791252Y-115244304D01*
X155600776Y-115196685D01*
X155505538Y-115149066D01*
X155410300Y-115053828D01*
X155362680Y-114910971D01*
X155362680Y-114815733D01*
X155410300Y-114672876D01*
X155457919Y-114625257D01*
X155457919Y-114244304D02*
X155410300Y-114196685D01*
X155362680Y-114101447D01*
X155362680Y-113863352D01*
X155410300Y-113768114D01*
X155457919Y-113720495D01*
X155553157Y-113672876D01*
X155648395Y-113672876D01*
X155791252Y-113720495D01*
X156362680Y-114291923D01*
X156362680Y-113672876D01*
X155362680Y-113339542D02*
X155362680Y-112720495D01*
X155743633Y-113053828D01*
X155743633Y-112910971D01*
X155791252Y-112815733D01*
X155838871Y-112768114D01*
X155934109Y-112720495D01*
X156172204Y-112720495D01*
X156267442Y-112768114D01*
X156315061Y-112815733D01*
X156362680Y-112910971D01*
X156362680Y-113196685D01*
X156315061Y-113291923D01*
X156267442Y-113339542D01*
G04 #@! TO.C,C24*
X157816842Y-114625457D02*
X157864461Y-114673076D01*
X157912080Y-114815933D01*
X157912080Y-114911171D01*
X157864461Y-115054028D01*
X157769223Y-115149266D01*
X157673985Y-115196885D01*
X157483509Y-115244504D01*
X157340652Y-115244504D01*
X157150176Y-115196885D01*
X157054938Y-115149266D01*
X156959700Y-115054028D01*
X156912080Y-114911171D01*
X156912080Y-114815933D01*
X156959700Y-114673076D01*
X157007319Y-114625457D01*
X157007319Y-114244504D02*
X156959700Y-114196885D01*
X156912080Y-114101647D01*
X156912080Y-113863552D01*
X156959700Y-113768314D01*
X157007319Y-113720695D01*
X157102557Y-113673076D01*
X157197795Y-113673076D01*
X157340652Y-113720695D01*
X157912080Y-114292123D01*
X157912080Y-113673076D01*
X157245414Y-112815933D02*
X157912080Y-112815933D01*
X156864461Y-113054028D02*
X157578747Y-113292123D01*
X157578747Y-112673076D01*
G04 #@! TO.C,C25*
X143176142Y-119527557D02*
X143223761Y-119575176D01*
X143271380Y-119718033D01*
X143271380Y-119813271D01*
X143223761Y-119956128D01*
X143128523Y-120051366D01*
X143033285Y-120098985D01*
X142842809Y-120146604D01*
X142699952Y-120146604D01*
X142509476Y-120098985D01*
X142414238Y-120051366D01*
X142319000Y-119956128D01*
X142271380Y-119813271D01*
X142271380Y-119718033D01*
X142319000Y-119575176D01*
X142366619Y-119527557D01*
X142366619Y-119146604D02*
X142319000Y-119098985D01*
X142271380Y-119003747D01*
X142271380Y-118765652D01*
X142319000Y-118670414D01*
X142366619Y-118622795D01*
X142461857Y-118575176D01*
X142557095Y-118575176D01*
X142699952Y-118622795D01*
X143271380Y-119194223D01*
X143271380Y-118575176D01*
X142271380Y-117670414D02*
X142271380Y-118146604D01*
X142747571Y-118194223D01*
X142699952Y-118146604D01*
X142652333Y-118051366D01*
X142652333Y-117813271D01*
X142699952Y-117718033D01*
X142747571Y-117670414D01*
X142842809Y-117622795D01*
X143080904Y-117622795D01*
X143176142Y-117670414D01*
X143223761Y-117718033D01*
X143271380Y-117813271D01*
X143271380Y-118051366D01*
X143223761Y-118146604D01*
X143176142Y-118194223D01*
G04 #@! TO.C,C26*
X141563242Y-119540257D02*
X141610861Y-119587876D01*
X141658480Y-119730733D01*
X141658480Y-119825971D01*
X141610861Y-119968828D01*
X141515623Y-120064066D01*
X141420385Y-120111685D01*
X141229909Y-120159304D01*
X141087052Y-120159304D01*
X140896576Y-120111685D01*
X140801338Y-120064066D01*
X140706100Y-119968828D01*
X140658480Y-119825971D01*
X140658480Y-119730733D01*
X140706100Y-119587876D01*
X140753719Y-119540257D01*
X140753719Y-119159304D02*
X140706100Y-119111685D01*
X140658480Y-119016447D01*
X140658480Y-118778352D01*
X140706100Y-118683114D01*
X140753719Y-118635495D01*
X140848957Y-118587876D01*
X140944195Y-118587876D01*
X141087052Y-118635495D01*
X141658480Y-119206923D01*
X141658480Y-118587876D01*
X140658480Y-117730733D02*
X140658480Y-117921209D01*
X140706100Y-118016447D01*
X140753719Y-118064066D01*
X140896576Y-118159304D01*
X141087052Y-118206923D01*
X141468004Y-118206923D01*
X141563242Y-118159304D01*
X141610861Y-118111685D01*
X141658480Y-118016447D01*
X141658480Y-117825971D01*
X141610861Y-117730733D01*
X141563242Y-117683114D01*
X141468004Y-117635495D01*
X141229909Y-117635495D01*
X141134671Y-117683114D01*
X141087052Y-117730733D01*
X141039433Y-117825971D01*
X141039433Y-118016447D01*
X141087052Y-118111685D01*
X141134671Y-118159304D01*
X141229909Y-118206923D01*
G04 #@! TD*
M02*
