G04 #@! TF.GenerationSoftware,KiCad,Pcbnew,6.0.0-rc1-unknown-3eb3db0~66~ubuntu18.04.1*
G04 #@! TF.CreationDate,2018-08-09T16:50:38-07:00*
G04 #@! TF.ProjectId,main_board_onion,6D61696E5F626F6172645F6F6E696F6E,rev?*
G04 #@! TF.SameCoordinates,Original*
G04 #@! TF.FileFunction,Soldermask,Bot*
G04 #@! TF.FilePolarity,Negative*
%FSLAX46Y46*%
G04 Gerber Fmt 4.6, Leading zero omitted, Abs format (unit mm)*
G04 Created by KiCad (PCBNEW 6.0.0-rc1-unknown-3eb3db0~66~ubuntu18.04.1) date Thu Aug  9 16:50:38 2018*
%MOMM*%
%LPD*%
G01*
G04 APERTURE LIST*
%ADD10C,0.100000*%
%ADD11C,1.900000*%
%ADD12C,0.700000*%
%ADD13C,0.800000*%
%ADD14C,1.275000*%
%ADD15O,3.100000X3.700000*%
%ADD16R,3.100000X3.700000*%
%ADD17R,2.100000X2.100000*%
%ADD18O,2.100000X2.100000*%
%ADD19C,6.800000*%
%ADD20C,1.140000*%
%ADD21C,1.650000*%
%ADD22C,1.000000*%
%ADD23C,1.850000*%
%ADD24C,1.600000*%
%ADD25C,1.600000*%
%ADD26C,1.375000*%
%ADD27R,1.750000X1.750000*%
%ADD28C,1.300000*%
%ADD29R,1.000000X1.900000*%
%ADD30R,1.400000X2.200000*%
G04 APERTURE END LIST*
D10*
G04 #@! TO.C,U1*
G36*
X179800787Y-86980674D02*
X179806320Y-86981495D01*
X179811746Y-86982854D01*
X179817013Y-86984739D01*
X179822070Y-86987130D01*
X179826868Y-86990006D01*
X179831360Y-86993338D01*
X179835505Y-86997095D01*
X179839262Y-87001240D01*
X179842594Y-87005732D01*
X179845470Y-87010530D01*
X179847861Y-87015587D01*
X179849746Y-87020854D01*
X179851105Y-87026280D01*
X179851926Y-87031813D01*
X179852200Y-87037400D01*
X179852200Y-88823400D01*
X179851926Y-88828987D01*
X179851105Y-88834520D01*
X179849746Y-88839946D01*
X179847861Y-88845213D01*
X179845470Y-88850270D01*
X179842594Y-88855068D01*
X179839262Y-88859560D01*
X179835505Y-88863705D01*
X179831360Y-88867462D01*
X179826868Y-88870794D01*
X179822070Y-88873670D01*
X179817013Y-88876061D01*
X179811746Y-88877946D01*
X179806320Y-88879305D01*
X179800787Y-88880126D01*
X179795200Y-88880400D01*
X176959200Y-88880400D01*
X176953613Y-88880126D01*
X176948080Y-88879305D01*
X176942654Y-88877946D01*
X176937387Y-88876061D01*
X176932330Y-88873670D01*
X176927532Y-88870794D01*
X176923040Y-88867462D01*
X176918895Y-88863705D01*
X176915138Y-88859560D01*
X176911806Y-88855068D01*
X176908930Y-88850270D01*
X176906539Y-88845213D01*
X176904654Y-88839946D01*
X176903295Y-88834520D01*
X176902474Y-88828987D01*
X176902200Y-88823400D01*
X176902200Y-87037400D01*
X176902474Y-87031813D01*
X176903295Y-87026280D01*
X176904654Y-87020854D01*
X176906539Y-87015587D01*
X176908930Y-87010530D01*
X176911806Y-87005732D01*
X176915138Y-87001240D01*
X176918895Y-86997095D01*
X176923040Y-86993338D01*
X176927532Y-86990006D01*
X176932330Y-86987130D01*
X176937387Y-86984739D01*
X176942654Y-86982854D01*
X176948080Y-86981495D01*
X176953613Y-86980674D01*
X176959200Y-86980400D01*
X179795200Y-86980400D01*
X179800787Y-86980674D01*
X179800787Y-86980674D01*
G37*
D11*
X178377200Y-87930400D03*
D10*
G36*
X179800787Y-89880674D02*
X179806320Y-89881495D01*
X179811746Y-89882854D01*
X179817013Y-89884739D01*
X179822070Y-89887130D01*
X179826868Y-89890006D01*
X179831360Y-89893338D01*
X179835505Y-89897095D01*
X179839262Y-89901240D01*
X179842594Y-89905732D01*
X179845470Y-89910530D01*
X179847861Y-89915587D01*
X179849746Y-89920854D01*
X179851105Y-89926280D01*
X179851926Y-89931813D01*
X179852200Y-89937400D01*
X179852200Y-91723400D01*
X179851926Y-91728987D01*
X179851105Y-91734520D01*
X179849746Y-91739946D01*
X179847861Y-91745213D01*
X179845470Y-91750270D01*
X179842594Y-91755068D01*
X179839262Y-91759560D01*
X179835505Y-91763705D01*
X179831360Y-91767462D01*
X179826868Y-91770794D01*
X179822070Y-91773670D01*
X179817013Y-91776061D01*
X179811746Y-91777946D01*
X179806320Y-91779305D01*
X179800787Y-91780126D01*
X179795200Y-91780400D01*
X176959200Y-91780400D01*
X176953613Y-91780126D01*
X176948080Y-91779305D01*
X176942654Y-91777946D01*
X176937387Y-91776061D01*
X176932330Y-91773670D01*
X176927532Y-91770794D01*
X176923040Y-91767462D01*
X176918895Y-91763705D01*
X176915138Y-91759560D01*
X176911806Y-91755068D01*
X176908930Y-91750270D01*
X176906539Y-91745213D01*
X176904654Y-91739946D01*
X176903295Y-91734520D01*
X176902474Y-91728987D01*
X176902200Y-91723400D01*
X176902200Y-89937400D01*
X176902474Y-89931813D01*
X176903295Y-89926280D01*
X176904654Y-89920854D01*
X176906539Y-89915587D01*
X176908930Y-89910530D01*
X176911806Y-89905732D01*
X176915138Y-89901240D01*
X176918895Y-89897095D01*
X176923040Y-89893338D01*
X176927532Y-89890006D01*
X176932330Y-89887130D01*
X176937387Y-89884739D01*
X176942654Y-89882854D01*
X176948080Y-89881495D01*
X176953613Y-89880674D01*
X176959200Y-89880400D01*
X179795200Y-89880400D01*
X179800787Y-89880674D01*
X179800787Y-89880674D01*
G37*
D11*
X178377200Y-90830400D03*
D10*
G36*
X181682492Y-86980906D02*
X181692684Y-86982418D01*
X181702680Y-86984921D01*
X181712382Y-86988393D01*
X181721697Y-86992798D01*
X181730535Y-86998096D01*
X181738811Y-87004234D01*
X181746446Y-87011154D01*
X181753366Y-87018789D01*
X181759504Y-87027065D01*
X181764802Y-87035903D01*
X181769207Y-87045218D01*
X181772679Y-87054920D01*
X181775182Y-87064916D01*
X181776694Y-87075108D01*
X181777200Y-87085400D01*
X181777200Y-87975400D01*
X181776694Y-87985692D01*
X181775182Y-87995884D01*
X181772679Y-88005880D01*
X181769207Y-88015582D01*
X181764802Y-88024897D01*
X181759504Y-88033735D01*
X181753366Y-88042011D01*
X181746446Y-88049646D01*
X181738811Y-88056566D01*
X181730535Y-88062704D01*
X181721697Y-88068002D01*
X181712382Y-88072407D01*
X181702680Y-88075879D01*
X181692684Y-88078382D01*
X181682492Y-88079894D01*
X181672200Y-88080400D01*
X181182200Y-88080400D01*
X181171908Y-88079894D01*
X181161716Y-88078382D01*
X181151720Y-88075879D01*
X181142018Y-88072407D01*
X181132703Y-88068002D01*
X181123865Y-88062704D01*
X181115589Y-88056566D01*
X181107954Y-88049646D01*
X181101034Y-88042011D01*
X181094896Y-88033735D01*
X181089598Y-88024897D01*
X181085193Y-88015582D01*
X181081721Y-88005880D01*
X181079218Y-87995884D01*
X181077706Y-87985692D01*
X181077200Y-87975400D01*
X181077200Y-87085400D01*
X181077706Y-87075108D01*
X181079218Y-87064916D01*
X181081721Y-87054920D01*
X181085193Y-87045218D01*
X181089598Y-87035903D01*
X181094896Y-87027065D01*
X181101034Y-87018789D01*
X181107954Y-87011154D01*
X181115589Y-87004234D01*
X181123865Y-86998096D01*
X181132703Y-86992798D01*
X181142018Y-86988393D01*
X181151720Y-86984921D01*
X181161716Y-86982418D01*
X181171908Y-86980906D01*
X181182200Y-86980400D01*
X181672200Y-86980400D01*
X181682492Y-86980906D01*
X181682492Y-86980906D01*
G37*
D12*
X181427200Y-87530400D03*
D10*
G36*
X182082492Y-88180906D02*
X182092684Y-88182418D01*
X182102680Y-88184921D01*
X182112382Y-88188393D01*
X182121697Y-88192798D01*
X182130535Y-88198096D01*
X182138811Y-88204234D01*
X182146446Y-88211154D01*
X182153366Y-88218789D01*
X182159504Y-88227065D01*
X182164802Y-88235903D01*
X182169207Y-88245218D01*
X182172679Y-88254920D01*
X182175182Y-88264916D01*
X182176694Y-88275108D01*
X182177200Y-88285400D01*
X182177200Y-88775400D01*
X182176694Y-88785692D01*
X182175182Y-88795884D01*
X182172679Y-88805880D01*
X182169207Y-88815582D01*
X182164802Y-88824897D01*
X182159504Y-88833735D01*
X182153366Y-88842011D01*
X182146446Y-88849646D01*
X182138811Y-88856566D01*
X182130535Y-88862704D01*
X182121697Y-88868002D01*
X182112382Y-88872407D01*
X182102680Y-88875879D01*
X182092684Y-88878382D01*
X182082492Y-88879894D01*
X182072200Y-88880400D01*
X181182200Y-88880400D01*
X181171908Y-88879894D01*
X181161716Y-88878382D01*
X181151720Y-88875879D01*
X181142018Y-88872407D01*
X181132703Y-88868002D01*
X181123865Y-88862704D01*
X181115589Y-88856566D01*
X181107954Y-88849646D01*
X181101034Y-88842011D01*
X181094896Y-88833735D01*
X181089598Y-88824897D01*
X181085193Y-88815582D01*
X181081721Y-88805880D01*
X181079218Y-88795884D01*
X181077706Y-88785692D01*
X181077200Y-88775400D01*
X181077200Y-88285400D01*
X181077706Y-88275108D01*
X181079218Y-88264916D01*
X181081721Y-88254920D01*
X181085193Y-88245218D01*
X181089598Y-88235903D01*
X181094896Y-88227065D01*
X181101034Y-88218789D01*
X181107954Y-88211154D01*
X181115589Y-88204234D01*
X181123865Y-88198096D01*
X181132703Y-88192798D01*
X181142018Y-88188393D01*
X181151720Y-88184921D01*
X181161716Y-88182418D01*
X181171908Y-88180906D01*
X181182200Y-88180400D01*
X182072200Y-88180400D01*
X182082492Y-88180906D01*
X182082492Y-88180906D01*
G37*
D12*
X181627200Y-88530400D03*
D10*
G36*
X180890610Y-86980862D02*
X180899929Y-86982245D01*
X180909067Y-86984534D01*
X180917938Y-86987708D01*
X180926454Y-86991736D01*
X180934535Y-86996579D01*
X180942102Y-87002191D01*
X180949082Y-87008518D01*
X180955409Y-87015498D01*
X180961021Y-87023065D01*
X180965864Y-87031146D01*
X180969892Y-87039662D01*
X180973066Y-87048533D01*
X180975355Y-87057671D01*
X180976738Y-87066990D01*
X180977200Y-87076400D01*
X180977200Y-88284400D01*
X180976738Y-88293810D01*
X180975355Y-88303129D01*
X180973066Y-88312267D01*
X180969892Y-88321138D01*
X180965864Y-88329654D01*
X180961021Y-88337735D01*
X180955409Y-88345302D01*
X180949082Y-88352282D01*
X180942102Y-88358609D01*
X180934535Y-88364221D01*
X180926454Y-88369064D01*
X180917938Y-88373092D01*
X180909067Y-88376266D01*
X180899929Y-88378555D01*
X180890610Y-88379938D01*
X180881200Y-88380400D01*
X180273200Y-88380400D01*
X180263790Y-88379938D01*
X180254471Y-88378555D01*
X180245333Y-88376266D01*
X180236462Y-88373092D01*
X180227946Y-88369064D01*
X180219865Y-88364221D01*
X180212298Y-88358609D01*
X180205318Y-88352282D01*
X180198991Y-88345302D01*
X180193379Y-88337735D01*
X180188536Y-88329654D01*
X180184508Y-88321138D01*
X180181334Y-88312267D01*
X180179045Y-88303129D01*
X180177662Y-88293810D01*
X180177200Y-88284400D01*
X180177200Y-87076400D01*
X180177662Y-87066990D01*
X180179045Y-87057671D01*
X180181334Y-87048533D01*
X180184508Y-87039662D01*
X180188536Y-87031146D01*
X180193379Y-87023065D01*
X180198991Y-87015498D01*
X180205318Y-87008518D01*
X180212298Y-87002191D01*
X180219865Y-86996579D01*
X180227946Y-86991736D01*
X180236462Y-86987708D01*
X180245333Y-86984534D01*
X180254471Y-86982245D01*
X180263790Y-86980862D01*
X180273200Y-86980400D01*
X180881200Y-86980400D01*
X180890610Y-86980862D01*
X180890610Y-86980862D01*
G37*
D13*
X180577200Y-87680400D03*
D10*
G36*
X182090610Y-88980862D02*
X182099929Y-88982245D01*
X182109067Y-88984534D01*
X182117938Y-88987708D01*
X182126454Y-88991736D01*
X182134535Y-88996579D01*
X182142102Y-89002191D01*
X182149082Y-89008518D01*
X182155409Y-89015498D01*
X182161021Y-89023065D01*
X182165864Y-89031146D01*
X182169892Y-89039662D01*
X182173066Y-89048533D01*
X182175355Y-89057671D01*
X182176738Y-89066990D01*
X182177200Y-89076400D01*
X182177200Y-89684400D01*
X182176738Y-89693810D01*
X182175355Y-89703129D01*
X182173066Y-89712267D01*
X182169892Y-89721138D01*
X182165864Y-89729654D01*
X182161021Y-89737735D01*
X182155409Y-89745302D01*
X182149082Y-89752282D01*
X182142102Y-89758609D01*
X182134535Y-89764221D01*
X182126454Y-89769064D01*
X182117938Y-89773092D01*
X182109067Y-89776266D01*
X182099929Y-89778555D01*
X182090610Y-89779938D01*
X182081200Y-89780400D01*
X180873200Y-89780400D01*
X180863790Y-89779938D01*
X180854471Y-89778555D01*
X180845333Y-89776266D01*
X180836462Y-89773092D01*
X180827946Y-89769064D01*
X180819865Y-89764221D01*
X180812298Y-89758609D01*
X180805318Y-89752282D01*
X180798991Y-89745302D01*
X180793379Y-89737735D01*
X180788536Y-89729654D01*
X180784508Y-89721138D01*
X180781334Y-89712267D01*
X180779045Y-89703129D01*
X180777662Y-89693810D01*
X180777200Y-89684400D01*
X180777200Y-89076400D01*
X180777662Y-89066990D01*
X180779045Y-89057671D01*
X180781334Y-89048533D01*
X180784508Y-89039662D01*
X180788536Y-89031146D01*
X180793379Y-89023065D01*
X180798991Y-89015498D01*
X180805318Y-89008518D01*
X180812298Y-89002191D01*
X180819865Y-88996579D01*
X180827946Y-88991736D01*
X180836462Y-88987708D01*
X180845333Y-88984534D01*
X180854471Y-88982245D01*
X180863790Y-88980862D01*
X180873200Y-88980400D01*
X182081200Y-88980400D01*
X182090610Y-88980862D01*
X182090610Y-88980862D01*
G37*
D13*
X181477200Y-89380400D03*
D10*
G36*
X182082492Y-89880906D02*
X182092684Y-89882418D01*
X182102680Y-89884921D01*
X182112382Y-89888393D01*
X182121697Y-89892798D01*
X182130535Y-89898096D01*
X182138811Y-89904234D01*
X182146446Y-89911154D01*
X182153366Y-89918789D01*
X182159504Y-89927065D01*
X182164802Y-89935903D01*
X182169207Y-89945218D01*
X182172679Y-89954920D01*
X182175182Y-89964916D01*
X182176694Y-89975108D01*
X182177200Y-89985400D01*
X182177200Y-90475400D01*
X182176694Y-90485692D01*
X182175182Y-90495884D01*
X182172679Y-90505880D01*
X182169207Y-90515582D01*
X182164802Y-90524897D01*
X182159504Y-90533735D01*
X182153366Y-90542011D01*
X182146446Y-90549646D01*
X182138811Y-90556566D01*
X182130535Y-90562704D01*
X182121697Y-90568002D01*
X182112382Y-90572407D01*
X182102680Y-90575879D01*
X182092684Y-90578382D01*
X182082492Y-90579894D01*
X182072200Y-90580400D01*
X181182200Y-90580400D01*
X181171908Y-90579894D01*
X181161716Y-90578382D01*
X181151720Y-90575879D01*
X181142018Y-90572407D01*
X181132703Y-90568002D01*
X181123865Y-90562704D01*
X181115589Y-90556566D01*
X181107954Y-90549646D01*
X181101034Y-90542011D01*
X181094896Y-90533735D01*
X181089598Y-90524897D01*
X181085193Y-90515582D01*
X181081721Y-90505880D01*
X181079218Y-90495884D01*
X181077706Y-90485692D01*
X181077200Y-90475400D01*
X181077200Y-89985400D01*
X181077706Y-89975108D01*
X181079218Y-89964916D01*
X181081721Y-89954920D01*
X181085193Y-89945218D01*
X181089598Y-89935903D01*
X181094896Y-89927065D01*
X181101034Y-89918789D01*
X181107954Y-89911154D01*
X181115589Y-89904234D01*
X181123865Y-89898096D01*
X181132703Y-89892798D01*
X181142018Y-89888393D01*
X181151720Y-89884921D01*
X181161716Y-89882418D01*
X181171908Y-89880906D01*
X181182200Y-89880400D01*
X182072200Y-89880400D01*
X182082492Y-89880906D01*
X182082492Y-89880906D01*
G37*
D12*
X181627200Y-90230400D03*
D10*
G36*
X180890610Y-90380862D02*
X180899929Y-90382245D01*
X180909067Y-90384534D01*
X180917938Y-90387708D01*
X180926454Y-90391736D01*
X180934535Y-90396579D01*
X180942102Y-90402191D01*
X180949082Y-90408518D01*
X180955409Y-90415498D01*
X180961021Y-90423065D01*
X180965864Y-90431146D01*
X180969892Y-90439662D01*
X180973066Y-90448533D01*
X180975355Y-90457671D01*
X180976738Y-90466990D01*
X180977200Y-90476400D01*
X180977200Y-91684400D01*
X180976738Y-91693810D01*
X180975355Y-91703129D01*
X180973066Y-91712267D01*
X180969892Y-91721138D01*
X180965864Y-91729654D01*
X180961021Y-91737735D01*
X180955409Y-91745302D01*
X180949082Y-91752282D01*
X180942102Y-91758609D01*
X180934535Y-91764221D01*
X180926454Y-91769064D01*
X180917938Y-91773092D01*
X180909067Y-91776266D01*
X180899929Y-91778555D01*
X180890610Y-91779938D01*
X180881200Y-91780400D01*
X180273200Y-91780400D01*
X180263790Y-91779938D01*
X180254471Y-91778555D01*
X180245333Y-91776266D01*
X180236462Y-91773092D01*
X180227946Y-91769064D01*
X180219865Y-91764221D01*
X180212298Y-91758609D01*
X180205318Y-91752282D01*
X180198991Y-91745302D01*
X180193379Y-91737735D01*
X180188536Y-91729654D01*
X180184508Y-91721138D01*
X180181334Y-91712267D01*
X180179045Y-91703129D01*
X180177662Y-91693810D01*
X180177200Y-91684400D01*
X180177200Y-90476400D01*
X180177662Y-90466990D01*
X180179045Y-90457671D01*
X180181334Y-90448533D01*
X180184508Y-90439662D01*
X180188536Y-90431146D01*
X180193379Y-90423065D01*
X180198991Y-90415498D01*
X180205318Y-90408518D01*
X180212298Y-90402191D01*
X180219865Y-90396579D01*
X180227946Y-90391736D01*
X180236462Y-90387708D01*
X180245333Y-90384534D01*
X180254471Y-90382245D01*
X180263790Y-90380862D01*
X180273200Y-90380400D01*
X180881200Y-90380400D01*
X180890610Y-90380862D01*
X180890610Y-90380862D01*
G37*
D13*
X180577200Y-91080400D03*
D10*
G36*
X181682492Y-90680906D02*
X181692684Y-90682418D01*
X181702680Y-90684921D01*
X181712382Y-90688393D01*
X181721697Y-90692798D01*
X181730535Y-90698096D01*
X181738811Y-90704234D01*
X181746446Y-90711154D01*
X181753366Y-90718789D01*
X181759504Y-90727065D01*
X181764802Y-90735903D01*
X181769207Y-90745218D01*
X181772679Y-90754920D01*
X181775182Y-90764916D01*
X181776694Y-90775108D01*
X181777200Y-90785400D01*
X181777200Y-91675400D01*
X181776694Y-91685692D01*
X181775182Y-91695884D01*
X181772679Y-91705880D01*
X181769207Y-91715582D01*
X181764802Y-91724897D01*
X181759504Y-91733735D01*
X181753366Y-91742011D01*
X181746446Y-91749646D01*
X181738811Y-91756566D01*
X181730535Y-91762704D01*
X181721697Y-91768002D01*
X181712382Y-91772407D01*
X181702680Y-91775879D01*
X181692684Y-91778382D01*
X181682492Y-91779894D01*
X181672200Y-91780400D01*
X181182200Y-91780400D01*
X181171908Y-91779894D01*
X181161716Y-91778382D01*
X181151720Y-91775879D01*
X181142018Y-91772407D01*
X181132703Y-91768002D01*
X181123865Y-91762704D01*
X181115589Y-91756566D01*
X181107954Y-91749646D01*
X181101034Y-91742011D01*
X181094896Y-91733735D01*
X181089598Y-91724897D01*
X181085193Y-91715582D01*
X181081721Y-91705880D01*
X181079218Y-91695884D01*
X181077706Y-91685692D01*
X181077200Y-91675400D01*
X181077200Y-90785400D01*
X181077706Y-90775108D01*
X181079218Y-90764916D01*
X181081721Y-90754920D01*
X181085193Y-90745218D01*
X181089598Y-90735903D01*
X181094896Y-90727065D01*
X181101034Y-90718789D01*
X181107954Y-90711154D01*
X181115589Y-90704234D01*
X181123865Y-90698096D01*
X181132703Y-90692798D01*
X181142018Y-90688393D01*
X181151720Y-90684921D01*
X181161716Y-90682418D01*
X181171908Y-90680906D01*
X181182200Y-90680400D01*
X181672200Y-90680400D01*
X181682492Y-90680906D01*
X181682492Y-90680906D01*
G37*
D12*
X181427200Y-91230400D03*
G04 #@! TD*
D10*
G04 #@! TO.C,C3*
G36*
X175901493Y-90296035D02*
X175932435Y-90300625D01*
X175962778Y-90308225D01*
X175992230Y-90318763D01*
X176020508Y-90332138D01*
X176047338Y-90348219D01*
X176072463Y-90366853D01*
X176095640Y-90387860D01*
X176116647Y-90411037D01*
X176135281Y-90436162D01*
X176151362Y-90462992D01*
X176164737Y-90491270D01*
X176175275Y-90520722D01*
X176182875Y-90551065D01*
X176187465Y-90582007D01*
X176189000Y-90613250D01*
X176189000Y-91250750D01*
X176187465Y-91281993D01*
X176182875Y-91312935D01*
X176175275Y-91343278D01*
X176164737Y-91372730D01*
X176151362Y-91401008D01*
X176135281Y-91427838D01*
X176116647Y-91452963D01*
X176095640Y-91476140D01*
X176072463Y-91497147D01*
X176047338Y-91515781D01*
X176020508Y-91531862D01*
X175992230Y-91545237D01*
X175962778Y-91555775D01*
X175932435Y-91563375D01*
X175901493Y-91567965D01*
X175870250Y-91569500D01*
X175157750Y-91569500D01*
X175126507Y-91567965D01*
X175095565Y-91563375D01*
X175065222Y-91555775D01*
X175035770Y-91545237D01*
X175007492Y-91531862D01*
X174980662Y-91515781D01*
X174955537Y-91497147D01*
X174932360Y-91476140D01*
X174911353Y-91452963D01*
X174892719Y-91427838D01*
X174876638Y-91401008D01*
X174863263Y-91372730D01*
X174852725Y-91343278D01*
X174845125Y-91312935D01*
X174840535Y-91281993D01*
X174839000Y-91250750D01*
X174839000Y-90613250D01*
X174840535Y-90582007D01*
X174845125Y-90551065D01*
X174852725Y-90520722D01*
X174863263Y-90491270D01*
X174876638Y-90462992D01*
X174892719Y-90436162D01*
X174911353Y-90411037D01*
X174932360Y-90387860D01*
X174955537Y-90366853D01*
X174980662Y-90348219D01*
X175007492Y-90332138D01*
X175035770Y-90318763D01*
X175065222Y-90308225D01*
X175095565Y-90300625D01*
X175126507Y-90296035D01*
X175157750Y-90294500D01*
X175870250Y-90294500D01*
X175901493Y-90296035D01*
X175901493Y-90296035D01*
G37*
D14*
X175514000Y-90932000D03*
D10*
G36*
X175901493Y-88721035D02*
X175932435Y-88725625D01*
X175962778Y-88733225D01*
X175992230Y-88743763D01*
X176020508Y-88757138D01*
X176047338Y-88773219D01*
X176072463Y-88791853D01*
X176095640Y-88812860D01*
X176116647Y-88836037D01*
X176135281Y-88861162D01*
X176151362Y-88887992D01*
X176164737Y-88916270D01*
X176175275Y-88945722D01*
X176182875Y-88976065D01*
X176187465Y-89007007D01*
X176189000Y-89038250D01*
X176189000Y-89675750D01*
X176187465Y-89706993D01*
X176182875Y-89737935D01*
X176175275Y-89768278D01*
X176164737Y-89797730D01*
X176151362Y-89826008D01*
X176135281Y-89852838D01*
X176116647Y-89877963D01*
X176095640Y-89901140D01*
X176072463Y-89922147D01*
X176047338Y-89940781D01*
X176020508Y-89956862D01*
X175992230Y-89970237D01*
X175962778Y-89980775D01*
X175932435Y-89988375D01*
X175901493Y-89992965D01*
X175870250Y-89994500D01*
X175157750Y-89994500D01*
X175126507Y-89992965D01*
X175095565Y-89988375D01*
X175065222Y-89980775D01*
X175035770Y-89970237D01*
X175007492Y-89956862D01*
X174980662Y-89940781D01*
X174955537Y-89922147D01*
X174932360Y-89901140D01*
X174911353Y-89877963D01*
X174892719Y-89852838D01*
X174876638Y-89826008D01*
X174863263Y-89797730D01*
X174852725Y-89768278D01*
X174845125Y-89737935D01*
X174840535Y-89706993D01*
X174839000Y-89675750D01*
X174839000Y-89038250D01*
X174840535Y-89007007D01*
X174845125Y-88976065D01*
X174852725Y-88945722D01*
X174863263Y-88916270D01*
X174876638Y-88887992D01*
X174892719Y-88861162D01*
X174911353Y-88836037D01*
X174932360Y-88812860D01*
X174955537Y-88791853D01*
X174980662Y-88773219D01*
X175007492Y-88757138D01*
X175035770Y-88743763D01*
X175065222Y-88733225D01*
X175095565Y-88725625D01*
X175126507Y-88721035D01*
X175157750Y-88719500D01*
X175870250Y-88719500D01*
X175901493Y-88721035D01*
X175901493Y-88721035D01*
G37*
D14*
X175514000Y-89357000D03*
G04 #@! TD*
D10*
G04 #@! TO.C,C4*
G36*
X174021893Y-88772035D02*
X174052835Y-88776625D01*
X174083178Y-88784225D01*
X174112630Y-88794763D01*
X174140908Y-88808138D01*
X174167738Y-88824219D01*
X174192863Y-88842853D01*
X174216040Y-88863860D01*
X174237047Y-88887037D01*
X174255681Y-88912162D01*
X174271762Y-88938992D01*
X174285137Y-88967270D01*
X174295675Y-88996722D01*
X174303275Y-89027065D01*
X174307865Y-89058007D01*
X174309400Y-89089250D01*
X174309400Y-89726750D01*
X174307865Y-89757993D01*
X174303275Y-89788935D01*
X174295675Y-89819278D01*
X174285137Y-89848730D01*
X174271762Y-89877008D01*
X174255681Y-89903838D01*
X174237047Y-89928963D01*
X174216040Y-89952140D01*
X174192863Y-89973147D01*
X174167738Y-89991781D01*
X174140908Y-90007862D01*
X174112630Y-90021237D01*
X174083178Y-90031775D01*
X174052835Y-90039375D01*
X174021893Y-90043965D01*
X173990650Y-90045500D01*
X173278150Y-90045500D01*
X173246907Y-90043965D01*
X173215965Y-90039375D01*
X173185622Y-90031775D01*
X173156170Y-90021237D01*
X173127892Y-90007862D01*
X173101062Y-89991781D01*
X173075937Y-89973147D01*
X173052760Y-89952140D01*
X173031753Y-89928963D01*
X173013119Y-89903838D01*
X172997038Y-89877008D01*
X172983663Y-89848730D01*
X172973125Y-89819278D01*
X172965525Y-89788935D01*
X172960935Y-89757993D01*
X172959400Y-89726750D01*
X172959400Y-89089250D01*
X172960935Y-89058007D01*
X172965525Y-89027065D01*
X172973125Y-88996722D01*
X172983663Y-88967270D01*
X172997038Y-88938992D01*
X173013119Y-88912162D01*
X173031753Y-88887037D01*
X173052760Y-88863860D01*
X173075937Y-88842853D01*
X173101062Y-88824219D01*
X173127892Y-88808138D01*
X173156170Y-88794763D01*
X173185622Y-88784225D01*
X173215965Y-88776625D01*
X173246907Y-88772035D01*
X173278150Y-88770500D01*
X173990650Y-88770500D01*
X174021893Y-88772035D01*
X174021893Y-88772035D01*
G37*
D14*
X173634400Y-89408000D03*
D10*
G36*
X174021893Y-90347035D02*
X174052835Y-90351625D01*
X174083178Y-90359225D01*
X174112630Y-90369763D01*
X174140908Y-90383138D01*
X174167738Y-90399219D01*
X174192863Y-90417853D01*
X174216040Y-90438860D01*
X174237047Y-90462037D01*
X174255681Y-90487162D01*
X174271762Y-90513992D01*
X174285137Y-90542270D01*
X174295675Y-90571722D01*
X174303275Y-90602065D01*
X174307865Y-90633007D01*
X174309400Y-90664250D01*
X174309400Y-91301750D01*
X174307865Y-91332993D01*
X174303275Y-91363935D01*
X174295675Y-91394278D01*
X174285137Y-91423730D01*
X174271762Y-91452008D01*
X174255681Y-91478838D01*
X174237047Y-91503963D01*
X174216040Y-91527140D01*
X174192863Y-91548147D01*
X174167738Y-91566781D01*
X174140908Y-91582862D01*
X174112630Y-91596237D01*
X174083178Y-91606775D01*
X174052835Y-91614375D01*
X174021893Y-91618965D01*
X173990650Y-91620500D01*
X173278150Y-91620500D01*
X173246907Y-91618965D01*
X173215965Y-91614375D01*
X173185622Y-91606775D01*
X173156170Y-91596237D01*
X173127892Y-91582862D01*
X173101062Y-91566781D01*
X173075937Y-91548147D01*
X173052760Y-91527140D01*
X173031753Y-91503963D01*
X173013119Y-91478838D01*
X172997038Y-91452008D01*
X172983663Y-91423730D01*
X172973125Y-91394278D01*
X172965525Y-91363935D01*
X172960935Y-91332993D01*
X172959400Y-91301750D01*
X172959400Y-90664250D01*
X172960935Y-90633007D01*
X172965525Y-90602065D01*
X172973125Y-90571722D01*
X172983663Y-90542270D01*
X172997038Y-90513992D01*
X173013119Y-90487162D01*
X173031753Y-90462037D01*
X173052760Y-90438860D01*
X173075937Y-90417853D01*
X173101062Y-90399219D01*
X173127892Y-90383138D01*
X173156170Y-90369763D01*
X173185622Y-90359225D01*
X173215965Y-90351625D01*
X173246907Y-90347035D01*
X173278150Y-90345500D01*
X173990650Y-90345500D01*
X174021893Y-90347035D01*
X174021893Y-90347035D01*
G37*
D14*
X173634400Y-90983000D03*
G04 #@! TD*
D10*
G04 #@! TO.C,R1*
G36*
X177222293Y-92175435D02*
X177253235Y-92180025D01*
X177283578Y-92187625D01*
X177313030Y-92198163D01*
X177341308Y-92211538D01*
X177368138Y-92227619D01*
X177393263Y-92246253D01*
X177416440Y-92267260D01*
X177437447Y-92290437D01*
X177456081Y-92315562D01*
X177472162Y-92342392D01*
X177485537Y-92370670D01*
X177496075Y-92400122D01*
X177503675Y-92430465D01*
X177508265Y-92461407D01*
X177509800Y-92492650D01*
X177509800Y-93130150D01*
X177508265Y-93161393D01*
X177503675Y-93192335D01*
X177496075Y-93222678D01*
X177485537Y-93252130D01*
X177472162Y-93280408D01*
X177456081Y-93307238D01*
X177437447Y-93332363D01*
X177416440Y-93355540D01*
X177393263Y-93376547D01*
X177368138Y-93395181D01*
X177341308Y-93411262D01*
X177313030Y-93424637D01*
X177283578Y-93435175D01*
X177253235Y-93442775D01*
X177222293Y-93447365D01*
X177191050Y-93448900D01*
X176478550Y-93448900D01*
X176447307Y-93447365D01*
X176416365Y-93442775D01*
X176386022Y-93435175D01*
X176356570Y-93424637D01*
X176328292Y-93411262D01*
X176301462Y-93395181D01*
X176276337Y-93376547D01*
X176253160Y-93355540D01*
X176232153Y-93332363D01*
X176213519Y-93307238D01*
X176197438Y-93280408D01*
X176184063Y-93252130D01*
X176173525Y-93222678D01*
X176165925Y-93192335D01*
X176161335Y-93161393D01*
X176159800Y-93130150D01*
X176159800Y-92492650D01*
X176161335Y-92461407D01*
X176165925Y-92430465D01*
X176173525Y-92400122D01*
X176184063Y-92370670D01*
X176197438Y-92342392D01*
X176213519Y-92315562D01*
X176232153Y-92290437D01*
X176253160Y-92267260D01*
X176276337Y-92246253D01*
X176301462Y-92227619D01*
X176328292Y-92211538D01*
X176356570Y-92198163D01*
X176386022Y-92187625D01*
X176416365Y-92180025D01*
X176447307Y-92175435D01*
X176478550Y-92173900D01*
X177191050Y-92173900D01*
X177222293Y-92175435D01*
X177222293Y-92175435D01*
G37*
D14*
X176834800Y-92811400D03*
D10*
G36*
X177222293Y-93750435D02*
X177253235Y-93755025D01*
X177283578Y-93762625D01*
X177313030Y-93773163D01*
X177341308Y-93786538D01*
X177368138Y-93802619D01*
X177393263Y-93821253D01*
X177416440Y-93842260D01*
X177437447Y-93865437D01*
X177456081Y-93890562D01*
X177472162Y-93917392D01*
X177485537Y-93945670D01*
X177496075Y-93975122D01*
X177503675Y-94005465D01*
X177508265Y-94036407D01*
X177509800Y-94067650D01*
X177509800Y-94705150D01*
X177508265Y-94736393D01*
X177503675Y-94767335D01*
X177496075Y-94797678D01*
X177485537Y-94827130D01*
X177472162Y-94855408D01*
X177456081Y-94882238D01*
X177437447Y-94907363D01*
X177416440Y-94930540D01*
X177393263Y-94951547D01*
X177368138Y-94970181D01*
X177341308Y-94986262D01*
X177313030Y-94999637D01*
X177283578Y-95010175D01*
X177253235Y-95017775D01*
X177222293Y-95022365D01*
X177191050Y-95023900D01*
X176478550Y-95023900D01*
X176447307Y-95022365D01*
X176416365Y-95017775D01*
X176386022Y-95010175D01*
X176356570Y-94999637D01*
X176328292Y-94986262D01*
X176301462Y-94970181D01*
X176276337Y-94951547D01*
X176253160Y-94930540D01*
X176232153Y-94907363D01*
X176213519Y-94882238D01*
X176197438Y-94855408D01*
X176184063Y-94827130D01*
X176173525Y-94797678D01*
X176165925Y-94767335D01*
X176161335Y-94736393D01*
X176159800Y-94705150D01*
X176159800Y-94067650D01*
X176161335Y-94036407D01*
X176165925Y-94005465D01*
X176173525Y-93975122D01*
X176184063Y-93945670D01*
X176197438Y-93917392D01*
X176213519Y-93890562D01*
X176232153Y-93865437D01*
X176253160Y-93842260D01*
X176276337Y-93821253D01*
X176301462Y-93802619D01*
X176328292Y-93786538D01*
X176356570Y-93773163D01*
X176386022Y-93762625D01*
X176416365Y-93755025D01*
X176447307Y-93750435D01*
X176478550Y-93748900D01*
X177191050Y-93748900D01*
X177222293Y-93750435D01*
X177222293Y-93750435D01*
G37*
D14*
X176834800Y-94386400D03*
G04 #@! TD*
D15*
G04 #@! TO.C,J2*
X190398400Y-99607000D03*
D16*
X190398400Y-94107000D03*
G04 #@! TD*
D15*
G04 #@! TO.C,J3*
X190373000Y-81876000D03*
D16*
X190373000Y-87376000D03*
G04 #@! TD*
D15*
G04 #@! TO.C,J4*
X108204000Y-99632400D03*
D16*
X108204000Y-94132400D03*
G04 #@! TD*
G04 #@! TO.C,J5*
X108204000Y-87376000D03*
D15*
X108204000Y-81876000D03*
G04 #@! TD*
D10*
G04 #@! TO.C,C1*
G36*
X184181893Y-90321535D02*
X184212835Y-90326125D01*
X184243178Y-90333725D01*
X184272630Y-90344263D01*
X184300908Y-90357638D01*
X184327738Y-90373719D01*
X184352863Y-90392353D01*
X184376040Y-90413360D01*
X184397047Y-90436537D01*
X184415681Y-90461662D01*
X184431762Y-90488492D01*
X184445137Y-90516770D01*
X184455675Y-90546222D01*
X184463275Y-90576565D01*
X184467865Y-90607507D01*
X184469400Y-90638750D01*
X184469400Y-91276250D01*
X184467865Y-91307493D01*
X184463275Y-91338435D01*
X184455675Y-91368778D01*
X184445137Y-91398230D01*
X184431762Y-91426508D01*
X184415681Y-91453338D01*
X184397047Y-91478463D01*
X184376040Y-91501640D01*
X184352863Y-91522647D01*
X184327738Y-91541281D01*
X184300908Y-91557362D01*
X184272630Y-91570737D01*
X184243178Y-91581275D01*
X184212835Y-91588875D01*
X184181893Y-91593465D01*
X184150650Y-91595000D01*
X183438150Y-91595000D01*
X183406907Y-91593465D01*
X183375965Y-91588875D01*
X183345622Y-91581275D01*
X183316170Y-91570737D01*
X183287892Y-91557362D01*
X183261062Y-91541281D01*
X183235937Y-91522647D01*
X183212760Y-91501640D01*
X183191753Y-91478463D01*
X183173119Y-91453338D01*
X183157038Y-91426508D01*
X183143663Y-91398230D01*
X183133125Y-91368778D01*
X183125525Y-91338435D01*
X183120935Y-91307493D01*
X183119400Y-91276250D01*
X183119400Y-90638750D01*
X183120935Y-90607507D01*
X183125525Y-90576565D01*
X183133125Y-90546222D01*
X183143663Y-90516770D01*
X183157038Y-90488492D01*
X183173119Y-90461662D01*
X183191753Y-90436537D01*
X183212760Y-90413360D01*
X183235937Y-90392353D01*
X183261062Y-90373719D01*
X183287892Y-90357638D01*
X183316170Y-90344263D01*
X183345622Y-90333725D01*
X183375965Y-90326125D01*
X183406907Y-90321535D01*
X183438150Y-90320000D01*
X184150650Y-90320000D01*
X184181893Y-90321535D01*
X184181893Y-90321535D01*
G37*
D14*
X183794400Y-90957500D03*
D10*
G36*
X184181893Y-88746535D02*
X184212835Y-88751125D01*
X184243178Y-88758725D01*
X184272630Y-88769263D01*
X184300908Y-88782638D01*
X184327738Y-88798719D01*
X184352863Y-88817353D01*
X184376040Y-88838360D01*
X184397047Y-88861537D01*
X184415681Y-88886662D01*
X184431762Y-88913492D01*
X184445137Y-88941770D01*
X184455675Y-88971222D01*
X184463275Y-89001565D01*
X184467865Y-89032507D01*
X184469400Y-89063750D01*
X184469400Y-89701250D01*
X184467865Y-89732493D01*
X184463275Y-89763435D01*
X184455675Y-89793778D01*
X184445137Y-89823230D01*
X184431762Y-89851508D01*
X184415681Y-89878338D01*
X184397047Y-89903463D01*
X184376040Y-89926640D01*
X184352863Y-89947647D01*
X184327738Y-89966281D01*
X184300908Y-89982362D01*
X184272630Y-89995737D01*
X184243178Y-90006275D01*
X184212835Y-90013875D01*
X184181893Y-90018465D01*
X184150650Y-90020000D01*
X183438150Y-90020000D01*
X183406907Y-90018465D01*
X183375965Y-90013875D01*
X183345622Y-90006275D01*
X183316170Y-89995737D01*
X183287892Y-89982362D01*
X183261062Y-89966281D01*
X183235937Y-89947647D01*
X183212760Y-89926640D01*
X183191753Y-89903463D01*
X183173119Y-89878338D01*
X183157038Y-89851508D01*
X183143663Y-89823230D01*
X183133125Y-89793778D01*
X183125525Y-89763435D01*
X183120935Y-89732493D01*
X183119400Y-89701250D01*
X183119400Y-89063750D01*
X183120935Y-89032507D01*
X183125525Y-89001565D01*
X183133125Y-88971222D01*
X183143663Y-88941770D01*
X183157038Y-88913492D01*
X183173119Y-88886662D01*
X183191753Y-88861537D01*
X183212760Y-88838360D01*
X183235937Y-88817353D01*
X183261062Y-88798719D01*
X183287892Y-88782638D01*
X183316170Y-88769263D01*
X183345622Y-88758725D01*
X183375965Y-88751125D01*
X183406907Y-88746535D01*
X183438150Y-88745000D01*
X184150650Y-88745000D01*
X184181893Y-88746535D01*
X184181893Y-88746535D01*
G37*
D14*
X183794400Y-89382500D03*
G04 #@! TD*
D10*
G04 #@! TO.C,C13*
G36*
X149879293Y-120699935D02*
X149910235Y-120704525D01*
X149940578Y-120712125D01*
X149970030Y-120722663D01*
X149998308Y-120736038D01*
X150025138Y-120752119D01*
X150050263Y-120770753D01*
X150073440Y-120791760D01*
X150094447Y-120814937D01*
X150113081Y-120840062D01*
X150129162Y-120866892D01*
X150142537Y-120895170D01*
X150153075Y-120924622D01*
X150160675Y-120954965D01*
X150165265Y-120985907D01*
X150166800Y-121017150D01*
X150166800Y-121654650D01*
X150165265Y-121685893D01*
X150160675Y-121716835D01*
X150153075Y-121747178D01*
X150142537Y-121776630D01*
X150129162Y-121804908D01*
X150113081Y-121831738D01*
X150094447Y-121856863D01*
X150073440Y-121880040D01*
X150050263Y-121901047D01*
X150025138Y-121919681D01*
X149998308Y-121935762D01*
X149970030Y-121949137D01*
X149940578Y-121959675D01*
X149910235Y-121967275D01*
X149879293Y-121971865D01*
X149848050Y-121973400D01*
X149135550Y-121973400D01*
X149104307Y-121971865D01*
X149073365Y-121967275D01*
X149043022Y-121959675D01*
X149013570Y-121949137D01*
X148985292Y-121935762D01*
X148958462Y-121919681D01*
X148933337Y-121901047D01*
X148910160Y-121880040D01*
X148889153Y-121856863D01*
X148870519Y-121831738D01*
X148854438Y-121804908D01*
X148841063Y-121776630D01*
X148830525Y-121747178D01*
X148822925Y-121716835D01*
X148818335Y-121685893D01*
X148816800Y-121654650D01*
X148816800Y-121017150D01*
X148818335Y-120985907D01*
X148822925Y-120954965D01*
X148830525Y-120924622D01*
X148841063Y-120895170D01*
X148854438Y-120866892D01*
X148870519Y-120840062D01*
X148889153Y-120814937D01*
X148910160Y-120791760D01*
X148933337Y-120770753D01*
X148958462Y-120752119D01*
X148985292Y-120736038D01*
X149013570Y-120722663D01*
X149043022Y-120712125D01*
X149073365Y-120704525D01*
X149104307Y-120699935D01*
X149135550Y-120698400D01*
X149848050Y-120698400D01*
X149879293Y-120699935D01*
X149879293Y-120699935D01*
G37*
D14*
X149491800Y-121335900D03*
D10*
G36*
X149879293Y-119124935D02*
X149910235Y-119129525D01*
X149940578Y-119137125D01*
X149970030Y-119147663D01*
X149998308Y-119161038D01*
X150025138Y-119177119D01*
X150050263Y-119195753D01*
X150073440Y-119216760D01*
X150094447Y-119239937D01*
X150113081Y-119265062D01*
X150129162Y-119291892D01*
X150142537Y-119320170D01*
X150153075Y-119349622D01*
X150160675Y-119379965D01*
X150165265Y-119410907D01*
X150166800Y-119442150D01*
X150166800Y-120079650D01*
X150165265Y-120110893D01*
X150160675Y-120141835D01*
X150153075Y-120172178D01*
X150142537Y-120201630D01*
X150129162Y-120229908D01*
X150113081Y-120256738D01*
X150094447Y-120281863D01*
X150073440Y-120305040D01*
X150050263Y-120326047D01*
X150025138Y-120344681D01*
X149998308Y-120360762D01*
X149970030Y-120374137D01*
X149940578Y-120384675D01*
X149910235Y-120392275D01*
X149879293Y-120396865D01*
X149848050Y-120398400D01*
X149135550Y-120398400D01*
X149104307Y-120396865D01*
X149073365Y-120392275D01*
X149043022Y-120384675D01*
X149013570Y-120374137D01*
X148985292Y-120360762D01*
X148958462Y-120344681D01*
X148933337Y-120326047D01*
X148910160Y-120305040D01*
X148889153Y-120281863D01*
X148870519Y-120256738D01*
X148854438Y-120229908D01*
X148841063Y-120201630D01*
X148830525Y-120172178D01*
X148822925Y-120141835D01*
X148818335Y-120110893D01*
X148816800Y-120079650D01*
X148816800Y-119442150D01*
X148818335Y-119410907D01*
X148822925Y-119379965D01*
X148830525Y-119349622D01*
X148841063Y-119320170D01*
X148854438Y-119291892D01*
X148870519Y-119265062D01*
X148889153Y-119239937D01*
X148910160Y-119216760D01*
X148933337Y-119195753D01*
X148958462Y-119177119D01*
X148985292Y-119161038D01*
X149013570Y-119147663D01*
X149043022Y-119137125D01*
X149073365Y-119129525D01*
X149104307Y-119124935D01*
X149135550Y-119123400D01*
X149848050Y-119123400D01*
X149879293Y-119124935D01*
X149879293Y-119124935D01*
G37*
D14*
X149491800Y-119760900D03*
G04 #@! TD*
D10*
G04 #@! TO.C,C14*
G36*
X147783793Y-119061435D02*
X147814735Y-119066025D01*
X147845078Y-119073625D01*
X147874530Y-119084163D01*
X147902808Y-119097538D01*
X147929638Y-119113619D01*
X147954763Y-119132253D01*
X147977940Y-119153260D01*
X147998947Y-119176437D01*
X148017581Y-119201562D01*
X148033662Y-119228392D01*
X148047037Y-119256670D01*
X148057575Y-119286122D01*
X148065175Y-119316465D01*
X148069765Y-119347407D01*
X148071300Y-119378650D01*
X148071300Y-120016150D01*
X148069765Y-120047393D01*
X148065175Y-120078335D01*
X148057575Y-120108678D01*
X148047037Y-120138130D01*
X148033662Y-120166408D01*
X148017581Y-120193238D01*
X147998947Y-120218363D01*
X147977940Y-120241540D01*
X147954763Y-120262547D01*
X147929638Y-120281181D01*
X147902808Y-120297262D01*
X147874530Y-120310637D01*
X147845078Y-120321175D01*
X147814735Y-120328775D01*
X147783793Y-120333365D01*
X147752550Y-120334900D01*
X147040050Y-120334900D01*
X147008807Y-120333365D01*
X146977865Y-120328775D01*
X146947522Y-120321175D01*
X146918070Y-120310637D01*
X146889792Y-120297262D01*
X146862962Y-120281181D01*
X146837837Y-120262547D01*
X146814660Y-120241540D01*
X146793653Y-120218363D01*
X146775019Y-120193238D01*
X146758938Y-120166408D01*
X146745563Y-120138130D01*
X146735025Y-120108678D01*
X146727425Y-120078335D01*
X146722835Y-120047393D01*
X146721300Y-120016150D01*
X146721300Y-119378650D01*
X146722835Y-119347407D01*
X146727425Y-119316465D01*
X146735025Y-119286122D01*
X146745563Y-119256670D01*
X146758938Y-119228392D01*
X146775019Y-119201562D01*
X146793653Y-119176437D01*
X146814660Y-119153260D01*
X146837837Y-119132253D01*
X146862962Y-119113619D01*
X146889792Y-119097538D01*
X146918070Y-119084163D01*
X146947522Y-119073625D01*
X146977865Y-119066025D01*
X147008807Y-119061435D01*
X147040050Y-119059900D01*
X147752550Y-119059900D01*
X147783793Y-119061435D01*
X147783793Y-119061435D01*
G37*
D14*
X147396300Y-119697400D03*
D10*
G36*
X147783793Y-120636435D02*
X147814735Y-120641025D01*
X147845078Y-120648625D01*
X147874530Y-120659163D01*
X147902808Y-120672538D01*
X147929638Y-120688619D01*
X147954763Y-120707253D01*
X147977940Y-120728260D01*
X147998947Y-120751437D01*
X148017581Y-120776562D01*
X148033662Y-120803392D01*
X148047037Y-120831670D01*
X148057575Y-120861122D01*
X148065175Y-120891465D01*
X148069765Y-120922407D01*
X148071300Y-120953650D01*
X148071300Y-121591150D01*
X148069765Y-121622393D01*
X148065175Y-121653335D01*
X148057575Y-121683678D01*
X148047037Y-121713130D01*
X148033662Y-121741408D01*
X148017581Y-121768238D01*
X147998947Y-121793363D01*
X147977940Y-121816540D01*
X147954763Y-121837547D01*
X147929638Y-121856181D01*
X147902808Y-121872262D01*
X147874530Y-121885637D01*
X147845078Y-121896175D01*
X147814735Y-121903775D01*
X147783793Y-121908365D01*
X147752550Y-121909900D01*
X147040050Y-121909900D01*
X147008807Y-121908365D01*
X146977865Y-121903775D01*
X146947522Y-121896175D01*
X146918070Y-121885637D01*
X146889792Y-121872262D01*
X146862962Y-121856181D01*
X146837837Y-121837547D01*
X146814660Y-121816540D01*
X146793653Y-121793363D01*
X146775019Y-121768238D01*
X146758938Y-121741408D01*
X146745563Y-121713130D01*
X146735025Y-121683678D01*
X146727425Y-121653335D01*
X146722835Y-121622393D01*
X146721300Y-121591150D01*
X146721300Y-120953650D01*
X146722835Y-120922407D01*
X146727425Y-120891465D01*
X146735025Y-120861122D01*
X146745563Y-120831670D01*
X146758938Y-120803392D01*
X146775019Y-120776562D01*
X146793653Y-120751437D01*
X146814660Y-120728260D01*
X146837837Y-120707253D01*
X146862962Y-120688619D01*
X146889792Y-120672538D01*
X146918070Y-120659163D01*
X146947522Y-120648625D01*
X146977865Y-120641025D01*
X147008807Y-120636435D01*
X147040050Y-120634900D01*
X147752550Y-120634900D01*
X147783793Y-120636435D01*
X147783793Y-120636435D01*
G37*
D14*
X147396300Y-121272400D03*
G04 #@! TD*
D10*
G04 #@! TO.C,C15*
G36*
X122942493Y-107098135D02*
X122973435Y-107102725D01*
X123003778Y-107110325D01*
X123033230Y-107120863D01*
X123061508Y-107134238D01*
X123088338Y-107150319D01*
X123113463Y-107168953D01*
X123136640Y-107189960D01*
X123157647Y-107213137D01*
X123176281Y-107238262D01*
X123192362Y-107265092D01*
X123205737Y-107293370D01*
X123216275Y-107322822D01*
X123223875Y-107353165D01*
X123228465Y-107384107D01*
X123230000Y-107415350D01*
X123230000Y-108052850D01*
X123228465Y-108084093D01*
X123223875Y-108115035D01*
X123216275Y-108145378D01*
X123205737Y-108174830D01*
X123192362Y-108203108D01*
X123176281Y-108229938D01*
X123157647Y-108255063D01*
X123136640Y-108278240D01*
X123113463Y-108299247D01*
X123088338Y-108317881D01*
X123061508Y-108333962D01*
X123033230Y-108347337D01*
X123003778Y-108357875D01*
X122973435Y-108365475D01*
X122942493Y-108370065D01*
X122911250Y-108371600D01*
X122198750Y-108371600D01*
X122167507Y-108370065D01*
X122136565Y-108365475D01*
X122106222Y-108357875D01*
X122076770Y-108347337D01*
X122048492Y-108333962D01*
X122021662Y-108317881D01*
X121996537Y-108299247D01*
X121973360Y-108278240D01*
X121952353Y-108255063D01*
X121933719Y-108229938D01*
X121917638Y-108203108D01*
X121904263Y-108174830D01*
X121893725Y-108145378D01*
X121886125Y-108115035D01*
X121881535Y-108084093D01*
X121880000Y-108052850D01*
X121880000Y-107415350D01*
X121881535Y-107384107D01*
X121886125Y-107353165D01*
X121893725Y-107322822D01*
X121904263Y-107293370D01*
X121917638Y-107265092D01*
X121933719Y-107238262D01*
X121952353Y-107213137D01*
X121973360Y-107189960D01*
X121996537Y-107168953D01*
X122021662Y-107150319D01*
X122048492Y-107134238D01*
X122076770Y-107120863D01*
X122106222Y-107110325D01*
X122136565Y-107102725D01*
X122167507Y-107098135D01*
X122198750Y-107096600D01*
X122911250Y-107096600D01*
X122942493Y-107098135D01*
X122942493Y-107098135D01*
G37*
D14*
X122555000Y-107734100D03*
D10*
G36*
X122942493Y-105523135D02*
X122973435Y-105527725D01*
X123003778Y-105535325D01*
X123033230Y-105545863D01*
X123061508Y-105559238D01*
X123088338Y-105575319D01*
X123113463Y-105593953D01*
X123136640Y-105614960D01*
X123157647Y-105638137D01*
X123176281Y-105663262D01*
X123192362Y-105690092D01*
X123205737Y-105718370D01*
X123216275Y-105747822D01*
X123223875Y-105778165D01*
X123228465Y-105809107D01*
X123230000Y-105840350D01*
X123230000Y-106477850D01*
X123228465Y-106509093D01*
X123223875Y-106540035D01*
X123216275Y-106570378D01*
X123205737Y-106599830D01*
X123192362Y-106628108D01*
X123176281Y-106654938D01*
X123157647Y-106680063D01*
X123136640Y-106703240D01*
X123113463Y-106724247D01*
X123088338Y-106742881D01*
X123061508Y-106758962D01*
X123033230Y-106772337D01*
X123003778Y-106782875D01*
X122973435Y-106790475D01*
X122942493Y-106795065D01*
X122911250Y-106796600D01*
X122198750Y-106796600D01*
X122167507Y-106795065D01*
X122136565Y-106790475D01*
X122106222Y-106782875D01*
X122076770Y-106772337D01*
X122048492Y-106758962D01*
X122021662Y-106742881D01*
X121996537Y-106724247D01*
X121973360Y-106703240D01*
X121952353Y-106680063D01*
X121933719Y-106654938D01*
X121917638Y-106628108D01*
X121904263Y-106599830D01*
X121893725Y-106570378D01*
X121886125Y-106540035D01*
X121881535Y-106509093D01*
X121880000Y-106477850D01*
X121880000Y-105840350D01*
X121881535Y-105809107D01*
X121886125Y-105778165D01*
X121893725Y-105747822D01*
X121904263Y-105718370D01*
X121917638Y-105690092D01*
X121933719Y-105663262D01*
X121952353Y-105638137D01*
X121973360Y-105614960D01*
X121996537Y-105593953D01*
X122021662Y-105575319D01*
X122048492Y-105559238D01*
X122076770Y-105545863D01*
X122106222Y-105535325D01*
X122136565Y-105527725D01*
X122167507Y-105523135D01*
X122198750Y-105521600D01*
X122911250Y-105521600D01*
X122942493Y-105523135D01*
X122942493Y-105523135D01*
G37*
D14*
X122555000Y-106159100D03*
G04 #@! TD*
D10*
G04 #@! TO.C,C16*
G36*
X116579793Y-107149035D02*
X116610735Y-107153625D01*
X116641078Y-107161225D01*
X116670530Y-107171763D01*
X116698808Y-107185138D01*
X116725638Y-107201219D01*
X116750763Y-107219853D01*
X116773940Y-107240860D01*
X116794947Y-107264037D01*
X116813581Y-107289162D01*
X116829662Y-107315992D01*
X116843037Y-107344270D01*
X116853575Y-107373722D01*
X116861175Y-107404065D01*
X116865765Y-107435007D01*
X116867300Y-107466250D01*
X116867300Y-108103750D01*
X116865765Y-108134993D01*
X116861175Y-108165935D01*
X116853575Y-108196278D01*
X116843037Y-108225730D01*
X116829662Y-108254008D01*
X116813581Y-108280838D01*
X116794947Y-108305963D01*
X116773940Y-108329140D01*
X116750763Y-108350147D01*
X116725638Y-108368781D01*
X116698808Y-108384862D01*
X116670530Y-108398237D01*
X116641078Y-108408775D01*
X116610735Y-108416375D01*
X116579793Y-108420965D01*
X116548550Y-108422500D01*
X115836050Y-108422500D01*
X115804807Y-108420965D01*
X115773865Y-108416375D01*
X115743522Y-108408775D01*
X115714070Y-108398237D01*
X115685792Y-108384862D01*
X115658962Y-108368781D01*
X115633837Y-108350147D01*
X115610660Y-108329140D01*
X115589653Y-108305963D01*
X115571019Y-108280838D01*
X115554938Y-108254008D01*
X115541563Y-108225730D01*
X115531025Y-108196278D01*
X115523425Y-108165935D01*
X115518835Y-108134993D01*
X115517300Y-108103750D01*
X115517300Y-107466250D01*
X115518835Y-107435007D01*
X115523425Y-107404065D01*
X115531025Y-107373722D01*
X115541563Y-107344270D01*
X115554938Y-107315992D01*
X115571019Y-107289162D01*
X115589653Y-107264037D01*
X115610660Y-107240860D01*
X115633837Y-107219853D01*
X115658962Y-107201219D01*
X115685792Y-107185138D01*
X115714070Y-107171763D01*
X115743522Y-107161225D01*
X115773865Y-107153625D01*
X115804807Y-107149035D01*
X115836050Y-107147500D01*
X116548550Y-107147500D01*
X116579793Y-107149035D01*
X116579793Y-107149035D01*
G37*
D14*
X116192300Y-107785000D03*
D10*
G36*
X116579793Y-105574035D02*
X116610735Y-105578625D01*
X116641078Y-105586225D01*
X116670530Y-105596763D01*
X116698808Y-105610138D01*
X116725638Y-105626219D01*
X116750763Y-105644853D01*
X116773940Y-105665860D01*
X116794947Y-105689037D01*
X116813581Y-105714162D01*
X116829662Y-105740992D01*
X116843037Y-105769270D01*
X116853575Y-105798722D01*
X116861175Y-105829065D01*
X116865765Y-105860007D01*
X116867300Y-105891250D01*
X116867300Y-106528750D01*
X116865765Y-106559993D01*
X116861175Y-106590935D01*
X116853575Y-106621278D01*
X116843037Y-106650730D01*
X116829662Y-106679008D01*
X116813581Y-106705838D01*
X116794947Y-106730963D01*
X116773940Y-106754140D01*
X116750763Y-106775147D01*
X116725638Y-106793781D01*
X116698808Y-106809862D01*
X116670530Y-106823237D01*
X116641078Y-106833775D01*
X116610735Y-106841375D01*
X116579793Y-106845965D01*
X116548550Y-106847500D01*
X115836050Y-106847500D01*
X115804807Y-106845965D01*
X115773865Y-106841375D01*
X115743522Y-106833775D01*
X115714070Y-106823237D01*
X115685792Y-106809862D01*
X115658962Y-106793781D01*
X115633837Y-106775147D01*
X115610660Y-106754140D01*
X115589653Y-106730963D01*
X115571019Y-106705838D01*
X115554938Y-106679008D01*
X115541563Y-106650730D01*
X115531025Y-106621278D01*
X115523425Y-106590935D01*
X115518835Y-106559993D01*
X115517300Y-106528750D01*
X115517300Y-105891250D01*
X115518835Y-105860007D01*
X115523425Y-105829065D01*
X115531025Y-105798722D01*
X115541563Y-105769270D01*
X115554938Y-105740992D01*
X115571019Y-105714162D01*
X115589653Y-105689037D01*
X115610660Y-105665860D01*
X115633837Y-105644853D01*
X115658962Y-105626219D01*
X115685792Y-105610138D01*
X115714070Y-105596763D01*
X115743522Y-105586225D01*
X115773865Y-105578625D01*
X115804807Y-105574035D01*
X115836050Y-105572500D01*
X116548550Y-105572500D01*
X116579793Y-105574035D01*
X116579793Y-105574035D01*
G37*
D14*
X116192300Y-106210000D03*
G04 #@! TD*
D17*
G04 #@! TO.C,J1*
X167335200Y-81762600D03*
D18*
X167335200Y-84302600D03*
G04 #@! TD*
D19*
G04 #@! TO.C,J6*
X173799500Y-60706000D03*
G04 #@! TD*
G04 #@! TO.C,J7*
X124841000Y-60706000D03*
G04 #@! TD*
G04 #@! TO.C,J8*
X173799500Y-120713500D03*
G04 #@! TD*
G04 #@! TO.C,J9*
X124815600Y-120700800D03*
G04 #@! TD*
D20*
G04 #@! TO.C,J11*
X134544975Y-103721718D03*
D10*
G36*
X135539716Y-104859870D02*
X134461825Y-105231018D01*
X133550234Y-102583566D01*
X134628125Y-102212418D01*
X135539716Y-104859870D01*
X135539716Y-104859870D01*
G37*
D20*
X133275259Y-100034196D03*
D10*
G36*
X134270000Y-101172348D02*
X133192109Y-101543496D01*
X132280518Y-98896044D01*
X133358409Y-98524896D01*
X134270000Y-101172348D01*
X134270000Y-101172348D01*
G37*
D20*
X133344166Y-104135190D03*
D10*
G36*
X134338907Y-105273342D02*
X133261016Y-105644490D01*
X132349425Y-102997038D01*
X133427316Y-102625890D01*
X134338907Y-105273342D01*
X134338907Y-105273342D01*
G37*
D20*
X132074451Y-100447667D03*
D10*
G36*
X133069192Y-101585819D02*
X131991301Y-101956967D01*
X131079710Y-99309515D01*
X132157601Y-98938367D01*
X133069192Y-101585819D01*
X133069192Y-101585819D01*
G37*
D20*
X132143358Y-104548661D03*
D10*
G36*
X133138099Y-105686813D02*
X132060208Y-106057961D01*
X131148617Y-103410509D01*
X132226508Y-103039361D01*
X133138099Y-105686813D01*
X133138099Y-105686813D01*
G37*
D20*
X130873642Y-100861139D03*
D10*
G36*
X131868383Y-101999291D02*
X130790492Y-102370439D01*
X129878901Y-99722987D01*
X130956792Y-99351839D01*
X131868383Y-101999291D01*
X131868383Y-101999291D01*
G37*
D20*
X130942549Y-104962133D03*
D10*
G36*
X131937290Y-106100285D02*
X130859399Y-106471433D01*
X129947808Y-103823981D01*
X131025699Y-103452833D01*
X131937290Y-106100285D01*
X131937290Y-106100285D01*
G37*
D20*
X129672834Y-101274610D03*
D10*
G36*
X130667575Y-102412762D02*
X129589684Y-102783910D01*
X128678093Y-100136458D01*
X129755984Y-99765310D01*
X130667575Y-102412762D01*
X130667575Y-102412762D01*
G37*
D20*
X129741741Y-105375604D03*
D10*
G36*
X130736482Y-106513756D02*
X129658591Y-106884904D01*
X128747000Y-104237452D01*
X129824891Y-103866304D01*
X130736482Y-106513756D01*
X130736482Y-106513756D01*
G37*
D20*
X128472025Y-101688082D03*
D10*
G36*
X129466766Y-102826234D02*
X128388875Y-103197382D01*
X127477284Y-100549930D01*
X128555175Y-100178782D01*
X129466766Y-102826234D01*
X129466766Y-102826234D01*
G37*
G04 #@! TD*
D21*
G04 #@! TO.C,J12*
X169522965Y-101279697D03*
D10*
G36*
X170661143Y-100508220D02*
X169944893Y-102588361D01*
X168384787Y-102051174D01*
X169101037Y-99971033D01*
X170661143Y-100508220D01*
X170661143Y-100508220D01*
G37*
D21*
X181540506Y-105417669D03*
D10*
G36*
X182678684Y-104646192D02*
X181962434Y-106726333D01*
X180402328Y-106189146D01*
X181118578Y-104109005D01*
X182678684Y-104646192D01*
X182678684Y-104646192D01*
G37*
D22*
X170296342Y-107035044D03*
D10*
G36*
X170996999Y-106535965D02*
X170541204Y-107859691D01*
X169595685Y-107534123D01*
X170051480Y-106210397D01*
X170996999Y-106535965D01*
X170996999Y-106535965D01*
G37*
D22*
X171714620Y-107523396D03*
D10*
G36*
X172415277Y-107024317D02*
X171959482Y-108348043D01*
X171013963Y-108022475D01*
X171469758Y-106698749D01*
X172415277Y-107024317D01*
X172415277Y-107024317D01*
G37*
D22*
X173132898Y-108011748D03*
D10*
G36*
X173833555Y-107512669D02*
X173377760Y-108836395D01*
X172432241Y-108510827D01*
X172888036Y-107187101D01*
X173833555Y-107512669D01*
X173833555Y-107512669D01*
G37*
D22*
X174551176Y-108500101D03*
D10*
G36*
X175251833Y-108001022D02*
X174796038Y-109324748D01*
X173850519Y-108999180D01*
X174306314Y-107675454D01*
X175251833Y-108001022D01*
X175251833Y-108001022D01*
G37*
D22*
X175969454Y-108988453D03*
D10*
G36*
X176670111Y-108489374D02*
X176214316Y-109813100D01*
X175268797Y-109487532D01*
X175724592Y-108163806D01*
X176670111Y-108489374D01*
X176670111Y-108489374D01*
G37*
D22*
X177387732Y-109476805D03*
D10*
G36*
X178088389Y-108977726D02*
X177632594Y-110301452D01*
X176687075Y-109975884D01*
X177142870Y-108652158D01*
X178088389Y-108977726D01*
X178088389Y-108977726D01*
G37*
G04 #@! TD*
D22*
G04 #@! TO.C,J14*
X172121020Y-73527804D03*
D10*
G36*
X171876158Y-74352451D02*
X171420363Y-73028725D01*
X172365882Y-72703157D01*
X172821677Y-74026883D01*
X171876158Y-74352451D01*
X171876158Y-74352451D01*
G37*
D22*
X173539298Y-73039452D03*
D10*
G36*
X173294436Y-73864099D02*
X172838641Y-72540373D01*
X173784160Y-72214805D01*
X174239955Y-73538531D01*
X173294436Y-73864099D01*
X173294436Y-73864099D01*
G37*
D22*
X174957576Y-72551099D03*
D10*
G36*
X174712714Y-73375746D02*
X174256919Y-72052020D01*
X175202438Y-71726452D01*
X175658233Y-73050178D01*
X174712714Y-73375746D01*
X174712714Y-73375746D01*
G37*
D22*
X176375854Y-72062747D03*
D10*
G36*
X176130992Y-72887394D02*
X175675197Y-71563668D01*
X176620716Y-71238100D01*
X177076511Y-72561826D01*
X176130992Y-72887394D01*
X176130992Y-72887394D01*
G37*
D21*
X171347643Y-79283150D03*
D10*
G36*
X170925715Y-80591814D02*
X170209465Y-78511673D01*
X171769571Y-77974486D01*
X172485821Y-80054627D01*
X170925715Y-80591814D01*
X170925715Y-80591814D01*
G37*
D21*
X180528627Y-76121884D03*
D10*
G36*
X180106699Y-77430548D02*
X179390449Y-75350407D01*
X180950555Y-74813220D01*
X181666805Y-76893361D01*
X180106699Y-77430548D01*
X180106699Y-77430548D01*
G37*
G04 #@! TD*
D23*
G04 #@! TO.C,J15*
X115300519Y-121355681D03*
X119267286Y-124399488D03*
D24*
X112863510Y-122888974D03*
D25*
X112650443Y-123166648D02*
X113076577Y-122611300D01*
D24*
X118416983Y-127150304D03*
D25*
X118630050Y-126872630D02*
X118203916Y-127427978D01*
G04 #@! TD*
D24*
G04 #@! TO.C,J17*
X180071910Y-54207373D03*
D25*
X179858843Y-54485047D02*
X180284977Y-53929699D01*
D24*
X185625383Y-58468703D03*
D25*
X185838450Y-58191029D02*
X185412316Y-58746377D01*
D23*
X179221607Y-56958189D03*
X183188374Y-60001996D03*
G04 #@! TD*
D10*
G04 #@! TO.C,JP1*
G36*
X171361746Y-93058989D02*
X171393780Y-93063741D01*
X171425194Y-93071610D01*
X171455686Y-93082520D01*
X171484961Y-93096366D01*
X171512738Y-93113015D01*
X171538750Y-93132307D01*
X171562745Y-93154055D01*
X171584493Y-93178050D01*
X171603785Y-93204062D01*
X171620434Y-93231839D01*
X171634280Y-93261114D01*
X171645190Y-93291606D01*
X171653059Y-93323020D01*
X171657811Y-93355054D01*
X171659400Y-93387400D01*
X171659400Y-94877400D01*
X171657811Y-94909746D01*
X171653059Y-94941780D01*
X171645190Y-94973194D01*
X171634280Y-95003686D01*
X171620434Y-95032961D01*
X171603785Y-95060738D01*
X171584493Y-95086750D01*
X171562745Y-95110745D01*
X171538750Y-95132493D01*
X171512738Y-95151785D01*
X171484961Y-95168434D01*
X171455686Y-95182280D01*
X171425194Y-95193190D01*
X171393780Y-95201059D01*
X171361746Y-95205811D01*
X171329400Y-95207400D01*
X170339400Y-95207400D01*
X170307054Y-95205811D01*
X170275020Y-95201059D01*
X170243606Y-95193190D01*
X170213114Y-95182280D01*
X170183839Y-95168434D01*
X170156062Y-95151785D01*
X170130050Y-95132493D01*
X170106055Y-95110745D01*
X170084307Y-95086750D01*
X170065015Y-95060738D01*
X170048366Y-95032961D01*
X170034520Y-95003686D01*
X170023610Y-94973194D01*
X170015741Y-94941780D01*
X170010989Y-94909746D01*
X170009400Y-94877400D01*
X170009400Y-93387400D01*
X170010989Y-93355054D01*
X170015741Y-93323020D01*
X170023610Y-93291606D01*
X170034520Y-93261114D01*
X170048366Y-93231839D01*
X170065015Y-93204062D01*
X170084307Y-93178050D01*
X170106055Y-93154055D01*
X170130050Y-93132307D01*
X170156062Y-93113015D01*
X170183839Y-93096366D01*
X170213114Y-93082520D01*
X170243606Y-93071610D01*
X170275020Y-93063741D01*
X170307054Y-93058989D01*
X170339400Y-93057400D01*
X171329400Y-93057400D01*
X171361746Y-93058989D01*
X171361746Y-93058989D01*
G37*
D21*
X170834400Y-94132400D03*
D10*
G36*
X174161746Y-93058989D02*
X174193780Y-93063741D01*
X174225194Y-93071610D01*
X174255686Y-93082520D01*
X174284961Y-93096366D01*
X174312738Y-93113015D01*
X174338750Y-93132307D01*
X174362745Y-93154055D01*
X174384493Y-93178050D01*
X174403785Y-93204062D01*
X174420434Y-93231839D01*
X174434280Y-93261114D01*
X174445190Y-93291606D01*
X174453059Y-93323020D01*
X174457811Y-93355054D01*
X174459400Y-93387400D01*
X174459400Y-94877400D01*
X174457811Y-94909746D01*
X174453059Y-94941780D01*
X174445190Y-94973194D01*
X174434280Y-95003686D01*
X174420434Y-95032961D01*
X174403785Y-95060738D01*
X174384493Y-95086750D01*
X174362745Y-95110745D01*
X174338750Y-95132493D01*
X174312738Y-95151785D01*
X174284961Y-95168434D01*
X174255686Y-95182280D01*
X174225194Y-95193190D01*
X174193780Y-95201059D01*
X174161746Y-95205811D01*
X174129400Y-95207400D01*
X173139400Y-95207400D01*
X173107054Y-95205811D01*
X173075020Y-95201059D01*
X173043606Y-95193190D01*
X173013114Y-95182280D01*
X172983839Y-95168434D01*
X172956062Y-95151785D01*
X172930050Y-95132493D01*
X172906055Y-95110745D01*
X172884307Y-95086750D01*
X172865015Y-95060738D01*
X172848366Y-95032961D01*
X172834520Y-95003686D01*
X172823610Y-94973194D01*
X172815741Y-94941780D01*
X172810989Y-94909746D01*
X172809400Y-94877400D01*
X172809400Y-93387400D01*
X172810989Y-93355054D01*
X172815741Y-93323020D01*
X172823610Y-93291606D01*
X172834520Y-93261114D01*
X172848366Y-93231839D01*
X172865015Y-93204062D01*
X172884307Y-93178050D01*
X172906055Y-93154055D01*
X172930050Y-93132307D01*
X172956062Y-93113015D01*
X172983839Y-93096366D01*
X173013114Y-93082520D01*
X173043606Y-93071610D01*
X173075020Y-93063741D01*
X173107054Y-93058989D01*
X173139400Y-93057400D01*
X174129400Y-93057400D01*
X174161746Y-93058989D01*
X174161746Y-93058989D01*
G37*
D21*
X173634400Y-94132400D03*
G04 #@! TD*
D10*
G04 #@! TO.C,JP3*
G36*
X151920843Y-118912355D02*
X151954212Y-118917305D01*
X151986935Y-118925502D01*
X152018697Y-118936866D01*
X152049193Y-118951290D01*
X152078127Y-118968632D01*
X152105223Y-118988728D01*
X152130218Y-119011382D01*
X152152872Y-119036377D01*
X152172968Y-119063473D01*
X152190310Y-119092407D01*
X152204734Y-119122903D01*
X152216098Y-119154665D01*
X152224295Y-119187388D01*
X152229245Y-119220757D01*
X152230900Y-119254450D01*
X152230900Y-119941950D01*
X152229245Y-119975643D01*
X152224295Y-120009012D01*
X152216098Y-120041735D01*
X152204734Y-120073497D01*
X152190310Y-120103993D01*
X152172968Y-120132927D01*
X152152872Y-120160023D01*
X152130218Y-120185018D01*
X152105223Y-120207672D01*
X152078127Y-120227768D01*
X152049193Y-120245110D01*
X152018697Y-120259534D01*
X151986935Y-120270898D01*
X151954212Y-120279095D01*
X151920843Y-120284045D01*
X151887150Y-120285700D01*
X150774650Y-120285700D01*
X150740957Y-120284045D01*
X150707588Y-120279095D01*
X150674865Y-120270898D01*
X150643103Y-120259534D01*
X150612607Y-120245110D01*
X150583673Y-120227768D01*
X150556577Y-120207672D01*
X150531582Y-120185018D01*
X150508928Y-120160023D01*
X150488832Y-120132927D01*
X150471490Y-120103993D01*
X150457066Y-120073497D01*
X150445702Y-120041735D01*
X150437505Y-120009012D01*
X150432555Y-119975643D01*
X150430900Y-119941950D01*
X150430900Y-119254450D01*
X150432555Y-119220757D01*
X150437505Y-119187388D01*
X150445702Y-119154665D01*
X150457066Y-119122903D01*
X150471490Y-119092407D01*
X150488832Y-119063473D01*
X150508928Y-119036377D01*
X150531582Y-119011382D01*
X150556577Y-118988728D01*
X150583673Y-118968632D01*
X150612607Y-118951290D01*
X150643103Y-118936866D01*
X150674865Y-118925502D01*
X150707588Y-118917305D01*
X150740957Y-118912355D01*
X150774650Y-118910700D01*
X151887150Y-118910700D01*
X151920843Y-118912355D01*
X151920843Y-118912355D01*
G37*
D26*
X151330900Y-119598200D03*
D10*
G36*
X151920843Y-120787355D02*
X151954212Y-120792305D01*
X151986935Y-120800502D01*
X152018697Y-120811866D01*
X152049193Y-120826290D01*
X152078127Y-120843632D01*
X152105223Y-120863728D01*
X152130218Y-120886382D01*
X152152872Y-120911377D01*
X152172968Y-120938473D01*
X152190310Y-120967407D01*
X152204734Y-120997903D01*
X152216098Y-121029665D01*
X152224295Y-121062388D01*
X152229245Y-121095757D01*
X152230900Y-121129450D01*
X152230900Y-121816950D01*
X152229245Y-121850643D01*
X152224295Y-121884012D01*
X152216098Y-121916735D01*
X152204734Y-121948497D01*
X152190310Y-121978993D01*
X152172968Y-122007927D01*
X152152872Y-122035023D01*
X152130218Y-122060018D01*
X152105223Y-122082672D01*
X152078127Y-122102768D01*
X152049193Y-122120110D01*
X152018697Y-122134534D01*
X151986935Y-122145898D01*
X151954212Y-122154095D01*
X151920843Y-122159045D01*
X151887150Y-122160700D01*
X150774650Y-122160700D01*
X150740957Y-122159045D01*
X150707588Y-122154095D01*
X150674865Y-122145898D01*
X150643103Y-122134534D01*
X150612607Y-122120110D01*
X150583673Y-122102768D01*
X150556577Y-122082672D01*
X150531582Y-122060018D01*
X150508928Y-122035023D01*
X150488832Y-122007927D01*
X150471490Y-121978993D01*
X150457066Y-121948497D01*
X150445702Y-121916735D01*
X150437505Y-121884012D01*
X150432555Y-121850643D01*
X150430900Y-121816950D01*
X150430900Y-121129450D01*
X150432555Y-121095757D01*
X150437505Y-121062388D01*
X150445702Y-121029665D01*
X150457066Y-120997903D01*
X150471490Y-120967407D01*
X150488832Y-120938473D01*
X150508928Y-120911377D01*
X150531582Y-120886382D01*
X150556577Y-120863728D01*
X150583673Y-120843632D01*
X150612607Y-120826290D01*
X150643103Y-120811866D01*
X150674865Y-120800502D01*
X150707588Y-120792305D01*
X150740957Y-120787355D01*
X150774650Y-120785700D01*
X151887150Y-120785700D01*
X151920843Y-120787355D01*
X151920843Y-120787355D01*
G37*
D26*
X151330900Y-121473200D03*
G04 #@! TD*
D27*
G04 #@! TO.C,O1*
X162574000Y-73033000D03*
X160574000Y-73033000D03*
X158574000Y-73033000D03*
X156574000Y-73033000D03*
X154574000Y-73033000D03*
X152574000Y-73033000D03*
X150574000Y-73033000D03*
X148574000Y-73033000D03*
X146574000Y-73033000D03*
X144574000Y-73033000D03*
X142574000Y-73033000D03*
X140574000Y-73033000D03*
X138574000Y-73033000D03*
X136574000Y-73033000D03*
X134574000Y-73033000D03*
X132574000Y-73033000D03*
X162574000Y-48633000D03*
X160574000Y-48633000D03*
X158574000Y-48633000D03*
X156574000Y-48633000D03*
X154574000Y-48633000D03*
X152574000Y-48633000D03*
X150574000Y-48633000D03*
X148574000Y-48633000D03*
X146574000Y-48633000D03*
X144574000Y-48633000D03*
X142574000Y-48633000D03*
X140574000Y-48633000D03*
X138574000Y-48633000D03*
X136574000Y-48633000D03*
X134574000Y-48633000D03*
X132574000Y-48633000D03*
G04 #@! TD*
D10*
G04 #@! TO.C,R2*
G36*
X179203493Y-93699635D02*
X179234435Y-93704225D01*
X179264778Y-93711825D01*
X179294230Y-93722363D01*
X179322508Y-93735738D01*
X179349338Y-93751819D01*
X179374463Y-93770453D01*
X179397640Y-93791460D01*
X179418647Y-93814637D01*
X179437281Y-93839762D01*
X179453362Y-93866592D01*
X179466737Y-93894870D01*
X179477275Y-93924322D01*
X179484875Y-93954665D01*
X179489465Y-93985607D01*
X179491000Y-94016850D01*
X179491000Y-94654350D01*
X179489465Y-94685593D01*
X179484875Y-94716535D01*
X179477275Y-94746878D01*
X179466737Y-94776330D01*
X179453362Y-94804608D01*
X179437281Y-94831438D01*
X179418647Y-94856563D01*
X179397640Y-94879740D01*
X179374463Y-94900747D01*
X179349338Y-94919381D01*
X179322508Y-94935462D01*
X179294230Y-94948837D01*
X179264778Y-94959375D01*
X179234435Y-94966975D01*
X179203493Y-94971565D01*
X179172250Y-94973100D01*
X178459750Y-94973100D01*
X178428507Y-94971565D01*
X178397565Y-94966975D01*
X178367222Y-94959375D01*
X178337770Y-94948837D01*
X178309492Y-94935462D01*
X178282662Y-94919381D01*
X178257537Y-94900747D01*
X178234360Y-94879740D01*
X178213353Y-94856563D01*
X178194719Y-94831438D01*
X178178638Y-94804608D01*
X178165263Y-94776330D01*
X178154725Y-94746878D01*
X178147125Y-94716535D01*
X178142535Y-94685593D01*
X178141000Y-94654350D01*
X178141000Y-94016850D01*
X178142535Y-93985607D01*
X178147125Y-93954665D01*
X178154725Y-93924322D01*
X178165263Y-93894870D01*
X178178638Y-93866592D01*
X178194719Y-93839762D01*
X178213353Y-93814637D01*
X178234360Y-93791460D01*
X178257537Y-93770453D01*
X178282662Y-93751819D01*
X178309492Y-93735738D01*
X178337770Y-93722363D01*
X178367222Y-93711825D01*
X178397565Y-93704225D01*
X178428507Y-93699635D01*
X178459750Y-93698100D01*
X179172250Y-93698100D01*
X179203493Y-93699635D01*
X179203493Y-93699635D01*
G37*
D14*
X178816000Y-94335600D03*
D10*
G36*
X179203493Y-92124635D02*
X179234435Y-92129225D01*
X179264778Y-92136825D01*
X179294230Y-92147363D01*
X179322508Y-92160738D01*
X179349338Y-92176819D01*
X179374463Y-92195453D01*
X179397640Y-92216460D01*
X179418647Y-92239637D01*
X179437281Y-92264762D01*
X179453362Y-92291592D01*
X179466737Y-92319870D01*
X179477275Y-92349322D01*
X179484875Y-92379665D01*
X179489465Y-92410607D01*
X179491000Y-92441850D01*
X179491000Y-93079350D01*
X179489465Y-93110593D01*
X179484875Y-93141535D01*
X179477275Y-93171878D01*
X179466737Y-93201330D01*
X179453362Y-93229608D01*
X179437281Y-93256438D01*
X179418647Y-93281563D01*
X179397640Y-93304740D01*
X179374463Y-93325747D01*
X179349338Y-93344381D01*
X179322508Y-93360462D01*
X179294230Y-93373837D01*
X179264778Y-93384375D01*
X179234435Y-93391975D01*
X179203493Y-93396565D01*
X179172250Y-93398100D01*
X178459750Y-93398100D01*
X178428507Y-93396565D01*
X178397565Y-93391975D01*
X178367222Y-93384375D01*
X178337770Y-93373837D01*
X178309492Y-93360462D01*
X178282662Y-93344381D01*
X178257537Y-93325747D01*
X178234360Y-93304740D01*
X178213353Y-93281563D01*
X178194719Y-93256438D01*
X178178638Y-93229608D01*
X178165263Y-93201330D01*
X178154725Y-93171878D01*
X178147125Y-93141535D01*
X178142535Y-93110593D01*
X178141000Y-93079350D01*
X178141000Y-92441850D01*
X178142535Y-92410607D01*
X178147125Y-92379665D01*
X178154725Y-92349322D01*
X178165263Y-92319870D01*
X178178638Y-92291592D01*
X178194719Y-92264762D01*
X178213353Y-92239637D01*
X178234360Y-92216460D01*
X178257537Y-92195453D01*
X178282662Y-92176819D01*
X178309492Y-92160738D01*
X178337770Y-92147363D01*
X178367222Y-92136825D01*
X178397565Y-92129225D01*
X178428507Y-92124635D01*
X178459750Y-92123100D01*
X179172250Y-92123100D01*
X179203493Y-92124635D01*
X179203493Y-92124635D01*
G37*
D14*
X178816000Y-92760600D03*
G04 #@! TD*
D10*
G04 #@! TO.C,R5*
G36*
X172819633Y-111326890D02*
X172850383Y-111332624D01*
X172880424Y-111341344D01*
X173554106Y-111573312D01*
X173583147Y-111584935D01*
X173610909Y-111599349D01*
X173637125Y-111616414D01*
X173661541Y-111635967D01*
X173683924Y-111657818D01*
X173704057Y-111681759D01*
X173721746Y-111707557D01*
X173736822Y-111734965D01*
X173749138Y-111763719D01*
X173758577Y-111793542D01*
X173765047Y-111824146D01*
X173768486Y-111855237D01*
X173768862Y-111886515D01*
X173766169Y-111917680D01*
X173760435Y-111948431D01*
X173751715Y-111978471D01*
X173544165Y-112581239D01*
X173532542Y-112610280D01*
X173518128Y-112638042D01*
X173501063Y-112664258D01*
X173481511Y-112688674D01*
X173459659Y-112711057D01*
X173435718Y-112731190D01*
X173409920Y-112748879D01*
X173382512Y-112763955D01*
X173353758Y-112776271D01*
X173323935Y-112785710D01*
X173293331Y-112792180D01*
X173262240Y-112795619D01*
X173230962Y-112795995D01*
X173199797Y-112793302D01*
X173169047Y-112787568D01*
X173139006Y-112778848D01*
X172465324Y-112546880D01*
X172436283Y-112535257D01*
X172408521Y-112520843D01*
X172382305Y-112503778D01*
X172357889Y-112484225D01*
X172335506Y-112462374D01*
X172315373Y-112438433D01*
X172297684Y-112412635D01*
X172282608Y-112385227D01*
X172270292Y-112356473D01*
X172260853Y-112326650D01*
X172254383Y-112296046D01*
X172250944Y-112264955D01*
X172250568Y-112233677D01*
X172253261Y-112202512D01*
X172258995Y-112171761D01*
X172267715Y-112141721D01*
X172475265Y-111538953D01*
X172486888Y-111509912D01*
X172501302Y-111482150D01*
X172518367Y-111455934D01*
X172537919Y-111431518D01*
X172559771Y-111409135D01*
X172583712Y-111389002D01*
X172609510Y-111371313D01*
X172636918Y-111356237D01*
X172665672Y-111343921D01*
X172695495Y-111334482D01*
X172726099Y-111328012D01*
X172757190Y-111324573D01*
X172788468Y-111324197D01*
X172819633Y-111326890D01*
X172819633Y-111326890D01*
G37*
D14*
X173009715Y-112060096D03*
D10*
G36*
X173332403Y-109837698D02*
X173363153Y-109843432D01*
X173393194Y-109852152D01*
X174066876Y-110084120D01*
X174095917Y-110095743D01*
X174123679Y-110110157D01*
X174149895Y-110127222D01*
X174174311Y-110146775D01*
X174196694Y-110168626D01*
X174216827Y-110192567D01*
X174234516Y-110218365D01*
X174249592Y-110245773D01*
X174261908Y-110274527D01*
X174271347Y-110304350D01*
X174277817Y-110334954D01*
X174281256Y-110366045D01*
X174281632Y-110397323D01*
X174278939Y-110428488D01*
X174273205Y-110459239D01*
X174264485Y-110489279D01*
X174056935Y-111092047D01*
X174045312Y-111121088D01*
X174030898Y-111148850D01*
X174013833Y-111175066D01*
X173994281Y-111199482D01*
X173972429Y-111221865D01*
X173948488Y-111241998D01*
X173922690Y-111259687D01*
X173895282Y-111274763D01*
X173866528Y-111287079D01*
X173836705Y-111296518D01*
X173806101Y-111302988D01*
X173775010Y-111306427D01*
X173743732Y-111306803D01*
X173712567Y-111304110D01*
X173681817Y-111298376D01*
X173651776Y-111289656D01*
X172978094Y-111057688D01*
X172949053Y-111046065D01*
X172921291Y-111031651D01*
X172895075Y-111014586D01*
X172870659Y-110995033D01*
X172848276Y-110973182D01*
X172828143Y-110949241D01*
X172810454Y-110923443D01*
X172795378Y-110896035D01*
X172783062Y-110867281D01*
X172773623Y-110837458D01*
X172767153Y-110806854D01*
X172763714Y-110775763D01*
X172763338Y-110744485D01*
X172766031Y-110713320D01*
X172771765Y-110682569D01*
X172780485Y-110652529D01*
X172988035Y-110049761D01*
X172999658Y-110020720D01*
X173014072Y-109992958D01*
X173031137Y-109966742D01*
X173050689Y-109942326D01*
X173072541Y-109919943D01*
X173096482Y-109899810D01*
X173122280Y-109882121D01*
X173149688Y-109867045D01*
X173178442Y-109854729D01*
X173208265Y-109845290D01*
X173238869Y-109838820D01*
X173269960Y-109835381D01*
X173301238Y-109835005D01*
X173332403Y-109837698D01*
X173332403Y-109837698D01*
G37*
D14*
X173522485Y-110570904D03*
G04 #@! TD*
D10*
G04 #@! TO.C,R7*
G36*
X175288203Y-110510798D02*
X175318953Y-110516532D01*
X175348994Y-110525252D01*
X176022676Y-110757220D01*
X176051717Y-110768843D01*
X176079479Y-110783257D01*
X176105695Y-110800322D01*
X176130111Y-110819875D01*
X176152494Y-110841726D01*
X176172627Y-110865667D01*
X176190316Y-110891465D01*
X176205392Y-110918873D01*
X176217708Y-110947627D01*
X176227147Y-110977450D01*
X176233617Y-111008054D01*
X176237056Y-111039145D01*
X176237432Y-111070423D01*
X176234739Y-111101588D01*
X176229005Y-111132339D01*
X176220285Y-111162379D01*
X176012735Y-111765147D01*
X176001112Y-111794188D01*
X175986698Y-111821950D01*
X175969633Y-111848166D01*
X175950081Y-111872582D01*
X175928229Y-111894965D01*
X175904288Y-111915098D01*
X175878490Y-111932787D01*
X175851082Y-111947863D01*
X175822328Y-111960179D01*
X175792505Y-111969618D01*
X175761901Y-111976088D01*
X175730810Y-111979527D01*
X175699532Y-111979903D01*
X175668367Y-111977210D01*
X175637617Y-111971476D01*
X175607576Y-111962756D01*
X174933894Y-111730788D01*
X174904853Y-111719165D01*
X174877091Y-111704751D01*
X174850875Y-111687686D01*
X174826459Y-111668133D01*
X174804076Y-111646282D01*
X174783943Y-111622341D01*
X174766254Y-111596543D01*
X174751178Y-111569135D01*
X174738862Y-111540381D01*
X174729423Y-111510558D01*
X174722953Y-111479954D01*
X174719514Y-111448863D01*
X174719138Y-111417585D01*
X174721831Y-111386420D01*
X174727565Y-111355669D01*
X174736285Y-111325629D01*
X174943835Y-110722861D01*
X174955458Y-110693820D01*
X174969872Y-110666058D01*
X174986937Y-110639842D01*
X175006489Y-110615426D01*
X175028341Y-110593043D01*
X175052282Y-110572910D01*
X175078080Y-110555221D01*
X175105488Y-110540145D01*
X175134242Y-110527829D01*
X175164065Y-110518390D01*
X175194669Y-110511920D01*
X175225760Y-110508481D01*
X175257038Y-110508105D01*
X175288203Y-110510798D01*
X175288203Y-110510798D01*
G37*
D14*
X175478285Y-111244004D03*
D10*
G36*
X174775433Y-111999990D02*
X174806183Y-112005724D01*
X174836224Y-112014444D01*
X175509906Y-112246412D01*
X175538947Y-112258035D01*
X175566709Y-112272449D01*
X175592925Y-112289514D01*
X175617341Y-112309067D01*
X175639724Y-112330918D01*
X175659857Y-112354859D01*
X175677546Y-112380657D01*
X175692622Y-112408065D01*
X175704938Y-112436819D01*
X175714377Y-112466642D01*
X175720847Y-112497246D01*
X175724286Y-112528337D01*
X175724662Y-112559615D01*
X175721969Y-112590780D01*
X175716235Y-112621531D01*
X175707515Y-112651571D01*
X175499965Y-113254339D01*
X175488342Y-113283380D01*
X175473928Y-113311142D01*
X175456863Y-113337358D01*
X175437311Y-113361774D01*
X175415459Y-113384157D01*
X175391518Y-113404290D01*
X175365720Y-113421979D01*
X175338312Y-113437055D01*
X175309558Y-113449371D01*
X175279735Y-113458810D01*
X175249131Y-113465280D01*
X175218040Y-113468719D01*
X175186762Y-113469095D01*
X175155597Y-113466402D01*
X175124847Y-113460668D01*
X175094806Y-113451948D01*
X174421124Y-113219980D01*
X174392083Y-113208357D01*
X174364321Y-113193943D01*
X174338105Y-113176878D01*
X174313689Y-113157325D01*
X174291306Y-113135474D01*
X174271173Y-113111533D01*
X174253484Y-113085735D01*
X174238408Y-113058327D01*
X174226092Y-113029573D01*
X174216653Y-112999750D01*
X174210183Y-112969146D01*
X174206744Y-112938055D01*
X174206368Y-112906777D01*
X174209061Y-112875612D01*
X174214795Y-112844861D01*
X174223515Y-112814821D01*
X174431065Y-112212053D01*
X174442688Y-112183012D01*
X174457102Y-112155250D01*
X174474167Y-112129034D01*
X174493719Y-112104618D01*
X174515571Y-112082235D01*
X174539512Y-112062102D01*
X174565310Y-112044413D01*
X174592718Y-112029337D01*
X174621472Y-112017021D01*
X174651295Y-112007582D01*
X174681899Y-112001112D01*
X174712990Y-111997673D01*
X174744268Y-111997297D01*
X174775433Y-111999990D01*
X174775433Y-111999990D01*
G37*
D14*
X174965515Y-112733196D03*
G04 #@! TD*
D10*
G04 #@! TO.C,R10*
G36*
X124212493Y-102360835D02*
X124243435Y-102365425D01*
X124273778Y-102373025D01*
X124303230Y-102383563D01*
X124331508Y-102396938D01*
X124358338Y-102413019D01*
X124383463Y-102431653D01*
X124406640Y-102452660D01*
X124427647Y-102475837D01*
X124446281Y-102500962D01*
X124462362Y-102527792D01*
X124475737Y-102556070D01*
X124486275Y-102585522D01*
X124493875Y-102615865D01*
X124498465Y-102646807D01*
X124500000Y-102678050D01*
X124500000Y-103315550D01*
X124498465Y-103346793D01*
X124493875Y-103377735D01*
X124486275Y-103408078D01*
X124475737Y-103437530D01*
X124462362Y-103465808D01*
X124446281Y-103492638D01*
X124427647Y-103517763D01*
X124406640Y-103540940D01*
X124383463Y-103561947D01*
X124358338Y-103580581D01*
X124331508Y-103596662D01*
X124303230Y-103610037D01*
X124273778Y-103620575D01*
X124243435Y-103628175D01*
X124212493Y-103632765D01*
X124181250Y-103634300D01*
X123468750Y-103634300D01*
X123437507Y-103632765D01*
X123406565Y-103628175D01*
X123376222Y-103620575D01*
X123346770Y-103610037D01*
X123318492Y-103596662D01*
X123291662Y-103580581D01*
X123266537Y-103561947D01*
X123243360Y-103540940D01*
X123222353Y-103517763D01*
X123203719Y-103492638D01*
X123187638Y-103465808D01*
X123174263Y-103437530D01*
X123163725Y-103408078D01*
X123156125Y-103377735D01*
X123151535Y-103346793D01*
X123150000Y-103315550D01*
X123150000Y-102678050D01*
X123151535Y-102646807D01*
X123156125Y-102615865D01*
X123163725Y-102585522D01*
X123174263Y-102556070D01*
X123187638Y-102527792D01*
X123203719Y-102500962D01*
X123222353Y-102475837D01*
X123243360Y-102452660D01*
X123266537Y-102431653D01*
X123291662Y-102413019D01*
X123318492Y-102396938D01*
X123346770Y-102383563D01*
X123376222Y-102373025D01*
X123406565Y-102365425D01*
X123437507Y-102360835D01*
X123468750Y-102359300D01*
X124181250Y-102359300D01*
X124212493Y-102360835D01*
X124212493Y-102360835D01*
G37*
D14*
X123825000Y-102996800D03*
D10*
G36*
X124212493Y-103935835D02*
X124243435Y-103940425D01*
X124273778Y-103948025D01*
X124303230Y-103958563D01*
X124331508Y-103971938D01*
X124358338Y-103988019D01*
X124383463Y-104006653D01*
X124406640Y-104027660D01*
X124427647Y-104050837D01*
X124446281Y-104075962D01*
X124462362Y-104102792D01*
X124475737Y-104131070D01*
X124486275Y-104160522D01*
X124493875Y-104190865D01*
X124498465Y-104221807D01*
X124500000Y-104253050D01*
X124500000Y-104890550D01*
X124498465Y-104921793D01*
X124493875Y-104952735D01*
X124486275Y-104983078D01*
X124475737Y-105012530D01*
X124462362Y-105040808D01*
X124446281Y-105067638D01*
X124427647Y-105092763D01*
X124406640Y-105115940D01*
X124383463Y-105136947D01*
X124358338Y-105155581D01*
X124331508Y-105171662D01*
X124303230Y-105185037D01*
X124273778Y-105195575D01*
X124243435Y-105203175D01*
X124212493Y-105207765D01*
X124181250Y-105209300D01*
X123468750Y-105209300D01*
X123437507Y-105207765D01*
X123406565Y-105203175D01*
X123376222Y-105195575D01*
X123346770Y-105185037D01*
X123318492Y-105171662D01*
X123291662Y-105155581D01*
X123266537Y-105136947D01*
X123243360Y-105115940D01*
X123222353Y-105092763D01*
X123203719Y-105067638D01*
X123187638Y-105040808D01*
X123174263Y-105012530D01*
X123163725Y-104983078D01*
X123156125Y-104952735D01*
X123151535Y-104921793D01*
X123150000Y-104890550D01*
X123150000Y-104253050D01*
X123151535Y-104221807D01*
X123156125Y-104190865D01*
X123163725Y-104160522D01*
X123174263Y-104131070D01*
X123187638Y-104102792D01*
X123203719Y-104075962D01*
X123222353Y-104050837D01*
X123243360Y-104027660D01*
X123266537Y-104006653D01*
X123291662Y-103988019D01*
X123318492Y-103971938D01*
X123346770Y-103958563D01*
X123376222Y-103948025D01*
X123406565Y-103940425D01*
X123437507Y-103935835D01*
X123468750Y-103934300D01*
X124181250Y-103934300D01*
X124212493Y-103935835D01*
X124212493Y-103935835D01*
G37*
D14*
X123825000Y-104571800D03*
G04 #@! TD*
D10*
G04 #@! TO.C,R11*
G36*
X115322493Y-102398935D02*
X115353435Y-102403525D01*
X115383778Y-102411125D01*
X115413230Y-102421663D01*
X115441508Y-102435038D01*
X115468338Y-102451119D01*
X115493463Y-102469753D01*
X115516640Y-102490760D01*
X115537647Y-102513937D01*
X115556281Y-102539062D01*
X115572362Y-102565892D01*
X115585737Y-102594170D01*
X115596275Y-102623622D01*
X115603875Y-102653965D01*
X115608465Y-102684907D01*
X115610000Y-102716150D01*
X115610000Y-103353650D01*
X115608465Y-103384893D01*
X115603875Y-103415835D01*
X115596275Y-103446178D01*
X115585737Y-103475630D01*
X115572362Y-103503908D01*
X115556281Y-103530738D01*
X115537647Y-103555863D01*
X115516640Y-103579040D01*
X115493463Y-103600047D01*
X115468338Y-103618681D01*
X115441508Y-103634762D01*
X115413230Y-103648137D01*
X115383778Y-103658675D01*
X115353435Y-103666275D01*
X115322493Y-103670865D01*
X115291250Y-103672400D01*
X114578750Y-103672400D01*
X114547507Y-103670865D01*
X114516565Y-103666275D01*
X114486222Y-103658675D01*
X114456770Y-103648137D01*
X114428492Y-103634762D01*
X114401662Y-103618681D01*
X114376537Y-103600047D01*
X114353360Y-103579040D01*
X114332353Y-103555863D01*
X114313719Y-103530738D01*
X114297638Y-103503908D01*
X114284263Y-103475630D01*
X114273725Y-103446178D01*
X114266125Y-103415835D01*
X114261535Y-103384893D01*
X114260000Y-103353650D01*
X114260000Y-102716150D01*
X114261535Y-102684907D01*
X114266125Y-102653965D01*
X114273725Y-102623622D01*
X114284263Y-102594170D01*
X114297638Y-102565892D01*
X114313719Y-102539062D01*
X114332353Y-102513937D01*
X114353360Y-102490760D01*
X114376537Y-102469753D01*
X114401662Y-102451119D01*
X114428492Y-102435038D01*
X114456770Y-102421663D01*
X114486222Y-102411125D01*
X114516565Y-102403525D01*
X114547507Y-102398935D01*
X114578750Y-102397400D01*
X115291250Y-102397400D01*
X115322493Y-102398935D01*
X115322493Y-102398935D01*
G37*
D14*
X114935000Y-103034900D03*
D10*
G36*
X115322493Y-103973935D02*
X115353435Y-103978525D01*
X115383778Y-103986125D01*
X115413230Y-103996663D01*
X115441508Y-104010038D01*
X115468338Y-104026119D01*
X115493463Y-104044753D01*
X115516640Y-104065760D01*
X115537647Y-104088937D01*
X115556281Y-104114062D01*
X115572362Y-104140892D01*
X115585737Y-104169170D01*
X115596275Y-104198622D01*
X115603875Y-104228965D01*
X115608465Y-104259907D01*
X115610000Y-104291150D01*
X115610000Y-104928650D01*
X115608465Y-104959893D01*
X115603875Y-104990835D01*
X115596275Y-105021178D01*
X115585737Y-105050630D01*
X115572362Y-105078908D01*
X115556281Y-105105738D01*
X115537647Y-105130863D01*
X115516640Y-105154040D01*
X115493463Y-105175047D01*
X115468338Y-105193681D01*
X115441508Y-105209762D01*
X115413230Y-105223137D01*
X115383778Y-105233675D01*
X115353435Y-105241275D01*
X115322493Y-105245865D01*
X115291250Y-105247400D01*
X114578750Y-105247400D01*
X114547507Y-105245865D01*
X114516565Y-105241275D01*
X114486222Y-105233675D01*
X114456770Y-105223137D01*
X114428492Y-105209762D01*
X114401662Y-105193681D01*
X114376537Y-105175047D01*
X114353360Y-105154040D01*
X114332353Y-105130863D01*
X114313719Y-105105738D01*
X114297638Y-105078908D01*
X114284263Y-105050630D01*
X114273725Y-105021178D01*
X114266125Y-104990835D01*
X114261535Y-104959893D01*
X114260000Y-104928650D01*
X114260000Y-104291150D01*
X114261535Y-104259907D01*
X114266125Y-104228965D01*
X114273725Y-104198622D01*
X114284263Y-104169170D01*
X114297638Y-104140892D01*
X114313719Y-104114062D01*
X114332353Y-104088937D01*
X114353360Y-104065760D01*
X114376537Y-104044753D01*
X114401662Y-104026119D01*
X114428492Y-104010038D01*
X114456770Y-103996663D01*
X114486222Y-103986125D01*
X114516565Y-103978525D01*
X114547507Y-103973935D01*
X114578750Y-103972400D01*
X115291250Y-103972400D01*
X115322493Y-103973935D01*
X115322493Y-103973935D01*
G37*
D14*
X114935000Y-104609900D03*
G04 #@! TD*
D10*
G04 #@! TO.C,R12*
G36*
X121697893Y-103961235D02*
X121728835Y-103965825D01*
X121759178Y-103973425D01*
X121788630Y-103983963D01*
X121816908Y-103997338D01*
X121843738Y-104013419D01*
X121868863Y-104032053D01*
X121892040Y-104053060D01*
X121913047Y-104076237D01*
X121931681Y-104101362D01*
X121947762Y-104128192D01*
X121961137Y-104156470D01*
X121971675Y-104185922D01*
X121979275Y-104216265D01*
X121983865Y-104247207D01*
X121985400Y-104278450D01*
X121985400Y-104915950D01*
X121983865Y-104947193D01*
X121979275Y-104978135D01*
X121971675Y-105008478D01*
X121961137Y-105037930D01*
X121947762Y-105066208D01*
X121931681Y-105093038D01*
X121913047Y-105118163D01*
X121892040Y-105141340D01*
X121868863Y-105162347D01*
X121843738Y-105180981D01*
X121816908Y-105197062D01*
X121788630Y-105210437D01*
X121759178Y-105220975D01*
X121728835Y-105228575D01*
X121697893Y-105233165D01*
X121666650Y-105234700D01*
X120954150Y-105234700D01*
X120922907Y-105233165D01*
X120891965Y-105228575D01*
X120861622Y-105220975D01*
X120832170Y-105210437D01*
X120803892Y-105197062D01*
X120777062Y-105180981D01*
X120751937Y-105162347D01*
X120728760Y-105141340D01*
X120707753Y-105118163D01*
X120689119Y-105093038D01*
X120673038Y-105066208D01*
X120659663Y-105037930D01*
X120649125Y-105008478D01*
X120641525Y-104978135D01*
X120636935Y-104947193D01*
X120635400Y-104915950D01*
X120635400Y-104278450D01*
X120636935Y-104247207D01*
X120641525Y-104216265D01*
X120649125Y-104185922D01*
X120659663Y-104156470D01*
X120673038Y-104128192D01*
X120689119Y-104101362D01*
X120707753Y-104076237D01*
X120728760Y-104053060D01*
X120751937Y-104032053D01*
X120777062Y-104013419D01*
X120803892Y-103997338D01*
X120832170Y-103983963D01*
X120861622Y-103973425D01*
X120891965Y-103965825D01*
X120922907Y-103961235D01*
X120954150Y-103959700D01*
X121666650Y-103959700D01*
X121697893Y-103961235D01*
X121697893Y-103961235D01*
G37*
D14*
X121310400Y-104597200D03*
D10*
G36*
X121697893Y-102386235D02*
X121728835Y-102390825D01*
X121759178Y-102398425D01*
X121788630Y-102408963D01*
X121816908Y-102422338D01*
X121843738Y-102438419D01*
X121868863Y-102457053D01*
X121892040Y-102478060D01*
X121913047Y-102501237D01*
X121931681Y-102526362D01*
X121947762Y-102553192D01*
X121961137Y-102581470D01*
X121971675Y-102610922D01*
X121979275Y-102641265D01*
X121983865Y-102672207D01*
X121985400Y-102703450D01*
X121985400Y-103340950D01*
X121983865Y-103372193D01*
X121979275Y-103403135D01*
X121971675Y-103433478D01*
X121961137Y-103462930D01*
X121947762Y-103491208D01*
X121931681Y-103518038D01*
X121913047Y-103543163D01*
X121892040Y-103566340D01*
X121868863Y-103587347D01*
X121843738Y-103605981D01*
X121816908Y-103622062D01*
X121788630Y-103635437D01*
X121759178Y-103645975D01*
X121728835Y-103653575D01*
X121697893Y-103658165D01*
X121666650Y-103659700D01*
X120954150Y-103659700D01*
X120922907Y-103658165D01*
X120891965Y-103653575D01*
X120861622Y-103645975D01*
X120832170Y-103635437D01*
X120803892Y-103622062D01*
X120777062Y-103605981D01*
X120751937Y-103587347D01*
X120728760Y-103566340D01*
X120707753Y-103543163D01*
X120689119Y-103518038D01*
X120673038Y-103491208D01*
X120659663Y-103462930D01*
X120649125Y-103433478D01*
X120641525Y-103403135D01*
X120636935Y-103372193D01*
X120635400Y-103340950D01*
X120635400Y-102703450D01*
X120636935Y-102672207D01*
X120641525Y-102641265D01*
X120649125Y-102610922D01*
X120659663Y-102581470D01*
X120673038Y-102553192D01*
X120689119Y-102526362D01*
X120707753Y-102501237D01*
X120728760Y-102478060D01*
X120751937Y-102457053D01*
X120777062Y-102438419D01*
X120803892Y-102422338D01*
X120832170Y-102408963D01*
X120861622Y-102398425D01*
X120891965Y-102390825D01*
X120922907Y-102386235D01*
X120954150Y-102384700D01*
X121666650Y-102384700D01*
X121697893Y-102386235D01*
X121697893Y-102386235D01*
G37*
D14*
X121310400Y-103022200D03*
G04 #@! TD*
D10*
G04 #@! TO.C,R13*
G36*
X117862493Y-103974135D02*
X117893435Y-103978725D01*
X117923778Y-103986325D01*
X117953230Y-103996863D01*
X117981508Y-104010238D01*
X118008338Y-104026319D01*
X118033463Y-104044953D01*
X118056640Y-104065960D01*
X118077647Y-104089137D01*
X118096281Y-104114262D01*
X118112362Y-104141092D01*
X118125737Y-104169370D01*
X118136275Y-104198822D01*
X118143875Y-104229165D01*
X118148465Y-104260107D01*
X118150000Y-104291350D01*
X118150000Y-104928850D01*
X118148465Y-104960093D01*
X118143875Y-104991035D01*
X118136275Y-105021378D01*
X118125737Y-105050830D01*
X118112362Y-105079108D01*
X118096281Y-105105938D01*
X118077647Y-105131063D01*
X118056640Y-105154240D01*
X118033463Y-105175247D01*
X118008338Y-105193881D01*
X117981508Y-105209962D01*
X117953230Y-105223337D01*
X117923778Y-105233875D01*
X117893435Y-105241475D01*
X117862493Y-105246065D01*
X117831250Y-105247600D01*
X117118750Y-105247600D01*
X117087507Y-105246065D01*
X117056565Y-105241475D01*
X117026222Y-105233875D01*
X116996770Y-105223337D01*
X116968492Y-105209962D01*
X116941662Y-105193881D01*
X116916537Y-105175247D01*
X116893360Y-105154240D01*
X116872353Y-105131063D01*
X116853719Y-105105938D01*
X116837638Y-105079108D01*
X116824263Y-105050830D01*
X116813725Y-105021378D01*
X116806125Y-104991035D01*
X116801535Y-104960093D01*
X116800000Y-104928850D01*
X116800000Y-104291350D01*
X116801535Y-104260107D01*
X116806125Y-104229165D01*
X116813725Y-104198822D01*
X116824263Y-104169370D01*
X116837638Y-104141092D01*
X116853719Y-104114262D01*
X116872353Y-104089137D01*
X116893360Y-104065960D01*
X116916537Y-104044953D01*
X116941662Y-104026319D01*
X116968492Y-104010238D01*
X116996770Y-103996863D01*
X117026222Y-103986325D01*
X117056565Y-103978725D01*
X117087507Y-103974135D01*
X117118750Y-103972600D01*
X117831250Y-103972600D01*
X117862493Y-103974135D01*
X117862493Y-103974135D01*
G37*
D14*
X117475000Y-104610100D03*
D10*
G36*
X117862493Y-102399135D02*
X117893435Y-102403725D01*
X117923778Y-102411325D01*
X117953230Y-102421863D01*
X117981508Y-102435238D01*
X118008338Y-102451319D01*
X118033463Y-102469953D01*
X118056640Y-102490960D01*
X118077647Y-102514137D01*
X118096281Y-102539262D01*
X118112362Y-102566092D01*
X118125737Y-102594370D01*
X118136275Y-102623822D01*
X118143875Y-102654165D01*
X118148465Y-102685107D01*
X118150000Y-102716350D01*
X118150000Y-103353850D01*
X118148465Y-103385093D01*
X118143875Y-103416035D01*
X118136275Y-103446378D01*
X118125737Y-103475830D01*
X118112362Y-103504108D01*
X118096281Y-103530938D01*
X118077647Y-103556063D01*
X118056640Y-103579240D01*
X118033463Y-103600247D01*
X118008338Y-103618881D01*
X117981508Y-103634962D01*
X117953230Y-103648337D01*
X117923778Y-103658875D01*
X117893435Y-103666475D01*
X117862493Y-103671065D01*
X117831250Y-103672600D01*
X117118750Y-103672600D01*
X117087507Y-103671065D01*
X117056565Y-103666475D01*
X117026222Y-103658875D01*
X116996770Y-103648337D01*
X116968492Y-103634962D01*
X116941662Y-103618881D01*
X116916537Y-103600247D01*
X116893360Y-103579240D01*
X116872353Y-103556063D01*
X116853719Y-103530938D01*
X116837638Y-103504108D01*
X116824263Y-103475830D01*
X116813725Y-103446378D01*
X116806125Y-103416035D01*
X116801535Y-103385093D01*
X116800000Y-103353850D01*
X116800000Y-102716350D01*
X116801535Y-102685107D01*
X116806125Y-102654165D01*
X116813725Y-102623822D01*
X116824263Y-102594370D01*
X116837638Y-102566092D01*
X116853719Y-102539262D01*
X116872353Y-102514137D01*
X116893360Y-102490960D01*
X116916537Y-102469953D01*
X116941662Y-102451319D01*
X116968492Y-102435238D01*
X116996770Y-102421863D01*
X117026222Y-102411325D01*
X117056565Y-102403725D01*
X117087507Y-102399135D01*
X117118750Y-102397600D01*
X117831250Y-102397600D01*
X117862493Y-102399135D01*
X117862493Y-102399135D01*
G37*
D14*
X117475000Y-103035100D03*
G04 #@! TD*
D28*
G04 #@! TO.C,SW1*
X180131799Y-124243789D03*
X185526601Y-120104211D03*
G04 #@! TD*
D29*
G04 #@! TO.C,U4*
X123825000Y-100712800D03*
X122555000Y-100712800D03*
X121285000Y-100712800D03*
X120015000Y-100712800D03*
X118745000Y-100712800D03*
X117475000Y-100712800D03*
X116205000Y-100712800D03*
X114935000Y-100712800D03*
X114935000Y-91412800D03*
X116205000Y-91412800D03*
X117475000Y-91412800D03*
X118745000Y-91412800D03*
X120015000Y-91412800D03*
X121285000Y-91412800D03*
X122555000Y-91412800D03*
X123825000Y-91412800D03*
G04 #@! TD*
D30*
G04 #@! TO.C,Y1*
X147231100Y-117373400D03*
X149731100Y-117373400D03*
G04 #@! TD*
M02*
