M48
; DRILL file {KiCad 6.0.0-unknown-9810725~86~ubuntu18.04.1} date Mon 01 Jul 2019 12:49:21 PM MDT
; FORMAT={-:-/ absolute / inch / decimal}
; #@! TF.CreationDate,2019-07-01T12:49:21-06:00
; #@! TF.GenerationSoftware,Kicad,Pcbnew,6.0.0-unknown-9810725~86~ubuntu18.04.1
FMAT,2
INCH
T1C0.0079
T2C0.0157
T3C0.0236
T4C0.0315
T5C0.0335
T6C0.0433
T7C0.0472
T8C0.0551
T9C0.1260
T10C0.0512
%
G90
G05
T1
X6.834Y-4.0896
X6.8642Y-4.1167
X6.8943Y-4.1439
T2
X4.4331Y-4.1614
X4.5118Y-3.4567
X4.5669Y-3.4724
X4.5827Y-3.5512
X4.5827Y-4.2205
X4.5965Y-3.7598
X4.6299Y-3.4961
X4.6535Y-4.6063
X4.6585Y-4.5491
X4.6693Y-3.5039
X4.7638Y-3.7598
X4.7638Y-4.5827
X4.8307Y-4.4606
X4.8425Y-3.7008
X4.8543Y-4.311
X4.9055Y-4.311
X4.9372Y-4.3425
X4.9567Y-3.9921
X4.9764Y-4.3386
X5.0098Y-4.376
X5.0236Y-4.4724
X5.0381Y-3.748
X5.0472Y-4.565
X5.1024Y-3.7825
X5.1654Y-3.7008
X5.1654Y-3.8268
X5.252Y-3.4567
X5.2992Y-3.9291
X5.685Y-4.9134
X5.8661Y-5.1969
X6.5197Y-4.4488
X6.5276Y-3.6772
X6.5591Y-4.0945
X6.6693Y-4.0236
X6.746Y-3.5413
X6.7638Y-3.311
X6.8031Y-3.311
X6.8061Y-3.562
X6.9528Y-3.2677
X6.9685Y-4.5591
X6.9764Y-3.4882
X7.0394Y-3.7008
X7.1307Y-3.0476
X7.1496Y-4.0315
X7.1582Y-3.5858
X7.2017Y-3.7027
X7.2677Y-4.0709
X7.3091Y-3.439
X7.4094Y-3.2982
X7.4488Y-3.2323
X7.4488Y-3.3268
T3
X4.5197Y-3.6969
X5.0709Y-4.2283
X5.0932Y-4.5467
X5.2126Y-4.2756
X5.2362Y-4.7559
X6.0472Y-5.0157
X6.4173Y-2.3622
X6.4961Y-3.8583
X6.5276Y-2.4803
X6.5276Y-3.6063
X6.6457Y-3.8268
X6.6902Y-2.796
X6.7002Y-4.2598
X6.7245Y-2.8302
X6.7382Y-2.7933
X6.7756Y-2.8307
X6.815Y-2.8701
X6.815Y-2.9173
X6.8504Y-2.7953
X6.8583Y-2.7244
X6.9055Y-2.7008
X6.9055Y-2.7559
X6.9528Y-2.685
X6.9528Y-2.7323
X6.9528Y-2.7795
X7.0Y-2.685
X7.0Y-2.7323
X7.0Y-2.7795
X7.0236Y-3.874
X7.1339Y-2.7717
X7.3494Y-3.2559
X7.3543Y-3.5591
X7.5118Y-3.2756
T4
X5.2588Y-1.9147
X5.2588Y-2.8753
X5.3376Y-1.9147
X5.3376Y-2.8753
X5.4163Y-1.9147
X5.4163Y-2.8753
X5.495Y-1.9147
X5.495Y-2.8753
X5.5738Y-1.9147
X5.5738Y-2.8753
X5.6525Y-1.9147
X5.6525Y-2.8753
X5.7313Y-1.9147
X5.7313Y-2.8753
X5.81Y-1.9147
X5.81Y-2.8753
X5.8887Y-1.9147
X5.8887Y-2.8753
X5.9675Y-1.9147
X5.9675Y-2.8753
X6.0462Y-1.9147
X6.0462Y-2.8753
X6.125Y-1.9147
X6.125Y-2.8753
X6.2037Y-1.9147
X6.2037Y-2.8753
X6.2824Y-1.9147
X6.2824Y-2.8753
X6.3612Y-1.9147
X6.3612Y-2.8753
X6.4399Y-1.9147
X6.4399Y-2.8753
T5
X7.056Y-2.2424
X7.2121Y-2.3623
T6
X5.7003Y-4.9962
X5.7577Y-4.9143
X5.815Y-4.8324
X5.8724Y-4.7505
X5.9298Y-4.6685
X5.9871Y-4.5866
X6.0445Y-4.5047
X6.1018Y-4.4228
X6.1592Y-4.3409
X6.1918Y-5.3403
X6.2165Y-4.259
X6.2492Y-5.2584
X6.2739Y-4.1771
X6.3065Y-5.1765
X6.3313Y-4.0951
X6.3639Y-5.0946
X6.3886Y-4.0132
X6.4212Y-5.0127
X6.446Y-3.9313
X6.4786Y-4.9308
X6.536Y-4.8489
X6.5933Y-4.7669
X6.6507Y-4.685
X6.708Y-4.6031
X6.7654Y-4.5212
X6.8228Y-4.4393
X6.8801Y-4.3574
X6.9375Y-4.2755
T7
X7.1358Y-4.1437
X7.2017Y-4.0706
X7.209Y-4.2096
X7.2675Y-3.9974
X7.2748Y-4.1364
X7.3334Y-3.9243
X7.3407Y-4.0633
X7.3993Y-3.8511
X7.4065Y-3.9901
X7.4724Y-3.917
T8
X4.26Y-3.6666
X4.26Y-3.8832
X4.26Y-3.1841
X4.26Y-3.4006
T9
X6.8425Y-4.7525
X4.915Y-2.39
X6.8425Y-2.39
X4.914Y-4.752
T10
X7.1954Y-3.9987
T3
G00X7.0811Y-2.1451
M15
G01X7.0978Y-2.1232
M16
G05
G00X7.3165Y-2.291
M15
G01X7.2997Y-2.3128
M16
G05
T0
M30
