G04 #@! TF.GenerationSoftware,KiCad,Pcbnew,5.1.0-unknown-e90452d~82~ubuntu18.04.1*
G04 #@! TF.CreationDate,2019-04-11T15:55:37-06:00*
G04 #@! TF.ProjectId,batteryMonitor,62617474-6572-4794-9d6f-6e69746f722e,rev?*
G04 #@! TF.SameCoordinates,Original*
G04 #@! TF.FileFunction,Copper,L2,Bot*
G04 #@! TF.FilePolarity,Positive*
%FSLAX46Y46*%
G04 Gerber Fmt 4.6, Leading zero omitted, Abs format (unit mm)*
G04 Created by KiCad (PCBNEW 5.1.0-unknown-e90452d~82~ubuntu18.04.1) date 2019-04-11 15:55:37*
%MOMM*%
%LPD*%
G04 APERTURE LIST*
%ADD10R,1.700000X1.700000*%
%ADD11O,1.700000X1.700000*%
%ADD12C,0.100000*%
%ADD13C,1.700000*%
%ADD14C,0.800000*%
%ADD15C,1.000000*%
%ADD16C,0.250000*%
%ADD17C,0.350000*%
%ADD18C,0.254000*%
G04 APERTURE END LIST*
D10*
X131000000Y-81000000D03*
X142000000Y-74000000D03*
D11*
X142000000Y-76540000D03*
D10*
X141931080Y-81141880D03*
D11*
X141931080Y-83681880D03*
X141931080Y-86221880D03*
X141931080Y-88761880D03*
X141931080Y-91301880D03*
D12*
G36*
X96126424Y-83137004D02*
G01*
X96150693Y-83140604D01*
X96174491Y-83146565D01*
X96197591Y-83154830D01*
X96219769Y-83165320D01*
X96240813Y-83177933D01*
X96260518Y-83192547D01*
X96278697Y-83209023D01*
X96295173Y-83227202D01*
X96309787Y-83246907D01*
X96322400Y-83267951D01*
X96332890Y-83290129D01*
X96341155Y-83313229D01*
X96347116Y-83337027D01*
X96350716Y-83361296D01*
X96351920Y-83385800D01*
X96351920Y-84585800D01*
X96350716Y-84610304D01*
X96347116Y-84634573D01*
X96341155Y-84658371D01*
X96332890Y-84681471D01*
X96322400Y-84703649D01*
X96309787Y-84724693D01*
X96295173Y-84744398D01*
X96278697Y-84762577D01*
X96260518Y-84779053D01*
X96240813Y-84793667D01*
X96219769Y-84806280D01*
X96197591Y-84816770D01*
X96174491Y-84825035D01*
X96150693Y-84830996D01*
X96126424Y-84834596D01*
X96101920Y-84835800D01*
X94901920Y-84835800D01*
X94877416Y-84834596D01*
X94853147Y-84830996D01*
X94829349Y-84825035D01*
X94806249Y-84816770D01*
X94784071Y-84806280D01*
X94763027Y-84793667D01*
X94743322Y-84779053D01*
X94725143Y-84762577D01*
X94708667Y-84744398D01*
X94694053Y-84724693D01*
X94681440Y-84703649D01*
X94670950Y-84681471D01*
X94662685Y-84658371D01*
X94656724Y-84634573D01*
X94653124Y-84610304D01*
X94651920Y-84585800D01*
X94651920Y-83385800D01*
X94653124Y-83361296D01*
X94656724Y-83337027D01*
X94662685Y-83313229D01*
X94670950Y-83290129D01*
X94681440Y-83267951D01*
X94694053Y-83246907D01*
X94708667Y-83227202D01*
X94725143Y-83209023D01*
X94743322Y-83192547D01*
X94763027Y-83177933D01*
X94784071Y-83165320D01*
X94806249Y-83154830D01*
X94829349Y-83146565D01*
X94853147Y-83140604D01*
X94877416Y-83137004D01*
X94901920Y-83135800D01*
X96101920Y-83135800D01*
X96126424Y-83137004D01*
X96126424Y-83137004D01*
G37*
D13*
X95501920Y-83985800D03*
X95501920Y-81485800D03*
X95501920Y-78985800D03*
X95501920Y-76485800D03*
X95501920Y-73985800D03*
X93001920Y-83985800D03*
X93001920Y-81485800D03*
X93001920Y-78985800D03*
X93001920Y-76485800D03*
X93001920Y-73985800D03*
D14*
X106500000Y-87500000D03*
X103000000Y-87500000D03*
X118000000Y-83250000D03*
X121750000Y-82750000D03*
X128000000Y-81224961D03*
X113750000Y-85500000D03*
X129750000Y-93000000D03*
X128737347Y-76737347D03*
D15*
X106500000Y-87500000D02*
X103000000Y-87500000D01*
X99016120Y-87500000D02*
X95501920Y-83985800D01*
X103000000Y-87500000D02*
X99016120Y-87500000D01*
X92257919Y-85535801D02*
X93951919Y-85535801D01*
X91451919Y-84729801D02*
X92257919Y-85535801D01*
X91451919Y-75535801D02*
X91451919Y-84729801D01*
X93951919Y-85535801D02*
X95501920Y-83985800D01*
X93001920Y-73985800D02*
X91451919Y-75535801D01*
D16*
X121250000Y-83250000D02*
X121750000Y-82750000D01*
X118000000Y-83250000D02*
X121250000Y-83250000D01*
X123275039Y-81224961D02*
X121750000Y-82750000D01*
X128000000Y-81224961D02*
X123275039Y-81224961D01*
X113750000Y-85500000D02*
X121975001Y-93725001D01*
X139507959Y-93725001D02*
X141931080Y-91301880D01*
X121975001Y-93725001D02*
X139507959Y-93725001D01*
D15*
X129750000Y-88790000D02*
X142000000Y-76540000D01*
X129750000Y-92500000D02*
X129750000Y-88790000D01*
D16*
X129750000Y-93000000D02*
X129750000Y-92500000D01*
D15*
X95501920Y-73985800D02*
X93001920Y-76485800D01*
D17*
X93851919Y-83135801D02*
X93001920Y-83985800D01*
X94226921Y-77710801D02*
X94226921Y-82760799D01*
X94226921Y-82760799D02*
X93851919Y-83135801D01*
X93001920Y-76485800D02*
X94226921Y-77710801D01*
D16*
X97750373Y-76737347D02*
X95501920Y-78985800D01*
X128737347Y-76737347D02*
X97750373Y-76737347D01*
D18*
G36*
X147369001Y-94369000D02*
G01*
X90631000Y-94369000D01*
X90631000Y-85058540D01*
X90634044Y-85068575D01*
X90715851Y-85221626D01*
X90757349Y-85272191D01*
X90825945Y-85355776D01*
X90859559Y-85383362D01*
X91604358Y-86128161D01*
X91631944Y-86161776D01*
X91697941Y-86215938D01*
X91766093Y-86271869D01*
X91819405Y-86300364D01*
X91919144Y-86353676D01*
X92085213Y-86404053D01*
X92214646Y-86416801D01*
X92214648Y-86416801D01*
X92257918Y-86421063D01*
X92301188Y-86416801D01*
X93908649Y-86416801D01*
X93951919Y-86421063D01*
X93995189Y-86416801D01*
X93995192Y-86416801D01*
X94124625Y-86404053D01*
X94290694Y-86353676D01*
X94443744Y-86271869D01*
X94577894Y-86161776D01*
X94605485Y-86128156D01*
X95501920Y-85231721D01*
X98362559Y-88092361D01*
X98390145Y-88125975D01*
X98423757Y-88153559D01*
X98524294Y-88236068D01*
X98552206Y-88250987D01*
X98677345Y-88317875D01*
X98843414Y-88368252D01*
X98972847Y-88381000D01*
X98972849Y-88381000D01*
X99016119Y-88385262D01*
X99059389Y-88381000D01*
X106543273Y-88381000D01*
X106672706Y-88368252D01*
X106838775Y-88317875D01*
X106991825Y-88236068D01*
X107125975Y-88125975D01*
X107236068Y-87991825D01*
X107317875Y-87838775D01*
X107368252Y-87672706D01*
X107385262Y-87500000D01*
X107368252Y-87327294D01*
X107317875Y-87161225D01*
X107236068Y-87008175D01*
X107125975Y-86874025D01*
X106991825Y-86763932D01*
X106838775Y-86682125D01*
X106672706Y-86631748D01*
X106543273Y-86619000D01*
X99381042Y-86619000D01*
X98185120Y-85423078D01*
X112969000Y-85423078D01*
X112969000Y-85576922D01*
X112999013Y-85727809D01*
X113057887Y-85869942D01*
X113143358Y-85997859D01*
X113252141Y-86106642D01*
X113380058Y-86192113D01*
X113522191Y-86250987D01*
X113673078Y-86281000D01*
X113815409Y-86281000D01*
X121599629Y-94065221D01*
X121615474Y-94084528D01*
X121692522Y-94147760D01*
X121780426Y-94194746D01*
X121875808Y-94223679D01*
X121950147Y-94231001D01*
X121950155Y-94231001D01*
X121975001Y-94233448D01*
X121999847Y-94231001D01*
X139483113Y-94231001D01*
X139507959Y-94233448D01*
X139532805Y-94231001D01*
X139532813Y-94231001D01*
X139607152Y-94223679D01*
X139702534Y-94194746D01*
X139790438Y-94147760D01*
X139867486Y-94084528D01*
X139883335Y-94065216D01*
X141493131Y-92455421D01*
X141689762Y-92515068D01*
X141870608Y-92532880D01*
X141991552Y-92532880D01*
X142172398Y-92515068D01*
X142404443Y-92444678D01*
X142618296Y-92330371D01*
X142805740Y-92176540D01*
X142959571Y-91989096D01*
X143073878Y-91775243D01*
X143144268Y-91543198D01*
X143168036Y-91301880D01*
X143144268Y-91060562D01*
X143073878Y-90828517D01*
X142959571Y-90614664D01*
X142805740Y-90427220D01*
X142618296Y-90273389D01*
X142404443Y-90159082D01*
X142172398Y-90088692D01*
X141991552Y-90070880D01*
X141870608Y-90070880D01*
X141689762Y-90088692D01*
X141457717Y-90159082D01*
X141243864Y-90273389D01*
X141056420Y-90427220D01*
X140902589Y-90614664D01*
X140788282Y-90828517D01*
X140717892Y-91060562D01*
X140694124Y-91301880D01*
X140717892Y-91543198D01*
X140777539Y-91739829D01*
X139298368Y-93219001D01*
X130502739Y-93219001D01*
X130531000Y-93076922D01*
X130531000Y-92923078D01*
X130528780Y-92911917D01*
X130567875Y-92838775D01*
X130618252Y-92672706D01*
X130631000Y-92543273D01*
X130631000Y-89154921D01*
X131024041Y-88761880D01*
X140694124Y-88761880D01*
X140717892Y-89003198D01*
X140788282Y-89235243D01*
X140902589Y-89449096D01*
X141056420Y-89636540D01*
X141243864Y-89790371D01*
X141457717Y-89904678D01*
X141689762Y-89975068D01*
X141870608Y-89992880D01*
X141991552Y-89992880D01*
X142172398Y-89975068D01*
X142404443Y-89904678D01*
X142618296Y-89790371D01*
X142805740Y-89636540D01*
X142959571Y-89449096D01*
X143073878Y-89235243D01*
X143144268Y-89003198D01*
X143168036Y-88761880D01*
X143144268Y-88520562D01*
X143073878Y-88288517D01*
X142959571Y-88074664D01*
X142805740Y-87887220D01*
X142618296Y-87733389D01*
X142404443Y-87619082D01*
X142172398Y-87548692D01*
X141991552Y-87530880D01*
X141870608Y-87530880D01*
X141689762Y-87548692D01*
X141457717Y-87619082D01*
X141243864Y-87733389D01*
X141056420Y-87887220D01*
X140902589Y-88074664D01*
X140788282Y-88288517D01*
X140717892Y-88520562D01*
X140694124Y-88761880D01*
X131024041Y-88761880D01*
X133564041Y-86221880D01*
X140694124Y-86221880D01*
X140717892Y-86463198D01*
X140788282Y-86695243D01*
X140902589Y-86909096D01*
X141056420Y-87096540D01*
X141243864Y-87250371D01*
X141457717Y-87364678D01*
X141689762Y-87435068D01*
X141870608Y-87452880D01*
X141991552Y-87452880D01*
X142172398Y-87435068D01*
X142404443Y-87364678D01*
X142618296Y-87250371D01*
X142805740Y-87096540D01*
X142959571Y-86909096D01*
X143073878Y-86695243D01*
X143144268Y-86463198D01*
X143168036Y-86221880D01*
X143144268Y-85980562D01*
X143073878Y-85748517D01*
X142959571Y-85534664D01*
X142805740Y-85347220D01*
X142618296Y-85193389D01*
X142404443Y-85079082D01*
X142172398Y-85008692D01*
X141991552Y-84990880D01*
X141870608Y-84990880D01*
X141689762Y-85008692D01*
X141457717Y-85079082D01*
X141243864Y-85193389D01*
X141056420Y-85347220D01*
X140902589Y-85534664D01*
X140788282Y-85748517D01*
X140717892Y-85980562D01*
X140694124Y-86221880D01*
X133564041Y-86221880D01*
X136104041Y-83681880D01*
X140694124Y-83681880D01*
X140717892Y-83923198D01*
X140788282Y-84155243D01*
X140902589Y-84369096D01*
X141056420Y-84556540D01*
X141243864Y-84710371D01*
X141457717Y-84824678D01*
X141689762Y-84895068D01*
X141870608Y-84912880D01*
X141991552Y-84912880D01*
X142172398Y-84895068D01*
X142404443Y-84824678D01*
X142618296Y-84710371D01*
X142805740Y-84556540D01*
X142959571Y-84369096D01*
X143073878Y-84155243D01*
X143144268Y-83923198D01*
X143168036Y-83681880D01*
X143144268Y-83440562D01*
X143073878Y-83208517D01*
X142959571Y-82994664D01*
X142805740Y-82807220D01*
X142618296Y-82653389D01*
X142404443Y-82539082D01*
X142172398Y-82468692D01*
X141991552Y-82450880D01*
X141870608Y-82450880D01*
X141689762Y-82468692D01*
X141457717Y-82539082D01*
X141243864Y-82653389D01*
X141056420Y-82807220D01*
X140902589Y-82994664D01*
X140788282Y-83208517D01*
X140717892Y-83440562D01*
X140694124Y-83681880D01*
X136104041Y-83681880D01*
X139494041Y-80291880D01*
X140698237Y-80291880D01*
X140698237Y-81991880D01*
X140705593Y-82066569D01*
X140727379Y-82138388D01*
X140762758Y-82204576D01*
X140810369Y-82262591D01*
X140868384Y-82310202D01*
X140934572Y-82345581D01*
X141006391Y-82367367D01*
X141081080Y-82374723D01*
X142781080Y-82374723D01*
X142855769Y-82367367D01*
X142927588Y-82345581D01*
X142993776Y-82310202D01*
X143051791Y-82262591D01*
X143099402Y-82204576D01*
X143134781Y-82138388D01*
X143156567Y-82066569D01*
X143163923Y-81991880D01*
X143163923Y-80291880D01*
X143156567Y-80217191D01*
X143134781Y-80145372D01*
X143099402Y-80079184D01*
X143051791Y-80021169D01*
X142993776Y-79973558D01*
X142927588Y-79938179D01*
X142855769Y-79916393D01*
X142781080Y-79909037D01*
X141081080Y-79909037D01*
X141006391Y-79916393D01*
X140934572Y-79938179D01*
X140868384Y-79973558D01*
X140810369Y-80021169D01*
X140762758Y-80079184D01*
X140727379Y-80145372D01*
X140705593Y-80217191D01*
X140698237Y-80291880D01*
X139494041Y-80291880D01*
X142014922Y-77771000D01*
X142060472Y-77771000D01*
X142241318Y-77753188D01*
X142473363Y-77682798D01*
X142687216Y-77568491D01*
X142874660Y-77414660D01*
X143028491Y-77227216D01*
X143142798Y-77013363D01*
X143213188Y-76781318D01*
X143236956Y-76540000D01*
X143213188Y-76298682D01*
X143142798Y-76066637D01*
X143028491Y-75852784D01*
X142874660Y-75665340D01*
X142687216Y-75511509D01*
X142473363Y-75397202D01*
X142241318Y-75326812D01*
X142060472Y-75309000D01*
X141939528Y-75309000D01*
X141758682Y-75326812D01*
X141526637Y-75397202D01*
X141312784Y-75511509D01*
X141125340Y-75665340D01*
X140971509Y-75852784D01*
X140857202Y-76066637D01*
X140786812Y-76298682D01*
X140764024Y-76530054D01*
X129157640Y-88136439D01*
X129124026Y-88164025D01*
X129096441Y-88197638D01*
X129013932Y-88298175D01*
X128932125Y-88451226D01*
X128881749Y-88617295D01*
X128864738Y-88790000D01*
X128869001Y-88833280D01*
X128869000Y-92543272D01*
X128881748Y-92672705D01*
X128932125Y-92838774D01*
X128971220Y-92911916D01*
X128969000Y-92923078D01*
X128969000Y-93076922D01*
X128997261Y-93219001D01*
X122184593Y-93219001D01*
X114531000Y-85565409D01*
X114531000Y-85423078D01*
X114500987Y-85272191D01*
X114442113Y-85130058D01*
X114356642Y-85002141D01*
X114247859Y-84893358D01*
X114119942Y-84807887D01*
X113977809Y-84749013D01*
X113826922Y-84719000D01*
X113673078Y-84719000D01*
X113522191Y-84749013D01*
X113380058Y-84807887D01*
X113252141Y-84893358D01*
X113143358Y-85002141D01*
X113057887Y-85130058D01*
X112999013Y-85272191D01*
X112969000Y-85423078D01*
X98185120Y-85423078D01*
X96734763Y-83972722D01*
X96734763Y-83385800D01*
X96722603Y-83262338D01*
X96695527Y-83173078D01*
X117219000Y-83173078D01*
X117219000Y-83326922D01*
X117249013Y-83477809D01*
X117307887Y-83619942D01*
X117393358Y-83747859D01*
X117502141Y-83856642D01*
X117630058Y-83942113D01*
X117772191Y-84000987D01*
X117923078Y-84031000D01*
X118076922Y-84031000D01*
X118227809Y-84000987D01*
X118369942Y-83942113D01*
X118497859Y-83856642D01*
X118598501Y-83756000D01*
X121225154Y-83756000D01*
X121250000Y-83758447D01*
X121274846Y-83756000D01*
X121274854Y-83756000D01*
X121349193Y-83748678D01*
X121444575Y-83719745D01*
X121532479Y-83672759D01*
X121609527Y-83609527D01*
X121625376Y-83590215D01*
X121684591Y-83531000D01*
X121826922Y-83531000D01*
X121977809Y-83500987D01*
X122119942Y-83442113D01*
X122247859Y-83356642D01*
X122356642Y-83247859D01*
X122442113Y-83119942D01*
X122500987Y-82977809D01*
X122531000Y-82826922D01*
X122531000Y-82684591D01*
X123484631Y-81730961D01*
X127401499Y-81730961D01*
X127502141Y-81831603D01*
X127630058Y-81917074D01*
X127772191Y-81975948D01*
X127923078Y-82005961D01*
X128076922Y-82005961D01*
X128227809Y-81975948D01*
X128369942Y-81917074D01*
X128497859Y-81831603D01*
X128606642Y-81722820D01*
X128692113Y-81594903D01*
X128750987Y-81452770D01*
X128781000Y-81301883D01*
X128781000Y-81148039D01*
X128750987Y-80997152D01*
X128692113Y-80855019D01*
X128606642Y-80727102D01*
X128497859Y-80618319D01*
X128369942Y-80532848D01*
X128227809Y-80473974D01*
X128076922Y-80443961D01*
X127923078Y-80443961D01*
X127772191Y-80473974D01*
X127630058Y-80532848D01*
X127502141Y-80618319D01*
X127401499Y-80718961D01*
X123299893Y-80718961D01*
X123275039Y-80716513D01*
X123250185Y-80718961D01*
X123175846Y-80726283D01*
X123080464Y-80755216D01*
X122992560Y-80802202D01*
X122915512Y-80865434D01*
X122899667Y-80884741D01*
X121815409Y-81969000D01*
X121673078Y-81969000D01*
X121522191Y-81999013D01*
X121380058Y-82057887D01*
X121252141Y-82143358D01*
X121143358Y-82252141D01*
X121057887Y-82380058D01*
X120999013Y-82522191D01*
X120969000Y-82673078D01*
X120969000Y-82744000D01*
X118598501Y-82744000D01*
X118497859Y-82643358D01*
X118369942Y-82557887D01*
X118227809Y-82499013D01*
X118076922Y-82469000D01*
X117923078Y-82469000D01*
X117772191Y-82499013D01*
X117630058Y-82557887D01*
X117502141Y-82643358D01*
X117393358Y-82752141D01*
X117307887Y-82880058D01*
X117249013Y-83022191D01*
X117219000Y-83173078D01*
X96695527Y-83173078D01*
X96686591Y-83143621D01*
X96628110Y-83034211D01*
X96549408Y-82938312D01*
X96453509Y-82859610D01*
X96344099Y-82801129D01*
X96225382Y-82765117D01*
X96101920Y-82752957D01*
X94901920Y-82752957D01*
X94785251Y-82764448D01*
X94785610Y-82760799D01*
X94782921Y-82733495D01*
X94782921Y-82485891D01*
X94918823Y-82576698D01*
X95142851Y-82669493D01*
X95380677Y-82716800D01*
X95623163Y-82716800D01*
X95860989Y-82669493D01*
X96085017Y-82576698D01*
X96286637Y-82441980D01*
X96458100Y-82270517D01*
X96592818Y-82068897D01*
X96685613Y-81844869D01*
X96732920Y-81607043D01*
X96732920Y-81364557D01*
X96712367Y-81261229D01*
X96740375Y-81266800D01*
X96943465Y-81266800D01*
X97142652Y-81227180D01*
X97330282Y-81149461D01*
X97499144Y-81036630D01*
X97642750Y-80893024D01*
X97755581Y-80724162D01*
X97833300Y-80536532D01*
X97872920Y-80337345D01*
X97872920Y-80150000D01*
X129767157Y-80150000D01*
X129767157Y-81850000D01*
X129774513Y-81924689D01*
X129796299Y-81996508D01*
X129831678Y-82062696D01*
X129879289Y-82120711D01*
X129937304Y-82168322D01*
X130003492Y-82203701D01*
X130075311Y-82225487D01*
X130150000Y-82232843D01*
X131850000Y-82232843D01*
X131924689Y-82225487D01*
X131996508Y-82203701D01*
X132062696Y-82168322D01*
X132120711Y-82120711D01*
X132168322Y-82062696D01*
X132203701Y-81996508D01*
X132225487Y-81924689D01*
X132232843Y-81850000D01*
X132232843Y-80150000D01*
X132225487Y-80075311D01*
X132203701Y-80003492D01*
X132168322Y-79937304D01*
X132120711Y-79879289D01*
X132062696Y-79831678D01*
X131996508Y-79796299D01*
X131924689Y-79774513D01*
X131850000Y-79767157D01*
X130150000Y-79767157D01*
X130075311Y-79774513D01*
X130003492Y-79796299D01*
X129937304Y-79831678D01*
X129879289Y-79879289D01*
X129831678Y-79937304D01*
X129796299Y-80003492D01*
X129774513Y-80075311D01*
X129767157Y-80150000D01*
X97872920Y-80150000D01*
X97872920Y-80134255D01*
X97833300Y-79935068D01*
X97755581Y-79747438D01*
X97642750Y-79578576D01*
X97499144Y-79434970D01*
X97330282Y-79322139D01*
X97142652Y-79244420D01*
X96943465Y-79204800D01*
X96740375Y-79204800D01*
X96712367Y-79210371D01*
X96732920Y-79107043D01*
X96732920Y-78864557D01*
X96685613Y-78626731D01*
X96653678Y-78549633D01*
X97959965Y-77243347D01*
X128138846Y-77243347D01*
X128239488Y-77343989D01*
X128367405Y-77429460D01*
X128509538Y-77488334D01*
X128660425Y-77518347D01*
X128814269Y-77518347D01*
X128965156Y-77488334D01*
X129107289Y-77429460D01*
X129235206Y-77343989D01*
X129343989Y-77235206D01*
X129429460Y-77107289D01*
X129488334Y-76965156D01*
X129518347Y-76814269D01*
X129518347Y-76660425D01*
X129488334Y-76509538D01*
X129429460Y-76367405D01*
X129343989Y-76239488D01*
X129235206Y-76130705D01*
X129107289Y-76045234D01*
X128965156Y-75986360D01*
X128814269Y-75956347D01*
X128660425Y-75956347D01*
X128509538Y-75986360D01*
X128367405Y-76045234D01*
X128239488Y-76130705D01*
X128138846Y-76231347D01*
X97775227Y-76231347D01*
X97750373Y-76228899D01*
X97725519Y-76231347D01*
X97651180Y-76238669D01*
X97555798Y-76267602D01*
X97467894Y-76314588D01*
X97390846Y-76377820D01*
X97375001Y-76397127D01*
X95938087Y-77834042D01*
X95860989Y-77802107D01*
X95623163Y-77754800D01*
X95380677Y-77754800D01*
X95142851Y-77802107D01*
X94918823Y-77894902D01*
X94782921Y-77985709D01*
X94782921Y-77738105D01*
X94785610Y-77710800D01*
X94782921Y-77683496D01*
X94782921Y-77683489D01*
X94774876Y-77601806D01*
X94743083Y-77497000D01*
X94709623Y-77434400D01*
X94717203Y-77441980D01*
X94918823Y-77576698D01*
X95142851Y-77669493D01*
X95380677Y-77716800D01*
X95623163Y-77716800D01*
X95860989Y-77669493D01*
X96085017Y-77576698D01*
X96286637Y-77441980D01*
X96458100Y-77270517D01*
X96592818Y-77068897D01*
X96685613Y-76844869D01*
X96732920Y-76607043D01*
X96732920Y-76364557D01*
X96685613Y-76126731D01*
X96592818Y-75902703D01*
X96458100Y-75701083D01*
X96286637Y-75529620D01*
X96085017Y-75394902D01*
X95860989Y-75302107D01*
X95623163Y-75254800D01*
X95478842Y-75254800D01*
X95516842Y-75216800D01*
X95623163Y-75216800D01*
X95860989Y-75169493D01*
X96085017Y-75076698D01*
X96286637Y-74941980D01*
X96458100Y-74770517D01*
X96592818Y-74568897D01*
X96685613Y-74344869D01*
X96732920Y-74107043D01*
X96732920Y-73864557D01*
X96685613Y-73626731D01*
X96592818Y-73402703D01*
X96458100Y-73201083D01*
X96407017Y-73150000D01*
X140767157Y-73150000D01*
X140767157Y-74850000D01*
X140774513Y-74924689D01*
X140796299Y-74996508D01*
X140831678Y-75062696D01*
X140879289Y-75120711D01*
X140937304Y-75168322D01*
X141003492Y-75203701D01*
X141075311Y-75225487D01*
X141150000Y-75232843D01*
X142850000Y-75232843D01*
X142924689Y-75225487D01*
X142996508Y-75203701D01*
X143062696Y-75168322D01*
X143120711Y-75120711D01*
X143168322Y-75062696D01*
X143203701Y-74996508D01*
X143225487Y-74924689D01*
X143232843Y-74850000D01*
X143232843Y-73150000D01*
X143225487Y-73075311D01*
X143203701Y-73003492D01*
X143168322Y-72937304D01*
X143120711Y-72879289D01*
X143062696Y-72831678D01*
X142996508Y-72796299D01*
X142924689Y-72774513D01*
X142850000Y-72767157D01*
X141150000Y-72767157D01*
X141075311Y-72774513D01*
X141003492Y-72796299D01*
X140937304Y-72831678D01*
X140879289Y-72879289D01*
X140831678Y-72937304D01*
X140796299Y-73003492D01*
X140774513Y-73075311D01*
X140767157Y-73150000D01*
X96407017Y-73150000D01*
X96286637Y-73029620D01*
X96085017Y-72894902D01*
X95860989Y-72802107D01*
X95623163Y-72754800D01*
X95380677Y-72754800D01*
X95142851Y-72802107D01*
X94918823Y-72894902D01*
X94717203Y-73029620D01*
X94545740Y-73201083D01*
X94411022Y-73402703D01*
X94318227Y-73626731D01*
X94270920Y-73864557D01*
X94270920Y-73970878D01*
X94232920Y-74008878D01*
X94232920Y-73864557D01*
X94185613Y-73626731D01*
X94092818Y-73402703D01*
X93958100Y-73201083D01*
X93786637Y-73029620D01*
X93585017Y-72894902D01*
X93360989Y-72802107D01*
X93123163Y-72754800D01*
X92880677Y-72754800D01*
X92642851Y-72802107D01*
X92418823Y-72894902D01*
X92217203Y-73029620D01*
X92045740Y-73201083D01*
X91911022Y-73402703D01*
X91818227Y-73626731D01*
X91770920Y-73864557D01*
X91770920Y-73970878D01*
X90859564Y-74882235D01*
X90825944Y-74909826D01*
X90754807Y-74996508D01*
X90715851Y-75043976D01*
X90705845Y-75062696D01*
X90634044Y-75197027D01*
X90631000Y-75207062D01*
X90631000Y-70631000D01*
X147369000Y-70631000D01*
X147369001Y-94369000D01*
X147369001Y-94369000D01*
G37*
X147369001Y-94369000D02*
X90631000Y-94369000D01*
X90631000Y-85058540D01*
X90634044Y-85068575D01*
X90715851Y-85221626D01*
X90757349Y-85272191D01*
X90825945Y-85355776D01*
X90859559Y-85383362D01*
X91604358Y-86128161D01*
X91631944Y-86161776D01*
X91697941Y-86215938D01*
X91766093Y-86271869D01*
X91819405Y-86300364D01*
X91919144Y-86353676D01*
X92085213Y-86404053D01*
X92214646Y-86416801D01*
X92214648Y-86416801D01*
X92257918Y-86421063D01*
X92301188Y-86416801D01*
X93908649Y-86416801D01*
X93951919Y-86421063D01*
X93995189Y-86416801D01*
X93995192Y-86416801D01*
X94124625Y-86404053D01*
X94290694Y-86353676D01*
X94443744Y-86271869D01*
X94577894Y-86161776D01*
X94605485Y-86128156D01*
X95501920Y-85231721D01*
X98362559Y-88092361D01*
X98390145Y-88125975D01*
X98423757Y-88153559D01*
X98524294Y-88236068D01*
X98552206Y-88250987D01*
X98677345Y-88317875D01*
X98843414Y-88368252D01*
X98972847Y-88381000D01*
X98972849Y-88381000D01*
X99016119Y-88385262D01*
X99059389Y-88381000D01*
X106543273Y-88381000D01*
X106672706Y-88368252D01*
X106838775Y-88317875D01*
X106991825Y-88236068D01*
X107125975Y-88125975D01*
X107236068Y-87991825D01*
X107317875Y-87838775D01*
X107368252Y-87672706D01*
X107385262Y-87500000D01*
X107368252Y-87327294D01*
X107317875Y-87161225D01*
X107236068Y-87008175D01*
X107125975Y-86874025D01*
X106991825Y-86763932D01*
X106838775Y-86682125D01*
X106672706Y-86631748D01*
X106543273Y-86619000D01*
X99381042Y-86619000D01*
X98185120Y-85423078D01*
X112969000Y-85423078D01*
X112969000Y-85576922D01*
X112999013Y-85727809D01*
X113057887Y-85869942D01*
X113143358Y-85997859D01*
X113252141Y-86106642D01*
X113380058Y-86192113D01*
X113522191Y-86250987D01*
X113673078Y-86281000D01*
X113815409Y-86281000D01*
X121599629Y-94065221D01*
X121615474Y-94084528D01*
X121692522Y-94147760D01*
X121780426Y-94194746D01*
X121875808Y-94223679D01*
X121950147Y-94231001D01*
X121950155Y-94231001D01*
X121975001Y-94233448D01*
X121999847Y-94231001D01*
X139483113Y-94231001D01*
X139507959Y-94233448D01*
X139532805Y-94231001D01*
X139532813Y-94231001D01*
X139607152Y-94223679D01*
X139702534Y-94194746D01*
X139790438Y-94147760D01*
X139867486Y-94084528D01*
X139883335Y-94065216D01*
X141493131Y-92455421D01*
X141689762Y-92515068D01*
X141870608Y-92532880D01*
X141991552Y-92532880D01*
X142172398Y-92515068D01*
X142404443Y-92444678D01*
X142618296Y-92330371D01*
X142805740Y-92176540D01*
X142959571Y-91989096D01*
X143073878Y-91775243D01*
X143144268Y-91543198D01*
X143168036Y-91301880D01*
X143144268Y-91060562D01*
X143073878Y-90828517D01*
X142959571Y-90614664D01*
X142805740Y-90427220D01*
X142618296Y-90273389D01*
X142404443Y-90159082D01*
X142172398Y-90088692D01*
X141991552Y-90070880D01*
X141870608Y-90070880D01*
X141689762Y-90088692D01*
X141457717Y-90159082D01*
X141243864Y-90273389D01*
X141056420Y-90427220D01*
X140902589Y-90614664D01*
X140788282Y-90828517D01*
X140717892Y-91060562D01*
X140694124Y-91301880D01*
X140717892Y-91543198D01*
X140777539Y-91739829D01*
X139298368Y-93219001D01*
X130502739Y-93219001D01*
X130531000Y-93076922D01*
X130531000Y-92923078D01*
X130528780Y-92911917D01*
X130567875Y-92838775D01*
X130618252Y-92672706D01*
X130631000Y-92543273D01*
X130631000Y-89154921D01*
X131024041Y-88761880D01*
X140694124Y-88761880D01*
X140717892Y-89003198D01*
X140788282Y-89235243D01*
X140902589Y-89449096D01*
X141056420Y-89636540D01*
X141243864Y-89790371D01*
X141457717Y-89904678D01*
X141689762Y-89975068D01*
X141870608Y-89992880D01*
X141991552Y-89992880D01*
X142172398Y-89975068D01*
X142404443Y-89904678D01*
X142618296Y-89790371D01*
X142805740Y-89636540D01*
X142959571Y-89449096D01*
X143073878Y-89235243D01*
X143144268Y-89003198D01*
X143168036Y-88761880D01*
X143144268Y-88520562D01*
X143073878Y-88288517D01*
X142959571Y-88074664D01*
X142805740Y-87887220D01*
X142618296Y-87733389D01*
X142404443Y-87619082D01*
X142172398Y-87548692D01*
X141991552Y-87530880D01*
X141870608Y-87530880D01*
X141689762Y-87548692D01*
X141457717Y-87619082D01*
X141243864Y-87733389D01*
X141056420Y-87887220D01*
X140902589Y-88074664D01*
X140788282Y-88288517D01*
X140717892Y-88520562D01*
X140694124Y-88761880D01*
X131024041Y-88761880D01*
X133564041Y-86221880D01*
X140694124Y-86221880D01*
X140717892Y-86463198D01*
X140788282Y-86695243D01*
X140902589Y-86909096D01*
X141056420Y-87096540D01*
X141243864Y-87250371D01*
X141457717Y-87364678D01*
X141689762Y-87435068D01*
X141870608Y-87452880D01*
X141991552Y-87452880D01*
X142172398Y-87435068D01*
X142404443Y-87364678D01*
X142618296Y-87250371D01*
X142805740Y-87096540D01*
X142959571Y-86909096D01*
X143073878Y-86695243D01*
X143144268Y-86463198D01*
X143168036Y-86221880D01*
X143144268Y-85980562D01*
X143073878Y-85748517D01*
X142959571Y-85534664D01*
X142805740Y-85347220D01*
X142618296Y-85193389D01*
X142404443Y-85079082D01*
X142172398Y-85008692D01*
X141991552Y-84990880D01*
X141870608Y-84990880D01*
X141689762Y-85008692D01*
X141457717Y-85079082D01*
X141243864Y-85193389D01*
X141056420Y-85347220D01*
X140902589Y-85534664D01*
X140788282Y-85748517D01*
X140717892Y-85980562D01*
X140694124Y-86221880D01*
X133564041Y-86221880D01*
X136104041Y-83681880D01*
X140694124Y-83681880D01*
X140717892Y-83923198D01*
X140788282Y-84155243D01*
X140902589Y-84369096D01*
X141056420Y-84556540D01*
X141243864Y-84710371D01*
X141457717Y-84824678D01*
X141689762Y-84895068D01*
X141870608Y-84912880D01*
X141991552Y-84912880D01*
X142172398Y-84895068D01*
X142404443Y-84824678D01*
X142618296Y-84710371D01*
X142805740Y-84556540D01*
X142959571Y-84369096D01*
X143073878Y-84155243D01*
X143144268Y-83923198D01*
X143168036Y-83681880D01*
X143144268Y-83440562D01*
X143073878Y-83208517D01*
X142959571Y-82994664D01*
X142805740Y-82807220D01*
X142618296Y-82653389D01*
X142404443Y-82539082D01*
X142172398Y-82468692D01*
X141991552Y-82450880D01*
X141870608Y-82450880D01*
X141689762Y-82468692D01*
X141457717Y-82539082D01*
X141243864Y-82653389D01*
X141056420Y-82807220D01*
X140902589Y-82994664D01*
X140788282Y-83208517D01*
X140717892Y-83440562D01*
X140694124Y-83681880D01*
X136104041Y-83681880D01*
X139494041Y-80291880D01*
X140698237Y-80291880D01*
X140698237Y-81991880D01*
X140705593Y-82066569D01*
X140727379Y-82138388D01*
X140762758Y-82204576D01*
X140810369Y-82262591D01*
X140868384Y-82310202D01*
X140934572Y-82345581D01*
X141006391Y-82367367D01*
X141081080Y-82374723D01*
X142781080Y-82374723D01*
X142855769Y-82367367D01*
X142927588Y-82345581D01*
X142993776Y-82310202D01*
X143051791Y-82262591D01*
X143099402Y-82204576D01*
X143134781Y-82138388D01*
X143156567Y-82066569D01*
X143163923Y-81991880D01*
X143163923Y-80291880D01*
X143156567Y-80217191D01*
X143134781Y-80145372D01*
X143099402Y-80079184D01*
X143051791Y-80021169D01*
X142993776Y-79973558D01*
X142927588Y-79938179D01*
X142855769Y-79916393D01*
X142781080Y-79909037D01*
X141081080Y-79909037D01*
X141006391Y-79916393D01*
X140934572Y-79938179D01*
X140868384Y-79973558D01*
X140810369Y-80021169D01*
X140762758Y-80079184D01*
X140727379Y-80145372D01*
X140705593Y-80217191D01*
X140698237Y-80291880D01*
X139494041Y-80291880D01*
X142014922Y-77771000D01*
X142060472Y-77771000D01*
X142241318Y-77753188D01*
X142473363Y-77682798D01*
X142687216Y-77568491D01*
X142874660Y-77414660D01*
X143028491Y-77227216D01*
X143142798Y-77013363D01*
X143213188Y-76781318D01*
X143236956Y-76540000D01*
X143213188Y-76298682D01*
X143142798Y-76066637D01*
X143028491Y-75852784D01*
X142874660Y-75665340D01*
X142687216Y-75511509D01*
X142473363Y-75397202D01*
X142241318Y-75326812D01*
X142060472Y-75309000D01*
X141939528Y-75309000D01*
X141758682Y-75326812D01*
X141526637Y-75397202D01*
X141312784Y-75511509D01*
X141125340Y-75665340D01*
X140971509Y-75852784D01*
X140857202Y-76066637D01*
X140786812Y-76298682D01*
X140764024Y-76530054D01*
X129157640Y-88136439D01*
X129124026Y-88164025D01*
X129096441Y-88197638D01*
X129013932Y-88298175D01*
X128932125Y-88451226D01*
X128881749Y-88617295D01*
X128864738Y-88790000D01*
X128869001Y-88833280D01*
X128869000Y-92543272D01*
X128881748Y-92672705D01*
X128932125Y-92838774D01*
X128971220Y-92911916D01*
X128969000Y-92923078D01*
X128969000Y-93076922D01*
X128997261Y-93219001D01*
X122184593Y-93219001D01*
X114531000Y-85565409D01*
X114531000Y-85423078D01*
X114500987Y-85272191D01*
X114442113Y-85130058D01*
X114356642Y-85002141D01*
X114247859Y-84893358D01*
X114119942Y-84807887D01*
X113977809Y-84749013D01*
X113826922Y-84719000D01*
X113673078Y-84719000D01*
X113522191Y-84749013D01*
X113380058Y-84807887D01*
X113252141Y-84893358D01*
X113143358Y-85002141D01*
X113057887Y-85130058D01*
X112999013Y-85272191D01*
X112969000Y-85423078D01*
X98185120Y-85423078D01*
X96734763Y-83972722D01*
X96734763Y-83385800D01*
X96722603Y-83262338D01*
X96695527Y-83173078D01*
X117219000Y-83173078D01*
X117219000Y-83326922D01*
X117249013Y-83477809D01*
X117307887Y-83619942D01*
X117393358Y-83747859D01*
X117502141Y-83856642D01*
X117630058Y-83942113D01*
X117772191Y-84000987D01*
X117923078Y-84031000D01*
X118076922Y-84031000D01*
X118227809Y-84000987D01*
X118369942Y-83942113D01*
X118497859Y-83856642D01*
X118598501Y-83756000D01*
X121225154Y-83756000D01*
X121250000Y-83758447D01*
X121274846Y-83756000D01*
X121274854Y-83756000D01*
X121349193Y-83748678D01*
X121444575Y-83719745D01*
X121532479Y-83672759D01*
X121609527Y-83609527D01*
X121625376Y-83590215D01*
X121684591Y-83531000D01*
X121826922Y-83531000D01*
X121977809Y-83500987D01*
X122119942Y-83442113D01*
X122247859Y-83356642D01*
X122356642Y-83247859D01*
X122442113Y-83119942D01*
X122500987Y-82977809D01*
X122531000Y-82826922D01*
X122531000Y-82684591D01*
X123484631Y-81730961D01*
X127401499Y-81730961D01*
X127502141Y-81831603D01*
X127630058Y-81917074D01*
X127772191Y-81975948D01*
X127923078Y-82005961D01*
X128076922Y-82005961D01*
X128227809Y-81975948D01*
X128369942Y-81917074D01*
X128497859Y-81831603D01*
X128606642Y-81722820D01*
X128692113Y-81594903D01*
X128750987Y-81452770D01*
X128781000Y-81301883D01*
X128781000Y-81148039D01*
X128750987Y-80997152D01*
X128692113Y-80855019D01*
X128606642Y-80727102D01*
X128497859Y-80618319D01*
X128369942Y-80532848D01*
X128227809Y-80473974D01*
X128076922Y-80443961D01*
X127923078Y-80443961D01*
X127772191Y-80473974D01*
X127630058Y-80532848D01*
X127502141Y-80618319D01*
X127401499Y-80718961D01*
X123299893Y-80718961D01*
X123275039Y-80716513D01*
X123250185Y-80718961D01*
X123175846Y-80726283D01*
X123080464Y-80755216D01*
X122992560Y-80802202D01*
X122915512Y-80865434D01*
X122899667Y-80884741D01*
X121815409Y-81969000D01*
X121673078Y-81969000D01*
X121522191Y-81999013D01*
X121380058Y-82057887D01*
X121252141Y-82143358D01*
X121143358Y-82252141D01*
X121057887Y-82380058D01*
X120999013Y-82522191D01*
X120969000Y-82673078D01*
X120969000Y-82744000D01*
X118598501Y-82744000D01*
X118497859Y-82643358D01*
X118369942Y-82557887D01*
X118227809Y-82499013D01*
X118076922Y-82469000D01*
X117923078Y-82469000D01*
X117772191Y-82499013D01*
X117630058Y-82557887D01*
X117502141Y-82643358D01*
X117393358Y-82752141D01*
X117307887Y-82880058D01*
X117249013Y-83022191D01*
X117219000Y-83173078D01*
X96695527Y-83173078D01*
X96686591Y-83143621D01*
X96628110Y-83034211D01*
X96549408Y-82938312D01*
X96453509Y-82859610D01*
X96344099Y-82801129D01*
X96225382Y-82765117D01*
X96101920Y-82752957D01*
X94901920Y-82752957D01*
X94785251Y-82764448D01*
X94785610Y-82760799D01*
X94782921Y-82733495D01*
X94782921Y-82485891D01*
X94918823Y-82576698D01*
X95142851Y-82669493D01*
X95380677Y-82716800D01*
X95623163Y-82716800D01*
X95860989Y-82669493D01*
X96085017Y-82576698D01*
X96286637Y-82441980D01*
X96458100Y-82270517D01*
X96592818Y-82068897D01*
X96685613Y-81844869D01*
X96732920Y-81607043D01*
X96732920Y-81364557D01*
X96712367Y-81261229D01*
X96740375Y-81266800D01*
X96943465Y-81266800D01*
X97142652Y-81227180D01*
X97330282Y-81149461D01*
X97499144Y-81036630D01*
X97642750Y-80893024D01*
X97755581Y-80724162D01*
X97833300Y-80536532D01*
X97872920Y-80337345D01*
X97872920Y-80150000D01*
X129767157Y-80150000D01*
X129767157Y-81850000D01*
X129774513Y-81924689D01*
X129796299Y-81996508D01*
X129831678Y-82062696D01*
X129879289Y-82120711D01*
X129937304Y-82168322D01*
X130003492Y-82203701D01*
X130075311Y-82225487D01*
X130150000Y-82232843D01*
X131850000Y-82232843D01*
X131924689Y-82225487D01*
X131996508Y-82203701D01*
X132062696Y-82168322D01*
X132120711Y-82120711D01*
X132168322Y-82062696D01*
X132203701Y-81996508D01*
X132225487Y-81924689D01*
X132232843Y-81850000D01*
X132232843Y-80150000D01*
X132225487Y-80075311D01*
X132203701Y-80003492D01*
X132168322Y-79937304D01*
X132120711Y-79879289D01*
X132062696Y-79831678D01*
X131996508Y-79796299D01*
X131924689Y-79774513D01*
X131850000Y-79767157D01*
X130150000Y-79767157D01*
X130075311Y-79774513D01*
X130003492Y-79796299D01*
X129937304Y-79831678D01*
X129879289Y-79879289D01*
X129831678Y-79937304D01*
X129796299Y-80003492D01*
X129774513Y-80075311D01*
X129767157Y-80150000D01*
X97872920Y-80150000D01*
X97872920Y-80134255D01*
X97833300Y-79935068D01*
X97755581Y-79747438D01*
X97642750Y-79578576D01*
X97499144Y-79434970D01*
X97330282Y-79322139D01*
X97142652Y-79244420D01*
X96943465Y-79204800D01*
X96740375Y-79204800D01*
X96712367Y-79210371D01*
X96732920Y-79107043D01*
X96732920Y-78864557D01*
X96685613Y-78626731D01*
X96653678Y-78549633D01*
X97959965Y-77243347D01*
X128138846Y-77243347D01*
X128239488Y-77343989D01*
X128367405Y-77429460D01*
X128509538Y-77488334D01*
X128660425Y-77518347D01*
X128814269Y-77518347D01*
X128965156Y-77488334D01*
X129107289Y-77429460D01*
X129235206Y-77343989D01*
X129343989Y-77235206D01*
X129429460Y-77107289D01*
X129488334Y-76965156D01*
X129518347Y-76814269D01*
X129518347Y-76660425D01*
X129488334Y-76509538D01*
X129429460Y-76367405D01*
X129343989Y-76239488D01*
X129235206Y-76130705D01*
X129107289Y-76045234D01*
X128965156Y-75986360D01*
X128814269Y-75956347D01*
X128660425Y-75956347D01*
X128509538Y-75986360D01*
X128367405Y-76045234D01*
X128239488Y-76130705D01*
X128138846Y-76231347D01*
X97775227Y-76231347D01*
X97750373Y-76228899D01*
X97725519Y-76231347D01*
X97651180Y-76238669D01*
X97555798Y-76267602D01*
X97467894Y-76314588D01*
X97390846Y-76377820D01*
X97375001Y-76397127D01*
X95938087Y-77834042D01*
X95860989Y-77802107D01*
X95623163Y-77754800D01*
X95380677Y-77754800D01*
X95142851Y-77802107D01*
X94918823Y-77894902D01*
X94782921Y-77985709D01*
X94782921Y-77738105D01*
X94785610Y-77710800D01*
X94782921Y-77683496D01*
X94782921Y-77683489D01*
X94774876Y-77601806D01*
X94743083Y-77497000D01*
X94709623Y-77434400D01*
X94717203Y-77441980D01*
X94918823Y-77576698D01*
X95142851Y-77669493D01*
X95380677Y-77716800D01*
X95623163Y-77716800D01*
X95860989Y-77669493D01*
X96085017Y-77576698D01*
X96286637Y-77441980D01*
X96458100Y-77270517D01*
X96592818Y-77068897D01*
X96685613Y-76844869D01*
X96732920Y-76607043D01*
X96732920Y-76364557D01*
X96685613Y-76126731D01*
X96592818Y-75902703D01*
X96458100Y-75701083D01*
X96286637Y-75529620D01*
X96085017Y-75394902D01*
X95860989Y-75302107D01*
X95623163Y-75254800D01*
X95478842Y-75254800D01*
X95516842Y-75216800D01*
X95623163Y-75216800D01*
X95860989Y-75169493D01*
X96085017Y-75076698D01*
X96286637Y-74941980D01*
X96458100Y-74770517D01*
X96592818Y-74568897D01*
X96685613Y-74344869D01*
X96732920Y-74107043D01*
X96732920Y-73864557D01*
X96685613Y-73626731D01*
X96592818Y-73402703D01*
X96458100Y-73201083D01*
X96407017Y-73150000D01*
X140767157Y-73150000D01*
X140767157Y-74850000D01*
X140774513Y-74924689D01*
X140796299Y-74996508D01*
X140831678Y-75062696D01*
X140879289Y-75120711D01*
X140937304Y-75168322D01*
X141003492Y-75203701D01*
X141075311Y-75225487D01*
X141150000Y-75232843D01*
X142850000Y-75232843D01*
X142924689Y-75225487D01*
X142996508Y-75203701D01*
X143062696Y-75168322D01*
X143120711Y-75120711D01*
X143168322Y-75062696D01*
X143203701Y-74996508D01*
X143225487Y-74924689D01*
X143232843Y-74850000D01*
X143232843Y-73150000D01*
X143225487Y-73075311D01*
X143203701Y-73003492D01*
X143168322Y-72937304D01*
X143120711Y-72879289D01*
X143062696Y-72831678D01*
X142996508Y-72796299D01*
X142924689Y-72774513D01*
X142850000Y-72767157D01*
X141150000Y-72767157D01*
X141075311Y-72774513D01*
X141003492Y-72796299D01*
X140937304Y-72831678D01*
X140879289Y-72879289D01*
X140831678Y-72937304D01*
X140796299Y-73003492D01*
X140774513Y-73075311D01*
X140767157Y-73150000D01*
X96407017Y-73150000D01*
X96286637Y-73029620D01*
X96085017Y-72894902D01*
X95860989Y-72802107D01*
X95623163Y-72754800D01*
X95380677Y-72754800D01*
X95142851Y-72802107D01*
X94918823Y-72894902D01*
X94717203Y-73029620D01*
X94545740Y-73201083D01*
X94411022Y-73402703D01*
X94318227Y-73626731D01*
X94270920Y-73864557D01*
X94270920Y-73970878D01*
X94232920Y-74008878D01*
X94232920Y-73864557D01*
X94185613Y-73626731D01*
X94092818Y-73402703D01*
X93958100Y-73201083D01*
X93786637Y-73029620D01*
X93585017Y-72894902D01*
X93360989Y-72802107D01*
X93123163Y-72754800D01*
X92880677Y-72754800D01*
X92642851Y-72802107D01*
X92418823Y-72894902D01*
X92217203Y-73029620D01*
X92045740Y-73201083D01*
X91911022Y-73402703D01*
X91818227Y-73626731D01*
X91770920Y-73864557D01*
X91770920Y-73970878D01*
X90859564Y-74882235D01*
X90825944Y-74909826D01*
X90754807Y-74996508D01*
X90715851Y-75043976D01*
X90705845Y-75062696D01*
X90634044Y-75197027D01*
X90631000Y-75207062D01*
X90631000Y-70631000D01*
X147369000Y-70631000D01*
X147369001Y-94369000D01*
G36*
X94269077Y-83972721D02*
G01*
X94232920Y-84008878D01*
X94232920Y-83864557D01*
X94185613Y-83626731D01*
X94174389Y-83599633D01*
X94264382Y-83509640D01*
X94264386Y-83509635D01*
X94269077Y-83504944D01*
X94269077Y-83972721D01*
X94269077Y-83972721D01*
G37*
X94269077Y-83972721D02*
X94232920Y-84008878D01*
X94232920Y-83864557D01*
X94185613Y-83626731D01*
X94174389Y-83599633D01*
X94264382Y-83509640D01*
X94264386Y-83509635D01*
X94269077Y-83504944D01*
X94269077Y-83972721D01*
G36*
X93670922Y-82530496D02*
G01*
X93478085Y-82723334D01*
X93478080Y-82723338D01*
X93388087Y-82813331D01*
X93360989Y-82802107D01*
X93123163Y-82754800D01*
X92880677Y-82754800D01*
X92642851Y-82802107D01*
X92418823Y-82894902D01*
X92332919Y-82952301D01*
X92332919Y-82519299D01*
X92418823Y-82576698D01*
X92642851Y-82669493D01*
X92880677Y-82716800D01*
X93123163Y-82716800D01*
X93360989Y-82669493D01*
X93585017Y-82576698D01*
X93670922Y-82519298D01*
X93670922Y-82530496D01*
X93670922Y-82530496D01*
G37*
X93670922Y-82530496D02*
X93478085Y-82723334D01*
X93478080Y-82723338D01*
X93388087Y-82813331D01*
X93360989Y-82802107D01*
X93123163Y-82754800D01*
X92880677Y-82754800D01*
X92642851Y-82802107D01*
X92418823Y-82894902D01*
X92332919Y-82952301D01*
X92332919Y-82519299D01*
X92418823Y-82576698D01*
X92642851Y-82669493D01*
X92880677Y-82716800D01*
X93123163Y-82716800D01*
X93360989Y-82669493D01*
X93585017Y-82576698D01*
X93670922Y-82519298D01*
X93670922Y-82530496D01*
G36*
X94918823Y-80076698D02*
G01*
X95142851Y-80169493D01*
X95380677Y-80216800D01*
X95623163Y-80216800D01*
X95810920Y-80179452D01*
X95810920Y-80292148D01*
X95623163Y-80254800D01*
X95380677Y-80254800D01*
X95142851Y-80302107D01*
X94918823Y-80394902D01*
X94782921Y-80485709D01*
X94782921Y-79985891D01*
X94918823Y-80076698D01*
X94918823Y-80076698D01*
G37*
X94918823Y-80076698D02*
X95142851Y-80169493D01*
X95380677Y-80216800D01*
X95623163Y-80216800D01*
X95810920Y-80179452D01*
X95810920Y-80292148D01*
X95623163Y-80254800D01*
X95380677Y-80254800D01*
X95142851Y-80302107D01*
X94918823Y-80394902D01*
X94782921Y-80485709D01*
X94782921Y-79985891D01*
X94918823Y-80076698D01*
G36*
X93670922Y-80452302D02*
G01*
X93585017Y-80394902D01*
X93360989Y-80302107D01*
X93123163Y-80254800D01*
X92880677Y-80254800D01*
X92642851Y-80302107D01*
X92418823Y-80394902D01*
X92332919Y-80452301D01*
X92332919Y-80019299D01*
X92418823Y-80076698D01*
X92642851Y-80169493D01*
X92880677Y-80216800D01*
X93123163Y-80216800D01*
X93360989Y-80169493D01*
X93585017Y-80076698D01*
X93670921Y-80019299D01*
X93670922Y-80452302D01*
X93670922Y-80452302D01*
G37*
X93670922Y-80452302D02*
X93585017Y-80394902D01*
X93360989Y-80302107D01*
X93123163Y-80254800D01*
X92880677Y-80254800D01*
X92642851Y-80302107D01*
X92418823Y-80394902D01*
X92332919Y-80452301D01*
X92332919Y-80019299D01*
X92418823Y-80076698D01*
X92642851Y-80169493D01*
X92880677Y-80216800D01*
X93123163Y-80216800D01*
X93360989Y-80169493D01*
X93585017Y-80076698D01*
X93670921Y-80019299D01*
X93670922Y-80452302D01*
G36*
X92418823Y-77576698D02*
G01*
X92642851Y-77669493D01*
X92880677Y-77716800D01*
X93123163Y-77716800D01*
X93360989Y-77669493D01*
X93388087Y-77658269D01*
X93670921Y-77941103D01*
X93670921Y-77952301D01*
X93585017Y-77894902D01*
X93360989Y-77802107D01*
X93123163Y-77754800D01*
X92880677Y-77754800D01*
X92642851Y-77802107D01*
X92418823Y-77894902D01*
X92332919Y-77952301D01*
X92332919Y-77519299D01*
X92418823Y-77576698D01*
X92418823Y-77576698D01*
G37*
X92418823Y-77576698D02*
X92642851Y-77669493D01*
X92880677Y-77716800D01*
X93123163Y-77716800D01*
X93360989Y-77669493D01*
X93388087Y-77658269D01*
X93670921Y-77941103D01*
X93670921Y-77952301D01*
X93585017Y-77894902D01*
X93360989Y-77802107D01*
X93123163Y-77754800D01*
X92880677Y-77754800D01*
X92642851Y-77802107D01*
X92418823Y-77894902D01*
X92332919Y-77952301D01*
X92332919Y-77519299D01*
X92418823Y-77576698D01*
G36*
X94270920Y-76607043D02*
G01*
X94318227Y-76844869D01*
X94411022Y-77068897D01*
X94490971Y-77188549D01*
X94174389Y-76871967D01*
X94185613Y-76844869D01*
X94232920Y-76607043D01*
X94232920Y-76500721D01*
X94270920Y-76462721D01*
X94270920Y-76607043D01*
X94270920Y-76607043D01*
G37*
X94270920Y-76607043D02*
X94318227Y-76844869D01*
X94411022Y-77068897D01*
X94490971Y-77188549D01*
X94174389Y-76871967D01*
X94185613Y-76844869D01*
X94232920Y-76607043D01*
X94232920Y-76500721D01*
X94270920Y-76462721D01*
X94270920Y-76607043D01*
G36*
X92986999Y-75254800D02*
G01*
X92978842Y-75254800D01*
X93016842Y-75216800D01*
X93024999Y-75216800D01*
X92986999Y-75254800D01*
X92986999Y-75254800D01*
G37*
X92986999Y-75254800D02*
X92978842Y-75254800D01*
X93016842Y-75216800D01*
X93024999Y-75216800D01*
X92986999Y-75254800D01*
M02*
