G04 #@! TF.GenerationSoftware,KiCad,Pcbnew,5.1.0-unknown-e90452d~82~ubuntu18.04.1*
G04 #@! TF.CreationDate,2019-04-11T15:55:37-06:00*
G04 #@! TF.ProjectId,batteryMonitor,62617474-6572-4794-9d6f-6e69746f722e,rev?*
G04 #@! TF.SameCoordinates,Original*
G04 #@! TF.FileFunction,Paste,Top*
G04 #@! TF.FilePolarity,Positive*
%FSLAX46Y46*%
G04 Gerber Fmt 4.6, Leading zero omitted, Abs format (unit mm)*
G04 Created by KiCad (PCBNEW 5.1.0-unknown-e90452d~82~ubuntu18.04.1) date 2019-04-11 15:55:37*
%MOMM*%
%LPD*%
G04 APERTURE LIST*
%ADD10R,6.600000X1.650000*%
%ADD11R,1.100000X0.285000*%
%ADD12C,0.100000*%
%ADD13C,0.875000*%
%ADD14R,0.900000X0.600000*%
%ADD15R,0.600000X0.900000*%
%ADD16R,0.600000X1.050000*%
%ADD17R,0.800000X0.900000*%
%ADD18R,1.200000X0.900000*%
%ADD19R,0.900000X1.200000*%
G04 APERTURE END LIST*
D10*
X117650000Y-90383280D03*
X117750000Y-92933280D03*
D11*
X113650000Y-84250000D03*
X113650000Y-83750000D03*
X113650000Y-83250000D03*
X113650000Y-82750000D03*
X113650000Y-82250000D03*
X113650000Y-81750000D03*
X113650000Y-81250000D03*
X113650000Y-80750000D03*
X113650000Y-80250000D03*
X113650000Y-79750000D03*
X113650000Y-79250000D03*
X113650000Y-78750000D03*
X113650000Y-78250000D03*
X113650000Y-77750000D03*
X113650000Y-77250000D03*
X119350000Y-77250000D03*
X119350000Y-77750000D03*
X119350000Y-78250000D03*
X119350000Y-78750000D03*
X119350000Y-79250000D03*
X119350000Y-79750000D03*
X119350000Y-80250000D03*
X119350000Y-80750000D03*
X119350000Y-81250000D03*
X119350000Y-81750000D03*
X119350000Y-82250000D03*
X119350000Y-82750000D03*
X119350000Y-83250000D03*
X119350000Y-83750000D03*
X119350000Y-84250000D03*
D12*
G36*
X133240191Y-92526053D02*
G01*
X133261426Y-92529203D01*
X133282250Y-92534419D01*
X133302462Y-92541651D01*
X133321868Y-92550830D01*
X133340281Y-92561866D01*
X133357524Y-92574654D01*
X133373430Y-92589070D01*
X133387846Y-92604976D01*
X133400634Y-92622219D01*
X133411670Y-92640632D01*
X133420849Y-92660038D01*
X133428081Y-92680250D01*
X133433297Y-92701074D01*
X133436447Y-92722309D01*
X133437500Y-92743750D01*
X133437500Y-93256250D01*
X133436447Y-93277691D01*
X133433297Y-93298926D01*
X133428081Y-93319750D01*
X133420849Y-93339962D01*
X133411670Y-93359368D01*
X133400634Y-93377781D01*
X133387846Y-93395024D01*
X133373430Y-93410930D01*
X133357524Y-93425346D01*
X133340281Y-93438134D01*
X133321868Y-93449170D01*
X133302462Y-93458349D01*
X133282250Y-93465581D01*
X133261426Y-93470797D01*
X133240191Y-93473947D01*
X133218750Y-93475000D01*
X132781250Y-93475000D01*
X132759809Y-93473947D01*
X132738574Y-93470797D01*
X132717750Y-93465581D01*
X132697538Y-93458349D01*
X132678132Y-93449170D01*
X132659719Y-93438134D01*
X132642476Y-93425346D01*
X132626570Y-93410930D01*
X132612154Y-93395024D01*
X132599366Y-93377781D01*
X132588330Y-93359368D01*
X132579151Y-93339962D01*
X132571919Y-93319750D01*
X132566703Y-93298926D01*
X132563553Y-93277691D01*
X132562500Y-93256250D01*
X132562500Y-92743750D01*
X132563553Y-92722309D01*
X132566703Y-92701074D01*
X132571919Y-92680250D01*
X132579151Y-92660038D01*
X132588330Y-92640632D01*
X132599366Y-92622219D01*
X132612154Y-92604976D01*
X132626570Y-92589070D01*
X132642476Y-92574654D01*
X132659719Y-92561866D01*
X132678132Y-92550830D01*
X132697538Y-92541651D01*
X132717750Y-92534419D01*
X132738574Y-92529203D01*
X132759809Y-92526053D01*
X132781250Y-92525000D01*
X133218750Y-92525000D01*
X133240191Y-92526053D01*
X133240191Y-92526053D01*
G37*
D13*
X133000000Y-93000000D03*
D12*
G36*
X131665191Y-92526053D02*
G01*
X131686426Y-92529203D01*
X131707250Y-92534419D01*
X131727462Y-92541651D01*
X131746868Y-92550830D01*
X131765281Y-92561866D01*
X131782524Y-92574654D01*
X131798430Y-92589070D01*
X131812846Y-92604976D01*
X131825634Y-92622219D01*
X131836670Y-92640632D01*
X131845849Y-92660038D01*
X131853081Y-92680250D01*
X131858297Y-92701074D01*
X131861447Y-92722309D01*
X131862500Y-92743750D01*
X131862500Y-93256250D01*
X131861447Y-93277691D01*
X131858297Y-93298926D01*
X131853081Y-93319750D01*
X131845849Y-93339962D01*
X131836670Y-93359368D01*
X131825634Y-93377781D01*
X131812846Y-93395024D01*
X131798430Y-93410930D01*
X131782524Y-93425346D01*
X131765281Y-93438134D01*
X131746868Y-93449170D01*
X131727462Y-93458349D01*
X131707250Y-93465581D01*
X131686426Y-93470797D01*
X131665191Y-93473947D01*
X131643750Y-93475000D01*
X131206250Y-93475000D01*
X131184809Y-93473947D01*
X131163574Y-93470797D01*
X131142750Y-93465581D01*
X131122538Y-93458349D01*
X131103132Y-93449170D01*
X131084719Y-93438134D01*
X131067476Y-93425346D01*
X131051570Y-93410930D01*
X131037154Y-93395024D01*
X131024366Y-93377781D01*
X131013330Y-93359368D01*
X131004151Y-93339962D01*
X130996919Y-93319750D01*
X130991703Y-93298926D01*
X130988553Y-93277691D01*
X130987500Y-93256250D01*
X130987500Y-92743750D01*
X130988553Y-92722309D01*
X130991703Y-92701074D01*
X130996919Y-92680250D01*
X131004151Y-92660038D01*
X131013330Y-92640632D01*
X131024366Y-92622219D01*
X131037154Y-92604976D01*
X131051570Y-92589070D01*
X131067476Y-92574654D01*
X131084719Y-92561866D01*
X131103132Y-92550830D01*
X131122538Y-92541651D01*
X131142750Y-92534419D01*
X131163574Y-92529203D01*
X131184809Y-92526053D01*
X131206250Y-92525000D01*
X131643750Y-92525000D01*
X131665191Y-92526053D01*
X131665191Y-92526053D01*
G37*
D13*
X131425000Y-93000000D03*
D12*
G36*
X126702691Y-77776053D02*
G01*
X126723926Y-77779203D01*
X126744750Y-77784419D01*
X126764962Y-77791651D01*
X126784368Y-77800830D01*
X126802781Y-77811866D01*
X126820024Y-77824654D01*
X126835930Y-77839070D01*
X126850346Y-77854976D01*
X126863134Y-77872219D01*
X126874170Y-77890632D01*
X126883349Y-77910038D01*
X126890581Y-77930250D01*
X126895797Y-77951074D01*
X126898947Y-77972309D01*
X126900000Y-77993750D01*
X126900000Y-78506250D01*
X126898947Y-78527691D01*
X126895797Y-78548926D01*
X126890581Y-78569750D01*
X126883349Y-78589962D01*
X126874170Y-78609368D01*
X126863134Y-78627781D01*
X126850346Y-78645024D01*
X126835930Y-78660930D01*
X126820024Y-78675346D01*
X126802781Y-78688134D01*
X126784368Y-78699170D01*
X126764962Y-78708349D01*
X126744750Y-78715581D01*
X126723926Y-78720797D01*
X126702691Y-78723947D01*
X126681250Y-78725000D01*
X126243750Y-78725000D01*
X126222309Y-78723947D01*
X126201074Y-78720797D01*
X126180250Y-78715581D01*
X126160038Y-78708349D01*
X126140632Y-78699170D01*
X126122219Y-78688134D01*
X126104976Y-78675346D01*
X126089070Y-78660930D01*
X126074654Y-78645024D01*
X126061866Y-78627781D01*
X126050830Y-78609368D01*
X126041651Y-78589962D01*
X126034419Y-78569750D01*
X126029203Y-78548926D01*
X126026053Y-78527691D01*
X126025000Y-78506250D01*
X126025000Y-77993750D01*
X126026053Y-77972309D01*
X126029203Y-77951074D01*
X126034419Y-77930250D01*
X126041651Y-77910038D01*
X126050830Y-77890632D01*
X126061866Y-77872219D01*
X126074654Y-77854976D01*
X126089070Y-77839070D01*
X126104976Y-77824654D01*
X126122219Y-77811866D01*
X126140632Y-77800830D01*
X126160038Y-77791651D01*
X126180250Y-77784419D01*
X126201074Y-77779203D01*
X126222309Y-77776053D01*
X126243750Y-77775000D01*
X126681250Y-77775000D01*
X126702691Y-77776053D01*
X126702691Y-77776053D01*
G37*
D13*
X126462500Y-78250000D03*
D12*
G36*
X128277691Y-77776053D02*
G01*
X128298926Y-77779203D01*
X128319750Y-77784419D01*
X128339962Y-77791651D01*
X128359368Y-77800830D01*
X128377781Y-77811866D01*
X128395024Y-77824654D01*
X128410930Y-77839070D01*
X128425346Y-77854976D01*
X128438134Y-77872219D01*
X128449170Y-77890632D01*
X128458349Y-77910038D01*
X128465581Y-77930250D01*
X128470797Y-77951074D01*
X128473947Y-77972309D01*
X128475000Y-77993750D01*
X128475000Y-78506250D01*
X128473947Y-78527691D01*
X128470797Y-78548926D01*
X128465581Y-78569750D01*
X128458349Y-78589962D01*
X128449170Y-78609368D01*
X128438134Y-78627781D01*
X128425346Y-78645024D01*
X128410930Y-78660930D01*
X128395024Y-78675346D01*
X128377781Y-78688134D01*
X128359368Y-78699170D01*
X128339962Y-78708349D01*
X128319750Y-78715581D01*
X128298926Y-78720797D01*
X128277691Y-78723947D01*
X128256250Y-78725000D01*
X127818750Y-78725000D01*
X127797309Y-78723947D01*
X127776074Y-78720797D01*
X127755250Y-78715581D01*
X127735038Y-78708349D01*
X127715632Y-78699170D01*
X127697219Y-78688134D01*
X127679976Y-78675346D01*
X127664070Y-78660930D01*
X127649654Y-78645024D01*
X127636866Y-78627781D01*
X127625830Y-78609368D01*
X127616651Y-78589962D01*
X127609419Y-78569750D01*
X127604203Y-78548926D01*
X127601053Y-78527691D01*
X127600000Y-78506250D01*
X127600000Y-77993750D01*
X127601053Y-77972309D01*
X127604203Y-77951074D01*
X127609419Y-77930250D01*
X127616651Y-77910038D01*
X127625830Y-77890632D01*
X127636866Y-77872219D01*
X127649654Y-77854976D01*
X127664070Y-77839070D01*
X127679976Y-77824654D01*
X127697219Y-77811866D01*
X127715632Y-77800830D01*
X127735038Y-77791651D01*
X127755250Y-77784419D01*
X127776074Y-77779203D01*
X127797309Y-77776053D01*
X127818750Y-77775000D01*
X128256250Y-77775000D01*
X128277691Y-77776053D01*
X128277691Y-77776053D01*
G37*
D13*
X128037500Y-78250000D03*
D12*
G36*
X127815191Y-74526053D02*
G01*
X127836426Y-74529203D01*
X127857250Y-74534419D01*
X127877462Y-74541651D01*
X127896868Y-74550830D01*
X127915281Y-74561866D01*
X127932524Y-74574654D01*
X127948430Y-74589070D01*
X127962846Y-74604976D01*
X127975634Y-74622219D01*
X127986670Y-74640632D01*
X127995849Y-74660038D01*
X128003081Y-74680250D01*
X128008297Y-74701074D01*
X128011447Y-74722309D01*
X128012500Y-74743750D01*
X128012500Y-75256250D01*
X128011447Y-75277691D01*
X128008297Y-75298926D01*
X128003081Y-75319750D01*
X127995849Y-75339962D01*
X127986670Y-75359368D01*
X127975634Y-75377781D01*
X127962846Y-75395024D01*
X127948430Y-75410930D01*
X127932524Y-75425346D01*
X127915281Y-75438134D01*
X127896868Y-75449170D01*
X127877462Y-75458349D01*
X127857250Y-75465581D01*
X127836426Y-75470797D01*
X127815191Y-75473947D01*
X127793750Y-75475000D01*
X127356250Y-75475000D01*
X127334809Y-75473947D01*
X127313574Y-75470797D01*
X127292750Y-75465581D01*
X127272538Y-75458349D01*
X127253132Y-75449170D01*
X127234719Y-75438134D01*
X127217476Y-75425346D01*
X127201570Y-75410930D01*
X127187154Y-75395024D01*
X127174366Y-75377781D01*
X127163330Y-75359368D01*
X127154151Y-75339962D01*
X127146919Y-75319750D01*
X127141703Y-75298926D01*
X127138553Y-75277691D01*
X127137500Y-75256250D01*
X127137500Y-74743750D01*
X127138553Y-74722309D01*
X127141703Y-74701074D01*
X127146919Y-74680250D01*
X127154151Y-74660038D01*
X127163330Y-74640632D01*
X127174366Y-74622219D01*
X127187154Y-74604976D01*
X127201570Y-74589070D01*
X127217476Y-74574654D01*
X127234719Y-74561866D01*
X127253132Y-74550830D01*
X127272538Y-74541651D01*
X127292750Y-74534419D01*
X127313574Y-74529203D01*
X127334809Y-74526053D01*
X127356250Y-74525000D01*
X127793750Y-74525000D01*
X127815191Y-74526053D01*
X127815191Y-74526053D01*
G37*
D13*
X127575000Y-75000000D03*
D12*
G36*
X126240191Y-74526053D02*
G01*
X126261426Y-74529203D01*
X126282250Y-74534419D01*
X126302462Y-74541651D01*
X126321868Y-74550830D01*
X126340281Y-74561866D01*
X126357524Y-74574654D01*
X126373430Y-74589070D01*
X126387846Y-74604976D01*
X126400634Y-74622219D01*
X126411670Y-74640632D01*
X126420849Y-74660038D01*
X126428081Y-74680250D01*
X126433297Y-74701074D01*
X126436447Y-74722309D01*
X126437500Y-74743750D01*
X126437500Y-75256250D01*
X126436447Y-75277691D01*
X126433297Y-75298926D01*
X126428081Y-75319750D01*
X126420849Y-75339962D01*
X126411670Y-75359368D01*
X126400634Y-75377781D01*
X126387846Y-75395024D01*
X126373430Y-75410930D01*
X126357524Y-75425346D01*
X126340281Y-75438134D01*
X126321868Y-75449170D01*
X126302462Y-75458349D01*
X126282250Y-75465581D01*
X126261426Y-75470797D01*
X126240191Y-75473947D01*
X126218750Y-75475000D01*
X125781250Y-75475000D01*
X125759809Y-75473947D01*
X125738574Y-75470797D01*
X125717750Y-75465581D01*
X125697538Y-75458349D01*
X125678132Y-75449170D01*
X125659719Y-75438134D01*
X125642476Y-75425346D01*
X125626570Y-75410930D01*
X125612154Y-75395024D01*
X125599366Y-75377781D01*
X125588330Y-75359368D01*
X125579151Y-75339962D01*
X125571919Y-75319750D01*
X125566703Y-75298926D01*
X125563553Y-75277691D01*
X125562500Y-75256250D01*
X125562500Y-74743750D01*
X125563553Y-74722309D01*
X125566703Y-74701074D01*
X125571919Y-74680250D01*
X125579151Y-74660038D01*
X125588330Y-74640632D01*
X125599366Y-74622219D01*
X125612154Y-74604976D01*
X125626570Y-74589070D01*
X125642476Y-74574654D01*
X125659719Y-74561866D01*
X125678132Y-74550830D01*
X125697538Y-74541651D01*
X125717750Y-74534419D01*
X125738574Y-74529203D01*
X125759809Y-74526053D01*
X125781250Y-74525000D01*
X126218750Y-74525000D01*
X126240191Y-74526053D01*
X126240191Y-74526053D01*
G37*
D13*
X126000000Y-75000000D03*
D12*
G36*
X135277691Y-89063553D02*
G01*
X135298926Y-89066703D01*
X135319750Y-89071919D01*
X135339962Y-89079151D01*
X135359368Y-89088330D01*
X135377781Y-89099366D01*
X135395024Y-89112154D01*
X135410930Y-89126570D01*
X135425346Y-89142476D01*
X135438134Y-89159719D01*
X135449170Y-89178132D01*
X135458349Y-89197538D01*
X135465581Y-89217750D01*
X135470797Y-89238574D01*
X135473947Y-89259809D01*
X135475000Y-89281250D01*
X135475000Y-89718750D01*
X135473947Y-89740191D01*
X135470797Y-89761426D01*
X135465581Y-89782250D01*
X135458349Y-89802462D01*
X135449170Y-89821868D01*
X135438134Y-89840281D01*
X135425346Y-89857524D01*
X135410930Y-89873430D01*
X135395024Y-89887846D01*
X135377781Y-89900634D01*
X135359368Y-89911670D01*
X135339962Y-89920849D01*
X135319750Y-89928081D01*
X135298926Y-89933297D01*
X135277691Y-89936447D01*
X135256250Y-89937500D01*
X134743750Y-89937500D01*
X134722309Y-89936447D01*
X134701074Y-89933297D01*
X134680250Y-89928081D01*
X134660038Y-89920849D01*
X134640632Y-89911670D01*
X134622219Y-89900634D01*
X134604976Y-89887846D01*
X134589070Y-89873430D01*
X134574654Y-89857524D01*
X134561866Y-89840281D01*
X134550830Y-89821868D01*
X134541651Y-89802462D01*
X134534419Y-89782250D01*
X134529203Y-89761426D01*
X134526053Y-89740191D01*
X134525000Y-89718750D01*
X134525000Y-89281250D01*
X134526053Y-89259809D01*
X134529203Y-89238574D01*
X134534419Y-89217750D01*
X134541651Y-89197538D01*
X134550830Y-89178132D01*
X134561866Y-89159719D01*
X134574654Y-89142476D01*
X134589070Y-89126570D01*
X134604976Y-89112154D01*
X134622219Y-89099366D01*
X134640632Y-89088330D01*
X134660038Y-89079151D01*
X134680250Y-89071919D01*
X134701074Y-89066703D01*
X134722309Y-89063553D01*
X134743750Y-89062500D01*
X135256250Y-89062500D01*
X135277691Y-89063553D01*
X135277691Y-89063553D01*
G37*
D13*
X135000000Y-89500000D03*
D12*
G36*
X135277691Y-90638553D02*
G01*
X135298926Y-90641703D01*
X135319750Y-90646919D01*
X135339962Y-90654151D01*
X135359368Y-90663330D01*
X135377781Y-90674366D01*
X135395024Y-90687154D01*
X135410930Y-90701570D01*
X135425346Y-90717476D01*
X135438134Y-90734719D01*
X135449170Y-90753132D01*
X135458349Y-90772538D01*
X135465581Y-90792750D01*
X135470797Y-90813574D01*
X135473947Y-90834809D01*
X135475000Y-90856250D01*
X135475000Y-91293750D01*
X135473947Y-91315191D01*
X135470797Y-91336426D01*
X135465581Y-91357250D01*
X135458349Y-91377462D01*
X135449170Y-91396868D01*
X135438134Y-91415281D01*
X135425346Y-91432524D01*
X135410930Y-91448430D01*
X135395024Y-91462846D01*
X135377781Y-91475634D01*
X135359368Y-91486670D01*
X135339962Y-91495849D01*
X135319750Y-91503081D01*
X135298926Y-91508297D01*
X135277691Y-91511447D01*
X135256250Y-91512500D01*
X134743750Y-91512500D01*
X134722309Y-91511447D01*
X134701074Y-91508297D01*
X134680250Y-91503081D01*
X134660038Y-91495849D01*
X134640632Y-91486670D01*
X134622219Y-91475634D01*
X134604976Y-91462846D01*
X134589070Y-91448430D01*
X134574654Y-91432524D01*
X134561866Y-91415281D01*
X134550830Y-91396868D01*
X134541651Y-91377462D01*
X134534419Y-91357250D01*
X134529203Y-91336426D01*
X134526053Y-91315191D01*
X134525000Y-91293750D01*
X134525000Y-90856250D01*
X134526053Y-90834809D01*
X134529203Y-90813574D01*
X134534419Y-90792750D01*
X134541651Y-90772538D01*
X134550830Y-90753132D01*
X134561866Y-90734719D01*
X134574654Y-90717476D01*
X134589070Y-90701570D01*
X134604976Y-90687154D01*
X134622219Y-90674366D01*
X134640632Y-90663330D01*
X134660038Y-90654151D01*
X134680250Y-90646919D01*
X134701074Y-90641703D01*
X134722309Y-90638553D01*
X134743750Y-90637500D01*
X135256250Y-90637500D01*
X135277691Y-90638553D01*
X135277691Y-90638553D01*
G37*
D13*
X135000000Y-91075000D03*
D12*
G36*
X122915191Y-81276053D02*
G01*
X122936426Y-81279203D01*
X122957250Y-81284419D01*
X122977462Y-81291651D01*
X122996868Y-81300830D01*
X123015281Y-81311866D01*
X123032524Y-81324654D01*
X123048430Y-81339070D01*
X123062846Y-81354976D01*
X123075634Y-81372219D01*
X123086670Y-81390632D01*
X123095849Y-81410038D01*
X123103081Y-81430250D01*
X123108297Y-81451074D01*
X123111447Y-81472309D01*
X123112500Y-81493750D01*
X123112500Y-82006250D01*
X123111447Y-82027691D01*
X123108297Y-82048926D01*
X123103081Y-82069750D01*
X123095849Y-82089962D01*
X123086670Y-82109368D01*
X123075634Y-82127781D01*
X123062846Y-82145024D01*
X123048430Y-82160930D01*
X123032524Y-82175346D01*
X123015281Y-82188134D01*
X122996868Y-82199170D01*
X122977462Y-82208349D01*
X122957250Y-82215581D01*
X122936426Y-82220797D01*
X122915191Y-82223947D01*
X122893750Y-82225000D01*
X122456250Y-82225000D01*
X122434809Y-82223947D01*
X122413574Y-82220797D01*
X122392750Y-82215581D01*
X122372538Y-82208349D01*
X122353132Y-82199170D01*
X122334719Y-82188134D01*
X122317476Y-82175346D01*
X122301570Y-82160930D01*
X122287154Y-82145024D01*
X122274366Y-82127781D01*
X122263330Y-82109368D01*
X122254151Y-82089962D01*
X122246919Y-82069750D01*
X122241703Y-82048926D01*
X122238553Y-82027691D01*
X122237500Y-82006250D01*
X122237500Y-81493750D01*
X122238553Y-81472309D01*
X122241703Y-81451074D01*
X122246919Y-81430250D01*
X122254151Y-81410038D01*
X122263330Y-81390632D01*
X122274366Y-81372219D01*
X122287154Y-81354976D01*
X122301570Y-81339070D01*
X122317476Y-81324654D01*
X122334719Y-81311866D01*
X122353132Y-81300830D01*
X122372538Y-81291651D01*
X122392750Y-81284419D01*
X122413574Y-81279203D01*
X122434809Y-81276053D01*
X122456250Y-81275000D01*
X122893750Y-81275000D01*
X122915191Y-81276053D01*
X122915191Y-81276053D01*
G37*
D13*
X122675000Y-81750000D03*
D12*
G36*
X124490191Y-81276053D02*
G01*
X124511426Y-81279203D01*
X124532250Y-81284419D01*
X124552462Y-81291651D01*
X124571868Y-81300830D01*
X124590281Y-81311866D01*
X124607524Y-81324654D01*
X124623430Y-81339070D01*
X124637846Y-81354976D01*
X124650634Y-81372219D01*
X124661670Y-81390632D01*
X124670849Y-81410038D01*
X124678081Y-81430250D01*
X124683297Y-81451074D01*
X124686447Y-81472309D01*
X124687500Y-81493750D01*
X124687500Y-82006250D01*
X124686447Y-82027691D01*
X124683297Y-82048926D01*
X124678081Y-82069750D01*
X124670849Y-82089962D01*
X124661670Y-82109368D01*
X124650634Y-82127781D01*
X124637846Y-82145024D01*
X124623430Y-82160930D01*
X124607524Y-82175346D01*
X124590281Y-82188134D01*
X124571868Y-82199170D01*
X124552462Y-82208349D01*
X124532250Y-82215581D01*
X124511426Y-82220797D01*
X124490191Y-82223947D01*
X124468750Y-82225000D01*
X124031250Y-82225000D01*
X124009809Y-82223947D01*
X123988574Y-82220797D01*
X123967750Y-82215581D01*
X123947538Y-82208349D01*
X123928132Y-82199170D01*
X123909719Y-82188134D01*
X123892476Y-82175346D01*
X123876570Y-82160930D01*
X123862154Y-82145024D01*
X123849366Y-82127781D01*
X123838330Y-82109368D01*
X123829151Y-82089962D01*
X123821919Y-82069750D01*
X123816703Y-82048926D01*
X123813553Y-82027691D01*
X123812500Y-82006250D01*
X123812500Y-81493750D01*
X123813553Y-81472309D01*
X123816703Y-81451074D01*
X123821919Y-81430250D01*
X123829151Y-81410038D01*
X123838330Y-81390632D01*
X123849366Y-81372219D01*
X123862154Y-81354976D01*
X123876570Y-81339070D01*
X123892476Y-81324654D01*
X123909719Y-81311866D01*
X123928132Y-81300830D01*
X123947538Y-81291651D01*
X123967750Y-81284419D01*
X123988574Y-81279203D01*
X124009809Y-81276053D01*
X124031250Y-81275000D01*
X124468750Y-81275000D01*
X124490191Y-81276053D01*
X124490191Y-81276053D01*
G37*
D13*
X124250000Y-81750000D03*
D12*
G36*
X122990191Y-76026053D02*
G01*
X123011426Y-76029203D01*
X123032250Y-76034419D01*
X123052462Y-76041651D01*
X123071868Y-76050830D01*
X123090281Y-76061866D01*
X123107524Y-76074654D01*
X123123430Y-76089070D01*
X123137846Y-76104976D01*
X123150634Y-76122219D01*
X123161670Y-76140632D01*
X123170849Y-76160038D01*
X123178081Y-76180250D01*
X123183297Y-76201074D01*
X123186447Y-76222309D01*
X123187500Y-76243750D01*
X123187500Y-76756250D01*
X123186447Y-76777691D01*
X123183297Y-76798926D01*
X123178081Y-76819750D01*
X123170849Y-76839962D01*
X123161670Y-76859368D01*
X123150634Y-76877781D01*
X123137846Y-76895024D01*
X123123430Y-76910930D01*
X123107524Y-76925346D01*
X123090281Y-76938134D01*
X123071868Y-76949170D01*
X123052462Y-76958349D01*
X123032250Y-76965581D01*
X123011426Y-76970797D01*
X122990191Y-76973947D01*
X122968750Y-76975000D01*
X122531250Y-76975000D01*
X122509809Y-76973947D01*
X122488574Y-76970797D01*
X122467750Y-76965581D01*
X122447538Y-76958349D01*
X122428132Y-76949170D01*
X122409719Y-76938134D01*
X122392476Y-76925346D01*
X122376570Y-76910930D01*
X122362154Y-76895024D01*
X122349366Y-76877781D01*
X122338330Y-76859368D01*
X122329151Y-76839962D01*
X122321919Y-76819750D01*
X122316703Y-76798926D01*
X122313553Y-76777691D01*
X122312500Y-76756250D01*
X122312500Y-76243750D01*
X122313553Y-76222309D01*
X122316703Y-76201074D01*
X122321919Y-76180250D01*
X122329151Y-76160038D01*
X122338330Y-76140632D01*
X122349366Y-76122219D01*
X122362154Y-76104976D01*
X122376570Y-76089070D01*
X122392476Y-76074654D01*
X122409719Y-76061866D01*
X122428132Y-76050830D01*
X122447538Y-76041651D01*
X122467750Y-76034419D01*
X122488574Y-76029203D01*
X122509809Y-76026053D01*
X122531250Y-76025000D01*
X122968750Y-76025000D01*
X122990191Y-76026053D01*
X122990191Y-76026053D01*
G37*
D13*
X122750000Y-76500000D03*
D12*
G36*
X124565191Y-76026053D02*
G01*
X124586426Y-76029203D01*
X124607250Y-76034419D01*
X124627462Y-76041651D01*
X124646868Y-76050830D01*
X124665281Y-76061866D01*
X124682524Y-76074654D01*
X124698430Y-76089070D01*
X124712846Y-76104976D01*
X124725634Y-76122219D01*
X124736670Y-76140632D01*
X124745849Y-76160038D01*
X124753081Y-76180250D01*
X124758297Y-76201074D01*
X124761447Y-76222309D01*
X124762500Y-76243750D01*
X124762500Y-76756250D01*
X124761447Y-76777691D01*
X124758297Y-76798926D01*
X124753081Y-76819750D01*
X124745849Y-76839962D01*
X124736670Y-76859368D01*
X124725634Y-76877781D01*
X124712846Y-76895024D01*
X124698430Y-76910930D01*
X124682524Y-76925346D01*
X124665281Y-76938134D01*
X124646868Y-76949170D01*
X124627462Y-76958349D01*
X124607250Y-76965581D01*
X124586426Y-76970797D01*
X124565191Y-76973947D01*
X124543750Y-76975000D01*
X124106250Y-76975000D01*
X124084809Y-76973947D01*
X124063574Y-76970797D01*
X124042750Y-76965581D01*
X124022538Y-76958349D01*
X124003132Y-76949170D01*
X123984719Y-76938134D01*
X123967476Y-76925346D01*
X123951570Y-76910930D01*
X123937154Y-76895024D01*
X123924366Y-76877781D01*
X123913330Y-76859368D01*
X123904151Y-76839962D01*
X123896919Y-76819750D01*
X123891703Y-76798926D01*
X123888553Y-76777691D01*
X123887500Y-76756250D01*
X123887500Y-76243750D01*
X123888553Y-76222309D01*
X123891703Y-76201074D01*
X123896919Y-76180250D01*
X123904151Y-76160038D01*
X123913330Y-76140632D01*
X123924366Y-76122219D01*
X123937154Y-76104976D01*
X123951570Y-76089070D01*
X123967476Y-76074654D01*
X123984719Y-76061866D01*
X124003132Y-76050830D01*
X124022538Y-76041651D01*
X124042750Y-76034419D01*
X124063574Y-76029203D01*
X124084809Y-76026053D01*
X124106250Y-76025000D01*
X124543750Y-76025000D01*
X124565191Y-76026053D01*
X124565191Y-76026053D01*
G37*
D13*
X124325000Y-76500000D03*
D12*
G36*
X145277691Y-84601053D02*
G01*
X145298926Y-84604203D01*
X145319750Y-84609419D01*
X145339962Y-84616651D01*
X145359368Y-84625830D01*
X145377781Y-84636866D01*
X145395024Y-84649654D01*
X145410930Y-84664070D01*
X145425346Y-84679976D01*
X145438134Y-84697219D01*
X145449170Y-84715632D01*
X145458349Y-84735038D01*
X145465581Y-84755250D01*
X145470797Y-84776074D01*
X145473947Y-84797309D01*
X145475000Y-84818750D01*
X145475000Y-85256250D01*
X145473947Y-85277691D01*
X145470797Y-85298926D01*
X145465581Y-85319750D01*
X145458349Y-85339962D01*
X145449170Y-85359368D01*
X145438134Y-85377781D01*
X145425346Y-85395024D01*
X145410930Y-85410930D01*
X145395024Y-85425346D01*
X145377781Y-85438134D01*
X145359368Y-85449170D01*
X145339962Y-85458349D01*
X145319750Y-85465581D01*
X145298926Y-85470797D01*
X145277691Y-85473947D01*
X145256250Y-85475000D01*
X144743750Y-85475000D01*
X144722309Y-85473947D01*
X144701074Y-85470797D01*
X144680250Y-85465581D01*
X144660038Y-85458349D01*
X144640632Y-85449170D01*
X144622219Y-85438134D01*
X144604976Y-85425346D01*
X144589070Y-85410930D01*
X144574654Y-85395024D01*
X144561866Y-85377781D01*
X144550830Y-85359368D01*
X144541651Y-85339962D01*
X144534419Y-85319750D01*
X144529203Y-85298926D01*
X144526053Y-85277691D01*
X144525000Y-85256250D01*
X144525000Y-84818750D01*
X144526053Y-84797309D01*
X144529203Y-84776074D01*
X144534419Y-84755250D01*
X144541651Y-84735038D01*
X144550830Y-84715632D01*
X144561866Y-84697219D01*
X144574654Y-84679976D01*
X144589070Y-84664070D01*
X144604976Y-84649654D01*
X144622219Y-84636866D01*
X144640632Y-84625830D01*
X144660038Y-84616651D01*
X144680250Y-84609419D01*
X144701074Y-84604203D01*
X144722309Y-84601053D01*
X144743750Y-84600000D01*
X145256250Y-84600000D01*
X145277691Y-84601053D01*
X145277691Y-84601053D01*
G37*
D13*
X145000000Y-85037500D03*
D12*
G36*
X145277691Y-83026053D02*
G01*
X145298926Y-83029203D01*
X145319750Y-83034419D01*
X145339962Y-83041651D01*
X145359368Y-83050830D01*
X145377781Y-83061866D01*
X145395024Y-83074654D01*
X145410930Y-83089070D01*
X145425346Y-83104976D01*
X145438134Y-83122219D01*
X145449170Y-83140632D01*
X145458349Y-83160038D01*
X145465581Y-83180250D01*
X145470797Y-83201074D01*
X145473947Y-83222309D01*
X145475000Y-83243750D01*
X145475000Y-83681250D01*
X145473947Y-83702691D01*
X145470797Y-83723926D01*
X145465581Y-83744750D01*
X145458349Y-83764962D01*
X145449170Y-83784368D01*
X145438134Y-83802781D01*
X145425346Y-83820024D01*
X145410930Y-83835930D01*
X145395024Y-83850346D01*
X145377781Y-83863134D01*
X145359368Y-83874170D01*
X145339962Y-83883349D01*
X145319750Y-83890581D01*
X145298926Y-83895797D01*
X145277691Y-83898947D01*
X145256250Y-83900000D01*
X144743750Y-83900000D01*
X144722309Y-83898947D01*
X144701074Y-83895797D01*
X144680250Y-83890581D01*
X144660038Y-83883349D01*
X144640632Y-83874170D01*
X144622219Y-83863134D01*
X144604976Y-83850346D01*
X144589070Y-83835930D01*
X144574654Y-83820024D01*
X144561866Y-83802781D01*
X144550830Y-83784368D01*
X144541651Y-83764962D01*
X144534419Y-83744750D01*
X144529203Y-83723926D01*
X144526053Y-83702691D01*
X144525000Y-83681250D01*
X144525000Y-83243750D01*
X144526053Y-83222309D01*
X144529203Y-83201074D01*
X144534419Y-83180250D01*
X144541651Y-83160038D01*
X144550830Y-83140632D01*
X144561866Y-83122219D01*
X144574654Y-83104976D01*
X144589070Y-83089070D01*
X144604976Y-83074654D01*
X144622219Y-83061866D01*
X144640632Y-83050830D01*
X144660038Y-83041651D01*
X144680250Y-83034419D01*
X144701074Y-83029203D01*
X144722309Y-83026053D01*
X144743750Y-83025000D01*
X145256250Y-83025000D01*
X145277691Y-83026053D01*
X145277691Y-83026053D01*
G37*
D13*
X145000000Y-83462500D03*
D12*
G36*
X146777691Y-84563553D02*
G01*
X146798926Y-84566703D01*
X146819750Y-84571919D01*
X146839962Y-84579151D01*
X146859368Y-84588330D01*
X146877781Y-84599366D01*
X146895024Y-84612154D01*
X146910930Y-84626570D01*
X146925346Y-84642476D01*
X146938134Y-84659719D01*
X146949170Y-84678132D01*
X146958349Y-84697538D01*
X146965581Y-84717750D01*
X146970797Y-84738574D01*
X146973947Y-84759809D01*
X146975000Y-84781250D01*
X146975000Y-85218750D01*
X146973947Y-85240191D01*
X146970797Y-85261426D01*
X146965581Y-85282250D01*
X146958349Y-85302462D01*
X146949170Y-85321868D01*
X146938134Y-85340281D01*
X146925346Y-85357524D01*
X146910930Y-85373430D01*
X146895024Y-85387846D01*
X146877781Y-85400634D01*
X146859368Y-85411670D01*
X146839962Y-85420849D01*
X146819750Y-85428081D01*
X146798926Y-85433297D01*
X146777691Y-85436447D01*
X146756250Y-85437500D01*
X146243750Y-85437500D01*
X146222309Y-85436447D01*
X146201074Y-85433297D01*
X146180250Y-85428081D01*
X146160038Y-85420849D01*
X146140632Y-85411670D01*
X146122219Y-85400634D01*
X146104976Y-85387846D01*
X146089070Y-85373430D01*
X146074654Y-85357524D01*
X146061866Y-85340281D01*
X146050830Y-85321868D01*
X146041651Y-85302462D01*
X146034419Y-85282250D01*
X146029203Y-85261426D01*
X146026053Y-85240191D01*
X146025000Y-85218750D01*
X146025000Y-84781250D01*
X146026053Y-84759809D01*
X146029203Y-84738574D01*
X146034419Y-84717750D01*
X146041651Y-84697538D01*
X146050830Y-84678132D01*
X146061866Y-84659719D01*
X146074654Y-84642476D01*
X146089070Y-84626570D01*
X146104976Y-84612154D01*
X146122219Y-84599366D01*
X146140632Y-84588330D01*
X146160038Y-84579151D01*
X146180250Y-84571919D01*
X146201074Y-84566703D01*
X146222309Y-84563553D01*
X146243750Y-84562500D01*
X146756250Y-84562500D01*
X146777691Y-84563553D01*
X146777691Y-84563553D01*
G37*
D13*
X146500000Y-85000000D03*
D12*
G36*
X146777691Y-82988553D02*
G01*
X146798926Y-82991703D01*
X146819750Y-82996919D01*
X146839962Y-83004151D01*
X146859368Y-83013330D01*
X146877781Y-83024366D01*
X146895024Y-83037154D01*
X146910930Y-83051570D01*
X146925346Y-83067476D01*
X146938134Y-83084719D01*
X146949170Y-83103132D01*
X146958349Y-83122538D01*
X146965581Y-83142750D01*
X146970797Y-83163574D01*
X146973947Y-83184809D01*
X146975000Y-83206250D01*
X146975000Y-83643750D01*
X146973947Y-83665191D01*
X146970797Y-83686426D01*
X146965581Y-83707250D01*
X146958349Y-83727462D01*
X146949170Y-83746868D01*
X146938134Y-83765281D01*
X146925346Y-83782524D01*
X146910930Y-83798430D01*
X146895024Y-83812846D01*
X146877781Y-83825634D01*
X146859368Y-83836670D01*
X146839962Y-83845849D01*
X146819750Y-83853081D01*
X146798926Y-83858297D01*
X146777691Y-83861447D01*
X146756250Y-83862500D01*
X146243750Y-83862500D01*
X146222309Y-83861447D01*
X146201074Y-83858297D01*
X146180250Y-83853081D01*
X146160038Y-83845849D01*
X146140632Y-83836670D01*
X146122219Y-83825634D01*
X146104976Y-83812846D01*
X146089070Y-83798430D01*
X146074654Y-83782524D01*
X146061866Y-83765281D01*
X146050830Y-83746868D01*
X146041651Y-83727462D01*
X146034419Y-83707250D01*
X146029203Y-83686426D01*
X146026053Y-83665191D01*
X146025000Y-83643750D01*
X146025000Y-83206250D01*
X146026053Y-83184809D01*
X146029203Y-83163574D01*
X146034419Y-83142750D01*
X146041651Y-83122538D01*
X146050830Y-83103132D01*
X146061866Y-83084719D01*
X146074654Y-83067476D01*
X146089070Y-83051570D01*
X146104976Y-83037154D01*
X146122219Y-83024366D01*
X146140632Y-83013330D01*
X146160038Y-83004151D01*
X146180250Y-82996919D01*
X146201074Y-82991703D01*
X146222309Y-82988553D01*
X146243750Y-82987500D01*
X146756250Y-82987500D01*
X146777691Y-82988553D01*
X146777691Y-82988553D01*
G37*
D13*
X146500000Y-83425000D03*
D12*
G36*
X125490191Y-92526053D02*
G01*
X125511426Y-92529203D01*
X125532250Y-92534419D01*
X125552462Y-92541651D01*
X125571868Y-92550830D01*
X125590281Y-92561866D01*
X125607524Y-92574654D01*
X125623430Y-92589070D01*
X125637846Y-92604976D01*
X125650634Y-92622219D01*
X125661670Y-92640632D01*
X125670849Y-92660038D01*
X125678081Y-92680250D01*
X125683297Y-92701074D01*
X125686447Y-92722309D01*
X125687500Y-92743750D01*
X125687500Y-93256250D01*
X125686447Y-93277691D01*
X125683297Y-93298926D01*
X125678081Y-93319750D01*
X125670849Y-93339962D01*
X125661670Y-93359368D01*
X125650634Y-93377781D01*
X125637846Y-93395024D01*
X125623430Y-93410930D01*
X125607524Y-93425346D01*
X125590281Y-93438134D01*
X125571868Y-93449170D01*
X125552462Y-93458349D01*
X125532250Y-93465581D01*
X125511426Y-93470797D01*
X125490191Y-93473947D01*
X125468750Y-93475000D01*
X125031250Y-93475000D01*
X125009809Y-93473947D01*
X124988574Y-93470797D01*
X124967750Y-93465581D01*
X124947538Y-93458349D01*
X124928132Y-93449170D01*
X124909719Y-93438134D01*
X124892476Y-93425346D01*
X124876570Y-93410930D01*
X124862154Y-93395024D01*
X124849366Y-93377781D01*
X124838330Y-93359368D01*
X124829151Y-93339962D01*
X124821919Y-93319750D01*
X124816703Y-93298926D01*
X124813553Y-93277691D01*
X124812500Y-93256250D01*
X124812500Y-92743750D01*
X124813553Y-92722309D01*
X124816703Y-92701074D01*
X124821919Y-92680250D01*
X124829151Y-92660038D01*
X124838330Y-92640632D01*
X124849366Y-92622219D01*
X124862154Y-92604976D01*
X124876570Y-92589070D01*
X124892476Y-92574654D01*
X124909719Y-92561866D01*
X124928132Y-92550830D01*
X124947538Y-92541651D01*
X124967750Y-92534419D01*
X124988574Y-92529203D01*
X125009809Y-92526053D01*
X125031250Y-92525000D01*
X125468750Y-92525000D01*
X125490191Y-92526053D01*
X125490191Y-92526053D01*
G37*
D13*
X125250000Y-93000000D03*
D12*
G36*
X127065191Y-92526053D02*
G01*
X127086426Y-92529203D01*
X127107250Y-92534419D01*
X127127462Y-92541651D01*
X127146868Y-92550830D01*
X127165281Y-92561866D01*
X127182524Y-92574654D01*
X127198430Y-92589070D01*
X127212846Y-92604976D01*
X127225634Y-92622219D01*
X127236670Y-92640632D01*
X127245849Y-92660038D01*
X127253081Y-92680250D01*
X127258297Y-92701074D01*
X127261447Y-92722309D01*
X127262500Y-92743750D01*
X127262500Y-93256250D01*
X127261447Y-93277691D01*
X127258297Y-93298926D01*
X127253081Y-93319750D01*
X127245849Y-93339962D01*
X127236670Y-93359368D01*
X127225634Y-93377781D01*
X127212846Y-93395024D01*
X127198430Y-93410930D01*
X127182524Y-93425346D01*
X127165281Y-93438134D01*
X127146868Y-93449170D01*
X127127462Y-93458349D01*
X127107250Y-93465581D01*
X127086426Y-93470797D01*
X127065191Y-93473947D01*
X127043750Y-93475000D01*
X126606250Y-93475000D01*
X126584809Y-93473947D01*
X126563574Y-93470797D01*
X126542750Y-93465581D01*
X126522538Y-93458349D01*
X126503132Y-93449170D01*
X126484719Y-93438134D01*
X126467476Y-93425346D01*
X126451570Y-93410930D01*
X126437154Y-93395024D01*
X126424366Y-93377781D01*
X126413330Y-93359368D01*
X126404151Y-93339962D01*
X126396919Y-93319750D01*
X126391703Y-93298926D01*
X126388553Y-93277691D01*
X126387500Y-93256250D01*
X126387500Y-92743750D01*
X126388553Y-92722309D01*
X126391703Y-92701074D01*
X126396919Y-92680250D01*
X126404151Y-92660038D01*
X126413330Y-92640632D01*
X126424366Y-92622219D01*
X126437154Y-92604976D01*
X126451570Y-92589070D01*
X126467476Y-92574654D01*
X126484719Y-92561866D01*
X126503132Y-92550830D01*
X126522538Y-92541651D01*
X126542750Y-92534419D01*
X126563574Y-92529203D01*
X126584809Y-92526053D01*
X126606250Y-92525000D01*
X127043750Y-92525000D01*
X127065191Y-92526053D01*
X127065191Y-92526053D01*
G37*
D13*
X126825000Y-93000000D03*
D12*
G36*
X112777691Y-90563553D02*
G01*
X112798926Y-90566703D01*
X112819750Y-90571919D01*
X112839962Y-90579151D01*
X112859368Y-90588330D01*
X112877781Y-90599366D01*
X112895024Y-90612154D01*
X112910930Y-90626570D01*
X112925346Y-90642476D01*
X112938134Y-90659719D01*
X112949170Y-90678132D01*
X112958349Y-90697538D01*
X112965581Y-90717750D01*
X112970797Y-90738574D01*
X112973947Y-90759809D01*
X112975000Y-90781250D01*
X112975000Y-91218750D01*
X112973947Y-91240191D01*
X112970797Y-91261426D01*
X112965581Y-91282250D01*
X112958349Y-91302462D01*
X112949170Y-91321868D01*
X112938134Y-91340281D01*
X112925346Y-91357524D01*
X112910930Y-91373430D01*
X112895024Y-91387846D01*
X112877781Y-91400634D01*
X112859368Y-91411670D01*
X112839962Y-91420849D01*
X112819750Y-91428081D01*
X112798926Y-91433297D01*
X112777691Y-91436447D01*
X112756250Y-91437500D01*
X112243750Y-91437500D01*
X112222309Y-91436447D01*
X112201074Y-91433297D01*
X112180250Y-91428081D01*
X112160038Y-91420849D01*
X112140632Y-91411670D01*
X112122219Y-91400634D01*
X112104976Y-91387846D01*
X112089070Y-91373430D01*
X112074654Y-91357524D01*
X112061866Y-91340281D01*
X112050830Y-91321868D01*
X112041651Y-91302462D01*
X112034419Y-91282250D01*
X112029203Y-91261426D01*
X112026053Y-91240191D01*
X112025000Y-91218750D01*
X112025000Y-90781250D01*
X112026053Y-90759809D01*
X112029203Y-90738574D01*
X112034419Y-90717750D01*
X112041651Y-90697538D01*
X112050830Y-90678132D01*
X112061866Y-90659719D01*
X112074654Y-90642476D01*
X112089070Y-90626570D01*
X112104976Y-90612154D01*
X112122219Y-90599366D01*
X112140632Y-90588330D01*
X112160038Y-90579151D01*
X112180250Y-90571919D01*
X112201074Y-90566703D01*
X112222309Y-90563553D01*
X112243750Y-90562500D01*
X112756250Y-90562500D01*
X112777691Y-90563553D01*
X112777691Y-90563553D01*
G37*
D13*
X112500000Y-91000000D03*
D12*
G36*
X112777691Y-92138553D02*
G01*
X112798926Y-92141703D01*
X112819750Y-92146919D01*
X112839962Y-92154151D01*
X112859368Y-92163330D01*
X112877781Y-92174366D01*
X112895024Y-92187154D01*
X112910930Y-92201570D01*
X112925346Y-92217476D01*
X112938134Y-92234719D01*
X112949170Y-92253132D01*
X112958349Y-92272538D01*
X112965581Y-92292750D01*
X112970797Y-92313574D01*
X112973947Y-92334809D01*
X112975000Y-92356250D01*
X112975000Y-92793750D01*
X112973947Y-92815191D01*
X112970797Y-92836426D01*
X112965581Y-92857250D01*
X112958349Y-92877462D01*
X112949170Y-92896868D01*
X112938134Y-92915281D01*
X112925346Y-92932524D01*
X112910930Y-92948430D01*
X112895024Y-92962846D01*
X112877781Y-92975634D01*
X112859368Y-92986670D01*
X112839962Y-92995849D01*
X112819750Y-93003081D01*
X112798926Y-93008297D01*
X112777691Y-93011447D01*
X112756250Y-93012500D01*
X112243750Y-93012500D01*
X112222309Y-93011447D01*
X112201074Y-93008297D01*
X112180250Y-93003081D01*
X112160038Y-92995849D01*
X112140632Y-92986670D01*
X112122219Y-92975634D01*
X112104976Y-92962846D01*
X112089070Y-92948430D01*
X112074654Y-92932524D01*
X112061866Y-92915281D01*
X112050830Y-92896868D01*
X112041651Y-92877462D01*
X112034419Y-92857250D01*
X112029203Y-92836426D01*
X112026053Y-92815191D01*
X112025000Y-92793750D01*
X112025000Y-92356250D01*
X112026053Y-92334809D01*
X112029203Y-92313574D01*
X112034419Y-92292750D01*
X112041651Y-92272538D01*
X112050830Y-92253132D01*
X112061866Y-92234719D01*
X112074654Y-92217476D01*
X112089070Y-92201570D01*
X112104976Y-92187154D01*
X112122219Y-92174366D01*
X112140632Y-92163330D01*
X112160038Y-92154151D01*
X112180250Y-92146919D01*
X112201074Y-92141703D01*
X112222309Y-92138553D01*
X112243750Y-92137500D01*
X112756250Y-92137500D01*
X112777691Y-92138553D01*
X112777691Y-92138553D01*
G37*
D13*
X112500000Y-92575000D03*
D12*
G36*
X111027691Y-92063553D02*
G01*
X111048926Y-92066703D01*
X111069750Y-92071919D01*
X111089962Y-92079151D01*
X111109368Y-92088330D01*
X111127781Y-92099366D01*
X111145024Y-92112154D01*
X111160930Y-92126570D01*
X111175346Y-92142476D01*
X111188134Y-92159719D01*
X111199170Y-92178132D01*
X111208349Y-92197538D01*
X111215581Y-92217750D01*
X111220797Y-92238574D01*
X111223947Y-92259809D01*
X111225000Y-92281250D01*
X111225000Y-92718750D01*
X111223947Y-92740191D01*
X111220797Y-92761426D01*
X111215581Y-92782250D01*
X111208349Y-92802462D01*
X111199170Y-92821868D01*
X111188134Y-92840281D01*
X111175346Y-92857524D01*
X111160930Y-92873430D01*
X111145024Y-92887846D01*
X111127781Y-92900634D01*
X111109368Y-92911670D01*
X111089962Y-92920849D01*
X111069750Y-92928081D01*
X111048926Y-92933297D01*
X111027691Y-92936447D01*
X111006250Y-92937500D01*
X110493750Y-92937500D01*
X110472309Y-92936447D01*
X110451074Y-92933297D01*
X110430250Y-92928081D01*
X110410038Y-92920849D01*
X110390632Y-92911670D01*
X110372219Y-92900634D01*
X110354976Y-92887846D01*
X110339070Y-92873430D01*
X110324654Y-92857524D01*
X110311866Y-92840281D01*
X110300830Y-92821868D01*
X110291651Y-92802462D01*
X110284419Y-92782250D01*
X110279203Y-92761426D01*
X110276053Y-92740191D01*
X110275000Y-92718750D01*
X110275000Y-92281250D01*
X110276053Y-92259809D01*
X110279203Y-92238574D01*
X110284419Y-92217750D01*
X110291651Y-92197538D01*
X110300830Y-92178132D01*
X110311866Y-92159719D01*
X110324654Y-92142476D01*
X110339070Y-92126570D01*
X110354976Y-92112154D01*
X110372219Y-92099366D01*
X110390632Y-92088330D01*
X110410038Y-92079151D01*
X110430250Y-92071919D01*
X110451074Y-92066703D01*
X110472309Y-92063553D01*
X110493750Y-92062500D01*
X111006250Y-92062500D01*
X111027691Y-92063553D01*
X111027691Y-92063553D01*
G37*
D13*
X110750000Y-92500000D03*
D12*
G36*
X111027691Y-90488553D02*
G01*
X111048926Y-90491703D01*
X111069750Y-90496919D01*
X111089962Y-90504151D01*
X111109368Y-90513330D01*
X111127781Y-90524366D01*
X111145024Y-90537154D01*
X111160930Y-90551570D01*
X111175346Y-90567476D01*
X111188134Y-90584719D01*
X111199170Y-90603132D01*
X111208349Y-90622538D01*
X111215581Y-90642750D01*
X111220797Y-90663574D01*
X111223947Y-90684809D01*
X111225000Y-90706250D01*
X111225000Y-91143750D01*
X111223947Y-91165191D01*
X111220797Y-91186426D01*
X111215581Y-91207250D01*
X111208349Y-91227462D01*
X111199170Y-91246868D01*
X111188134Y-91265281D01*
X111175346Y-91282524D01*
X111160930Y-91298430D01*
X111145024Y-91312846D01*
X111127781Y-91325634D01*
X111109368Y-91336670D01*
X111089962Y-91345849D01*
X111069750Y-91353081D01*
X111048926Y-91358297D01*
X111027691Y-91361447D01*
X111006250Y-91362500D01*
X110493750Y-91362500D01*
X110472309Y-91361447D01*
X110451074Y-91358297D01*
X110430250Y-91353081D01*
X110410038Y-91345849D01*
X110390632Y-91336670D01*
X110372219Y-91325634D01*
X110354976Y-91312846D01*
X110339070Y-91298430D01*
X110324654Y-91282524D01*
X110311866Y-91265281D01*
X110300830Y-91246868D01*
X110291651Y-91227462D01*
X110284419Y-91207250D01*
X110279203Y-91186426D01*
X110276053Y-91165191D01*
X110275000Y-91143750D01*
X110275000Y-90706250D01*
X110276053Y-90684809D01*
X110279203Y-90663574D01*
X110284419Y-90642750D01*
X110291651Y-90622538D01*
X110300830Y-90603132D01*
X110311866Y-90584719D01*
X110324654Y-90567476D01*
X110339070Y-90551570D01*
X110354976Y-90537154D01*
X110372219Y-90524366D01*
X110390632Y-90513330D01*
X110410038Y-90504151D01*
X110430250Y-90496919D01*
X110451074Y-90491703D01*
X110472309Y-90488553D01*
X110493750Y-90487500D01*
X111006250Y-90487500D01*
X111027691Y-90488553D01*
X111027691Y-90488553D01*
G37*
D13*
X110750000Y-90925000D03*
D12*
G36*
X104240191Y-85776053D02*
G01*
X104261426Y-85779203D01*
X104282250Y-85784419D01*
X104302462Y-85791651D01*
X104321868Y-85800830D01*
X104340281Y-85811866D01*
X104357524Y-85824654D01*
X104373430Y-85839070D01*
X104387846Y-85854976D01*
X104400634Y-85872219D01*
X104411670Y-85890632D01*
X104420849Y-85910038D01*
X104428081Y-85930250D01*
X104433297Y-85951074D01*
X104436447Y-85972309D01*
X104437500Y-85993750D01*
X104437500Y-86506250D01*
X104436447Y-86527691D01*
X104433297Y-86548926D01*
X104428081Y-86569750D01*
X104420849Y-86589962D01*
X104411670Y-86609368D01*
X104400634Y-86627781D01*
X104387846Y-86645024D01*
X104373430Y-86660930D01*
X104357524Y-86675346D01*
X104340281Y-86688134D01*
X104321868Y-86699170D01*
X104302462Y-86708349D01*
X104282250Y-86715581D01*
X104261426Y-86720797D01*
X104240191Y-86723947D01*
X104218750Y-86725000D01*
X103781250Y-86725000D01*
X103759809Y-86723947D01*
X103738574Y-86720797D01*
X103717750Y-86715581D01*
X103697538Y-86708349D01*
X103678132Y-86699170D01*
X103659719Y-86688134D01*
X103642476Y-86675346D01*
X103626570Y-86660930D01*
X103612154Y-86645024D01*
X103599366Y-86627781D01*
X103588330Y-86609368D01*
X103579151Y-86589962D01*
X103571919Y-86569750D01*
X103566703Y-86548926D01*
X103563553Y-86527691D01*
X103562500Y-86506250D01*
X103562500Y-85993750D01*
X103563553Y-85972309D01*
X103566703Y-85951074D01*
X103571919Y-85930250D01*
X103579151Y-85910038D01*
X103588330Y-85890632D01*
X103599366Y-85872219D01*
X103612154Y-85854976D01*
X103626570Y-85839070D01*
X103642476Y-85824654D01*
X103659719Y-85811866D01*
X103678132Y-85800830D01*
X103697538Y-85791651D01*
X103717750Y-85784419D01*
X103738574Y-85779203D01*
X103759809Y-85776053D01*
X103781250Y-85775000D01*
X104218750Y-85775000D01*
X104240191Y-85776053D01*
X104240191Y-85776053D01*
G37*
D13*
X104000000Y-86250000D03*
D12*
G36*
X105815191Y-85776053D02*
G01*
X105836426Y-85779203D01*
X105857250Y-85784419D01*
X105877462Y-85791651D01*
X105896868Y-85800830D01*
X105915281Y-85811866D01*
X105932524Y-85824654D01*
X105948430Y-85839070D01*
X105962846Y-85854976D01*
X105975634Y-85872219D01*
X105986670Y-85890632D01*
X105995849Y-85910038D01*
X106003081Y-85930250D01*
X106008297Y-85951074D01*
X106011447Y-85972309D01*
X106012500Y-85993750D01*
X106012500Y-86506250D01*
X106011447Y-86527691D01*
X106008297Y-86548926D01*
X106003081Y-86569750D01*
X105995849Y-86589962D01*
X105986670Y-86609368D01*
X105975634Y-86627781D01*
X105962846Y-86645024D01*
X105948430Y-86660930D01*
X105932524Y-86675346D01*
X105915281Y-86688134D01*
X105896868Y-86699170D01*
X105877462Y-86708349D01*
X105857250Y-86715581D01*
X105836426Y-86720797D01*
X105815191Y-86723947D01*
X105793750Y-86725000D01*
X105356250Y-86725000D01*
X105334809Y-86723947D01*
X105313574Y-86720797D01*
X105292750Y-86715581D01*
X105272538Y-86708349D01*
X105253132Y-86699170D01*
X105234719Y-86688134D01*
X105217476Y-86675346D01*
X105201570Y-86660930D01*
X105187154Y-86645024D01*
X105174366Y-86627781D01*
X105163330Y-86609368D01*
X105154151Y-86589962D01*
X105146919Y-86569750D01*
X105141703Y-86548926D01*
X105138553Y-86527691D01*
X105137500Y-86506250D01*
X105137500Y-85993750D01*
X105138553Y-85972309D01*
X105141703Y-85951074D01*
X105146919Y-85930250D01*
X105154151Y-85910038D01*
X105163330Y-85890632D01*
X105174366Y-85872219D01*
X105187154Y-85854976D01*
X105201570Y-85839070D01*
X105217476Y-85824654D01*
X105234719Y-85811866D01*
X105253132Y-85800830D01*
X105272538Y-85791651D01*
X105292750Y-85784419D01*
X105313574Y-85779203D01*
X105334809Y-85776053D01*
X105356250Y-85775000D01*
X105793750Y-85775000D01*
X105815191Y-85776053D01*
X105815191Y-85776053D01*
G37*
D13*
X105575000Y-86250000D03*
D12*
G36*
X105777691Y-83776053D02*
G01*
X105798926Y-83779203D01*
X105819750Y-83784419D01*
X105839962Y-83791651D01*
X105859368Y-83800830D01*
X105877781Y-83811866D01*
X105895024Y-83824654D01*
X105910930Y-83839070D01*
X105925346Y-83854976D01*
X105938134Y-83872219D01*
X105949170Y-83890632D01*
X105958349Y-83910038D01*
X105965581Y-83930250D01*
X105970797Y-83951074D01*
X105973947Y-83972309D01*
X105975000Y-83993750D01*
X105975000Y-84506250D01*
X105973947Y-84527691D01*
X105970797Y-84548926D01*
X105965581Y-84569750D01*
X105958349Y-84589962D01*
X105949170Y-84609368D01*
X105938134Y-84627781D01*
X105925346Y-84645024D01*
X105910930Y-84660930D01*
X105895024Y-84675346D01*
X105877781Y-84688134D01*
X105859368Y-84699170D01*
X105839962Y-84708349D01*
X105819750Y-84715581D01*
X105798926Y-84720797D01*
X105777691Y-84723947D01*
X105756250Y-84725000D01*
X105318750Y-84725000D01*
X105297309Y-84723947D01*
X105276074Y-84720797D01*
X105255250Y-84715581D01*
X105235038Y-84708349D01*
X105215632Y-84699170D01*
X105197219Y-84688134D01*
X105179976Y-84675346D01*
X105164070Y-84660930D01*
X105149654Y-84645024D01*
X105136866Y-84627781D01*
X105125830Y-84609368D01*
X105116651Y-84589962D01*
X105109419Y-84569750D01*
X105104203Y-84548926D01*
X105101053Y-84527691D01*
X105100000Y-84506250D01*
X105100000Y-83993750D01*
X105101053Y-83972309D01*
X105104203Y-83951074D01*
X105109419Y-83930250D01*
X105116651Y-83910038D01*
X105125830Y-83890632D01*
X105136866Y-83872219D01*
X105149654Y-83854976D01*
X105164070Y-83839070D01*
X105179976Y-83824654D01*
X105197219Y-83811866D01*
X105215632Y-83800830D01*
X105235038Y-83791651D01*
X105255250Y-83784419D01*
X105276074Y-83779203D01*
X105297309Y-83776053D01*
X105318750Y-83775000D01*
X105756250Y-83775000D01*
X105777691Y-83776053D01*
X105777691Y-83776053D01*
G37*
D13*
X105537500Y-84250000D03*
D12*
G36*
X104202691Y-83776053D02*
G01*
X104223926Y-83779203D01*
X104244750Y-83784419D01*
X104264962Y-83791651D01*
X104284368Y-83800830D01*
X104302781Y-83811866D01*
X104320024Y-83824654D01*
X104335930Y-83839070D01*
X104350346Y-83854976D01*
X104363134Y-83872219D01*
X104374170Y-83890632D01*
X104383349Y-83910038D01*
X104390581Y-83930250D01*
X104395797Y-83951074D01*
X104398947Y-83972309D01*
X104400000Y-83993750D01*
X104400000Y-84506250D01*
X104398947Y-84527691D01*
X104395797Y-84548926D01*
X104390581Y-84569750D01*
X104383349Y-84589962D01*
X104374170Y-84609368D01*
X104363134Y-84627781D01*
X104350346Y-84645024D01*
X104335930Y-84660930D01*
X104320024Y-84675346D01*
X104302781Y-84688134D01*
X104284368Y-84699170D01*
X104264962Y-84708349D01*
X104244750Y-84715581D01*
X104223926Y-84720797D01*
X104202691Y-84723947D01*
X104181250Y-84725000D01*
X103743750Y-84725000D01*
X103722309Y-84723947D01*
X103701074Y-84720797D01*
X103680250Y-84715581D01*
X103660038Y-84708349D01*
X103640632Y-84699170D01*
X103622219Y-84688134D01*
X103604976Y-84675346D01*
X103589070Y-84660930D01*
X103574654Y-84645024D01*
X103561866Y-84627781D01*
X103550830Y-84609368D01*
X103541651Y-84589962D01*
X103534419Y-84569750D01*
X103529203Y-84548926D01*
X103526053Y-84527691D01*
X103525000Y-84506250D01*
X103525000Y-83993750D01*
X103526053Y-83972309D01*
X103529203Y-83951074D01*
X103534419Y-83930250D01*
X103541651Y-83910038D01*
X103550830Y-83890632D01*
X103561866Y-83872219D01*
X103574654Y-83854976D01*
X103589070Y-83839070D01*
X103604976Y-83824654D01*
X103622219Y-83811866D01*
X103640632Y-83800830D01*
X103660038Y-83791651D01*
X103680250Y-83784419D01*
X103701074Y-83779203D01*
X103722309Y-83776053D01*
X103743750Y-83775000D01*
X104181250Y-83775000D01*
X104202691Y-83776053D01*
X104202691Y-83776053D01*
G37*
D13*
X103962500Y-84250000D03*
D12*
G36*
X105740191Y-81776053D02*
G01*
X105761426Y-81779203D01*
X105782250Y-81784419D01*
X105802462Y-81791651D01*
X105821868Y-81800830D01*
X105840281Y-81811866D01*
X105857524Y-81824654D01*
X105873430Y-81839070D01*
X105887846Y-81854976D01*
X105900634Y-81872219D01*
X105911670Y-81890632D01*
X105920849Y-81910038D01*
X105928081Y-81930250D01*
X105933297Y-81951074D01*
X105936447Y-81972309D01*
X105937500Y-81993750D01*
X105937500Y-82506250D01*
X105936447Y-82527691D01*
X105933297Y-82548926D01*
X105928081Y-82569750D01*
X105920849Y-82589962D01*
X105911670Y-82609368D01*
X105900634Y-82627781D01*
X105887846Y-82645024D01*
X105873430Y-82660930D01*
X105857524Y-82675346D01*
X105840281Y-82688134D01*
X105821868Y-82699170D01*
X105802462Y-82708349D01*
X105782250Y-82715581D01*
X105761426Y-82720797D01*
X105740191Y-82723947D01*
X105718750Y-82725000D01*
X105281250Y-82725000D01*
X105259809Y-82723947D01*
X105238574Y-82720797D01*
X105217750Y-82715581D01*
X105197538Y-82708349D01*
X105178132Y-82699170D01*
X105159719Y-82688134D01*
X105142476Y-82675346D01*
X105126570Y-82660930D01*
X105112154Y-82645024D01*
X105099366Y-82627781D01*
X105088330Y-82609368D01*
X105079151Y-82589962D01*
X105071919Y-82569750D01*
X105066703Y-82548926D01*
X105063553Y-82527691D01*
X105062500Y-82506250D01*
X105062500Y-81993750D01*
X105063553Y-81972309D01*
X105066703Y-81951074D01*
X105071919Y-81930250D01*
X105079151Y-81910038D01*
X105088330Y-81890632D01*
X105099366Y-81872219D01*
X105112154Y-81854976D01*
X105126570Y-81839070D01*
X105142476Y-81824654D01*
X105159719Y-81811866D01*
X105178132Y-81800830D01*
X105197538Y-81791651D01*
X105217750Y-81784419D01*
X105238574Y-81779203D01*
X105259809Y-81776053D01*
X105281250Y-81775000D01*
X105718750Y-81775000D01*
X105740191Y-81776053D01*
X105740191Y-81776053D01*
G37*
D13*
X105500000Y-82250000D03*
D12*
G36*
X104165191Y-81776053D02*
G01*
X104186426Y-81779203D01*
X104207250Y-81784419D01*
X104227462Y-81791651D01*
X104246868Y-81800830D01*
X104265281Y-81811866D01*
X104282524Y-81824654D01*
X104298430Y-81839070D01*
X104312846Y-81854976D01*
X104325634Y-81872219D01*
X104336670Y-81890632D01*
X104345849Y-81910038D01*
X104353081Y-81930250D01*
X104358297Y-81951074D01*
X104361447Y-81972309D01*
X104362500Y-81993750D01*
X104362500Y-82506250D01*
X104361447Y-82527691D01*
X104358297Y-82548926D01*
X104353081Y-82569750D01*
X104345849Y-82589962D01*
X104336670Y-82609368D01*
X104325634Y-82627781D01*
X104312846Y-82645024D01*
X104298430Y-82660930D01*
X104282524Y-82675346D01*
X104265281Y-82688134D01*
X104246868Y-82699170D01*
X104227462Y-82708349D01*
X104207250Y-82715581D01*
X104186426Y-82720797D01*
X104165191Y-82723947D01*
X104143750Y-82725000D01*
X103706250Y-82725000D01*
X103684809Y-82723947D01*
X103663574Y-82720797D01*
X103642750Y-82715581D01*
X103622538Y-82708349D01*
X103603132Y-82699170D01*
X103584719Y-82688134D01*
X103567476Y-82675346D01*
X103551570Y-82660930D01*
X103537154Y-82645024D01*
X103524366Y-82627781D01*
X103513330Y-82609368D01*
X103504151Y-82589962D01*
X103496919Y-82569750D01*
X103491703Y-82548926D01*
X103488553Y-82527691D01*
X103487500Y-82506250D01*
X103487500Y-81993750D01*
X103488553Y-81972309D01*
X103491703Y-81951074D01*
X103496919Y-81930250D01*
X103504151Y-81910038D01*
X103513330Y-81890632D01*
X103524366Y-81872219D01*
X103537154Y-81854976D01*
X103551570Y-81839070D01*
X103567476Y-81824654D01*
X103584719Y-81811866D01*
X103603132Y-81800830D01*
X103622538Y-81791651D01*
X103642750Y-81784419D01*
X103663574Y-81779203D01*
X103684809Y-81776053D01*
X103706250Y-81775000D01*
X104143750Y-81775000D01*
X104165191Y-81776053D01*
X104165191Y-81776053D01*
G37*
D13*
X103925000Y-82250000D03*
D12*
G36*
X105777691Y-79776053D02*
G01*
X105798926Y-79779203D01*
X105819750Y-79784419D01*
X105839962Y-79791651D01*
X105859368Y-79800830D01*
X105877781Y-79811866D01*
X105895024Y-79824654D01*
X105910930Y-79839070D01*
X105925346Y-79854976D01*
X105938134Y-79872219D01*
X105949170Y-79890632D01*
X105958349Y-79910038D01*
X105965581Y-79930250D01*
X105970797Y-79951074D01*
X105973947Y-79972309D01*
X105975000Y-79993750D01*
X105975000Y-80506250D01*
X105973947Y-80527691D01*
X105970797Y-80548926D01*
X105965581Y-80569750D01*
X105958349Y-80589962D01*
X105949170Y-80609368D01*
X105938134Y-80627781D01*
X105925346Y-80645024D01*
X105910930Y-80660930D01*
X105895024Y-80675346D01*
X105877781Y-80688134D01*
X105859368Y-80699170D01*
X105839962Y-80708349D01*
X105819750Y-80715581D01*
X105798926Y-80720797D01*
X105777691Y-80723947D01*
X105756250Y-80725000D01*
X105318750Y-80725000D01*
X105297309Y-80723947D01*
X105276074Y-80720797D01*
X105255250Y-80715581D01*
X105235038Y-80708349D01*
X105215632Y-80699170D01*
X105197219Y-80688134D01*
X105179976Y-80675346D01*
X105164070Y-80660930D01*
X105149654Y-80645024D01*
X105136866Y-80627781D01*
X105125830Y-80609368D01*
X105116651Y-80589962D01*
X105109419Y-80569750D01*
X105104203Y-80548926D01*
X105101053Y-80527691D01*
X105100000Y-80506250D01*
X105100000Y-79993750D01*
X105101053Y-79972309D01*
X105104203Y-79951074D01*
X105109419Y-79930250D01*
X105116651Y-79910038D01*
X105125830Y-79890632D01*
X105136866Y-79872219D01*
X105149654Y-79854976D01*
X105164070Y-79839070D01*
X105179976Y-79824654D01*
X105197219Y-79811866D01*
X105215632Y-79800830D01*
X105235038Y-79791651D01*
X105255250Y-79784419D01*
X105276074Y-79779203D01*
X105297309Y-79776053D01*
X105318750Y-79775000D01*
X105756250Y-79775000D01*
X105777691Y-79776053D01*
X105777691Y-79776053D01*
G37*
D13*
X105537500Y-80250000D03*
D12*
G36*
X104202691Y-79776053D02*
G01*
X104223926Y-79779203D01*
X104244750Y-79784419D01*
X104264962Y-79791651D01*
X104284368Y-79800830D01*
X104302781Y-79811866D01*
X104320024Y-79824654D01*
X104335930Y-79839070D01*
X104350346Y-79854976D01*
X104363134Y-79872219D01*
X104374170Y-79890632D01*
X104383349Y-79910038D01*
X104390581Y-79930250D01*
X104395797Y-79951074D01*
X104398947Y-79972309D01*
X104400000Y-79993750D01*
X104400000Y-80506250D01*
X104398947Y-80527691D01*
X104395797Y-80548926D01*
X104390581Y-80569750D01*
X104383349Y-80589962D01*
X104374170Y-80609368D01*
X104363134Y-80627781D01*
X104350346Y-80645024D01*
X104335930Y-80660930D01*
X104320024Y-80675346D01*
X104302781Y-80688134D01*
X104284368Y-80699170D01*
X104264962Y-80708349D01*
X104244750Y-80715581D01*
X104223926Y-80720797D01*
X104202691Y-80723947D01*
X104181250Y-80725000D01*
X103743750Y-80725000D01*
X103722309Y-80723947D01*
X103701074Y-80720797D01*
X103680250Y-80715581D01*
X103660038Y-80708349D01*
X103640632Y-80699170D01*
X103622219Y-80688134D01*
X103604976Y-80675346D01*
X103589070Y-80660930D01*
X103574654Y-80645024D01*
X103561866Y-80627781D01*
X103550830Y-80609368D01*
X103541651Y-80589962D01*
X103534419Y-80569750D01*
X103529203Y-80548926D01*
X103526053Y-80527691D01*
X103525000Y-80506250D01*
X103525000Y-79993750D01*
X103526053Y-79972309D01*
X103529203Y-79951074D01*
X103534419Y-79930250D01*
X103541651Y-79910038D01*
X103550830Y-79890632D01*
X103561866Y-79872219D01*
X103574654Y-79854976D01*
X103589070Y-79839070D01*
X103604976Y-79824654D01*
X103622219Y-79811866D01*
X103640632Y-79800830D01*
X103660038Y-79791651D01*
X103680250Y-79784419D01*
X103701074Y-79779203D01*
X103722309Y-79776053D01*
X103743750Y-79775000D01*
X104181250Y-79775000D01*
X104202691Y-79776053D01*
X104202691Y-79776053D01*
G37*
D13*
X103962500Y-80250000D03*
D12*
G36*
X105777691Y-77526053D02*
G01*
X105798926Y-77529203D01*
X105819750Y-77534419D01*
X105839962Y-77541651D01*
X105859368Y-77550830D01*
X105877781Y-77561866D01*
X105895024Y-77574654D01*
X105910930Y-77589070D01*
X105925346Y-77604976D01*
X105938134Y-77622219D01*
X105949170Y-77640632D01*
X105958349Y-77660038D01*
X105965581Y-77680250D01*
X105970797Y-77701074D01*
X105973947Y-77722309D01*
X105975000Y-77743750D01*
X105975000Y-78256250D01*
X105973947Y-78277691D01*
X105970797Y-78298926D01*
X105965581Y-78319750D01*
X105958349Y-78339962D01*
X105949170Y-78359368D01*
X105938134Y-78377781D01*
X105925346Y-78395024D01*
X105910930Y-78410930D01*
X105895024Y-78425346D01*
X105877781Y-78438134D01*
X105859368Y-78449170D01*
X105839962Y-78458349D01*
X105819750Y-78465581D01*
X105798926Y-78470797D01*
X105777691Y-78473947D01*
X105756250Y-78475000D01*
X105318750Y-78475000D01*
X105297309Y-78473947D01*
X105276074Y-78470797D01*
X105255250Y-78465581D01*
X105235038Y-78458349D01*
X105215632Y-78449170D01*
X105197219Y-78438134D01*
X105179976Y-78425346D01*
X105164070Y-78410930D01*
X105149654Y-78395024D01*
X105136866Y-78377781D01*
X105125830Y-78359368D01*
X105116651Y-78339962D01*
X105109419Y-78319750D01*
X105104203Y-78298926D01*
X105101053Y-78277691D01*
X105100000Y-78256250D01*
X105100000Y-77743750D01*
X105101053Y-77722309D01*
X105104203Y-77701074D01*
X105109419Y-77680250D01*
X105116651Y-77660038D01*
X105125830Y-77640632D01*
X105136866Y-77622219D01*
X105149654Y-77604976D01*
X105164070Y-77589070D01*
X105179976Y-77574654D01*
X105197219Y-77561866D01*
X105215632Y-77550830D01*
X105235038Y-77541651D01*
X105255250Y-77534419D01*
X105276074Y-77529203D01*
X105297309Y-77526053D01*
X105318750Y-77525000D01*
X105756250Y-77525000D01*
X105777691Y-77526053D01*
X105777691Y-77526053D01*
G37*
D13*
X105537500Y-78000000D03*
D12*
G36*
X104202691Y-77526053D02*
G01*
X104223926Y-77529203D01*
X104244750Y-77534419D01*
X104264962Y-77541651D01*
X104284368Y-77550830D01*
X104302781Y-77561866D01*
X104320024Y-77574654D01*
X104335930Y-77589070D01*
X104350346Y-77604976D01*
X104363134Y-77622219D01*
X104374170Y-77640632D01*
X104383349Y-77660038D01*
X104390581Y-77680250D01*
X104395797Y-77701074D01*
X104398947Y-77722309D01*
X104400000Y-77743750D01*
X104400000Y-78256250D01*
X104398947Y-78277691D01*
X104395797Y-78298926D01*
X104390581Y-78319750D01*
X104383349Y-78339962D01*
X104374170Y-78359368D01*
X104363134Y-78377781D01*
X104350346Y-78395024D01*
X104335930Y-78410930D01*
X104320024Y-78425346D01*
X104302781Y-78438134D01*
X104284368Y-78449170D01*
X104264962Y-78458349D01*
X104244750Y-78465581D01*
X104223926Y-78470797D01*
X104202691Y-78473947D01*
X104181250Y-78475000D01*
X103743750Y-78475000D01*
X103722309Y-78473947D01*
X103701074Y-78470797D01*
X103680250Y-78465581D01*
X103660038Y-78458349D01*
X103640632Y-78449170D01*
X103622219Y-78438134D01*
X103604976Y-78425346D01*
X103589070Y-78410930D01*
X103574654Y-78395024D01*
X103561866Y-78377781D01*
X103550830Y-78359368D01*
X103541651Y-78339962D01*
X103534419Y-78319750D01*
X103529203Y-78298926D01*
X103526053Y-78277691D01*
X103525000Y-78256250D01*
X103525000Y-77743750D01*
X103526053Y-77722309D01*
X103529203Y-77701074D01*
X103534419Y-77680250D01*
X103541651Y-77660038D01*
X103550830Y-77640632D01*
X103561866Y-77622219D01*
X103574654Y-77604976D01*
X103589070Y-77589070D01*
X103604976Y-77574654D01*
X103622219Y-77561866D01*
X103640632Y-77550830D01*
X103660038Y-77541651D01*
X103680250Y-77534419D01*
X103701074Y-77529203D01*
X103722309Y-77526053D01*
X103743750Y-77525000D01*
X104181250Y-77525000D01*
X104202691Y-77526053D01*
X104202691Y-77526053D01*
G37*
D13*
X103962500Y-78000000D03*
D12*
G36*
X105740191Y-75526053D02*
G01*
X105761426Y-75529203D01*
X105782250Y-75534419D01*
X105802462Y-75541651D01*
X105821868Y-75550830D01*
X105840281Y-75561866D01*
X105857524Y-75574654D01*
X105873430Y-75589070D01*
X105887846Y-75604976D01*
X105900634Y-75622219D01*
X105911670Y-75640632D01*
X105920849Y-75660038D01*
X105928081Y-75680250D01*
X105933297Y-75701074D01*
X105936447Y-75722309D01*
X105937500Y-75743750D01*
X105937500Y-76256250D01*
X105936447Y-76277691D01*
X105933297Y-76298926D01*
X105928081Y-76319750D01*
X105920849Y-76339962D01*
X105911670Y-76359368D01*
X105900634Y-76377781D01*
X105887846Y-76395024D01*
X105873430Y-76410930D01*
X105857524Y-76425346D01*
X105840281Y-76438134D01*
X105821868Y-76449170D01*
X105802462Y-76458349D01*
X105782250Y-76465581D01*
X105761426Y-76470797D01*
X105740191Y-76473947D01*
X105718750Y-76475000D01*
X105281250Y-76475000D01*
X105259809Y-76473947D01*
X105238574Y-76470797D01*
X105217750Y-76465581D01*
X105197538Y-76458349D01*
X105178132Y-76449170D01*
X105159719Y-76438134D01*
X105142476Y-76425346D01*
X105126570Y-76410930D01*
X105112154Y-76395024D01*
X105099366Y-76377781D01*
X105088330Y-76359368D01*
X105079151Y-76339962D01*
X105071919Y-76319750D01*
X105066703Y-76298926D01*
X105063553Y-76277691D01*
X105062500Y-76256250D01*
X105062500Y-75743750D01*
X105063553Y-75722309D01*
X105066703Y-75701074D01*
X105071919Y-75680250D01*
X105079151Y-75660038D01*
X105088330Y-75640632D01*
X105099366Y-75622219D01*
X105112154Y-75604976D01*
X105126570Y-75589070D01*
X105142476Y-75574654D01*
X105159719Y-75561866D01*
X105178132Y-75550830D01*
X105197538Y-75541651D01*
X105217750Y-75534419D01*
X105238574Y-75529203D01*
X105259809Y-75526053D01*
X105281250Y-75525000D01*
X105718750Y-75525000D01*
X105740191Y-75526053D01*
X105740191Y-75526053D01*
G37*
D13*
X105500000Y-76000000D03*
D12*
G36*
X104165191Y-75526053D02*
G01*
X104186426Y-75529203D01*
X104207250Y-75534419D01*
X104227462Y-75541651D01*
X104246868Y-75550830D01*
X104265281Y-75561866D01*
X104282524Y-75574654D01*
X104298430Y-75589070D01*
X104312846Y-75604976D01*
X104325634Y-75622219D01*
X104336670Y-75640632D01*
X104345849Y-75660038D01*
X104353081Y-75680250D01*
X104358297Y-75701074D01*
X104361447Y-75722309D01*
X104362500Y-75743750D01*
X104362500Y-76256250D01*
X104361447Y-76277691D01*
X104358297Y-76298926D01*
X104353081Y-76319750D01*
X104345849Y-76339962D01*
X104336670Y-76359368D01*
X104325634Y-76377781D01*
X104312846Y-76395024D01*
X104298430Y-76410930D01*
X104282524Y-76425346D01*
X104265281Y-76438134D01*
X104246868Y-76449170D01*
X104227462Y-76458349D01*
X104207250Y-76465581D01*
X104186426Y-76470797D01*
X104165191Y-76473947D01*
X104143750Y-76475000D01*
X103706250Y-76475000D01*
X103684809Y-76473947D01*
X103663574Y-76470797D01*
X103642750Y-76465581D01*
X103622538Y-76458349D01*
X103603132Y-76449170D01*
X103584719Y-76438134D01*
X103567476Y-76425346D01*
X103551570Y-76410930D01*
X103537154Y-76395024D01*
X103524366Y-76377781D01*
X103513330Y-76359368D01*
X103504151Y-76339962D01*
X103496919Y-76319750D01*
X103491703Y-76298926D01*
X103488553Y-76277691D01*
X103487500Y-76256250D01*
X103487500Y-75743750D01*
X103488553Y-75722309D01*
X103491703Y-75701074D01*
X103496919Y-75680250D01*
X103504151Y-75660038D01*
X103513330Y-75640632D01*
X103524366Y-75622219D01*
X103537154Y-75604976D01*
X103551570Y-75589070D01*
X103567476Y-75574654D01*
X103584719Y-75561866D01*
X103603132Y-75550830D01*
X103622538Y-75541651D01*
X103642750Y-75534419D01*
X103663574Y-75529203D01*
X103684809Y-75526053D01*
X103706250Y-75525000D01*
X104143750Y-75525000D01*
X104165191Y-75526053D01*
X104165191Y-75526053D01*
G37*
D13*
X103925000Y-76000000D03*
D12*
G36*
X105777691Y-73276053D02*
G01*
X105798926Y-73279203D01*
X105819750Y-73284419D01*
X105839962Y-73291651D01*
X105859368Y-73300830D01*
X105877781Y-73311866D01*
X105895024Y-73324654D01*
X105910930Y-73339070D01*
X105925346Y-73354976D01*
X105938134Y-73372219D01*
X105949170Y-73390632D01*
X105958349Y-73410038D01*
X105965581Y-73430250D01*
X105970797Y-73451074D01*
X105973947Y-73472309D01*
X105975000Y-73493750D01*
X105975000Y-74006250D01*
X105973947Y-74027691D01*
X105970797Y-74048926D01*
X105965581Y-74069750D01*
X105958349Y-74089962D01*
X105949170Y-74109368D01*
X105938134Y-74127781D01*
X105925346Y-74145024D01*
X105910930Y-74160930D01*
X105895024Y-74175346D01*
X105877781Y-74188134D01*
X105859368Y-74199170D01*
X105839962Y-74208349D01*
X105819750Y-74215581D01*
X105798926Y-74220797D01*
X105777691Y-74223947D01*
X105756250Y-74225000D01*
X105318750Y-74225000D01*
X105297309Y-74223947D01*
X105276074Y-74220797D01*
X105255250Y-74215581D01*
X105235038Y-74208349D01*
X105215632Y-74199170D01*
X105197219Y-74188134D01*
X105179976Y-74175346D01*
X105164070Y-74160930D01*
X105149654Y-74145024D01*
X105136866Y-74127781D01*
X105125830Y-74109368D01*
X105116651Y-74089962D01*
X105109419Y-74069750D01*
X105104203Y-74048926D01*
X105101053Y-74027691D01*
X105100000Y-74006250D01*
X105100000Y-73493750D01*
X105101053Y-73472309D01*
X105104203Y-73451074D01*
X105109419Y-73430250D01*
X105116651Y-73410038D01*
X105125830Y-73390632D01*
X105136866Y-73372219D01*
X105149654Y-73354976D01*
X105164070Y-73339070D01*
X105179976Y-73324654D01*
X105197219Y-73311866D01*
X105215632Y-73300830D01*
X105235038Y-73291651D01*
X105255250Y-73284419D01*
X105276074Y-73279203D01*
X105297309Y-73276053D01*
X105318750Y-73275000D01*
X105756250Y-73275000D01*
X105777691Y-73276053D01*
X105777691Y-73276053D01*
G37*
D13*
X105537500Y-73750000D03*
D12*
G36*
X104202691Y-73276053D02*
G01*
X104223926Y-73279203D01*
X104244750Y-73284419D01*
X104264962Y-73291651D01*
X104284368Y-73300830D01*
X104302781Y-73311866D01*
X104320024Y-73324654D01*
X104335930Y-73339070D01*
X104350346Y-73354976D01*
X104363134Y-73372219D01*
X104374170Y-73390632D01*
X104383349Y-73410038D01*
X104390581Y-73430250D01*
X104395797Y-73451074D01*
X104398947Y-73472309D01*
X104400000Y-73493750D01*
X104400000Y-74006250D01*
X104398947Y-74027691D01*
X104395797Y-74048926D01*
X104390581Y-74069750D01*
X104383349Y-74089962D01*
X104374170Y-74109368D01*
X104363134Y-74127781D01*
X104350346Y-74145024D01*
X104335930Y-74160930D01*
X104320024Y-74175346D01*
X104302781Y-74188134D01*
X104284368Y-74199170D01*
X104264962Y-74208349D01*
X104244750Y-74215581D01*
X104223926Y-74220797D01*
X104202691Y-74223947D01*
X104181250Y-74225000D01*
X103743750Y-74225000D01*
X103722309Y-74223947D01*
X103701074Y-74220797D01*
X103680250Y-74215581D01*
X103660038Y-74208349D01*
X103640632Y-74199170D01*
X103622219Y-74188134D01*
X103604976Y-74175346D01*
X103589070Y-74160930D01*
X103574654Y-74145024D01*
X103561866Y-74127781D01*
X103550830Y-74109368D01*
X103541651Y-74089962D01*
X103534419Y-74069750D01*
X103529203Y-74048926D01*
X103526053Y-74027691D01*
X103525000Y-74006250D01*
X103525000Y-73493750D01*
X103526053Y-73472309D01*
X103529203Y-73451074D01*
X103534419Y-73430250D01*
X103541651Y-73410038D01*
X103550830Y-73390632D01*
X103561866Y-73372219D01*
X103574654Y-73354976D01*
X103589070Y-73339070D01*
X103604976Y-73324654D01*
X103622219Y-73311866D01*
X103640632Y-73300830D01*
X103660038Y-73291651D01*
X103680250Y-73284419D01*
X103701074Y-73279203D01*
X103722309Y-73276053D01*
X103743750Y-73275000D01*
X104181250Y-73275000D01*
X104202691Y-73276053D01*
X104202691Y-73276053D01*
G37*
D13*
X103962500Y-73750000D03*
D12*
G36*
X105777691Y-71526053D02*
G01*
X105798926Y-71529203D01*
X105819750Y-71534419D01*
X105839962Y-71541651D01*
X105859368Y-71550830D01*
X105877781Y-71561866D01*
X105895024Y-71574654D01*
X105910930Y-71589070D01*
X105925346Y-71604976D01*
X105938134Y-71622219D01*
X105949170Y-71640632D01*
X105958349Y-71660038D01*
X105965581Y-71680250D01*
X105970797Y-71701074D01*
X105973947Y-71722309D01*
X105975000Y-71743750D01*
X105975000Y-72256250D01*
X105973947Y-72277691D01*
X105970797Y-72298926D01*
X105965581Y-72319750D01*
X105958349Y-72339962D01*
X105949170Y-72359368D01*
X105938134Y-72377781D01*
X105925346Y-72395024D01*
X105910930Y-72410930D01*
X105895024Y-72425346D01*
X105877781Y-72438134D01*
X105859368Y-72449170D01*
X105839962Y-72458349D01*
X105819750Y-72465581D01*
X105798926Y-72470797D01*
X105777691Y-72473947D01*
X105756250Y-72475000D01*
X105318750Y-72475000D01*
X105297309Y-72473947D01*
X105276074Y-72470797D01*
X105255250Y-72465581D01*
X105235038Y-72458349D01*
X105215632Y-72449170D01*
X105197219Y-72438134D01*
X105179976Y-72425346D01*
X105164070Y-72410930D01*
X105149654Y-72395024D01*
X105136866Y-72377781D01*
X105125830Y-72359368D01*
X105116651Y-72339962D01*
X105109419Y-72319750D01*
X105104203Y-72298926D01*
X105101053Y-72277691D01*
X105100000Y-72256250D01*
X105100000Y-71743750D01*
X105101053Y-71722309D01*
X105104203Y-71701074D01*
X105109419Y-71680250D01*
X105116651Y-71660038D01*
X105125830Y-71640632D01*
X105136866Y-71622219D01*
X105149654Y-71604976D01*
X105164070Y-71589070D01*
X105179976Y-71574654D01*
X105197219Y-71561866D01*
X105215632Y-71550830D01*
X105235038Y-71541651D01*
X105255250Y-71534419D01*
X105276074Y-71529203D01*
X105297309Y-71526053D01*
X105318750Y-71525000D01*
X105756250Y-71525000D01*
X105777691Y-71526053D01*
X105777691Y-71526053D01*
G37*
D13*
X105537500Y-72000000D03*
D12*
G36*
X104202691Y-71526053D02*
G01*
X104223926Y-71529203D01*
X104244750Y-71534419D01*
X104264962Y-71541651D01*
X104284368Y-71550830D01*
X104302781Y-71561866D01*
X104320024Y-71574654D01*
X104335930Y-71589070D01*
X104350346Y-71604976D01*
X104363134Y-71622219D01*
X104374170Y-71640632D01*
X104383349Y-71660038D01*
X104390581Y-71680250D01*
X104395797Y-71701074D01*
X104398947Y-71722309D01*
X104400000Y-71743750D01*
X104400000Y-72256250D01*
X104398947Y-72277691D01*
X104395797Y-72298926D01*
X104390581Y-72319750D01*
X104383349Y-72339962D01*
X104374170Y-72359368D01*
X104363134Y-72377781D01*
X104350346Y-72395024D01*
X104335930Y-72410930D01*
X104320024Y-72425346D01*
X104302781Y-72438134D01*
X104284368Y-72449170D01*
X104264962Y-72458349D01*
X104244750Y-72465581D01*
X104223926Y-72470797D01*
X104202691Y-72473947D01*
X104181250Y-72475000D01*
X103743750Y-72475000D01*
X103722309Y-72473947D01*
X103701074Y-72470797D01*
X103680250Y-72465581D01*
X103660038Y-72458349D01*
X103640632Y-72449170D01*
X103622219Y-72438134D01*
X103604976Y-72425346D01*
X103589070Y-72410930D01*
X103574654Y-72395024D01*
X103561866Y-72377781D01*
X103550830Y-72359368D01*
X103541651Y-72339962D01*
X103534419Y-72319750D01*
X103529203Y-72298926D01*
X103526053Y-72277691D01*
X103525000Y-72256250D01*
X103525000Y-71743750D01*
X103526053Y-71722309D01*
X103529203Y-71701074D01*
X103534419Y-71680250D01*
X103541651Y-71660038D01*
X103550830Y-71640632D01*
X103561866Y-71622219D01*
X103574654Y-71604976D01*
X103589070Y-71589070D01*
X103604976Y-71574654D01*
X103622219Y-71561866D01*
X103640632Y-71550830D01*
X103660038Y-71541651D01*
X103680250Y-71534419D01*
X103701074Y-71529203D01*
X103722309Y-71526053D01*
X103743750Y-71525000D01*
X104181250Y-71525000D01*
X104202691Y-71526053D01*
X104202691Y-71526053D01*
G37*
D13*
X103962500Y-72000000D03*
D14*
X136750000Y-76750000D03*
D15*
X137350000Y-74050000D03*
D16*
X138660000Y-79770000D03*
X137390000Y-79770000D03*
X134840000Y-79770000D03*
X136110000Y-79770000D03*
D15*
X136150000Y-74050000D03*
X138630000Y-74050000D03*
X134870000Y-74050000D03*
D14*
X136750000Y-77600000D03*
X136750000Y-75900000D03*
X137900000Y-75900000D03*
X137900000Y-77600000D03*
X137900000Y-76750000D03*
X135600000Y-75900000D03*
X135600000Y-77600000D03*
X135600000Y-76750000D03*
X131000000Y-87950000D03*
D15*
X131600000Y-85250000D03*
D16*
X132910000Y-90970000D03*
X131640000Y-90970000D03*
X129090000Y-90970000D03*
X130360000Y-90970000D03*
D15*
X130400000Y-85250000D03*
X132880000Y-85250000D03*
X129120000Y-85250000D03*
D14*
X131000000Y-88800000D03*
X131000000Y-87100000D03*
X132150000Y-87100000D03*
X132150000Y-88800000D03*
X132150000Y-87950000D03*
X129850000Y-87100000D03*
X129850000Y-88800000D03*
X129850000Y-87950000D03*
D17*
X136500000Y-86750000D03*
X135550000Y-84750000D03*
X137450000Y-84750000D03*
D14*
X124750000Y-87950000D03*
D15*
X125350000Y-85250000D03*
D16*
X126660000Y-90970000D03*
X125390000Y-90970000D03*
X122840000Y-90970000D03*
X124110000Y-90970000D03*
D15*
X124150000Y-85250000D03*
X126630000Y-85250000D03*
X122870000Y-85250000D03*
D14*
X124750000Y-88800000D03*
X124750000Y-87100000D03*
X125900000Y-87100000D03*
X125900000Y-88800000D03*
X125900000Y-87950000D03*
X123600000Y-87100000D03*
X123600000Y-88800000D03*
X123600000Y-87950000D03*
D18*
X137250000Y-88600000D03*
X137250000Y-91900000D03*
D19*
X114850000Y-75000000D03*
X118150000Y-75000000D03*
X114850000Y-72500000D03*
X118150000Y-72500000D03*
D12*
G36*
X130415191Y-77776053D02*
G01*
X130436426Y-77779203D01*
X130457250Y-77784419D01*
X130477462Y-77791651D01*
X130496868Y-77800830D01*
X130515281Y-77811866D01*
X130532524Y-77824654D01*
X130548430Y-77839070D01*
X130562846Y-77854976D01*
X130575634Y-77872219D01*
X130586670Y-77890632D01*
X130595849Y-77910038D01*
X130603081Y-77930250D01*
X130608297Y-77951074D01*
X130611447Y-77972309D01*
X130612500Y-77993750D01*
X130612500Y-78506250D01*
X130611447Y-78527691D01*
X130608297Y-78548926D01*
X130603081Y-78569750D01*
X130595849Y-78589962D01*
X130586670Y-78609368D01*
X130575634Y-78627781D01*
X130562846Y-78645024D01*
X130548430Y-78660930D01*
X130532524Y-78675346D01*
X130515281Y-78688134D01*
X130496868Y-78699170D01*
X130477462Y-78708349D01*
X130457250Y-78715581D01*
X130436426Y-78720797D01*
X130415191Y-78723947D01*
X130393750Y-78725000D01*
X129956250Y-78725000D01*
X129934809Y-78723947D01*
X129913574Y-78720797D01*
X129892750Y-78715581D01*
X129872538Y-78708349D01*
X129853132Y-78699170D01*
X129834719Y-78688134D01*
X129817476Y-78675346D01*
X129801570Y-78660930D01*
X129787154Y-78645024D01*
X129774366Y-78627781D01*
X129763330Y-78609368D01*
X129754151Y-78589962D01*
X129746919Y-78569750D01*
X129741703Y-78548926D01*
X129738553Y-78527691D01*
X129737500Y-78506250D01*
X129737500Y-77993750D01*
X129738553Y-77972309D01*
X129741703Y-77951074D01*
X129746919Y-77930250D01*
X129754151Y-77910038D01*
X129763330Y-77890632D01*
X129774366Y-77872219D01*
X129787154Y-77854976D01*
X129801570Y-77839070D01*
X129817476Y-77824654D01*
X129834719Y-77811866D01*
X129853132Y-77800830D01*
X129872538Y-77791651D01*
X129892750Y-77784419D01*
X129913574Y-77779203D01*
X129934809Y-77776053D01*
X129956250Y-77775000D01*
X130393750Y-77775000D01*
X130415191Y-77776053D01*
X130415191Y-77776053D01*
G37*
D13*
X130175000Y-78250000D03*
D12*
G36*
X131990191Y-77776053D02*
G01*
X132011426Y-77779203D01*
X132032250Y-77784419D01*
X132052462Y-77791651D01*
X132071868Y-77800830D01*
X132090281Y-77811866D01*
X132107524Y-77824654D01*
X132123430Y-77839070D01*
X132137846Y-77854976D01*
X132150634Y-77872219D01*
X132161670Y-77890632D01*
X132170849Y-77910038D01*
X132178081Y-77930250D01*
X132183297Y-77951074D01*
X132186447Y-77972309D01*
X132187500Y-77993750D01*
X132187500Y-78506250D01*
X132186447Y-78527691D01*
X132183297Y-78548926D01*
X132178081Y-78569750D01*
X132170849Y-78589962D01*
X132161670Y-78609368D01*
X132150634Y-78627781D01*
X132137846Y-78645024D01*
X132123430Y-78660930D01*
X132107524Y-78675346D01*
X132090281Y-78688134D01*
X132071868Y-78699170D01*
X132052462Y-78708349D01*
X132032250Y-78715581D01*
X132011426Y-78720797D01*
X131990191Y-78723947D01*
X131968750Y-78725000D01*
X131531250Y-78725000D01*
X131509809Y-78723947D01*
X131488574Y-78720797D01*
X131467750Y-78715581D01*
X131447538Y-78708349D01*
X131428132Y-78699170D01*
X131409719Y-78688134D01*
X131392476Y-78675346D01*
X131376570Y-78660930D01*
X131362154Y-78645024D01*
X131349366Y-78627781D01*
X131338330Y-78609368D01*
X131329151Y-78589962D01*
X131321919Y-78569750D01*
X131316703Y-78548926D01*
X131313553Y-78527691D01*
X131312500Y-78506250D01*
X131312500Y-77993750D01*
X131313553Y-77972309D01*
X131316703Y-77951074D01*
X131321919Y-77930250D01*
X131329151Y-77910038D01*
X131338330Y-77890632D01*
X131349366Y-77872219D01*
X131362154Y-77854976D01*
X131376570Y-77839070D01*
X131392476Y-77824654D01*
X131409719Y-77811866D01*
X131428132Y-77800830D01*
X131447538Y-77791651D01*
X131467750Y-77784419D01*
X131488574Y-77779203D01*
X131509809Y-77776053D01*
X131531250Y-77775000D01*
X131968750Y-77775000D01*
X131990191Y-77776053D01*
X131990191Y-77776053D01*
G37*
D13*
X131750000Y-78250000D03*
D12*
G36*
X130240191Y-76026053D02*
G01*
X130261426Y-76029203D01*
X130282250Y-76034419D01*
X130302462Y-76041651D01*
X130321868Y-76050830D01*
X130340281Y-76061866D01*
X130357524Y-76074654D01*
X130373430Y-76089070D01*
X130387846Y-76104976D01*
X130400634Y-76122219D01*
X130411670Y-76140632D01*
X130420849Y-76160038D01*
X130428081Y-76180250D01*
X130433297Y-76201074D01*
X130436447Y-76222309D01*
X130437500Y-76243750D01*
X130437500Y-76756250D01*
X130436447Y-76777691D01*
X130433297Y-76798926D01*
X130428081Y-76819750D01*
X130420849Y-76839962D01*
X130411670Y-76859368D01*
X130400634Y-76877781D01*
X130387846Y-76895024D01*
X130373430Y-76910930D01*
X130357524Y-76925346D01*
X130340281Y-76938134D01*
X130321868Y-76949170D01*
X130302462Y-76958349D01*
X130282250Y-76965581D01*
X130261426Y-76970797D01*
X130240191Y-76973947D01*
X130218750Y-76975000D01*
X129781250Y-76975000D01*
X129759809Y-76973947D01*
X129738574Y-76970797D01*
X129717750Y-76965581D01*
X129697538Y-76958349D01*
X129678132Y-76949170D01*
X129659719Y-76938134D01*
X129642476Y-76925346D01*
X129626570Y-76910930D01*
X129612154Y-76895024D01*
X129599366Y-76877781D01*
X129588330Y-76859368D01*
X129579151Y-76839962D01*
X129571919Y-76819750D01*
X129566703Y-76798926D01*
X129563553Y-76777691D01*
X129562500Y-76756250D01*
X129562500Y-76243750D01*
X129563553Y-76222309D01*
X129566703Y-76201074D01*
X129571919Y-76180250D01*
X129579151Y-76160038D01*
X129588330Y-76140632D01*
X129599366Y-76122219D01*
X129612154Y-76104976D01*
X129626570Y-76089070D01*
X129642476Y-76074654D01*
X129659719Y-76061866D01*
X129678132Y-76050830D01*
X129697538Y-76041651D01*
X129717750Y-76034419D01*
X129738574Y-76029203D01*
X129759809Y-76026053D01*
X129781250Y-76025000D01*
X130218750Y-76025000D01*
X130240191Y-76026053D01*
X130240191Y-76026053D01*
G37*
D13*
X130000000Y-76500000D03*
D12*
G36*
X131815191Y-76026053D02*
G01*
X131836426Y-76029203D01*
X131857250Y-76034419D01*
X131877462Y-76041651D01*
X131896868Y-76050830D01*
X131915281Y-76061866D01*
X131932524Y-76074654D01*
X131948430Y-76089070D01*
X131962846Y-76104976D01*
X131975634Y-76122219D01*
X131986670Y-76140632D01*
X131995849Y-76160038D01*
X132003081Y-76180250D01*
X132008297Y-76201074D01*
X132011447Y-76222309D01*
X132012500Y-76243750D01*
X132012500Y-76756250D01*
X132011447Y-76777691D01*
X132008297Y-76798926D01*
X132003081Y-76819750D01*
X131995849Y-76839962D01*
X131986670Y-76859368D01*
X131975634Y-76877781D01*
X131962846Y-76895024D01*
X131948430Y-76910930D01*
X131932524Y-76925346D01*
X131915281Y-76938134D01*
X131896868Y-76949170D01*
X131877462Y-76958349D01*
X131857250Y-76965581D01*
X131836426Y-76970797D01*
X131815191Y-76973947D01*
X131793750Y-76975000D01*
X131356250Y-76975000D01*
X131334809Y-76973947D01*
X131313574Y-76970797D01*
X131292750Y-76965581D01*
X131272538Y-76958349D01*
X131253132Y-76949170D01*
X131234719Y-76938134D01*
X131217476Y-76925346D01*
X131201570Y-76910930D01*
X131187154Y-76895024D01*
X131174366Y-76877781D01*
X131163330Y-76859368D01*
X131154151Y-76839962D01*
X131146919Y-76819750D01*
X131141703Y-76798926D01*
X131138553Y-76777691D01*
X131137500Y-76756250D01*
X131137500Y-76243750D01*
X131138553Y-76222309D01*
X131141703Y-76201074D01*
X131146919Y-76180250D01*
X131154151Y-76160038D01*
X131163330Y-76140632D01*
X131174366Y-76122219D01*
X131187154Y-76104976D01*
X131201570Y-76089070D01*
X131217476Y-76074654D01*
X131234719Y-76061866D01*
X131253132Y-76050830D01*
X131272538Y-76041651D01*
X131292750Y-76034419D01*
X131313574Y-76029203D01*
X131334809Y-76026053D01*
X131356250Y-76025000D01*
X131793750Y-76025000D01*
X131815191Y-76026053D01*
X131815191Y-76026053D01*
G37*
D13*
X131575000Y-76500000D03*
D12*
G36*
X128240191Y-79526053D02*
G01*
X128261426Y-79529203D01*
X128282250Y-79534419D01*
X128302462Y-79541651D01*
X128321868Y-79550830D01*
X128340281Y-79561866D01*
X128357524Y-79574654D01*
X128373430Y-79589070D01*
X128387846Y-79604976D01*
X128400634Y-79622219D01*
X128411670Y-79640632D01*
X128420849Y-79660038D01*
X128428081Y-79680250D01*
X128433297Y-79701074D01*
X128436447Y-79722309D01*
X128437500Y-79743750D01*
X128437500Y-80256250D01*
X128436447Y-80277691D01*
X128433297Y-80298926D01*
X128428081Y-80319750D01*
X128420849Y-80339962D01*
X128411670Y-80359368D01*
X128400634Y-80377781D01*
X128387846Y-80395024D01*
X128373430Y-80410930D01*
X128357524Y-80425346D01*
X128340281Y-80438134D01*
X128321868Y-80449170D01*
X128302462Y-80458349D01*
X128282250Y-80465581D01*
X128261426Y-80470797D01*
X128240191Y-80473947D01*
X128218750Y-80475000D01*
X127781250Y-80475000D01*
X127759809Y-80473947D01*
X127738574Y-80470797D01*
X127717750Y-80465581D01*
X127697538Y-80458349D01*
X127678132Y-80449170D01*
X127659719Y-80438134D01*
X127642476Y-80425346D01*
X127626570Y-80410930D01*
X127612154Y-80395024D01*
X127599366Y-80377781D01*
X127588330Y-80359368D01*
X127579151Y-80339962D01*
X127571919Y-80319750D01*
X127566703Y-80298926D01*
X127563553Y-80277691D01*
X127562500Y-80256250D01*
X127562500Y-79743750D01*
X127563553Y-79722309D01*
X127566703Y-79701074D01*
X127571919Y-79680250D01*
X127579151Y-79660038D01*
X127588330Y-79640632D01*
X127599366Y-79622219D01*
X127612154Y-79604976D01*
X127626570Y-79589070D01*
X127642476Y-79574654D01*
X127659719Y-79561866D01*
X127678132Y-79550830D01*
X127697538Y-79541651D01*
X127717750Y-79534419D01*
X127738574Y-79529203D01*
X127759809Y-79526053D01*
X127781250Y-79525000D01*
X128218750Y-79525000D01*
X128240191Y-79526053D01*
X128240191Y-79526053D01*
G37*
D13*
X128000000Y-80000000D03*
D12*
G36*
X126665191Y-79526053D02*
G01*
X126686426Y-79529203D01*
X126707250Y-79534419D01*
X126727462Y-79541651D01*
X126746868Y-79550830D01*
X126765281Y-79561866D01*
X126782524Y-79574654D01*
X126798430Y-79589070D01*
X126812846Y-79604976D01*
X126825634Y-79622219D01*
X126836670Y-79640632D01*
X126845849Y-79660038D01*
X126853081Y-79680250D01*
X126858297Y-79701074D01*
X126861447Y-79722309D01*
X126862500Y-79743750D01*
X126862500Y-80256250D01*
X126861447Y-80277691D01*
X126858297Y-80298926D01*
X126853081Y-80319750D01*
X126845849Y-80339962D01*
X126836670Y-80359368D01*
X126825634Y-80377781D01*
X126812846Y-80395024D01*
X126798430Y-80410930D01*
X126782524Y-80425346D01*
X126765281Y-80438134D01*
X126746868Y-80449170D01*
X126727462Y-80458349D01*
X126707250Y-80465581D01*
X126686426Y-80470797D01*
X126665191Y-80473947D01*
X126643750Y-80475000D01*
X126206250Y-80475000D01*
X126184809Y-80473947D01*
X126163574Y-80470797D01*
X126142750Y-80465581D01*
X126122538Y-80458349D01*
X126103132Y-80449170D01*
X126084719Y-80438134D01*
X126067476Y-80425346D01*
X126051570Y-80410930D01*
X126037154Y-80395024D01*
X126024366Y-80377781D01*
X126013330Y-80359368D01*
X126004151Y-80339962D01*
X125996919Y-80319750D01*
X125991703Y-80298926D01*
X125988553Y-80277691D01*
X125987500Y-80256250D01*
X125987500Y-79743750D01*
X125988553Y-79722309D01*
X125991703Y-79701074D01*
X125996919Y-79680250D01*
X126004151Y-79660038D01*
X126013330Y-79640632D01*
X126024366Y-79622219D01*
X126037154Y-79604976D01*
X126051570Y-79589070D01*
X126067476Y-79574654D01*
X126084719Y-79561866D01*
X126103132Y-79550830D01*
X126122538Y-79541651D01*
X126142750Y-79534419D01*
X126163574Y-79529203D01*
X126184809Y-79526053D01*
X126206250Y-79525000D01*
X126643750Y-79525000D01*
X126665191Y-79526053D01*
X126665191Y-79526053D01*
G37*
D13*
X126425000Y-80000000D03*
D12*
G36*
X127777691Y-76026053D02*
G01*
X127798926Y-76029203D01*
X127819750Y-76034419D01*
X127839962Y-76041651D01*
X127859368Y-76050830D01*
X127877781Y-76061866D01*
X127895024Y-76074654D01*
X127910930Y-76089070D01*
X127925346Y-76104976D01*
X127938134Y-76122219D01*
X127949170Y-76140632D01*
X127958349Y-76160038D01*
X127965581Y-76180250D01*
X127970797Y-76201074D01*
X127973947Y-76222309D01*
X127975000Y-76243750D01*
X127975000Y-76756250D01*
X127973947Y-76777691D01*
X127970797Y-76798926D01*
X127965581Y-76819750D01*
X127958349Y-76839962D01*
X127949170Y-76859368D01*
X127938134Y-76877781D01*
X127925346Y-76895024D01*
X127910930Y-76910930D01*
X127895024Y-76925346D01*
X127877781Y-76938134D01*
X127859368Y-76949170D01*
X127839962Y-76958349D01*
X127819750Y-76965581D01*
X127798926Y-76970797D01*
X127777691Y-76973947D01*
X127756250Y-76975000D01*
X127318750Y-76975000D01*
X127297309Y-76973947D01*
X127276074Y-76970797D01*
X127255250Y-76965581D01*
X127235038Y-76958349D01*
X127215632Y-76949170D01*
X127197219Y-76938134D01*
X127179976Y-76925346D01*
X127164070Y-76910930D01*
X127149654Y-76895024D01*
X127136866Y-76877781D01*
X127125830Y-76859368D01*
X127116651Y-76839962D01*
X127109419Y-76819750D01*
X127104203Y-76798926D01*
X127101053Y-76777691D01*
X127100000Y-76756250D01*
X127100000Y-76243750D01*
X127101053Y-76222309D01*
X127104203Y-76201074D01*
X127109419Y-76180250D01*
X127116651Y-76160038D01*
X127125830Y-76140632D01*
X127136866Y-76122219D01*
X127149654Y-76104976D01*
X127164070Y-76089070D01*
X127179976Y-76074654D01*
X127197219Y-76061866D01*
X127215632Y-76050830D01*
X127235038Y-76041651D01*
X127255250Y-76034419D01*
X127276074Y-76029203D01*
X127297309Y-76026053D01*
X127318750Y-76025000D01*
X127756250Y-76025000D01*
X127777691Y-76026053D01*
X127777691Y-76026053D01*
G37*
D13*
X127537500Y-76500000D03*
D12*
G36*
X126202691Y-76026053D02*
G01*
X126223926Y-76029203D01*
X126244750Y-76034419D01*
X126264962Y-76041651D01*
X126284368Y-76050830D01*
X126302781Y-76061866D01*
X126320024Y-76074654D01*
X126335930Y-76089070D01*
X126350346Y-76104976D01*
X126363134Y-76122219D01*
X126374170Y-76140632D01*
X126383349Y-76160038D01*
X126390581Y-76180250D01*
X126395797Y-76201074D01*
X126398947Y-76222309D01*
X126400000Y-76243750D01*
X126400000Y-76756250D01*
X126398947Y-76777691D01*
X126395797Y-76798926D01*
X126390581Y-76819750D01*
X126383349Y-76839962D01*
X126374170Y-76859368D01*
X126363134Y-76877781D01*
X126350346Y-76895024D01*
X126335930Y-76910930D01*
X126320024Y-76925346D01*
X126302781Y-76938134D01*
X126284368Y-76949170D01*
X126264962Y-76958349D01*
X126244750Y-76965581D01*
X126223926Y-76970797D01*
X126202691Y-76973947D01*
X126181250Y-76975000D01*
X125743750Y-76975000D01*
X125722309Y-76973947D01*
X125701074Y-76970797D01*
X125680250Y-76965581D01*
X125660038Y-76958349D01*
X125640632Y-76949170D01*
X125622219Y-76938134D01*
X125604976Y-76925346D01*
X125589070Y-76910930D01*
X125574654Y-76895024D01*
X125561866Y-76877781D01*
X125550830Y-76859368D01*
X125541651Y-76839962D01*
X125534419Y-76819750D01*
X125529203Y-76798926D01*
X125526053Y-76777691D01*
X125525000Y-76756250D01*
X125525000Y-76243750D01*
X125526053Y-76222309D01*
X125529203Y-76201074D01*
X125534419Y-76180250D01*
X125541651Y-76160038D01*
X125550830Y-76140632D01*
X125561866Y-76122219D01*
X125574654Y-76104976D01*
X125589070Y-76089070D01*
X125604976Y-76074654D01*
X125622219Y-76061866D01*
X125640632Y-76050830D01*
X125660038Y-76041651D01*
X125680250Y-76034419D01*
X125701074Y-76029203D01*
X125722309Y-76026053D01*
X125743750Y-76025000D01*
X126181250Y-76025000D01*
X126202691Y-76026053D01*
X126202691Y-76026053D01*
G37*
D13*
X125962500Y-76500000D03*
D12*
G36*
X122990191Y-79776053D02*
G01*
X123011426Y-79779203D01*
X123032250Y-79784419D01*
X123052462Y-79791651D01*
X123071868Y-79800830D01*
X123090281Y-79811866D01*
X123107524Y-79824654D01*
X123123430Y-79839070D01*
X123137846Y-79854976D01*
X123150634Y-79872219D01*
X123161670Y-79890632D01*
X123170849Y-79910038D01*
X123178081Y-79930250D01*
X123183297Y-79951074D01*
X123186447Y-79972309D01*
X123187500Y-79993750D01*
X123187500Y-80506250D01*
X123186447Y-80527691D01*
X123183297Y-80548926D01*
X123178081Y-80569750D01*
X123170849Y-80589962D01*
X123161670Y-80609368D01*
X123150634Y-80627781D01*
X123137846Y-80645024D01*
X123123430Y-80660930D01*
X123107524Y-80675346D01*
X123090281Y-80688134D01*
X123071868Y-80699170D01*
X123052462Y-80708349D01*
X123032250Y-80715581D01*
X123011426Y-80720797D01*
X122990191Y-80723947D01*
X122968750Y-80725000D01*
X122531250Y-80725000D01*
X122509809Y-80723947D01*
X122488574Y-80720797D01*
X122467750Y-80715581D01*
X122447538Y-80708349D01*
X122428132Y-80699170D01*
X122409719Y-80688134D01*
X122392476Y-80675346D01*
X122376570Y-80660930D01*
X122362154Y-80645024D01*
X122349366Y-80627781D01*
X122338330Y-80609368D01*
X122329151Y-80589962D01*
X122321919Y-80569750D01*
X122316703Y-80548926D01*
X122313553Y-80527691D01*
X122312500Y-80506250D01*
X122312500Y-79993750D01*
X122313553Y-79972309D01*
X122316703Y-79951074D01*
X122321919Y-79930250D01*
X122329151Y-79910038D01*
X122338330Y-79890632D01*
X122349366Y-79872219D01*
X122362154Y-79854976D01*
X122376570Y-79839070D01*
X122392476Y-79824654D01*
X122409719Y-79811866D01*
X122428132Y-79800830D01*
X122447538Y-79791651D01*
X122467750Y-79784419D01*
X122488574Y-79779203D01*
X122509809Y-79776053D01*
X122531250Y-79775000D01*
X122968750Y-79775000D01*
X122990191Y-79776053D01*
X122990191Y-79776053D01*
G37*
D13*
X122750000Y-80250000D03*
D12*
G36*
X124565191Y-79776053D02*
G01*
X124586426Y-79779203D01*
X124607250Y-79784419D01*
X124627462Y-79791651D01*
X124646868Y-79800830D01*
X124665281Y-79811866D01*
X124682524Y-79824654D01*
X124698430Y-79839070D01*
X124712846Y-79854976D01*
X124725634Y-79872219D01*
X124736670Y-79890632D01*
X124745849Y-79910038D01*
X124753081Y-79930250D01*
X124758297Y-79951074D01*
X124761447Y-79972309D01*
X124762500Y-79993750D01*
X124762500Y-80506250D01*
X124761447Y-80527691D01*
X124758297Y-80548926D01*
X124753081Y-80569750D01*
X124745849Y-80589962D01*
X124736670Y-80609368D01*
X124725634Y-80627781D01*
X124712846Y-80645024D01*
X124698430Y-80660930D01*
X124682524Y-80675346D01*
X124665281Y-80688134D01*
X124646868Y-80699170D01*
X124627462Y-80708349D01*
X124607250Y-80715581D01*
X124586426Y-80720797D01*
X124565191Y-80723947D01*
X124543750Y-80725000D01*
X124106250Y-80725000D01*
X124084809Y-80723947D01*
X124063574Y-80720797D01*
X124042750Y-80715581D01*
X124022538Y-80708349D01*
X124003132Y-80699170D01*
X123984719Y-80688134D01*
X123967476Y-80675346D01*
X123951570Y-80660930D01*
X123937154Y-80645024D01*
X123924366Y-80627781D01*
X123913330Y-80609368D01*
X123904151Y-80589962D01*
X123896919Y-80569750D01*
X123891703Y-80548926D01*
X123888553Y-80527691D01*
X123887500Y-80506250D01*
X123887500Y-79993750D01*
X123888553Y-79972309D01*
X123891703Y-79951074D01*
X123896919Y-79930250D01*
X123904151Y-79910038D01*
X123913330Y-79890632D01*
X123924366Y-79872219D01*
X123937154Y-79854976D01*
X123951570Y-79839070D01*
X123967476Y-79824654D01*
X123984719Y-79811866D01*
X124003132Y-79800830D01*
X124022538Y-79791651D01*
X124042750Y-79784419D01*
X124063574Y-79779203D01*
X124084809Y-79776053D01*
X124106250Y-79775000D01*
X124543750Y-79775000D01*
X124565191Y-79776053D01*
X124565191Y-79776053D01*
G37*
D13*
X124325000Y-80250000D03*
D12*
G36*
X122990191Y-74526053D02*
G01*
X123011426Y-74529203D01*
X123032250Y-74534419D01*
X123052462Y-74541651D01*
X123071868Y-74550830D01*
X123090281Y-74561866D01*
X123107524Y-74574654D01*
X123123430Y-74589070D01*
X123137846Y-74604976D01*
X123150634Y-74622219D01*
X123161670Y-74640632D01*
X123170849Y-74660038D01*
X123178081Y-74680250D01*
X123183297Y-74701074D01*
X123186447Y-74722309D01*
X123187500Y-74743750D01*
X123187500Y-75256250D01*
X123186447Y-75277691D01*
X123183297Y-75298926D01*
X123178081Y-75319750D01*
X123170849Y-75339962D01*
X123161670Y-75359368D01*
X123150634Y-75377781D01*
X123137846Y-75395024D01*
X123123430Y-75410930D01*
X123107524Y-75425346D01*
X123090281Y-75438134D01*
X123071868Y-75449170D01*
X123052462Y-75458349D01*
X123032250Y-75465581D01*
X123011426Y-75470797D01*
X122990191Y-75473947D01*
X122968750Y-75475000D01*
X122531250Y-75475000D01*
X122509809Y-75473947D01*
X122488574Y-75470797D01*
X122467750Y-75465581D01*
X122447538Y-75458349D01*
X122428132Y-75449170D01*
X122409719Y-75438134D01*
X122392476Y-75425346D01*
X122376570Y-75410930D01*
X122362154Y-75395024D01*
X122349366Y-75377781D01*
X122338330Y-75359368D01*
X122329151Y-75339962D01*
X122321919Y-75319750D01*
X122316703Y-75298926D01*
X122313553Y-75277691D01*
X122312500Y-75256250D01*
X122312500Y-74743750D01*
X122313553Y-74722309D01*
X122316703Y-74701074D01*
X122321919Y-74680250D01*
X122329151Y-74660038D01*
X122338330Y-74640632D01*
X122349366Y-74622219D01*
X122362154Y-74604976D01*
X122376570Y-74589070D01*
X122392476Y-74574654D01*
X122409719Y-74561866D01*
X122428132Y-74550830D01*
X122447538Y-74541651D01*
X122467750Y-74534419D01*
X122488574Y-74529203D01*
X122509809Y-74526053D01*
X122531250Y-74525000D01*
X122968750Y-74525000D01*
X122990191Y-74526053D01*
X122990191Y-74526053D01*
G37*
D13*
X122750000Y-75000000D03*
D12*
G36*
X124565191Y-74526053D02*
G01*
X124586426Y-74529203D01*
X124607250Y-74534419D01*
X124627462Y-74541651D01*
X124646868Y-74550830D01*
X124665281Y-74561866D01*
X124682524Y-74574654D01*
X124698430Y-74589070D01*
X124712846Y-74604976D01*
X124725634Y-74622219D01*
X124736670Y-74640632D01*
X124745849Y-74660038D01*
X124753081Y-74680250D01*
X124758297Y-74701074D01*
X124761447Y-74722309D01*
X124762500Y-74743750D01*
X124762500Y-75256250D01*
X124761447Y-75277691D01*
X124758297Y-75298926D01*
X124753081Y-75319750D01*
X124745849Y-75339962D01*
X124736670Y-75359368D01*
X124725634Y-75377781D01*
X124712846Y-75395024D01*
X124698430Y-75410930D01*
X124682524Y-75425346D01*
X124665281Y-75438134D01*
X124646868Y-75449170D01*
X124627462Y-75458349D01*
X124607250Y-75465581D01*
X124586426Y-75470797D01*
X124565191Y-75473947D01*
X124543750Y-75475000D01*
X124106250Y-75475000D01*
X124084809Y-75473947D01*
X124063574Y-75470797D01*
X124042750Y-75465581D01*
X124022538Y-75458349D01*
X124003132Y-75449170D01*
X123984719Y-75438134D01*
X123967476Y-75425346D01*
X123951570Y-75410930D01*
X123937154Y-75395024D01*
X123924366Y-75377781D01*
X123913330Y-75359368D01*
X123904151Y-75339962D01*
X123896919Y-75319750D01*
X123891703Y-75298926D01*
X123888553Y-75277691D01*
X123887500Y-75256250D01*
X123887500Y-74743750D01*
X123888553Y-74722309D01*
X123891703Y-74701074D01*
X123896919Y-74680250D01*
X123904151Y-74660038D01*
X123913330Y-74640632D01*
X123924366Y-74622219D01*
X123937154Y-74604976D01*
X123951570Y-74589070D01*
X123967476Y-74574654D01*
X123984719Y-74561866D01*
X124003132Y-74550830D01*
X124022538Y-74541651D01*
X124042750Y-74534419D01*
X124063574Y-74529203D01*
X124084809Y-74526053D01*
X124106250Y-74525000D01*
X124543750Y-74525000D01*
X124565191Y-74526053D01*
X124565191Y-74526053D01*
G37*
D13*
X124325000Y-75000000D03*
D12*
G36*
X107527691Y-92101053D02*
G01*
X107548926Y-92104203D01*
X107569750Y-92109419D01*
X107589962Y-92116651D01*
X107609368Y-92125830D01*
X107627781Y-92136866D01*
X107645024Y-92149654D01*
X107660930Y-92164070D01*
X107675346Y-92179976D01*
X107688134Y-92197219D01*
X107699170Y-92215632D01*
X107708349Y-92235038D01*
X107715581Y-92255250D01*
X107720797Y-92276074D01*
X107723947Y-92297309D01*
X107725000Y-92318750D01*
X107725000Y-92756250D01*
X107723947Y-92777691D01*
X107720797Y-92798926D01*
X107715581Y-92819750D01*
X107708349Y-92839962D01*
X107699170Y-92859368D01*
X107688134Y-92877781D01*
X107675346Y-92895024D01*
X107660930Y-92910930D01*
X107645024Y-92925346D01*
X107627781Y-92938134D01*
X107609368Y-92949170D01*
X107589962Y-92958349D01*
X107569750Y-92965581D01*
X107548926Y-92970797D01*
X107527691Y-92973947D01*
X107506250Y-92975000D01*
X106993750Y-92975000D01*
X106972309Y-92973947D01*
X106951074Y-92970797D01*
X106930250Y-92965581D01*
X106910038Y-92958349D01*
X106890632Y-92949170D01*
X106872219Y-92938134D01*
X106854976Y-92925346D01*
X106839070Y-92910930D01*
X106824654Y-92895024D01*
X106811866Y-92877781D01*
X106800830Y-92859368D01*
X106791651Y-92839962D01*
X106784419Y-92819750D01*
X106779203Y-92798926D01*
X106776053Y-92777691D01*
X106775000Y-92756250D01*
X106775000Y-92318750D01*
X106776053Y-92297309D01*
X106779203Y-92276074D01*
X106784419Y-92255250D01*
X106791651Y-92235038D01*
X106800830Y-92215632D01*
X106811866Y-92197219D01*
X106824654Y-92179976D01*
X106839070Y-92164070D01*
X106854976Y-92149654D01*
X106872219Y-92136866D01*
X106890632Y-92125830D01*
X106910038Y-92116651D01*
X106930250Y-92109419D01*
X106951074Y-92104203D01*
X106972309Y-92101053D01*
X106993750Y-92100000D01*
X107506250Y-92100000D01*
X107527691Y-92101053D01*
X107527691Y-92101053D01*
G37*
D13*
X107250000Y-92537500D03*
D12*
G36*
X107527691Y-90526053D02*
G01*
X107548926Y-90529203D01*
X107569750Y-90534419D01*
X107589962Y-90541651D01*
X107609368Y-90550830D01*
X107627781Y-90561866D01*
X107645024Y-90574654D01*
X107660930Y-90589070D01*
X107675346Y-90604976D01*
X107688134Y-90622219D01*
X107699170Y-90640632D01*
X107708349Y-90660038D01*
X107715581Y-90680250D01*
X107720797Y-90701074D01*
X107723947Y-90722309D01*
X107725000Y-90743750D01*
X107725000Y-91181250D01*
X107723947Y-91202691D01*
X107720797Y-91223926D01*
X107715581Y-91244750D01*
X107708349Y-91264962D01*
X107699170Y-91284368D01*
X107688134Y-91302781D01*
X107675346Y-91320024D01*
X107660930Y-91335930D01*
X107645024Y-91350346D01*
X107627781Y-91363134D01*
X107609368Y-91374170D01*
X107589962Y-91383349D01*
X107569750Y-91390581D01*
X107548926Y-91395797D01*
X107527691Y-91398947D01*
X107506250Y-91400000D01*
X106993750Y-91400000D01*
X106972309Y-91398947D01*
X106951074Y-91395797D01*
X106930250Y-91390581D01*
X106910038Y-91383349D01*
X106890632Y-91374170D01*
X106872219Y-91363134D01*
X106854976Y-91350346D01*
X106839070Y-91335930D01*
X106824654Y-91320024D01*
X106811866Y-91302781D01*
X106800830Y-91284368D01*
X106791651Y-91264962D01*
X106784419Y-91244750D01*
X106779203Y-91223926D01*
X106776053Y-91202691D01*
X106775000Y-91181250D01*
X106775000Y-90743750D01*
X106776053Y-90722309D01*
X106779203Y-90701074D01*
X106784419Y-90680250D01*
X106791651Y-90660038D01*
X106800830Y-90640632D01*
X106811866Y-90622219D01*
X106824654Y-90604976D01*
X106839070Y-90589070D01*
X106854976Y-90574654D01*
X106872219Y-90561866D01*
X106890632Y-90550830D01*
X106910038Y-90541651D01*
X106930250Y-90534419D01*
X106951074Y-90529203D01*
X106972309Y-90526053D01*
X106993750Y-90525000D01*
X107506250Y-90525000D01*
X107527691Y-90526053D01*
X107527691Y-90526053D01*
G37*
D13*
X107250000Y-90962500D03*
D12*
G36*
X109065191Y-88776053D02*
G01*
X109086426Y-88779203D01*
X109107250Y-88784419D01*
X109127462Y-88791651D01*
X109146868Y-88800830D01*
X109165281Y-88811866D01*
X109182524Y-88824654D01*
X109198430Y-88839070D01*
X109212846Y-88854976D01*
X109225634Y-88872219D01*
X109236670Y-88890632D01*
X109245849Y-88910038D01*
X109253081Y-88930250D01*
X109258297Y-88951074D01*
X109261447Y-88972309D01*
X109262500Y-88993750D01*
X109262500Y-89506250D01*
X109261447Y-89527691D01*
X109258297Y-89548926D01*
X109253081Y-89569750D01*
X109245849Y-89589962D01*
X109236670Y-89609368D01*
X109225634Y-89627781D01*
X109212846Y-89645024D01*
X109198430Y-89660930D01*
X109182524Y-89675346D01*
X109165281Y-89688134D01*
X109146868Y-89699170D01*
X109127462Y-89708349D01*
X109107250Y-89715581D01*
X109086426Y-89720797D01*
X109065191Y-89723947D01*
X109043750Y-89725000D01*
X108606250Y-89725000D01*
X108584809Y-89723947D01*
X108563574Y-89720797D01*
X108542750Y-89715581D01*
X108522538Y-89708349D01*
X108503132Y-89699170D01*
X108484719Y-89688134D01*
X108467476Y-89675346D01*
X108451570Y-89660930D01*
X108437154Y-89645024D01*
X108424366Y-89627781D01*
X108413330Y-89609368D01*
X108404151Y-89589962D01*
X108396919Y-89569750D01*
X108391703Y-89548926D01*
X108388553Y-89527691D01*
X108387500Y-89506250D01*
X108387500Y-88993750D01*
X108388553Y-88972309D01*
X108391703Y-88951074D01*
X108396919Y-88930250D01*
X108404151Y-88910038D01*
X108413330Y-88890632D01*
X108424366Y-88872219D01*
X108437154Y-88854976D01*
X108451570Y-88839070D01*
X108467476Y-88824654D01*
X108484719Y-88811866D01*
X108503132Y-88800830D01*
X108522538Y-88791651D01*
X108542750Y-88784419D01*
X108563574Y-88779203D01*
X108584809Y-88776053D01*
X108606250Y-88775000D01*
X109043750Y-88775000D01*
X109065191Y-88776053D01*
X109065191Y-88776053D01*
G37*
D13*
X108825000Y-89250000D03*
D12*
G36*
X107490191Y-88776053D02*
G01*
X107511426Y-88779203D01*
X107532250Y-88784419D01*
X107552462Y-88791651D01*
X107571868Y-88800830D01*
X107590281Y-88811866D01*
X107607524Y-88824654D01*
X107623430Y-88839070D01*
X107637846Y-88854976D01*
X107650634Y-88872219D01*
X107661670Y-88890632D01*
X107670849Y-88910038D01*
X107678081Y-88930250D01*
X107683297Y-88951074D01*
X107686447Y-88972309D01*
X107687500Y-88993750D01*
X107687500Y-89506250D01*
X107686447Y-89527691D01*
X107683297Y-89548926D01*
X107678081Y-89569750D01*
X107670849Y-89589962D01*
X107661670Y-89609368D01*
X107650634Y-89627781D01*
X107637846Y-89645024D01*
X107623430Y-89660930D01*
X107607524Y-89675346D01*
X107590281Y-89688134D01*
X107571868Y-89699170D01*
X107552462Y-89708349D01*
X107532250Y-89715581D01*
X107511426Y-89720797D01*
X107490191Y-89723947D01*
X107468750Y-89725000D01*
X107031250Y-89725000D01*
X107009809Y-89723947D01*
X106988574Y-89720797D01*
X106967750Y-89715581D01*
X106947538Y-89708349D01*
X106928132Y-89699170D01*
X106909719Y-89688134D01*
X106892476Y-89675346D01*
X106876570Y-89660930D01*
X106862154Y-89645024D01*
X106849366Y-89627781D01*
X106838330Y-89609368D01*
X106829151Y-89589962D01*
X106821919Y-89569750D01*
X106816703Y-89548926D01*
X106813553Y-89527691D01*
X106812500Y-89506250D01*
X106812500Y-88993750D01*
X106813553Y-88972309D01*
X106816703Y-88951074D01*
X106821919Y-88930250D01*
X106829151Y-88910038D01*
X106838330Y-88890632D01*
X106849366Y-88872219D01*
X106862154Y-88854976D01*
X106876570Y-88839070D01*
X106892476Y-88824654D01*
X106909719Y-88811866D01*
X106928132Y-88800830D01*
X106947538Y-88791651D01*
X106967750Y-88784419D01*
X106988574Y-88779203D01*
X107009809Y-88776053D01*
X107031250Y-88775000D01*
X107468750Y-88775000D01*
X107490191Y-88776053D01*
X107490191Y-88776053D01*
G37*
D13*
X107250000Y-89250000D03*
D12*
G36*
X109288471Y-90530813D02*
G01*
X109309706Y-90533963D01*
X109330530Y-90539179D01*
X109350742Y-90546411D01*
X109370148Y-90555590D01*
X109388561Y-90566626D01*
X109405804Y-90579414D01*
X109421710Y-90593830D01*
X109436126Y-90609736D01*
X109448914Y-90626979D01*
X109459950Y-90645392D01*
X109469129Y-90664798D01*
X109476361Y-90685010D01*
X109481577Y-90705834D01*
X109484727Y-90727069D01*
X109485780Y-90748510D01*
X109485780Y-91186010D01*
X109484727Y-91207451D01*
X109481577Y-91228686D01*
X109476361Y-91249510D01*
X109469129Y-91269722D01*
X109459950Y-91289128D01*
X109448914Y-91307541D01*
X109436126Y-91324784D01*
X109421710Y-91340690D01*
X109405804Y-91355106D01*
X109388561Y-91367894D01*
X109370148Y-91378930D01*
X109350742Y-91388109D01*
X109330530Y-91395341D01*
X109309706Y-91400557D01*
X109288471Y-91403707D01*
X109267030Y-91404760D01*
X108754530Y-91404760D01*
X108733089Y-91403707D01*
X108711854Y-91400557D01*
X108691030Y-91395341D01*
X108670818Y-91388109D01*
X108651412Y-91378930D01*
X108632999Y-91367894D01*
X108615756Y-91355106D01*
X108599850Y-91340690D01*
X108585434Y-91324784D01*
X108572646Y-91307541D01*
X108561610Y-91289128D01*
X108552431Y-91269722D01*
X108545199Y-91249510D01*
X108539983Y-91228686D01*
X108536833Y-91207451D01*
X108535780Y-91186010D01*
X108535780Y-90748510D01*
X108536833Y-90727069D01*
X108539983Y-90705834D01*
X108545199Y-90685010D01*
X108552431Y-90664798D01*
X108561610Y-90645392D01*
X108572646Y-90626979D01*
X108585434Y-90609736D01*
X108599850Y-90593830D01*
X108615756Y-90579414D01*
X108632999Y-90566626D01*
X108651412Y-90555590D01*
X108670818Y-90546411D01*
X108691030Y-90539179D01*
X108711854Y-90533963D01*
X108733089Y-90530813D01*
X108754530Y-90529760D01*
X109267030Y-90529760D01*
X109288471Y-90530813D01*
X109288471Y-90530813D01*
G37*
D13*
X109010780Y-90967260D03*
D12*
G36*
X109288471Y-92105813D02*
G01*
X109309706Y-92108963D01*
X109330530Y-92114179D01*
X109350742Y-92121411D01*
X109370148Y-92130590D01*
X109388561Y-92141626D01*
X109405804Y-92154414D01*
X109421710Y-92168830D01*
X109436126Y-92184736D01*
X109448914Y-92201979D01*
X109459950Y-92220392D01*
X109469129Y-92239798D01*
X109476361Y-92260010D01*
X109481577Y-92280834D01*
X109484727Y-92302069D01*
X109485780Y-92323510D01*
X109485780Y-92761010D01*
X109484727Y-92782451D01*
X109481577Y-92803686D01*
X109476361Y-92824510D01*
X109469129Y-92844722D01*
X109459950Y-92864128D01*
X109448914Y-92882541D01*
X109436126Y-92899784D01*
X109421710Y-92915690D01*
X109405804Y-92930106D01*
X109388561Y-92942894D01*
X109370148Y-92953930D01*
X109350742Y-92963109D01*
X109330530Y-92970341D01*
X109309706Y-92975557D01*
X109288471Y-92978707D01*
X109267030Y-92979760D01*
X108754530Y-92979760D01*
X108733089Y-92978707D01*
X108711854Y-92975557D01*
X108691030Y-92970341D01*
X108670818Y-92963109D01*
X108651412Y-92953930D01*
X108632999Y-92942894D01*
X108615756Y-92930106D01*
X108599850Y-92915690D01*
X108585434Y-92899784D01*
X108572646Y-92882541D01*
X108561610Y-92864128D01*
X108552431Y-92844722D01*
X108545199Y-92824510D01*
X108539983Y-92803686D01*
X108536833Y-92782451D01*
X108535780Y-92761010D01*
X108535780Y-92323510D01*
X108536833Y-92302069D01*
X108539983Y-92280834D01*
X108545199Y-92260010D01*
X108552431Y-92239798D01*
X108561610Y-92220392D01*
X108572646Y-92201979D01*
X108585434Y-92184736D01*
X108599850Y-92168830D01*
X108615756Y-92154414D01*
X108632999Y-92141626D01*
X108651412Y-92130590D01*
X108670818Y-92121411D01*
X108691030Y-92114179D01*
X108711854Y-92108963D01*
X108733089Y-92105813D01*
X108754530Y-92104760D01*
X109267030Y-92104760D01*
X109288471Y-92105813D01*
X109288471Y-92105813D01*
G37*
D13*
X109010780Y-92542260D03*
D12*
G36*
X107702691Y-85776053D02*
G01*
X107723926Y-85779203D01*
X107744750Y-85784419D01*
X107764962Y-85791651D01*
X107784368Y-85800830D01*
X107802781Y-85811866D01*
X107820024Y-85824654D01*
X107835930Y-85839070D01*
X107850346Y-85854976D01*
X107863134Y-85872219D01*
X107874170Y-85890632D01*
X107883349Y-85910038D01*
X107890581Y-85930250D01*
X107895797Y-85951074D01*
X107898947Y-85972309D01*
X107900000Y-85993750D01*
X107900000Y-86506250D01*
X107898947Y-86527691D01*
X107895797Y-86548926D01*
X107890581Y-86569750D01*
X107883349Y-86589962D01*
X107874170Y-86609368D01*
X107863134Y-86627781D01*
X107850346Y-86645024D01*
X107835930Y-86660930D01*
X107820024Y-86675346D01*
X107802781Y-86688134D01*
X107784368Y-86699170D01*
X107764962Y-86708349D01*
X107744750Y-86715581D01*
X107723926Y-86720797D01*
X107702691Y-86723947D01*
X107681250Y-86725000D01*
X107243750Y-86725000D01*
X107222309Y-86723947D01*
X107201074Y-86720797D01*
X107180250Y-86715581D01*
X107160038Y-86708349D01*
X107140632Y-86699170D01*
X107122219Y-86688134D01*
X107104976Y-86675346D01*
X107089070Y-86660930D01*
X107074654Y-86645024D01*
X107061866Y-86627781D01*
X107050830Y-86609368D01*
X107041651Y-86589962D01*
X107034419Y-86569750D01*
X107029203Y-86548926D01*
X107026053Y-86527691D01*
X107025000Y-86506250D01*
X107025000Y-85993750D01*
X107026053Y-85972309D01*
X107029203Y-85951074D01*
X107034419Y-85930250D01*
X107041651Y-85910038D01*
X107050830Y-85890632D01*
X107061866Y-85872219D01*
X107074654Y-85854976D01*
X107089070Y-85839070D01*
X107104976Y-85824654D01*
X107122219Y-85811866D01*
X107140632Y-85800830D01*
X107160038Y-85791651D01*
X107180250Y-85784419D01*
X107201074Y-85779203D01*
X107222309Y-85776053D01*
X107243750Y-85775000D01*
X107681250Y-85775000D01*
X107702691Y-85776053D01*
X107702691Y-85776053D01*
G37*
D13*
X107462500Y-86250000D03*
D12*
G36*
X109277691Y-85776053D02*
G01*
X109298926Y-85779203D01*
X109319750Y-85784419D01*
X109339962Y-85791651D01*
X109359368Y-85800830D01*
X109377781Y-85811866D01*
X109395024Y-85824654D01*
X109410930Y-85839070D01*
X109425346Y-85854976D01*
X109438134Y-85872219D01*
X109449170Y-85890632D01*
X109458349Y-85910038D01*
X109465581Y-85930250D01*
X109470797Y-85951074D01*
X109473947Y-85972309D01*
X109475000Y-85993750D01*
X109475000Y-86506250D01*
X109473947Y-86527691D01*
X109470797Y-86548926D01*
X109465581Y-86569750D01*
X109458349Y-86589962D01*
X109449170Y-86609368D01*
X109438134Y-86627781D01*
X109425346Y-86645024D01*
X109410930Y-86660930D01*
X109395024Y-86675346D01*
X109377781Y-86688134D01*
X109359368Y-86699170D01*
X109339962Y-86708349D01*
X109319750Y-86715581D01*
X109298926Y-86720797D01*
X109277691Y-86723947D01*
X109256250Y-86725000D01*
X108818750Y-86725000D01*
X108797309Y-86723947D01*
X108776074Y-86720797D01*
X108755250Y-86715581D01*
X108735038Y-86708349D01*
X108715632Y-86699170D01*
X108697219Y-86688134D01*
X108679976Y-86675346D01*
X108664070Y-86660930D01*
X108649654Y-86645024D01*
X108636866Y-86627781D01*
X108625830Y-86609368D01*
X108616651Y-86589962D01*
X108609419Y-86569750D01*
X108604203Y-86548926D01*
X108601053Y-86527691D01*
X108600000Y-86506250D01*
X108600000Y-85993750D01*
X108601053Y-85972309D01*
X108604203Y-85951074D01*
X108609419Y-85930250D01*
X108616651Y-85910038D01*
X108625830Y-85890632D01*
X108636866Y-85872219D01*
X108649654Y-85854976D01*
X108664070Y-85839070D01*
X108679976Y-85824654D01*
X108697219Y-85811866D01*
X108715632Y-85800830D01*
X108735038Y-85791651D01*
X108755250Y-85784419D01*
X108776074Y-85779203D01*
X108797309Y-85776053D01*
X108818750Y-85775000D01*
X109256250Y-85775000D01*
X109277691Y-85776053D01*
X109277691Y-85776053D01*
G37*
D13*
X109037500Y-86250000D03*
D12*
G36*
X109240191Y-83776053D02*
G01*
X109261426Y-83779203D01*
X109282250Y-83784419D01*
X109302462Y-83791651D01*
X109321868Y-83800830D01*
X109340281Y-83811866D01*
X109357524Y-83824654D01*
X109373430Y-83839070D01*
X109387846Y-83854976D01*
X109400634Y-83872219D01*
X109411670Y-83890632D01*
X109420849Y-83910038D01*
X109428081Y-83930250D01*
X109433297Y-83951074D01*
X109436447Y-83972309D01*
X109437500Y-83993750D01*
X109437500Y-84506250D01*
X109436447Y-84527691D01*
X109433297Y-84548926D01*
X109428081Y-84569750D01*
X109420849Y-84589962D01*
X109411670Y-84609368D01*
X109400634Y-84627781D01*
X109387846Y-84645024D01*
X109373430Y-84660930D01*
X109357524Y-84675346D01*
X109340281Y-84688134D01*
X109321868Y-84699170D01*
X109302462Y-84708349D01*
X109282250Y-84715581D01*
X109261426Y-84720797D01*
X109240191Y-84723947D01*
X109218750Y-84725000D01*
X108781250Y-84725000D01*
X108759809Y-84723947D01*
X108738574Y-84720797D01*
X108717750Y-84715581D01*
X108697538Y-84708349D01*
X108678132Y-84699170D01*
X108659719Y-84688134D01*
X108642476Y-84675346D01*
X108626570Y-84660930D01*
X108612154Y-84645024D01*
X108599366Y-84627781D01*
X108588330Y-84609368D01*
X108579151Y-84589962D01*
X108571919Y-84569750D01*
X108566703Y-84548926D01*
X108563553Y-84527691D01*
X108562500Y-84506250D01*
X108562500Y-83993750D01*
X108563553Y-83972309D01*
X108566703Y-83951074D01*
X108571919Y-83930250D01*
X108579151Y-83910038D01*
X108588330Y-83890632D01*
X108599366Y-83872219D01*
X108612154Y-83854976D01*
X108626570Y-83839070D01*
X108642476Y-83824654D01*
X108659719Y-83811866D01*
X108678132Y-83800830D01*
X108697538Y-83791651D01*
X108717750Y-83784419D01*
X108738574Y-83779203D01*
X108759809Y-83776053D01*
X108781250Y-83775000D01*
X109218750Y-83775000D01*
X109240191Y-83776053D01*
X109240191Y-83776053D01*
G37*
D13*
X109000000Y-84250000D03*
D12*
G36*
X107665191Y-83776053D02*
G01*
X107686426Y-83779203D01*
X107707250Y-83784419D01*
X107727462Y-83791651D01*
X107746868Y-83800830D01*
X107765281Y-83811866D01*
X107782524Y-83824654D01*
X107798430Y-83839070D01*
X107812846Y-83854976D01*
X107825634Y-83872219D01*
X107836670Y-83890632D01*
X107845849Y-83910038D01*
X107853081Y-83930250D01*
X107858297Y-83951074D01*
X107861447Y-83972309D01*
X107862500Y-83993750D01*
X107862500Y-84506250D01*
X107861447Y-84527691D01*
X107858297Y-84548926D01*
X107853081Y-84569750D01*
X107845849Y-84589962D01*
X107836670Y-84609368D01*
X107825634Y-84627781D01*
X107812846Y-84645024D01*
X107798430Y-84660930D01*
X107782524Y-84675346D01*
X107765281Y-84688134D01*
X107746868Y-84699170D01*
X107727462Y-84708349D01*
X107707250Y-84715581D01*
X107686426Y-84720797D01*
X107665191Y-84723947D01*
X107643750Y-84725000D01*
X107206250Y-84725000D01*
X107184809Y-84723947D01*
X107163574Y-84720797D01*
X107142750Y-84715581D01*
X107122538Y-84708349D01*
X107103132Y-84699170D01*
X107084719Y-84688134D01*
X107067476Y-84675346D01*
X107051570Y-84660930D01*
X107037154Y-84645024D01*
X107024366Y-84627781D01*
X107013330Y-84609368D01*
X107004151Y-84589962D01*
X106996919Y-84569750D01*
X106991703Y-84548926D01*
X106988553Y-84527691D01*
X106987500Y-84506250D01*
X106987500Y-83993750D01*
X106988553Y-83972309D01*
X106991703Y-83951074D01*
X106996919Y-83930250D01*
X107004151Y-83910038D01*
X107013330Y-83890632D01*
X107024366Y-83872219D01*
X107037154Y-83854976D01*
X107051570Y-83839070D01*
X107067476Y-83824654D01*
X107084719Y-83811866D01*
X107103132Y-83800830D01*
X107122538Y-83791651D01*
X107142750Y-83784419D01*
X107163574Y-83779203D01*
X107184809Y-83776053D01*
X107206250Y-83775000D01*
X107643750Y-83775000D01*
X107665191Y-83776053D01*
X107665191Y-83776053D01*
G37*
D13*
X107425000Y-84250000D03*
D12*
G36*
X107702691Y-81776053D02*
G01*
X107723926Y-81779203D01*
X107744750Y-81784419D01*
X107764962Y-81791651D01*
X107784368Y-81800830D01*
X107802781Y-81811866D01*
X107820024Y-81824654D01*
X107835930Y-81839070D01*
X107850346Y-81854976D01*
X107863134Y-81872219D01*
X107874170Y-81890632D01*
X107883349Y-81910038D01*
X107890581Y-81930250D01*
X107895797Y-81951074D01*
X107898947Y-81972309D01*
X107900000Y-81993750D01*
X107900000Y-82506250D01*
X107898947Y-82527691D01*
X107895797Y-82548926D01*
X107890581Y-82569750D01*
X107883349Y-82589962D01*
X107874170Y-82609368D01*
X107863134Y-82627781D01*
X107850346Y-82645024D01*
X107835930Y-82660930D01*
X107820024Y-82675346D01*
X107802781Y-82688134D01*
X107784368Y-82699170D01*
X107764962Y-82708349D01*
X107744750Y-82715581D01*
X107723926Y-82720797D01*
X107702691Y-82723947D01*
X107681250Y-82725000D01*
X107243750Y-82725000D01*
X107222309Y-82723947D01*
X107201074Y-82720797D01*
X107180250Y-82715581D01*
X107160038Y-82708349D01*
X107140632Y-82699170D01*
X107122219Y-82688134D01*
X107104976Y-82675346D01*
X107089070Y-82660930D01*
X107074654Y-82645024D01*
X107061866Y-82627781D01*
X107050830Y-82609368D01*
X107041651Y-82589962D01*
X107034419Y-82569750D01*
X107029203Y-82548926D01*
X107026053Y-82527691D01*
X107025000Y-82506250D01*
X107025000Y-81993750D01*
X107026053Y-81972309D01*
X107029203Y-81951074D01*
X107034419Y-81930250D01*
X107041651Y-81910038D01*
X107050830Y-81890632D01*
X107061866Y-81872219D01*
X107074654Y-81854976D01*
X107089070Y-81839070D01*
X107104976Y-81824654D01*
X107122219Y-81811866D01*
X107140632Y-81800830D01*
X107160038Y-81791651D01*
X107180250Y-81784419D01*
X107201074Y-81779203D01*
X107222309Y-81776053D01*
X107243750Y-81775000D01*
X107681250Y-81775000D01*
X107702691Y-81776053D01*
X107702691Y-81776053D01*
G37*
D13*
X107462500Y-82250000D03*
D12*
G36*
X109277691Y-81776053D02*
G01*
X109298926Y-81779203D01*
X109319750Y-81784419D01*
X109339962Y-81791651D01*
X109359368Y-81800830D01*
X109377781Y-81811866D01*
X109395024Y-81824654D01*
X109410930Y-81839070D01*
X109425346Y-81854976D01*
X109438134Y-81872219D01*
X109449170Y-81890632D01*
X109458349Y-81910038D01*
X109465581Y-81930250D01*
X109470797Y-81951074D01*
X109473947Y-81972309D01*
X109475000Y-81993750D01*
X109475000Y-82506250D01*
X109473947Y-82527691D01*
X109470797Y-82548926D01*
X109465581Y-82569750D01*
X109458349Y-82589962D01*
X109449170Y-82609368D01*
X109438134Y-82627781D01*
X109425346Y-82645024D01*
X109410930Y-82660930D01*
X109395024Y-82675346D01*
X109377781Y-82688134D01*
X109359368Y-82699170D01*
X109339962Y-82708349D01*
X109319750Y-82715581D01*
X109298926Y-82720797D01*
X109277691Y-82723947D01*
X109256250Y-82725000D01*
X108818750Y-82725000D01*
X108797309Y-82723947D01*
X108776074Y-82720797D01*
X108755250Y-82715581D01*
X108735038Y-82708349D01*
X108715632Y-82699170D01*
X108697219Y-82688134D01*
X108679976Y-82675346D01*
X108664070Y-82660930D01*
X108649654Y-82645024D01*
X108636866Y-82627781D01*
X108625830Y-82609368D01*
X108616651Y-82589962D01*
X108609419Y-82569750D01*
X108604203Y-82548926D01*
X108601053Y-82527691D01*
X108600000Y-82506250D01*
X108600000Y-81993750D01*
X108601053Y-81972309D01*
X108604203Y-81951074D01*
X108609419Y-81930250D01*
X108616651Y-81910038D01*
X108625830Y-81890632D01*
X108636866Y-81872219D01*
X108649654Y-81854976D01*
X108664070Y-81839070D01*
X108679976Y-81824654D01*
X108697219Y-81811866D01*
X108715632Y-81800830D01*
X108735038Y-81791651D01*
X108755250Y-81784419D01*
X108776074Y-81779203D01*
X108797309Y-81776053D01*
X108818750Y-81775000D01*
X109256250Y-81775000D01*
X109277691Y-81776053D01*
X109277691Y-81776053D01*
G37*
D13*
X109037500Y-82250000D03*
D12*
G36*
X107740191Y-79776053D02*
G01*
X107761426Y-79779203D01*
X107782250Y-79784419D01*
X107802462Y-79791651D01*
X107821868Y-79800830D01*
X107840281Y-79811866D01*
X107857524Y-79824654D01*
X107873430Y-79839070D01*
X107887846Y-79854976D01*
X107900634Y-79872219D01*
X107911670Y-79890632D01*
X107920849Y-79910038D01*
X107928081Y-79930250D01*
X107933297Y-79951074D01*
X107936447Y-79972309D01*
X107937500Y-79993750D01*
X107937500Y-80506250D01*
X107936447Y-80527691D01*
X107933297Y-80548926D01*
X107928081Y-80569750D01*
X107920849Y-80589962D01*
X107911670Y-80609368D01*
X107900634Y-80627781D01*
X107887846Y-80645024D01*
X107873430Y-80660930D01*
X107857524Y-80675346D01*
X107840281Y-80688134D01*
X107821868Y-80699170D01*
X107802462Y-80708349D01*
X107782250Y-80715581D01*
X107761426Y-80720797D01*
X107740191Y-80723947D01*
X107718750Y-80725000D01*
X107281250Y-80725000D01*
X107259809Y-80723947D01*
X107238574Y-80720797D01*
X107217750Y-80715581D01*
X107197538Y-80708349D01*
X107178132Y-80699170D01*
X107159719Y-80688134D01*
X107142476Y-80675346D01*
X107126570Y-80660930D01*
X107112154Y-80645024D01*
X107099366Y-80627781D01*
X107088330Y-80609368D01*
X107079151Y-80589962D01*
X107071919Y-80569750D01*
X107066703Y-80548926D01*
X107063553Y-80527691D01*
X107062500Y-80506250D01*
X107062500Y-79993750D01*
X107063553Y-79972309D01*
X107066703Y-79951074D01*
X107071919Y-79930250D01*
X107079151Y-79910038D01*
X107088330Y-79890632D01*
X107099366Y-79872219D01*
X107112154Y-79854976D01*
X107126570Y-79839070D01*
X107142476Y-79824654D01*
X107159719Y-79811866D01*
X107178132Y-79800830D01*
X107197538Y-79791651D01*
X107217750Y-79784419D01*
X107238574Y-79779203D01*
X107259809Y-79776053D01*
X107281250Y-79775000D01*
X107718750Y-79775000D01*
X107740191Y-79776053D01*
X107740191Y-79776053D01*
G37*
D13*
X107500000Y-80250000D03*
D12*
G36*
X109315191Y-79776053D02*
G01*
X109336426Y-79779203D01*
X109357250Y-79784419D01*
X109377462Y-79791651D01*
X109396868Y-79800830D01*
X109415281Y-79811866D01*
X109432524Y-79824654D01*
X109448430Y-79839070D01*
X109462846Y-79854976D01*
X109475634Y-79872219D01*
X109486670Y-79890632D01*
X109495849Y-79910038D01*
X109503081Y-79930250D01*
X109508297Y-79951074D01*
X109511447Y-79972309D01*
X109512500Y-79993750D01*
X109512500Y-80506250D01*
X109511447Y-80527691D01*
X109508297Y-80548926D01*
X109503081Y-80569750D01*
X109495849Y-80589962D01*
X109486670Y-80609368D01*
X109475634Y-80627781D01*
X109462846Y-80645024D01*
X109448430Y-80660930D01*
X109432524Y-80675346D01*
X109415281Y-80688134D01*
X109396868Y-80699170D01*
X109377462Y-80708349D01*
X109357250Y-80715581D01*
X109336426Y-80720797D01*
X109315191Y-80723947D01*
X109293750Y-80725000D01*
X108856250Y-80725000D01*
X108834809Y-80723947D01*
X108813574Y-80720797D01*
X108792750Y-80715581D01*
X108772538Y-80708349D01*
X108753132Y-80699170D01*
X108734719Y-80688134D01*
X108717476Y-80675346D01*
X108701570Y-80660930D01*
X108687154Y-80645024D01*
X108674366Y-80627781D01*
X108663330Y-80609368D01*
X108654151Y-80589962D01*
X108646919Y-80569750D01*
X108641703Y-80548926D01*
X108638553Y-80527691D01*
X108637500Y-80506250D01*
X108637500Y-79993750D01*
X108638553Y-79972309D01*
X108641703Y-79951074D01*
X108646919Y-79930250D01*
X108654151Y-79910038D01*
X108663330Y-79890632D01*
X108674366Y-79872219D01*
X108687154Y-79854976D01*
X108701570Y-79839070D01*
X108717476Y-79824654D01*
X108734719Y-79811866D01*
X108753132Y-79800830D01*
X108772538Y-79791651D01*
X108792750Y-79784419D01*
X108813574Y-79779203D01*
X108834809Y-79776053D01*
X108856250Y-79775000D01*
X109293750Y-79775000D01*
X109315191Y-79776053D01*
X109315191Y-79776053D01*
G37*
D13*
X109075000Y-80250000D03*
D12*
G36*
X109315191Y-77526053D02*
G01*
X109336426Y-77529203D01*
X109357250Y-77534419D01*
X109377462Y-77541651D01*
X109396868Y-77550830D01*
X109415281Y-77561866D01*
X109432524Y-77574654D01*
X109448430Y-77589070D01*
X109462846Y-77604976D01*
X109475634Y-77622219D01*
X109486670Y-77640632D01*
X109495849Y-77660038D01*
X109503081Y-77680250D01*
X109508297Y-77701074D01*
X109511447Y-77722309D01*
X109512500Y-77743750D01*
X109512500Y-78256250D01*
X109511447Y-78277691D01*
X109508297Y-78298926D01*
X109503081Y-78319750D01*
X109495849Y-78339962D01*
X109486670Y-78359368D01*
X109475634Y-78377781D01*
X109462846Y-78395024D01*
X109448430Y-78410930D01*
X109432524Y-78425346D01*
X109415281Y-78438134D01*
X109396868Y-78449170D01*
X109377462Y-78458349D01*
X109357250Y-78465581D01*
X109336426Y-78470797D01*
X109315191Y-78473947D01*
X109293750Y-78475000D01*
X108856250Y-78475000D01*
X108834809Y-78473947D01*
X108813574Y-78470797D01*
X108792750Y-78465581D01*
X108772538Y-78458349D01*
X108753132Y-78449170D01*
X108734719Y-78438134D01*
X108717476Y-78425346D01*
X108701570Y-78410930D01*
X108687154Y-78395024D01*
X108674366Y-78377781D01*
X108663330Y-78359368D01*
X108654151Y-78339962D01*
X108646919Y-78319750D01*
X108641703Y-78298926D01*
X108638553Y-78277691D01*
X108637500Y-78256250D01*
X108637500Y-77743750D01*
X108638553Y-77722309D01*
X108641703Y-77701074D01*
X108646919Y-77680250D01*
X108654151Y-77660038D01*
X108663330Y-77640632D01*
X108674366Y-77622219D01*
X108687154Y-77604976D01*
X108701570Y-77589070D01*
X108717476Y-77574654D01*
X108734719Y-77561866D01*
X108753132Y-77550830D01*
X108772538Y-77541651D01*
X108792750Y-77534419D01*
X108813574Y-77529203D01*
X108834809Y-77526053D01*
X108856250Y-77525000D01*
X109293750Y-77525000D01*
X109315191Y-77526053D01*
X109315191Y-77526053D01*
G37*
D13*
X109075000Y-78000000D03*
D12*
G36*
X107740191Y-77526053D02*
G01*
X107761426Y-77529203D01*
X107782250Y-77534419D01*
X107802462Y-77541651D01*
X107821868Y-77550830D01*
X107840281Y-77561866D01*
X107857524Y-77574654D01*
X107873430Y-77589070D01*
X107887846Y-77604976D01*
X107900634Y-77622219D01*
X107911670Y-77640632D01*
X107920849Y-77660038D01*
X107928081Y-77680250D01*
X107933297Y-77701074D01*
X107936447Y-77722309D01*
X107937500Y-77743750D01*
X107937500Y-78256250D01*
X107936447Y-78277691D01*
X107933297Y-78298926D01*
X107928081Y-78319750D01*
X107920849Y-78339962D01*
X107911670Y-78359368D01*
X107900634Y-78377781D01*
X107887846Y-78395024D01*
X107873430Y-78410930D01*
X107857524Y-78425346D01*
X107840281Y-78438134D01*
X107821868Y-78449170D01*
X107802462Y-78458349D01*
X107782250Y-78465581D01*
X107761426Y-78470797D01*
X107740191Y-78473947D01*
X107718750Y-78475000D01*
X107281250Y-78475000D01*
X107259809Y-78473947D01*
X107238574Y-78470797D01*
X107217750Y-78465581D01*
X107197538Y-78458349D01*
X107178132Y-78449170D01*
X107159719Y-78438134D01*
X107142476Y-78425346D01*
X107126570Y-78410930D01*
X107112154Y-78395024D01*
X107099366Y-78377781D01*
X107088330Y-78359368D01*
X107079151Y-78339962D01*
X107071919Y-78319750D01*
X107066703Y-78298926D01*
X107063553Y-78277691D01*
X107062500Y-78256250D01*
X107062500Y-77743750D01*
X107063553Y-77722309D01*
X107066703Y-77701074D01*
X107071919Y-77680250D01*
X107079151Y-77660038D01*
X107088330Y-77640632D01*
X107099366Y-77622219D01*
X107112154Y-77604976D01*
X107126570Y-77589070D01*
X107142476Y-77574654D01*
X107159719Y-77561866D01*
X107178132Y-77550830D01*
X107197538Y-77541651D01*
X107217750Y-77534419D01*
X107238574Y-77529203D01*
X107259809Y-77526053D01*
X107281250Y-77525000D01*
X107718750Y-77525000D01*
X107740191Y-77526053D01*
X107740191Y-77526053D01*
G37*
D13*
X107500000Y-78000000D03*
D12*
G36*
X109315191Y-75526053D02*
G01*
X109336426Y-75529203D01*
X109357250Y-75534419D01*
X109377462Y-75541651D01*
X109396868Y-75550830D01*
X109415281Y-75561866D01*
X109432524Y-75574654D01*
X109448430Y-75589070D01*
X109462846Y-75604976D01*
X109475634Y-75622219D01*
X109486670Y-75640632D01*
X109495849Y-75660038D01*
X109503081Y-75680250D01*
X109508297Y-75701074D01*
X109511447Y-75722309D01*
X109512500Y-75743750D01*
X109512500Y-76256250D01*
X109511447Y-76277691D01*
X109508297Y-76298926D01*
X109503081Y-76319750D01*
X109495849Y-76339962D01*
X109486670Y-76359368D01*
X109475634Y-76377781D01*
X109462846Y-76395024D01*
X109448430Y-76410930D01*
X109432524Y-76425346D01*
X109415281Y-76438134D01*
X109396868Y-76449170D01*
X109377462Y-76458349D01*
X109357250Y-76465581D01*
X109336426Y-76470797D01*
X109315191Y-76473947D01*
X109293750Y-76475000D01*
X108856250Y-76475000D01*
X108834809Y-76473947D01*
X108813574Y-76470797D01*
X108792750Y-76465581D01*
X108772538Y-76458349D01*
X108753132Y-76449170D01*
X108734719Y-76438134D01*
X108717476Y-76425346D01*
X108701570Y-76410930D01*
X108687154Y-76395024D01*
X108674366Y-76377781D01*
X108663330Y-76359368D01*
X108654151Y-76339962D01*
X108646919Y-76319750D01*
X108641703Y-76298926D01*
X108638553Y-76277691D01*
X108637500Y-76256250D01*
X108637500Y-75743750D01*
X108638553Y-75722309D01*
X108641703Y-75701074D01*
X108646919Y-75680250D01*
X108654151Y-75660038D01*
X108663330Y-75640632D01*
X108674366Y-75622219D01*
X108687154Y-75604976D01*
X108701570Y-75589070D01*
X108717476Y-75574654D01*
X108734719Y-75561866D01*
X108753132Y-75550830D01*
X108772538Y-75541651D01*
X108792750Y-75534419D01*
X108813574Y-75529203D01*
X108834809Y-75526053D01*
X108856250Y-75525000D01*
X109293750Y-75525000D01*
X109315191Y-75526053D01*
X109315191Y-75526053D01*
G37*
D13*
X109075000Y-76000000D03*
D12*
G36*
X107740191Y-75526053D02*
G01*
X107761426Y-75529203D01*
X107782250Y-75534419D01*
X107802462Y-75541651D01*
X107821868Y-75550830D01*
X107840281Y-75561866D01*
X107857524Y-75574654D01*
X107873430Y-75589070D01*
X107887846Y-75604976D01*
X107900634Y-75622219D01*
X107911670Y-75640632D01*
X107920849Y-75660038D01*
X107928081Y-75680250D01*
X107933297Y-75701074D01*
X107936447Y-75722309D01*
X107937500Y-75743750D01*
X107937500Y-76256250D01*
X107936447Y-76277691D01*
X107933297Y-76298926D01*
X107928081Y-76319750D01*
X107920849Y-76339962D01*
X107911670Y-76359368D01*
X107900634Y-76377781D01*
X107887846Y-76395024D01*
X107873430Y-76410930D01*
X107857524Y-76425346D01*
X107840281Y-76438134D01*
X107821868Y-76449170D01*
X107802462Y-76458349D01*
X107782250Y-76465581D01*
X107761426Y-76470797D01*
X107740191Y-76473947D01*
X107718750Y-76475000D01*
X107281250Y-76475000D01*
X107259809Y-76473947D01*
X107238574Y-76470797D01*
X107217750Y-76465581D01*
X107197538Y-76458349D01*
X107178132Y-76449170D01*
X107159719Y-76438134D01*
X107142476Y-76425346D01*
X107126570Y-76410930D01*
X107112154Y-76395024D01*
X107099366Y-76377781D01*
X107088330Y-76359368D01*
X107079151Y-76339962D01*
X107071919Y-76319750D01*
X107066703Y-76298926D01*
X107063553Y-76277691D01*
X107062500Y-76256250D01*
X107062500Y-75743750D01*
X107063553Y-75722309D01*
X107066703Y-75701074D01*
X107071919Y-75680250D01*
X107079151Y-75660038D01*
X107088330Y-75640632D01*
X107099366Y-75622219D01*
X107112154Y-75604976D01*
X107126570Y-75589070D01*
X107142476Y-75574654D01*
X107159719Y-75561866D01*
X107178132Y-75550830D01*
X107197538Y-75541651D01*
X107217750Y-75534419D01*
X107238574Y-75529203D01*
X107259809Y-75526053D01*
X107281250Y-75525000D01*
X107718750Y-75525000D01*
X107740191Y-75526053D01*
X107740191Y-75526053D01*
G37*
D13*
X107500000Y-76000000D03*
D12*
G36*
X109277691Y-73276053D02*
G01*
X109298926Y-73279203D01*
X109319750Y-73284419D01*
X109339962Y-73291651D01*
X109359368Y-73300830D01*
X109377781Y-73311866D01*
X109395024Y-73324654D01*
X109410930Y-73339070D01*
X109425346Y-73354976D01*
X109438134Y-73372219D01*
X109449170Y-73390632D01*
X109458349Y-73410038D01*
X109465581Y-73430250D01*
X109470797Y-73451074D01*
X109473947Y-73472309D01*
X109475000Y-73493750D01*
X109475000Y-74006250D01*
X109473947Y-74027691D01*
X109470797Y-74048926D01*
X109465581Y-74069750D01*
X109458349Y-74089962D01*
X109449170Y-74109368D01*
X109438134Y-74127781D01*
X109425346Y-74145024D01*
X109410930Y-74160930D01*
X109395024Y-74175346D01*
X109377781Y-74188134D01*
X109359368Y-74199170D01*
X109339962Y-74208349D01*
X109319750Y-74215581D01*
X109298926Y-74220797D01*
X109277691Y-74223947D01*
X109256250Y-74225000D01*
X108818750Y-74225000D01*
X108797309Y-74223947D01*
X108776074Y-74220797D01*
X108755250Y-74215581D01*
X108735038Y-74208349D01*
X108715632Y-74199170D01*
X108697219Y-74188134D01*
X108679976Y-74175346D01*
X108664070Y-74160930D01*
X108649654Y-74145024D01*
X108636866Y-74127781D01*
X108625830Y-74109368D01*
X108616651Y-74089962D01*
X108609419Y-74069750D01*
X108604203Y-74048926D01*
X108601053Y-74027691D01*
X108600000Y-74006250D01*
X108600000Y-73493750D01*
X108601053Y-73472309D01*
X108604203Y-73451074D01*
X108609419Y-73430250D01*
X108616651Y-73410038D01*
X108625830Y-73390632D01*
X108636866Y-73372219D01*
X108649654Y-73354976D01*
X108664070Y-73339070D01*
X108679976Y-73324654D01*
X108697219Y-73311866D01*
X108715632Y-73300830D01*
X108735038Y-73291651D01*
X108755250Y-73284419D01*
X108776074Y-73279203D01*
X108797309Y-73276053D01*
X108818750Y-73275000D01*
X109256250Y-73275000D01*
X109277691Y-73276053D01*
X109277691Y-73276053D01*
G37*
D13*
X109037500Y-73750000D03*
D12*
G36*
X107702691Y-73276053D02*
G01*
X107723926Y-73279203D01*
X107744750Y-73284419D01*
X107764962Y-73291651D01*
X107784368Y-73300830D01*
X107802781Y-73311866D01*
X107820024Y-73324654D01*
X107835930Y-73339070D01*
X107850346Y-73354976D01*
X107863134Y-73372219D01*
X107874170Y-73390632D01*
X107883349Y-73410038D01*
X107890581Y-73430250D01*
X107895797Y-73451074D01*
X107898947Y-73472309D01*
X107900000Y-73493750D01*
X107900000Y-74006250D01*
X107898947Y-74027691D01*
X107895797Y-74048926D01*
X107890581Y-74069750D01*
X107883349Y-74089962D01*
X107874170Y-74109368D01*
X107863134Y-74127781D01*
X107850346Y-74145024D01*
X107835930Y-74160930D01*
X107820024Y-74175346D01*
X107802781Y-74188134D01*
X107784368Y-74199170D01*
X107764962Y-74208349D01*
X107744750Y-74215581D01*
X107723926Y-74220797D01*
X107702691Y-74223947D01*
X107681250Y-74225000D01*
X107243750Y-74225000D01*
X107222309Y-74223947D01*
X107201074Y-74220797D01*
X107180250Y-74215581D01*
X107160038Y-74208349D01*
X107140632Y-74199170D01*
X107122219Y-74188134D01*
X107104976Y-74175346D01*
X107089070Y-74160930D01*
X107074654Y-74145024D01*
X107061866Y-74127781D01*
X107050830Y-74109368D01*
X107041651Y-74089962D01*
X107034419Y-74069750D01*
X107029203Y-74048926D01*
X107026053Y-74027691D01*
X107025000Y-74006250D01*
X107025000Y-73493750D01*
X107026053Y-73472309D01*
X107029203Y-73451074D01*
X107034419Y-73430250D01*
X107041651Y-73410038D01*
X107050830Y-73390632D01*
X107061866Y-73372219D01*
X107074654Y-73354976D01*
X107089070Y-73339070D01*
X107104976Y-73324654D01*
X107122219Y-73311866D01*
X107140632Y-73300830D01*
X107160038Y-73291651D01*
X107180250Y-73284419D01*
X107201074Y-73279203D01*
X107222309Y-73276053D01*
X107243750Y-73275000D01*
X107681250Y-73275000D01*
X107702691Y-73276053D01*
X107702691Y-73276053D01*
G37*
D13*
X107462500Y-73750000D03*
D12*
G36*
X109277691Y-71488553D02*
G01*
X109298926Y-71491703D01*
X109319750Y-71496919D01*
X109339962Y-71504151D01*
X109359368Y-71513330D01*
X109377781Y-71524366D01*
X109395024Y-71537154D01*
X109410930Y-71551570D01*
X109425346Y-71567476D01*
X109438134Y-71584719D01*
X109449170Y-71603132D01*
X109458349Y-71622538D01*
X109465581Y-71642750D01*
X109470797Y-71663574D01*
X109473947Y-71684809D01*
X109475000Y-71706250D01*
X109475000Y-72218750D01*
X109473947Y-72240191D01*
X109470797Y-72261426D01*
X109465581Y-72282250D01*
X109458349Y-72302462D01*
X109449170Y-72321868D01*
X109438134Y-72340281D01*
X109425346Y-72357524D01*
X109410930Y-72373430D01*
X109395024Y-72387846D01*
X109377781Y-72400634D01*
X109359368Y-72411670D01*
X109339962Y-72420849D01*
X109319750Y-72428081D01*
X109298926Y-72433297D01*
X109277691Y-72436447D01*
X109256250Y-72437500D01*
X108818750Y-72437500D01*
X108797309Y-72436447D01*
X108776074Y-72433297D01*
X108755250Y-72428081D01*
X108735038Y-72420849D01*
X108715632Y-72411670D01*
X108697219Y-72400634D01*
X108679976Y-72387846D01*
X108664070Y-72373430D01*
X108649654Y-72357524D01*
X108636866Y-72340281D01*
X108625830Y-72321868D01*
X108616651Y-72302462D01*
X108609419Y-72282250D01*
X108604203Y-72261426D01*
X108601053Y-72240191D01*
X108600000Y-72218750D01*
X108600000Y-71706250D01*
X108601053Y-71684809D01*
X108604203Y-71663574D01*
X108609419Y-71642750D01*
X108616651Y-71622538D01*
X108625830Y-71603132D01*
X108636866Y-71584719D01*
X108649654Y-71567476D01*
X108664070Y-71551570D01*
X108679976Y-71537154D01*
X108697219Y-71524366D01*
X108715632Y-71513330D01*
X108735038Y-71504151D01*
X108755250Y-71496919D01*
X108776074Y-71491703D01*
X108797309Y-71488553D01*
X108818750Y-71487500D01*
X109256250Y-71487500D01*
X109277691Y-71488553D01*
X109277691Y-71488553D01*
G37*
D13*
X109037500Y-71962500D03*
D12*
G36*
X107702691Y-71488553D02*
G01*
X107723926Y-71491703D01*
X107744750Y-71496919D01*
X107764962Y-71504151D01*
X107784368Y-71513330D01*
X107802781Y-71524366D01*
X107820024Y-71537154D01*
X107835930Y-71551570D01*
X107850346Y-71567476D01*
X107863134Y-71584719D01*
X107874170Y-71603132D01*
X107883349Y-71622538D01*
X107890581Y-71642750D01*
X107895797Y-71663574D01*
X107898947Y-71684809D01*
X107900000Y-71706250D01*
X107900000Y-72218750D01*
X107898947Y-72240191D01*
X107895797Y-72261426D01*
X107890581Y-72282250D01*
X107883349Y-72302462D01*
X107874170Y-72321868D01*
X107863134Y-72340281D01*
X107850346Y-72357524D01*
X107835930Y-72373430D01*
X107820024Y-72387846D01*
X107802781Y-72400634D01*
X107784368Y-72411670D01*
X107764962Y-72420849D01*
X107744750Y-72428081D01*
X107723926Y-72433297D01*
X107702691Y-72436447D01*
X107681250Y-72437500D01*
X107243750Y-72437500D01*
X107222309Y-72436447D01*
X107201074Y-72433297D01*
X107180250Y-72428081D01*
X107160038Y-72420849D01*
X107140632Y-72411670D01*
X107122219Y-72400634D01*
X107104976Y-72387846D01*
X107089070Y-72373430D01*
X107074654Y-72357524D01*
X107061866Y-72340281D01*
X107050830Y-72321868D01*
X107041651Y-72302462D01*
X107034419Y-72282250D01*
X107029203Y-72261426D01*
X107026053Y-72240191D01*
X107025000Y-72218750D01*
X107025000Y-71706250D01*
X107026053Y-71684809D01*
X107029203Y-71663574D01*
X107034419Y-71642750D01*
X107041651Y-71622538D01*
X107050830Y-71603132D01*
X107061866Y-71584719D01*
X107074654Y-71567476D01*
X107089070Y-71551570D01*
X107104976Y-71537154D01*
X107122219Y-71524366D01*
X107140632Y-71513330D01*
X107160038Y-71504151D01*
X107180250Y-71496919D01*
X107201074Y-71491703D01*
X107222309Y-71488553D01*
X107243750Y-71487500D01*
X107681250Y-71487500D01*
X107702691Y-71488553D01*
X107702691Y-71488553D01*
G37*
D13*
X107462500Y-71962500D03*
M02*
