G04 #@! TF.FileFunction,Copper,L1,Top,Signal*
%FSLAX46Y46*%
G04 Gerber Fmt 4.6, Leading zero omitted, Abs format (unit mm)*
G04 Created by KiCad (PCBNEW 4.0.7-e2-6376~58~ubuntu16.04.1) date Thu Jan 11 09:51:09 2018*
%MOMM*%
%LPD*%
G01*
G04 APERTURE LIST*
%ADD10C,0.100000*%
%ADD11R,2.400000X2.400000*%
%ADD12C,2.400000*%
%ADD13R,1.000000X0.670000*%
%ADD14R,2.800000X2.800000*%
%ADD15C,2.800000*%
%ADD16R,0.500000X0.500000*%
%ADD17R,2.400000X3.400000*%
%ADD18C,1.000000*%
%ADD19C,0.300000*%
%ADD20C,0.254000*%
G04 APERTURE END LIST*
D10*
D11*
X121158000Y-81788000D03*
D12*
X116158000Y-81788000D03*
D13*
X109474000Y-72418000D03*
X109474000Y-74168000D03*
X126238000Y-74168000D03*
X126238000Y-72418000D03*
D14*
X104899326Y-76759136D03*
D15*
X104899326Y-72559136D03*
D14*
X116958000Y-86868000D03*
D15*
X121158000Y-86868000D03*
D14*
X133350000Y-76708000D03*
D15*
X133350000Y-72508000D03*
D16*
X114382000Y-72685000D03*
X114382000Y-73335000D03*
X114382000Y-73985000D03*
X114382000Y-74635000D03*
D17*
X116332000Y-73660000D03*
D16*
X123616000Y-74635000D03*
X123616000Y-73985000D03*
X123616000Y-73335000D03*
X123616000Y-72685000D03*
D17*
X121666000Y-73660000D03*
D13*
X109474000Y-75720000D03*
X109474000Y-77470000D03*
X126238000Y-77724000D03*
X126238000Y-79474000D03*
X112268000Y-76172000D03*
X112268000Y-74422000D03*
X128524000Y-70640000D03*
X128524000Y-72390000D03*
D18*
X130528000Y-79474000D02*
X130560000Y-79442000D01*
X130560000Y-79442000D02*
X130560000Y-76708000D01*
X126238000Y-79474000D02*
X130528000Y-79474000D01*
X133350000Y-76708000D02*
X133350000Y-89662000D01*
X117606000Y-89916000D02*
X116958000Y-89268000D01*
X133350000Y-89662000D02*
X133096000Y-89916000D01*
X133096000Y-89916000D02*
X117606000Y-89916000D01*
X116958000Y-89268000D02*
X116958000Y-86868000D01*
X130560000Y-76708000D02*
X133350000Y-76708000D01*
X116158000Y-81788000D02*
X114460944Y-81788000D01*
X114460944Y-81788000D02*
X112268000Y-79595056D01*
X112268000Y-79595056D02*
X112268000Y-77470000D01*
D19*
X114018000Y-76172000D02*
X114382000Y-75808000D01*
X114382000Y-75808000D02*
X114382000Y-74635000D01*
X112268000Y-76172000D02*
X114018000Y-76172000D01*
D18*
X112268000Y-77470000D02*
X112268000Y-76172000D01*
X109474000Y-77470000D02*
X112268000Y-77470000D01*
X107847728Y-77470000D02*
X109474000Y-77470000D01*
X107136864Y-76759136D02*
X107847728Y-77470000D01*
X104899326Y-76759136D02*
X107136864Y-76759136D01*
X116158000Y-81788000D02*
X116158000Y-83485056D01*
X116158000Y-83485056D02*
X116958000Y-84285056D01*
X116958000Y-84285056D02*
X116958000Y-86868000D01*
X116078000Y-81868000D02*
X116158000Y-81788000D01*
X109474000Y-74168000D02*
X109474000Y-75720000D01*
X126238000Y-72418000D02*
X128496000Y-72418000D01*
X128496000Y-72418000D02*
X128524000Y-72390000D01*
D19*
X123616000Y-72685000D02*
X123616000Y-69170000D01*
X123616000Y-69170000D02*
X123698000Y-69088000D01*
D18*
X111469000Y-69088000D02*
X123698000Y-69088000D01*
X123698000Y-69088000D02*
X124714000Y-69088000D01*
X126238000Y-70640000D02*
X127024000Y-70640000D01*
X124714000Y-69088000D02*
X126238000Y-70612000D01*
X126238000Y-70612000D02*
X126238000Y-70640000D01*
X109474000Y-71083000D02*
X111469000Y-69088000D01*
X109474000Y-72418000D02*
X109474000Y-71083000D01*
X127024000Y-70640000D02*
X128524000Y-70640000D01*
X109474000Y-71083000D02*
X109917000Y-70640000D01*
X109474000Y-72418000D02*
X112268000Y-72418000D01*
X112268000Y-72418000D02*
X113256000Y-72418000D01*
X112268000Y-74422000D02*
X112268000Y-72418000D01*
D19*
X114382000Y-73335000D02*
X114382000Y-73985000D01*
X114382000Y-72685000D02*
X114382000Y-73335000D01*
X113256000Y-72418000D02*
X113523000Y-72685000D01*
X113523000Y-72685000D02*
X114382000Y-72685000D01*
D18*
X109474000Y-72418000D02*
X105040462Y-72418000D01*
X105040462Y-72418000D02*
X104899326Y-72559136D01*
X126238000Y-77724000D02*
X126238000Y-74168000D01*
X126238000Y-74168000D02*
X129540000Y-74168000D01*
X129540000Y-74168000D02*
X131200000Y-72508000D01*
X131200000Y-72508000D02*
X133350000Y-72508000D01*
D19*
X123616000Y-73985000D02*
X126055000Y-73985000D01*
X126055000Y-73985000D02*
X126238000Y-74168000D01*
X123616000Y-73985000D02*
X123616000Y-74635000D01*
X123616000Y-73335000D02*
X123616000Y-73985000D01*
D18*
X121158000Y-81788000D02*
X121158000Y-86868000D01*
X121158000Y-81788000D02*
X121158000Y-76868000D01*
X121158000Y-76868000D02*
X121666000Y-76360000D01*
X121666000Y-73660000D02*
X121666000Y-76360000D01*
X116332000Y-73660000D02*
X121666000Y-73660000D01*
D20*
G36*
X129667000Y-70993000D02*
X129405000Y-70993000D01*
X129405000Y-70862250D01*
X129309750Y-70767000D01*
X128651000Y-70767000D01*
X128651000Y-70787000D01*
X128397000Y-70787000D01*
X128397000Y-70767000D01*
X127738250Y-70767000D01*
X127643000Y-70862250D01*
X127643000Y-70993000D01*
X124714000Y-70993000D01*
X124664590Y-71003006D01*
X124622965Y-71031447D01*
X124595685Y-71073841D01*
X124587000Y-71120000D01*
X124587000Y-72771000D01*
X124081324Y-72771000D01*
X124017134Y-72727141D01*
X123866000Y-72696536D01*
X123571000Y-72696536D01*
X123571000Y-72149250D01*
X123741000Y-72149250D01*
X123741000Y-72560000D01*
X124151750Y-72560000D01*
X124247000Y-72464750D01*
X124247000Y-72359215D01*
X124188996Y-72219181D01*
X124081820Y-72112004D01*
X123941786Y-72054000D01*
X123836250Y-72054000D01*
X123741000Y-72149250D01*
X123571000Y-72149250D01*
X123571000Y-70358000D01*
X123560994Y-70308590D01*
X123532553Y-70266965D01*
X123490159Y-70239685D01*
X123444000Y-70231000D01*
X114554000Y-70231000D01*
X114504590Y-70241006D01*
X114462965Y-70269447D01*
X114435685Y-70311841D01*
X114427000Y-70358000D01*
X114427000Y-73996536D01*
X114132000Y-73996536D01*
X113990810Y-74023103D01*
X113962997Y-74041000D01*
X113284000Y-74041000D01*
X113234590Y-74051006D01*
X113192965Y-74079447D01*
X113165685Y-74121841D01*
X113157000Y-74168000D01*
X113157000Y-75311000D01*
X112368547Y-75311000D01*
X112268000Y-75291000D01*
X112167453Y-75311000D01*
X111379000Y-75311000D01*
X111379000Y-74644250D01*
X111387000Y-74644250D01*
X111387000Y-74832786D01*
X111445004Y-74972820D01*
X111552181Y-75079996D01*
X111692215Y-75138000D01*
X112045750Y-75138000D01*
X112141000Y-75042750D01*
X112141000Y-74549000D01*
X112395000Y-74549000D01*
X112395000Y-75042750D01*
X112490250Y-75138000D01*
X112843785Y-75138000D01*
X112983819Y-75079996D01*
X113090996Y-74972820D01*
X113149000Y-74832786D01*
X113149000Y-74644250D01*
X113053750Y-74549000D01*
X112395000Y-74549000D01*
X112141000Y-74549000D01*
X111482250Y-74549000D01*
X111387000Y-74644250D01*
X111379000Y-74644250D01*
X111379000Y-74011214D01*
X111387000Y-74011214D01*
X111387000Y-74199750D01*
X111482250Y-74295000D01*
X112141000Y-74295000D01*
X112141000Y-73801250D01*
X112395000Y-73801250D01*
X112395000Y-74295000D01*
X113053750Y-74295000D01*
X113149000Y-74199750D01*
X113149000Y-74011214D01*
X113090996Y-73871180D01*
X112983819Y-73764004D01*
X112843785Y-73706000D01*
X112490250Y-73706000D01*
X112395000Y-73801250D01*
X112141000Y-73801250D01*
X112045750Y-73706000D01*
X111692215Y-73706000D01*
X111552181Y-73764004D01*
X111445004Y-73871180D01*
X111387000Y-74011214D01*
X111379000Y-74011214D01*
X111379000Y-73555250D01*
X113751000Y-73555250D01*
X113751000Y-73764750D01*
X113846250Y-73860000D01*
X113868184Y-73860000D01*
X113916180Y-73907996D01*
X114056214Y-73966000D01*
X114161750Y-73966000D01*
X114257000Y-73870750D01*
X114257000Y-73449250D01*
X114161750Y-73354000D01*
X114056214Y-73354000D01*
X113916180Y-73412004D01*
X113868184Y-73460000D01*
X113846250Y-73460000D01*
X113751000Y-73555250D01*
X111379000Y-73555250D01*
X111379000Y-73406000D01*
X111368994Y-73356590D01*
X111340553Y-73314965D01*
X111298159Y-73287685D01*
X111252000Y-73279000D01*
X107442000Y-73279000D01*
X107392590Y-73289006D01*
X107350965Y-73317447D01*
X107323685Y-73359841D01*
X107315000Y-73406000D01*
X107315000Y-74549000D01*
X101802000Y-74549000D01*
X101802000Y-73862298D01*
X103775769Y-73862298D01*
X103937331Y-74099275D01*
X104599944Y-74350178D01*
X105308136Y-74328412D01*
X105861321Y-74099275D01*
X106022883Y-73862298D01*
X104899326Y-72738741D01*
X103775769Y-73862298D01*
X101802000Y-73862298D01*
X101802000Y-72259754D01*
X103108284Y-72259754D01*
X103130050Y-72967946D01*
X103359187Y-73521131D01*
X103596164Y-73682693D01*
X104719721Y-72559136D01*
X105078931Y-72559136D01*
X106202488Y-73682693D01*
X106439465Y-73521131D01*
X106690368Y-72858518D01*
X106683660Y-72640250D01*
X108593000Y-72640250D01*
X108593000Y-72828786D01*
X108651004Y-72968820D01*
X108758181Y-73075996D01*
X108898215Y-73134000D01*
X109251750Y-73134000D01*
X109347000Y-73038750D01*
X109347000Y-72545000D01*
X109601000Y-72545000D01*
X109601000Y-73038750D01*
X109696250Y-73134000D01*
X110049785Y-73134000D01*
X110189819Y-73075996D01*
X110296996Y-72968820D01*
X110323327Y-72905250D01*
X113751000Y-72905250D01*
X113751000Y-73114750D01*
X113846250Y-73210000D01*
X113868184Y-73210000D01*
X113916180Y-73257996D01*
X114056214Y-73316000D01*
X114161750Y-73316000D01*
X114257000Y-73220750D01*
X114257000Y-72799250D01*
X114161750Y-72704000D01*
X114056214Y-72704000D01*
X113916180Y-72762004D01*
X113868184Y-72810000D01*
X113846250Y-72810000D01*
X113751000Y-72905250D01*
X110323327Y-72905250D01*
X110355000Y-72828786D01*
X110355000Y-72640250D01*
X110259750Y-72545000D01*
X109601000Y-72545000D01*
X109347000Y-72545000D01*
X108688250Y-72545000D01*
X108593000Y-72640250D01*
X106683660Y-72640250D01*
X106675023Y-72359215D01*
X113751000Y-72359215D01*
X113751000Y-72464750D01*
X113846250Y-72560000D01*
X114257000Y-72560000D01*
X114257000Y-72149250D01*
X114161750Y-72054000D01*
X114056214Y-72054000D01*
X113916180Y-72112004D01*
X113809004Y-72219181D01*
X113751000Y-72359215D01*
X106675023Y-72359215D01*
X106668602Y-72150326D01*
X106609323Y-72007214D01*
X108593000Y-72007214D01*
X108593000Y-72195750D01*
X108688250Y-72291000D01*
X109347000Y-72291000D01*
X109347000Y-71797250D01*
X109601000Y-71797250D01*
X109601000Y-72291000D01*
X110259750Y-72291000D01*
X110355000Y-72195750D01*
X110355000Y-72007214D01*
X110296996Y-71867180D01*
X110189819Y-71760004D01*
X110049785Y-71702000D01*
X109696250Y-71702000D01*
X109601000Y-71797250D01*
X109347000Y-71797250D01*
X109251750Y-71702000D01*
X108898215Y-71702000D01*
X108758181Y-71760004D01*
X108651004Y-71867180D01*
X108593000Y-72007214D01*
X106609323Y-72007214D01*
X106439465Y-71597141D01*
X106202488Y-71435579D01*
X105078931Y-72559136D01*
X104719721Y-72559136D01*
X103596164Y-71435579D01*
X103359187Y-71597141D01*
X103108284Y-72259754D01*
X101802000Y-72259754D01*
X101802000Y-71255974D01*
X103775769Y-71255974D01*
X104899326Y-72379531D01*
X106022883Y-71255974D01*
X105861321Y-71018997D01*
X105198708Y-70768094D01*
X104490516Y-70789860D01*
X103937331Y-71018997D01*
X103775769Y-71255974D01*
X101802000Y-71255974D01*
X101802000Y-70229214D01*
X127643000Y-70229214D01*
X127643000Y-70417750D01*
X127738250Y-70513000D01*
X128397000Y-70513000D01*
X128397000Y-70019250D01*
X128651000Y-70019250D01*
X128651000Y-70513000D01*
X129309750Y-70513000D01*
X129405000Y-70417750D01*
X129405000Y-70229214D01*
X129346996Y-70089180D01*
X129239819Y-69982004D01*
X129099785Y-69924000D01*
X128746250Y-69924000D01*
X128651000Y-70019250D01*
X128397000Y-70019250D01*
X128301750Y-69924000D01*
X127948215Y-69924000D01*
X127808181Y-69982004D01*
X127701004Y-70089180D01*
X127643000Y-70229214D01*
X101802000Y-70229214D01*
X101802000Y-67766000D01*
X129667000Y-67766000D01*
X129667000Y-70993000D01*
X129667000Y-70993000D01*
G37*
X129667000Y-70993000D02*
X129405000Y-70993000D01*
X129405000Y-70862250D01*
X129309750Y-70767000D01*
X128651000Y-70767000D01*
X128651000Y-70787000D01*
X128397000Y-70787000D01*
X128397000Y-70767000D01*
X127738250Y-70767000D01*
X127643000Y-70862250D01*
X127643000Y-70993000D01*
X124714000Y-70993000D01*
X124664590Y-71003006D01*
X124622965Y-71031447D01*
X124595685Y-71073841D01*
X124587000Y-71120000D01*
X124587000Y-72771000D01*
X124081324Y-72771000D01*
X124017134Y-72727141D01*
X123866000Y-72696536D01*
X123571000Y-72696536D01*
X123571000Y-72149250D01*
X123741000Y-72149250D01*
X123741000Y-72560000D01*
X124151750Y-72560000D01*
X124247000Y-72464750D01*
X124247000Y-72359215D01*
X124188996Y-72219181D01*
X124081820Y-72112004D01*
X123941786Y-72054000D01*
X123836250Y-72054000D01*
X123741000Y-72149250D01*
X123571000Y-72149250D01*
X123571000Y-70358000D01*
X123560994Y-70308590D01*
X123532553Y-70266965D01*
X123490159Y-70239685D01*
X123444000Y-70231000D01*
X114554000Y-70231000D01*
X114504590Y-70241006D01*
X114462965Y-70269447D01*
X114435685Y-70311841D01*
X114427000Y-70358000D01*
X114427000Y-73996536D01*
X114132000Y-73996536D01*
X113990810Y-74023103D01*
X113962997Y-74041000D01*
X113284000Y-74041000D01*
X113234590Y-74051006D01*
X113192965Y-74079447D01*
X113165685Y-74121841D01*
X113157000Y-74168000D01*
X113157000Y-75311000D01*
X112368547Y-75311000D01*
X112268000Y-75291000D01*
X112167453Y-75311000D01*
X111379000Y-75311000D01*
X111379000Y-74644250D01*
X111387000Y-74644250D01*
X111387000Y-74832786D01*
X111445004Y-74972820D01*
X111552181Y-75079996D01*
X111692215Y-75138000D01*
X112045750Y-75138000D01*
X112141000Y-75042750D01*
X112141000Y-74549000D01*
X112395000Y-74549000D01*
X112395000Y-75042750D01*
X112490250Y-75138000D01*
X112843785Y-75138000D01*
X112983819Y-75079996D01*
X113090996Y-74972820D01*
X113149000Y-74832786D01*
X113149000Y-74644250D01*
X113053750Y-74549000D01*
X112395000Y-74549000D01*
X112141000Y-74549000D01*
X111482250Y-74549000D01*
X111387000Y-74644250D01*
X111379000Y-74644250D01*
X111379000Y-74011214D01*
X111387000Y-74011214D01*
X111387000Y-74199750D01*
X111482250Y-74295000D01*
X112141000Y-74295000D01*
X112141000Y-73801250D01*
X112395000Y-73801250D01*
X112395000Y-74295000D01*
X113053750Y-74295000D01*
X113149000Y-74199750D01*
X113149000Y-74011214D01*
X113090996Y-73871180D01*
X112983819Y-73764004D01*
X112843785Y-73706000D01*
X112490250Y-73706000D01*
X112395000Y-73801250D01*
X112141000Y-73801250D01*
X112045750Y-73706000D01*
X111692215Y-73706000D01*
X111552181Y-73764004D01*
X111445004Y-73871180D01*
X111387000Y-74011214D01*
X111379000Y-74011214D01*
X111379000Y-73555250D01*
X113751000Y-73555250D01*
X113751000Y-73764750D01*
X113846250Y-73860000D01*
X113868184Y-73860000D01*
X113916180Y-73907996D01*
X114056214Y-73966000D01*
X114161750Y-73966000D01*
X114257000Y-73870750D01*
X114257000Y-73449250D01*
X114161750Y-73354000D01*
X114056214Y-73354000D01*
X113916180Y-73412004D01*
X113868184Y-73460000D01*
X113846250Y-73460000D01*
X113751000Y-73555250D01*
X111379000Y-73555250D01*
X111379000Y-73406000D01*
X111368994Y-73356590D01*
X111340553Y-73314965D01*
X111298159Y-73287685D01*
X111252000Y-73279000D01*
X107442000Y-73279000D01*
X107392590Y-73289006D01*
X107350965Y-73317447D01*
X107323685Y-73359841D01*
X107315000Y-73406000D01*
X107315000Y-74549000D01*
X101802000Y-74549000D01*
X101802000Y-73862298D01*
X103775769Y-73862298D01*
X103937331Y-74099275D01*
X104599944Y-74350178D01*
X105308136Y-74328412D01*
X105861321Y-74099275D01*
X106022883Y-73862298D01*
X104899326Y-72738741D01*
X103775769Y-73862298D01*
X101802000Y-73862298D01*
X101802000Y-72259754D01*
X103108284Y-72259754D01*
X103130050Y-72967946D01*
X103359187Y-73521131D01*
X103596164Y-73682693D01*
X104719721Y-72559136D01*
X105078931Y-72559136D01*
X106202488Y-73682693D01*
X106439465Y-73521131D01*
X106690368Y-72858518D01*
X106683660Y-72640250D01*
X108593000Y-72640250D01*
X108593000Y-72828786D01*
X108651004Y-72968820D01*
X108758181Y-73075996D01*
X108898215Y-73134000D01*
X109251750Y-73134000D01*
X109347000Y-73038750D01*
X109347000Y-72545000D01*
X109601000Y-72545000D01*
X109601000Y-73038750D01*
X109696250Y-73134000D01*
X110049785Y-73134000D01*
X110189819Y-73075996D01*
X110296996Y-72968820D01*
X110323327Y-72905250D01*
X113751000Y-72905250D01*
X113751000Y-73114750D01*
X113846250Y-73210000D01*
X113868184Y-73210000D01*
X113916180Y-73257996D01*
X114056214Y-73316000D01*
X114161750Y-73316000D01*
X114257000Y-73220750D01*
X114257000Y-72799250D01*
X114161750Y-72704000D01*
X114056214Y-72704000D01*
X113916180Y-72762004D01*
X113868184Y-72810000D01*
X113846250Y-72810000D01*
X113751000Y-72905250D01*
X110323327Y-72905250D01*
X110355000Y-72828786D01*
X110355000Y-72640250D01*
X110259750Y-72545000D01*
X109601000Y-72545000D01*
X109347000Y-72545000D01*
X108688250Y-72545000D01*
X108593000Y-72640250D01*
X106683660Y-72640250D01*
X106675023Y-72359215D01*
X113751000Y-72359215D01*
X113751000Y-72464750D01*
X113846250Y-72560000D01*
X114257000Y-72560000D01*
X114257000Y-72149250D01*
X114161750Y-72054000D01*
X114056214Y-72054000D01*
X113916180Y-72112004D01*
X113809004Y-72219181D01*
X113751000Y-72359215D01*
X106675023Y-72359215D01*
X106668602Y-72150326D01*
X106609323Y-72007214D01*
X108593000Y-72007214D01*
X108593000Y-72195750D01*
X108688250Y-72291000D01*
X109347000Y-72291000D01*
X109347000Y-71797250D01*
X109601000Y-71797250D01*
X109601000Y-72291000D01*
X110259750Y-72291000D01*
X110355000Y-72195750D01*
X110355000Y-72007214D01*
X110296996Y-71867180D01*
X110189819Y-71760004D01*
X110049785Y-71702000D01*
X109696250Y-71702000D01*
X109601000Y-71797250D01*
X109347000Y-71797250D01*
X109251750Y-71702000D01*
X108898215Y-71702000D01*
X108758181Y-71760004D01*
X108651004Y-71867180D01*
X108593000Y-72007214D01*
X106609323Y-72007214D01*
X106439465Y-71597141D01*
X106202488Y-71435579D01*
X105078931Y-72559136D01*
X104719721Y-72559136D01*
X103596164Y-71435579D01*
X103359187Y-71597141D01*
X103108284Y-72259754D01*
X101802000Y-72259754D01*
X101802000Y-71255974D01*
X103775769Y-71255974D01*
X104899326Y-72379531D01*
X106022883Y-71255974D01*
X105861321Y-71018997D01*
X105198708Y-70768094D01*
X104490516Y-70789860D01*
X103937331Y-71018997D01*
X103775769Y-71255974D01*
X101802000Y-71255974D01*
X101802000Y-70229214D01*
X127643000Y-70229214D01*
X127643000Y-70417750D01*
X127738250Y-70513000D01*
X128397000Y-70513000D01*
X128397000Y-70019250D01*
X128651000Y-70019250D01*
X128651000Y-70513000D01*
X129309750Y-70513000D01*
X129405000Y-70417750D01*
X129405000Y-70229214D01*
X129346996Y-70089180D01*
X129239819Y-69982004D01*
X129099785Y-69924000D01*
X128746250Y-69924000D01*
X128651000Y-70019250D01*
X128397000Y-70019250D01*
X128301750Y-69924000D01*
X127948215Y-69924000D01*
X127808181Y-69982004D01*
X127701004Y-70089180D01*
X127643000Y-70229214D01*
X101802000Y-70229214D01*
X101802000Y-67766000D01*
X129667000Y-67766000D01*
X129667000Y-70993000D01*
G36*
X108593000Y-73945750D02*
X108688250Y-74041000D01*
X109347000Y-74041000D01*
X109347000Y-74021000D01*
X109601000Y-74021000D01*
X109601000Y-74041000D01*
X110259750Y-74041000D01*
X110355000Y-73945750D01*
X110355000Y-73787000D01*
X110871000Y-73787000D01*
X110871000Y-76073000D01*
X110355000Y-76073000D01*
X110355000Y-75942250D01*
X110259750Y-75847000D01*
X109601000Y-75847000D01*
X109601000Y-75867000D01*
X109347000Y-75867000D01*
X109347000Y-75847000D01*
X108688250Y-75847000D01*
X108593000Y-75942250D01*
X108593000Y-76073000D01*
X107823000Y-76073000D01*
X107823000Y-75309214D01*
X108593000Y-75309214D01*
X108593000Y-75497750D01*
X108688250Y-75593000D01*
X109347000Y-75593000D01*
X109347000Y-75099250D01*
X109601000Y-75099250D01*
X109601000Y-75593000D01*
X110259750Y-75593000D01*
X110355000Y-75497750D01*
X110355000Y-75309214D01*
X110296996Y-75169180D01*
X110189819Y-75062004D01*
X110049785Y-75004000D01*
X109696250Y-75004000D01*
X109601000Y-75099250D01*
X109347000Y-75099250D01*
X109251750Y-75004000D01*
X108898215Y-75004000D01*
X108758181Y-75062004D01*
X108651004Y-75169180D01*
X108593000Y-75309214D01*
X107823000Y-75309214D01*
X107823000Y-74390250D01*
X108593000Y-74390250D01*
X108593000Y-74578786D01*
X108651004Y-74718820D01*
X108758181Y-74825996D01*
X108898215Y-74884000D01*
X109251750Y-74884000D01*
X109347000Y-74788750D01*
X109347000Y-74295000D01*
X109601000Y-74295000D01*
X109601000Y-74788750D01*
X109696250Y-74884000D01*
X110049785Y-74884000D01*
X110189819Y-74825996D01*
X110296996Y-74718820D01*
X110355000Y-74578786D01*
X110355000Y-74390250D01*
X110259750Y-74295000D01*
X109601000Y-74295000D01*
X109347000Y-74295000D01*
X108688250Y-74295000D01*
X108593000Y-74390250D01*
X107823000Y-74390250D01*
X107823000Y-73787000D01*
X108593000Y-73787000D01*
X108593000Y-73945750D01*
X108593000Y-73945750D01*
G37*
X108593000Y-73945750D02*
X108688250Y-74041000D01*
X109347000Y-74041000D01*
X109347000Y-74021000D01*
X109601000Y-74021000D01*
X109601000Y-74041000D01*
X110259750Y-74041000D01*
X110355000Y-73945750D01*
X110355000Y-73787000D01*
X110871000Y-73787000D01*
X110871000Y-76073000D01*
X110355000Y-76073000D01*
X110355000Y-75942250D01*
X110259750Y-75847000D01*
X109601000Y-75847000D01*
X109601000Y-75867000D01*
X109347000Y-75867000D01*
X109347000Y-75847000D01*
X108688250Y-75847000D01*
X108593000Y-75942250D01*
X108593000Y-76073000D01*
X107823000Y-76073000D01*
X107823000Y-75309214D01*
X108593000Y-75309214D01*
X108593000Y-75497750D01*
X108688250Y-75593000D01*
X109347000Y-75593000D01*
X109347000Y-75099250D01*
X109601000Y-75099250D01*
X109601000Y-75593000D01*
X110259750Y-75593000D01*
X110355000Y-75497750D01*
X110355000Y-75309214D01*
X110296996Y-75169180D01*
X110189819Y-75062004D01*
X110049785Y-75004000D01*
X109696250Y-75004000D01*
X109601000Y-75099250D01*
X109347000Y-75099250D01*
X109251750Y-75004000D01*
X108898215Y-75004000D01*
X108758181Y-75062004D01*
X108651004Y-75169180D01*
X108593000Y-75309214D01*
X107823000Y-75309214D01*
X107823000Y-74390250D01*
X108593000Y-74390250D01*
X108593000Y-74578786D01*
X108651004Y-74718820D01*
X108758181Y-74825996D01*
X108898215Y-74884000D01*
X109251750Y-74884000D01*
X109347000Y-74788750D01*
X109347000Y-74295000D01*
X109601000Y-74295000D01*
X109601000Y-74788750D01*
X109696250Y-74884000D01*
X110049785Y-74884000D01*
X110189819Y-74825996D01*
X110296996Y-74718820D01*
X110355000Y-74578786D01*
X110355000Y-74390250D01*
X110259750Y-74295000D01*
X109601000Y-74295000D01*
X109347000Y-74295000D01*
X108688250Y-74295000D01*
X108593000Y-74390250D01*
X107823000Y-74390250D01*
X107823000Y-73787000D01*
X108593000Y-73787000D01*
X108593000Y-73945750D01*
G36*
X126238000Y-71521000D02*
X128524000Y-71521000D01*
X128624547Y-71501000D01*
X129667000Y-71501000D01*
X129667000Y-72795078D01*
X129183078Y-73279000D01*
X125095000Y-73279000D01*
X125095000Y-72640250D01*
X125357000Y-72640250D01*
X125357000Y-72828786D01*
X125415004Y-72968820D01*
X125522181Y-73075996D01*
X125662215Y-73134000D01*
X126015750Y-73134000D01*
X126111000Y-73038750D01*
X126111000Y-72545000D01*
X126365000Y-72545000D01*
X126365000Y-73038750D01*
X126460250Y-73134000D01*
X126813785Y-73134000D01*
X126953819Y-73075996D01*
X127060996Y-72968820D01*
X127119000Y-72828786D01*
X127119000Y-72640250D01*
X127091000Y-72612250D01*
X127643000Y-72612250D01*
X127643000Y-72800786D01*
X127701004Y-72940820D01*
X127808181Y-73047996D01*
X127948215Y-73106000D01*
X128301750Y-73106000D01*
X128397000Y-73010750D01*
X128397000Y-72517000D01*
X128651000Y-72517000D01*
X128651000Y-73010750D01*
X128746250Y-73106000D01*
X129099785Y-73106000D01*
X129239819Y-73047996D01*
X129346996Y-72940820D01*
X129405000Y-72800786D01*
X129405000Y-72612250D01*
X129309750Y-72517000D01*
X128651000Y-72517000D01*
X128397000Y-72517000D01*
X127738250Y-72517000D01*
X127643000Y-72612250D01*
X127091000Y-72612250D01*
X127023750Y-72545000D01*
X126365000Y-72545000D01*
X126111000Y-72545000D01*
X125452250Y-72545000D01*
X125357000Y-72640250D01*
X125095000Y-72640250D01*
X125095000Y-72007214D01*
X125357000Y-72007214D01*
X125357000Y-72195750D01*
X125452250Y-72291000D01*
X126111000Y-72291000D01*
X126111000Y-71797250D01*
X126365000Y-71797250D01*
X126365000Y-72291000D01*
X127023750Y-72291000D01*
X127119000Y-72195750D01*
X127119000Y-72007214D01*
X127107403Y-71979214D01*
X127643000Y-71979214D01*
X127643000Y-72167750D01*
X127738250Y-72263000D01*
X128397000Y-72263000D01*
X128397000Y-71769250D01*
X128651000Y-71769250D01*
X128651000Y-72263000D01*
X129309750Y-72263000D01*
X129405000Y-72167750D01*
X129405000Y-71979214D01*
X129346996Y-71839180D01*
X129239819Y-71732004D01*
X129099785Y-71674000D01*
X128746250Y-71674000D01*
X128651000Y-71769250D01*
X128397000Y-71769250D01*
X128301750Y-71674000D01*
X127948215Y-71674000D01*
X127808181Y-71732004D01*
X127701004Y-71839180D01*
X127643000Y-71979214D01*
X127107403Y-71979214D01*
X127060996Y-71867180D01*
X126953819Y-71760004D01*
X126813785Y-71702000D01*
X126460250Y-71702000D01*
X126365000Y-71797250D01*
X126111000Y-71797250D01*
X126015750Y-71702000D01*
X125662215Y-71702000D01*
X125522181Y-71760004D01*
X125415004Y-71867180D01*
X125357000Y-72007214D01*
X125095000Y-72007214D01*
X125095000Y-71501000D01*
X126137453Y-71501000D01*
X126238000Y-71521000D01*
X126238000Y-71521000D01*
G37*
X126238000Y-71521000D02*
X128524000Y-71521000D01*
X128624547Y-71501000D01*
X129667000Y-71501000D01*
X129667000Y-72795078D01*
X129183078Y-73279000D01*
X125095000Y-73279000D01*
X125095000Y-72640250D01*
X125357000Y-72640250D01*
X125357000Y-72828786D01*
X125415004Y-72968820D01*
X125522181Y-73075996D01*
X125662215Y-73134000D01*
X126015750Y-73134000D01*
X126111000Y-73038750D01*
X126111000Y-72545000D01*
X126365000Y-72545000D01*
X126365000Y-73038750D01*
X126460250Y-73134000D01*
X126813785Y-73134000D01*
X126953819Y-73075996D01*
X127060996Y-72968820D01*
X127119000Y-72828786D01*
X127119000Y-72640250D01*
X127091000Y-72612250D01*
X127643000Y-72612250D01*
X127643000Y-72800786D01*
X127701004Y-72940820D01*
X127808181Y-73047996D01*
X127948215Y-73106000D01*
X128301750Y-73106000D01*
X128397000Y-73010750D01*
X128397000Y-72517000D01*
X128651000Y-72517000D01*
X128651000Y-73010750D01*
X128746250Y-73106000D01*
X129099785Y-73106000D01*
X129239819Y-73047996D01*
X129346996Y-72940820D01*
X129405000Y-72800786D01*
X129405000Y-72612250D01*
X129309750Y-72517000D01*
X128651000Y-72517000D01*
X128397000Y-72517000D01*
X127738250Y-72517000D01*
X127643000Y-72612250D01*
X127091000Y-72612250D01*
X127023750Y-72545000D01*
X126365000Y-72545000D01*
X126111000Y-72545000D01*
X125452250Y-72545000D01*
X125357000Y-72640250D01*
X125095000Y-72640250D01*
X125095000Y-72007214D01*
X125357000Y-72007214D01*
X125357000Y-72195750D01*
X125452250Y-72291000D01*
X126111000Y-72291000D01*
X126111000Y-71797250D01*
X126365000Y-71797250D01*
X126365000Y-72291000D01*
X127023750Y-72291000D01*
X127119000Y-72195750D01*
X127119000Y-72007214D01*
X127107403Y-71979214D01*
X127643000Y-71979214D01*
X127643000Y-72167750D01*
X127738250Y-72263000D01*
X128397000Y-72263000D01*
X128397000Y-71769250D01*
X128651000Y-71769250D01*
X128651000Y-72263000D01*
X129309750Y-72263000D01*
X129405000Y-72167750D01*
X129405000Y-71979214D01*
X129346996Y-71839180D01*
X129239819Y-71732004D01*
X129099785Y-71674000D01*
X128746250Y-71674000D01*
X128651000Y-71769250D01*
X128397000Y-71769250D01*
X128301750Y-71674000D01*
X127948215Y-71674000D01*
X127808181Y-71732004D01*
X127701004Y-71839180D01*
X127643000Y-71979214D01*
X127107403Y-71979214D01*
X127060996Y-71867180D01*
X126953819Y-71760004D01*
X126813785Y-71702000D01*
X126460250Y-71702000D01*
X126365000Y-71797250D01*
X126111000Y-71797250D01*
X126015750Y-71702000D01*
X125662215Y-71702000D01*
X125522181Y-71760004D01*
X125415004Y-71867180D01*
X125357000Y-72007214D01*
X125095000Y-72007214D01*
X125095000Y-71501000D01*
X126137453Y-71501000D01*
X126238000Y-71521000D01*
G36*
X123063000Y-71629208D02*
X122941786Y-71579000D01*
X121888250Y-71579000D01*
X121793000Y-71674250D01*
X121793000Y-73533000D01*
X121813000Y-73533000D01*
X121813000Y-73787000D01*
X121793000Y-73787000D01*
X121793000Y-75645750D01*
X121888250Y-75741000D01*
X122941786Y-75741000D01*
X123063000Y-75690792D01*
X123063000Y-88773000D01*
X119253000Y-88773000D01*
X119253000Y-88171162D01*
X120034443Y-88171162D01*
X120196005Y-88408139D01*
X120858618Y-88659042D01*
X121566810Y-88637276D01*
X122119995Y-88408139D01*
X122281557Y-88171162D01*
X121158000Y-87047605D01*
X120034443Y-88171162D01*
X119253000Y-88171162D01*
X119253000Y-86568618D01*
X119366958Y-86568618D01*
X119388724Y-87276810D01*
X119617861Y-87829995D01*
X119854838Y-87991557D01*
X120978395Y-86868000D01*
X121337605Y-86868000D01*
X122461162Y-87991557D01*
X122698139Y-87829995D01*
X122949042Y-87167382D01*
X122927276Y-86459190D01*
X122698139Y-85906005D01*
X122461162Y-85744443D01*
X121337605Y-86868000D01*
X120978395Y-86868000D01*
X119854838Y-85744443D01*
X119617861Y-85906005D01*
X119366958Y-86568618D01*
X119253000Y-86568618D01*
X119253000Y-85564838D01*
X120034443Y-85564838D01*
X121158000Y-86688395D01*
X122281557Y-85564838D01*
X122119995Y-85327861D01*
X121457382Y-85076958D01*
X120749190Y-85098724D01*
X120196005Y-85327861D01*
X120034443Y-85564838D01*
X119253000Y-85564838D01*
X119253000Y-82010250D01*
X119577000Y-82010250D01*
X119577000Y-83063785D01*
X119635004Y-83203819D01*
X119742180Y-83310996D01*
X119882214Y-83369000D01*
X120935750Y-83369000D01*
X121031000Y-83273750D01*
X121031000Y-81915000D01*
X121285000Y-81915000D01*
X121285000Y-83273750D01*
X121380250Y-83369000D01*
X122433786Y-83369000D01*
X122573820Y-83310996D01*
X122680996Y-83203819D01*
X122739000Y-83063785D01*
X122739000Y-82010250D01*
X122643750Y-81915000D01*
X121285000Y-81915000D01*
X121031000Y-81915000D01*
X119672250Y-81915000D01*
X119577000Y-82010250D01*
X119253000Y-82010250D01*
X119253000Y-80512215D01*
X119577000Y-80512215D01*
X119577000Y-81565750D01*
X119672250Y-81661000D01*
X121031000Y-81661000D01*
X121031000Y-80302250D01*
X121285000Y-80302250D01*
X121285000Y-81661000D01*
X122643750Y-81661000D01*
X122739000Y-81565750D01*
X122739000Y-80512215D01*
X122680996Y-80372181D01*
X122573820Y-80265004D01*
X122433786Y-80207000D01*
X121380250Y-80207000D01*
X121285000Y-80302250D01*
X121031000Y-80302250D01*
X120935750Y-80207000D01*
X119882214Y-80207000D01*
X119742180Y-80265004D01*
X119635004Y-80372181D01*
X119577000Y-80512215D01*
X119253000Y-80512215D01*
X119253000Y-78740000D01*
X119242994Y-78690590D01*
X119214553Y-78648965D01*
X119172159Y-78621685D01*
X119126000Y-78613000D01*
X114935000Y-78613000D01*
X114935000Y-75690792D01*
X115056214Y-75741000D01*
X116109750Y-75741000D01*
X116205000Y-75645750D01*
X116205000Y-73787000D01*
X116459000Y-73787000D01*
X116459000Y-75645750D01*
X116554250Y-75741000D01*
X117607786Y-75741000D01*
X117747820Y-75682996D01*
X117854996Y-75575819D01*
X117913000Y-75435785D01*
X117913000Y-73882250D01*
X120085000Y-73882250D01*
X120085000Y-75435785D01*
X120143004Y-75575819D01*
X120250180Y-75682996D01*
X120390214Y-75741000D01*
X121443750Y-75741000D01*
X121539000Y-75645750D01*
X121539000Y-73787000D01*
X120180250Y-73787000D01*
X120085000Y-73882250D01*
X117913000Y-73882250D01*
X117817750Y-73787000D01*
X116459000Y-73787000D01*
X116205000Y-73787000D01*
X116185000Y-73787000D01*
X116185000Y-73533000D01*
X116205000Y-73533000D01*
X116205000Y-71674250D01*
X116459000Y-71674250D01*
X116459000Y-73533000D01*
X117817750Y-73533000D01*
X117913000Y-73437750D01*
X117913000Y-71884215D01*
X120085000Y-71884215D01*
X120085000Y-73437750D01*
X120180250Y-73533000D01*
X121539000Y-73533000D01*
X121539000Y-71674250D01*
X121443750Y-71579000D01*
X120390214Y-71579000D01*
X120250180Y-71637004D01*
X120143004Y-71744181D01*
X120085000Y-71884215D01*
X117913000Y-71884215D01*
X117854996Y-71744181D01*
X117747820Y-71637004D01*
X117607786Y-71579000D01*
X116554250Y-71579000D01*
X116459000Y-71674250D01*
X116205000Y-71674250D01*
X116109750Y-71579000D01*
X115056214Y-71579000D01*
X114935000Y-71629208D01*
X114935000Y-70739000D01*
X123063000Y-70739000D01*
X123063000Y-71629208D01*
X123063000Y-71629208D01*
G37*
X123063000Y-71629208D02*
X122941786Y-71579000D01*
X121888250Y-71579000D01*
X121793000Y-71674250D01*
X121793000Y-73533000D01*
X121813000Y-73533000D01*
X121813000Y-73787000D01*
X121793000Y-73787000D01*
X121793000Y-75645750D01*
X121888250Y-75741000D01*
X122941786Y-75741000D01*
X123063000Y-75690792D01*
X123063000Y-88773000D01*
X119253000Y-88773000D01*
X119253000Y-88171162D01*
X120034443Y-88171162D01*
X120196005Y-88408139D01*
X120858618Y-88659042D01*
X121566810Y-88637276D01*
X122119995Y-88408139D01*
X122281557Y-88171162D01*
X121158000Y-87047605D01*
X120034443Y-88171162D01*
X119253000Y-88171162D01*
X119253000Y-86568618D01*
X119366958Y-86568618D01*
X119388724Y-87276810D01*
X119617861Y-87829995D01*
X119854838Y-87991557D01*
X120978395Y-86868000D01*
X121337605Y-86868000D01*
X122461162Y-87991557D01*
X122698139Y-87829995D01*
X122949042Y-87167382D01*
X122927276Y-86459190D01*
X122698139Y-85906005D01*
X122461162Y-85744443D01*
X121337605Y-86868000D01*
X120978395Y-86868000D01*
X119854838Y-85744443D01*
X119617861Y-85906005D01*
X119366958Y-86568618D01*
X119253000Y-86568618D01*
X119253000Y-85564838D01*
X120034443Y-85564838D01*
X121158000Y-86688395D01*
X122281557Y-85564838D01*
X122119995Y-85327861D01*
X121457382Y-85076958D01*
X120749190Y-85098724D01*
X120196005Y-85327861D01*
X120034443Y-85564838D01*
X119253000Y-85564838D01*
X119253000Y-82010250D01*
X119577000Y-82010250D01*
X119577000Y-83063785D01*
X119635004Y-83203819D01*
X119742180Y-83310996D01*
X119882214Y-83369000D01*
X120935750Y-83369000D01*
X121031000Y-83273750D01*
X121031000Y-81915000D01*
X121285000Y-81915000D01*
X121285000Y-83273750D01*
X121380250Y-83369000D01*
X122433786Y-83369000D01*
X122573820Y-83310996D01*
X122680996Y-83203819D01*
X122739000Y-83063785D01*
X122739000Y-82010250D01*
X122643750Y-81915000D01*
X121285000Y-81915000D01*
X121031000Y-81915000D01*
X119672250Y-81915000D01*
X119577000Y-82010250D01*
X119253000Y-82010250D01*
X119253000Y-80512215D01*
X119577000Y-80512215D01*
X119577000Y-81565750D01*
X119672250Y-81661000D01*
X121031000Y-81661000D01*
X121031000Y-80302250D01*
X121285000Y-80302250D01*
X121285000Y-81661000D01*
X122643750Y-81661000D01*
X122739000Y-81565750D01*
X122739000Y-80512215D01*
X122680996Y-80372181D01*
X122573820Y-80265004D01*
X122433786Y-80207000D01*
X121380250Y-80207000D01*
X121285000Y-80302250D01*
X121031000Y-80302250D01*
X120935750Y-80207000D01*
X119882214Y-80207000D01*
X119742180Y-80265004D01*
X119635004Y-80372181D01*
X119577000Y-80512215D01*
X119253000Y-80512215D01*
X119253000Y-78740000D01*
X119242994Y-78690590D01*
X119214553Y-78648965D01*
X119172159Y-78621685D01*
X119126000Y-78613000D01*
X114935000Y-78613000D01*
X114935000Y-75690792D01*
X115056214Y-75741000D01*
X116109750Y-75741000D01*
X116205000Y-75645750D01*
X116205000Y-73787000D01*
X116459000Y-73787000D01*
X116459000Y-75645750D01*
X116554250Y-75741000D01*
X117607786Y-75741000D01*
X117747820Y-75682996D01*
X117854996Y-75575819D01*
X117913000Y-75435785D01*
X117913000Y-73882250D01*
X120085000Y-73882250D01*
X120085000Y-75435785D01*
X120143004Y-75575819D01*
X120250180Y-75682996D01*
X120390214Y-75741000D01*
X121443750Y-75741000D01*
X121539000Y-75645750D01*
X121539000Y-73787000D01*
X120180250Y-73787000D01*
X120085000Y-73882250D01*
X117913000Y-73882250D01*
X117817750Y-73787000D01*
X116459000Y-73787000D01*
X116205000Y-73787000D01*
X116185000Y-73787000D01*
X116185000Y-73533000D01*
X116205000Y-73533000D01*
X116205000Y-71674250D01*
X116459000Y-71674250D01*
X116459000Y-73533000D01*
X117817750Y-73533000D01*
X117913000Y-73437750D01*
X117913000Y-71884215D01*
X120085000Y-71884215D01*
X120085000Y-73437750D01*
X120180250Y-73533000D01*
X121539000Y-73533000D01*
X121539000Y-71674250D01*
X121443750Y-71579000D01*
X120390214Y-71579000D01*
X120250180Y-71637004D01*
X120143004Y-71744181D01*
X120085000Y-71884215D01*
X117913000Y-71884215D01*
X117854996Y-71744181D01*
X117747820Y-71637004D01*
X117607786Y-71579000D01*
X116554250Y-71579000D01*
X116459000Y-71674250D01*
X116205000Y-71674250D01*
X116109750Y-71579000D01*
X115056214Y-71579000D01*
X114935000Y-71629208D01*
X114935000Y-70739000D01*
X123063000Y-70739000D01*
X123063000Y-71629208D01*
G36*
X136450000Y-74803000D02*
X129794000Y-74803000D01*
X129744590Y-74813006D01*
X129702965Y-74841447D01*
X129675685Y-74883841D01*
X129667000Y-74930000D01*
X129667000Y-78593000D01*
X126238000Y-78593000D01*
X126137453Y-78613000D01*
X123571000Y-78613000D01*
X123571000Y-77946250D01*
X125357000Y-77946250D01*
X125357000Y-78134786D01*
X125415004Y-78274820D01*
X125522181Y-78381996D01*
X125662215Y-78440000D01*
X126015750Y-78440000D01*
X126111000Y-78344750D01*
X126111000Y-77851000D01*
X126365000Y-77851000D01*
X126365000Y-78344750D01*
X126460250Y-78440000D01*
X126813785Y-78440000D01*
X126953819Y-78381996D01*
X127060996Y-78274820D01*
X127119000Y-78134786D01*
X127119000Y-77946250D01*
X127023750Y-77851000D01*
X126365000Y-77851000D01*
X126111000Y-77851000D01*
X125452250Y-77851000D01*
X125357000Y-77946250D01*
X123571000Y-77946250D01*
X123571000Y-77313214D01*
X125357000Y-77313214D01*
X125357000Y-77501750D01*
X125452250Y-77597000D01*
X126111000Y-77597000D01*
X126111000Y-77103250D01*
X126365000Y-77103250D01*
X126365000Y-77597000D01*
X127023750Y-77597000D01*
X127119000Y-77501750D01*
X127119000Y-77313214D01*
X127060996Y-77173180D01*
X126953819Y-77066004D01*
X126813785Y-77008000D01*
X126460250Y-77008000D01*
X126365000Y-77103250D01*
X126111000Y-77103250D01*
X126015750Y-77008000D01*
X125662215Y-77008000D01*
X125522181Y-77066004D01*
X125415004Y-77173180D01*
X125357000Y-77313214D01*
X123571000Y-77313214D01*
X123571000Y-74760000D01*
X123741000Y-74760000D01*
X123741000Y-75170750D01*
X123836250Y-75266000D01*
X123941786Y-75266000D01*
X124081820Y-75207996D01*
X124188996Y-75100819D01*
X124247000Y-74960785D01*
X124247000Y-74855250D01*
X124151750Y-74760000D01*
X123741000Y-74760000D01*
X123571000Y-74760000D01*
X123571000Y-74099250D01*
X123741000Y-74099250D01*
X123741000Y-74520750D01*
X123836250Y-74616000D01*
X123941786Y-74616000D01*
X124081820Y-74557996D01*
X124129816Y-74510000D01*
X124151750Y-74510000D01*
X124247000Y-74414750D01*
X124247000Y-74390250D01*
X125357000Y-74390250D01*
X125357000Y-74578786D01*
X125415004Y-74718820D01*
X125522181Y-74825996D01*
X125662215Y-74884000D01*
X126015750Y-74884000D01*
X126111000Y-74788750D01*
X126111000Y-74295000D01*
X126365000Y-74295000D01*
X126365000Y-74788750D01*
X126460250Y-74884000D01*
X126813785Y-74884000D01*
X126953819Y-74825996D01*
X127060996Y-74718820D01*
X127119000Y-74578786D01*
X127119000Y-74390250D01*
X127023750Y-74295000D01*
X126365000Y-74295000D01*
X126111000Y-74295000D01*
X125452250Y-74295000D01*
X125357000Y-74390250D01*
X124247000Y-74390250D01*
X124247000Y-74205250D01*
X124151750Y-74110000D01*
X124129816Y-74110000D01*
X124081820Y-74062004D01*
X123941786Y-74004000D01*
X123836250Y-74004000D01*
X123741000Y-74099250D01*
X123571000Y-74099250D01*
X123571000Y-73449250D01*
X123741000Y-73449250D01*
X123741000Y-73870750D01*
X123836250Y-73966000D01*
X123941786Y-73966000D01*
X124081820Y-73907996D01*
X124129816Y-73860000D01*
X124151750Y-73860000D01*
X124247000Y-73764750D01*
X124247000Y-73555250D01*
X124151750Y-73460000D01*
X124129816Y-73460000D01*
X124081820Y-73412004D01*
X123941786Y-73354000D01*
X123836250Y-73354000D01*
X123741000Y-73449250D01*
X123571000Y-73449250D01*
X123571000Y-73323464D01*
X123866000Y-73323464D01*
X124007190Y-73296897D01*
X124035003Y-73279000D01*
X124587000Y-73279000D01*
X124587000Y-73660000D01*
X124597006Y-73709410D01*
X124625447Y-73751035D01*
X124667841Y-73778315D01*
X124714000Y-73787000D01*
X125357000Y-73787000D01*
X125357000Y-73945750D01*
X125452250Y-74041000D01*
X126111000Y-74041000D01*
X126111000Y-74021000D01*
X126365000Y-74021000D01*
X126365000Y-74041000D01*
X127023750Y-74041000D01*
X127119000Y-73945750D01*
X127119000Y-73811162D01*
X132226443Y-73811162D01*
X132388005Y-74048139D01*
X133050618Y-74299042D01*
X133758810Y-74277276D01*
X134311995Y-74048139D01*
X134473557Y-73811162D01*
X133350000Y-72687605D01*
X132226443Y-73811162D01*
X127119000Y-73811162D01*
X127119000Y-73787000D01*
X129286000Y-73787000D01*
X129335410Y-73776994D01*
X129375803Y-73749803D01*
X130137803Y-72987803D01*
X130165666Y-72945789D01*
X130175000Y-72898000D01*
X130175000Y-72208618D01*
X131558958Y-72208618D01*
X131580724Y-72916810D01*
X131809861Y-73469995D01*
X132046838Y-73631557D01*
X133170395Y-72508000D01*
X133529605Y-72508000D01*
X134653162Y-73631557D01*
X134890139Y-73469995D01*
X135141042Y-72807382D01*
X135119276Y-72099190D01*
X134890139Y-71546005D01*
X134653162Y-71384443D01*
X133529605Y-72508000D01*
X133170395Y-72508000D01*
X132046838Y-71384443D01*
X131809861Y-71546005D01*
X131558958Y-72208618D01*
X130175000Y-72208618D01*
X130175000Y-71204838D01*
X132226443Y-71204838D01*
X133350000Y-72328395D01*
X134473557Y-71204838D01*
X134311995Y-70967861D01*
X133649382Y-70716958D01*
X132941190Y-70738724D01*
X132388005Y-70967861D01*
X132226443Y-71204838D01*
X130175000Y-71204838D01*
X130175000Y-67766000D01*
X136450000Y-67766000D01*
X136450000Y-74803000D01*
X136450000Y-74803000D01*
G37*
X136450000Y-74803000D02*
X129794000Y-74803000D01*
X129744590Y-74813006D01*
X129702965Y-74841447D01*
X129675685Y-74883841D01*
X129667000Y-74930000D01*
X129667000Y-78593000D01*
X126238000Y-78593000D01*
X126137453Y-78613000D01*
X123571000Y-78613000D01*
X123571000Y-77946250D01*
X125357000Y-77946250D01*
X125357000Y-78134786D01*
X125415004Y-78274820D01*
X125522181Y-78381996D01*
X125662215Y-78440000D01*
X126015750Y-78440000D01*
X126111000Y-78344750D01*
X126111000Y-77851000D01*
X126365000Y-77851000D01*
X126365000Y-78344750D01*
X126460250Y-78440000D01*
X126813785Y-78440000D01*
X126953819Y-78381996D01*
X127060996Y-78274820D01*
X127119000Y-78134786D01*
X127119000Y-77946250D01*
X127023750Y-77851000D01*
X126365000Y-77851000D01*
X126111000Y-77851000D01*
X125452250Y-77851000D01*
X125357000Y-77946250D01*
X123571000Y-77946250D01*
X123571000Y-77313214D01*
X125357000Y-77313214D01*
X125357000Y-77501750D01*
X125452250Y-77597000D01*
X126111000Y-77597000D01*
X126111000Y-77103250D01*
X126365000Y-77103250D01*
X126365000Y-77597000D01*
X127023750Y-77597000D01*
X127119000Y-77501750D01*
X127119000Y-77313214D01*
X127060996Y-77173180D01*
X126953819Y-77066004D01*
X126813785Y-77008000D01*
X126460250Y-77008000D01*
X126365000Y-77103250D01*
X126111000Y-77103250D01*
X126015750Y-77008000D01*
X125662215Y-77008000D01*
X125522181Y-77066004D01*
X125415004Y-77173180D01*
X125357000Y-77313214D01*
X123571000Y-77313214D01*
X123571000Y-74760000D01*
X123741000Y-74760000D01*
X123741000Y-75170750D01*
X123836250Y-75266000D01*
X123941786Y-75266000D01*
X124081820Y-75207996D01*
X124188996Y-75100819D01*
X124247000Y-74960785D01*
X124247000Y-74855250D01*
X124151750Y-74760000D01*
X123741000Y-74760000D01*
X123571000Y-74760000D01*
X123571000Y-74099250D01*
X123741000Y-74099250D01*
X123741000Y-74520750D01*
X123836250Y-74616000D01*
X123941786Y-74616000D01*
X124081820Y-74557996D01*
X124129816Y-74510000D01*
X124151750Y-74510000D01*
X124247000Y-74414750D01*
X124247000Y-74390250D01*
X125357000Y-74390250D01*
X125357000Y-74578786D01*
X125415004Y-74718820D01*
X125522181Y-74825996D01*
X125662215Y-74884000D01*
X126015750Y-74884000D01*
X126111000Y-74788750D01*
X126111000Y-74295000D01*
X126365000Y-74295000D01*
X126365000Y-74788750D01*
X126460250Y-74884000D01*
X126813785Y-74884000D01*
X126953819Y-74825996D01*
X127060996Y-74718820D01*
X127119000Y-74578786D01*
X127119000Y-74390250D01*
X127023750Y-74295000D01*
X126365000Y-74295000D01*
X126111000Y-74295000D01*
X125452250Y-74295000D01*
X125357000Y-74390250D01*
X124247000Y-74390250D01*
X124247000Y-74205250D01*
X124151750Y-74110000D01*
X124129816Y-74110000D01*
X124081820Y-74062004D01*
X123941786Y-74004000D01*
X123836250Y-74004000D01*
X123741000Y-74099250D01*
X123571000Y-74099250D01*
X123571000Y-73449250D01*
X123741000Y-73449250D01*
X123741000Y-73870750D01*
X123836250Y-73966000D01*
X123941786Y-73966000D01*
X124081820Y-73907996D01*
X124129816Y-73860000D01*
X124151750Y-73860000D01*
X124247000Y-73764750D01*
X124247000Y-73555250D01*
X124151750Y-73460000D01*
X124129816Y-73460000D01*
X124081820Y-73412004D01*
X123941786Y-73354000D01*
X123836250Y-73354000D01*
X123741000Y-73449250D01*
X123571000Y-73449250D01*
X123571000Y-73323464D01*
X123866000Y-73323464D01*
X124007190Y-73296897D01*
X124035003Y-73279000D01*
X124587000Y-73279000D01*
X124587000Y-73660000D01*
X124597006Y-73709410D01*
X124625447Y-73751035D01*
X124667841Y-73778315D01*
X124714000Y-73787000D01*
X125357000Y-73787000D01*
X125357000Y-73945750D01*
X125452250Y-74041000D01*
X126111000Y-74041000D01*
X126111000Y-74021000D01*
X126365000Y-74021000D01*
X126365000Y-74041000D01*
X127023750Y-74041000D01*
X127119000Y-73945750D01*
X127119000Y-73811162D01*
X132226443Y-73811162D01*
X132388005Y-74048139D01*
X133050618Y-74299042D01*
X133758810Y-74277276D01*
X134311995Y-74048139D01*
X134473557Y-73811162D01*
X133350000Y-72687605D01*
X132226443Y-73811162D01*
X127119000Y-73811162D01*
X127119000Y-73787000D01*
X129286000Y-73787000D01*
X129335410Y-73776994D01*
X129375803Y-73749803D01*
X130137803Y-72987803D01*
X130165666Y-72945789D01*
X130175000Y-72898000D01*
X130175000Y-72208618D01*
X131558958Y-72208618D01*
X131580724Y-72916810D01*
X131809861Y-73469995D01*
X132046838Y-73631557D01*
X133170395Y-72508000D01*
X133529605Y-72508000D01*
X134653162Y-73631557D01*
X134890139Y-73469995D01*
X135141042Y-72807382D01*
X135119276Y-72099190D01*
X134890139Y-71546005D01*
X134653162Y-71384443D01*
X133529605Y-72508000D01*
X133170395Y-72508000D01*
X132046838Y-71384443D01*
X131809861Y-71546005D01*
X131558958Y-72208618D01*
X130175000Y-72208618D01*
X130175000Y-71204838D01*
X132226443Y-71204838D01*
X133350000Y-72328395D01*
X134473557Y-71204838D01*
X134311995Y-70967861D01*
X133649382Y-70716958D01*
X132941190Y-70738724D01*
X132388005Y-70967861D01*
X132226443Y-71204838D01*
X130175000Y-71204838D01*
X130175000Y-67766000D01*
X136450000Y-67766000D01*
X136450000Y-74803000D01*
G36*
X113980866Y-74592859D02*
X114132000Y-74623464D01*
X114427000Y-74623464D01*
X114427000Y-78994000D01*
X114437006Y-79043410D01*
X114465447Y-79085035D01*
X114507841Y-79112315D01*
X114554000Y-79121000D01*
X118745000Y-79121000D01*
X118745000Y-89154000D01*
X118755006Y-89203410D01*
X118783447Y-89245035D01*
X118825841Y-89272315D01*
X118872000Y-89281000D01*
X123444000Y-89281000D01*
X123493410Y-89270994D01*
X123535035Y-89242553D01*
X123562315Y-89200159D01*
X123571000Y-89154000D01*
X123571000Y-79696250D01*
X125357000Y-79696250D01*
X125357000Y-79884786D01*
X125415004Y-80024820D01*
X125522181Y-80131996D01*
X125662215Y-80190000D01*
X126015750Y-80190000D01*
X126111000Y-80094750D01*
X126111000Y-79601000D01*
X126365000Y-79601000D01*
X126365000Y-80094750D01*
X126460250Y-80190000D01*
X126813785Y-80190000D01*
X126953819Y-80131996D01*
X127060996Y-80024820D01*
X127119000Y-79884786D01*
X127119000Y-79696250D01*
X127023750Y-79601000D01*
X126365000Y-79601000D01*
X126111000Y-79601000D01*
X125452250Y-79601000D01*
X125357000Y-79696250D01*
X123571000Y-79696250D01*
X123571000Y-79121000D01*
X125357000Y-79121000D01*
X125357000Y-79251750D01*
X125452250Y-79347000D01*
X126111000Y-79347000D01*
X126111000Y-79327000D01*
X126365000Y-79327000D01*
X126365000Y-79347000D01*
X127023750Y-79347000D01*
X127119000Y-79251750D01*
X127119000Y-79121000D01*
X130048000Y-79121000D01*
X130097410Y-79110994D01*
X130139035Y-79082553D01*
X130166315Y-79040159D01*
X130175000Y-78994000D01*
X130175000Y-76930250D01*
X131569000Y-76930250D01*
X131569000Y-78183785D01*
X131627004Y-78323819D01*
X131734180Y-78430996D01*
X131874214Y-78489000D01*
X133127750Y-78489000D01*
X133223000Y-78393750D01*
X133223000Y-76835000D01*
X133477000Y-76835000D01*
X133477000Y-78393750D01*
X133572250Y-78489000D01*
X134825786Y-78489000D01*
X134965820Y-78430996D01*
X135072996Y-78323819D01*
X135131000Y-78183785D01*
X135131000Y-76930250D01*
X135035750Y-76835000D01*
X133477000Y-76835000D01*
X133223000Y-76835000D01*
X131664250Y-76835000D01*
X131569000Y-76930250D01*
X130175000Y-76930250D01*
X130175000Y-75311000D01*
X131569000Y-75311000D01*
X131569000Y-76485750D01*
X131664250Y-76581000D01*
X133223000Y-76581000D01*
X133223000Y-76561000D01*
X133477000Y-76561000D01*
X133477000Y-76581000D01*
X135035750Y-76581000D01*
X135131000Y-76485750D01*
X135131000Y-75311000D01*
X136450000Y-75311000D01*
X136450000Y-90730000D01*
X101802000Y-90730000D01*
X101802000Y-87090250D01*
X115177000Y-87090250D01*
X115177000Y-88343786D01*
X115235004Y-88483820D01*
X115342181Y-88590996D01*
X115482215Y-88649000D01*
X116735750Y-88649000D01*
X116831000Y-88553750D01*
X116831000Y-86995000D01*
X117085000Y-86995000D01*
X117085000Y-88553750D01*
X117180250Y-88649000D01*
X118433785Y-88649000D01*
X118573819Y-88590996D01*
X118680996Y-88483820D01*
X118739000Y-88343786D01*
X118739000Y-87090250D01*
X118643750Y-86995000D01*
X117085000Y-86995000D01*
X116831000Y-86995000D01*
X115272250Y-86995000D01*
X115177000Y-87090250D01*
X101802000Y-87090250D01*
X101802000Y-85392214D01*
X115177000Y-85392214D01*
X115177000Y-86645750D01*
X115272250Y-86741000D01*
X116831000Y-86741000D01*
X116831000Y-85182250D01*
X117085000Y-85182250D01*
X117085000Y-86741000D01*
X118643750Y-86741000D01*
X118739000Y-86645750D01*
X118739000Y-85392214D01*
X118680996Y-85252180D01*
X118573819Y-85145004D01*
X118433785Y-85087000D01*
X117180250Y-85087000D01*
X117085000Y-85182250D01*
X116831000Y-85182250D01*
X116735750Y-85087000D01*
X115482215Y-85087000D01*
X115342181Y-85145004D01*
X115235004Y-85252180D01*
X115177000Y-85392214D01*
X101802000Y-85392214D01*
X101802000Y-82946522D01*
X115179083Y-82946522D01*
X115316196Y-83162709D01*
X115906353Y-83380209D01*
X116534821Y-83355311D01*
X116999804Y-83162709D01*
X117136917Y-82946522D01*
X116158000Y-81967605D01*
X115179083Y-82946522D01*
X101802000Y-82946522D01*
X101802000Y-81536353D01*
X114565791Y-81536353D01*
X114590689Y-82164821D01*
X114783291Y-82629804D01*
X114999478Y-82766917D01*
X115978395Y-81788000D01*
X116337605Y-81788000D01*
X117316522Y-82766917D01*
X117532709Y-82629804D01*
X117750209Y-82039647D01*
X117725311Y-81411179D01*
X117532709Y-80946196D01*
X117316522Y-80809083D01*
X116337605Y-81788000D01*
X115978395Y-81788000D01*
X114999478Y-80809083D01*
X114783291Y-80946196D01*
X114565791Y-81536353D01*
X101802000Y-81536353D01*
X101802000Y-80629478D01*
X115179083Y-80629478D01*
X116158000Y-81608395D01*
X117136917Y-80629478D01*
X116999804Y-80413291D01*
X116409647Y-80195791D01*
X115781179Y-80220689D01*
X115316196Y-80413291D01*
X115179083Y-80629478D01*
X101802000Y-80629478D01*
X101802000Y-76981386D01*
X103118326Y-76981386D01*
X103118326Y-78234921D01*
X103176330Y-78374955D01*
X103283506Y-78482132D01*
X103423540Y-78540136D01*
X104677076Y-78540136D01*
X104772326Y-78444886D01*
X104772326Y-76886136D01*
X105026326Y-76886136D01*
X105026326Y-78444886D01*
X105121576Y-78540136D01*
X106375112Y-78540136D01*
X106515146Y-78482132D01*
X106622322Y-78374955D01*
X106680326Y-78234921D01*
X106680326Y-77692250D01*
X108593000Y-77692250D01*
X108593000Y-77880786D01*
X108651004Y-78020820D01*
X108758181Y-78127996D01*
X108898215Y-78186000D01*
X109251750Y-78186000D01*
X109347000Y-78090750D01*
X109347000Y-77597000D01*
X109601000Y-77597000D01*
X109601000Y-78090750D01*
X109696250Y-78186000D01*
X110049785Y-78186000D01*
X110189819Y-78127996D01*
X110296996Y-78020820D01*
X110355000Y-77880786D01*
X110355000Y-77692250D01*
X110259750Y-77597000D01*
X109601000Y-77597000D01*
X109347000Y-77597000D01*
X108688250Y-77597000D01*
X108593000Y-77692250D01*
X106680326Y-77692250D01*
X106680326Y-77059214D01*
X108593000Y-77059214D01*
X108593000Y-77247750D01*
X108688250Y-77343000D01*
X109347000Y-77343000D01*
X109347000Y-76849250D01*
X109601000Y-76849250D01*
X109601000Y-77343000D01*
X110259750Y-77343000D01*
X110355000Y-77247750D01*
X110355000Y-77059214D01*
X110296996Y-76919180D01*
X110189819Y-76812004D01*
X110049785Y-76754000D01*
X109696250Y-76754000D01*
X109601000Y-76849250D01*
X109347000Y-76849250D01*
X109251750Y-76754000D01*
X108898215Y-76754000D01*
X108758181Y-76812004D01*
X108651004Y-76919180D01*
X108593000Y-77059214D01*
X106680326Y-77059214D01*
X106680326Y-76981386D01*
X106585076Y-76886136D01*
X105026326Y-76886136D01*
X104772326Y-76886136D01*
X103213576Y-76886136D01*
X103118326Y-76981386D01*
X101802000Y-76981386D01*
X101802000Y-75057000D01*
X103262646Y-75057000D01*
X103176330Y-75143317D01*
X103118326Y-75283351D01*
X103118326Y-76536886D01*
X103213576Y-76632136D01*
X104772326Y-76632136D01*
X104772326Y-76612136D01*
X105026326Y-76612136D01*
X105026326Y-76632136D01*
X106585076Y-76632136D01*
X106680326Y-76536886D01*
X106680326Y-75283351D01*
X106622322Y-75143317D01*
X106536006Y-75057000D01*
X107315000Y-75057000D01*
X107315000Y-76454000D01*
X107325006Y-76503410D01*
X107353447Y-76545035D01*
X107395841Y-76572315D01*
X107442000Y-76581000D01*
X109373453Y-76581000D01*
X109474000Y-76601000D01*
X109574547Y-76581000D01*
X111252000Y-76581000D01*
X111301410Y-76570994D01*
X111343035Y-76542553D01*
X111370315Y-76500159D01*
X111379000Y-76454000D01*
X111379000Y-76394250D01*
X111387000Y-76394250D01*
X111387000Y-76582786D01*
X111445004Y-76722820D01*
X111552181Y-76829996D01*
X111692215Y-76888000D01*
X112045750Y-76888000D01*
X112141000Y-76792750D01*
X112141000Y-76299000D01*
X112395000Y-76299000D01*
X112395000Y-76792750D01*
X112490250Y-76888000D01*
X112843785Y-76888000D01*
X112983819Y-76829996D01*
X113090996Y-76722820D01*
X113149000Y-76582786D01*
X113149000Y-76394250D01*
X113053750Y-76299000D01*
X112395000Y-76299000D01*
X112141000Y-76299000D01*
X111482250Y-76299000D01*
X111387000Y-76394250D01*
X111379000Y-76394250D01*
X111379000Y-75819000D01*
X111387000Y-75819000D01*
X111387000Y-75949750D01*
X111482250Y-76045000D01*
X112141000Y-76045000D01*
X112141000Y-76025000D01*
X112395000Y-76025000D01*
X112395000Y-76045000D01*
X113053750Y-76045000D01*
X113149000Y-75949750D01*
X113149000Y-75819000D01*
X113538000Y-75819000D01*
X113587410Y-75808994D01*
X113629035Y-75780553D01*
X113656315Y-75738159D01*
X113665000Y-75692000D01*
X113665000Y-74855250D01*
X113751000Y-74855250D01*
X113751000Y-74960785D01*
X113809004Y-75100819D01*
X113916180Y-75207996D01*
X114056214Y-75266000D01*
X114161750Y-75266000D01*
X114257000Y-75170750D01*
X114257000Y-74760000D01*
X113846250Y-74760000D01*
X113751000Y-74855250D01*
X113665000Y-74855250D01*
X113665000Y-74549000D01*
X113916676Y-74549000D01*
X113980866Y-74592859D01*
X113980866Y-74592859D01*
G37*
X113980866Y-74592859D02*
X114132000Y-74623464D01*
X114427000Y-74623464D01*
X114427000Y-78994000D01*
X114437006Y-79043410D01*
X114465447Y-79085035D01*
X114507841Y-79112315D01*
X114554000Y-79121000D01*
X118745000Y-79121000D01*
X118745000Y-89154000D01*
X118755006Y-89203410D01*
X118783447Y-89245035D01*
X118825841Y-89272315D01*
X118872000Y-89281000D01*
X123444000Y-89281000D01*
X123493410Y-89270994D01*
X123535035Y-89242553D01*
X123562315Y-89200159D01*
X123571000Y-89154000D01*
X123571000Y-79696250D01*
X125357000Y-79696250D01*
X125357000Y-79884786D01*
X125415004Y-80024820D01*
X125522181Y-80131996D01*
X125662215Y-80190000D01*
X126015750Y-80190000D01*
X126111000Y-80094750D01*
X126111000Y-79601000D01*
X126365000Y-79601000D01*
X126365000Y-80094750D01*
X126460250Y-80190000D01*
X126813785Y-80190000D01*
X126953819Y-80131996D01*
X127060996Y-80024820D01*
X127119000Y-79884786D01*
X127119000Y-79696250D01*
X127023750Y-79601000D01*
X126365000Y-79601000D01*
X126111000Y-79601000D01*
X125452250Y-79601000D01*
X125357000Y-79696250D01*
X123571000Y-79696250D01*
X123571000Y-79121000D01*
X125357000Y-79121000D01*
X125357000Y-79251750D01*
X125452250Y-79347000D01*
X126111000Y-79347000D01*
X126111000Y-79327000D01*
X126365000Y-79327000D01*
X126365000Y-79347000D01*
X127023750Y-79347000D01*
X127119000Y-79251750D01*
X127119000Y-79121000D01*
X130048000Y-79121000D01*
X130097410Y-79110994D01*
X130139035Y-79082553D01*
X130166315Y-79040159D01*
X130175000Y-78994000D01*
X130175000Y-76930250D01*
X131569000Y-76930250D01*
X131569000Y-78183785D01*
X131627004Y-78323819D01*
X131734180Y-78430996D01*
X131874214Y-78489000D01*
X133127750Y-78489000D01*
X133223000Y-78393750D01*
X133223000Y-76835000D01*
X133477000Y-76835000D01*
X133477000Y-78393750D01*
X133572250Y-78489000D01*
X134825786Y-78489000D01*
X134965820Y-78430996D01*
X135072996Y-78323819D01*
X135131000Y-78183785D01*
X135131000Y-76930250D01*
X135035750Y-76835000D01*
X133477000Y-76835000D01*
X133223000Y-76835000D01*
X131664250Y-76835000D01*
X131569000Y-76930250D01*
X130175000Y-76930250D01*
X130175000Y-75311000D01*
X131569000Y-75311000D01*
X131569000Y-76485750D01*
X131664250Y-76581000D01*
X133223000Y-76581000D01*
X133223000Y-76561000D01*
X133477000Y-76561000D01*
X133477000Y-76581000D01*
X135035750Y-76581000D01*
X135131000Y-76485750D01*
X135131000Y-75311000D01*
X136450000Y-75311000D01*
X136450000Y-90730000D01*
X101802000Y-90730000D01*
X101802000Y-87090250D01*
X115177000Y-87090250D01*
X115177000Y-88343786D01*
X115235004Y-88483820D01*
X115342181Y-88590996D01*
X115482215Y-88649000D01*
X116735750Y-88649000D01*
X116831000Y-88553750D01*
X116831000Y-86995000D01*
X117085000Y-86995000D01*
X117085000Y-88553750D01*
X117180250Y-88649000D01*
X118433785Y-88649000D01*
X118573819Y-88590996D01*
X118680996Y-88483820D01*
X118739000Y-88343786D01*
X118739000Y-87090250D01*
X118643750Y-86995000D01*
X117085000Y-86995000D01*
X116831000Y-86995000D01*
X115272250Y-86995000D01*
X115177000Y-87090250D01*
X101802000Y-87090250D01*
X101802000Y-85392214D01*
X115177000Y-85392214D01*
X115177000Y-86645750D01*
X115272250Y-86741000D01*
X116831000Y-86741000D01*
X116831000Y-85182250D01*
X117085000Y-85182250D01*
X117085000Y-86741000D01*
X118643750Y-86741000D01*
X118739000Y-86645750D01*
X118739000Y-85392214D01*
X118680996Y-85252180D01*
X118573819Y-85145004D01*
X118433785Y-85087000D01*
X117180250Y-85087000D01*
X117085000Y-85182250D01*
X116831000Y-85182250D01*
X116735750Y-85087000D01*
X115482215Y-85087000D01*
X115342181Y-85145004D01*
X115235004Y-85252180D01*
X115177000Y-85392214D01*
X101802000Y-85392214D01*
X101802000Y-82946522D01*
X115179083Y-82946522D01*
X115316196Y-83162709D01*
X115906353Y-83380209D01*
X116534821Y-83355311D01*
X116999804Y-83162709D01*
X117136917Y-82946522D01*
X116158000Y-81967605D01*
X115179083Y-82946522D01*
X101802000Y-82946522D01*
X101802000Y-81536353D01*
X114565791Y-81536353D01*
X114590689Y-82164821D01*
X114783291Y-82629804D01*
X114999478Y-82766917D01*
X115978395Y-81788000D01*
X116337605Y-81788000D01*
X117316522Y-82766917D01*
X117532709Y-82629804D01*
X117750209Y-82039647D01*
X117725311Y-81411179D01*
X117532709Y-80946196D01*
X117316522Y-80809083D01*
X116337605Y-81788000D01*
X115978395Y-81788000D01*
X114999478Y-80809083D01*
X114783291Y-80946196D01*
X114565791Y-81536353D01*
X101802000Y-81536353D01*
X101802000Y-80629478D01*
X115179083Y-80629478D01*
X116158000Y-81608395D01*
X117136917Y-80629478D01*
X116999804Y-80413291D01*
X116409647Y-80195791D01*
X115781179Y-80220689D01*
X115316196Y-80413291D01*
X115179083Y-80629478D01*
X101802000Y-80629478D01*
X101802000Y-76981386D01*
X103118326Y-76981386D01*
X103118326Y-78234921D01*
X103176330Y-78374955D01*
X103283506Y-78482132D01*
X103423540Y-78540136D01*
X104677076Y-78540136D01*
X104772326Y-78444886D01*
X104772326Y-76886136D01*
X105026326Y-76886136D01*
X105026326Y-78444886D01*
X105121576Y-78540136D01*
X106375112Y-78540136D01*
X106515146Y-78482132D01*
X106622322Y-78374955D01*
X106680326Y-78234921D01*
X106680326Y-77692250D01*
X108593000Y-77692250D01*
X108593000Y-77880786D01*
X108651004Y-78020820D01*
X108758181Y-78127996D01*
X108898215Y-78186000D01*
X109251750Y-78186000D01*
X109347000Y-78090750D01*
X109347000Y-77597000D01*
X109601000Y-77597000D01*
X109601000Y-78090750D01*
X109696250Y-78186000D01*
X110049785Y-78186000D01*
X110189819Y-78127996D01*
X110296996Y-78020820D01*
X110355000Y-77880786D01*
X110355000Y-77692250D01*
X110259750Y-77597000D01*
X109601000Y-77597000D01*
X109347000Y-77597000D01*
X108688250Y-77597000D01*
X108593000Y-77692250D01*
X106680326Y-77692250D01*
X106680326Y-77059214D01*
X108593000Y-77059214D01*
X108593000Y-77247750D01*
X108688250Y-77343000D01*
X109347000Y-77343000D01*
X109347000Y-76849250D01*
X109601000Y-76849250D01*
X109601000Y-77343000D01*
X110259750Y-77343000D01*
X110355000Y-77247750D01*
X110355000Y-77059214D01*
X110296996Y-76919180D01*
X110189819Y-76812004D01*
X110049785Y-76754000D01*
X109696250Y-76754000D01*
X109601000Y-76849250D01*
X109347000Y-76849250D01*
X109251750Y-76754000D01*
X108898215Y-76754000D01*
X108758181Y-76812004D01*
X108651004Y-76919180D01*
X108593000Y-77059214D01*
X106680326Y-77059214D01*
X106680326Y-76981386D01*
X106585076Y-76886136D01*
X105026326Y-76886136D01*
X104772326Y-76886136D01*
X103213576Y-76886136D01*
X103118326Y-76981386D01*
X101802000Y-76981386D01*
X101802000Y-75057000D01*
X103262646Y-75057000D01*
X103176330Y-75143317D01*
X103118326Y-75283351D01*
X103118326Y-76536886D01*
X103213576Y-76632136D01*
X104772326Y-76632136D01*
X104772326Y-76612136D01*
X105026326Y-76612136D01*
X105026326Y-76632136D01*
X106585076Y-76632136D01*
X106680326Y-76536886D01*
X106680326Y-75283351D01*
X106622322Y-75143317D01*
X106536006Y-75057000D01*
X107315000Y-75057000D01*
X107315000Y-76454000D01*
X107325006Y-76503410D01*
X107353447Y-76545035D01*
X107395841Y-76572315D01*
X107442000Y-76581000D01*
X109373453Y-76581000D01*
X109474000Y-76601000D01*
X109574547Y-76581000D01*
X111252000Y-76581000D01*
X111301410Y-76570994D01*
X111343035Y-76542553D01*
X111370315Y-76500159D01*
X111379000Y-76454000D01*
X111379000Y-76394250D01*
X111387000Y-76394250D01*
X111387000Y-76582786D01*
X111445004Y-76722820D01*
X111552181Y-76829996D01*
X111692215Y-76888000D01*
X112045750Y-76888000D01*
X112141000Y-76792750D01*
X112141000Y-76299000D01*
X112395000Y-76299000D01*
X112395000Y-76792750D01*
X112490250Y-76888000D01*
X112843785Y-76888000D01*
X112983819Y-76829996D01*
X113090996Y-76722820D01*
X113149000Y-76582786D01*
X113149000Y-76394250D01*
X113053750Y-76299000D01*
X112395000Y-76299000D01*
X112141000Y-76299000D01*
X111482250Y-76299000D01*
X111387000Y-76394250D01*
X111379000Y-76394250D01*
X111379000Y-75819000D01*
X111387000Y-75819000D01*
X111387000Y-75949750D01*
X111482250Y-76045000D01*
X112141000Y-76045000D01*
X112141000Y-76025000D01*
X112395000Y-76025000D01*
X112395000Y-76045000D01*
X113053750Y-76045000D01*
X113149000Y-75949750D01*
X113149000Y-75819000D01*
X113538000Y-75819000D01*
X113587410Y-75808994D01*
X113629035Y-75780553D01*
X113656315Y-75738159D01*
X113665000Y-75692000D01*
X113665000Y-74855250D01*
X113751000Y-74855250D01*
X113751000Y-74960785D01*
X113809004Y-75100819D01*
X113916180Y-75207996D01*
X114056214Y-75266000D01*
X114161750Y-75266000D01*
X114257000Y-75170750D01*
X114257000Y-74760000D01*
X113846250Y-74760000D01*
X113751000Y-74855250D01*
X113665000Y-74855250D01*
X113665000Y-74549000D01*
X113916676Y-74549000D01*
X113980866Y-74592859D01*
M02*
