  0
SECTION
  2
HEADER
  9
$ANGBASE
  50
0.0
  9
$ANGDIR
  70
  1
  9
$MEASUREMENT
  70
0
  0
ENDSEC
  0
SECTION
  2
TABLES
  0
TABLE
  2
LTYPE
  70
1
  0
LTYPE
  2
CONTINUOUS
  70
0
  3
Solid line
  72
65
  73
0
  40
0.0
  0
ENDTAB
  0
TABLE
  2
STYLE
  70
4
  0
STYLE
  2
KICAD
  70
0
  40
0
  41
1
  42
1
  50
0
  71
0
  3
isocp.shx
  0
STYLE
  2
KICADB
  70
0
  40
0
  41
1
  42
1
  50
0
  71
0
  3
isocp.shx
  0
STYLE
  2
KICADI
  70
0
  40
0
  41
1
  42
1
  50
15
  71
0
  3
isocp.shx
  0
STYLE
  2
KICADBI
  70
0
  40
0
  41
1
  42
1
  50
15
  71
0
  3
isocp.shx
  0
ENDTAB
  0
TABLE
  2
LAYER
  70
30
  0
LAYER
  2
BLACK
  70
0
  62
7
  6
CONTINUOUS
  0
LAYER
  2
GRAY1
  70
0
  62
251
  6
CONTINUOUS
  0
LAYER
  2
GRAY2
  70
0
  62
8
  6
CONTINUOUS
  0
LAYER
  2
GRAY3
  70
0
  62
9
  6
CONTINUOUS
  0
LAYER
  2
WHITE
  70
0
  62
7
  6
CONTINUOUS
  0
LAYER
  2
LYELLOW
  70
0
  62
51
  6
CONTINUOUS
  0
LAYER
  2
BLUE1
  70
0
  62
178
  6
CONTINUOUS
  0
LAYER
  2
GREEN1
  70
0
  62
98
  6
CONTINUOUS
  0
LAYER
  2
CYAN1
  70
0
  62
138
  6
CONTINUOUS
  0
LAYER
  2
RED1
  70
0
  62
18
  6
CONTINUOUS
  0
LAYER
  2
MAGENTA1
  70
0
  62
228
  6
CONTINUOUS
  0
LAYER
  2
BROWN1
  70
0
  62
58
  6
CONTINUOUS
  0
LAYER
  2
BLUE2
  70
0
  62
5
  6
CONTINUOUS
  0
LAYER
  2
GREEN2
  70
0
  62
3
  6
CONTINUOUS
  0
LAYER
  2
CYAN2
  70
0
  62
4
  6
CONTINUOUS
  0
LAYER
  2
RED2
  70
0
  62
1
  6
CONTINUOUS
  0
LAYER
  2
MAGENTA2
  70
0
  62
6
  6
CONTINUOUS
  0
LAYER
  2
BROWN2
  70
0
  62
54
  6
CONTINUOUS
  0
LAYER
  2
BLUE3
  70
0
  62
171
  6
CONTINUOUS
  0
LAYER
  2
GREEN3
  70
0
  62
91
  6
CONTINUOUS
  0
LAYER
  2
CYAN3
  70
0
  62
131
  6
CONTINUOUS
  0
LAYER
  2
RED3
  70
0
  62
11
  6
CONTINUOUS
  0
LAYER
  2
MAGENTA3
  70
0
  62
221
  6
CONTINUOUS
  0
LAYER
  2
YELLOW3
  70
0
  62
2
  6
CONTINUOUS
  0
LAYER
  2
BLUE4
  70
0
  62
5
  6
CONTINUOUS
  0
LAYER
  2
GREEN4
  70
0
  62
3
  6
CONTINUOUS
  0
LAYER
  2
CYAN4
  70
0
  62
4
  6
CONTINUOUS
  0
LAYER
  2
RED4
  70
0
  62
1
  6
CONTINUOUS
  0
LAYER
  2
MAGENTA4
  70
0
  62
6
  6
CONTINUOUS
  0
LAYER
  2
YELLOW4
  70
0
  62
2
  6
CONTINUOUS
  0
ENDTAB
  0
ENDSEC
  0
SECTION
  2
ENTITIES
0
LINE
8
Black
10
166.297
20
-60.0366
11
166.313
21
-60.0419
0
LINE
8
Black
10
166.313
20
-60.0419
11
166.313
21
-60.0419
0
LINE
8
Black
10
166.313
20
-60.0419
11
183.861
21
-69.4093
0
LINE
8
Black
10
183.861
20
-69.4093
11
183.865
21
-69.4125
0
LINE
8
Black
10
183.865
20
-69.4125
11
183.869
21
-69.4151
0
LINE
8
Black
10
183.869
20
-69.4151
11
186.787
21
-71.8635
0
LINE
8
Black
10
186.787
20
-71.8635
11
186.791
21
-71.8675
0
LINE
8
Black
10
186.791
20
-71.8675
11
186.794
21
-71.8709
0
LINE
8
Black
10
186.794
20
-71.8709
11
187.437
21
-72.6909
0
LINE
8
Black
10
187.437
20
-72.6909
11
187.445
21
-72.7062
0
LINE
8
Black
10
187.445
20
-72.7062
11
187.445
21
-72.7062
0
LINE
8
Black
10
187.445
20
-72.7062
11
187.769
21
-73.6966
0
LINE
8
Black
10
187.769
20
-73.6966
11
187.769
21
-73.6966
0
LINE
8
Black
10
187.769
20
-73.6966
11
187.77
21
-73.7052
0
LINE
8
Black
10
187.77
20
-73.7052
11
187.771
21
-73.7138
0
LINE
8
Black
10
187.771
20
-73.7138
11
187.771
21
-73.7138
0
LINE
8
Black
10
187.771
20
-73.7138
11
187.737
21
-74.7551
0
LINE
8
Black
10
187.737
20
-74.7551
11
187.737
21
-74.7551
0
LINE
8
Black
10
187.737
20
-74.7551
11
187.733
21
-74.7721
0
LINE
8
Black
10
187.733
20
-74.7721
11
187.345
21
-75.7387
0
LINE
8
Black
10
187.345
20
-75.7387
11
187.341
21
-75.7447
0
LINE
8
Black
10
187.341
20
-75.7447
11
187.337
21
-75.751
0
LINE
8
Black
10
187.337
20
-75.751
11
186.932
21
-76.267
0
LINE
8
Black
10
186.932
20
-76.267
11
186.929
21
-76.2688
0
LINE
8
Black
10
186.929
20
-76.2688
11
186.928
21
-76.2711
0
LINE
8
Black
10
186.928
20
-76.2711
11
186.91
21
-76.2891
0
LINE
8
Black
10
186.91
20
-76.2891
11
185.236
21
-78.7463
0
LINE
8
Black
10
185.236
20
-78.7463
11
184.504
21
-81.6237
0
LINE
8
Black
10
184.504
20
-81.6237
11
184.8
21
-84.578
0
LINE
8
Black
10
184.8
20
-84.578
11
186.089
21
-87.2528
0
LINE
8
Black
10
186.089
20
-87.2528
11
188.215
21
-89.3255
0
LINE
8
Black
10
188.215
20
-89.3255
11
190.93
21
-90.5497
0
LINE
8
Black
10
190.93
20
-90.5497
11
191.879
21
-90.978
0
LINE
8
Black
10
191.879
20
-90.978
11
191.879
21
-90.978
0
LINE
8
Black
10
191.879
20
-90.978
11
191.894
21
-90.9878
0
LINE
8
Black
10
191.894
20
-90.9878
11
192.64
21
-91.7151
0
LINE
8
Black
10
192.64
20
-91.7151
11
192.65
21
-91.7292
0
LINE
8
Black
10
192.65
20
-91.7292
11
193.102
21
-92.6678
0
LINE
8
Black
10
193.102
20
-92.6678
11
193.104
21
-92.6753
0
LINE
8
Black
10
193.104
20
-92.6753
11
193.107
21
-92.6827
0
LINE
8
Black
10
193.107
20
-92.6827
11
193.219
21
-93.4958
0
LINE
8
Black
10
193.219
20
-93.4958
11
193.219
21
-93.4993
0
LINE
8
Black
10
193.219
20
-93.4993
11
193.219
21
-93.5027
0
LINE
8
Black
10
193.219
20
-93.5027
11
193.219
21
-116.601
0
LINE
8
Black
10
193.219
20
-116.601
11
193.219
21
-116.605
0
LINE
8
Black
10
193.219
20
-116.605
11
193.219
21
-116.609
0
LINE
8
Black
10
193.219
20
-116.609
11
193.038
21
-117.635
0
LINE
8
Black
10
193.038
20
-117.635
11
193.038
21
-117.635
0
LINE
8
Black
10
193.038
20
-117.635
11
193.035
21
-117.643
0
LINE
8
Black
10
193.035
20
-117.643
11
193.032
21
-117.652
0
LINE
8
Black
10
193.032
20
-117.652
11
193.032
21
-117.652
0
LINE
8
Black
10
193.032
20
-117.652
11
192.511
21
-118.554
0
LINE
8
Black
10
192.511
20
-118.554
11
192.511
21
-118.554
0
LINE
8
Black
10
192.511
20
-118.554
11
192.5
21
-118.567
0
LINE
8
Black
10
192.5
20
-118.567
11
191.702
21
-119.237
0
LINE
8
Black
10
191.702
20
-119.237
11
191.695
21
-119.241
0
LINE
8
Black
10
191.695
20
-119.241
11
191.688
21
-119.245
0
LINE
8
Black
10
191.688
20
-119.245
11
190.913
21
-119.558
0
LINE
8
Black
10
190.913
20
-119.558
11
190.91
21
-119.559
0
LINE
8
Black
10
190.91
20
-119.559
11
190.907
21
-119.56
0
LINE
8
Black
10
190.907
20
-119.56
11
190.809
21
-119.585
0
LINE
8
Black
10
190.809
20
-119.585
11
188.107
21
-120.827
0
LINE
8
Black
10
188.107
20
-120.827
11
185.996
21
-122.915
0
LINE
8
Black
10
185.996
20
-122.915
11
184.727
21
-125.599
0
LINE
8
Black
10
184.727
20
-125.599
11
184.452
21
-128.556
0
LINE
8
Black
10
184.452
20
-128.556
11
185.205
21
-131.428
0
LINE
8
Black
10
185.205
20
-131.428
11
186.9
21
-133.876
0
LINE
8
Black
10
186.9
20
-133.876
11
186.9
21
-133.876
0
LINE
8
Black
10
186.9
20
-133.876
11
187.493
21
-134.733
0
LINE
8
Black
10
187.493
20
-134.733
11
187.5
21
-134.749
0
LINE
8
Black
10
187.5
20
-134.749
11
187.5
21
-134.749
0
LINE
8
Black
10
187.5
20
-134.749
11
187.765
21
-135.757
0
LINE
8
Black
10
187.765
20
-135.757
11
187.765
21
-135.757
0
LINE
8
Black
10
187.765
20
-135.757
11
187.765
21
-135.765
0
LINE
8
Black
10
187.765
20
-135.765
11
187.766
21
-135.774
0
LINE
8
Black
10
187.766
20
-135.774
11
187.766
21
-135.774
0
LINE
8
Black
10
187.766
20
-135.774
11
187.67
21
-136.811
0
LINE
8
Black
10
187.67
20
-136.811
11
187.67
21
-136.811
0
LINE
8
Black
10
187.67
20
-136.811
11
187.665
21
-136.828
0
LINE
8
Black
10
187.665
20
-136.828
11
187.22
21
-137.77
0
LINE
8
Black
10
187.22
20
-137.77
11
187.215
21
-137.776
0
LINE
8
Black
10
187.215
20
-137.776
11
187.212
21
-137.782
0
LINE
8
Black
10
187.212
20
-137.782
11
186.758
21
-138.289
0
LINE
8
Black
10
186.758
20
-138.289
11
186.753
21
-138.293
0
LINE
8
Black
10
186.753
20
-138.293
11
186.747
21
-138.298
0
LINE
8
Black
10
186.747
20
-138.298
11
169.82
21
-148.745
0
LINE
8
Black
10
169.82
20
-148.745
11
169.82
21
-148.745
0
LINE
8
Black
10
169.82
20
-148.745
11
169.804
21
-148.751
0
LINE
8
Black
10
169.804
20
-148.751
11
150.325
21
-152.778
0
LINE
8
Black
10
150.325
20
-152.778
11
150.32
21
-152.778
0
LINE
8
Black
10
150.32
20
-152.778
11
150.315
21
-152.779
0
LINE
8
Black
10
150.315
20
-152.779
11
148.502
21
-152.804
0
LINE
8
Black
10
148.502
20
-152.804
11
148.497
21
-152.803
0
LINE
8
Black
10
148.497
20
-152.803
11
148.493
21
-152.803
0
LINE
8
Black
10
148.493
20
-152.803
11
128.895
21
-149.394
0
LINE
8
Black
10
128.895
20
-149.394
11
128.879
21
-149.389
0
LINE
8
Black
10
128.879
20
-149.389
11
111.63
21
-139.483
0
LINE
8
Black
10
111.63
20
-139.483
11
111.626
21
-139.48
0
LINE
8
Black
10
111.626
20
-139.48
11
111.622
21
-139.478
0
LINE
8
Black
10
111.622
20
-139.478
11
110.248
21
-138.293
0
LINE
8
Black
10
110.248
20
-138.293
11
110.245
21
-138.29
0
LINE
8
Black
10
110.245
20
-138.29
11
110.242
21
-138.286
0
LINE
8
Black
10
110.242
20
-138.286
11
109.596
21
-137.469
0
LINE
8
Black
10
109.596
20
-137.469
11
109.596
21
-137.469
0
LINE
8
Black
10
109.596
20
-137.469
11
109.588
21
-137.454
0
LINE
8
Black
10
109.588
20
-137.454
11
109.26
21
-136.465
0
LINE
8
Black
10
109.26
20
-136.465
11
109.258
21
-136.447
0
LINE
8
Black
10
109.258
20
-136.447
11
109.258
21
-136.447
0
LINE
8
Black
10
109.258
20
-136.447
11
109.288
21
-135.406
0
LINE
8
Black
10
109.288
20
-135.406
11
109.288
21
-135.406
0
LINE
8
Black
10
109.288
20
-135.406
11
109.292
21
-135.389
0
LINE
8
Black
10
109.292
20
-135.389
11
109.677
21
-134.421
0
LINE
8
Black
10
109.677
20
-134.421
11
109.68
21
-134.415
0
LINE
8
Black
10
109.68
20
-134.415
11
109.684
21
-134.408
0
LINE
8
Black
10
109.684
20
-134.408
11
110.104
21
-133.874
0
LINE
8
Black
10
110.104
20
-133.874
11
110.106
21
-133.872
0
LINE
8
Black
10
110.106
20
-133.872
11
110.107
21
-133.87
0
LINE
8
Black
10
110.107
20
-133.87
11
110.178
21
-133.798
0
LINE
8
Black
10
110.178
20
-133.798
11
111.84
21
-131.332
0
LINE
8
Black
10
111.84
20
-131.332
11
112.558
21
-128.451
0
LINE
8
Black
10
112.558
20
-128.451
11
112.247
21
-125.498
0
LINE
8
Black
10
112.247
20
-125.498
11
110.945
21
-122.83
0
LINE
8
Black
10
110.945
20
-122.83
11
108.808
21
-120.768
0
LINE
8
Black
10
108.808
20
-120.768
11
106.087
21
-119.557
0
LINE
8
Black
10
106.087
20
-119.557
11
106.087
21
-119.557
0
LINE
8
Black
10
106.087
20
-119.557
11
105.136
21
-119.134
0
LINE
8
Black
10
105.136
20
-119.134
11
105.136
21
-119.134
0
LINE
8
Black
10
105.136
20
-119.134
11
105.121
21
-119.124
0
LINE
8
Black
10
105.121
20
-119.124
11
104.371
21
-118.401
0
LINE
8
Black
10
104.371
20
-118.401
11
104.361
21
-118.387
0
LINE
8
Black
10
104.361
20
-118.387
11
103.904
21
-117.45
0
LINE
8
Black
10
103.904
20
-117.45
11
103.902
21
-117.443
0
LINE
8
Black
10
103.902
20
-117.443
11
103.9
21
-117.435
0
LINE
8
Black
10
103.9
20
-117.435
11
103.783
21
-116.608
0
LINE
8
Black
10
103.783
20
-116.608
11
103.783
21
-116.604
0
LINE
8
Black
10
103.783
20
-116.604
11
103.783
21
-116.601
0
LINE
8
Black
10
103.783
20
-116.601
11
103.783
21
-93.5027
0
LINE
8
Black
10
103.783
20
-93.5027
11
103.784
21
-93.4983
0
LINE
8
Black
10
103.784
20
-93.4983
11
103.784
21
-93.494
0
LINE
8
Black
10
103.784
20
-93.494
11
103.964
21
-92.4679
0
LINE
8
Black
10
103.964
20
-92.4679
11
103.964
21
-92.4679
0
LINE
8
Black
10
103.964
20
-92.4679
11
103.967
21
-92.4598
0
LINE
8
Black
10
103.967
20
-92.4598
11
103.97
21
-92.4516
0
LINE
8
Black
10
103.97
20
-92.4516
11
103.97
21
-92.4516
0
LINE
8
Black
10
103.97
20
-92.4516
11
104.491
21
-91.5493
0
LINE
8
Black
10
104.491
20
-91.5493
11
104.503
21
-91.536
0
LINE
8
Black
10
104.503
20
-91.536
11
104.503
21
-91.536
0
LINE
8
Black
10
104.503
20
-91.536
11
105.301
21
-90.8663
0
LINE
8
Black
10
105.301
20
-90.8663
11
105.307
21
-90.8624
0
LINE
8
Black
10
105.307
20
-90.8624
11
105.314
21
-90.8583
0
LINE
8
Black
10
105.314
20
-90.8583
11
106.074
21
-90.549
0
LINE
8
Black
10
106.074
20
-90.549
11
106.078
21
-90.5482
0
LINE
8
Black
10
106.078
20
-90.5482
11
106.081
21
-90.5468
0
LINE
8
Black
10
106.081
20
-90.5468
11
106.105
21
-90.5406
0
LINE
8
Black
10
106.105
20
-90.5406
11
108.812
21
-89.3089
0
LINE
8
Black
10
108.812
20
-89.3089
11
110.93
21
-87.2289
0
LINE
8
Black
10
110.93
20
-87.2289
11
112.21
21
-84.5497
0
LINE
8
Black
10
112.21
20
-84.5497
11
112.496
21
-81.5944
0
LINE
8
Black
10
112.496
20
-81.5944
11
111.754
21
-78.7195
0
LINE
8
Black
10
111.754
20
-78.7195
11
110.069
21
-76.2644
0
LINE
8
Black
10
110.069
20
-76.2644
11
110.069
21
-76.2644
0
LINE
8
Black
10
110.069
20
-76.2644
11
109.479
21
-75.4055
0
LINE
8
Black
10
109.479
20
-75.4055
11
109.479
21
-75.4055
0
LINE
8
Black
10
109.479
20
-75.4055
11
109.472
21
-75.3897
0
LINE
8
Black
10
109.472
20
-75.3897
11
109.212
21
-74.3808
0
LINE
8
Black
10
109.212
20
-74.3808
11
109.21
21
-74.3635
0
LINE
8
Black
10
109.21
20
-74.3635
11
109.21
21
-74.3635
0
LINE
8
Black
10
109.21
20
-74.3635
11
109.311
21
-73.3265
0
LINE
8
Black
10
109.311
20
-73.3265
11
109.311
21
-73.3265
0
LINE
8
Black
10
109.311
20
-73.3265
11
109.315
21
-73.3097
0
LINE
8
Black
10
109.315
20
-73.3097
11
109.764
21
-72.3696
0
LINE
8
Black
10
109.764
20
-72.3696
11
109.768
21
-72.3638
0
LINE
8
Black
10
109.768
20
-72.3638
11
109.772
21
-72.3578
0
LINE
8
Black
10
109.772
20
-72.3578
11
110.21
21
-71.8684
0
LINE
8
Black
10
110.21
20
-71.8684
11
110.215
21
-71.8641
0
LINE
8
Black
10
110.215
20
-71.8641
11
110.221
21
-71.8593
0
LINE
8
Black
10
110.221
20
-71.8593
11
127.107
21
-61.3464
0
LINE
8
Black
10
127.107
20
-61.3464
11
127.123
21
-61.3399
0
LINE
8
Black
10
127.123
20
-61.3399
11
127.123
21
-61.3399
0
LINE
8
Black
10
127.123
20
-61.3399
11
146.586
21
-57.2364
0
LINE
8
Black
10
146.586
20
-57.2364
11
146.586
21
-57.2363
0
LINE
8
Black
10
146.586
20
-57.2363
11
146.604
21
-57.2358
0
LINE
8
Black
10
146.604
20
-57.2358
11
166.297
21
-60.0366
0
LINE
8
Black
10
127.152
20
-61.4359
11
110.28
21
-71.9404
0
LINE
8
Black
10
110.28
20
-71.9404
11
109.851
21
-72.4191
0
LINE
8
Black
10
109.851
20
-72.4191
11
109.409
21
-73.3449
0
LINE
8
Black
10
109.409
20
-73.3449
11
109.311
21
-74.3644
0
LINE
8
Black
10
109.311
20
-74.3644
11
109.567
21
-75.3561
0
LINE
8
Black
10
109.567
20
-75.3561
11
110.151
21
-76.2078
0
LINE
8
Black
10
110.151
20
-76.2078
11
110.151
21
-76.2078
0
LINE
8
Black
10
110.151
20
-76.2078
11
111.842
21
-78.6702
0
LINE
8
Black
10
111.842
20
-78.6702
11
111.849
21
-78.686
0
LINE
8
Black
10
111.849
20
-78.686
11
112.595
21
-81.578
0
LINE
8
Black
10
112.595
20
-81.578
11
112.596
21
-81.5953
0
LINE
8
Black
10
112.596
20
-81.5953
11
112.596
21
-81.5953
0
LINE
8
Black
10
112.596
20
-81.5953
11
112.309
21
-84.5681
0
LINE
8
Black
10
112.309
20
-84.5681
11
112.309
21
-84.5681
0
LINE
8
Black
10
112.309
20
-84.5681
11
112.304
21
-84.5849
0
LINE
8
Black
10
112.304
20
-84.5849
11
111.017
21
-87.28
0
LINE
8
Black
10
111.017
20
-87.28
11
111.007
21
-87.2941
0
LINE
8
Black
10
111.007
20
-87.2941
11
108.875
21
-89.3864
0
LINE
8
Black
10
108.875
20
-89.3864
11
108.861
21
-89.3963
0
LINE
8
Black
10
108.861
20
-89.3963
11
106.143
21
-90.6334
0
LINE
8
Black
10
106.143
20
-90.6334
11
106.138
21
-90.6345
0
LINE
8
Black
10
106.138
20
-90.6345
11
106.134
21
-90.6364
0
LINE
8
Black
10
106.134
20
-90.6364
11
106.109
21
-90.6429
0
LINE
8
Black
10
106.109
20
-90.6429
11
105.359
21
-90.9479
0
LINE
8
Black
10
105.359
20
-90.9479
11
104.574
21
-91.6069
0
LINE
8
Black
10
104.574
20
-91.6069
11
104.061
21
-92.494
0
LINE
8
Black
10
104.061
20
-92.494
11
103.883
21
-93.507
0
LINE
8
Black
10
103.883
20
-93.507
11
103.883
21
-116.597
0
LINE
8
Black
10
103.883
20
-116.597
11
103.998
21
-117.413
0
LINE
8
Black
10
103.998
20
-117.413
11
104.447
21
-118.335
0
LINE
8
Black
10
104.447
20
-118.335
11
105.184
21
-119.046
0
LINE
8
Black
10
105.184
20
-119.046
11
106.128
21
-119.466
0
LINE
8
Black
10
106.128
20
-119.466
11
108.857
21
-120.68
0
LINE
8
Black
10
108.857
20
-120.68
11
108.857
21
-120.68
0
LINE
8
Black
10
108.857
20
-120.68
11
108.871
21
-120.69
0
LINE
8
Black
10
108.871
20
-120.69
11
111.02
21
-122.764
0
LINE
8
Black
10
111.02
20
-122.764
11
111.02
21
-122.764
0
LINE
8
Black
10
111.02
20
-122.764
11
111.026
21
-122.772
0
LINE
8
Black
10
111.026
20
-122.772
11
111.031
21
-122.778
0
LINE
8
Black
10
111.031
20
-122.778
11
111.031
21
-122.778
0
LINE
8
Black
10
111.031
20
-122.778
11
112.341
21
-125.462
0
LINE
8
Black
10
112.341
20
-125.462
11
112.345
21
-125.479
0
LINE
8
Black
10
112.345
20
-125.479
11
112.658
21
-128.449
0
LINE
8
Black
10
112.658
20
-128.449
11
112.658
21
-128.449
0
LINE
8
Black
10
112.658
20
-128.449
11
112.657
21
-128.467
0
LINE
8
Black
10
112.657
20
-128.467
11
111.935
21
-131.365
0
LINE
8
Black
10
111.935
20
-131.365
11
111.928
21
-131.381
0
LINE
8
Black
10
111.928
20
-131.381
11
110.259
21
-133.857
0
LINE
8
Black
10
110.259
20
-133.857
11
110.256
21
-133.86
0
LINE
8
Black
10
110.256
20
-133.86
11
110.253
21
-133.864
0
LINE
8
Black
10
110.253
20
-133.864
11
110.181
21
-133.938
0
LINE
8
Black
10
110.181
20
-133.938
11
109.767
21
-134.464
0
LINE
8
Black
10
109.767
20
-134.464
11
109.388
21
-135.418
0
LINE
8
Black
10
109.388
20
-135.418
11
109.358
21
-136.441
0
LINE
8
Black
10
109.358
20
-136.441
11
109.68
21
-137.414
0
LINE
8
Black
10
109.68
20
-137.414
11
110.317
21
-138.221
0
LINE
8
Black
10
110.317
20
-138.221
11
111.684
21
-139.399
0
LINE
8
Black
10
111.684
20
-139.399
11
128.921
21
-149.297
0
LINE
8
Black
10
128.921
20
-149.297
11
148.505
21
-152.704
0
LINE
8
Black
10
148.505
20
-152.704
11
150.309
21
-152.679
0
LINE
8
Black
10
150.309
20
-152.679
11
169.775
21
-148.655
0
LINE
8
Black
10
169.775
20
-148.655
11
186.689
21
-138.217
0
LINE
8
Black
10
186.689
20
-138.217
11
187.132
21
-137.721
0
LINE
8
Black
10
187.132
20
-137.721
11
187.571
21
-136.793
0
LINE
8
Black
10
187.571
20
-136.793
11
187.666
21
-135.774
0
LINE
8
Black
10
187.666
20
-135.774
11
187.406
21
-134.783
0
LINE
8
Black
10
187.406
20
-134.783
11
186.818
21
-133.933
0
LINE
8
Black
10
186.818
20
-133.933
11
185.118
21
-131.478
0
LINE
8
Black
10
185.118
20
-131.478
11
185.118
21
-131.478
0
LINE
8
Black
10
185.118
20
-131.478
11
185.115
21
-131.47
0
LINE
8
Black
10
185.115
20
-131.47
11
185.111
21
-131.462
0
LINE
8
Black
10
185.111
20
-131.462
11
185.111
21
-131.462
0
LINE
8
Black
10
185.111
20
-131.462
11
184.353
21
-128.573
0
LINE
8
Black
10
184.353
20
-128.573
11
184.353
21
-128.573
0
LINE
8
Black
10
184.353
20
-128.573
11
184.353
21
-128.564
0
LINE
8
Black
10
184.353
20
-128.564
11
184.352
21
-128.555
0
LINE
8
Black
10
184.352
20
-128.555
11
184.352
21
-128.555
0
LINE
8
Black
10
184.352
20
-128.555
11
184.628
21
-125.581
0
LINE
8
Black
10
184.628
20
-125.581
11
184.628
21
-125.581
0
LINE
8
Black
10
184.628
20
-125.581
11
184.633
21
-125.565
0
LINE
8
Black
10
184.633
20
-125.565
11
185.91
21
-122.865
0
LINE
8
Black
10
185.91
20
-122.865
11
185.91
21
-122.865
0
LINE
8
Black
10
185.91
20
-122.865
11
185.92
21
-122.85
0
LINE
8
Black
10
185.92
20
-122.85
11
188.043
21
-120.75
0
LINE
8
Black
10
188.043
20
-120.75
11
188.043
21
-120.75
0
LINE
8
Black
10
188.043
20
-120.75
11
188.057
21
-120.74
0
LINE
8
Black
10
188.057
20
-120.74
11
190.771
21
-119.492
0
LINE
8
Black
10
190.771
20
-119.492
11
190.775
21
-119.491
0
LINE
8
Black
10
190.775
20
-119.491
11
190.779
21
-119.489
0
LINE
8
Black
10
190.779
20
-119.489
11
190.879
21
-119.464
0
LINE
8
Black
10
190.879
20
-119.464
11
191.643
21
-119.155
0
LINE
8
Black
10
191.643
20
-119.155
11
192.429
21
-118.496
0
LINE
8
Black
10
192.429
20
-118.496
11
192.941
21
-117.609
0
LINE
8
Black
10
192.941
20
-117.609
11
193.119
21
-116.596
0
LINE
8
Black
10
193.119
20
-116.596
11
193.119
21
-93.5061
0
LINE
8
Black
10
193.119
20
-93.5061
11
193.009
21
-92.7041
0
LINE
8
Black
10
193.009
20
-92.7041
11
192.564
21
-91.7805
0
LINE
8
Black
10
192.564
20
-91.7805
11
191.83
21
-91.0655
0
LINE
8
Black
10
191.83
20
-91.0655
11
190.888
21
-90.6408
0
LINE
8
Black
10
190.888
20
-90.6408
11
190.888
21
-90.6408
0
LINE
8
Black
10
190.888
20
-90.6408
11
188.166
21
-89.413
0
LINE
8
Black
10
188.166
20
-89.413
11
188.166
21
-89.413
0
LINE
8
Black
10
188.166
20
-89.413
11
188.151
21
-89.4033
0
LINE
8
Black
10
188.151
20
-89.4033
11
186.013
21
-87.3183
0
LINE
8
Black
10
186.013
20
-87.3183
11
186.003
21
-87.3042
0
LINE
8
Black
10
186.003
20
-87.3042
11
184.706
21
-84.6135
0
LINE
8
Black
10
184.706
20
-84.6135
11
184.702
21
-84.5968
0
LINE
8
Black
10
184.702
20
-84.5968
11
184.702
21
-84.5968
0
LINE
8
Black
10
184.702
20
-84.5968
11
184.403
21
-81.6249
0
LINE
8
Black
10
184.403
20
-81.6249
11
184.403
21
-81.6249
0
LINE
8
Black
10
184.403
20
-81.6249
11
184.405
21
-81.6076
0
LINE
8
Black
10
184.405
20
-81.6076
11
185.141
21
-78.7131
0
LINE
8
Black
10
185.141
20
-78.7131
11
185.148
21
-78.6972
0
LINE
8
Black
10
185.148
20
-78.6972
11
185.148
21
-78.6972
0
LINE
8
Black
10
185.148
20
-78.6972
11
186.83
21
-76.2291
0
LINE
8
Black
10
186.83
20
-76.2291
11
186.833
21
-76.2259
0
LINE
8
Black
10
186.833
20
-76.2259
11
186.836
21
-76.2223
0
LINE
8
Black
10
186.836
20
-76.2223
11
186.855
21
-76.2031
0
LINE
8
Black
10
186.855
20
-76.2031
11
187.254
21
-75.6948
0
LINE
8
Black
10
187.254
20
-75.6948
11
187.637
21
-74.7429
0
LINE
8
Black
10
187.637
20
-74.7429
11
187.671
21
-73.7192
0
LINE
8
Black
10
187.671
20
-73.7192
11
187.353
21
-72.7456
0
LINE
8
Black
10
187.353
20
-72.7456
11
186.719
21
-71.9367
0
LINE
8
Black
10
186.719
20
-71.9367
11
183.809
21
-69.495
0
LINE
8
Black
10
183.809
20
-69.495
11
166.274
21
-60.1343
0
LINE
8
Black
10
166.274
20
-60.1343
11
146.598
21
-57.336
0
LINE
8
Black
10
146.598
20
-57.336
11
127.152
21
-61.4359
0
LINE
8
Black
10
160.413
20
-114.999
11
156.276
21
-118.47
0
LINE
8
Black
10
156.276
20
-118.47
11
151.201
21
-120.317
0
LINE
8
Black
10
151.201
20
-120.317
11
145.801
21
-120.317
0
LINE
8
Black
10
145.801
20
-120.317
11
140.726
21
-118.47
0
LINE
8
Black
10
140.726
20
-118.47
11
136.589
21
-114.999
0
LINE
8
Black
10
136.589
20
-114.999
11
133.889
21
-110.322
0
LINE
8
Black
10
133.889
20
-110.322
11
132.951
21
-105.004
0
LINE
8
Black
10
132.951
20
-105.004
11
133.889
21
-99.6852
0
LINE
8
Black
10
133.889
20
-99.6852
11
136.589
21
-95.0083
0
LINE
8
Black
10
136.589
20
-95.0083
11
140.726
21
-91.5369
0
LINE
8
Black
10
140.726
20
-91.5369
11
145.801
21
-89.6898
0
LINE
8
Black
10
145.801
20
-89.6898
11
151.201
21
-89.6898
0
LINE
8
Black
10
151.201
20
-89.6898
11
156.276
21
-91.5369
0
LINE
8
Black
10
156.276
20
-91.5369
11
160.413
21
-95.0083
0
LINE
8
Black
10
160.413
20
-95.0083
11
163.113
21
-99.6852
0
LINE
8
Black
10
163.113
20
-99.6852
11
164.051
21
-105.004
0
LINE
8
Black
10
164.051
20
-105.004
11
163.113
21
-110.322
0
LINE
8
Black
10
163.113
20
-110.322
11
160.413
21
-114.999
0
LINE
8
Black
10
160.336
20
-95.0725
11
156.226
21
-91.6235
0
LINE
8
Black
10
156.226
20
-91.6235
11
151.184
21
-89.7883
0
LINE
8
Black
10
151.184
20
-89.7883
11
145.818
21
-89.7883
0
LINE
8
Black
10
145.818
20
-89.7883
11
140.776
21
-91.6235
0
LINE
8
Black
10
140.776
20
-91.6235
11
136.666
21
-95.0725
0
LINE
8
Black
10
136.666
20
-95.0725
11
133.983
21
-99.7194
0
LINE
8
Black
10
133.983
20
-99.7194
11
133.051
21
-105.004
0
LINE
8
Black
10
133.051
20
-105.004
11
133.983
21
-110.288
0
LINE
8
Black
10
133.983
20
-110.288
11
136.666
21
-114.935
0
LINE
8
Black
10
136.666
20
-114.935
11
140.776
21
-118.384
0
LINE
8
Black
10
140.776
20
-118.384
11
145.818
21
-120.219
0
LINE
8
Black
10
145.818
20
-120.219
11
151.184
21
-120.219
0
LINE
8
Black
10
151.184
20
-120.219
11
156.226
21
-118.384
0
LINE
8
Black
10
156.226
20
-118.384
11
160.336
21
-114.935
0
LINE
8
Black
10
160.336
20
-114.935
11
163.019
21
-110.288
0
LINE
8
Black
10
163.019
20
-110.288
11
163.951
21
-105.004
0
LINE
8
Black
10
163.951
20
-105.004
11
163.019
21
-99.7194
0
LINE
8
Black
10
163.019
20
-99.7194
11
160.336
21
-95.0725
  0
ENDSEC
  0
EOF
