G04 #@! TF.GenerationSoftware,KiCad,Pcbnew,5.1.0-unknown-ca7aec2~82~ubuntu18.04.1*
G04 #@! TF.CreationDate,2019-04-12T10:54:20-06:00*
G04 #@! TF.ProjectId,batteryMonitor,62617474-6572-4794-9d6f-6e69746f722e,rev?*
G04 #@! TF.SameCoordinates,Original*
G04 #@! TF.FileFunction,Soldermask,Top*
G04 #@! TF.FilePolarity,Negative*
%FSLAX46Y46*%
G04 Gerber Fmt 4.6, Leading zero omitted, Abs format (unit mm)*
G04 Created by KiCad (PCBNEW 5.1.0-unknown-ca7aec2~82~ubuntu18.04.1) date 2019-04-12 10:54:20*
%MOMM*%
%LPD*%
G04 APERTURE LIST*
%ADD10C,0.100000*%
G04 APERTURE END LIST*
D10*
G36*
X121101000Y-93809280D02*
G01*
X114399000Y-93809280D01*
X114399000Y-92057280D01*
X121101000Y-92057280D01*
X121101000Y-93809280D01*
X121101000Y-93809280D01*
G37*
G36*
X133342091Y-92478085D02*
G01*
X133376069Y-92488393D01*
X133407390Y-92505134D01*
X133434839Y-92527661D01*
X133457366Y-92555110D01*
X133474107Y-92586431D01*
X133484415Y-92620409D01*
X133488500Y-92661890D01*
X133488500Y-93338110D01*
X133484415Y-93379591D01*
X133474107Y-93413569D01*
X133457366Y-93444890D01*
X133434839Y-93472339D01*
X133407390Y-93494866D01*
X133376069Y-93511607D01*
X133342091Y-93521915D01*
X133300610Y-93526000D01*
X132699390Y-93526000D01*
X132657909Y-93521915D01*
X132623931Y-93511607D01*
X132592610Y-93494866D01*
X132565161Y-93472339D01*
X132542634Y-93444890D01*
X132525893Y-93413569D01*
X132515585Y-93379591D01*
X132511500Y-93338110D01*
X132511500Y-92661890D01*
X132515585Y-92620409D01*
X132525893Y-92586431D01*
X132542634Y-92555110D01*
X132565161Y-92527661D01*
X132592610Y-92505134D01*
X132623931Y-92488393D01*
X132657909Y-92478085D01*
X132699390Y-92474000D01*
X133300610Y-92474000D01*
X133342091Y-92478085D01*
X133342091Y-92478085D01*
G37*
G36*
X125592091Y-92478085D02*
G01*
X125626069Y-92488393D01*
X125657390Y-92505134D01*
X125684839Y-92527661D01*
X125707366Y-92555110D01*
X125724107Y-92586431D01*
X125734415Y-92620409D01*
X125738500Y-92661890D01*
X125738500Y-93338110D01*
X125734415Y-93379591D01*
X125724107Y-93413569D01*
X125707366Y-93444890D01*
X125684839Y-93472339D01*
X125657390Y-93494866D01*
X125626069Y-93511607D01*
X125592091Y-93521915D01*
X125550610Y-93526000D01*
X124949390Y-93526000D01*
X124907909Y-93521915D01*
X124873931Y-93511607D01*
X124842610Y-93494866D01*
X124815161Y-93472339D01*
X124792634Y-93444890D01*
X124775893Y-93413569D01*
X124765585Y-93379591D01*
X124761500Y-93338110D01*
X124761500Y-92661890D01*
X124765585Y-92620409D01*
X124775893Y-92586431D01*
X124792634Y-92555110D01*
X124815161Y-92527661D01*
X124842610Y-92505134D01*
X124873931Y-92488393D01*
X124907909Y-92478085D01*
X124949390Y-92474000D01*
X125550610Y-92474000D01*
X125592091Y-92478085D01*
X125592091Y-92478085D01*
G37*
G36*
X131767091Y-92478085D02*
G01*
X131801069Y-92488393D01*
X131832390Y-92505134D01*
X131859839Y-92527661D01*
X131882366Y-92555110D01*
X131899107Y-92586431D01*
X131909415Y-92620409D01*
X131913500Y-92661890D01*
X131913500Y-93338110D01*
X131909415Y-93379591D01*
X131899107Y-93413569D01*
X131882366Y-93444890D01*
X131859839Y-93472339D01*
X131832390Y-93494866D01*
X131801069Y-93511607D01*
X131767091Y-93521915D01*
X131725610Y-93526000D01*
X131124390Y-93526000D01*
X131082909Y-93521915D01*
X131048931Y-93511607D01*
X131017610Y-93494866D01*
X130990161Y-93472339D01*
X130967634Y-93444890D01*
X130950893Y-93413569D01*
X130940585Y-93379591D01*
X130936500Y-93338110D01*
X130936500Y-92661890D01*
X130940585Y-92620409D01*
X130950893Y-92586431D01*
X130967634Y-92555110D01*
X130990161Y-92527661D01*
X131017610Y-92505134D01*
X131048931Y-92488393D01*
X131082909Y-92478085D01*
X131124390Y-92474000D01*
X131725610Y-92474000D01*
X131767091Y-92478085D01*
X131767091Y-92478085D01*
G37*
G36*
X127167091Y-92478085D02*
G01*
X127201069Y-92488393D01*
X127232390Y-92505134D01*
X127259839Y-92527661D01*
X127282366Y-92555110D01*
X127299107Y-92586431D01*
X127309415Y-92620409D01*
X127313500Y-92661890D01*
X127313500Y-93338110D01*
X127309415Y-93379591D01*
X127299107Y-93413569D01*
X127282366Y-93444890D01*
X127259839Y-93472339D01*
X127232390Y-93494866D01*
X127201069Y-93511607D01*
X127167091Y-93521915D01*
X127125610Y-93526000D01*
X126524390Y-93526000D01*
X126482909Y-93521915D01*
X126448931Y-93511607D01*
X126417610Y-93494866D01*
X126390161Y-93472339D01*
X126367634Y-93444890D01*
X126350893Y-93413569D01*
X126340585Y-93379591D01*
X126336500Y-93338110D01*
X126336500Y-92661890D01*
X126340585Y-92620409D01*
X126350893Y-92586431D01*
X126367634Y-92555110D01*
X126390161Y-92527661D01*
X126417610Y-92505134D01*
X126448931Y-92488393D01*
X126482909Y-92478085D01*
X126524390Y-92474000D01*
X127125610Y-92474000D01*
X127167091Y-92478085D01*
X127167091Y-92478085D01*
G37*
G36*
X112879591Y-92090585D02*
G01*
X112913569Y-92100893D01*
X112944890Y-92117634D01*
X112972339Y-92140161D01*
X112994866Y-92167610D01*
X113011607Y-92198931D01*
X113021915Y-92232909D01*
X113026000Y-92274390D01*
X113026000Y-92875610D01*
X113021915Y-92917091D01*
X113011607Y-92951069D01*
X112994866Y-92982390D01*
X112972339Y-93009839D01*
X112944890Y-93032366D01*
X112913569Y-93049107D01*
X112879591Y-93059415D01*
X112838110Y-93063500D01*
X112161890Y-93063500D01*
X112120409Y-93059415D01*
X112086431Y-93049107D01*
X112055110Y-93032366D01*
X112027661Y-93009839D01*
X112005134Y-92982390D01*
X111988393Y-92951069D01*
X111978085Y-92917091D01*
X111974000Y-92875610D01*
X111974000Y-92274390D01*
X111978085Y-92232909D01*
X111988393Y-92198931D01*
X112005134Y-92167610D01*
X112027661Y-92140161D01*
X112055110Y-92117634D01*
X112086431Y-92100893D01*
X112120409Y-92090585D01*
X112161890Y-92086500D01*
X112838110Y-92086500D01*
X112879591Y-92090585D01*
X112879591Y-92090585D01*
G37*
G36*
X109390371Y-92057845D02*
G01*
X109424349Y-92068153D01*
X109455670Y-92084894D01*
X109483119Y-92107421D01*
X109505646Y-92134870D01*
X109522387Y-92166191D01*
X109532695Y-92200169D01*
X109536780Y-92241650D01*
X109536780Y-92842870D01*
X109532695Y-92884351D01*
X109522387Y-92918329D01*
X109505646Y-92949650D01*
X109483119Y-92977099D01*
X109455670Y-92999626D01*
X109424349Y-93016367D01*
X109390371Y-93026675D01*
X109348890Y-93030760D01*
X108672670Y-93030760D01*
X108631189Y-93026675D01*
X108597211Y-93016367D01*
X108565890Y-92999626D01*
X108538441Y-92977099D01*
X108515914Y-92949650D01*
X108499173Y-92918329D01*
X108488865Y-92884351D01*
X108484780Y-92842870D01*
X108484780Y-92241650D01*
X108488865Y-92200169D01*
X108499173Y-92166191D01*
X108515914Y-92134870D01*
X108538441Y-92107421D01*
X108565890Y-92084894D01*
X108597211Y-92068153D01*
X108631189Y-92057845D01*
X108672670Y-92053760D01*
X109348890Y-92053760D01*
X109390371Y-92057845D01*
X109390371Y-92057845D01*
G37*
G36*
X107629591Y-92053085D02*
G01*
X107663569Y-92063393D01*
X107694890Y-92080134D01*
X107722339Y-92102661D01*
X107744866Y-92130110D01*
X107761607Y-92161431D01*
X107771915Y-92195409D01*
X107776000Y-92236890D01*
X107776000Y-92838110D01*
X107771915Y-92879591D01*
X107761607Y-92913569D01*
X107744866Y-92944890D01*
X107722339Y-92972339D01*
X107694890Y-92994866D01*
X107663569Y-93011607D01*
X107629591Y-93021915D01*
X107588110Y-93026000D01*
X106911890Y-93026000D01*
X106870409Y-93021915D01*
X106836431Y-93011607D01*
X106805110Y-92994866D01*
X106777661Y-92972339D01*
X106755134Y-92944890D01*
X106738393Y-92913569D01*
X106728085Y-92879591D01*
X106724000Y-92838110D01*
X106724000Y-92236890D01*
X106728085Y-92195409D01*
X106738393Y-92161431D01*
X106755134Y-92130110D01*
X106777661Y-92102661D01*
X106805110Y-92080134D01*
X106836431Y-92063393D01*
X106870409Y-92053085D01*
X106911890Y-92049000D01*
X107588110Y-92049000D01*
X107629591Y-92053085D01*
X107629591Y-92053085D01*
G37*
G36*
X111129591Y-92015585D02*
G01*
X111163569Y-92025893D01*
X111194890Y-92042634D01*
X111222339Y-92065161D01*
X111244866Y-92092610D01*
X111261607Y-92123931D01*
X111271915Y-92157909D01*
X111276000Y-92199390D01*
X111276000Y-92800610D01*
X111271915Y-92842091D01*
X111261607Y-92876069D01*
X111244866Y-92907390D01*
X111222339Y-92934839D01*
X111194890Y-92957366D01*
X111163569Y-92974107D01*
X111129591Y-92984415D01*
X111088110Y-92988500D01*
X110411890Y-92988500D01*
X110370409Y-92984415D01*
X110336431Y-92974107D01*
X110305110Y-92957366D01*
X110277661Y-92934839D01*
X110255134Y-92907390D01*
X110238393Y-92876069D01*
X110228085Y-92842091D01*
X110224000Y-92800610D01*
X110224000Y-92199390D01*
X110228085Y-92157909D01*
X110238393Y-92123931D01*
X110255134Y-92092610D01*
X110277661Y-92065161D01*
X110305110Y-92042634D01*
X110336431Y-92025893D01*
X110370409Y-92015585D01*
X110411890Y-92011500D01*
X111088110Y-92011500D01*
X111129591Y-92015585D01*
X111129591Y-92015585D01*
G37*
G36*
X137901000Y-92401000D02*
G01*
X136599000Y-92401000D01*
X136599000Y-91399000D01*
X137901000Y-91399000D01*
X137901000Y-92401000D01*
X137901000Y-92401000D01*
G37*
G36*
X142041522Y-90407398D02*
G01*
X142107707Y-90413917D01*
X142277546Y-90465437D01*
X142434071Y-90549102D01*
X142469809Y-90578432D01*
X142571266Y-90661694D01*
X142654528Y-90763151D01*
X142683858Y-90798889D01*
X142767523Y-90955414D01*
X142819043Y-91125253D01*
X142836439Y-91301880D01*
X142819043Y-91478507D01*
X142767523Y-91648346D01*
X142683858Y-91804871D01*
X142654528Y-91840609D01*
X142571266Y-91942066D01*
X142469809Y-92025328D01*
X142434071Y-92054658D01*
X142426971Y-92058453D01*
X142297488Y-92127664D01*
X142277546Y-92138323D01*
X142107707Y-92189843D01*
X142041523Y-92196361D01*
X141975340Y-92202880D01*
X141886820Y-92202880D01*
X141820637Y-92196361D01*
X141754453Y-92189843D01*
X141584614Y-92138323D01*
X141564673Y-92127664D01*
X141435189Y-92058453D01*
X141428089Y-92054658D01*
X141392351Y-92025328D01*
X141290894Y-91942066D01*
X141207632Y-91840609D01*
X141178302Y-91804871D01*
X141094637Y-91648346D01*
X141043117Y-91478507D01*
X141025721Y-91301880D01*
X141043117Y-91125253D01*
X141094637Y-90955414D01*
X141178302Y-90798889D01*
X141207632Y-90763151D01*
X141290894Y-90661694D01*
X141392351Y-90578432D01*
X141428089Y-90549102D01*
X141584614Y-90465437D01*
X141754453Y-90413917D01*
X141820638Y-90407398D01*
X141886820Y-90400880D01*
X141975340Y-90400880D01*
X142041522Y-90407398D01*
X142041522Y-90407398D01*
G37*
G36*
X123260000Y-91615000D02*
G01*
X122420000Y-91615000D01*
X122420000Y-90325000D01*
X123260000Y-90325000D01*
X123260000Y-91615000D01*
X123260000Y-91615000D01*
G37*
G36*
X129510000Y-91615000D02*
G01*
X128670000Y-91615000D01*
X128670000Y-90325000D01*
X129510000Y-90325000D01*
X129510000Y-91615000D01*
X129510000Y-91615000D01*
G37*
G36*
X127080000Y-91615000D02*
G01*
X126240000Y-91615000D01*
X126240000Y-90325000D01*
X127080000Y-90325000D01*
X127080000Y-91615000D01*
X127080000Y-91615000D01*
G37*
G36*
X130780000Y-91615000D02*
G01*
X129940000Y-91615000D01*
X129940000Y-90325000D01*
X130780000Y-90325000D01*
X130780000Y-91615000D01*
X130780000Y-91615000D01*
G37*
G36*
X133330000Y-91615000D02*
G01*
X132490000Y-91615000D01*
X132490000Y-90325000D01*
X133330000Y-90325000D01*
X133330000Y-91615000D01*
X133330000Y-91615000D01*
G37*
G36*
X125810000Y-91615000D02*
G01*
X124970000Y-91615000D01*
X124970000Y-90325000D01*
X125810000Y-90325000D01*
X125810000Y-91615000D01*
X125810000Y-91615000D01*
G37*
G36*
X124530000Y-91615000D02*
G01*
X123690000Y-91615000D01*
X123690000Y-90325000D01*
X124530000Y-90325000D01*
X124530000Y-91615000D01*
X124530000Y-91615000D01*
G37*
G36*
X132060000Y-91615000D02*
G01*
X131220000Y-91615000D01*
X131220000Y-90325000D01*
X132060000Y-90325000D01*
X132060000Y-91615000D01*
X132060000Y-91615000D01*
G37*
G36*
X135379591Y-90590585D02*
G01*
X135413569Y-90600893D01*
X135444890Y-90617634D01*
X135472339Y-90640161D01*
X135494866Y-90667610D01*
X135511607Y-90698931D01*
X135521915Y-90732909D01*
X135526000Y-90774390D01*
X135526000Y-91375610D01*
X135521915Y-91417091D01*
X135511607Y-91451069D01*
X135494866Y-91482390D01*
X135472339Y-91509839D01*
X135444890Y-91532366D01*
X135413569Y-91549107D01*
X135379591Y-91559415D01*
X135338110Y-91563500D01*
X134661890Y-91563500D01*
X134620409Y-91559415D01*
X134586431Y-91549107D01*
X134555110Y-91532366D01*
X134527661Y-91509839D01*
X134505134Y-91482390D01*
X134488393Y-91451069D01*
X134478085Y-91417091D01*
X134474000Y-91375610D01*
X134474000Y-90774390D01*
X134478085Y-90732909D01*
X134488393Y-90698931D01*
X134505134Y-90667610D01*
X134527661Y-90640161D01*
X134555110Y-90617634D01*
X134586431Y-90600893D01*
X134620409Y-90590585D01*
X134661890Y-90586500D01*
X135338110Y-90586500D01*
X135379591Y-90590585D01*
X135379591Y-90590585D01*
G37*
G36*
X112879591Y-90515585D02*
G01*
X112913569Y-90525893D01*
X112944890Y-90542634D01*
X112972339Y-90565161D01*
X112994866Y-90592610D01*
X113011607Y-90623931D01*
X113021915Y-90657909D01*
X113026000Y-90699390D01*
X113026000Y-91300610D01*
X113021915Y-91342091D01*
X113011607Y-91376069D01*
X112994866Y-91407390D01*
X112972339Y-91434839D01*
X112944890Y-91457366D01*
X112913569Y-91474107D01*
X112879591Y-91484415D01*
X112838110Y-91488500D01*
X112161890Y-91488500D01*
X112120409Y-91484415D01*
X112086431Y-91474107D01*
X112055110Y-91457366D01*
X112027661Y-91434839D01*
X112005134Y-91407390D01*
X111988393Y-91376069D01*
X111978085Y-91342091D01*
X111974000Y-91300610D01*
X111974000Y-90699390D01*
X111978085Y-90657909D01*
X111988393Y-90623931D01*
X112005134Y-90592610D01*
X112027661Y-90565161D01*
X112055110Y-90542634D01*
X112086431Y-90525893D01*
X112120409Y-90515585D01*
X112161890Y-90511500D01*
X112838110Y-90511500D01*
X112879591Y-90515585D01*
X112879591Y-90515585D01*
G37*
G36*
X109390371Y-90482845D02*
G01*
X109424349Y-90493153D01*
X109455670Y-90509894D01*
X109483119Y-90532421D01*
X109505646Y-90559870D01*
X109522387Y-90591191D01*
X109532695Y-90625169D01*
X109536780Y-90666650D01*
X109536780Y-91267870D01*
X109532695Y-91309351D01*
X109522387Y-91343329D01*
X109505646Y-91374650D01*
X109483119Y-91402099D01*
X109455670Y-91424626D01*
X109424349Y-91441367D01*
X109390371Y-91451675D01*
X109348890Y-91455760D01*
X108672670Y-91455760D01*
X108631189Y-91451675D01*
X108597211Y-91441367D01*
X108565890Y-91424626D01*
X108538441Y-91402099D01*
X108515914Y-91374650D01*
X108499173Y-91343329D01*
X108488865Y-91309351D01*
X108484780Y-91267870D01*
X108484780Y-90666650D01*
X108488865Y-90625169D01*
X108499173Y-90591191D01*
X108515914Y-90559870D01*
X108538441Y-90532421D01*
X108565890Y-90509894D01*
X108597211Y-90493153D01*
X108631189Y-90482845D01*
X108672670Y-90478760D01*
X109348890Y-90478760D01*
X109390371Y-90482845D01*
X109390371Y-90482845D01*
G37*
G36*
X107629591Y-90478085D02*
G01*
X107663569Y-90488393D01*
X107694890Y-90505134D01*
X107722339Y-90527661D01*
X107744866Y-90555110D01*
X107761607Y-90586431D01*
X107771915Y-90620409D01*
X107776000Y-90661890D01*
X107776000Y-91263110D01*
X107771915Y-91304591D01*
X107761607Y-91338569D01*
X107744866Y-91369890D01*
X107722339Y-91397339D01*
X107694890Y-91419866D01*
X107663569Y-91436607D01*
X107629591Y-91446915D01*
X107588110Y-91451000D01*
X106911890Y-91451000D01*
X106870409Y-91446915D01*
X106836431Y-91436607D01*
X106805110Y-91419866D01*
X106777661Y-91397339D01*
X106755134Y-91369890D01*
X106738393Y-91338569D01*
X106728085Y-91304591D01*
X106724000Y-91263110D01*
X106724000Y-90661890D01*
X106728085Y-90620409D01*
X106738393Y-90586431D01*
X106755134Y-90555110D01*
X106777661Y-90527661D01*
X106805110Y-90505134D01*
X106836431Y-90488393D01*
X106870409Y-90478085D01*
X106911890Y-90474000D01*
X107588110Y-90474000D01*
X107629591Y-90478085D01*
X107629591Y-90478085D01*
G37*
G36*
X111129591Y-90440585D02*
G01*
X111163569Y-90450893D01*
X111194890Y-90467634D01*
X111222339Y-90490161D01*
X111244866Y-90517610D01*
X111261607Y-90548931D01*
X111271915Y-90582909D01*
X111276000Y-90624390D01*
X111276000Y-91225610D01*
X111271915Y-91267091D01*
X111261607Y-91301069D01*
X111244866Y-91332390D01*
X111222339Y-91359839D01*
X111194890Y-91382366D01*
X111163569Y-91399107D01*
X111129591Y-91409415D01*
X111088110Y-91413500D01*
X110411890Y-91413500D01*
X110370409Y-91409415D01*
X110336431Y-91399107D01*
X110305110Y-91382366D01*
X110277661Y-91359839D01*
X110255134Y-91332390D01*
X110238393Y-91301069D01*
X110228085Y-91267091D01*
X110224000Y-91225610D01*
X110224000Y-90624390D01*
X110228085Y-90582909D01*
X110238393Y-90548931D01*
X110255134Y-90517610D01*
X110277661Y-90490161D01*
X110305110Y-90467634D01*
X110336431Y-90450893D01*
X110370409Y-90440585D01*
X110411890Y-90436500D01*
X111088110Y-90436500D01*
X111129591Y-90440585D01*
X111129591Y-90440585D01*
G37*
G36*
X121001000Y-91259280D02*
G01*
X114299000Y-91259280D01*
X114299000Y-89507280D01*
X121001000Y-89507280D01*
X121001000Y-91259280D01*
X121001000Y-91259280D01*
G37*
G36*
X135379591Y-89015585D02*
G01*
X135413569Y-89025893D01*
X135444890Y-89042634D01*
X135472339Y-89065161D01*
X135494866Y-89092610D01*
X135511607Y-89123931D01*
X135521915Y-89157909D01*
X135526000Y-89199390D01*
X135526000Y-89800610D01*
X135521915Y-89842091D01*
X135511607Y-89876069D01*
X135494866Y-89907390D01*
X135472339Y-89934839D01*
X135444890Y-89957366D01*
X135413569Y-89974107D01*
X135379591Y-89984415D01*
X135338110Y-89988500D01*
X134661890Y-89988500D01*
X134620409Y-89984415D01*
X134586431Y-89974107D01*
X134555110Y-89957366D01*
X134527661Y-89934839D01*
X134505134Y-89907390D01*
X134488393Y-89876069D01*
X134478085Y-89842091D01*
X134474000Y-89800610D01*
X134474000Y-89199390D01*
X134478085Y-89157909D01*
X134488393Y-89123931D01*
X134505134Y-89092610D01*
X134527661Y-89065161D01*
X134555110Y-89042634D01*
X134586431Y-89025893D01*
X134620409Y-89015585D01*
X134661890Y-89011500D01*
X135338110Y-89011500D01*
X135379591Y-89015585D01*
X135379591Y-89015585D01*
G37*
G36*
X107592091Y-88728085D02*
G01*
X107626069Y-88738393D01*
X107657390Y-88755134D01*
X107684839Y-88777661D01*
X107707366Y-88805110D01*
X107724107Y-88836431D01*
X107734415Y-88870409D01*
X107738500Y-88911890D01*
X107738500Y-89588110D01*
X107734415Y-89629591D01*
X107724107Y-89663569D01*
X107707366Y-89694890D01*
X107684839Y-89722339D01*
X107657390Y-89744866D01*
X107626069Y-89761607D01*
X107592091Y-89771915D01*
X107550610Y-89776000D01*
X106949390Y-89776000D01*
X106907909Y-89771915D01*
X106873931Y-89761607D01*
X106842610Y-89744866D01*
X106815161Y-89722339D01*
X106792634Y-89694890D01*
X106775893Y-89663569D01*
X106765585Y-89629591D01*
X106761500Y-89588110D01*
X106761500Y-88911890D01*
X106765585Y-88870409D01*
X106775893Y-88836431D01*
X106792634Y-88805110D01*
X106815161Y-88777661D01*
X106842610Y-88755134D01*
X106873931Y-88738393D01*
X106907909Y-88728085D01*
X106949390Y-88724000D01*
X107550610Y-88724000D01*
X107592091Y-88728085D01*
X107592091Y-88728085D01*
G37*
G36*
X109167091Y-88728085D02*
G01*
X109201069Y-88738393D01*
X109232390Y-88755134D01*
X109259839Y-88777661D01*
X109282366Y-88805110D01*
X109299107Y-88836431D01*
X109309415Y-88870409D01*
X109313500Y-88911890D01*
X109313500Y-89588110D01*
X109309415Y-89629591D01*
X109299107Y-89663569D01*
X109282366Y-89694890D01*
X109259839Y-89722339D01*
X109232390Y-89744866D01*
X109201069Y-89761607D01*
X109167091Y-89771915D01*
X109125610Y-89776000D01*
X108524390Y-89776000D01*
X108482909Y-89771915D01*
X108448931Y-89761607D01*
X108417610Y-89744866D01*
X108390161Y-89722339D01*
X108367634Y-89694890D01*
X108350893Y-89663569D01*
X108340585Y-89629591D01*
X108336500Y-89588110D01*
X108336500Y-88911890D01*
X108340585Y-88870409D01*
X108350893Y-88836431D01*
X108367634Y-88805110D01*
X108390161Y-88777661D01*
X108417610Y-88755134D01*
X108448931Y-88738393D01*
X108482909Y-88728085D01*
X108524390Y-88724000D01*
X109125610Y-88724000D01*
X109167091Y-88728085D01*
X109167091Y-88728085D01*
G37*
G36*
X142041523Y-87867399D02*
G01*
X142107707Y-87873917D01*
X142277546Y-87925437D01*
X142434071Y-88009102D01*
X142469809Y-88038432D01*
X142571266Y-88121694D01*
X142654528Y-88223151D01*
X142683858Y-88258889D01*
X142767523Y-88415414D01*
X142819043Y-88585253D01*
X142836439Y-88761880D01*
X142819043Y-88938507D01*
X142767523Y-89108346D01*
X142683858Y-89264871D01*
X142654528Y-89300609D01*
X142571266Y-89402066D01*
X142469809Y-89485328D01*
X142434071Y-89514658D01*
X142277546Y-89598323D01*
X142107707Y-89649843D01*
X142041523Y-89656361D01*
X141975340Y-89662880D01*
X141886820Y-89662880D01*
X141820637Y-89656361D01*
X141754453Y-89649843D01*
X141584614Y-89598323D01*
X141428089Y-89514658D01*
X141392351Y-89485328D01*
X141290894Y-89402066D01*
X141207632Y-89300609D01*
X141178302Y-89264871D01*
X141094637Y-89108346D01*
X141043117Y-88938507D01*
X141025721Y-88761880D01*
X141043117Y-88585253D01*
X141094637Y-88415414D01*
X141178302Y-88258889D01*
X141207632Y-88223151D01*
X141290894Y-88121694D01*
X141392351Y-88038432D01*
X141428089Y-88009102D01*
X141584614Y-87925437D01*
X141754453Y-87873917D01*
X141820637Y-87867399D01*
X141886820Y-87860880D01*
X141975340Y-87860880D01*
X142041523Y-87867399D01*
X142041523Y-87867399D01*
G37*
G36*
X127170000Y-86345000D02*
G01*
X127044999Y-86345000D01*
X127020613Y-86347402D01*
X126997164Y-86354515D01*
X126975553Y-86366066D01*
X126956611Y-86381611D01*
X126941066Y-86400553D01*
X126929515Y-86422164D01*
X126922402Y-86445613D01*
X126920000Y-86469999D01*
X126920000Y-89420000D01*
X122580000Y-89420000D01*
X122580000Y-86469999D01*
X122577598Y-86445613D01*
X122570485Y-86422164D01*
X122558934Y-86400553D01*
X122543389Y-86381611D01*
X122524447Y-86366066D01*
X122502836Y-86354515D01*
X122479387Y-86347402D01*
X122455001Y-86345000D01*
X122330000Y-86345000D01*
X122330000Y-84655000D01*
X127170000Y-84655000D01*
X127170000Y-86345000D01*
X127170000Y-86345000D01*
G37*
G36*
X133420000Y-86345000D02*
G01*
X133294999Y-86345000D01*
X133270613Y-86347402D01*
X133247164Y-86354515D01*
X133225553Y-86366066D01*
X133206611Y-86381611D01*
X133191066Y-86400553D01*
X133179515Y-86422164D01*
X133172402Y-86445613D01*
X133170000Y-86469999D01*
X133170000Y-89420000D01*
X128830000Y-89420000D01*
X128830000Y-86469999D01*
X128827598Y-86445613D01*
X128820485Y-86422164D01*
X128808934Y-86400553D01*
X128793389Y-86381611D01*
X128774447Y-86366066D01*
X128752836Y-86354515D01*
X128729387Y-86347402D01*
X128705001Y-86345000D01*
X128580000Y-86345000D01*
X128580000Y-84655000D01*
X133420000Y-84655000D01*
X133420000Y-86345000D01*
X133420000Y-86345000D01*
G37*
G36*
X137901000Y-89101000D02*
G01*
X136599000Y-89101000D01*
X136599000Y-88099000D01*
X137901000Y-88099000D01*
X137901000Y-89101000D01*
X137901000Y-89101000D01*
G37*
G36*
X136951000Y-87251000D02*
G01*
X136049000Y-87251000D01*
X136049000Y-86249000D01*
X136951000Y-86249000D01*
X136951000Y-87251000D01*
X136951000Y-87251000D01*
G37*
G36*
X142041522Y-85327398D02*
G01*
X142107707Y-85333917D01*
X142277546Y-85385437D01*
X142434071Y-85469102D01*
X142457707Y-85488500D01*
X142571266Y-85581694D01*
X142654528Y-85683151D01*
X142683858Y-85718889D01*
X142767523Y-85875414D01*
X142819043Y-86045253D01*
X142836439Y-86221880D01*
X142819043Y-86398507D01*
X142767523Y-86568346D01*
X142683858Y-86724871D01*
X142667448Y-86744866D01*
X142571266Y-86862066D01*
X142469809Y-86945328D01*
X142434071Y-86974658D01*
X142277546Y-87058323D01*
X142107707Y-87109843D01*
X142041522Y-87116362D01*
X141975340Y-87122880D01*
X141886820Y-87122880D01*
X141820638Y-87116362D01*
X141754453Y-87109843D01*
X141584614Y-87058323D01*
X141428089Y-86974658D01*
X141392351Y-86945328D01*
X141290894Y-86862066D01*
X141194712Y-86744866D01*
X141178302Y-86724871D01*
X141094637Y-86568346D01*
X141043117Y-86398507D01*
X141025721Y-86221880D01*
X141043117Y-86045253D01*
X141094637Y-85875414D01*
X141178302Y-85718889D01*
X141207632Y-85683151D01*
X141290894Y-85581694D01*
X141404453Y-85488500D01*
X141428089Y-85469102D01*
X141584614Y-85385437D01*
X141754453Y-85333917D01*
X141820638Y-85327398D01*
X141886820Y-85320880D01*
X141975340Y-85320880D01*
X142041522Y-85327398D01*
X142041522Y-85327398D01*
G37*
G36*
X109379591Y-85728085D02*
G01*
X109413569Y-85738393D01*
X109444890Y-85755134D01*
X109472339Y-85777661D01*
X109494866Y-85805110D01*
X109511607Y-85836431D01*
X109521915Y-85870409D01*
X109526000Y-85911890D01*
X109526000Y-86588110D01*
X109521915Y-86629591D01*
X109511607Y-86663569D01*
X109494866Y-86694890D01*
X109472339Y-86722339D01*
X109444890Y-86744866D01*
X109413569Y-86761607D01*
X109379591Y-86771915D01*
X109338110Y-86776000D01*
X108736890Y-86776000D01*
X108695409Y-86771915D01*
X108661431Y-86761607D01*
X108630110Y-86744866D01*
X108602661Y-86722339D01*
X108580134Y-86694890D01*
X108563393Y-86663569D01*
X108553085Y-86629591D01*
X108549000Y-86588110D01*
X108549000Y-85911890D01*
X108553085Y-85870409D01*
X108563393Y-85836431D01*
X108580134Y-85805110D01*
X108602661Y-85777661D01*
X108630110Y-85755134D01*
X108661431Y-85738393D01*
X108695409Y-85728085D01*
X108736890Y-85724000D01*
X109338110Y-85724000D01*
X109379591Y-85728085D01*
X109379591Y-85728085D01*
G37*
G36*
X104342091Y-85728085D02*
G01*
X104376069Y-85738393D01*
X104407390Y-85755134D01*
X104434839Y-85777661D01*
X104457366Y-85805110D01*
X104474107Y-85836431D01*
X104484415Y-85870409D01*
X104488500Y-85911890D01*
X104488500Y-86588110D01*
X104484415Y-86629591D01*
X104474107Y-86663569D01*
X104457366Y-86694890D01*
X104434839Y-86722339D01*
X104407390Y-86744866D01*
X104376069Y-86761607D01*
X104342091Y-86771915D01*
X104300610Y-86776000D01*
X103699390Y-86776000D01*
X103657909Y-86771915D01*
X103623931Y-86761607D01*
X103592610Y-86744866D01*
X103565161Y-86722339D01*
X103542634Y-86694890D01*
X103525893Y-86663569D01*
X103515585Y-86629591D01*
X103511500Y-86588110D01*
X103511500Y-85911890D01*
X103515585Y-85870409D01*
X103525893Y-85836431D01*
X103542634Y-85805110D01*
X103565161Y-85777661D01*
X103592610Y-85755134D01*
X103623931Y-85738393D01*
X103657909Y-85728085D01*
X103699390Y-85724000D01*
X104300610Y-85724000D01*
X104342091Y-85728085D01*
X104342091Y-85728085D01*
G37*
G36*
X105917091Y-85728085D02*
G01*
X105951069Y-85738393D01*
X105982390Y-85755134D01*
X106009839Y-85777661D01*
X106032366Y-85805110D01*
X106049107Y-85836431D01*
X106059415Y-85870409D01*
X106063500Y-85911890D01*
X106063500Y-86588110D01*
X106059415Y-86629591D01*
X106049107Y-86663569D01*
X106032366Y-86694890D01*
X106009839Y-86722339D01*
X105982390Y-86744866D01*
X105951069Y-86761607D01*
X105917091Y-86771915D01*
X105875610Y-86776000D01*
X105274390Y-86776000D01*
X105232909Y-86771915D01*
X105198931Y-86761607D01*
X105167610Y-86744866D01*
X105140161Y-86722339D01*
X105117634Y-86694890D01*
X105100893Y-86663569D01*
X105090585Y-86629591D01*
X105086500Y-86588110D01*
X105086500Y-85911890D01*
X105090585Y-85870409D01*
X105100893Y-85836431D01*
X105117634Y-85805110D01*
X105140161Y-85777661D01*
X105167610Y-85755134D01*
X105198931Y-85738393D01*
X105232909Y-85728085D01*
X105274390Y-85724000D01*
X105875610Y-85724000D01*
X105917091Y-85728085D01*
X105917091Y-85728085D01*
G37*
G36*
X107804591Y-85728085D02*
G01*
X107838569Y-85738393D01*
X107869890Y-85755134D01*
X107897339Y-85777661D01*
X107919866Y-85805110D01*
X107936607Y-85836431D01*
X107946915Y-85870409D01*
X107951000Y-85911890D01*
X107951000Y-86588110D01*
X107946915Y-86629591D01*
X107936607Y-86663569D01*
X107919866Y-86694890D01*
X107897339Y-86722339D01*
X107869890Y-86744866D01*
X107838569Y-86761607D01*
X107804591Y-86771915D01*
X107763110Y-86776000D01*
X107161890Y-86776000D01*
X107120409Y-86771915D01*
X107086431Y-86761607D01*
X107055110Y-86744866D01*
X107027661Y-86722339D01*
X107005134Y-86694890D01*
X106988393Y-86663569D01*
X106978085Y-86629591D01*
X106974000Y-86588110D01*
X106974000Y-85911890D01*
X106978085Y-85870409D01*
X106988393Y-85836431D01*
X107005134Y-85805110D01*
X107027661Y-85777661D01*
X107055110Y-85755134D01*
X107086431Y-85738393D01*
X107120409Y-85728085D01*
X107161890Y-85724000D01*
X107763110Y-85724000D01*
X107804591Y-85728085D01*
X107804591Y-85728085D01*
G37*
G36*
X145379591Y-84553085D02*
G01*
X145413569Y-84563393D01*
X145444890Y-84580134D01*
X145472339Y-84602661D01*
X145494866Y-84630110D01*
X145511607Y-84661431D01*
X145521915Y-84695409D01*
X145526000Y-84736890D01*
X145526000Y-85338110D01*
X145521915Y-85379591D01*
X145511607Y-85413569D01*
X145494866Y-85444890D01*
X145472339Y-85472339D01*
X145444890Y-85494866D01*
X145413569Y-85511607D01*
X145379591Y-85521915D01*
X145338110Y-85526000D01*
X144661890Y-85526000D01*
X144620409Y-85521915D01*
X144586431Y-85511607D01*
X144555110Y-85494866D01*
X144527661Y-85472339D01*
X144505134Y-85444890D01*
X144488393Y-85413569D01*
X144478085Y-85379591D01*
X144474000Y-85338110D01*
X144474000Y-84736890D01*
X144478085Y-84695409D01*
X144488393Y-84661431D01*
X144505134Y-84630110D01*
X144527661Y-84602661D01*
X144555110Y-84580134D01*
X144586431Y-84563393D01*
X144620409Y-84553085D01*
X144661890Y-84549000D01*
X145338110Y-84549000D01*
X145379591Y-84553085D01*
X145379591Y-84553085D01*
G37*
G36*
X146879591Y-84515585D02*
G01*
X146913569Y-84525893D01*
X146944890Y-84542634D01*
X146972339Y-84565161D01*
X146994866Y-84592610D01*
X147011607Y-84623931D01*
X147021915Y-84657909D01*
X147026000Y-84699390D01*
X147026000Y-85300610D01*
X147021915Y-85342091D01*
X147011607Y-85376069D01*
X146994866Y-85407390D01*
X146972339Y-85434839D01*
X146944890Y-85457366D01*
X146913569Y-85474107D01*
X146879591Y-85484415D01*
X146838110Y-85488500D01*
X146161890Y-85488500D01*
X146120409Y-85484415D01*
X146086431Y-85474107D01*
X146055110Y-85457366D01*
X146027661Y-85434839D01*
X146005134Y-85407390D01*
X145988393Y-85376069D01*
X145978085Y-85342091D01*
X145974000Y-85300610D01*
X145974000Y-84699390D01*
X145978085Y-84657909D01*
X145988393Y-84623931D01*
X146005134Y-84592610D01*
X146027661Y-84565161D01*
X146055110Y-84542634D01*
X146086431Y-84525893D01*
X146120409Y-84515585D01*
X146161890Y-84511500D01*
X146838110Y-84511500D01*
X146879591Y-84515585D01*
X146879591Y-84515585D01*
G37*
G36*
X136001000Y-85251000D02*
G01*
X135099000Y-85251000D01*
X135099000Y-84249000D01*
X136001000Y-84249000D01*
X136001000Y-85251000D01*
X136001000Y-85251000D01*
G37*
G36*
X137901000Y-85251000D02*
G01*
X136999000Y-85251000D01*
X136999000Y-84249000D01*
X137901000Y-84249000D01*
X137901000Y-85251000D01*
X137901000Y-85251000D01*
G37*
G36*
X93110716Y-83088789D02*
G01*
X93264732Y-83119424D01*
X93428704Y-83187344D01*
X93576274Y-83285947D01*
X93701773Y-83411446D01*
X93800376Y-83559016D01*
X93868296Y-83722988D01*
X93892057Y-83842448D01*
X93899998Y-83882366D01*
X93902920Y-83897059D01*
X93902920Y-84074541D01*
X93868296Y-84248612D01*
X93800376Y-84412584D01*
X93701773Y-84560154D01*
X93576274Y-84685653D01*
X93428704Y-84784256D01*
X93264732Y-84852176D01*
X93116261Y-84881708D01*
X93090662Y-84886800D01*
X92913178Y-84886800D01*
X92887579Y-84881708D01*
X92739108Y-84852176D01*
X92575136Y-84784256D01*
X92427566Y-84685653D01*
X92302067Y-84560154D01*
X92203464Y-84412584D01*
X92135544Y-84248612D01*
X92100920Y-84074541D01*
X92100920Y-83897059D01*
X92103843Y-83882366D01*
X92111783Y-83842448D01*
X92135544Y-83722988D01*
X92203464Y-83559016D01*
X92302067Y-83411446D01*
X92427566Y-83285947D01*
X92575136Y-83187344D01*
X92739108Y-83119424D01*
X92893124Y-83088789D01*
X92913178Y-83084800D01*
X93090662Y-83084800D01*
X93110716Y-83088789D01*
X93110716Y-83088789D01*
G37*
G36*
X96260520Y-83088789D02*
G01*
X96293572Y-83098815D01*
X96324023Y-83115092D01*
X96350719Y-83137001D01*
X96372628Y-83163697D01*
X96388905Y-83194148D01*
X96398931Y-83227200D01*
X96402920Y-83267703D01*
X96402920Y-84703897D01*
X96398931Y-84744400D01*
X96388905Y-84777452D01*
X96372628Y-84807903D01*
X96350719Y-84834599D01*
X96324023Y-84856508D01*
X96293572Y-84872785D01*
X96260520Y-84882811D01*
X96220017Y-84886800D01*
X94783823Y-84886800D01*
X94743320Y-84882811D01*
X94710268Y-84872785D01*
X94679817Y-84856508D01*
X94653121Y-84834599D01*
X94631212Y-84807903D01*
X94614935Y-84777452D01*
X94604909Y-84744400D01*
X94600920Y-84703897D01*
X94600920Y-83267703D01*
X94604909Y-83227200D01*
X94614935Y-83194148D01*
X94631212Y-83163697D01*
X94653121Y-83137001D01*
X94679817Y-83115092D01*
X94710268Y-83098815D01*
X94743320Y-83088789D01*
X94783823Y-83084800D01*
X96220017Y-83084800D01*
X96260520Y-83088789D01*
X96260520Y-83088789D01*
G37*
G36*
X104304591Y-83728085D02*
G01*
X104338569Y-83738393D01*
X104369890Y-83755134D01*
X104397339Y-83777661D01*
X104419866Y-83805110D01*
X104436607Y-83836431D01*
X104446915Y-83870409D01*
X104451000Y-83911890D01*
X104451000Y-84588110D01*
X104446915Y-84629591D01*
X104436607Y-84663569D01*
X104419866Y-84694890D01*
X104397339Y-84722339D01*
X104369890Y-84744866D01*
X104338569Y-84761607D01*
X104304591Y-84771915D01*
X104263110Y-84776000D01*
X103661890Y-84776000D01*
X103620409Y-84771915D01*
X103586431Y-84761607D01*
X103555110Y-84744866D01*
X103527661Y-84722339D01*
X103505134Y-84694890D01*
X103488393Y-84663569D01*
X103478085Y-84629591D01*
X103474000Y-84588110D01*
X103474000Y-83911890D01*
X103478085Y-83870409D01*
X103488393Y-83836431D01*
X103505134Y-83805110D01*
X103527661Y-83777661D01*
X103555110Y-83755134D01*
X103586431Y-83738393D01*
X103620409Y-83728085D01*
X103661890Y-83724000D01*
X104263110Y-83724000D01*
X104304591Y-83728085D01*
X104304591Y-83728085D01*
G37*
G36*
X105879591Y-83728085D02*
G01*
X105913569Y-83738393D01*
X105944890Y-83755134D01*
X105972339Y-83777661D01*
X105994866Y-83805110D01*
X106011607Y-83836431D01*
X106021915Y-83870409D01*
X106026000Y-83911890D01*
X106026000Y-84588110D01*
X106021915Y-84629591D01*
X106011607Y-84663569D01*
X105994866Y-84694890D01*
X105972339Y-84722339D01*
X105944890Y-84744866D01*
X105913569Y-84761607D01*
X105879591Y-84771915D01*
X105838110Y-84776000D01*
X105236890Y-84776000D01*
X105195409Y-84771915D01*
X105161431Y-84761607D01*
X105130110Y-84744866D01*
X105102661Y-84722339D01*
X105080134Y-84694890D01*
X105063393Y-84663569D01*
X105053085Y-84629591D01*
X105049000Y-84588110D01*
X105049000Y-83911890D01*
X105053085Y-83870409D01*
X105063393Y-83836431D01*
X105080134Y-83805110D01*
X105102661Y-83777661D01*
X105130110Y-83755134D01*
X105161431Y-83738393D01*
X105195409Y-83728085D01*
X105236890Y-83724000D01*
X105838110Y-83724000D01*
X105879591Y-83728085D01*
X105879591Y-83728085D01*
G37*
G36*
X107767091Y-83728085D02*
G01*
X107801069Y-83738393D01*
X107832390Y-83755134D01*
X107859839Y-83777661D01*
X107882366Y-83805110D01*
X107899107Y-83836431D01*
X107909415Y-83870409D01*
X107913500Y-83911890D01*
X107913500Y-84588110D01*
X107909415Y-84629591D01*
X107899107Y-84663569D01*
X107882366Y-84694890D01*
X107859839Y-84722339D01*
X107832390Y-84744866D01*
X107801069Y-84761607D01*
X107767091Y-84771915D01*
X107725610Y-84776000D01*
X107124390Y-84776000D01*
X107082909Y-84771915D01*
X107048931Y-84761607D01*
X107017610Y-84744866D01*
X106990161Y-84722339D01*
X106967634Y-84694890D01*
X106950893Y-84663569D01*
X106940585Y-84629591D01*
X106936500Y-84588110D01*
X106936500Y-83911890D01*
X106940585Y-83870409D01*
X106950893Y-83836431D01*
X106967634Y-83805110D01*
X106990161Y-83777661D01*
X107017610Y-83755134D01*
X107048931Y-83738393D01*
X107082909Y-83728085D01*
X107124390Y-83724000D01*
X107725610Y-83724000D01*
X107767091Y-83728085D01*
X107767091Y-83728085D01*
G37*
G36*
X109342091Y-83728085D02*
G01*
X109376069Y-83738393D01*
X109407390Y-83755134D01*
X109434839Y-83777661D01*
X109457366Y-83805110D01*
X109474107Y-83836431D01*
X109484415Y-83870409D01*
X109488500Y-83911890D01*
X109488500Y-84588110D01*
X109484415Y-84629591D01*
X109474107Y-84663569D01*
X109457366Y-84694890D01*
X109434839Y-84722339D01*
X109407390Y-84744866D01*
X109376069Y-84761607D01*
X109342091Y-84771915D01*
X109300610Y-84776000D01*
X108699390Y-84776000D01*
X108657909Y-84771915D01*
X108623931Y-84761607D01*
X108592610Y-84744866D01*
X108565161Y-84722339D01*
X108542634Y-84694890D01*
X108525893Y-84663569D01*
X108515585Y-84629591D01*
X108511500Y-84588110D01*
X108511500Y-83911890D01*
X108515585Y-83870409D01*
X108525893Y-83836431D01*
X108542634Y-83805110D01*
X108565161Y-83777661D01*
X108592610Y-83755134D01*
X108623931Y-83738393D01*
X108657909Y-83728085D01*
X108699390Y-83724000D01*
X109300610Y-83724000D01*
X109342091Y-83728085D01*
X109342091Y-83728085D01*
G37*
G36*
X142041523Y-82787399D02*
G01*
X142107707Y-82793917D01*
X142277546Y-82845437D01*
X142434071Y-82929102D01*
X142460623Y-82950893D01*
X142571266Y-83041694D01*
X142639132Y-83124390D01*
X142683858Y-83178889D01*
X142767523Y-83335414D01*
X142819043Y-83505253D01*
X142836439Y-83681880D01*
X142819043Y-83858507D01*
X142767523Y-84028346D01*
X142683858Y-84184871D01*
X142654528Y-84220609D01*
X142571266Y-84322066D01*
X142469809Y-84405328D01*
X142434071Y-84434658D01*
X142434069Y-84434659D01*
X142282669Y-84515585D01*
X142277546Y-84518323D01*
X142107707Y-84569843D01*
X142041522Y-84576362D01*
X141975340Y-84582880D01*
X141886820Y-84582880D01*
X141820638Y-84576362D01*
X141754453Y-84569843D01*
X141584614Y-84518323D01*
X141579492Y-84515585D01*
X141428091Y-84434659D01*
X141428089Y-84434658D01*
X141392351Y-84405328D01*
X141290894Y-84322066D01*
X141207632Y-84220609D01*
X141178302Y-84184871D01*
X141094637Y-84028346D01*
X141043117Y-83858507D01*
X141025721Y-83681880D01*
X141043117Y-83505253D01*
X141094637Y-83335414D01*
X141178302Y-83178889D01*
X141223028Y-83124390D01*
X141290894Y-83041694D01*
X141401537Y-82950893D01*
X141428089Y-82929102D01*
X141584614Y-82845437D01*
X141754453Y-82793917D01*
X141820637Y-82787399D01*
X141886820Y-82780880D01*
X141975340Y-82780880D01*
X142041523Y-82787399D01*
X142041523Y-82787399D01*
G37*
G36*
X114251000Y-84443500D02*
G01*
X113049000Y-84443500D01*
X113049000Y-77056500D01*
X114251000Y-77056500D01*
X114251000Y-84443500D01*
X114251000Y-84443500D01*
G37*
G36*
X119951000Y-84443500D02*
G01*
X118749000Y-84443500D01*
X118749000Y-77056500D01*
X119951000Y-77056500D01*
X119951000Y-84443500D01*
X119951000Y-84443500D01*
G37*
G36*
X145379591Y-82978085D02*
G01*
X145413569Y-82988393D01*
X145444890Y-83005134D01*
X145472339Y-83027661D01*
X145494866Y-83055110D01*
X145511607Y-83086431D01*
X145521915Y-83120409D01*
X145526000Y-83161890D01*
X145526000Y-83763110D01*
X145521915Y-83804591D01*
X145511607Y-83838569D01*
X145494866Y-83869890D01*
X145472339Y-83897339D01*
X145444890Y-83919866D01*
X145413569Y-83936607D01*
X145379591Y-83946915D01*
X145338110Y-83951000D01*
X144661890Y-83951000D01*
X144620409Y-83946915D01*
X144586431Y-83936607D01*
X144555110Y-83919866D01*
X144527661Y-83897339D01*
X144505134Y-83869890D01*
X144488393Y-83838569D01*
X144478085Y-83804591D01*
X144474000Y-83763110D01*
X144474000Y-83161890D01*
X144478085Y-83120409D01*
X144488393Y-83086431D01*
X144505134Y-83055110D01*
X144527661Y-83027661D01*
X144555110Y-83005134D01*
X144586431Y-82988393D01*
X144620409Y-82978085D01*
X144661890Y-82974000D01*
X145338110Y-82974000D01*
X145379591Y-82978085D01*
X145379591Y-82978085D01*
G37*
G36*
X146879591Y-82940585D02*
G01*
X146913569Y-82950893D01*
X146944890Y-82967634D01*
X146972339Y-82990161D01*
X146994866Y-83017610D01*
X147011607Y-83048931D01*
X147021915Y-83082909D01*
X147026000Y-83124390D01*
X147026000Y-83725610D01*
X147021915Y-83767091D01*
X147011607Y-83801069D01*
X146994866Y-83832390D01*
X146972339Y-83859839D01*
X146944890Y-83882366D01*
X146913569Y-83899107D01*
X146879591Y-83909415D01*
X146838110Y-83913500D01*
X146161890Y-83913500D01*
X146120409Y-83909415D01*
X146086431Y-83899107D01*
X146055110Y-83882366D01*
X146027661Y-83859839D01*
X146005134Y-83832390D01*
X145988393Y-83801069D01*
X145978085Y-83767091D01*
X145974000Y-83725610D01*
X145974000Y-83124390D01*
X145978085Y-83082909D01*
X145988393Y-83048931D01*
X146005134Y-83017610D01*
X146027661Y-82990161D01*
X146055110Y-82967634D01*
X146086431Y-82950893D01*
X146120409Y-82940585D01*
X146161890Y-82936500D01*
X146838110Y-82936500D01*
X146879591Y-82940585D01*
X146879591Y-82940585D01*
G37*
G36*
X105842091Y-81728085D02*
G01*
X105876069Y-81738393D01*
X105907390Y-81755134D01*
X105934839Y-81777661D01*
X105957366Y-81805110D01*
X105974107Y-81836431D01*
X105984415Y-81870409D01*
X105988500Y-81911890D01*
X105988500Y-82588110D01*
X105984415Y-82629591D01*
X105974107Y-82663569D01*
X105957366Y-82694890D01*
X105934839Y-82722339D01*
X105907390Y-82744866D01*
X105876069Y-82761607D01*
X105842091Y-82771915D01*
X105800610Y-82776000D01*
X105199390Y-82776000D01*
X105157909Y-82771915D01*
X105123931Y-82761607D01*
X105092610Y-82744866D01*
X105065161Y-82722339D01*
X105042634Y-82694890D01*
X105025893Y-82663569D01*
X105015585Y-82629591D01*
X105011500Y-82588110D01*
X105011500Y-81911890D01*
X105015585Y-81870409D01*
X105025893Y-81836431D01*
X105042634Y-81805110D01*
X105065161Y-81777661D01*
X105092610Y-81755134D01*
X105123931Y-81738393D01*
X105157909Y-81728085D01*
X105199390Y-81724000D01*
X105800610Y-81724000D01*
X105842091Y-81728085D01*
X105842091Y-81728085D01*
G37*
G36*
X104267091Y-81728085D02*
G01*
X104301069Y-81738393D01*
X104332390Y-81755134D01*
X104359839Y-81777661D01*
X104382366Y-81805110D01*
X104399107Y-81836431D01*
X104409415Y-81870409D01*
X104413500Y-81911890D01*
X104413500Y-82588110D01*
X104409415Y-82629591D01*
X104399107Y-82663569D01*
X104382366Y-82694890D01*
X104359839Y-82722339D01*
X104332390Y-82744866D01*
X104301069Y-82761607D01*
X104267091Y-82771915D01*
X104225610Y-82776000D01*
X103624390Y-82776000D01*
X103582909Y-82771915D01*
X103548931Y-82761607D01*
X103517610Y-82744866D01*
X103490161Y-82722339D01*
X103467634Y-82694890D01*
X103450893Y-82663569D01*
X103440585Y-82629591D01*
X103436500Y-82588110D01*
X103436500Y-81911890D01*
X103440585Y-81870409D01*
X103450893Y-81836431D01*
X103467634Y-81805110D01*
X103490161Y-81777661D01*
X103517610Y-81755134D01*
X103548931Y-81738393D01*
X103582909Y-81728085D01*
X103624390Y-81724000D01*
X104225610Y-81724000D01*
X104267091Y-81728085D01*
X104267091Y-81728085D01*
G37*
G36*
X107804591Y-81728085D02*
G01*
X107838569Y-81738393D01*
X107869890Y-81755134D01*
X107897339Y-81777661D01*
X107919866Y-81805110D01*
X107936607Y-81836431D01*
X107946915Y-81870409D01*
X107951000Y-81911890D01*
X107951000Y-82588110D01*
X107946915Y-82629591D01*
X107936607Y-82663569D01*
X107919866Y-82694890D01*
X107897339Y-82722339D01*
X107869890Y-82744866D01*
X107838569Y-82761607D01*
X107804591Y-82771915D01*
X107763110Y-82776000D01*
X107161890Y-82776000D01*
X107120409Y-82771915D01*
X107086431Y-82761607D01*
X107055110Y-82744866D01*
X107027661Y-82722339D01*
X107005134Y-82694890D01*
X106988393Y-82663569D01*
X106978085Y-82629591D01*
X106974000Y-82588110D01*
X106974000Y-81911890D01*
X106978085Y-81870409D01*
X106988393Y-81836431D01*
X107005134Y-81805110D01*
X107027661Y-81777661D01*
X107055110Y-81755134D01*
X107086431Y-81738393D01*
X107120409Y-81728085D01*
X107161890Y-81724000D01*
X107763110Y-81724000D01*
X107804591Y-81728085D01*
X107804591Y-81728085D01*
G37*
G36*
X109379591Y-81728085D02*
G01*
X109413569Y-81738393D01*
X109444890Y-81755134D01*
X109472339Y-81777661D01*
X109494866Y-81805110D01*
X109511607Y-81836431D01*
X109521915Y-81870409D01*
X109526000Y-81911890D01*
X109526000Y-82588110D01*
X109521915Y-82629591D01*
X109511607Y-82663569D01*
X109494866Y-82694890D01*
X109472339Y-82722339D01*
X109444890Y-82744866D01*
X109413569Y-82761607D01*
X109379591Y-82771915D01*
X109338110Y-82776000D01*
X108736890Y-82776000D01*
X108695409Y-82771915D01*
X108661431Y-82761607D01*
X108630110Y-82744866D01*
X108602661Y-82722339D01*
X108580134Y-82694890D01*
X108563393Y-82663569D01*
X108553085Y-82629591D01*
X108549000Y-82588110D01*
X108549000Y-81911890D01*
X108553085Y-81870409D01*
X108563393Y-81836431D01*
X108580134Y-81805110D01*
X108602661Y-81777661D01*
X108630110Y-81755134D01*
X108661431Y-81738393D01*
X108695409Y-81728085D01*
X108736890Y-81724000D01*
X109338110Y-81724000D01*
X109379591Y-81728085D01*
X109379591Y-81728085D01*
G37*
G36*
X93107302Y-80588110D02*
G01*
X93264732Y-80619424D01*
X93428704Y-80687344D01*
X93576274Y-80785947D01*
X93701773Y-80911446D01*
X93800376Y-81059016D01*
X93868296Y-81222988D01*
X93902920Y-81397059D01*
X93902920Y-81574541D01*
X93868296Y-81748612D01*
X93800376Y-81912584D01*
X93701773Y-82060154D01*
X93576274Y-82185653D01*
X93428704Y-82284256D01*
X93264732Y-82352176D01*
X93115432Y-82381873D01*
X93090662Y-82386800D01*
X92913178Y-82386800D01*
X92888408Y-82381873D01*
X92739108Y-82352176D01*
X92575136Y-82284256D01*
X92427566Y-82185653D01*
X92302067Y-82060154D01*
X92203464Y-81912584D01*
X92135544Y-81748612D01*
X92100920Y-81574541D01*
X92100920Y-81397059D01*
X92135544Y-81222988D01*
X92203464Y-81059016D01*
X92302067Y-80911446D01*
X92427566Y-80785947D01*
X92575136Y-80687344D01*
X92739108Y-80619424D01*
X92896538Y-80588110D01*
X92913178Y-80584800D01*
X93090662Y-80584800D01*
X93107302Y-80588110D01*
X93107302Y-80588110D01*
G37*
G36*
X95615432Y-78089727D02*
G01*
X95764732Y-78119424D01*
X95928704Y-78187344D01*
X96076274Y-78285947D01*
X96201773Y-78411446D01*
X96300376Y-78559016D01*
X96368296Y-78722988D01*
X96402920Y-78897059D01*
X96402920Y-79074541D01*
X96368296Y-79248612D01*
X96300376Y-79412584D01*
X96259339Y-79474000D01*
X96236698Y-79507885D01*
X96225147Y-79529495D01*
X96218034Y-79552944D01*
X96215632Y-79577330D01*
X96218034Y-79601717D01*
X96225147Y-79625165D01*
X96236698Y-79646776D01*
X96252244Y-79665718D01*
X96271186Y-79681263D01*
X96292796Y-79692814D01*
X96316245Y-79699927D01*
X96340631Y-79702329D01*
X96365018Y-79699927D01*
X96388466Y-79692814D01*
X96410074Y-79681264D01*
X96509872Y-79614582D01*
X96509874Y-79614581D01*
X96637447Y-79561738D01*
X96772876Y-79534800D01*
X96910964Y-79534800D01*
X97046393Y-79561738D01*
X97173969Y-79614582D01*
X97288779Y-79691295D01*
X97386425Y-79788941D01*
X97463138Y-79903751D01*
X97515982Y-80031327D01*
X97542920Y-80166756D01*
X97542920Y-80304844D01*
X97515982Y-80440273D01*
X97463138Y-80567849D01*
X97386425Y-80682659D01*
X97288779Y-80780305D01*
X97173969Y-80857018D01*
X97046393Y-80909862D01*
X96910964Y-80936800D01*
X96772876Y-80936800D01*
X96637447Y-80909862D01*
X96509874Y-80857019D01*
X96509873Y-80857019D01*
X96509872Y-80857018D01*
X96410074Y-80790336D01*
X96388466Y-80778786D01*
X96365017Y-80771673D01*
X96340631Y-80769271D01*
X96316245Y-80771673D01*
X96292796Y-80778786D01*
X96271185Y-80790337D01*
X96252243Y-80805882D01*
X96236698Y-80824824D01*
X96225147Y-80846435D01*
X96218034Y-80869884D01*
X96215632Y-80894270D01*
X96218034Y-80918656D01*
X96225147Y-80942105D01*
X96236698Y-80963715D01*
X96300376Y-81059016D01*
X96368296Y-81222988D01*
X96402920Y-81397059D01*
X96402920Y-81574541D01*
X96368296Y-81748612D01*
X96300376Y-81912584D01*
X96201773Y-82060154D01*
X96076274Y-82185653D01*
X95928704Y-82284256D01*
X95764732Y-82352176D01*
X95615432Y-82381873D01*
X95590662Y-82386800D01*
X95413178Y-82386800D01*
X95388408Y-82381873D01*
X95239108Y-82352176D01*
X95075136Y-82284256D01*
X94927566Y-82185653D01*
X94802067Y-82060154D01*
X94703464Y-81912584D01*
X94635544Y-81748612D01*
X94600920Y-81574541D01*
X94600920Y-81397059D01*
X94635544Y-81222988D01*
X94703464Y-81059016D01*
X94802067Y-80911446D01*
X94927566Y-80785947D01*
X95075136Y-80687344D01*
X95239108Y-80619424D01*
X95396538Y-80588110D01*
X95413178Y-80584800D01*
X95590662Y-80584800D01*
X95607302Y-80588110D01*
X95764732Y-80619424D01*
X95928704Y-80687344D01*
X96076274Y-80785947D01*
X96076279Y-80785952D01*
X96077955Y-80787072D01*
X96099566Y-80798623D01*
X96123015Y-80805736D01*
X96147401Y-80808138D01*
X96171787Y-80805736D01*
X96195236Y-80798623D01*
X96216846Y-80787072D01*
X96235788Y-80771527D01*
X96251334Y-80752585D01*
X96262885Y-80730974D01*
X96269998Y-80707525D01*
X96272400Y-80683139D01*
X96269998Y-80658753D01*
X96262885Y-80635304D01*
X96251335Y-80613694D01*
X96232029Y-80584800D01*
X96220702Y-80567848D01*
X96186317Y-80484836D01*
X96167858Y-80440273D01*
X96140920Y-80304844D01*
X96140920Y-80166756D01*
X96167858Y-80031327D01*
X96220701Y-79903755D01*
X96220702Y-79903752D01*
X96251335Y-79857906D01*
X96262885Y-79836295D01*
X96269998Y-79812846D01*
X96272400Y-79788460D01*
X96269998Y-79764074D01*
X96262885Y-79740625D01*
X96251333Y-79719014D01*
X96235788Y-79700072D01*
X96216846Y-79684527D01*
X96195235Y-79672977D01*
X96171786Y-79665864D01*
X96147400Y-79663462D01*
X96123014Y-79665864D01*
X96099565Y-79672977D01*
X96077955Y-79684528D01*
X96076279Y-79685648D01*
X96076274Y-79685653D01*
X95928704Y-79784256D01*
X95764732Y-79852176D01*
X95615432Y-79881873D01*
X95590662Y-79886800D01*
X95413178Y-79886800D01*
X95388408Y-79881873D01*
X95239108Y-79852176D01*
X95075136Y-79784256D01*
X94927566Y-79685653D01*
X94802067Y-79560154D01*
X94703464Y-79412584D01*
X94635544Y-79248612D01*
X94600920Y-79074541D01*
X94600920Y-78897059D01*
X94635544Y-78722988D01*
X94703464Y-78559016D01*
X94802067Y-78411446D01*
X94927566Y-78285947D01*
X95075136Y-78187344D01*
X95239108Y-78119424D01*
X95388408Y-78089727D01*
X95413178Y-78084800D01*
X95590662Y-78084800D01*
X95615432Y-78089727D01*
X95615432Y-78089727D01*
G37*
G36*
X123017091Y-81228085D02*
G01*
X123051069Y-81238393D01*
X123082390Y-81255134D01*
X123109839Y-81277661D01*
X123132366Y-81305110D01*
X123149107Y-81336431D01*
X123159415Y-81370409D01*
X123163500Y-81411890D01*
X123163500Y-82088110D01*
X123159415Y-82129591D01*
X123149107Y-82163569D01*
X123132366Y-82194890D01*
X123109839Y-82222339D01*
X123082390Y-82244866D01*
X123051069Y-82261607D01*
X123017091Y-82271915D01*
X122975610Y-82276000D01*
X122374390Y-82276000D01*
X122332909Y-82271915D01*
X122298931Y-82261607D01*
X122267610Y-82244866D01*
X122240161Y-82222339D01*
X122217634Y-82194890D01*
X122200893Y-82163569D01*
X122190585Y-82129591D01*
X122186500Y-82088110D01*
X122186500Y-81411890D01*
X122190585Y-81370409D01*
X122200893Y-81336431D01*
X122217634Y-81305110D01*
X122240161Y-81277661D01*
X122267610Y-81255134D01*
X122298931Y-81238393D01*
X122332909Y-81228085D01*
X122374390Y-81224000D01*
X122975610Y-81224000D01*
X123017091Y-81228085D01*
X123017091Y-81228085D01*
G37*
G36*
X124592091Y-81228085D02*
G01*
X124626069Y-81238393D01*
X124657390Y-81255134D01*
X124684839Y-81277661D01*
X124707366Y-81305110D01*
X124724107Y-81336431D01*
X124734415Y-81370409D01*
X124738500Y-81411890D01*
X124738500Y-82088110D01*
X124734415Y-82129591D01*
X124724107Y-82163569D01*
X124707366Y-82194890D01*
X124684839Y-82222339D01*
X124657390Y-82244866D01*
X124626069Y-82261607D01*
X124592091Y-82271915D01*
X124550610Y-82276000D01*
X123949390Y-82276000D01*
X123907909Y-82271915D01*
X123873931Y-82261607D01*
X123842610Y-82244866D01*
X123815161Y-82222339D01*
X123792634Y-82194890D01*
X123775893Y-82163569D01*
X123765585Y-82129591D01*
X123761500Y-82088110D01*
X123761500Y-81411890D01*
X123765585Y-81370409D01*
X123775893Y-81336431D01*
X123792634Y-81305110D01*
X123815161Y-81277661D01*
X123842610Y-81255134D01*
X123873931Y-81238393D01*
X123907909Y-81228085D01*
X123949390Y-81224000D01*
X124550610Y-81224000D01*
X124592091Y-81228085D01*
X124592091Y-81228085D01*
G37*
G36*
X142832080Y-82042880D02*
G01*
X141030080Y-82042880D01*
X141030080Y-80240880D01*
X142832080Y-80240880D01*
X142832080Y-82042880D01*
X142832080Y-82042880D01*
G37*
G36*
X131901000Y-81901000D02*
G01*
X130099000Y-81901000D01*
X130099000Y-80099000D01*
X131901000Y-80099000D01*
X131901000Y-81901000D01*
X131901000Y-81901000D01*
G37*
G36*
X107842091Y-79728085D02*
G01*
X107876069Y-79738393D01*
X107907390Y-79755134D01*
X107934839Y-79777661D01*
X107957366Y-79805110D01*
X107974107Y-79836431D01*
X107984415Y-79870409D01*
X107988500Y-79911890D01*
X107988500Y-80588110D01*
X107984415Y-80629591D01*
X107974107Y-80663569D01*
X107957366Y-80694890D01*
X107934839Y-80722339D01*
X107907390Y-80744866D01*
X107876069Y-80761607D01*
X107842091Y-80771915D01*
X107800610Y-80776000D01*
X107199390Y-80776000D01*
X107157909Y-80771915D01*
X107123931Y-80761607D01*
X107092610Y-80744866D01*
X107065161Y-80722339D01*
X107042634Y-80694890D01*
X107025893Y-80663569D01*
X107015585Y-80629591D01*
X107011500Y-80588110D01*
X107011500Y-79911890D01*
X107015585Y-79870409D01*
X107025893Y-79836431D01*
X107042634Y-79805110D01*
X107065161Y-79777661D01*
X107092610Y-79755134D01*
X107123931Y-79738393D01*
X107157909Y-79728085D01*
X107199390Y-79724000D01*
X107800610Y-79724000D01*
X107842091Y-79728085D01*
X107842091Y-79728085D01*
G37*
G36*
X105879591Y-79728085D02*
G01*
X105913569Y-79738393D01*
X105944890Y-79755134D01*
X105972339Y-79777661D01*
X105994866Y-79805110D01*
X106011607Y-79836431D01*
X106021915Y-79870409D01*
X106026000Y-79911890D01*
X106026000Y-80588110D01*
X106021915Y-80629591D01*
X106011607Y-80663569D01*
X105994866Y-80694890D01*
X105972339Y-80722339D01*
X105944890Y-80744866D01*
X105913569Y-80761607D01*
X105879591Y-80771915D01*
X105838110Y-80776000D01*
X105236890Y-80776000D01*
X105195409Y-80771915D01*
X105161431Y-80761607D01*
X105130110Y-80744866D01*
X105102661Y-80722339D01*
X105080134Y-80694890D01*
X105063393Y-80663569D01*
X105053085Y-80629591D01*
X105049000Y-80588110D01*
X105049000Y-79911890D01*
X105053085Y-79870409D01*
X105063393Y-79836431D01*
X105080134Y-79805110D01*
X105102661Y-79777661D01*
X105130110Y-79755134D01*
X105161431Y-79738393D01*
X105195409Y-79728085D01*
X105236890Y-79724000D01*
X105838110Y-79724000D01*
X105879591Y-79728085D01*
X105879591Y-79728085D01*
G37*
G36*
X123092091Y-79728085D02*
G01*
X123126069Y-79738393D01*
X123157390Y-79755134D01*
X123184839Y-79777661D01*
X123207366Y-79805110D01*
X123224107Y-79836431D01*
X123234415Y-79870409D01*
X123238500Y-79911890D01*
X123238500Y-80588110D01*
X123234415Y-80629591D01*
X123224107Y-80663569D01*
X123207366Y-80694890D01*
X123184839Y-80722339D01*
X123157390Y-80744866D01*
X123126069Y-80761607D01*
X123092091Y-80771915D01*
X123050610Y-80776000D01*
X122449390Y-80776000D01*
X122407909Y-80771915D01*
X122373931Y-80761607D01*
X122342610Y-80744866D01*
X122315161Y-80722339D01*
X122292634Y-80694890D01*
X122275893Y-80663569D01*
X122265585Y-80629591D01*
X122261500Y-80588110D01*
X122261500Y-79911890D01*
X122265585Y-79870409D01*
X122275893Y-79836431D01*
X122292634Y-79805110D01*
X122315161Y-79777661D01*
X122342610Y-79755134D01*
X122373931Y-79738393D01*
X122407909Y-79728085D01*
X122449390Y-79724000D01*
X123050610Y-79724000D01*
X123092091Y-79728085D01*
X123092091Y-79728085D01*
G37*
G36*
X124667091Y-79728085D02*
G01*
X124701069Y-79738393D01*
X124732390Y-79755134D01*
X124759839Y-79777661D01*
X124782366Y-79805110D01*
X124799107Y-79836431D01*
X124809415Y-79870409D01*
X124813500Y-79911890D01*
X124813500Y-80588110D01*
X124809415Y-80629591D01*
X124799107Y-80663569D01*
X124782366Y-80694890D01*
X124759839Y-80722339D01*
X124732390Y-80744866D01*
X124701069Y-80761607D01*
X124667091Y-80771915D01*
X124625610Y-80776000D01*
X124024390Y-80776000D01*
X123982909Y-80771915D01*
X123948931Y-80761607D01*
X123917610Y-80744866D01*
X123890161Y-80722339D01*
X123867634Y-80694890D01*
X123850893Y-80663569D01*
X123840585Y-80629591D01*
X123836500Y-80588110D01*
X123836500Y-79911890D01*
X123840585Y-79870409D01*
X123850893Y-79836431D01*
X123867634Y-79805110D01*
X123890161Y-79777661D01*
X123917610Y-79755134D01*
X123948931Y-79738393D01*
X123982909Y-79728085D01*
X124024390Y-79724000D01*
X124625610Y-79724000D01*
X124667091Y-79728085D01*
X124667091Y-79728085D01*
G37*
G36*
X109417091Y-79728085D02*
G01*
X109451069Y-79738393D01*
X109482390Y-79755134D01*
X109509839Y-79777661D01*
X109532366Y-79805110D01*
X109549107Y-79836431D01*
X109559415Y-79870409D01*
X109563500Y-79911890D01*
X109563500Y-80588110D01*
X109559415Y-80629591D01*
X109549107Y-80663569D01*
X109532366Y-80694890D01*
X109509839Y-80722339D01*
X109482390Y-80744866D01*
X109451069Y-80761607D01*
X109417091Y-80771915D01*
X109375610Y-80776000D01*
X108774390Y-80776000D01*
X108732909Y-80771915D01*
X108698931Y-80761607D01*
X108667610Y-80744866D01*
X108640161Y-80722339D01*
X108617634Y-80694890D01*
X108600893Y-80663569D01*
X108590585Y-80629591D01*
X108586500Y-80588110D01*
X108586500Y-79911890D01*
X108590585Y-79870409D01*
X108600893Y-79836431D01*
X108617634Y-79805110D01*
X108640161Y-79777661D01*
X108667610Y-79755134D01*
X108698931Y-79738393D01*
X108732909Y-79728085D01*
X108774390Y-79724000D01*
X109375610Y-79724000D01*
X109417091Y-79728085D01*
X109417091Y-79728085D01*
G37*
G36*
X104304591Y-79728085D02*
G01*
X104338569Y-79738393D01*
X104369890Y-79755134D01*
X104397339Y-79777661D01*
X104419866Y-79805110D01*
X104436607Y-79836431D01*
X104446915Y-79870409D01*
X104451000Y-79911890D01*
X104451000Y-80588110D01*
X104446915Y-80629591D01*
X104436607Y-80663569D01*
X104419866Y-80694890D01*
X104397339Y-80722339D01*
X104369890Y-80744866D01*
X104338569Y-80761607D01*
X104304591Y-80771915D01*
X104263110Y-80776000D01*
X103661890Y-80776000D01*
X103620409Y-80771915D01*
X103586431Y-80761607D01*
X103555110Y-80744866D01*
X103527661Y-80722339D01*
X103505134Y-80694890D01*
X103488393Y-80663569D01*
X103478085Y-80629591D01*
X103474000Y-80588110D01*
X103474000Y-79911890D01*
X103478085Y-79870409D01*
X103488393Y-79836431D01*
X103505134Y-79805110D01*
X103527661Y-79777661D01*
X103555110Y-79755134D01*
X103586431Y-79738393D01*
X103620409Y-79728085D01*
X103661890Y-79724000D01*
X104263110Y-79724000D01*
X104304591Y-79728085D01*
X104304591Y-79728085D01*
G37*
G36*
X128342091Y-79478085D02*
G01*
X128376069Y-79488393D01*
X128407390Y-79505134D01*
X128434839Y-79527661D01*
X128457366Y-79555110D01*
X128474107Y-79586431D01*
X128484415Y-79620409D01*
X128488500Y-79661890D01*
X128488500Y-80338110D01*
X128484415Y-80379591D01*
X128474107Y-80413569D01*
X128457366Y-80444890D01*
X128434839Y-80472339D01*
X128407390Y-80494866D01*
X128376069Y-80511607D01*
X128342091Y-80521915D01*
X128300610Y-80526000D01*
X127699390Y-80526000D01*
X127657909Y-80521915D01*
X127623931Y-80511607D01*
X127592610Y-80494866D01*
X127565161Y-80472339D01*
X127542634Y-80444890D01*
X127525893Y-80413569D01*
X127515585Y-80379591D01*
X127511500Y-80338110D01*
X127511500Y-79661890D01*
X127515585Y-79620409D01*
X127525893Y-79586431D01*
X127542634Y-79555110D01*
X127565161Y-79527661D01*
X127592610Y-79505134D01*
X127623931Y-79488393D01*
X127657909Y-79478085D01*
X127699390Y-79474000D01*
X128300610Y-79474000D01*
X128342091Y-79478085D01*
X128342091Y-79478085D01*
G37*
G36*
X126767091Y-79478085D02*
G01*
X126801069Y-79488393D01*
X126832390Y-79505134D01*
X126859839Y-79527661D01*
X126882366Y-79555110D01*
X126899107Y-79586431D01*
X126909415Y-79620409D01*
X126913500Y-79661890D01*
X126913500Y-80338110D01*
X126909415Y-80379591D01*
X126899107Y-80413569D01*
X126882366Y-80444890D01*
X126859839Y-80472339D01*
X126832390Y-80494866D01*
X126801069Y-80511607D01*
X126767091Y-80521915D01*
X126725610Y-80526000D01*
X126124390Y-80526000D01*
X126082909Y-80521915D01*
X126048931Y-80511607D01*
X126017610Y-80494866D01*
X125990161Y-80472339D01*
X125967634Y-80444890D01*
X125950893Y-80413569D01*
X125940585Y-80379591D01*
X125936500Y-80338110D01*
X125936500Y-79661890D01*
X125940585Y-79620409D01*
X125950893Y-79586431D01*
X125967634Y-79555110D01*
X125990161Y-79527661D01*
X126017610Y-79505134D01*
X126048931Y-79488393D01*
X126082909Y-79478085D01*
X126124390Y-79474000D01*
X126725610Y-79474000D01*
X126767091Y-79478085D01*
X126767091Y-79478085D01*
G37*
G36*
X139080000Y-80415000D02*
G01*
X138240000Y-80415000D01*
X138240000Y-79125000D01*
X139080000Y-79125000D01*
X139080000Y-80415000D01*
X139080000Y-80415000D01*
G37*
G36*
X137810000Y-80415000D02*
G01*
X136970000Y-80415000D01*
X136970000Y-79125000D01*
X137810000Y-79125000D01*
X137810000Y-80415000D01*
X137810000Y-80415000D01*
G37*
G36*
X135260000Y-80415000D02*
G01*
X134420000Y-80415000D01*
X134420000Y-79125000D01*
X135260000Y-79125000D01*
X135260000Y-80415000D01*
X135260000Y-80415000D01*
G37*
G36*
X136530000Y-80415000D02*
G01*
X135690000Y-80415000D01*
X135690000Y-79125000D01*
X136530000Y-79125000D01*
X136530000Y-80415000D01*
X136530000Y-80415000D01*
G37*
G36*
X93115432Y-78089727D02*
G01*
X93264732Y-78119424D01*
X93428704Y-78187344D01*
X93576274Y-78285947D01*
X93701773Y-78411446D01*
X93800376Y-78559016D01*
X93868296Y-78722988D01*
X93902920Y-78897059D01*
X93902920Y-79074541D01*
X93868296Y-79248612D01*
X93800376Y-79412584D01*
X93701773Y-79560154D01*
X93576274Y-79685653D01*
X93428704Y-79784256D01*
X93264732Y-79852176D01*
X93115432Y-79881873D01*
X93090662Y-79886800D01*
X92913178Y-79886800D01*
X92888408Y-79881873D01*
X92739108Y-79852176D01*
X92575136Y-79784256D01*
X92427566Y-79685653D01*
X92302067Y-79560154D01*
X92203464Y-79412584D01*
X92135544Y-79248612D01*
X92100920Y-79074541D01*
X92100920Y-78897059D01*
X92135544Y-78722988D01*
X92203464Y-78559016D01*
X92302067Y-78411446D01*
X92427566Y-78285947D01*
X92575136Y-78187344D01*
X92739108Y-78119424D01*
X92888408Y-78089727D01*
X92913178Y-78084800D01*
X93090662Y-78084800D01*
X93115432Y-78089727D01*
X93115432Y-78089727D01*
G37*
G36*
X130517091Y-77728085D02*
G01*
X130551069Y-77738393D01*
X130582390Y-77755134D01*
X130609839Y-77777661D01*
X130632366Y-77805110D01*
X130649107Y-77836431D01*
X130659415Y-77870409D01*
X130663500Y-77911890D01*
X130663500Y-78588110D01*
X130659415Y-78629591D01*
X130649107Y-78663569D01*
X130632366Y-78694890D01*
X130609839Y-78722339D01*
X130582390Y-78744866D01*
X130551069Y-78761607D01*
X130517091Y-78771915D01*
X130475610Y-78776000D01*
X129874390Y-78776000D01*
X129832909Y-78771915D01*
X129798931Y-78761607D01*
X129767610Y-78744866D01*
X129740161Y-78722339D01*
X129717634Y-78694890D01*
X129700893Y-78663569D01*
X129690585Y-78629591D01*
X129686500Y-78588110D01*
X129686500Y-77911890D01*
X129690585Y-77870409D01*
X129700893Y-77836431D01*
X129717634Y-77805110D01*
X129740161Y-77777661D01*
X129767610Y-77755134D01*
X129798931Y-77738393D01*
X129832909Y-77728085D01*
X129874390Y-77724000D01*
X130475610Y-77724000D01*
X130517091Y-77728085D01*
X130517091Y-77728085D01*
G37*
G36*
X128379591Y-77728085D02*
G01*
X128413569Y-77738393D01*
X128444890Y-77755134D01*
X128472339Y-77777661D01*
X128494866Y-77805110D01*
X128511607Y-77836431D01*
X128521915Y-77870409D01*
X128526000Y-77911890D01*
X128526000Y-78588110D01*
X128521915Y-78629591D01*
X128511607Y-78663569D01*
X128494866Y-78694890D01*
X128472339Y-78722339D01*
X128444890Y-78744866D01*
X128413569Y-78761607D01*
X128379591Y-78771915D01*
X128338110Y-78776000D01*
X127736890Y-78776000D01*
X127695409Y-78771915D01*
X127661431Y-78761607D01*
X127630110Y-78744866D01*
X127602661Y-78722339D01*
X127580134Y-78694890D01*
X127563393Y-78663569D01*
X127553085Y-78629591D01*
X127549000Y-78588110D01*
X127549000Y-77911890D01*
X127553085Y-77870409D01*
X127563393Y-77836431D01*
X127580134Y-77805110D01*
X127602661Y-77777661D01*
X127630110Y-77755134D01*
X127661431Y-77738393D01*
X127695409Y-77728085D01*
X127736890Y-77724000D01*
X128338110Y-77724000D01*
X128379591Y-77728085D01*
X128379591Y-77728085D01*
G37*
G36*
X132092091Y-77728085D02*
G01*
X132126069Y-77738393D01*
X132157390Y-77755134D01*
X132184839Y-77777661D01*
X132207366Y-77805110D01*
X132224107Y-77836431D01*
X132234415Y-77870409D01*
X132238500Y-77911890D01*
X132238500Y-78588110D01*
X132234415Y-78629591D01*
X132224107Y-78663569D01*
X132207366Y-78694890D01*
X132184839Y-78722339D01*
X132157390Y-78744866D01*
X132126069Y-78761607D01*
X132092091Y-78771915D01*
X132050610Y-78776000D01*
X131449390Y-78776000D01*
X131407909Y-78771915D01*
X131373931Y-78761607D01*
X131342610Y-78744866D01*
X131315161Y-78722339D01*
X131292634Y-78694890D01*
X131275893Y-78663569D01*
X131265585Y-78629591D01*
X131261500Y-78588110D01*
X131261500Y-77911890D01*
X131265585Y-77870409D01*
X131275893Y-77836431D01*
X131292634Y-77805110D01*
X131315161Y-77777661D01*
X131342610Y-77755134D01*
X131373931Y-77738393D01*
X131407909Y-77728085D01*
X131449390Y-77724000D01*
X132050610Y-77724000D01*
X132092091Y-77728085D01*
X132092091Y-77728085D01*
G37*
G36*
X126804591Y-77728085D02*
G01*
X126838569Y-77738393D01*
X126869890Y-77755134D01*
X126897339Y-77777661D01*
X126919866Y-77805110D01*
X126936607Y-77836431D01*
X126946915Y-77870409D01*
X126951000Y-77911890D01*
X126951000Y-78588110D01*
X126946915Y-78629591D01*
X126936607Y-78663569D01*
X126919866Y-78694890D01*
X126897339Y-78722339D01*
X126869890Y-78744866D01*
X126838569Y-78761607D01*
X126804591Y-78771915D01*
X126763110Y-78776000D01*
X126161890Y-78776000D01*
X126120409Y-78771915D01*
X126086431Y-78761607D01*
X126055110Y-78744866D01*
X126027661Y-78722339D01*
X126005134Y-78694890D01*
X125988393Y-78663569D01*
X125978085Y-78629591D01*
X125974000Y-78588110D01*
X125974000Y-77911890D01*
X125978085Y-77870409D01*
X125988393Y-77836431D01*
X126005134Y-77805110D01*
X126027661Y-77777661D01*
X126055110Y-77755134D01*
X126086431Y-77738393D01*
X126120409Y-77728085D01*
X126161890Y-77724000D01*
X126763110Y-77724000D01*
X126804591Y-77728085D01*
X126804591Y-77728085D01*
G37*
G36*
X104304591Y-77478085D02*
G01*
X104338569Y-77488393D01*
X104369890Y-77505134D01*
X104397339Y-77527661D01*
X104419866Y-77555110D01*
X104436607Y-77586431D01*
X104446915Y-77620409D01*
X104451000Y-77661890D01*
X104451000Y-78338110D01*
X104446915Y-78379591D01*
X104436607Y-78413569D01*
X104419866Y-78444890D01*
X104397339Y-78472339D01*
X104369890Y-78494866D01*
X104338569Y-78511607D01*
X104304591Y-78521915D01*
X104263110Y-78526000D01*
X103661890Y-78526000D01*
X103620409Y-78521915D01*
X103586431Y-78511607D01*
X103555110Y-78494866D01*
X103527661Y-78472339D01*
X103505134Y-78444890D01*
X103488393Y-78413569D01*
X103478085Y-78379591D01*
X103474000Y-78338110D01*
X103474000Y-77661890D01*
X103478085Y-77620409D01*
X103488393Y-77586431D01*
X103505134Y-77555110D01*
X103527661Y-77527661D01*
X103555110Y-77505134D01*
X103586431Y-77488393D01*
X103620409Y-77478085D01*
X103661890Y-77474000D01*
X104263110Y-77474000D01*
X104304591Y-77478085D01*
X104304591Y-77478085D01*
G37*
G36*
X105879591Y-77478085D02*
G01*
X105913569Y-77488393D01*
X105944890Y-77505134D01*
X105972339Y-77527661D01*
X105994866Y-77555110D01*
X106011607Y-77586431D01*
X106021915Y-77620409D01*
X106026000Y-77661890D01*
X106026000Y-78338110D01*
X106021915Y-78379591D01*
X106011607Y-78413569D01*
X105994866Y-78444890D01*
X105972339Y-78472339D01*
X105944890Y-78494866D01*
X105913569Y-78511607D01*
X105879591Y-78521915D01*
X105838110Y-78526000D01*
X105236890Y-78526000D01*
X105195409Y-78521915D01*
X105161431Y-78511607D01*
X105130110Y-78494866D01*
X105102661Y-78472339D01*
X105080134Y-78444890D01*
X105063393Y-78413569D01*
X105053085Y-78379591D01*
X105049000Y-78338110D01*
X105049000Y-77661890D01*
X105053085Y-77620409D01*
X105063393Y-77586431D01*
X105080134Y-77555110D01*
X105102661Y-77527661D01*
X105130110Y-77505134D01*
X105161431Y-77488393D01*
X105195409Y-77478085D01*
X105236890Y-77474000D01*
X105838110Y-77474000D01*
X105879591Y-77478085D01*
X105879591Y-77478085D01*
G37*
G36*
X109417091Y-77478085D02*
G01*
X109451069Y-77488393D01*
X109482390Y-77505134D01*
X109509839Y-77527661D01*
X109532366Y-77555110D01*
X109549107Y-77586431D01*
X109559415Y-77620409D01*
X109563500Y-77661890D01*
X109563500Y-78338110D01*
X109559415Y-78379591D01*
X109549107Y-78413569D01*
X109532366Y-78444890D01*
X109509839Y-78472339D01*
X109482390Y-78494866D01*
X109451069Y-78511607D01*
X109417091Y-78521915D01*
X109375610Y-78526000D01*
X108774390Y-78526000D01*
X108732909Y-78521915D01*
X108698931Y-78511607D01*
X108667610Y-78494866D01*
X108640161Y-78472339D01*
X108617634Y-78444890D01*
X108600893Y-78413569D01*
X108590585Y-78379591D01*
X108586500Y-78338110D01*
X108586500Y-77661890D01*
X108590585Y-77620409D01*
X108600893Y-77586431D01*
X108617634Y-77555110D01*
X108640161Y-77527661D01*
X108667610Y-77505134D01*
X108698931Y-77488393D01*
X108732909Y-77478085D01*
X108774390Y-77474000D01*
X109375610Y-77474000D01*
X109417091Y-77478085D01*
X109417091Y-77478085D01*
G37*
G36*
X107842091Y-77478085D02*
G01*
X107876069Y-77488393D01*
X107907390Y-77505134D01*
X107934839Y-77527661D01*
X107957366Y-77555110D01*
X107974107Y-77586431D01*
X107984415Y-77620409D01*
X107988500Y-77661890D01*
X107988500Y-78338110D01*
X107984415Y-78379591D01*
X107974107Y-78413569D01*
X107957366Y-78444890D01*
X107934839Y-78472339D01*
X107907390Y-78494866D01*
X107876069Y-78511607D01*
X107842091Y-78521915D01*
X107800610Y-78526000D01*
X107199390Y-78526000D01*
X107157909Y-78521915D01*
X107123931Y-78511607D01*
X107092610Y-78494866D01*
X107065161Y-78472339D01*
X107042634Y-78444890D01*
X107025893Y-78413569D01*
X107015585Y-78379591D01*
X107011500Y-78338110D01*
X107011500Y-77661890D01*
X107015585Y-77620409D01*
X107025893Y-77586431D01*
X107042634Y-77555110D01*
X107065161Y-77527661D01*
X107092610Y-77505134D01*
X107123931Y-77488393D01*
X107157909Y-77478085D01*
X107199390Y-77474000D01*
X107800610Y-77474000D01*
X107842091Y-77478085D01*
X107842091Y-77478085D01*
G37*
G36*
X139170000Y-75145000D02*
G01*
X139044999Y-75145000D01*
X139020613Y-75147402D01*
X138997164Y-75154515D01*
X138975553Y-75166066D01*
X138956611Y-75181611D01*
X138941066Y-75200553D01*
X138929515Y-75222164D01*
X138922402Y-75245613D01*
X138920000Y-75269999D01*
X138920000Y-78220000D01*
X134580000Y-78220000D01*
X134580000Y-75269999D01*
X134577598Y-75245613D01*
X134570485Y-75222164D01*
X134558934Y-75200553D01*
X134543389Y-75181611D01*
X134524447Y-75166066D01*
X134502836Y-75154515D01*
X134479387Y-75147402D01*
X134455001Y-75145000D01*
X134330000Y-75145000D01*
X134330000Y-73455000D01*
X139170000Y-73455000D01*
X139170000Y-75145000D01*
X139170000Y-75145000D01*
G37*
G36*
X142110442Y-75645518D02*
G01*
X142176627Y-75652037D01*
X142346466Y-75703557D01*
X142346468Y-75703558D01*
X142424729Y-75745390D01*
X142502991Y-75787222D01*
X142538729Y-75816552D01*
X142640186Y-75899814D01*
X142704420Y-75978085D01*
X142752778Y-76037009D01*
X142836443Y-76193534D01*
X142887963Y-76363373D01*
X142905359Y-76540000D01*
X142887963Y-76716627D01*
X142836443Y-76886466D01*
X142752778Y-77042991D01*
X142723448Y-77078729D01*
X142640186Y-77180186D01*
X142538729Y-77263448D01*
X142502991Y-77292778D01*
X142346466Y-77376443D01*
X142176627Y-77427963D01*
X142110442Y-77434482D01*
X142044260Y-77441000D01*
X141955740Y-77441000D01*
X141889558Y-77434482D01*
X141823373Y-77427963D01*
X141653534Y-77376443D01*
X141497009Y-77292778D01*
X141461271Y-77263448D01*
X141359814Y-77180186D01*
X141276552Y-77078729D01*
X141247222Y-77042991D01*
X141163557Y-76886466D01*
X141112037Y-76716627D01*
X141094641Y-76540000D01*
X141112037Y-76363373D01*
X141163557Y-76193534D01*
X141247222Y-76037009D01*
X141295580Y-75978085D01*
X141359814Y-75899814D01*
X141461271Y-75816552D01*
X141497009Y-75787222D01*
X141575271Y-75745390D01*
X141653532Y-75703558D01*
X141653534Y-75703557D01*
X141823373Y-75652037D01*
X141889558Y-75645518D01*
X141955740Y-75639000D01*
X142044260Y-75639000D01*
X142110442Y-75645518D01*
X142110442Y-75645518D01*
G37*
G36*
X95598861Y-75586431D02*
G01*
X95764732Y-75619424D01*
X95928704Y-75687344D01*
X96076274Y-75785947D01*
X96201773Y-75911446D01*
X96300376Y-76059016D01*
X96368296Y-76222988D01*
X96396220Y-76363373D01*
X96399446Y-76379591D01*
X96402920Y-76397059D01*
X96402920Y-76574541D01*
X96368296Y-76748612D01*
X96300376Y-76912584D01*
X96201773Y-77060154D01*
X96076274Y-77185653D01*
X95928704Y-77284256D01*
X95764732Y-77352176D01*
X95615432Y-77381873D01*
X95590662Y-77386800D01*
X95413178Y-77386800D01*
X95388408Y-77381873D01*
X95239108Y-77352176D01*
X95075136Y-77284256D01*
X94927566Y-77185653D01*
X94802067Y-77060154D01*
X94703464Y-76912584D01*
X94635544Y-76748612D01*
X94600920Y-76574541D01*
X94600920Y-76397059D01*
X94604395Y-76379591D01*
X94607620Y-76363373D01*
X94635544Y-76222988D01*
X94703464Y-76059016D01*
X94802067Y-75911446D01*
X94927566Y-75785947D01*
X95075136Y-75687344D01*
X95239108Y-75619424D01*
X95404979Y-75586431D01*
X95413178Y-75584800D01*
X95590662Y-75584800D01*
X95598861Y-75586431D01*
X95598861Y-75586431D01*
G37*
G36*
X93098861Y-75586431D02*
G01*
X93264732Y-75619424D01*
X93428704Y-75687344D01*
X93576274Y-75785947D01*
X93701773Y-75911446D01*
X93800376Y-76059016D01*
X93868296Y-76222988D01*
X93896220Y-76363373D01*
X93899446Y-76379591D01*
X93902920Y-76397059D01*
X93902920Y-76574541D01*
X93868296Y-76748612D01*
X93800376Y-76912584D01*
X93701773Y-77060154D01*
X93576274Y-77185653D01*
X93428704Y-77284256D01*
X93264732Y-77352176D01*
X93115432Y-77381873D01*
X93090662Y-77386800D01*
X92913178Y-77386800D01*
X92888408Y-77381873D01*
X92739108Y-77352176D01*
X92575136Y-77284256D01*
X92427566Y-77185653D01*
X92302067Y-77060154D01*
X92203464Y-76912584D01*
X92135544Y-76748612D01*
X92100920Y-76574541D01*
X92100920Y-76397059D01*
X92104395Y-76379591D01*
X92107620Y-76363373D01*
X92135544Y-76222988D01*
X92203464Y-76059016D01*
X92302067Y-75911446D01*
X92427566Y-75785947D01*
X92575136Y-75687344D01*
X92739108Y-75619424D01*
X92904979Y-75586431D01*
X92913178Y-75584800D01*
X93090662Y-75584800D01*
X93098861Y-75586431D01*
X93098861Y-75586431D01*
G37*
G36*
X130342091Y-75978085D02*
G01*
X130376069Y-75988393D01*
X130407390Y-76005134D01*
X130434839Y-76027661D01*
X130457366Y-76055110D01*
X130474107Y-76086431D01*
X130484415Y-76120409D01*
X130488500Y-76161890D01*
X130488500Y-76838110D01*
X130484415Y-76879591D01*
X130474107Y-76913569D01*
X130457366Y-76944890D01*
X130434839Y-76972339D01*
X130407390Y-76994866D01*
X130376069Y-77011607D01*
X130342091Y-77021915D01*
X130300610Y-77026000D01*
X129699390Y-77026000D01*
X129657909Y-77021915D01*
X129623931Y-77011607D01*
X129592610Y-76994866D01*
X129565161Y-76972339D01*
X129542634Y-76944890D01*
X129525893Y-76913569D01*
X129515585Y-76879591D01*
X129511500Y-76838110D01*
X129511500Y-76161890D01*
X129515585Y-76120409D01*
X129525893Y-76086431D01*
X129542634Y-76055110D01*
X129565161Y-76027661D01*
X129592610Y-76005134D01*
X129623931Y-75988393D01*
X129657909Y-75978085D01*
X129699390Y-75974000D01*
X130300610Y-75974000D01*
X130342091Y-75978085D01*
X130342091Y-75978085D01*
G37*
G36*
X131917091Y-75978085D02*
G01*
X131951069Y-75988393D01*
X131982390Y-76005134D01*
X132009839Y-76027661D01*
X132032366Y-76055110D01*
X132049107Y-76086431D01*
X132059415Y-76120409D01*
X132063500Y-76161890D01*
X132063500Y-76838110D01*
X132059415Y-76879591D01*
X132049107Y-76913569D01*
X132032366Y-76944890D01*
X132009839Y-76972339D01*
X131982390Y-76994866D01*
X131951069Y-77011607D01*
X131917091Y-77021915D01*
X131875610Y-77026000D01*
X131274390Y-77026000D01*
X131232909Y-77021915D01*
X131198931Y-77011607D01*
X131167610Y-76994866D01*
X131140161Y-76972339D01*
X131117634Y-76944890D01*
X131100893Y-76913569D01*
X131090585Y-76879591D01*
X131086500Y-76838110D01*
X131086500Y-76161890D01*
X131090585Y-76120409D01*
X131100893Y-76086431D01*
X131117634Y-76055110D01*
X131140161Y-76027661D01*
X131167610Y-76005134D01*
X131198931Y-75988393D01*
X131232909Y-75978085D01*
X131274390Y-75974000D01*
X131875610Y-75974000D01*
X131917091Y-75978085D01*
X131917091Y-75978085D01*
G37*
G36*
X127879591Y-75978085D02*
G01*
X127913569Y-75988393D01*
X127944890Y-76005134D01*
X127972339Y-76027661D01*
X127994866Y-76055110D01*
X128011607Y-76086431D01*
X128021915Y-76120409D01*
X128026000Y-76161890D01*
X128026000Y-76838110D01*
X128021915Y-76879591D01*
X128011607Y-76913569D01*
X127994866Y-76944890D01*
X127972339Y-76972339D01*
X127944890Y-76994866D01*
X127913569Y-77011607D01*
X127879591Y-77021915D01*
X127838110Y-77026000D01*
X127236890Y-77026000D01*
X127195409Y-77021915D01*
X127161431Y-77011607D01*
X127130110Y-76994866D01*
X127102661Y-76972339D01*
X127080134Y-76944890D01*
X127063393Y-76913569D01*
X127053085Y-76879591D01*
X127049000Y-76838110D01*
X127049000Y-76161890D01*
X127053085Y-76120409D01*
X127063393Y-76086431D01*
X127080134Y-76055110D01*
X127102661Y-76027661D01*
X127130110Y-76005134D01*
X127161431Y-75988393D01*
X127195409Y-75978085D01*
X127236890Y-75974000D01*
X127838110Y-75974000D01*
X127879591Y-75978085D01*
X127879591Y-75978085D01*
G37*
G36*
X126304591Y-75978085D02*
G01*
X126338569Y-75988393D01*
X126369890Y-76005134D01*
X126397339Y-76027661D01*
X126419866Y-76055110D01*
X126436607Y-76086431D01*
X126446915Y-76120409D01*
X126451000Y-76161890D01*
X126451000Y-76838110D01*
X126446915Y-76879591D01*
X126436607Y-76913569D01*
X126419866Y-76944890D01*
X126397339Y-76972339D01*
X126369890Y-76994866D01*
X126338569Y-77011607D01*
X126304591Y-77021915D01*
X126263110Y-77026000D01*
X125661890Y-77026000D01*
X125620409Y-77021915D01*
X125586431Y-77011607D01*
X125555110Y-76994866D01*
X125527661Y-76972339D01*
X125505134Y-76944890D01*
X125488393Y-76913569D01*
X125478085Y-76879591D01*
X125474000Y-76838110D01*
X125474000Y-76161890D01*
X125478085Y-76120409D01*
X125488393Y-76086431D01*
X125505134Y-76055110D01*
X125527661Y-76027661D01*
X125555110Y-76005134D01*
X125586431Y-75988393D01*
X125620409Y-75978085D01*
X125661890Y-75974000D01*
X126263110Y-75974000D01*
X126304591Y-75978085D01*
X126304591Y-75978085D01*
G37*
G36*
X123092091Y-75978085D02*
G01*
X123126069Y-75988393D01*
X123157390Y-76005134D01*
X123184839Y-76027661D01*
X123207366Y-76055110D01*
X123224107Y-76086431D01*
X123234415Y-76120409D01*
X123238500Y-76161890D01*
X123238500Y-76838110D01*
X123234415Y-76879591D01*
X123224107Y-76913569D01*
X123207366Y-76944890D01*
X123184839Y-76972339D01*
X123157390Y-76994866D01*
X123126069Y-77011607D01*
X123092091Y-77021915D01*
X123050610Y-77026000D01*
X122449390Y-77026000D01*
X122407909Y-77021915D01*
X122373931Y-77011607D01*
X122342610Y-76994866D01*
X122315161Y-76972339D01*
X122292634Y-76944890D01*
X122275893Y-76913569D01*
X122265585Y-76879591D01*
X122261500Y-76838110D01*
X122261500Y-76161890D01*
X122265585Y-76120409D01*
X122275893Y-76086431D01*
X122292634Y-76055110D01*
X122315161Y-76027661D01*
X122342610Y-76005134D01*
X122373931Y-75988393D01*
X122407909Y-75978085D01*
X122449390Y-75974000D01*
X123050610Y-75974000D01*
X123092091Y-75978085D01*
X123092091Y-75978085D01*
G37*
G36*
X124667091Y-75978085D02*
G01*
X124701069Y-75988393D01*
X124732390Y-76005134D01*
X124759839Y-76027661D01*
X124782366Y-76055110D01*
X124799107Y-76086431D01*
X124809415Y-76120409D01*
X124813500Y-76161890D01*
X124813500Y-76838110D01*
X124809415Y-76879591D01*
X124799107Y-76913569D01*
X124782366Y-76944890D01*
X124759839Y-76972339D01*
X124732390Y-76994866D01*
X124701069Y-77011607D01*
X124667091Y-77021915D01*
X124625610Y-77026000D01*
X124024390Y-77026000D01*
X123982909Y-77021915D01*
X123948931Y-77011607D01*
X123917610Y-76994866D01*
X123890161Y-76972339D01*
X123867634Y-76944890D01*
X123850893Y-76913569D01*
X123840585Y-76879591D01*
X123836500Y-76838110D01*
X123836500Y-76161890D01*
X123840585Y-76120409D01*
X123850893Y-76086431D01*
X123867634Y-76055110D01*
X123890161Y-76027661D01*
X123917610Y-76005134D01*
X123948931Y-75988393D01*
X123982909Y-75978085D01*
X124024390Y-75974000D01*
X124625610Y-75974000D01*
X124667091Y-75978085D01*
X124667091Y-75978085D01*
G37*
G36*
X104267091Y-75478085D02*
G01*
X104301069Y-75488393D01*
X104332390Y-75505134D01*
X104359839Y-75527661D01*
X104382366Y-75555110D01*
X104399107Y-75586431D01*
X104409415Y-75620409D01*
X104413500Y-75661890D01*
X104413500Y-76338110D01*
X104409415Y-76379591D01*
X104399107Y-76413569D01*
X104382366Y-76444890D01*
X104359839Y-76472339D01*
X104332390Y-76494866D01*
X104301069Y-76511607D01*
X104267091Y-76521915D01*
X104225610Y-76526000D01*
X103624390Y-76526000D01*
X103582909Y-76521915D01*
X103548931Y-76511607D01*
X103517610Y-76494866D01*
X103490161Y-76472339D01*
X103467634Y-76444890D01*
X103450893Y-76413569D01*
X103440585Y-76379591D01*
X103436500Y-76338110D01*
X103436500Y-75661890D01*
X103440585Y-75620409D01*
X103450893Y-75586431D01*
X103467634Y-75555110D01*
X103490161Y-75527661D01*
X103517610Y-75505134D01*
X103548931Y-75488393D01*
X103582909Y-75478085D01*
X103624390Y-75474000D01*
X104225610Y-75474000D01*
X104267091Y-75478085D01*
X104267091Y-75478085D01*
G37*
G36*
X105842091Y-75478085D02*
G01*
X105876069Y-75488393D01*
X105907390Y-75505134D01*
X105934839Y-75527661D01*
X105957366Y-75555110D01*
X105974107Y-75586431D01*
X105984415Y-75620409D01*
X105988500Y-75661890D01*
X105988500Y-76338110D01*
X105984415Y-76379591D01*
X105974107Y-76413569D01*
X105957366Y-76444890D01*
X105934839Y-76472339D01*
X105907390Y-76494866D01*
X105876069Y-76511607D01*
X105842091Y-76521915D01*
X105800610Y-76526000D01*
X105199390Y-76526000D01*
X105157909Y-76521915D01*
X105123931Y-76511607D01*
X105092610Y-76494866D01*
X105065161Y-76472339D01*
X105042634Y-76444890D01*
X105025893Y-76413569D01*
X105015585Y-76379591D01*
X105011500Y-76338110D01*
X105011500Y-75661890D01*
X105015585Y-75620409D01*
X105025893Y-75586431D01*
X105042634Y-75555110D01*
X105065161Y-75527661D01*
X105092610Y-75505134D01*
X105123931Y-75488393D01*
X105157909Y-75478085D01*
X105199390Y-75474000D01*
X105800610Y-75474000D01*
X105842091Y-75478085D01*
X105842091Y-75478085D01*
G37*
G36*
X107842091Y-75478085D02*
G01*
X107876069Y-75488393D01*
X107907390Y-75505134D01*
X107934839Y-75527661D01*
X107957366Y-75555110D01*
X107974107Y-75586431D01*
X107984415Y-75620409D01*
X107988500Y-75661890D01*
X107988500Y-76338110D01*
X107984415Y-76379591D01*
X107974107Y-76413569D01*
X107957366Y-76444890D01*
X107934839Y-76472339D01*
X107907390Y-76494866D01*
X107876069Y-76511607D01*
X107842091Y-76521915D01*
X107800610Y-76526000D01*
X107199390Y-76526000D01*
X107157909Y-76521915D01*
X107123931Y-76511607D01*
X107092610Y-76494866D01*
X107065161Y-76472339D01*
X107042634Y-76444890D01*
X107025893Y-76413569D01*
X107015585Y-76379591D01*
X107011500Y-76338110D01*
X107011500Y-75661890D01*
X107015585Y-75620409D01*
X107025893Y-75586431D01*
X107042634Y-75555110D01*
X107065161Y-75527661D01*
X107092610Y-75505134D01*
X107123931Y-75488393D01*
X107157909Y-75478085D01*
X107199390Y-75474000D01*
X107800610Y-75474000D01*
X107842091Y-75478085D01*
X107842091Y-75478085D01*
G37*
G36*
X109417091Y-75478085D02*
G01*
X109451069Y-75488393D01*
X109482390Y-75505134D01*
X109509839Y-75527661D01*
X109532366Y-75555110D01*
X109549107Y-75586431D01*
X109559415Y-75620409D01*
X109563500Y-75661890D01*
X109563500Y-76338110D01*
X109559415Y-76379591D01*
X109549107Y-76413569D01*
X109532366Y-76444890D01*
X109509839Y-76472339D01*
X109482390Y-76494866D01*
X109451069Y-76511607D01*
X109417091Y-76521915D01*
X109375610Y-76526000D01*
X108774390Y-76526000D01*
X108732909Y-76521915D01*
X108698931Y-76511607D01*
X108667610Y-76494866D01*
X108640161Y-76472339D01*
X108617634Y-76444890D01*
X108600893Y-76413569D01*
X108590585Y-76379591D01*
X108586500Y-76338110D01*
X108586500Y-75661890D01*
X108590585Y-75620409D01*
X108600893Y-75586431D01*
X108617634Y-75555110D01*
X108640161Y-75527661D01*
X108667610Y-75505134D01*
X108698931Y-75488393D01*
X108732909Y-75478085D01*
X108774390Y-75474000D01*
X109375610Y-75474000D01*
X109417091Y-75478085D01*
X109417091Y-75478085D01*
G37*
G36*
X118651000Y-75651000D02*
G01*
X117649000Y-75651000D01*
X117649000Y-74349000D01*
X118651000Y-74349000D01*
X118651000Y-75651000D01*
X118651000Y-75651000D01*
G37*
G36*
X115351000Y-75651000D02*
G01*
X114349000Y-75651000D01*
X114349000Y-74349000D01*
X115351000Y-74349000D01*
X115351000Y-75651000D01*
X115351000Y-75651000D01*
G37*
G36*
X124667091Y-74478085D02*
G01*
X124701069Y-74488393D01*
X124732390Y-74505134D01*
X124759839Y-74527661D01*
X124782366Y-74555110D01*
X124799107Y-74586431D01*
X124809415Y-74620409D01*
X124813500Y-74661890D01*
X124813500Y-75338110D01*
X124809415Y-75379591D01*
X124799107Y-75413569D01*
X124782366Y-75444890D01*
X124759839Y-75472339D01*
X124732390Y-75494866D01*
X124701069Y-75511607D01*
X124667091Y-75521915D01*
X124625610Y-75526000D01*
X124024390Y-75526000D01*
X123982909Y-75521915D01*
X123948931Y-75511607D01*
X123917610Y-75494866D01*
X123890161Y-75472339D01*
X123867634Y-75444890D01*
X123850893Y-75413569D01*
X123840585Y-75379591D01*
X123836500Y-75338110D01*
X123836500Y-74661890D01*
X123840585Y-74620409D01*
X123850893Y-74586431D01*
X123867634Y-74555110D01*
X123890161Y-74527661D01*
X123917610Y-74505134D01*
X123948931Y-74488393D01*
X123982909Y-74478085D01*
X124024390Y-74474000D01*
X124625610Y-74474000D01*
X124667091Y-74478085D01*
X124667091Y-74478085D01*
G37*
G36*
X123092091Y-74478085D02*
G01*
X123126069Y-74488393D01*
X123157390Y-74505134D01*
X123184839Y-74527661D01*
X123207366Y-74555110D01*
X123224107Y-74586431D01*
X123234415Y-74620409D01*
X123238500Y-74661890D01*
X123238500Y-75338110D01*
X123234415Y-75379591D01*
X123224107Y-75413569D01*
X123207366Y-75444890D01*
X123184839Y-75472339D01*
X123157390Y-75494866D01*
X123126069Y-75511607D01*
X123092091Y-75521915D01*
X123050610Y-75526000D01*
X122449390Y-75526000D01*
X122407909Y-75521915D01*
X122373931Y-75511607D01*
X122342610Y-75494866D01*
X122315161Y-75472339D01*
X122292634Y-75444890D01*
X122275893Y-75413569D01*
X122265585Y-75379591D01*
X122261500Y-75338110D01*
X122261500Y-74661890D01*
X122265585Y-74620409D01*
X122275893Y-74586431D01*
X122292634Y-74555110D01*
X122315161Y-74527661D01*
X122342610Y-74505134D01*
X122373931Y-74488393D01*
X122407909Y-74478085D01*
X122449390Y-74474000D01*
X123050610Y-74474000D01*
X123092091Y-74478085D01*
X123092091Y-74478085D01*
G37*
G36*
X127917091Y-74478085D02*
G01*
X127951069Y-74488393D01*
X127982390Y-74505134D01*
X128009839Y-74527661D01*
X128032366Y-74555110D01*
X128049107Y-74586431D01*
X128059415Y-74620409D01*
X128063500Y-74661890D01*
X128063500Y-75338110D01*
X128059415Y-75379591D01*
X128049107Y-75413569D01*
X128032366Y-75444890D01*
X128009839Y-75472339D01*
X127982390Y-75494866D01*
X127951069Y-75511607D01*
X127917091Y-75521915D01*
X127875610Y-75526000D01*
X127274390Y-75526000D01*
X127232909Y-75521915D01*
X127198931Y-75511607D01*
X127167610Y-75494866D01*
X127140161Y-75472339D01*
X127117634Y-75444890D01*
X127100893Y-75413569D01*
X127090585Y-75379591D01*
X127086500Y-75338110D01*
X127086500Y-74661890D01*
X127090585Y-74620409D01*
X127100893Y-74586431D01*
X127117634Y-74555110D01*
X127140161Y-74527661D01*
X127167610Y-74505134D01*
X127198931Y-74488393D01*
X127232909Y-74478085D01*
X127274390Y-74474000D01*
X127875610Y-74474000D01*
X127917091Y-74478085D01*
X127917091Y-74478085D01*
G37*
G36*
X126342091Y-74478085D02*
G01*
X126376069Y-74488393D01*
X126407390Y-74505134D01*
X126434839Y-74527661D01*
X126457366Y-74555110D01*
X126474107Y-74586431D01*
X126484415Y-74620409D01*
X126488500Y-74661890D01*
X126488500Y-75338110D01*
X126484415Y-75379591D01*
X126474107Y-75413569D01*
X126457366Y-75444890D01*
X126434839Y-75472339D01*
X126407390Y-75494866D01*
X126376069Y-75511607D01*
X126342091Y-75521915D01*
X126300610Y-75526000D01*
X125699390Y-75526000D01*
X125657909Y-75521915D01*
X125623931Y-75511607D01*
X125592610Y-75494866D01*
X125565161Y-75472339D01*
X125542634Y-75444890D01*
X125525893Y-75413569D01*
X125515585Y-75379591D01*
X125511500Y-75338110D01*
X125511500Y-74661890D01*
X125515585Y-74620409D01*
X125525893Y-74586431D01*
X125542634Y-74555110D01*
X125565161Y-74527661D01*
X125592610Y-74505134D01*
X125623931Y-74488393D01*
X125657909Y-74478085D01*
X125699390Y-74474000D01*
X126300610Y-74474000D01*
X126342091Y-74478085D01*
X126342091Y-74478085D01*
G37*
G36*
X142901000Y-74901000D02*
G01*
X141099000Y-74901000D01*
X141099000Y-73099000D01*
X142901000Y-73099000D01*
X142901000Y-74901000D01*
X142901000Y-74901000D01*
G37*
G36*
X93115432Y-73089727D02*
G01*
X93264732Y-73119424D01*
X93428704Y-73187344D01*
X93576274Y-73285947D01*
X93701773Y-73411446D01*
X93800376Y-73559016D01*
X93868296Y-73722988D01*
X93902920Y-73897059D01*
X93902920Y-74074541D01*
X93868296Y-74248612D01*
X93800376Y-74412584D01*
X93701773Y-74560154D01*
X93576274Y-74685653D01*
X93428704Y-74784256D01*
X93264732Y-74852176D01*
X93115432Y-74881873D01*
X93090662Y-74886800D01*
X92913178Y-74886800D01*
X92888408Y-74881873D01*
X92739108Y-74852176D01*
X92575136Y-74784256D01*
X92427566Y-74685653D01*
X92302067Y-74560154D01*
X92203464Y-74412584D01*
X92135544Y-74248612D01*
X92100920Y-74074541D01*
X92100920Y-73897059D01*
X92135544Y-73722988D01*
X92203464Y-73559016D01*
X92302067Y-73411446D01*
X92427566Y-73285947D01*
X92575136Y-73187344D01*
X92739108Y-73119424D01*
X92888408Y-73089727D01*
X92913178Y-73084800D01*
X93090662Y-73084800D01*
X93115432Y-73089727D01*
X93115432Y-73089727D01*
G37*
G36*
X95615432Y-73089727D02*
G01*
X95764732Y-73119424D01*
X95928704Y-73187344D01*
X96076274Y-73285947D01*
X96201773Y-73411446D01*
X96300376Y-73559016D01*
X96368296Y-73722988D01*
X96402920Y-73897059D01*
X96402920Y-74074541D01*
X96368296Y-74248612D01*
X96300376Y-74412584D01*
X96201773Y-74560154D01*
X96076274Y-74685653D01*
X95928704Y-74784256D01*
X95764732Y-74852176D01*
X95615432Y-74881873D01*
X95590662Y-74886800D01*
X95413178Y-74886800D01*
X95388408Y-74881873D01*
X95239108Y-74852176D01*
X95075136Y-74784256D01*
X94927566Y-74685653D01*
X94802067Y-74560154D01*
X94703464Y-74412584D01*
X94635544Y-74248612D01*
X94600920Y-74074541D01*
X94600920Y-73897059D01*
X94635544Y-73722988D01*
X94703464Y-73559016D01*
X94802067Y-73411446D01*
X94927566Y-73285947D01*
X95075136Y-73187344D01*
X95239108Y-73119424D01*
X95388408Y-73089727D01*
X95413178Y-73084800D01*
X95590662Y-73084800D01*
X95615432Y-73089727D01*
X95615432Y-73089727D01*
G37*
G36*
X105879591Y-73228085D02*
G01*
X105913569Y-73238393D01*
X105944890Y-73255134D01*
X105972339Y-73277661D01*
X105994866Y-73305110D01*
X106011607Y-73336431D01*
X106021915Y-73370409D01*
X106026000Y-73411890D01*
X106026000Y-74088110D01*
X106021915Y-74129591D01*
X106011607Y-74163569D01*
X105994866Y-74194890D01*
X105972339Y-74222339D01*
X105944890Y-74244866D01*
X105913569Y-74261607D01*
X105879591Y-74271915D01*
X105838110Y-74276000D01*
X105236890Y-74276000D01*
X105195409Y-74271915D01*
X105161431Y-74261607D01*
X105130110Y-74244866D01*
X105102661Y-74222339D01*
X105080134Y-74194890D01*
X105063393Y-74163569D01*
X105053085Y-74129591D01*
X105049000Y-74088110D01*
X105049000Y-73411890D01*
X105053085Y-73370409D01*
X105063393Y-73336431D01*
X105080134Y-73305110D01*
X105102661Y-73277661D01*
X105130110Y-73255134D01*
X105161431Y-73238393D01*
X105195409Y-73228085D01*
X105236890Y-73224000D01*
X105838110Y-73224000D01*
X105879591Y-73228085D01*
X105879591Y-73228085D01*
G37*
G36*
X107804591Y-73228085D02*
G01*
X107838569Y-73238393D01*
X107869890Y-73255134D01*
X107897339Y-73277661D01*
X107919866Y-73305110D01*
X107936607Y-73336431D01*
X107946915Y-73370409D01*
X107951000Y-73411890D01*
X107951000Y-74088110D01*
X107946915Y-74129591D01*
X107936607Y-74163569D01*
X107919866Y-74194890D01*
X107897339Y-74222339D01*
X107869890Y-74244866D01*
X107838569Y-74261607D01*
X107804591Y-74271915D01*
X107763110Y-74276000D01*
X107161890Y-74276000D01*
X107120409Y-74271915D01*
X107086431Y-74261607D01*
X107055110Y-74244866D01*
X107027661Y-74222339D01*
X107005134Y-74194890D01*
X106988393Y-74163569D01*
X106978085Y-74129591D01*
X106974000Y-74088110D01*
X106974000Y-73411890D01*
X106978085Y-73370409D01*
X106988393Y-73336431D01*
X107005134Y-73305110D01*
X107027661Y-73277661D01*
X107055110Y-73255134D01*
X107086431Y-73238393D01*
X107120409Y-73228085D01*
X107161890Y-73224000D01*
X107763110Y-73224000D01*
X107804591Y-73228085D01*
X107804591Y-73228085D01*
G37*
G36*
X109379591Y-73228085D02*
G01*
X109413569Y-73238393D01*
X109444890Y-73255134D01*
X109472339Y-73277661D01*
X109494866Y-73305110D01*
X109511607Y-73336431D01*
X109521915Y-73370409D01*
X109526000Y-73411890D01*
X109526000Y-74088110D01*
X109521915Y-74129591D01*
X109511607Y-74163569D01*
X109494866Y-74194890D01*
X109472339Y-74222339D01*
X109444890Y-74244866D01*
X109413569Y-74261607D01*
X109379591Y-74271915D01*
X109338110Y-74276000D01*
X108736890Y-74276000D01*
X108695409Y-74271915D01*
X108661431Y-74261607D01*
X108630110Y-74244866D01*
X108602661Y-74222339D01*
X108580134Y-74194890D01*
X108563393Y-74163569D01*
X108553085Y-74129591D01*
X108549000Y-74088110D01*
X108549000Y-73411890D01*
X108553085Y-73370409D01*
X108563393Y-73336431D01*
X108580134Y-73305110D01*
X108602661Y-73277661D01*
X108630110Y-73255134D01*
X108661431Y-73238393D01*
X108695409Y-73228085D01*
X108736890Y-73224000D01*
X109338110Y-73224000D01*
X109379591Y-73228085D01*
X109379591Y-73228085D01*
G37*
G36*
X104304591Y-73228085D02*
G01*
X104338569Y-73238393D01*
X104369890Y-73255134D01*
X104397339Y-73277661D01*
X104419866Y-73305110D01*
X104436607Y-73336431D01*
X104446915Y-73370409D01*
X104451000Y-73411890D01*
X104451000Y-74088110D01*
X104446915Y-74129591D01*
X104436607Y-74163569D01*
X104419866Y-74194890D01*
X104397339Y-74222339D01*
X104369890Y-74244866D01*
X104338569Y-74261607D01*
X104304591Y-74271915D01*
X104263110Y-74276000D01*
X103661890Y-74276000D01*
X103620409Y-74271915D01*
X103586431Y-74261607D01*
X103555110Y-74244866D01*
X103527661Y-74222339D01*
X103505134Y-74194890D01*
X103488393Y-74163569D01*
X103478085Y-74129591D01*
X103474000Y-74088110D01*
X103474000Y-73411890D01*
X103478085Y-73370409D01*
X103488393Y-73336431D01*
X103505134Y-73305110D01*
X103527661Y-73277661D01*
X103555110Y-73255134D01*
X103586431Y-73238393D01*
X103620409Y-73228085D01*
X103661890Y-73224000D01*
X104263110Y-73224000D01*
X104304591Y-73228085D01*
X104304591Y-73228085D01*
G37*
G36*
X115351000Y-73151000D02*
G01*
X114349000Y-73151000D01*
X114349000Y-71849000D01*
X115351000Y-71849000D01*
X115351000Y-73151000D01*
X115351000Y-73151000D01*
G37*
G36*
X118651000Y-73151000D02*
G01*
X117649000Y-73151000D01*
X117649000Y-71849000D01*
X118651000Y-71849000D01*
X118651000Y-73151000D01*
X118651000Y-73151000D01*
G37*
G36*
X105879591Y-71478085D02*
G01*
X105913569Y-71488393D01*
X105944890Y-71505134D01*
X105972339Y-71527661D01*
X105994866Y-71555110D01*
X106011607Y-71586431D01*
X106021915Y-71620409D01*
X106026000Y-71661890D01*
X106026000Y-72338110D01*
X106021915Y-72379591D01*
X106011607Y-72413569D01*
X105994866Y-72444890D01*
X105972339Y-72472339D01*
X105944890Y-72494866D01*
X105913569Y-72511607D01*
X105879591Y-72521915D01*
X105838110Y-72526000D01*
X105236890Y-72526000D01*
X105195409Y-72521915D01*
X105161431Y-72511607D01*
X105130110Y-72494866D01*
X105102661Y-72472339D01*
X105080134Y-72444890D01*
X105063393Y-72413569D01*
X105053085Y-72379591D01*
X105049000Y-72338110D01*
X105049000Y-71661890D01*
X105053085Y-71620409D01*
X105063393Y-71586431D01*
X105080134Y-71555110D01*
X105102661Y-71527661D01*
X105130110Y-71505134D01*
X105161431Y-71488393D01*
X105195409Y-71478085D01*
X105236890Y-71474000D01*
X105838110Y-71474000D01*
X105879591Y-71478085D01*
X105879591Y-71478085D01*
G37*
G36*
X104304591Y-71478085D02*
G01*
X104338569Y-71488393D01*
X104369890Y-71505134D01*
X104397339Y-71527661D01*
X104419866Y-71555110D01*
X104436607Y-71586431D01*
X104446915Y-71620409D01*
X104451000Y-71661890D01*
X104451000Y-72338110D01*
X104446915Y-72379591D01*
X104436607Y-72413569D01*
X104419866Y-72444890D01*
X104397339Y-72472339D01*
X104369890Y-72494866D01*
X104338569Y-72511607D01*
X104304591Y-72521915D01*
X104263110Y-72526000D01*
X103661890Y-72526000D01*
X103620409Y-72521915D01*
X103586431Y-72511607D01*
X103555110Y-72494866D01*
X103527661Y-72472339D01*
X103505134Y-72444890D01*
X103488393Y-72413569D01*
X103478085Y-72379591D01*
X103474000Y-72338110D01*
X103474000Y-71661890D01*
X103478085Y-71620409D01*
X103488393Y-71586431D01*
X103505134Y-71555110D01*
X103527661Y-71527661D01*
X103555110Y-71505134D01*
X103586431Y-71488393D01*
X103620409Y-71478085D01*
X103661890Y-71474000D01*
X104263110Y-71474000D01*
X104304591Y-71478085D01*
X104304591Y-71478085D01*
G37*
G36*
X109379591Y-71440585D02*
G01*
X109413569Y-71450893D01*
X109444890Y-71467634D01*
X109472339Y-71490161D01*
X109494866Y-71517610D01*
X109511607Y-71548931D01*
X109521915Y-71582909D01*
X109526000Y-71624390D01*
X109526000Y-72300610D01*
X109521915Y-72342091D01*
X109511607Y-72376069D01*
X109494866Y-72407390D01*
X109472339Y-72434839D01*
X109444890Y-72457366D01*
X109413569Y-72474107D01*
X109379591Y-72484415D01*
X109338110Y-72488500D01*
X108736890Y-72488500D01*
X108695409Y-72484415D01*
X108661431Y-72474107D01*
X108630110Y-72457366D01*
X108602661Y-72434839D01*
X108580134Y-72407390D01*
X108563393Y-72376069D01*
X108553085Y-72342091D01*
X108549000Y-72300610D01*
X108549000Y-71624390D01*
X108553085Y-71582909D01*
X108563393Y-71548931D01*
X108580134Y-71517610D01*
X108602661Y-71490161D01*
X108630110Y-71467634D01*
X108661431Y-71450893D01*
X108695409Y-71440585D01*
X108736890Y-71436500D01*
X109338110Y-71436500D01*
X109379591Y-71440585D01*
X109379591Y-71440585D01*
G37*
G36*
X107804591Y-71440585D02*
G01*
X107838569Y-71450893D01*
X107869890Y-71467634D01*
X107897339Y-71490161D01*
X107919866Y-71517610D01*
X107936607Y-71548931D01*
X107946915Y-71582909D01*
X107951000Y-71624390D01*
X107951000Y-72300610D01*
X107946915Y-72342091D01*
X107936607Y-72376069D01*
X107919866Y-72407390D01*
X107897339Y-72434839D01*
X107869890Y-72457366D01*
X107838569Y-72474107D01*
X107804591Y-72484415D01*
X107763110Y-72488500D01*
X107161890Y-72488500D01*
X107120409Y-72484415D01*
X107086431Y-72474107D01*
X107055110Y-72457366D01*
X107027661Y-72434839D01*
X107005134Y-72407390D01*
X106988393Y-72376069D01*
X106978085Y-72342091D01*
X106974000Y-72300610D01*
X106974000Y-71624390D01*
X106978085Y-71582909D01*
X106988393Y-71548931D01*
X107005134Y-71517610D01*
X107027661Y-71490161D01*
X107055110Y-71467634D01*
X107086431Y-71450893D01*
X107120409Y-71440585D01*
X107161890Y-71436500D01*
X107763110Y-71436500D01*
X107804591Y-71440585D01*
X107804591Y-71440585D01*
G37*
M02*
