G04 #@! TF.GenerationSoftware,KiCad,Pcbnew,5.1.0-unknown-ca7aec2~82~ubuntu18.04.1*
G04 #@! TF.CreationDate,2019-04-12T10:54:20-06:00*
G04 #@! TF.ProjectId,batteryMonitor,62617474-6572-4794-9d6f-6e69746f722e,rev?*
G04 #@! TF.SameCoordinates,Original*
G04 #@! TF.FileFunction,Copper,L2,Bot*
G04 #@! TF.FilePolarity,Positive*
%FSLAX46Y46*%
G04 Gerber Fmt 4.6, Leading zero omitted, Abs format (unit mm)*
G04 Created by KiCad (PCBNEW 5.1.0-unknown-ca7aec2~82~ubuntu18.04.1) date 2019-04-12 10:54:20*
%MOMM*%
%LPD*%
G04 APERTURE LIST*
%ADD10R,1.700000X1.700000*%
%ADD11O,1.700000X1.700000*%
%ADD12C,0.100000*%
%ADD13C,1.700000*%
%ADD14C,0.800000*%
%ADD15C,1.000000*%
%ADD16C,0.250000*%
%ADD17C,0.350000*%
%ADD18C,0.254000*%
G04 APERTURE END LIST*
D10*
X131000000Y-81000000D03*
X142000000Y-74000000D03*
D11*
X142000000Y-76540000D03*
D10*
X141931080Y-81141880D03*
D11*
X141931080Y-83681880D03*
X141931080Y-86221880D03*
X141931080Y-88761880D03*
X141931080Y-91301880D03*
D12*
G36*
X96126424Y-83137004D02*
G01*
X96150693Y-83140604D01*
X96174491Y-83146565D01*
X96197591Y-83154830D01*
X96219769Y-83165320D01*
X96240813Y-83177933D01*
X96260518Y-83192547D01*
X96278697Y-83209023D01*
X96295173Y-83227202D01*
X96309787Y-83246907D01*
X96322400Y-83267951D01*
X96332890Y-83290129D01*
X96341155Y-83313229D01*
X96347116Y-83337027D01*
X96350716Y-83361296D01*
X96351920Y-83385800D01*
X96351920Y-84585800D01*
X96350716Y-84610304D01*
X96347116Y-84634573D01*
X96341155Y-84658371D01*
X96332890Y-84681471D01*
X96322400Y-84703649D01*
X96309787Y-84724693D01*
X96295173Y-84744398D01*
X96278697Y-84762577D01*
X96260518Y-84779053D01*
X96240813Y-84793667D01*
X96219769Y-84806280D01*
X96197591Y-84816770D01*
X96174491Y-84825035D01*
X96150693Y-84830996D01*
X96126424Y-84834596D01*
X96101920Y-84835800D01*
X94901920Y-84835800D01*
X94877416Y-84834596D01*
X94853147Y-84830996D01*
X94829349Y-84825035D01*
X94806249Y-84816770D01*
X94784071Y-84806280D01*
X94763027Y-84793667D01*
X94743322Y-84779053D01*
X94725143Y-84762577D01*
X94708667Y-84744398D01*
X94694053Y-84724693D01*
X94681440Y-84703649D01*
X94670950Y-84681471D01*
X94662685Y-84658371D01*
X94656724Y-84634573D01*
X94653124Y-84610304D01*
X94651920Y-84585800D01*
X94651920Y-83385800D01*
X94653124Y-83361296D01*
X94656724Y-83337027D01*
X94662685Y-83313229D01*
X94670950Y-83290129D01*
X94681440Y-83267951D01*
X94694053Y-83246907D01*
X94708667Y-83227202D01*
X94725143Y-83209023D01*
X94743322Y-83192547D01*
X94763027Y-83177933D01*
X94784071Y-83165320D01*
X94806249Y-83154830D01*
X94829349Y-83146565D01*
X94853147Y-83140604D01*
X94877416Y-83137004D01*
X94901920Y-83135800D01*
X96101920Y-83135800D01*
X96126424Y-83137004D01*
X96126424Y-83137004D01*
G37*
D13*
X95501920Y-83985800D03*
X95501920Y-81485800D03*
X95501920Y-78985800D03*
X95501920Y-76485800D03*
X95501920Y-73985800D03*
X93001920Y-83985800D03*
X93001920Y-81485800D03*
X93001920Y-78985800D03*
X93001920Y-76485800D03*
X93001920Y-73985800D03*
D14*
X106500000Y-87500000D03*
X103000000Y-87500000D03*
X118000000Y-83250000D03*
X121750000Y-82750000D03*
X128000000Y-81224961D03*
X113750000Y-85500000D03*
X129750000Y-93000000D03*
X130360000Y-92110000D03*
X129090000Y-92340000D03*
X128737347Y-76737347D03*
D15*
X106500000Y-87500000D02*
X103000000Y-87500000D01*
X99016120Y-87500000D02*
X95501920Y-83985800D01*
X103000000Y-87500000D02*
X99016120Y-87500000D01*
X92257919Y-85535801D02*
X93951919Y-85535801D01*
X91451919Y-84729801D02*
X92257919Y-85535801D01*
X91451919Y-75535801D02*
X91451919Y-84729801D01*
X93951919Y-85535801D02*
X95501920Y-83985800D01*
X93001920Y-73985800D02*
X91451919Y-75535801D01*
D16*
X121250000Y-83250000D02*
X121750000Y-82750000D01*
X118000000Y-83250000D02*
X121250000Y-83250000D01*
X123275039Y-81224961D02*
X121750000Y-82750000D01*
X128000000Y-81224961D02*
X123275039Y-81224961D01*
X113750000Y-85500000D02*
X121975001Y-93725001D01*
X139507959Y-93725001D02*
X141931080Y-91301880D01*
X121975001Y-93725001D02*
X139507959Y-93725001D01*
D15*
X129750000Y-88790000D02*
X142000000Y-76540000D01*
X129750000Y-92500000D02*
X129750000Y-88790000D01*
D16*
X129750000Y-93000000D02*
X129750000Y-92500000D01*
D17*
X93851919Y-83135801D02*
X93001920Y-83985800D01*
X94226921Y-77710801D02*
X94226921Y-82760799D01*
X94226921Y-82760799D02*
X93851919Y-83135801D01*
X93001920Y-76485800D02*
X94226921Y-77710801D01*
D15*
X95501920Y-73985800D02*
X93001920Y-76485800D01*
D16*
X97750373Y-76737347D02*
X95501920Y-78985800D01*
X128737347Y-76737347D02*
X97750373Y-76737347D01*
D18*
G36*
X107873000Y-76231347D02*
G01*
X97775227Y-76231347D01*
X97750373Y-76228899D01*
X97725519Y-76231347D01*
X97651180Y-76238669D01*
X97555798Y-76267602D01*
X97467894Y-76314588D01*
X97390846Y-76377820D01*
X97375001Y-76397127D01*
X95938087Y-77834042D01*
X95860989Y-77802107D01*
X95623163Y-77754800D01*
X95380677Y-77754800D01*
X95142851Y-77802107D01*
X94918823Y-77894902D01*
X94782921Y-77985709D01*
X94782921Y-77738105D01*
X94785610Y-77710800D01*
X94782921Y-77683496D01*
X94782921Y-77683489D01*
X94774876Y-77601806D01*
X94743083Y-77497000D01*
X94709623Y-77434400D01*
X94717203Y-77441980D01*
X94918823Y-77576698D01*
X95142851Y-77669493D01*
X95380677Y-77716800D01*
X95623163Y-77716800D01*
X95860989Y-77669493D01*
X96085017Y-77576698D01*
X96286637Y-77441980D01*
X96458100Y-77270517D01*
X96592818Y-77068897D01*
X96685613Y-76844869D01*
X96732920Y-76607043D01*
X96732920Y-76364557D01*
X96685613Y-76126731D01*
X96592818Y-75902703D01*
X96458100Y-75701083D01*
X96286637Y-75529620D01*
X96085017Y-75394902D01*
X95860989Y-75302107D01*
X95623163Y-75254800D01*
X95478842Y-75254800D01*
X95516842Y-75216800D01*
X95623163Y-75216800D01*
X95860989Y-75169493D01*
X96085017Y-75076698D01*
X96286637Y-74941980D01*
X96458100Y-74770517D01*
X96592818Y-74568897D01*
X96685613Y-74344869D01*
X96732920Y-74107043D01*
X96732920Y-73864557D01*
X96685613Y-73626731D01*
X96592818Y-73402703D01*
X96458100Y-73201083D01*
X96286637Y-73029620D01*
X96085017Y-72894902D01*
X95860989Y-72802107D01*
X95623163Y-72754800D01*
X95380677Y-72754800D01*
X95142851Y-72802107D01*
X94918823Y-72894902D01*
X94717203Y-73029620D01*
X94545740Y-73201083D01*
X94411022Y-73402703D01*
X94318227Y-73626731D01*
X94270920Y-73864557D01*
X94270920Y-73970878D01*
X94232855Y-74008943D01*
X94236376Y-73907204D01*
X94197322Y-73667883D01*
X94112331Y-73440780D01*
X94071998Y-73365323D01*
X93894020Y-73273305D01*
X93181525Y-73985800D01*
X93195668Y-73999943D01*
X93016063Y-74179548D01*
X93001920Y-74165405D01*
X92289425Y-74877900D01*
X92381443Y-75055878D01*
X92602127Y-75156366D01*
X92838175Y-75211869D01*
X93023515Y-75218283D01*
X92986999Y-75254800D01*
X92880677Y-75254800D01*
X92642851Y-75302107D01*
X92418823Y-75394902D01*
X92217203Y-75529620D01*
X92045740Y-75701083D01*
X91911022Y-75902703D01*
X91818227Y-76126731D01*
X91770920Y-76364557D01*
X91770920Y-76607043D01*
X91818227Y-76844869D01*
X91911022Y-77068897D01*
X92045740Y-77270517D01*
X92217203Y-77441980D01*
X92418823Y-77576698D01*
X92642851Y-77669493D01*
X92880677Y-77716800D01*
X93123163Y-77716800D01*
X93360989Y-77669493D01*
X93388087Y-77658269D01*
X93670921Y-77941103D01*
X93670921Y-77952301D01*
X93585017Y-77894902D01*
X93360989Y-77802107D01*
X93123163Y-77754800D01*
X92880677Y-77754800D01*
X92642851Y-77802107D01*
X92418823Y-77894902D01*
X92217203Y-78029620D01*
X92045740Y-78201083D01*
X91911022Y-78402703D01*
X91818227Y-78626731D01*
X91770920Y-78864557D01*
X91770920Y-79107043D01*
X91818227Y-79344869D01*
X91911022Y-79568897D01*
X92045740Y-79770517D01*
X92217203Y-79941980D01*
X92418823Y-80076698D01*
X92642851Y-80169493D01*
X92880677Y-80216800D01*
X93123163Y-80216800D01*
X93360989Y-80169493D01*
X93585017Y-80076698D01*
X93670921Y-80019299D01*
X93670922Y-80452302D01*
X93585017Y-80394902D01*
X93360989Y-80302107D01*
X93123163Y-80254800D01*
X92880677Y-80254800D01*
X92642851Y-80302107D01*
X92418823Y-80394902D01*
X92217203Y-80529620D01*
X92045740Y-80701083D01*
X91911022Y-80902703D01*
X91818227Y-81126731D01*
X91770920Y-81364557D01*
X91770920Y-81607043D01*
X91818227Y-81844869D01*
X91911022Y-82068897D01*
X92045740Y-82270517D01*
X92217203Y-82441980D01*
X92418823Y-82576698D01*
X92642851Y-82669493D01*
X92880677Y-82716800D01*
X93123163Y-82716800D01*
X93360989Y-82669493D01*
X93585017Y-82576698D01*
X93670922Y-82519298D01*
X93670922Y-82530496D01*
X93478085Y-82723334D01*
X93478080Y-82723338D01*
X93388087Y-82813331D01*
X93360989Y-82802107D01*
X93123163Y-82754800D01*
X92880677Y-82754800D01*
X92642851Y-82802107D01*
X92418823Y-82894902D01*
X92217203Y-83029620D01*
X92045740Y-83201083D01*
X91911022Y-83402703D01*
X91818227Y-83626731D01*
X91770920Y-83864557D01*
X91770920Y-84107043D01*
X91818227Y-84344869D01*
X91911022Y-84568897D01*
X92045740Y-84770517D01*
X92217203Y-84941980D01*
X92418823Y-85076698D01*
X92642851Y-85169493D01*
X92880677Y-85216800D01*
X93123163Y-85216800D01*
X93360989Y-85169493D01*
X93585017Y-85076698D01*
X93786637Y-84941980D01*
X93892817Y-84835800D01*
X94269077Y-84835800D01*
X94276433Y-84910489D01*
X94298219Y-84982308D01*
X94333598Y-85048496D01*
X94381209Y-85106511D01*
X94439224Y-85154122D01*
X94505412Y-85189501D01*
X94577231Y-85211287D01*
X94651920Y-85218643D01*
X95279670Y-85216800D01*
X95374920Y-85121550D01*
X95374920Y-84112800D01*
X95628920Y-84112800D01*
X95628920Y-85121550D01*
X95724170Y-85216800D01*
X96351920Y-85218643D01*
X96426609Y-85211287D01*
X96498428Y-85189501D01*
X96564616Y-85154122D01*
X96622631Y-85106511D01*
X96670242Y-85048496D01*
X96705621Y-84982308D01*
X96727407Y-84910489D01*
X96734763Y-84835800D01*
X96732920Y-84208050D01*
X96637670Y-84112800D01*
X95628920Y-84112800D01*
X95374920Y-84112800D01*
X94366170Y-84112800D01*
X94270920Y-84208050D01*
X94269077Y-84835800D01*
X93892817Y-84835800D01*
X93958100Y-84770517D01*
X94092818Y-84568897D01*
X94185613Y-84344869D01*
X94232920Y-84107043D01*
X94232920Y-83864557D01*
X94185613Y-83626731D01*
X94174389Y-83599633D01*
X94264382Y-83509640D01*
X94264386Y-83509635D01*
X94270158Y-83503864D01*
X94270920Y-83763550D01*
X94366170Y-83858800D01*
X95374920Y-83858800D01*
X95374920Y-82850050D01*
X95628920Y-82850050D01*
X95628920Y-83858800D01*
X96637670Y-83858800D01*
X96732920Y-83763550D01*
X96734763Y-83135800D01*
X96727407Y-83061111D01*
X96705621Y-82989292D01*
X96670242Y-82923104D01*
X96622631Y-82865089D01*
X96564616Y-82817478D01*
X96498428Y-82782099D01*
X96426609Y-82760313D01*
X96351920Y-82752957D01*
X95724170Y-82754800D01*
X95628920Y-82850050D01*
X95374920Y-82850050D01*
X95279670Y-82754800D01*
X94784876Y-82753347D01*
X94782921Y-82733495D01*
X94782921Y-82485891D01*
X94918823Y-82576698D01*
X95142851Y-82669493D01*
X95380677Y-82716800D01*
X95623163Y-82716800D01*
X95860989Y-82669493D01*
X96085017Y-82576698D01*
X96286637Y-82441980D01*
X96458100Y-82270517D01*
X96592818Y-82068897D01*
X96685613Y-81844869D01*
X96732920Y-81607043D01*
X96732920Y-81364557D01*
X96712367Y-81261229D01*
X96740375Y-81266800D01*
X96943465Y-81266800D01*
X97142652Y-81227180D01*
X97330282Y-81149461D01*
X97499144Y-81036630D01*
X97642750Y-80893024D01*
X97755581Y-80724162D01*
X97833300Y-80536532D01*
X97872920Y-80337345D01*
X97872920Y-80134255D01*
X97833300Y-79935068D01*
X97755581Y-79747438D01*
X97642750Y-79578576D01*
X97499144Y-79434970D01*
X97330282Y-79322139D01*
X97142652Y-79244420D01*
X96943465Y-79204800D01*
X96740375Y-79204800D01*
X96712367Y-79210371D01*
X96732920Y-79107043D01*
X96732920Y-78864557D01*
X96685613Y-78626731D01*
X96653678Y-78549633D01*
X97959965Y-77243347D01*
X107873000Y-77243347D01*
X107873000Y-94369000D01*
X90631000Y-94369000D01*
X90631000Y-74064396D01*
X91767464Y-74064396D01*
X91806518Y-74303717D01*
X91891509Y-74530820D01*
X91931842Y-74606277D01*
X92109820Y-74698295D01*
X92822315Y-73985800D01*
X92109820Y-73273305D01*
X91931842Y-73365323D01*
X91831354Y-73586007D01*
X91775851Y-73822055D01*
X91767464Y-74064396D01*
X90631000Y-74064396D01*
X90631000Y-73093700D01*
X92289425Y-73093700D01*
X93001920Y-73806195D01*
X93714415Y-73093700D01*
X93622397Y-72915722D01*
X93401713Y-72815234D01*
X93165665Y-72759731D01*
X92923324Y-72751344D01*
X92684003Y-72790398D01*
X92456900Y-72875389D01*
X92381443Y-72915722D01*
X92289425Y-73093700D01*
X90631000Y-73093700D01*
X90631000Y-70631000D01*
X107873000Y-70631000D01*
X107873000Y-76231347D01*
X107873000Y-76231347D01*
G37*
X107873000Y-76231347D02*
X97775227Y-76231347D01*
X97750373Y-76228899D01*
X97725519Y-76231347D01*
X97651180Y-76238669D01*
X97555798Y-76267602D01*
X97467894Y-76314588D01*
X97390846Y-76377820D01*
X97375001Y-76397127D01*
X95938087Y-77834042D01*
X95860989Y-77802107D01*
X95623163Y-77754800D01*
X95380677Y-77754800D01*
X95142851Y-77802107D01*
X94918823Y-77894902D01*
X94782921Y-77985709D01*
X94782921Y-77738105D01*
X94785610Y-77710800D01*
X94782921Y-77683496D01*
X94782921Y-77683489D01*
X94774876Y-77601806D01*
X94743083Y-77497000D01*
X94709623Y-77434400D01*
X94717203Y-77441980D01*
X94918823Y-77576698D01*
X95142851Y-77669493D01*
X95380677Y-77716800D01*
X95623163Y-77716800D01*
X95860989Y-77669493D01*
X96085017Y-77576698D01*
X96286637Y-77441980D01*
X96458100Y-77270517D01*
X96592818Y-77068897D01*
X96685613Y-76844869D01*
X96732920Y-76607043D01*
X96732920Y-76364557D01*
X96685613Y-76126731D01*
X96592818Y-75902703D01*
X96458100Y-75701083D01*
X96286637Y-75529620D01*
X96085017Y-75394902D01*
X95860989Y-75302107D01*
X95623163Y-75254800D01*
X95478842Y-75254800D01*
X95516842Y-75216800D01*
X95623163Y-75216800D01*
X95860989Y-75169493D01*
X96085017Y-75076698D01*
X96286637Y-74941980D01*
X96458100Y-74770517D01*
X96592818Y-74568897D01*
X96685613Y-74344869D01*
X96732920Y-74107043D01*
X96732920Y-73864557D01*
X96685613Y-73626731D01*
X96592818Y-73402703D01*
X96458100Y-73201083D01*
X96286637Y-73029620D01*
X96085017Y-72894902D01*
X95860989Y-72802107D01*
X95623163Y-72754800D01*
X95380677Y-72754800D01*
X95142851Y-72802107D01*
X94918823Y-72894902D01*
X94717203Y-73029620D01*
X94545740Y-73201083D01*
X94411022Y-73402703D01*
X94318227Y-73626731D01*
X94270920Y-73864557D01*
X94270920Y-73970878D01*
X94232855Y-74008943D01*
X94236376Y-73907204D01*
X94197322Y-73667883D01*
X94112331Y-73440780D01*
X94071998Y-73365323D01*
X93894020Y-73273305D01*
X93181525Y-73985800D01*
X93195668Y-73999943D01*
X93016063Y-74179548D01*
X93001920Y-74165405D01*
X92289425Y-74877900D01*
X92381443Y-75055878D01*
X92602127Y-75156366D01*
X92838175Y-75211869D01*
X93023515Y-75218283D01*
X92986999Y-75254800D01*
X92880677Y-75254800D01*
X92642851Y-75302107D01*
X92418823Y-75394902D01*
X92217203Y-75529620D01*
X92045740Y-75701083D01*
X91911022Y-75902703D01*
X91818227Y-76126731D01*
X91770920Y-76364557D01*
X91770920Y-76607043D01*
X91818227Y-76844869D01*
X91911022Y-77068897D01*
X92045740Y-77270517D01*
X92217203Y-77441980D01*
X92418823Y-77576698D01*
X92642851Y-77669493D01*
X92880677Y-77716800D01*
X93123163Y-77716800D01*
X93360989Y-77669493D01*
X93388087Y-77658269D01*
X93670921Y-77941103D01*
X93670921Y-77952301D01*
X93585017Y-77894902D01*
X93360989Y-77802107D01*
X93123163Y-77754800D01*
X92880677Y-77754800D01*
X92642851Y-77802107D01*
X92418823Y-77894902D01*
X92217203Y-78029620D01*
X92045740Y-78201083D01*
X91911022Y-78402703D01*
X91818227Y-78626731D01*
X91770920Y-78864557D01*
X91770920Y-79107043D01*
X91818227Y-79344869D01*
X91911022Y-79568897D01*
X92045740Y-79770517D01*
X92217203Y-79941980D01*
X92418823Y-80076698D01*
X92642851Y-80169493D01*
X92880677Y-80216800D01*
X93123163Y-80216800D01*
X93360989Y-80169493D01*
X93585017Y-80076698D01*
X93670921Y-80019299D01*
X93670922Y-80452302D01*
X93585017Y-80394902D01*
X93360989Y-80302107D01*
X93123163Y-80254800D01*
X92880677Y-80254800D01*
X92642851Y-80302107D01*
X92418823Y-80394902D01*
X92217203Y-80529620D01*
X92045740Y-80701083D01*
X91911022Y-80902703D01*
X91818227Y-81126731D01*
X91770920Y-81364557D01*
X91770920Y-81607043D01*
X91818227Y-81844869D01*
X91911022Y-82068897D01*
X92045740Y-82270517D01*
X92217203Y-82441980D01*
X92418823Y-82576698D01*
X92642851Y-82669493D01*
X92880677Y-82716800D01*
X93123163Y-82716800D01*
X93360989Y-82669493D01*
X93585017Y-82576698D01*
X93670922Y-82519298D01*
X93670922Y-82530496D01*
X93478085Y-82723334D01*
X93478080Y-82723338D01*
X93388087Y-82813331D01*
X93360989Y-82802107D01*
X93123163Y-82754800D01*
X92880677Y-82754800D01*
X92642851Y-82802107D01*
X92418823Y-82894902D01*
X92217203Y-83029620D01*
X92045740Y-83201083D01*
X91911022Y-83402703D01*
X91818227Y-83626731D01*
X91770920Y-83864557D01*
X91770920Y-84107043D01*
X91818227Y-84344869D01*
X91911022Y-84568897D01*
X92045740Y-84770517D01*
X92217203Y-84941980D01*
X92418823Y-85076698D01*
X92642851Y-85169493D01*
X92880677Y-85216800D01*
X93123163Y-85216800D01*
X93360989Y-85169493D01*
X93585017Y-85076698D01*
X93786637Y-84941980D01*
X93892817Y-84835800D01*
X94269077Y-84835800D01*
X94276433Y-84910489D01*
X94298219Y-84982308D01*
X94333598Y-85048496D01*
X94381209Y-85106511D01*
X94439224Y-85154122D01*
X94505412Y-85189501D01*
X94577231Y-85211287D01*
X94651920Y-85218643D01*
X95279670Y-85216800D01*
X95374920Y-85121550D01*
X95374920Y-84112800D01*
X95628920Y-84112800D01*
X95628920Y-85121550D01*
X95724170Y-85216800D01*
X96351920Y-85218643D01*
X96426609Y-85211287D01*
X96498428Y-85189501D01*
X96564616Y-85154122D01*
X96622631Y-85106511D01*
X96670242Y-85048496D01*
X96705621Y-84982308D01*
X96727407Y-84910489D01*
X96734763Y-84835800D01*
X96732920Y-84208050D01*
X96637670Y-84112800D01*
X95628920Y-84112800D01*
X95374920Y-84112800D01*
X94366170Y-84112800D01*
X94270920Y-84208050D01*
X94269077Y-84835800D01*
X93892817Y-84835800D01*
X93958100Y-84770517D01*
X94092818Y-84568897D01*
X94185613Y-84344869D01*
X94232920Y-84107043D01*
X94232920Y-83864557D01*
X94185613Y-83626731D01*
X94174389Y-83599633D01*
X94264382Y-83509640D01*
X94264386Y-83509635D01*
X94270158Y-83503864D01*
X94270920Y-83763550D01*
X94366170Y-83858800D01*
X95374920Y-83858800D01*
X95374920Y-82850050D01*
X95628920Y-82850050D01*
X95628920Y-83858800D01*
X96637670Y-83858800D01*
X96732920Y-83763550D01*
X96734763Y-83135800D01*
X96727407Y-83061111D01*
X96705621Y-82989292D01*
X96670242Y-82923104D01*
X96622631Y-82865089D01*
X96564616Y-82817478D01*
X96498428Y-82782099D01*
X96426609Y-82760313D01*
X96351920Y-82752957D01*
X95724170Y-82754800D01*
X95628920Y-82850050D01*
X95374920Y-82850050D01*
X95279670Y-82754800D01*
X94784876Y-82753347D01*
X94782921Y-82733495D01*
X94782921Y-82485891D01*
X94918823Y-82576698D01*
X95142851Y-82669493D01*
X95380677Y-82716800D01*
X95623163Y-82716800D01*
X95860989Y-82669493D01*
X96085017Y-82576698D01*
X96286637Y-82441980D01*
X96458100Y-82270517D01*
X96592818Y-82068897D01*
X96685613Y-81844869D01*
X96732920Y-81607043D01*
X96732920Y-81364557D01*
X96712367Y-81261229D01*
X96740375Y-81266800D01*
X96943465Y-81266800D01*
X97142652Y-81227180D01*
X97330282Y-81149461D01*
X97499144Y-81036630D01*
X97642750Y-80893024D01*
X97755581Y-80724162D01*
X97833300Y-80536532D01*
X97872920Y-80337345D01*
X97872920Y-80134255D01*
X97833300Y-79935068D01*
X97755581Y-79747438D01*
X97642750Y-79578576D01*
X97499144Y-79434970D01*
X97330282Y-79322139D01*
X97142652Y-79244420D01*
X96943465Y-79204800D01*
X96740375Y-79204800D01*
X96712367Y-79210371D01*
X96732920Y-79107043D01*
X96732920Y-78864557D01*
X96685613Y-78626731D01*
X96653678Y-78549633D01*
X97959965Y-77243347D01*
X107873000Y-77243347D01*
X107873000Y-94369000D01*
X90631000Y-94369000D01*
X90631000Y-74064396D01*
X91767464Y-74064396D01*
X91806518Y-74303717D01*
X91891509Y-74530820D01*
X91931842Y-74606277D01*
X92109820Y-74698295D01*
X92822315Y-73985800D01*
X92109820Y-73273305D01*
X91931842Y-73365323D01*
X91831354Y-73586007D01*
X91775851Y-73822055D01*
X91767464Y-74064396D01*
X90631000Y-74064396D01*
X90631000Y-73093700D01*
X92289425Y-73093700D01*
X93001920Y-73806195D01*
X93714415Y-73093700D01*
X93622397Y-72915722D01*
X93401713Y-72815234D01*
X93165665Y-72759731D01*
X92923324Y-72751344D01*
X92684003Y-72790398D01*
X92456900Y-72875389D01*
X92381443Y-72915722D01*
X92289425Y-73093700D01*
X90631000Y-73093700D01*
X90631000Y-70631000D01*
X107873000Y-70631000D01*
X107873000Y-76231347D01*
G36*
X147369001Y-94369000D02*
G01*
X108377000Y-94369000D01*
X108377000Y-85423078D01*
X112969000Y-85423078D01*
X112969000Y-85576922D01*
X112999013Y-85727809D01*
X113057887Y-85869942D01*
X113143358Y-85997859D01*
X113252141Y-86106642D01*
X113380058Y-86192113D01*
X113522191Y-86250987D01*
X113673078Y-86281000D01*
X113815409Y-86281000D01*
X121599629Y-94065221D01*
X121615474Y-94084528D01*
X121692522Y-94147760D01*
X121780426Y-94194746D01*
X121875808Y-94223679D01*
X121950147Y-94231001D01*
X121950155Y-94231001D01*
X121975001Y-94233448D01*
X121999847Y-94231001D01*
X139483113Y-94231001D01*
X139507959Y-94233448D01*
X139532805Y-94231001D01*
X139532813Y-94231001D01*
X139607152Y-94223679D01*
X139702534Y-94194746D01*
X139790438Y-94147760D01*
X139867486Y-94084528D01*
X139883335Y-94065216D01*
X141493131Y-92455421D01*
X141689762Y-92515068D01*
X141870608Y-92532880D01*
X141991552Y-92532880D01*
X142172398Y-92515068D01*
X142404443Y-92444678D01*
X142618296Y-92330371D01*
X142805740Y-92176540D01*
X142959571Y-91989096D01*
X143073878Y-91775243D01*
X143144268Y-91543198D01*
X143168036Y-91301880D01*
X143144268Y-91060562D01*
X143073878Y-90828517D01*
X142959571Y-90614664D01*
X142805740Y-90427220D01*
X142618296Y-90273389D01*
X142404443Y-90159082D01*
X142172398Y-90088692D01*
X141991552Y-90070880D01*
X141870608Y-90070880D01*
X141689762Y-90088692D01*
X141457717Y-90159082D01*
X141243864Y-90273389D01*
X141056420Y-90427220D01*
X140902589Y-90614664D01*
X140788282Y-90828517D01*
X140717892Y-91060562D01*
X140694124Y-91301880D01*
X140717892Y-91543198D01*
X140777539Y-91739829D01*
X139298368Y-93219001D01*
X136381000Y-93219001D01*
X136381000Y-88761880D01*
X140694124Y-88761880D01*
X140717892Y-89003198D01*
X140788282Y-89235243D01*
X140902589Y-89449096D01*
X141056420Y-89636540D01*
X141243864Y-89790371D01*
X141457717Y-89904678D01*
X141689762Y-89975068D01*
X141870608Y-89992880D01*
X141991552Y-89992880D01*
X142172398Y-89975068D01*
X142404443Y-89904678D01*
X142618296Y-89790371D01*
X142805740Y-89636540D01*
X142959571Y-89449096D01*
X143073878Y-89235243D01*
X143144268Y-89003198D01*
X143168036Y-88761880D01*
X143144268Y-88520562D01*
X143073878Y-88288517D01*
X142959571Y-88074664D01*
X142805740Y-87887220D01*
X142618296Y-87733389D01*
X142404443Y-87619082D01*
X142172398Y-87548692D01*
X141991552Y-87530880D01*
X141870608Y-87530880D01*
X141689762Y-87548692D01*
X141457717Y-87619082D01*
X141243864Y-87733389D01*
X141056420Y-87887220D01*
X140902589Y-88074664D01*
X140788282Y-88288517D01*
X140717892Y-88520562D01*
X140694124Y-88761880D01*
X136381000Y-88761880D01*
X136381000Y-86221880D01*
X140694124Y-86221880D01*
X140717892Y-86463198D01*
X140788282Y-86695243D01*
X140902589Y-86909096D01*
X141056420Y-87096540D01*
X141243864Y-87250371D01*
X141457717Y-87364678D01*
X141689762Y-87435068D01*
X141870608Y-87452880D01*
X141991552Y-87452880D01*
X142172398Y-87435068D01*
X142404443Y-87364678D01*
X142618296Y-87250371D01*
X142805740Y-87096540D01*
X142959571Y-86909096D01*
X143073878Y-86695243D01*
X143144268Y-86463198D01*
X143168036Y-86221880D01*
X143144268Y-85980562D01*
X143073878Y-85748517D01*
X142959571Y-85534664D01*
X142805740Y-85347220D01*
X142618296Y-85193389D01*
X142404443Y-85079082D01*
X142172398Y-85008692D01*
X141991552Y-84990880D01*
X141870608Y-84990880D01*
X141689762Y-85008692D01*
X141457717Y-85079082D01*
X141243864Y-85193389D01*
X141056420Y-85347220D01*
X140902589Y-85534664D01*
X140788282Y-85748517D01*
X140717892Y-85980562D01*
X140694124Y-86221880D01*
X136381000Y-86221880D01*
X136381000Y-85157816D01*
X137539956Y-83998860D01*
X140741591Y-83998860D01*
X140765946Y-84079168D01*
X140865841Y-84298841D01*
X141006672Y-84494804D01*
X141183028Y-84659527D01*
X141388131Y-84786679D01*
X141614099Y-84871375D01*
X141804080Y-84811067D01*
X141804080Y-83808880D01*
X142058080Y-83808880D01*
X142058080Y-84811067D01*
X142248061Y-84871375D01*
X142474029Y-84786679D01*
X142679132Y-84659527D01*
X142855488Y-84494804D01*
X142996319Y-84298841D01*
X143096214Y-84079168D01*
X143120569Y-83998860D01*
X143059707Y-83808880D01*
X142058080Y-83808880D01*
X141804080Y-83808880D01*
X140802453Y-83808880D01*
X140741591Y-83998860D01*
X137539956Y-83998860D01*
X138173916Y-83364900D01*
X140741591Y-83364900D01*
X140802453Y-83554880D01*
X141804080Y-83554880D01*
X141804080Y-82552693D01*
X142058080Y-82552693D01*
X142058080Y-83554880D01*
X143059707Y-83554880D01*
X143120569Y-83364900D01*
X143096214Y-83284592D01*
X142996319Y-83064919D01*
X142855488Y-82868956D01*
X142679132Y-82704233D01*
X142474029Y-82577081D01*
X142248061Y-82492385D01*
X142058080Y-82552693D01*
X141804080Y-82552693D01*
X141614099Y-82492385D01*
X141388131Y-82577081D01*
X141183028Y-82704233D01*
X141006672Y-82868956D01*
X140865841Y-83064919D01*
X140765946Y-83284592D01*
X140741591Y-83364900D01*
X138173916Y-83364900D01*
X140698237Y-80840579D01*
X140698237Y-81991880D01*
X140705593Y-82066569D01*
X140727379Y-82138388D01*
X140762758Y-82204576D01*
X140810369Y-82262591D01*
X140868384Y-82310202D01*
X140934572Y-82345581D01*
X141006391Y-82367367D01*
X141081080Y-82374723D01*
X142781080Y-82374723D01*
X142855769Y-82367367D01*
X142927588Y-82345581D01*
X142993776Y-82310202D01*
X143051791Y-82262591D01*
X143099402Y-82204576D01*
X143134781Y-82138388D01*
X143156567Y-82066569D01*
X143163923Y-81991880D01*
X143163923Y-80291880D01*
X143156567Y-80217191D01*
X143134781Y-80145372D01*
X143099402Y-80079184D01*
X143051791Y-80021169D01*
X142993776Y-79973558D01*
X142927588Y-79938179D01*
X142855769Y-79916393D01*
X142781080Y-79909037D01*
X141629779Y-79909037D01*
X142907816Y-78631000D01*
X144750000Y-78631000D01*
X144824329Y-78623679D01*
X144895802Y-78601998D01*
X144961672Y-78566790D01*
X145019408Y-78519408D01*
X145066790Y-78461672D01*
X145101998Y-78395802D01*
X145123679Y-78324329D01*
X145131000Y-78250000D01*
X145131000Y-75000000D01*
X145123679Y-74925671D01*
X145101998Y-74854198D01*
X145066790Y-74788328D01*
X145019408Y-74730592D01*
X144961672Y-74683210D01*
X144895802Y-74648002D01*
X144824329Y-74626321D01*
X144750000Y-74619000D01*
X143232843Y-74619000D01*
X143232843Y-73150000D01*
X143225487Y-73075311D01*
X143203701Y-73003492D01*
X143168322Y-72937304D01*
X143120711Y-72879289D01*
X143062696Y-72831678D01*
X142996508Y-72796299D01*
X142924689Y-72774513D01*
X142850000Y-72767157D01*
X141150000Y-72767157D01*
X141075311Y-72774513D01*
X141003492Y-72796299D01*
X140937304Y-72831678D01*
X140879289Y-72879289D01*
X140831678Y-72937304D01*
X140796299Y-73003492D01*
X140774513Y-73075311D01*
X140767157Y-73150000D01*
X140767157Y-74619000D01*
X139500000Y-74619000D01*
X139425671Y-74626321D01*
X139354198Y-74648002D01*
X139288328Y-74683210D01*
X139230592Y-74730592D01*
X132232843Y-81728341D01*
X132232843Y-80150000D01*
X132225487Y-80075311D01*
X132203701Y-80003492D01*
X132168322Y-79937304D01*
X132120711Y-79879289D01*
X132062696Y-79831678D01*
X131996508Y-79796299D01*
X131924689Y-79774513D01*
X131850000Y-79767157D01*
X130150000Y-79767157D01*
X130075311Y-79774513D01*
X130003492Y-79796299D01*
X129937304Y-79831678D01*
X129879289Y-79879289D01*
X129831678Y-79937304D01*
X129796299Y-80003492D01*
X129774513Y-80075311D01*
X129767157Y-80150000D01*
X129767157Y-81850000D01*
X129774513Y-81924689D01*
X129796299Y-81996508D01*
X129831678Y-82062696D01*
X129879289Y-82120711D01*
X129937304Y-82168322D01*
X130003492Y-82203701D01*
X130075311Y-82225487D01*
X130150000Y-82232843D01*
X131728341Y-82232843D01*
X127230592Y-86730592D01*
X127183210Y-86788328D01*
X127148002Y-86854198D01*
X127126321Y-86925671D01*
X127119000Y-87000000D01*
X127119000Y-93219001D01*
X122184593Y-93219001D01*
X114531000Y-85565409D01*
X114531000Y-85423078D01*
X114500987Y-85272191D01*
X114442113Y-85130058D01*
X114356642Y-85002141D01*
X114247859Y-84893358D01*
X114119942Y-84807887D01*
X113977809Y-84749013D01*
X113826922Y-84719000D01*
X113673078Y-84719000D01*
X113522191Y-84749013D01*
X113380058Y-84807887D01*
X113252141Y-84893358D01*
X113143358Y-85002141D01*
X113057887Y-85130058D01*
X112999013Y-85272191D01*
X112969000Y-85423078D01*
X108377000Y-85423078D01*
X108377000Y-77243347D01*
X128138846Y-77243347D01*
X128239488Y-77343989D01*
X128367405Y-77429460D01*
X128509538Y-77488334D01*
X128660425Y-77518347D01*
X128814269Y-77518347D01*
X128965156Y-77488334D01*
X129107289Y-77429460D01*
X129235206Y-77343989D01*
X129343989Y-77235206D01*
X129429460Y-77107289D01*
X129488334Y-76965156D01*
X129518347Y-76814269D01*
X129518347Y-76660425D01*
X129488334Y-76509538D01*
X129429460Y-76367405D01*
X129343989Y-76239488D01*
X129235206Y-76130705D01*
X129107289Y-76045234D01*
X128965156Y-75986360D01*
X128814269Y-75956347D01*
X128660425Y-75956347D01*
X128509538Y-75986360D01*
X128367405Y-76045234D01*
X128239488Y-76130705D01*
X128138846Y-76231347D01*
X108377000Y-76231347D01*
X108377000Y-70631000D01*
X147369000Y-70631000D01*
X147369001Y-94369000D01*
X147369001Y-94369000D01*
G37*
X147369001Y-94369000D02*
X108377000Y-94369000D01*
X108377000Y-85423078D01*
X112969000Y-85423078D01*
X112969000Y-85576922D01*
X112999013Y-85727809D01*
X113057887Y-85869942D01*
X113143358Y-85997859D01*
X113252141Y-86106642D01*
X113380058Y-86192113D01*
X113522191Y-86250987D01*
X113673078Y-86281000D01*
X113815409Y-86281000D01*
X121599629Y-94065221D01*
X121615474Y-94084528D01*
X121692522Y-94147760D01*
X121780426Y-94194746D01*
X121875808Y-94223679D01*
X121950147Y-94231001D01*
X121950155Y-94231001D01*
X121975001Y-94233448D01*
X121999847Y-94231001D01*
X139483113Y-94231001D01*
X139507959Y-94233448D01*
X139532805Y-94231001D01*
X139532813Y-94231001D01*
X139607152Y-94223679D01*
X139702534Y-94194746D01*
X139790438Y-94147760D01*
X139867486Y-94084528D01*
X139883335Y-94065216D01*
X141493131Y-92455421D01*
X141689762Y-92515068D01*
X141870608Y-92532880D01*
X141991552Y-92532880D01*
X142172398Y-92515068D01*
X142404443Y-92444678D01*
X142618296Y-92330371D01*
X142805740Y-92176540D01*
X142959571Y-91989096D01*
X143073878Y-91775243D01*
X143144268Y-91543198D01*
X143168036Y-91301880D01*
X143144268Y-91060562D01*
X143073878Y-90828517D01*
X142959571Y-90614664D01*
X142805740Y-90427220D01*
X142618296Y-90273389D01*
X142404443Y-90159082D01*
X142172398Y-90088692D01*
X141991552Y-90070880D01*
X141870608Y-90070880D01*
X141689762Y-90088692D01*
X141457717Y-90159082D01*
X141243864Y-90273389D01*
X141056420Y-90427220D01*
X140902589Y-90614664D01*
X140788282Y-90828517D01*
X140717892Y-91060562D01*
X140694124Y-91301880D01*
X140717892Y-91543198D01*
X140777539Y-91739829D01*
X139298368Y-93219001D01*
X136381000Y-93219001D01*
X136381000Y-88761880D01*
X140694124Y-88761880D01*
X140717892Y-89003198D01*
X140788282Y-89235243D01*
X140902589Y-89449096D01*
X141056420Y-89636540D01*
X141243864Y-89790371D01*
X141457717Y-89904678D01*
X141689762Y-89975068D01*
X141870608Y-89992880D01*
X141991552Y-89992880D01*
X142172398Y-89975068D01*
X142404443Y-89904678D01*
X142618296Y-89790371D01*
X142805740Y-89636540D01*
X142959571Y-89449096D01*
X143073878Y-89235243D01*
X143144268Y-89003198D01*
X143168036Y-88761880D01*
X143144268Y-88520562D01*
X143073878Y-88288517D01*
X142959571Y-88074664D01*
X142805740Y-87887220D01*
X142618296Y-87733389D01*
X142404443Y-87619082D01*
X142172398Y-87548692D01*
X141991552Y-87530880D01*
X141870608Y-87530880D01*
X141689762Y-87548692D01*
X141457717Y-87619082D01*
X141243864Y-87733389D01*
X141056420Y-87887220D01*
X140902589Y-88074664D01*
X140788282Y-88288517D01*
X140717892Y-88520562D01*
X140694124Y-88761880D01*
X136381000Y-88761880D01*
X136381000Y-86221880D01*
X140694124Y-86221880D01*
X140717892Y-86463198D01*
X140788282Y-86695243D01*
X140902589Y-86909096D01*
X141056420Y-87096540D01*
X141243864Y-87250371D01*
X141457717Y-87364678D01*
X141689762Y-87435068D01*
X141870608Y-87452880D01*
X141991552Y-87452880D01*
X142172398Y-87435068D01*
X142404443Y-87364678D01*
X142618296Y-87250371D01*
X142805740Y-87096540D01*
X142959571Y-86909096D01*
X143073878Y-86695243D01*
X143144268Y-86463198D01*
X143168036Y-86221880D01*
X143144268Y-85980562D01*
X143073878Y-85748517D01*
X142959571Y-85534664D01*
X142805740Y-85347220D01*
X142618296Y-85193389D01*
X142404443Y-85079082D01*
X142172398Y-85008692D01*
X141991552Y-84990880D01*
X141870608Y-84990880D01*
X141689762Y-85008692D01*
X141457717Y-85079082D01*
X141243864Y-85193389D01*
X141056420Y-85347220D01*
X140902589Y-85534664D01*
X140788282Y-85748517D01*
X140717892Y-85980562D01*
X140694124Y-86221880D01*
X136381000Y-86221880D01*
X136381000Y-85157816D01*
X137539956Y-83998860D01*
X140741591Y-83998860D01*
X140765946Y-84079168D01*
X140865841Y-84298841D01*
X141006672Y-84494804D01*
X141183028Y-84659527D01*
X141388131Y-84786679D01*
X141614099Y-84871375D01*
X141804080Y-84811067D01*
X141804080Y-83808880D01*
X142058080Y-83808880D01*
X142058080Y-84811067D01*
X142248061Y-84871375D01*
X142474029Y-84786679D01*
X142679132Y-84659527D01*
X142855488Y-84494804D01*
X142996319Y-84298841D01*
X143096214Y-84079168D01*
X143120569Y-83998860D01*
X143059707Y-83808880D01*
X142058080Y-83808880D01*
X141804080Y-83808880D01*
X140802453Y-83808880D01*
X140741591Y-83998860D01*
X137539956Y-83998860D01*
X138173916Y-83364900D01*
X140741591Y-83364900D01*
X140802453Y-83554880D01*
X141804080Y-83554880D01*
X141804080Y-82552693D01*
X142058080Y-82552693D01*
X142058080Y-83554880D01*
X143059707Y-83554880D01*
X143120569Y-83364900D01*
X143096214Y-83284592D01*
X142996319Y-83064919D01*
X142855488Y-82868956D01*
X142679132Y-82704233D01*
X142474029Y-82577081D01*
X142248061Y-82492385D01*
X142058080Y-82552693D01*
X141804080Y-82552693D01*
X141614099Y-82492385D01*
X141388131Y-82577081D01*
X141183028Y-82704233D01*
X141006672Y-82868956D01*
X140865841Y-83064919D01*
X140765946Y-83284592D01*
X140741591Y-83364900D01*
X138173916Y-83364900D01*
X140698237Y-80840579D01*
X140698237Y-81991880D01*
X140705593Y-82066569D01*
X140727379Y-82138388D01*
X140762758Y-82204576D01*
X140810369Y-82262591D01*
X140868384Y-82310202D01*
X140934572Y-82345581D01*
X141006391Y-82367367D01*
X141081080Y-82374723D01*
X142781080Y-82374723D01*
X142855769Y-82367367D01*
X142927588Y-82345581D01*
X142993776Y-82310202D01*
X143051791Y-82262591D01*
X143099402Y-82204576D01*
X143134781Y-82138388D01*
X143156567Y-82066569D01*
X143163923Y-81991880D01*
X143163923Y-80291880D01*
X143156567Y-80217191D01*
X143134781Y-80145372D01*
X143099402Y-80079184D01*
X143051791Y-80021169D01*
X142993776Y-79973558D01*
X142927588Y-79938179D01*
X142855769Y-79916393D01*
X142781080Y-79909037D01*
X141629779Y-79909037D01*
X142907816Y-78631000D01*
X144750000Y-78631000D01*
X144824329Y-78623679D01*
X144895802Y-78601998D01*
X144961672Y-78566790D01*
X145019408Y-78519408D01*
X145066790Y-78461672D01*
X145101998Y-78395802D01*
X145123679Y-78324329D01*
X145131000Y-78250000D01*
X145131000Y-75000000D01*
X145123679Y-74925671D01*
X145101998Y-74854198D01*
X145066790Y-74788328D01*
X145019408Y-74730592D01*
X144961672Y-74683210D01*
X144895802Y-74648002D01*
X144824329Y-74626321D01*
X144750000Y-74619000D01*
X143232843Y-74619000D01*
X143232843Y-73150000D01*
X143225487Y-73075311D01*
X143203701Y-73003492D01*
X143168322Y-72937304D01*
X143120711Y-72879289D01*
X143062696Y-72831678D01*
X142996508Y-72796299D01*
X142924689Y-72774513D01*
X142850000Y-72767157D01*
X141150000Y-72767157D01*
X141075311Y-72774513D01*
X141003492Y-72796299D01*
X140937304Y-72831678D01*
X140879289Y-72879289D01*
X140831678Y-72937304D01*
X140796299Y-73003492D01*
X140774513Y-73075311D01*
X140767157Y-73150000D01*
X140767157Y-74619000D01*
X139500000Y-74619000D01*
X139425671Y-74626321D01*
X139354198Y-74648002D01*
X139288328Y-74683210D01*
X139230592Y-74730592D01*
X132232843Y-81728341D01*
X132232843Y-80150000D01*
X132225487Y-80075311D01*
X132203701Y-80003492D01*
X132168322Y-79937304D01*
X132120711Y-79879289D01*
X132062696Y-79831678D01*
X131996508Y-79796299D01*
X131924689Y-79774513D01*
X131850000Y-79767157D01*
X130150000Y-79767157D01*
X130075311Y-79774513D01*
X130003492Y-79796299D01*
X129937304Y-79831678D01*
X129879289Y-79879289D01*
X129831678Y-79937304D01*
X129796299Y-80003492D01*
X129774513Y-80075311D01*
X129767157Y-80150000D01*
X129767157Y-81850000D01*
X129774513Y-81924689D01*
X129796299Y-81996508D01*
X129831678Y-82062696D01*
X129879289Y-82120711D01*
X129937304Y-82168322D01*
X130003492Y-82203701D01*
X130075311Y-82225487D01*
X130150000Y-82232843D01*
X131728341Y-82232843D01*
X127230592Y-86730592D01*
X127183210Y-86788328D01*
X127148002Y-86854198D01*
X127126321Y-86925671D01*
X127119000Y-87000000D01*
X127119000Y-93219001D01*
X122184593Y-93219001D01*
X114531000Y-85565409D01*
X114531000Y-85423078D01*
X114500987Y-85272191D01*
X114442113Y-85130058D01*
X114356642Y-85002141D01*
X114247859Y-84893358D01*
X114119942Y-84807887D01*
X113977809Y-84749013D01*
X113826922Y-84719000D01*
X113673078Y-84719000D01*
X113522191Y-84749013D01*
X113380058Y-84807887D01*
X113252141Y-84893358D01*
X113143358Y-85002141D01*
X113057887Y-85130058D01*
X112999013Y-85272191D01*
X112969000Y-85423078D01*
X108377000Y-85423078D01*
X108377000Y-77243347D01*
X128138846Y-77243347D01*
X128239488Y-77343989D01*
X128367405Y-77429460D01*
X128509538Y-77488334D01*
X128660425Y-77518347D01*
X128814269Y-77518347D01*
X128965156Y-77488334D01*
X129107289Y-77429460D01*
X129235206Y-77343989D01*
X129343989Y-77235206D01*
X129429460Y-77107289D01*
X129488334Y-76965156D01*
X129518347Y-76814269D01*
X129518347Y-76660425D01*
X129488334Y-76509538D01*
X129429460Y-76367405D01*
X129343989Y-76239488D01*
X129235206Y-76130705D01*
X129107289Y-76045234D01*
X128965156Y-75986360D01*
X128814269Y-75956347D01*
X128660425Y-75956347D01*
X128509538Y-75986360D01*
X128367405Y-76045234D01*
X128239488Y-76130705D01*
X128138846Y-76231347D01*
X108377000Y-76231347D01*
X108377000Y-70631000D01*
X147369000Y-70631000D01*
X147369001Y-94369000D01*
G36*
X140937304Y-75168322D02*
G01*
X141003492Y-75203701D01*
X141075311Y-75225487D01*
X141150000Y-75232843D01*
X142850000Y-75232843D01*
X142924689Y-75225487D01*
X142996508Y-75203701D01*
X143062696Y-75168322D01*
X143113048Y-75127000D01*
X144623000Y-75127000D01*
X144623000Y-78123000D01*
X142750000Y-78123000D01*
X142725224Y-78125440D01*
X142701399Y-78132667D01*
X142679443Y-78144403D01*
X142660197Y-78160197D01*
X135910197Y-84910197D01*
X135894403Y-84929443D01*
X135882667Y-84951399D01*
X135875440Y-84975224D01*
X135873000Y-85000000D01*
X135873000Y-93219001D01*
X127627000Y-93219001D01*
X127627000Y-87052606D01*
X137822626Y-76856980D01*
X140810511Y-76856980D01*
X140834866Y-76937288D01*
X140934761Y-77156961D01*
X141075592Y-77352924D01*
X141251948Y-77517647D01*
X141457051Y-77644799D01*
X141683019Y-77729495D01*
X141873000Y-77669187D01*
X141873000Y-76667000D01*
X142127000Y-76667000D01*
X142127000Y-77669187D01*
X142316981Y-77729495D01*
X142542949Y-77644799D01*
X142748052Y-77517647D01*
X142924408Y-77352924D01*
X143065239Y-77156961D01*
X143165134Y-76937288D01*
X143189489Y-76856980D01*
X143128627Y-76667000D01*
X142127000Y-76667000D01*
X141873000Y-76667000D01*
X140871373Y-76667000D01*
X140810511Y-76856980D01*
X137822626Y-76856980D01*
X138456586Y-76223020D01*
X140810511Y-76223020D01*
X140871373Y-76413000D01*
X141873000Y-76413000D01*
X141873000Y-75410813D01*
X142127000Y-75410813D01*
X142127000Y-76413000D01*
X143128627Y-76413000D01*
X143189489Y-76223020D01*
X143165134Y-76142712D01*
X143065239Y-75923039D01*
X142924408Y-75727076D01*
X142748052Y-75562353D01*
X142542949Y-75435201D01*
X142316981Y-75350505D01*
X142127000Y-75410813D01*
X141873000Y-75410813D01*
X141683019Y-75350505D01*
X141457051Y-75435201D01*
X141251948Y-75562353D01*
X141075592Y-75727076D01*
X140934761Y-75923039D01*
X140834866Y-76142712D01*
X140810511Y-76223020D01*
X138456586Y-76223020D01*
X139552606Y-75127000D01*
X140886952Y-75127000D01*
X140937304Y-75168322D01*
X140937304Y-75168322D01*
G37*
X140937304Y-75168322D02*
X141003492Y-75203701D01*
X141075311Y-75225487D01*
X141150000Y-75232843D01*
X142850000Y-75232843D01*
X142924689Y-75225487D01*
X142996508Y-75203701D01*
X143062696Y-75168322D01*
X143113048Y-75127000D01*
X144623000Y-75127000D01*
X144623000Y-78123000D01*
X142750000Y-78123000D01*
X142725224Y-78125440D01*
X142701399Y-78132667D01*
X142679443Y-78144403D01*
X142660197Y-78160197D01*
X135910197Y-84910197D01*
X135894403Y-84929443D01*
X135882667Y-84951399D01*
X135875440Y-84975224D01*
X135873000Y-85000000D01*
X135873000Y-93219001D01*
X127627000Y-93219001D01*
X127627000Y-87052606D01*
X137822626Y-76856980D01*
X140810511Y-76856980D01*
X140834866Y-76937288D01*
X140934761Y-77156961D01*
X141075592Y-77352924D01*
X141251948Y-77517647D01*
X141457051Y-77644799D01*
X141683019Y-77729495D01*
X141873000Y-77669187D01*
X141873000Y-76667000D01*
X142127000Y-76667000D01*
X142127000Y-77669187D01*
X142316981Y-77729495D01*
X142542949Y-77644799D01*
X142748052Y-77517647D01*
X142924408Y-77352924D01*
X143065239Y-77156961D01*
X143165134Y-76937288D01*
X143189489Y-76856980D01*
X143128627Y-76667000D01*
X142127000Y-76667000D01*
X141873000Y-76667000D01*
X140871373Y-76667000D01*
X140810511Y-76856980D01*
X137822626Y-76856980D01*
X138456586Y-76223020D01*
X140810511Y-76223020D01*
X140871373Y-76413000D01*
X141873000Y-76413000D01*
X141873000Y-75410813D01*
X142127000Y-75410813D01*
X142127000Y-76413000D01*
X143128627Y-76413000D01*
X143189489Y-76223020D01*
X143165134Y-76142712D01*
X143065239Y-75923039D01*
X142924408Y-75727076D01*
X142748052Y-75562353D01*
X142542949Y-75435201D01*
X142316981Y-75350505D01*
X142127000Y-75410813D01*
X141873000Y-75410813D01*
X141683019Y-75350505D01*
X141457051Y-75435201D01*
X141251948Y-75562353D01*
X141075592Y-75727076D01*
X140934761Y-75923039D01*
X140834866Y-76142712D01*
X140810511Y-76223020D01*
X138456586Y-76223020D01*
X139552606Y-75127000D01*
X140886952Y-75127000D01*
X140937304Y-75168322D01*
M02*
