G04 #@! TF.FileFunction,Soldermask,Top*
%FSLAX46Y46*%
G04 Gerber Fmt 4.6, Leading zero omitted, Abs format (unit mm)*
G04 Created by KiCad (PCBNEW 4.0.5) date 02/24/17 11:29:51*
%MOMM*%
%LPD*%
G01*
G04 APERTURE LIST*
%ADD10C,0.100000*%
%ADD11R,0.950100X0.650380*%
%ADD12C,1.924000*%
%ADD13R,3.200000X3.200000*%
%ADD14C,3.200000*%
%ADD15R,1.300000X0.900000*%
%ADD16R,1.898600X0.679400*%
%ADD17R,0.679400X1.898600*%
%ADD18R,0.900000X1.300000*%
%ADD19R,0.900000X1.400000*%
%ADD20R,1.250000X0.680000*%
%ADD21R,0.680000X1.250000*%
%ADD22R,2.450000X2.450000*%
%ADD23R,1.600000X1.800000*%
%ADD24R,1.000000X0.800000*%
%ADD25R,1.000000X0.900000*%
%ADD26R,1.900000X1.900000*%
%ADD27C,1.900000*%
%ADD28R,2.300000X2.300000*%
%ADD29C,2.300000*%
%ADD30R,1.200000X1.150000*%
%ADD31R,1.150000X1.200000*%
%ADD32R,1.200000X1.200000*%
%ADD33R,1.000000X0.950000*%
%ADD34R,1.900000X3.600000*%
%ADD35C,6.800000*%
%ADD36R,1.900000X1.400000*%
%ADD37R,1.900000X3.700000*%
%ADD38R,0.948640X1.598880*%
%ADD39R,0.820000X1.000000*%
%ADD40R,1.000000X1.200000*%
%ADD41R,1.600000X1.300000*%
%ADD42R,1.398220X1.499820*%
%ADD43R,0.600000X1.840000*%
%ADD44R,1.400000X0.900000*%
%ADD45C,1.400000*%
%ADD46R,2.600000X1.450000*%
%ADD47R,1.450000X1.400000*%
%ADD48R,1.250000X1.300000*%
%ADD49R,0.850000X0.900000*%
%ADD50C,3.400000*%
%ADD51R,2.950000X2.900000*%
%ADD52R,0.800000X1.000000*%
%ADD53R,0.900000X1.000000*%
%ADD54C,4.050000*%
%ADD55C,2.400000*%
%ADD56R,1.750000X1.750000*%
G04 APERTURE END LIST*
D10*
D11*
X189749240Y-104949760D03*
X191750760Y-105600000D03*
X189749240Y-106250240D03*
X189749240Y-105600000D03*
X191750760Y-106250240D03*
X191750760Y-104949760D03*
D10*
G36*
X151771961Y-86374010D02*
X149927192Y-85827565D01*
X150473637Y-83982796D01*
X152318406Y-84529241D01*
X151771961Y-86374010D01*
X151771961Y-86374010D01*
G37*
D12*
X151844198Y-82743001D03*
X153558201Y-85899802D03*
X154279600Y-83464400D03*
X155993603Y-86621201D03*
X156715002Y-84185799D03*
X158429005Y-87342600D03*
X159150404Y-84907198D03*
D10*
G36*
X142311164Y-79225734D02*
X141890176Y-77890530D01*
X144608270Y-77033518D01*
X145029258Y-78368722D01*
X142311164Y-79225734D01*
X142311164Y-79225734D01*
G37*
G36*
X133233879Y-85254349D02*
X132376867Y-82536255D01*
X133712071Y-82115267D01*
X134569083Y-84833361D01*
X133233879Y-85254349D01*
X133233879Y-85254349D01*
G37*
G36*
X127356951Y-73665194D02*
X126935963Y-72329990D01*
X129654057Y-71472978D01*
X130075045Y-72808182D01*
X127356951Y-73665194D01*
X127356951Y-73665194D01*
G37*
G36*
X127777939Y-75000398D02*
X127356951Y-73665194D01*
X130075045Y-72808182D01*
X130496033Y-74143386D01*
X127777939Y-75000398D01*
X127777939Y-75000398D01*
G37*
G36*
X128198927Y-76335601D02*
X127777939Y-75000397D01*
X130496033Y-74143385D01*
X130917021Y-75478589D01*
X128198927Y-76335601D01*
X128198927Y-76335601D01*
G37*
G36*
X128619915Y-77670805D02*
X128198927Y-76335601D01*
X130917021Y-75478589D01*
X131338009Y-76813793D01*
X128619915Y-77670805D01*
X128619915Y-77670805D01*
G37*
G36*
X129040903Y-79006009D02*
X128619915Y-77670805D01*
X131338009Y-76813793D01*
X131758997Y-78148997D01*
X129040903Y-79006009D01*
X129040903Y-79006009D01*
G37*
G36*
X129461891Y-80341212D02*
X129040903Y-79006008D01*
X131758997Y-78148996D01*
X132179985Y-79484200D01*
X129461891Y-80341212D01*
X129461891Y-80341212D01*
G37*
G36*
X129882879Y-81676416D02*
X129461891Y-80341212D01*
X132179985Y-79484200D01*
X132600973Y-80819404D01*
X129882879Y-81676416D01*
X129882879Y-81676416D01*
G37*
G36*
X130303867Y-83011620D02*
X129882879Y-81676416D01*
X132600973Y-80819404D01*
X133021961Y-82154608D01*
X130303867Y-83011620D01*
X130303867Y-83011620D01*
G37*
G36*
X134569083Y-84833361D02*
X133712071Y-82115267D01*
X135047275Y-81694279D01*
X135904287Y-84412373D01*
X134569083Y-84833361D01*
X134569083Y-84833361D01*
G37*
G36*
X135904287Y-84412373D02*
X135047275Y-81694279D01*
X136382479Y-81273291D01*
X137239491Y-83991385D01*
X135904287Y-84412373D01*
X135904287Y-84412373D01*
G37*
G36*
X137239491Y-83991384D02*
X136382479Y-81273290D01*
X137717683Y-80852302D01*
X138574695Y-83570396D01*
X137239491Y-83991384D01*
X137239491Y-83991384D01*
G37*
G36*
X138574694Y-83570396D02*
X137717682Y-80852302D01*
X139052886Y-80431314D01*
X139909898Y-83149408D01*
X138574694Y-83570396D01*
X138574694Y-83570396D01*
G37*
G36*
X139909898Y-83149408D02*
X139052886Y-80431314D01*
X140388090Y-80010326D01*
X141245102Y-82728420D01*
X139909898Y-83149408D01*
X139909898Y-83149408D01*
G37*
G36*
X141245102Y-82728420D02*
X140388090Y-80010326D01*
X141723294Y-79589338D01*
X142580306Y-82307432D01*
X141245102Y-82728420D01*
X141245102Y-82728420D01*
G37*
G36*
X142580306Y-82307432D02*
X141723294Y-79589338D01*
X143058498Y-79168350D01*
X143915510Y-81886444D01*
X142580306Y-82307432D01*
X142580306Y-82307432D01*
G37*
G36*
X141890176Y-77890530D02*
X141469188Y-76555326D01*
X144187282Y-75698314D01*
X144608270Y-77033518D01*
X141890176Y-77890530D01*
X141890176Y-77890530D01*
G37*
G36*
X141469188Y-76555326D02*
X141048200Y-75220122D01*
X143766294Y-74363110D01*
X144187282Y-75698314D01*
X141469188Y-76555326D01*
X141469188Y-76555326D01*
G37*
G36*
X141048200Y-75220123D02*
X140627212Y-73884919D01*
X143345306Y-73027907D01*
X143766294Y-74363111D01*
X141048200Y-75220123D01*
X141048200Y-75220123D01*
G37*
G36*
X140627211Y-73884919D02*
X140206223Y-72549715D01*
X142924317Y-71692703D01*
X143345305Y-73027907D01*
X140627211Y-73884919D01*
X140627211Y-73884919D01*
G37*
G36*
X140206223Y-72549715D02*
X139785235Y-71214511D01*
X142503329Y-70357499D01*
X142924317Y-71692703D01*
X140206223Y-72549715D01*
X140206223Y-72549715D01*
G37*
G36*
X139785235Y-71214512D02*
X139364247Y-69879308D01*
X142082341Y-69022296D01*
X142503329Y-70357500D01*
X139785235Y-71214512D01*
X139785235Y-71214512D01*
G37*
G36*
X139364247Y-69879308D02*
X138943259Y-68544104D01*
X141661353Y-67687092D01*
X142082341Y-69022296D01*
X139364247Y-69879308D01*
X139364247Y-69879308D01*
G37*
G36*
X137549710Y-85741434D02*
X137158793Y-84501602D01*
X138017138Y-84230966D01*
X138408055Y-85470798D01*
X137549710Y-85741434D01*
X137549710Y-85741434D01*
G37*
G36*
X138980286Y-85290376D02*
X138589369Y-84050544D01*
X139447714Y-83779908D01*
X139838631Y-85019740D01*
X138980286Y-85290376D01*
X138980286Y-85290376D01*
G37*
D13*
X107340400Y-100110400D03*
D14*
X107340400Y-95910400D03*
D15*
X182925000Y-83700000D03*
X182925000Y-82200000D03*
D16*
X172702220Y-89433400D03*
X172702220Y-89933780D03*
X172702220Y-90434160D03*
X172702220Y-90934540D03*
X172702220Y-91434920D03*
X172702220Y-91932760D03*
X172702220Y-92433140D03*
X172702220Y-92933520D03*
X172702220Y-93431360D03*
X172702220Y-93931740D03*
X172702220Y-94432120D03*
X172702220Y-94929960D03*
X172702220Y-95430340D03*
X172702220Y-95930720D03*
X172702220Y-96431100D03*
X172702220Y-96931480D03*
D17*
X174752000Y-98981260D03*
X175252380Y-98981260D03*
X175752760Y-98981260D03*
X176253140Y-98981260D03*
X176753520Y-98981260D03*
X177251360Y-98981260D03*
X177751740Y-98981260D03*
X178252120Y-98981260D03*
X178749960Y-98981260D03*
X179250340Y-98981260D03*
X179750720Y-98981260D03*
X180248560Y-98981260D03*
X180748940Y-98981260D03*
X181249320Y-98981260D03*
X181749700Y-98981260D03*
X182250080Y-98981260D03*
D16*
X184299860Y-96931480D03*
X184299860Y-96431100D03*
X184299860Y-95930720D03*
X184299860Y-95430340D03*
X184299860Y-94929960D03*
X184299860Y-94432120D03*
X184299860Y-93931740D03*
X184299860Y-93431360D03*
X184299860Y-92933520D03*
X184299860Y-92433140D03*
X184299860Y-91932760D03*
X184299860Y-91434920D03*
X184299860Y-90934540D03*
X184299860Y-90434160D03*
X184299860Y-89933780D03*
X184299860Y-89433400D03*
D17*
X182250080Y-87383620D03*
X181749700Y-87383620D03*
X181249320Y-87383620D03*
X180748940Y-87383620D03*
X180248560Y-87383620D03*
X179750720Y-87383620D03*
X179250340Y-87383620D03*
X178749960Y-87383620D03*
X178252120Y-87383620D03*
X177751740Y-87383620D03*
X177251360Y-87383620D03*
X176753520Y-87383620D03*
X176253140Y-87383620D03*
X175752760Y-87383620D03*
X175252380Y-87383620D03*
X174752000Y-87383620D03*
D18*
X167775000Y-82850000D03*
X169275000Y-82850000D03*
D19*
X159475000Y-142600000D03*
X160125000Y-142600000D03*
X160775000Y-142600000D03*
X159475000Y-139400000D03*
X160775000Y-139400000D03*
D20*
X164099200Y-118709600D03*
D21*
X163374200Y-117734600D03*
X162874200Y-117734600D03*
X162374200Y-117734600D03*
X161874200Y-117734600D03*
X161374200Y-117734600D03*
D20*
X160649200Y-118709600D03*
X160649200Y-120209600D03*
X164099200Y-120209600D03*
D21*
X161374200Y-121184600D03*
X161874200Y-121184600D03*
X162374200Y-121184600D03*
X162874200Y-121184600D03*
X163374200Y-121184600D03*
D22*
X162374200Y-119459600D03*
D23*
X146275000Y-135700000D03*
X146275000Y-138100000D03*
X148175000Y-138100000D03*
X148175000Y-135700000D03*
D24*
X149925000Y-138100000D03*
X149925000Y-139000000D03*
D25*
X147800000Y-134150000D03*
X146700000Y-134150000D03*
D24*
X153592600Y-62190900D03*
X153592600Y-61290900D03*
D26*
X166900000Y-103500000D03*
D27*
X166900000Y-101500000D03*
D28*
X127675000Y-110457000D03*
D29*
X127675000Y-107957000D03*
X127675000Y-105457000D03*
X127675000Y-102957000D03*
X127675000Y-100457000D03*
X130175000Y-110457000D03*
X130175000Y-107957000D03*
X130175000Y-105457000D03*
X130175000Y-102957000D03*
X130175000Y-100457000D03*
D30*
X129895600Y-118465600D03*
X128395600Y-118465600D03*
X166142800Y-98552000D03*
X164642800Y-98552000D03*
D31*
X168921000Y-93233400D03*
X168921000Y-94733400D03*
D30*
X131368800Y-115163600D03*
X129868800Y-115163600D03*
D32*
X129926080Y-139308840D03*
X128326080Y-139308840D03*
D33*
X133407960Y-135021320D03*
X134807960Y-135021320D03*
D34*
X137495280Y-131201160D03*
X133295280Y-131201160D03*
D35*
X173001100Y-135003600D03*
X124001100Y-135003600D03*
X124001100Y-75003600D03*
X173001100Y-75003600D03*
D15*
X128320800Y-136531920D03*
X128320800Y-138031920D03*
X168097200Y-98145600D03*
X168097200Y-96645600D03*
D18*
X166166800Y-96926400D03*
X164666800Y-96926400D03*
D15*
X170550000Y-93225000D03*
X170550000Y-94725000D03*
X167295400Y-93221400D03*
X167295400Y-94721400D03*
D18*
X134819520Y-133751320D03*
X133319520Y-133751320D03*
D15*
X172100000Y-85325000D03*
X172100000Y-86825000D03*
X167675000Y-86050000D03*
X167675000Y-84550000D03*
X165049200Y-103491600D03*
X165049200Y-104991600D03*
D36*
X132975000Y-118150000D03*
X132975000Y-116650000D03*
X132975000Y-115150000D03*
X132975000Y-113650000D03*
D37*
X125175000Y-115900000D03*
D38*
X131429760Y-139273280D03*
X132379720Y-139273280D03*
X133329680Y-139273280D03*
X133329680Y-136677400D03*
X131429760Y-136677400D03*
D39*
X169425000Y-86075000D03*
X170725000Y-86075000D03*
X169425000Y-84175000D03*
X170075000Y-86075000D03*
X170725000Y-84175000D03*
D40*
X180492400Y-82135980D03*
X178792400Y-82135980D03*
D11*
X191714360Y-103621040D03*
X189712840Y-102970800D03*
X191714360Y-102320560D03*
X191714360Y-102970800D03*
X189712840Y-102320560D03*
X189712840Y-103621040D03*
D31*
X176006760Y-80343440D03*
X176006760Y-78843440D03*
X147625000Y-83750000D03*
X147625000Y-85250000D03*
D30*
X179825000Y-83667600D03*
X181325000Y-83667600D03*
D10*
G36*
X142684445Y-84063184D02*
X142323598Y-82918723D01*
X143468059Y-82557876D01*
X143828906Y-83702337D01*
X142684445Y-84063184D01*
X142684445Y-84063184D01*
G37*
G36*
X144210393Y-83582054D02*
X143849546Y-82437593D01*
X144994007Y-82076746D01*
X145354854Y-83221207D01*
X144210393Y-83582054D01*
X144210393Y-83582054D01*
G37*
G36*
X136916807Y-84655581D02*
X137277654Y-85800042D01*
X136133193Y-86160889D01*
X135772346Y-85016428D01*
X136916807Y-84655581D01*
X136916807Y-84655581D01*
G37*
G36*
X135390859Y-85136711D02*
X135751706Y-86281172D01*
X134607245Y-86642019D01*
X134246398Y-85497558D01*
X135390859Y-85136711D01*
X135390859Y-85136711D01*
G37*
D41*
X177754280Y-80355440D03*
X182354280Y-80355440D03*
X177754280Y-76855440D03*
D10*
G36*
X142041914Y-82963166D02*
X142432831Y-84202998D01*
X141574486Y-84473634D01*
X141183569Y-83233802D01*
X142041914Y-82963166D01*
X142041914Y-82963166D01*
G37*
G36*
X140611338Y-83414224D02*
X141002255Y-84654056D01*
X140143910Y-84924692D01*
X139752993Y-83684860D01*
X140611338Y-83414224D01*
X140611338Y-83414224D01*
G37*
D18*
X186334400Y-99415600D03*
X184834400Y-99415600D03*
X186322400Y-101142800D03*
X184822400Y-101142800D03*
D42*
X156748400Y-132310360D03*
X156748400Y-130613640D03*
X150075000Y-134328280D03*
X150075000Y-136025000D03*
D10*
G36*
X176962893Y-111701148D02*
X177728937Y-112343936D01*
X177214707Y-112956772D01*
X176448663Y-112313984D01*
X176962893Y-111701148D01*
X176962893Y-111701148D01*
G37*
G36*
X176384385Y-112390588D02*
X177150429Y-113033376D01*
X176636199Y-113646212D01*
X175870155Y-113003424D01*
X176384385Y-112390588D01*
X176384385Y-112390588D01*
G37*
D32*
X147739200Y-87477600D03*
X149339200Y-87477600D03*
D21*
X168515600Y-117604200D03*
D20*
X167540600Y-118329200D03*
X167540600Y-118829200D03*
X167540600Y-119329200D03*
X167540600Y-119829200D03*
X167540600Y-120329200D03*
D21*
X168515600Y-121054200D03*
X170015600Y-121054200D03*
X170015600Y-117604200D03*
D20*
X170990600Y-120329200D03*
X170990600Y-119829200D03*
X170990600Y-119329200D03*
X170990600Y-118829200D03*
X170990600Y-118329200D03*
D22*
X169265600Y-119329200D03*
D11*
X191750760Y-108925240D03*
X189749240Y-108275000D03*
X191750760Y-107624760D03*
X191750760Y-108275000D03*
X189749240Y-107624760D03*
X189749240Y-108925240D03*
D26*
X131700000Y-93000000D03*
D27*
X131700000Y-95000000D03*
D32*
X147775000Y-121675000D03*
X149375000Y-121675000D03*
D18*
X149300000Y-123225000D03*
X147800000Y-123225000D03*
D43*
X162119200Y-147015200D03*
X162119200Y-144675200D03*
X161719200Y-147015200D03*
X161719200Y-144675200D03*
X161319200Y-147015200D03*
X161319200Y-144675200D03*
X160919200Y-147015200D03*
X160919200Y-144675200D03*
X160519200Y-147015200D03*
X160519200Y-144675200D03*
X160119200Y-147015200D03*
X160119200Y-144675200D03*
X159719200Y-147015200D03*
X159719200Y-144675200D03*
X159319200Y-147015200D03*
X159319200Y-144675200D03*
X158919200Y-147015200D03*
X158919200Y-144675200D03*
X158519200Y-147015200D03*
X158519200Y-144675200D03*
X158119200Y-147015200D03*
X158119200Y-144675200D03*
X157719200Y-147015200D03*
X157719200Y-144675200D03*
X157319200Y-147015200D03*
X157319200Y-144675200D03*
X156919200Y-147015200D03*
X156919200Y-144675200D03*
X156519200Y-147015200D03*
X156519200Y-144675200D03*
X156119200Y-147015200D03*
X156119200Y-144675200D03*
X155719200Y-147015200D03*
X155719200Y-144675200D03*
X155319200Y-147015200D03*
X155319200Y-144675200D03*
X154919200Y-147015200D03*
X154919200Y-144675200D03*
X154519200Y-147015200D03*
X154519200Y-144675200D03*
X154119200Y-147015200D03*
X154119200Y-144675200D03*
X153719200Y-147015200D03*
X153719200Y-144675200D03*
X153319200Y-147015200D03*
X153319200Y-144675200D03*
X152919200Y-147015200D03*
X152919200Y-144675200D03*
X152519200Y-147015200D03*
X152519200Y-144675200D03*
X152119200Y-147015200D03*
X152119200Y-144675200D03*
X151719200Y-147015200D03*
X151719200Y-144675200D03*
X151319200Y-147015200D03*
X151319200Y-144675200D03*
X150919200Y-147015200D03*
X150919200Y-144675200D03*
X150519200Y-147015200D03*
X150519200Y-144675200D03*
X150119200Y-147015200D03*
X150119200Y-144675200D03*
X149719200Y-147015200D03*
X149719200Y-144675200D03*
X149319200Y-147015200D03*
X149319200Y-144675200D03*
X148919200Y-147015200D03*
X148919200Y-144675200D03*
X148519200Y-147015200D03*
X148519200Y-144675200D03*
X148119200Y-147015200D03*
X148119200Y-144675200D03*
X147719200Y-147015200D03*
X147719200Y-144675200D03*
X147319200Y-147015200D03*
X147319200Y-144675200D03*
X146919200Y-147015200D03*
X146919200Y-144675200D03*
X146519200Y-147015200D03*
X146519200Y-144675200D03*
X146119200Y-147015200D03*
X146119200Y-144675200D03*
X145719200Y-147015200D03*
X145719200Y-144675200D03*
X145319200Y-147015200D03*
X145319200Y-144675200D03*
X144919200Y-147015200D03*
X144919200Y-144675200D03*
X144519200Y-147015200D03*
X144519200Y-144675200D03*
D44*
X136621520Y-120985040D03*
X136621520Y-120335040D03*
X136621520Y-119685040D03*
X133421520Y-120985040D03*
X133421520Y-119685040D03*
D26*
X165300000Y-95000000D03*
D27*
X165300000Y-93000000D03*
D10*
G36*
X183771629Y-76422103D02*
X182699167Y-75522201D01*
X183599069Y-74449739D01*
X184671531Y-75349641D01*
X183771629Y-76422103D01*
X183771629Y-76422103D01*
G37*
D45*
X182712473Y-74619581D02*
X182712473Y-74619581D01*
X181739596Y-73803240D02*
X181739596Y-73803240D01*
X180766720Y-72986900D02*
X180766720Y-72986900D01*
X179793843Y-72170560D02*
X179793843Y-72170560D01*
D10*
G36*
X185562160Y-74267722D02*
X184489698Y-73367820D01*
X185389600Y-72295358D01*
X186462062Y-73195260D01*
X185562160Y-74267722D01*
X185562160Y-74267722D01*
G37*
D45*
X184503004Y-72465200D02*
X184503004Y-72465200D01*
X183530127Y-71648859D02*
X183530127Y-71648859D01*
X182557251Y-70832519D02*
X182557251Y-70832519D01*
X181584374Y-70016179D02*
X181584374Y-70016179D01*
D25*
X134805600Y-148844000D03*
X133705600Y-148844000D03*
D24*
X136144000Y-148887600D03*
X136144000Y-147987600D03*
X132334000Y-148844000D03*
X132334000Y-147944000D03*
D10*
G36*
X138394786Y-151658933D02*
X138687465Y-148874272D01*
X140378152Y-149051971D01*
X140085473Y-151836632D01*
X138394786Y-151658933D01*
X138394786Y-151658933D01*
G37*
G36*
X143466848Y-152192029D02*
X143759527Y-149407368D01*
X145450214Y-149585067D01*
X145157535Y-152369728D01*
X143466848Y-152192029D01*
X143466848Y-152192029D01*
G37*
D46*
X123400000Y-144950000D03*
X123400000Y-142000000D03*
D47*
X124925000Y-143475000D03*
D48*
X150350000Y-151600000D03*
X147700000Y-151600000D03*
D49*
X149450000Y-151250000D03*
X148600000Y-151250000D03*
D48*
X147275000Y-58450000D03*
X149925000Y-58450000D03*
D49*
X148175000Y-58800000D03*
X149025000Y-58800000D03*
D43*
X144512142Y-125040000D03*
X144512142Y-127380000D03*
X144912142Y-125040000D03*
X144912142Y-127380000D03*
X145312142Y-125040000D03*
X145312142Y-127380000D03*
X145712142Y-125040000D03*
X145712142Y-127380000D03*
X146112142Y-125040000D03*
X146112142Y-127380000D03*
X146512142Y-125040000D03*
X146512142Y-127380000D03*
X146912142Y-125040000D03*
X146912142Y-127380000D03*
X147312142Y-125040000D03*
X147312142Y-127380000D03*
X147712142Y-125040000D03*
X147712142Y-127380000D03*
X148112142Y-125040000D03*
X148112142Y-127380000D03*
X148512142Y-125040000D03*
X148512142Y-127380000D03*
X148912142Y-125040000D03*
X148912142Y-127380000D03*
X149312142Y-125040000D03*
X149312142Y-127380000D03*
X149712142Y-125040000D03*
X149712142Y-127380000D03*
X150112142Y-125040000D03*
X150112142Y-127380000D03*
X150512142Y-125040000D03*
X150512142Y-127380000D03*
X150912142Y-125040000D03*
X150912142Y-127380000D03*
X151312142Y-125040000D03*
X151312142Y-127380000D03*
X151712142Y-125040000D03*
X151712142Y-127380000D03*
X152112142Y-125040000D03*
X152112142Y-127380000D03*
X152512142Y-125040000D03*
X152512142Y-127380000D03*
X152912142Y-125040000D03*
X152912142Y-127380000D03*
X153312142Y-125040000D03*
X153312142Y-127380000D03*
X153712142Y-125040000D03*
X153712142Y-127380000D03*
X154112142Y-125040000D03*
X154112142Y-127380000D03*
X154512142Y-125040000D03*
X154512142Y-127380000D03*
X154912142Y-125040000D03*
X154912142Y-127380000D03*
X155312142Y-125040000D03*
X155312142Y-127380000D03*
X155712142Y-125040000D03*
X155712142Y-127380000D03*
X156112142Y-125040000D03*
X156112142Y-127380000D03*
X156512142Y-125040000D03*
X156512142Y-127380000D03*
X156912142Y-125040000D03*
X156912142Y-127380000D03*
X157312142Y-125040000D03*
X157312142Y-127380000D03*
X157712142Y-125040000D03*
X157712142Y-127380000D03*
X158112142Y-125040000D03*
X158112142Y-127380000D03*
X158512142Y-125040000D03*
X158512142Y-127380000D03*
X158912142Y-125040000D03*
X158912142Y-127380000D03*
X159312142Y-125040000D03*
X159312142Y-127380000D03*
X159712142Y-125040000D03*
X159712142Y-127380000D03*
X160112142Y-125040000D03*
X160112142Y-127380000D03*
X160512142Y-125040000D03*
X160512142Y-127380000D03*
X160912142Y-125040000D03*
X160912142Y-127380000D03*
X161312142Y-125040000D03*
X161312142Y-127380000D03*
X161712142Y-125040000D03*
X161712142Y-127380000D03*
X162112142Y-125040000D03*
X162112142Y-127380000D03*
D50*
X168021000Y-125343000D03*
X168021000Y-146703000D03*
X129001000Y-146703000D03*
X129001000Y-125343000D03*
D51*
X125125000Y-125875000D03*
X120075000Y-125875000D03*
D24*
X151425000Y-148825000D03*
X151425000Y-149725000D03*
X148425000Y-148825000D03*
X148425000Y-149725000D03*
X149925000Y-148825000D03*
X149925000Y-149725000D03*
X150217600Y-62215900D03*
X150217600Y-61315900D03*
X151892600Y-62215900D03*
X151892600Y-61315900D03*
D52*
X151674400Y-87477600D03*
X150774400Y-87477600D03*
D53*
X179019200Y-100694400D03*
X179019200Y-101794400D03*
X187416440Y-93207660D03*
X187416440Y-94307660D03*
D25*
X176999720Y-83619340D03*
X178099720Y-83619340D03*
D53*
X175982540Y-100745200D03*
X175982540Y-101845200D03*
D24*
X146151964Y-142852200D03*
X146151964Y-141952200D03*
X144781564Y-141950000D03*
X144781564Y-142850000D03*
X152175000Y-131150000D03*
X152175000Y-130250000D03*
D13*
X107340400Y-112454800D03*
D14*
X107340400Y-108254800D03*
D42*
X123225000Y-113946720D03*
X123225000Y-112250000D03*
D52*
X187125000Y-90424000D03*
X186225000Y-90424000D03*
X158634000Y-129540000D03*
X157734000Y-129540000D03*
D25*
X158123400Y-133237000D03*
X159223400Y-133237000D03*
D53*
X157023400Y-134437000D03*
X157023400Y-135537000D03*
D25*
X158123400Y-132087000D03*
X159223400Y-132087000D03*
D53*
X158198400Y-134437000D03*
X158198400Y-135537000D03*
X154598400Y-134437000D03*
X154598400Y-135537000D03*
X153423400Y-134437000D03*
X153423400Y-135537000D03*
X155848400Y-134437000D03*
X155848400Y-135537000D03*
D54*
X177504083Y-118687568D03*
X185523338Y-109936086D03*
D10*
G36*
X179776395Y-105402407D02*
X181177222Y-106686028D01*
X179893601Y-108086855D01*
X178492774Y-106803234D01*
X179776395Y-105402407D01*
X179776395Y-105402407D01*
G37*
D27*
X177104314Y-105964974D03*
X178118999Y-108617315D03*
X175388315Y-107837659D03*
X176403000Y-110490000D03*
X173672316Y-109710343D03*
X174687001Y-112362684D03*
X171956317Y-111583027D03*
D55*
X173322051Y-117493526D03*
X183962597Y-105881408D03*
D56*
X164425000Y-81325000D03*
X165525000Y-86175000D03*
X147500000Y-81125000D03*
M02*
