G04 #@! TF.FileFunction,Soldermask,Bot*
%FSLAX46Y46*%
G04 Gerber Fmt 4.6, Leading zero omitted, Abs format (unit mm)*
G04 Created by KiCad (PCBNEW 4.0.4-stable) date 02/28/17 14:35:13*
%MOMM*%
%LPD*%
G01*
G04 APERTURE LIST*
%ADD10C,0.100000*%
%ADD11C,2.100000*%
%ADD12R,1.300000X0.900000*%
%ADD13R,3.200000X3.200000*%
%ADD14C,3.200000*%
%ADD15R,0.600000X1.840000*%
%ADD16R,0.700000X1.250000*%
%ADD17R,1.250000X0.700000*%
%ADD18R,2.237500X2.237500*%
%ADD19R,0.800000X1.000000*%
%ADD20R,1.200000X1.150000*%
%ADD21R,3.760000X5.260000*%
%ADD22R,1.790000X1.800000*%
%ADD23R,2.000000X1.000000*%
%ADD24R,1.000000X1.200000*%
%ADD25R,1.949400X0.999440*%
%ADD26R,0.900000X1.300000*%
%ADD27R,1.900000X5.100000*%
%ADD28R,3.500000X4.600000*%
%ADD29R,1.550000X1.100000*%
%ADD30R,1.900000X1.900000*%
%ADD31C,1.900000*%
%ADD32R,3.190000X1.420000*%
%ADD33R,1.400000X2.000000*%
%ADD34R,0.900000X1.000000*%
%ADD35R,0.700000X1.050000*%
%ADD36R,1.640000X1.175000*%
%ADD37R,1.400000X1.650000*%
%ADD38R,2.300000X2.300000*%
%ADD39C,2.300000*%
%ADD40R,2.900000X2.700000*%
%ADD41R,1.150000X1.200000*%
%ADD42R,2.000000X1.400000*%
%ADD43R,1.300000X1.600000*%
%ADD44R,0.950000X1.000000*%
%ADD45R,1.200000X1.200000*%
%ADD46R,3.070000X2.940000*%
%ADD47R,1.162000X1.670000*%
%ADD48R,2.200860X1.997660*%
%ADD49R,1.900000X3.600000*%
%ADD50R,0.948640X1.598880*%
%ADD51C,6.800000*%
%ADD52R,5.100000X1.900000*%
%ADD53R,4.600000X3.500000*%
%ADD54R,1.100000X1.550000*%
%ADD55R,1.000000X0.800000*%
%ADD56R,2.200000X1.600000*%
%ADD57R,1.000000X2.600000*%
%ADD58R,0.950100X0.650380*%
%ADD59R,1.598880X0.948640*%
%ADD60R,0.999440X1.949400*%
%ADD61R,2.599640X0.999440*%
%ADD62R,1.650000X1.400000*%
%ADD63R,3.000000X8.600000*%
%ADD64R,1.400000X2.900000*%
%ADD65R,1.200000X1.300000*%
%ADD66R,1.000000X0.900000*%
%ADD67R,1.620000X0.800000*%
%ADD68R,2.900000X1.300000*%
%ADD69C,3.400000*%
%ADD70C,4.050000*%
%ADD71C,2.400000*%
%ADD72R,1.750000X1.750000*%
%ADD73R,2.300000X1.500000*%
%ADD74R,0.800000X0.900000*%
%ADD75C,1.924000*%
G04 APERTURE END LIST*
D10*
G36*
X183461879Y-77497316D02*
X181853185Y-76147462D01*
X183203039Y-74538768D01*
X184811733Y-75888622D01*
X183461879Y-77497316D01*
X183461879Y-77497316D01*
G37*
D11*
X181386706Y-74385361D02*
X181386706Y-74385361D01*
X179440953Y-72752681D02*
X179440953Y-72752681D01*
X177495200Y-71120000D02*
X177495200Y-71120000D01*
X175549447Y-69487320D02*
X175549447Y-69487320D01*
D10*
G36*
X185549420Y-75037674D02*
X183940726Y-73687820D01*
X185290580Y-72079126D01*
X186899274Y-73428980D01*
X185549420Y-75037674D01*
X185549420Y-75037674D01*
G37*
D11*
X183474247Y-71925719D02*
X183474247Y-71925719D01*
X181528494Y-70293039D02*
X181528494Y-70293039D01*
X179582741Y-68660358D02*
X179582741Y-68660358D01*
X177636988Y-67027678D02*
X177636988Y-67027678D01*
D12*
X128925000Y-81750000D03*
X128925000Y-83250000D03*
D13*
X107340400Y-100110400D03*
D14*
X107340400Y-95910400D03*
D15*
X159200000Y-136173600D03*
X159200000Y-133833600D03*
X159600000Y-136173600D03*
X159600000Y-133833600D03*
X160000000Y-136173600D03*
X160000000Y-133833600D03*
X160400000Y-136173600D03*
X160400000Y-133833600D03*
X160800000Y-136173600D03*
X160800000Y-133833600D03*
X161200000Y-136173600D03*
X161200000Y-133833600D03*
X161600000Y-136173600D03*
X161600000Y-133833600D03*
X162000000Y-136173600D03*
X162000000Y-133833600D03*
X162400000Y-136173600D03*
X162400000Y-133833600D03*
X162800000Y-136173600D03*
X162800000Y-133833600D03*
X163200000Y-136173600D03*
X163200000Y-133833600D03*
X163600000Y-136173600D03*
X163600000Y-133833600D03*
X164000000Y-136173600D03*
X164000000Y-133833600D03*
X164400000Y-136173600D03*
X164400000Y-133833600D03*
X164800000Y-136173600D03*
X164800000Y-133833600D03*
D16*
X150750000Y-140300000D03*
X150250000Y-140300000D03*
X149750000Y-140300000D03*
X149250000Y-140300000D03*
X148750000Y-140300000D03*
X148250000Y-140300000D03*
X147750000Y-140300000D03*
X147250000Y-140300000D03*
X146750000Y-140300000D03*
X146250000Y-140300000D03*
X145750000Y-140300000D03*
X145250000Y-140300000D03*
X144750000Y-140300000D03*
X144250000Y-140300000D03*
X143750000Y-140300000D03*
X143250000Y-140300000D03*
D17*
X142550000Y-139600000D03*
X142550000Y-139100000D03*
X142550000Y-138600000D03*
X142550000Y-138100000D03*
X142550000Y-137600000D03*
X142550000Y-137100000D03*
X142550000Y-136600000D03*
X142550000Y-136100000D03*
X142550000Y-135600000D03*
X142550000Y-135100000D03*
X142550000Y-134600000D03*
X142550000Y-134100000D03*
X142550000Y-133600000D03*
X142550000Y-133100000D03*
X142550000Y-132600000D03*
X142550000Y-132100000D03*
D16*
X143250000Y-131400000D03*
X143750000Y-131400000D03*
X144250000Y-131400000D03*
X144750000Y-131400000D03*
X145250000Y-131400000D03*
X145750000Y-131400000D03*
X146250000Y-131400000D03*
X146750000Y-131400000D03*
X147250000Y-131400000D03*
X147750000Y-131400000D03*
X148250000Y-131400000D03*
X148750000Y-131400000D03*
X149250000Y-131400000D03*
X149750000Y-131400000D03*
X150250000Y-131400000D03*
X150750000Y-131400000D03*
D17*
X151450000Y-132100000D03*
X151450000Y-132600000D03*
X151450000Y-133100000D03*
X151450000Y-133600000D03*
X151450000Y-134100000D03*
X151450000Y-134600000D03*
X151450000Y-135100000D03*
X151450000Y-135600000D03*
X151450000Y-136100000D03*
X151450000Y-136600000D03*
X151450000Y-137100000D03*
X151450000Y-137600000D03*
X151450000Y-138100000D03*
X151450000Y-138600000D03*
X151450000Y-139100000D03*
X151450000Y-139600000D03*
D18*
X144243750Y-133093750D03*
X146081250Y-133093750D03*
X147918750Y-133093750D03*
X149756250Y-133093750D03*
X144243750Y-134931250D03*
X146081250Y-134931250D03*
X147918750Y-134931250D03*
X149756250Y-134931250D03*
X144243750Y-136768750D03*
X146081250Y-136768750D03*
X147918750Y-136768750D03*
X149756250Y-136768750D03*
X144243750Y-138606250D03*
X146081250Y-138606250D03*
X147918750Y-138606250D03*
X149756250Y-138606250D03*
D19*
X153625000Y-139600000D03*
X154525000Y-139600000D03*
D20*
X147875000Y-128350000D03*
X149375000Y-128350000D03*
D19*
X148750000Y-129975000D03*
X147850000Y-129975000D03*
X156125000Y-133200000D03*
X155225000Y-133200000D03*
X156150000Y-130025000D03*
X155250000Y-130025000D03*
X156100000Y-134900000D03*
X155200000Y-134900000D03*
X156150000Y-131725000D03*
X155250000Y-131725000D03*
D21*
X119300000Y-86125000D03*
D22*
X120220000Y-82143000D03*
X118380000Y-82143000D03*
D23*
X141150000Y-144825000D03*
X135750000Y-144825000D03*
X141150000Y-143575000D03*
X141150000Y-142325000D03*
X141150000Y-141075000D03*
X135750000Y-143575000D03*
X135750000Y-142325000D03*
X135750000Y-141075000D03*
D24*
X129150000Y-78350000D03*
X130850000Y-78350000D03*
D25*
X131135140Y-85305000D03*
X131135140Y-84035000D03*
X131135140Y-82765000D03*
X131135140Y-81495000D03*
X136532640Y-81495000D03*
X136532640Y-82765000D03*
X136532640Y-84035000D03*
X136532640Y-85305000D03*
D26*
X129900000Y-122900000D03*
X131400000Y-122900000D03*
D27*
X133975000Y-116500000D03*
D28*
X131675000Y-116500000D03*
D29*
X128500000Y-118400000D03*
X128500000Y-117130000D03*
X128500000Y-115860000D03*
X128500000Y-114590000D03*
D30*
X166900000Y-103500000D03*
D31*
X166900000Y-101500000D03*
D32*
X118872000Y-133415000D03*
X118872000Y-130429000D03*
D33*
X115268000Y-135509000D03*
X112268000Y-135509000D03*
D34*
X113538000Y-129032000D03*
X113538000Y-127932000D03*
D35*
X116301000Y-133496500D03*
X115801000Y-133496500D03*
X115301000Y-133496500D03*
X114801000Y-133496500D03*
X114301000Y-133496500D03*
X114301000Y-130396500D03*
X114801000Y-130396500D03*
X115301000Y-130396500D03*
X115801000Y-130396500D03*
X116301000Y-130396500D03*
D36*
X114681000Y-131559000D03*
X115921000Y-131559000D03*
X114681000Y-132334000D03*
X115921000Y-132334000D03*
D26*
X116852000Y-135509000D03*
X118352000Y-135509000D03*
D37*
X111776000Y-104907000D03*
X113776000Y-104907000D03*
D38*
X127675000Y-110457000D03*
D39*
X127675000Y-107957000D03*
X127675000Y-105457000D03*
X127675000Y-102957000D03*
X127675000Y-100457000D03*
X130175000Y-110457000D03*
X130175000Y-107957000D03*
X130175000Y-105457000D03*
X130175000Y-102957000D03*
X130175000Y-100457000D03*
D40*
X119024000Y-110887000D03*
X123324000Y-110887000D03*
D41*
X129921000Y-135648000D03*
X129921000Y-137148000D03*
D20*
X131215000Y-139954000D03*
X132715000Y-139954000D03*
X173762800Y-80924400D03*
X172262800Y-80924400D03*
D42*
X139075000Y-84000000D03*
X139075000Y-81000000D03*
D41*
X141125000Y-84050000D03*
X141125000Y-82550000D03*
X136625000Y-88800000D03*
X136625000Y-87300000D03*
D20*
X131700000Y-79850000D03*
X133200000Y-79850000D03*
D41*
X130875000Y-88600000D03*
X130875000Y-87100000D03*
D43*
X121159000Y-100387000D03*
X124459000Y-100387000D03*
D44*
X125857000Y-128270000D03*
X125857000Y-126870000D03*
D45*
X134785000Y-134112000D03*
X133185000Y-134112000D03*
X112149000Y-110162000D03*
X113749000Y-110162000D03*
X119837000Y-137668000D03*
X118237000Y-137668000D03*
D24*
X132475000Y-89050000D03*
X134175000Y-89050000D03*
D46*
X124625000Y-80425000D03*
D47*
X126976000Y-80425000D03*
D48*
X113000000Y-116439720D03*
X113000000Y-113600000D03*
D49*
X114750000Y-124725000D03*
X118950000Y-124725000D03*
D50*
X133156960Y-138330940D03*
X132207000Y-138330940D03*
X131257040Y-138330940D03*
X131257040Y-135735060D03*
X133156960Y-135735060D03*
D51*
X173001100Y-135003600D03*
X124001100Y-135003600D03*
X124001100Y-75003600D03*
X173001100Y-75003600D03*
D52*
X125025000Y-88525000D03*
D53*
X125025000Y-86225000D03*
D54*
X123125000Y-83050000D03*
X124395000Y-83050000D03*
X125665000Y-83050000D03*
X126935000Y-83050000D03*
D12*
X108675000Y-117200000D03*
X108675000Y-118700000D03*
D26*
X109950000Y-120125000D03*
X111450000Y-120125000D03*
D55*
X115474000Y-108287000D03*
X115474000Y-109187000D03*
D26*
X105900000Y-117950000D03*
X107400000Y-117950000D03*
X122550000Y-125050000D03*
X121050000Y-125050000D03*
D12*
X136271000Y-135509000D03*
X136271000Y-134009000D03*
D26*
X113624000Y-107237000D03*
X112124000Y-107237000D03*
D12*
X134620000Y-135509000D03*
X134620000Y-137009000D03*
D26*
X128016000Y-122809000D03*
X126516000Y-122809000D03*
X115340000Y-137668000D03*
X116840000Y-137668000D03*
X136250000Y-119725000D03*
X137750000Y-119725000D03*
X123350000Y-122100000D03*
X124850000Y-122100000D03*
X132525000Y-87200000D03*
X134025000Y-87200000D03*
X134625000Y-79800000D03*
X136125000Y-79800000D03*
X128700000Y-79850000D03*
X130200000Y-79850000D03*
D56*
X116524000Y-102487000D03*
X116524000Y-103687000D03*
X118324000Y-102487000D03*
D57*
X119329000Y-105962000D03*
X118059000Y-105962000D03*
X116789000Y-105962000D03*
X115519000Y-105962000D03*
X115519000Y-100212000D03*
X116789000Y-100212000D03*
X118059000Y-100212000D03*
X119329000Y-100212000D03*
D56*
X118324000Y-103687000D03*
D58*
X133401520Y-120099520D03*
X131400000Y-120749760D03*
X133401520Y-121400000D03*
X133401520Y-120749760D03*
X131400000Y-121400000D03*
X131400000Y-120099520D03*
D59*
X123922940Y-126875040D03*
X123922940Y-127825000D03*
X123922940Y-128774960D03*
X121327060Y-128774960D03*
X121327060Y-126875040D03*
D60*
X120744000Y-120118860D03*
X119474000Y-120118860D03*
X118204000Y-120118860D03*
X116934000Y-120118860D03*
X116934000Y-114721360D03*
X118204000Y-114721360D03*
X119474000Y-114721360D03*
X120744000Y-114721360D03*
D58*
X129801520Y-120099520D03*
X127800000Y-120749760D03*
X129801520Y-121400000D03*
X129801520Y-120749760D03*
X127800000Y-121400000D03*
X127800000Y-120099520D03*
D60*
X126205000Y-120118860D03*
X124935000Y-120118860D03*
X123665000Y-120118860D03*
X122395000Y-120118860D03*
X122395000Y-114721360D03*
X123665000Y-114721360D03*
X124935000Y-114721360D03*
X126205000Y-114721360D03*
D61*
X175427640Y-82499200D03*
X175427640Y-83769200D03*
X175427640Y-85039200D03*
X175427640Y-86309200D03*
X170230800Y-86309200D03*
X170230800Y-85039200D03*
X170230800Y-83769200D03*
X170230800Y-82499200D03*
D37*
X117221000Y-128524000D03*
X115221000Y-128524000D03*
D34*
X116774000Y-108387000D03*
X116774000Y-109487000D03*
D62*
X121412000Y-104521000D03*
X121412000Y-106521000D03*
D37*
X111776000Y-102870000D03*
X113776000Y-102870000D03*
D63*
X113300000Y-94100000D03*
X118900000Y-94100000D03*
D26*
X112534000Y-99314000D03*
X114034000Y-99314000D03*
X114034000Y-100965000D03*
X112534000Y-100965000D03*
D20*
X176470448Y-90076400D03*
X174970448Y-90076400D03*
D26*
X174970448Y-93378400D03*
X176470448Y-93378400D03*
X174970448Y-91702000D03*
X176470448Y-91702000D03*
D62*
X129225000Y-129950000D03*
X129225000Y-127950000D03*
D64*
X134620000Y-125425000D03*
X131620000Y-125425000D03*
D41*
X143125000Y-143200000D03*
X143125000Y-144700000D03*
D19*
X134990000Y-129718000D03*
X134090000Y-129718000D03*
X134979000Y-131115000D03*
X134079000Y-131115000D03*
D55*
X132325000Y-132075000D03*
X132325000Y-131175000D03*
D20*
X141800000Y-124900000D03*
X140300000Y-124900000D03*
X140900000Y-119775000D03*
X139400000Y-119775000D03*
D45*
X136100000Y-121375000D03*
X137700000Y-121375000D03*
D19*
X161824200Y-119630930D03*
X160924200Y-119630930D03*
X161824200Y-121330930D03*
X162724200Y-121330930D03*
D65*
X139250000Y-121375000D03*
X141150000Y-121375000D03*
X140200000Y-123375000D03*
D58*
X161015680Y-118353840D03*
X163017200Y-117703600D03*
X161015680Y-117053360D03*
X161015680Y-117703600D03*
X163017200Y-117053360D03*
X163017200Y-118353840D03*
D30*
X131700000Y-93000000D03*
D31*
X131700000Y-95000000D03*
D21*
X115150000Y-78150000D03*
D22*
X114230000Y-82132000D03*
X116070000Y-82132000D03*
D26*
X135890000Y-138557000D03*
X134390000Y-138557000D03*
D34*
X126400000Y-92200000D03*
X126400000Y-93300000D03*
D66*
X125050000Y-95200000D03*
X126150000Y-95200000D03*
D19*
X122850000Y-95200000D03*
X121950000Y-95200000D03*
X121900000Y-90600000D03*
X122800000Y-90600000D03*
D30*
X165300000Y-95000000D03*
D31*
X165300000Y-93000000D03*
D67*
X124810000Y-91925000D03*
X124810000Y-92575000D03*
X124810000Y-93225000D03*
X124810000Y-93875000D03*
X122190000Y-93875000D03*
X122190000Y-93225000D03*
X122190000Y-92575000D03*
X122190000Y-91925000D03*
D68*
X139525000Y-85750000D03*
X139525000Y-88650000D03*
D69*
X168021000Y-125343000D03*
X168021000Y-146703000D03*
X129001000Y-146703000D03*
X129001000Y-125343000D03*
D66*
X173228000Y-91846400D03*
X172128000Y-91846400D03*
X173228000Y-96926400D03*
X172128000Y-96926400D03*
X173228000Y-95656400D03*
X172128000Y-95656400D03*
X173228000Y-94386400D03*
X172128000Y-94386400D03*
X173228000Y-93116400D03*
X172128000Y-93116400D03*
D13*
X107340400Y-112454800D03*
D14*
X107340400Y-108254800D03*
D15*
X137802200Y-73833600D03*
X137802200Y-76173600D03*
X137402200Y-73833600D03*
X137402200Y-76173600D03*
X137002200Y-73833600D03*
X137002200Y-76173600D03*
X136602200Y-73833600D03*
X136602200Y-76173600D03*
X136202200Y-73833600D03*
X136202200Y-76173600D03*
X135802200Y-73833600D03*
X135802200Y-76173600D03*
X135402200Y-73833600D03*
X135402200Y-76173600D03*
X135002200Y-73833600D03*
X135002200Y-76173600D03*
X134602200Y-73833600D03*
X134602200Y-76173600D03*
X134202200Y-73833600D03*
X134202200Y-76173600D03*
X133802200Y-73833600D03*
X133802200Y-76173600D03*
X133402200Y-73833600D03*
X133402200Y-76173600D03*
X133002200Y-73833600D03*
X133002200Y-76173600D03*
X132602200Y-73833600D03*
X132602200Y-76173600D03*
X132202200Y-73833600D03*
X132202200Y-76173600D03*
D34*
X146500000Y-128375000D03*
X146500000Y-129475000D03*
D66*
X140950000Y-133875000D03*
X139850000Y-133875000D03*
X148900000Y-126875000D03*
X150000000Y-126875000D03*
X140950000Y-135150000D03*
X139850000Y-135150000D03*
X153425000Y-138300000D03*
X154525000Y-138300000D03*
X140950000Y-136425000D03*
X139850000Y-136425000D03*
X140950000Y-137700000D03*
X139850000Y-137700000D03*
X140950000Y-138975000D03*
X139850000Y-138975000D03*
D34*
X151050000Y-130125000D03*
X151050000Y-129025000D03*
D70*
X177504083Y-118687568D03*
X185523338Y-109936086D03*
D10*
G36*
X179776395Y-105402407D02*
X181177222Y-106686028D01*
X179893601Y-108086855D01*
X178492774Y-106803234D01*
X179776395Y-105402407D01*
X179776395Y-105402407D01*
G37*
D31*
X177104314Y-105964974D03*
X178118999Y-108617315D03*
X175388315Y-107837659D03*
X176403000Y-110490000D03*
X173672316Y-109710343D03*
X174687001Y-112362684D03*
X171956317Y-111583027D03*
D71*
X173322051Y-117493526D03*
X183962597Y-105881408D03*
D72*
X164425000Y-81325000D03*
X165525000Y-86175000D03*
X147500000Y-81125000D03*
D73*
X131905000Y-128924244D03*
D74*
X132855000Y-129974244D03*
X132230000Y-129974244D03*
X131580000Y-129974244D03*
X130955000Y-129974244D03*
X130955000Y-127874244D03*
X131580000Y-127874244D03*
X132230000Y-127874244D03*
X132855000Y-127874244D03*
D10*
G36*
X151771961Y-86374010D02*
X149927192Y-85827565D01*
X150473637Y-83982796D01*
X152318406Y-84529241D01*
X151771961Y-86374010D01*
X151771961Y-86374010D01*
G37*
D75*
X151844198Y-82743001D03*
X153558201Y-85899802D03*
X154279600Y-83464400D03*
X155993603Y-86621201D03*
X156715002Y-84185799D03*
X158429005Y-87342600D03*
X159150404Y-84907198D03*
M02*
