M48
;DRILL file {KiCad 4.0.4-stable} date 02/28/17 14:35:19
;FORMAT={-:-/ absolute / inch / decimal}
FMAT,2
INCH,TZ
T1C0.012
T2C0.016
T3C0.030
T4C0.031
T5C0.035
T6C0.039
T7C0.047
T8C0.055
T9C0.063
T10C0.079
T11C0.126
T12C0.051
T13C0.128
%
G90
G05
M72
T1
X4.5208Y-5.2848
X4.525Y-5.105
X4.5876Y-4.0349
X4.5876Y-4.0822
X4.651Y-5.4882
X4.6584Y-4.0349
X4.6584Y-4.0822
X4.674Y-5.4881
X4.697Y-5.4886
X4.7199Y-5.4872
X4.7429Y-5.4872
X4.7667Y-5.4872
X4.8258Y-5.0325
X4.8359Y-5.0078
X4.8506Y-3.6201
X4.872Y-5.0904
X4.9891Y-3.1167
X4.9951Y-5.4557
X4.9985Y-3.0915
X5.0108Y-3.1267
X5.0208Y-3.0404
X5.0213Y-5.5309
X5.0219Y-3.016
X5.0337Y-3.1292
X5.0354Y-3.2195
X5.0406Y-3.5453
X5.0475Y-3.5233
X5.0678Y-5.5158
X5.0795Y-3.185
X5.0917Y-5.3868
X5.156Y-2.9445
X5.159Y-2.9685
X5.186Y-3.0045
X5.1931Y-5.0758
X5.249Y-5.0665
X5.2559Y-5.0884
X5.2677Y-2.953
X5.2817Y-5.0858
X5.3072Y-3.6909
X5.334Y-2.9566
X5.3725Y-2.9567
X5.497Y-2.969
X5.5003Y-2.9462
X5.632Y-3.4698
X5.6614Y-3.5276
X5.6615Y-3.392
X5.6915Y-3.5186
X5.692Y-3.4268
X5.7794Y-3.4433
X5.78Y-3.4085
X5.7861Y-5.6233
X5.7963Y-5.7382
X5.8091Y-5.6233
X5.8179Y-5.747
X5.828Y-5.6366
X5.8435Y-5.6535
X5.8474Y-3.4439
X5.9262Y-4.9685
X5.943Y-3.4773
X5.9715Y-3.4773
X5.9945Y-2.801
X6.0152Y-5.8421
X6.016Y-5.066
X6.0165Y-2.778
X6.0354Y-4.9685
X6.039Y-5.8447
X6.0509Y-5.0671
X6.062Y-5.8445
X6.0731Y-5.0572
X6.0965Y-2.856
X6.0982Y-5.0573
X6.1014Y-5.5344
X6.1043Y-5.4036
X6.1151Y-2.8725
X6.1217Y-5.0673
X6.1221Y-5.3858
X6.1413Y-2.873
X6.1479Y-5.8337
X6.1641Y-2.87
X6.1709Y-5.8337
X6.1732Y-5.4744
X6.187Y-2.867
X6.1939Y-5.8337
X6.2087Y-4.9685
X6.2169Y-5.8337
X6.2423Y-4.8805
X6.2556Y-4.796
X6.2569Y-5.7421
X6.2683Y-4.883
X6.2815Y-2.7337
X6.2815Y-2.8425
X6.2898Y-5.1168
X6.2913Y-4.8818
X6.3051Y-2.8425
X6.3053Y-2.7337
X6.31Y-5.1277
X6.312Y-5.315
X6.3159Y-4.8805
X6.327Y-5.1433
X6.3287Y-2.7337
X6.3287Y-2.8425
X6.3297Y-5.6506
X6.339Y-4.883
X6.3441Y-5.1586
X6.352Y-5.55
X6.3533Y-2.7337
X6.3533Y-2.8425
X6.3561Y-5.1783
X6.3632Y-4.8805
X6.3681Y-5.1979
X6.377Y-2.7337
X6.377Y-2.8425
X6.3811Y-5.4059
X6.382Y-4.5545
X6.3878Y-5.2136
X6.3898Y-5.1903
X6.3929Y-5.4256
X6.4006Y-2.7337
X6.4006Y-2.8425
X6.4252Y-5.2244
X6.4289Y-4.5545
X6.4291Y-5.4793
X6.458Y-4.76
X6.4723Y-3.51
X6.483Y-2.8832
X6.5115Y-2.8857
X6.514Y-4.636
X6.5365Y-4.7081
X6.5375Y-4.6285
X6.5411Y-3.9565
X6.5429Y-5.7486
X6.5531Y-4.534
X6.558Y-4.678
X6.565Y-3.94
X6.5696Y-4.5545
X6.5754Y-5.6754
X6.5768Y-5.4793
X6.6161Y-4.0335
X6.6398Y-3.3878
X6.6405Y-3.247
X6.6417Y-3.314
X6.732Y-4.76
X6.752Y-3.694
X6.7521Y-3.7382
X6.7525Y-3.5205
X6.8128Y-3.4412
X6.8386Y-4.1329
X6.8393Y-3.4014
X6.8537Y-3.6413
X6.854Y-3.715
X6.854Y-3.738
X6.854Y-3.761
X6.854Y-3.784
X6.8558Y-3.4291
X6.8573Y-3.6752
X6.8633Y-4.1315
X6.8635Y-3.5852
X6.8894Y-3.1824
X6.8916Y-3.9601
X6.8917Y-3.9833
X6.898Y-4.62
X6.9063Y-3.1981
X6.9271Y-4.4771
X6.9358Y-3.2191
X6.9724Y-3.6427
X6.9739Y-3.2362
X6.9872Y-3.9656
X6.9872Y-4.0089
X6.997Y-3.2352
X7.0167Y-3.9464
X7.0177Y-3.4862
X7.0297Y-3.3494
X7.0316Y-3.3723
X7.0406Y-3.8426
X7.0414Y-3.8196
X7.0644Y-3.8187
X7.0707Y-3.3752
X7.077Y-3.4875
X7.0847Y-3.9587
X7.0896Y-3.8096
X7.0903Y-3.5063
X7.0925Y-3.3917
X7.1057Y-3.5233
X7.1144Y-3.7266
X7.117Y-3.5434
X7.1316Y-3.5612
X7.1476Y-3.7266
X7.1545Y-3.9449
X7.1594Y-3.2559
X7.1775Y-3.9449
X7.1811Y-4.0748
X7.1856Y-4.0974
X7.1939Y-3.7266
X7.1959Y-3.6821
X7.2057Y-3.6585
X7.2087Y-3.5404
X7.2087Y-3.5797
X7.2105Y-3.9439
X7.2343Y-3.9439
X7.3524Y-3.6999
X7.3589Y-3.8763
X7.3594Y-4.0366
X7.3863Y-4.1339
X7.3977Y-4.1673
X7.4032Y-4.0756
X7.4032Y-4.1086
X7.4407Y-4.167
X7.4407Y-4.1939
X7.4424Y-3.7126
X7.4577Y-4.2106
X7.5065Y-4.1975
X7.5181Y-4.2184
X7.5234Y-4.1314
T2
X4.4232Y-4.7293
X4.5Y-5.0367
X4.5177Y-4.7864
X4.5827Y-4.2283
X4.598Y-3.8799
X4.6319Y-2.9941
X4.6319Y-3.0354
X4.6329Y-3.0768
X4.6329Y-3.1181
X4.6939Y-5.2894
X4.6963Y-5.377
X4.73Y-5.18
X4.7323Y-4.2302
X4.7537Y-4.6896
X4.7628Y-3.5423
X4.7628Y-3.5821
X4.7688Y-3.7185
X4.7697Y-3.7698
X4.775Y-5.18
X4.7766Y-4.3376
X4.7766Y-4.3652
X4.7766Y-4.3927
X4.7893Y-4.6541
X4.7943Y-5.5659
X4.8149Y-4.4409
X4.8376Y-4.6541
X4.8858Y-4.8071
X4.8898Y-4.6541
X4.9415Y-4.8147
X4.9481Y-4.6541
X4.9687Y-4.6746
X4.9724Y-3.314
X4.9882Y-4.7776
X5.115Y-5.1801
X5.115Y-5.26
X5.1184Y-5.2916
X5.1258Y-5.1348
X5.1427Y-5.18
X5.1427Y-5.2374
X5.1676Y-5.2623
X5.1676Y-5.29
X5.1732Y-4.8031
X5.2039Y-2.8637
X5.2047Y-3.3585
X5.225Y-5.0049
X5.2333Y-4.938
X5.3583Y-4.845
X5.3583Y-4.88
X5.3583Y-4.9262
X5.3598Y-4.976
X5.3598Y-5.02
X5.3789Y-4.6613
X5.4116Y-3.1721
X5.4172Y-5.2992
X5.4172Y-5.3328
X5.4172Y-5.3644
X5.4174Y-5.2644
X5.444Y-2.953
X5.4462Y-5.2814
X5.4466Y-5.3136
X5.4468Y-5.3466
X5.5059Y-5.2449
X5.5069Y-5.6526
X5.5285Y-4.687
X5.5846Y-4.75
X5.6083Y-4.7726
X5.6467Y-5.0197
X5.6486Y-5.0512
X5.6574Y-5.553
X5.6673Y-5.6949
X5.686Y-5.1397
X5.6909Y-4.8573
X5.7146Y-5.561
X5.7215Y-5.1397
X5.7234Y-4.8573
X5.7274Y-5.6261
X5.7432Y-5.561
X5.768Y-5.126
X5.8543Y-5.5561
X5.9026Y-5.9242
X5.9114Y-5.0846
X5.9174Y-5.1368
X5.958Y-5.742
X5.9911Y-5.2195
X5.9921Y-5.3002
X5.9951Y-5.3575
X6.0001Y-5.507
X6.001Y-5.435
X6.0561Y-5.418
X6.066Y-5.528
X6.0683Y-5.1183
X6.1289Y-5.2156
X6.144Y-5.742
X6.252Y-2.858
X6.2559Y-5.315
X6.302Y-4.638
X6.3061Y-4.7923
X6.3516Y-5.7466
X6.4745Y-4.7091
X6.498Y-4.1939
X6.5059Y-5.315
X6.646Y-4.582
X6.9518Y-3.0659
X7.092Y-3.03
X7.5089Y-4.0522
X7.5098Y-4.2628
T3
X5.9497Y-3.3535
X5.9781Y-3.2576
X6.0456Y-3.3819
X6.074Y-3.286
X6.1415Y-3.4103
X6.1699Y-3.3144
X6.2374Y-3.4387
X6.2658Y-3.3428
T4
X5.185Y-3.6614
X5.185Y-3.7402
X5.8071Y-3.1939
X6.4734Y-3.2018
X6.5079Y-3.6614
X6.5079Y-3.7402
X6.5167Y-3.3927
X6.5709Y-3.9961
X6.5709Y-4.0748
T5
X6.7699Y-4.393
X6.8375Y-4.3193
X6.8774Y-4.4237
X6.9051Y-4.2456
X6.945Y-4.35
X6.9726Y-4.1718
X7.0126Y-4.2763
X7.0801Y-4.2025
T6
X6.9114Y-2.7357
X6.988Y-2.8
X6.9936Y-2.6389
X7.0646Y-2.8643
X7.0702Y-2.7032
X7.1412Y-2.9286
X7.1468Y-2.7674
X7.2178Y-2.9928
X7.2234Y-2.8317
X7.3Y-2.896
T7
X5.0266Y-3.955
X5.0266Y-4.0534
X5.0266Y-4.1519
X5.0266Y-4.2503
X5.0266Y-4.3487
X5.125Y-3.955
X5.125Y-4.0534
X5.125Y-4.1519
X5.125Y-4.2503
X5.125Y-4.3487
T8
X4.226Y-3.776
X4.226Y-3.9414
X4.226Y-4.262
X4.226Y-4.4274
T9
X6.8237Y-4.6257
X7.2426Y-4.1686
T10
X5.0788Y-4.9348
X5.0788Y-5.7757
X6.615Y-4.9348
X6.615Y-5.7757
T11
X4.8819Y-2.9529
X4.8819Y-5.3151
X6.8111Y-2.9529
X6.8111Y-5.3151
T12
X4.9738Y-4.2011
T13
X6.9883Y-4.6727
X7.3041Y-4.3282
T0
M30
