G04 #@! TF.FileFunction,Copper,L1,Top,Signal*
%FSLAX46Y46*%
G04 Gerber Fmt 4.6, Leading zero omitted, Abs format (unit mm)*
G04 Created by KiCad (PCBNEW 4.0.4-stable) date 03/02/17 13:25:27*
%MOMM*%
%LPD*%
G01*
G04 APERTURE LIST*
%ADD10C,0.100000*%
%ADD11C,1.700000*%
%ADD12R,0.800100X0.500380*%
%ADD13R,2.800000X2.800000*%
%ADD14C,2.800000*%
%ADD15R,0.900000X0.500000*%
%ADD16R,1.498600X0.279400*%
%ADD17R,0.279400X1.498600*%
%ADD18R,0.500000X0.900000*%
%ADD19R,0.500000X1.000000*%
%ADD20R,0.850000X0.280000*%
%ADD21R,0.280000X0.850000*%
%ADD22R,2.050000X2.050000*%
%ADD23R,1.200000X1.400000*%
%ADD24R,0.600000X0.400000*%
%ADD25R,0.600000X0.500000*%
%ADD26R,1.500000X1.500000*%
%ADD27C,1.500000*%
%ADD28R,1.900000X1.900000*%
%ADD29C,1.900000*%
%ADD30R,0.800000X0.750000*%
%ADD31R,0.750000X0.800000*%
%ADD32R,0.800000X0.800000*%
%ADD33R,0.600000X0.550000*%
%ADD34R,1.500000X3.200000*%
%ADD35C,6.400000*%
%ADD36R,1.500000X1.000000*%
%ADD37R,1.500000X3.300000*%
%ADD38R,0.548640X1.198880*%
%ADD39R,0.420000X0.600000*%
%ADD40R,0.600000X0.800000*%
%ADD41R,1.200000X0.900000*%
%ADD42R,0.998220X1.099820*%
%ADD43R,0.200000X1.440000*%
%ADD44R,1.000000X0.500000*%
%ADD45R,0.500000X0.600000*%
%ADD46R,0.400000X0.600000*%
%ADD47R,2.200000X1.050000*%
%ADD48R,1.050000X1.000000*%
%ADD49R,0.850000X0.900000*%
%ADD50R,0.450000X0.500000*%
%ADD51C,3.000000*%
%ADD52R,2.550000X2.500000*%
%ADD53C,3.650000*%
%ADD54C,2.000000*%
%ADD55R,1.350000X1.350000*%
%ADD56R,2.040000X1.540000*%
%ADD57C,1.524000*%
%ADD58C,0.457200*%
%ADD59C,0.600000*%
%ADD60C,0.500000*%
%ADD61C,1.000000*%
%ADD62C,1.500000*%
%ADD63C,0.127000*%
%ADD64C,0.400000*%
%ADD65C,0.250000*%
%ADD66C,0.200000*%
%ADD67C,0.220000*%
%ADD68C,0.350000*%
%ADD69C,0.300000*%
%ADD70C,0.175000*%
%ADD71C,0.450000*%
G04 APERTURE END LIST*
D10*
G36*
X183437227Y-77215549D02*
X182134952Y-76122810D01*
X183227691Y-74820535D01*
X184529966Y-75913274D01*
X183437227Y-77215549D01*
X183437227Y-77215549D01*
G37*
D11*
X181386706Y-74385361D02*
X181386706Y-74385361D01*
X179440953Y-72752681D02*
X179440953Y-72752681D01*
X177495200Y-71120000D02*
X177495200Y-71120000D01*
X175549447Y-69487320D02*
X175549447Y-69487320D01*
D10*
G36*
X185524768Y-74755907D02*
X184222493Y-73663168D01*
X185315232Y-72360893D01*
X186617507Y-73453632D01*
X185524768Y-74755907D01*
X185524768Y-74755907D01*
G37*
D11*
X183474247Y-71925719D02*
X183474247Y-71925719D01*
X181528494Y-70293039D02*
X181528494Y-70293039D01*
X179582741Y-68660358D02*
X179582741Y-68660358D01*
X177636988Y-67027678D02*
X177636988Y-67027678D01*
D12*
X189749240Y-104949760D03*
X191750760Y-105600000D03*
X189749240Y-106250240D03*
X189749240Y-105600000D03*
X191750760Y-106250240D03*
X191750760Y-104949760D03*
D10*
G36*
X142441767Y-78974849D02*
X142141061Y-78021132D01*
X144477667Y-77284403D01*
X144778373Y-78238120D01*
X142441767Y-78974849D01*
X142441767Y-78974849D01*
G37*
G36*
X133364481Y-85003464D02*
X132627752Y-82666858D01*
X133581469Y-82366152D01*
X134318198Y-84702758D01*
X133364481Y-85003464D01*
X133364481Y-85003464D01*
G37*
G36*
X127487554Y-73414309D02*
X127186848Y-72460592D01*
X129523454Y-71723863D01*
X129824160Y-72677580D01*
X127487554Y-73414309D01*
X127487554Y-73414309D01*
G37*
G36*
X127908542Y-74749513D02*
X127607836Y-73795796D01*
X129944442Y-73059067D01*
X130245148Y-74012784D01*
X127908542Y-74749513D01*
X127908542Y-74749513D01*
G37*
G36*
X128329530Y-76084716D02*
X128028824Y-75130999D01*
X130365430Y-74394270D01*
X130666136Y-75347987D01*
X128329530Y-76084716D01*
X128329530Y-76084716D01*
G37*
G36*
X128750518Y-77419920D02*
X128449812Y-76466203D01*
X130786418Y-75729474D01*
X131087124Y-76683191D01*
X128750518Y-77419920D01*
X128750518Y-77419920D01*
G37*
G36*
X129171506Y-78755124D02*
X128870800Y-77801407D01*
X131207406Y-77064678D01*
X131508112Y-78018395D01*
X129171506Y-78755124D01*
X129171506Y-78755124D01*
G37*
G36*
X129592494Y-80090327D02*
X129291788Y-79136610D01*
X131628394Y-78399881D01*
X131929100Y-79353598D01*
X129592494Y-80090327D01*
X129592494Y-80090327D01*
G37*
G36*
X130013482Y-81425531D02*
X129712776Y-80471814D01*
X132049382Y-79735085D01*
X132350088Y-80688802D01*
X130013482Y-81425531D01*
X130013482Y-81425531D01*
G37*
G36*
X130434470Y-82760735D02*
X130133764Y-81807018D01*
X132470370Y-81070289D01*
X132771076Y-82024006D01*
X130434470Y-82760735D01*
X130434470Y-82760735D01*
G37*
G36*
X134699685Y-84582476D02*
X133962956Y-82245870D01*
X134916673Y-81945164D01*
X135653402Y-84281770D01*
X134699685Y-84582476D01*
X134699685Y-84582476D01*
G37*
G36*
X136034889Y-84161488D02*
X135298160Y-81824882D01*
X136251877Y-81524176D01*
X136988606Y-83860782D01*
X136034889Y-84161488D01*
X136034889Y-84161488D01*
G37*
G36*
X137370093Y-83740499D02*
X136633364Y-81403893D01*
X137587081Y-81103187D01*
X138323810Y-83439793D01*
X137370093Y-83740499D01*
X137370093Y-83740499D01*
G37*
G36*
X138705296Y-83319511D02*
X137968567Y-80982905D01*
X138922284Y-80682199D01*
X139659013Y-83018805D01*
X138705296Y-83319511D01*
X138705296Y-83319511D01*
G37*
G36*
X140040500Y-82898523D02*
X139303771Y-80561917D01*
X140257488Y-80261211D01*
X140994217Y-82597817D01*
X140040500Y-82898523D01*
X140040500Y-82898523D01*
G37*
G36*
X141375704Y-82477535D02*
X140638975Y-80140929D01*
X141592692Y-79840223D01*
X142329421Y-82176829D01*
X141375704Y-82477535D01*
X141375704Y-82477535D01*
G37*
G36*
X142710908Y-82056547D02*
X141974179Y-79719941D01*
X142927896Y-79419235D01*
X143664625Y-81755841D01*
X142710908Y-82056547D01*
X142710908Y-82056547D01*
G37*
G36*
X142020779Y-77639645D02*
X141720073Y-76685928D01*
X144056679Y-75949199D01*
X144357385Y-76902916D01*
X142020779Y-77639645D01*
X142020779Y-77639645D01*
G37*
G36*
X141599791Y-76304441D02*
X141299085Y-75350724D01*
X143635691Y-74613995D01*
X143936397Y-75567712D01*
X141599791Y-76304441D01*
X141599791Y-76304441D01*
G37*
G36*
X141178803Y-74969238D02*
X140878097Y-74015521D01*
X143214703Y-73278792D01*
X143515409Y-74232509D01*
X141178803Y-74969238D01*
X141178803Y-74969238D01*
G37*
G36*
X140757814Y-73634034D02*
X140457108Y-72680317D01*
X142793714Y-71943588D01*
X143094420Y-72897305D01*
X140757814Y-73634034D01*
X140757814Y-73634034D01*
G37*
G36*
X140336826Y-72298830D02*
X140036120Y-71345113D01*
X142372726Y-70608384D01*
X142673432Y-71562101D01*
X140336826Y-72298830D01*
X140336826Y-72298830D01*
G37*
G36*
X139915838Y-70963627D02*
X139615132Y-70009910D01*
X141951738Y-69273181D01*
X142252444Y-70226898D01*
X139915838Y-70963627D01*
X139915838Y-70963627D01*
G37*
G36*
X139494850Y-69628423D02*
X139194144Y-68674706D01*
X141530750Y-67937977D01*
X141831456Y-68891694D01*
X139494850Y-69628423D01*
X139494850Y-69628423D01*
G37*
G36*
X137680312Y-85490549D02*
X137409677Y-84632204D01*
X137886536Y-84481851D01*
X138157171Y-85340196D01*
X137680312Y-85490549D01*
X137680312Y-85490549D01*
G37*
G36*
X139110888Y-85039491D02*
X138840253Y-84181146D01*
X139317112Y-84030793D01*
X139587747Y-84889138D01*
X139110888Y-85039491D01*
X139110888Y-85039491D01*
G37*
D13*
X107340400Y-100110400D03*
D14*
X107340400Y-95910400D03*
D15*
X182925000Y-83700000D03*
X182925000Y-82200000D03*
D16*
X172702220Y-89433400D03*
X172702220Y-89933780D03*
X172702220Y-90434160D03*
X172702220Y-90934540D03*
X172702220Y-91434920D03*
X172702220Y-91932760D03*
X172702220Y-92433140D03*
X172702220Y-92933520D03*
X172702220Y-93431360D03*
X172702220Y-93931740D03*
X172702220Y-94432120D03*
X172702220Y-94929960D03*
X172702220Y-95430340D03*
X172702220Y-95930720D03*
X172702220Y-96431100D03*
X172702220Y-96931480D03*
D17*
X174752000Y-98981260D03*
X175252380Y-98981260D03*
X175752760Y-98981260D03*
X176253140Y-98981260D03*
X176753520Y-98981260D03*
X177251360Y-98981260D03*
X177751740Y-98981260D03*
X178252120Y-98981260D03*
X178749960Y-98981260D03*
X179250340Y-98981260D03*
X179750720Y-98981260D03*
X180248560Y-98981260D03*
X180748940Y-98981260D03*
X181249320Y-98981260D03*
X181749700Y-98981260D03*
X182250080Y-98981260D03*
D16*
X184299860Y-96931480D03*
X184299860Y-96431100D03*
X184299860Y-95930720D03*
X184299860Y-95430340D03*
X184299860Y-94929960D03*
X184299860Y-94432120D03*
X184299860Y-93931740D03*
X184299860Y-93431360D03*
X184299860Y-92933520D03*
X184299860Y-92433140D03*
X184299860Y-91932760D03*
X184299860Y-91434920D03*
X184299860Y-90934540D03*
X184299860Y-90434160D03*
X184299860Y-89933780D03*
X184299860Y-89433400D03*
D17*
X182250080Y-87383620D03*
X181749700Y-87383620D03*
X181249320Y-87383620D03*
X180748940Y-87383620D03*
X180248560Y-87383620D03*
X179750720Y-87383620D03*
X179250340Y-87383620D03*
X178749960Y-87383620D03*
X178252120Y-87383620D03*
X177751740Y-87383620D03*
X177251360Y-87383620D03*
X176753520Y-87383620D03*
X176253140Y-87383620D03*
X175752760Y-87383620D03*
X175252380Y-87383620D03*
X174752000Y-87383620D03*
D18*
X167775000Y-82850000D03*
X169275000Y-82850000D03*
D19*
X159475000Y-142600000D03*
X160125000Y-142600000D03*
X160775000Y-142600000D03*
X159475000Y-139400000D03*
X160775000Y-139400000D03*
D20*
X164099200Y-118709600D03*
D21*
X163374200Y-117734600D03*
X162874200Y-117734600D03*
X162374200Y-117734600D03*
X161874200Y-117734600D03*
X161374200Y-117734600D03*
D20*
X160649200Y-118709600D03*
X160649200Y-120209600D03*
X164099200Y-120209600D03*
D21*
X161374200Y-121184600D03*
X161874200Y-121184600D03*
X162374200Y-121184600D03*
X162874200Y-121184600D03*
X163374200Y-121184600D03*
D22*
X162374200Y-119459600D03*
D23*
X146275000Y-135700000D03*
X146275000Y-138100000D03*
X148175000Y-138100000D03*
X148175000Y-135700000D03*
D24*
X149925000Y-138100000D03*
X149925000Y-139000000D03*
D25*
X147800000Y-134150000D03*
X146700000Y-134150000D03*
D24*
X153592600Y-62190900D03*
X153592600Y-61290900D03*
D26*
X166900000Y-103500000D03*
D27*
X166900000Y-101500000D03*
D28*
X127675000Y-110457000D03*
D29*
X127675000Y-107957000D03*
X127675000Y-105457000D03*
X127675000Y-102957000D03*
X127675000Y-100457000D03*
X130175000Y-110457000D03*
X130175000Y-107957000D03*
X130175000Y-105457000D03*
X130175000Y-102957000D03*
X130175000Y-100457000D03*
D30*
X129934400Y-120294400D03*
X128434400Y-120294400D03*
X166142800Y-98552000D03*
X164642800Y-98552000D03*
D31*
X168921000Y-93233400D03*
X168921000Y-94733400D03*
X134670800Y-115925600D03*
X134670800Y-114425600D03*
D32*
X129926080Y-139308840D03*
X128326080Y-139308840D03*
D33*
X133407960Y-135021320D03*
X134807960Y-135021320D03*
D34*
X137495280Y-131201160D03*
X133295280Y-131201160D03*
D35*
X173001100Y-135003600D03*
X124001100Y-135003600D03*
X124001100Y-75003600D03*
X173001100Y-75003600D03*
D15*
X128320800Y-136531920D03*
X128320800Y-138031920D03*
X168097200Y-98145600D03*
X168097200Y-96645600D03*
D18*
X166166800Y-96926400D03*
X164666800Y-96926400D03*
D15*
X170550000Y-93225000D03*
X170550000Y-94725000D03*
X167295400Y-93221400D03*
X167295400Y-94721400D03*
D18*
X134819520Y-133751320D03*
X133319520Y-133751320D03*
D15*
X172100000Y-85325000D03*
X172100000Y-86825000D03*
X167675000Y-86050000D03*
X167675000Y-84550000D03*
X165049200Y-103491600D03*
X165049200Y-104991600D03*
D36*
X132975000Y-118150000D03*
X132975000Y-116650000D03*
X132975000Y-115150000D03*
X132975000Y-113650000D03*
D37*
X125175000Y-115900000D03*
D38*
X131429760Y-139273280D03*
X132379720Y-139273280D03*
X133329680Y-139273280D03*
X133329680Y-136677400D03*
X131429760Y-136677400D03*
D39*
X169425000Y-86075000D03*
X170725000Y-86075000D03*
X169425000Y-84175000D03*
X170075000Y-86075000D03*
X170725000Y-84175000D03*
D40*
X180492400Y-82135980D03*
X178792400Y-82135980D03*
D12*
X191714360Y-103621040D03*
X189712840Y-102970800D03*
X191714360Y-102320560D03*
X191714360Y-102970800D03*
X189712840Y-102320560D03*
X189712840Y-103621040D03*
D31*
X176006760Y-80343440D03*
X176006760Y-78843440D03*
X147625000Y-83750000D03*
X147625000Y-85250000D03*
D30*
X179825000Y-83667600D03*
X181325000Y-83667600D03*
D10*
G36*
X142815048Y-83812299D02*
X142574483Y-83049326D01*
X143337456Y-82808761D01*
X143578021Y-83571734D01*
X142815048Y-83812299D01*
X142815048Y-83812299D01*
G37*
G36*
X144340996Y-83331169D02*
X144100431Y-82568196D01*
X144863404Y-82327631D01*
X145103969Y-83090604D01*
X144340996Y-83331169D01*
X144340996Y-83331169D01*
G37*
G36*
X136786204Y-84906466D02*
X137026769Y-85669439D01*
X136263796Y-85910004D01*
X136023231Y-85147031D01*
X136786204Y-84906466D01*
X136786204Y-84906466D01*
G37*
G36*
X135260256Y-85387596D02*
X135500821Y-86150569D01*
X134737848Y-86391134D01*
X134497283Y-85628161D01*
X135260256Y-85387596D01*
X135260256Y-85387596D01*
G37*
D41*
X177754280Y-80355440D03*
X182354280Y-80355440D03*
X177754280Y-76855440D03*
D10*
G36*
X141911312Y-83214051D02*
X142181947Y-84072396D01*
X141705088Y-84222749D01*
X141434453Y-83364404D01*
X141911312Y-83214051D01*
X141911312Y-83214051D01*
G37*
G36*
X140480736Y-83665109D02*
X140751371Y-84523454D01*
X140274512Y-84673807D01*
X140003877Y-83815462D01*
X140480736Y-83665109D01*
X140480736Y-83665109D01*
G37*
D18*
X186334400Y-99415600D03*
X184834400Y-99415600D03*
X186322400Y-101142800D03*
X184822400Y-101142800D03*
D42*
X156748400Y-132310360D03*
X156748400Y-130613640D03*
X150075000Y-134328280D03*
X150075000Y-136025000D03*
D10*
G36*
X176987544Y-111982915D02*
X177447171Y-112368587D01*
X177190056Y-112675005D01*
X176730429Y-112289333D01*
X176987544Y-111982915D01*
X176987544Y-111982915D01*
G37*
G36*
X176409036Y-112672355D02*
X176868663Y-113058027D01*
X176611548Y-113364445D01*
X176151921Y-112978773D01*
X176409036Y-112672355D01*
X176409036Y-112672355D01*
G37*
D32*
X147739200Y-87477600D03*
X149339200Y-87477600D03*
D21*
X168515600Y-117604200D03*
D20*
X167540600Y-118329200D03*
X167540600Y-118829200D03*
X167540600Y-119329200D03*
X167540600Y-119829200D03*
X167540600Y-120329200D03*
D21*
X168515600Y-121054200D03*
X170015600Y-121054200D03*
X170015600Y-117604200D03*
D20*
X170990600Y-120329200D03*
X170990600Y-119829200D03*
X170990600Y-119329200D03*
X170990600Y-118829200D03*
X170990600Y-118329200D03*
D22*
X169265600Y-119329200D03*
D12*
X191750760Y-108925240D03*
X189749240Y-108275000D03*
X191750760Y-107624760D03*
X191750760Y-108275000D03*
X189749240Y-107624760D03*
X189749240Y-108925240D03*
D26*
X131700000Y-93000000D03*
D27*
X131700000Y-95000000D03*
D32*
X147775000Y-121675000D03*
X149375000Y-121675000D03*
D18*
X149300000Y-123225000D03*
X147800000Y-123225000D03*
D43*
X162119200Y-147015200D03*
X162119200Y-144675200D03*
X161719200Y-147015200D03*
X161719200Y-144675200D03*
X161319200Y-147015200D03*
X161319200Y-144675200D03*
X160919200Y-147015200D03*
X160919200Y-144675200D03*
X160519200Y-147015200D03*
X160519200Y-144675200D03*
X160119200Y-147015200D03*
X160119200Y-144675200D03*
X159719200Y-147015200D03*
X159719200Y-144675200D03*
X159319200Y-147015200D03*
X159319200Y-144675200D03*
X158919200Y-147015200D03*
X158919200Y-144675200D03*
X158519200Y-147015200D03*
X158519200Y-144675200D03*
X158119200Y-147015200D03*
X158119200Y-144675200D03*
X157719200Y-147015200D03*
X157719200Y-144675200D03*
X157319200Y-147015200D03*
X157319200Y-144675200D03*
X156919200Y-147015200D03*
X156919200Y-144675200D03*
X156519200Y-147015200D03*
X156519200Y-144675200D03*
X156119200Y-147015200D03*
X156119200Y-144675200D03*
X155719200Y-147015200D03*
X155719200Y-144675200D03*
X155319200Y-147015200D03*
X155319200Y-144675200D03*
X154919200Y-147015200D03*
X154919200Y-144675200D03*
X154519200Y-147015200D03*
X154519200Y-144675200D03*
X154119200Y-147015200D03*
X154119200Y-144675200D03*
X153719200Y-147015200D03*
X153719200Y-144675200D03*
X153319200Y-147015200D03*
X153319200Y-144675200D03*
X152919200Y-147015200D03*
X152919200Y-144675200D03*
X152519200Y-147015200D03*
X152519200Y-144675200D03*
X152119200Y-147015200D03*
X152119200Y-144675200D03*
X151719200Y-147015200D03*
X151719200Y-144675200D03*
X151319200Y-147015200D03*
X151319200Y-144675200D03*
X150919200Y-147015200D03*
X150919200Y-144675200D03*
X150519200Y-147015200D03*
X150519200Y-144675200D03*
X150119200Y-147015200D03*
X150119200Y-144675200D03*
X149719200Y-147015200D03*
X149719200Y-144675200D03*
X149319200Y-147015200D03*
X149319200Y-144675200D03*
X148919200Y-147015200D03*
X148919200Y-144675200D03*
X148519200Y-147015200D03*
X148519200Y-144675200D03*
X148119200Y-147015200D03*
X148119200Y-144675200D03*
X147719200Y-147015200D03*
X147719200Y-144675200D03*
X147319200Y-147015200D03*
X147319200Y-144675200D03*
X146919200Y-147015200D03*
X146919200Y-144675200D03*
X146519200Y-147015200D03*
X146519200Y-144675200D03*
X146119200Y-147015200D03*
X146119200Y-144675200D03*
X145719200Y-147015200D03*
X145719200Y-144675200D03*
X145319200Y-147015200D03*
X145319200Y-144675200D03*
X144919200Y-147015200D03*
X144919200Y-144675200D03*
X144519200Y-147015200D03*
X144519200Y-144675200D03*
D44*
X136621520Y-120985040D03*
X136621520Y-120335040D03*
X136621520Y-119685040D03*
X133421520Y-120985040D03*
X133421520Y-119685040D03*
D26*
X165300000Y-95000000D03*
D27*
X165300000Y-93000000D03*
D45*
X133502400Y-149402800D03*
X133502400Y-148302800D03*
D46*
X134728800Y-149402800D03*
X135628800Y-149402800D03*
D47*
X123400000Y-144950000D03*
X123400000Y-142000000D03*
D48*
X124925000Y-143475000D03*
D49*
X150350000Y-151600000D03*
X147700000Y-151600000D03*
D50*
X149450000Y-151250000D03*
X148600000Y-151250000D03*
D49*
X147275000Y-58450000D03*
X149925000Y-58450000D03*
D50*
X148175000Y-58800000D03*
X149025000Y-58800000D03*
D43*
X144512142Y-125040000D03*
X144512142Y-127380000D03*
X144912142Y-125040000D03*
X144912142Y-127380000D03*
X145312142Y-125040000D03*
X145312142Y-127380000D03*
X145712142Y-125040000D03*
X145712142Y-127380000D03*
X146112142Y-125040000D03*
X146112142Y-127380000D03*
X146512142Y-125040000D03*
X146512142Y-127380000D03*
X146912142Y-125040000D03*
X146912142Y-127380000D03*
X147312142Y-125040000D03*
X147312142Y-127380000D03*
X147712142Y-125040000D03*
X147712142Y-127380000D03*
X148112142Y-125040000D03*
X148112142Y-127380000D03*
X148512142Y-125040000D03*
X148512142Y-127380000D03*
X148912142Y-125040000D03*
X148912142Y-127380000D03*
X149312142Y-125040000D03*
X149312142Y-127380000D03*
X149712142Y-125040000D03*
X149712142Y-127380000D03*
X150112142Y-125040000D03*
X150112142Y-127380000D03*
X150512142Y-125040000D03*
X150512142Y-127380000D03*
X150912142Y-125040000D03*
X150912142Y-127380000D03*
X151312142Y-125040000D03*
X151312142Y-127380000D03*
X151712142Y-125040000D03*
X151712142Y-127380000D03*
X152112142Y-125040000D03*
X152112142Y-127380000D03*
X152512142Y-125040000D03*
X152512142Y-127380000D03*
X152912142Y-125040000D03*
X152912142Y-127380000D03*
X153312142Y-125040000D03*
X153312142Y-127380000D03*
X153712142Y-125040000D03*
X153712142Y-127380000D03*
X154112142Y-125040000D03*
X154112142Y-127380000D03*
X154512142Y-125040000D03*
X154512142Y-127380000D03*
X154912142Y-125040000D03*
X154912142Y-127380000D03*
X155312142Y-125040000D03*
X155312142Y-127380000D03*
X155712142Y-125040000D03*
X155712142Y-127380000D03*
X156112142Y-125040000D03*
X156112142Y-127380000D03*
X156512142Y-125040000D03*
X156512142Y-127380000D03*
X156912142Y-125040000D03*
X156912142Y-127380000D03*
X157312142Y-125040000D03*
X157312142Y-127380000D03*
X157712142Y-125040000D03*
X157712142Y-127380000D03*
X158112142Y-125040000D03*
X158112142Y-127380000D03*
X158512142Y-125040000D03*
X158512142Y-127380000D03*
X158912142Y-125040000D03*
X158912142Y-127380000D03*
X159312142Y-125040000D03*
X159312142Y-127380000D03*
X159712142Y-125040000D03*
X159712142Y-127380000D03*
X160112142Y-125040000D03*
X160112142Y-127380000D03*
X160512142Y-125040000D03*
X160512142Y-127380000D03*
X160912142Y-125040000D03*
X160912142Y-127380000D03*
X161312142Y-125040000D03*
X161312142Y-127380000D03*
X161712142Y-125040000D03*
X161712142Y-127380000D03*
X162112142Y-125040000D03*
X162112142Y-127380000D03*
D51*
X168021000Y-125343000D03*
X168021000Y-146703000D03*
X129001000Y-146703000D03*
X129001000Y-125343000D03*
D52*
X125125000Y-125875000D03*
X120075000Y-125875000D03*
D24*
X151425000Y-148825000D03*
X151425000Y-149725000D03*
X148425000Y-148825000D03*
X148425000Y-149725000D03*
X149925000Y-148825000D03*
X149925000Y-149725000D03*
X150217600Y-62215900D03*
X150217600Y-61315900D03*
X151892600Y-62215900D03*
X151892600Y-61315900D03*
D46*
X151674400Y-87477600D03*
X150774400Y-87477600D03*
D45*
X179019200Y-100694400D03*
X179019200Y-101794400D03*
X187416440Y-93207660D03*
X187416440Y-94307660D03*
D25*
X176999720Y-83619340D03*
X178099720Y-83619340D03*
D45*
X175982540Y-100745200D03*
X175982540Y-101845200D03*
D24*
X146151964Y-142852200D03*
X146151964Y-141952200D03*
X144781564Y-141950000D03*
X144781564Y-142850000D03*
X152175000Y-131150000D03*
X152175000Y-130250000D03*
D13*
X107340400Y-112454800D03*
D14*
X107340400Y-108254800D03*
D42*
X123225000Y-113946720D03*
X123225000Y-112250000D03*
D46*
X187125000Y-90424000D03*
X186225000Y-90424000D03*
X158634000Y-129540000D03*
X157734000Y-129540000D03*
D25*
X158123400Y-133237000D03*
X159223400Y-133237000D03*
D45*
X157023400Y-134437000D03*
X157023400Y-135537000D03*
D25*
X158123400Y-132087000D03*
X159223400Y-132087000D03*
D45*
X158198400Y-134437000D03*
X158198400Y-135537000D03*
X154598400Y-134437000D03*
X154598400Y-135537000D03*
X153423400Y-134437000D03*
X153423400Y-135537000D03*
X155848400Y-134437000D03*
X155848400Y-135537000D03*
D53*
X177504083Y-118687568D03*
X185523338Y-109936086D03*
D10*
G36*
X179788733Y-105684980D02*
X180894649Y-106698366D01*
X179881263Y-107804282D01*
X178775347Y-106790896D01*
X179788733Y-105684980D01*
X179788733Y-105684980D01*
G37*
D27*
X177104314Y-105964974D03*
X178118999Y-108617315D03*
X175388315Y-107837659D03*
X176403000Y-110490000D03*
X173672316Y-109710343D03*
X174687001Y-112362684D03*
X171956317Y-111583027D03*
D54*
X173322051Y-117493526D03*
X183962597Y-105881408D03*
D55*
X165506400Y-83210400D03*
X165525000Y-86175000D03*
X147500000Y-81125000D03*
D56*
X143305200Y-149402800D03*
X143305200Y-151332800D03*
X145745200Y-151332800D03*
X145745200Y-149402800D03*
D10*
G36*
X151637000Y-86125443D02*
X150175759Y-85692604D01*
X150608598Y-84231363D01*
X152069839Y-84664202D01*
X151637000Y-86125443D01*
X151637000Y-86125443D01*
G37*
D57*
X151844198Y-82743001D03*
X153558201Y-85899802D03*
X154279600Y-83464400D03*
X155993603Y-86621201D03*
X156715002Y-84185799D03*
X158429005Y-87342600D03*
X159150404Y-84907198D03*
D58*
X178612800Y-78638400D03*
X188041054Y-104357864D03*
D59*
X138277600Y-75006200D03*
D58*
X134154998Y-129178913D03*
D59*
X158900000Y-135000000D03*
D58*
X131905000Y-128924244D03*
D59*
X160175000Y-121725000D03*
X165050000Y-106525000D03*
X132925000Y-125425000D03*
X136625000Y-118397999D03*
D58*
X129329701Y-136825000D03*
D59*
X120975000Y-90985390D03*
X120975000Y-89975000D03*
D58*
X134803600Y-93750000D03*
D59*
X112350000Y-120125000D03*
X114299992Y-127932000D03*
D58*
X118324000Y-102487000D03*
X118324000Y-103687000D03*
X116524000Y-103687000D03*
X116524000Y-102487000D03*
X181850000Y-82700000D03*
D59*
X176575000Y-77875000D03*
D58*
X168669398Y-82475000D03*
X182725000Y-94656094D03*
D59*
X143950000Y-144650000D03*
X190750000Y-108275000D03*
D58*
X157700000Y-126200000D03*
X153300000Y-126200000D03*
X150525000Y-126200000D03*
X160775000Y-143525000D03*
X177475000Y-101825000D03*
X178250000Y-88550000D03*
D59*
X190725000Y-102925000D03*
X139850000Y-133221639D03*
D58*
X171500800Y-93827600D03*
D59*
X154076400Y-140411200D03*
X151333200Y-145846800D03*
X156057600Y-145846800D03*
X161329604Y-145964068D03*
X150150000Y-129150000D03*
X144425074Y-130548735D03*
X121775000Y-141375000D03*
D58*
X122575000Y-127825000D03*
D59*
X131400000Y-122000000D03*
D58*
X174091600Y-95529403D03*
X174091600Y-94360997D03*
D59*
X120142000Y-131572000D03*
X121285000Y-131572000D03*
D58*
X183100000Y-90925000D03*
X174332900Y-91064603D03*
X168650000Y-86050000D03*
X178555320Y-85075000D03*
X177725000Y-82175000D03*
X177137061Y-82200000D03*
X133500000Y-129245558D03*
D59*
X126700000Y-121350191D03*
X125513615Y-122294261D03*
D58*
X174091600Y-96113606D03*
X122832871Y-127197508D03*
X168050000Y-102450000D03*
X128723102Y-140101898D03*
X127541151Y-140483849D03*
X171502514Y-94949740D03*
X174091600Y-94945200D03*
X180150000Y-86150000D03*
X179596058Y-85728942D03*
D59*
X119225000Y-134352002D03*
X124100000Y-122100000D03*
D58*
X114828001Y-134235001D03*
X114935000Y-129667000D03*
D59*
X126205000Y-118735838D03*
X114750000Y-121575000D03*
X120744000Y-119116838D03*
X125682311Y-118213149D03*
X124200000Y-118213149D03*
X122875000Y-118213149D03*
X121647689Y-118213149D03*
X116789000Y-98550000D03*
X119285000Y-136575000D03*
D58*
X179436455Y-96995847D03*
X177100000Y-92525000D03*
X188041044Y-103519663D03*
X178602622Y-85657284D03*
X173045109Y-87406429D03*
X174085084Y-92487786D03*
X165392100Y-73296282D03*
X139708391Y-74834555D03*
X164667552Y-73232181D03*
X139623800Y-75412600D03*
X175818800Y-113741200D03*
D59*
X154133611Y-130003611D03*
X155675000Y-132475000D03*
D58*
X152806400Y-128676400D03*
D59*
X152200000Y-134625000D03*
X152275699Y-136081072D03*
X152403027Y-139878461D03*
X148700000Y-141125000D03*
X153825000Y-137617000D03*
X150302000Y-130475000D03*
D58*
X152260300Y-71145400D03*
X155324784Y-72960545D03*
X166144100Y-100495100D03*
X182400000Y-103500000D03*
X165455600Y-117754400D03*
X162080600Y-137309117D03*
X166448390Y-115163600D03*
X173700000Y-104975000D03*
X154851100Y-72541435D03*
X152819100Y-70561200D03*
X166751000Y-100076000D03*
X174328670Y-104939027D03*
X182514571Y-104072858D03*
X162380900Y-137810227D03*
X166867490Y-115685550D03*
X166053586Y-117562814D03*
D59*
X152425000Y-138050000D03*
X145877003Y-141250000D03*
X145150000Y-141250000D03*
X152175000Y-132575000D03*
D58*
X133324020Y-128688492D03*
D59*
X132715000Y-127124242D03*
D58*
X159798974Y-123998725D03*
X160425000Y-123964398D03*
X189038071Y-94300000D03*
X186750000Y-93976520D03*
X146812000Y-86575900D03*
X183100000Y-89925000D03*
X127900000Y-81775000D03*
X133800000Y-75006451D03*
D59*
X168808400Y-116382800D03*
X160070800Y-117805200D03*
D58*
X163200000Y-132700000D03*
D59*
X145325000Y-130547998D03*
X143697990Y-141045979D03*
X142450000Y-121225000D03*
X141850000Y-120650000D03*
X140425000Y-119050000D03*
X136140001Y-127508000D03*
X136140001Y-126390001D03*
X136100000Y-125125000D03*
X136100000Y-123952000D03*
X136100000Y-123063000D03*
X143475000Y-128300000D03*
X143425000Y-127500000D03*
X145375000Y-123375000D03*
X144550000Y-123375000D03*
X117675000Y-79200000D03*
X117703600Y-76050000D03*
X117703600Y-77063600D03*
X117703600Y-78150000D03*
D58*
X182775000Y-93525000D03*
X144564100Y-89373000D03*
X144576800Y-87041649D03*
X129019300Y-80899000D03*
X164395415Y-89154585D03*
D59*
X120200000Y-107448000D03*
X121151429Y-95752000D03*
X121127000Y-94450000D03*
X122298889Y-112800000D03*
X116400013Y-107400000D03*
D58*
X187611839Y-105000000D03*
X175209265Y-117348603D03*
X178852696Y-97018572D03*
X170992800Y-120904000D03*
X186929675Y-102530349D03*
X178829972Y-97602331D03*
X143052800Y-88133859D03*
D59*
X139875000Y-143575000D03*
X130194999Y-130424245D03*
X130624990Y-131572000D03*
X129921000Y-131574804D03*
X130624990Y-133029168D03*
X129921000Y-133604000D03*
X131257040Y-133661218D03*
X131257040Y-134366000D03*
X130008060Y-134405940D03*
X132199562Y-85305000D03*
X137454033Y-80572262D03*
X121325000Y-111575000D03*
X121325000Y-110875000D03*
X121325000Y-110175000D03*
D58*
X148525000Y-87475000D03*
D59*
X158800800Y-72593200D03*
X132180067Y-72736812D03*
D58*
X131724400Y-76314300D03*
X176168194Y-81764892D03*
X126875000Y-138575000D03*
X123750000Y-129296370D03*
X168700000Y-84175000D03*
D59*
X145475000Y-142904000D03*
D58*
X186916757Y-98458243D03*
D59*
X126300000Y-84175000D03*
D58*
X174175000Y-93350000D03*
X177475000Y-100725000D03*
X183025000Y-92925000D03*
X161341822Y-140971022D03*
D59*
X146507200Y-130200400D03*
X164451180Y-119610696D03*
X165250000Y-135000000D03*
X149925000Y-150475000D03*
X138348720Y-135803640D03*
X138343640Y-134965440D03*
X138333480Y-134147560D03*
X137598001Y-136255760D03*
X137598001Y-135453120D03*
X137598001Y-134599680D03*
X137601960Y-133715760D03*
D58*
X156798319Y-139050000D03*
X154975000Y-140575000D03*
X163300000Y-139175000D03*
X167050000Y-139175000D03*
X174991666Y-80833833D03*
X173718219Y-86395668D03*
X175419912Y-81231195D03*
X174137319Y-87100000D03*
X158891508Y-121818400D03*
X154894810Y-128455602D03*
X166573200Y-118821200D03*
X155490920Y-128709601D03*
X162102800Y-115685549D03*
X154256584Y-128452814D03*
X153691824Y-128705376D03*
X163293300Y-115685549D03*
X164033200Y-120904000D03*
X161009570Y-124027738D03*
X166027100Y-119585836D03*
X161625000Y-123964398D03*
X157909203Y-148175000D03*
X178225000Y-100238800D03*
X157325000Y-148175000D03*
X179951801Y-100550000D03*
X156740797Y-148175000D03*
X181141485Y-90453963D03*
X160155513Y-69435223D03*
X160150000Y-72199283D03*
X156156594Y-148175000D03*
X180771614Y-90001761D03*
X160750000Y-69437012D03*
X160750000Y-72199283D03*
X158554468Y-123964398D03*
X161375000Y-72199283D03*
X161375000Y-69437012D03*
X180485344Y-89492506D03*
X159215237Y-124028101D03*
X161975000Y-69437012D03*
X161975000Y-72199283D03*
X180093479Y-89059223D03*
X161444196Y-131527818D03*
X179755800Y-88582500D03*
X162575000Y-69437012D03*
X162575000Y-72199283D03*
X161750052Y-132025558D03*
X160274127Y-130244770D03*
X159550000Y-72199283D03*
X159550000Y-69437012D03*
X171513500Y-89420700D03*
X160325000Y-135000000D03*
X159761001Y-129965497D03*
X183147404Y-100175000D03*
X161140325Y-131028865D03*
X181725000Y-100200000D03*
X160704549Y-130639775D03*
X182309203Y-100200000D03*
X183750000Y-100175000D03*
X128207499Y-89492501D03*
X146796895Y-87460749D03*
X181550000Y-94656093D03*
X143802100Y-86156800D03*
X143800000Y-89600000D03*
X123205900Y-91950000D03*
X150952200Y-88322880D03*
X128032445Y-90049858D03*
X180705449Y-94656094D03*
X153390828Y-148455900D03*
X153975000Y-148450000D03*
X126722283Y-79164566D03*
X119886595Y-139373611D03*
X148030692Y-143168537D03*
X126961900Y-78524100D03*
X119303590Y-139410989D03*
X148425000Y-143599598D03*
X127857149Y-79482849D03*
X146965797Y-142832600D03*
X121075000Y-139373611D03*
X127273998Y-79418576D03*
X120470798Y-139373611D03*
X147550000Y-142832600D03*
X162301637Y-131833085D03*
X162250001Y-132425000D03*
X155500284Y-136799716D03*
X155049716Y-137250284D03*
X190664199Y-106617007D03*
X151675000Y-88322880D03*
X158925000Y-145850000D03*
X155989728Y-72975001D03*
X167014394Y-144155900D03*
X166188654Y-146013655D03*
X188993588Y-105840556D03*
X157149800Y-72821800D03*
X190960364Y-107146938D03*
X156568776Y-72897575D03*
X191093234Y-104937891D03*
X175045692Y-100586550D03*
X188994448Y-106525141D03*
X175049939Y-101175000D03*
X189425000Y-106950000D03*
X187901376Y-105850000D03*
X180075000Y-96764344D03*
X130962400Y-74790300D03*
X136460634Y-75100435D03*
X127555035Y-76605883D03*
X118135371Y-139400771D03*
X147775000Y-145975000D03*
X131038600Y-75399900D03*
X135483600Y-75097998D03*
X127528059Y-77225556D03*
X118719560Y-139396840D03*
X147225000Y-145750802D03*
D60*
X121775000Y-141375000D02*
X121775000Y-141975000D01*
X121775000Y-141975000D02*
X121800000Y-142000000D01*
X179440953Y-72752681D02*
X179440953Y-73954762D01*
X179440953Y-73954762D02*
X179967710Y-74481519D01*
X179967710Y-74481519D02*
X179967710Y-77283490D01*
X179967710Y-77283490D02*
X178612800Y-78638400D01*
X181528494Y-70293039D02*
X181528494Y-70665140D01*
X181528494Y-70665140D02*
X179440953Y-72752681D01*
D61*
X128100000Y-119175000D02*
X128100000Y-119960000D01*
X128100000Y-119960000D02*
X128434400Y-120294400D01*
D62*
X128100000Y-119989600D02*
X128100000Y-118761200D01*
X125704400Y-115900000D02*
X128100000Y-118295600D01*
X128100000Y-118295600D02*
X128100000Y-119175000D01*
X125175000Y-115900000D02*
X125704400Y-115900000D01*
D61*
X132975000Y-113650000D02*
X133895200Y-113650000D01*
X133895200Y-113650000D02*
X134670800Y-114425600D01*
D63*
X123400000Y-142000000D02*
X127626600Y-142000000D01*
X127626600Y-142000000D02*
X133502400Y-147875800D01*
X133502400Y-147875800D02*
X133502400Y-148302800D01*
X189749240Y-104949760D02*
X190124760Y-104949760D01*
X190350000Y-105175000D02*
X190350000Y-105710110D01*
X190124760Y-104949760D02*
X190350000Y-105175000D01*
X190350000Y-105710110D02*
X190890130Y-106250240D01*
X190890130Y-106250240D02*
X191750760Y-106250240D01*
X189749240Y-104949760D02*
X188632950Y-104949760D01*
X188632950Y-104949760D02*
X188041054Y-104357864D01*
D64*
X146275000Y-138100000D02*
X146275000Y-138000000D01*
X146275000Y-138000000D02*
X144425074Y-136150074D01*
X144425074Y-136150074D02*
X144425074Y-130972999D01*
X144425074Y-130972999D02*
X144425074Y-130548735D01*
D60*
X147625000Y-85250000D02*
X151051202Y-85250000D01*
X151051202Y-85250000D02*
X151122799Y-85178403D01*
X140360400Y-78074756D02*
X140360400Y-77089000D01*
X140360400Y-77089000D02*
X138277600Y-75006200D01*
X141748857Y-79463213D02*
X140360400Y-78074756D01*
X140360400Y-78074756D02*
X140360400Y-73202800D01*
X131452420Y-81915512D02*
X133760140Y-81915512D01*
X133760140Y-81915512D02*
X136212439Y-79463213D01*
X136212439Y-79463213D02*
X141748857Y-79463213D01*
X141748857Y-79463213D02*
X142819402Y-80533758D01*
X142819402Y-80533758D02*
X142819402Y-80737891D01*
X144602200Y-82829400D02*
X144602200Y-83464400D01*
X144602200Y-83464400D02*
X141681200Y-86385400D01*
X141681200Y-86385400D02*
X135495087Y-86385400D01*
X135495087Y-86385400D02*
X134999052Y-85889365D01*
X144602200Y-82829400D02*
X144602200Y-82520689D01*
X144602200Y-82520689D02*
X142819402Y-80737891D01*
X141775764Y-72788811D02*
X141571632Y-72788811D01*
X141571632Y-72788811D02*
X141157643Y-73202800D01*
X141157643Y-73202800D02*
X140360400Y-73202800D01*
X139623800Y-72466200D02*
X140360400Y-73202800D01*
X139623800Y-71224258D02*
X139623800Y-72466200D01*
X140933788Y-70118404D02*
X140729654Y-70118404D01*
X140729654Y-70118404D02*
X139623800Y-71224258D01*
D61*
X140933788Y-70118404D02*
X140933788Y-69204188D01*
X140933788Y-69204188D02*
X140512800Y-68783200D01*
D63*
X132375528Y-81831128D02*
X132344400Y-81800000D01*
X142975000Y-72593578D02*
X142606422Y-72225000D01*
X142656862Y-72868972D02*
X142656862Y-72868138D01*
D60*
X159223400Y-133237000D02*
X159223400Y-132087000D01*
X159223400Y-133237000D02*
X159223400Y-134676600D01*
X159223400Y-134676600D02*
X158900000Y-135000000D01*
X158198400Y-135537000D02*
X158363000Y-135537000D01*
X158363000Y-135537000D02*
X158900000Y-135000000D01*
X157023400Y-135537000D02*
X158198400Y-135537000D01*
X155848400Y-135537000D02*
X157023400Y-135537000D01*
X154598400Y-135537000D02*
X155848400Y-135537000D01*
X153423400Y-135537000D02*
X154598400Y-135537000D01*
D64*
X147202001Y-137172999D02*
X146275000Y-138100000D01*
X147202001Y-137172999D02*
X147202001Y-134652001D01*
X147202001Y-134652001D02*
X146700000Y-134150000D01*
D65*
X161874200Y-121184600D02*
X161874200Y-121703202D01*
X161874200Y-121703202D02*
X161715801Y-121861601D01*
X161715801Y-121861601D02*
X160735865Y-121861601D01*
X160735865Y-121861601D02*
X160599264Y-121725000D01*
X160599264Y-121725000D02*
X160175000Y-121725000D01*
X165049200Y-104991600D02*
X165049200Y-106524200D01*
X165049200Y-106524200D02*
X165050000Y-106525000D01*
D60*
X136621520Y-119685040D02*
X136621520Y-118401479D01*
X136621520Y-118401479D02*
X136625000Y-118397999D01*
X129329701Y-136825000D02*
X129652990Y-136825000D01*
X129652990Y-136825000D02*
X131124829Y-138296839D01*
X131124829Y-138296839D02*
X132005681Y-138296839D01*
X128320800Y-136531920D02*
X129036621Y-136531920D01*
X129036621Y-136531920D02*
X129329701Y-136825000D01*
X129731918Y-136531920D02*
X128320800Y-136531920D01*
D61*
X120975000Y-89975000D02*
X120975000Y-90985390D01*
X131700000Y-93000000D02*
X122989610Y-93000000D01*
X122989610Y-93000000D02*
X120975000Y-90985390D01*
X131700000Y-93000000D02*
X134053600Y-93000000D01*
X134053600Y-93000000D02*
X134803600Y-93750000D01*
D62*
X125175000Y-115900000D02*
X125175000Y-115896720D01*
X125175000Y-115896720D02*
X123332201Y-114053921D01*
X123332201Y-114053921D02*
X123225000Y-114053921D01*
D65*
X181325000Y-83667600D02*
X181325000Y-83225000D01*
X181325000Y-83225000D02*
X181850000Y-82700000D01*
X176006760Y-78843440D02*
X176006760Y-78443240D01*
X176006760Y-78443240D02*
X176575000Y-77875000D01*
D63*
X168669398Y-82475000D02*
X168669398Y-82700000D01*
X167675000Y-84550000D02*
X167675000Y-84173000D01*
X167675000Y-84173000D02*
X168669398Y-83178602D01*
X168669398Y-83178602D02*
X168669398Y-82700000D01*
X167875000Y-84550000D02*
X167675000Y-84550000D01*
D66*
X178252120Y-87383620D02*
X178252120Y-86434320D01*
X178252120Y-86434320D02*
X178099720Y-86281920D01*
X178099720Y-86281920D02*
X178099720Y-83619340D01*
X182725000Y-94656094D02*
X182948974Y-94432120D01*
X182948974Y-94432120D02*
X184299860Y-94432120D01*
X144519200Y-144675200D02*
X143975200Y-144675200D01*
X143975200Y-144675200D02*
X143950000Y-144650000D01*
X144275000Y-145450000D02*
X143950000Y-145125000D01*
X143950000Y-145125000D02*
X143950000Y-144650000D01*
X144519200Y-145694200D02*
X144275000Y-145450000D01*
X145135600Y-145846800D02*
X144671800Y-145846800D01*
X144671800Y-145846800D02*
X144275000Y-145450000D01*
X144519200Y-147015200D02*
X144519200Y-145694200D01*
D67*
X190399290Y-107624760D02*
X189749240Y-107624760D01*
X190399290Y-107624760D02*
X190750000Y-107975470D01*
X190750000Y-108275000D02*
X190750000Y-107975470D01*
D65*
X191750760Y-108925240D02*
X191100710Y-108925240D01*
X191100710Y-108925240D02*
X190750000Y-108574530D01*
X190750000Y-108574530D02*
X190750000Y-108275000D01*
D66*
X160272142Y-126200000D02*
X159900000Y-126200000D01*
X159900000Y-126200000D02*
X159100000Y-126200000D01*
X161052142Y-126200000D02*
X159900000Y-126200000D01*
X161312142Y-127380000D02*
X161312142Y-126460000D01*
X161312142Y-126460000D02*
X161052142Y-126200000D01*
X159452142Y-126200000D02*
X159100000Y-126200000D01*
X159100000Y-126200000D02*
X158023289Y-126200000D01*
X160512142Y-125040000D02*
X160512142Y-125960000D01*
X160512142Y-125960000D02*
X160272142Y-126200000D01*
X159712142Y-127380000D02*
X159712142Y-126460000D01*
X159712142Y-126460000D02*
X159452142Y-126200000D01*
X158023289Y-126200000D02*
X157700000Y-126200000D01*
X158512142Y-125040000D02*
X158512142Y-125960000D01*
X158512142Y-125960000D02*
X158272142Y-126200000D01*
X158272142Y-126200000D02*
X158023289Y-126200000D01*
X156512142Y-125040000D02*
X156512142Y-125868602D01*
X156512142Y-125868602D02*
X156843540Y-126200000D01*
X156843540Y-126200000D02*
X157376711Y-126200000D01*
X157376711Y-126200000D02*
X157700000Y-126200000D01*
X157712142Y-127380000D02*
X157712142Y-126212142D01*
X157712142Y-126212142D02*
X157700000Y-126200000D01*
X152512142Y-125040000D02*
X152512142Y-125960000D01*
X152752142Y-126200000D02*
X152976711Y-126200000D01*
X152512142Y-125960000D02*
X152752142Y-126200000D01*
X152976711Y-126200000D02*
X153300000Y-126200000D01*
X153312142Y-127380000D02*
X153312142Y-126212142D01*
X153312142Y-126212142D02*
X153300000Y-126200000D01*
X153312142Y-125040000D02*
X153312142Y-126187858D01*
X153312142Y-126187858D02*
X153300000Y-126200000D01*
X153300000Y-126200000D02*
X153523289Y-126200000D01*
X153523289Y-126200000D02*
X153712142Y-126011147D01*
X153712142Y-126011147D02*
X153712142Y-125040000D01*
X153200000Y-126200000D02*
X153312142Y-126312142D01*
X153312142Y-126312142D02*
X153312142Y-127380000D01*
X153200000Y-126200000D02*
X153523289Y-126200000D01*
X153312142Y-125040000D02*
X153312142Y-126087858D01*
X153312142Y-126087858D02*
X153200000Y-126200000D01*
X153200000Y-126200000D02*
X152752142Y-126200000D01*
X151712142Y-125040000D02*
X151712142Y-125960000D01*
X151712142Y-125960000D02*
X151472142Y-126200000D01*
X151472142Y-126200000D02*
X150848289Y-126200000D01*
X150848289Y-126200000D02*
X150525000Y-126200000D01*
X150512142Y-127380000D02*
X150512142Y-126212858D01*
X150512142Y-126212858D02*
X150525000Y-126200000D01*
X150512142Y-125040000D02*
X150512142Y-126187142D01*
X150512142Y-126187142D02*
X150525000Y-126200000D01*
X146112142Y-127380000D02*
X146112142Y-126460000D01*
X150201711Y-126200000D02*
X150525000Y-126200000D01*
X146112142Y-126460000D02*
X146372142Y-126200000D01*
X146372142Y-126200000D02*
X150201711Y-126200000D01*
D63*
X160775000Y-142600000D02*
X160775000Y-143525000D01*
D66*
X179019200Y-101794400D02*
X177505600Y-101794400D01*
X177505600Y-101794400D02*
X177475000Y-101825000D01*
X175982540Y-101845200D02*
X177454800Y-101845200D01*
X177454800Y-101845200D02*
X177475000Y-101825000D01*
X184299860Y-94432120D02*
X186292880Y-94432120D01*
D63*
X178252120Y-87383620D02*
X178252120Y-88547880D01*
X178252120Y-88547880D02*
X178250000Y-88550000D01*
D65*
X190725000Y-102925000D02*
X190725000Y-102500736D01*
X190725000Y-102500736D02*
X190544824Y-102320560D01*
X190544824Y-102320560D02*
X190362890Y-102320560D01*
X189712840Y-102320560D02*
X190362890Y-102320560D01*
X191714360Y-103621040D02*
X191064310Y-103621040D01*
X191064310Y-103621040D02*
X190725000Y-103281730D01*
X190725000Y-103281730D02*
X190725000Y-102925000D01*
D63*
X167875000Y-84550000D02*
X168909499Y-85584499D01*
X168909499Y-85584499D02*
X170661499Y-85584499D01*
X170661499Y-85584499D02*
X170725000Y-85648000D01*
X170725000Y-85648000D02*
X170725000Y-86075000D01*
X170725000Y-86075000D02*
X171727000Y-86075000D01*
X171727000Y-86075000D02*
X172100000Y-85702000D01*
X172100000Y-85702000D02*
X172100000Y-85325000D01*
D68*
X167295400Y-94721400D02*
X167021400Y-94721400D01*
X167021400Y-94721400D02*
X165300000Y-93000000D01*
D65*
X164666800Y-96926400D02*
X164666800Y-98528000D01*
X164666800Y-98528000D02*
X164642800Y-98552000D01*
X167295400Y-94721400D02*
X167295400Y-95221400D01*
X167295400Y-95221400D02*
X166292401Y-96224399D01*
X166292401Y-96224399D02*
X165168801Y-96224399D01*
X165168801Y-96224399D02*
X164666800Y-96726400D01*
X164666800Y-96726400D02*
X164666800Y-96926400D01*
X168921000Y-94733400D02*
X167307400Y-94733400D01*
X167307400Y-94733400D02*
X167295400Y-94721400D01*
D63*
X172702220Y-93931740D02*
X171604940Y-93931740D01*
X171604940Y-93931740D02*
X171500800Y-93827600D01*
D66*
X184299860Y-94432120D02*
X187291980Y-94432120D01*
X187291980Y-94432120D02*
X187416440Y-94307660D01*
X179019200Y-101794400D02*
X179019200Y-101744400D01*
X179019200Y-101744400D02*
X179496201Y-101267399D01*
X179496201Y-101267399D02*
X179496201Y-100176421D01*
X179496201Y-100176421D02*
X179250340Y-99930560D01*
X179250340Y-99930560D02*
X179250340Y-98981260D01*
X175982540Y-101845200D02*
X175982540Y-101795200D01*
X175982540Y-101795200D02*
X175505539Y-101318199D01*
X175505539Y-101318199D02*
X175505539Y-100177781D01*
X175505539Y-100177781D02*
X175752760Y-99930560D01*
X175752760Y-99930560D02*
X175752760Y-98981260D01*
D69*
X170990600Y-118329200D02*
X172486377Y-118329200D01*
X172486377Y-118329200D02*
X173322051Y-117493526D01*
X170990600Y-119829200D02*
X169765600Y-119829200D01*
X169765600Y-119829200D02*
X169265600Y-119329200D01*
X168515600Y-121054200D02*
X168515600Y-120079200D01*
X168515600Y-120079200D02*
X169265600Y-119329200D01*
X167540600Y-119329200D02*
X169265600Y-119329200D01*
X168515600Y-117604200D02*
X168515600Y-118579200D01*
X168515600Y-118579200D02*
X169265600Y-119329200D01*
X170990600Y-118329200D02*
X170265600Y-118329200D01*
X170265600Y-118329200D02*
X169265600Y-119329200D01*
D66*
X146670800Y-145846800D02*
X145135600Y-145846800D01*
X146119200Y-144675200D02*
X146119200Y-145503802D01*
X146119200Y-145503802D02*
X145776202Y-145846800D01*
X145776202Y-145846800D02*
X145135600Y-145846800D01*
X146919200Y-147015200D02*
X146919200Y-146095200D01*
X146919200Y-146095200D02*
X146670800Y-145846800D01*
X151333200Y-145846800D02*
X150063200Y-145846800D01*
X149319200Y-147015200D02*
X149319200Y-146095200D01*
X150063200Y-145846800D02*
X149570800Y-145846800D01*
X149319200Y-146095200D02*
X149567600Y-145846800D01*
X149567600Y-145846800D02*
X150063200Y-145846800D01*
X149570800Y-145846800D02*
X149319200Y-145595200D01*
X149319200Y-145595200D02*
X149319200Y-144675200D01*
X151319200Y-144675200D02*
X151319200Y-145832800D01*
X151319200Y-145832800D02*
X151333200Y-145846800D01*
X152519200Y-147015200D02*
X152519200Y-146095200D01*
X152519200Y-146095200D02*
X152270800Y-145846800D01*
X152270800Y-145846800D02*
X151333200Y-145846800D01*
X155167600Y-145846800D02*
X155346400Y-145846800D01*
X155346400Y-145846800D02*
X155633336Y-145846800D01*
X154119200Y-144675200D02*
X154119200Y-145595200D01*
X154119200Y-145595200D02*
X154370800Y-145846800D01*
X154370800Y-145846800D02*
X155346400Y-145846800D01*
X154919200Y-147015200D02*
X154919200Y-146095200D01*
X154919200Y-146095200D02*
X155167600Y-145846800D01*
X155633336Y-145846800D02*
X156057600Y-145846800D01*
X156057600Y-145846800D02*
X155570800Y-145846800D01*
X155570800Y-145846800D02*
X155319200Y-145595200D01*
X155319200Y-145595200D02*
X155319200Y-144675200D01*
X156057600Y-145846800D02*
X156267600Y-145846800D01*
X156267600Y-145846800D02*
X156519200Y-145595200D01*
X156519200Y-145595200D02*
X156519200Y-144675200D01*
X157870800Y-145846800D02*
X157175200Y-145846800D01*
X157175200Y-145846800D02*
X156057600Y-145846800D01*
X156770800Y-145846800D02*
X157175200Y-145846800D01*
X156119200Y-147015200D02*
X156119200Y-145908400D01*
X156119200Y-145908400D02*
X156057600Y-145846800D01*
X156481864Y-145846800D02*
X156057600Y-145846800D01*
X158119200Y-147015200D02*
X158119200Y-146095200D01*
X158119200Y-146095200D02*
X157870800Y-145846800D01*
X159319200Y-147015200D02*
X159319200Y-146095200D01*
X159319200Y-146095200D02*
X159450332Y-145964068D01*
X159450332Y-145964068D02*
X160905340Y-145964068D01*
X160905340Y-145964068D02*
X161329604Y-145964068D01*
X161319200Y-147015200D02*
X161319200Y-145974472D01*
X161319200Y-145974472D02*
X161329604Y-145964068D01*
X160119200Y-147015200D02*
X160119200Y-146095200D01*
X160119200Y-146095200D02*
X160250332Y-145964068D01*
X160250332Y-145964068D02*
X161329604Y-145964068D01*
D65*
X163374200Y-121184600D02*
X163374200Y-120459600D01*
X163374200Y-120459600D02*
X162374200Y-119459600D01*
X161874200Y-121184600D02*
X161874200Y-119959600D01*
X161874200Y-119959600D02*
X162374200Y-119459600D01*
X160649200Y-118709600D02*
X161624200Y-118709600D01*
X161624200Y-118709600D02*
X162374200Y-119459600D01*
X162374200Y-117734600D02*
X162374200Y-119459600D01*
X164099200Y-118709600D02*
X163124200Y-118709600D01*
X163124200Y-118709600D02*
X162374200Y-119459600D01*
D66*
X159725000Y-141650000D02*
X160525000Y-141650000D01*
X160525000Y-141650000D02*
X160775000Y-141900000D01*
X160775000Y-141900000D02*
X160775000Y-142600000D01*
X159475000Y-142600000D02*
X159475000Y-141900000D01*
X159475000Y-141900000D02*
X159725000Y-141650000D01*
D60*
X152175000Y-130250000D02*
X151250000Y-130250000D01*
X151250000Y-130250000D02*
X150150000Y-129150000D01*
X123400000Y-142000000D02*
X122400000Y-142000000D01*
X122400000Y-142000000D02*
X121775000Y-141375000D01*
X123400000Y-142000000D02*
X121800000Y-142000000D01*
X121800000Y-142000000D02*
X121100000Y-142700000D01*
X121100000Y-142700000D02*
X121100000Y-144250000D01*
X121100000Y-144250000D02*
X121800000Y-144950000D01*
X121800000Y-144950000D02*
X123400000Y-144950000D01*
D65*
X173001100Y-134215900D02*
X173001100Y-135003600D01*
D62*
X129675000Y-113650000D02*
X128080000Y-113650000D01*
X128080000Y-113650000D02*
X125830000Y-115900000D01*
X125175000Y-115900000D02*
X125830000Y-115900000D01*
X127425000Y-115900000D02*
X128100000Y-116575000D01*
X125175000Y-115900000D02*
X127425000Y-115900000D01*
X128100000Y-116275000D02*
X128100000Y-119175000D01*
X120075000Y-125875000D02*
X120100000Y-125875000D01*
X120100000Y-125875000D02*
X122503738Y-123471262D01*
X122503738Y-123471262D02*
X126320891Y-123471262D01*
X126320891Y-123471262D02*
X128100000Y-121692153D01*
X128100000Y-119989600D02*
X128100000Y-121692153D01*
X122535001Y-130971999D02*
X122535001Y-132000000D01*
X122535001Y-132000000D02*
X122535001Y-133537501D01*
D60*
X122575000Y-127825000D02*
X122346401Y-128053599D01*
X122346401Y-128053599D02*
X122346401Y-131811400D01*
X122346401Y-131811400D02*
X122535001Y-132000000D01*
D62*
X120075000Y-125875000D02*
X120075000Y-128511998D01*
X120075000Y-128511998D02*
X122535001Y-130971999D01*
X122535001Y-133537501D02*
X124001100Y-135003600D01*
X130725000Y-113650000D02*
X129868800Y-114506200D01*
X128100000Y-119175000D02*
X128100000Y-119989600D01*
X130725000Y-113650000D02*
X128100000Y-116275000D01*
X127425000Y-115900000D02*
X129675000Y-113650000D01*
D60*
X131061788Y-135493010D02*
X132136270Y-135493010D01*
X132136270Y-135493010D02*
X132607960Y-135021320D01*
X132607960Y-135021320D02*
X133407960Y-135021320D01*
X128320800Y-136531920D02*
X130022878Y-136531920D01*
X130022878Y-136531920D02*
X131061788Y-135493010D01*
X125529420Y-136531920D02*
X124001100Y-135003600D01*
X130778439Y-137578441D02*
X129731918Y-136531920D01*
X131496837Y-138296839D02*
X130778439Y-137578441D01*
X132379720Y-139273280D02*
X132379720Y-138670878D01*
X132379720Y-138670878D02*
X132005681Y-138296839D01*
X132005681Y-138296839D02*
X131496837Y-138296839D01*
D62*
X130725000Y-113650000D02*
X132975000Y-113650000D01*
X129675000Y-113650000D02*
X130725000Y-113650000D01*
X128100000Y-116575000D02*
X128100000Y-119175000D01*
D65*
X168097200Y-96645600D02*
X168097200Y-96145600D01*
X168097200Y-96145600D02*
X168627590Y-95615210D01*
X168627590Y-95615210D02*
X171196000Y-95615210D01*
X171196000Y-95615210D02*
X171380870Y-95430340D01*
X171380870Y-95430340D02*
X172702220Y-95430340D01*
X168097200Y-96645600D02*
X166447600Y-96645600D01*
X166447600Y-96645600D02*
X166166800Y-96926400D01*
X166142800Y-98552000D02*
X166142800Y-96950400D01*
X166142800Y-96950400D02*
X166166800Y-96926400D01*
D63*
X172702220Y-95430340D02*
X173992537Y-95430340D01*
X173992537Y-95430340D02*
X174091600Y-95529403D01*
D65*
X170550000Y-94725000D02*
X170842880Y-94432120D01*
X170842880Y-94432120D02*
X172702220Y-94432120D01*
X170550000Y-94725000D02*
X170412600Y-94725000D01*
X170412600Y-94725000D02*
X168921000Y-93233400D01*
X168921000Y-93233400D02*
X167307400Y-93233400D01*
X167307400Y-93233400D02*
X167295400Y-93221400D01*
X168929400Y-93225000D02*
X168921000Y-93233400D01*
D63*
X172702220Y-94432120D02*
X174020477Y-94432120D01*
X174020477Y-94432120D02*
X174091600Y-94360997D01*
D65*
X133329680Y-136677400D02*
X133329680Y-136352280D01*
X133329680Y-136352280D02*
X133959961Y-135721999D01*
X133959961Y-135721999D02*
X133959961Y-134591761D01*
X133959961Y-134591761D02*
X133319520Y-133951320D01*
X133319520Y-133951320D02*
X133319520Y-133751320D01*
D63*
X133696520Y-133751320D02*
X133319520Y-133751320D01*
D61*
X133295280Y-133727080D02*
X133319520Y-133751320D01*
X133295280Y-131201160D02*
X133295280Y-133727080D01*
D63*
X170075000Y-86502000D02*
X166933730Y-89643270D01*
X166933730Y-89643270D02*
X164263830Y-89643270D01*
X164263830Y-89643270D02*
X163976314Y-89355754D01*
X171523000Y-86825000D02*
X172100000Y-86825000D01*
X183100000Y-90925000D02*
X184290320Y-90925000D01*
X184290320Y-90925000D02*
X184299860Y-90934540D01*
X184299516Y-90934196D02*
X184299860Y-90934540D01*
X184309400Y-90925000D02*
X184299860Y-90934540D01*
X174050000Y-88631970D02*
X174008030Y-88590000D01*
X174332900Y-88914870D02*
X174008030Y-88590000D01*
X174008030Y-88590000D02*
X173464209Y-88046179D01*
X174332900Y-91064603D02*
X174332900Y-88914870D01*
X173200000Y-86825000D02*
X172100000Y-86825000D01*
X173464209Y-88046179D02*
X173464209Y-87089209D01*
X173464209Y-87089209D02*
X173200000Y-86825000D01*
X170075000Y-86075000D02*
X170075000Y-86502000D01*
X170398000Y-86825000D02*
X171523000Y-86825000D01*
X170075000Y-86502000D02*
X170398000Y-86825000D01*
X165525000Y-86175000D02*
X167550000Y-86175000D01*
X167550000Y-86175000D02*
X167675000Y-86050000D01*
X168650000Y-86050000D02*
X167675000Y-86050000D01*
X169425000Y-86075000D02*
X168675000Y-86075000D01*
X168675000Y-86075000D02*
X168650000Y-86050000D01*
X179282901Y-82688381D02*
X179282901Y-80067600D01*
X179282901Y-80067600D02*
X183332459Y-76018042D01*
X179282901Y-82688381D02*
X178590221Y-83381061D01*
X178590221Y-83381061D02*
X178590221Y-85040099D01*
X178590221Y-85040099D02*
X178555320Y-85075000D01*
X179527200Y-74930000D02*
X177495200Y-72898000D01*
X177495200Y-72898000D02*
X177495200Y-71120000D01*
X179527200Y-76947800D02*
X179527200Y-74930000D01*
X176963779Y-79511221D02*
X179527200Y-76947800D01*
X177725000Y-82175000D02*
X176963779Y-81413779D01*
X176963779Y-81413779D02*
X176963779Y-79511221D01*
X179273190Y-75035214D02*
X175549447Y-71311471D01*
X175549447Y-71311471D02*
X175549447Y-69487320D01*
X179273190Y-76842586D02*
X179273190Y-75035214D01*
X176709770Y-79406006D02*
X179273190Y-76842586D01*
X176709769Y-81772708D02*
X176709770Y-79406006D01*
X177137061Y-82200000D02*
X176709769Y-81772708D01*
X133500000Y-129245558D02*
X133825000Y-128920558D01*
X133709479Y-128523972D02*
X133709479Y-122645973D01*
X133709479Y-122645973D02*
X132731019Y-121667513D01*
X132731019Y-121667513D02*
X132731019Y-120125541D01*
X132731019Y-120125541D02*
X133171520Y-119685040D01*
X133171520Y-119685040D02*
X133421520Y-119685040D01*
X133825000Y-128920558D02*
X133825000Y-128639493D01*
X133825000Y-128639493D02*
X133709479Y-128523972D01*
D60*
X133421520Y-119685040D02*
X133421520Y-118596520D01*
X133421520Y-118596520D02*
X132975000Y-118150000D01*
D63*
X133225000Y-118150000D02*
X132975000Y-118150000D01*
D65*
X126700000Y-121350191D02*
X126457685Y-121350191D01*
X126457685Y-121350191D02*
X125513615Y-122294261D01*
D63*
X170725000Y-84175000D02*
X170725000Y-84085000D01*
X170725000Y-84085000D02*
X169490000Y-82850000D01*
X169490000Y-82850000D02*
X169275000Y-82850000D01*
X172702220Y-95930720D02*
X169397680Y-95930720D01*
X169397680Y-95930720D02*
X168835302Y-96493098D01*
X168699601Y-98586101D02*
X167902897Y-98586101D01*
X126076600Y-89001600D02*
X117700000Y-89001600D01*
X163271200Y-97230148D02*
X155172452Y-89131400D01*
X168835302Y-96493098D02*
X168835302Y-98450400D01*
X166994488Y-99494510D02*
X163910511Y-99494511D01*
X155172452Y-89131400D02*
X150603232Y-89131400D01*
X168835302Y-98450400D02*
X168699601Y-98586101D01*
X167902897Y-98586101D02*
X166994488Y-99494510D01*
X163910511Y-99494511D02*
X163661000Y-99245000D01*
X163661000Y-99245000D02*
X163659400Y-99245000D01*
X163659400Y-99245000D02*
X163271200Y-98856800D01*
X125628541Y-138394101D02*
X127391601Y-136631041D01*
X163271200Y-98856800D02*
X163271200Y-97230148D01*
X127550000Y-90475000D02*
X126076600Y-89001600D01*
X150603232Y-89131400D02*
X150425732Y-88953900D01*
X150425732Y-88953900D02*
X129721100Y-88953900D01*
X129721100Y-88953900D02*
X128200000Y-90475000D01*
X117700000Y-89001600D02*
X115909508Y-90792092D01*
X128200000Y-90475000D02*
X127550000Y-90475000D01*
X115909508Y-90792092D02*
X115909508Y-107606825D01*
X115909508Y-107606825D02*
X118209489Y-109906806D01*
X118209489Y-109906806D02*
X118209489Y-134229931D01*
X125628541Y-131613099D02*
X124506181Y-131613099D01*
X118209489Y-134229931D02*
X122373659Y-138394101D01*
X122786911Y-128338089D02*
X123061470Y-128063530D01*
X122373659Y-138394101D02*
X125628541Y-138394101D01*
X127391601Y-133376159D02*
X125628541Y-131613099D01*
X127391601Y-136631041D02*
X127391601Y-133376159D01*
X123061470Y-128063530D02*
X123061470Y-127426107D01*
X124506181Y-131613099D02*
X122786911Y-129893829D01*
X122786911Y-129893829D02*
X122786911Y-128338089D01*
X122832871Y-127197508D02*
X123061470Y-127426107D01*
X123061470Y-127829039D02*
X123061470Y-127426107D01*
X173908714Y-95930720D02*
X174091600Y-96113606D01*
X172702220Y-95930720D02*
X173908714Y-95930720D01*
X168050000Y-102450000D02*
X168050000Y-107650000D01*
X168050000Y-107650000D02*
X164150000Y-111550000D01*
X164150000Y-111550000D02*
X155250000Y-120450000D01*
X128723102Y-140101898D02*
X128951701Y-139873299D01*
X129373679Y-138718339D02*
X130473499Y-138718339D01*
X128951701Y-139873299D02*
X128951701Y-139140317D01*
X128951701Y-139140317D02*
X129373679Y-138718339D01*
X130473499Y-138718339D02*
X131028440Y-139273280D01*
X131028440Y-139273280D02*
X131429760Y-139273280D01*
X129522479Y-140777521D02*
X127834823Y-140777521D01*
X127834823Y-140777521D02*
X127541151Y-140483849D01*
X134710591Y-140777521D02*
X129522479Y-140777521D01*
X139293239Y-122121595D02*
X139293238Y-136194874D01*
X139293238Y-136194874D02*
X134710591Y-140777521D01*
X141509344Y-119905490D02*
X139293239Y-122121595D01*
X143106156Y-120820990D02*
X142190655Y-119905489D01*
X142190655Y-119905489D02*
X141509344Y-119905490D01*
X148423116Y-120820990D02*
X143106156Y-120820990D01*
X155250000Y-120450000D02*
X151834499Y-123865501D01*
X148427126Y-120825000D02*
X148423116Y-120820990D01*
X155250000Y-120450000D02*
X154875000Y-120825000D01*
X154875000Y-120825000D02*
X148427126Y-120825000D01*
X151834499Y-123865501D02*
X147195581Y-123865501D01*
X147195581Y-123865501D02*
X146050000Y-122719920D01*
X172702220Y-94929960D02*
X171522294Y-94929960D01*
X171522294Y-94929960D02*
X171502514Y-94949740D01*
X172702220Y-94929960D02*
X174076360Y-94929960D01*
X174076360Y-94929960D02*
X174091600Y-94945200D01*
X179750720Y-87383620D02*
X179750720Y-86507320D01*
X179750720Y-86507320D02*
X180108040Y-86150000D01*
X180108040Y-86150000D02*
X180150000Y-86150000D01*
X181829261Y-85730899D02*
X179598015Y-85730899D01*
X179598015Y-85730899D02*
X179596058Y-85728942D01*
X184299860Y-91434920D02*
X182809920Y-91434920D01*
X182809920Y-91434920D02*
X182580281Y-91205281D01*
X182580281Y-86481919D02*
X181829261Y-85730899D01*
X182580281Y-91205281D02*
X182580281Y-86481919D01*
X184299860Y-91434920D02*
X183070000Y-91434920D01*
X183423560Y-91434920D02*
X184299860Y-91434920D01*
D65*
X118525000Y-133227738D02*
X118525000Y-124446398D01*
X123675736Y-122100000D02*
X124100000Y-122100000D01*
X118525000Y-124446398D02*
X120871398Y-122100000D01*
X120871398Y-122100000D02*
X123675736Y-122100000D01*
X119225000Y-134352002D02*
X119225000Y-133927738D01*
X119225000Y-133927738D02*
X118525000Y-133227738D01*
D63*
X114935000Y-129667000D02*
X114935000Y-134128002D01*
X114935000Y-134128002D02*
X114828001Y-134235001D01*
D65*
X131900000Y-100403038D02*
X131900000Y-110134400D01*
X133640202Y-112166400D02*
X131900000Y-110426198D01*
X131900000Y-110426198D02*
X131900000Y-110134400D01*
X135852009Y-115938409D02*
X135422809Y-115509209D01*
X135422809Y-115509209D02*
X135422809Y-113949007D01*
X135422809Y-113949007D02*
X133640202Y-112166400D01*
X135852009Y-120769131D02*
X135852009Y-116484400D01*
X135852009Y-116484400D02*
X135852009Y-115938409D01*
X136621520Y-120985040D02*
X136067918Y-120985040D01*
X136067918Y-120985040D02*
X135852009Y-120769131D01*
X116789000Y-98550000D02*
X130046962Y-98550000D01*
X130046962Y-98550000D02*
X131900000Y-100403038D01*
D63*
X136621520Y-120985040D02*
X136178618Y-120985040D01*
X119285000Y-136575000D02*
X120195334Y-136575000D01*
X120195334Y-136575000D02*
X122268445Y-138648111D01*
X122268445Y-138648111D02*
X126325683Y-138648111D01*
X126325683Y-138648111D02*
X128201083Y-140523511D01*
X128201083Y-140523511D02*
X133504138Y-140523511D01*
X133504138Y-140523511D02*
X137081379Y-136946270D01*
X139039229Y-122125749D02*
X137248520Y-120335040D01*
X137081379Y-136946270D02*
X138182618Y-136946270D01*
X138182618Y-136946270D02*
X139039229Y-136089659D01*
X139039229Y-136089659D02*
X139039229Y-122125749D01*
X137248520Y-120335040D02*
X136621520Y-120335040D01*
D66*
X182925000Y-82200000D02*
X180556420Y-82200000D01*
X180556420Y-82200000D02*
X180492400Y-82135980D01*
X182925000Y-82200000D02*
X182925000Y-80926160D01*
X182925000Y-80926160D02*
X182354280Y-80355440D01*
D63*
X182338980Y-80370740D02*
X182354280Y-80355440D01*
X153558201Y-85899802D02*
X159674339Y-92015940D01*
X159674339Y-92015940D02*
X170908340Y-92015940D01*
X170908340Y-92015940D02*
X171825920Y-92933520D01*
X171825920Y-92933520D02*
X172702220Y-92933520D01*
D66*
X155993603Y-86621201D02*
X155993603Y-87698831D01*
X155993603Y-87698831D02*
X160020201Y-91725430D01*
X160020201Y-91725430D02*
X171545590Y-91725430D01*
X171545590Y-91725430D02*
X171752920Y-91932760D01*
X171752920Y-91932760D02*
X172702220Y-91932760D01*
D68*
X158429005Y-87342600D02*
X161520565Y-90434160D01*
X161520565Y-90434160D02*
X172702220Y-90434160D01*
D63*
X156999494Y-88293880D02*
X160140534Y-91434920D01*
X160140534Y-91434920D02*
X172702220Y-91434920D01*
X154279600Y-83464400D02*
X156999494Y-86184294D01*
X156999494Y-86184294D02*
X156999494Y-88293880D01*
D68*
X156715002Y-84185799D02*
X156715002Y-85263429D01*
X156715002Y-85263429D02*
X157365004Y-85913431D01*
X157365004Y-85913431D02*
X157365004Y-87853321D01*
X157365004Y-87853321D02*
X160446223Y-90934540D01*
X160446223Y-90934540D02*
X172702220Y-90934540D01*
D66*
X159150404Y-84907198D02*
X159150404Y-85984828D01*
X159150404Y-85984828D02*
X163099356Y-89933780D01*
X163099356Y-89933780D02*
X171752920Y-89933780D01*
X171752920Y-89933780D02*
X172702220Y-89933780D01*
D63*
X187800123Y-89933499D02*
X186325000Y-89933499D01*
X184299860Y-89433400D02*
X185824901Y-89433400D01*
X185824901Y-89433400D02*
X186325000Y-89933499D01*
X188364961Y-90825000D02*
X188364960Y-90498336D01*
X188364960Y-90498336D02*
X187800123Y-89933499D01*
X188364961Y-90825000D02*
X188364961Y-102514961D01*
X188364961Y-102514961D02*
X188820800Y-102970800D01*
X188820800Y-102970800D02*
X189712840Y-102970800D01*
X182925000Y-83700000D02*
X182925000Y-84700000D01*
X182925000Y-84700000D02*
X187575000Y-89350000D01*
X187575000Y-89350000D02*
X187575848Y-89350000D01*
X187575848Y-89350000D02*
X188618971Y-90393123D01*
X188618971Y-90393123D02*
X188618971Y-101198840D01*
X188618971Y-101198840D02*
X189300000Y-101879869D01*
X189300000Y-101879869D02*
X190746619Y-101879869D01*
X190746619Y-101879869D02*
X191187310Y-102320560D01*
X191187310Y-102320560D02*
X191714360Y-102320560D01*
X179436455Y-96995847D02*
X179436455Y-96175000D01*
X177100000Y-92525000D02*
X179436455Y-94861455D01*
X179436455Y-94861455D02*
X179436455Y-96175000D01*
X188142421Y-103621040D02*
X188041044Y-103519663D01*
X189712840Y-103621040D02*
X188142421Y-103621040D01*
X179536911Y-82793595D02*
X179536911Y-81779907D01*
X179536911Y-81779907D02*
X185420000Y-75896818D01*
X185420000Y-75896818D02*
X185420000Y-74767996D01*
X185420000Y-74767996D02*
X185420000Y-73558400D01*
X185475880Y-74680858D02*
X185475880Y-74034243D01*
X185475880Y-74034243D02*
X185475880Y-73281540D01*
X178602622Y-85657284D02*
X178974421Y-85285485D01*
X178974421Y-85285485D02*
X178974421Y-83356085D01*
X178974421Y-83356085D02*
X179536911Y-82793595D01*
X173045109Y-87986303D02*
X173045109Y-87406429D01*
X173574403Y-88515597D02*
X173045109Y-87986303D01*
X174085084Y-92487786D02*
X174085084Y-92164497D01*
X173913799Y-88854993D02*
X173574403Y-88515597D01*
X174085084Y-92164497D02*
X173913799Y-91993212D01*
X173913799Y-91993212D02*
X173913799Y-88854993D01*
X174085084Y-92487786D02*
X172756866Y-92487786D01*
X172756866Y-92487786D02*
X172702220Y-92433140D01*
D66*
X178749960Y-87383620D02*
X178749960Y-86184236D01*
X178749960Y-86184236D02*
X179064879Y-85869317D01*
X179064879Y-85869317D02*
X179064879Y-85605869D01*
X179064879Y-85605869D02*
X179825000Y-84845748D01*
X179825000Y-84845748D02*
X179825000Y-84242600D01*
X179825000Y-84242600D02*
X179825000Y-83667600D01*
X174752000Y-87383620D02*
X174752000Y-86774020D01*
X174752000Y-86774020D02*
X166107606Y-78129626D01*
X166107606Y-78129626D02*
X143459717Y-78129626D01*
D68*
X175252380Y-87383620D02*
X175252380Y-86401903D01*
X175252380Y-86401903D02*
X165644899Y-76794422D01*
X165644899Y-76794422D02*
X143038729Y-76794422D01*
X175752760Y-87383620D02*
X175752760Y-86227689D01*
X175752760Y-86227689D02*
X164984289Y-75459218D01*
X164984289Y-75459218D02*
X142617741Y-75459218D01*
X176253140Y-87383620D02*
X176253140Y-86053475D01*
X176253140Y-86053475D02*
X164323680Y-74124015D01*
X164323680Y-74124015D02*
X142196753Y-74124015D01*
D66*
X176753520Y-87383620D02*
X176753520Y-85984991D01*
X176753520Y-85984991D02*
X164199130Y-73430601D01*
X164199130Y-73430601D02*
X144716217Y-73430601D01*
X144716217Y-73430601D02*
X142739223Y-71453607D01*
X142739223Y-71453607D02*
X141354776Y-71453607D01*
X169740835Y-77645017D02*
X165392100Y-73296282D01*
X133525269Y-73904290D02*
X138778126Y-73904290D01*
X138778126Y-73904290D02*
X139708391Y-74834555D01*
X133525269Y-73904290D02*
X131093849Y-73904290D01*
X131093849Y-73904290D02*
X128926492Y-73904290D01*
X169740835Y-77645017D02*
X177751740Y-85655922D01*
X177751740Y-85655922D02*
X177751740Y-87383620D01*
X177251360Y-87383620D02*
X177251360Y-86296500D01*
X177251360Y-86296500D02*
X177251360Y-85936790D01*
X164667552Y-73232181D02*
X177251360Y-85815989D01*
X177251360Y-85815989D02*
X177251360Y-86296500D01*
X133595178Y-74296841D02*
X138508041Y-74296841D01*
X138508041Y-74296841D02*
X139623800Y-75412600D01*
X130492500Y-74498200D02*
X130492500Y-74828400D01*
X129347480Y-75239493D02*
X130081407Y-75239493D01*
X130081407Y-75239493D02*
X130492500Y-74828400D01*
X133595178Y-74296841D02*
X130693859Y-74296841D01*
X130693859Y-74296841D02*
X130492500Y-74498200D01*
D60*
X137478587Y-82421843D02*
X137478587Y-82799729D01*
X137478587Y-82799729D02*
X139214000Y-84535142D01*
X138813790Y-82000855D02*
X138813790Y-82605624D01*
X138813790Y-82605624D02*
X140377624Y-84169458D01*
X175818800Y-113741200D02*
X175818800Y-113709892D01*
X175818800Y-113709892D02*
X176510292Y-113018400D01*
X154133611Y-130933611D02*
X155346400Y-132146400D01*
X155346400Y-132146400D02*
X155675000Y-132475000D01*
X156748400Y-132310360D02*
X155510360Y-132310360D01*
X155510360Y-132310360D02*
X155346400Y-132146400D01*
X154133611Y-130003611D02*
X154133611Y-130933611D01*
D69*
X152275699Y-136081072D02*
X153234626Y-137039999D01*
X154101961Y-137039999D02*
X154402001Y-137340039D01*
X153234626Y-137039999D02*
X154101961Y-137039999D01*
D60*
X154598400Y-134437000D02*
X153423400Y-134437000D01*
X155848400Y-134437000D02*
X154598400Y-134437000D01*
X152200000Y-134625000D02*
X152200000Y-134100000D01*
X152200000Y-134100000D02*
X153825000Y-132475000D01*
X153825000Y-132475000D02*
X155675000Y-132475000D01*
X156748400Y-132310360D02*
X155839640Y-132310360D01*
X155839640Y-132310360D02*
X155675000Y-132475000D01*
X157023400Y-134437000D02*
X155848400Y-134437000D01*
X158198400Y-134437000D02*
X157023400Y-134437000D01*
X158123400Y-133237000D02*
X158123400Y-134362000D01*
X158123400Y-134362000D02*
X158198400Y-134437000D01*
X156748400Y-132310360D02*
X157900040Y-132310360D01*
X157900040Y-132310360D02*
X158123400Y-132087000D01*
X158123400Y-132087000D02*
X158123400Y-133237000D01*
X154133611Y-130003611D02*
X152806400Y-128676400D01*
X156748400Y-132310360D02*
X156975040Y-132310360D01*
X156748400Y-132310360D02*
X156036096Y-132310360D01*
D69*
X152403027Y-139878461D02*
X149946539Y-139878461D01*
X149946539Y-139878461D02*
X148700000Y-141125000D01*
X152403027Y-139878461D02*
X154402001Y-137879487D01*
X154402001Y-137879487D02*
X154402001Y-137340039D01*
D60*
X152200000Y-134625000D02*
X152200000Y-136005373D01*
X152200000Y-136005373D02*
X152275699Y-136081072D01*
D65*
X152666962Y-137475000D02*
X153683000Y-137475000D01*
X153683000Y-137475000D02*
X153825000Y-137617000D01*
X150575000Y-137475000D02*
X150075000Y-136975000D01*
X150075000Y-136975000D02*
X150075000Y-136025000D01*
X152666962Y-137475000D02*
X150575000Y-137475000D01*
X150075000Y-134328280D02*
X150075000Y-130702000D01*
X150075000Y-130702000D02*
X150302000Y-130475000D01*
X176403000Y-110490000D02*
X176403000Y-108852344D01*
X176403000Y-108852344D02*
X175388315Y-107837659D01*
X176403000Y-110490000D02*
X176403000Y-111643160D01*
X176403000Y-111643160D02*
X177088800Y-112328960D01*
D63*
X184932274Y-99415600D02*
X185643474Y-98704400D01*
X184299860Y-95430340D02*
X185176160Y-95430340D01*
X185176160Y-95430340D02*
X185643474Y-95897654D01*
X185643474Y-95897654D02*
X185643474Y-98704400D01*
X154075445Y-72960545D02*
X152260300Y-71145400D01*
X155324784Y-72960545D02*
X154075445Y-72960545D01*
X173700000Y-101872424D02*
X172322677Y-100495101D01*
X172322677Y-100495101D02*
X166144101Y-100495101D01*
X166144101Y-100495101D02*
X166144100Y-100495100D01*
X173700000Y-104975000D02*
X173700000Y-101872424D01*
X184226332Y-101475000D02*
X184226332Y-100023668D01*
X182400000Y-103500000D02*
X184226332Y-101673668D01*
X184226332Y-101673668D02*
X184226332Y-101475000D01*
X184450000Y-99800000D02*
X184834400Y-99415600D01*
X184226332Y-100023668D02*
X184450000Y-99800000D01*
X184834400Y-99415600D02*
X184932274Y-99415600D01*
X165455600Y-117754400D02*
X165455600Y-116156390D01*
X165455600Y-116156390D02*
X166448390Y-115163600D01*
X165760398Y-135784778D02*
X164388800Y-137156376D01*
X165353989Y-134326033D02*
X165760398Y-134732442D01*
X165455600Y-117754400D02*
X165353989Y-117856011D01*
X165353989Y-117856011D02*
X165353989Y-134326033D01*
X165760398Y-134732442D02*
X165760398Y-135784778D01*
X164388800Y-137156376D02*
X164285388Y-137259788D01*
X164388800Y-137156376D02*
X164236059Y-137309117D01*
X164236059Y-137309117D02*
X162080600Y-137309117D01*
X185521600Y-94929960D02*
X184299860Y-94929960D01*
X185521600Y-94929960D02*
X185897484Y-95305844D01*
X185897484Y-95305844D02*
X185897484Y-98809614D01*
X185897484Y-98809614D02*
X185893899Y-98813199D01*
X154799335Y-72541435D02*
X154851100Y-72541435D01*
X152819100Y-70561200D02*
X154799335Y-72541435D01*
X172746299Y-100559499D02*
X172262800Y-100076000D01*
X172262800Y-100076000D02*
X166751000Y-100076000D01*
X174328670Y-102141870D02*
X172746299Y-100559499D01*
X174328670Y-104939027D02*
X174328670Y-102141870D01*
X182514571Y-104072858D02*
X184810400Y-101777029D01*
X184810400Y-101600000D02*
X184810400Y-101154800D01*
X184810400Y-101777029D02*
X184810400Y-101600000D01*
X184822400Y-101142800D02*
X185199400Y-101142800D01*
X185199400Y-101142800D02*
X185893899Y-100448301D01*
X185893899Y-100448301D02*
X185893899Y-98813199D01*
X184810400Y-101154800D02*
X184822400Y-101142800D01*
X162704189Y-137810227D02*
X162380900Y-137810227D01*
X166014409Y-135889991D02*
X164094173Y-137810227D01*
X164094173Y-137810227D02*
X162704189Y-137810227D01*
X166053586Y-117562814D02*
X167032581Y-116583819D01*
X167032581Y-115850641D02*
X166867490Y-115685550D01*
X167032581Y-116583819D02*
X167032581Y-115850641D01*
X166053586Y-117562814D02*
X166053586Y-118361320D01*
X166053586Y-118361320D02*
X165608000Y-118806906D01*
X165608000Y-118806906D02*
X165608000Y-134220819D01*
X165608000Y-134220819D02*
X166014409Y-134627228D01*
X166014409Y-134627228D02*
X166014409Y-135889991D01*
D65*
X149925000Y-138100000D02*
X148175000Y-138100000D01*
X149925000Y-139000000D02*
X151475000Y-139000000D01*
X151475000Y-139000000D02*
X152425000Y-138050000D01*
X146151964Y-141952200D02*
X146151964Y-141626964D01*
X146151964Y-141626964D02*
X145750000Y-141225000D01*
X144781564Y-141950000D02*
X144781564Y-141618436D01*
X144781564Y-141618436D02*
X145150000Y-141250000D01*
X152175000Y-132575000D02*
X152175000Y-131150000D01*
X133324020Y-128688492D02*
X133324020Y-127733262D01*
X133324020Y-127733262D02*
X132715000Y-127124242D01*
D63*
X162874200Y-117734600D02*
X162874200Y-115484379D01*
X162874200Y-115484379D02*
X163092131Y-115266448D01*
X163092131Y-115266448D02*
X165333226Y-115266448D01*
X165333226Y-115266448D02*
X176358104Y-104241570D01*
X176358104Y-104241570D02*
X180597615Y-104241569D01*
X180597615Y-104241569D02*
X181002950Y-103836234D01*
X181002950Y-103836234D02*
X181002950Y-100482400D01*
X181002950Y-100482400D02*
X181249320Y-100236030D01*
X181249320Y-100236030D02*
X181249320Y-98981260D01*
X187125000Y-90424000D02*
X187125000Y-90851000D01*
X187125000Y-90851000D02*
X188110951Y-91836951D01*
X188110951Y-91836951D02*
X188110951Y-101114049D01*
X188110951Y-101114049D02*
X187113752Y-102111248D01*
X187113752Y-102111248D02*
X185970815Y-102111248D01*
X185970815Y-102111248D02*
X183078464Y-105003599D01*
X183078464Y-105003599D02*
X176673746Y-105003600D01*
X176673746Y-105003600D02*
X167540600Y-114136746D01*
X167540600Y-114136746D02*
X167540600Y-118329200D01*
X160649200Y-120209600D02*
X160649200Y-119942600D01*
X160649200Y-119942600D02*
X159580299Y-118873699D01*
X180494930Y-103625806D02*
X180494930Y-100431600D01*
X159580299Y-118873699D02*
X159580299Y-117228556D01*
X159580299Y-117228556D02*
X162050427Y-114758428D01*
X162050427Y-114758428D02*
X165122798Y-114758428D01*
X165122798Y-114758428D02*
X176147676Y-103733550D01*
X176147676Y-103733550D02*
X180387186Y-103733550D01*
X180387186Y-103733550D02*
X180494930Y-103625806D01*
X180494930Y-100431600D02*
X180248560Y-100185230D01*
X180248560Y-100185230D02*
X180248560Y-98981260D01*
X180748940Y-98981260D02*
X180748940Y-103731020D01*
X180748940Y-103731020D02*
X180492400Y-103987560D01*
X180492400Y-103987560D02*
X176252890Y-103987560D01*
X176252890Y-103987560D02*
X165228012Y-115012438D01*
X165228012Y-115012438D02*
X162155641Y-115012438D01*
X162155641Y-115012438D02*
X161374200Y-115793879D01*
X161374200Y-115793879D02*
X161374200Y-117734600D01*
D65*
X128320800Y-138031920D02*
X128320800Y-139303560D01*
X128320800Y-139303560D02*
X128326080Y-139308840D01*
D63*
X150774400Y-87477600D02*
X149339200Y-87477600D01*
D65*
X151425000Y-149725000D02*
X151425000Y-151200000D01*
X151425000Y-151200000D02*
X151025000Y-151600000D01*
X151025000Y-151600000D02*
X150350000Y-151600000D01*
X148425000Y-149725000D02*
X147700000Y-150450000D01*
X147700000Y-150450000D02*
X147700000Y-151600000D01*
X149925000Y-149725000D02*
X149625000Y-149725000D01*
X149625000Y-149725000D02*
X148600000Y-150750000D01*
X148600000Y-150750000D02*
X148600000Y-151250000D01*
X149900000Y-149725000D02*
X149800000Y-149725000D01*
D63*
X150217600Y-61315900D02*
X149563900Y-61315900D01*
X149563900Y-61315900D02*
X147275000Y-59027000D01*
X147275000Y-59027000D02*
X147275000Y-58450000D01*
X153592600Y-61290900D02*
X153592600Y-60963900D01*
X153592600Y-60963900D02*
X151078700Y-58450000D01*
X151078700Y-58450000D02*
X150477000Y-58450000D01*
X150477000Y-58450000D02*
X149925000Y-58450000D01*
X151892600Y-61315900D02*
X151465600Y-61315900D01*
X151465600Y-61315900D02*
X149025000Y-58875300D01*
X149025000Y-58875300D02*
X149025000Y-58800000D01*
D65*
X149025000Y-58825000D02*
X149025000Y-58800000D01*
D63*
X159712142Y-124085557D02*
X159798974Y-123998725D01*
X159712142Y-125040000D02*
X159712142Y-124085557D01*
X160112142Y-125040000D02*
X160112142Y-124277256D01*
X160112142Y-124277256D02*
X160425000Y-123964398D01*
X189038071Y-94300000D02*
X188872981Y-94465090D01*
X188872981Y-94465090D02*
X188872981Y-101093626D01*
X188872981Y-101093626D02*
X189405214Y-101625859D01*
X189405214Y-101625859D02*
X192012801Y-101625859D01*
X192012801Y-101625859D02*
X192558921Y-102171979D01*
X190674133Y-105396509D02*
X190877624Y-105600000D01*
X192558921Y-102171979D02*
X192558921Y-104128845D01*
X190674133Y-104736722D02*
X190674133Y-105396509D01*
X192558921Y-104128845D02*
X192283757Y-104404009D01*
X192283757Y-104404009D02*
X191006846Y-104404009D01*
X191006846Y-104404009D02*
X190674133Y-104736722D01*
X190877624Y-105600000D02*
X191750760Y-105600000D01*
X184299860Y-93431360D02*
X186204840Y-93431360D01*
X186204840Y-93431360D02*
X186750000Y-93976520D01*
X184306220Y-93425000D02*
X184299860Y-93431360D01*
X184299860Y-92433140D02*
X187534822Y-92433140D01*
X187534822Y-92433140D02*
X187856940Y-92755258D01*
X187856940Y-92755258D02*
X187856940Y-101008836D01*
X187856940Y-101008836D02*
X187008538Y-101857238D01*
X187008538Y-101857238D02*
X185865601Y-101857238D01*
X185865601Y-101857238D02*
X182973249Y-104749590D01*
X182973249Y-104749590D02*
X181508400Y-104749590D01*
X167540600Y-119829200D02*
X166960930Y-119829200D01*
X166960930Y-119829200D02*
X166128710Y-118996980D01*
X166128710Y-118996980D02*
X166128710Y-118645420D01*
X176568532Y-104749590D02*
X181508400Y-104749590D01*
X166128710Y-118645420D02*
X167286590Y-117487540D01*
X167286590Y-117487540D02*
X167286591Y-114031531D01*
X167286591Y-114031531D02*
X176568532Y-104749590D01*
X181508400Y-104749590D02*
X181864010Y-104749590D01*
X133077729Y-86952729D02*
X141872247Y-86952729D01*
X141872247Y-86952729D02*
X142249076Y-86575900D01*
X142249076Y-86575900D02*
X146812000Y-86575900D01*
X129200000Y-83075000D02*
X133077729Y-86952729D01*
X183100000Y-89925000D02*
X184291080Y-89925000D01*
X184291080Y-89925000D02*
X184299860Y-89933780D01*
X184308640Y-89925000D02*
X184299860Y-89933780D01*
X184283640Y-89950000D02*
X184299860Y-89933780D01*
X129200000Y-83075000D02*
X127900000Y-81775000D01*
X162374200Y-121184600D02*
X162374200Y-121736600D01*
X180702828Y-104495580D02*
X182748408Y-102450000D01*
X162374200Y-121736600D02*
X162710000Y-122072400D01*
X162710000Y-122072400D02*
X164490400Y-122072400D01*
X164490400Y-122072400D02*
X165036499Y-121526301D01*
X165036499Y-115922399D02*
X176463318Y-104495580D01*
X165036499Y-121526301D02*
X165036499Y-115922399D01*
X176463318Y-104495580D02*
X180702828Y-104495580D01*
X182748408Y-102450000D02*
X182728304Y-102429896D01*
X182728304Y-102429896D02*
X182728304Y-97435104D01*
X179250340Y-93957140D02*
X179250340Y-87383620D01*
X182728304Y-97435104D02*
X179250340Y-93957140D01*
D60*
X147775000Y-121675000D02*
X142900000Y-121675000D01*
X142900000Y-121675000D02*
X142450000Y-121225000D01*
D69*
X168946600Y-116535200D02*
X168946600Y-116521000D01*
X168946600Y-116521000D02*
X168808400Y-116382800D01*
X170015600Y-117604200D02*
X168946600Y-116535200D01*
D60*
X145325000Y-130547998D02*
X145325000Y-130123734D01*
X145325000Y-130123734D02*
X144628276Y-129427010D01*
X141850000Y-121074264D02*
X141850000Y-120650000D01*
X144628276Y-129427010D02*
X143008178Y-129427010D01*
X143008178Y-129427010D02*
X141850000Y-128268832D01*
X141850000Y-128268832D02*
X141850000Y-121074264D01*
D62*
X144142141Y-128300000D02*
X144331862Y-128300000D01*
X144331862Y-128300000D02*
X145075001Y-127556861D01*
X145075001Y-123674999D02*
X145075001Y-125526800D01*
X145075001Y-125526800D02*
X145075001Y-127142859D01*
X145075001Y-127556861D02*
X145075001Y-125526800D01*
X144550000Y-123375000D02*
X145375000Y-123375000D01*
D63*
X145312142Y-125040000D02*
X145712142Y-125040000D01*
X144912142Y-125040000D02*
X144512142Y-125040000D01*
X145312142Y-125040000D02*
X144912142Y-125040000D01*
D62*
X145375000Y-123375000D02*
X145075001Y-123674999D01*
X145375000Y-123375000D02*
X145075001Y-123675001D01*
X145075001Y-123675001D02*
X145135141Y-123735141D01*
D65*
X145312142Y-127380000D02*
X145312142Y-125414999D01*
X145312142Y-125414999D02*
X145687141Y-125040000D01*
X145312142Y-127380000D02*
X145687141Y-127380000D01*
X145312142Y-125040000D02*
X145312142Y-127005001D01*
X145312142Y-127005001D02*
X145687141Y-127380000D01*
D62*
X144550000Y-123375000D02*
X144550000Y-127225000D01*
X144550000Y-127225000D02*
X143475000Y-128300000D01*
X143475000Y-128300000D02*
X143475000Y-125275000D01*
X143475000Y-125275000D02*
X145375000Y-123375000D01*
X143425000Y-127500000D02*
X143425000Y-124500000D01*
X143425000Y-124500000D02*
X144550000Y-123375000D01*
X143475000Y-128300000D02*
X143475000Y-127550000D01*
X143475000Y-127550000D02*
X143425000Y-127500000D01*
X143425000Y-127500000D02*
X144942141Y-127500000D01*
X143475000Y-128300000D02*
X144142141Y-128300000D01*
X144142141Y-128300000D02*
X144942141Y-127500000D01*
X144550000Y-123375000D02*
X144550000Y-125002142D01*
X144550000Y-125002142D02*
X144512142Y-125040000D01*
D63*
X184299860Y-93931740D02*
X183181740Y-93931740D01*
X183181740Y-93931740D02*
X182775000Y-93525000D01*
X165049200Y-103491600D02*
X165049200Y-100994024D01*
X165049200Y-100994024D02*
X163017190Y-98962014D01*
X163017190Y-97335362D02*
X155067238Y-89385410D01*
X163017190Y-98962014D02*
X163017190Y-97335362D01*
X155067238Y-89385410D02*
X150498017Y-89385409D01*
X150498017Y-89385409D02*
X150320518Y-89207910D01*
X150320518Y-89207910D02*
X145262600Y-89207910D01*
X145097510Y-89373000D02*
X144564100Y-89373000D01*
X145262600Y-89207910D02*
X145097510Y-89373000D01*
X144576800Y-87041649D02*
X142142551Y-87041649D01*
X127480899Y-81976169D02*
X127480899Y-81573831D01*
X142142551Y-87041649D02*
X141977461Y-87206739D01*
X141977461Y-87206739D02*
X132711469Y-87206739D01*
X132711469Y-87206739D02*
X127480899Y-81976169D01*
X128155730Y-80899000D02*
X129019300Y-80899000D01*
X127480899Y-81573831D02*
X128155730Y-80899000D01*
X144451326Y-87167123D02*
X144576800Y-87041649D01*
D65*
X166900000Y-103500000D02*
X165057600Y-103500000D01*
X165057600Y-103500000D02*
X165049200Y-103491600D01*
D63*
X164395415Y-89154585D02*
X164395415Y-85611683D01*
D65*
X120200000Y-112025000D02*
X120975000Y-112800000D01*
X120975000Y-112800000D02*
X122298889Y-112800000D01*
X120200000Y-107448000D02*
X120200000Y-112025000D01*
X121127000Y-94450000D02*
X121127000Y-95727571D01*
X121127000Y-95727571D02*
X121151429Y-95752000D01*
X120200000Y-107448000D02*
X116448013Y-107448000D01*
X116448013Y-107448000D02*
X116400013Y-107400000D01*
D63*
X175209265Y-117348603D02*
X187557868Y-105000000D01*
X187557868Y-105000000D02*
X187611839Y-105000000D01*
X177490131Y-97368349D02*
X177839908Y-97018572D01*
X177839908Y-97018572D02*
X178852696Y-97018572D01*
X176753520Y-98981260D02*
X176753520Y-98104960D01*
X176753520Y-98104960D02*
X177490131Y-97368349D01*
X170990600Y-120329200D02*
X170990600Y-120901800D01*
X170990600Y-120901800D02*
X170992800Y-120904000D01*
X185229501Y-106376446D02*
X186929675Y-104676272D01*
X186929675Y-104676272D02*
X186929675Y-102530349D01*
X177251360Y-98981260D02*
X177251360Y-98104960D01*
X177251360Y-98104960D02*
X177568871Y-97787449D01*
X177568871Y-97787449D02*
X178644854Y-97787449D01*
X178644854Y-97787449D02*
X178829972Y-97602331D01*
X185229501Y-106376446D02*
X174512552Y-117093395D01*
X174512552Y-117093395D02*
X174512552Y-118064967D01*
X174512552Y-118064967D02*
X173748319Y-118829200D01*
X173748319Y-118829200D02*
X170990600Y-118829200D01*
D61*
X130222999Y-119837200D02*
X130222999Y-120005801D01*
X130222999Y-120005801D02*
X129934400Y-120294400D01*
D62*
X130222999Y-119837200D02*
X130222999Y-118792999D01*
D65*
X168097200Y-98145600D02*
X167897200Y-98145600D01*
X167897200Y-98145600D02*
X166863799Y-99179001D01*
X166863799Y-99179001D02*
X164041199Y-99179001D01*
X164041199Y-99179001D02*
X163586711Y-98724513D01*
X146403537Y-88133859D02*
X143052800Y-88133859D01*
X163586711Y-98724513D02*
X163586709Y-97099459D01*
X163586709Y-97099459D02*
X155303140Y-88815890D01*
X155303140Y-88815890D02*
X150733920Y-88815890D01*
X150733920Y-88815890D02*
X150556420Y-88638390D01*
X150556420Y-88638390D02*
X146908068Y-88638390D01*
X146908068Y-88638390D02*
X146403537Y-88133859D01*
D62*
X125125000Y-125875000D02*
X125150000Y-125875000D01*
X125150000Y-125875000D02*
X127068001Y-127793001D01*
X127068001Y-127793001D02*
X130125599Y-127793001D01*
X125125000Y-125875000D02*
X125645754Y-125875000D01*
X125645754Y-125875000D02*
X126520754Y-126750000D01*
X130194999Y-130424245D02*
X126520754Y-126750000D01*
X129921000Y-133604000D02*
X125125000Y-128808000D01*
X125125000Y-128808000D02*
X125125000Y-128625000D01*
X125125000Y-125875000D02*
X125125000Y-128625000D01*
X125125000Y-125875000D02*
X125125000Y-126778804D01*
X125125000Y-126778804D02*
X129921000Y-131574804D01*
X130194999Y-130424245D02*
X130194999Y-129487757D01*
X130194999Y-129487757D02*
X130125599Y-129418357D01*
X130222999Y-119837200D02*
X130222999Y-117152001D01*
X130222999Y-122564961D02*
X130222999Y-119837200D01*
X132500000Y-116650000D02*
X132975000Y-116650000D01*
X130725000Y-116650000D02*
X132500000Y-116650000D01*
X130222999Y-117152001D02*
X130725000Y-116650000D01*
X131451001Y-123792963D02*
X130222999Y-122564961D01*
X131451001Y-126467599D02*
X131451001Y-123792963D01*
X130125599Y-127793001D02*
X131451001Y-126467599D01*
X131257040Y-134366000D02*
X131257040Y-131486286D01*
X131257040Y-131486286D02*
X130194999Y-130424245D01*
X129921000Y-131574804D02*
X129921000Y-134239000D01*
X129921000Y-134239000D02*
X130048000Y-134366000D01*
X131257040Y-134366000D02*
X130048000Y-134366000D01*
X130048000Y-134366000D02*
X130008060Y-134405940D01*
X131257040Y-134366000D02*
X131257040Y-132204050D01*
X131257040Y-132204050D02*
X130624990Y-131572000D01*
X130008060Y-134405940D02*
X130008060Y-131661864D01*
X130008060Y-131661864D02*
X129921000Y-131574804D01*
X129921000Y-131574804D02*
X130622186Y-131574804D01*
X130622186Y-131574804D02*
X130624990Y-131572000D01*
X130624990Y-130854236D02*
X130194999Y-130424245D01*
X130624990Y-131572000D02*
X130624990Y-130854236D01*
X129921000Y-130698244D02*
X130194999Y-130424245D01*
X129921000Y-131574804D02*
X129921000Y-130698244D01*
X130125599Y-129418357D02*
X130125599Y-127793001D01*
X127675000Y-110457000D02*
X125225000Y-110457000D01*
X125225000Y-110457000D02*
X123632099Y-112049901D01*
X123632099Y-112049901D02*
X123225000Y-112049901D01*
D63*
X107599480Y-112557560D02*
X106934000Y-113223040D01*
X148522400Y-87477600D02*
X148525000Y-87475000D01*
X147739200Y-87477600D02*
X148522400Y-87477600D01*
D64*
X158800800Y-72593200D02*
X154219601Y-68012001D01*
X154219601Y-68012001D02*
X154219601Y-60829299D01*
X154219601Y-60829299D02*
X151063301Y-57672999D01*
X151063301Y-57672999D02*
X148652001Y-57672999D01*
X148652001Y-57672999D02*
X148175000Y-58150000D01*
X148175000Y-58150000D02*
X148175000Y-58800000D01*
D60*
X183474247Y-71925719D02*
X183474247Y-72297820D01*
X183474247Y-72297820D02*
X181386706Y-74385361D01*
X181386706Y-74385361D02*
X181386706Y-74013260D01*
X177754280Y-80355440D02*
X177904280Y-80355440D01*
X177904280Y-80355440D02*
X181386706Y-76873014D01*
X181386706Y-76873014D02*
X181386706Y-75587442D01*
X181386706Y-75587442D02*
X181386706Y-74385361D01*
D65*
X183530127Y-72012709D02*
X183530127Y-71648859D01*
D60*
X151844198Y-82743001D02*
X148631999Y-82743001D01*
X148631999Y-82743001D02*
X147625000Y-83750000D01*
D61*
X130610444Y-79245104D02*
X131724400Y-78131148D01*
X131724400Y-78131148D02*
X131724400Y-76314300D01*
X130610444Y-79245104D02*
X130610444Y-78330889D01*
X130610444Y-78330889D02*
X130189456Y-77909901D01*
X131031432Y-80580308D02*
X131031432Y-79666092D01*
X131031432Y-79666092D02*
X130610444Y-79245104D01*
D60*
X134819520Y-133751320D02*
X135569520Y-133751320D01*
X135569520Y-133751320D02*
X136368279Y-132952561D01*
X134149989Y-128301664D02*
X134149989Y-122463509D01*
X136368279Y-132952561D02*
X136368279Y-130519954D01*
X133421520Y-121735040D02*
X133421520Y-120985040D01*
X136368279Y-130519954D02*
X134149989Y-128301664D01*
X134149989Y-122463509D02*
X133421520Y-121735040D01*
D65*
X176168194Y-81764892D02*
X176168194Y-80504874D01*
X176168194Y-80504874D02*
X176006760Y-80343440D01*
X176999720Y-82749720D02*
X176829733Y-82749720D01*
X176829733Y-82749720D02*
X176168194Y-82088181D01*
X176168194Y-82088181D02*
X176168194Y-81764892D01*
D63*
X127081866Y-137300000D02*
X126525000Y-137856866D01*
X126525000Y-137856866D02*
X126525000Y-138225000D01*
X126525000Y-138225000D02*
X126875000Y-138575000D01*
X127081866Y-137300000D02*
X127645610Y-136736256D01*
X127645611Y-132658691D02*
X127645611Y-135550000D01*
X127645611Y-135550000D02*
X127645611Y-136025000D01*
X127081866Y-137300000D02*
X127645611Y-136736255D01*
X127645611Y-136736255D02*
X127645611Y-135550000D01*
X127645610Y-136736256D02*
X127645611Y-136025000D01*
X123750000Y-129296370D02*
X124283289Y-129296370D01*
X124283289Y-129296370D02*
X127645611Y-132658691D01*
D65*
X178792400Y-82135980D02*
X178792400Y-81393560D01*
X178792400Y-81393560D02*
X177754280Y-80355440D01*
X176999720Y-83619340D02*
X178483080Y-82135980D01*
X178483080Y-82135980D02*
X178792400Y-82135980D01*
X176999720Y-83619340D02*
X176999720Y-82749720D01*
D63*
X169425000Y-84175000D02*
X168700000Y-84175000D01*
D60*
X146151964Y-142852200D02*
X145526800Y-142852200D01*
X145526800Y-142852200D02*
X145475000Y-142904000D01*
X144781564Y-142850000D02*
X145421000Y-142850000D01*
X145421000Y-142850000D02*
X145475000Y-142904000D01*
D63*
X186334400Y-99415600D02*
X186334400Y-99040600D01*
X186334400Y-99040600D02*
X186916757Y-98458243D01*
D65*
X172702220Y-93431360D02*
X174093640Y-93431360D01*
X174093640Y-93431360D02*
X174175000Y-93350000D01*
D66*
X175982540Y-100745200D02*
X177454800Y-100745200D01*
X177454800Y-100745200D02*
X177475000Y-100725000D01*
X176253140Y-98981260D02*
X176253140Y-100474600D01*
X176253140Y-100474600D02*
X175982540Y-100745200D01*
X179019200Y-100694400D02*
X177505600Y-100694400D01*
X177505600Y-100694400D02*
X177475000Y-100725000D01*
D63*
X186322400Y-101142800D02*
X186322400Y-99427600D01*
X186322400Y-99427600D02*
X186334400Y-99415600D01*
D66*
X184299860Y-92933520D02*
X183033520Y-92933520D01*
X183033520Y-92933520D02*
X183025000Y-92925000D01*
D65*
X172702220Y-93431360D02*
X171815850Y-93431360D01*
X171815850Y-93431360D02*
X171609490Y-93225000D01*
X171609490Y-93225000D02*
X171250000Y-93225000D01*
X171250000Y-93225000D02*
X170550000Y-93225000D01*
D63*
X177742280Y-80343440D02*
X177754280Y-80355440D01*
D66*
X184299860Y-92933520D02*
X187142300Y-92933520D01*
X187142300Y-92933520D02*
X187416440Y-93207660D01*
X179019200Y-100694400D02*
X178749960Y-100425160D01*
X178749960Y-100425160D02*
X178749960Y-98981260D01*
D63*
X159475000Y-139650000D02*
X160796022Y-140971022D01*
X160796022Y-140971022D02*
X161341822Y-140971022D01*
D69*
X147800000Y-134150000D02*
X147800000Y-131493200D01*
X147800000Y-131493200D02*
X146507200Y-130200400D01*
D65*
X156748400Y-130613640D02*
X158912442Y-130613640D01*
X158912442Y-130613640D02*
X163298802Y-135000000D01*
X163298802Y-135000000D02*
X165250000Y-135000000D01*
X164099200Y-120209600D02*
X164099200Y-119962676D01*
X164099200Y-119962676D02*
X164451180Y-119610696D01*
D66*
X159475000Y-139400000D02*
X159475000Y-139650000D01*
D65*
X147800000Y-134150000D02*
X147800000Y-135325000D01*
X147800000Y-135325000D02*
X148175000Y-135700000D01*
D63*
X148175000Y-58800000D02*
X148175000Y-58825000D01*
D65*
X149450000Y-151250000D02*
X149450000Y-150950000D01*
X149450000Y-150950000D02*
X149925000Y-150475000D01*
X132803359Y-140124721D02*
X131201160Y-140124721D01*
X131201160Y-140124721D02*
X130813081Y-140124721D01*
X129926080Y-139308840D02*
X129926080Y-139958840D01*
X129926080Y-139958840D02*
X130091961Y-140124721D01*
X130091961Y-140124721D02*
X131201160Y-140124721D01*
X130091961Y-140124721D02*
X132803359Y-140124721D01*
X132803359Y-140124721D02*
X133329680Y-139598400D01*
X133329680Y-139598400D02*
X133329680Y-139273280D01*
D60*
X133116320Y-137960480D02*
X133329680Y-138173840D01*
X132809681Y-137653841D02*
X133116320Y-137960480D01*
D61*
X134807960Y-136240520D02*
X134807960Y-137104120D01*
D60*
X133116320Y-137960480D02*
X133951600Y-137960480D01*
D61*
X134807960Y-137104120D02*
X134807960Y-137795000D01*
D60*
X133951600Y-137960480D02*
X134807960Y-137104120D01*
X131429760Y-136677400D02*
X131429760Y-136770958D01*
X131429760Y-136770958D02*
X132312643Y-137653841D01*
X132312643Y-137653841D02*
X132809681Y-137653841D01*
X133329680Y-138173840D02*
X133329680Y-139273280D01*
D61*
X134807960Y-135021320D02*
X134807960Y-136240520D01*
X137601960Y-133715760D02*
X135077200Y-136240520D01*
X135077200Y-136240520D02*
X134807960Y-136240520D01*
X133329680Y-139273280D02*
X133329680Y-138948160D01*
X133329680Y-138948160D02*
X137566400Y-134711440D01*
X137566400Y-134711440D02*
X137566400Y-133751320D01*
X133329680Y-139273280D02*
X133777841Y-139273280D01*
X133777841Y-139273280D02*
X137598001Y-135453120D01*
X134807960Y-137795000D02*
X133329680Y-139273280D01*
X137601960Y-133715760D02*
X137601960Y-134157720D01*
X137601960Y-134157720D02*
X137601960Y-134595721D01*
X137601960Y-134896860D02*
X137601960Y-134157720D01*
X135150860Y-134082660D02*
X134819520Y-133751320D01*
X134807960Y-135021320D02*
X135255000Y-135021320D01*
X137598001Y-136255760D02*
X136489440Y-136255760D01*
X136489440Y-136255760D02*
X135255000Y-135021320D01*
X134819520Y-133751320D02*
X135093561Y-133751320D01*
X135093561Y-133751320D02*
X137598001Y-136255760D01*
X134819520Y-133751320D02*
X135896201Y-133751320D01*
X135896201Y-133751320D02*
X137598001Y-135453120D01*
X134819520Y-133751320D02*
X136749641Y-133751320D01*
X136749641Y-133751320D02*
X137598001Y-134599680D01*
X134819520Y-133751320D02*
X137566400Y-133751320D01*
X137566400Y-133751320D02*
X137601960Y-133715760D01*
X137598001Y-136255760D02*
X137896600Y-136255760D01*
X137896600Y-136255760D02*
X138348720Y-135803640D01*
X138343640Y-134965440D02*
X138343640Y-135798560D01*
X138343640Y-135798560D02*
X138348720Y-135803640D01*
X138333480Y-134147560D02*
X138333480Y-134955280D01*
X138333480Y-134955280D02*
X138343640Y-134965440D01*
X137601960Y-133715760D02*
X137901680Y-133715760D01*
X137901680Y-133715760D02*
X138333480Y-134147560D01*
X137598001Y-135453120D02*
X137598001Y-136255760D01*
X137598001Y-134599680D02*
X137598001Y-135453120D01*
X137601960Y-134595721D02*
X137598001Y-134599680D01*
X134819520Y-133751320D02*
X134819520Y-135009760D01*
X134819520Y-135009760D02*
X134807960Y-135021320D01*
D60*
X141808200Y-83718400D02*
X142668382Y-83718400D01*
X142668382Y-83718400D02*
X143076252Y-83310530D01*
X136525000Y-85408235D02*
X137361389Y-85408235D01*
X137361389Y-85408235D02*
X137783424Y-84986200D01*
D70*
X149300000Y-123225000D02*
X149300000Y-121750000D01*
X149300000Y-121750000D02*
X149375000Y-121675000D01*
D63*
X156798319Y-139050000D02*
X159107809Y-141359490D01*
X159107809Y-141359490D02*
X160645333Y-141359490D01*
X160645333Y-141359490D02*
X161319200Y-142033357D01*
X161319200Y-142033357D02*
X161319200Y-144675200D01*
X147800000Y-123025000D02*
X147800000Y-123225000D01*
X148317902Y-121075000D02*
X148365501Y-121122599D01*
X142085441Y-120159499D02*
X143000942Y-121075000D01*
X141614559Y-120159499D02*
X142085441Y-120159499D01*
X148365501Y-122459499D02*
X147800000Y-123025000D01*
X154975000Y-140898289D02*
X154257788Y-141615501D01*
X148365501Y-121122599D02*
X148365501Y-122459499D01*
X154975000Y-140575000D02*
X154975000Y-140898289D01*
X141224000Y-120550058D02*
X141614559Y-120159499D01*
X154257788Y-141615501D02*
X148147599Y-141615501D01*
X148147599Y-141615501D02*
X141224000Y-134691902D01*
X143000942Y-121075000D02*
X148317902Y-121075000D01*
X141224000Y-134691902D02*
X141224000Y-120550058D01*
X191714360Y-102970800D02*
X192241410Y-102970800D01*
X174766562Y-117198609D02*
X174766562Y-121207420D01*
X192241410Y-102970800D02*
X192304911Y-103034301D01*
X174766562Y-121207420D02*
X167050000Y-128923982D01*
X192304911Y-103034301D02*
X192304911Y-104020089D01*
X188453459Y-104149999D02*
X188242223Y-103938763D01*
X192304911Y-104020089D02*
X192175001Y-104149999D01*
X192175001Y-104149999D02*
X188453459Y-104149999D01*
X167050000Y-128923982D02*
X167050000Y-139175000D01*
X188242223Y-103938763D02*
X187461237Y-103938763D01*
X187461237Y-103938763D02*
X187183685Y-104216315D01*
X187183685Y-104216315D02*
X187183685Y-104781486D01*
X187183685Y-104781486D02*
X174766562Y-117198609D01*
X163300000Y-139175000D02*
X161000000Y-139175000D01*
X161000000Y-139175000D02*
X160775000Y-139400000D01*
X174991666Y-80833833D02*
X174991666Y-78381408D01*
X174254937Y-68882664D02*
X176109923Y-67027678D01*
X174991666Y-78381408D02*
X176428390Y-76944684D01*
X176434907Y-67027678D02*
X177636988Y-67027678D01*
X176428390Y-76944684D02*
X176428390Y-75031590D01*
X176428390Y-75031590D02*
X176428400Y-75031580D01*
X176428400Y-75031580D02*
X176428400Y-72908872D01*
X176428400Y-72908872D02*
X174254936Y-70735408D01*
X176109923Y-67027678D02*
X176434907Y-67027678D01*
X174254936Y-70735408D02*
X174254937Y-68882664D01*
X174752000Y-98981260D02*
X174752000Y-88974746D01*
X174752000Y-88974746D02*
X173718219Y-87940965D01*
X173718219Y-87940965D02*
X173718219Y-87325000D01*
X173718219Y-87325000D02*
X173718219Y-86395668D01*
X175050006Y-68446819D02*
X176072800Y-68446819D01*
X176072800Y-68446819D02*
X176286339Y-68660358D01*
X176286339Y-68660358D02*
X179582741Y-68660358D01*
X175419912Y-81231195D02*
X175419912Y-78312386D01*
X176682400Y-72803648D02*
X174508946Y-70630194D01*
X175419912Y-78312386D02*
X176682400Y-77049898D01*
X174508946Y-68987879D02*
X175050006Y-68446819D01*
X176682400Y-77049898D02*
X176682400Y-72803648D01*
X174508946Y-70630194D02*
X174508946Y-68987879D01*
X175252380Y-98981260D02*
X175252380Y-98277380D01*
X175252380Y-98277380D02*
X175006010Y-98031010D01*
X175006010Y-98031010D02*
X175006010Y-88869532D01*
X175006010Y-88869532D02*
X174137319Y-88000841D01*
X174137319Y-87550000D02*
X174137319Y-87100000D01*
X174137319Y-88000841D02*
X174137319Y-87550000D01*
X158891508Y-121818400D02*
X159525308Y-121184600D01*
X159525308Y-121184600D02*
X161374200Y-121184600D01*
X155289750Y-128290501D02*
X158048641Y-128290501D01*
X158048641Y-128290501D02*
X158112142Y-128227000D01*
X158112142Y-128227000D02*
X158112142Y-127380000D01*
X154894810Y-128455602D02*
X155124649Y-128455602D01*
X155124649Y-128455602D02*
X155289750Y-128290501D01*
X161374200Y-121469600D02*
X161374200Y-121184600D01*
X166573200Y-118821200D02*
X167532600Y-118821200D01*
X167532600Y-118821200D02*
X167540600Y-118829200D01*
X155490920Y-128709601D02*
X158029541Y-128709601D01*
X158029541Y-128709601D02*
X158512142Y-128227000D01*
X158512142Y-128227000D02*
X158512142Y-127380000D01*
X158912142Y-127380000D02*
X158912142Y-128227000D01*
X158912142Y-128227000D02*
X158175531Y-128963611D01*
X158175531Y-128963611D02*
X155857180Y-128963611D01*
X155857180Y-128963611D02*
X155692089Y-129128702D01*
X155692089Y-129128702D02*
X154947640Y-129128702D01*
X154947640Y-129128702D02*
X154271752Y-128452814D01*
X154271752Y-128452814D02*
X154256584Y-128452814D01*
X162102800Y-115685549D02*
X161874200Y-115914149D01*
X161874200Y-115914149D02*
X161874200Y-117734600D01*
X157734000Y-129540000D02*
X157407000Y-129540000D01*
X157407000Y-129540000D02*
X157380110Y-129513110D01*
X157380110Y-129513110D02*
X154499558Y-129513110D01*
X154499558Y-129513110D02*
X153691824Y-128705376D01*
X163374200Y-115766449D02*
X163293300Y-115685549D01*
X163374200Y-117734600D02*
X163374200Y-115766449D01*
X164033200Y-120904000D02*
X164033200Y-121361190D01*
X164033200Y-121361190D02*
X163594289Y-121800101D01*
X163594289Y-121800101D02*
X162937701Y-121800101D01*
X162874200Y-121184600D02*
X162874200Y-121736600D01*
X162874200Y-121736600D02*
X162937701Y-121800101D01*
X160912142Y-125040000D02*
X160912142Y-124125166D01*
X160912142Y-124125166D02*
X161009570Y-124027738D01*
X161625000Y-123964398D02*
X161624842Y-123964398D01*
X161624842Y-123964398D02*
X161544000Y-124045240D01*
X161544000Y-124045240D02*
X161544000Y-124113578D01*
X161544000Y-124113578D02*
X161312142Y-124345436D01*
X161312142Y-124345436D02*
X161312142Y-125040000D01*
X167540600Y-120329200D02*
X166770464Y-120329200D01*
X166770464Y-120329200D02*
X166027100Y-119585836D01*
D66*
X160119200Y-144675200D02*
X160119200Y-142605800D01*
X160119200Y-142605800D02*
X160125000Y-142600000D01*
D63*
X157719200Y-147015200D02*
X157719200Y-147984997D01*
X157719200Y-147984997D02*
X157909203Y-148175000D01*
X178252120Y-98981260D02*
X178252120Y-100211680D01*
X178252120Y-100211680D02*
X178225000Y-100238800D01*
X157319200Y-147015200D02*
X157319200Y-148169200D01*
X157319200Y-148169200D02*
X157325000Y-148175000D01*
X179750720Y-98981260D02*
X179750720Y-99857560D01*
X179750720Y-99857560D02*
X179951801Y-100058641D01*
X179951801Y-100058641D02*
X179951801Y-100550000D01*
X156919200Y-147015200D02*
X156919200Y-147996597D01*
X156919200Y-147996597D02*
X156740797Y-148175000D01*
X182250080Y-89345368D02*
X181141485Y-90453963D01*
X182250080Y-87383620D02*
X182250080Y-89345368D01*
X160155513Y-72193770D02*
X160150000Y-72199283D01*
X160155513Y-69435223D02*
X160155513Y-72193770D01*
X156519200Y-147015200D02*
X156519200Y-147776327D01*
X156519200Y-147776327D02*
X156156594Y-148138933D01*
X156156594Y-148138933D02*
X156156594Y-148175000D01*
X181749700Y-89023675D02*
X180771614Y-90001761D01*
X181749700Y-87383620D02*
X181749700Y-89023675D01*
X160750000Y-69437012D02*
X160750000Y-72199283D01*
X158912142Y-124322072D02*
X158783067Y-124192997D01*
X158783067Y-124192997D02*
X158554468Y-123964398D01*
X158912142Y-125040000D02*
X158912142Y-124322072D01*
X161375000Y-69437012D02*
X161375000Y-72199283D01*
X181249320Y-88728530D02*
X180485344Y-89492506D01*
X181249320Y-87383620D02*
X181249320Y-88728530D01*
X159312142Y-125040000D02*
X159312142Y-124125006D01*
X159312142Y-124125006D02*
X159215237Y-124028101D01*
X161975000Y-69437012D02*
X161975000Y-72199283D01*
X180748940Y-87383620D02*
X180748940Y-88403762D01*
X180748940Y-88403762D02*
X180093479Y-89059223D01*
X161444196Y-131527818D02*
X161444196Y-131345264D01*
X161444196Y-131345264D02*
X161622934Y-131166526D01*
X161622934Y-131166526D02*
X161622934Y-130469010D01*
X161622934Y-130469010D02*
X163418687Y-128673257D01*
X163418687Y-128673257D02*
X163418687Y-123700913D01*
X154512142Y-124193000D02*
X154512142Y-125040000D01*
X163418687Y-123700913D02*
X162247026Y-122529252D01*
X156175890Y-122529252D02*
X154512142Y-124193000D01*
X162247026Y-122529252D02*
X156175890Y-122529252D01*
X179925980Y-88582500D02*
X179755800Y-88582500D01*
X180248560Y-88259920D02*
X179925980Y-88582500D01*
X180248560Y-87383620D02*
X180248560Y-88259920D01*
X162575000Y-69437012D02*
X162575000Y-72199283D01*
X161750052Y-131899948D02*
X161750052Y-132025558D01*
X163672698Y-128778471D02*
X161882536Y-130568633D01*
X162352240Y-122275241D02*
X163672698Y-123595699D01*
X154112142Y-125040000D02*
X154112142Y-124193000D01*
X161882536Y-130568633D02*
X161882536Y-131767464D01*
X156029901Y-122275241D02*
X162352240Y-122275241D01*
X163672698Y-123595699D02*
X163672698Y-128778471D01*
X154112142Y-124193000D02*
X156029901Y-122275241D01*
X161882536Y-131767464D02*
X161750052Y-131899948D01*
X161974385Y-128544512D02*
X162469757Y-128544512D01*
X161931384Y-123291285D02*
X156613857Y-123291285D01*
X156613857Y-123291285D02*
X155712142Y-124193000D01*
X155712142Y-124193000D02*
X155712142Y-125040000D01*
X162656654Y-128357615D02*
X162656654Y-124016555D01*
X162469757Y-128544512D02*
X162656654Y-128357615D01*
X160274127Y-130244770D02*
X161974385Y-128544512D01*
X162656654Y-124016555D02*
X161931384Y-123291285D01*
X159550000Y-69437012D02*
X159550000Y-72199283D01*
X171526200Y-89433400D02*
X171513500Y-89420700D01*
X172702220Y-89433400D02*
X171526200Y-89433400D01*
X160325000Y-135000000D02*
X160325000Y-140055800D01*
X160325000Y-140055800D02*
X160821121Y-140551921D01*
X160821121Y-140551921D02*
X161542991Y-140551921D01*
X161542991Y-140551921D02*
X162409701Y-141418631D01*
X162409701Y-141418631D02*
X162409701Y-142087600D01*
X162409701Y-141883759D02*
X162409701Y-142087600D01*
X162409701Y-142087600D02*
X162409701Y-145877699D01*
X162409701Y-145877699D02*
X162119200Y-146168200D01*
X162119200Y-146168200D02*
X162119200Y-147015200D01*
D70*
X162119200Y-147015200D02*
X161719200Y-147015200D01*
D63*
X159761001Y-129965497D02*
X161435997Y-128290501D01*
X161435997Y-128290501D02*
X162364543Y-128290501D01*
X162364543Y-128290501D02*
X162402643Y-128252401D01*
X162402643Y-128252401D02*
X162402643Y-124121771D01*
X162402643Y-124121771D02*
X161826169Y-123545297D01*
X161826169Y-123545297D02*
X156759845Y-123545297D01*
X156759845Y-123545297D02*
X156112142Y-124193000D01*
X156112142Y-124193000D02*
X156112142Y-125040000D01*
X183175000Y-98323040D02*
X183147404Y-98350636D01*
X183147404Y-98350636D02*
X183147404Y-100175000D01*
X184299860Y-96931480D02*
X184299860Y-97198180D01*
X184299860Y-97198180D02*
X183175000Y-98323040D01*
X161140325Y-131028865D02*
X161140325Y-130592394D01*
X161140325Y-130592394D02*
X163164676Y-128568043D01*
X162141812Y-122783263D02*
X156321879Y-122783263D01*
X154912142Y-124193000D02*
X154912142Y-125040000D01*
X163164676Y-128568043D02*
X163164676Y-123806127D01*
X163164676Y-123806127D02*
X162141812Y-122783263D01*
X156321879Y-122783263D02*
X154912142Y-124193000D01*
X181749700Y-98981260D02*
X181749700Y-100175300D01*
X181749700Y-100175300D02*
X181725000Y-100200000D01*
X156467868Y-123037274D02*
X155312142Y-124193000D01*
X160933148Y-130411176D02*
X160962318Y-130411176D01*
X155312142Y-124193000D02*
X155312142Y-125040000D01*
X160962318Y-130411176D02*
X162910665Y-128462829D01*
X162910665Y-123911341D02*
X162036598Y-123037274D01*
X162910665Y-128462829D02*
X162910665Y-123911341D01*
X162036598Y-123037274D02*
X156467868Y-123037274D01*
X160704549Y-130639775D02*
X160933148Y-130411176D01*
X182250080Y-98981260D02*
X182250080Y-100140877D01*
X182250080Y-100140877D02*
X182309203Y-100200000D01*
X184038242Y-98425000D02*
X183750000Y-98713242D01*
X183750000Y-98713242D02*
X183750000Y-100175000D01*
X184299860Y-95930720D02*
X185031382Y-95930720D01*
X185031382Y-95930720D02*
X185239661Y-96138999D01*
X185239661Y-96138999D02*
X185239661Y-97223581D01*
X185239661Y-97223581D02*
X184038242Y-98425000D01*
X129575000Y-88125000D02*
X128207499Y-89492501D01*
X146796895Y-87460749D02*
X130239251Y-87460749D01*
X130239251Y-87460749D02*
X129575000Y-88125000D01*
X184299860Y-91932760D02*
X183423560Y-91932760D01*
X183423560Y-91932760D02*
X181550000Y-93806320D01*
X181550000Y-93806320D02*
X181550000Y-94656093D01*
X161933448Y-95000000D02*
X165300000Y-95000000D01*
X153475485Y-88500380D02*
X155433829Y-88500381D01*
X151469118Y-86494013D02*
X153475485Y-88500380D01*
X155433829Y-88500381D02*
X161933448Y-95000000D01*
X143802100Y-86156800D02*
X147013170Y-86156800D01*
X147013170Y-86156800D02*
X147350383Y-86494013D01*
X147350383Y-86494013D02*
X151469118Y-86494013D01*
X139375000Y-91950000D02*
X141725000Y-89600000D01*
X141725000Y-89600000D02*
X143800000Y-89600000D01*
X123205900Y-91950000D02*
X139375000Y-91950000D01*
X150175000Y-88322880D02*
X150952200Y-88322880D01*
X150175000Y-88322880D02*
X147038756Y-88322880D01*
X147038756Y-88322880D02*
X146430635Y-87714759D01*
X146430635Y-87714759D02*
X130589516Y-87714759D01*
X130589516Y-87714759D02*
X128254417Y-90049858D01*
X128254417Y-90049858D02*
X128032445Y-90049858D01*
X180705449Y-94656094D02*
X182480455Y-96431100D01*
X182480455Y-96431100D02*
X184299860Y-96431100D01*
X153319200Y-147015200D02*
X153319200Y-148384272D01*
X153319200Y-148384272D02*
X153390828Y-148455900D01*
X153719200Y-147015200D02*
X153719200Y-148194200D01*
X153719200Y-148194200D02*
X153975000Y-148450000D01*
X124776050Y-80847880D02*
X126459364Y-79164566D01*
X126459364Y-79164566D02*
X126722283Y-79164566D01*
X115147475Y-90476453D02*
X124675000Y-80948928D01*
X124675000Y-80948928D02*
X124776050Y-80847880D01*
X119886595Y-138903654D02*
X117441980Y-136459039D01*
X117441980Y-110216972D02*
X115147475Y-107922467D01*
X115147475Y-107922467D02*
X115147475Y-90476453D01*
X119886595Y-139373611D02*
X119886595Y-138903654D01*
X117441980Y-136459039D02*
X117441980Y-110216972D01*
X151459537Y-143168537D02*
X148030692Y-143168537D01*
X152119200Y-143828200D02*
X151459537Y-143168537D01*
X152119200Y-144675200D02*
X152119200Y-143828200D01*
X126684328Y-78580375D02*
X126905625Y-78580375D01*
X126905625Y-78580375D02*
X126961900Y-78524100D01*
X114893464Y-90371240D02*
X126684328Y-78580375D01*
X114893464Y-108027681D02*
X114893464Y-90371240D01*
X117175001Y-110309218D02*
X114893464Y-108027681D01*
X117175001Y-136551284D02*
X117175001Y-110309218D01*
X119303590Y-139410989D02*
X119303590Y-138679873D01*
X119303590Y-138679873D02*
X117175001Y-136551284D01*
X151490598Y-143599598D02*
X148425000Y-143599598D01*
X151719200Y-143828200D02*
X151490598Y-143599598D01*
X151719200Y-144675200D02*
X151719200Y-143828200D01*
X126504700Y-79837676D02*
X127502322Y-79837676D01*
X124986477Y-81355899D02*
X126504700Y-79837676D01*
X127502322Y-79837676D02*
X127857149Y-79482849D01*
X124450000Y-81892376D02*
X124986477Y-81355899D01*
X124450000Y-81892376D02*
X124750000Y-81592376D01*
X115655497Y-90686879D02*
X124450000Y-81892376D01*
X121075000Y-139373611D02*
X117950001Y-136248611D01*
X117950001Y-136248611D02*
X117950001Y-110006543D01*
X117950001Y-110006543D02*
X115655497Y-107712039D01*
X115655497Y-107712039D02*
X115655497Y-90686879D01*
X147348831Y-142413499D02*
X146965797Y-142796533D01*
X146965797Y-142796533D02*
X146965797Y-142832600D01*
X151504499Y-142413499D02*
X147348831Y-142413499D01*
X152919200Y-143828200D02*
X151504499Y-142413499D01*
X152919200Y-144675200D02*
X152919200Y-143828200D01*
X124881263Y-81101889D02*
X126138252Y-79844900D01*
X126138252Y-79844900D02*
X126399486Y-79583666D01*
X126399486Y-79583666D02*
X127108908Y-79583666D01*
X127108908Y-79583666D02*
X127273998Y-79418576D01*
X120470798Y-139373611D02*
X120470798Y-139129202D01*
X120450000Y-139108404D02*
X120450000Y-139107835D01*
X120470798Y-139129202D02*
X120450000Y-139108404D01*
X120450000Y-139107835D02*
X117695991Y-136353826D01*
X117695991Y-136353826D02*
X117695991Y-110111758D01*
X117695991Y-110111758D02*
X115401486Y-107817253D01*
X115401486Y-107817253D02*
X115401486Y-90581666D01*
X115401486Y-90581666D02*
X124881263Y-81101889D01*
X147633164Y-142749436D02*
X147550000Y-142832600D01*
X151440436Y-142749436D02*
X147633164Y-142749436D01*
X152519200Y-143828200D02*
X151440436Y-142749436D01*
X152519200Y-144675200D02*
X152519200Y-143828200D01*
X159087891Y-129659113D02*
X160112142Y-128634862D01*
X162387661Y-132907609D02*
X161652608Y-132907608D01*
X162669101Y-132626169D02*
X162387661Y-132907609D01*
X162669101Y-132223831D02*
X162669101Y-132626169D01*
X160112142Y-128634862D02*
X160112142Y-127380000D01*
X161652608Y-132907608D02*
X159087890Y-130342890D01*
X162301637Y-131856367D02*
X162669101Y-132223831D01*
X162301637Y-131833085D02*
X162301637Y-131856367D01*
X159087890Y-130342890D02*
X159087891Y-129659113D01*
X160512142Y-128227000D02*
X160512142Y-127380000D01*
X160512142Y-128594086D02*
X160512142Y-128227000D01*
X162021402Y-132653599D02*
X161757823Y-132653599D01*
X159341900Y-129764328D02*
X160512142Y-128594086D01*
X161757823Y-132653599D02*
X159341900Y-130237675D01*
X162250001Y-132425000D02*
X162021402Y-132653599D01*
X159341900Y-130237675D02*
X159341900Y-129764328D01*
X154119200Y-147015200D02*
X154119200Y-147971963D01*
X154119200Y-147971963D02*
X154995348Y-148848111D01*
X154995348Y-148848111D02*
X162043052Y-148848111D01*
X162043052Y-148848111D02*
X166522431Y-144368732D01*
X166522431Y-144368732D02*
X166522431Y-134416800D01*
X166522431Y-134416800D02*
X166217600Y-134111969D01*
X171704000Y-119490600D02*
X171542600Y-119329200D01*
X166217600Y-134111969D02*
X166217600Y-124714000D01*
X166217600Y-124714000D02*
X167335200Y-123596400D01*
X167335200Y-123596400D02*
X169062400Y-123596400D01*
X169062400Y-123596400D02*
X171704000Y-120954800D01*
X171704000Y-120954800D02*
X171704000Y-119490600D01*
X171542600Y-119329200D02*
X170990600Y-119329200D01*
D65*
X133502400Y-149402800D02*
X134728800Y-149402800D01*
X131013200Y-148691600D02*
X131724400Y-149402800D01*
X131724400Y-149402800D02*
X133502400Y-149402800D01*
X131013200Y-146014198D02*
X131013200Y-148691600D01*
X128474002Y-143475000D02*
X131013200Y-146014198D01*
X124925000Y-143475000D02*
X128474002Y-143475000D01*
D63*
X156119200Y-144675200D02*
X156119200Y-143828200D01*
X156119200Y-143828200D02*
X156217719Y-143729681D01*
X156217719Y-143729681D02*
X156217719Y-143518681D01*
D71*
X156217719Y-137557598D02*
X156217719Y-143518681D01*
X155500284Y-136799716D02*
X155500284Y-136840163D01*
X155500284Y-136840163D02*
X156217719Y-137557598D01*
X155087719Y-140000000D02*
X155187719Y-140000000D01*
X155049716Y-137250284D02*
X155090163Y-137250284D01*
X154892471Y-139144564D02*
X154807148Y-139198175D01*
X155090163Y-137250284D02*
X155637719Y-137797840D01*
X154682283Y-139745247D02*
X154735894Y-139830570D01*
X155637719Y-137797840D02*
X155637719Y-138650000D01*
X155539543Y-140169429D02*
X155593154Y-140254752D01*
X155637719Y-138650000D02*
X155626436Y-138750134D01*
X155539543Y-138930570D02*
X155468289Y-139001824D01*
X155187719Y-140000000D02*
X155287853Y-140011282D01*
X155287853Y-139088717D02*
X155187719Y-139100000D01*
X155087719Y-139100000D02*
X154987584Y-139111282D01*
X155626436Y-138750134D02*
X155593154Y-138845247D01*
X154987584Y-139111282D02*
X154892471Y-139144564D01*
X155468289Y-140098175D02*
X155539543Y-140169429D01*
X155382966Y-139055435D02*
X155287853Y-139088717D01*
X154807148Y-139198175D02*
X154735894Y-139269429D01*
X155637719Y-140450000D02*
X155637719Y-141959333D01*
X154649001Y-139650134D02*
X154682283Y-139745247D01*
X155593154Y-138845247D02*
X155539543Y-138930570D01*
X155468289Y-139001824D02*
X155382966Y-139055435D01*
X154807148Y-139901824D02*
X154892471Y-139955435D01*
X155187719Y-139100000D02*
X155087719Y-139100000D01*
X154735894Y-139269429D02*
X154682283Y-139354752D01*
X154682283Y-139354752D02*
X154649001Y-139449865D01*
X155626436Y-140349865D02*
X155637719Y-140450000D01*
X154649001Y-139449865D02*
X154637719Y-139550000D01*
X154637719Y-139550000D02*
X154649001Y-139650134D01*
X154735894Y-139830570D02*
X154807148Y-139901824D01*
X154892471Y-139955435D02*
X154987584Y-139988717D01*
X154987584Y-139988717D02*
X155087719Y-140000000D01*
X155287853Y-140011282D02*
X155382966Y-140044564D01*
X155593154Y-140254752D02*
X155626436Y-140349865D01*
X155382966Y-140044564D02*
X155468289Y-140098175D01*
X155637719Y-141959333D02*
X155637719Y-143518681D01*
D63*
X155719200Y-144675200D02*
X155719200Y-143828200D01*
X155719200Y-143828200D02*
X155637719Y-143746719D01*
X155637719Y-143746719D02*
X155637719Y-143518681D01*
D61*
X134670800Y-115925600D02*
X134760602Y-115925600D01*
X134760602Y-115925600D02*
X135099999Y-116264997D01*
X132975000Y-115150000D02*
X133678001Y-115150000D01*
X133678001Y-115150000D02*
X134453601Y-115925600D01*
X134453601Y-115925600D02*
X134670800Y-115925600D01*
X135099999Y-116264997D02*
X135099999Y-125755400D01*
X137495280Y-131201160D02*
X137495280Y-130343281D01*
X135099999Y-125755400D02*
X135099999Y-127127000D01*
X137495280Y-130343281D02*
X135099999Y-127948000D01*
X135099999Y-127948000D02*
X135099999Y-125755400D01*
D63*
X189749240Y-106250240D02*
X190297432Y-106250240D01*
X190297432Y-106250240D02*
X190664199Y-106617007D01*
X151675000Y-88322880D02*
X151675000Y-87478200D01*
X151675000Y-87478200D02*
X151674400Y-87477600D01*
X158925000Y-145850000D02*
X158925000Y-147009400D01*
X158925000Y-147009400D02*
X158919200Y-147015200D01*
X170015600Y-121054200D02*
X169518175Y-121054200D01*
X155203799Y-148594101D02*
X154519200Y-147909502D01*
X169518175Y-121054200D02*
X165963589Y-124608786D01*
X165963589Y-124608786D02*
X165963589Y-134217183D01*
X161928227Y-148594101D02*
X155203799Y-148594101D01*
X165963589Y-134217183D02*
X166268420Y-134522013D01*
X154519200Y-147909502D02*
X154519200Y-147015200D01*
X166268420Y-134522013D02*
X166268420Y-144253908D01*
X166268420Y-144253908D02*
X161928227Y-148594101D01*
X184299860Y-90434160D02*
X186214840Y-90434160D01*
X186214840Y-90434160D02*
X186225000Y-90424000D01*
X158634000Y-129540000D02*
X158634000Y-129113000D01*
X158634000Y-129113000D02*
X159312142Y-128434858D01*
X159312142Y-128434858D02*
X159312142Y-128227000D01*
X159312142Y-128227000D02*
X159312142Y-127380000D01*
X155989728Y-72975001D02*
X150217600Y-67202873D01*
X150217600Y-67202873D02*
X150217600Y-65966891D01*
X150217600Y-65966891D02*
X150217600Y-62215900D01*
X188764989Y-106069155D02*
X188993588Y-105840556D01*
X189222190Y-108925240D02*
X188575347Y-108278397D01*
X188575347Y-106258797D02*
X188764989Y-106069155D01*
X189749240Y-108925240D02*
X189222190Y-108925240D01*
X188575347Y-108278397D02*
X188575347Y-106258797D01*
X166188654Y-146013655D02*
X162592168Y-149610141D01*
X162592168Y-149610141D02*
X152610141Y-149610141D01*
X152610141Y-149610141D02*
X152334499Y-149334499D01*
X152334499Y-149334499D02*
X151607499Y-149334499D01*
X151607499Y-149334499D02*
X151425000Y-149152000D01*
X151425000Y-149152000D02*
X151425000Y-148825000D01*
X167014394Y-144155900D02*
X169559876Y-144155900D01*
X169559876Y-144155900D02*
X171395388Y-142320388D01*
X171395388Y-142320388D02*
X171395388Y-142295388D01*
X171395388Y-142295388D02*
X176391601Y-137299175D01*
X176391601Y-137299175D02*
X176391601Y-124899175D01*
X176391601Y-124899175D02*
X189749240Y-111541536D01*
X189749240Y-111541536D02*
X189749240Y-108925240D01*
X157149800Y-72821800D02*
X153592600Y-69264600D01*
X153592600Y-69264600D02*
X153592600Y-67760211D01*
X153592600Y-67760211D02*
X153592600Y-62190900D01*
X151400000Y-148150000D02*
X149527000Y-148150000D01*
X162148266Y-149102121D02*
X153100000Y-149102121D01*
X151400000Y-148150000D02*
X151909224Y-148150000D01*
X151909224Y-148150000D02*
X152861345Y-149102121D01*
X152861345Y-149102121D02*
X153100000Y-149102121D01*
X192341311Y-107872409D02*
X192341311Y-109308689D01*
X191750760Y-107624760D02*
X192093662Y-107624760D01*
X192093662Y-107624760D02*
X192341311Y-107872409D01*
X192341311Y-109308689D02*
X176645611Y-125004389D01*
X148852000Y-148825000D02*
X148425000Y-148825000D01*
X176645611Y-125004389D02*
X176645611Y-137429389D01*
X176645611Y-137429389D02*
X169500000Y-144575000D01*
X169500000Y-144575000D02*
X166675387Y-144575000D01*
X166675387Y-144575000D02*
X162148266Y-149102121D01*
X149527000Y-148150000D02*
X148852000Y-148825000D01*
X191750760Y-107624760D02*
X191438186Y-107624760D01*
X191438186Y-107624760D02*
X190960364Y-107146938D01*
X191750760Y-107624760D02*
X191750760Y-107510311D01*
X156568776Y-72897575D02*
X151892600Y-68221399D01*
X151892600Y-68221399D02*
X151892600Y-66967703D01*
X151892600Y-66967703D02*
X151892600Y-62215900D01*
X191750760Y-104949760D02*
X191105103Y-104949760D01*
X191105103Y-104949760D02*
X191093234Y-104937891D01*
X149925000Y-148825000D02*
X150352000Y-148825000D01*
X150352000Y-148825000D02*
X150742501Y-148434499D01*
X150742501Y-148434499D02*
X151834499Y-148434499D01*
X151834499Y-148434499D02*
X152756131Y-149356131D01*
X152756131Y-149356131D02*
X162253480Y-149356131D01*
X166780601Y-144829010D02*
X169605214Y-144829010D01*
X162253480Y-149356131D02*
X166780601Y-144829010D01*
X169605214Y-144829010D02*
X176899621Y-137534603D01*
X176899621Y-137534603D02*
X176899621Y-125109603D01*
X176899621Y-125109603D02*
X192595320Y-109413904D01*
X192595320Y-109413904D02*
X192595320Y-105267270D01*
X191750760Y-104949760D02*
X192277810Y-104949760D01*
X192277810Y-104949760D02*
X192595320Y-105267270D01*
X174256697Y-97109277D02*
X174256697Y-99675000D01*
X174256697Y-99675000D02*
X174256697Y-99800690D01*
X175045692Y-100586550D02*
X174722403Y-100586550D01*
X174722403Y-100586550D02*
X174256697Y-100120844D01*
X174256697Y-100120844D02*
X174256697Y-99675000D01*
X172702220Y-96431100D02*
X173578520Y-96431100D01*
X173578520Y-96431100D02*
X174256697Y-97109277D01*
X189749240Y-108275000D02*
X189222190Y-108275000D01*
X189222190Y-108275000D02*
X188994448Y-108047258D01*
X188994448Y-108047258D02*
X188994448Y-106525141D01*
X191750760Y-108275000D02*
X191474515Y-108275000D01*
X191474515Y-108275000D02*
X190149515Y-106950000D01*
X189748289Y-106950000D02*
X189425000Y-106950000D01*
X190149515Y-106950000D02*
X189748289Y-106950000D01*
X191750760Y-108275000D02*
X191474514Y-108275000D01*
X191750760Y-108275000D02*
X191475942Y-108275000D01*
X173275000Y-100500000D02*
X172800000Y-100025000D01*
X172800000Y-100025000D02*
X172702220Y-99927220D01*
X175049939Y-101175000D02*
X173950000Y-101175000D01*
X173950000Y-101175000D02*
X172800000Y-100025000D01*
X172702220Y-99927220D02*
X172702220Y-98550000D01*
X172702220Y-98550000D02*
X172702220Y-96931480D01*
X189570695Y-105421455D02*
X188329921Y-105421455D01*
X188329921Y-105421455D02*
X187901376Y-105850000D01*
X177751740Y-98981260D02*
X177751740Y-98249738D01*
X177751740Y-98249738D02*
X177960019Y-98041459D01*
X177960019Y-98041459D02*
X178983541Y-98041459D01*
X178983541Y-98041459D02*
X180075000Y-96950000D01*
X180075000Y-96950000D02*
X180075000Y-96764344D01*
X177751740Y-98290190D02*
X177754179Y-98290190D01*
X177751740Y-98981260D02*
X177751740Y-98290190D01*
X177751740Y-98981260D02*
X177751740Y-98292631D01*
X189749240Y-105600000D02*
X189570695Y-105421455D01*
X118135371Y-139400771D02*
X118135371Y-138230102D01*
X118135371Y-138230102D02*
X116666980Y-136761711D01*
X116666980Y-110519647D02*
X114375000Y-108227667D01*
X116666980Y-136761711D02*
X116666980Y-110519647D01*
X114375000Y-108227667D02*
X114375000Y-103875000D01*
X114375000Y-103875000D02*
X114385444Y-103864556D01*
X114385444Y-103864556D02*
X114385445Y-89775473D01*
X114385445Y-89775473D02*
X127555035Y-76605883D01*
X136460634Y-75100435D02*
X135947550Y-74587351D01*
X135947550Y-74587351D02*
X131165349Y-74587351D01*
X131165349Y-74587351D02*
X131152900Y-74599800D01*
X131152900Y-74599800D02*
X130962400Y-74790300D01*
X147719200Y-146030800D02*
X147775000Y-145975000D01*
X147719200Y-147015200D02*
X147719200Y-146030800D01*
X135483600Y-75421287D02*
X135281097Y-75623790D01*
X135483600Y-75097998D02*
X135483600Y-75421287D01*
X135281097Y-75623790D02*
X131262490Y-75623790D01*
X131262490Y-75623790D02*
X131038600Y-75399900D01*
X127528059Y-77225556D02*
X127528058Y-77225556D01*
X127528058Y-77225556D02*
X114639454Y-90114160D01*
X114639454Y-90114160D02*
X114639453Y-108132896D01*
X116920990Y-136656497D02*
X118719560Y-138455067D01*
X114639453Y-108132896D02*
X116920990Y-110414433D01*
X116920990Y-110414433D02*
X116920990Y-136656497D01*
X118719560Y-138455067D02*
X118719560Y-139396840D01*
X147319200Y-145845002D02*
X147225000Y-145750802D01*
X147319200Y-147015200D02*
X147319200Y-145845002D01*
D65*
X135628800Y-149402800D02*
X143305200Y-149402800D01*
M02*
