G04 #@! TF.FileFunction,Paste,Top*
%FSLAX46Y46*%
G04 Gerber Fmt 4.6, Leading zero omitted, Abs format (unit mm)*
G04 Created by KiCad (PCBNEW 4.0.5) date 02/24/17 11:29:51*
%MOMM*%
%LPD*%
G01*
G04 APERTURE LIST*
%ADD10C,0.100000*%
%ADD11R,0.800100X0.500380*%
%ADD12R,0.900000X0.500000*%
%ADD13R,1.498600X0.279400*%
%ADD14R,0.279400X1.498600*%
%ADD15R,0.500000X0.900000*%
%ADD16R,0.500000X1.000000*%
%ADD17R,0.850000X0.280000*%
%ADD18R,0.280000X0.850000*%
%ADD19R,2.050000X2.050000*%
%ADD20R,1.200000X1.400000*%
%ADD21R,0.600000X0.400000*%
%ADD22R,0.600000X0.500000*%
%ADD23R,0.800000X0.750000*%
%ADD24R,0.750000X0.800000*%
%ADD25R,0.800000X0.800000*%
%ADD26R,0.600000X0.550000*%
%ADD27R,1.500000X3.200000*%
%ADD28R,1.500000X1.000000*%
%ADD29R,1.500000X3.300000*%
%ADD30R,0.548640X1.198880*%
%ADD31R,0.420000X0.600000*%
%ADD32R,0.600000X0.800000*%
%ADD33R,1.200000X0.900000*%
%ADD34R,0.998220X1.099820*%
%ADD35R,0.200000X1.440000*%
%ADD36R,1.000000X0.500000*%
%ADD37R,2.200000X1.050000*%
%ADD38R,1.050000X1.000000*%
%ADD39R,0.850000X0.900000*%
%ADD40R,0.450000X0.500000*%
%ADD41R,2.550000X2.500000*%
%ADD42R,0.400000X0.600000*%
%ADD43R,0.500000X0.600000*%
G04 APERTURE END LIST*
D10*
D11*
X189749240Y-104949760D03*
X191750760Y-105600000D03*
X189749240Y-106250240D03*
X189749240Y-105600000D03*
X191750760Y-106250240D03*
X191750760Y-104949760D03*
D10*
G36*
X142441767Y-78974849D02*
X142141061Y-78021132D01*
X144477667Y-77284403D01*
X144778373Y-78238120D01*
X142441767Y-78974849D01*
X142441767Y-78974849D01*
G37*
G36*
X133364481Y-85003464D02*
X132627752Y-82666858D01*
X133581469Y-82366152D01*
X134318198Y-84702758D01*
X133364481Y-85003464D01*
X133364481Y-85003464D01*
G37*
G36*
X127487554Y-73414309D02*
X127186848Y-72460592D01*
X129523454Y-71723863D01*
X129824160Y-72677580D01*
X127487554Y-73414309D01*
X127487554Y-73414309D01*
G37*
G36*
X127908542Y-74749513D02*
X127607836Y-73795796D01*
X129944442Y-73059067D01*
X130245148Y-74012784D01*
X127908542Y-74749513D01*
X127908542Y-74749513D01*
G37*
G36*
X128329530Y-76084716D02*
X128028824Y-75130999D01*
X130365430Y-74394270D01*
X130666136Y-75347987D01*
X128329530Y-76084716D01*
X128329530Y-76084716D01*
G37*
G36*
X128750518Y-77419920D02*
X128449812Y-76466203D01*
X130786418Y-75729474D01*
X131087124Y-76683191D01*
X128750518Y-77419920D01*
X128750518Y-77419920D01*
G37*
G36*
X129171506Y-78755124D02*
X128870800Y-77801407D01*
X131207406Y-77064678D01*
X131508112Y-78018395D01*
X129171506Y-78755124D01*
X129171506Y-78755124D01*
G37*
G36*
X129592494Y-80090327D02*
X129291788Y-79136610D01*
X131628394Y-78399881D01*
X131929100Y-79353598D01*
X129592494Y-80090327D01*
X129592494Y-80090327D01*
G37*
G36*
X130013482Y-81425531D02*
X129712776Y-80471814D01*
X132049382Y-79735085D01*
X132350088Y-80688802D01*
X130013482Y-81425531D01*
X130013482Y-81425531D01*
G37*
G36*
X130434470Y-82760735D02*
X130133764Y-81807018D01*
X132470370Y-81070289D01*
X132771076Y-82024006D01*
X130434470Y-82760735D01*
X130434470Y-82760735D01*
G37*
G36*
X134699685Y-84582476D02*
X133962956Y-82245870D01*
X134916673Y-81945164D01*
X135653402Y-84281770D01*
X134699685Y-84582476D01*
X134699685Y-84582476D01*
G37*
G36*
X136034889Y-84161488D02*
X135298160Y-81824882D01*
X136251877Y-81524176D01*
X136988606Y-83860782D01*
X136034889Y-84161488D01*
X136034889Y-84161488D01*
G37*
G36*
X137370093Y-83740499D02*
X136633364Y-81403893D01*
X137587081Y-81103187D01*
X138323810Y-83439793D01*
X137370093Y-83740499D01*
X137370093Y-83740499D01*
G37*
G36*
X138705296Y-83319511D02*
X137968567Y-80982905D01*
X138922284Y-80682199D01*
X139659013Y-83018805D01*
X138705296Y-83319511D01*
X138705296Y-83319511D01*
G37*
G36*
X140040500Y-82898523D02*
X139303771Y-80561917D01*
X140257488Y-80261211D01*
X140994217Y-82597817D01*
X140040500Y-82898523D01*
X140040500Y-82898523D01*
G37*
G36*
X141375704Y-82477535D02*
X140638975Y-80140929D01*
X141592692Y-79840223D01*
X142329421Y-82176829D01*
X141375704Y-82477535D01*
X141375704Y-82477535D01*
G37*
G36*
X142710908Y-82056547D02*
X141974179Y-79719941D01*
X142927896Y-79419235D01*
X143664625Y-81755841D01*
X142710908Y-82056547D01*
X142710908Y-82056547D01*
G37*
G36*
X142020779Y-77639645D02*
X141720073Y-76685928D01*
X144056679Y-75949199D01*
X144357385Y-76902916D01*
X142020779Y-77639645D01*
X142020779Y-77639645D01*
G37*
G36*
X141599791Y-76304441D02*
X141299085Y-75350724D01*
X143635691Y-74613995D01*
X143936397Y-75567712D01*
X141599791Y-76304441D01*
X141599791Y-76304441D01*
G37*
G36*
X141178803Y-74969238D02*
X140878097Y-74015521D01*
X143214703Y-73278792D01*
X143515409Y-74232509D01*
X141178803Y-74969238D01*
X141178803Y-74969238D01*
G37*
G36*
X140757814Y-73634034D02*
X140457108Y-72680317D01*
X142793714Y-71943588D01*
X143094420Y-72897305D01*
X140757814Y-73634034D01*
X140757814Y-73634034D01*
G37*
G36*
X140336826Y-72298830D02*
X140036120Y-71345113D01*
X142372726Y-70608384D01*
X142673432Y-71562101D01*
X140336826Y-72298830D01*
X140336826Y-72298830D01*
G37*
G36*
X139915838Y-70963627D02*
X139615132Y-70009910D01*
X141951738Y-69273181D01*
X142252444Y-70226898D01*
X139915838Y-70963627D01*
X139915838Y-70963627D01*
G37*
G36*
X139494850Y-69628423D02*
X139194144Y-68674706D01*
X141530750Y-67937977D01*
X141831456Y-68891694D01*
X139494850Y-69628423D01*
X139494850Y-69628423D01*
G37*
G36*
X137680312Y-85490549D02*
X137409677Y-84632204D01*
X137886536Y-84481851D01*
X138157171Y-85340196D01*
X137680312Y-85490549D01*
X137680312Y-85490549D01*
G37*
G36*
X139110888Y-85039491D02*
X138840253Y-84181146D01*
X139317112Y-84030793D01*
X139587747Y-84889138D01*
X139110888Y-85039491D01*
X139110888Y-85039491D01*
G37*
D12*
X182925000Y-83700000D03*
X182925000Y-82200000D03*
D13*
X172702220Y-89433400D03*
X172702220Y-89933780D03*
X172702220Y-90434160D03*
X172702220Y-90934540D03*
X172702220Y-91434920D03*
X172702220Y-91932760D03*
X172702220Y-92433140D03*
X172702220Y-92933520D03*
X172702220Y-93431360D03*
X172702220Y-93931740D03*
X172702220Y-94432120D03*
X172702220Y-94929960D03*
X172702220Y-95430340D03*
X172702220Y-95930720D03*
X172702220Y-96431100D03*
X172702220Y-96931480D03*
D14*
X174752000Y-98981260D03*
X175252380Y-98981260D03*
X175752760Y-98981260D03*
X176253140Y-98981260D03*
X176753520Y-98981260D03*
X177251360Y-98981260D03*
X177751740Y-98981260D03*
X178252120Y-98981260D03*
X178749960Y-98981260D03*
X179250340Y-98981260D03*
X179750720Y-98981260D03*
X180248560Y-98981260D03*
X180748940Y-98981260D03*
X181249320Y-98981260D03*
X181749700Y-98981260D03*
X182250080Y-98981260D03*
D13*
X184299860Y-96931480D03*
X184299860Y-96431100D03*
X184299860Y-95930720D03*
X184299860Y-95430340D03*
X184299860Y-94929960D03*
X184299860Y-94432120D03*
X184299860Y-93931740D03*
X184299860Y-93431360D03*
X184299860Y-92933520D03*
X184299860Y-92433140D03*
X184299860Y-91932760D03*
X184299860Y-91434920D03*
X184299860Y-90934540D03*
X184299860Y-90434160D03*
X184299860Y-89933780D03*
X184299860Y-89433400D03*
D14*
X182250080Y-87383620D03*
X181749700Y-87383620D03*
X181249320Y-87383620D03*
X180748940Y-87383620D03*
X180248560Y-87383620D03*
X179750720Y-87383620D03*
X179250340Y-87383620D03*
X178749960Y-87383620D03*
X178252120Y-87383620D03*
X177751740Y-87383620D03*
X177251360Y-87383620D03*
X176753520Y-87383620D03*
X176253140Y-87383620D03*
X175752760Y-87383620D03*
X175252380Y-87383620D03*
X174752000Y-87383620D03*
D15*
X167775000Y-82850000D03*
X169275000Y-82850000D03*
D16*
X159475000Y-142600000D03*
X160125000Y-142600000D03*
X160775000Y-142600000D03*
X159475000Y-139400000D03*
X160775000Y-139400000D03*
D17*
X164099200Y-118709600D03*
D18*
X163374200Y-117734600D03*
X162874200Y-117734600D03*
X162374200Y-117734600D03*
X161874200Y-117734600D03*
X161374200Y-117734600D03*
D17*
X160649200Y-118709600D03*
X160649200Y-120209600D03*
X164099200Y-120209600D03*
D18*
X161374200Y-121184600D03*
X161874200Y-121184600D03*
X162374200Y-121184600D03*
X162874200Y-121184600D03*
X163374200Y-121184600D03*
D19*
X162374200Y-119459600D03*
D20*
X146275000Y-135700000D03*
X146275000Y-138100000D03*
X148175000Y-138100000D03*
X148175000Y-135700000D03*
D21*
X149925000Y-138100000D03*
X149925000Y-139000000D03*
D22*
X147800000Y-134150000D03*
X146700000Y-134150000D03*
D21*
X153592600Y-62190900D03*
X153592600Y-61290900D03*
D23*
X129895600Y-118465600D03*
X128395600Y-118465600D03*
X166142800Y-98552000D03*
X164642800Y-98552000D03*
D24*
X168921000Y-93233400D03*
X168921000Y-94733400D03*
D23*
X131368800Y-115163600D03*
X129868800Y-115163600D03*
D25*
X129926080Y-139308840D03*
X128326080Y-139308840D03*
D26*
X133407960Y-135021320D03*
X134807960Y-135021320D03*
D27*
X137495280Y-131201160D03*
X133295280Y-131201160D03*
D12*
X128320800Y-136531920D03*
X128320800Y-138031920D03*
X168097200Y-98145600D03*
X168097200Y-96645600D03*
D15*
X166166800Y-96926400D03*
X164666800Y-96926400D03*
D12*
X170550000Y-93225000D03*
X170550000Y-94725000D03*
X167295400Y-93221400D03*
X167295400Y-94721400D03*
D15*
X134819520Y-133751320D03*
X133319520Y-133751320D03*
D12*
X172100000Y-85325000D03*
X172100000Y-86825000D03*
X167675000Y-86050000D03*
X167675000Y-84550000D03*
X165049200Y-103491600D03*
X165049200Y-104991600D03*
D28*
X132975000Y-118150000D03*
X132975000Y-116650000D03*
X132975000Y-115150000D03*
X132975000Y-113650000D03*
D29*
X125175000Y-115900000D03*
D30*
X131429760Y-139273280D03*
X132379720Y-139273280D03*
X133329680Y-139273280D03*
X133329680Y-136677400D03*
X131429760Y-136677400D03*
D31*
X169425000Y-86075000D03*
X170725000Y-86075000D03*
X169425000Y-84175000D03*
X170075000Y-86075000D03*
X170725000Y-84175000D03*
D32*
X180492400Y-82135980D03*
X178792400Y-82135980D03*
D11*
X191714360Y-103621040D03*
X189712840Y-102970800D03*
X191714360Y-102320560D03*
X191714360Y-102970800D03*
X189712840Y-102320560D03*
X189712840Y-103621040D03*
D24*
X176006760Y-80343440D03*
X176006760Y-78843440D03*
X147625000Y-83750000D03*
X147625000Y-85250000D03*
D23*
X179825000Y-83667600D03*
X181325000Y-83667600D03*
D10*
G36*
X142815048Y-83812299D02*
X142574483Y-83049326D01*
X143337456Y-82808761D01*
X143578021Y-83571734D01*
X142815048Y-83812299D01*
X142815048Y-83812299D01*
G37*
G36*
X144340996Y-83331169D02*
X144100431Y-82568196D01*
X144863404Y-82327631D01*
X145103969Y-83090604D01*
X144340996Y-83331169D01*
X144340996Y-83331169D01*
G37*
G36*
X136786204Y-84906466D02*
X137026769Y-85669439D01*
X136263796Y-85910004D01*
X136023231Y-85147031D01*
X136786204Y-84906466D01*
X136786204Y-84906466D01*
G37*
G36*
X135260256Y-85387596D02*
X135500821Y-86150569D01*
X134737848Y-86391134D01*
X134497283Y-85628161D01*
X135260256Y-85387596D01*
X135260256Y-85387596D01*
G37*
D33*
X177754280Y-80355440D03*
X182354280Y-80355440D03*
X177754280Y-76855440D03*
D10*
G36*
X141911312Y-83214051D02*
X142181947Y-84072396D01*
X141705088Y-84222749D01*
X141434453Y-83364404D01*
X141911312Y-83214051D01*
X141911312Y-83214051D01*
G37*
G36*
X140480736Y-83665109D02*
X140751371Y-84523454D01*
X140274512Y-84673807D01*
X140003877Y-83815462D01*
X140480736Y-83665109D01*
X140480736Y-83665109D01*
G37*
D15*
X186334400Y-99415600D03*
X184834400Y-99415600D03*
X186322400Y-101142800D03*
X184822400Y-101142800D03*
D34*
X156748400Y-132310360D03*
X156748400Y-130613640D03*
X150075000Y-134328280D03*
X150075000Y-136025000D03*
D10*
G36*
X176987544Y-111982915D02*
X177447171Y-112368587D01*
X177190056Y-112675005D01*
X176730429Y-112289333D01*
X176987544Y-111982915D01*
X176987544Y-111982915D01*
G37*
G36*
X176409036Y-112672355D02*
X176868663Y-113058027D01*
X176611548Y-113364445D01*
X176151921Y-112978773D01*
X176409036Y-112672355D01*
X176409036Y-112672355D01*
G37*
D25*
X147739200Y-87477600D03*
X149339200Y-87477600D03*
D18*
X168515600Y-117604200D03*
D17*
X167540600Y-118329200D03*
X167540600Y-118829200D03*
X167540600Y-119329200D03*
X167540600Y-119829200D03*
X167540600Y-120329200D03*
D18*
X168515600Y-121054200D03*
X170015600Y-121054200D03*
X170015600Y-117604200D03*
D17*
X170990600Y-120329200D03*
X170990600Y-119829200D03*
X170990600Y-119329200D03*
X170990600Y-118829200D03*
X170990600Y-118329200D03*
D19*
X169265600Y-119329200D03*
D11*
X191750760Y-108925240D03*
X189749240Y-108275000D03*
X191750760Y-107624760D03*
X191750760Y-108275000D03*
X189749240Y-107624760D03*
X189749240Y-108925240D03*
D25*
X147775000Y-121675000D03*
X149375000Y-121675000D03*
D15*
X149300000Y-123225000D03*
X147800000Y-123225000D03*
D35*
X162119200Y-147015200D03*
X162119200Y-144675200D03*
X161719200Y-147015200D03*
X161719200Y-144675200D03*
X161319200Y-147015200D03*
X161319200Y-144675200D03*
X160919200Y-147015200D03*
X160919200Y-144675200D03*
X160519200Y-147015200D03*
X160519200Y-144675200D03*
X160119200Y-147015200D03*
X160119200Y-144675200D03*
X159719200Y-147015200D03*
X159719200Y-144675200D03*
X159319200Y-147015200D03*
X159319200Y-144675200D03*
X158919200Y-147015200D03*
X158919200Y-144675200D03*
X158519200Y-147015200D03*
X158519200Y-144675200D03*
X158119200Y-147015200D03*
X158119200Y-144675200D03*
X157719200Y-147015200D03*
X157719200Y-144675200D03*
X157319200Y-147015200D03*
X157319200Y-144675200D03*
X156919200Y-147015200D03*
X156919200Y-144675200D03*
X156519200Y-147015200D03*
X156519200Y-144675200D03*
X156119200Y-147015200D03*
X156119200Y-144675200D03*
X155719200Y-147015200D03*
X155719200Y-144675200D03*
X155319200Y-147015200D03*
X155319200Y-144675200D03*
X154919200Y-147015200D03*
X154919200Y-144675200D03*
X154519200Y-147015200D03*
X154519200Y-144675200D03*
X154119200Y-147015200D03*
X154119200Y-144675200D03*
X153719200Y-147015200D03*
X153719200Y-144675200D03*
X153319200Y-147015200D03*
X153319200Y-144675200D03*
X152919200Y-147015200D03*
X152919200Y-144675200D03*
X152519200Y-147015200D03*
X152519200Y-144675200D03*
X152119200Y-147015200D03*
X152119200Y-144675200D03*
X151719200Y-147015200D03*
X151719200Y-144675200D03*
X151319200Y-147015200D03*
X151319200Y-144675200D03*
X150919200Y-147015200D03*
X150919200Y-144675200D03*
X150519200Y-147015200D03*
X150519200Y-144675200D03*
X150119200Y-147015200D03*
X150119200Y-144675200D03*
X149719200Y-147015200D03*
X149719200Y-144675200D03*
X149319200Y-147015200D03*
X149319200Y-144675200D03*
X148919200Y-147015200D03*
X148919200Y-144675200D03*
X148519200Y-147015200D03*
X148519200Y-144675200D03*
X148119200Y-147015200D03*
X148119200Y-144675200D03*
X147719200Y-147015200D03*
X147719200Y-144675200D03*
X147319200Y-147015200D03*
X147319200Y-144675200D03*
X146919200Y-147015200D03*
X146919200Y-144675200D03*
X146519200Y-147015200D03*
X146519200Y-144675200D03*
X146119200Y-147015200D03*
X146119200Y-144675200D03*
X145719200Y-147015200D03*
X145719200Y-144675200D03*
X145319200Y-147015200D03*
X145319200Y-144675200D03*
X144919200Y-147015200D03*
X144919200Y-144675200D03*
X144519200Y-147015200D03*
X144519200Y-144675200D03*
D36*
X136621520Y-120985040D03*
X136621520Y-120335040D03*
X136621520Y-119685040D03*
X133421520Y-120985040D03*
X133421520Y-119685040D03*
D22*
X134805600Y-148844000D03*
X133705600Y-148844000D03*
D21*
X136144000Y-148887600D03*
X136144000Y-147987600D03*
X132334000Y-148844000D03*
X132334000Y-147944000D03*
D10*
G36*
X138614596Y-151480935D02*
X138865464Y-149094082D01*
X140158342Y-149229969D01*
X139907474Y-151616822D01*
X138614596Y-151480935D01*
X138614596Y-151480935D01*
G37*
G36*
X143686658Y-152014031D02*
X143937526Y-149627178D01*
X145230404Y-149763065D01*
X144979536Y-152149918D01*
X143686658Y-152014031D01*
X143686658Y-152014031D01*
G37*
D37*
X123400000Y-144950000D03*
X123400000Y-142000000D03*
D38*
X124925000Y-143475000D03*
D39*
X150350000Y-151600000D03*
X147700000Y-151600000D03*
D40*
X149450000Y-151250000D03*
X148600000Y-151250000D03*
D39*
X147275000Y-58450000D03*
X149925000Y-58450000D03*
D40*
X148175000Y-58800000D03*
X149025000Y-58800000D03*
D35*
X144512142Y-125040000D03*
X144512142Y-127380000D03*
X144912142Y-125040000D03*
X144912142Y-127380000D03*
X145312142Y-125040000D03*
X145312142Y-127380000D03*
X145712142Y-125040000D03*
X145712142Y-127380000D03*
X146112142Y-125040000D03*
X146112142Y-127380000D03*
X146512142Y-125040000D03*
X146512142Y-127380000D03*
X146912142Y-125040000D03*
X146912142Y-127380000D03*
X147312142Y-125040000D03*
X147312142Y-127380000D03*
X147712142Y-125040000D03*
X147712142Y-127380000D03*
X148112142Y-125040000D03*
X148112142Y-127380000D03*
X148512142Y-125040000D03*
X148512142Y-127380000D03*
X148912142Y-125040000D03*
X148912142Y-127380000D03*
X149312142Y-125040000D03*
X149312142Y-127380000D03*
X149712142Y-125040000D03*
X149712142Y-127380000D03*
X150112142Y-125040000D03*
X150112142Y-127380000D03*
X150512142Y-125040000D03*
X150512142Y-127380000D03*
X150912142Y-125040000D03*
X150912142Y-127380000D03*
X151312142Y-125040000D03*
X151312142Y-127380000D03*
X151712142Y-125040000D03*
X151712142Y-127380000D03*
X152112142Y-125040000D03*
X152112142Y-127380000D03*
X152512142Y-125040000D03*
X152512142Y-127380000D03*
X152912142Y-125040000D03*
X152912142Y-127380000D03*
X153312142Y-125040000D03*
X153312142Y-127380000D03*
X153712142Y-125040000D03*
X153712142Y-127380000D03*
X154112142Y-125040000D03*
X154112142Y-127380000D03*
X154512142Y-125040000D03*
X154512142Y-127380000D03*
X154912142Y-125040000D03*
X154912142Y-127380000D03*
X155312142Y-125040000D03*
X155312142Y-127380000D03*
X155712142Y-125040000D03*
X155712142Y-127380000D03*
X156112142Y-125040000D03*
X156112142Y-127380000D03*
X156512142Y-125040000D03*
X156512142Y-127380000D03*
X156912142Y-125040000D03*
X156912142Y-127380000D03*
X157312142Y-125040000D03*
X157312142Y-127380000D03*
X157712142Y-125040000D03*
X157712142Y-127380000D03*
X158112142Y-125040000D03*
X158112142Y-127380000D03*
X158512142Y-125040000D03*
X158512142Y-127380000D03*
X158912142Y-125040000D03*
X158912142Y-127380000D03*
X159312142Y-125040000D03*
X159312142Y-127380000D03*
X159712142Y-125040000D03*
X159712142Y-127380000D03*
X160112142Y-125040000D03*
X160112142Y-127380000D03*
X160512142Y-125040000D03*
X160512142Y-127380000D03*
X160912142Y-125040000D03*
X160912142Y-127380000D03*
X161312142Y-125040000D03*
X161312142Y-127380000D03*
X161712142Y-125040000D03*
X161712142Y-127380000D03*
X162112142Y-125040000D03*
X162112142Y-127380000D03*
D41*
X125125000Y-125875000D03*
X120075000Y-125875000D03*
D21*
X151425000Y-148825000D03*
X151425000Y-149725000D03*
X148425000Y-148825000D03*
X148425000Y-149725000D03*
X149925000Y-148825000D03*
X149925000Y-149725000D03*
X150217600Y-62215900D03*
X150217600Y-61315900D03*
X151892600Y-62215900D03*
X151892600Y-61315900D03*
D42*
X151674400Y-87477600D03*
X150774400Y-87477600D03*
D43*
X179019200Y-100694400D03*
X179019200Y-101794400D03*
X187416440Y-93207660D03*
X187416440Y-94307660D03*
D22*
X176999720Y-83619340D03*
X178099720Y-83619340D03*
D43*
X175982540Y-100745200D03*
X175982540Y-101845200D03*
D21*
X146151964Y-142852200D03*
X146151964Y-141952200D03*
X144781564Y-141950000D03*
X144781564Y-142850000D03*
X152175000Y-131150000D03*
X152175000Y-130250000D03*
D34*
X123225000Y-113946720D03*
X123225000Y-112250000D03*
D42*
X187125000Y-90424000D03*
X186225000Y-90424000D03*
X158634000Y-129540000D03*
X157734000Y-129540000D03*
D22*
X158123400Y-133237000D03*
X159223400Y-133237000D03*
D43*
X157023400Y-134437000D03*
X157023400Y-135537000D03*
D22*
X158123400Y-132087000D03*
X159223400Y-132087000D03*
D43*
X158198400Y-134437000D03*
X158198400Y-135537000D03*
X154598400Y-134437000D03*
X154598400Y-135537000D03*
X153423400Y-134437000D03*
X153423400Y-135537000D03*
X155848400Y-134437000D03*
X155848400Y-135537000D03*
M02*
