M48
;DRILL file {pcbnew (after 2015-mar-04 BZR unknown)-product} date Wed 31 Aug 2016 09:31:38 AM PDT
;FORMAT={-:-/ absolute / inch / decimal}
FMAT,2
INCH,TZ
T1C0.043
T2C0.114
%
G90
G05
M72
T1
X4.0526Y-4.9218
X4.0526Y-5.0399
X4.0573Y-4.2101
X4.0573Y-4.3282
X4.1707Y-4.9218
X4.1707Y-5.0399
X4.1754Y-4.2101
X4.1754Y-4.3282
X4.2888Y-4.9218
X4.2888Y-5.0399
X4.2935Y-4.2101
X4.2935Y-4.3282
X4.4069Y-4.9218
X4.4069Y-5.0399
X4.4117Y-4.2101
X4.4117Y-4.3282
X4.525Y-4.9218
X4.525Y-5.0399
X4.5298Y-4.2101
X4.5298Y-4.3282
T2
X4.0945Y-4.626
X4.4882Y-4.626
T0
M30
