G04 #@! TF.FileFunction,Copper,L2,Bot,Signal*
%FSLAX46Y46*%
G04 Gerber Fmt 4.6, Leading zero omitted, Abs format (unit mm)*
G04 Created by KiCad (PCBNEW (after 2015-mar-04 BZR unknown)-product) date Wed 31 Aug 2016 09:31:40 AM PDT*
%MOMM*%
G01*
G04 APERTURE LIST*
%ADD10C,0.150000*%
%ADD11C,4.500880*%
%ADD12C,1.500000*%
%ADD13C,0.500000*%
G04 APERTURE END LIST*
D10*
D11*
X104000000Y-117500000D03*
D12*
X103056000Y-106936000D03*
X103056000Y-109936000D03*
X106056000Y-109936000D03*
X106056000Y-106936000D03*
X109056000Y-106936000D03*
X109056000Y-109936000D03*
X112056000Y-109936000D03*
X112056000Y-106936000D03*
X115056000Y-109936000D03*
X115056000Y-106936000D03*
X114935000Y-128014000D03*
X114935000Y-125014000D03*
X111935000Y-125014000D03*
X111935000Y-128014000D03*
X108935000Y-128014000D03*
X108935000Y-125014000D03*
X105935000Y-125014000D03*
X105935000Y-128014000D03*
X102935000Y-125014000D03*
X102935000Y-128014000D03*
D11*
X114000000Y-117500000D03*
D13*
X114935000Y-128014000D02*
X115684999Y-128763999D01*
X115684999Y-128763999D02*
X115684999Y-133235001D01*
X115684999Y-133235001D02*
X113272990Y-135647010D01*
X113272990Y-135647010D02*
X103767203Y-135647009D01*
X103767203Y-135647009D02*
X101099559Y-132979365D01*
X102306001Y-107685999D02*
X103056000Y-106936000D01*
X101099559Y-132979365D02*
X101099559Y-108892441D01*
X101099559Y-108892441D02*
X102306001Y-107685999D01*
X111935000Y-128014000D02*
X113534999Y-126414001D01*
X113534999Y-126414001D02*
X113534999Y-122257655D01*
X113534999Y-122257655D02*
X116900441Y-118892213D01*
X115728001Y-105535999D02*
X107456001Y-105535999D01*
X116900441Y-118892213D02*
X116900441Y-106708439D01*
X116900441Y-106708439D02*
X115728001Y-105535999D01*
X107456001Y-105535999D02*
X106805999Y-106186001D01*
X106805999Y-106186001D02*
X106056000Y-106936000D01*
X108935000Y-128014000D02*
X107534999Y-129414001D01*
X108306001Y-107685999D02*
X109056000Y-106936000D01*
X107534999Y-129414001D02*
X105262999Y-129414001D01*
X105262999Y-129414001D02*
X104534999Y-128686001D01*
X104534999Y-128686001D02*
X104534999Y-121257655D01*
X104534999Y-121257655D02*
X107655999Y-118136655D01*
X107655999Y-118136655D02*
X107655999Y-108336001D01*
X107655999Y-108336001D02*
X108306001Y-107685999D01*
X109347000Y-117718460D02*
X109347000Y-111717002D01*
X109347000Y-111717002D02*
X110655999Y-110408003D01*
X110655999Y-110408003D02*
X110655999Y-108336001D01*
X111306001Y-107685999D02*
X112056000Y-106936000D01*
X110655999Y-108336001D02*
X111306001Y-107685999D01*
X105935000Y-128014000D02*
X107534999Y-126414001D01*
X107534999Y-126414001D02*
X107534999Y-119530461D01*
X107534999Y-119530461D02*
X109347000Y-117718460D01*
X107823000Y-133223000D02*
X107823000Y-131198002D01*
X107823000Y-131198002D02*
X110534999Y-128486003D01*
X110534999Y-128486003D02*
X110534999Y-113529003D01*
X110534999Y-113529003D02*
X113655999Y-110408003D01*
X114306001Y-107685999D02*
X115056000Y-106936000D01*
X113655999Y-110408003D02*
X113655999Y-108336001D01*
X113655999Y-108336001D02*
X114306001Y-107685999D01*
X106299000Y-134747000D02*
X107823000Y-133223000D01*
X104140000Y-134747000D02*
X106299000Y-134747000D01*
X102935000Y-133542000D02*
X104140000Y-134747000D01*
X102935000Y-128014000D02*
X102935000Y-133542000D01*
M02*
