G04 #@! TF.FileFunction,Legend,Top*
%FSLAX46Y46*%
G04 Gerber Fmt 4.6, Leading zero omitted, Abs format (unit mm)*
G04 Created by KiCad (PCBNEW (after 2015-mar-04 BZR unknown)-product) date Wed 31 Aug 2016 09:31:40 AM PDT*
%MOMM*%
G01*
G04 APERTURE LIST*
%ADD10C,0.150000*%
G04 APERTURE END LIST*
D10*
X119056000Y-97936000D02*
X119056000Y-111286000D01*
X119056000Y-111286000D02*
X99056000Y-111286000D01*
X99056000Y-111286000D02*
X99056000Y-97936000D01*
X99056000Y-97936000D02*
X119056000Y-97936000D01*
X98935000Y-137014000D02*
X98935000Y-123664000D01*
X98935000Y-123664000D02*
X118935000Y-123664000D01*
X118935000Y-123664000D02*
X118935000Y-137014000D01*
X118935000Y-137014000D02*
X98935000Y-137014000D01*
X108317905Y-96388381D02*
X108317905Y-95388381D01*
X108698858Y-95388381D01*
X108794096Y-95436000D01*
X108841715Y-95483619D01*
X108889334Y-95578857D01*
X108889334Y-95721714D01*
X108841715Y-95816952D01*
X108794096Y-95864571D01*
X108698858Y-95912190D01*
X108317905Y-95912190D01*
X109841715Y-96388381D02*
X109270286Y-96388381D01*
X109556000Y-96388381D02*
X109556000Y-95388381D01*
X109460762Y-95531238D01*
X109365524Y-95626476D01*
X109270286Y-95674095D01*
X108196905Y-139466381D02*
X108196905Y-138466381D01*
X108577858Y-138466381D01*
X108673096Y-138514000D01*
X108720715Y-138561619D01*
X108768334Y-138656857D01*
X108768334Y-138799714D01*
X108720715Y-138894952D01*
X108673096Y-138942571D01*
X108577858Y-138990190D01*
X108196905Y-138990190D01*
X109149286Y-138561619D02*
X109196905Y-138514000D01*
X109292143Y-138466381D01*
X109530239Y-138466381D01*
X109625477Y-138514000D01*
X109673096Y-138561619D01*
X109720715Y-138656857D01*
X109720715Y-138752095D01*
X109673096Y-138894952D01*
X109101667Y-139466381D01*
X109720715Y-139466381D01*
M02*
