G04 #@! TF.FileFunction,Copper,L2,Bot,Signal*
%FSLAX46Y46*%
G04 Gerber Fmt 4.6, Leading zero omitted, Abs format (unit mm)*
G04 Created by KiCad (PCBNEW 4.0.7-e2-6376~58~ubuntu16.04.1) date Fri Dec  8 16:26:48 2017*
%MOMM*%
%LPD*%
G01*
G04 APERTURE LIST*
%ADD10C,0.100000*%
%ADD11R,4.000000X4.000000*%
%ADD12C,4.000000*%
%ADD13R,2.800000X2.800000*%
%ADD14C,2.800000*%
%ADD15R,1.700000X1.700000*%
%ADD16O,1.700000X1.700000*%
%ADD17C,1.000000*%
%ADD18C,0.254000*%
G04 APERTURE END LIST*
D10*
D11*
X153670000Y-88900000D03*
D12*
X163670000Y-88900000D03*
D11*
X179070000Y-88900000D03*
D12*
X189070000Y-88900000D03*
D13*
X120650000Y-57150000D03*
D14*
X120650000Y-52950000D03*
D13*
X120650000Y-86360000D03*
D14*
X120650000Y-82160000D03*
D13*
X201930000Y-75320000D03*
D14*
X201930000Y-71120000D03*
D15*
X120650000Y-69850000D03*
D16*
X120650000Y-67310000D03*
X120650000Y-64770000D03*
D15*
X120650000Y-99314000D03*
D16*
X120650000Y-96774000D03*
X120650000Y-94234000D03*
D17*
X197104000Y-88900000D02*
X201930000Y-84074000D01*
X201930000Y-84074000D02*
X201930000Y-75320000D01*
X189070000Y-88900000D02*
X197104000Y-88900000D01*
X186182000Y-95504000D02*
X189070000Y-92616000D01*
X189070000Y-92616000D02*
X189070000Y-88900000D01*
X167445573Y-95504000D02*
X186182000Y-95504000D01*
X163670000Y-91728427D02*
X167445573Y-95504000D01*
X124968000Y-58928000D02*
X123190000Y-57150000D01*
X123190000Y-57150000D02*
X120650000Y-57150000D01*
X124968000Y-67382000D02*
X124968000Y-58928000D01*
X120650000Y-69850000D02*
X122500000Y-69850000D01*
X122500000Y-69850000D02*
X124968000Y-67382000D01*
X124714000Y-70866000D02*
X123698000Y-69850000D01*
X123698000Y-69850000D02*
X120650000Y-69850000D01*
X124714000Y-84696000D02*
X124714000Y-70866000D01*
X120650000Y-86360000D02*
X123050000Y-86360000D01*
X123050000Y-86360000D02*
X124714000Y-84696000D01*
X126492000Y-88900000D02*
X123952000Y-86360000D01*
X123952000Y-86360000D02*
X120650000Y-86360000D01*
X126492000Y-95322000D02*
X126492000Y-88900000D01*
X122500000Y-99314000D02*
X126492000Y-95322000D01*
X163670000Y-88900000D02*
X163670000Y-91728427D01*
X163670000Y-91728427D02*
X156084427Y-99314000D01*
X156084427Y-99314000D02*
X122500000Y-99314000D01*
X122500000Y-99314000D02*
X120650000Y-99314000D01*
D18*
G36*
X207570000Y-102160000D02*
X115010000Y-102160000D01*
X115010000Y-99599750D01*
X119165000Y-99599750D01*
X119165000Y-100290310D01*
X119261673Y-100523699D01*
X119440302Y-100702327D01*
X119673691Y-100799000D01*
X120364250Y-100799000D01*
X120523000Y-100640250D01*
X120523000Y-99441000D01*
X120777000Y-99441000D01*
X120777000Y-100640250D01*
X120935750Y-100799000D01*
X121626309Y-100799000D01*
X121859698Y-100702327D01*
X122038327Y-100523699D01*
X122135000Y-100290310D01*
X122135000Y-99599750D01*
X121976250Y-99441000D01*
X120777000Y-99441000D01*
X120523000Y-99441000D01*
X119323750Y-99441000D01*
X119165000Y-99599750D01*
X115010000Y-99599750D01*
X115010000Y-94234000D01*
X119135907Y-94234000D01*
X119248946Y-94802285D01*
X119570853Y-95284054D01*
X119900026Y-95504000D01*
X119570853Y-95723946D01*
X119248946Y-96205715D01*
X119135907Y-96774000D01*
X119248946Y-97342285D01*
X119570853Y-97824054D01*
X119614777Y-97853403D01*
X119440302Y-97925673D01*
X119261673Y-98104301D01*
X119165000Y-98337690D01*
X119165000Y-99028250D01*
X119323750Y-99187000D01*
X120523000Y-99187000D01*
X120523000Y-99167000D01*
X120777000Y-99167000D01*
X120777000Y-99187000D01*
X121976250Y-99187000D01*
X122135000Y-99028250D01*
X122135000Y-98337690D01*
X122038327Y-98104301D01*
X121859698Y-97925673D01*
X121685223Y-97853403D01*
X121729147Y-97824054D01*
X122051054Y-97342285D01*
X122164093Y-96774000D01*
X122051054Y-96205715D01*
X121729147Y-95723946D01*
X121399974Y-95504000D01*
X121729147Y-95284054D01*
X122051054Y-94802285D01*
X122164093Y-94234000D01*
X122051054Y-93665715D01*
X121729147Y-93183946D01*
X121247378Y-92862039D01*
X120679093Y-92749000D01*
X120620907Y-92749000D01*
X120052622Y-92862039D01*
X119570853Y-93183946D01*
X119248946Y-93665715D01*
X119135907Y-94234000D01*
X115010000Y-94234000D01*
X115010000Y-86645750D01*
X118615000Y-86645750D01*
X118615000Y-87886310D01*
X118711673Y-88119699D01*
X118890302Y-88298327D01*
X119123691Y-88395000D01*
X120364250Y-88395000D01*
X120523000Y-88236250D01*
X120523000Y-86487000D01*
X120777000Y-86487000D01*
X120777000Y-88236250D01*
X120935750Y-88395000D01*
X122176309Y-88395000D01*
X122409698Y-88298327D01*
X122588327Y-88119699D01*
X122685000Y-87886310D01*
X122685000Y-86900000D01*
X151022560Y-86900000D01*
X151022560Y-90900000D01*
X151066838Y-91135317D01*
X151205910Y-91351441D01*
X151418110Y-91496431D01*
X151670000Y-91547440D01*
X155670000Y-91547440D01*
X155905317Y-91503162D01*
X156121441Y-91364090D01*
X156266431Y-91151890D01*
X156317440Y-90900000D01*
X156317440Y-90775022D01*
X161974584Y-90775022D01*
X162195353Y-91145743D01*
X163167012Y-91539119D01*
X164215247Y-91530713D01*
X165144647Y-91145743D01*
X165365416Y-90775022D01*
X163670000Y-89079605D01*
X161974584Y-90775022D01*
X156317440Y-90775022D01*
X156317440Y-88397012D01*
X161030881Y-88397012D01*
X161039287Y-89445247D01*
X161424257Y-90374647D01*
X161794978Y-90595416D01*
X163490395Y-88900000D01*
X163849605Y-88900000D01*
X165545022Y-90595416D01*
X165915743Y-90374647D01*
X166309119Y-89402988D01*
X166300713Y-88354753D01*
X165915743Y-87425353D01*
X165545022Y-87204584D01*
X163849605Y-88900000D01*
X163490395Y-88900000D01*
X161794978Y-87204584D01*
X161424257Y-87425353D01*
X161030881Y-88397012D01*
X156317440Y-88397012D01*
X156317440Y-87024978D01*
X161974584Y-87024978D01*
X163670000Y-88720395D01*
X165365416Y-87024978D01*
X165290991Y-86900000D01*
X176422560Y-86900000D01*
X176422560Y-90900000D01*
X176466838Y-91135317D01*
X176605910Y-91351441D01*
X176818110Y-91496431D01*
X177070000Y-91547440D01*
X181070000Y-91547440D01*
X181305317Y-91503162D01*
X181521441Y-91364090D01*
X181666431Y-91151890D01*
X181717440Y-90900000D01*
X181717440Y-90775022D01*
X187374584Y-90775022D01*
X187595353Y-91145743D01*
X188567012Y-91539119D01*
X189615247Y-91530713D01*
X190544647Y-91145743D01*
X190765416Y-90775022D01*
X189070000Y-89079605D01*
X187374584Y-90775022D01*
X181717440Y-90775022D01*
X181717440Y-88397012D01*
X186430881Y-88397012D01*
X186439287Y-89445247D01*
X186824257Y-90374647D01*
X187194978Y-90595416D01*
X188890395Y-88900000D01*
X189249605Y-88900000D01*
X190945022Y-90595416D01*
X191315743Y-90374647D01*
X191709119Y-89402988D01*
X191700713Y-88354753D01*
X191315743Y-87425353D01*
X190945022Y-87204584D01*
X189249605Y-88900000D01*
X188890395Y-88900000D01*
X187194978Y-87204584D01*
X186824257Y-87425353D01*
X186430881Y-88397012D01*
X181717440Y-88397012D01*
X181717440Y-87024978D01*
X187374584Y-87024978D01*
X189070000Y-88720395D01*
X190765416Y-87024978D01*
X190544647Y-86654257D01*
X189572988Y-86260881D01*
X188524753Y-86269287D01*
X187595353Y-86654257D01*
X187374584Y-87024978D01*
X181717440Y-87024978D01*
X181717440Y-86900000D01*
X181673162Y-86664683D01*
X181534090Y-86448559D01*
X181321890Y-86303569D01*
X181070000Y-86252560D01*
X177070000Y-86252560D01*
X176834683Y-86296838D01*
X176618559Y-86435910D01*
X176473569Y-86648110D01*
X176422560Y-86900000D01*
X165290991Y-86900000D01*
X165144647Y-86654257D01*
X164172988Y-86260881D01*
X163124753Y-86269287D01*
X162195353Y-86654257D01*
X161974584Y-87024978D01*
X156317440Y-87024978D01*
X156317440Y-86900000D01*
X156273162Y-86664683D01*
X156134090Y-86448559D01*
X155921890Y-86303569D01*
X155670000Y-86252560D01*
X151670000Y-86252560D01*
X151434683Y-86296838D01*
X151218559Y-86435910D01*
X151073569Y-86648110D01*
X151022560Y-86900000D01*
X122685000Y-86900000D01*
X122685000Y-86645750D01*
X122526250Y-86487000D01*
X120777000Y-86487000D01*
X120523000Y-86487000D01*
X118773750Y-86487000D01*
X118615000Y-86645750D01*
X115010000Y-86645750D01*
X115010000Y-84833690D01*
X118615000Y-84833690D01*
X118615000Y-86074250D01*
X118773750Y-86233000D01*
X120523000Y-86233000D01*
X120523000Y-84483750D01*
X120777000Y-84483750D01*
X120777000Y-86233000D01*
X122526250Y-86233000D01*
X122685000Y-86074250D01*
X122685000Y-84833690D01*
X122588327Y-84600301D01*
X122409698Y-84421673D01*
X122176309Y-84325000D01*
X120935750Y-84325000D01*
X120777000Y-84483750D01*
X120523000Y-84483750D01*
X120364250Y-84325000D01*
X119123691Y-84325000D01*
X118890302Y-84421673D01*
X118711673Y-84600301D01*
X118615000Y-84833690D01*
X115010000Y-84833690D01*
X115010000Y-82563011D01*
X118614648Y-82563011D01*
X118923805Y-83311229D01*
X119495760Y-83884183D01*
X120243438Y-84194646D01*
X121053011Y-84195352D01*
X121801229Y-83886195D01*
X122374183Y-83314240D01*
X122684646Y-82566562D01*
X122685352Y-81756989D01*
X122376195Y-81008771D01*
X121804240Y-80435817D01*
X121056562Y-80125354D01*
X120246989Y-80124648D01*
X119498771Y-80433805D01*
X118925817Y-81005760D01*
X118615354Y-81753438D01*
X118614648Y-82563011D01*
X115010000Y-82563011D01*
X115010000Y-75605750D01*
X199895000Y-75605750D01*
X199895000Y-76846310D01*
X199991673Y-77079699D01*
X200170302Y-77258327D01*
X200403691Y-77355000D01*
X201644250Y-77355000D01*
X201803000Y-77196250D01*
X201803000Y-75447000D01*
X202057000Y-75447000D01*
X202057000Y-77196250D01*
X202215750Y-77355000D01*
X203456309Y-77355000D01*
X203689698Y-77258327D01*
X203868327Y-77079699D01*
X203965000Y-76846310D01*
X203965000Y-75605750D01*
X203806250Y-75447000D01*
X202057000Y-75447000D01*
X201803000Y-75447000D01*
X200053750Y-75447000D01*
X199895000Y-75605750D01*
X115010000Y-75605750D01*
X115010000Y-73793690D01*
X199895000Y-73793690D01*
X199895000Y-75034250D01*
X200053750Y-75193000D01*
X201803000Y-75193000D01*
X201803000Y-73443750D01*
X202057000Y-73443750D01*
X202057000Y-75193000D01*
X203806250Y-75193000D01*
X203965000Y-75034250D01*
X203965000Y-73793690D01*
X203868327Y-73560301D01*
X203689698Y-73381673D01*
X203456309Y-73285000D01*
X202215750Y-73285000D01*
X202057000Y-73443750D01*
X201803000Y-73443750D01*
X201644250Y-73285000D01*
X200403691Y-73285000D01*
X200170302Y-73381673D01*
X199991673Y-73560301D01*
X199895000Y-73793690D01*
X115010000Y-73793690D01*
X115010000Y-71523011D01*
X199894648Y-71523011D01*
X200203805Y-72271229D01*
X200775760Y-72844183D01*
X201523438Y-73154646D01*
X202333011Y-73155352D01*
X203081229Y-72846195D01*
X203654183Y-72274240D01*
X203964646Y-71526562D01*
X203965352Y-70716989D01*
X203656195Y-69968771D01*
X203084240Y-69395817D01*
X202336562Y-69085354D01*
X201526989Y-69084648D01*
X200778771Y-69393805D01*
X200205817Y-69965760D01*
X199895354Y-70713438D01*
X199894648Y-71523011D01*
X115010000Y-71523011D01*
X115010000Y-70135750D01*
X119165000Y-70135750D01*
X119165000Y-70826310D01*
X119261673Y-71059699D01*
X119440302Y-71238327D01*
X119673691Y-71335000D01*
X120364250Y-71335000D01*
X120523000Y-71176250D01*
X120523000Y-69977000D01*
X120777000Y-69977000D01*
X120777000Y-71176250D01*
X120935750Y-71335000D01*
X121626309Y-71335000D01*
X121859698Y-71238327D01*
X122038327Y-71059699D01*
X122135000Y-70826310D01*
X122135000Y-70135750D01*
X121976250Y-69977000D01*
X120777000Y-69977000D01*
X120523000Y-69977000D01*
X119323750Y-69977000D01*
X119165000Y-70135750D01*
X115010000Y-70135750D01*
X115010000Y-64770000D01*
X119135907Y-64770000D01*
X119248946Y-65338285D01*
X119570853Y-65820054D01*
X119900026Y-66040000D01*
X119570853Y-66259946D01*
X119248946Y-66741715D01*
X119135907Y-67310000D01*
X119248946Y-67878285D01*
X119570853Y-68360054D01*
X119614777Y-68389403D01*
X119440302Y-68461673D01*
X119261673Y-68640301D01*
X119165000Y-68873690D01*
X119165000Y-69564250D01*
X119323750Y-69723000D01*
X120523000Y-69723000D01*
X120523000Y-69703000D01*
X120777000Y-69703000D01*
X120777000Y-69723000D01*
X121976250Y-69723000D01*
X122135000Y-69564250D01*
X122135000Y-68873690D01*
X122038327Y-68640301D01*
X121859698Y-68461673D01*
X121685223Y-68389403D01*
X121729147Y-68360054D01*
X122051054Y-67878285D01*
X122164093Y-67310000D01*
X122051054Y-66741715D01*
X121729147Y-66259946D01*
X121399974Y-66040000D01*
X121729147Y-65820054D01*
X122051054Y-65338285D01*
X122164093Y-64770000D01*
X122051054Y-64201715D01*
X121729147Y-63719946D01*
X121247378Y-63398039D01*
X120679093Y-63285000D01*
X120620907Y-63285000D01*
X120052622Y-63398039D01*
X119570853Y-63719946D01*
X119248946Y-64201715D01*
X119135907Y-64770000D01*
X115010000Y-64770000D01*
X115010000Y-57435750D01*
X118615000Y-57435750D01*
X118615000Y-58676310D01*
X118711673Y-58909699D01*
X118890302Y-59088327D01*
X119123691Y-59185000D01*
X120364250Y-59185000D01*
X120523000Y-59026250D01*
X120523000Y-57277000D01*
X120777000Y-57277000D01*
X120777000Y-59026250D01*
X120935750Y-59185000D01*
X122176309Y-59185000D01*
X122409698Y-59088327D01*
X122588327Y-58909699D01*
X122685000Y-58676310D01*
X122685000Y-57435750D01*
X122526250Y-57277000D01*
X120777000Y-57277000D01*
X120523000Y-57277000D01*
X118773750Y-57277000D01*
X118615000Y-57435750D01*
X115010000Y-57435750D01*
X115010000Y-55623690D01*
X118615000Y-55623690D01*
X118615000Y-56864250D01*
X118773750Y-57023000D01*
X120523000Y-57023000D01*
X120523000Y-55273750D01*
X120777000Y-55273750D01*
X120777000Y-57023000D01*
X122526250Y-57023000D01*
X122685000Y-56864250D01*
X122685000Y-55623690D01*
X122588327Y-55390301D01*
X122409698Y-55211673D01*
X122176309Y-55115000D01*
X120935750Y-55115000D01*
X120777000Y-55273750D01*
X120523000Y-55273750D01*
X120364250Y-55115000D01*
X119123691Y-55115000D01*
X118890302Y-55211673D01*
X118711673Y-55390301D01*
X118615000Y-55623690D01*
X115010000Y-55623690D01*
X115010000Y-53353011D01*
X118614648Y-53353011D01*
X118923805Y-54101229D01*
X119495760Y-54674183D01*
X120243438Y-54984646D01*
X121053011Y-54985352D01*
X121801229Y-54676195D01*
X122374183Y-54104240D01*
X122684646Y-53356562D01*
X122685352Y-52546989D01*
X122376195Y-51798771D01*
X121804240Y-51225817D01*
X121056562Y-50915354D01*
X120246989Y-50914648D01*
X119498771Y-51223805D01*
X118925817Y-51795760D01*
X118615354Y-52543438D01*
X118614648Y-53353011D01*
X115010000Y-53353011D01*
X115010000Y-46430000D01*
X207570000Y-46430000D01*
X207570000Y-102160000D01*
X207570000Y-102160000D01*
G37*
X207570000Y-102160000D02*
X115010000Y-102160000D01*
X115010000Y-99599750D01*
X119165000Y-99599750D01*
X119165000Y-100290310D01*
X119261673Y-100523699D01*
X119440302Y-100702327D01*
X119673691Y-100799000D01*
X120364250Y-100799000D01*
X120523000Y-100640250D01*
X120523000Y-99441000D01*
X120777000Y-99441000D01*
X120777000Y-100640250D01*
X120935750Y-100799000D01*
X121626309Y-100799000D01*
X121859698Y-100702327D01*
X122038327Y-100523699D01*
X122135000Y-100290310D01*
X122135000Y-99599750D01*
X121976250Y-99441000D01*
X120777000Y-99441000D01*
X120523000Y-99441000D01*
X119323750Y-99441000D01*
X119165000Y-99599750D01*
X115010000Y-99599750D01*
X115010000Y-94234000D01*
X119135907Y-94234000D01*
X119248946Y-94802285D01*
X119570853Y-95284054D01*
X119900026Y-95504000D01*
X119570853Y-95723946D01*
X119248946Y-96205715D01*
X119135907Y-96774000D01*
X119248946Y-97342285D01*
X119570853Y-97824054D01*
X119614777Y-97853403D01*
X119440302Y-97925673D01*
X119261673Y-98104301D01*
X119165000Y-98337690D01*
X119165000Y-99028250D01*
X119323750Y-99187000D01*
X120523000Y-99187000D01*
X120523000Y-99167000D01*
X120777000Y-99167000D01*
X120777000Y-99187000D01*
X121976250Y-99187000D01*
X122135000Y-99028250D01*
X122135000Y-98337690D01*
X122038327Y-98104301D01*
X121859698Y-97925673D01*
X121685223Y-97853403D01*
X121729147Y-97824054D01*
X122051054Y-97342285D01*
X122164093Y-96774000D01*
X122051054Y-96205715D01*
X121729147Y-95723946D01*
X121399974Y-95504000D01*
X121729147Y-95284054D01*
X122051054Y-94802285D01*
X122164093Y-94234000D01*
X122051054Y-93665715D01*
X121729147Y-93183946D01*
X121247378Y-92862039D01*
X120679093Y-92749000D01*
X120620907Y-92749000D01*
X120052622Y-92862039D01*
X119570853Y-93183946D01*
X119248946Y-93665715D01*
X119135907Y-94234000D01*
X115010000Y-94234000D01*
X115010000Y-86645750D01*
X118615000Y-86645750D01*
X118615000Y-87886310D01*
X118711673Y-88119699D01*
X118890302Y-88298327D01*
X119123691Y-88395000D01*
X120364250Y-88395000D01*
X120523000Y-88236250D01*
X120523000Y-86487000D01*
X120777000Y-86487000D01*
X120777000Y-88236250D01*
X120935750Y-88395000D01*
X122176309Y-88395000D01*
X122409698Y-88298327D01*
X122588327Y-88119699D01*
X122685000Y-87886310D01*
X122685000Y-86900000D01*
X151022560Y-86900000D01*
X151022560Y-90900000D01*
X151066838Y-91135317D01*
X151205910Y-91351441D01*
X151418110Y-91496431D01*
X151670000Y-91547440D01*
X155670000Y-91547440D01*
X155905317Y-91503162D01*
X156121441Y-91364090D01*
X156266431Y-91151890D01*
X156317440Y-90900000D01*
X156317440Y-90775022D01*
X161974584Y-90775022D01*
X162195353Y-91145743D01*
X163167012Y-91539119D01*
X164215247Y-91530713D01*
X165144647Y-91145743D01*
X165365416Y-90775022D01*
X163670000Y-89079605D01*
X161974584Y-90775022D01*
X156317440Y-90775022D01*
X156317440Y-88397012D01*
X161030881Y-88397012D01*
X161039287Y-89445247D01*
X161424257Y-90374647D01*
X161794978Y-90595416D01*
X163490395Y-88900000D01*
X163849605Y-88900000D01*
X165545022Y-90595416D01*
X165915743Y-90374647D01*
X166309119Y-89402988D01*
X166300713Y-88354753D01*
X165915743Y-87425353D01*
X165545022Y-87204584D01*
X163849605Y-88900000D01*
X163490395Y-88900000D01*
X161794978Y-87204584D01*
X161424257Y-87425353D01*
X161030881Y-88397012D01*
X156317440Y-88397012D01*
X156317440Y-87024978D01*
X161974584Y-87024978D01*
X163670000Y-88720395D01*
X165365416Y-87024978D01*
X165290991Y-86900000D01*
X176422560Y-86900000D01*
X176422560Y-90900000D01*
X176466838Y-91135317D01*
X176605910Y-91351441D01*
X176818110Y-91496431D01*
X177070000Y-91547440D01*
X181070000Y-91547440D01*
X181305317Y-91503162D01*
X181521441Y-91364090D01*
X181666431Y-91151890D01*
X181717440Y-90900000D01*
X181717440Y-90775022D01*
X187374584Y-90775022D01*
X187595353Y-91145743D01*
X188567012Y-91539119D01*
X189615247Y-91530713D01*
X190544647Y-91145743D01*
X190765416Y-90775022D01*
X189070000Y-89079605D01*
X187374584Y-90775022D01*
X181717440Y-90775022D01*
X181717440Y-88397012D01*
X186430881Y-88397012D01*
X186439287Y-89445247D01*
X186824257Y-90374647D01*
X187194978Y-90595416D01*
X188890395Y-88900000D01*
X189249605Y-88900000D01*
X190945022Y-90595416D01*
X191315743Y-90374647D01*
X191709119Y-89402988D01*
X191700713Y-88354753D01*
X191315743Y-87425353D01*
X190945022Y-87204584D01*
X189249605Y-88900000D01*
X188890395Y-88900000D01*
X187194978Y-87204584D01*
X186824257Y-87425353D01*
X186430881Y-88397012D01*
X181717440Y-88397012D01*
X181717440Y-87024978D01*
X187374584Y-87024978D01*
X189070000Y-88720395D01*
X190765416Y-87024978D01*
X190544647Y-86654257D01*
X189572988Y-86260881D01*
X188524753Y-86269287D01*
X187595353Y-86654257D01*
X187374584Y-87024978D01*
X181717440Y-87024978D01*
X181717440Y-86900000D01*
X181673162Y-86664683D01*
X181534090Y-86448559D01*
X181321890Y-86303569D01*
X181070000Y-86252560D01*
X177070000Y-86252560D01*
X176834683Y-86296838D01*
X176618559Y-86435910D01*
X176473569Y-86648110D01*
X176422560Y-86900000D01*
X165290991Y-86900000D01*
X165144647Y-86654257D01*
X164172988Y-86260881D01*
X163124753Y-86269287D01*
X162195353Y-86654257D01*
X161974584Y-87024978D01*
X156317440Y-87024978D01*
X156317440Y-86900000D01*
X156273162Y-86664683D01*
X156134090Y-86448559D01*
X155921890Y-86303569D01*
X155670000Y-86252560D01*
X151670000Y-86252560D01*
X151434683Y-86296838D01*
X151218559Y-86435910D01*
X151073569Y-86648110D01*
X151022560Y-86900000D01*
X122685000Y-86900000D01*
X122685000Y-86645750D01*
X122526250Y-86487000D01*
X120777000Y-86487000D01*
X120523000Y-86487000D01*
X118773750Y-86487000D01*
X118615000Y-86645750D01*
X115010000Y-86645750D01*
X115010000Y-84833690D01*
X118615000Y-84833690D01*
X118615000Y-86074250D01*
X118773750Y-86233000D01*
X120523000Y-86233000D01*
X120523000Y-84483750D01*
X120777000Y-84483750D01*
X120777000Y-86233000D01*
X122526250Y-86233000D01*
X122685000Y-86074250D01*
X122685000Y-84833690D01*
X122588327Y-84600301D01*
X122409698Y-84421673D01*
X122176309Y-84325000D01*
X120935750Y-84325000D01*
X120777000Y-84483750D01*
X120523000Y-84483750D01*
X120364250Y-84325000D01*
X119123691Y-84325000D01*
X118890302Y-84421673D01*
X118711673Y-84600301D01*
X118615000Y-84833690D01*
X115010000Y-84833690D01*
X115010000Y-82563011D01*
X118614648Y-82563011D01*
X118923805Y-83311229D01*
X119495760Y-83884183D01*
X120243438Y-84194646D01*
X121053011Y-84195352D01*
X121801229Y-83886195D01*
X122374183Y-83314240D01*
X122684646Y-82566562D01*
X122685352Y-81756989D01*
X122376195Y-81008771D01*
X121804240Y-80435817D01*
X121056562Y-80125354D01*
X120246989Y-80124648D01*
X119498771Y-80433805D01*
X118925817Y-81005760D01*
X118615354Y-81753438D01*
X118614648Y-82563011D01*
X115010000Y-82563011D01*
X115010000Y-75605750D01*
X199895000Y-75605750D01*
X199895000Y-76846310D01*
X199991673Y-77079699D01*
X200170302Y-77258327D01*
X200403691Y-77355000D01*
X201644250Y-77355000D01*
X201803000Y-77196250D01*
X201803000Y-75447000D01*
X202057000Y-75447000D01*
X202057000Y-77196250D01*
X202215750Y-77355000D01*
X203456309Y-77355000D01*
X203689698Y-77258327D01*
X203868327Y-77079699D01*
X203965000Y-76846310D01*
X203965000Y-75605750D01*
X203806250Y-75447000D01*
X202057000Y-75447000D01*
X201803000Y-75447000D01*
X200053750Y-75447000D01*
X199895000Y-75605750D01*
X115010000Y-75605750D01*
X115010000Y-73793690D01*
X199895000Y-73793690D01*
X199895000Y-75034250D01*
X200053750Y-75193000D01*
X201803000Y-75193000D01*
X201803000Y-73443750D01*
X202057000Y-73443750D01*
X202057000Y-75193000D01*
X203806250Y-75193000D01*
X203965000Y-75034250D01*
X203965000Y-73793690D01*
X203868327Y-73560301D01*
X203689698Y-73381673D01*
X203456309Y-73285000D01*
X202215750Y-73285000D01*
X202057000Y-73443750D01*
X201803000Y-73443750D01*
X201644250Y-73285000D01*
X200403691Y-73285000D01*
X200170302Y-73381673D01*
X199991673Y-73560301D01*
X199895000Y-73793690D01*
X115010000Y-73793690D01*
X115010000Y-71523011D01*
X199894648Y-71523011D01*
X200203805Y-72271229D01*
X200775760Y-72844183D01*
X201523438Y-73154646D01*
X202333011Y-73155352D01*
X203081229Y-72846195D01*
X203654183Y-72274240D01*
X203964646Y-71526562D01*
X203965352Y-70716989D01*
X203656195Y-69968771D01*
X203084240Y-69395817D01*
X202336562Y-69085354D01*
X201526989Y-69084648D01*
X200778771Y-69393805D01*
X200205817Y-69965760D01*
X199895354Y-70713438D01*
X199894648Y-71523011D01*
X115010000Y-71523011D01*
X115010000Y-70135750D01*
X119165000Y-70135750D01*
X119165000Y-70826310D01*
X119261673Y-71059699D01*
X119440302Y-71238327D01*
X119673691Y-71335000D01*
X120364250Y-71335000D01*
X120523000Y-71176250D01*
X120523000Y-69977000D01*
X120777000Y-69977000D01*
X120777000Y-71176250D01*
X120935750Y-71335000D01*
X121626309Y-71335000D01*
X121859698Y-71238327D01*
X122038327Y-71059699D01*
X122135000Y-70826310D01*
X122135000Y-70135750D01*
X121976250Y-69977000D01*
X120777000Y-69977000D01*
X120523000Y-69977000D01*
X119323750Y-69977000D01*
X119165000Y-70135750D01*
X115010000Y-70135750D01*
X115010000Y-64770000D01*
X119135907Y-64770000D01*
X119248946Y-65338285D01*
X119570853Y-65820054D01*
X119900026Y-66040000D01*
X119570853Y-66259946D01*
X119248946Y-66741715D01*
X119135907Y-67310000D01*
X119248946Y-67878285D01*
X119570853Y-68360054D01*
X119614777Y-68389403D01*
X119440302Y-68461673D01*
X119261673Y-68640301D01*
X119165000Y-68873690D01*
X119165000Y-69564250D01*
X119323750Y-69723000D01*
X120523000Y-69723000D01*
X120523000Y-69703000D01*
X120777000Y-69703000D01*
X120777000Y-69723000D01*
X121976250Y-69723000D01*
X122135000Y-69564250D01*
X122135000Y-68873690D01*
X122038327Y-68640301D01*
X121859698Y-68461673D01*
X121685223Y-68389403D01*
X121729147Y-68360054D01*
X122051054Y-67878285D01*
X122164093Y-67310000D01*
X122051054Y-66741715D01*
X121729147Y-66259946D01*
X121399974Y-66040000D01*
X121729147Y-65820054D01*
X122051054Y-65338285D01*
X122164093Y-64770000D01*
X122051054Y-64201715D01*
X121729147Y-63719946D01*
X121247378Y-63398039D01*
X120679093Y-63285000D01*
X120620907Y-63285000D01*
X120052622Y-63398039D01*
X119570853Y-63719946D01*
X119248946Y-64201715D01*
X119135907Y-64770000D01*
X115010000Y-64770000D01*
X115010000Y-57435750D01*
X118615000Y-57435750D01*
X118615000Y-58676310D01*
X118711673Y-58909699D01*
X118890302Y-59088327D01*
X119123691Y-59185000D01*
X120364250Y-59185000D01*
X120523000Y-59026250D01*
X120523000Y-57277000D01*
X120777000Y-57277000D01*
X120777000Y-59026250D01*
X120935750Y-59185000D01*
X122176309Y-59185000D01*
X122409698Y-59088327D01*
X122588327Y-58909699D01*
X122685000Y-58676310D01*
X122685000Y-57435750D01*
X122526250Y-57277000D01*
X120777000Y-57277000D01*
X120523000Y-57277000D01*
X118773750Y-57277000D01*
X118615000Y-57435750D01*
X115010000Y-57435750D01*
X115010000Y-55623690D01*
X118615000Y-55623690D01*
X118615000Y-56864250D01*
X118773750Y-57023000D01*
X120523000Y-57023000D01*
X120523000Y-55273750D01*
X120777000Y-55273750D01*
X120777000Y-57023000D01*
X122526250Y-57023000D01*
X122685000Y-56864250D01*
X122685000Y-55623690D01*
X122588327Y-55390301D01*
X122409698Y-55211673D01*
X122176309Y-55115000D01*
X120935750Y-55115000D01*
X120777000Y-55273750D01*
X120523000Y-55273750D01*
X120364250Y-55115000D01*
X119123691Y-55115000D01*
X118890302Y-55211673D01*
X118711673Y-55390301D01*
X118615000Y-55623690D01*
X115010000Y-55623690D01*
X115010000Y-53353011D01*
X118614648Y-53353011D01*
X118923805Y-54101229D01*
X119495760Y-54674183D01*
X120243438Y-54984646D01*
X121053011Y-54985352D01*
X121801229Y-54676195D01*
X122374183Y-54104240D01*
X122684646Y-53356562D01*
X122685352Y-52546989D01*
X122376195Y-51798771D01*
X121804240Y-51225817D01*
X121056562Y-50915354D01*
X120246989Y-50914648D01*
X119498771Y-51223805D01*
X118925817Y-51795760D01*
X118615354Y-52543438D01*
X118614648Y-53353011D01*
X115010000Y-53353011D01*
X115010000Y-46430000D01*
X207570000Y-46430000D01*
X207570000Y-102160000D01*
M02*
