G04 #@! TF.FileFunction,Soldermask,Top*
%FSLAX46Y46*%
G04 Gerber Fmt 4.6, Leading zero omitted, Abs format (unit mm)*
G04 Created by KiCad (PCBNEW 4.0.7-e2-6376~58~ubuntu16.04.1) date Fri Dec  8 16:26:48 2017*
%MOMM*%
%LPD*%
G01*
G04 APERTURE LIST*
%ADD10C,0.100000*%
%ADD11R,4.400000X4.400000*%
%ADD12C,4.400000*%
%ADD13R,3.200000X3.200000*%
%ADD14C,3.200000*%
%ADD15R,1.900000X0.850000*%
%ADD16R,0.900000X0.900000*%
%ADD17R,2.800000X3.800000*%
%ADD18R,1.400000X1.245000*%
%ADD19R,1.245000X1.400000*%
%ADD20R,2.100000X2.100000*%
%ADD21O,2.100000X2.100000*%
G04 APERTURE END LIST*
D10*
D11*
X153670000Y-88900000D03*
D12*
X163670000Y-88900000D03*
D11*
X179070000Y-88900000D03*
D12*
X189070000Y-88900000D03*
D13*
X120650000Y-57150000D03*
D14*
X120650000Y-52950000D03*
D13*
X120650000Y-86360000D03*
D14*
X120650000Y-82160000D03*
D13*
X201930000Y-75320000D03*
D14*
X201930000Y-71120000D03*
D15*
X134680000Y-62230000D03*
X134680000Y-60930000D03*
X132020000Y-61580000D03*
X131960000Y-66660000D03*
X131960000Y-67960000D03*
X134620000Y-67310000D03*
X133230000Y-90790000D03*
X133230000Y-92090000D03*
X135890000Y-91440000D03*
X133290000Y-96632000D03*
X133290000Y-97932000D03*
X135950000Y-97282000D03*
D16*
X139020000Y-51095000D03*
X139020000Y-51745000D03*
X139020000Y-52395000D03*
X139020000Y-53045000D03*
D17*
X140970000Y-52070000D03*
D16*
X139020000Y-81575000D03*
X139020000Y-82225000D03*
X139020000Y-82875000D03*
X139020000Y-83525000D03*
D17*
X140970000Y-82550000D03*
D18*
X128270000Y-90785000D03*
X128270000Y-92710000D03*
D19*
X128270000Y-53340000D03*
X126345000Y-53340000D03*
D18*
X128270000Y-58420000D03*
X128270000Y-56495000D03*
D20*
X120650000Y-69850000D03*
D21*
X120650000Y-67310000D03*
X120650000Y-64770000D03*
D20*
X120650000Y-99314000D03*
D21*
X120650000Y-96774000D03*
X120650000Y-94234000D03*
M02*
