G04 #@! TF.FileFunction,Copper,L1,Top,Signal*
%FSLAX46Y46*%
G04 Gerber Fmt 4.6, Leading zero omitted, Abs format (unit mm)*
G04 Created by KiCad (PCBNEW 4.0.7-e2-6376~58~ubuntu16.04.1) date Mon Dec 18 14:35:32 2017*
%MOMM*%
%LPD*%
G01*
G04 APERTURE LIST*
%ADD10C,0.100000*%
%ADD11R,2.800000X2.800000*%
%ADD12C,2.800000*%
%ADD13R,0.900000X0.600000*%
%ADD14R,0.600000X0.900000*%
%ADD15R,0.700000X1.150000*%
%ADD16R,4.700000X1.550000*%
%ADD17R,4.200000X3.300000*%
%ADD18R,0.620000X0.950000*%
%ADD19R,5.350000X4.330000*%
%ADD20R,1.000000X0.670000*%
%ADD21R,2.400000X2.400000*%
%ADD22C,2.400000*%
%ADD23C,1.000000*%
%ADD24C,0.254000*%
G04 APERTURE END LIST*
D10*
D11*
X99822000Y-71374000D03*
D12*
X95622000Y-71374000D03*
D11*
X99822000Y-85090000D03*
D12*
X95622000Y-85090000D03*
D11*
X150368000Y-81280000D03*
D12*
X150368000Y-77080000D03*
D13*
X112286000Y-74074000D03*
X112286000Y-74924000D03*
X112286000Y-73224000D03*
X114586000Y-74074000D03*
X114586000Y-74924000D03*
X114586000Y-73224000D03*
X113436000Y-73224000D03*
X113436000Y-74924000D03*
D14*
X111556000Y-71374000D03*
X115316000Y-71374000D03*
X112836000Y-71374000D03*
D15*
X112796000Y-77094000D03*
X111526000Y-77094000D03*
X114076000Y-77094000D03*
D16*
X113436000Y-71624000D03*
D17*
X113436000Y-73824000D03*
D15*
X115346000Y-77094000D03*
D14*
X114036000Y-71374000D03*
D13*
X113436000Y-74074000D03*
D18*
X115443000Y-81694000D03*
X114173000Y-81694000D03*
X112903000Y-81694000D03*
X111633000Y-81694000D03*
D19*
X113538000Y-85344000D03*
D20*
X123190000Y-74676000D03*
X123190000Y-72926000D03*
D21*
X127000000Y-76788000D03*
D22*
X127000000Y-81788000D03*
D21*
X140208000Y-76788000D03*
D22*
X140208000Y-81788000D03*
D23*
X113436000Y-71624000D02*
X113436000Y-73824000D01*
X99822000Y-71374000D02*
X113186000Y-71374000D01*
X113186000Y-71374000D02*
X113436000Y-71624000D01*
X126266000Y-72926000D02*
X127000000Y-73660000D01*
X127000000Y-73660000D02*
X127000000Y-76788000D01*
X123190000Y-72926000D02*
X126266000Y-72926000D01*
X140208000Y-76788000D02*
X138008000Y-76788000D01*
X138008000Y-76788000D02*
X127000000Y-76788000D01*
X150368000Y-77080000D02*
X140500000Y-77080000D01*
X140500000Y-77080000D02*
X140208000Y-76788000D01*
X95622000Y-85090000D02*
X95622000Y-83110102D01*
X95622000Y-83110102D02*
X95622000Y-71374000D01*
X95622000Y-71374000D02*
X95622000Y-69394102D01*
X95622000Y-69394102D02*
X97960102Y-67056000D01*
X97960102Y-67056000D02*
X118655000Y-67056000D01*
X118655000Y-67056000D02*
X123190000Y-71591000D01*
X123190000Y-71591000D02*
X123190000Y-72926000D01*
X99822000Y-85090000D02*
X113284000Y-85090000D01*
X113284000Y-85090000D02*
X113538000Y-85344000D01*
X115443000Y-81694000D02*
X126906000Y-81694000D01*
X126906000Y-81694000D02*
X127000000Y-81788000D01*
X140208000Y-81788000D02*
X138510944Y-81788000D01*
X138510944Y-81788000D02*
X127000000Y-81788000D01*
X150368000Y-81280000D02*
X140716000Y-81280000D01*
X140716000Y-81280000D02*
X140208000Y-81788000D01*
X114173000Y-81694000D02*
X115443000Y-81694000D01*
X112903000Y-81694000D02*
X114173000Y-81694000D01*
X111633000Y-81694000D02*
X112903000Y-81694000D01*
X111526000Y-77094000D02*
X111526000Y-81587000D01*
X111526000Y-81587000D02*
X111633000Y-81694000D01*
X112796000Y-77094000D02*
X111526000Y-77094000D01*
X114076000Y-77094000D02*
X112796000Y-77094000D01*
X115346000Y-77094000D02*
X122107000Y-77094000D01*
X122107000Y-77094000D02*
X123190000Y-76011000D01*
X123190000Y-76011000D02*
X123190000Y-74676000D01*
D24*
G36*
X153214000Y-79121000D02*
X150117443Y-79121000D01*
X150817409Y-79105614D01*
X151482545Y-78830106D01*
X151630118Y-78521724D01*
X150368000Y-77259605D01*
X149105882Y-78521724D01*
X149253455Y-78830106D01*
X150001844Y-79121000D01*
X125603000Y-79121000D01*
X125603000Y-78593719D01*
X125673690Y-78623000D01*
X126714250Y-78623000D01*
X126873000Y-78464250D01*
X126873000Y-76915000D01*
X127127000Y-76915000D01*
X127127000Y-78464250D01*
X127285750Y-78623000D01*
X128326310Y-78623000D01*
X128559699Y-78526327D01*
X128738327Y-78347698D01*
X128835000Y-78114309D01*
X128835000Y-77073750D01*
X138373000Y-77073750D01*
X138373000Y-78114309D01*
X138469673Y-78347698D01*
X138648301Y-78526327D01*
X138881690Y-78623000D01*
X139922250Y-78623000D01*
X140081000Y-78464250D01*
X140081000Y-76915000D01*
X140335000Y-76915000D01*
X140335000Y-78464250D01*
X140493750Y-78623000D01*
X141534310Y-78623000D01*
X141767699Y-78526327D01*
X141946327Y-78347698D01*
X142043000Y-78114309D01*
X142043000Y-77073750D01*
X141884250Y-76915000D01*
X140335000Y-76915000D01*
X140081000Y-76915000D01*
X138531750Y-76915000D01*
X138373000Y-77073750D01*
X128835000Y-77073750D01*
X128676250Y-76915000D01*
X127127000Y-76915000D01*
X126873000Y-76915000D01*
X126853000Y-76915000D01*
X126853000Y-76720031D01*
X148324595Y-76720031D01*
X148342386Y-77529409D01*
X148617894Y-78194545D01*
X148926276Y-78342118D01*
X150188395Y-77080000D01*
X150547605Y-77080000D01*
X151809724Y-78342118D01*
X152118106Y-78194545D01*
X152411405Y-77439969D01*
X152393614Y-76630591D01*
X152118106Y-75965455D01*
X151809724Y-75817882D01*
X150547605Y-77080000D01*
X150188395Y-77080000D01*
X148926276Y-75817882D01*
X148617894Y-75965455D01*
X148324595Y-76720031D01*
X126853000Y-76720031D01*
X126853000Y-76661000D01*
X126873000Y-76661000D01*
X126873000Y-75111750D01*
X127127000Y-75111750D01*
X127127000Y-76661000D01*
X128676250Y-76661000D01*
X128835000Y-76502250D01*
X128835000Y-75461691D01*
X138373000Y-75461691D01*
X138373000Y-76502250D01*
X138531750Y-76661000D01*
X140081000Y-76661000D01*
X140081000Y-75111750D01*
X140335000Y-75111750D01*
X140335000Y-76661000D01*
X141884250Y-76661000D01*
X142043000Y-76502250D01*
X142043000Y-75638276D01*
X149105882Y-75638276D01*
X150368000Y-76900395D01*
X151630118Y-75638276D01*
X151482545Y-75329894D01*
X150727969Y-75036595D01*
X149918591Y-75054386D01*
X149253455Y-75329894D01*
X149105882Y-75638276D01*
X142043000Y-75638276D01*
X142043000Y-75461691D01*
X141946327Y-75228302D01*
X141767699Y-75049673D01*
X141534310Y-74953000D01*
X140493750Y-74953000D01*
X140335000Y-75111750D01*
X140081000Y-75111750D01*
X139922250Y-74953000D01*
X138881690Y-74953000D01*
X138648301Y-75049673D01*
X138469673Y-75228302D01*
X138373000Y-75461691D01*
X128835000Y-75461691D01*
X128738327Y-75228302D01*
X128559699Y-75049673D01*
X128326310Y-74953000D01*
X127285750Y-74953000D01*
X127127000Y-75111750D01*
X126873000Y-75111750D01*
X126714250Y-74953000D01*
X125673690Y-74953000D01*
X125603000Y-74982281D01*
X125603000Y-73660000D01*
X125592994Y-73610590D01*
X125564553Y-73568965D01*
X125522159Y-73541685D01*
X125476000Y-73533000D01*
X124264653Y-73533000D01*
X124325000Y-73387309D01*
X124325000Y-73211750D01*
X124166250Y-73053000D01*
X123317000Y-73053000D01*
X123317000Y-73073000D01*
X123063000Y-73073000D01*
X123063000Y-73053000D01*
X122213750Y-73053000D01*
X122055000Y-73211750D01*
X122055000Y-73387309D01*
X122115347Y-73533000D01*
X120015000Y-73533000D01*
X120015000Y-72464691D01*
X122055000Y-72464691D01*
X122055000Y-72640250D01*
X122213750Y-72799000D01*
X123063000Y-72799000D01*
X123063000Y-72114750D01*
X123317000Y-72114750D01*
X123317000Y-72799000D01*
X124166250Y-72799000D01*
X124325000Y-72640250D01*
X124325000Y-72464691D01*
X124228327Y-72231302D01*
X124049699Y-72052673D01*
X123816310Y-71956000D01*
X123475750Y-71956000D01*
X123317000Y-72114750D01*
X123063000Y-72114750D01*
X122904250Y-71956000D01*
X122563690Y-71956000D01*
X122330301Y-72052673D01*
X122151673Y-72231302D01*
X122055000Y-72464691D01*
X120015000Y-72464691D01*
X120015000Y-69342000D01*
X120004994Y-69292590D01*
X119976553Y-69250965D01*
X119934159Y-69223685D01*
X119888000Y-69215000D01*
X97536000Y-69215000D01*
X97486590Y-69225006D01*
X97444965Y-69253447D01*
X97417685Y-69295841D01*
X97409000Y-69342000D01*
X97409000Y-70348525D01*
X97372106Y-70259455D01*
X97063724Y-70111882D01*
X95801605Y-71374000D01*
X97063724Y-72636118D01*
X97372106Y-72488545D01*
X97409000Y-72393627D01*
X97409000Y-84064525D01*
X97372106Y-83975455D01*
X97063724Y-83827882D01*
X95801605Y-85090000D01*
X97063724Y-86352118D01*
X97372106Y-86204545D01*
X97409000Y-86109627D01*
X97409000Y-88444000D01*
X90372000Y-88444000D01*
X90372000Y-86531724D01*
X94359882Y-86531724D01*
X94507455Y-86840106D01*
X95262031Y-87133405D01*
X96071409Y-87115614D01*
X96736545Y-86840106D01*
X96884118Y-86531724D01*
X95622000Y-85269605D01*
X94359882Y-86531724D01*
X90372000Y-86531724D01*
X90372000Y-84730031D01*
X93578595Y-84730031D01*
X93596386Y-85539409D01*
X93871894Y-86204545D01*
X94180276Y-86352118D01*
X95442395Y-85090000D01*
X94180276Y-83827882D01*
X93871894Y-83975455D01*
X93578595Y-84730031D01*
X90372000Y-84730031D01*
X90372000Y-83648276D01*
X94359882Y-83648276D01*
X95622000Y-84910395D01*
X96884118Y-83648276D01*
X96736545Y-83339894D01*
X95981969Y-83046595D01*
X95172591Y-83064386D01*
X94507455Y-83339894D01*
X94359882Y-83648276D01*
X90372000Y-83648276D01*
X90372000Y-72815724D01*
X94359882Y-72815724D01*
X94507455Y-73124106D01*
X95262031Y-73417405D01*
X96071409Y-73399614D01*
X96736545Y-73124106D01*
X96884118Y-72815724D01*
X95622000Y-71553605D01*
X94359882Y-72815724D01*
X90372000Y-72815724D01*
X90372000Y-71014031D01*
X93578595Y-71014031D01*
X93596386Y-71823409D01*
X93871894Y-72488545D01*
X94180276Y-72636118D01*
X95442395Y-71374000D01*
X94180276Y-70111882D01*
X93871894Y-70259455D01*
X93578595Y-71014031D01*
X90372000Y-71014031D01*
X90372000Y-69932276D01*
X94359882Y-69932276D01*
X95622000Y-71194395D01*
X96884118Y-69932276D01*
X96736545Y-69623894D01*
X95981969Y-69330595D01*
X95172591Y-69348386D01*
X94507455Y-69623894D01*
X94359882Y-69932276D01*
X90372000Y-69932276D01*
X90372000Y-66496000D01*
X153214000Y-66496000D01*
X153214000Y-79121000D01*
X153214000Y-79121000D01*
G37*
X153214000Y-79121000D02*
X150117443Y-79121000D01*
X150817409Y-79105614D01*
X151482545Y-78830106D01*
X151630118Y-78521724D01*
X150368000Y-77259605D01*
X149105882Y-78521724D01*
X149253455Y-78830106D01*
X150001844Y-79121000D01*
X125603000Y-79121000D01*
X125603000Y-78593719D01*
X125673690Y-78623000D01*
X126714250Y-78623000D01*
X126873000Y-78464250D01*
X126873000Y-76915000D01*
X127127000Y-76915000D01*
X127127000Y-78464250D01*
X127285750Y-78623000D01*
X128326310Y-78623000D01*
X128559699Y-78526327D01*
X128738327Y-78347698D01*
X128835000Y-78114309D01*
X128835000Y-77073750D01*
X138373000Y-77073750D01*
X138373000Y-78114309D01*
X138469673Y-78347698D01*
X138648301Y-78526327D01*
X138881690Y-78623000D01*
X139922250Y-78623000D01*
X140081000Y-78464250D01*
X140081000Y-76915000D01*
X140335000Y-76915000D01*
X140335000Y-78464250D01*
X140493750Y-78623000D01*
X141534310Y-78623000D01*
X141767699Y-78526327D01*
X141946327Y-78347698D01*
X142043000Y-78114309D01*
X142043000Y-77073750D01*
X141884250Y-76915000D01*
X140335000Y-76915000D01*
X140081000Y-76915000D01*
X138531750Y-76915000D01*
X138373000Y-77073750D01*
X128835000Y-77073750D01*
X128676250Y-76915000D01*
X127127000Y-76915000D01*
X126873000Y-76915000D01*
X126853000Y-76915000D01*
X126853000Y-76720031D01*
X148324595Y-76720031D01*
X148342386Y-77529409D01*
X148617894Y-78194545D01*
X148926276Y-78342118D01*
X150188395Y-77080000D01*
X150547605Y-77080000D01*
X151809724Y-78342118D01*
X152118106Y-78194545D01*
X152411405Y-77439969D01*
X152393614Y-76630591D01*
X152118106Y-75965455D01*
X151809724Y-75817882D01*
X150547605Y-77080000D01*
X150188395Y-77080000D01*
X148926276Y-75817882D01*
X148617894Y-75965455D01*
X148324595Y-76720031D01*
X126853000Y-76720031D01*
X126853000Y-76661000D01*
X126873000Y-76661000D01*
X126873000Y-75111750D01*
X127127000Y-75111750D01*
X127127000Y-76661000D01*
X128676250Y-76661000D01*
X128835000Y-76502250D01*
X128835000Y-75461691D01*
X138373000Y-75461691D01*
X138373000Y-76502250D01*
X138531750Y-76661000D01*
X140081000Y-76661000D01*
X140081000Y-75111750D01*
X140335000Y-75111750D01*
X140335000Y-76661000D01*
X141884250Y-76661000D01*
X142043000Y-76502250D01*
X142043000Y-75638276D01*
X149105882Y-75638276D01*
X150368000Y-76900395D01*
X151630118Y-75638276D01*
X151482545Y-75329894D01*
X150727969Y-75036595D01*
X149918591Y-75054386D01*
X149253455Y-75329894D01*
X149105882Y-75638276D01*
X142043000Y-75638276D01*
X142043000Y-75461691D01*
X141946327Y-75228302D01*
X141767699Y-75049673D01*
X141534310Y-74953000D01*
X140493750Y-74953000D01*
X140335000Y-75111750D01*
X140081000Y-75111750D01*
X139922250Y-74953000D01*
X138881690Y-74953000D01*
X138648301Y-75049673D01*
X138469673Y-75228302D01*
X138373000Y-75461691D01*
X128835000Y-75461691D01*
X128738327Y-75228302D01*
X128559699Y-75049673D01*
X128326310Y-74953000D01*
X127285750Y-74953000D01*
X127127000Y-75111750D01*
X126873000Y-75111750D01*
X126714250Y-74953000D01*
X125673690Y-74953000D01*
X125603000Y-74982281D01*
X125603000Y-73660000D01*
X125592994Y-73610590D01*
X125564553Y-73568965D01*
X125522159Y-73541685D01*
X125476000Y-73533000D01*
X124264653Y-73533000D01*
X124325000Y-73387309D01*
X124325000Y-73211750D01*
X124166250Y-73053000D01*
X123317000Y-73053000D01*
X123317000Y-73073000D01*
X123063000Y-73073000D01*
X123063000Y-73053000D01*
X122213750Y-73053000D01*
X122055000Y-73211750D01*
X122055000Y-73387309D01*
X122115347Y-73533000D01*
X120015000Y-73533000D01*
X120015000Y-72464691D01*
X122055000Y-72464691D01*
X122055000Y-72640250D01*
X122213750Y-72799000D01*
X123063000Y-72799000D01*
X123063000Y-72114750D01*
X123317000Y-72114750D01*
X123317000Y-72799000D01*
X124166250Y-72799000D01*
X124325000Y-72640250D01*
X124325000Y-72464691D01*
X124228327Y-72231302D01*
X124049699Y-72052673D01*
X123816310Y-71956000D01*
X123475750Y-71956000D01*
X123317000Y-72114750D01*
X123063000Y-72114750D01*
X122904250Y-71956000D01*
X122563690Y-71956000D01*
X122330301Y-72052673D01*
X122151673Y-72231302D01*
X122055000Y-72464691D01*
X120015000Y-72464691D01*
X120015000Y-69342000D01*
X120004994Y-69292590D01*
X119976553Y-69250965D01*
X119934159Y-69223685D01*
X119888000Y-69215000D01*
X97536000Y-69215000D01*
X97486590Y-69225006D01*
X97444965Y-69253447D01*
X97417685Y-69295841D01*
X97409000Y-69342000D01*
X97409000Y-70348525D01*
X97372106Y-70259455D01*
X97063724Y-70111882D01*
X95801605Y-71374000D01*
X97063724Y-72636118D01*
X97372106Y-72488545D01*
X97409000Y-72393627D01*
X97409000Y-84064525D01*
X97372106Y-83975455D01*
X97063724Y-83827882D01*
X95801605Y-85090000D01*
X97063724Y-86352118D01*
X97372106Y-86204545D01*
X97409000Y-86109627D01*
X97409000Y-88444000D01*
X90372000Y-88444000D01*
X90372000Y-86531724D01*
X94359882Y-86531724D01*
X94507455Y-86840106D01*
X95262031Y-87133405D01*
X96071409Y-87115614D01*
X96736545Y-86840106D01*
X96884118Y-86531724D01*
X95622000Y-85269605D01*
X94359882Y-86531724D01*
X90372000Y-86531724D01*
X90372000Y-84730031D01*
X93578595Y-84730031D01*
X93596386Y-85539409D01*
X93871894Y-86204545D01*
X94180276Y-86352118D01*
X95442395Y-85090000D01*
X94180276Y-83827882D01*
X93871894Y-83975455D01*
X93578595Y-84730031D01*
X90372000Y-84730031D01*
X90372000Y-83648276D01*
X94359882Y-83648276D01*
X95622000Y-84910395D01*
X96884118Y-83648276D01*
X96736545Y-83339894D01*
X95981969Y-83046595D01*
X95172591Y-83064386D01*
X94507455Y-83339894D01*
X94359882Y-83648276D01*
X90372000Y-83648276D01*
X90372000Y-72815724D01*
X94359882Y-72815724D01*
X94507455Y-73124106D01*
X95262031Y-73417405D01*
X96071409Y-73399614D01*
X96736545Y-73124106D01*
X96884118Y-72815724D01*
X95622000Y-71553605D01*
X94359882Y-72815724D01*
X90372000Y-72815724D01*
X90372000Y-71014031D01*
X93578595Y-71014031D01*
X93596386Y-71823409D01*
X93871894Y-72488545D01*
X94180276Y-72636118D01*
X95442395Y-71374000D01*
X94180276Y-70111882D01*
X93871894Y-70259455D01*
X93578595Y-71014031D01*
X90372000Y-71014031D01*
X90372000Y-69932276D01*
X94359882Y-69932276D01*
X95622000Y-71194395D01*
X96884118Y-69932276D01*
X96736545Y-69623894D01*
X95981969Y-69330595D01*
X95172591Y-69348386D01*
X94507455Y-69623894D01*
X94359882Y-69932276D01*
X90372000Y-69932276D01*
X90372000Y-66496000D01*
X153214000Y-66496000D01*
X153214000Y-79121000D01*
G36*
X107061000Y-82550000D02*
X107071006Y-82599410D01*
X107099447Y-82641035D01*
X107141841Y-82668315D01*
X107188000Y-82677000D01*
X110466974Y-82677000D01*
X110324673Y-82819302D01*
X110228000Y-83052691D01*
X110228000Y-85058250D01*
X110386750Y-85217000D01*
X113411000Y-85217000D01*
X113411000Y-85197000D01*
X113665000Y-85197000D01*
X113665000Y-85217000D01*
X116689250Y-85217000D01*
X116848000Y-85058250D01*
X116848000Y-83052691D01*
X116751327Y-82819302D01*
X116609026Y-82677000D01*
X122301000Y-82677000D01*
X122301000Y-88444000D01*
X97917000Y-88444000D01*
X97917000Y-86883025D01*
X98062301Y-87028327D01*
X98295690Y-87125000D01*
X99536250Y-87125000D01*
X99695000Y-86966250D01*
X99695000Y-85217000D01*
X99949000Y-85217000D01*
X99949000Y-86966250D01*
X100107750Y-87125000D01*
X101348310Y-87125000D01*
X101581699Y-87028327D01*
X101760327Y-86849698D01*
X101857000Y-86616309D01*
X101857000Y-85629750D01*
X110228000Y-85629750D01*
X110228000Y-87635309D01*
X110324673Y-87868698D01*
X110503301Y-88047327D01*
X110736690Y-88144000D01*
X113252250Y-88144000D01*
X113411000Y-87985250D01*
X113411000Y-85471000D01*
X113665000Y-85471000D01*
X113665000Y-87985250D01*
X113823750Y-88144000D01*
X116339310Y-88144000D01*
X116572699Y-88047327D01*
X116751327Y-87868698D01*
X116848000Y-87635309D01*
X116848000Y-85629750D01*
X116689250Y-85471000D01*
X113665000Y-85471000D01*
X113411000Y-85471000D01*
X110386750Y-85471000D01*
X110228000Y-85629750D01*
X101857000Y-85629750D01*
X101857000Y-85375750D01*
X101698250Y-85217000D01*
X99949000Y-85217000D01*
X99695000Y-85217000D01*
X99675000Y-85217000D01*
X99675000Y-84963000D01*
X99695000Y-84963000D01*
X99695000Y-83213750D01*
X99949000Y-83213750D01*
X99949000Y-84963000D01*
X101698250Y-84963000D01*
X101857000Y-84804250D01*
X101857000Y-83563691D01*
X101760327Y-83330302D01*
X101581699Y-83151673D01*
X101348310Y-83055000D01*
X100107750Y-83055000D01*
X99949000Y-83213750D01*
X99695000Y-83213750D01*
X99536250Y-83055000D01*
X98295690Y-83055000D01*
X98062301Y-83151673D01*
X97917000Y-83296975D01*
X97917000Y-76327000D01*
X107061000Y-76327000D01*
X107061000Y-82550000D01*
X107061000Y-82550000D01*
G37*
X107061000Y-82550000D02*
X107071006Y-82599410D01*
X107099447Y-82641035D01*
X107141841Y-82668315D01*
X107188000Y-82677000D01*
X110466974Y-82677000D01*
X110324673Y-82819302D01*
X110228000Y-83052691D01*
X110228000Y-85058250D01*
X110386750Y-85217000D01*
X113411000Y-85217000D01*
X113411000Y-85197000D01*
X113665000Y-85197000D01*
X113665000Y-85217000D01*
X116689250Y-85217000D01*
X116848000Y-85058250D01*
X116848000Y-83052691D01*
X116751327Y-82819302D01*
X116609026Y-82677000D01*
X122301000Y-82677000D01*
X122301000Y-88444000D01*
X97917000Y-88444000D01*
X97917000Y-86883025D01*
X98062301Y-87028327D01*
X98295690Y-87125000D01*
X99536250Y-87125000D01*
X99695000Y-86966250D01*
X99695000Y-85217000D01*
X99949000Y-85217000D01*
X99949000Y-86966250D01*
X100107750Y-87125000D01*
X101348310Y-87125000D01*
X101581699Y-87028327D01*
X101760327Y-86849698D01*
X101857000Y-86616309D01*
X101857000Y-85629750D01*
X110228000Y-85629750D01*
X110228000Y-87635309D01*
X110324673Y-87868698D01*
X110503301Y-88047327D01*
X110736690Y-88144000D01*
X113252250Y-88144000D01*
X113411000Y-87985250D01*
X113411000Y-85471000D01*
X113665000Y-85471000D01*
X113665000Y-87985250D01*
X113823750Y-88144000D01*
X116339310Y-88144000D01*
X116572699Y-88047327D01*
X116751327Y-87868698D01*
X116848000Y-87635309D01*
X116848000Y-85629750D01*
X116689250Y-85471000D01*
X113665000Y-85471000D01*
X113411000Y-85471000D01*
X110386750Y-85471000D01*
X110228000Y-85629750D01*
X101857000Y-85629750D01*
X101857000Y-85375750D01*
X101698250Y-85217000D01*
X99949000Y-85217000D01*
X99695000Y-85217000D01*
X99675000Y-85217000D01*
X99675000Y-84963000D01*
X99695000Y-84963000D01*
X99695000Y-83213750D01*
X99949000Y-83213750D01*
X99949000Y-84963000D01*
X101698250Y-84963000D01*
X101857000Y-84804250D01*
X101857000Y-83563691D01*
X101760327Y-83330302D01*
X101581699Y-83151673D01*
X101348310Y-83055000D01*
X100107750Y-83055000D01*
X99949000Y-83213750D01*
X99695000Y-83213750D01*
X99536250Y-83055000D01*
X98295690Y-83055000D01*
X98062301Y-83151673D01*
X97917000Y-83296975D01*
X97917000Y-76327000D01*
X107061000Y-76327000D01*
X107061000Y-82550000D01*
G36*
X119507000Y-75819000D02*
X116080416Y-75819000D01*
X116171000Y-75600310D01*
X116171000Y-74109750D01*
X116012250Y-73951000D01*
X115671000Y-73951000D01*
X115671000Y-73946998D01*
X115512252Y-73946998D01*
X115671000Y-73788250D01*
X115671000Y-73697000D01*
X116012250Y-73697000D01*
X116171000Y-73538250D01*
X116171000Y-72912025D01*
X116324327Y-72758699D01*
X116421000Y-72525310D01*
X116421000Y-71909750D01*
X116262250Y-71751000D01*
X116251000Y-71751000D01*
X116251000Y-71659750D01*
X116092252Y-71501002D01*
X116251000Y-71501002D01*
X116251000Y-71497000D01*
X116262250Y-71497000D01*
X116421000Y-71338250D01*
X116421000Y-70722690D01*
X116324327Y-70489301D01*
X116145698Y-70310673D01*
X115912309Y-70214000D01*
X113721750Y-70214000D01*
X113646750Y-70289000D01*
X113609691Y-70289000D01*
X113436000Y-70360945D01*
X113262309Y-70289000D01*
X113225250Y-70289000D01*
X113150250Y-70214000D01*
X110959691Y-70214000D01*
X110726302Y-70310673D01*
X110547673Y-70489301D01*
X110451000Y-70722690D01*
X110451000Y-71338250D01*
X110609750Y-71497000D01*
X110621000Y-71497000D01*
X110621000Y-71501002D01*
X110779748Y-71501002D01*
X110621000Y-71659750D01*
X110621000Y-71751000D01*
X110609750Y-71751000D01*
X110451000Y-71909750D01*
X110451000Y-72525310D01*
X110547673Y-72758699D01*
X110701000Y-72912025D01*
X110701000Y-73538250D01*
X110859750Y-73697000D01*
X111201000Y-73697000D01*
X111201000Y-73788250D01*
X111359748Y-73946998D01*
X111201000Y-73946998D01*
X111201000Y-73951000D01*
X110859750Y-73951000D01*
X110701000Y-74109750D01*
X110701000Y-75600310D01*
X110791584Y-75819000D01*
X97917000Y-75819000D01*
X97917000Y-73167025D01*
X98062301Y-73312327D01*
X98295690Y-73409000D01*
X99536250Y-73409000D01*
X99695000Y-73250250D01*
X99695000Y-71501000D01*
X99949000Y-71501000D01*
X99949000Y-73250250D01*
X100107750Y-73409000D01*
X101348310Y-73409000D01*
X101581699Y-73312327D01*
X101760327Y-73133698D01*
X101857000Y-72900309D01*
X101857000Y-71659750D01*
X101698250Y-71501000D01*
X99949000Y-71501000D01*
X99695000Y-71501000D01*
X99675000Y-71501000D01*
X99675000Y-71247000D01*
X99695000Y-71247000D01*
X99695000Y-71227000D01*
X99949000Y-71227000D01*
X99949000Y-71247000D01*
X101698250Y-71247000D01*
X101857000Y-71088250D01*
X101857000Y-69847691D01*
X101805351Y-69723000D01*
X119507000Y-69723000D01*
X119507000Y-75819000D01*
X119507000Y-75819000D01*
G37*
X119507000Y-75819000D02*
X116080416Y-75819000D01*
X116171000Y-75600310D01*
X116171000Y-74109750D01*
X116012250Y-73951000D01*
X115671000Y-73951000D01*
X115671000Y-73946998D01*
X115512252Y-73946998D01*
X115671000Y-73788250D01*
X115671000Y-73697000D01*
X116012250Y-73697000D01*
X116171000Y-73538250D01*
X116171000Y-72912025D01*
X116324327Y-72758699D01*
X116421000Y-72525310D01*
X116421000Y-71909750D01*
X116262250Y-71751000D01*
X116251000Y-71751000D01*
X116251000Y-71659750D01*
X116092252Y-71501002D01*
X116251000Y-71501002D01*
X116251000Y-71497000D01*
X116262250Y-71497000D01*
X116421000Y-71338250D01*
X116421000Y-70722690D01*
X116324327Y-70489301D01*
X116145698Y-70310673D01*
X115912309Y-70214000D01*
X113721750Y-70214000D01*
X113646750Y-70289000D01*
X113609691Y-70289000D01*
X113436000Y-70360945D01*
X113262309Y-70289000D01*
X113225250Y-70289000D01*
X113150250Y-70214000D01*
X110959691Y-70214000D01*
X110726302Y-70310673D01*
X110547673Y-70489301D01*
X110451000Y-70722690D01*
X110451000Y-71338250D01*
X110609750Y-71497000D01*
X110621000Y-71497000D01*
X110621000Y-71501002D01*
X110779748Y-71501002D01*
X110621000Y-71659750D01*
X110621000Y-71751000D01*
X110609750Y-71751000D01*
X110451000Y-71909750D01*
X110451000Y-72525310D01*
X110547673Y-72758699D01*
X110701000Y-72912025D01*
X110701000Y-73538250D01*
X110859750Y-73697000D01*
X111201000Y-73697000D01*
X111201000Y-73788250D01*
X111359748Y-73946998D01*
X111201000Y-73946998D01*
X111201000Y-73951000D01*
X110859750Y-73951000D01*
X110701000Y-74109750D01*
X110701000Y-75600310D01*
X110791584Y-75819000D01*
X97917000Y-75819000D01*
X97917000Y-73167025D01*
X98062301Y-73312327D01*
X98295690Y-73409000D01*
X99536250Y-73409000D01*
X99695000Y-73250250D01*
X99695000Y-71501000D01*
X99949000Y-71501000D01*
X99949000Y-73250250D01*
X100107750Y-73409000D01*
X101348310Y-73409000D01*
X101581699Y-73312327D01*
X101760327Y-73133698D01*
X101857000Y-72900309D01*
X101857000Y-71659750D01*
X101698250Y-71501000D01*
X99949000Y-71501000D01*
X99695000Y-71501000D01*
X99675000Y-71501000D01*
X99675000Y-71247000D01*
X99695000Y-71247000D01*
X99695000Y-71227000D01*
X99949000Y-71227000D01*
X99949000Y-71247000D01*
X101698250Y-71247000D01*
X101857000Y-71088250D01*
X101857000Y-69847691D01*
X101805351Y-69723000D01*
X119507000Y-69723000D01*
X119507000Y-75819000D01*
G36*
X113501000Y-73788250D02*
X113563000Y-73850250D01*
X113563000Y-73971000D01*
X113309000Y-73971000D01*
X113309000Y-73850250D01*
X113371000Y-73788250D01*
X113371000Y-73677000D01*
X113501000Y-73677000D01*
X113501000Y-73788250D01*
X113501000Y-73788250D01*
G37*
X113501000Y-73788250D02*
X113563000Y-73850250D01*
X113563000Y-73971000D01*
X113309000Y-73971000D01*
X113309000Y-73850250D01*
X113371000Y-73788250D01*
X113371000Y-73677000D01*
X113501000Y-73677000D01*
X113501000Y-73788250D01*
G36*
X122055000Y-74214691D02*
X122055000Y-74390250D01*
X122213750Y-74549000D01*
X123063000Y-74549000D01*
X123063000Y-74529000D01*
X123317000Y-74529000D01*
X123317000Y-74549000D01*
X124166250Y-74549000D01*
X124325000Y-74390250D01*
X124325000Y-74214691D01*
X124253055Y-74041000D01*
X125095000Y-74041000D01*
X125095000Y-79121000D01*
X114935000Y-79121000D01*
X114935000Y-78304000D01*
X115060250Y-78304000D01*
X115219000Y-78145250D01*
X115219000Y-77221000D01*
X115473000Y-77221000D01*
X115473000Y-78145250D01*
X115631750Y-78304000D01*
X115822309Y-78304000D01*
X116055698Y-78207327D01*
X116234327Y-78028699D01*
X116331000Y-77795310D01*
X116331000Y-77379750D01*
X116172250Y-77221000D01*
X115473000Y-77221000D01*
X115219000Y-77221000D01*
X115199000Y-77221000D01*
X115199000Y-76967000D01*
X115219000Y-76967000D01*
X115219000Y-76947000D01*
X115473000Y-76947000D01*
X115473000Y-76967000D01*
X116172250Y-76967000D01*
X116331000Y-76808250D01*
X116331000Y-76392690D01*
X116303790Y-76327000D01*
X119888000Y-76327000D01*
X119937410Y-76316994D01*
X119979035Y-76288553D01*
X120006315Y-76246159D01*
X120015000Y-76200000D01*
X120015000Y-74961750D01*
X122055000Y-74961750D01*
X122055000Y-75137309D01*
X122151673Y-75370698D01*
X122330301Y-75549327D01*
X122563690Y-75646000D01*
X122904250Y-75646000D01*
X123063000Y-75487250D01*
X123063000Y-74803000D01*
X123317000Y-74803000D01*
X123317000Y-75487250D01*
X123475750Y-75646000D01*
X123816310Y-75646000D01*
X124049699Y-75549327D01*
X124228327Y-75370698D01*
X124325000Y-75137309D01*
X124325000Y-74961750D01*
X124166250Y-74803000D01*
X123317000Y-74803000D01*
X123063000Y-74803000D01*
X122213750Y-74803000D01*
X122055000Y-74961750D01*
X120015000Y-74961750D01*
X120015000Y-74041000D01*
X122126945Y-74041000D01*
X122055000Y-74214691D01*
X122055000Y-74214691D01*
G37*
X122055000Y-74214691D02*
X122055000Y-74390250D01*
X122213750Y-74549000D01*
X123063000Y-74549000D01*
X123063000Y-74529000D01*
X123317000Y-74529000D01*
X123317000Y-74549000D01*
X124166250Y-74549000D01*
X124325000Y-74390250D01*
X124325000Y-74214691D01*
X124253055Y-74041000D01*
X125095000Y-74041000D01*
X125095000Y-79121000D01*
X114935000Y-79121000D01*
X114935000Y-78304000D01*
X115060250Y-78304000D01*
X115219000Y-78145250D01*
X115219000Y-77221000D01*
X115473000Y-77221000D01*
X115473000Y-78145250D01*
X115631750Y-78304000D01*
X115822309Y-78304000D01*
X116055698Y-78207327D01*
X116234327Y-78028699D01*
X116331000Y-77795310D01*
X116331000Y-77379750D01*
X116172250Y-77221000D01*
X115473000Y-77221000D01*
X115219000Y-77221000D01*
X115199000Y-77221000D01*
X115199000Y-76967000D01*
X115219000Y-76967000D01*
X115219000Y-76947000D01*
X115473000Y-76947000D01*
X115473000Y-76967000D01*
X116172250Y-76967000D01*
X116331000Y-76808250D01*
X116331000Y-76392690D01*
X116303790Y-76327000D01*
X119888000Y-76327000D01*
X119937410Y-76316994D01*
X119979035Y-76288553D01*
X120006315Y-76246159D01*
X120015000Y-76200000D01*
X120015000Y-74961750D01*
X122055000Y-74961750D01*
X122055000Y-75137309D01*
X122151673Y-75370698D01*
X122330301Y-75549327D01*
X122563690Y-75646000D01*
X122904250Y-75646000D01*
X123063000Y-75487250D01*
X123063000Y-74803000D01*
X123317000Y-74803000D01*
X123317000Y-75487250D01*
X123475750Y-75646000D01*
X123816310Y-75646000D01*
X124049699Y-75549327D01*
X124228327Y-75370698D01*
X124325000Y-75137309D01*
X124325000Y-74961750D01*
X124166250Y-74803000D01*
X123317000Y-74803000D01*
X123063000Y-74803000D01*
X122213750Y-74803000D01*
X122055000Y-74961750D01*
X120015000Y-74961750D01*
X120015000Y-74041000D01*
X122126945Y-74041000D01*
X122055000Y-74214691D01*
G36*
X110541000Y-76392690D02*
X110541000Y-76808250D01*
X110699750Y-76967000D01*
X111399000Y-76967000D01*
X111399000Y-76947000D01*
X111653000Y-76947000D01*
X111653000Y-76967000D01*
X112669000Y-76967000D01*
X112669000Y-76947000D01*
X112923000Y-76947000D01*
X112923000Y-76967000D01*
X113949000Y-76967000D01*
X113949000Y-76947000D01*
X114203000Y-76947000D01*
X114203000Y-76967000D01*
X114223000Y-76967000D01*
X114223000Y-77221000D01*
X114203000Y-77221000D01*
X114203000Y-78145250D01*
X114361750Y-78304000D01*
X114427000Y-78304000D01*
X114427000Y-79502000D01*
X114437006Y-79551410D01*
X114465447Y-79593035D01*
X114507841Y-79620315D01*
X114554000Y-79629000D01*
X148384648Y-79629000D01*
X148333000Y-79753690D01*
X148333000Y-80994250D01*
X148491750Y-81153000D01*
X150241000Y-81153000D01*
X150241000Y-81133000D01*
X150495000Y-81133000D01*
X150495000Y-81153000D01*
X152244250Y-81153000D01*
X152403000Y-80994250D01*
X152403000Y-79753690D01*
X152351352Y-79629000D01*
X153214000Y-79629000D01*
X153214000Y-88444000D01*
X122809000Y-88444000D01*
X122809000Y-83085175D01*
X125882430Y-83085175D01*
X126005565Y-83372788D01*
X126687734Y-83632707D01*
X127417443Y-83611786D01*
X127994435Y-83372788D01*
X128117570Y-83085175D01*
X139090430Y-83085175D01*
X139213565Y-83372788D01*
X139895734Y-83632707D01*
X140625443Y-83611786D01*
X141202435Y-83372788D01*
X141325570Y-83085175D01*
X140208000Y-81967605D01*
X139090430Y-83085175D01*
X128117570Y-83085175D01*
X127000000Y-81967605D01*
X125882430Y-83085175D01*
X122809000Y-83085175D01*
X122809000Y-82296000D01*
X122798994Y-82246590D01*
X122770553Y-82204965D01*
X122728159Y-82177685D01*
X122682000Y-82169000D01*
X116388000Y-82169000D01*
X116388000Y-81979750D01*
X116229250Y-81821000D01*
X115570000Y-81821000D01*
X115570000Y-81841000D01*
X115316000Y-81841000D01*
X115316000Y-81821000D01*
X114300000Y-81821000D01*
X114300000Y-81841000D01*
X114046000Y-81841000D01*
X114046000Y-81821000D01*
X113030000Y-81821000D01*
X113030000Y-81841000D01*
X112776000Y-81841000D01*
X112776000Y-81821000D01*
X111760000Y-81821000D01*
X111760000Y-81841000D01*
X111506000Y-81841000D01*
X111506000Y-81821000D01*
X110846750Y-81821000D01*
X110688000Y-81979750D01*
X110688000Y-82169000D01*
X107569000Y-82169000D01*
X107569000Y-81092691D01*
X110688000Y-81092691D01*
X110688000Y-81408250D01*
X110846750Y-81567000D01*
X111506000Y-81567000D01*
X111506000Y-80742750D01*
X111760000Y-80742750D01*
X111760000Y-81567000D01*
X112776000Y-81567000D01*
X112776000Y-80742750D01*
X113030000Y-80742750D01*
X113030000Y-81567000D01*
X114046000Y-81567000D01*
X114046000Y-80742750D01*
X114300000Y-80742750D01*
X114300000Y-81567000D01*
X115316000Y-81567000D01*
X115316000Y-80742750D01*
X115570000Y-80742750D01*
X115570000Y-81567000D01*
X116229250Y-81567000D01*
X116320516Y-81475734D01*
X125155293Y-81475734D01*
X125176214Y-82205443D01*
X125415212Y-82782435D01*
X125702825Y-82905570D01*
X126820395Y-81788000D01*
X127179605Y-81788000D01*
X128297175Y-82905570D01*
X128584788Y-82782435D01*
X128844707Y-82100266D01*
X128826802Y-81475734D01*
X138363293Y-81475734D01*
X138384214Y-82205443D01*
X138623212Y-82782435D01*
X138910825Y-82905570D01*
X140028395Y-81788000D01*
X140387605Y-81788000D01*
X141505175Y-82905570D01*
X141792788Y-82782435D01*
X142052707Y-82100266D01*
X142037383Y-81565750D01*
X148333000Y-81565750D01*
X148333000Y-82806310D01*
X148429673Y-83039699D01*
X148608302Y-83218327D01*
X148841691Y-83315000D01*
X150082250Y-83315000D01*
X150241000Y-83156250D01*
X150241000Y-81407000D01*
X150495000Y-81407000D01*
X150495000Y-83156250D01*
X150653750Y-83315000D01*
X151894309Y-83315000D01*
X152127698Y-83218327D01*
X152306327Y-83039699D01*
X152403000Y-82806310D01*
X152403000Y-81565750D01*
X152244250Y-81407000D01*
X150495000Y-81407000D01*
X150241000Y-81407000D01*
X148491750Y-81407000D01*
X148333000Y-81565750D01*
X142037383Y-81565750D01*
X142031786Y-81370557D01*
X141792788Y-80793565D01*
X141505175Y-80670430D01*
X140387605Y-81788000D01*
X140028395Y-81788000D01*
X138910825Y-80670430D01*
X138623212Y-80793565D01*
X138363293Y-81475734D01*
X128826802Y-81475734D01*
X128823786Y-81370557D01*
X128584788Y-80793565D01*
X128297175Y-80670430D01*
X127179605Y-81788000D01*
X126820395Y-81788000D01*
X125702825Y-80670430D01*
X125415212Y-80793565D01*
X125155293Y-81475734D01*
X116320516Y-81475734D01*
X116388000Y-81408250D01*
X116388000Y-81092691D01*
X116291327Y-80859302D01*
X116112699Y-80680673D01*
X115879310Y-80584000D01*
X115728750Y-80584000D01*
X115570000Y-80742750D01*
X115316000Y-80742750D01*
X115157250Y-80584000D01*
X115006690Y-80584000D01*
X114808000Y-80666300D01*
X114609310Y-80584000D01*
X114458750Y-80584000D01*
X114300000Y-80742750D01*
X114046000Y-80742750D01*
X113887250Y-80584000D01*
X113736690Y-80584000D01*
X113538000Y-80666300D01*
X113339310Y-80584000D01*
X113188750Y-80584000D01*
X113030000Y-80742750D01*
X112776000Y-80742750D01*
X112617250Y-80584000D01*
X112466690Y-80584000D01*
X112268000Y-80666300D01*
X112069310Y-80584000D01*
X111918750Y-80584000D01*
X111760000Y-80742750D01*
X111506000Y-80742750D01*
X111347250Y-80584000D01*
X111196690Y-80584000D01*
X110963301Y-80680673D01*
X110784673Y-80859302D01*
X110688000Y-81092691D01*
X107569000Y-81092691D01*
X107569000Y-80490825D01*
X125882430Y-80490825D01*
X127000000Y-81608395D01*
X128117570Y-80490825D01*
X139090430Y-80490825D01*
X140208000Y-81608395D01*
X141325570Y-80490825D01*
X141202435Y-80203212D01*
X140520266Y-79943293D01*
X139790557Y-79964214D01*
X139213565Y-80203212D01*
X139090430Y-80490825D01*
X128117570Y-80490825D01*
X127994435Y-80203212D01*
X127312266Y-79943293D01*
X126582557Y-79964214D01*
X126005565Y-80203212D01*
X125882430Y-80490825D01*
X107569000Y-80490825D01*
X107569000Y-77379750D01*
X110541000Y-77379750D01*
X110541000Y-77795310D01*
X110637673Y-78028699D01*
X110816302Y-78207327D01*
X111049691Y-78304000D01*
X111240250Y-78304000D01*
X111399000Y-78145250D01*
X111399000Y-77221000D01*
X111653000Y-77221000D01*
X111653000Y-78145250D01*
X111811750Y-78304000D01*
X112002309Y-78304000D01*
X112161000Y-78238268D01*
X112319691Y-78304000D01*
X112510250Y-78304000D01*
X112669000Y-78145250D01*
X112669000Y-77221000D01*
X112923000Y-77221000D01*
X112923000Y-78145250D01*
X113081750Y-78304000D01*
X113272309Y-78304000D01*
X113436000Y-78236197D01*
X113599691Y-78304000D01*
X113790250Y-78304000D01*
X113949000Y-78145250D01*
X113949000Y-77221000D01*
X112923000Y-77221000D01*
X112669000Y-77221000D01*
X111653000Y-77221000D01*
X111399000Y-77221000D01*
X110699750Y-77221000D01*
X110541000Y-77379750D01*
X107569000Y-77379750D01*
X107569000Y-76327000D01*
X110568210Y-76327000D01*
X110541000Y-76392690D01*
X110541000Y-76392690D01*
G37*
X110541000Y-76392690D02*
X110541000Y-76808250D01*
X110699750Y-76967000D01*
X111399000Y-76967000D01*
X111399000Y-76947000D01*
X111653000Y-76947000D01*
X111653000Y-76967000D01*
X112669000Y-76967000D01*
X112669000Y-76947000D01*
X112923000Y-76947000D01*
X112923000Y-76967000D01*
X113949000Y-76967000D01*
X113949000Y-76947000D01*
X114203000Y-76947000D01*
X114203000Y-76967000D01*
X114223000Y-76967000D01*
X114223000Y-77221000D01*
X114203000Y-77221000D01*
X114203000Y-78145250D01*
X114361750Y-78304000D01*
X114427000Y-78304000D01*
X114427000Y-79502000D01*
X114437006Y-79551410D01*
X114465447Y-79593035D01*
X114507841Y-79620315D01*
X114554000Y-79629000D01*
X148384648Y-79629000D01*
X148333000Y-79753690D01*
X148333000Y-80994250D01*
X148491750Y-81153000D01*
X150241000Y-81153000D01*
X150241000Y-81133000D01*
X150495000Y-81133000D01*
X150495000Y-81153000D01*
X152244250Y-81153000D01*
X152403000Y-80994250D01*
X152403000Y-79753690D01*
X152351352Y-79629000D01*
X153214000Y-79629000D01*
X153214000Y-88444000D01*
X122809000Y-88444000D01*
X122809000Y-83085175D01*
X125882430Y-83085175D01*
X126005565Y-83372788D01*
X126687734Y-83632707D01*
X127417443Y-83611786D01*
X127994435Y-83372788D01*
X128117570Y-83085175D01*
X139090430Y-83085175D01*
X139213565Y-83372788D01*
X139895734Y-83632707D01*
X140625443Y-83611786D01*
X141202435Y-83372788D01*
X141325570Y-83085175D01*
X140208000Y-81967605D01*
X139090430Y-83085175D01*
X128117570Y-83085175D01*
X127000000Y-81967605D01*
X125882430Y-83085175D01*
X122809000Y-83085175D01*
X122809000Y-82296000D01*
X122798994Y-82246590D01*
X122770553Y-82204965D01*
X122728159Y-82177685D01*
X122682000Y-82169000D01*
X116388000Y-82169000D01*
X116388000Y-81979750D01*
X116229250Y-81821000D01*
X115570000Y-81821000D01*
X115570000Y-81841000D01*
X115316000Y-81841000D01*
X115316000Y-81821000D01*
X114300000Y-81821000D01*
X114300000Y-81841000D01*
X114046000Y-81841000D01*
X114046000Y-81821000D01*
X113030000Y-81821000D01*
X113030000Y-81841000D01*
X112776000Y-81841000D01*
X112776000Y-81821000D01*
X111760000Y-81821000D01*
X111760000Y-81841000D01*
X111506000Y-81841000D01*
X111506000Y-81821000D01*
X110846750Y-81821000D01*
X110688000Y-81979750D01*
X110688000Y-82169000D01*
X107569000Y-82169000D01*
X107569000Y-81092691D01*
X110688000Y-81092691D01*
X110688000Y-81408250D01*
X110846750Y-81567000D01*
X111506000Y-81567000D01*
X111506000Y-80742750D01*
X111760000Y-80742750D01*
X111760000Y-81567000D01*
X112776000Y-81567000D01*
X112776000Y-80742750D01*
X113030000Y-80742750D01*
X113030000Y-81567000D01*
X114046000Y-81567000D01*
X114046000Y-80742750D01*
X114300000Y-80742750D01*
X114300000Y-81567000D01*
X115316000Y-81567000D01*
X115316000Y-80742750D01*
X115570000Y-80742750D01*
X115570000Y-81567000D01*
X116229250Y-81567000D01*
X116320516Y-81475734D01*
X125155293Y-81475734D01*
X125176214Y-82205443D01*
X125415212Y-82782435D01*
X125702825Y-82905570D01*
X126820395Y-81788000D01*
X127179605Y-81788000D01*
X128297175Y-82905570D01*
X128584788Y-82782435D01*
X128844707Y-82100266D01*
X128826802Y-81475734D01*
X138363293Y-81475734D01*
X138384214Y-82205443D01*
X138623212Y-82782435D01*
X138910825Y-82905570D01*
X140028395Y-81788000D01*
X140387605Y-81788000D01*
X141505175Y-82905570D01*
X141792788Y-82782435D01*
X142052707Y-82100266D01*
X142037383Y-81565750D01*
X148333000Y-81565750D01*
X148333000Y-82806310D01*
X148429673Y-83039699D01*
X148608302Y-83218327D01*
X148841691Y-83315000D01*
X150082250Y-83315000D01*
X150241000Y-83156250D01*
X150241000Y-81407000D01*
X150495000Y-81407000D01*
X150495000Y-83156250D01*
X150653750Y-83315000D01*
X151894309Y-83315000D01*
X152127698Y-83218327D01*
X152306327Y-83039699D01*
X152403000Y-82806310D01*
X152403000Y-81565750D01*
X152244250Y-81407000D01*
X150495000Y-81407000D01*
X150241000Y-81407000D01*
X148491750Y-81407000D01*
X148333000Y-81565750D01*
X142037383Y-81565750D01*
X142031786Y-81370557D01*
X141792788Y-80793565D01*
X141505175Y-80670430D01*
X140387605Y-81788000D01*
X140028395Y-81788000D01*
X138910825Y-80670430D01*
X138623212Y-80793565D01*
X138363293Y-81475734D01*
X128826802Y-81475734D01*
X128823786Y-81370557D01*
X128584788Y-80793565D01*
X128297175Y-80670430D01*
X127179605Y-81788000D01*
X126820395Y-81788000D01*
X125702825Y-80670430D01*
X125415212Y-80793565D01*
X125155293Y-81475734D01*
X116320516Y-81475734D01*
X116388000Y-81408250D01*
X116388000Y-81092691D01*
X116291327Y-80859302D01*
X116112699Y-80680673D01*
X115879310Y-80584000D01*
X115728750Y-80584000D01*
X115570000Y-80742750D01*
X115316000Y-80742750D01*
X115157250Y-80584000D01*
X115006690Y-80584000D01*
X114808000Y-80666300D01*
X114609310Y-80584000D01*
X114458750Y-80584000D01*
X114300000Y-80742750D01*
X114046000Y-80742750D01*
X113887250Y-80584000D01*
X113736690Y-80584000D01*
X113538000Y-80666300D01*
X113339310Y-80584000D01*
X113188750Y-80584000D01*
X113030000Y-80742750D01*
X112776000Y-80742750D01*
X112617250Y-80584000D01*
X112466690Y-80584000D01*
X112268000Y-80666300D01*
X112069310Y-80584000D01*
X111918750Y-80584000D01*
X111760000Y-80742750D01*
X111506000Y-80742750D01*
X111347250Y-80584000D01*
X111196690Y-80584000D01*
X110963301Y-80680673D01*
X110784673Y-80859302D01*
X110688000Y-81092691D01*
X107569000Y-81092691D01*
X107569000Y-80490825D01*
X125882430Y-80490825D01*
X127000000Y-81608395D01*
X128117570Y-80490825D01*
X139090430Y-80490825D01*
X140208000Y-81608395D01*
X141325570Y-80490825D01*
X141202435Y-80203212D01*
X140520266Y-79943293D01*
X139790557Y-79964214D01*
X139213565Y-80203212D01*
X139090430Y-80490825D01*
X128117570Y-80490825D01*
X127994435Y-80203212D01*
X127312266Y-79943293D01*
X126582557Y-79964214D01*
X126005565Y-80203212D01*
X125882430Y-80490825D01*
X107569000Y-80490825D01*
X107569000Y-77379750D01*
X110541000Y-77379750D01*
X110541000Y-77795310D01*
X110637673Y-78028699D01*
X110816302Y-78207327D01*
X111049691Y-78304000D01*
X111240250Y-78304000D01*
X111399000Y-78145250D01*
X111399000Y-77221000D01*
X111653000Y-77221000D01*
X111653000Y-78145250D01*
X111811750Y-78304000D01*
X112002309Y-78304000D01*
X112161000Y-78238268D01*
X112319691Y-78304000D01*
X112510250Y-78304000D01*
X112669000Y-78145250D01*
X112669000Y-77221000D01*
X112923000Y-77221000D01*
X112923000Y-78145250D01*
X113081750Y-78304000D01*
X113272309Y-78304000D01*
X113436000Y-78236197D01*
X113599691Y-78304000D01*
X113790250Y-78304000D01*
X113949000Y-78145250D01*
X113949000Y-77221000D01*
X112923000Y-77221000D01*
X112669000Y-77221000D01*
X111653000Y-77221000D01*
X111399000Y-77221000D01*
X110699750Y-77221000D01*
X110541000Y-77379750D01*
X107569000Y-77379750D01*
X107569000Y-76327000D01*
X110568210Y-76327000D01*
X110541000Y-76392690D01*
M02*
