  0
SECTION
  2
HEADER
  9
$ANGBASE
  50
0.0
  9
$ANGDIR
  70
  1
  9
$MEASUREMENT
  70
0
  0
ENDSEC
  0
SECTION
  2
TABLES
  0
TABLE
  2
LTYPE
  70
4
  0
LTYPE
  5
40F
  2
CONTINUOUS
  70
0
  3
Solid line
  72
65
  73
0
  40
0.0
  0
LTYPE
  5
410
  2
DASHDOT
 70
0
  3
Dash Dot ____ _ ____ _
 72
65
 73
4
 40
2.0
 49
1.25
 49
-0.25
 49
0.25
 49
-0.25
  0
LTYPE
  5
411
  2
DASHED
 70
0
  3
Dashed __ __ __ __ __
 72
65
 73
2
 40
0.75
 49
0.5
 49
-0.25
  0
LTYPE
  5
43B
  2
DOTTED
 70
0
  3
Dotted .  .  .  .
 72
65
 73
2
 40
0.2
 49
0.0
 49
-0.2
  0
ENDTAB
  0
TABLE
  2
STYLE
  70
4
  0
STYLE
  2
KICAD
  70
0
  40
0
  41
1
  42
1
  50
0
  71
0
  3
isocp.shx
  0
STYLE
  2
KICADB
  70
0
  40
0
  41
1
  42
1
  50
0
  71
0
  3
isocp.shx
  0
STYLE
  2
KICADI
  70
0
  40
0
  41
1
  42
1
  50
15
  71
0
  3
isocp.shx
  0
STYLE
  2
KICADBI
  70
0
  40
0
  41
1
  42
1
  50
15
  71
0
  3
isocp.shx
  0
ENDTAB
  0
TABLE
  2
LAYER
  70
30
  0
LAYER
  2
BLACK
  70
0
  62
7
  6
CONTINUOUS
  0
LAYER
  2
GRAY1
  70
0
  62
251
  6
CONTINUOUS
  0
LAYER
  2
GRAY2
  70
0
  62
8
  6
CONTINUOUS
  0
LAYER
  2
GRAY3
  70
0
  62
9
  6
CONTINUOUS
  0
LAYER
  2
WHITE
  70
0
  62
7
  6
CONTINUOUS
  0
LAYER
  2
LYELLOW
  70
0
  62
51
  6
CONTINUOUS
  0
LAYER
  2
BLUE1
  70
0
  62
178
  6
CONTINUOUS
  0
LAYER
  2
GREEN1
  70
0
  62
98
  6
CONTINUOUS
  0
LAYER
  2
CYAN1
  70
0
  62
138
  6
CONTINUOUS
  0
LAYER
  2
RED1
  70
0
  62
18
  6
CONTINUOUS
  0
LAYER
  2
MAGENTA1
  70
0
  62
228
  6
CONTINUOUS
  0
LAYER
  2
BROWN1
  70
0
  62
58
  6
CONTINUOUS
  0
LAYER
  2
BLUE2
  70
0
  62
5
  6
CONTINUOUS
  0
LAYER
  2
GREEN2
  70
0
  62
3
  6
CONTINUOUS
  0
LAYER
  2
CYAN2
  70
0
  62
4
  6
CONTINUOUS
  0
LAYER
  2
RED2
  70
0
  62
1
  6
CONTINUOUS
  0
LAYER
  2
MAGENTA2
  70
0
  62
6
  6
CONTINUOUS
  0
LAYER
  2
BROWN2
  70
0
  62
54
  6
CONTINUOUS
  0
LAYER
  2
BLUE3
  70
0
  62
171
  6
CONTINUOUS
  0
LAYER
  2
GREEN3
  70
0
  62
91
  6
CONTINUOUS
  0
LAYER
  2
CYAN3
  70
0
  62
131
  6
CONTINUOUS
  0
LAYER
  2
RED3
  70
0
  62
11
  6
CONTINUOUS
  0
LAYER
  2
MAGENTA3
  70
0
  62
221
  6
CONTINUOUS
  0
LAYER
  2
YELLOW3
  70
0
  62
2
  6
CONTINUOUS
  0
LAYER
  2
BLUE4
  70
0
  62
5
  6
CONTINUOUS
  0
LAYER
  2
GREEN4
  70
0
  62
3
  6
CONTINUOUS
  0
LAYER
  2
CYAN4
  70
0
  62
4
  6
CONTINUOUS
  0
LAYER
  2
RED4
  70
0
  62
1
  6
CONTINUOUS
  0
LAYER
  2
MAGENTA4
  70
0
  62
6
  6
CONTINUOUS
  0
LAYER
  2
YELLOW4
  70
0
  62
2
  6
CONTINUOUS
  0
ENDTAB
  0
ENDSEC
  0
SECTION
  2
ENTITIES
0
LINE
8
BLACK
6
CONTINUOUS
10
148.596
20
-57.2037
11
148.597
21
-57.2037
0
LINE
8
BLACK
6
CONTINUOUS
10
148.597
20
-57.2037
11
151.594
21
-57.2871
0
LINE
8
BLACK
6
CONTINUOUS
10
151.594
20
-57.2871
11
151.597
21
-57.2873
0
LINE
8
BLACK
6
CONTINUOUS
10
151.597
20
-57.2873
11
154.586
21
-57.5275
0
LINE
8
BLACK
6
CONTINUOUS
10
154.586
20
-57.5275
11
154.588
21
-57.5277
0
LINE
8
BLACK
6
CONTINUOUS
10
154.588
20
-57.5277
11
157.561
21
-57.924
0
LINE
8
BLACK
6
CONTINUOUS
10
157.561
20
-57.924
11
157.563
21
-57.9244
0
LINE
8
BLACK
6
CONTINUOUS
10
157.563
20
-57.9244
11
160.511
21
-58.4757
0
LINE
8
BLACK
6
CONTINUOUS
10
160.511
20
-58.4757
11
160.513
21
-58.4763
0
LINE
8
BLACK
6
CONTINUOUS
10
160.513
20
-58.4763
11
163.428
21
-59.1811
0
LINE
8
BLACK
6
CONTINUOUS
10
163.428
20
-59.1811
11
163.43
21
-59.1818
0
LINE
8
BLACK
6
CONTINUOUS
10
163.43
20
-59.1818
11
166.304
21
-60.0381
0
LINE
8
BLACK
6
CONTINUOUS
10
166.304
20
-60.0381
11
166.305
21
-60.0385
0
LINE
8
BLACK
6
CONTINUOUS
10
166.305
20
-60.0385
11
166.306
21
-60.039
0
LINE
8
BLACK
6
CONTINUOUS
10
166.306
20
-60.039
11
169.131
21
-61.0445
0
LINE
8
BLACK
6
CONTINUOUS
10
169.131
20
-61.0445
11
169.134
21
-61.0454
0
LINE
8
BLACK
6
CONTINUOUS
10
169.134
20
-61.0454
11
169.134
21
-61.0455
0
LINE
8
BLACK
6
CONTINUOUS
10
169.134
20
-61.0455
11
171.902
21
-62.1975
0
LINE
8
BLACK
6
CONTINUOUS
10
171.902
20
-62.1975
11
171.903
21
-62.1979
0
LINE
8
BLACK
6
CONTINUOUS
10
171.903
20
-62.1979
11
171.905
21
-62.1986
0
LINE
8
BLACK
6
CONTINUOUS
10
171.905
20
-62.1986
11
174.609
21
-63.494
0
LINE
8
BLACK
6
CONTINUOUS
10
174.609
20
-63.494
11
174.611
21
-63.4952
0
LINE
8
BLACK
6
CONTINUOUS
10
174.611
20
-63.4952
11
174.611
21
-63.4952
0
LINE
8
BLACK
6
CONTINUOUS
10
174.611
20
-63.4952
11
177.244
21
-64.9303
0
LINE
8
BLACK
6
CONTINUOUS
10
177.244
20
-64.9303
11
177.245
21
-64.9308
0
LINE
8
BLACK
6
CONTINUOUS
10
177.245
20
-64.9308
11
177.246
21
-64.9316
0
LINE
8
BLACK
6
CONTINUOUS
10
177.246
20
-64.9316
11
179.8
21
-66.5026
0
LINE
8
BLACK
6
CONTINUOUS
10
179.8
20
-66.5026
11
179.803
21
-66.504
0
LINE
8
BLACK
6
CONTINUOUS
10
179.803
20
-66.504
11
182.271
21
-68.2064
0
LINE
8
BLACK
6
CONTINUOUS
10
182.271
20
-68.2064
11
182.273
21
-68.208
0
LINE
8
BLACK
6
CONTINUOUS
10
182.273
20
-68.208
11
184.649
21
-70.0373
0
LINE
8
BLACK
6
CONTINUOUS
10
184.649
20
-70.0373
11
184.65
21
-70.0382
0
LINE
8
BLACK
6
CONTINUOUS
10
184.65
20
-70.0382
11
184.651
21
-70.0389
0
LINE
8
BLACK
6
CONTINUOUS
10
184.651
20
-70.0389
11
186.788
21
-71.8638
0
LINE
8
BLACK
6
CONTINUOUS
10
186.788
20
-71.8638
11
186.789
21
-71.8655
0
LINE
8
BLACK
6
CONTINUOUS
10
186.789
20
-71.8655
11
186.791
21
-71.8674
0
LINE
8
BLACK
6
CONTINUOUS
10
186.791
20
-71.8674
11
186.792
21
-71.8686
0
LINE
8
BLACK
6
CONTINUOUS
10
186.792
20
-71.8686
11
186.793
21
-71.8687
0
LINE
8
BLACK
6
CONTINUOUS
10
186.793
20
-71.8687
11
187.252
21
-72.3895
0
LINE
8
BLACK
6
CONTINUOUS
10
187.252
20
-72.3895
11
187.256
21
-72.3944
0
LINE
8
BLACK
6
CONTINUOUS
10
187.256
20
-72.3944
11
187.258
21
-72.3968
0
LINE
8
BLACK
6
CONTINUOUS
10
187.258
20
-72.3968
11
187.259
21
-72.399
0
LINE
8
BLACK
6
CONTINUOUS
10
187.259
20
-72.399
11
187.587
21
-73.0117
0
LINE
8
BLACK
6
CONTINUOUS
10
187.587
20
-73.0117
11
187.589
21
-73.0173
0
LINE
8
BLACK
6
CONTINUOUS
10
187.589
20
-73.0173
11
187.59
21
-73.02
0
LINE
8
BLACK
6
CONTINUOUS
10
187.59
20
-73.02
11
187.591
21
-73.0225
0
LINE
8
BLACK
6
CONTINUOUS
10
187.591
20
-73.0225
11
187.769
21
-73.6941
0
LINE
8
BLACK
6
CONTINUOUS
10
187.769
20
-73.6941
11
187.77
21
-73.7002
0
LINE
8
BLACK
6
CONTINUOUS
10
187.77
20
-73.7002
11
187.77
21
-73.7029
0
LINE
8
BLACK
6
CONTINUOUS
10
187.77
20
-73.7029
11
187.771
21
-73.7056
0
LINE
8
BLACK
6
CONTINUOUS
10
187.771
20
-73.7056
11
187.789
21
-74.4001
0
LINE
8
BLACK
6
CONTINUOUS
10
187.789
20
-74.4001
11
187.789
21
-74.4063
0
LINE
8
BLACK
6
CONTINUOUS
10
187.789
20
-74.4063
11
187.789
21
-74.409
0
LINE
8
BLACK
6
CONTINUOUS
10
187.789
20
-74.409
11
187.788
21
-74.4117
0
LINE
8
BLACK
6
CONTINUOUS
10
187.788
20
-74.4117
11
187.647
21
-75.0919
0
LINE
8
BLACK
6
CONTINUOUS
10
187.647
20
-75.0919
11
187.645
21
-75.0979
0
LINE
8
BLACK
6
CONTINUOUS
10
187.645
20
-75.0979
11
187.644
21
-75.1003
0
LINE
8
BLACK
6
CONTINUOUS
10
187.644
20
-75.1003
11
187.643
21
-75.1029
0
LINE
8
BLACK
6
CONTINUOUS
10
187.643
20
-75.1029
11
187.349
21
-75.7324
0
LINE
8
BLACK
6
CONTINUOUS
10
187.349
20
-75.7324
11
187.346
21
-75.7378
0
LINE
8
BLACK
6
CONTINUOUS
10
187.346
20
-75.7378
11
187.344
21
-75.7398
0
LINE
8
BLACK
6
CONTINUOUS
10
187.344
20
-75.7398
11
187.343
21
-75.742
0
LINE
8
BLACK
6
CONTINUOUS
10
187.343
20
-75.742
11
186.932
21
-76.267
0
LINE
8
BLACK
6
CONTINUOUS
10
186.932
20
-76.267
11
186.93
21
-76.2687
0
LINE
8
BLACK
6
CONTINUOUS
10
186.93
20
-76.2687
11
186.929
21
-76.2701
0
LINE
8
BLACK
6
CONTINUOUS
10
186.929
20
-76.2701
11
186.604
21
-76.62
0
LINE
8
BLACK
6
CONTINUOUS
10
186.604
20
-76.62
11
185.897
21
-77.5451
0
LINE
8
BLACK
6
CONTINUOUS
10
185.897
20
-77.5451
11
185.323
21
-78.5566
0
LINE
8
BLACK
6
CONTINUOUS
10
185.323
20
-78.5566
11
184.892
21
-79.6367
0
LINE
8
BLACK
6
CONTINUOUS
10
184.892
20
-79.6367
11
184.611
21
-80.7653
0
LINE
8
BLACK
6
CONTINUOUS
10
184.611
20
-80.7653
11
184.486
21
-81.9216
0
LINE
8
BLACK
6
CONTINUOUS
10
184.486
20
-81.9216
11
184.519
21
-83.0842
0
LINE
8
BLACK
6
CONTINUOUS
10
184.519
20
-83.0842
11
184.71
21
-84.2315
0
LINE
8
BLACK
6
CONTINUOUS
10
184.71
20
-84.2315
11
185.054
21
-85.3424
0
LINE
8
BLACK
6
CONTINUOUS
10
185.054
20
-85.3424
11
185.546
21
-86.3963
0
LINE
8
BLACK
6
CONTINUOUS
10
185.546
20
-86.3963
11
186.177
21
-87.3736
0
LINE
8
BLACK
6
CONTINUOUS
10
186.177
20
-87.3736
11
186.934
21
-88.2563
0
LINE
8
BLACK
6
CONTINUOUS
10
186.934
20
-88.2563
11
187.804
21
-89.0281
0
LINE
8
BLACK
6
CONTINUOUS
10
187.804
20
-89.0281
11
188.771
21
-89.6746
0
LINE
8
BLACK
6
CONTINUOUS
10
188.771
20
-89.6746
11
189.816
21
-90.184
0
LINE
8
BLACK
6
CONTINUOUS
10
189.816
20
-90.184
11
190.925
21
-90.5478
0
LINE
8
BLACK
6
CONTINUOUS
10
190.925
20
-90.5478
11
190.925
21
-90.5479
0
LINE
8
BLACK
6
CONTINUOUS
10
190.925
20
-90.5479
11
190.926
21
-90.5484
0
LINE
8
BLACK
6
CONTINUOUS
10
190.926
20
-90.5484
11
190.927
21
-90.5486
0
LINE
8
BLACK
6
CONTINUOUS
10
190.927
20
-90.5486
11
191.576
21
-90.7967
0
LINE
8
BLACK
6
CONTINUOUS
10
191.576
20
-90.7967
11
191.582
21
-90.7993
0
LINE
8
BLACK
6
CONTINUOUS
10
191.582
20
-90.7993
11
191.584
21
-90.8008
0
LINE
8
BLACK
6
CONTINUOUS
10
191.584
20
-90.8008
11
191.586
21
-90.8021
0
LINE
8
BLACK
6
CONTINUOUS
10
191.586
20
-90.8021
11
192.161
21
-91.1928
0
LINE
8
BLACK
6
CONTINUOUS
10
192.161
20
-91.1928
11
192.166
21
-91.1966
0
LINE
8
BLACK
6
CONTINUOUS
10
192.166
20
-91.1966
11
192.167
21
-91.1986
0
LINE
8
BLACK
6
CONTINUOUS
10
192.167
20
-91.1986
11
192.169
21
-91.2004
0
LINE
8
BLACK
6
CONTINUOUS
10
192.169
20
-91.2004
11
192.639
21
-91.7129
0
LINE
8
BLACK
6
CONTINUOUS
10
192.639
20
-91.7129
11
192.643
21
-91.7177
0
LINE
8
BLACK
6
CONTINUOUS
10
192.643
20
-91.7177
11
192.644
21
-91.7201
0
LINE
8
BLACK
6
CONTINUOUS
10
192.644
20
-91.7201
11
192.645
21
-91.7223
0
LINE
8
BLACK
6
CONTINUOUS
10
192.645
20
-91.7223
11
192.984
21
-92.3289
0
LINE
8
BLACK
6
CONTINUOUS
10
192.984
20
-92.3289
11
192.987
21
-92.3345
0
LINE
8
BLACK
6
CONTINUOUS
10
192.987
20
-92.3345
11
192.988
21
-92.3371
0
LINE
8
BLACK
6
CONTINUOUS
10
192.988
20
-92.3371
11
192.989
21
-92.3396
0
LINE
8
BLACK
6
CONTINUOUS
10
192.989
20
-92.3396
11
193.179
21
-93.0079
0
LINE
8
BLACK
6
CONTINUOUS
10
193.179
20
-93.0079
11
193.18
21
-93.014
0
LINE
8
BLACK
6
CONTINUOUS
10
193.18
20
-93.014
11
193.18
21
-93.0158
0
LINE
8
BLACK
6
CONTINUOUS
10
193.18
20
-93.0158
11
193.18
21
-93.0176
0
LINE
8
BLACK
6
CONTINUOUS
10
193.18
20
-93.0176
11
193.219
21
-93.4963
0
LINE
8
BLACK
6
CONTINUOUS
10
193.219
20
-93.4963
11
193.219
21
-93.4983
0
LINE
8
BLACK
6
CONTINUOUS
10
193.219
20
-93.4983
11
193.219
21
-116.605
0
LINE
8
BLACK
6
CONTINUOUS
10
193.219
20
-116.605
11
193.219
21
-116.608
0
LINE
8
BLACK
6
CONTINUOUS
10
193.219
20
-116.608
11
193.139
21
-117.297
0
LINE
8
BLACK
6
CONTINUOUS
10
193.139
20
-117.297
11
193.138
21
-117.303
0
LINE
8
BLACK
6
CONTINUOUS
10
193.138
20
-117.303
11
193.137
21
-117.305
0
LINE
8
BLACK
6
CONTINUOUS
10
193.137
20
-117.305
11
193.136
21
-117.308
0
LINE
8
BLACK
6
CONTINUOUS
10
193.136
20
-117.308
11
192.899
21
-117.961
0
LINE
8
BLACK
6
CONTINUOUS
10
192.899
20
-117.961
11
192.896
21
-117.967
0
LINE
8
BLACK
6
CONTINUOUS
10
192.896
20
-117.967
11
192.895
21
-117.969
0
LINE
8
BLACK
6
CONTINUOUS
10
192.895
20
-117.969
11
192.894
21
-117.971
0
LINE
8
BLACK
6
CONTINUOUS
10
192.894
20
-117.971
11
192.513
21
-118.552
0
LINE
8
BLACK
6
CONTINUOUS
10
192.513
20
-118.552
11
192.509
21
-118.557
0
LINE
8
BLACK
6
CONTINUOUS
10
192.509
20
-118.557
11
192.507
21
-118.559
0
LINE
8
BLACK
6
CONTINUOUS
10
192.507
20
-118.559
11
192.505
21
-118.561
0
LINE
8
BLACK
6
CONTINUOUS
10
192.505
20
-118.561
11
192.001
21
-119.039
0
LINE
8
BLACK
6
CONTINUOUS
10
192.001
20
-119.039
11
191.996
21
-119.043
0
LINE
8
BLACK
6
CONTINUOUS
10
191.996
20
-119.043
11
191.994
21
-119.044
0
LINE
8
BLACK
6
CONTINUOUS
10
191.994
20
-119.044
11
191.992
21
-119.046
0
LINE
8
BLACK
6
CONTINUOUS
10
191.992
20
-119.046
11
191.391
21
-119.395
0
LINE
8
BLACK
6
CONTINUOUS
10
191.391
20
-119.395
11
191.385
21
-119.398
0
LINE
8
BLACK
6
CONTINUOUS
10
191.385
20
-119.398
11
191.383
21
-119.398
0
LINE
8
BLACK
6
CONTINUOUS
10
191.383
20
-119.398
11
191.382
21
-119.399
0
LINE
8
BLACK
6
CONTINUOUS
10
191.382
20
-119.399
11
190.911
21
-119.559
0
LINE
8
BLACK
6
CONTINUOUS
10
190.911
20
-119.559
11
190.909
21
-119.559
0
LINE
8
BLACK
6
CONTINUOUS
10
190.909
20
-119.559
11
190.908
21
-119.56
0
LINE
8
BLACK
6
CONTINUOUS
10
190.908
20
-119.56
11
190.376
21
-119.711
0
LINE
8
BLACK
6
CONTINUOUS
10
190.376
20
-119.711
11
189.293
21
-120.139
0
LINE
8
BLACK
6
CONTINUOUS
10
189.293
20
-120.139
11
188.28
21
-120.71
0
LINE
8
BLACK
6
CONTINUOUS
10
188.28
20
-120.71
11
187.353
21
-121.413
0
LINE
8
BLACK
6
CONTINUOUS
10
187.353
20
-121.413
11
186.531
21
-122.235
0
LINE
8
BLACK
6
CONTINUOUS
10
186.531
20
-122.235
11
185.828
21
-123.161
0
LINE
8
BLACK
6
CONTINUOUS
10
185.828
20
-123.161
11
185.256
21
-124.175
0
LINE
8
BLACK
6
CONTINUOUS
10
185.256
20
-124.175
11
184.828
21
-125.256
0
LINE
8
BLACK
6
CONTINUOUS
10
184.828
20
-125.256
11
184.55
21
-126.385
0
LINE
8
BLACK
6
CONTINUOUS
10
184.55
20
-126.385
11
184.429
21
-127.542
0
LINE
8
BLACK
6
CONTINUOUS
10
184.429
20
-127.542
11
184.465
21
-128.705
0
LINE
8
BLACK
6
CONTINUOUS
10
184.465
20
-128.705
11
184.659
21
-129.851
0
LINE
8
BLACK
6
CONTINUOUS
10
184.659
20
-129.851
11
185.006
21
-130.961
0
LINE
8
BLACK
6
CONTINUOUS
10
185.006
20
-130.961
11
185.501
21
-132.014
0
LINE
8
BLACK
6
CONTINUOUS
10
185.501
20
-132.014
11
186.135
21
-132.989
0
LINE
8
BLACK
6
CONTINUOUS
10
186.135
20
-132.989
11
186.897
21
-133.872
0
LINE
8
BLACK
6
CONTINUOUS
10
186.897
20
-133.872
11
186.897
21
-133.873
0
LINE
8
BLACK
6
CONTINUOUS
10
186.897
20
-133.873
11
186.898
21
-133.874
0
LINE
8
BLACK
6
CONTINUOUS
10
186.898
20
-133.874
11
186.898
21
-133.874
0
LINE
8
BLACK
6
CONTINUOUS
10
186.898
20
-133.874
11
187.326
21
-134.421
0
LINE
8
BLACK
6
CONTINUOUS
10
187.326
20
-134.421
11
187.33
21
-134.426
0
LINE
8
BLACK
6
CONTINUOUS
10
187.33
20
-134.426
11
187.331
21
-134.429
0
LINE
8
BLACK
6
CONTINUOUS
10
187.331
20
-134.429
11
187.333
21
-134.431
0
LINE
8
BLACK
6
CONTINUOUS
10
187.333
20
-134.431
11
187.623
21
-135.062
0
LINE
8
BLACK
6
CONTINUOUS
10
187.623
20
-135.062
11
187.626
21
-135.068
0
LINE
8
BLACK
6
CONTINUOUS
10
187.626
20
-135.068
11
187.626
21
-135.071
0
LINE
8
BLACK
6
CONTINUOUS
10
187.626
20
-135.071
11
187.627
21
-135.073
0
LINE
8
BLACK
6
CONTINUOUS
10
187.627
20
-135.073
11
187.765
21
-135.754
0
LINE
8
BLACK
6
CONTINUOUS
10
187.765
20
-135.754
11
187.766
21
-135.76
0
LINE
8
BLACK
6
CONTINUOUS
10
187.766
20
-135.76
11
187.765
21
-135.763
0
LINE
8
BLACK
6
CONTINUOUS
10
187.765
20
-135.763
11
187.766
21
-135.766
0
LINE
8
BLACK
6
CONTINUOUS
10
187.766
20
-135.766
11
187.743
21
-136.46
0
LINE
8
BLACK
6
CONTINUOUS
10
187.743
20
-136.46
11
187.743
21
-136.466
0
LINE
8
BLACK
6
CONTINUOUS
10
187.743
20
-136.466
11
187.742
21
-136.469
0
LINE
8
BLACK
6
CONTINUOUS
10
187.742
20
-136.469
11
187.741
21
-136.472
0
LINE
8
BLACK
6
CONTINUOUS
10
187.741
20
-136.472
11
187.56
21
-137.142
0
LINE
8
BLACK
6
CONTINUOUS
10
187.56
20
-137.142
11
187.558
21
-137.148
0
LINE
8
BLACK
6
CONTINUOUS
10
187.558
20
-137.148
11
187.556
21
-137.151
0
LINE
8
BLACK
6
CONTINUOUS
10
187.556
20
-137.151
11
187.555
21
-137.153
0
LINE
8
BLACK
6
CONTINUOUS
10
187.555
20
-137.153
11
187.224
21
-137.764
0
LINE
8
BLACK
6
CONTINUOUS
10
187.224
20
-137.764
11
187.221
21
-137.769
0
LINE
8
BLACK
6
CONTINUOUS
10
187.221
20
-137.769
11
187.219
21
-137.771
0
LINE
8
BLACK
6
CONTINUOUS
10
187.219
20
-137.771
11
187.218
21
-137.773
0
LINE
8
BLACK
6
CONTINUOUS
10
187.218
20
-137.773
11
186.758
21
-138.289
0
LINE
8
BLACK
6
CONTINUOUS
10
186.758
20
-138.289
11
186.758
21
-138.289
0
LINE
8
BLACK
6
CONTINUOUS
10
186.758
20
-138.289
11
186.757
21
-138.29
0
LINE
8
BLACK
6
CONTINUOUS
10
186.757
20
-138.29
11
186.755
21
-138.292
0
LINE
8
BLACK
6
CONTINUOUS
10
186.755
20
-138.292
11
186.754
21
-138.293
0
LINE
8
BLACK
6
CONTINUOUS
10
186.754
20
-138.293
11
186.754
21
-138.293
0
LINE
8
BLACK
6
CONTINUOUS
10
186.754
20
-138.293
11
186.754
21
-138.293
0
LINE
8
BLACK
6
CONTINUOUS
10
186.754
20
-138.293
11
186.753
21
-138.294
0
LINE
8
BLACK
6
CONTINUOUS
10
186.753
20
-138.294
11
184.462
21
-140.228
0
LINE
8
BLACK
6
CONTINUOUS
10
184.462
20
-140.228
11
184.461
21
-140.229
0
LINE
8
BLACK
6
CONTINUOUS
10
184.461
20
-140.229
11
184.46
21
-140.23
0
LINE
8
BLACK
6
CONTINUOUS
10
184.46
20
-140.23
11
182.071
21
-142.042
0
LINE
8
BLACK
6
CONTINUOUS
10
182.071
20
-142.042
11
182.07
21
-142.043
0
LINE
8
BLACK
6
CONTINUOUS
10
182.07
20
-142.043
11
182.069
21
-142.044
0
LINE
8
BLACK
6
CONTINUOUS
10
182.069
20
-142.044
11
179.589
21
-143.728
0
LINE
8
BLACK
6
CONTINUOUS
10
179.589
20
-143.728
11
179.586
21
-143.73
0
LINE
8
BLACK
6
CONTINUOUS
10
179.586
20
-143.73
11
177.021
21
-145.282
0
LINE
8
BLACK
6
CONTINUOUS
10
177.021
20
-145.282
11
177.019
21
-145.283
0
LINE
8
BLACK
6
CONTINUOUS
10
177.019
20
-145.283
11
174.376
21
-146.699
0
LINE
8
BLACK
6
CONTINUOUS
10
174.376
20
-146.699
11
174.373
21
-146.701
0
LINE
8
BLACK
6
CONTINUOUS
10
174.373
20
-146.701
11
171.66
21
-147.976
0
LINE
8
BLACK
6
CONTINUOUS
10
171.66
20
-147.976
11
171.657
21
-147.977
0
LINE
8
BLACK
6
CONTINUOUS
10
171.657
20
-147.977
11
168.881
21
-149.109
0
LINE
8
BLACK
6
CONTINUOUS
10
168.881
20
-149.109
11
168.878
21
-149.11
0
LINE
8
BLACK
6
CONTINUOUS
10
168.878
20
-149.11
11
166.046
21
-150.096
0
LINE
8
BLACK
6
CONTINUOUS
10
166.046
20
-150.096
11
166.046
21
-150.096
0
LINE
8
BLACK
6
CONTINUOUS
10
166.046
20
-150.096
11
166.044
21
-150.096
0
LINE
8
BLACK
6
CONTINUOUS
10
166.044
20
-150.096
11
163.164
21
-150.932
0
LINE
8
BLACK
6
CONTINUOUS
10
163.164
20
-150.932
11
163.161
21
-150.933
0
LINE
8
BLACK
6
CONTINUOUS
10
163.161
20
-150.933
11
160.242
21
-151.616
0
LINE
8
BLACK
6
CONTINUOUS
10
160.242
20
-151.616
11
160.241
21
-151.617
0
LINE
8
BLACK
6
CONTINUOUS
10
160.241
20
-151.617
11
160.239
21
-151.617
0
LINE
8
BLACK
6
CONTINUOUS
10
160.239
20
-151.617
11
157.288
21
-152.147
0
LINE
8
BLACK
6
CONTINUOUS
10
157.288
20
-152.147
11
157.287
21
-152.147
0
LINE
8
BLACK
6
CONTINUOUS
10
157.287
20
-152.147
11
157.285
21
-152.147
0
LINE
8
BLACK
6
CONTINUOUS
10
157.285
20
-152.147
11
154.31
21
-152.522
0
LINE
8
BLACK
6
CONTINUOUS
10
154.31
20
-152.522
11
154.308
21
-152.522
0
LINE
8
BLACK
6
CONTINUOUS
10
154.308
20
-152.522
11
151.317
21
-152.741
0
LINE
8
BLACK
6
CONTINUOUS
10
151.317
20
-152.741
11
151.316
21
-152.741
0
LINE
8
BLACK
6
CONTINUOUS
10
151.316
20
-152.741
11
151.315
21
-152.741
0
LINE
8
BLACK
6
CONTINUOUS
10
151.315
20
-152.741
11
148.502
21
-152.804
0
LINE
8
BLACK
6
CONTINUOUS
10
148.502
20
-152.804
11
148.501
21
-152.804
0
LINE
8
BLACK
6
CONTINUOUS
10
148.501
20
-152.804
11
148.5
21
-152.804
0
LINE
8
BLACK
6
CONTINUOUS
10
148.5
20
-152.804
11
145.502
21
-152.732
0
LINE
8
BLACK
6
CONTINUOUS
10
145.502
20
-152.732
11
145.501
21
-152.732
0
LINE
8
BLACK
6
CONTINUOUS
10
145.501
20
-152.732
11
145.5
21
-152.732
0
LINE
8
BLACK
6
CONTINUOUS
10
145.5
20
-152.732
11
142.51
21
-152.504
0
LINE
8
BLACK
6
CONTINUOUS
10
142.51
20
-152.504
11
142.507
21
-152.503
0
LINE
8
BLACK
6
CONTINUOUS
10
142.507
20
-152.503
11
139.533
21
-152.119
0
LINE
8
BLACK
6
CONTINUOUS
10
139.533
20
-152.119
11
139.533
21
-152.119
0
LINE
8
BLACK
6
CONTINUOUS
10
139.533
20
-152.119
11
139.531
21
-152.119
0
LINE
8
BLACK
6
CONTINUOUS
10
139.531
20
-152.119
11
136.581
21
-151.579
0
LINE
8
BLACK
6
CONTINUOUS
10
136.581
20
-151.579
11
136.579
21
-151.578
0
LINE
8
BLACK
6
CONTINUOUS
10
136.579
20
-151.578
11
133.661
21
-150.885
0
LINE
8
BLACK
6
CONTINUOUS
10
133.661
20
-150.885
11
133.66
21
-150.885
0
LINE
8
BLACK
6
CONTINUOUS
10
133.66
20
-150.885
11
133.659
21
-150.885
0
LINE
8
BLACK
6
CONTINUOUS
10
133.659
20
-150.885
11
130.782
21
-150.04
0
LINE
8
BLACK
6
CONTINUOUS
10
130.782
20
-150.04
11
130.781
21
-150.039
0
LINE
8
BLACK
6
CONTINUOUS
10
130.781
20
-150.039
11
130.779
21
-150.039
0
LINE
8
BLACK
6
CONTINUOUS
10
130.779
20
-150.039
11
127.95
21
-149.045
0
LINE
8
BLACK
6
CONTINUOUS
10
127.95
20
-149.045
11
127.949
21
-149.044
0
LINE
8
BLACK
6
CONTINUOUS
10
127.949
20
-149.044
11
127.948
21
-149.044
0
LINE
8
BLACK
6
CONTINUOUS
10
127.948
20
-149.044
11
125.175
21
-147.903
0
LINE
8
BLACK
6
CONTINUOUS
10
125.175
20
-147.903
11
125.173
21
-147.901
0
LINE
8
BLACK
6
CONTINUOUS
10
125.173
20
-147.901
11
122.463
21
-146.617
0
LINE
8
BLACK
6
CONTINUOUS
10
122.463
20
-146.617
11
122.461
21
-146.616
0
LINE
8
BLACK
6
CONTINUOUS
10
122.461
20
-146.616
11
119.822
21
-145.191
0
LINE
8
BLACK
6
CONTINUOUS
10
119.822
20
-145.191
11
119.822
21
-145.191
0
LINE
8
BLACK
6
CONTINUOUS
10
119.822
20
-145.191
11
119.82
21
-145.19
0
LINE
8
BLACK
6
CONTINUOUS
10
119.82
20
-145.19
11
117.26
21
-143.629
0
LINE
8
BLACK
6
CONTINUOUS
10
117.26
20
-143.629
11
117.258
21
-143.628
0
LINE
8
BLACK
6
CONTINUOUS
10
117.258
20
-143.628
11
117.257
21
-143.628
0
LINE
8
BLACK
6
CONTINUOUS
10
117.257
20
-143.628
11
114.782
21
-141.935
0
LINE
8
BLACK
6
CONTINUOUS
10
114.782
20
-141.935
11
114.782
21
-141.935
0
LINE
8
BLACK
6
CONTINUOUS
10
114.782
20
-141.935
11
114.78
21
-141.933
0
LINE
8
BLACK
6
CONTINUOUS
10
114.78
20
-141.933
11
112.397
21
-140.114
0
LINE
8
BLACK
6
CONTINUOUS
10
112.397
20
-140.114
11
112.396
21
-140.113
0
LINE
8
BLACK
6
CONTINUOUS
10
112.396
20
-140.113
11
112.395
21
-140.112
0
LINE
8
BLACK
6
CONTINUOUS
10
112.395
20
-140.112
11
110.249
21
-138.294
0
LINE
8
BLACK
6
CONTINUOUS
10
110.249
20
-138.294
11
110.247
21
-138.292
0
LINE
8
BLACK
6
CONTINUOUS
10
110.247
20
-138.292
11
110.245
21
-138.29
0
LINE
8
BLACK
6
CONTINUOUS
10
110.245
20
-138.29
11
110.244
21
-138.289
0
LINE
8
BLACK
6
CONTINUOUS
10
110.244
20
-138.289
11
110.244
21
-138.289
0
LINE
8
BLACK
6
CONTINUOUS
10
110.244
20
-138.289
11
109.782
21
-137.77
0
LINE
8
BLACK
6
CONTINUOUS
10
109.782
20
-137.77
11
109.778
21
-137.765
0
LINE
8
BLACK
6
CONTINUOUS
10
109.778
20
-137.765
11
109.777
21
-137.762
0
LINE
8
BLACK
6
CONTINUOUS
10
109.777
20
-137.762
11
109.775
21
-137.76
0
LINE
8
BLACK
6
CONTINUOUS
10
109.775
20
-137.76
11
109.445
21
-137.149
0
LINE
8
BLACK
6
CONTINUOUS
10
109.445
20
-137.149
11
109.442
21
-137.143
0
LINE
8
BLACK
6
CONTINUOUS
10
109.442
20
-137.143
11
109.442
21
-137.14
0
LINE
8
BLACK
6
CONTINUOUS
10
109.442
20
-137.14
11
109.441
21
-137.138
0
LINE
8
BLACK
6
CONTINUOUS
10
109.441
20
-137.138
11
109.26
21
-136.467
0
LINE
8
BLACK
6
CONTINUOUS
10
109.26
20
-136.467
11
109.259
21
-136.461
0
LINE
8
BLACK
6
CONTINUOUS
10
109.259
20
-136.461
11
109.259
21
-136.458
0
LINE
8
BLACK
6
CONTINUOUS
10
109.259
20
-136.458
11
109.258
21
-136.456
0
LINE
8
BLACK
6
CONTINUOUS
10
109.258
20
-136.456
11
109.237
21
-135.761
0
LINE
8
BLACK
6
CONTINUOUS
10
109.237
20
-135.761
11
109.237
21
-135.755
0
LINE
8
BLACK
6
CONTINUOUS
10
109.237
20
-135.755
11
109.238
21
-135.752
0
LINE
8
BLACK
6
CONTINUOUS
10
109.238
20
-135.752
11
109.238
21
-135.75
0
LINE
8
BLACK
6
CONTINUOUS
10
109.238
20
-135.75
11
109.377
21
-135.069
0
LINE
8
BLACK
6
CONTINUOUS
10
109.377
20
-135.069
11
109.378
21
-135.063
0
LINE
8
BLACK
6
CONTINUOUS
10
109.378
20
-135.063
11
109.38
21
-135.06
0
LINE
8
BLACK
6
CONTINUOUS
10
109.38
20
-135.06
11
109.38
21
-135.058
0
LINE
8
BLACK
6
CONTINUOUS
10
109.38
20
-135.058
11
109.672
21
-134.427
0
LINE
8
BLACK
6
CONTINUOUS
10
109.672
20
-134.427
11
109.675
21
-134.422
0
LINE
8
BLACK
6
CONTINUOUS
10
109.675
20
-134.422
11
109.677
21
-134.42
0
LINE
8
BLACK
6
CONTINUOUS
10
109.677
20
-134.42
11
109.678
21
-134.417
0
LINE
8
BLACK
6
CONTINUOUS
10
109.678
20
-134.417
11
110.104
21
-133.874
0
LINE
8
BLACK
6
CONTINUOUS
10
110.104
20
-133.874
11
110.105
21
-133.872
0
LINE
8
BLACK
6
CONTINUOUS
10
110.105
20
-133.872
11
110.107
21
-133.871
0
LINE
8
BLACK
6
CONTINUOUS
10
110.107
20
-133.871
11
110.483
21
-133.465
0
LINE
8
BLACK
6
CONTINUOUS
10
110.483
20
-133.465
11
111.185
21
-132.537
0
LINE
8
BLACK
6
CONTINUOUS
10
111.185
20
-132.537
11
111.754
21
-131.522
0
LINE
8
BLACK
6
CONTINUOUS
10
111.754
20
-131.522
11
112.18
21
-130.44
0
LINE
8
BLACK
6
CONTINUOUS
10
112.18
20
-130.44
11
112.455
21
-129.31
0
LINE
8
BLACK
6
CONTINUOUS
10
112.455
20
-129.31
11
112.574
21
-128.153
0
LINE
8
BLACK
6
CONTINUOUS
10
112.574
20
-128.153
11
112.535
21
-126.991
0
LINE
8
BLACK
6
CONTINUOUS
10
112.535
20
-126.991
11
112.339
21
-125.844
0
LINE
8
BLACK
6
CONTINUOUS
10
112.339
20
-125.844
11
111.989
21
-124.735
0
LINE
8
BLACK
6
CONTINUOUS
10
111.989
20
-124.735
11
111.492
21
-123.684
0
LINE
8
BLACK
6
CONTINUOUS
10
111.492
20
-123.684
11
110.856
21
-122.71
0
LINE
8
BLACK
6
CONTINUOUS
10
110.856
20
-122.71
11
110.095
21
-121.831
0
LINE
8
BLACK
6
CONTINUOUS
10
110.095
20
-121.831
11
109.221
21
-121.063
0
LINE
8
BLACK
6
CONTINUOUS
10
109.221
20
-121.063
11
108.251
21
-120.422
0
LINE
8
BLACK
6
CONTINUOUS
10
108.251
20
-120.422
11
107.202
21
-119.917
0
LINE
8
BLACK
6
CONTINUOUS
10
107.202
20
-119.917
11
106.092
21
-119.559
0
LINE
8
BLACK
6
CONTINUOUS
10
106.092
20
-119.559
11
106.092
21
-119.559
0
LINE
8
BLACK
6
CONTINUOUS
10
106.092
20
-119.559
11
106.091
21
-119.559
0
LINE
8
BLACK
6
CONTINUOUS
10
106.091
20
-119.559
11
106.09
21
-119.558
0
LINE
8
BLACK
6
CONTINUOUS
10
106.09
20
-119.558
11
105.44
21
-119.314
0
LINE
8
BLACK
6
CONTINUOUS
10
105.44
20
-119.314
11
105.44
21
-119.314
0
LINE
8
BLACK
6
CONTINUOUS
10
105.44
20
-119.314
11
105.44
21
-119.314
0
LINE
8
BLACK
6
CONTINUOUS
10
105.44
20
-119.314
11
105.434
21
-119.311
0
LINE
8
BLACK
6
CONTINUOUS
10
105.434
20
-119.311
11
105.432
21
-119.31
0
LINE
8
BLACK
6
CONTINUOUS
10
105.432
20
-119.31
11
105.43
21
-119.308
0
LINE
8
BLACK
6
CONTINUOUS
10
105.43
20
-119.308
11
104.853
21
-118.92
0
LINE
8
BLACK
6
CONTINUOUS
10
104.853
20
-118.92
11
104.848
21
-118.917
0
LINE
8
BLACK
6
CONTINUOUS
10
104.848
20
-118.917
11
104.846
21
-118.915
0
LINE
8
BLACK
6
CONTINUOUS
10
104.846
20
-118.915
11
104.844
21
-118.913
0
LINE
8
BLACK
6
CONTINUOUS
10
104.844
20
-118.913
11
104.373
21
-118.403
0
LINE
8
BLACK
6
CONTINUOUS
10
104.373
20
-118.403
11
104.373
21
-118.403
0
LINE
8
BLACK
6
CONTINUOUS
10
104.373
20
-118.403
11
104.373
21
-118.403
0
LINE
8
BLACK
6
CONTINUOUS
10
104.373
20
-118.403
11
104.369
21
-118.398
0
LINE
8
BLACK
6
CONTINUOUS
10
104.369
20
-118.398
11
104.367
21
-118.396
0
LINE
8
BLACK
6
CONTINUOUS
10
104.367
20
-118.396
11
104.366
21
-118.393
0
LINE
8
BLACK
6
CONTINUOUS
10
104.366
20
-118.393
11
104.024
21
-117.788
0
LINE
8
BLACK
6
CONTINUOUS
10
104.024
20
-117.788
11
104.021
21
-117.783
0
LINE
8
BLACK
6
CONTINUOUS
10
104.021
20
-117.783
11
104.021
21
-117.78
0
LINE
8
BLACK
6
CONTINUOUS
10
104.021
20
-117.78
11
104.019
21
-117.778
0
LINE
8
BLACK
6
CONTINUOUS
10
104.019
20
-117.778
11
103.826
21
-117.11
0
LINE
8
BLACK
6
CONTINUOUS
10
103.826
20
-117.11
11
103.825
21
-117.104
0
LINE
8
BLACK
6
CONTINUOUS
10
103.825
20
-117.104
11
103.825
21
-117.102
0
LINE
8
BLACK
6
CONTINUOUS
10
103.825
20
-117.102
11
103.824
21
-117.101
0
LINE
8
BLACK
6
CONTINUOUS
10
103.824
20
-117.101
11
103.783
21
-116.607
0
LINE
8
BLACK
6
CONTINUOUS
10
103.783
20
-116.607
11
103.783
21
-116.605
0
LINE
8
BLACK
6
CONTINUOUS
10
103.783
20
-116.605
11
103.783
21
-93.4983
0
LINE
8
BLACK
6
CONTINUOUS
10
103.783
20
-93.4983
11
103.783
21
-93.4954
0
LINE
8
BLACK
6
CONTINUOUS
10
103.783
20
-93.4954
11
103.864
21
-92.8067
0
LINE
8
BLACK
6
CONTINUOUS
10
103.864
20
-92.8067
11
103.865
21
-92.8006
0
LINE
8
BLACK
6
CONTINUOUS
10
103.865
20
-92.8006
11
103.866
21
-92.7981
0
LINE
8
BLACK
6
CONTINUOUS
10
103.866
20
-92.7981
11
103.866
21
-92.7955
0
LINE
8
BLACK
6
CONTINUOUS
10
103.866
20
-92.7955
11
104.103
21
-92.1423
0
LINE
8
BLACK
6
CONTINUOUS
10
104.103
20
-92.1423
11
104.106
21
-92.1366
0
LINE
8
BLACK
6
CONTINUOUS
10
104.106
20
-92.1366
11
104.107
21
-92.1344
0
LINE
8
BLACK
6
CONTINUOUS
10
104.107
20
-92.1344
11
104.109
21
-92.132
0
LINE
8
BLACK
6
CONTINUOUS
10
104.109
20
-92.132
11
104.489
21
-91.5509
0
LINE
8
BLACK
6
CONTINUOUS
10
104.489
20
-91.5509
11
104.489
21
-91.5509
0
LINE
8
BLACK
6
CONTINUOUS
10
104.489
20
-91.5509
11
104.489
21
-91.5509
0
LINE
8
BLACK
6
CONTINUOUS
10
104.489
20
-91.5509
11
104.493
21
-91.5459
0
LINE
8
BLACK
6
CONTINUOUS
10
104.493
20
-91.5459
11
104.495
21
-91.5441
0
LINE
8
BLACK
6
CONTINUOUS
10
104.495
20
-91.5441
11
104.497
21
-91.542
0
LINE
8
BLACK
6
CONTINUOUS
10
104.497
20
-91.542
11
105.001
21
-91.0642
0
LINE
8
BLACK
6
CONTINUOUS
10
105.001
20
-91.0642
11
105.006
21
-91.0602
0
LINE
8
BLACK
6
CONTINUOUS
10
105.006
20
-91.0602
11
105.008
21
-91.0589
0
LINE
8
BLACK
6
CONTINUOUS
10
105.008
20
-91.0589
11
105.011
21
-91.0572
0
LINE
8
BLACK
6
CONTINUOUS
10
105.011
20
-91.0572
11
105.611
21
-90.7082
0
LINE
8
BLACK
6
CONTINUOUS
10
105.611
20
-90.7082
11
105.617
21
-90.7055
0
LINE
8
BLACK
6
CONTINUOUS
10
105.617
20
-90.7055
11
105.619
21
-90.705
0
LINE
8
BLACK
6
CONTINUOUS
10
105.619
20
-90.705
11
105.62
21
-90.7042
0
LINE
8
BLACK
6
CONTINUOUS
10
105.62
20
-90.7042
11
106.077
21
-90.548
0
LINE
8
BLACK
6
CONTINUOUS
10
106.077
20
-90.548
11
106.078
21
-90.5476
0
LINE
8
BLACK
6
CONTINUOUS
10
106.078
20
-90.5476
11
106.079
21
-90.5472
0
LINE
8
BLACK
6
CONTINUOUS
10
106.079
20
-90.5472
11
106.539
21
-90.4166
0
LINE
8
BLACK
6
CONTINUOUS
10
106.539
20
-90.4166
11
107.623
21
-89.9924
0
LINE
8
BLACK
6
CONTINUOUS
10
107.623
20
-89.9924
11
108.638
21
-89.4256
0
LINE
8
BLACK
6
CONTINUOUS
10
108.638
20
-89.4256
11
109.567
21
-88.7261
0
LINE
8
BLACK
6
CONTINUOUS
10
109.567
20
-88.7261
11
110.393
21
-87.907
0
LINE
8
BLACK
6
CONTINUOUS
10
110.393
20
-87.907
11
111.1
21
-86.9835
0
LINE
8
BLACK
6
CONTINUOUS
10
111.1
20
-86.9835
11
111.675
21
-85.9725
0
LINE
8
BLACK
6
CONTINUOUS
10
111.675
20
-85.9725
11
112.108
21
-84.8928
0
LINE
8
BLACK
6
CONTINUOUS
10
112.108
20
-84.8928
11
112.389
21
-83.7645
0
LINE
8
BLACK
6
CONTINUOUS
10
112.389
20
-83.7645
11
112.516
21
-82.6083
0
LINE
8
BLACK
6
CONTINUOUS
10
112.516
20
-82.6083
11
112.484
21
-81.4457
0
LINE
8
BLACK
6
CONTINUOUS
10
112.484
20
-81.4457
11
112.294
21
-80.2982
0
LINE
8
BLACK
6
CONTINUOUS
10
112.294
20
-80.2982
11
111.951
21
-79.187
0
LINE
8
BLACK
6
CONTINUOUS
10
111.951
20
-79.187
11
111.46
21
-78.1326
0
LINE
8
BLACK
6
CONTINUOUS
10
111.46
20
-78.1326
11
110.831
21
-77.1547
0
LINE
8
BLACK
6
CONTINUOUS
10
110.831
20
-77.1547
11
110.072
21
-76.2686
0
LINE
8
BLACK
6
CONTINUOUS
10
110.072
20
-76.2686
11
110.072
21
-76.2682
0
LINE
8
BLACK
6
CONTINUOUS
10
110.072
20
-76.2682
11
110.071
21
-76.2672
0
LINE
8
BLACK
6
CONTINUOUS
10
110.071
20
-76.2672
11
110.07
21
-76.2668
0
LINE
8
BLACK
6
CONTINUOUS
10
110.07
20
-76.2668
11
109.644
21
-75.7179
0
LINE
8
BLACK
6
CONTINUOUS
10
109.644
20
-75.7179
11
109.641
21
-75.7128
0
LINE
8
BLACK
6
CONTINUOUS
10
109.641
20
-75.7128
11
109.64
21
-75.7103
0
LINE
8
BLACK
6
CONTINUOUS
10
109.64
20
-75.7103
11
109.638
21
-75.708
0
LINE
8
BLACK
6
CONTINUOUS
10
109.638
20
-75.708
11
109.35
21
-75.0758
0
LINE
8
BLACK
6
CONTINUOUS
10
109.35
20
-75.0758
11
109.348
21
-75.0701
0
LINE
8
BLACK
6
CONTINUOUS
10
109.348
20
-75.0701
11
109.347
21
-75.0674
0
LINE
8
BLACK
6
CONTINUOUS
10
109.347
20
-75.0674
11
109.347
21
-75.0648
0
LINE
8
BLACK
6
CONTINUOUS
10
109.347
20
-75.0648
11
109.211
21
-74.3833
0
LINE
8
BLACK
6
CONTINUOUS
10
109.211
20
-74.3833
11
109.211
21
-74.3771
0
LINE
8
BLACK
6
CONTINUOUS
10
109.211
20
-74.3771
11
109.211
21
-74.3744
0
LINE
8
BLACK
6
CONTINUOUS
10
109.211
20
-74.3744
11
109.21
21
-74.3717
0
LINE
8
BLACK
6
CONTINUOUS
10
109.21
20
-74.3717
11
109.236
21
-73.6774
0
LINE
8
BLACK
6
CONTINUOUS
10
109.236
20
-73.6774
11
109.236
21
-73.6712
0
LINE
8
BLACK
6
CONTINUOUS
10
109.236
20
-73.6712
11
109.237
21
-73.6686
0
LINE
8
BLACK
6
CONTINUOUS
10
109.237
20
-73.6686
11
109.237
21
-73.6659
0
LINE
8
BLACK
6
CONTINUOUS
10
109.237
20
-73.6659
11
109.422
21
-72.996
0
LINE
8
BLACK
6
CONTINUOUS
10
109.422
20
-72.996
11
109.424
21
-72.9901
0
LINE
8
BLACK
6
CONTINUOUS
10
109.424
20
-72.9901
11
109.425
21
-72.9878
0
LINE
8
BLACK
6
CONTINUOUS
10
109.425
20
-72.9878
11
109.426
21
-72.9852
0
LINE
8
BLACK
6
CONTINUOUS
10
109.426
20
-72.9852
11
109.759
21
-72.3757
0
LINE
8
BLACK
6
CONTINUOUS
10
109.759
20
-72.3757
11
109.763
21
-72.3704
0
LINE
8
BLACK
6
CONTINUOUS
10
109.763
20
-72.3704
11
109.765
21
-72.3685
0
LINE
8
BLACK
6
CONTINUOUS
10
109.765
20
-72.3685
11
109.766
21
-72.3664
0
LINE
8
BLACK
6
CONTINUOUS
10
109.766
20
-72.3664
11
110.21
21
-71.8685
0
LINE
8
BLACK
6
CONTINUOUS
10
110.21
20
-71.8685
11
110.21
21
-71.8683
0
LINE
8
BLACK
6
CONTINUOUS
10
110.21
20
-71.8683
11
110.211
21
-71.8673
0
LINE
8
BLACK
6
CONTINUOUS
10
110.211
20
-71.8673
11
110.213
21
-71.8654
0
LINE
8
BLACK
6
CONTINUOUS
10
110.213
20
-71.8654
11
110.214
21
-71.8643
0
LINE
8
BLACK
6
CONTINUOUS
10
110.214
20
-71.8643
11
110.214
21
-71.8641
0
LINE
8
BLACK
6
CONTINUOUS
10
110.214
20
-71.8641
11
110.214
21
-71.8641
0
LINE
8
BLACK
6
CONTINUOUS
10
110.214
20
-71.8641
11
110.215
21
-71.8637
0
LINE
8
BLACK
6
CONTINUOUS
10
110.215
20
-71.8637
11
112.498
21
-69.9201
0
LINE
8
BLACK
6
CONTINUOUS
10
112.498
20
-69.9201
11
112.498
21
-69.9197
0
LINE
8
BLACK
6
CONTINUOUS
10
112.498
20
-69.9197
11
112.5
21
-69.9184
0
LINE
8
BLACK
6
CONTINUOUS
10
112.5
20
-69.9184
11
114.882
21
-68.0969
0
LINE
8
BLACK
6
CONTINUOUS
10
114.882
20
-68.0969
11
114.884
21
-68.0954
0
LINE
8
BLACK
6
CONTINUOUS
10
114.884
20
-68.0954
11
117.358
21
-66.4011
0
LINE
8
BLACK
6
CONTINUOUS
10
117.358
20
-66.4011
11
117.359
21
-66.4002
0
LINE
8
BLACK
6
CONTINUOUS
10
117.359
20
-66.4002
11
117.36
21
-66.3997
0
LINE
8
BLACK
6
CONTINUOUS
10
117.36
20
-66.3997
11
119.92
21
-64.8371
0
LINE
8
BLACK
6
CONTINUOUS
10
119.92
20
-64.8371
11
119.922
21
-64.8358
0
LINE
8
BLACK
6
CONTINUOUS
10
119.922
20
-64.8358
11
122.559
21
-63.4094
0
LINE
8
BLACK
6
CONTINUOUS
10
122.559
20
-63.4094
11
122.56
21
-63.409
0
LINE
8
BLACK
6
CONTINUOUS
10
122.56
20
-63.409
11
122.562
21
-63.4082
0
LINE
8
BLACK
6
CONTINUOUS
10
122.562
20
-63.4082
11
125.27
21
-62.1218
0
LINE
8
BLACK
6
CONTINUOUS
10
125.27
20
-62.1218
11
125.273
21
-62.1207
0
LINE
8
BLACK
6
CONTINUOUS
10
125.273
20
-62.1207
11
128.045
21
-60.9778
0
LINE
8
BLACK
6
CONTINUOUS
10
128.045
20
-60.9778
11
128.046
21
-60.9774
0
LINE
8
BLACK
6
CONTINUOUS
10
128.046
20
-60.9774
11
128.047
21
-60.9768
0
LINE
8
BLACK
6
CONTINUOUS
10
128.047
20
-60.9768
11
130.875
21
-59.9806
0
LINE
8
BLACK
6
CONTINUOUS
10
130.875
20
-59.9806
11
130.878
21
-59.9798
0
LINE
8
BLACK
6
CONTINUOUS
10
130.878
20
-59.9798
11
133.754
21
-59.1329
0
LINE
8
BLACK
6
CONTINUOUS
10
133.754
20
-59.1329
11
133.757
21
-59.1322
0
LINE
8
BLACK
6
CONTINUOUS
10
133.757
20
-59.1322
11
136.674
21
-58.437
0
LINE
8
BLACK
6
CONTINUOUS
10
136.674
20
-58.437
11
136.675
21
-58.4368
0
LINE
8
BLACK
6
CONTINUOUS
10
136.675
20
-58.4368
11
136.676
21
-58.4365
0
LINE
8
BLACK
6
CONTINUOUS
10
136.676
20
-58.4365
11
139.626
21
-57.8949
0
LINE
8
BLACK
6
CONTINUOUS
10
139.626
20
-57.8949
11
139.628
21
-57.8945
0
LINE
8
BLACK
6
CONTINUOUS
10
139.628
20
-57.8945
11
139.628
21
-57.8945
0
LINE
8
BLACK
6
CONTINUOUS
10
139.628
20
-57.8945
11
142.602
21
-57.508
0
LINE
8
BLACK
6
CONTINUOUS
10
142.602
20
-57.508
11
142.604
21
-57.5077
0
LINE
8
BLACK
6
CONTINUOUS
10
142.604
20
-57.5077
11
145.594
21
-57.2774
0
LINE
8
BLACK
6
CONTINUOUS
10
145.594
20
-57.2774
11
145.597
21
-57.2772
0
LINE
8
BLACK
6
CONTINUOUS
10
145.597
20
-57.2772
11
148.594
21
-57.2037
0
LINE
8
BLACK
6
CONTINUOUS
10
148.594
20
-57.2037
11
148.596
21
-57.2037
0
LINE
8
BLACK
6
CONTINUOUS
10
145.6
20
-57.3772
11
142.613
21
-57.6073
0
LINE
8
BLACK
6
CONTINUOUS
10
142.613
20
-57.6073
11
139.642
21
-57.9935
0
LINE
8
BLACK
6
CONTINUOUS
10
139.642
20
-57.9935
11
136.696
21
-58.5346
0
LINE
8
BLACK
6
CONTINUOUS
10
136.696
20
-58.5346
11
133.781
21
-59.2292
0
LINE
8
BLACK
6
CONTINUOUS
10
133.781
20
-59.2292
11
130.907
21
-60.0753
0
LINE
8
BLACK
6
CONTINUOUS
10
130.907
20
-60.0753
11
128.082
21
-61.0707
0
LINE
8
BLACK
6
CONTINUOUS
10
128.082
20
-61.0707
11
125.312
21
-62.2126
0
LINE
8
BLACK
6
CONTINUOUS
10
125.312
20
-62.2126
11
122.606
21
-63.498
0
LINE
8
BLACK
6
CONTINUOUS
10
122.606
20
-63.498
11
119.971
21
-64.9232
0
LINE
8
BLACK
6
CONTINUOUS
10
119.971
20
-64.9232
11
117.413
21
-66.4843
0
LINE
8
BLACK
6
CONTINUOUS
10
117.413
20
-66.4843
11
114.942
21
-68.1772
0
LINE
8
BLACK
6
CONTINUOUS
10
114.942
20
-68.1772
11
112.562
21
-69.9971
0
LINE
8
BLACK
6
CONTINUOUS
10
112.562
20
-69.9971
11
110.282
21
-71.9376
0
LINE
8
BLACK
6
CONTINUOUS
10
110.282
20
-71.9376
11
109.844
21
-72.4287
0
LINE
8
BLACK
6
CONTINUOUS
10
109.844
20
-72.4287
11
109.517
21
-73.0281
0
LINE
8
BLACK
6
CONTINUOUS
10
109.517
20
-73.0281
11
109.335
21
-73.6868
0
LINE
8
BLACK
6
CONTINUOUS
10
109.335
20
-73.6868
11
109.311
21
-74.3695
0
LINE
8
BLACK
6
CONTINUOUS
10
109.311
20
-74.3695
11
109.443
21
-75.0396
0
LINE
8
BLACK
6
CONTINUOUS
10
109.443
20
-75.0396
11
109.727
21
-75.6612
0
LINE
8
BLACK
6
CONTINUOUS
10
109.727
20
-75.6612
11
110.149
21
-76.2045
0
LINE
8
BLACK
6
CONTINUOUS
10
110.149
20
-76.2045
11
110.909
21
-77.0922
0
LINE
8
BLACK
6
CONTINUOUS
10
110.909
20
-77.0922
11
110.909
21
-77.0926
0
LINE
8
BLACK
6
CONTINUOUS
10
110.909
20
-77.0926
11
110.911
21
-77.0952
0
LINE
8
BLACK
6
CONTINUOUS
10
110.911
20
-77.0952
11
110.913
21
-77.0977
0
LINE
8
BLACK
6
CONTINUOUS
10
110.913
20
-77.0977
11
111.546
21
-78.0814
0
LINE
8
BLACK
6
CONTINUOUS
10
111.546
20
-78.0814
11
111.546
21
-78.0818
0
LINE
8
BLACK
6
CONTINUOUS
10
111.546
20
-78.0818
11
111.548
21
-78.0846
0
LINE
8
BLACK
6
CONTINUOUS
10
111.548
20
-78.0846
11
111.549
21
-78.0873
0
LINE
8
BLACK
6
CONTINUOUS
10
111.549
20
-78.0873
11
112.043
21
-79.1478
0
LINE
8
BLACK
6
CONTINUOUS
10
112.043
20
-79.1478
11
112.043
21
-79.1483
0
LINE
8
BLACK
6
CONTINUOUS
10
112.043
20
-79.1483
11
112.045
21
-79.1513
0
LINE
8
BLACK
6
CONTINUOUS
10
112.045
20
-79.1513
11
112.046
21
-79.1542
0
LINE
8
BLACK
6
CONTINUOUS
10
112.046
20
-79.1542
11
112.391
21
-80.2719
0
LINE
8
BLACK
6
CONTINUOUS
10
112.391
20
-80.2719
11
112.391
21
-80.2724
0
LINE
8
BLACK
6
CONTINUOUS
10
112.391
20
-80.2724
11
112.392
21
-80.2755
0
LINE
8
BLACK
6
CONTINUOUS
10
112.392
20
-80.2755
11
112.393
21
-80.2785
0
LINE
8
BLACK
6
CONTINUOUS
10
112.393
20
-80.2785
11
112.583
21
-81.4328
0
LINE
8
BLACK
6
CONTINUOUS
10
112.583
20
-81.4328
11
112.583
21
-81.4333
0
LINE
8
BLACK
6
CONTINUOUS
10
112.583
20
-81.4333
11
112.583
21
-81.4365
0
LINE
8
BLACK
6
CONTINUOUS
10
112.583
20
-81.4365
11
112.584
21
-81.4396
0
LINE
8
BLACK
6
CONTINUOUS
10
112.584
20
-81.4396
11
112.616
21
-82.609
0
LINE
8
BLACK
6
CONTINUOUS
10
112.616
20
-82.609
11
112.616
21
-82.6095
0
LINE
8
BLACK
6
CONTINUOUS
10
112.616
20
-82.6095
11
112.616
21
-82.6127
0
LINE
8
BLACK
6
CONTINUOUS
10
112.616
20
-82.6127
11
112.615
21
-82.6158
0
LINE
8
BLACK
6
CONTINUOUS
10
112.615
20
-82.6158
11
112.489
21
-83.7787
0
LINE
8
BLACK
6
CONTINUOUS
10
112.489
20
-83.7787
11
112.488
21
-83.7793
0
LINE
8
BLACK
6
CONTINUOUS
10
112.488
20
-83.7793
11
112.488
21
-83.7824
0
LINE
8
BLACK
6
CONTINUOUS
10
112.488
20
-83.7824
11
112.487
21
-83.7854
0
LINE
8
BLACK
6
CONTINUOUS
10
112.487
20
-83.7854
11
112.204
21
-84.9204
0
LINE
8
BLACK
6
CONTINUOUS
10
112.204
20
-84.9204
11
112.204
21
-84.9209
0
LINE
8
BLACK
6
CONTINUOUS
10
112.204
20
-84.9209
11
112.203
21
-84.924
0
LINE
8
BLACK
6
CONTINUOUS
10
112.203
20
-84.924
11
112.202
21
-84.9269
0
LINE
8
BLACK
6
CONTINUOUS
10
112.202
20
-84.9269
11
111.767
21
-86.0128
0
LINE
8
BLACK
6
CONTINUOUS
10
111.767
20
-86.0128
11
111.766
21
-86.0133
0
LINE
8
BLACK
6
CONTINUOUS
10
111.766
20
-86.0133
11
111.765
21
-86.0162
0
LINE
8
BLACK
6
CONTINUOUS
10
111.765
20
-86.0162
11
111.764
21
-86.019
0
LINE
8
BLACK
6
CONTINUOUS
10
111.764
20
-86.019
11
111.185
21
-87.0359
0
LINE
8
BLACK
6
CONTINUOUS
10
111.185
20
-87.0359
11
111.185
21
-87.0363
0
LINE
8
BLACK
6
CONTINUOUS
10
111.185
20
-87.0363
11
111.183
21
-87.0389
0
LINE
8
BLACK
6
CONTINUOUS
10
111.183
20
-87.0389
11
111.182
21
-87.0415
0
LINE
8
BLACK
6
CONTINUOUS
10
111.182
20
-87.0415
11
110.47
21
-87.9705
0
LINE
8
BLACK
6
CONTINUOUS
10
110.47
20
-87.9705
11
110.47
21
-87.9709
0
LINE
8
BLACK
6
CONTINUOUS
10
110.47
20
-87.9709
11
110.468
21
-87.9733
0
LINE
8
BLACK
6
CONTINUOUS
10
110.468
20
-87.9733
11
110.466
21
-87.9756
0
LINE
8
BLACK
6
CONTINUOUS
10
110.466
20
-87.9756
11
109.635
21
-88.7995
0
LINE
8
BLACK
6
CONTINUOUS
10
109.635
20
-88.7995
11
109.635
21
-88.7999
0
LINE
8
BLACK
6
CONTINUOUS
10
109.635
20
-88.7999
11
109.633
21
-88.8019
0
LINE
8
BLACK
6
CONTINUOUS
10
109.633
20
-88.8019
11
109.63
21
-88.804
0
LINE
8
BLACK
6
CONTINUOUS
10
109.63
20
-88.804
11
108.696
21
-89.5075
0
LINE
8
BLACK
6
CONTINUOUS
10
108.696
20
-89.5075
11
108.695
21
-89.5078
0
LINE
8
BLACK
6
CONTINUOUS
10
108.695
20
-89.5078
11
108.693
21
-89.5095
0
LINE
8
BLACK
6
CONTINUOUS
10
108.693
20
-89.5095
11
108.69
21
-89.5112
0
LINE
8
BLACK
6
CONTINUOUS
10
108.69
20
-89.5112
11
107.668
21
-90.0814
0
LINE
8
BLACK
6
CONTINUOUS
10
107.668
20
-90.0814
11
107.668
21
-90.0817
0
LINE
8
BLACK
6
CONTINUOUS
10
107.668
20
-90.0817
11
107.665
21
-90.083
0
LINE
8
BLACK
6
CONTINUOUS
10
107.665
20
-90.083
11
107.662
21
-90.0843
0
LINE
8
BLACK
6
CONTINUOUS
10
107.662
20
-90.0843
11
106.573
21
-90.5106
0
LINE
8
BLACK
6
CONTINUOUS
10
106.573
20
-90.5106
11
106.572
21
-90.5108
0
LINE
8
BLACK
6
CONTINUOUS
10
106.572
20
-90.5108
11
106.57
21
-90.5114
0
LINE
8
BLACK
6
CONTINUOUS
10
106.57
20
-90.5114
11
106.568
21
-90.5121
0
LINE
8
BLACK
6
CONTINUOUS
10
106.568
20
-90.5121
11
106.108
21
-90.643
0
LINE
8
BLACK
6
CONTINUOUS
10
106.108
20
-90.643
11
105.657
21
-90.7972
0
LINE
8
BLACK
6
CONTINUOUS
10
105.657
20
-90.7972
11
105.066
21
-91.1408
0
LINE
8
BLACK
6
CONTINUOUS
10
105.066
20
-91.1408
11
104.57
21
-91.6106
0
LINE
8
BLACK
6
CONTINUOUS
10
104.57
20
-91.6106
11
104.195
21
-92.1819
0
LINE
8
BLACK
6
CONTINUOUS
10
104.195
20
-92.1819
11
103.962
21
-92.8241
0
LINE
8
BLACK
6
CONTINUOUS
10
103.962
20
-92.8241
11
103.883
21
-93.5056
0
LINE
8
BLACK
6
CONTINUOUS
10
103.883
20
-93.5056
11
103.883
21
-116.599
0
LINE
8
BLACK
6
CONTINUOUS
10
103.883
20
-116.599
11
103.923
21
-117.087
0
LINE
8
BLACK
6
CONTINUOUS
10
103.923
20
-117.087
11
104.114
21
-117.744
0
LINE
8
BLACK
6
CONTINUOUS
10
104.114
20
-117.744
11
104.45
21
-118.339
0
LINE
8
BLACK
6
CONTINUOUS
10
104.45
20
-118.339
11
104.914
21
-118.841
0
LINE
8
BLACK
6
CONTINUOUS
10
104.914
20
-118.841
11
105.481
21
-119.222
0
LINE
8
BLACK
6
CONTINUOUS
10
105.481
20
-119.222
11
106.124
21
-119.464
0
LINE
8
BLACK
6
CONTINUOUS
10
106.124
20
-119.464
11
107.236
21
-119.823
0
LINE
8
BLACK
6
CONTINUOUS
10
107.236
20
-119.823
11
107.237
21
-119.824
0
LINE
8
BLACK
6
CONTINUOUS
10
107.237
20
-119.824
11
107.24
21
-119.825
0
LINE
8
BLACK
6
CONTINUOUS
10
107.24
20
-119.825
11
107.243
21
-119.826
0
LINE
8
BLACK
6
CONTINUOUS
10
107.243
20
-119.826
11
108.297
21
-120.333
0
LINE
8
BLACK
6
CONTINUOUS
10
108.297
20
-120.333
11
108.298
21
-120.333
0
LINE
8
BLACK
6
CONTINUOUS
10
108.298
20
-120.333
11
108.3
21
-120.335
0
LINE
8
BLACK
6
CONTINUOUS
10
108.3
20
-120.335
11
108.303
21
-120.336
0
LINE
8
BLACK
6
CONTINUOUS
10
108.303
20
-120.336
11
109.279
21
-120.982
0
LINE
8
BLACK
6
CONTINUOUS
10
109.279
20
-120.982
11
109.279
21
-120.982
0
LINE
8
BLACK
6
CONTINUOUS
10
109.279
20
-120.982
11
109.282
21
-120.984
0
LINE
8
BLACK
6
CONTINUOUS
10
109.282
20
-120.984
11
109.284
21
-120.986
0
LINE
8
BLACK
6
CONTINUOUS
10
109.284
20
-120.986
11
110.163
21
-121.758
0
LINE
8
BLACK
6
CONTINUOUS
10
110.163
20
-121.758
11
110.164
21
-121.758
0
LINE
8
BLACK
6
CONTINUOUS
10
110.164
20
-121.758
11
110.166
21
-121.76
0
LINE
8
BLACK
6
CONTINUOUS
10
110.166
20
-121.76
11
110.168
21
-121.763
0
LINE
8
BLACK
6
CONTINUOUS
10
110.168
20
-121.763
11
110.934
21
-122.647
0
LINE
8
BLACK
6
CONTINUOUS
10
110.934
20
-122.647
11
110.934
21
-122.647
0
LINE
8
BLACK
6
CONTINUOUS
10
110.934
20
-122.647
11
110.936
21
-122.65
0
LINE
8
BLACK
6
CONTINUOUS
10
110.936
20
-122.65
11
110.938
21
-122.652
0
LINE
8
BLACK
6
CONTINUOUS
10
110.938
20
-122.652
11
111.577
21
-123.632
0
LINE
8
BLACK
6
CONTINUOUS
10
111.577
20
-123.632
11
111.578
21
-123.632
0
LINE
8
BLACK
6
CONTINUOUS
10
111.578
20
-123.632
11
111.579
21
-123.635
0
LINE
8
BLACK
6
CONTINUOUS
10
111.579
20
-123.635
11
111.581
21
-123.638
0
LINE
8
BLACK
6
CONTINUOUS
10
111.581
20
-123.638
11
112.081
21
-124.695
0
LINE
8
BLACK
6
CONTINUOUS
10
112.081
20
-124.695
11
112.081
21
-124.696
0
LINE
8
BLACK
6
CONTINUOUS
10
112.081
20
-124.696
11
112.082
21
-124.699
0
LINE
8
BLACK
6
CONTINUOUS
10
112.082
20
-124.699
11
112.083
21
-124.702
0
LINE
8
BLACK
6
CONTINUOUS
10
112.083
20
-124.702
11
112.435
21
-125.817
0
LINE
8
BLACK
6
CONTINUOUS
10
112.435
20
-125.817
11
112.436
21
-125.818
0
LINE
8
BLACK
6
CONTINUOUS
10
112.436
20
-125.818
11
112.436
21
-125.821
0
LINE
8
BLACK
6
CONTINUOUS
10
112.436
20
-125.821
11
112.437
21
-125.824
0
LINE
8
BLACK
6
CONTINUOUS
10
112.437
20
-125.824
11
112.634
21
-126.977
0
LINE
8
BLACK
6
CONTINUOUS
10
112.634
20
-126.977
11
112.634
21
-126.978
0
LINE
8
BLACK
6
CONTINUOUS
10
112.634
20
-126.978
11
112.635
21
-126.981
0
LINE
8
BLACK
6
CONTINUOUS
10
112.635
20
-126.981
11
112.635
21
-126.984
0
LINE
8
BLACK
6
CONTINUOUS
10
112.635
20
-126.984
11
112.674
21
-128.153
0
LINE
8
BLACK
6
CONTINUOUS
10
112.674
20
-128.153
11
112.674
21
-128.154
0
LINE
8
BLACK
6
CONTINUOUS
10
112.674
20
-128.154
11
112.674
21
-128.157
0
LINE
8
BLACK
6
CONTINUOUS
10
112.674
20
-128.157
11
112.674
21
-128.16
0
LINE
8
BLACK
6
CONTINUOUS
10
112.674
20
-128.16
11
112.554
21
-129.323
0
LINE
8
BLACK
6
CONTINUOUS
10
112.554
20
-129.323
11
112.554
21
-129.324
0
LINE
8
BLACK
6
CONTINUOUS
10
112.554
20
-129.324
11
112.553
21
-129.327
0
LINE
8
BLACK
6
CONTINUOUS
10
112.553
20
-129.327
11
112.553
21
-129.33
0
LINE
8
BLACK
6
CONTINUOUS
10
112.553
20
-129.33
11
112.276
21
-130.467
0
LINE
8
BLACK
6
CONTINUOUS
10
112.276
20
-130.467
11
112.276
21
-130.467
0
LINE
8
BLACK
6
CONTINUOUS
10
112.276
20
-130.467
11
112.275
21
-130.47
0
LINE
8
BLACK
6
CONTINUOUS
10
112.275
20
-130.47
11
112.274
21
-130.473
0
LINE
8
BLACK
6
CONTINUOUS
10
112.274
20
-130.473
11
111.846
21
-131.562
0
LINE
8
BLACK
6
CONTINUOUS
10
111.846
20
-131.562
11
111.845
21
-131.562
0
LINE
8
BLACK
6
CONTINUOUS
10
111.845
20
-131.562
11
111.844
21
-131.565
0
LINE
8
BLACK
6
CONTINUOUS
10
111.844
20
-131.565
11
111.843
21
-131.568
0
LINE
8
BLACK
6
CONTINUOUS
10
111.843
20
-131.568
11
111.27
21
-132.588
0
LINE
8
BLACK
6
CONTINUOUS
10
111.27
20
-132.588
11
111.27
21
-132.589
0
LINE
8
BLACK
6
CONTINUOUS
10
111.27
20
-132.589
11
111.268
21
-132.591
0
LINE
8
BLACK
6
CONTINUOUS
10
111.268
20
-132.591
11
111.267
21
-132.594
0
LINE
8
BLACK
6
CONTINUOUS
10
111.267
20
-132.594
11
110.561
21
-133.527
0
LINE
8
BLACK
6
CONTINUOUS
10
110.561
20
-133.527
11
110.561
21
-133.528
0
LINE
8
BLACK
6
CONTINUOUS
10
110.561
20
-133.528
11
110.559
21
-133.529
0
LINE
8
BLACK
6
CONTINUOUS
10
110.559
20
-133.529
11
110.558
21
-133.531
0
LINE
8
BLACK
6
CONTINUOUS
10
110.558
20
-133.531
11
110.181
21
-133.937
0
LINE
8
BLACK
6
CONTINUOUS
10
110.181
20
-133.937
11
109.76
21
-134.474
0
LINE
8
BLACK
6
CONTINUOUS
10
109.76
20
-134.474
11
109.474
21
-135.094
0
LINE
8
BLACK
6
CONTINUOUS
10
109.474
20
-135.094
11
109.337
21
-135.764
0
LINE
8
BLACK
6
CONTINUOUS
10
109.337
20
-135.764
11
109.358
21
-136.447
0
LINE
8
BLACK
6
CONTINUOUS
10
109.358
20
-136.447
11
109.536
21
-137.106
0
LINE
8
BLACK
6
CONTINUOUS
10
109.536
20
-137.106
11
109.86
21
-137.707
0
LINE
8
BLACK
6
CONTINUOUS
10
109.86
20
-137.707
11
110.316
21
-138.219
0
LINE
8
BLACK
6
CONTINUOUS
10
110.316
20
-138.219
11
112.459
21
-140.035
0
LINE
8
BLACK
6
CONTINUOUS
10
112.459
20
-140.035
11
114.84
21
-141.853
0
LINE
8
BLACK
6
CONTINUOUS
10
114.84
20
-141.853
11
117.313
21
-143.544
0
LINE
8
BLACK
6
CONTINUOUS
10
117.313
20
-143.544
11
119.871
21
-145.104
0
LINE
8
BLACK
6
CONTINUOUS
10
119.871
20
-145.104
11
122.507
21
-146.527
0
LINE
8
BLACK
6
CONTINUOUS
10
122.507
20
-146.527
11
125.214
21
-147.811
0
LINE
8
BLACK
6
CONTINUOUS
10
125.214
20
-147.811
11
127.985
21
-148.951
0
LINE
8
BLACK
6
CONTINUOUS
10
127.985
20
-148.951
11
130.811
21
-149.944
0
LINE
8
BLACK
6
CONTINUOUS
10
130.811
20
-149.944
11
133.686
21
-150.788
0
LINE
8
BLACK
6
CONTINUOUS
10
133.686
20
-150.788
11
136.6
21
-151.481
0
LINE
8
BLACK
6
CONTINUOUS
10
136.6
20
-151.481
11
139.547
21
-152.02
0
LINE
8
BLACK
6
CONTINUOUS
10
139.547
20
-152.02
11
142.519
21
-152.404
0
LINE
8
BLACK
6
CONTINUOUS
10
142.519
20
-152.404
11
145.506
21
-152.632
0
LINE
8
BLACK
6
CONTINUOUS
10
145.506
20
-152.632
11
148.501
21
-152.704
0
LINE
8
BLACK
6
CONTINUOUS
10
148.501
20
-152.704
11
151.311
21
-152.641
0
LINE
8
BLACK
6
CONTINUOUS
10
151.311
20
-152.641
11
154.299
21
-152.423
0
LINE
8
BLACK
6
CONTINUOUS
10
154.299
20
-152.423
11
157.272
21
-152.048
0
LINE
8
BLACK
6
CONTINUOUS
10
157.272
20
-152.048
11
160.22
21
-151.519
0
LINE
8
BLACK
6
CONTINUOUS
10
160.22
20
-151.519
11
163.137
21
-150.836
0
LINE
8
BLACK
6
CONTINUOUS
10
163.137
20
-150.836
11
166.015
21
-150.001
0
LINE
8
BLACK
6
CONTINUOUS
10
166.015
20
-150.001
11
168.844
21
-149.016
0
LINE
8
BLACK
6
CONTINUOUS
10
168.844
20
-149.016
11
171.618
21
-147.885
0
LINE
8
BLACK
6
CONTINUOUS
10
171.618
20
-147.885
11
174.33
21
-146.611
0
LINE
8
BLACK
6
CONTINUOUS
10
174.33
20
-146.611
11
176.97
21
-145.196
0
LINE
8
BLACK
6
CONTINUOUS
10
176.97
20
-145.196
11
179.534
21
-143.645
0
LINE
8
BLACK
6
CONTINUOUS
10
179.534
20
-143.645
11
182.012
21
-141.962
0
LINE
8
BLACK
6
CONTINUOUS
10
182.012
20
-141.962
11
184.399
21
-140.151
0
LINE
8
BLACK
6
CONTINUOUS
10
184.399
20
-140.151
11
186.686
21
-138.219
0
LINE
8
BLACK
6
CONTINUOUS
10
186.686
20
-138.219
11
187.139
21
-137.711
0
LINE
8
BLACK
6
CONTINUOUS
10
187.139
20
-137.711
11
187.465
21
-137.111
0
LINE
8
BLACK
6
CONTINUOUS
10
187.465
20
-137.111
11
187.643
21
-136.451
0
LINE
8
BLACK
6
CONTINUOUS
10
187.643
20
-136.451
11
187.666
21
-135.768
0
LINE
8
BLACK
6
CONTINUOUS
10
187.666
20
-135.768
11
187.53
21
-135.099
0
LINE
8
BLACK
6
CONTINUOUS
10
187.53
20
-135.099
11
187.244
21
-134.478
0
LINE
8
BLACK
6
CONTINUOUS
10
187.244
20
-134.478
11
186.82
21
-133.937
0
LINE
8
BLACK
6
CONTINUOUS
10
186.82
20
-133.937
11
186.057
21
-133.052
0
LINE
8
BLACK
6
CONTINUOUS
10
186.057
20
-133.052
11
186.056
21
-133.051
0
LINE
8
BLACK
6
CONTINUOUS
10
186.056
20
-133.051
11
186.055
21
-133.049
0
LINE
8
BLACK
6
CONTINUOUS
10
186.055
20
-133.049
11
186.053
21
-133.046
0
LINE
8
BLACK
6
CONTINUOUS
10
186.053
20
-133.046
11
185.416
21
-132.065
0
LINE
8
BLACK
6
CONTINUOUS
10
185.416
20
-132.065
11
185.415
21
-132.065
0
LINE
8
BLACK
6
CONTINUOUS
10
185.415
20
-132.065
11
185.414
21
-132.062
0
LINE
8
BLACK
6
CONTINUOUS
10
185.414
20
-132.062
11
185.412
21
-132.059
0
LINE
8
BLACK
6
CONTINUOUS
10
185.412
20
-132.059
11
184.915
21
-131.001
0
LINE
8
BLACK
6
CONTINUOUS
10
184.915
20
-131.001
11
184.914
21
-131
0
LINE
8
BLACK
6
CONTINUOUS
10
184.914
20
-131
11
184.913
21
-130.997
0
LINE
8
BLACK
6
CONTINUOUS
10
184.913
20
-130.997
11
184.912
21
-130.994
0
LINE
8
BLACK
6
CONTINUOUS
10
184.912
20
-130.994
11
184.562
21
-129.878
0
LINE
8
BLACK
6
CONTINUOUS
10
184.562
20
-129.878
11
184.562
21
-129.877
0
LINE
8
BLACK
6
CONTINUOUS
10
184.562
20
-129.877
11
184.562
21
-129.874
0
LINE
8
BLACK
6
CONTINUOUS
10
184.562
20
-129.874
11
184.561
21
-129.871
0
LINE
8
BLACK
6
CONTINUOUS
10
184.561
20
-129.871
11
184.366
21
-128.718
0
LINE
8
BLACK
6
CONTINUOUS
10
184.366
20
-128.718
11
184.366
21
-128.717
0
LINE
8
BLACK
6
CONTINUOUS
10
184.366
20
-128.717
11
184.366
21
-128.714
0
LINE
8
BLACK
6
CONTINUOUS
10
184.366
20
-128.714
11
184.365
21
-128.711
0
LINE
8
BLACK
6
CONTINUOUS
10
184.365
20
-128.711
11
184.329
21
-127.542
0
LINE
8
BLACK
6
CONTINUOUS
10
184.329
20
-127.542
11
184.329
21
-127.541
0
LINE
8
BLACK
6
CONTINUOUS
10
184.329
20
-127.541
11
184.329
21
-127.538
0
LINE
8
BLACK
6
CONTINUOUS
10
184.329
20
-127.538
11
184.329
21
-127.535
0
LINE
8
BLACK
6
CONTINUOUS
10
184.329
20
-127.535
11
184.451
21
-126.372
0
LINE
8
BLACK
6
CONTINUOUS
10
184.451
20
-126.372
11
184.451
21
-126.371
0
LINE
8
BLACK
6
CONTINUOUS
10
184.451
20
-126.371
11
184.452
21
-126.368
0
LINE
8
BLACK
6
CONTINUOUS
10
184.452
20
-126.368
11
184.453
21
-126.365
0
LINE
8
BLACK
6
CONTINUOUS
10
184.453
20
-126.365
11
184.732
21
-125.229
0
LINE
8
BLACK
6
CONTINUOUS
10
184.732
20
-125.229
11
184.732
21
-125.228
0
LINE
8
BLACK
6
CONTINUOUS
10
184.732
20
-125.228
11
184.733
21
-125.225
0
LINE
8
BLACK
6
CONTINUOUS
10
184.733
20
-125.225
11
184.734
21
-125.222
0
LINE
8
BLACK
6
CONTINUOUS
10
184.734
20
-125.222
11
185.165
21
-124.135
0
LINE
8
BLACK
6
CONTINUOUS
10
185.165
20
-124.135
11
185.165
21
-124.134
0
LINE
8
BLACK
6
CONTINUOUS
10
185.165
20
-124.134
11
185.166
21
-124.131
0
LINE
8
BLACK
6
CONTINUOUS
10
185.166
20
-124.131
11
185.168
21
-124.129
0
LINE
8
BLACK
6
CONTINUOUS
10
185.168
20
-124.129
11
185.742
21
-123.109
0
LINE
8
BLACK
6
CONTINUOUS
10
185.742
20
-123.109
11
185.742
21
-123.109
0
LINE
8
BLACK
6
CONTINUOUS
10
185.742
20
-123.109
11
185.744
21
-123.106
0
LINE
8
BLACK
6
CONTINUOUS
10
185.744
20
-123.106
11
185.746
21
-123.104
0
LINE
8
BLACK
6
CONTINUOUS
10
185.746
20
-123.104
11
186.453
21
-122.172
0
LINE
8
BLACK
6
CONTINUOUS
10
186.453
20
-122.172
11
186.454
21
-122.172
0
LINE
8
BLACK
6
CONTINUOUS
10
186.454
20
-122.172
11
186.456
21
-122.169
0
LINE
8
BLACK
6
CONTINUOUS
10
186.456
20
-122.169
11
186.458
21
-122.167
0
LINE
8
BLACK
6
CONTINUOUS
10
186.458
20
-122.167
11
187.285
21
-121.34
0
LINE
8
BLACK
6
CONTINUOUS
10
187.285
20
-121.34
11
187.285
21
-121.339
0
LINE
8
BLACK
6
CONTINUOUS
10
187.285
20
-121.339
11
187.288
21
-121.337
0
LINE
8
BLACK
6
CONTINUOUS
10
187.288
20
-121.337
11
187.29
21
-121.335
0
LINE
8
BLACK
6
CONTINUOUS
10
187.29
20
-121.335
11
188.222
21
-120.628
0
LINE
8
BLACK
6
CONTINUOUS
10
188.222
20
-120.628
11
188.223
21
-120.628
0
LINE
8
BLACK
6
CONTINUOUS
10
188.223
20
-120.628
11
188.225
21
-120.626
0
LINE
8
BLACK
6
CONTINUOUS
10
188.225
20
-120.626
11
188.228
21
-120.624
0
LINE
8
BLACK
6
CONTINUOUS
10
188.228
20
-120.624
11
189.247
21
-120.05
0
LINE
8
BLACK
6
CONTINUOUS
10
189.247
20
-120.05
11
189.248
21
-120.05
0
LINE
8
BLACK
6
CONTINUOUS
10
189.248
20
-120.05
11
189.251
21
-120.049
0
LINE
8
BLACK
6
CONTINUOUS
10
189.251
20
-120.049
11
189.253
21
-120.047
0
LINE
8
BLACK
6
CONTINUOUS
10
189.253
20
-120.047
11
190.341
21
-119.617
0
LINE
8
BLACK
6
CONTINUOUS
10
190.341
20
-119.617
11
190.342
21
-119.617
0
LINE
8
BLACK
6
CONTINUOUS
10
190.342
20
-119.617
11
190.344
21
-119.616
0
LINE
8
BLACK
6
CONTINUOUS
10
190.344
20
-119.616
11
190.346
21
-119.615
0
LINE
8
BLACK
6
CONTINUOUS
10
190.346
20
-119.615
11
190.88
21
-119.464
0
LINE
8
BLACK
6
CONTINUOUS
10
190.88
20
-119.464
11
191.345
21
-119.306
0
LINE
8
BLACK
6
CONTINUOUS
10
191.345
20
-119.306
11
191.936
21
-118.962
0
LINE
8
BLACK
6
CONTINUOUS
10
191.936
20
-118.962
11
192.432
21
-118.493
0
LINE
8
BLACK
6
CONTINUOUS
10
192.432
20
-118.493
11
192.807
21
-117.921
0
LINE
8
BLACK
6
CONTINUOUS
10
192.807
20
-117.921
11
193.04
21
-117.279
0
LINE
8
BLACK
6
CONTINUOUS
10
193.04
20
-117.279
11
193.119
21
-116.598
0
LINE
8
BLACK
6
CONTINUOUS
10
193.119
20
-116.598
11
193.119
21
-93.5047
0
LINE
8
BLACK
6
CONTINUOUS
10
193.119
20
-93.5047
11
193.081
21
-93.0306
0
LINE
8
BLACK
6
CONTINUOUS
10
193.081
20
-93.0306
11
192.894
21
-92.3726
0
LINE
8
BLACK
6
CONTINUOUS
10
192.894
20
-92.3726
11
192.561
21
-91.7761
0
LINE
8
BLACK
6
CONTINUOUS
10
192.561
20
-91.7761
11
192.1
21
-91.2722
0
LINE
8
BLACK
6
CONTINUOUS
10
192.1
20
-91.2722
11
191.535
21
-90.888
0
LINE
8
BLACK
6
CONTINUOUS
10
191.535
20
-90.888
11
190.892
21
-90.6424
0
LINE
8
BLACK
6
CONTINUOUS
10
190.892
20
-90.6424
11
189.782
21
-90.2779
0
LINE
8
BLACK
6
CONTINUOUS
10
189.782
20
-90.2779
11
189.781
21
-90.2777
0
LINE
8
BLACK
6
CONTINUOUS
10
189.781
20
-90.2777
11
189.779
21
-90.2765
0
LINE
8
BLACK
6
CONTINUOUS
10
189.779
20
-90.2765
11
189.776
21
-90.2754
0
LINE
8
BLACK
6
CONTINUOUS
10
189.776
20
-90.2754
11
188.724
21
-89.763
0
LINE
8
BLACK
6
CONTINUOUS
10
188.724
20
-89.763
11
188.723
21
-89.7628
0
LINE
8
BLACK
6
CONTINUOUS
10
188.723
20
-89.7628
11
188.721
21
-89.7612
0
LINE
8
BLACK
6
CONTINUOUS
10
188.721
20
-89.7612
11
188.718
21
-89.7596
0
LINE
8
BLACK
6
CONTINUOUS
10
188.718
20
-89.7596
11
187.746
21
-89.1093
0
LINE
8
BLACK
6
CONTINUOUS
10
187.746
20
-89.1093
11
187.745
21
-89.109
0
LINE
8
BLACK
6
CONTINUOUS
10
187.745
20
-89.109
11
187.743
21
-89.107
0
LINE
8
BLACK
6
CONTINUOUS
10
187.743
20
-89.107
11
187.74
21
-89.1051
0
LINE
8
BLACK
6
CONTINUOUS
10
187.74
20
-89.1051
11
186.865
21
-88.3288
0
LINE
8
BLACK
6
CONTINUOUS
10
186.865
20
-88.3288
11
186.865
21
-88.3285
0
LINE
8
BLACK
6
CONTINUOUS
10
186.865
20
-88.3285
11
186.862
21
-88.3262
0
LINE
8
BLACK
6
CONTINUOUS
10
186.862
20
-88.3262
11
186.86
21
-88.324
0
LINE
8
BLACK
6
CONTINUOUS
10
186.86
20
-88.324
11
186.099
21
-87.4361
0
LINE
8
BLACK
6
CONTINUOUS
10
186.099
20
-87.4361
11
186.098
21
-87.4357
0
LINE
8
BLACK
6
CONTINUOUS
10
186.098
20
-87.4357
11
186.096
21
-87.4332
0
LINE
8
BLACK
6
CONTINUOUS
10
186.096
20
-87.4332
11
186.094
21
-87.4307
0
LINE
8
BLACK
6
CONTINUOUS
10
186.094
20
-87.4307
11
185.46
21
-86.4476
0
LINE
8
BLACK
6
CONTINUOUS
10
185.46
20
-86.4476
11
185.46
21
-86.4472
0
LINE
8
BLACK
6
CONTINUOUS
10
185.46
20
-86.4472
11
185.458
21
-86.4444
0
LINE
8
BLACK
6
CONTINUOUS
10
185.458
20
-86.4444
11
185.457
21
-86.4417
0
LINE
8
BLACK
6
CONTINUOUS
10
185.457
20
-86.4417
11
184.962
21
-85.3816
0
LINE
8
BLACK
6
CONTINUOUS
10
184.962
20
-85.3816
11
184.962
21
-85.3812
0
LINE
8
BLACK
6
CONTINUOUS
10
184.962
20
-85.3812
11
184.961
21
-85.3782
0
LINE
8
BLACK
6
CONTINUOUS
10
184.961
20
-85.3782
11
184.96
21
-85.3753
0
LINE
8
BLACK
6
CONTINUOUS
10
184.96
20
-85.3753
11
184.613
21
-84.2579
0
LINE
8
BLACK
6
CONTINUOUS
10
184.613
20
-84.2579
11
184.613
21
-84.2574
0
LINE
8
BLACK
6
CONTINUOUS
10
184.613
20
-84.2574
11
184.612
21
-84.2544
0
LINE
8
BLACK
6
CONTINUOUS
10
184.612
20
-84.2544
11
184.612
21
-84.2513
0
LINE
8
BLACK
6
CONTINUOUS
10
184.612
20
-84.2513
11
184.42
21
-83.0972
0
LINE
8
BLACK
6
CONTINUOUS
10
184.42
20
-83.0972
11
184.42
21
-83.0967
0
LINE
8
BLACK
6
CONTINUOUS
10
184.42
20
-83.0967
11
184.42
21
-83.0936
0
LINE
8
BLACK
6
CONTINUOUS
10
184.42
20
-83.0936
11
184.419
21
-83.0905
0
LINE
8
BLACK
6
CONTINUOUS
10
184.419
20
-83.0905
11
184.386
21
-81.9211
0
LINE
8
BLACK
6
CONTINUOUS
10
184.386
20
-81.9211
11
184.386
21
-81.9205
0
LINE
8
BLACK
6
CONTINUOUS
10
184.386
20
-81.9205
11
184.386
21
-81.9174
0
LINE
8
BLACK
6
CONTINUOUS
10
184.386
20
-81.9174
11
184.386
21
-81.9143
0
LINE
8
BLACK
6
CONTINUOUS
10
184.386
20
-81.9143
11
184.512
21
-80.7512
0
LINE
8
BLACK
6
CONTINUOUS
10
184.512
20
-80.7512
11
184.512
21
-80.7507
0
LINE
8
BLACK
6
CONTINUOUS
10
184.512
20
-80.7507
11
184.513
21
-80.7475
0
LINE
8
BLACK
6
CONTINUOUS
10
184.513
20
-80.7475
11
184.513
21
-80.7445
0
LINE
8
BLACK
6
CONTINUOUS
10
184.513
20
-80.7445
11
184.796
21
-79.6092
0
LINE
8
BLACK
6
CONTINUOUS
10
184.796
20
-79.6092
11
184.796
21
-79.6087
0
LINE
8
BLACK
6
CONTINUOUS
10
184.796
20
-79.6087
11
184.797
21
-79.6057
0
LINE
8
BLACK
6
CONTINUOUS
10
184.797
20
-79.6057
11
184.798
21
-79.6028
0
LINE
8
BLACK
6
CONTINUOUS
10
184.798
20
-79.6028
11
185.232
21
-78.5164
0
LINE
8
BLACK
6
CONTINUOUS
10
185.232
20
-78.5164
11
185.232
21
-78.5159
0
LINE
8
BLACK
6
CONTINUOUS
10
185.232
20
-78.5159
11
185.233
21
-78.513
0
LINE
8
BLACK
6
CONTINUOUS
10
185.233
20
-78.513
11
185.235
21
-78.5102
0
LINE
8
BLACK
6
CONTINUOUS
10
185.235
20
-78.5102
11
185.812
21
-77.4928
0
LINE
8
BLACK
6
CONTINUOUS
10
185.812
20
-77.4928
11
185.812
21
-77.4923
0
LINE
8
BLACK
6
CONTINUOUS
10
185.812
20
-77.4923
11
185.814
21
-77.4897
0
LINE
8
BLACK
6
CONTINUOUS
10
185.814
20
-77.4897
11
185.816
21
-77.4871
0
LINE
8
BLACK
6
CONTINUOUS
10
185.816
20
-77.4871
11
186.526
21
-76.5574
0
LINE
8
BLACK
6
CONTINUOUS
10
186.526
20
-76.5574
11
186.526
21
-76.557
0
LINE
8
BLACK
6
CONTINUOUS
10
186.526
20
-76.557
11
186.528
21
-76.5554
0
LINE
8
BLACK
6
CONTINUOUS
10
186.528
20
-76.5554
11
186.529
21
-76.5537
0
LINE
8
BLACK
6
CONTINUOUS
10
186.529
20
-76.5537
11
186.854
21
-76.2036
0
LINE
8
BLACK
6
CONTINUOUS
10
186.854
20
-76.2036
11
187.261
21
-75.6848
0
LINE
8
BLACK
6
CONTINUOUS
10
187.261
20
-75.6848
11
187.55
21
-75.0658
0
LINE
8
BLACK
6
CONTINUOUS
10
187.55
20
-75.0658
11
187.689
21
-74.397
0
LINE
8
BLACK
6
CONTINUOUS
10
187.689
20
-74.397
11
187.671
21
-73.7141
0
LINE
8
BLACK
6
CONTINUOUS
10
187.671
20
-73.7141
11
187.496
21
-73.0537
0
LINE
8
BLACK
6
CONTINUOUS
10
187.496
20
-73.0537
11
187.174
21
-72.4513
0
LINE
8
BLACK
6
CONTINUOUS
10
187.174
20
-72.4513
11
186.72
21
-71.9375
0
LINE
8
BLACK
6
CONTINUOUS
10
186.72
20
-71.9375
11
184.587
21
-70.1158
0
LINE
8
BLACK
6
CONTINUOUS
10
184.587
20
-70.1158
11
182.213
21
-68.288
0
LINE
8
BLACK
6
CONTINUOUS
10
182.213
20
-68.288
11
179.747
21
-66.587
0
LINE
8
BLACK
6
CONTINUOUS
10
179.747
20
-66.587
11
177.195
21
-65.0175
0
LINE
8
BLACK
6
CONTINUOUS
10
177.195
20
-65.0175
11
174.565
21
-63.5836
0
LINE
8
BLACK
6
CONTINUOUS
10
174.565
20
-63.5836
11
171.863
21
-62.2894
0
LINE
8
BLACK
6
CONTINUOUS
10
171.863
20
-62.2894
11
169.097
21
-61.1383
0
LINE
8
BLACK
6
CONTINUOUS
10
169.097
20
-61.1383
11
166.274
21
-60.1336
0
LINE
8
BLACK
6
CONTINUOUS
10
166.274
20
-60.1336
11
163.403
21
-59.278
0
LINE
8
BLACK
6
CONTINUOUS
10
163.403
20
-59.278
11
160.491
21
-58.5738
0
LINE
8
BLACK
6
CONTINUOUS
10
160.491
20
-58.5738
11
157.546
21
-58.023
0
LINE
8
BLACK
6
CONTINUOUS
10
157.546
20
-58.023
11
154.576
21
-57.627
0
LINE
8
BLACK
6
CONTINUOUS
10
154.576
20
-57.627
11
151.59
21
-57.3871
0
LINE
8
BLACK
6
CONTINUOUS
10
151.59
20
-57.3871
11
148.595
21
-57.3037
0
LINE
8
BLACK
6
CONTINUOUS
10
148.595
20
-57.3037
11
145.6
21
-57.3772
0
LINE
8
BLACK
6
CONTINUOUS
10
125.433
20
-136.044
11
125.041
21
-136.436
0
LINE
8
BLACK
6
CONTINUOUS
10
125.041
20
-136.436
11
124.548
21
-136.687
0
LINE
8
BLACK
6
CONTINUOUS
10
124.548
20
-136.687
11
124.001
21
-136.774
0
LINE
8
BLACK
6
CONTINUOUS
10
124.001
20
-136.774
11
123.454
21
-136.687
0
LINE
8
BLACK
6
CONTINUOUS
10
123.454
20
-136.687
11
122.961
21
-136.436
0
LINE
8
BLACK
6
CONTINUOUS
10
122.961
20
-136.436
11
122.569
21
-136.044
0
LINE
8
BLACK
6
CONTINUOUS
10
122.569
20
-136.044
11
122.318
21
-135.551
0
LINE
8
BLACK
6
CONTINUOUS
10
122.318
20
-135.551
11
122.231
21
-135.004
0
LINE
8
BLACK
6
CONTINUOUS
10
122.231
20
-135.004
11
122.318
21
-134.457
0
LINE
8
BLACK
6
CONTINUOUS
10
122.318
20
-134.457
11
122.569
21
-133.963
0
LINE
8
BLACK
6
CONTINUOUS
10
122.569
20
-133.963
11
122.961
21
-133.572
0
LINE
8
BLACK
6
CONTINUOUS
10
122.961
20
-133.572
11
123.454
21
-133.32
0
LINE
8
BLACK
6
CONTINUOUS
10
123.454
20
-133.32
11
124.001
21
-133.234
0
LINE
8
BLACK
6
CONTINUOUS
10
124.001
20
-133.234
11
124.548
21
-133.32
0
LINE
8
BLACK
6
CONTINUOUS
10
124.548
20
-133.32
11
125.041
21
-133.572
0
LINE
8
BLACK
6
CONTINUOUS
10
125.041
20
-133.572
11
125.433
21
-133.963
0
LINE
8
BLACK
6
CONTINUOUS
10
125.433
20
-133.963
11
125.684
21
-134.457
0
LINE
8
BLACK
6
CONTINUOUS
10
125.684
20
-134.457
11
125.771
21
-135.004
0
LINE
8
BLACK
6
CONTINUOUS
10
125.771
20
-135.004
11
125.684
21
-135.551
0
LINE
8
BLACK
6
CONTINUOUS
10
125.684
20
-135.551
11
125.433
21
-136.044
0
LINE
8
BLACK
6
CONTINUOUS
10
125.336
20
-134.034
11
124.971
21
-133.669
0
LINE
8
BLACK
6
CONTINUOUS
10
124.971
20
-133.669
11
124.511
21
-133.434
0
LINE
8
BLACK
6
CONTINUOUS
10
124.511
20
-133.434
11
124.001
21
-133.354
0
LINE
8
BLACK
6
CONTINUOUS
10
124.001
20
-133.354
11
123.491
21
-133.434
0
LINE
8
BLACK
6
CONTINUOUS
10
123.491
20
-133.434
11
123.031
21
-133.669
0
LINE
8
BLACK
6
CONTINUOUS
10
123.031
20
-133.669
11
122.666
21
-134.034
0
LINE
8
BLACK
6
CONTINUOUS
10
122.666
20
-134.034
11
122.432
21
-134.494
0
LINE
8
BLACK
6
CONTINUOUS
10
122.432
20
-134.494
11
122.351
21
-135.004
0
LINE
8
BLACK
6
CONTINUOUS
10
122.351
20
-135.004
11
122.432
21
-135.513
0
LINE
8
BLACK
6
CONTINUOUS
10
122.432
20
-135.513
11
122.666
21
-135.973
0
LINE
8
BLACK
6
CONTINUOUS
10
122.666
20
-135.973
11
123.031
21
-136.338
0
LINE
8
BLACK
6
CONTINUOUS
10
123.031
20
-136.338
11
123.491
21
-136.573
0
LINE
8
BLACK
6
CONTINUOUS
10
123.491
20
-136.573
11
124.001
21
-136.654
0
LINE
8
BLACK
6
CONTINUOUS
10
124.001
20
-136.654
11
124.511
21
-136.573
0
LINE
8
BLACK
6
CONTINUOUS
10
124.511
20
-136.573
11
124.971
21
-136.338
0
LINE
8
BLACK
6
CONTINUOUS
10
124.971
20
-136.338
11
125.336
21
-135.973
0
LINE
8
BLACK
6
CONTINUOUS
10
125.336
20
-135.973
11
125.57
21
-135.513
0
LINE
8
BLACK
6
CONTINUOUS
10
125.57
20
-135.513
11
125.651
21
-135.004
0
LINE
8
BLACK
6
CONTINUOUS
10
125.651
20
-135.004
11
125.57
21
-134.494
0
LINE
8
BLACK
6
CONTINUOUS
10
125.57
20
-134.494
11
125.336
21
-134.034
0
LINE
8
BLACK
6
CONTINUOUS
10
174.433
20
-136.044
11
174.041
21
-136.436
0
LINE
8
BLACK
6
CONTINUOUS
10
174.041
20
-136.436
11
173.548
21
-136.687
0
LINE
8
BLACK
6
CONTINUOUS
10
173.548
20
-136.687
11
173.001
21
-136.774
0
LINE
8
BLACK
6
CONTINUOUS
10
173.001
20
-136.774
11
172.454
21
-136.687
0
LINE
8
BLACK
6
CONTINUOUS
10
172.454
20
-136.687
11
171.961
21
-136.436
0
LINE
8
BLACK
6
CONTINUOUS
10
171.961
20
-136.436
11
171.569
21
-136.044
0
LINE
8
BLACK
6
CONTINUOUS
10
171.569
20
-136.044
11
171.318
21
-135.551
0
LINE
8
BLACK
6
CONTINUOUS
10
171.318
20
-135.551
11
171.231
21
-135.004
0
LINE
8
BLACK
6
CONTINUOUS
10
171.231
20
-135.004
11
171.318
21
-134.457
0
LINE
8
BLACK
6
CONTINUOUS
10
171.318
20
-134.457
11
171.569
21
-133.963
0
LINE
8
BLACK
6
CONTINUOUS
10
171.569
20
-133.963
11
171.961
21
-133.572
0
LINE
8
BLACK
6
CONTINUOUS
10
171.961
20
-133.572
11
172.454
21
-133.32
0
LINE
8
BLACK
6
CONTINUOUS
10
172.454
20
-133.32
11
173.001
21
-133.234
0
LINE
8
BLACK
6
CONTINUOUS
10
173.001
20
-133.234
11
173.548
21
-133.32
0
LINE
8
BLACK
6
CONTINUOUS
10
173.548
20
-133.32
11
174.041
21
-133.572
0
LINE
8
BLACK
6
CONTINUOUS
10
174.041
20
-133.572
11
174.433
21
-133.963
0
LINE
8
BLACK
6
CONTINUOUS
10
174.433
20
-133.963
11
174.684
21
-134.457
0
LINE
8
BLACK
6
CONTINUOUS
10
174.684
20
-134.457
11
174.771
21
-135.004
0
LINE
8
BLACK
6
CONTINUOUS
10
174.771
20
-135.004
11
174.684
21
-135.551
0
LINE
8
BLACK
6
CONTINUOUS
10
174.684
20
-135.551
11
174.433
21
-136.044
0
LINE
8
BLACK
6
CONTINUOUS
10
174.336
20
-134.034
11
173.971
21
-133.669
0
LINE
8
BLACK
6
CONTINUOUS
10
173.971
20
-133.669
11
173.511
21
-133.434
0
LINE
8
BLACK
6
CONTINUOUS
10
173.511
20
-133.434
11
173.001
21
-133.354
0
LINE
8
BLACK
6
CONTINUOUS
10
173.001
20
-133.354
11
172.491
21
-133.434
0
LINE
8
BLACK
6
CONTINUOUS
10
172.491
20
-133.434
11
172.031
21
-133.669
0
LINE
8
BLACK
6
CONTINUOUS
10
172.031
20
-133.669
11
171.666
21
-134.034
0
LINE
8
BLACK
6
CONTINUOUS
10
171.666
20
-134.034
11
171.432
21
-134.494
0
LINE
8
BLACK
6
CONTINUOUS
10
171.432
20
-134.494
11
171.351
21
-135.004
0
LINE
8
BLACK
6
CONTINUOUS
10
171.351
20
-135.004
11
171.432
21
-135.513
0
LINE
8
BLACK
6
CONTINUOUS
10
171.432
20
-135.513
11
171.666
21
-135.973
0
LINE
8
BLACK
6
CONTINUOUS
10
171.666
20
-135.973
11
172.031
21
-136.338
0
LINE
8
BLACK
6
CONTINUOUS
10
172.031
20
-136.338
11
172.491
21
-136.573
0
LINE
8
BLACK
6
CONTINUOUS
10
172.491
20
-136.573
11
173.001
21
-136.654
0
LINE
8
BLACK
6
CONTINUOUS
10
173.001
20
-136.654
11
173.511
21
-136.573
0
LINE
8
BLACK
6
CONTINUOUS
10
173.511
20
-136.573
11
173.971
21
-136.338
0
LINE
8
BLACK
6
CONTINUOUS
10
173.971
20
-136.338
11
174.336
21
-135.973
0
LINE
8
BLACK
6
CONTINUOUS
10
174.336
20
-135.973
11
174.57
21
-135.513
0
LINE
8
BLACK
6
CONTINUOUS
10
174.57
20
-135.513
11
174.651
21
-135.004
0
LINE
8
BLACK
6
CONTINUOUS
10
174.651
20
-135.004
11
174.57
21
-134.494
0
LINE
8
BLACK
6
CONTINUOUS
10
174.57
20
-134.494
11
174.336
21
-134.034
0
LINE
8
BLACK
6
CONTINUOUS
10
163.753
20
-108.134
11
163.359
21
-109.66
0
LINE
8
BLACK
6
CONTINUOUS
10
163.359
20
-109.66
11
162.812
21
-111.137
0
LINE
8
BLACK
6
CONTINUOUS
10
162.812
20
-111.137
11
162.119
21
-112.552
0
LINE
8
BLACK
6
CONTINUOUS
10
162.119
20
-112.552
11
161.286
21
-113.89
0
LINE
8
BLACK
6
CONTINUOUS
10
161.286
20
-113.89
11
160.323
21
-115.136
0
LINE
8
BLACK
6
CONTINUOUS
10
160.323
20
-115.136
11
159.238
21
-116.279
0
LINE
8
BLACK
6
CONTINUOUS
10
159.238
20
-116.279
11
158.044
21
-117.306
0
LINE
8
BLACK
6
CONTINUOUS
10
158.044
20
-117.306
11
156.752
21
-118.208
0
LINE
8
BLACK
6
CONTINUOUS
10
156.752
20
-118.208
11
155.375
21
-118.974
0
LINE
8
BLACK
6
CONTINUOUS
10
155.375
20
-118.974
11
153.928
21
-119.597
0
LINE
8
BLACK
6
CONTINUOUS
10
153.928
20
-119.597
11
152.426
21
-120.071
0
LINE
8
BLACK
6
CONTINUOUS
10
152.426
20
-120.071
11
150.883
21
-120.39
0
LINE
8
BLACK
6
CONTINUOUS
10
150.883
20
-120.39
11
149.316
21
-120.552
0
LINE
8
BLACK
6
CONTINUOUS
10
149.316
20
-120.552
11
147.741
21
-120.555
0
LINE
8
BLACK
6
CONTINUOUS
10
147.741
20
-120.555
11
146.173
21
-120.399
0
LINE
8
BLACK
6
CONTINUOUS
10
146.173
20
-120.399
11
144.629
21
-120.084
0
LINE
8
BLACK
6
CONTINUOUS
10
144.629
20
-120.084
11
143.125
21
-119.616
0
LINE
8
BLACK
6
CONTINUOUS
10
143.125
20
-119.616
11
141.676
21
-118.998
0
LINE
8
BLACK
6
CONTINUOUS
10
141.676
20
-118.998
11
140.296
21
-118.236
0
LINE
8
BLACK
6
CONTINUOUS
10
140.296
20
-118.236
11
139.001
21
-117.34
0
LINE
8
BLACK
6
CONTINUOUS
10
139.001
20
-117.34
11
137.803
21
-116.316
0
LINE
8
BLACK
6
CONTINUOUS
10
137.803
20
-116.316
11
136.715
21
-115.177
0
LINE
8
BLACK
6
CONTINUOUS
10
136.715
20
-115.177
11
135.747
21
-113.934
0
LINE
8
BLACK
6
CONTINUOUS
10
135.747
20
-113.934
11
134.91
21
-112.6
0
LINE
8
BLACK
6
CONTINUOUS
10
134.91
20
-112.6
11
134.212
21
-111.187
0
LINE
8
BLACK
6
CONTINUOUS
10
134.212
20
-111.187
11
133.66
21
-109.711
0
LINE
8
BLACK
6
CONTINUOUS
10
133.66
20
-109.711
11
133.26
21
-108.188
0
LINE
8
BLACK
6
CONTINUOUS
10
133.26
20
-108.188
11
133.016
21
-106.631
0
LINE
8
BLACK
6
CONTINUOUS
10
133.016
20
-106.631
11
132.931
21
-105.058
0
LINE
8
BLACK
6
CONTINUOUS
10
132.931
20
-105.058
11
133.005
21
-103.484
0
LINE
8
BLACK
6
CONTINUOUS
10
133.005
20
-103.484
11
133.238
21
-101.926
0
LINE
8
BLACK
6
CONTINUOUS
10
133.238
20
-101.926
11
133.627
21
-100.399
0
LINE
8
BLACK
6
CONTINUOUS
10
133.627
20
-100.399
11
134.169
21
-98.9199
0
LINE
8
BLACK
6
CONTINUOUS
10
134.169
20
-98.9199
11
134.857
21
-97.5027
0
LINE
8
BLACK
6
CONTINUOUS
10
134.857
20
-97.5027
11
135.685
21
-96.1623
0
LINE
8
BLACK
6
CONTINUOUS
10
135.685
20
-96.1623
11
136.644
21
-94.9124
0
LINE
8
BLACK
6
CONTINUOUS
10
136.644
20
-94.9124
11
137.724
21
-93.7658
0
LINE
8
BLACK
6
CONTINUOUS
10
137.724
20
-93.7658
11
138.915
21
-92.7343
0
LINE
8
BLACK
6
CONTINUOUS
10
138.915
20
-92.7343
11
140.204
21
-91.8284
0
LINE
8
BLACK
6
CONTINUOUS
10
140.204
20
-91.8284
11
141.578
21
-91.0574
0
LINE
8
BLACK
6
CONTINUOUS
10
141.578
20
-91.0574
11
143.023
21
-90.4292
0
LINE
8
BLACK
6
CONTINUOUS
10
143.023
20
-90.4292
11
144.524
21
-89.9502
0
LINE
8
BLACK
6
CONTINUOUS
10
144.524
20
-89.9502
11
146.065
21
-89.6253
0
LINE
8
BLACK
6
CONTINUOUS
10
146.065
20
-89.6253
11
147.632
21
-89.4579
0
LINE
8
BLACK
6
CONTINUOUS
10
147.632
20
-89.4579
11
149.207
21
-89.4496
0
LINE
8
BLACK
6
CONTINUOUS
10
149.207
20
-89.4496
11
150.776
21
-89.6006
0
LINE
8
BLACK
6
CONTINUOUS
10
150.776
20
-89.6006
11
152.321
21
-89.9093
0
LINE
8
BLACK
6
CONTINUOUS
10
152.321
20
-89.9093
11
153.826
21
-90.3726
0
LINE
8
BLACK
6
CONTINUOUS
10
153.826
20
-90.3726
11
155.278
21
-90.9856
0
LINE
8
BLACK
6
CONTINUOUS
10
155.278
20
-90.9856
11
156.66
21
-91.7422
0
LINE
8
BLACK
6
CONTINUOUS
10
156.66
20
-91.7422
11
157.958
21
-92.6346
0
LINE
8
BLACK
6
CONTINUOUS
10
157.958
20
-92.6346
11
159.159
21
-93.6536
0
LINE
8
BLACK
6
CONTINUOUS
10
159.159
20
-93.6536
11
160.252
21
-94.7888
0
LINE
8
BLACK
6
CONTINUOUS
10
160.252
20
-94.7888
11
161.224
21
-96.0285
0
LINE
8
BLACK
6
CONTINUOUS
10
161.224
20
-96.0285
11
162.066
21
-97.3602
0
LINE
8
BLACK
6
CONTINUOUS
10
162.066
20
-97.3602
11
162.769
21
-98.7702
0
LINE
8
BLACK
6
CONTINUOUS
10
162.769
20
-98.7702
11
163.326
21
-100.244
0
LINE
8
BLACK
6
CONTINUOUS
10
163.326
20
-100.244
11
163.731
21
-101.766
0
LINE
8
BLACK
6
CONTINUOUS
10
163.731
20
-101.766
11
163.98
21
-103.322
0
LINE
8
BLACK
6
CONTINUOUS
10
163.98
20
-103.322
11
164.071
21
-104.895
0
LINE
8
BLACK
6
CONTINUOUS
10
164.071
20
-104.895
11
164.071
21
-105.004
0
LINE
8
BLACK
6
CONTINUOUS
10
164.071
20
-105.004
11
163.991
21
-106.577
0
LINE
8
BLACK
6
CONTINUOUS
10
163.991
20
-106.577
11
163.753
21
-108.134
0
LINE
8
BLACK
6
CONTINUOUS
10
163.636
20
-101.897
11
163.244
21
-100.383
0
LINE
8
BLACK
6
CONTINUOUS
10
163.244
20
-100.383
11
162.702
21
-98.9172
0
LINE
8
BLACK
6
CONTINUOUS
10
162.702
20
-98.9172
11
162.014
21
-97.5133
0
LINE
8
BLACK
6
CONTINUOUS
10
162.014
20
-97.5133
11
161.188
21
-96.1861
0
LINE
8
BLACK
6
CONTINUOUS
10
161.188
20
-96.1861
11
160.232
21
-94.9491
0
LINE
8
BLACK
6
CONTINUOUS
10
160.232
20
-94.9491
11
159.156
21
-93.8151
0
LINE
8
BLACK
6
CONTINUOUS
10
159.156
20
-93.8151
11
157.971
21
-92.7957
0
LINE
8
BLACK
6
CONTINUOUS
10
157.971
20
-92.7957
11
156.688
21
-91.9013
0
LINE
8
BLACK
6
CONTINUOUS
10
156.688
20
-91.9013
11
155.322
21
-91.141
0
LINE
8
BLACK
6
CONTINUOUS
10
155.322
20
-91.141
11
153.887
21
-90.5226
0
LINE
8
BLACK
6
CONTINUOUS
10
153.887
20
-90.5226
11
152.396
21
-90.0525
0
LINE
8
BLACK
6
CONTINUOUS
10
152.396
20
-90.0525
11
150.865
21
-89.7355
0
LINE
8
BLACK
6
CONTINUOUS
10
150.865
20
-89.7355
11
149.31
21
-89.5748
0
LINE
8
BLACK
6
CONTINUOUS
10
149.31
20
-89.5748
11
147.746
21
-89.572
0
LINE
8
BLACK
6
CONTINUOUS
10
147.746
20
-89.572
11
146.191
21
-89.7273
0
LINE
8
BLACK
6
CONTINUOUS
10
146.191
20
-89.7273
11
144.659
21
-90.039
0
LINE
8
BLACK
6
CONTINUOUS
10
144.659
20
-90.039
11
143.166
21
-90.5039
0
LINE
8
BLACK
6
CONTINUOUS
10
143.166
20
-90.5039
11
141.728
21
-91.1172
0
LINE
8
BLACK
6
CONTINUOUS
10
141.728
20
-91.1172
11
140.36
21
-91.8728
0
LINE
8
BLACK
6
CONTINUOUS
10
140.36
20
-91.8728
11
139.074
21
-92.7627
0
LINE
8
BLACK
6
CONTINUOUS
10
139.074
20
-92.7627
11
137.886
21
-93.778
0
LINE
8
BLACK
6
CONTINUOUS
10
137.886
20
-93.778
11
136.806
21
-94.9083
0
LINE
8
BLACK
6
CONTINUOUS
10
136.806
20
-94.9083
11
135.845
21
-96.1418
0
LINE
8
BLACK
6
CONTINUOUS
10
135.845
20
-96.1418
11
135.014
21
-97.4662
0
LINE
8
BLACK
6
CONTINUOUS
10
135.014
20
-97.4662
11
134.322
21
-98.8677
0
LINE
8
BLACK
6
CONTINUOUS
10
134.322
20
-98.8677
11
133.774
21
-100.332
0
LINE
8
BLACK
6
CONTINUOUS
10
133.774
20
-100.332
11
133.378
21
-101.844
0
LINE
8
BLACK
6
CONTINUOUS
10
133.378
20
-101.844
11
133.136
21
-103.389
0
LINE
8
BLACK
6
CONTINUOUS
10
133.136
20
-103.389
11
133.051
21
-104.95
0
LINE
8
BLACK
6
CONTINUOUS
10
133.051
20
-104.95
11
133.125
21
-106.511
0
LINE
8
BLACK
6
CONTINUOUS
10
133.125
20
-106.511
11
133.356
21
-108.057
0
LINE
8
BLACK
6
CONTINUOUS
10
133.356
20
-108.057
11
133.742
21
-109.572
0
LINE
8
BLACK
6
CONTINUOUS
10
133.742
20
-109.572
11
134.279
21
-111.04
0
LINE
8
BLACK
6
CONTINUOUS
10
134.279
20
-111.04
11
134.962
21
-112.447
0
LINE
8
BLACK
6
CONTINUOUS
10
134.962
20
-112.447
11
135.784
21
-113.777
0
LINE
8
BLACK
6
CONTINUOUS
10
135.784
20
-113.777
11
136.735
21
-115.017
0
LINE
8
BLACK
6
CONTINUOUS
10
136.735
20
-115.017
11
137.807
21
-116.155
0
LINE
8
BLACK
6
CONTINUOUS
10
137.807
20
-116.155
11
138.989
21
-117.178
0
LINE
8
BLACK
6
CONTINUOUS
10
138.989
20
-117.178
11
140.268
21
-118.077
0
LINE
8
BLACK
6
CONTINUOUS
10
140.268
20
-118.077
11
141.631
21
-118.842
0
LINE
8
BLACK
6
CONTINUOUS
10
141.631
20
-118.842
11
143.065
21
-119.466
0
LINE
8
BLACK
6
CONTINUOUS
10
143.065
20
-119.466
11
144.554
21
-119.941
0
LINE
8
BLACK
6
CONTINUOUS
10
144.554
20
-119.941
11
146.084
21
-120.263
0
LINE
8
BLACK
6
CONTINUOUS
10
146.084
20
-120.263
11
147.639
21
-120.43
0
LINE
8
BLACK
6
CONTINUOUS
10
147.639
20
-120.43
11
149.202
21
-120.438
0
LINE
8
BLACK
6
CONTINUOUS
10
149.202
20
-120.438
11
150.758
21
-120.288
0
LINE
8
BLACK
6
CONTINUOUS
10
150.758
20
-120.288
11
152.291
21
-119.982
0
LINE
8
BLACK
6
CONTINUOUS
10
152.291
20
-119.982
11
153.785
21
-119.522
0
LINE
8
BLACK
6
CONTINUOUS
10
153.785
20
-119.522
11
155.225
21
-118.914
0
LINE
8
BLACK
6
CONTINUOUS
10
155.225
20
-118.914
11
156.597
21
-118.163
0
LINE
8
BLACK
6
CONTINUOUS
10
156.597
20
-118.163
11
157.885
21
-117.277
0
LINE
8
BLACK
6
CONTINUOUS
10
157.885
20
-117.277
11
159.077
21
-116.266
0
LINE
8
BLACK
6
CONTINUOUS
10
159.077
20
-116.266
11
160.161
21
-115.14
0
LINE
8
BLACK
6
CONTINUOUS
10
160.161
20
-115.14
11
161.126
21
-113.909
0
LINE
8
BLACK
6
CONTINUOUS
10
161.126
20
-113.909
11
161.961
21
-112.588
0
LINE
8
BLACK
6
CONTINUOUS
10
161.961
20
-112.588
11
162.659
21
-111.189
0
LINE
8
BLACK
6
CONTINUOUS
10
162.659
20
-111.189
11
163.211
21
-109.727
0
LINE
8
BLACK
6
CONTINUOUS
10
163.211
20
-109.727
11
163.613
21
-108.216
0
LINE
8
BLACK
6
CONTINUOUS
10
163.613
20
-108.216
11
163.861
21
-106.672
0
LINE
8
BLACK
6
CONTINUOUS
10
163.861
20
-106.672
11
163.951
21
-105.111
0
LINE
8
BLACK
6
CONTINUOUS
10
163.951
20
-105.111
11
163.951
21
-105.004
0
LINE
8
BLACK
6
CONTINUOUS
10
163.951
20
-105.004
11
163.872
21
-103.442
0
LINE
8
BLACK
6
CONTINUOUS
10
163.872
20
-103.442
11
163.636
21
-101.897
0
LINE
8
BLACK
6
CONTINUOUS
10
174.433
20
-76.044
11
174.041
21
-76.4356
0
LINE
8
BLACK
6
CONTINUOUS
10
174.041
20
-76.4356
11
173.548
21
-76.687
0
LINE
8
BLACK
6
CONTINUOUS
10
173.548
20
-76.687
11
173.001
21
-76.7736
0
LINE
8
BLACK
6
CONTINUOUS
10
173.001
20
-76.7736
11
172.454
21
-76.687
0
LINE
8
BLACK
6
CONTINUOUS
10
172.454
20
-76.687
11
171.961
21
-76.4356
0
LINE
8
BLACK
6
CONTINUOUS
10
171.961
20
-76.4356
11
171.569
21
-76.044
0
LINE
8
BLACK
6
CONTINUOUS
10
171.569
20
-76.044
11
171.318
21
-75.5506
0
LINE
8
BLACK
6
CONTINUOUS
10
171.318
20
-75.5506
11
171.231
21
-75.0036
0
LINE
8
BLACK
6
CONTINUOUS
10
171.231
20
-75.0036
11
171.318
21
-74.4566
0
LINE
8
BLACK
6
CONTINUOUS
10
171.318
20
-74.4566
11
171.569
21
-73.9632
0
LINE
8
BLACK
6
CONTINUOUS
10
171.569
20
-73.9632
11
171.961
21
-73.5716
0
LINE
8
BLACK
6
CONTINUOUS
10
171.961
20
-73.5716
11
172.454
21
-73.3202
0
LINE
8
BLACK
6
CONTINUOUS
10
172.454
20
-73.3202
11
173.001
21
-73.2336
0
LINE
8
BLACK
6
CONTINUOUS
10
173.001
20
-73.2336
11
173.548
21
-73.3202
0
LINE
8
BLACK
6
CONTINUOUS
10
173.548
20
-73.3202
11
174.041
21
-73.5716
0
LINE
8
BLACK
6
CONTINUOUS
10
174.041
20
-73.5716
11
174.433
21
-73.9632
0
LINE
8
BLACK
6
CONTINUOUS
10
174.433
20
-73.9632
11
174.684
21
-74.4566
0
LINE
8
BLACK
6
CONTINUOUS
10
174.684
20
-74.4566
11
174.771
21
-75.0036
0
LINE
8
BLACK
6
CONTINUOUS
10
174.771
20
-75.0036
11
174.684
21
-75.5506
0
LINE
8
BLACK
6
CONTINUOUS
10
174.684
20
-75.5506
11
174.433
21
-76.044
0
LINE
8
BLACK
6
CONTINUOUS
10
174.336
20
-74.0338
11
173.971
21
-73.6687
0
LINE
8
BLACK
6
CONTINUOUS
10
173.971
20
-73.6687
11
173.511
21
-73.4344
0
LINE
8
BLACK
6
CONTINUOUS
10
173.511
20
-73.4344
11
173.001
21
-73.3536
0
LINE
8
BLACK
6
CONTINUOUS
10
173.001
20
-73.3536
11
172.491
21
-73.4344
0
LINE
8
BLACK
6
CONTINUOUS
10
172.491
20
-73.4344
11
172.031
21
-73.6687
0
LINE
8
BLACK
6
CONTINUOUS
10
172.031
20
-73.6687
11
171.666
21
-74.0338
0
LINE
8
BLACK
6
CONTINUOUS
10
171.666
20
-74.0338
11
171.432
21
-74.4937
0
LINE
8
BLACK
6
CONTINUOUS
10
171.432
20
-74.4937
11
171.351
21
-75.0036
0
LINE
8
BLACK
6
CONTINUOUS
10
171.351
20
-75.0036
11
171.432
21
-75.5135
0
LINE
8
BLACK
6
CONTINUOUS
10
171.432
20
-75.5135
11
171.666
21
-75.9734
0
LINE
8
BLACK
6
CONTINUOUS
10
171.666
20
-75.9734
11
172.031
21
-76.3385
0
LINE
8
BLACK
6
CONTINUOUS
10
172.031
20
-76.3385
11
172.491
21
-76.5728
0
LINE
8
BLACK
6
CONTINUOUS
10
172.491
20
-76.5728
11
173.001
21
-76.6536
0
LINE
8
BLACK
6
CONTINUOUS
10
173.001
20
-76.6536
11
173.511
21
-76.5728
0
LINE
8
BLACK
6
CONTINUOUS
10
173.511
20
-76.5728
11
173.971
21
-76.3385
0
LINE
8
BLACK
6
CONTINUOUS
10
173.971
20
-76.3385
11
174.336
21
-75.9734
0
LINE
8
BLACK
6
CONTINUOUS
10
174.336
20
-75.9734
11
174.57
21
-75.5135
0
LINE
8
BLACK
6
CONTINUOUS
10
174.57
20
-75.5135
11
174.651
21
-75.0036
0
LINE
8
BLACK
6
CONTINUOUS
10
174.651
20
-75.0036
11
174.57
21
-74.4937
0
LINE
8
BLACK
6
CONTINUOUS
10
174.57
20
-74.4937
11
174.336
21
-74.0338
0
LINE
8
BLACK
6
CONTINUOUS
10
125.433
20
-76.044
11
125.041
21
-76.4356
0
LINE
8
BLACK
6
CONTINUOUS
10
125.041
20
-76.4356
11
124.548
21
-76.687
0
LINE
8
BLACK
6
CONTINUOUS
10
124.548
20
-76.687
11
124.001
21
-76.7736
0
LINE
8
BLACK
6
CONTINUOUS
10
124.001
20
-76.7736
11
123.454
21
-76.687
0
LINE
8
BLACK
6
CONTINUOUS
10
123.454
20
-76.687
11
122.961
21
-76.4356
0
LINE
8
BLACK
6
CONTINUOUS
10
122.961
20
-76.4356
11
122.569
21
-76.044
0
LINE
8
BLACK
6
CONTINUOUS
10
122.569
20
-76.044
11
122.318
21
-75.5506
0
LINE
8
BLACK
6
CONTINUOUS
10
122.318
20
-75.5506
11
122.231
21
-75.0036
0
LINE
8
BLACK
6
CONTINUOUS
10
122.231
20
-75.0036
11
122.318
21
-74.4566
0
LINE
8
BLACK
6
CONTINUOUS
10
122.318
20
-74.4566
11
122.569
21
-73.9632
0
LINE
8
BLACK
6
CONTINUOUS
10
122.569
20
-73.9632
11
122.961
21
-73.5716
0
LINE
8
BLACK
6
CONTINUOUS
10
122.961
20
-73.5716
11
123.454
21
-73.3202
0
LINE
8
BLACK
6
CONTINUOUS
10
123.454
20
-73.3202
11
124.001
21
-73.2336
0
LINE
8
BLACK
6
CONTINUOUS
10
124.001
20
-73.2336
11
124.548
21
-73.3202
0
LINE
8
BLACK
6
CONTINUOUS
10
124.548
20
-73.3202
11
125.041
21
-73.5716
0
LINE
8
BLACK
6
CONTINUOUS
10
125.041
20
-73.5716
11
125.433
21
-73.9632
0
LINE
8
BLACK
6
CONTINUOUS
10
125.433
20
-73.9632
11
125.684
21
-74.4566
0
LINE
8
BLACK
6
CONTINUOUS
10
125.684
20
-74.4566
11
125.771
21
-75.0036
0
LINE
8
BLACK
6
CONTINUOUS
10
125.771
20
-75.0036
11
125.684
21
-75.5506
0
LINE
8
BLACK
6
CONTINUOUS
10
125.684
20
-75.5506
11
125.433
21
-76.044
0
LINE
8
BLACK
6
CONTINUOUS
10
125.336
20
-74.0338
11
124.971
21
-73.6687
0
LINE
8
BLACK
6
CONTINUOUS
10
124.971
20
-73.6687
11
124.511
21
-73.4344
0
LINE
8
BLACK
6
CONTINUOUS
10
124.511
20
-73.4344
11
124.001
21
-73.3536
0
LINE
8
BLACK
6
CONTINUOUS
10
124.001
20
-73.3536
11
123.491
21
-73.4344
0
LINE
8
BLACK
6
CONTINUOUS
10
123.491
20
-73.4344
11
123.031
21
-73.6687
0
LINE
8
BLACK
6
CONTINUOUS
10
123.031
20
-73.6687
11
122.666
21
-74.0338
0
LINE
8
BLACK
6
CONTINUOUS
10
122.666
20
-74.0338
11
122.432
21
-74.4937
0
LINE
8
BLACK
6
CONTINUOUS
10
122.432
20
-74.4937
11
122.351
21
-75.0036
0
LINE
8
BLACK
6
CONTINUOUS
10
122.351
20
-75.0036
11
122.432
21
-75.5135
0
LINE
8
BLACK
6
CONTINUOUS
10
122.432
20
-75.5135
11
122.666
21
-75.9734
0
LINE
8
BLACK
6
CONTINUOUS
10
122.666
20
-75.9734
11
123.031
21
-76.3385
0
LINE
8
BLACK
6
CONTINUOUS
10
123.031
20
-76.3385
11
123.491
21
-76.5728
0
LINE
8
BLACK
6
CONTINUOUS
10
123.491
20
-76.5728
11
124.001
21
-76.6536
0
LINE
8
BLACK
6
CONTINUOUS
10
124.001
20
-76.6536
11
124.511
21
-76.5728
0
LINE
8
BLACK
6
CONTINUOUS
10
124.511
20
-76.5728
11
124.971
21
-76.3385
0
LINE
8
BLACK
6
CONTINUOUS
10
124.971
20
-76.3385
11
125.336
21
-75.9734
0
LINE
8
BLACK
6
CONTINUOUS
10
125.336
20
-75.9734
11
125.57
21
-75.5135
0
LINE
8
BLACK
6
CONTINUOUS
10
125.57
20
-75.5135
11
125.651
21
-75.0036
0
LINE
8
BLACK
6
CONTINUOUS
10
125.651
20
-75.0036
11
125.57
21
-74.4937
0
LINE
8
BLACK
6
CONTINUOUS
10
125.57
20
-74.4937
11
125.336
21
-74.0338
  0
ENDSEC
  0
EOF
